<?xml version="1.0" encoding="UTF-8" standalone="no"?>
<!-- Generator: Adobe Illustrator 24.3.0, SVG Export Plug-In . SVG Version: 6.00 Build 0)  -->

<svg
   version="1.1"
   id="svg918"
   inkscape:version="1.3.1 (9b9bdc1480, 2023-11-25, custom)"
   x="0px"
   y="0px"
   viewBox="0 0 869.2913 869.2913"
   xml:space="preserve"
   sodipodi:docname="Ger10x11_work.svg"
   width="869.29132"
   height="869.29132"
   xmlns:inkscape="http://www.inkscape.org/namespaces/inkscape"
   xmlns:sodipodi="http://sodipodi.sourceforge.net/DTD/sodipodi-0.dtd"
   xmlns="http://www.w3.org/2000/svg"
   xmlns:svg="http://www.w3.org/2000/svg"><defs
   id="defs232">
	
	
	
	
	
	
	
	
	
	
	
	
	
	
	
	
	
	
	
	
	
	
	
	
	
	
	
	
	
	
	
	
	
	
	
	
	
	
	
	
	
	
	
	
	
	
	
	
	
	
	
	
	
	
	
	
	
	
	
	
	
	
	
	
	
	
	
	
	
	
	
	
	
	
	
	
	
	
	
	
	
	
	
	
	
	
	
	
	
	
	
	
	
	
	
	
	
	
	
	
	
	
	
	
	
	
	
	
	
	
	
	
	
	
	
	
	
	
	
	
	
	
	
	
	
	
	
	
</defs>
<style
   type="text/css"
   id="style1">
	.st0{fill:#F70055;fill-opacity:0.1647;}
	.st1{font-family:'Helvetica';}
	.st2{font-size:30px;}
	.st3{display:none;}
	.st4{display:inline;fill:none;stroke:#FF0000;stroke-width:0.2835;}
	.st5{display:none;fill:none;stroke:#FF0000;stroke-width:0.2835;}
</style>
<sodipodi:namedview
   bordercolor="#666666"
   borderopacity="1"
   gridtolerance="10"
   guidetolerance="10"
   id="namedview920"
   inkscape:current-layer="svg918"
   inkscape:cx="539.93251"
   inkscape:cy="521.45268"
   inkscape:document-units="mm"
   inkscape:pageopacity="0"
   inkscape:pageshadow="2"
   inkscape:window-height="837"
   inkscape:window-maximized="1"
   inkscape:window-width="1600"
   inkscape:window-x="0"
   inkscape:window-y="0"
   inkscape:zoom="0.6223"
   objecttolerance="10"
   pagecolor="#ffffff"
   showgrid="false"
   inkscape:showpageshadow="0"
   inkscape:pagecheckerboard="0"
   inkscape:deskcolor="#505050">
	</sodipodi:namedview>
<path
   id="path2"
   inkscape:connector-curvature="0"
   class="st0"
   d="M 0,0 H 869.29131 V 869.2913 H 0 Z"
   style="fill:#000000;fill-opacity:1;stroke-width:1.02222"
   sodipodi:insensitive="true" /><path
   id="path4"
   inkscape:connector-curvature="0"
   d="m 379.56075,749.2647 c 0,3.5778 -2.96442,6.5422 -6.54217,6.5422 -3.57775,0 -6.54217,-2.9644 -6.54217,-6.5422 0,-3.5777 2.96442,-6.5422 6.54217,-6.5422 3.57775,0 6.54217,2.9645 6.54217,6.5422"
   style="fill:#ffffff;fill-opacity:1;stroke-width:1.02222"
   sodipodi:nodetypes="csssc" /><path
   id="path8"
   inkscape:connector-curvature="0"
   d="m 251.3151,749.2643 c 0,3.5778 -2.96443,6.5422 -6.54218,6.5422 -3.57775,0 -6.54217,-2.9644 -6.54217,-6.5422 0,-3.5777 2.96442,-6.5422 6.54217,-6.5422 3.57775,0 6.54218,2.9645 6.54218,6.5422"
   style="fill:#ffffff;fill-opacity:1;stroke-width:1.02222" /><circle
   id="circle10"
   cx="244.77292"
   cy="749.26434"
   style="fill:#ffffff;fill-opacity:1;stroke-width:1.02222"
   r="6.5421739" /><path
   id="path12"
   inkscape:connector-curvature="0"
   d="m 505.04768,749.2647 c 0,3.5777 -2.96443,6.5421 -6.54218,6.5421 -3.57775,0 -6.54217,-2.9644 -6.54217,-6.5421 0,-3.5778 2.96442,-6.5422 6.54217,-6.5422 3.57775,0 6.54218,2.8622 6.54218,6.5422"
   style="fill:#ffffff;fill-opacity:1;stroke-width:1.02222" /><path
   id="path16"
   inkscape:connector-curvature="0"
   d="m 630.45224,749.2647 c 0,3.5777 -2.96442,6.5421 -6.54217,6.5421 -3.57775,0 -6.54217,-2.9644 -6.54217,-6.5421 0,-3.5778 2.96442,-6.5422 6.54217,-6.5422 3.57775,0 6.54217,2.8622 6.54217,6.5422"
   style="fill:#ffffff;fill-opacity:1;stroke-width:1.02222" /><text
   class="st1 st2"
   id="text1"
   x="102.89161"
   y="131.68538"
   style="fill:#ffffff;fill-opacity:1;stroke-width:1.26591"
   transform="scale(1.0493985,0.95292686)">E</text><text
   class="st1 st2"
   id="text2"
   x="162.70563"
   y="131.68538"
   style="fill:#ffffff;fill-opacity:1;stroke-width:1.26591"
   transform="scale(1.0493985,0.95292686)">S</text><text
   class="st1 st2"
   id="text3"
   x="222.51961"
   y="131.68538"
   style="fill:#ffffff;fill-opacity:1;stroke-width:1.26591"
   transform="scale(1.0493985,0.95292686)">K</text><text
   class="st1 st2"
   id="text4"
   x="291.19501"
   y="131.68538"
   style="fill:#ffffff;fill-opacity:1;stroke-width:1.26591"
   transform="scale(1.0493985,0.95292686)">I</text><text
   class="st1 st2"
   id="text5"
   x="342.14764"
   y="131.68538"
   style="fill:#ffffff;fill-opacity:1;stroke-width:1.26591"
   transform="scale(1.0493985,0.95292686)">S</text><text
   class="st1 st2"
   id="text6"
   x="401.96164"
   y="131.68538"
   style="fill:#ffffff;fill-opacity:1;stroke-width:1.26591"
   transform="scale(1.0493985,0.95292686)">T</text><text
   class="st1 st2"
   id="text7"
   x="461.77567"
   y="131.68538"
   style="fill:#ffffff;fill-opacity:1;stroke-width:1.26591"
   transform="scale(1.0493985,0.95292686)">R</text><text
   class="st1 st2"
   id="text8"
   x="521.5896"
   y="131.68538"
   style="fill:#ffffff;fill-opacity:1;stroke-width:1.26591"
   transform="scale(1.0493985,0.95292686)">F</text><text
   class="st1 st2"
   id="text9"
   x="581.40356"
   y="131.68538"
   style="fill:#ffffff;fill-opacity:1;stroke-width:1.26591"
   transform="scale(1.0493985,0.95292686)">Ü</text><text
   class="st1 st2"
   id="text10"
   x="641.21783"
   y="131.68538"
   style="fill:#ffffff;fill-opacity:1;stroke-width:1.26591"
   transform="scale(1.0493985,0.95292686)">N</text><text
   class="st1 st2"
   id="text11"
   x="701.03174"
   y="131.68538"
   style="fill:#ffffff;fill-opacity:1;stroke-width:1.26591"
   transform="scale(1.0493985,0.95292686)">F</text><text
   class="st1 st2"
   id="text12"
   x="798.43042"
   y="86.371048"
   style="fill:#ffffff;fill-opacity:1;stroke-width:1.32844"> </text><text
   class="st1 st2"
   id="text13"
   x="102.89161"
   y="198.06978"
   style="fill:#ffffff;fill-opacity:1;stroke-width:1.26591"
   transform="scale(1.0493985,0.95292686)">Z</text><text
   class="st1 st2"
   id="text14"
   x="162.70563"
   y="198.06978"
   style="fill:#ffffff;fill-opacity:1;stroke-width:1.26591"
   transform="scale(1.0493985,0.95292686)">E</text><text
   class="st1 st2"
   id="text15"
   x="222.51961"
   y="198.06978"
   style="fill:#ffffff;fill-opacity:1;stroke-width:1.26591"
   transform="scale(1.0493985,0.95292686)">H</text><text
   class="st1 st2"
   id="text16"
   x="282.33362"
   y="198.06978"
   style="fill:#ffffff;fill-opacity:1;stroke-width:1.26591"
   transform="scale(1.0493985,0.95292686)">N</text><text
   class="st1 st2"
   id="text17"
   x="342.14764"
   y="198.06978"
   style="fill:#ffffff;fill-opacity:1;stroke-width:1.26591"
   transform="scale(1.0493985,0.95292686)">Z</text><text
   class="st1 st2"
   id="text18"
   x="398.164"
   y="198.06978"
   style="fill:#ffffff;fill-opacity:1;stroke-width:1.26591"
   transform="scale(1.0493985,0.95292686)">W</text><text
   class="st1 st2"
   id="text19"
   x="461.77567"
   y="198.06978"
   style="fill:#ffffff;fill-opacity:1;stroke-width:1.26591"
   transform="scale(1.0493985,0.95292686)">A</text><text
   class="st1 st2"
   id="text20"
   x="521.5896"
   y="198.06978"
   style="fill:#ffffff;fill-opacity:1;stroke-width:1.26591"
   transform="scale(1.0493985,0.95292686)">N</text><text
   class="st1 st2"
   id="text21"
   x="581.40356"
   y="198.06978"
   style="fill:#ffffff;fill-opacity:1;stroke-width:1.26591"
   transform="scale(1.0493985,0.95292686)">Z</text><text
   class="st1 st2"
   id="text22"
   x="650.07916"
   y="198.06978"
   style="fill:#ffffff;fill-opacity:1;stroke-width:1.26591"
   transform="scale(1.0493985,0.95292686)">I</text><text
   class="st1 st2"
   id="text23"
   x="701.03174"
   y="198.06978"
   style="fill:#ffffff;fill-opacity:1;stroke-width:1.26591"
   transform="scale(1.0493985,0.95292686)">G</text><text
   class="st1 st2"
   id="text24"
   x="798.43042"
   y="156.03481"
   style="fill:#ffffff;fill-opacity:1;stroke-width:1.32844"> </text><text
   class="st1 st2"
   id="text25"
   x="102.89161"
   y="264.45587"
   style="fill:#ffffff;fill-opacity:1;stroke-width:1.26591"
   transform="scale(1.0493985,0.95292686)">D</text><text
   class="st1 st2"
   id="text26"
   x="162.70563"
   y="264.45587"
   style="fill:#ffffff;fill-opacity:1;stroke-width:1.26591"
   transform="scale(1.0493985,0.95292686)">R</text><text
   class="st1 st2"
   id="text27"
   x="222.51961"
   y="264.45587"
   style="fill:#ffffff;fill-opacity:1;stroke-width:1.26591"
   transform="scale(1.0493985,0.95292686)">E</text><text
   class="st1 st2"
   id="text28"
   x="291.19501"
   y="264.45587"
   style="fill:#ffffff;fill-opacity:1;stroke-width:1.26591"
   transform="scale(1.0493985,0.95292686)">I</text><text
   class="st1 st2"
   id="text29"
   x="342.14764"
   y="264.45587"
   style="fill:#ffffff;fill-opacity:1;stroke-width:1.26591"
   transform="scale(1.0493985,0.95292686)">V</text><text
   class="st1 st2"
   id="text30"
   x="410.823"
   y="264.45587"
   style="fill:#ffffff;fill-opacity:1;stroke-width:1.26591"
   transform="scale(1.0493985,0.95292686)">I</text><text
   class="st1 st2"
   id="text31"
   x="461.77567"
   y="264.45587"
   style="fill:#ffffff;fill-opacity:1;stroke-width:1.26591"
   transform="scale(1.0493985,0.95292686)">E</text><text
   class="st1 st2"
   id="text32"
   x="521.5896"
   y="264.45587"
   style="fill:#ffffff;fill-opacity:1;stroke-width:1.26591"
   transform="scale(1.0493985,0.95292686)">R</text><text
   class="st1 st2"
   id="text33"
   x="581.40356"
   y="264.45587"
   style="fill:#ffffff;fill-opacity:1;stroke-width:1.26591"
   transform="scale(1.0493985,0.95292686)">T</text><text
   class="st1 st2"
   id="text34"
   x="641.21783"
   y="264.45587"
   style="fill:#ffffff;fill-opacity:1;stroke-width:1.26591"
   transform="scale(1.0493985,0.95292686)">E</text><text
   class="st1 st2"
   id="text35"
   x="701.03174"
   y="264.45587"
   style="fill:#ffffff;fill-opacity:1;stroke-width:1.26591"
   transform="scale(1.0493985,0.95292686)">L</text><text
   class="st1 st2"
   id="text36"
   x="798.43042"
   y="225.70039"
   style="fill:#ffffff;fill-opacity:1;stroke-width:1.32844"> </text><text
   class="st1 st2"
   id="text37"
   x="102.89161"
   y="330.84128"
   style="fill:#ffffff;fill-opacity:1;stroke-width:1.26591"
   transform="scale(1.0493985,0.95292686)">T</text><text
   class="st1 st2"
   id="text38"
   x="162.70563"
   y="330.84128"
   style="fill:#ffffff;fill-opacity:1;stroke-width:1.26591"
   transform="scale(1.0493985,0.95292686)">G</text><text
   class="st1 st2"
   id="text39"
   x="222.51961"
   y="330.84128"
   style="fill:#ffffff;fill-opacity:1;stroke-width:1.26591"
   transform="scale(1.0493985,0.95292686)">N</text><text
   class="st1 st2"
   id="text40"
   x="282.33362"
   y="330.84128"
   style="fill:#ffffff;fill-opacity:1;stroke-width:1.26591"
   transform="scale(1.0493985,0.95292686)">A</text><text
   class="st1 st2"
   id="text41"
   x="342.14764"
   y="330.84128"
   style="fill:#ffffff;fill-opacity:1;stroke-width:1.26591"
   transform="scale(1.0493985,0.95292686)">C</text><text
   class="st1 st2"
   id="text42"
   x="401.96164"
   y="330.84128"
   style="fill:#ffffff;fill-opacity:1;stroke-width:1.26591"
   transform="scale(1.0493985,0.95292686)">H</text><text
   class="st1 st2"
   id="text43"
   x="461.77567"
   y="330.84128"
   style="fill:#ffffff;fill-opacity:1;stroke-width:1.26591"
   transform="scale(1.0493985,0.95292686)">V</text><text
   class="st1 st2"
   id="text44"
   x="521.5896"
   y="330.84128"
   style="fill:#ffffff;fill-opacity:1;stroke-width:1.26591"
   transform="scale(1.0493985,0.95292686)">O</text><text
   class="st1 st2"
   id="text45"
   x="581.40356"
   y="330.84128"
   style="fill:#ffffff;fill-opacity:1;stroke-width:1.26591"
   transform="scale(1.0493985,0.95292686)">R</text><text
   class="st1 st2"
   id="text46"
   x="641.21783"
   y="330.84128"
   style="fill:#ffffff;fill-opacity:1;stroke-width:1.26591"
   transform="scale(1.0493985,0.95292686)">U</text><text
   class="st1 st2"
   id="text47"
   x="701.03174"
   y="330.84128"
   style="fill:#ffffff;fill-opacity:1;stroke-width:1.26591"
   transform="scale(1.0493985,0.95292686)">M</text><text
   class="st1 st2"
   id="text48"
   x="798.43042"
   y="295.36493"
   style="fill:#ffffff;fill-opacity:1;stroke-width:1.32844"> </text><text
   class="st1 st2"
   id="text49"
   x="102.89161"
   y="397.22641"
   style="fill:#ffffff;fill-opacity:1;stroke-width:1.26591"
   transform="scale(1.0493985,0.95292686)">H</text><text
   class="st1 st2"
   id="text50"
   x="162.70563"
   y="397.22641"
   style="fill:#ffffff;fill-opacity:1;stroke-width:1.26591"
   transform="scale(1.0493985,0.95292686)">A</text><text
   class="st1 st2"
   id="text51"
   x="222.51961"
   y="397.22641"
   style="fill:#ffffff;fill-opacity:1;stroke-width:1.26591"
   transform="scale(1.0493985,0.95292686)">L</text><text
   class="st1 st2"
   id="text52"
   x="282.33362"
   y="397.22641"
   style="fill:#ffffff;fill-opacity:1;stroke-width:1.26591"
   transform="scale(1.0493985,0.95292686)">B</text><text
   class="st1 st2"
   id="text53"
   x="342.14764"
   y="397.22641"
   style="fill:#ffffff;fill-opacity:1;stroke-width:1.26591"
   transform="scale(1.0493985,0.95292686)">G</text><text
   class="st1 st2"
   id="text54"
   x="401.96164"
   y="397.22641"
   style="fill:#ffffff;fill-opacity:1;stroke-width:1.26591"
   transform="scale(1.0493985,0.95292686)">Z</text><text
   class="st1 st2"
   id="text55"
   x="457.97797"
   y="397.22641"
   style="fill:#ffffff;fill-opacity:1;stroke-width:1.26591"
   transform="scale(1.0493985,0.95292686)">W</text><text
   class="st1 st2"
   id="text56"
   x="521.5896"
   y="397.22641"
   style="fill:#ffffff;fill-opacity:1;stroke-width:1.26591"
   transform="scale(1.0493985,0.95292686)">Ö</text><text
   class="st1 st2"
   id="text57"
   x="581.40356"
   y="397.22641"
   style="fill:#ffffff;fill-opacity:1;stroke-width:1.26591"
   transform="scale(1.0493985,0.95292686)">L</text><text
   class="st1 st2"
   id="text58"
   x="641.21783"
   y="397.22641"
   style="fill:#ffffff;fill-opacity:1;stroke-width:1.26591"
   transform="scale(1.0493985,0.95292686)">F</text><text
   class="st1 st2"
   id="text59"
   x="701.03174"
   y="397.22641"
   style="fill:#ffffff;fill-opacity:1;stroke-width:1.26591"
   transform="scale(1.0493985,0.95292686)">J</text><text
   class="st1 st2"
   id="text60"
   x="798.43042"
   y="365.02936"
   style="fill:#ffffff;fill-opacity:1;stroke-width:1.32844"> </text><text
   class="st1 st2"
   id="text61"
   x="102.89161"
   y="463.61069"
   style="fill:#ffffff;fill-opacity:1;stroke-width:1.26591"
   transform="scale(1.0493985,0.95292686)">Z</text><text
   class="st1 st2"
   id="text62"
   x="158.9079"
   y="463.61069"
   style="fill:#ffffff;fill-opacity:1;stroke-width:1.26591"
   transform="scale(1.0493985,0.95292686)">W</text><text
   class="st1 st2"
   id="text63"
   x="222.51961"
   y="463.61069"
   style="fill:#ffffff;fill-opacity:1;stroke-width:1.26591"
   transform="scale(1.0493985,0.95292686)">E</text><text
   class="st1 st2"
   id="text64"
   x="291.19501"
   y="463.61069"
   style="fill:#ffffff;fill-opacity:1;stroke-width:1.26591"
   transform="scale(1.0493985,0.95292686)">I</text><text
   class="st1 st2"
   id="text65"
   x="342.14764"
   y="463.61069"
   style="fill:#ffffff;fill-opacity:1;stroke-width:1.26591"
   transform="scale(1.0493985,0.95292686)">N</text><text
   class="st1 st2"
   id="text66"
   x="401.96164"
   y="463.61069"
   style="fill:#ffffff;fill-opacity:1;stroke-width:1.26591"
   transform="scale(1.0493985,0.95292686)">S</text><text
   class="st1 st2"
   id="text67"
   x="470.63705"
   y="463.61069"
   style="fill:#ffffff;fill-opacity:1;stroke-width:1.26591"
   transform="scale(1.0493985,0.95292686)">I</text><text
   class="st1 st2"
   id="text68"
   x="521.5896"
   y="463.61069"
   style="fill:#ffffff;fill-opacity:1;stroke-width:1.26591"
   transform="scale(1.0493985,0.95292686)">E</text><text
   class="st1 st2"
   id="text69"
   x="581.40356"
   y="463.61069"
   style="fill:#ffffff;fill-opacity:1;stroke-width:1.26591"
   transform="scale(1.0493985,0.95292686)">B</text><text
   class="st1 st2"
   id="text70"
   x="641.21783"
   y="463.61069"
   style="fill:#ffffff;fill-opacity:1;stroke-width:1.26591"
   transform="scale(1.0493985,0.95292686)">E</text><text
   class="st1 st2"
   id="text71"
   x="701.03174"
   y="463.61069"
   style="fill:#ffffff;fill-opacity:1;stroke-width:1.26591"
   transform="scale(1.0493985,0.95292686)">N</text><text
   class="st1 st2"
   id="text72"
   x="798.43042"
   y="434.69318"
   style="fill:#ffffff;fill-opacity:1;stroke-width:1.32844"> </text><text
   class="st1 st2"
   id="text73"
   x="102.89161"
   y="529.99664"
   style="fill:#ffffff;fill-opacity:1;stroke-width:1.26591"
   transform="scale(1.0493985,0.95292686)">K</text><text
   class="st1 st2"
   id="text74"
   x="162.70563"
   y="529.99664"
   style="fill:#ffffff;fill-opacity:1;stroke-width:1.26591"
   transform="scale(1.0493985,0.95292686)">D</text><text
   class="st1 st2"
   id="text75"
   x="222.51961"
   y="529.99664"
   style="fill:#ffffff;fill-opacity:1;stroke-width:1.26591"
   transform="scale(1.0493985,0.95292686)">R</text><text
   class="st1 st2"
   id="text76"
   x="282.33362"
   y="529.99664"
   style="fill:#ffffff;fill-opacity:1;stroke-width:1.26591"
   transform="scale(1.0493985,0.95292686)">E</text><text
   class="st1 st2"
   id="text77"
   x="351.00906"
   y="529.99664"
   style="fill:#ffffff;fill-opacity:1;stroke-width:1.26591"
   transform="scale(1.0493985,0.95292686)">I</text><text
   class="st1 st2"
   id="text78"
   x="401.96164"
   y="529.99664"
   style="fill:#ffffff;fill-opacity:1;stroke-width:1.26591"
   transform="scale(1.0493985,0.95292686)">R</text><text
   class="st1 st2"
   id="text79"
   x="461.77567"
   y="529.99664"
   style="fill:#ffffff;fill-opacity:1;stroke-width:1.26591"
   transform="scale(1.0493985,0.95292686)">H</text><text
   class="st1 st2"
   id="text80"
   x="521.5896"
   y="529.99664"
   style="fill:#ffffff;fill-opacity:1;stroke-width:1.26591"
   transform="scale(1.0493985,0.95292686)">F</text><text
   class="st1 st2"
   id="text81"
   x="581.40356"
   y="529.99664"
   style="fill:#ffffff;fill-opacity:1;stroke-width:1.26591"
   transform="scale(1.0493985,0.95292686)">Ü</text><text
   class="st1 st2"
   id="text82"
   x="641.21783"
   y="529.99664"
   style="fill:#ffffff;fill-opacity:1;stroke-width:1.26591"
   transform="scale(1.0493985,0.95292686)">N</text><text
   class="st1 st2"
   id="text83"
   x="701.03174"
   y="529.99664"
   style="fill:#ffffff;fill-opacity:1;stroke-width:1.26591"
   transform="scale(1.0493985,0.95292686)">F</text><text
   class="st1 st2"
   id="text84"
   x="798.43042"
   y="504.35834"
   style="fill:#ffffff;fill-opacity:1;stroke-width:1.32844"> </text><text
   class="st1 st2"
   id="text85"
   x="102.89161"
   y="596.38251"
   style="fill:#ffffff;fill-opacity:1;stroke-width:1.26591"
   transform="scale(1.0493985,0.95292686)">E</text><text
   class="st1 st2"
   id="text86"
   x="162.70563"
   y="596.38251"
   style="fill:#ffffff;fill-opacity:1;stroke-width:1.26591"
   transform="scale(1.0493985,0.95292686)">L</text><text
   class="st1 st2"
   id="text87"
   x="222.51961"
   y="596.38251"
   style="fill:#ffffff;fill-opacity:1;stroke-width:1.26591"
   transform="scale(1.0493985,0.95292686)">F</text><text
   class="st1 st2"
   id="text88"
   x="282.33362"
   y="596.38251"
   style="fill:#ffffff;fill-opacity:1;stroke-width:1.26591"
   transform="scale(1.0493985,0.95292686)">N</text><text
   class="st1 st2"
   id="text89"
   x="342.14764"
   y="596.38251"
   style="fill:#ffffff;fill-opacity:1;stroke-width:1.26591"
   transform="scale(1.0493985,0.95292686)">E</text><text
   class="st1 st2"
   id="text90"
   x="401.96164"
   y="596.38251"
   style="fill:#ffffff;fill-opacity:1;stroke-width:1.26591"
   transform="scale(1.0493985,0.95292686)">U</text><text
   class="st1 st2"
   id="text91"
   x="461.77567"
   y="596.38251"
   style="fill:#ffffff;fill-opacity:1;stroke-width:1.26591"
   transform="scale(1.0493985,0.95292686)">N</text><text
   class="st1 st2"
   id="text92"
   x="521.5896"
   y="596.38251"
   style="fill:#ffffff;fill-opacity:1;stroke-width:1.26591"
   transform="scale(1.0493985,0.95292686)">V</text><text
   class="st1 st2"
   id="text93"
   x="590.26501"
   y="596.38251"
   style="fill:#ffffff;fill-opacity:1;stroke-width:1.26591"
   transform="scale(1.0493985,0.95292686)">I</text><text
   class="st1 st2"
   id="text94"
   x="641.21783"
   y="596.38251"
   style="fill:#ffffff;fill-opacity:1;stroke-width:1.26591"
   transform="scale(1.0493985,0.95292686)">E</text><text
   class="st1 st2"
   id="text95"
   x="701.03174"
   y="596.38251"
   style="fill:#ffffff;fill-opacity:1;stroke-width:1.26591"
   transform="scale(1.0493985,0.95292686)">R</text><text
   class="st1 st2"
   id="text96"
   x="798.43042"
   y="574.02338"
   style="fill:#ffffff;fill-opacity:1;stroke-width:1.32844"> </text><text
   class="st1 st2"
   id="text97"
   x="102.89161"
   y="662.76703"
   style="fill:#ffffff;fill-opacity:1;stroke-width:1.26591"
   transform="scale(1.0493985,0.95292686)">N</text><text
   class="st1 st2"
   id="text98"
   x="162.70563"
   y="662.76703"
   style="fill:#ffffff;fill-opacity:1;stroke-width:1.26591"
   transform="scale(1.0493985,0.95292686)">A</text><text
   class="st1 st2"
   id="text99"
   x="222.51961"
   y="662.76703"
   style="fill:#ffffff;fill-opacity:1;stroke-width:1.26591"
   transform="scale(1.0493985,0.95292686)">C</text><text
   class="st1 st2"
   id="text100"
   x="282.33362"
   y="662.76703"
   style="fill:#ffffff;fill-opacity:1;stroke-width:1.26591"
   transform="scale(1.0493985,0.95292686)">H</text><text
   class="st1 st2"
   id="text101"
   x="342.14764"
   y="662.76703"
   style="fill:#ffffff;fill-opacity:1;stroke-width:1.26591"
   transform="scale(1.0493985,0.95292686)">T</text><text
   class="st1 st2"
   id="text102"
   x="401.96164"
   y="662.76703"
   style="fill:#ffffff;fill-opacity:1;stroke-width:1.26591"
   transform="scale(1.0493985,0.95292686)">Z</text><text
   class="st1 st2"
   id="text103"
   x="461.77567"
   y="662.76703"
   style="fill:#ffffff;fill-opacity:1;stroke-width:1.26591"
   transform="scale(1.0493985,0.95292686)">E</text><text
   class="st1 st2"
   id="text104"
   x="521.5896"
   y="662.76703"
   style="fill:#ffffff;fill-opacity:1;stroke-width:1.26591"
   transform="scale(1.0493985,0.95292686)">H</text><text
   class="st1 st2"
   id="text105"
   x="581.40356"
   y="662.76703"
   style="fill:#ffffff;fill-opacity:1;stroke-width:1.26591"
   transform="scale(1.0493985,0.95292686)">N</text><text
   class="st1 st2"
   id="text106"
   x="641.21783"
   y="662.76703"
   style="fill:#ffffff;fill-opacity:1;stroke-width:1.26591"
   transform="scale(1.0493985,0.95292686)">B</text><text
   class="st1 st2"
   id="text107"
   x="701.03174"
   y="662.76703"
   style="fill:#ffffff;fill-opacity:1;stroke-width:1.26591"
   transform="scale(1.0493985,0.95292686)">X</text><text
   class="st1 st2"
   id="text108"
   x="798.43042"
   y="643.68744"
   style="fill:#ffffff;fill-opacity:1;stroke-width:1.32844"> </text><text
   class="st1 st2"
   id="text109"
   x="102.89161"
   y="729.15302"
   style="fill:#ffffff;fill-opacity:1;stroke-width:1.26591"
   transform="scale(1.0493985,0.95292686)">U</text><text
   class="st1 st2"
   id="text110"
   x="162.70563"
   y="729.15302"
   style="fill:#ffffff;fill-opacity:1;stroke-width:1.26591"
   transform="scale(1.0493985,0.95292686)">S</text><text
   class="st1 st2"
   id="text111"
   x="222.51961"
   y="729.15302"
   style="fill:#ffffff;fill-opacity:1;stroke-width:1.26591"
   transform="scale(1.0493985,0.95292686)">E</text><text
   class="st1 st2"
   id="text112"
   x="282.33362"
   y="729.15302"
   style="fill:#ffffff;fill-opacity:1;stroke-width:1.26591"
   transform="scale(1.0493985,0.95292686)">C</text><text
   class="st1 st2"
   id="text113"
   x="342.14764"
   y="729.15302"
   style="fill:#ffffff;fill-opacity:1;stroke-width:1.26591"
   transform="scale(1.0493985,0.95292686)">H</text><text
   class="st1 st2"
   id="text114"
   x="401.96164"
   y="729.15302"
   style="fill:#ffffff;fill-opacity:1;stroke-width:1.26591"
   transform="scale(1.0493985,0.95292686)">S</text><text
   class="st1 st2"
   id="text115"
   x="461.77567"
   y="729.15302"
   style="fill:#ffffff;fill-opacity:1;stroke-width:1.26591"
   transform="scale(1.0493985,0.95292686)">F</text><text
   class="st1 st2"
   id="text116"
   x="521.5896"
   y="729.15302"
   style="fill:#ffffff;fill-opacity:1;stroke-width:1.26591"
   transform="scale(1.0493985,0.95292686)">U</text><text
   class="st1 st2"
   id="text117"
   x="581.40356"
   y="729.15302"
   style="fill:#ffffff;fill-opacity:1;stroke-width:1.26591"
   transform="scale(1.0493985,0.95292686)">H</text><text
   class="st1 st2"
   id="text118"
   x="641.21783"
   y="729.15302"
   style="fill:#ffffff;fill-opacity:1;stroke-width:1.26591"
   transform="scale(1.0493985,0.95292686)">R</text><text
   class="st1 st2"
   id="text119"
   x="701.03174"
   y="729.15302"
   style="fill:#ffffff;fill-opacity:1;stroke-width:1.26591"
   transform="scale(1.0493985,0.95292686)">Y</text>
<g
   class="st3"
   id="g232"
   transform="translate(0,0.03197)">
	<path
   class="st4"
   d="m 163,154.5 c 0,4.7 -3.8,8.5 -8.5,8.5 H 129 c -4.7,0 -8.5,-3.8 -8.5,-8.5 V 129 c 0,-4.7 3.8,-8.5 8.5,-8.5 h 25.5 c 4.7,0 8.5,3.8 8.5,8.5 z"
   id="path119" />
	<path
   class="st4"
   d="m 729.9,154.5 c 0,4.7 -3.8,8.5 -8.5,8.5 h -25.5 c -4.7,0 -8.5,-3.8 -8.5,-8.5 V 129 c 0,-4.7 3.8,-8.5 8.5,-8.5 h 25.5 c 4.7,0 8.5,3.8 8.5,8.5 z"
   id="path120" />
	<path
   class="st4"
   d="m 163,721.4 c 0,4.7 -3.8,8.5 -8.5,8.5 H 129 c -4.7,0 -8.5,-3.8 -8.5,-8.5 v -25.5 c 0,-4.7 3.8,-8.5 8.5,-8.5 h 25.5 c 4.7,0 8.5,3.8 8.5,8.5 z"
   id="path121" />
	<path
   class="st4"
   d="m 729.9,721.4 c 0,4.7 -3.8,8.5 -8.5,8.5 h -25.5 c -4.7,0 -8.5,-3.8 -8.5,-8.5 v -25.5 c 0,-4.7 3.8,-8.5 8.5,-8.5 h 25.5 c 4.7,0 8.5,3.8 8.5,8.5 z"
   id="path122" />
	<path
   class="st4"
   d="m 207.4,203.2 c 0,3.9 -3.2,7.1 -7.1,7.1 h -22.7 c -3.9,0 -7.1,-3.2 -7.1,-7.1 v -28.3 c 0,-3.9 3.2,-7.1 7.1,-7.1 h 22.7 c 3.9,0 7.1,3.2 7.1,7.1 z"
   id="path123" />
	<path
   class="st4"
   d="m 254.6,203.2 c 0,3.9 -3.2,7.1 -7.1,7.1 h -22.7 c -3.9,0 -7.1,-3.2 -7.1,-7.1 v -28.3 c 0,-3.9 3.2,-7.1 7.1,-7.1 h 22.7 c 3.9,0 7.1,3.2 7.1,7.1 z"
   id="path124" />
	<path
   class="st4"
   d="m 301.9,203.2 c 0,3.9 -3.2,7.1 -7.1,7.1 h -22.7 c -3.9,0 -7.1,-3.2 -7.1,-7.1 v -28.3 c 0,-3.9 3.2,-7.1 7.1,-7.1 h 22.7 c 3.9,0 7.1,3.2 7.1,7.1 z"
   id="path125" />
	<path
   class="st4"
   d="m 349.1,203.2 c 0,3.9 -3.2,7.1 -7.1,7.1 h -22.7 c -3.9,0 -7.1,-3.2 -7.1,-7.1 v -28.3 c 0,-3.9 3.2,-7.1 7.1,-7.1 H 342 c 3.9,0 7.1,3.2 7.1,7.1 z"
   id="path126" />
	<path
   class="st4"
   d="m 396.4,203.2 c 0,3.9 -3.2,7.1 -7.1,7.1 h -22.7 c -3.9,0 -7.1,-3.2 -7.1,-7.1 v -28.3 c 0,-3.9 3.2,-7.1 7.1,-7.1 h 22.7 c 3.9,0 7.1,3.2 7.1,7.1 z"
   id="path127" />
	<path
   class="st4"
   d="m 443.6,203.2 c 0,3.9 -3.2,7.1 -7.1,7.1 h -22.7 c -3.9,0 -7.1,-3.2 -7.1,-7.1 v -28.3 c 0,-3.9 3.2,-7.1 7.1,-7.1 h 22.7 c 3.9,0 7.1,3.2 7.1,7.1 z"
   id="path128" />
	<path
   class="st4"
   d="m 490.9,203.2 c 0,3.9 -3.2,7.1 -7.1,7.1 h -22.7 c -3.9,0 -7.1,-3.2 -7.1,-7.1 v -28.3 c 0,-3.9 3.2,-7.1 7.1,-7.1 h 22.7 c 3.9,0 7.1,3.2 7.1,7.1 z"
   id="path129" />
	<path
   class="st4"
   d="m 538.1,203.2 c 0,3.9 -3.2,7.1 -7.1,7.1 h -22.7 c -3.9,0 -7.1,-3.2 -7.1,-7.1 v -28.3 c 0,-3.9 3.2,-7.1 7.1,-7.1 H 531 c 3.9,0 7.1,3.2 7.1,7.1 z"
   id="path130" />
	<path
   class="st4"
   d="m 585.4,203.2 c 0,3.9 -3.2,7.1 -7.1,7.1 h -22.7 c -3.9,0 -7.1,-3.2 -7.1,-7.1 v -28.3 c 0,-3.9 3.2,-7.1 7.1,-7.1 h 22.7 c 3.9,0 7.1,3.2 7.1,7.1 z"
   id="path131" />
	<path
   class="st4"
   d="m 632.6,203.2 c 0,3.9 -3.2,7.1 -7.1,7.1 h -22.7 c -3.9,0 -7.1,-3.2 -7.1,-7.1 v -28.3 c 0,-3.9 3.2,-7.1 7.1,-7.1 h 22.7 c 3.9,0 7.1,3.2 7.1,7.1 z"
   id="path132" />
	<path
   class="st4"
   d="m 679.8,203.2 c 0,3.9 -3.2,7.1 -7.1,7.1 H 650 c -3.9,0 -7.1,-3.2 -7.1,-7.1 v -28.3 c 0,-3.9 3.2,-7.1 7.1,-7.1 h 22.7 c 3.9,0 7.1,3.2 7.1,7.1 z"
   id="path133" />
	<path
   class="st4"
   d="m 207.4,255.6 c 0,3.9 -3.2,7.1 -7.1,7.1 h -22.7 c -3.9,0 -7.1,-3.2 -7.1,-7.1 v -28.3 c 0,-3.9 3.2,-7.1 7.1,-7.1 h 22.7 c 3.9,0 7.1,3.2 7.1,7.1 z"
   id="path134" />
	<path
   class="st4"
   d="m 254.6,255.6 c 0,3.9 -3.2,7.1 -7.1,7.1 h -22.7 c -3.9,0 -7.1,-3.2 -7.1,-7.1 v -28.3 c 0,-3.9 3.2,-7.1 7.1,-7.1 h 22.7 c 3.9,0 7.1,3.2 7.1,7.1 z"
   id="path135" />
	<path
   class="st4"
   d="m 301.9,255.6 c 0,3.9 -3.2,7.1 -7.1,7.1 h -22.7 c -3.9,0 -7.1,-3.2 -7.1,-7.1 v -28.3 c 0,-3.9 3.2,-7.1 7.1,-7.1 h 22.7 c 3.9,0 7.1,3.2 7.1,7.1 z"
   id="path136" />
	<path
   class="st4"
   d="m 349.1,255.6 c 0,3.9 -3.2,7.1 -7.1,7.1 h -22.7 c -3.9,0 -7.1,-3.2 -7.1,-7.1 v -28.3 c 0,-3.9 3.2,-7.1 7.1,-7.1 H 342 c 3.9,0 7.1,3.2 7.1,7.1 z"
   id="path137" />
	<path
   class="st4"
   d="m 396.4,255.6 c 0,3.9 -3.2,7.1 -7.1,7.1 h -22.7 c -3.9,0 -7.1,-3.2 -7.1,-7.1 v -28.3 c 0,-3.9 3.2,-7.1 7.1,-7.1 h 22.7 c 3.9,0 7.1,3.2 7.1,7.1 z"
   id="path138" />
	<path
   class="st4"
   d="m 446.5,255.6 c 0,3.9 -3.7,7.1 -8.2,7.1 h -26.2 c -4.5,0 -8.2,-3.2 -8.2,-7.1 v -28.3 c 0,-3.9 3.7,-7.1 8.2,-7.1 h 26.2 c 4.5,0 8.2,3.2 8.2,7.1 z"
   id="path139" />
	<path
   class="st4"
   d="m 490.9,255.6 c 0,3.9 -3.2,7.1 -7.1,7.1 h -22.7 c -3.9,0 -7.1,-3.2 -7.1,-7.1 v -28.3 c 0,-3.9 3.2,-7.1 7.1,-7.1 h 22.7 c 3.9,0 7.1,3.2 7.1,7.1 z"
   id="path140" />
	<path
   class="st4"
   d="m 538.1,255.6 c 0,3.9 -3.2,7.1 -7.1,7.1 h -22.7 c -3.9,0 -7.1,-3.2 -7.1,-7.1 v -28.3 c 0,-3.9 3.2,-7.1 7.1,-7.1 H 531 c 3.9,0 7.1,3.2 7.1,7.1 z"
   id="path141" />
	<path
   class="st4"
   d="m 585.4,255.6 c 0,3.9 -3.2,7.1 -7.1,7.1 h -22.7 c -3.9,0 -7.1,-3.2 -7.1,-7.1 v -28.3 c 0,-3.9 3.2,-7.1 7.1,-7.1 h 22.7 c 3.9,0 7.1,3.2 7.1,7.1 z"
   id="path142" />
	<path
   class="st4"
   d="m 632.6,255.6 c 0,3.9 -3.2,7.1 -7.1,7.1 h -22.7 c -3.9,0 -7.1,-3.2 -7.1,-7.1 v -28.3 c 0,-3.9 3.2,-7.1 7.1,-7.1 h 22.7 c 3.9,0 7.1,3.2 7.1,7.1 z"
   id="path143" />
	<path
   class="st4"
   d="m 679.8,255.6 c 0,3.9 -3.2,7.1 -7.1,7.1 H 650 c -3.9,0 -7.1,-3.2 -7.1,-7.1 v -28.3 c 0,-3.9 3.2,-7.1 7.1,-7.1 h 22.7 c 3.9,0 7.1,3.2 7.1,7.1 z"
   id="path144" />
	<path
   class="st4"
   d="m 207.4,308.1 c 0,3.9 -3.2,7.1 -7.1,7.1 h -22.7 c -3.9,0 -7.1,-3.2 -7.1,-7.1 v -28.3 c 0,-3.9 3.2,-7.1 7.1,-7.1 h 22.7 c 3.9,0 7.1,3.2 7.1,7.1 z"
   id="path145" />
	<path
   class="st4"
   d="m 257.5,308.1 c 0,3.9 -3.7,7.1 -8.2,7.1 h -26.2 c -4.5,0 -8.2,-3.2 -8.2,-7.1 v -28.3 c 0,-3.9 3.7,-7.1 8.2,-7.1 h 26.2 c 4.5,0 8.2,3.2 8.2,7.1 z"
   id="path146" />
	<path
   class="st4"
   d="m 301.9,308.1 c 0,3.9 -3.2,7.1 -7.1,7.1 h -22.7 c -3.9,0 -7.1,-3.2 -7.1,-7.1 v -28.3 c 0,-3.9 3.2,-7.1 7.1,-7.1 h 22.7 c 3.9,0 7.1,3.2 7.1,7.1 z"
   id="path147" />
	<path
   class="st4"
   d="m 349.1,308.1 c 0,3.9 -3.2,7.1 -7.1,7.1 h -22.7 c -3.9,0 -7.1,-3.2 -7.1,-7.1 v -28.3 c 0,-3.9 3.2,-7.1 7.1,-7.1 H 342 c 3.9,0 7.1,3.2 7.1,7.1 z"
   id="path148" />
	<path
   class="st4"
   d="m 396.4,308.1 c 0,3.9 -3.2,7.1 -7.1,7.1 h -22.7 c -3.9,0 -7.1,-3.2 -7.1,-7.1 v -28.3 c 0,-3.9 3.2,-7.1 7.1,-7.1 h 22.7 c 3.9,0 7.1,3.2 7.1,7.1 z"
   id="path149" />
	<path
   class="st4"
   d="m 443.6,308.1 c 0,3.9 -3.2,7.1 -7.1,7.1 h -22.7 c -3.9,0 -7.1,-3.2 -7.1,-7.1 v -28.3 c 0,-3.9 3.2,-7.1 7.1,-7.1 h 22.7 c 3.9,0 7.1,3.2 7.1,7.1 z"
   id="path150" />
	<path
   class="st4"
   d="m 490.9,308.1 c 0,3.9 -3.2,7.1 -7.1,7.1 h -22.7 c -3.9,0 -7.1,-3.2 -7.1,-7.1 v -28.3 c 0,-3.9 3.2,-7.1 7.1,-7.1 h 22.7 c 3.9,0 7.1,3.2 7.1,7.1 z"
   id="path151" />
	<path
   class="st4"
   d="m 538.1,308.1 c 0,3.9 -3.2,7.1 -7.1,7.1 h -22.7 c -3.9,0 -7.1,-3.2 -7.1,-7.1 v -28.3 c 0,-3.9 3.2,-7.1 7.1,-7.1 H 531 c 3.9,0 7.1,3.2 7.1,7.1 z"
   id="path152" />
	<path
   class="st4"
   d="m 585.4,308.1 c 0,3.9 -3.2,7.1 -7.1,7.1 h -22.7 c -3.9,0 -7.1,-3.2 -7.1,-7.1 v -28.3 c 0,-3.9 3.2,-7.1 7.1,-7.1 h 22.7 c 3.9,0 7.1,3.2 7.1,7.1 z"
   id="path153" />
	<path
   class="st4"
   d="m 635.4,308.1 c 0,3.9 -3.7,7.1 -8.2,7.1 H 601 c -4.5,0 -8.2,-3.2 -8.2,-7.1 v -28.3 c 0,-3.9 3.7,-7.1 8.2,-7.1 h 26.2 c 4.5,0 8.2,3.2 8.2,7.1 z"
   id="path154" />
	<path
   class="st4"
   d="m 679.8,308.1 c 0,3.9 -3.2,7.1 -7.1,7.1 H 650 c -3.9,0 -7.1,-3.2 -7.1,-7.1 v -28.3 c 0,-3.9 3.2,-7.1 7.1,-7.1 h 22.7 c 3.9,0 7.1,3.2 7.1,7.1 z"
   id="path155" />
	<path
   class="st4"
   d="m 207.4,360.6 c 0,3.9 -3.2,7.1 -7.1,7.1 h -22.7 c -3.9,0 -7.1,-3.2 -7.1,-7.1 v -28.3 c 0,-3.9 3.2,-7.1 7.1,-7.1 h 22.7 c 3.9,0 7.1,3.2 7.1,7.1 z"
   id="path156" />
	<path
   class="st4"
   d="m 254.6,360.6 c 0,3.9 -3.2,7.1 -7.1,7.1 h -22.7 c -3.9,0 -7.1,-3.2 -7.1,-7.1 v -28.3 c 0,-3.9 3.2,-7.1 7.1,-7.1 h 22.7 c 3.9,0 7.1,3.2 7.1,7.1 z"
   id="path157" />
	<path
   class="st4"
   d="m 301.9,360.6 c 0,3.9 -3.2,7.1 -7.1,7.1 h -22.7 c -3.9,0 -7.1,-3.2 -7.1,-7.1 v -28.3 c 0,-3.9 3.2,-7.1 7.1,-7.1 h 22.7 c 3.9,0 7.1,3.2 7.1,7.1 z"
   id="path158" />
	<path
   class="st4"
   d="m 349.1,360.6 c 0,3.9 -3.2,7.1 -7.1,7.1 h -22.7 c -3.9,0 -7.1,-3.2 -7.1,-7.1 v -28.3 c 0,-3.9 3.2,-7.1 7.1,-7.1 H 342 c 3.9,0 7.1,3.2 7.1,7.1 z"
   id="path159" />
	<path
   class="st4"
   d="m 396.4,360.6 c 0,3.9 -3.2,7.1 -7.1,7.1 h -22.7 c -3.9,0 -7.1,-3.2 -7.1,-7.1 v -28.3 c 0,-3.9 3.2,-7.1 7.1,-7.1 h 22.7 c 3.9,0 7.1,3.2 7.1,7.1 z"
   id="path160" />
	<path
   class="st4"
   d="m 443.6,360.6 c 0,3.9 -3.2,7.1 -7.1,7.1 h -22.7 c -3.9,0 -7.1,-3.2 -7.1,-7.1 v -28.3 c 0,-3.9 3.2,-7.1 7.1,-7.1 h 22.7 c 3.9,0 7.1,3.2 7.1,7.1 z"
   id="path161" />
	<path
   class="st4"
   d="m 490.9,360.6 c 0,3.9 -3.2,7.1 -7.1,7.1 h -22.7 c -3.9,0 -7.1,-3.2 -7.1,-7.1 v -28.3 c 0,-3.9 3.2,-7.1 7.1,-7.1 h 22.7 c 3.9,0 7.1,3.2 7.1,7.1 z"
   id="path162" />
	<path
   class="st4"
   d="m 538.1,360.6 c 0,3.9 -3.2,7.1 -7.1,7.1 h -22.7 c -3.9,0 -7.1,-3.2 -7.1,-7.1 v -28.3 c 0,-3.9 3.2,-7.1 7.1,-7.1 H 531 c 3.9,0 7.1,3.2 7.1,7.1 z"
   id="path163" />
	<path
   class="st4"
   d="m 585.4,360.6 c 0,3.9 -3.2,7.1 -7.1,7.1 h -22.7 c -3.9,0 -7.1,-3.2 -7.1,-7.1 v -28.3 c 0,-3.9 3.2,-7.1 7.1,-7.1 h 22.7 c 3.9,0 7.1,3.2 7.1,7.1 z"
   id="path164" />
	<path
   class="st4"
   d="m 632.6,360.6 c 0,3.9 -3.2,7.1 -7.1,7.1 h -22.7 c -3.9,0 -7.1,-3.2 -7.1,-7.1 v -28.3 c 0,-3.9 3.2,-7.1 7.1,-7.1 h 22.7 c 3.9,0 7.1,3.2 7.1,7.1 z"
   id="path165" />
	<path
   class="st4"
   d="m 679.8,360.6 c 0,3.9 -3.2,7.1 -7.1,7.1 H 650 c -3.9,0 -7.1,-3.2 -7.1,-7.1 v -28.3 c 0,-3.9 3.2,-7.1 7.1,-7.1 h 22.7 c 3.9,0 7.1,3.2 7.1,7.1 z"
   id="path166" />
	<path
   class="st4"
   d="m 207.4,413.1 c 0,3.9 -3.2,7.1 -7.1,7.1 h -22.7 c -3.9,0 -7.1,-3.2 -7.1,-7.1 v -28.3 c 0,-3.9 3.2,-7.1 7.1,-7.1 h 22.7 c 3.9,0 7.1,3.2 7.1,7.1 z"
   id="path167" />
	<path
   class="st4"
   d="m 254.6,413.1 c 0,3.9 -3.2,7.1 -7.1,7.1 h -22.7 c -3.9,0 -7.1,-3.2 -7.1,-7.1 v -28.3 c 0,-3.9 3.2,-7.1 7.1,-7.1 h 22.7 c 3.9,0 7.1,3.2 7.1,7.1 z"
   id="path168" />
	<path
   class="st4"
   d="m 301.9,413.1 c 0,3.9 -3.2,7.1 -7.1,7.1 h -22.7 c -3.9,0 -7.1,-3.2 -7.1,-7.1 v -28.3 c 0,-3.9 3.2,-7.1 7.1,-7.1 h 22.7 c 3.9,0 7.1,3.2 7.1,7.1 z"
   id="path169" />
	<path
   class="st4"
   d="m 352,413.1 c 0,3.9 -3.7,7.1 -8.2,7.1 h -26.2 c -4.5,0 -8.2,-3.2 -8.2,-7.1 v -28.3 c 0,-3.9 3.7,-7.1 8.2,-7.1 h 26.2 c 4.5,0 8.2,3.2 8.2,7.1 z"
   id="path170" />
	<path
   class="st4"
   d="m 396.4,413.1 c 0,3.9 -3.2,7.1 -7.1,7.1 h -22.7 c -3.9,0 -7.1,-3.2 -7.1,-7.1 v -28.3 c 0,-3.9 3.2,-7.1 7.1,-7.1 h 22.7 c 3.9,0 7.1,3.2 7.1,7.1 z"
   id="path171" />
	<path
   class="st4"
   d="m 443.6,413.1 c 0,3.9 -3.2,7.1 -7.1,7.1 h -22.7 c -3.9,0 -7.1,-3.2 -7.1,-7.1 v -28.3 c 0,-3.9 3.2,-7.1 7.1,-7.1 h 22.7 c 3.9,0 7.1,3.2 7.1,7.1 z"
   id="path172" />
	<path
   class="st4"
   d="m 490.9,413.1 c 0,3.9 -3.2,7.1 -7.1,7.1 h -22.7 c -3.9,0 -7.1,-3.2 -7.1,-7.1 v -28.3 c 0,-3.9 3.2,-7.1 7.1,-7.1 h 22.7 c 3.9,0 7.1,3.2 7.1,7.1 z"
   id="path173" />
	<path
   class="st4"
   d="m 540.9,413.1 c 0,3.9 -3.7,7.1 -8.2,7.1 h -26.2 c -4.5,0 -8.2,-3.2 -8.2,-7.1 v -28.3 c 0,-3.9 3.7,-7.1 8.2,-7.1 h 26.2 c 4.5,0 8.2,3.2 8.2,7.1 z"
   id="path174" />
	<path
   class="st4"
   d="m 585.4,413.1 c 0,3.9 -3.2,7.1 -7.1,7.1 h -22.7 c -3.9,0 -7.1,-3.2 -7.1,-7.1 v -28.3 c 0,-3.9 3.2,-7.1 7.1,-7.1 h 22.7 c 3.9,0 7.1,3.2 7.1,7.1 z"
   id="path175" />
	<path
   class="st4"
   d="m 632.6,413.1 c 0,3.9 -3.2,7.1 -7.1,7.1 h -22.7 c -3.9,0 -7.1,-3.2 -7.1,-7.1 v -28.3 c 0,-3.9 3.2,-7.1 7.1,-7.1 h 22.7 c 3.9,0 7.1,3.2 7.1,7.1 z"
   id="path176" />
	<path
   class="st4"
   d="m 679.8,413.1 c 0,3.9 -3.2,7.1 -7.1,7.1 H 650 c -3.9,0 -7.1,-3.2 -7.1,-7.1 v -28.3 c 0,-3.9 3.2,-7.1 7.1,-7.1 h 22.7 c 3.9,0 7.1,3.2 7.1,7.1 z"
   id="path177" />
	<path
   class="st4"
   d="m 207.4,465.6 c 0,3.9 -3.2,7.1 -7.1,7.1 h -22.7 c -3.9,0 -7.1,-3.2 -7.1,-7.1 v -28.3 c 0,-3.9 3.2,-7.1 7.1,-7.1 h 22.7 c 3.9,0 7.1,3.2 7.1,7.1 z"
   id="path178" />
	<path
   class="st4"
   d="m 254.6,465.6 c 0,3.9 -3.2,7.1 -7.1,7.1 h -22.7 c -3.9,0 -7.1,-3.2 -7.1,-7.1 v -28.3 c 0,-3.9 3.2,-7.1 7.1,-7.1 h 22.7 c 3.9,0 7.1,3.2 7.1,7.1 z"
   id="path179" />
	<path
   class="st4"
   d="m 301.9,465.6 c 0,3.9 -3.2,7.1 -7.1,7.1 h -22.7 c -3.9,0 -7.1,-3.2 -7.1,-7.1 v -28.3 c 0,-3.9 3.2,-7.1 7.1,-7.1 h 22.7 c 3.9,0 7.1,3.2 7.1,7.1 z"
   id="path180" />
	<path
   class="st4"
   d="m 352,465.6 c 0,3.9 -3.7,7.1 -8.2,7.1 h -26.2 c -4.5,0 -8.2,-3.2 -8.2,-7.1 v -28.3 c 0,-3.9 3.7,-7.1 8.2,-7.1 h 26.2 c 4.5,0 8.2,3.2 8.2,7.1 z"
   id="path181" />
	<path
   class="st4"
   d="m 396.4,465.6 c 0,3.9 -3.2,7.1 -7.1,7.1 h -22.7 c -3.9,0 -7.1,-3.2 -7.1,-7.1 v -28.3 c 0,-3.9 3.2,-7.1 7.1,-7.1 h 22.7 c 3.9,0 7.1,3.2 7.1,7.1 z"
   id="path182" />
	<path
   class="st4"
   d="m 443.6,465.6 c 0,3.9 -3.2,7.1 -7.1,7.1 h -22.7 c -3.9,0 -7.1,-3.2 -7.1,-7.1 v -28.3 c 0,-3.9 3.2,-7.1 7.1,-7.1 h 22.7 c 3.9,0 7.1,3.2 7.1,7.1 z"
   id="path183" />
	<path
   class="st4"
   d="m 490.9,465.6 c 0,3.9 -3.2,7.1 -7.1,7.1 h -22.7 c -3.9,0 -7.1,-3.2 -7.1,-7.1 v -28.3 c 0,-3.9 3.2,-7.1 7.1,-7.1 h 22.7 c 3.9,0 7.1,3.2 7.1,7.1 z"
   id="path184" />
	<path
   class="st4"
   d="m 540.9,465.6 c 0,3.9 -3.7,7.1 -8.2,7.1 h -26.2 c -4.5,0 -8.2,-3.2 -8.2,-7.1 v -28.3 c 0,-3.9 3.7,-7.1 8.2,-7.1 h 26.2 c 4.5,0 8.2,3.2 8.2,7.1 z"
   id="path185" />
	<path
   class="st4"
   d="m 585.4,465.6 c 0,3.9 -3.2,7.1 -7.1,7.1 h -22.7 c -3.9,0 -7.1,-3.2 -7.1,-7.1 v -28.3 c 0,-3.9 3.2,-7.1 7.1,-7.1 h 22.7 c 3.9,0 7.1,3.2 7.1,7.1 z"
   id="path186" />
	<path
   class="st4"
   d="m 632.6,465.6 c 0,3.9 -3.2,7.1 -7.1,7.1 h -22.7 c -3.9,0 -7.1,-3.2 -7.1,-7.1 v -28.3 c 0,-3.9 3.2,-7.1 7.1,-7.1 h 22.7 c 3.9,0 7.1,3.2 7.1,7.1 z"
   id="path187" />
	<path
   class="st4"
   d="m 679.8,465.6 c 0,3.9 -3.2,7.1 -7.1,7.1 H 650 c -3.9,0 -7.1,-3.2 -7.1,-7.1 v -28.3 c 0,-3.9 3.2,-7.1 7.1,-7.1 h 22.7 c 3.9,0 7.1,3.2 7.1,7.1 z"
   id="path188" />
	<path
   class="st4"
   d="m 207.4,518.1 c 0,3.9 -3.2,7.1 -7.1,7.1 h -22.7 c -3.9,0 -7.1,-3.2 -7.1,-7.1 v -28.3 c 0,-3.9 3.2,-7.1 7.1,-7.1 h 22.7 c 3.9,0 7.1,3.2 7.1,7.1 z"
   id="path189" />
	<path
   class="st4"
   d="m 254.6,518.1 c 0,3.9 -3.2,7.1 -7.1,7.1 h -22.7 c -3.9,0 -7.1,-3.2 -7.1,-7.1 v -28.3 c 0,-3.9 3.2,-7.1 7.1,-7.1 h 22.7 c 3.9,0 7.1,3.2 7.1,7.1 z"
   id="path190" />
	<path
   class="st4"
   d="m 301.9,518.1 c 0,3.9 -3.2,7.1 -7.1,7.1 h -22.7 c -3.9,0 -7.1,-3.2 -7.1,-7.1 v -28.3 c 0,-3.9 3.2,-7.1 7.1,-7.1 h 22.7 c 3.9,0 7.1,3.2 7.1,7.1 z"
   id="path191" />
	<path
   class="st4"
   d="m 349.1,518.1 c 0,3.9 -3.2,7.1 -7.1,7.1 h -22.7 c -3.9,0 -7.1,-3.2 -7.1,-7.1 v -28.3 c 0,-3.9 3.2,-7.1 7.1,-7.1 H 342 c 3.9,0 7.1,3.2 7.1,7.1 z"
   id="path192" />
	<path
   class="st4"
   d="m 396.4,518.1 c 0,3.9 -3.2,7.1 -7.1,7.1 h -22.7 c -3.9,0 -7.1,-3.2 -7.1,-7.1 v -28.3 c 0,-3.9 3.2,-7.1 7.1,-7.1 h 22.7 c 3.9,0 7.1,3.2 7.1,7.1 z"
   id="path193" />
	<path
   class="st4"
   d="m 443.6,518.1 c 0,3.9 -3.2,7.1 -7.1,7.1 h -22.7 c -3.9,0 -7.1,-3.2 -7.1,-7.1 v -28.3 c 0,-3.9 3.2,-7.1 7.1,-7.1 h 22.7 c 3.9,0 7.1,3.2 7.1,7.1 z"
   id="path194" />
	<path
   class="st4"
   d="m 490.9,518.1 c 0,3.9 -3.2,7.1 -7.1,7.1 h -22.7 c -3.9,0 -7.1,-3.2 -7.1,-7.1 v -28.3 c 0,-3.9 3.2,-7.1 7.1,-7.1 h 22.7 c 3.9,0 7.1,3.2 7.1,7.1 z"
   id="path195" />
	<path
   class="st4"
   d="m 538.1,518.1 c 0,3.9 -3.2,7.1 -7.1,7.1 h -22.7 c -3.9,0 -7.1,-3.2 -7.1,-7.1 v -28.3 c 0,-3.9 3.2,-7.1 7.1,-7.1 H 531 c 3.9,0 7.1,3.2 7.1,7.1 z"
   id="path196" />
	<path
   class="st4"
   d="m 585.4,518.1 c 0,3.9 -3.2,7.1 -7.1,7.1 h -22.7 c -3.9,0 -7.1,-3.2 -7.1,-7.1 v -28.3 c 0,-3.9 3.2,-7.1 7.1,-7.1 h 22.7 c 3.9,0 7.1,3.2 7.1,7.1 z"
   id="path197" />
	<path
   class="st4"
   d="m 632.6,518.1 c 0,3.9 -3.2,7.1 -7.1,7.1 h -22.7 c -3.9,0 -7.1,-3.2 -7.1,-7.1 v -28.3 c 0,-3.9 3.2,-7.1 7.1,-7.1 h 22.7 c 3.9,0 7.1,3.2 7.1,7.1 z"
   id="path198" />
	<path
   class="st4"
   d="m 679.8,518.1 c 0,3.9 -3.2,7.1 -7.1,7.1 H 650 c -3.9,0 -7.1,-3.2 -7.1,-7.1 v -28.3 c 0,-3.9 3.2,-7.1 7.1,-7.1 h 22.7 c 3.9,0 7.1,3.2 7.1,7.1 z"
   id="path199" />
	<path
   class="st4"
   d="m 207.4,570.6 c 0,3.9 -3.2,7.1 -7.1,7.1 h -22.7 c -3.9,0 -7.1,-3.2 -7.1,-7.1 v -28.3 c 0,-3.9 3.2,-7.1 7.1,-7.1 h 22.7 c 3.9,0 7.1,3.2 7.1,7.1 z"
   id="path200" />
	<path
   class="st4"
   d="m 257.5,570.6 c 0,3.9 -3.7,7.1 -8.2,7.1 h -26.2 c -4.5,0 -8.2,-3.2 -8.2,-7.1 v -28.3 c 0,-3.9 3.7,-7.1 8.2,-7.1 h 26.2 c 4.5,0 8.2,3.2 8.2,7.1 z"
   id="path201" />
	<path
   class="st4"
   d="m 301.9,570.6 c 0,3.9 -3.2,7.1 -7.1,7.1 h -22.7 c -3.9,0 -7.1,-3.2 -7.1,-7.1 v -28.3 c 0,-3.9 3.2,-7.1 7.1,-7.1 h 22.7 c 3.9,0 7.1,3.2 7.1,7.1 z"
   id="path202" />
	<path
   class="st4"
   d="m 349.1,570.6 c 0,3.9 -3.2,7.1 -7.1,7.1 h -22.7 c -3.9,0 -7.1,-3.2 -7.1,-7.1 v -28.3 c 0,-3.9 3.2,-7.1 7.1,-7.1 H 342 c 3.9,0 7.1,3.2 7.1,7.1 z"
   id="path203" />
	<path
   class="st4"
   d="m 396.4,570.6 c 0,3.9 -3.2,7.1 -7.1,7.1 h -22.7 c -3.9,0 -7.1,-3.2 -7.1,-7.1 v -28.3 c 0,-3.9 3.2,-7.1 7.1,-7.1 h 22.7 c 3.9,0 7.1,3.2 7.1,7.1 z"
   id="path204" />
	<path
   class="st4"
   d="m 443.6,570.6 c 0,3.9 -3.2,7.1 -7.1,7.1 h -22.7 c -3.9,0 -7.1,-3.2 -7.1,-7.1 v -28.3 c 0,-3.9 3.2,-7.1 7.1,-7.1 h 22.7 c 3.9,0 7.1,3.2 7.1,7.1 z"
   id="path205" />
	<path
   class="st4"
   d="m 490.9,570.6 c 0,3.9 -3.2,7.1 -7.1,7.1 h -22.7 c -3.9,0 -7.1,-3.2 -7.1,-7.1 v -28.3 c 0,-3.9 3.2,-7.1 7.1,-7.1 h 22.7 c 3.9,0 7.1,3.2 7.1,7.1 z"
   id="path206" />
	<path
   class="st4"
   d="m 538.1,570.6 c 0,3.9 -3.2,7.1 -7.1,7.1 h -22.7 c -3.9,0 -7.1,-3.2 -7.1,-7.1 v -28.3 c 0,-3.9 3.2,-7.1 7.1,-7.1 H 531 c 3.9,0 7.1,3.2 7.1,7.1 z"
   id="path207" />
	<path
   class="st4"
   d="m 585.4,570.6 c 0,3.9 -3.2,7.1 -7.1,7.1 h -22.7 c -3.9,0 -7.1,-3.2 -7.1,-7.1 v -28.3 c 0,-3.9 3.2,-7.1 7.1,-7.1 h 22.7 c 3.9,0 7.1,3.2 7.1,7.1 z"
   id="path208" />
	<path
   class="st4"
   d="m 635.4,570.6 c 0,3.9 -3.7,7.1 -8.2,7.1 H 601 c -4.5,0 -8.2,-3.2 -8.2,-7.1 v -28.3 c 0,-3.9 3.7,-7.1 8.2,-7.1 h 26.2 c 4.5,0 8.2,3.2 8.2,7.1 z"
   id="path209" />
	<path
   class="st4"
   d="m 679.8,570.6 c 0,3.9 -3.2,7.1 -7.1,7.1 H 650 c -3.9,0 -7.1,-3.2 -7.1,-7.1 v -28.3 c 0,-3.9 3.2,-7.1 7.1,-7.1 h 22.7 c 3.9,0 7.1,3.2 7.1,7.1 z"
   id="path210" />
	<path
   class="st4"
   d="m 207.4,623.1 c 0,3.9 -3.2,7.1 -7.1,7.1 h -22.7 c -3.9,0 -7.1,-3.2 -7.1,-7.1 v -28.3 c 0,-3.9 3.2,-7.1 7.1,-7.1 h 22.7 c 3.9,0 7.1,3.2 7.1,7.1 z"
   id="path211" />
	<path
   class="st4"
   d="m 254.6,623.1 c 0,3.9 -3.2,7.1 -7.1,7.1 h -22.7 c -3.9,0 -7.1,-3.2 -7.1,-7.1 v -28.3 c 0,-3.9 3.2,-7.1 7.1,-7.1 h 22.7 c 3.9,0 7.1,3.2 7.1,7.1 z"
   id="path212" />
	<path
   class="st4"
   d="m 301.9,623.1 c 0,3.9 -3.2,7.1 -7.1,7.1 h -22.7 c -3.9,0 -7.1,-3.2 -7.1,-7.1 v -28.3 c 0,-3.9 3.2,-7.1 7.1,-7.1 h 22.7 c 3.9,0 7.1,3.2 7.1,7.1 z"
   id="path213" />
	<path
   class="st4"
   d="m 349.1,623.1 c 0,3.9 -3.2,7.1 -7.1,7.1 h -22.7 c -3.9,0 -7.1,-3.2 -7.1,-7.1 v -28.3 c 0,-3.9 3.2,-7.1 7.1,-7.1 H 342 c 3.9,0 7.1,3.2 7.1,7.1 z"
   id="path214" />
	<path
   class="st4"
   d="m 396.4,623.1 c 0,3.9 -3.2,7.1 -7.1,7.1 h -22.7 c -3.9,0 -7.1,-3.2 -7.1,-7.1 v -28.3 c 0,-3.9 3.2,-7.1 7.1,-7.1 h 22.7 c 3.9,0 7.1,3.2 7.1,7.1 z"
   id="path215" />
	<path
   class="st4"
   d="m 446.5,623.1 c 0,3.9 -3.7,7.1 -8.2,7.1 h -26.2 c -4.5,0 -8.2,-3.2 -8.2,-7.1 v -28.3 c 0,-3.9 3.7,-7.1 8.2,-7.1 h 26.2 c 4.5,0 8.2,3.2 8.2,7.1 z"
   id="path216" />
	<path
   class="st4"
   d="m 490.9,623.1 c 0,3.9 -3.2,7.1 -7.1,7.1 h -22.7 c -3.9,0 -7.1,-3.2 -7.1,-7.1 v -28.3 c 0,-3.9 3.2,-7.1 7.1,-7.1 h 22.7 c 3.9,0 7.1,3.2 7.1,7.1 z"
   id="path217" />
	<path
   class="st4"
   d="m 538.1,623.1 c 0,3.9 -3.2,7.1 -7.1,7.1 h -22.7 c -3.9,0 -7.1,-3.2 -7.1,-7.1 v -28.3 c 0,-3.9 3.2,-7.1 7.1,-7.1 H 531 c 3.9,0 7.1,3.2 7.1,7.1 z"
   id="path218" />
	<path
   class="st4"
   d="m 585.4,623.1 c 0,3.9 -3.2,7.1 -7.1,7.1 h -22.7 c -3.9,0 -7.1,-3.2 -7.1,-7.1 v -28.3 c 0,-3.9 3.2,-7.1 7.1,-7.1 h 22.7 c 3.9,0 7.1,3.2 7.1,7.1 z"
   id="path219" />
	<path
   class="st4"
   d="m 632.6,623.1 c 0,3.9 -3.2,7.1 -7.1,7.1 h -22.7 c -3.9,0 -7.1,-3.2 -7.1,-7.1 v -28.3 c 0,-3.9 3.2,-7.1 7.1,-7.1 h 22.7 c 3.9,0 7.1,3.2 7.1,7.1 z"
   id="path220" />
	<path
   class="st4"
   d="m 679.8,623.1 c 0,3.9 -3.2,7.1 -7.1,7.1 H 650 c -3.9,0 -7.1,-3.2 -7.1,-7.1 v -28.3 c 0,-3.9 3.2,-7.1 7.1,-7.1 h 22.7 c 3.9,0 7.1,3.2 7.1,7.1 z"
   id="path221" />
	<path
   class="st4"
   d="m 207.4,675.6 c 0,3.9 -3.2,7.1 -7.1,7.1 h -22.7 c -3.9,0 -7.1,-3.2 -7.1,-7.1 v -28.3 c 0,-3.9 3.2,-7.1 7.1,-7.1 h 22.7 c 3.9,0 7.1,3.2 7.1,7.1 z"
   id="path222" />
	<path
   class="st4"
   d="m 254.6,675.6 c 0,3.9 -3.2,7.1 -7.1,7.1 h -22.7 c -3.9,0 -7.1,-3.2 -7.1,-7.1 v -28.3 c 0,-3.9 3.2,-7.1 7.1,-7.1 h 22.7 c 3.9,0 7.1,3.2 7.1,7.1 z"
   id="path223" />
	<path
   class="st4"
   d="m 301.9,675.6 c 0,3.9 -3.2,7.1 -7.1,7.1 h -22.7 c -3.9,0 -7.1,-3.2 -7.1,-7.1 v -28.3 c 0,-3.9 3.2,-7.1 7.1,-7.1 h 22.7 c 3.9,0 7.1,3.2 7.1,7.1 z"
   id="path224" />
	<path
   class="st4"
   d="m 349.1,675.6 c 0,3.9 -3.2,7.1 -7.1,7.1 h -22.7 c -3.9,0 -7.1,-3.2 -7.1,-7.1 v -28.3 c 0,-3.9 3.2,-7.1 7.1,-7.1 H 342 c 3.9,0 7.1,3.2 7.1,7.1 z"
   id="path225" />
	<path
   class="st4"
   d="m 396.4,675.6 c 0,3.9 -3.2,7.1 -7.1,7.1 h -22.7 c -3.9,0 -7.1,-3.2 -7.1,-7.1 v -28.3 c 0,-3.9 3.2,-7.1 7.1,-7.1 h 22.7 c 3.9,0 7.1,3.2 7.1,7.1 z"
   id="path226" />
	<path
   class="st4"
   d="m 443.6,675.6 c 0,3.9 -3.2,7.1 -7.1,7.1 h -22.7 c -3.9,0 -7.1,-3.2 -7.1,-7.1 v -28.3 c 0,-3.9 3.2,-7.1 7.1,-7.1 h 22.7 c 3.9,0 7.1,3.2 7.1,7.1 z"
   id="path227" />
	<path
   class="st4"
   d="m 490.9,675.6 c 0,3.9 -3.2,7.1 -7.1,7.1 h -22.7 c -3.9,0 -7.1,-3.2 -7.1,-7.1 v -28.3 c 0,-3.9 3.2,-7.1 7.1,-7.1 h 22.7 c 3.9,0 7.1,3.2 7.1,7.1 z"
   id="path228" />
	<path
   class="st4"
   d="m 538.1,675.6 c 0,3.9 -3.2,7.1 -7.1,7.1 h -22.7 c -3.9,0 -7.1,-3.2 -7.1,-7.1 v -28.3 c 0,-3.9 3.2,-7.1 7.1,-7.1 H 531 c 3.9,0 7.1,3.2 7.1,7.1 z"
   id="path229" />
	<path
   class="st4"
   d="m 585.4,675.6 c 0,3.9 -3.2,7.1 -7.1,7.1 h -22.7 c -3.9,0 -7.1,-3.2 -7.1,-7.1 v -28.3 c 0,-3.9 3.2,-7.1 7.1,-7.1 h 22.7 c 3.9,0 7.1,3.2 7.1,7.1 z"
   id="path230" />
	<path
   class="st4"
   d="m 632.6,675.6 c 0,3.9 -3.2,7.1 -7.1,7.1 h -22.7 c -3.9,0 -7.1,-3.2 -7.1,-7.1 v -28.3 c 0,-3.9 3.2,-7.1 7.1,-7.1 h 22.7 c 3.9,0 7.1,3.2 7.1,7.1 z"
   id="path231" />
	<path
   class="st4"
   d="m 679.8,675.6 c 0,3.9 -3.2,7.1 -7.1,7.1 H 650 c -3.9,0 -7.1,-3.2 -7.1,-7.1 v -28.3 c 0,-3.9 3.2,-7.1 7.1,-7.1 h 22.7 c 3.9,0 7.1,3.2 7.1,7.1 z"
   id="path232" />
</g>
<rect
   x="70.900002"
   y="70.931969"
   class="st5"
   width="708.70001"
   height="708.70001"
   id="rect232" />
</svg>
