<svg enable-background="new 0 0 1726.299 861.732" height="600mm" viewBox="0 0 3779.5276 2267.7165" width="1000mm" xmlns="http://www.w3.org/2000/svg"><g fill="none" stroke="#f00"><path d="m378.428 711.649v-.153h-42.52v.153" stroke-width=".41" transform="matrix(1.3325613 0 0 1.3325613 -1.503304 .246898)"/><g stroke-width=".54635"><path d="m502.7752 948.35891h368.28662c41.72382 0 75.54689-33.8244 75.54689-75.54689v-793.24174c0-41.72383-33.82307-75.5468988-75.54689-75.5468988h-793.241748c-41.723827 0-75.5468969 33.8230688-75.5468969 75.5468988v793.2404c0 41.72383 33.8230699 75.5469 75.5468969 75.5469h368.294618"/><path d="m430.12395 329.22163h-304.33967c-8.83088 0-15.99073-7.15985-15.99073-15.99073v-164.15022c0-8.83088 7.15985-15.99073 15.99073-15.99073h360.99885c8.83088 0 15.99073 7.15985 15.99073 15.99073"/><path d="m446.11469 345.21234v603.51965"/><path d="m502.77521 948.73199v-799.65133"/><path d="m446.11469 345.21237c0-8.83089-7.15985-15.99074-15.99074-15.99074"/><circle cx="474.44095" cy="98.457985" r="11.332101"/></g></g></svg>