<svg enable-background="new 0 0 1726.3 861.732" height="600mm" viewBox="0 0 3779.5275 2267.7166" width="1000mm" xmlns="http://www.w3.org/2000/svg"><g transform="translate(0 272.12627)"><path d="m.066659-272.05695h1133.725v1133.7223h-1133.725z" fill="none" stroke-width="1.33317"/><path d="m717.878 711.5c0 3.522-2.855 6.379-6.378 6.379-3.522 0-6.378-2.856-6.378-6.379s2.856-6.379 6.378-6.379c3.523.001 6.378 2.857 6.378 6.379" transform="matrix(1.333173 0 0 1.333173 -3.711554 -275.83518)"/><circle cx="944.8410355" cy="672.7174095" r="8.502977394"/><path d="m150.949 711.5c0 3.522-2.855 6.379-6.378 6.379-3.522 0-6.378-2.856-6.378-6.379s2.856-6.379 6.378-6.379c3.523.001 6.378 2.857 6.378 6.379" transform="matrix(1.333173 0 0 1.333173 -3.711554 -275.83518)"/><circle cx="189.026599783" cy="672.7174095" r="8.502977394"/><path d="m150.949 144.573c0 3.522-2.855 6.378-6.378 6.378-3.522 0-6.378-2.856-6.378-6.378s2.856-6.378 6.378-6.378c3.523 0 6.378 2.856 6.378 6.378" transform="matrix(1.333173 0 0 1.333173 -3.711554 -275.83518)"/><circle cx="189.026599783" cy="-83.094359871" r="8.502977394"/><path d="m717.878 144.573c0 3.522-2.855 6.378-6.378 6.378-3.522 0-6.378-2.856-6.378-6.378s2.856-6.378 6.378-6.378c3.523 0 6.378 2.856 6.378 6.378" transform="matrix(1.333173 0 0 1.333173 -3.711554 -275.83518)"/><circle cx="944.8410355" cy="-83.094359871" r="8.502977394"/><path d="m672.834 179.176v30.329h-18.314v-4.545h12.78v-8.909h-11.43v-4.5h11.43v-7.83h-12.105v-4.545z" transform="matrix(1.333173 0 0 1.333173 -3.711554 -275.83518)"/><path d="m672.834 179.176v30.329h-18.314v-4.545h12.78v-8.909h-11.43v-4.5h11.43v-7.83h-12.105v-4.545z" transform="matrix(1.333173 0 0 1.333173 -3.711554 -275.83518)"/><path d="m627.03 208.065c-1.665 1.035-4.995 1.935-8.235 1.935-7.785 0-11.474-4.23-11.474-9.135 0-4.364 2.52-7.019 7.784-8.999 4.05-1.575 5.805-2.655 5.805-4.995 0-1.8-1.485-3.645-4.995-3.645-2.835 0-4.949.855-6.074 1.44l-1.306-4.455c1.576-.81 3.96-1.53 7.245-1.53 6.615 0 10.755 3.735 10.755 8.73 0 4.365-3.195 7.02-8.235 8.82-3.825 1.395-5.354 2.744-5.354 5.039 0 2.475 1.979 4.14 5.489 4.14 2.835 0 5.58-.9 7.335-1.935z" transform="matrix(1.333173 0 0 1.333173 -3.711554 -275.83518)"/><path d="m627.03 208.065c-1.665 1.035-4.995 1.935-8.235 1.935-7.785 0-11.474-4.23-11.474-9.135 0-4.364 2.52-7.019 7.784-8.999 4.05-1.575 5.805-2.655 5.805-4.995 0-1.8-1.485-3.645-4.995-3.645-2.835 0-4.949.855-6.074 1.44l-1.306-4.455c1.576-.81 3.96-1.53 7.245-1.53 6.615 0 10.755 3.735 10.755 8.73 0 4.365-3.195 7.02-8.235 8.82-3.825 1.395-5.354 2.744-5.354 5.039 0 2.475 1.979 4.14 5.489 4.14 2.835 0 5.58-.9 7.335-1.935z" transform="matrix(1.333173 0 0 1.333173 -3.711554 -275.83518)"/><path d="m579.854 209.505h-5.49v-10.665l-2.745-3.239-8.549 13.904h-6.48l11.115-17.414-10.44-12.915h6.794l7.965 10.665c.72 1.035 1.485 2.115 2.205 3.285h.135v-13.95h5.49z" transform="matrix(1.333173 0 0 1.333173 -3.711554 -275.83518)"/><path d="m579.854 209.505h-5.49v-10.665l-2.745-3.239-8.549 13.904h-6.48l11.115-17.414-10.44-12.915h6.794l7.965 10.665c.72 1.035 1.485 2.115 2.205 3.285h.135v-13.95h5.49z" transform="matrix(1.333173 0 0 1.333173 -3.711554 -275.83518)"/><path d="m689.43172549654-36.96258788373h7.379112555v40.433803917h-7.379112555z"/><path d="m689.43172549654-36.96258788373h7.379112555v40.433803917h-7.379112555z"/><path d="m485.298 208.065c-1.665 1.035-4.995 1.935-8.235 1.935-7.785 0-11.475-4.23-11.475-9.135 0-4.364 2.52-7.019 7.785-8.999 4.05-1.575 5.805-2.655 5.805-4.995 0-1.8-1.485-3.645-4.995-3.645-2.835 0-4.95.855-6.075 1.44l-1.305-4.455c1.576-.81 3.96-1.53 7.245-1.53 6.615 0 10.755 3.735 10.755 8.73 0 4.365-3.195 7.02-8.235 8.82-3.825 1.395-5.355 2.744-5.355 5.039 0 2.475 1.981 4.14 5.49 4.14 2.835 0 5.58-.9 7.335-1.935z" transform="matrix(1.333173 0 0 1.333173 -3.711554 -275.83518)"/><path d="m485.298 208.065c-1.665 1.035-4.995 1.935-8.235 1.935-7.785 0-11.475-4.23-11.475-9.135 0-4.364 2.52-7.019 7.785-8.999 4.05-1.575 5.805-2.655 5.805-4.995 0-1.8-1.485-3.645-4.995-3.645-2.835 0-4.95.855-6.075 1.44l-1.305-4.455c1.576-.81 3.96-1.53 7.245-1.53 6.615 0 10.755 3.735 10.755 8.73 0 4.365-3.195 7.02-8.235 8.82-3.825 1.395-5.355 2.744-5.355 5.039 0 2.475 1.981 4.14 5.49 4.14 2.835 0 5.58-.9 7.335-1.935z" transform="matrix(1.333173 0 0 1.333173 -3.711554 -275.83518)"/><path d="m425.5 209.505v-25.694h-8.73v-4.635h22.904v4.635h-8.64v25.694z" transform="matrix(1.333173 0 0 1.333173 -3.711554 -275.83518)"/><path d="m425.5 209.505v-25.694h-8.73v-4.635h22.904v4.635h-8.64v25.694z" transform="matrix(1.333173 0 0 1.333173 -3.711554 -275.83518)"/><path d="m388.875 179.176v30.329h-18v-4.635h12.465v-25.694z" transform="matrix(1.333173 0 0 1.333173 -3.711554 -275.83518)"/><path d="m388.875 179.176v30.329h-18v-4.635h12.465v-25.694z" transform="matrix(1.333173 0 0 1.333173 -3.711554 -275.83518)"/><path d="m324.441 183.721v-4.545h17.549v30.329h-5.534v-12.915h-11.16v-4.499h11.16v-8.37z" transform="matrix(1.333173 0 0 1.333173 -3.711554 -275.83518)"/><path d="m324.441 183.721v-4.545h17.549v30.329h-5.534v-12.915h-11.16v-4.499h11.16v-8.37z" transform="matrix(1.333173 0 0 1.333173 -3.711554 -275.83518)"/><path d="m298.324 179.176v17.369c0 9.54-4.545 13.455-11.564 13.455-7.29 0-12.105-4.14-12.105-13.5v-17.324h5.535v17.684c0 5.94 2.385 8.685 6.39 8.685 3.735 0 6.21-2.745 6.21-8.685v-17.684zm-7.559-1.89c-1.575 0-2.655-1.26-2.655-2.7 0-1.575 1.124-2.745 2.61-2.745 1.53 0 2.7 1.215 2.7 2.745-.001 1.44-1.126 2.7-2.655 2.7m-8.866 0c-1.62 0-2.7-1.26-2.7-2.7 0-1.575 1.125-2.745 2.61-2.745 1.575 0 2.7 1.215 2.7 2.745.001 1.44-1.079 2.7-2.61 2.7" transform="matrix(1.333173 0 0 1.333173 -3.711554 -275.83518)"/><path d="m298.324 179.176v17.369c0 9.54-4.545 13.455-11.564 13.455-7.29 0-12.105-4.14-12.105-13.5v-17.324h5.535v17.684c0 5.94 2.385 8.685 6.39 8.685 3.735 0 6.21-2.745 6.21-8.685v-17.684zm-7.559-1.89c-1.575 0-2.655-1.26-2.655-2.7 0-1.575 1.124-2.745 2.61-2.745 1.53 0 2.7 1.215 2.7 2.745-.001 1.44-1.126 2.7-2.655 2.7zm-8.866 0c-1.62 0-2.7-1.26-2.7-2.7 0-1.575 1.125-2.745 2.61-2.745 1.575 0 2.7 1.215 2.7 2.745.001 1.44-1.079 2.7-2.61 2.7z" transform="matrix(1.333173 0 0 1.333173 -3.711554 -275.83518)"/><path d="m246.175 209.505v-10.845c0-4.994.09-8.999.315-12.914l-.18-.045c-1.485 3.42-3.465 7.11-5.4 10.44l-7.92 13.364h-5.759v-30.329h5.13v10.575c0 4.634-.09 8.549-.495 12.599h.09c1.395-3.285 3.195-6.794 5.175-10.169l7.829-13.005h6.345v30.329z" transform="matrix(1.333173 0 0 1.333173 -3.711554 -275.83518)"/><path d="m246.175 209.505v-10.845c0-4.994.09-8.999.315-12.914l-.18-.045c-1.485 3.42-3.465 7.11-5.4 10.44l-7.92 13.364h-5.759v-30.329h5.13v10.575c0 4.634-.09 8.549-.495 12.599h.09c1.395-3.285 3.195-6.794 5.175-10.169l7.829-13.005h6.345v30.329z" transform="matrix(1.333173 0 0 1.333173 -3.711554 -275.83518)"/><path d="m182.709 183.721v-4.545h17.549v30.329h-5.534v-12.915h-11.16v-4.499h11.16v-8.37z" transform="matrix(1.333173 0 0 1.333173 -3.711554 -275.83518)"/><path d="m653.328 234.909v-3.24h21.329v4.59h-14.129v.135l15.479 22.544v3.06h-22.904v-4.59h15.524v-.135z" transform="matrix(1.333173 0 0 1.333173 -3.711554 -275.83518)"/><path d="m653.328 234.909v-3.24h21.329v4.59h-14.129v.135l15.479 22.544v3.06h-22.904v-4.59h15.524v-.135z" transform="matrix(1.333173 0 0 1.333173 -3.711554 -275.83518)"/><path d="m625.59 231.669v30.329h-18.314v-4.545h12.78v-8.909h-11.43v-4.5h11.43v-7.83h-12.105v-4.545z" transform="matrix(1.333173 0 0 1.333173 -3.711554 -275.83518)"/><path d="m625.59 231.669v30.329h-18.314v-4.545h12.78v-8.909h-11.43v-4.5h11.43v-7.83h-12.105v-4.545z" transform="matrix(1.333173 0 0 1.333173 -3.711554 -275.83518)"/><path d="m563.52 261.999h-5.535v-30.33h5.535v12.149h12.824v-12.149h5.535v30.33h-5.535v-13.366h-12.824z" transform="matrix(1.333173 0 0 1.333173 -3.711554 -275.83518)"/><path d="m563.52 261.999h-5.535v-30.33h5.535v12.149h12.824v-12.149h5.535v30.33h-5.535v-13.366h-12.824z" transform="matrix(1.333173 0 0 1.333173 -3.711554 -275.83518)"/><path d="m529.64 261.998v-10.845c0-4.994.09-8.999.315-12.914l-.18-.045c-1.485 3.42-3.465 7.11-5.4 10.44l-7.92 13.364h-5.759v-30.329h5.129v10.575c0 4.634-.089 8.549-.494 12.599h.09c1.395-3.284 3.195-6.794 5.175-10.169l7.829-13.005h6.345v30.329z" transform="matrix(1.333173 0 0 1.333173 -3.711554 -275.83518)"/><path d="m529.64 261.998v-10.845c0-4.994.09-8.999.315-12.914l-.18-.045c-1.485 3.42-3.465 7.11-5.4 10.44l-7.92 13.364h-5.759v-30.329h5.129v10.575c0 4.634-.089 8.549-.494 12.599h.09c1.395-3.284 3.195-6.794 5.175-10.169l7.829-13.005h6.345v30.329z" transform="matrix(1.333173 0 0 1.333173 -3.711554 -275.83518)"/><path d="m464.352 234.909v-3.24h21.328v4.59h-14.129v.135l15.479 22.544v3.06h-22.904v-4.59h15.524v-.135z" transform="matrix(1.333173 0 0 1.333173 -3.711554 -275.83518)"/><path d="m464.352 234.909v-3.24h21.328v4.59h-14.129v.135l15.479 22.544v3.06h-22.904v-4.59h15.524v-.135z" transform="matrix(1.333173 0 0 1.333173 -3.711554 -275.83518)"/><path d="m433.689 261.998-3.51-14.265c-.9-3.464-1.485-6.389-1.98-9.629h-.09c-.405 3.285-.945 6.165-1.71 9.629l-3.149 14.265h-5.896l-8.189-30.329h5.625l3.149 13.68c.811 3.735 1.531 7.199 2.071 10.529h.09c.449-3.285 1.125-6.659 1.844-10.259l3.015-13.95h5.805l3.285 13.725c.855 3.825 1.71 7.424 2.205 10.619h.09c.495-3.015 1.215-6.885 1.98-10.574l2.88-13.77h5.895l-7.425 30.329z" transform="matrix(1.333173 0 0 1.333173 -3.711554 -275.83518)"/><path d="m433.689 261.998-3.51-14.265c-.9-3.464-1.485-6.389-1.98-9.629h-.09c-.405 3.285-.945 6.165-1.71 9.629l-3.149 14.265h-5.896l-8.189-30.329h5.625l3.149 13.68c.811 3.735 1.531 7.199 2.071 10.529h.09c.449-3.285 1.125-6.659 1.844-10.259l3.015-13.95h5.805l3.285 13.725c.855 3.825 1.71 7.424 2.205 10.619h.09c.495-3.015 1.215-6.885 1.98-10.574l2.88-13.77h5.895l-7.425 30.329z" transform="matrix(1.333173 0 0 1.333173 -3.711554 -275.83518)"/><path d="m376.432 253.403-2.745 8.595h-5.984l9.854-30.328h7.065l9.72 30.328h-5.715l-2.61-8.595zm8.685-4.184-2.34-7.47c-.495-1.8-.99-3.915-1.44-5.67h-.09c-.45 1.755-.945 3.825-1.53 5.67l-2.385 7.47z" transform="matrix(1.333173 0 0 1.333173 -3.711554 -275.83518)"/><path d="m376.432 253.403-2.745 8.595h-5.984l9.854-30.328h7.065l9.72 30.328h-5.715l-2.61-8.595zm8.685-4.184-2.34-7.47c-.495-1.8-.99-3.915-1.44-5.67h-.09c-.45 1.755-.945 3.825-1.53 5.67l-2.385 7.47z" transform="matrix(1.333173 0 0 1.333173 -3.711554 -275.83518)"/><path d="m340.663 261.998v-10.845c0-4.994.09-8.999.315-12.914l-.18-.045c-1.485 3.42-3.465 7.11-5.4 10.44l-7.92 13.364h-5.759v-30.329h5.13v10.575c0 4.634-.09 8.549-.495 12.599h.09c1.395-3.284 3.195-6.794 5.175-10.169l7.829-13.005h6.345v30.329z" transform="matrix(1.333173 0 0 1.333173 -3.711554 -275.83518)"/><path d="m340.663 261.998v-10.845c0-4.994.09-8.999.315-12.914l-.18-.045c-1.485 3.42-3.465 7.11-5.4 10.44l-7.92 13.364h-5.759v-30.329h5.13v10.575c0 4.634-.09 8.549-.495 12.599h.09c1.395-3.284 3.195-6.794 5.175-10.169l7.829-13.005h6.345v30.329z" transform="matrix(1.333173 0 0 1.333173 -3.711554 -275.83518)"/><path d="m275.375 234.909v-3.24h21.329v4.59h-14.129v.135l15.479 22.544v3.06h-22.904v-4.59h15.524v-.135z" transform="matrix(1.333173 0 0 1.333173 -3.711554 -275.83518)"/><path d="m275.375 234.909v-3.24h21.329v4.59h-14.129v.135l15.479 22.544v3.06h-22.904v-4.59h15.524v-.135z" transform="matrix(1.333173 0 0 1.333173 -3.711554 -275.83518)"/><path d="m311.523867715 33.01968906873h7.379112555v40.433803917h-7.379112555z"/><path d="m311.523867715 33.01968906873h7.379112555v40.433803917h-7.379112555z"/><path d="m179.492 245.259h10.71v4.365h-5.355v7.604c.72.316 2.16.585 4.185.585 6.299 0 10.529-4.095 10.529-10.979 0-7.065-4.545-10.89-11.025-10.89-3.194 0-5.219.54-6.884 1.305l-1.215-4.454c1.395-.676 4.32-1.44 8.054-1.44 10.035 0 16.83 6.119 16.875 15.749 0 4.59-1.53 8.594-4.23 11.159-2.88 2.746-6.795 4.05-11.925 4.05-4.005 0-7.784-.99-9.719-1.71z" transform="matrix(1.333173 0 0 1.333173 -3.711554 -275.83518)"/><path d="m179.492 245.259h10.71v4.365h-5.355v7.604c.72.316 2.16.585 4.185.585 6.299 0 10.529-4.095 10.529-10.979 0-7.065-4.545-10.89-11.025-10.89-3.194 0-5.219.54-6.884 1.305l-1.215-4.454c1.395-.676 4.32-1.44 8.054-1.44 10.035 0 16.83 6.119 16.875 15.749 0 4.59-1.53 8.594-4.23 11.159-2.88 2.746-6.795 4.05-11.925 4.05-4.005 0-7.784-.99-9.719-1.71z" transform="matrix(1.333173 0 0 1.333173 -3.711554 -275.83518)"/><path d="m676.615 314.401c-1.845.225-4.275.405-7.47.405-5.895 0-10.709-1.395-13.725-4.14-2.879-2.61-4.724-6.615-4.724-12.059 0-5.13 1.8-8.775 4.769-11.16 2.79-2.34 6.66-3.51 12.33-3.51 3.285 0 6.345.27 8.82.63zm-5.535-25.829c-.81-.18-2.025-.315-3.78-.315-6.929 0-10.8 3.87-10.755 10.529 0 7.695 4.275 11.7 11.475 11.655 1.125 0 2.295 0 3.06-.135z" transform="matrix(1.333173 0 0 1.333173 -3.711554 -275.83518)"/><path d="m676.615 314.401c-1.845.225-4.275.405-7.47.405-5.895 0-10.709-1.395-13.725-4.14-2.879-2.61-4.724-6.615-4.724-12.059 0-5.13 1.8-8.775 4.769-11.16 2.79-2.34 6.66-3.51 12.33-3.51 3.285 0 6.345.27 8.82.63zm-5.535-25.829c-.81-.18-2.025-.315-3.78-.315-6.929 0-10.8 3.87-10.755 10.529 0 7.695 4.275 11.7 11.475 11.655 1.125 0 2.295 0 3.06-.135z" transform="matrix(1.333173 0 0 1.333173 -3.711554 -275.83518)"/><path d="m626.806 314.491h-5.49v-12.464h-2.79c-3.15.09-4.545 1.349-5.445 5.309-.81 3.78-1.575 6.255-2.025 7.155h-5.669c.585-1.17 1.394-4.68 2.385-8.459.719-2.926 2.024-5.04 4.229-5.851v-.134c-2.88-.991-5.535-3.645-5.535-7.56 0-2.61.946-4.725 2.61-6.12 2.071-1.71 4.995-2.43 9.36-2.43 3.195 0 6.255.27 8.37.675zm-5.491-26.099c-.54-.135-1.665-.27-3.42-.27-3.6 0-5.895 1.575-5.895 4.86 0 3.015 2.295 4.995 6.03 4.995h3.285z" transform="matrix(1.333173 0 0 1.333173 -3.711554 -275.83518)"/><path d="m626.806 314.491h-5.49v-12.464h-2.79c-3.15.09-4.545 1.349-5.445 5.309-.81 3.78-1.575 6.255-2.025 7.155h-5.669c.585-1.17 1.394-4.68 2.385-8.459.719-2.926 2.024-5.04 4.229-5.851v-.134c-2.88-.991-5.535-3.645-5.535-7.56 0-2.61.946-4.725 2.61-6.12 2.071-1.71 4.995-2.43 9.36-2.43 3.195 0 6.255.27 8.37.675zm-5.491-26.099c-.54-.135-1.665-.27-3.42-.27-3.6 0-5.895 1.575-5.895 4.86 0 3.015 2.295 4.995 6.03 4.995h3.285z" transform="matrix(1.333173 0 0 1.333173 -3.711554 -275.83518)"/><path d="m578.346 284.162v30.329h-18.314v-4.545h12.78v-8.91h-11.43v-4.499h11.43v-7.83h-12.105v-4.545z" transform="matrix(1.333173 0 0 1.333173 -3.711554 -275.83518)"/><path d="m578.346 284.162v30.329h-18.314v-4.545h12.78v-8.91h-11.43v-4.499h11.43v-7.83h-12.105v-4.545z" transform="matrix(1.333173 0 0 1.333173 -3.711554 -275.83518)"/><path d="m689.43172549654 103.00191269427h7.379112555v40.433803917h-7.379112555z"/><path d="m689.43172549654 103.00191269427h7.379112555v40.433803917h-7.379112555z"/><path d="m472.519 314.491-10.485-30.329h5.895l4.41 13.86c1.17 3.69 2.295 7.379 3.105 10.979h.09c.765-3.69 1.8-7.199 2.97-11.024l4.14-13.815h6.029l-9.809 30.329z" transform="matrix(1.333173 0 0 1.333173 -3.711554 -275.83518)"/><path d="m472.519 314.491-10.485-30.329h5.895l4.41 13.86c1.17 3.69 2.295 7.379 3.105 10.979h.09c.765-3.69 1.8-7.199 2.97-11.024l4.14-13.815h6.029l-9.809 30.329z" transform="matrix(1.333173 0 0 1.333173 -3.711554 -275.83518)"/><path d="m563.461568563 103.00191269427h7.379112555v40.433803917h-7.379112555z"/><path d="m563.461568563 103.00191269427h7.379112555v40.433803917h-7.379112555z"/><path d="m389.369 284.162v30.329h-18.314v-4.545h12.78v-8.91h-11.43v-4.499h11.43v-7.83h-12.105v-4.545z" transform="matrix(1.333173 0 0 1.333173 -3.711554 -275.83518)"/><path d="m389.369 284.162v30.329h-18.314v-4.545h12.78v-8.91h-11.43v-4.499h11.43v-7.83h-12.105v-4.545z" transform="matrix(1.333173 0 0 1.333173 -3.711554 -275.83518)"/><path d="m343.341 314.491h-5.49v-12.464h-2.79c-3.15.09-4.545 1.349-5.445 5.309-.81 3.78-1.575 6.255-2.025 7.155h-5.669c.585-1.17 1.394-4.68 2.385-8.459.719-2.926 2.024-5.04 4.229-5.851v-.134c-2.88-.991-5.535-3.645-5.535-7.56 0-2.61.946-4.725 2.61-6.12 2.071-1.71 4.995-2.43 9.36-2.43 3.195 0 6.255.27 8.37.675zm-5.49-26.099c-.54-.135-1.665-.27-3.42-.27-3.6 0-5.895 1.575-5.895 4.86 0 3.015 2.295 4.995 6.03 4.995h3.285z" transform="matrix(1.333173 0 0 1.333173 -3.711554 -275.83518)"/><path d="m343.341 314.491h-5.49v-12.464h-2.79c-3.15.09-4.545 1.349-5.445 5.309-.81 3.78-1.575 6.255-2.025 7.155h-5.669c.585-1.17 1.394-4.68 2.385-8.459.719-2.926 2.024-5.04 4.229-5.851v-.134c-2.88-.991-5.535-3.645-5.535-7.56 0-2.61.946-4.725 2.61-6.12 2.071-1.71 4.995-2.43 9.36-2.43 3.195 0 6.255.27 8.37.675zm-5.49-26.099c-.54-.135-1.665-.27-3.42-.27-3.6 0-5.895 1.575-5.895 4.86 0 3.015 2.295 4.995 6.03 4.995h3.285z" transform="matrix(1.333173 0 0 1.333173 -3.711554 -275.83518)"/><path d="m283.767 314.491v-25.694h-8.73v-4.635h22.905v4.635h-8.64v25.694z" transform="matrix(1.333173 0 0 1.333173 -3.711554 -275.83518)"/><path d="m283.767 314.491v-25.694h-8.73v-4.635h22.905v4.635h-8.64v25.694z" transform="matrix(1.333173 0 0 1.333173 -3.711554 -275.83518)"/><path d="m247.637 284.162v30.329h-18.314v-4.545h12.78v-8.91h-11.43v-4.499h11.43v-7.83h-12.105v-4.545z" transform="matrix(1.333173 0 0 1.333173 -3.711554 -275.83518)"/><path d="m247.637 284.162v30.329h-18.314v-4.545h12.78v-8.91h-11.43v-4.499h11.43v-7.83h-12.105v-4.545z" transform="matrix(1.333173 0 0 1.333173 -3.711554 -275.83518)"/><path d="m199.898 284.162v30.329h-17.999v-4.635h12.465v-25.694z" transform="matrix(1.333173 0 0 1.333173 -3.711554 -275.83518)"/><path d="m199.898 284.162v30.329h-17.999v-4.635h12.465v-25.694z" transform="matrix(1.333173 0 0 1.333173 -3.711554 -275.83518)"/><path d="m671.372 366.984v-10.844c0-4.994.09-8.999.315-12.914l-.18-.045c-1.485 3.42-3.465 7.11-5.4 10.44l-7.92 13.364h-5.759v-30.329h5.13v10.575c0 4.634-.09 8.549-.495 12.599h.09c1.395-3.284 3.195-6.794 5.175-10.169l7.829-13.005h6.345v30.329h-5.13z" transform="matrix(1.333173 0 0 1.333173 -3.711554 -275.83518)"/><path d="m671.372 366.984v-10.844c0-4.994.09-8.999.315-12.914l-.18-.045c-1.485 3.42-3.465 7.11-5.4 10.44l-7.92 13.364h-5.759v-30.329h5.13v10.575c0 4.634-.09 8.549-.495 12.599h.09c1.395-3.284 3.195-6.794 5.175-10.169l7.829-13.005h6.345v30.329h-5.13z" transform="matrix(1.333173 0 0 1.333173 -3.711554 -275.83518)"/><path d="m612.653 358.39-2.745 8.594h-5.984l9.854-30.328h7.065l9.72 30.328h-5.715l-2.61-8.594zm8.685-4.185-2.34-7.47c-.495-1.8-.99-3.915-1.44-5.67h-.09c-.45 1.755-.945 3.825-1.53 5.67l-2.385 7.47z" transform="matrix(1.333173 0 0 1.333173 -3.711554 -275.83518)"/><path d="m612.653 358.39-2.745 8.594h-5.984l9.854-30.328h7.065l9.72 30.328h-5.715l-2.61-8.594zm8.685-4.185-2.34-7.47c-.495-1.8-.99-3.915-1.44-5.67h-.09c-.45 1.755-.945 3.825-1.53 5.67l-2.385 7.47z" transform="matrix(1.333173 0 0 1.333173 -3.711554 -275.83518)"/><path d="m559.155 361.765c1.485.63 3.825 1.08 6.029 1.08 6.705 0 10.575-4.23 10.575-10.934 0-7.291-4.455-11.16-10.62-11.16-2.474 0-4.499.54-5.939 1.17l-1.17-4.41c1.125-.585 3.69-1.35 7.335-1.35 9.269 0 16.244 6.03 16.244 16.02 0 9.269-5.85 15.299-15.479 15.299-3.69 0-6.57-.72-7.875-1.35z" transform="matrix(1.333173 0 0 1.333173 -3.711554 -275.83518)"/><path d="m559.155 361.765c1.485.63 3.825 1.08 6.029 1.08 6.705 0 10.575-4.23 10.575-10.934 0-7.291-4.455-11.16-10.62-11.16-2.474 0-4.499.54-5.939 1.17l-1.17-4.41c1.125-.585 3.69-1.35 7.335-1.35 9.269 0 16.244 6.03 16.244 16.02 0 9.269-5.85 15.299-15.479 15.299-3.69 0-6.57-.72-7.875-1.35z" transform="matrix(1.333173 0 0 1.333173 -3.711554 -275.83518)"/><path d="m516.276 366.985h-5.535v-30.329h5.535v12.149h12.824v-12.149h5.535v30.329h-5.535v-13.365h-12.824z" transform="matrix(1.333173 0 0 1.333173 -3.711554 -275.83518)"/><path d="m516.276 366.985h-5.535v-30.329h5.535v12.149h12.824v-12.149h5.535v30.329h-5.535v-13.365h-12.824z" transform="matrix(1.333173 0 0 1.333173 -3.711554 -275.83518)"/><path d="m470.92 358.39-2.745 8.594h-5.984l9.854-30.328h7.065l9.72 30.328h-5.715l-2.61-8.594zm8.685-4.185-2.34-7.47c-.495-1.8-.99-3.915-1.44-5.67h-.09c-.45 1.755-.945 3.825-1.53 5.67l-2.385 7.47z" transform="matrix(1.333173 0 0 1.333173 -3.711554 -275.83518)"/><path d="m470.92 358.39-2.745 8.594h-5.984l9.854-30.328h7.065l9.72 30.328h-5.715l-2.61-8.594zm8.685-4.185-2.34-7.47c-.495-1.8-.99-3.915-1.44-5.67h-.09c-.45 1.755-.945 3.825-1.53 5.67l-2.385 7.47z" transform="matrix(1.333173 0 0 1.333173 -3.711554 -275.83518)"/><path d="m437.604 366.985h-5.49v-11.475c-.765.18-1.665.225-2.7.225-3.915 0-7.335-1.08-9.585-3.284-1.665-1.621-2.565-3.96-2.565-6.84 0-2.835 1.17-5.22 2.971-6.705 1.934-1.62 4.859-2.475 8.909-2.475 3.69 0 6.435.27 8.46.63zm-5.49-26.009c-.585-.135-1.665-.27-3.195-.27-3.825 0-6.165 1.755-6.165 5.13 0 3.51 2.52 5.579 6.66 5.579 1.125 0 1.98-.044 2.7-.27z" transform="matrix(1.333173 0 0 1.333173 -3.711554 -275.83518)"/><path d="m437.604 366.985h-5.49v-11.475c-.765.18-1.665.225-2.7.225-3.915 0-7.335-1.08-9.585-3.284-1.665-1.621-2.565-3.96-2.565-6.84 0-2.835 1.17-5.22 2.971-6.705 1.934-1.62 4.859-2.475 8.909-2.475 3.69 0 6.435.27 8.46.63zm-5.49-26.009c-.585-.135-1.665-.27-3.195-.27-3.825 0-6.165 1.755-6.165 5.13 0 3.51 2.52 5.579 6.66 5.579 1.125 0 1.98-.044 2.7-.27z" transform="matrix(1.333173 0 0 1.333173 -3.711554 -275.83518)"/><path d="m390.36 366.985h-5.49v-11.475c-.765.18-1.665.225-2.7.225-3.915 0-7.335-1.08-9.585-3.284-1.665-1.621-2.565-3.96-2.565-6.84 0-2.835 1.17-5.22 2.971-6.705 1.934-1.62 4.859-2.475 8.909-2.475 3.69 0 6.435.27 8.46.63zm-5.49-26.009c-.585-.135-1.665-.27-3.195-.27-3.825 0-6.165 1.755-6.165 5.13 0 3.51 2.52 5.579 6.66 5.579 1.125 0 1.98-.044 2.7-.27z" transform="matrix(1.333173 0 0 1.333173 -3.711554 -275.83518)"/><path d="m390.36 366.985h-5.49v-11.475c-.765.18-1.665.225-2.7.225-3.915 0-7.335-1.08-9.585-3.284-1.665-1.621-2.565-3.96-2.565-6.84 0-2.835 1.17-5.22 2.971-6.705 1.934-1.62 4.859-2.475 8.909-2.475 3.69 0 6.435.27 8.46.63zm-5.49-26.009c-.585-.135-1.665-.27-3.195-.27-3.825 0-6.165 1.755-6.165 5.13 0 3.51 2.52 5.579 6.66 5.579 1.125 0 1.98-.044 2.7-.27z" transform="matrix(1.333173 0 0 1.333173 -3.711554 -275.83518)"/><path d="m331.056 366.984v-12.779l-10.08-17.55h6.255l3.645 7.785c1.035 2.205 1.89 4.095 2.61 6.03h.09c.855-2.07 1.62-3.78 2.655-6.03l3.599-7.785h6.345l-9.584 17.684v12.645z" transform="matrix(1.333173 0 0 1.333173 -3.711554 -275.83518)"/><path d="m331.056 366.984v-12.779l-10.08-17.55h6.255l3.645 7.785c1.035 2.205 1.89 4.095 2.61 6.03h.09c.855-2.07 1.62-3.78 2.655-6.03l3.599-7.785h6.345l-9.584 17.684v12.645z" transform="matrix(1.333173 0 0 1.333173 -3.711554 -275.83518)"/><path d="m283.542 366.984-10.485-30.329h5.895l4.41 13.86c1.17 3.69 2.295 7.379 3.105 10.979h.09c.765-3.69 1.8-7.199 2.97-11.024l4.14-13.815h6.029l-9.809 30.329z" transform="matrix(1.333173 0 0 1.333173 -3.711554 -275.83518)"/><path d="m283.542 366.984-10.485-30.329h5.895l4.41 13.86c1.17 3.69 2.295 7.379 3.105 10.979h.09c.765-3.69 1.8-7.199 2.97-11.024l4.14-13.815h6.029l-9.809 30.329z" transform="matrix(1.333173 0 0 1.333173 -3.711554 -275.83518)"/><path d="m239.021 336.115c8.55 0 14.444 6.57 14.444 15.93 0 8.864-5.399 15.434-13.994 15.434-8.325 0-14.49-5.805-14.49-15.974-.001-8.685 5.219-15.39 14.04-15.39m.179 4.455c-5.535 0-8.37 5.4-8.37 11.115 0 6.344 3.015 11.339 8.37 11.339 5.31 0 8.415-4.905 8.415-11.114 0-6.255-2.925-11.34-8.415-11.34" transform="matrix(1.333173 0 0 1.333173 -3.711554 -275.83518)"/><path d="m239.021 336.115c8.55 0 14.444 6.57 14.444 15.93 0 8.864-5.399 15.434-13.994 15.434-8.325 0-14.49-5.805-14.49-15.974-.001-8.685 5.219-15.39 14.04-15.39zm.179 4.455c-5.535 0-8.37 5.4-8.37 11.115 0 6.344 3.015 11.339 8.37 11.339 5.31 0 8.415-4.905 8.415-11.114 0-6.255-2.925-11.34-8.415-11.34z" transform="matrix(1.333173 0 0 1.333173 -3.711554 -275.83518)"/><path d="m201.609 366.984h-5.49v-12.464h-2.79c-3.15.09-4.545 1.349-5.445 5.309-.81 3.78-1.575 6.255-2.025 7.155h-5.669c.585-1.17 1.394-4.68 2.385-8.459.719-2.926 2.024-5.04 4.23-5.85v-.135c-2.88-.99-5.536-3.645-5.536-7.56 0-2.61.946-4.725 2.61-6.12 2.071-1.71 4.995-2.43 9.36-2.43 3.195 0 6.255.27 8.37.675zm-5.49-26.099c-.54-.135-1.665-.27-3.42-.27-3.6 0-5.894 1.575-5.894 4.86 0 3.015 2.294 4.995 6.029 4.995h3.285z" transform="matrix(1.333173 0 0 1.333173 -3.711554 -275.83518)"/><path d="m201.609 366.984h-5.49v-12.464h-2.79c-3.15.09-4.545 1.349-5.445 5.309-.81 3.78-1.575 6.255-2.025 7.155h-5.669c.585-1.17 1.394-4.68 2.385-8.459.719-2.926 2.024-5.04 4.23-5.85v-.135c-2.88-.99-5.536-3.645-5.536-7.56 0-2.61.946-4.725 2.61-6.12 2.071-1.71 4.995-2.43 9.36-2.43 3.195 0 6.255.27 8.37.675zm-5.49-26.099c-.54-.135-1.665-.27-3.42-.27-3.6 0-5.894 1.575-5.894 4.86 0 3.015 2.294 4.995 6.029 4.995h3.285z" transform="matrix(1.333173 0 0 1.333173 -3.711554 -275.83518)"/><path d="m658.008 419.478h-5.535v-30.329h5.535v12.149h12.824v-12.149h5.535v30.329h-5.535v-13.365h-12.824z" transform="matrix(1.333173 0 0 1.333173 -3.711554 -275.83518)"/><path d="m658.008 419.478h-5.535v-30.329h5.535v12.149h12.824v-12.149h5.535v30.329h-5.535v-13.365h-12.824z" transform="matrix(1.333173 0 0 1.333173 -3.711554 -275.83518)"/><path d="m612.653 410.883-2.745 8.594h-5.984l9.854-30.328h7.065l9.72 30.328h-5.715l-2.61-8.594zm8.685-4.185-2.34-7.47c-.495-1.8-.99-3.915-1.44-5.67h-.09c-.45 1.755-.945 3.825-1.53 5.67l-2.385 7.47z" transform="matrix(1.333173 0 0 1.333173 -3.711554 -275.83518)"/><path d="m612.653 410.883-2.745 8.594h-5.984l9.854-30.328h7.065l9.72 30.328h-5.715l-2.61-8.594zm8.685-4.185-2.34-7.47c-.495-1.8-.99-3.915-1.44-5.67h-.09c-.45 1.755-.945 3.825-1.53 5.67l-2.385 7.47z" transform="matrix(1.333173 0 0 1.333173 -3.711554 -275.83518)"/><path d="m577.851 389.148v30.33h-18v-4.635h12.465v-25.695z" transform="matrix(1.333173 0 0 1.333173 -3.711554 -275.83518)"/><path d="m577.851 389.148v30.33h-18v-4.635h12.465v-25.695z" transform="matrix(1.333173 0 0 1.333173 -3.711554 -275.83518)"/><path d="m532.475 419.388c-1.44.179-3.735.404-6.795.404-5.58 0-9.134-.944-11.295-2.79-1.71-1.485-2.88-3.599-2.88-6.299 0-4.14 2.925-6.66 6.12-7.47v-.135c-3.285-1.215-5.039-3.735-5.039-6.525 0-2.61 1.259-4.589 3.149-5.714 2.025-1.395 4.59-1.935 8.64-1.935 3.15 0 6.345.315 8.1.674zm-5.49-26.144c-.585-.136-1.53-.226-3.15-.226-3.51 0-5.67 1.305-5.67 4.185 0 2.565 2.115 4.365 5.985 4.365h2.835zm0 12.329h-2.745c-3.825 0-6.93 1.44-6.93 4.995 0 3.734 3.195 5.04 6.75 5.04 1.26 0 2.205 0 2.925-.135z" transform="matrix(1.333173 0 0 1.333173 -3.711554 -275.83518)"/><path d="m532.475 419.388c-1.44.179-3.735.404-6.795.404-5.58 0-9.134-.944-11.295-2.79-1.71-1.485-2.88-3.599-2.88-6.299 0-4.14 2.925-6.66 6.12-7.47v-.135c-3.285-1.215-5.039-3.735-5.039-6.525 0-2.61 1.259-4.589 3.149-5.714 2.025-1.395 4.59-1.935 8.64-1.935 3.15 0 6.345.315 8.1.674zm-5.49-26.144c-.585-.136-1.53-.226-3.15-.226-3.51 0-5.67 1.305-5.67 4.185 0 2.565 2.115 4.365 5.985 4.365h2.835zm0 12.329h-2.745c-3.825 0-6.93 1.44-6.93 4.995 0 3.734 3.195 5.04 6.75 5.04 1.26 0 2.205 0 2.925-.135z" transform="matrix(1.333173 0 0 1.333173 -3.711554 -275.83518)"/><path d="m626.44731361627 242.96774644527h7.379112555v40.433803917h-7.379112555z"/><path d="m626.44731361627 242.96774644527h7.379112555v40.433803917h-7.379112555z"/><g transform="matrix(1.333173 0 0 1.333173 -3.711554 -275.83518)"><path d="m437.829 419.478h-5.49v-12.464h-2.79c-3.15.09-4.545 1.349-5.445 5.309-.81 3.78-1.575 6.255-2.025 7.155h-5.669c.585-1.17 1.394-4.68 2.385-8.459.719-2.926 2.024-5.04 4.229-5.85v-.135c-2.88-.99-5.535-3.645-5.535-7.56 0-2.61.946-4.725 2.61-6.12 2.071-1.71 4.995-2.43 9.36-2.43 3.195 0 6.255.27 8.37.675zm-5.49-26.1c-.54-.135-1.665-.27-3.42-.27-3.6 0-5.895 1.575-5.895 4.86 0 3.015 2.295 4.995 6.03 4.995h3.285z"/><path d="m437.829 419.478h-5.49v-12.464h-2.79c-3.15.09-4.545 1.349-5.445 5.309-.81 3.78-1.575 6.255-2.025 7.155h-5.669c.585-1.17 1.394-4.68 2.385-8.459.719-2.926 2.024-5.04 4.229-5.85v-.135c-2.88-.99-5.535-3.645-5.535-7.56 0-2.61.946-4.725 2.61-6.12 2.071-1.71 4.995-2.43 9.36-2.43 3.195 0 6.255.27 8.37.675zm-5.49-26.1c-.54-.135-1.665-.27-3.42-.27-3.6 0-5.895 1.575-5.895 4.86 0 3.015 2.295 4.995 6.03 4.995h3.285z"/><path d="m378.255 419.478v-25.694h-8.73v-4.636h22.905v4.636h-8.64v25.694z"/><path d="m378.255 419.478v-25.694h-8.73v-4.636h22.905v4.636h-8.64v25.694z"/><path d="m327.299 419.478h-5.535v-30.329h5.535v12.149h12.825v-12.149h5.534v30.329h-5.534v-13.365h-12.825z"/><path d="m327.299 419.478h-5.535v-30.329h5.535v12.149h12.825v-12.149h5.534v30.329h-5.534v-13.365h-12.825z"/><path d="m298.662 419.388c-1.845.225-4.275.405-7.47.405-5.895 0-10.71-1.395-13.725-4.14-2.879-2.61-4.724-6.615-4.724-12.059 0-5.13 1.799-8.775 4.769-11.16 2.79-2.34 6.66-3.51 12.33-3.51 3.285 0 6.345.27 8.82.63zm-5.535-25.829c-.81-.18-2.025-.315-3.78-.315-6.93 0-10.8 3.87-10.755 10.529 0 7.695 4.275 11.7 11.475 11.655 1.125 0 2.295 0 3.06-.135z"/><path d="m298.662 419.388c-1.845.225-4.275.405-7.47.405-5.895 0-10.71-1.395-13.725-4.14-2.879-2.61-4.724-6.615-4.724-12.059 0-5.13 1.799-8.775 4.769-11.16 2.79-2.34 6.66-3.51 12.33-3.51 3.285 0 6.345.27 8.82.63zm-5.535-25.829c-.81-.18-2.025-.315-3.78-.315-6.93 0-10.8 3.87-10.755 10.529 0 7.695 4.275 11.7 11.475 11.655 1.125 0 2.295 0 3.06-.135z"/><path d="m234.7 410.883-2.745 8.594h-5.984l9.854-30.328h7.065l9.72 30.328h-5.715l-2.61-8.594zm8.685-4.185-2.34-7.47c-.495-1.8-.99-3.915-1.44-5.67h-.09c-.45 1.755-.945 3.825-1.53 5.67l-2.385 7.47z"/><path d="m234.7 410.883-2.745 8.594h-5.984l9.854-30.328h7.065l9.72 30.328h-5.715l-2.61-8.594zm8.685-4.185-2.34-7.47c-.495-1.8-.99-3.915-1.44-5.67h-.09c-.45 1.755-.945 3.825-1.53 5.67l-2.385 7.47z"/><path d="m189.324 419.478v-12.779l-10.08-17.55h6.255l3.645 7.785c1.035 2.205 1.89 4.095 2.61 6.03h.09c.854-2.07 1.62-3.78 2.655-6.03l3.599-7.785h6.345l-9.584 17.684v12.645z"/><path d="m189.324 419.478v-12.779l-10.08-17.55h6.255l3.645 7.785c1.035 2.205 1.89 4.095 2.61 6.03h.09c.854-2.07 1.62-3.78 2.655-6.03l3.599-7.785h6.345l-9.584 17.684v12.645z"/><path d="m676.615 471.88c-1.845.225-4.275.405-7.47.405-5.895 0-10.709-1.396-13.725-4.14-2.879-2.61-4.724-6.615-4.724-12.06 0-5.13 1.8-8.774 4.769-11.159 2.79-2.341 6.66-3.511 12.33-3.511 3.285 0 6.345.271 8.82.63zm-5.535-25.828c-.81-.181-2.025-.315-3.78-.315-6.929 0-10.8 3.869-10.755 10.529 0 7.694 4.275 11.698 11.475 11.654 1.125 0 2.295 0 3.06-.135z"/><path d="m676.615 471.88c-1.845.225-4.275.405-7.47.405-5.895 0-10.709-1.396-13.725-4.14-2.879-2.61-4.724-6.615-4.724-12.06 0-5.13 1.8-8.774 4.769-11.159 2.79-2.341 6.66-3.511 12.33-3.511 3.285 0 6.345.271 8.82.63zm-5.535-25.828c-.81-.181-2.025-.315-3.78-.315-6.929 0-10.8 3.869-10.755 10.529 0 7.694 4.275 11.698 11.475 11.654 1.125 0 2.295 0 3.06-.135z"/><path d="m626.806 471.97h-5.49v-12.464h-2.79c-3.15.09-4.545 1.35-5.445 5.31-.81 3.779-1.575 6.255-2.025 7.154h-5.669c.585-1.17 1.394-4.68 2.385-8.459.719-2.926 2.024-5.04 4.229-5.851v-.135c-2.88-.99-5.535-3.645-5.535-7.56 0-2.609.946-4.725 2.61-6.12 2.071-1.71 4.995-2.43 9.36-2.43 3.195 0 6.255.271 8.37.675zm-5.491-26.098c-.54-.135-1.665-.27-3.42-.27-3.6 0-5.895 1.574-5.895 4.859 0 3.015 2.295 4.995 6.03 4.995h3.285z"/><path d="m626.806 471.97h-5.49v-12.464h-2.79c-3.15.09-4.545 1.35-5.445 5.31-.81 3.779-1.575 6.255-2.025 7.154h-5.669c.585-1.17 1.394-4.68 2.385-8.459.719-2.926 2.024-5.04 4.229-5.851v-.135c-2.88-.99-5.535-3.645-5.535-7.56 0-2.609.946-4.725 2.61-6.12 2.071-1.71 4.995-2.43 9.36-2.43 3.195 0 6.255.271 8.37.675zm-5.491-26.098c-.54-.135-1.665-.27-3.42-.27-3.6 0-5.895 1.574-5.895 4.859 0 3.015 2.295 4.995 6.03 4.995h3.285z"/><path d="m558.84 444.882v-3.24h21.328v4.59h-14.128v.135l15.479 22.544v3.059h-22.904v-4.59h15.524v-.134z"/><path d="m558.84 444.882v-3.24h21.328v4.59h-14.128v.135l15.479 22.544v3.059h-22.904v-4.59h15.524v-.134z"/><path d="m528.177 471.97-3.51-14.265c-.9-3.464-1.485-6.39-1.98-9.628h-.09c-.405 3.284-.945 6.164-1.71 9.628l-3.15 14.265h-5.895l-8.189-30.328h5.625l3.149 13.679c.81 3.735 1.531 7.2 2.071 10.53h.09c.449-3.285 1.125-6.66 1.844-10.26l3.016-13.949h5.804l3.285 13.725c.855 3.824 1.71 7.424 2.205 10.619h.09c.495-3.015 1.215-6.885 1.98-10.574l2.88-13.77h5.895l-7.425 30.328z"/><path d="m528.177 471.97-3.51-14.265c-.9-3.464-1.485-6.39-1.98-9.628h-.09c-.405 3.284-.945 6.164-1.71 9.628l-3.15 14.265h-5.895l-8.189-30.328h5.625l3.149 13.679c.81 3.735 1.531 7.2 2.071 10.53h.09c.449-3.285 1.125-6.66 1.844-10.26l3.016-13.949h5.804l3.285 13.725c.855 3.824 1.71 7.424 2.205 10.619h.09c.495-3.015 1.215-6.885 1.98-10.574l2.88-13.77h5.895l-7.425 30.328z"/><path d="m475.241 441.102c8.549 0 14.444 6.57 14.444 15.929 0 8.865-5.4 15.435-13.994 15.435-8.325 0-14.49-5.805-14.49-15.975 0-8.684 5.22-15.389 14.04-15.389m.18 4.455c-5.535 0-8.37 5.399-8.37 11.114 0 6.345 3.015 11.339 8.37 11.339 5.309 0 8.414-4.904 8.414-11.114 0-6.255-2.925-11.339-8.414-11.339m4.499-5.805c-1.574 0-2.654-1.261-2.654-2.7 0-1.575 1.125-2.745 2.609-2.745 1.531 0 2.701 1.215 2.701 2.745 0 1.44-1.125 2.7-2.656 2.7m-8.864 0c-1.62 0-2.7-1.261-2.7-2.7 0-1.575 1.125-2.745 2.61-2.745 1.575 0 2.7 1.215 2.7 2.745.001 1.44-1.08 2.7-2.61 2.7"/><path d="m475.241 441.102c8.549 0 14.444 6.57 14.444 15.929 0 8.865-5.4 15.435-13.994 15.435-8.325 0-14.49-5.805-14.49-15.975 0-8.684 5.22-15.389 14.04-15.389zm.18 4.455c-5.535 0-8.37 5.399-8.37 11.114 0 6.345 3.015 11.339 8.37 11.339 5.309 0 8.414-4.904 8.414-11.114 0-6.255-2.925-11.339-8.414-11.339zm4.499-5.805c-1.574 0-2.654-1.261-2.654-2.7 0-1.575 1.125-2.745 2.609-2.745 1.531 0 2.701 1.215 2.701 2.745 0 1.44-1.125 2.7-2.656 2.7zm-8.864 0c-1.62 0-2.7-1.261-2.7-2.7 0-1.575 1.125-2.745 2.61-2.745 1.575 0 2.7 1.215 2.7 2.745.001 1.44-1.08 2.7-2.61 2.7z"/><path d="m436.119 441.642v30.328h-18v-4.635h12.465v-25.693z"/><path d="m436.119 441.642v30.328h-18v-4.635h12.465v-25.693z"/><path d="m371.686 446.186v-4.544h17.548v30.328h-5.534v-12.914h-11.159v-4.5h11.159v-8.37z"/><path d="m371.686 446.186v-4.544h17.548v30.328h-5.534v-12.914h-11.159v-4.5h11.159v-8.37z"/><path d="m345.568 441.642v17.369c0 9.539-4.545 13.454-11.564 13.454-7.29 0-12.105-4.14-12.105-13.499v-17.324h5.535v17.684c0 5.94 2.385 8.685 6.39 8.685 3.735 0 6.21-2.744 6.21-8.685v-17.684zm-7.559-1.89c-1.575 0-2.655-1.261-2.655-2.7 0-1.575 1.125-2.745 2.61-2.745 1.53 0 2.7 1.215 2.7 2.745 0 1.44-1.125 2.7-2.655 2.7m-8.865 0c-1.62 0-2.7-1.261-2.7-2.7 0-1.575 1.125-2.745 2.61-2.745 1.575 0 2.7 1.215 2.7 2.745 0 1.44-1.08 2.7-2.61 2.7"/><path d="m345.568 441.642v17.369c0 9.539-4.545 13.454-11.564 13.454-7.29 0-12.105-4.14-12.105-13.499v-17.324h5.535v17.684c0 5.94 2.385 8.685 6.39 8.685 3.735 0 6.21-2.744 6.21-8.685v-17.684zm-7.559-1.89c-1.575 0-2.655-1.261-2.655-2.7 0-1.575 1.125-2.745 2.61-2.745 1.53 0 2.7 1.215 2.7 2.745 0 1.44-1.125 2.7-2.655 2.7zm-8.865 0c-1.62 0-2.7-1.261-2.7-2.7 0-1.575 1.125-2.745 2.61-2.745 1.575 0 2.7 1.215 2.7 2.745 0 1.44-1.08 2.7-2.61 2.7z"/><path d="m293.419 471.97v-10.845c0-4.994.09-8.999.315-12.914l-.18-.045c-1.485 3.42-3.465 7.109-5.4 10.439l-7.92 13.364h-5.759v-30.328h5.13v10.574c0 4.635-.09 8.55-.495 12.6h.09c1.395-3.285 3.195-6.795 5.175-10.17l7.829-13.004h6.345v30.328h-5.13z"/><path d="m293.419 471.97v-10.845c0-4.994.09-8.999.315-12.914l-.18-.045c-1.485 3.42-3.465 7.109-5.4 10.439l-7.92 13.364h-5.759v-30.328h5.13v10.574c0 4.635-.09 8.55-.495 12.6h.09c1.395-3.285 3.195-6.795 5.175-10.17l7.829-13.004h6.345v30.328h-5.13z"/><path d="m229.953 446.186v-4.544h17.549v30.328h-5.535v-12.914h-11.159v-4.5h11.159v-8.37z"/><path d="m229.953 446.186v-4.544h17.549v30.328h-5.535v-12.914h-11.159v-4.5h11.159v-8.37z"/><path d="m179.537 471.97 9.225-15.524-8.865-14.804h6.345l3.24 6.254c.945 1.846 1.575 3.195 2.385 5.085h.135c.765-1.71 1.485-3.194 2.474-5.085l3.286-6.254h6.389l-8.684 14.984 8.999 15.344h-6.345l-3.015-6.029c-1.214-2.34-2.025-3.96-2.744-5.715h-.09c-.901 1.755-1.755 3.375-3.06 5.715l-3.24 6.029z"/><path d="m179.537 471.97 9.225-15.524-8.865-14.804h6.345l3.24 6.254c.945 1.846 1.575 3.195 2.385 5.085h.135c.765-1.71 1.485-3.194 2.474-5.085l3.286-6.254h6.389l-8.684 14.984 8.999 15.344h-6.345l-3.015-6.029c-1.214-2.34-2.025-3.96-2.744-5.715h-.09c-.901 1.755-1.755 3.375-3.06 5.715l-3.24 6.029z"/><path d="m653.328 497.374v-3.241h21.329v4.59h-14.129v.136l15.479 22.544v3.059h-22.904v-4.589h15.524v-.135z"/><path d="m653.328 497.374v-3.241h21.329v4.59h-14.129v.136l15.479 22.544v3.059h-22.904v-4.589h15.524v-.135z"/><path d="m625.59 494.133v30.329h-18.314v-4.545h12.78v-8.91h-11.43v-4.499h11.43v-7.83h-12.105v-4.545z"/><path d="m625.59 494.133v30.329h-18.314v-4.545h12.78v-8.91h-11.43v-4.499h11.43v-7.83h-12.105v-4.545z"/><path d="m563.52 524.462h-5.535v-30.329h5.535v12.15h12.824v-12.15h5.535v30.329h-5.535v-13.364h-12.824z"/><path d="m563.52 524.462h-5.535v-30.329h5.535v12.15h12.824v-12.15h5.535v30.329h-5.535v-13.364h-12.824z"/><path d="m529.64 524.462v-10.845c0-4.995.09-9 .315-12.914l-.18-.046c-1.485 3.42-3.465 7.11-5.4 10.44l-7.92 13.364h-5.759v-30.329h5.129v10.574c0 4.636-.089 8.55-.494 12.601h.09c1.395-3.285 3.195-6.795 5.175-10.17l7.829-13.005h6.345v30.329h-5.13z"/><path d="m529.64 524.462v-10.845c0-4.995.09-9 .315-12.914l-.18-.046c-1.485 3.42-3.465 7.11-5.4 10.44l-7.92 13.364h-5.759v-30.329h5.129v10.574c0 4.636-.089 8.55-.494 12.601h.09c1.395-3.285 3.195-6.795 5.175-10.17l7.829-13.005h6.345v30.329h-5.13z"/><path d="m483.858 494.133v30.329h-18.314v-4.545h12.78v-8.91h-11.43v-4.499h11.43v-7.83h-12.105v-4.545z"/><path d="m483.858 494.133v30.329h-18.314v-4.545h12.78v-8.91h-11.43v-4.499h11.43v-7.83h-12.105v-4.545z"/><path d="m440.056 494.133v17.369c0 9.54-4.545 13.455-11.565 13.455-7.289 0-12.104-4.14-12.104-13.5v-17.324h5.535v17.685c0 5.939 2.384 8.685 6.389 8.685 3.735 0 6.21-2.745 6.21-8.685v-17.685z"/><path d="m440.056 494.133v17.369c0 9.54-4.545 13.455-11.565 13.455-7.289 0-12.104-4.14-12.104-13.5v-17.324h5.535v17.685c0 5.939 2.384 8.685 6.389 8.685 3.735 0 6.21-2.745 6.21-8.685v-17.685z"/><path d="m387.907 524.462v-10.845c0-4.995.09-9 .315-12.914l-.18-.046c-1.485 3.42-3.465 7.11-5.4 10.44l-7.92 13.364h-5.759v-30.329h5.129v10.574c0 4.636-.089 8.55-.494 12.601h.09c1.395-3.285 3.195-6.795 5.174-10.17l7.83-13.005h6.345v30.329h-5.13z"/><path d="m387.907 524.462v-10.845c0-4.995.09-9 .315-12.914l-.18-.046c-1.485 3.42-3.465 7.11-5.4 10.44l-7.92 13.364h-5.759v-30.329h5.129v10.574c0 4.636-.089 8.55-.494 12.601h.09c1.395-3.285 3.195-6.795 5.174-10.17l7.83-13.005h6.345v30.329h-5.13z"/><path d="m345.906 524.373c-1.845.225-4.275.405-7.47.405-5.894 0-10.71-1.396-13.725-4.141-2.88-2.609-4.724-6.614-4.724-12.06 0-5.13 1.8-8.774 4.769-11.159 2.79-2.34 6.661-3.51 12.33-3.51 3.285 0 6.345.27 8.82.63zm-5.535-25.83c-.81-.181-2.025-.314-3.78-.314-6.929 0-10.799 3.869-10.755 10.528 0 7.695 4.275 11.7 11.475 11.655 1.125 0 2.295 0 3.06-.135z"/><path d="m345.906 524.373c-1.845.225-4.275.405-7.47.405-5.894 0-10.71-1.396-13.725-4.141-2.88-2.609-4.724-6.614-4.724-12.06 0-5.13 1.8-8.774 4.769-11.159 2.79-2.34 6.661-3.51 12.33-3.51 3.285 0 6.345.27 8.82.63zm-5.535-25.83c-.81-.181-2.025-.314-3.78-.314-6.929 0-10.799 3.869-10.755 10.528 0 7.695 4.275 11.7 11.475 11.655 1.125 0 2.295 0 3.06-.135z"/><path d="m296.097 524.462h-5.49v-12.465h-2.79c-3.15.09-4.545 1.35-5.445 5.311-.81 3.779-1.575 6.254-2.025 7.154h-5.669c.585-1.17 1.394-4.68 2.385-8.46.719-2.925 2.024-5.04 4.229-5.85v-.135c-2.88-.99-5.535-3.646-5.535-7.56 0-2.61.946-4.726 2.61-6.12 2.071-1.71 4.995-2.43 9.36-2.43 3.195 0 6.255.27 8.37.675zm-5.491-26.099c-.54-.135-1.665-.27-3.42-.27-3.6 0-5.895 1.575-5.895 4.859 0 3.016 2.295 4.995 6.03 4.995h3.285z"/><path d="m296.097 524.462h-5.49v-12.465h-2.79c-3.15.09-4.545 1.35-5.445 5.311-.81 3.779-1.575 6.254-2.025 7.154h-5.669c.585-1.17 1.394-4.68 2.385-8.46.719-2.925 2.024-5.04 4.229-5.85v-.135c-2.88-.99-5.535-3.646-5.535-7.56 0-2.61.946-4.726 2.61-6.12 2.071-1.71 4.995-2.43 9.36-2.43 3.195 0 6.255.27 8.37.675zm-5.491-26.099c-.54-.135-1.665-.27-3.42-.27-3.6 0-5.895 1.575-5.895 4.859 0 3.016 2.295 4.995 6.03 4.995h3.285z"/><path d="m247.637 494.133v30.329h-18.314v-4.545h12.78v-8.91h-11.43v-4.499h11.43v-7.83h-12.105v-4.545z"/><path d="m247.637 494.133v30.329h-18.314v-4.545h12.78v-8.91h-11.43v-4.499h11.43v-7.83h-12.105v-4.545z"/></g><path d="m248.539442503 382.929594009h7.379112555v40.433803917h-7.379112555z"/><path d="m248.539442503 382.929594009h7.379112555v40.433803917h-7.379112555z"/><path d="m653.328 549.868v-3.241h21.329v4.59h-14.129v.137l15.479 22.543v3.06h-22.904v-4.59h15.524v-.135z" transform="matrix(1.333173 0 0 1.333173 -3.711554 -275.83518)"/><path d="m653.328 549.868v-3.241h21.329v4.59h-14.129v.137l15.479 22.543v3.06h-22.904v-4.59h15.524v-.135z" transform="matrix(1.333173 0 0 1.333173 -3.711554 -275.83518)"/><path d="m622.666 576.957-3.51-14.265c-.9-3.464-1.485-6.39-1.98-9.628h-.09c-.405 3.283-.945 6.164-1.71 9.628l-3.149 14.265h-5.895l-8.19-30.329h5.625l3.15 13.68c.81 3.735 1.53 7.2 2.07 10.529h.09c.449-3.284 1.125-6.659 1.844-10.259l3.016-13.95h5.804l3.285 13.726c.855 3.824 1.71 7.424 2.205 10.619h.09c.495-3.016 1.215-6.885 1.98-10.575l2.88-13.77h5.895l-7.425 30.329z" transform="matrix(1.333173 0 0 1.333173 -3.711554 -275.83518)"/><path d="m622.666 576.957-3.51-14.265c-.9-3.464-1.485-6.39-1.98-9.628h-.09c-.405 3.283-.945 6.164-1.71 9.628l-3.149 14.265h-5.895l-8.19-30.329h5.625l3.15 13.68c.81 3.735 1.53 7.2 2.07 10.529h.09c.449-3.284 1.125-6.659 1.844-10.259l3.016-13.95h5.804l3.285 13.726c.855 3.824 1.71 7.424 2.205 10.619h.09c.495-3.016 1.215-6.885 1.98-10.575l2.88-13.77h5.895l-7.425 30.329z" transform="matrix(1.333173 0 0 1.333173 -3.711554 -275.83518)"/><path d="m578.346 546.627v30.33h-18.314v-4.545h12.78v-8.91h-11.43v-4.5h11.43v-7.83h-12.105v-4.545z" transform="matrix(1.333173 0 0 1.333173 -3.711554 -275.83518)"/><path d="m578.346 546.627v30.33h-18.314v-4.545h12.78v-8.91h-11.43v-4.5h11.43v-7.83h-12.105v-4.545z" transform="matrix(1.333173 0 0 1.333173 -3.711554 -275.83518)"/><path d="m689.43172549654 452.91449731227h7.379112555v40.43246941083h-7.379112555z"/><path d="m689.43172549654 452.91449731227h7.379112555v40.43246941083h-7.379112555z"/><path d="m482.396 576.957v-10.845c0-4.994.09-8.999.315-12.914l-.18-.045c-1.485 3.42-3.465 7.109-5.4 10.439l-7.92 13.364h-5.759v-30.329h5.13v10.575c0 4.635-.09 8.55-.495 12.6h.09c1.395-3.285 3.195-6.795 5.175-10.17l7.829-13.005h6.345v30.329h-5.13z" transform="matrix(1.333173 0 0 1.333173 -3.711554 -275.83518)"/><path d="m482.396 576.957v-10.845c0-4.994.09-8.999.315-12.914l-.18-.045c-1.485 3.42-3.465 7.109-5.4 10.439l-7.92 13.364h-5.759v-30.329h5.13v10.575c0 4.635-.09 8.55-.495 12.6h.09c1.395-3.285 3.195-6.795 5.175-10.17l7.829-13.005h6.345v30.329h-5.13z" transform="matrix(1.333173 0 0 1.333173 -3.711554 -275.83518)"/><path d="m438.054 575.516c-1.665 1.035-4.995 1.937-8.235 1.937-7.785 0-11.475-4.23-11.475-9.136 0-4.364 2.521-7.02 7.785-9 4.05-1.573 5.805-2.653 5.805-4.994 0-1.8-1.485-3.646-4.995-3.646-2.835 0-4.949.855-6.074 1.441l-1.306-4.455c1.576-.811 3.96-1.531 7.245-1.531 6.615 0 10.755 3.736 10.755 8.73 0 4.364-3.195 7.02-8.235 8.819-3.825 1.396-5.355 2.745-5.355 5.04 0 2.475 1.981 4.14 5.49 4.14 2.835 0 5.58-.9 7.335-1.935z" transform="matrix(1.333173 0 0 1.333173 -3.711554 -275.83518)"/><path d="m438.054 575.516c-1.665 1.035-4.995 1.937-8.235 1.937-7.785 0-11.475-4.23-11.475-9.136 0-4.364 2.521-7.02 7.785-9 4.05-1.573 5.805-2.653 5.805-4.994 0-1.8-1.485-3.646-4.995-3.646-2.835 0-4.949.855-6.074 1.441l-1.306-4.455c1.576-.811 3.96-1.531 7.245-1.531 6.615 0 10.755 3.736 10.755 8.73 0 4.364-3.195 7.02-8.235 8.819-3.825 1.396-5.355 2.745-5.355 5.04 0 2.475 1.981 4.14 5.49 4.14 2.835 0 5.58-.9 7.335-1.935z" transform="matrix(1.333173 0 0 1.333173 -3.711554 -275.83518)"/><path d="m500.47715668273 452.91449731227h7.379112555v40.43246941083h-7.379112555z"/><path d="m500.47715668273 452.91449731227h7.379112555v40.43246941083h-7.379112555z"/><path d="m342.125 546.627v30.33h-18.313v-4.545h12.779v-8.91h-11.43v-4.5h11.43v-7.83h-12.105v-4.545z" transform="matrix(1.333173 0 0 1.333173 -3.711554 -275.83518)"/><path d="m342.125 546.627v30.33h-18.313v-4.545h12.779v-8.91h-11.43v-4.5h11.43v-7.83h-12.105v-4.545z" transform="matrix(1.333173 0 0 1.333173 -3.711554 -275.83518)"/><path d="m296.254 576.867c-1.44.18-3.735.405-6.795.405-5.58 0-9.134-.944-11.295-2.79-1.71-1.485-2.879-3.601-2.879-6.3 0-4.14 2.924-6.66 6.119-7.47v-.135c-3.285-1.216-5.039-3.735-5.039-6.525 0-2.609 1.259-4.59 3.149-5.715 2.025-1.395 4.59-1.935 8.64-1.935 3.15 0 6.345.314 8.1.675zm-5.49-26.145c-.585-.135-1.53-.225-3.15-.225-3.51 0-5.67 1.305-5.67 4.185 0 2.565 2.115 4.365 5.985 4.365h2.835zm0 12.33h-2.745c-3.825 0-6.93 1.439-6.93 4.995 0 3.733 3.195 5.039 6.75 5.039 1.26 0 2.205 0 2.925-.134z" transform="matrix(1.333173 0 0 1.333173 -3.711554 -275.83518)"/><path d="m296.254 576.867c-1.44.18-3.735.405-6.795.405-5.58 0-9.134-.944-11.295-2.79-1.71-1.485-2.879-3.601-2.879-6.3 0-4.14 2.924-6.66 6.119-7.47v-.135c-3.285-1.216-5.039-3.735-5.039-6.525 0-2.609 1.259-4.59 3.149-5.715 2.025-1.395 4.59-1.935 8.64-1.935 3.15 0 6.345.314 8.1.675zm-5.49-26.145c-.585-.135-1.53-.225-3.15-.225-3.51 0-5.67 1.305-5.67 4.185 0 2.565 2.115 4.365 5.985 4.365h2.835zm0 12.33h-2.745c-3.825 0-6.93 1.439-6.93 4.995 0 3.733 3.195 5.039 6.75 5.039 1.26 0 2.205 0 2.925-.134z" transform="matrix(1.333173 0 0 1.333173 -3.711554 -275.83518)"/><path d="m247.637 546.627v30.33h-18.314v-4.545h12.78v-8.91h-11.43v-4.5h11.43v-7.83h-12.105v-4.545z" transform="matrix(1.333173 0 0 1.333173 -3.711554 -275.83518)"/><path d="m247.637 546.627v30.33h-18.314v-4.545h12.78v-8.91h-11.43v-4.5h11.43v-7.83h-12.105v-4.545z" transform="matrix(1.333173 0 0 1.333173 -3.711554 -275.83518)"/><path d="m198.931 576.957v-10.845c0-4.994.09-8.999.315-12.914l-.18-.045c-1.485 3.42-3.465 7.109-5.4 10.439l-7.92 13.364h-5.759v-30.329h5.13v10.575c0 4.635-.09 8.55-.495 12.6h.09c1.395-3.285 3.195-6.795 5.175-10.17l7.829-13.005h6.345v30.329h-5.13z" transform="matrix(1.333173 0 0 1.333173 -3.711554 -275.83518)"/><path d="m198.931 576.957v-10.845c0-4.994.09-8.999.315-12.914l-.18-.045c-1.485 3.42-3.465 7.109-5.4 10.439l-7.92 13.364h-5.759v-30.329h5.13v10.575c0 4.635-.09 8.55-.495 12.6h.09c1.395-3.285 3.195-6.795 5.175-10.17l7.829-13.005h6.345v30.329h-5.13z" transform="matrix(1.333173 0 0 1.333173 -3.711554 -275.83518)"/><path d="m672.834 599.12v30.329h-18.314v-4.545h12.78v-8.909h-11.43v-4.5h11.43v-7.83h-12.105v-4.545z" transform="matrix(1.333173 0 0 1.333173 -3.711554 -275.83518)"/><path d="m672.834 599.12v30.329h-18.314v-4.545h12.78v-8.909h-11.43v-4.5h11.43v-7.83h-12.105v-4.545z" transform="matrix(1.333173 0 0 1.333173 -3.711554 -275.83518)"/><path d="m625.095 599.12v30.329h-18v-4.635h12.466v-25.694z" transform="matrix(1.333173 0 0 1.333173 -3.711554 -275.83518)"/><path d="m625.095 599.12v30.329h-18v-4.635h12.466v-25.694z" transform="matrix(1.333173 0 0 1.333173 -3.711554 -275.83518)"/><path d="m560.662 603.665v-4.545h17.549v30.329h-5.535v-12.914h-11.159v-4.5h11.159v-8.37z" transform="matrix(1.333173 0 0 1.333173 -3.711554 -275.83518)"/><path d="m560.662 603.665v-4.545h17.549v30.329h-5.535v-12.914h-11.159v-4.5h11.159v-8.37z" transform="matrix(1.333173 0 0 1.333173 -3.711554 -275.83518)"/><path d="m519.763 629.449-10.485-30.329h5.895l4.41 13.859c1.17 3.69 2.295 7.38 3.105 10.979h.09c.765-3.689 1.8-7.199 2.97-11.024l4.14-13.814h6.029l-9.809 30.329z" transform="matrix(1.333173 0 0 1.333173 -3.711554 -275.83518)"/><path d="m519.763 629.449-10.485-30.329h5.895l4.41 13.859c1.17 3.69 2.295 7.38 3.105 10.979h.09c.765-3.689 1.8-7.199 2.97-11.024l4.14-13.814h6.029l-9.809 30.329z" transform="matrix(1.333173 0 0 1.333173 -3.711554 -275.83518)"/><path d="m626.44731361627 522.89542776h7.379112555v40.433803917h-7.379112555z"/><path d="m626.44731361627 522.89542776h7.379112555v40.433803917h-7.379112555z"/><path d="m436.614 599.12v30.329h-18.314v-4.545h12.78v-8.909h-11.431v-4.5h11.431v-7.83h-12.105v-4.545z" transform="matrix(1.333173 0 0 1.333173 -3.711554 -275.83518)"/><path d="m436.614 599.12v30.329h-18.314v-4.545h12.78v-8.909h-11.431v-4.5h11.431v-7.83h-12.105v-4.545z" transform="matrix(1.333173 0 0 1.333173 -3.711554 -275.83518)"/><path d="m390.585 629.449h-5.49v-12.465h-2.79c-3.15.091-4.545 1.351-5.445 5.311-.81 3.779-1.575 6.254-2.025 7.154h-5.669c.585-1.17 1.394-4.68 2.385-8.46.719-2.925 2.024-5.039 4.229-5.85v-.135c-2.88-.99-5.535-3.645-5.535-7.56 0-2.61.946-4.725 2.61-6.12 2.071-1.71 4.995-2.43 9.36-2.43 3.195 0 6.255.27 8.37.675zm-5.49-26.099c-.54-.136-1.665-.271-3.42-.271-3.6 0-5.895 1.575-5.895 4.86 0 3.015 2.295 4.994 6.03 4.994h3.285z" transform="matrix(1.333173 0 0 1.333173 -3.711554 -275.83518)"/><path d="m390.585 629.449h-5.49v-12.465h-2.79c-3.15.091-4.545 1.351-5.445 5.311-.81 3.779-1.575 6.254-2.025 7.154h-5.669c.585-1.17 1.394-4.68 2.385-8.46.719-2.925 2.024-5.039 4.229-5.85v-.135c-2.88-.99-5.535-3.645-5.535-7.56 0-2.61.946-4.725 2.61-6.12 2.071-1.71 4.995-2.43 9.36-2.43 3.195 0 6.255.27 8.37.675zm-5.49-26.099c-.54-.136-1.665-.271-3.42-.271-3.6 0-5.895 1.575-5.895 4.86 0 3.015 2.295 4.994 6.03 4.994h3.285z" transform="matrix(1.333173 0 0 1.333173 -3.711554 -275.83518)"/><path d="m329.188 620.854-2.745 8.595h-5.985l9.855-30.329h7.065l9.72 30.329h-5.715l-2.61-8.595zm8.685-4.185-2.34-7.47c-.495-1.8-.99-3.915-1.44-5.67h-.09c-.45 1.755-.945 3.825-1.53 5.67l-2.385 7.47z" transform="matrix(1.333173 0 0 1.333173 -3.711554 -275.83518)"/><path d="m329.188 620.854-2.745 8.595h-5.985l9.855-30.329h7.065l9.72 30.329h-5.715l-2.61-8.595zm8.685-4.185-2.34-7.47c-.495-1.8-.99-3.915-1.44-5.67h-.09c-.45 1.755-.945 3.825-1.53 5.67l-2.385 7.47z" transform="matrix(1.333173 0 0 1.333173 -3.711554 -275.83518)"/><path d="m275.69 624.229c1.485.63 3.825 1.08 6.029 1.08 6.705 0 10.575-4.23 10.575-10.935 0-7.29-4.455-11.16-10.62-11.16-2.474 0-4.499.54-5.939 1.17l-1.17-4.409c1.125-.585 3.689-1.351 7.334-1.351 9.27 0 16.245 6.03 16.245 16.02 0 9.27-5.85 15.3-15.479 15.3-3.69 0-6.57-.72-7.875-1.35z" transform="matrix(1.333173 0 0 1.333173 -3.711554 -275.83518)"/><path d="m275.69 624.229c1.485.63 3.825 1.08 6.029 1.08 6.705 0 10.575-4.23 10.575-10.935 0-7.29-4.455-11.16-10.62-11.16-2.474 0-4.499.54-5.939 1.17l-1.17-4.409c1.125-.585 3.689-1.351 7.334-1.351 9.27 0 16.245 6.03 16.245 16.02 0 9.27-5.85 15.3-15.479 15.3-3.69 0-6.57-.72-7.875-1.35z" transform="matrix(1.333173 0 0 1.333173 -3.711554 -275.83518)"/><path d="m232.811 629.449h-5.535v-30.329h5.535v12.149h12.824v-12.149h5.535v30.329h-5.535v-13.365h-12.824z" transform="matrix(1.333173 0 0 1.333173 -3.711554 -275.83518)"/><path d="m232.811 629.449h-5.535v-30.329h5.535v12.149h12.824v-12.149h5.535v30.329h-5.535v-13.365h-12.824z" transform="matrix(1.333173 0 0 1.333173 -3.711554 -275.83518)"/><path d="m189.279 629.449v-25.695h-8.73v-4.634h22.905v4.634h-8.64v25.695z" transform="matrix(1.333173 0 0 1.333173 -3.711554 -275.83518)"/><path d="m189.279 629.449v-25.695h-8.73v-4.634h22.905v4.634h-8.64v25.695z" transform="matrix(1.333173 0 0 1.333173 -3.711554 -275.83518)"/><path d="m674.274 680.502c-1.665 1.035-4.995 1.936-8.235 1.936-7.785 0-11.475-4.229-11.475-9.135 0-4.365 2.52-7.02 7.785-9 4.05-1.574 5.805-2.655 5.805-4.994 0-1.8-1.485-3.646-4.995-3.646-2.835 0-4.95.855-6.075 1.44l-1.305-4.456c1.575-.809 3.96-1.529 7.245-1.529 6.615 0 10.755 3.735 10.755 8.73 0 4.364-3.195 7.02-8.235 8.819-3.825 1.395-5.355 2.745-5.355 5.04 0 2.475 1.98 4.14 5.49 4.14 2.835 0 5.58-.9 7.335-1.935z" transform="matrix(1.333173 0 0 1.333173 -3.711554 -275.83518)"/><path d="m674.274 680.502c-1.665 1.035-4.995 1.936-8.235 1.936-7.785 0-11.475-4.229-11.475-9.135 0-4.365 2.52-7.02 7.785-9 4.05-1.574 5.805-2.655 5.805-4.994 0-1.8-1.485-3.646-4.995-3.646-2.835 0-4.95.855-6.075 1.44l-1.305-4.456c1.575-.809 3.96-1.529 7.245-1.529 6.615 0 10.755 3.735 10.755 8.73 0 4.364-3.195 7.02-8.235 8.819-3.825 1.395-5.355 2.745-5.355 5.04 0 2.475 1.98 4.14 5.49 4.14 2.835 0 5.58-.9 7.335-1.935z" transform="matrix(1.333173 0 0 1.333173 -3.711554 -275.83518)"/><path d="m625.59 651.614v30.329h-18.314v-4.545h12.78v-8.909h-11.43v-4.5h11.43v-7.83h-12.105v-4.545z" transform="matrix(1.333173 0 0 1.333173 -3.711554 -275.83518)"/><path d="m625.59 651.614v30.329h-18.314v-4.545h12.78v-8.909h-11.43v-4.5h11.43v-7.83h-12.105v-4.545z" transform="matrix(1.333173 0 0 1.333173 -3.711554 -275.83518)"/><path d="m559.155 676.723c1.485.63 3.825 1.08 6.029 1.08 6.705 0 10.575-4.23 10.575-10.935 0-7.29-4.455-11.16-10.62-11.16-2.474 0-4.499.54-5.939 1.17l-1.17-4.409c1.125-.585 3.69-1.351 7.335-1.351 9.269 0 16.244 6.03 16.244 16.02 0 9.27-5.85 15.3-15.479 15.3-3.69 0-6.57-.72-7.875-1.35z" transform="matrix(1.333173 0 0 1.333173 -3.711554 -275.83518)"/><path d="m559.155 676.723c1.485.63 3.825 1.08 6.029 1.08 6.705 0 10.575-4.23 10.575-10.935 0-7.29-4.455-11.16-10.62-11.16-2.474 0-4.499.54-5.939 1.17l-1.17-4.409c1.125-.585 3.69-1.351 7.335-1.351 9.269 0 16.244 6.03 16.244 16.02 0 9.27-5.85 15.3-15.479 15.3-3.69 0-6.57-.72-7.875-1.35z" transform="matrix(1.333173 0 0 1.333173 -3.711554 -275.83518)"/><path d="m516.276 681.943h-5.535v-30.329h5.535v12.149h12.824v-12.149h5.535v30.329h-5.535v-13.364h-12.824z" transform="matrix(1.333173 0 0 1.333173 -3.711554 -275.83518)"/><path d="m516.276 681.943h-5.535v-30.329h5.535v12.149h12.824v-12.149h5.535v30.329h-5.535v-13.364h-12.824z" transform="matrix(1.333173 0 0 1.333173 -3.711554 -275.83518)"/><path d="m485.298 680.502c-1.665 1.035-4.995 1.936-8.235 1.936-7.785 0-11.475-4.229-11.475-9.135 0-4.365 2.52-7.02 7.785-9 4.05-1.574 5.805-2.655 5.805-4.994 0-1.8-1.485-3.646-4.995-3.646-2.835 0-4.95.855-6.075 1.44l-1.305-4.456c1.576-.809 3.96-1.529 7.245-1.529 6.615 0 10.755 3.735 10.755 8.73 0 4.364-3.195 7.02-8.235 8.819-3.825 1.395-5.355 2.745-5.355 5.04 0 2.475 1.981 4.14 5.49 4.14 2.835 0 5.58-.9 7.335-1.935z" transform="matrix(1.333173 0 0 1.333173 -3.711554 -275.83518)"/><path d="m485.298 680.502c-1.665 1.035-4.995 1.936-8.235 1.936-7.785 0-11.475-4.229-11.475-9.135 0-4.365 2.52-7.02 7.785-9 4.05-1.574 5.805-2.655 5.805-4.994 0-1.8-1.485-3.646-4.995-3.646-2.835 0-4.95.855-6.075 1.44l-1.305-4.456c1.576-.809 3.96-1.529 7.245-1.529 6.615 0 10.755 3.735 10.755 8.73 0 4.364-3.195 7.02-8.235 8.819-3.825 1.395-5.355 2.745-5.355 5.04 0 2.475 1.981 4.14 5.49 4.14 2.835 0 5.58-.9 7.335-1.935z" transform="matrix(1.333173 0 0 1.333173 -3.711554 -275.83518)"/><path d="m563.461568563 592.87902455373h7.379112555v40.433803917h-7.379112555z"/><path d="m563.461568563 592.87902455373h7.379112555v40.433803917h-7.379112555z"/><path d="m392.812 651.614v17.369c0 9.54-4.545 13.455-11.564 13.455-7.29 0-12.105-4.141-12.105-13.5v-17.324h5.535v17.684c0 5.94 2.384 8.686 6.389 8.686 3.735 0 6.21-2.745 6.21-8.686v-17.684z" transform="matrix(1.333173 0 0 1.333173 -3.711554 -275.83518)"/><path d="m392.812 651.614v17.369c0 9.54-4.545 13.455-11.564 13.455-7.29 0-12.105-4.141-12.105-13.5v-17.324h5.535v17.684c0 5.94 2.384 8.686 6.389 8.686 3.735 0 6.21-2.745 6.21-8.686v-17.684z" transform="matrix(1.333173 0 0 1.333173 -3.711554 -275.83518)"/><path d="m327.299 681.943h-5.535v-30.329h5.535v12.149h12.825v-12.149h5.534v30.329h-5.534v-13.364h-12.825z" transform="matrix(1.333173 0 0 1.333173 -3.711554 -275.83518)"/><path d="m327.299 681.943h-5.535v-30.329h5.535v12.149h12.825v-12.149h5.534v30.329h-5.534v-13.364h-12.825z" transform="matrix(1.333173 0 0 1.333173 -3.711554 -275.83518)"/><path d="m296.097 681.943h-5.49v-12.465h-2.79c-3.15.091-4.545 1.351-5.445 5.311-.81 3.779-1.575 6.254-2.025 7.154h-5.669c.585-1.17 1.394-4.68 2.385-8.46.719-2.925 2.024-5.039 4.229-5.85v-.135c-2.88-.99-5.535-3.645-5.535-7.56 0-2.61.946-4.725 2.61-6.12 2.071-1.71 4.995-2.43 9.36-2.43 3.195 0 6.255.27 8.37.675zm-5.491-26.099c-.54-.136-1.665-.27-3.42-.27-3.6 0-5.895 1.574-5.895 4.859 0 3.016 2.295 4.994 6.03 4.994h3.285z" transform="matrix(1.333173 0 0 1.333173 -3.711554 -275.83518)"/><path d="m296.097 681.943h-5.49v-12.465h-2.79c-3.15.091-4.545 1.351-5.445 5.311-.81 3.779-1.575 6.254-2.025 7.154h-5.669c.585-1.17 1.394-4.68 2.385-8.46.719-2.925 2.024-5.039 4.229-5.85v-.135c-2.88-.99-5.535-3.645-5.535-7.56 0-2.61.946-4.725 2.61-6.12 2.071-1.71 4.995-2.43 9.36-2.43 3.195 0 6.255.27 8.37.675zm-5.491-26.099c-.54-.136-1.665-.27-3.42-.27-3.6 0-5.895 1.574-5.895 4.859 0 3.016 2.295 4.994 6.03 4.994h3.285z" transform="matrix(1.333173 0 0 1.333173 -3.711554 -275.83518)"/><path d="m236.568 681.943v-12.779l-10.08-17.55h6.255l3.645 7.785c1.035 2.205 1.89 4.095 2.61 6.029h.09c.855-2.069 1.62-3.779 2.655-6.029l3.599-7.785h6.345l-9.584 17.685v12.645h-5.535z" transform="matrix(1.333173 0 0 1.333173 -3.711554 -275.83518)"/><path d="m236.568 681.943v-12.779l-10.08-17.55h6.255l3.645 7.785c1.035 2.205 1.89 4.095 2.61 6.029h.09c.855-2.069 1.62-3.779 2.655-6.029l3.599-7.785h6.345l-9.584 17.685v12.645h-5.535z" transform="matrix(1.333173 0 0 1.333173 -3.711554 -275.83518)"/><path d="m200.393 651.614v30.329h-18.314v-4.545h12.78v-8.909h-11.43v-4.5h11.43v-7.83h-12.105v-4.545z" transform="matrix(1.333173 0 0 1.333173 -3.711554 -275.83518)"/><path d="m200.393 651.614v30.329h-18.314v-4.545h12.78v-8.909h-11.43v-4.5h11.43v-7.83h-12.105v-4.545z" transform="matrix(1.333173 0 0 1.333173 -3.711554 -275.83518)"/><path d="m615.54462482227 33.10365230427h-13.721016516"/><path d="m615.54462482227 33.10365230427h-13.721016516"/></g></svg>