<svg height="1700.79" viewBox="0 0 2834.65 1700.79" width="2834.65" xmlns="http://www.w3.org/2000/svg" xmlns:xlink="http://www.w3.org/1999/xlink"><clipPath id="a"><path d="m0 .003h2834.646v1700.787h-2834.646z"/></clipPath><g fill="none" stroke-miterlimit="10" stroke-width=".236224"><path clip-path="url(#a)" d="m94.964 86.465c0 4.696-3.807 8.504-8.504 8.504h-25.512c-4.697 0-8.504-3.808-8.504-8.504v-25.512c0-4.696 3.807-8.504 8.504-8.504h25.512c4.697 0 8.504 3.808 8.504 8.504z" stroke="#0f0" stroke-linecap="round" stroke-linejoin="round" transform="matrix(1.3328879 0 0 1.3328879 .159553 -.462716)"/><path clip-path="url(#a)" d="m96.964 135.468c0 4.696-3.807 8.504-8.504 8.504h-25.511c-4.697 0-8.504-3.808-8.504-8.504v-25.512c0-4.696 3.807-8.504 8.504-8.504h25.511c4.697 0 8.504 3.808 8.504 8.504z" stroke="#f00" transform="matrix(1.3328879 0 0 1.3328879 .159553 -.462716)"/><path clip-path="url(#a)" d="m661.893 86.465c0 4.696-3.807 8.504-8.504 8.504h-25.512c-4.697 0-8.504-3.808-8.504-8.504v-25.512c0-4.696 3.807-8.504 8.504-8.504h25.512c4.697 0 8.504 3.808 8.504 8.504z" stroke="#0f0" stroke-linecap="round" stroke-linejoin="round" transform="matrix(1.3328879 0 0 1.3328879 .159553 -.462716)"/><path clip-path="url(#a)" d="m94.964 653.392c0 4.698-3.807 8.503-8.504 8.503h-25.512c-4.697 0-8.504-3.805-8.504-8.503v-25.512c0-4.694 3.807-8.503 8.504-8.503h25.512c4.697 0 8.504 3.809 8.504 8.503z" stroke="#0f0" stroke-linecap="round" stroke-linejoin="round" transform="matrix(1.3328879 0 0 1.3328879 .159553 -.462716)"/><path clip-path="url(#a)" d="m661.893 653.392c0 4.698-3.807 8.503-8.504 8.503h-25.512c-4.697 0-8.504-3.805-8.504-8.503v-25.512c0-4.694 3.807-8.503 8.504-8.503h25.512c4.697 0 8.504 3.809 8.504 8.503z" stroke="#0f0" stroke-linecap="round" stroke-linejoin="round" transform="matrix(1.3328879 0 0 1.3328879 .159553 -.462716)"/><path clip-path="url(#a)" d="m626.41302 108.625h18.346001v80.838997h-18.346001z" stroke="#f00" transform="matrix(1.3328879 0 0 1.3328879 .159553 -.462716)"/><path clip-path="url(#a)" d="m626.41302 213.60899h18.346001v80.838997h-18.346001z" stroke="#f00" transform="matrix(1.3328879 0 0 1.3328879 .159553 -.462716)"/><path clip-path="url(#a)" d="m626.41302 318.59299h18.346001v80.838997h-18.346001z" stroke="#f00" transform="matrix(1.3328879 0 0 1.3328879 .159553 -.462716)"/><path clip-path="url(#a)" d="m626.41302 423.577h18.346001v80.838997h-18.346001z" stroke="#f00" transform="matrix(1.3328879 0 0 1.3328879 .159553 -.462716)"/><path clip-path="url(#a)" d="m626.46002 528.56097h18.346001v80.838997h-18.346001z" stroke="#f00" transform="matrix(1.3328879 0 0 1.3328879 .159553 -.462716)"/><path clip-path="url(#a)" d="m76.531998 161.117h18.346001v80.838997h-18.346001z" stroke="#f00" transform="matrix(1.3328879 0 0 1.3328879 .159553 -.462716)"/><path clip-path="url(#a)" d="m76.531998 266.10101h18.346001v80.838997h-18.346001z" stroke="#f00" transform="matrix(1.3328879 0 0 1.3328879 .159553 -.462716)"/><path clip-path="url(#a)" d="m76.531998 371.08499h18.346001v80.838997h-18.346001z" stroke="#f00" transform="matrix(1.3328879 0 0 1.3328879 .159553 -.462716)"/><path clip-path="url(#a)" d="m76.531998 476.069h18.346001v80.838997h-18.346001z" stroke="#f00" transform="matrix(1.3328879 0 0 1.3328879 .159553 -.462716)"/><path clip-path="url(#a)" d="m98.725998 631.46301h514.83899v18.346001h-514.83899z" stroke="#f00" transform="matrix(1.3328879 0 0 1.3328879 .159553 -.462716)"/><path clip-path="url(#a)" d="m98.725998 64.536003h514.83899v18.346001h-514.83899z" stroke="#f00" transform="matrix(1.3328879 0 0 1.3328879 .159553 -.462716)"/><g stroke="#0f0"><path clip-path="url(#a)" d="m603.76 609.399h14.652v-28.346h-14.652" transform="matrix(1.3328879 0 0 1.3328879 .159553 -.462716)"/><path clip-path="url(#a)" d="m114.777 581.053h-16.05v28.346h16.05" transform="matrix(1.3328879 0 0 1.3328879 .159553 -.462716)"/><path clip-path="url(#a)" d="m603.76 556.907h14.652v-28.346h-14.652" transform="matrix(1.3328879 0 0 1.3328879 .159553 -.462716)"/><path clip-path="url(#a)" d="m114.777 528.561h-16.05v28.346h16.05" transform="matrix(1.3328879 0 0 1.3328879 .159553 -.462716)"/><path clip-path="url(#a)" d="m603.76 504.415h14.652v-28.346h-14.652" transform="matrix(1.3328879 0 0 1.3328879 .159553 -.462716)"/><path clip-path="url(#a)" d="m114.777 476.069h-16.05v28.346h16.05" transform="matrix(1.3328879 0 0 1.3328879 .159553 -.462716)"/><path clip-path="url(#a)" d="m114.777 423.577h-16.05v28.346h16.05" transform="matrix(1.3328879 0 0 1.3328879 .159553 -.462716)"/><path clip-path="url(#a)" d="m603.76 451.923h14.652v-28.345h-14.652" transform="matrix(1.3328879 0 0 1.3328879 .159553 -.462716)"/><path clip-path="url(#a)" d="m114.777 371.085h-16.05v28.347h16.05" transform="matrix(1.3328879 0 0 1.3328879 .159553 -.462716)"/><path clip-path="url(#a)" d="m603.76 399.432h14.652v-28.347h-14.652" transform="matrix(1.3328879 0 0 1.3328879 .159553 -.462716)"/><path clip-path="url(#a)" d="m114.777 318.593h-16.05v28.347h16.05" transform="matrix(1.3328879 0 0 1.3328879 .159553 -.462716)"/><path clip-path="url(#a)" d="m603.76 346.939h14.652v-28.346h-14.652" transform="matrix(1.3328879 0 0 1.3328879 .159553 -.462716)"/><path clip-path="url(#a)" d="m603.76 294.448h14.652v-28.347h-14.652" transform="matrix(1.3328879 0 0 1.3328879 .159553 -.462716)"/><path clip-path="url(#a)" d="m114.777 266.101h-16.05v28.347h16.05" transform="matrix(1.3328879 0 0 1.3328879 .159553 -.462716)"/><path clip-path="url(#a)" d="m603.76 241.956h14.652v-28.347h-14.652" transform="matrix(1.3328879 0 0 1.3328879 .159553 -.462716)"/><path clip-path="url(#a)" d="m114.777 213.609h-16.05v28.347h16.05" transform="matrix(1.3328879 0 0 1.3328879 .159553 -.462716)"/><path clip-path="url(#a)" d="m603.76 189.464h14.652v-28.347h-14.652" transform="matrix(1.3328879 0 0 1.3328879 .159553 -.462716)"/><path clip-path="url(#a)" d="m114.777 161.117h-16.05v28.347h16.05" transform="matrix(1.3328879 0 0 1.3328879 .159553 -.462716)"/><path clip-path="url(#a)" d="m603.76 136.972h14.652v-28.347h-14.652" transform="matrix(1.3328879 0 0 1.3328879 .159553 -.462716)"/><path clip-path="url(#a)" d="m114.777 108.625h-16.05v28.347h16.05" transform="matrix(1.3328879 0 0 1.3328879 .159553 -.462716)"/></g><path clip-path="url(#a)" d="m711.496 654.806c0 31.311-25.382 56.693-56.693 56.693h-595.277c-31.31 0-56.692-25.382-56.692-56.693v-595.276c0-31.31 25.382-56.693 56.692-56.693h595.276c31.311 0 56.693 25.383 56.693 56.693v595.276z" stroke="#f00" transform="matrix(1.3328879 0 0 1.3328879 .159553 -.462716)"/></g></svg>