<svg enable-background="new 0 0 1726.3 861.732" height="600mm" viewBox="0 0 1511.811 1133.8583" width="1000mm" xmlns="http://www.w3.org/2000/svg"><g fill="none" stroke="#0102ff" stroke-miterlimit="10" stroke-width=".3" transform="matrix(1.332803 0 0 1.332803 .202284 .202284)"><path d="m51.024 26.929h-24.095v702.99h24.095"/><path d="m50.976 2.834h-48.142v751.18h48.189"/><path d="m51.023 26.929h24.095v702.99h-24.095"/><path d="m51.071 2.834h48.141v751.18h-48.189"/><path d="m99.213 26.929h24.095v702.99h-24.095"/><path d="m99.261 2.834h48.141v751.18h-48.189"/><path d="m147.402 26.929h24.096v702.99h-24.096"/><path d="m147.451 2.834h48.141v751.18h-48.189"/><path d="m195.592 26.929h24.095v702.99h-24.095"/><path d="m195.641 2.834h48.14v751.18h-48.189"/><path d="m243.782 26.929h24.095v702.99h-24.095"/><path d="m243.83 2.834h48.141v751.18h-48.189"/><path d="m291.972 26.929h24.094v702.99h-24.094"/><path d="m292.02 2.834h48.141v751.18h-48.189"/><path d="m340.161 26.929h24.095v702.99h-24.095"/><path d="m340.209 2.834h48.142v751.18h-48.189"/><path d="m51.023 2.927v24.001 727.139"/></g></svg>