<?xml version="1.0" encoding="utf-8"?>
<!-- Generator: Adobe Illustrator 15.1.0, SVG Export Plug-In . SVG Version: 6.00 Build 0)  -->
<!DOCTYPE svg PUBLIC "-//W3C//DTD SVG 1.1//EN" "http://www.w3.org/Graphics/SVG/1.1/DTD/svg11.dtd">
<svg version="1.1" id="Ebene_1" xmlns="http://www.w3.org/2000/svg" xmlns:xlink="http://www.w3.org/1999/xlink" x="0px" y="0px"
	 width="2834.646px" height="1700.787px" viewBox="0 0 2834.646 1700.787" enable-background="new 0 0 2834.646 1700.787"
	 xml:space="preserve">
<g>
	<path fill="none" stroke="#FF0000" stroke-width="0.2835" d="M102.13,93.629c0,4.695-3.807,8.504-8.504,8.504H68.114
		c-4.697,0-8.504-3.809-8.504-8.504V68.116c0-4.696,3.807-8.504,8.504-8.504h25.512c4.697,0,8.504,3.808,8.504,8.504V93.629z"/>
	<path fill="none" stroke="#FF0000" stroke-width="0.2835" d="M669.059,93.629c0,4.695-3.807,8.504-8.504,8.504h-25.512
		c-4.697,0-8.504-3.809-8.504-8.504V68.116c0-4.696,3.807-8.504,8.504-8.504h25.512c4.697,0,8.504,3.808,8.504,8.504V93.629z"/>
	<path fill="none" stroke="#FF0000" stroke-width="0.2835" d="M102.13,660.555c0,4.699-3.807,8.504-8.504,8.504H68.114
		c-4.697,0-8.504-3.805-8.504-8.504v-25.51c0-4.695,3.807-8.506,8.504-8.506h25.512c4.697,0,8.504,3.811,8.504,8.506V660.555z"/>
	<path fill="none" stroke="#FF0000" stroke-width="0.2835" d="M669.059,660.555c0,4.699-3.807,8.504-8.504,8.504h-25.512
		c-4.697,0-8.504-3.805-8.504-8.504v-25.51c0-4.695,3.807-8.506,8.504-8.506h25.512c4.697,0,8.504,3.811,8.504,8.506V660.555z"/>
	<path fill="none" stroke="#FF0000" stroke-width="0.2835" d="M146.539,142.289c0,3.897-3.188,7.088-7.086,7.088h-22.677
		c-3.897,0-7.087-3.19-7.087-7.088v-28.346c0-3.896,3.19-7.087,7.087-7.087h22.677c3.898,0,7.086,3.19,7.086,7.087V142.289z"/>
	<path fill="none" stroke="#FF0000" stroke-width="0.2835" d="M193.783,142.289c0,3.897-3.189,7.088-7.086,7.088H164.02
		c-3.897,0-7.087-3.19-7.087-7.088v-28.346c0-3.896,3.19-7.087,7.087-7.087h22.677c3.897,0,7.086,3.19,7.086,7.087V142.289z"/>
	<path fill="none" stroke="#FF0000" stroke-width="0.2835" d="M241.027,142.289c0,3.897-3.189,7.088-7.086,7.088h-22.677
		c-3.897,0-7.087-3.19-7.087-7.088v-28.346c0-3.896,3.19-7.087,7.087-7.087h22.677c3.897,0,7.086,3.19,7.086,7.087V142.289z"/>
	<path fill="none" stroke="#FF0000" stroke-width="0.2835" d="M288.271,142.289c0,3.897-3.189,7.088-7.086,7.088h-22.677
		c-3.897,0-7.087-3.19-7.087-7.088v-28.346c0-3.896,3.19-7.087,7.087-7.087h22.677c3.897,0,7.086,3.19,7.086,7.087V142.289z"/>
	<path fill="none" stroke="#FF0000" stroke-width="0.2835" d="M335.515,142.289c0,3.897-3.189,7.088-7.086,7.088h-22.677
		c-3.897,0-7.087-3.19-7.087-7.088v-28.346c0-3.896,3.19-7.087,7.087-7.087h22.677c3.897,0,7.086,3.19,7.086,7.087V142.289z"/>
	<path fill="none" stroke="#FF0000" stroke-width="0.2835" d="M382.759,142.289c0,3.897-3.188,7.088-7.086,7.088h-22.677
		c-3.897,0-7.087-3.19-7.087-7.088v-28.346c0-3.896,3.19-7.087,7.087-7.087h22.677c3.898,0,7.086,3.19,7.086,7.087V142.289z"/>
	<path fill="none" stroke="#FF0000" stroke-width="0.2835" d="M430.003,142.289c0,3.897-3.189,7.088-7.086,7.088H400.24
		c-3.897,0-7.087-3.19-7.087-7.088v-28.346c0-3.896,3.19-7.087,7.087-7.087h22.677c3.897,0,7.086,3.19,7.086,7.087V142.289z"/>
	<path fill="none" stroke="#FF0000" stroke-width="0.2835" d="M477.248,142.289c0,3.897-3.188,7.088-7.086,7.088h-22.677
		c-3.897,0-7.087-3.19-7.087-7.088v-28.346c0-3.896,3.19-7.087,7.087-7.087h22.677c3.898,0,7.086,3.19,7.086,7.087V142.289z"/>
	<path fill="none" stroke="#FF0000" stroke-width="0.2835" d="M524.492,142.289c0,3.897-3.188,7.088-7.086,7.088h-22.677
		c-3.897,0-7.087-3.19-7.087-7.088v-28.346c0-3.896,3.19-7.087,7.087-7.087h22.677c3.898,0,7.086,3.19,7.086,7.087V142.289z"/>
	<path fill="none" stroke="#FF0000" stroke-width="0.2835" d="M571.736,142.289c0,3.897-3.188,7.088-7.086,7.088h-22.677
		c-3.897,0-7.087-3.19-7.087-7.088v-28.346c0-3.896,3.19-7.087,7.087-7.087h22.677c3.898,0,7.086,3.19,7.086,7.087V142.289z"/>
	<path fill="none" stroke="#FF0000" stroke-width="0.2835" d="M618.98,142.289c0,3.897-3.189,7.088-7.086,7.088h-22.677
		c-3.898,0-7.087-3.19-7.087-7.088v-28.346c0-3.896,3.189-7.087,7.087-7.087h22.677c3.897,0,7.086,3.19,7.086,7.087V142.289z"/>
	<path fill="none" stroke="#FF0000" stroke-width="0.2835" d="M146.539,194.783c0,3.897-3.188,7.086-7.086,7.086h-22.677
		c-3.897,0-7.087-3.188-7.087-7.086v-28.347c0-3.897,3.19-7.087,7.087-7.087h22.677c3.898,0,7.086,3.189,7.086,7.087V194.783z"/>
	<path fill="none" stroke="#FF0000" stroke-width="0.2835" d="M193.783,194.783c0,3.897-3.189,7.086-7.086,7.086H164.02
		c-3.897,0-7.087-3.188-7.087-7.086v-28.347c0-3.897,3.19-7.087,7.087-7.087h22.677c3.897,0,7.086,3.189,7.086,7.087V194.783z"/>
	<path fill="none" stroke="#FF0000" stroke-width="0.2835" d="M241.027,194.783c0,3.897-3.189,7.086-7.086,7.086h-22.677
		c-3.897,0-7.087-3.188-7.087-7.086v-28.347c0-3.897,3.19-7.087,7.087-7.087h22.677c3.897,0,7.086,3.189,7.086,7.087V194.783z"/>
	<path fill="none" stroke="#FF0000" stroke-width="0.2835" d="M288.271,194.783c0,3.897-3.189,7.086-7.086,7.086h-22.677
		c-3.897,0-7.087-3.188-7.087-7.086v-28.347c0-3.897,3.19-7.087,7.087-7.087h22.677c3.897,0,7.086,3.189,7.086,7.087V194.783z"/>
	<path fill="none" stroke="#FF0000" stroke-width="0.2835" d="M335.515,194.783c0,3.897-3.189,7.086-7.086,7.086h-22.677
		c-3.897,0-7.087-3.188-7.087-7.086v-28.347c0-3.897,3.19-7.087,7.087-7.087h22.677c3.897,0,7.086,3.189,7.086,7.087V194.783z"/>
	<path fill="none" stroke="#FF0000" stroke-width="0.2835" d="M385.594,194.783c0,3.897-3.68,7.086-8.177,7.086h-26.165
		c-4.497,0-8.178-3.188-8.178-7.086v-28.347c0-3.897,3.681-7.087,8.178-7.087h26.165c4.497,0,8.177,3.189,8.177,7.087V194.783z"/>
	<path fill="none" stroke="#FF0000" stroke-width="0.2835" d="M430.003,194.783c0,3.897-3.189,7.086-7.086,7.086H400.24
		c-3.897,0-7.087-3.188-7.087-7.086v-28.347c0-3.897,3.19-7.087,7.087-7.087h22.677c3.897,0,7.086,3.189,7.086,7.087V194.783z"/>
	<path fill="none" stroke="#FF0000" stroke-width="0.2835" d="M477.248,194.783c0,3.897-3.188,7.086-7.086,7.086h-22.677
		c-3.897,0-7.087-3.188-7.087-7.086v-28.347c0-3.897,3.19-7.087,7.087-7.087h22.677c3.898,0,7.086,3.189,7.086,7.087V194.783z"/>
	<path fill="none" stroke="#FF0000" stroke-width="0.2835" d="M524.492,194.783c0,3.897-3.188,7.086-7.086,7.086h-22.677
		c-3.897,0-7.087-3.188-7.087-7.086v-28.347c0-3.897,3.19-7.087,7.087-7.087h22.677c3.898,0,7.086,3.189,7.086,7.087V194.783z"/>
	<path fill="none" stroke="#FF0000" stroke-width="0.2835" d="M571.736,194.783c0,3.897-3.188,7.086-7.086,7.086h-22.677
		c-3.897,0-7.087-3.188-7.087-7.086v-28.347c0-3.897,3.19-7.087,7.087-7.087h22.677c3.898,0,7.086,3.189,7.086,7.087V194.783z"/>
	<path fill="none" stroke="#FF0000" stroke-width="0.2835" d="M618.98,194.783c0,3.897-3.189,7.086-7.086,7.086h-22.677
		c-3.898,0-7.087-3.188-7.087-7.086v-28.347c0-3.897,3.189-7.087,7.087-7.087h22.677c3.897,0,7.086,3.189,7.086,7.087V194.783z"/>
	<path fill="none" stroke="#FF0000" stroke-width="0.2835" d="M146.539,247.275c0,3.897-3.188,7.088-7.086,7.088h-22.677
		c-3.897,0-7.087-3.19-7.087-7.088V218.93c0-3.896,3.19-7.087,7.087-7.087h22.677c3.898,0,7.086,3.19,7.086,7.087V247.275z"/>
	<path fill="none" stroke="#FF0000" stroke-width="0.2835" d="M196.618,247.275c0,3.897-3.68,7.088-8.177,7.088h-26.165
		c-4.497,0-8.178-3.19-8.178-7.088V218.93c0-3.896,3.681-7.087,8.178-7.087h26.165c4.497,0,8.177,3.19,8.177,7.087V247.275z"/>
	<path fill="none" stroke="#FF0000" stroke-width="0.2835" d="M241.027,247.275c0,3.897-3.189,7.088-7.086,7.088h-22.677
		c-3.897,0-7.087-3.19-7.087-7.088V218.93c0-3.896,3.19-7.087,7.087-7.087h22.677c3.897,0,7.086,3.19,7.086,7.087V247.275z"/>
	<path fill="none" stroke="#FF0000" stroke-width="0.2835" d="M288.271,247.275c0,3.897-3.189,7.088-7.086,7.088h-22.677
		c-3.897,0-7.087-3.19-7.087-7.088V218.93c0-3.896,3.19-7.087,7.087-7.087h22.677c3.897,0,7.086,3.19,7.086,7.087V247.275z"/>
	<path fill="none" stroke="#FF0000" stroke-width="0.2835" d="M335.515,247.275c0,3.897-3.189,7.088-7.086,7.088h-22.677
		c-3.897,0-7.087-3.19-7.087-7.088V218.93c0-3.896,3.19-7.087,7.087-7.087h22.677c3.897,0,7.086,3.19,7.086,7.087V247.275z"/>
	<path fill="none" stroke="#FF0000" stroke-width="0.2835" d="M382.759,247.275c0,3.897-3.188,7.088-7.086,7.088h-22.677
		c-3.897,0-7.087-3.19-7.087-7.088V218.93c0-3.896,3.19-7.087,7.087-7.087h22.677c3.898,0,7.086,3.19,7.086,7.087V247.275z"/>
	<path fill="none" stroke="#FF0000" stroke-width="0.2835" d="M430.003,247.275c0,3.897-3.189,7.088-7.086,7.088H400.24
		c-3.897,0-7.087-3.19-7.087-7.088V218.93c0-3.896,3.19-7.087,7.087-7.087h22.677c3.897,0,7.086,3.19,7.086,7.087V247.275z"/>
	<path fill="none" stroke="#FF0000" stroke-width="0.2835" d="M477.248,247.275c0,3.897-3.188,7.088-7.086,7.088h-22.677
		c-3.897,0-7.087-3.19-7.087-7.088V218.93c0-3.896,3.19-7.087,7.087-7.087h22.677c3.898,0,7.086,3.19,7.086,7.087V247.275z"/>
	<path fill="none" stroke="#FF0000" stroke-width="0.2835" d="M524.492,247.275c0,3.897-3.188,7.088-7.086,7.088h-22.677
		c-3.897,0-7.087-3.19-7.087-7.088V218.93c0-3.896,3.19-7.087,7.087-7.087h22.677c3.898,0,7.086,3.19,7.086,7.087V247.275z"/>
	<path fill="none" stroke="#FF0000" stroke-width="0.2835" d="M574.571,247.275c0,3.897-3.68,7.088-8.177,7.088h-26.165
		c-4.497,0-8.178-3.19-8.178-7.088V218.93c0-3.896,3.681-7.087,8.178-7.087h26.165c4.497,0,8.177,3.19,8.177,7.087V247.275z"/>
	<path fill="none" stroke="#FF0000" stroke-width="0.2835" d="M618.98,247.275c0,3.897-3.189,7.088-7.086,7.088h-22.677
		c-3.898,0-7.087-3.19-7.087-7.088V218.93c0-3.896,3.189-7.087,7.087-7.087h22.677c3.897,0,7.086,3.19,7.086,7.087V247.275z"/>
	<path fill="none" stroke="#FF0000" stroke-width="0.2835" d="M146.539,299.77c0,3.896-3.188,7.086-7.086,7.086h-22.677
		c-3.897,0-7.087-3.189-7.087-7.086v-28.347c0-3.897,3.19-7.087,7.087-7.087h22.677c3.898,0,7.086,3.189,7.086,7.087V299.77z"/>
	<path fill="none" stroke="#FF0000" stroke-width="0.2835" d="M193.783,299.77c0,3.896-3.189,7.086-7.086,7.086H164.02
		c-3.897,0-7.087-3.189-7.087-7.086v-28.347c0-3.897,3.19-7.087,7.087-7.087h22.677c3.897,0,7.086,3.189,7.086,7.087V299.77z"/>
	<path fill="none" stroke="#FF0000" stroke-width="0.2835" d="M241.027,299.77c0,3.896-3.189,7.086-7.086,7.086h-22.677
		c-3.897,0-7.087-3.189-7.087-7.086v-28.347c0-3.897,3.19-7.087,7.087-7.087h22.677c3.897,0,7.086,3.189,7.086,7.087V299.77z"/>
	<path fill="none" stroke="#FF0000" stroke-width="0.2835" d="M288.271,299.77c0,3.896-3.189,7.086-7.086,7.086h-22.677
		c-3.897,0-7.087-3.189-7.087-7.086v-28.347c0-3.897,3.19-7.087,7.087-7.087h22.677c3.897,0,7.086,3.189,7.086,7.087V299.77z"/>
	<path fill="none" stroke="#FF0000" stroke-width="0.2835" d="M335.515,299.77c0,3.896-3.189,7.086-7.086,7.086h-22.677
		c-3.897,0-7.087-3.189-7.087-7.086v-28.347c0-3.897,3.19-7.087,7.087-7.087h22.677c3.897,0,7.086,3.189,7.086,7.087V299.77z"/>
	<path fill="none" stroke="#FF0000" stroke-width="0.2835" d="M382.759,299.77c0,3.896-3.188,7.086-7.086,7.086h-22.677
		c-3.897,0-7.087-3.189-7.087-7.086v-28.347c0-3.897,3.19-7.087,7.087-7.087h22.677c3.898,0,7.086,3.189,7.086,7.087V299.77z"/>
	<path fill="none" stroke="#FF0000" stroke-width="0.2835" d="M430.003,299.77c0,3.896-3.189,7.086-7.086,7.086H400.24
		c-3.897,0-7.087-3.189-7.087-7.086v-28.347c0-3.897,3.19-7.087,7.087-7.087h22.677c3.897,0,7.086,3.189,7.086,7.087V299.77z"/>
	<path fill="none" stroke="#FF0000" stroke-width="0.2835" d="M477.248,299.77c0,3.896-3.188,7.086-7.086,7.086h-22.677
		c-3.897,0-7.087-3.189-7.087-7.086v-28.347c0-3.897,3.19-7.087,7.087-7.087h22.677c3.898,0,7.086,3.189,7.086,7.087V299.77z"/>
	<path fill="none" stroke="#FF0000" stroke-width="0.2835" d="M524.492,299.77c0,3.896-3.188,7.086-7.086,7.086h-22.677
		c-3.897,0-7.087-3.189-7.087-7.086v-28.347c0-3.897,3.19-7.087,7.087-7.087h22.677c3.898,0,7.086,3.189,7.086,7.087V299.77z"/>
	<path fill="none" stroke="#FF0000" stroke-width="0.2835" d="M571.736,299.77c0,3.896-3.188,7.086-7.086,7.086h-22.677
		c-3.897,0-7.087-3.189-7.087-7.086v-28.347c0-3.897,3.19-7.087,7.087-7.087h22.677c3.898,0,7.086,3.189,7.086,7.087V299.77z"/>
	<path fill="none" stroke="#FF0000" stroke-width="0.2835" d="M618.98,299.77c0,3.896-3.189,7.086-7.086,7.086h-22.677
		c-3.898,0-7.087-3.189-7.087-7.086v-28.347c0-3.897,3.189-7.087,7.087-7.087h22.677c3.897,0,7.086,3.189,7.086,7.087V299.77z"/>
	<path fill="none" stroke="#FF0000" stroke-width="0.2835" d="M146.539,352.262c0,3.897-3.188,7.088-7.086,7.088h-22.677
		c-3.897,0-7.087-3.19-7.087-7.088v-28.346c0-3.896,3.19-7.087,7.087-7.087h22.677c3.898,0,7.086,3.19,7.086,7.087V352.262z"/>
	<path fill="none" stroke="#FF0000" stroke-width="0.2835" d="M193.783,352.262c0,3.897-3.189,7.088-7.086,7.088H164.02
		c-3.897,0-7.087-3.19-7.087-7.088v-28.346c0-3.896,3.19-7.087,7.087-7.087h22.677c3.897,0,7.086,3.19,7.086,7.087V352.262z"/>
	<path fill="none" stroke="#FF0000" stroke-width="0.2835" d="M241.027,352.262c0,3.897-3.189,7.088-7.086,7.088h-22.677
		c-3.897,0-7.087-3.19-7.087-7.088v-28.346c0-3.896,3.19-7.087,7.087-7.087h22.677c3.897,0,7.086,3.19,7.086,7.087V352.262z"/>
	<path fill="none" stroke="#FF0000" stroke-width="0.2835" d="M291.106,352.262c0,3.897-3.68,7.088-8.177,7.088h-26.165
		c-4.497,0-8.178-3.19-8.178-7.088v-28.346c0-3.896,3.681-7.087,8.178-7.087h26.165c4.497,0,8.177,3.19,8.177,7.087V352.262z"/>
	<path fill="none" stroke="#FF0000" stroke-width="0.2835" d="M335.515,352.262c0,3.897-3.189,7.088-7.086,7.088h-22.677
		c-3.897,0-7.087-3.19-7.087-7.088v-28.346c0-3.896,3.19-7.087,7.087-7.087h22.677c3.897,0,7.086,3.19,7.086,7.087V352.262z"/>
	<path fill="none" stroke="#FF0000" stroke-width="0.2835" d="M382.759,352.262c0,3.897-3.188,7.088-7.086,7.088h-22.677
		c-3.897,0-7.087-3.19-7.087-7.088v-28.346c0-3.896,3.19-7.087,7.087-7.087h22.677c3.898,0,7.086,3.19,7.086,7.087V352.262z"/>
	<path fill="none" stroke="#FF0000" stroke-width="0.2835" d="M430.003,352.262c0,3.897-3.189,7.088-7.086,7.088H400.24
		c-3.897,0-7.087-3.19-7.087-7.088v-28.346c0-3.896,3.19-7.087,7.087-7.087h22.677c3.897,0,7.086,3.19,7.086,7.087V352.262z"/>
	<path fill="none" stroke="#FF0000" stroke-width="0.2835" d="M480.083,352.262c0,3.897-3.68,7.088-8.177,7.088H445.74
		c-4.497,0-8.178-3.19-8.178-7.088v-28.346c0-3.896,3.681-7.087,8.178-7.087h26.165c4.497,0,8.177,3.19,8.177,7.087V352.262z"/>
	<path fill="none" stroke="#FF0000" stroke-width="0.2835" d="M524.492,352.262c0,3.897-3.188,7.088-7.086,7.088h-22.677
		c-3.897,0-7.087-3.19-7.087-7.088v-28.346c0-3.896,3.19-7.087,7.087-7.087h22.677c3.898,0,7.086,3.19,7.086,7.087V352.262z"/>
	<path fill="none" stroke="#FF0000" stroke-width="0.2835" d="M571.736,352.262c0,3.897-3.188,7.088-7.086,7.088h-22.677
		c-3.897,0-7.087-3.19-7.087-7.088v-28.346c0-3.896,3.19-7.087,7.087-7.087h22.677c3.898,0,7.086,3.19,7.086,7.087V352.262z"/>
	<path fill="none" stroke="#FF0000" stroke-width="0.2835" d="M618.98,352.262c0,3.897-3.189,7.088-7.086,7.088h-22.677
		c-3.898,0-7.087-3.19-7.087-7.088v-28.346c0-3.896,3.189-7.087,7.087-7.087h22.677c3.897,0,7.086,3.19,7.086,7.087V352.262z"/>
	<path fill="none" stroke="#FF0000" stroke-width="0.2835" d="M146.539,404.756c0,3.896-3.188,7.086-7.086,7.086h-22.677
		c-3.897,0-7.087-3.189-7.087-7.086V376.41c0-3.898,3.19-7.088,7.087-7.088h22.677c3.898,0,7.086,3.189,7.086,7.088V404.756z"/>
	<path fill="none" stroke="#FF0000" stroke-width="0.2835" d="M193.783,404.756c0,3.896-3.189,7.086-7.086,7.086H164.02
		c-3.897,0-7.087-3.189-7.087-7.086V376.41c0-3.898,3.19-7.088,7.087-7.088h22.677c3.897,0,7.086,3.189,7.086,7.088V404.756z"/>
	<path fill="none" stroke="#FF0000" stroke-width="0.2835" d="M241.027,404.756c0,3.896-3.189,7.086-7.086,7.086h-22.677
		c-3.897,0-7.087-3.189-7.087-7.086V376.41c0-3.898,3.19-7.088,7.087-7.088h22.677c3.897,0,7.086,3.189,7.086,7.088V404.756z"/>
	<path fill="none" stroke="#FF0000" stroke-width="0.2835" d="M291.106,404.756c0,3.896-3.68,7.086-8.177,7.086h-26.165
		c-4.497,0-8.178-3.189-8.178-7.086V376.41c0-3.898,3.681-7.088,8.178-7.088h26.165c4.497,0,8.177,3.189,8.177,7.088V404.756z"/>
	<path fill="none" stroke="#FF0000" stroke-width="0.2835" d="M335.515,404.756c0,3.896-3.189,7.086-7.086,7.086h-22.677
		c-3.897,0-7.087-3.189-7.087-7.086V376.41c0-3.898,3.19-7.088,7.087-7.088h22.677c3.897,0,7.086,3.189,7.086,7.088V404.756z"/>
	<path fill="none" stroke="#FF0000" stroke-width="0.2835" d="M382.759,404.756c0,3.896-3.188,7.086-7.086,7.086h-22.677
		c-3.897,0-7.087-3.189-7.087-7.086V376.41c0-3.898,3.19-7.088,7.087-7.088h22.677c3.898,0,7.086,3.189,7.086,7.088V404.756z"/>
	<path fill="none" stroke="#FF0000" stroke-width="0.2835" d="M430.003,404.756c0,3.896-3.189,7.086-7.086,7.086H400.24
		c-3.897,0-7.087-3.189-7.087-7.086V376.41c0-3.898,3.19-7.088,7.087-7.088h22.677c3.897,0,7.086,3.189,7.086,7.088V404.756z"/>
	<path fill="none" stroke="#FF0000" stroke-width="0.2835" d="M480.083,404.756c0,3.896-3.68,7.086-8.177,7.086H445.74
		c-4.497,0-8.178-3.189-8.178-7.086V376.41c0-3.898,3.681-7.088,8.178-7.088h26.165c4.497,0,8.177,3.189,8.177,7.088V404.756z"/>
	<path fill="none" stroke="#FF0000" stroke-width="0.2835" d="M524.492,404.756c0,3.896-3.188,7.086-7.086,7.086h-22.677
		c-3.897,0-7.087-3.189-7.087-7.086V376.41c0-3.898,3.19-7.088,7.087-7.088h22.677c3.898,0,7.086,3.189,7.086,7.088V404.756z"/>
	<path fill="none" stroke="#FF0000" stroke-width="0.2835" d="M571.736,404.756c0,3.896-3.188,7.086-7.086,7.086h-22.677
		c-3.897,0-7.087-3.189-7.087-7.086V376.41c0-3.898,3.19-7.088,7.087-7.088h22.677c3.898,0,7.086,3.189,7.086,7.088V404.756z"/>
	<path fill="none" stroke="#FF0000" stroke-width="0.2835" d="M618.98,404.756c0,3.896-3.189,7.086-7.086,7.086h-22.677
		c-3.898,0-7.087-3.189-7.087-7.086V376.41c0-3.898,3.189-7.088,7.087-7.088h22.677c3.897,0,7.086,3.189,7.086,7.088V404.756z"/>
	<path fill="none" stroke="#FF0000" stroke-width="0.2835" d="M146.539,457.248c0,3.896-3.188,7.088-7.086,7.088h-22.677
		c-3.897,0-7.087-3.191-7.087-7.088v-28.346c0-3.896,3.19-7.086,7.087-7.086h22.677c3.898,0,7.086,3.189,7.086,7.086V457.248z"/>
	<path fill="none" stroke="#FF0000" stroke-width="0.2835" d="M193.783,457.248c0,3.896-3.189,7.088-7.086,7.088H164.02
		c-3.897,0-7.087-3.191-7.087-7.088v-28.346c0-3.896,3.19-7.086,7.087-7.086h22.677c3.897,0,7.086,3.189,7.086,7.086V457.248z"/>
	<path fill="none" stroke="#FF0000" stroke-width="0.2835" d="M241.027,457.248c0,3.896-3.189,7.088-7.086,7.088h-22.677
		c-3.897,0-7.087-3.191-7.087-7.088v-28.346c0-3.896,3.19-7.086,7.087-7.086h22.677c3.897,0,7.086,3.189,7.086,7.086V457.248z"/>
	<path fill="none" stroke="#FF0000" stroke-width="0.2835" d="M288.271,457.248c0,3.896-3.189,7.088-7.086,7.088h-22.677
		c-3.897,0-7.087-3.191-7.087-7.088v-28.346c0-3.896,3.19-7.086,7.087-7.086h22.677c3.897,0,7.086,3.189,7.086,7.086V457.248z"/>
	<path fill="none" stroke="#FF0000" stroke-width="0.2835" d="M335.515,457.248c0,3.896-3.189,7.088-7.086,7.088h-22.677
		c-3.897,0-7.087-3.191-7.087-7.088v-28.346c0-3.896,3.19-7.086,7.087-7.086h22.677c3.897,0,7.086,3.189,7.086,7.086V457.248z"/>
	<path fill="none" stroke="#FF0000" stroke-width="0.2835" d="M382.759,457.248c0,3.896-3.188,7.088-7.086,7.088h-22.677
		c-3.897,0-7.087-3.191-7.087-7.088v-28.346c0-3.896,3.19-7.086,7.087-7.086h22.677c3.898,0,7.086,3.189,7.086,7.086V457.248z"/>
	<path fill="none" stroke="#FF0000" stroke-width="0.2835" d="M430.003,457.248c0,3.896-3.189,7.088-7.086,7.088H400.24
		c-3.897,0-7.087-3.191-7.087-7.088v-28.346c0-3.896,3.19-7.086,7.087-7.086h22.677c3.897,0,7.086,3.189,7.086,7.086V457.248z"/>
	<path fill="none" stroke="#FF0000" stroke-width="0.2835" d="M477.248,457.248c0,3.896-3.188,7.088-7.086,7.088h-22.677
		c-3.897,0-7.087-3.191-7.087-7.088v-28.346c0-3.896,3.19-7.086,7.087-7.086h22.677c3.898,0,7.086,3.189,7.086,7.086V457.248z"/>
	<path fill="none" stroke="#FF0000" stroke-width="0.2835" d="M524.492,457.248c0,3.896-3.188,7.088-7.086,7.088h-22.677
		c-3.897,0-7.087-3.191-7.087-7.088v-28.346c0-3.896,3.19-7.086,7.087-7.086h22.677c3.898,0,7.086,3.189,7.086,7.086V457.248z"/>
	<path fill="none" stroke="#FF0000" stroke-width="0.2835" d="M571.736,457.248c0,3.896-3.188,7.088-7.086,7.088h-22.677
		c-3.897,0-7.087-3.191-7.087-7.088v-28.346c0-3.896,3.19-7.086,7.087-7.086h22.677c3.898,0,7.086,3.189,7.086,7.086V457.248z"/>
	<path fill="none" stroke="#FF0000" stroke-width="0.2835" d="M618.98,457.248c0,3.896-3.189,7.088-7.086,7.088h-22.677
		c-3.898,0-7.087-3.191-7.087-7.088v-28.346c0-3.896,3.189-7.086,7.087-7.086h22.677c3.897,0,7.086,3.189,7.086,7.086V457.248z"/>
	<path fill="none" stroke="#FF0000" stroke-width="0.2835" d="M146.539,509.742c0,3.898-3.188,7.086-7.086,7.086h-22.677
		c-3.897,0-7.087-3.188-7.087-7.086v-28.346c0-3.898,3.19-7.088,7.087-7.088h22.677c3.898,0,7.086,3.189,7.086,7.088V509.742z"/>
	<path fill="none" stroke="#FF0000" stroke-width="0.2835" d="M196.618,509.742c0,3.898-3.68,7.086-8.177,7.086h-26.165
		c-4.497,0-8.178-3.188-8.178-7.086v-28.346c0-3.898,3.681-7.088,8.178-7.088h26.165c4.497,0,8.177,3.189,8.177,7.088V509.742z"/>
	<path fill="none" stroke="#FF0000" stroke-width="0.2835" d="M241.027,509.742c0,3.898-3.189,7.086-7.086,7.086h-22.677
		c-3.897,0-7.087-3.188-7.087-7.086v-28.346c0-3.898,3.19-7.088,7.087-7.088h22.677c3.897,0,7.086,3.189,7.086,7.088V509.742z"/>
	<path fill="none" stroke="#FF0000" stroke-width="0.2835" d="M288.271,509.742c0,3.898-3.189,7.086-7.086,7.086h-22.677
		c-3.897,0-7.087-3.188-7.087-7.086v-28.346c0-3.898,3.19-7.088,7.087-7.088h22.677c3.897,0,7.086,3.189,7.086,7.088V509.742z"/>
	<path fill="none" stroke="#FF0000" stroke-width="0.2835" d="M335.515,509.742c0,3.898-3.189,7.086-7.086,7.086h-22.677
		c-3.897,0-7.087-3.188-7.087-7.086v-28.346c0-3.898,3.19-7.088,7.087-7.088h22.677c3.897,0,7.086,3.189,7.086,7.088V509.742z"/>
	<path fill="none" stroke="#FF0000" stroke-width="0.2835" d="M382.759,509.742c0,3.898-3.188,7.086-7.086,7.086h-22.677
		c-3.897,0-7.087-3.188-7.087-7.086v-28.346c0-3.898,3.19-7.088,7.087-7.088h22.677c3.898,0,7.086,3.189,7.086,7.088V509.742z"/>
	<path fill="none" stroke="#FF0000" stroke-width="0.2835" d="M430.003,509.742c0,3.898-3.189,7.086-7.086,7.086H400.24
		c-3.897,0-7.087-3.188-7.087-7.086v-28.346c0-3.898,3.19-7.088,7.087-7.088h22.677c3.897,0,7.086,3.189,7.086,7.088V509.742z"/>
	<path fill="none" stroke="#FF0000" stroke-width="0.2835" d="M477.248,509.742c0,3.898-3.188,7.086-7.086,7.086h-22.677
		c-3.897,0-7.087-3.188-7.087-7.086v-28.346c0-3.898,3.19-7.088,7.087-7.088h22.677c3.898,0,7.086,3.189,7.086,7.088V509.742z"/>
	<path fill="none" stroke="#FF0000" stroke-width="0.2835" d="M524.492,509.742c0,3.898-3.188,7.086-7.086,7.086h-22.677
		c-3.897,0-7.087-3.188-7.087-7.086v-28.346c0-3.898,3.19-7.088,7.087-7.088h22.677c3.898,0,7.086,3.189,7.086,7.088V509.742z"/>
	<path fill="none" stroke="#FF0000" stroke-width="0.2835" d="M574.571,509.742c0,3.898-3.68,7.086-8.177,7.086h-26.165
		c-4.497,0-8.178-3.188-8.178-7.086v-28.346c0-3.898,3.681-7.088,8.178-7.088h26.165c4.497,0,8.177,3.189,8.177,7.088V509.742z"/>
	<path fill="none" stroke="#FF0000" stroke-width="0.2835" d="M618.98,509.742c0,3.898-3.189,7.086-7.086,7.086h-22.677
		c-3.898,0-7.087-3.188-7.087-7.086v-28.346c0-3.898,3.189-7.088,7.087-7.088h22.677c3.897,0,7.086,3.189,7.086,7.088V509.742z"/>
	<path fill="none" stroke="#FF0000" stroke-width="0.2835" d="M146.539,562.234c0,3.898-3.188,7.088-7.086,7.088h-22.677
		c-3.897,0-7.087-3.189-7.087-7.088v-28.346c0-3.896,3.19-7.086,7.087-7.086h22.677c3.898,0,7.086,3.189,7.086,7.086V562.234z"/>
	<path fill="none" stroke="#FF0000" stroke-width="0.2835" d="M193.783,562.234c0,3.898-3.189,7.088-7.086,7.088H164.02
		c-3.897,0-7.087-3.189-7.087-7.088v-28.346c0-3.896,3.19-7.086,7.087-7.086h22.677c3.897,0,7.086,3.189,7.086,7.086V562.234z"/>
	<path fill="none" stroke="#FF0000" stroke-width="0.2835" d="M241.027,562.234c0,3.898-3.189,7.088-7.086,7.088h-22.677
		c-3.897,0-7.087-3.189-7.087-7.088v-28.346c0-3.896,3.19-7.086,7.087-7.086h22.677c3.897,0,7.086,3.189,7.086,7.086V562.234z"/>
	<path fill="none" stroke="#FF0000" stroke-width="0.2835" d="M288.271,562.234c0,3.898-3.189,7.088-7.086,7.088h-22.677
		c-3.897,0-7.087-3.189-7.087-7.088v-28.346c0-3.896,3.19-7.086,7.087-7.086h22.677c3.897,0,7.086,3.189,7.086,7.086V562.234z"/>
	<path fill="none" stroke="#FF0000" stroke-width="0.2835" d="M335.515,562.234c0,3.898-3.189,7.088-7.086,7.088h-22.677
		c-3.897,0-7.087-3.189-7.087-7.088v-28.346c0-3.896,3.19-7.086,7.087-7.086h22.677c3.897,0,7.086,3.189,7.086,7.086V562.234z"/>
	<path fill="none" stroke="#FF0000" stroke-width="0.2835" d="M385.594,562.234c0,3.898-3.68,7.088-8.177,7.088h-26.165
		c-4.497,0-8.178-3.189-8.178-7.088v-28.346c0-3.896,3.681-7.086,8.178-7.086h26.165c4.497,0,8.177,3.189,8.177,7.086V562.234z"/>
	<path fill="none" stroke="#FF0000" stroke-width="0.2835" d="M430.003,562.234c0,3.898-3.189,7.088-7.086,7.088H400.24
		c-3.897,0-7.087-3.189-7.087-7.088v-28.346c0-3.896,3.19-7.086,7.087-7.086h22.677c3.897,0,7.086,3.189,7.086,7.086V562.234z"/>
	<path fill="none" stroke="#FF0000" stroke-width="0.2835" d="M477.248,562.234c0,3.898-3.188,7.088-7.086,7.088h-22.677
		c-3.897,0-7.087-3.189-7.087-7.088v-28.346c0-3.896,3.19-7.086,7.087-7.086h22.677c3.898,0,7.086,3.189,7.086,7.086V562.234z"/>
	<path fill="none" stroke="#FF0000" stroke-width="0.2835" d="M524.492,562.234c0,3.898-3.188,7.088-7.086,7.088h-22.677
		c-3.897,0-7.087-3.189-7.087-7.088v-28.346c0-3.896,3.19-7.086,7.087-7.086h22.677c3.898,0,7.086,3.189,7.086,7.086V562.234z"/>
	<path fill="none" stroke="#FF0000" stroke-width="0.2835" d="M571.736,562.234c0,3.898-3.188,7.088-7.086,7.088h-22.677
		c-3.897,0-7.087-3.189-7.087-7.088v-28.346c0-3.896,3.19-7.086,7.087-7.086h22.677c3.898,0,7.086,3.189,7.086,7.086V562.234z"/>
	<path fill="none" stroke="#FF0000" stroke-width="0.2835" d="M618.98,562.234c0,3.898-3.189,7.088-7.086,7.088h-22.677
		c-3.898,0-7.087-3.189-7.087-7.088v-28.346c0-3.896,3.189-7.086,7.087-7.086h22.677c3.897,0,7.086,3.189,7.086,7.086V562.234z"/>
	<path fill="none" stroke="#FF0000" stroke-width="0.2835" d="M146.539,614.729c0,3.896-3.188,7.086-7.086,7.086h-22.677
		c-3.897,0-7.087-3.189-7.087-7.086v-28.346c0-3.898,3.19-7.088,7.087-7.088h22.677c3.898,0,7.086,3.189,7.086,7.088V614.729z"/>
	<path fill="none" stroke="#FF0000" stroke-width="0.2835" d="M193.783,614.729c0,3.896-3.189,7.086-7.086,7.086H164.02
		c-3.897,0-7.087-3.189-7.087-7.086v-28.346c0-3.898,3.19-7.088,7.087-7.088h22.677c3.897,0,7.086,3.189,7.086,7.088V614.729z"/>
	<path fill="none" stroke="#FF0000" stroke-width="0.2835" d="M241.027,614.729c0,3.896-3.189,7.086-7.086,7.086h-22.677
		c-3.897,0-7.087-3.189-7.087-7.086v-28.346c0-3.898,3.19-7.088,7.087-7.088h22.677c3.897,0,7.086,3.189,7.086,7.088V614.729z"/>
	<path fill="none" stroke="#FF0000" stroke-width="0.2835" d="M288.271,614.729c0,3.896-3.189,7.086-7.086,7.086h-22.677
		c-3.897,0-7.087-3.189-7.087-7.086v-28.346c0-3.898,3.19-7.088,7.087-7.088h22.677c3.897,0,7.086,3.189,7.086,7.088V614.729z"/>
	<path fill="none" stroke="#FF0000" stroke-width="0.2835" d="M335.515,614.729c0,3.896-3.189,7.086-7.086,7.086h-22.677
		c-3.897,0-7.087-3.189-7.087-7.086v-28.346c0-3.898,3.19-7.088,7.087-7.088h22.677c3.897,0,7.086,3.189,7.086,7.088V614.729z"/>
	<path fill="none" stroke="#FF0000" stroke-width="0.2835" d="M382.759,614.729c0,3.896-3.188,7.086-7.086,7.086h-22.677
		c-3.897,0-7.087-3.189-7.087-7.086v-28.346c0-3.898,3.19-7.088,7.087-7.088h22.677c3.898,0,7.086,3.189,7.086,7.088V614.729z"/>
	<path fill="none" stroke="#FF0000" stroke-width="0.2835" d="M430.003,614.729c0,3.896-3.189,7.086-7.086,7.086H400.24
		c-3.897,0-7.087-3.189-7.087-7.086v-28.346c0-3.898,3.19-7.088,7.087-7.088h22.677c3.897,0,7.086,3.189,7.086,7.088V614.729z"/>
	<path fill="none" stroke="#FF0000" stroke-width="0.2835" d="M477.248,614.729c0,3.896-3.188,7.086-7.086,7.086h-22.677
		c-3.897,0-7.087-3.189-7.087-7.086v-28.346c0-3.898,3.19-7.088,7.087-7.088h22.677c3.898,0,7.086,3.189,7.086,7.088V614.729z"/>
	<path fill="none" stroke="#FF0000" stroke-width="0.2835" d="M524.492,614.729c0,3.896-3.188,7.086-7.086,7.086h-22.677
		c-3.897,0-7.087-3.189-7.087-7.086v-28.346c0-3.898,3.19-7.088,7.087-7.088h22.677c3.898,0,7.086,3.189,7.086,7.088V614.729z"/>
	<path fill="none" stroke="#FF0000" stroke-width="0.2835" d="M571.736,614.729c0,3.896-3.188,7.086-7.086,7.086h-22.677
		c-3.897,0-7.087-3.189-7.087-7.086v-28.346c0-3.898,3.19-7.088,7.087-7.088h22.677c3.898,0,7.086,3.189,7.086,7.088V614.729z"/>
	<path fill="none" stroke="#FF0000" stroke-width="0.2835" d="M618.98,614.729c0,3.896-3.189,7.086-7.086,7.086h-22.677
		c-3.898,0-7.087-3.189-7.087-7.086v-28.346c0-3.898,3.189-7.088,7.087-7.088h22.677c3.897,0,7.086,3.189,7.086,7.088V614.729z"/>
</g>
<rect x="10" y="10" fill="none" stroke="#FF0000" stroke-width="0.2835" width="708.661" height="708.661"/>
</svg>
