<?xml version="1.0" encoding="utf-8"?>
<!-- Generator: Adobe Illustrator 24.3.0, SVG Export Plug-In . SVG Version: 6.00 Build 0)  -->
<svg version="1.1"
	 id="svg918" inkscape:version="0.92.4 (5da689c313, 2019-01-14)" xmlns:cc="http://creativecommons.org/ns#" xmlns:dc="http://purl.org/dc/elements/1.1/" xmlns:inkscape="http://www.inkscape.org/namespaces/inkscape" xmlns:rdf="http://www.w3.org/1999/02/22-rdf-syntax-ns#" xmlns:sodipodi="http://sodipodi.sourceforge.net/DTD/sodipodi-0.dtd" xmlns:svg="http://www.w3.org/2000/svg"
	 xmlns="http://www.w3.org/2000/svg" xmlns:xlink="http://www.w3.org/1999/xlink" x="0px" y="0px" viewBox="0 0 1417.3 1417.3"
	 style="enable-background:new 0 0 1417.3 1417.3;" xml:space="preserve">
<style type="text/css">
	.st0{fill:#89C9D5;fill-opacity:0.1647;}
	.st1{font-family:'Helvetica';}
	.st2{font-size:66.4995px;}
	.st3{display:none;}
	.st4{display:inline;fill:none;stroke:#FF0000;stroke-width:0.1;stroke-miterlimit:10;}
	.st5{display:inline;opacity:0.99;fill:none;stroke:#FF0000;stroke-width:0.1;stroke-miterlimit:10;}
</style>
<g id="g916" transform="translate(0,-861.73197)">
	<path id="path2" inkscape:connector-curvature="0" class="st0" d="M0,861.7h1417.3V2279H0V861.7z"/>
	<circle id="circle6" cx="566.6" cy="2205.2" r="10.7"/>
	
		<ellipse id="circle6_1_" transform="matrix(0.7071 -0.7071 0.7071 0.7071 -1365.6511 1113.4741)" cx="661.2" cy="2205.2" rx="10.6" ry="10.7"/>
	
		<ellipse id="circle6_2_" transform="matrix(0.7071 -0.7071 0.7071 0.7071 -1337.8706 1180.5415)" cx="756.1" cy="2205.2" rx="10.6" ry="10.7"/>
	
		<ellipse id="circle6_3_" transform="matrix(0.7071 -0.7071 0.7071 0.7071 -1310.0895 1247.6099)" cx="850.9" cy="2205.2" rx="10.6" ry="10.7"/>
	<text transform="matrix(0.9023 0 0 1 227.2227 1067.4424)" class="st1 st2">I</text>
	<text transform="matrix(0.9023 0 0 1 309.7217 1067.4424)" class="st1 st2">T</text>
	<text transform="matrix(0.9023 0 0 1 404.2217 1067.4424)" class="st1 st2">L</text>
	<text transform="matrix(0.9023 0 0 1 510.7197 1067.4424)" class="st1 st2">I</text>
	<text transform="matrix(0.9023 0 0 1 593.2188 1067.4424)" class="st1 st2">S</text>
	<text transform="matrix(0.9023 0 0 1 687.7188 1067.4424)" class="st1 st2">A</text>
	<text transform="matrix(0.9023 0 0 1 782.2188 1067.4424)" class="st1 st2">S</text>
	<text transform="matrix(0.9023 0 0 1 876.7168 1067.4424)" class="st1 st2">A</text>
	<text transform="matrix(0.9023 0 0 1 971.2168 1067.4424)" class="st1 st2">M</text>
	<text transform="matrix(0.9023 0 0 1 1065.7168 1067.4424)" class="st1 st2">P</text>
	<text transform="matrix(0.9023 0 0 1 1159.2158 1067.4424)" class="st1 st2">M</text>
	<text transform="matrix(0.9023 0 0 1 1254.7139 1067.4424)" class="st1 st2"> </text>
	<text transform="matrix(0.9023 0 0 1 215.2227 1183.6846)" class="st1 st2">A</text>
	<text transform="matrix(0.9023 0 0 1 309.7217 1183.6846)" class="st1 st2">C</text>
	<text transform="matrix(0.9023 0 0 1 404.2217 1183.6846)" class="st1 st2">Q</text>
	<text transform="matrix(0.9023 0 0 1 498.7197 1183.6846)" class="st1 st2">U</text>
	<text transform="matrix(0.9023 0 0 1 593.2188 1183.6846)" class="st1 st2">A</text>
	<text transform="matrix(0.9023 0 0 1 687.7188 1183.6846)" class="st1 st2">R</text>
	<text transform="matrix(0.9023 0 0 1 782.2188 1183.6846)" class="st1 st2">T</text>
	<text transform="matrix(0.9023 0 0 1 876.7168 1183.6846)" class="st1 st2">E</text>
	<text transform="matrix(0.9023 0 0 1 971.2168 1183.6846)" class="st1 st2">R</text>
	<text transform="matrix(0.9023 0 0 1 1065.7168 1183.6846)" class="st1 st2">D</text>
	<text transform="matrix(0.9023 0 0 1 1160.2158 1183.6846)" class="st1 st2">C</text>
	<text transform="matrix(0.9023 0 0 1 1254.7139 1183.6846)" class="st1 st2"> </text>
	<text transform="matrix(0.9023 0 0 1 215.2227 1299.9287)" class="st1 st2">T</text>
	<text transform="matrix(0.9023 0 0 1 303.7217 1299.9287)" class="st1 st2">W</text>
	<text transform="matrix(0.9023 0 0 1 404.2217 1299.9287)" class="st1 st2">E</text>
	<text transform="matrix(0.9023 0 0 1 498.7197 1299.9287)" class="st1 st2">N</text>
	<text transform="matrix(0.9023 0 0 1 593.2188 1299.9287)" class="st1 st2">T</text>
	<text transform="matrix(0.9023 0 0 1 687.7188 1299.9287)" class="st1 st2">Y</text>
	<text transform="matrix(0.9023 0 0 1 782.2188 1299.9287)" class="st1 st2">F</text>
	<text transform="matrix(0.9023 0 0 1 888.7168 1299.9287)" class="st1 st2">I</text>
	<text transform="matrix(0.9023 0 0 1 971.2168 1299.9287)" class="st1 st2">V</text>
	<text transform="matrix(0.9023 0 0 1 1065.7168 1299.9287)" class="st1 st2">E</text>
	<text transform="matrix(0.9023 0 0 1 1160.2158 1299.9287)" class="st1 st2">X</text>
	<text transform="matrix(0.9023 0 0 1 1254.7139 1299.9287)" class="st1 st2"> </text>
	<text transform="matrix(0.9023 0 0 1 215.2227 1416.1709)" class="st1 st2">H</text>
	<text transform="matrix(0.9023 0 0 1 309.7217 1416.1709)" class="st1 st2">A</text>
	<text transform="matrix(0.9023 0 0 1 404.2217 1416.1709)" class="st1 st2">L</text>
	<text transform="matrix(0.9023 0 0 1 498.7197 1416.1709)" class="st1 st2">F</text>
	<text transform="matrix(0.9023 0 0 1 593.2188 1416.1709)" class="st1 st2">S</text>
	<text transform="matrix(0.9023 0 0 1 687.7188 1416.1709)" class="st1 st2">T</text>
	<text transform="matrix(0.9023 0 0 1 782.2188 1416.1709)" class="st1 st2">E</text>
	<text transform="matrix(0.9023 0 0 1 876.7168 1416.1709)" class="st1 st2">N</text>
	<text transform="matrix(0.9023 0 0 1 971.2168 1416.1709)" class="st1 st2">F</text>
	<text transform="matrix(0.9023 0 0 1 1065.7168 1416.1709)" class="st1 st2">T</text>
	<text transform="matrix(0.9023 0 0 1 1160.2158 1416.1709)" class="st1 st2">O</text>
	<text transform="matrix(0.9023 0 0 1 1254.7139 1416.1709)" class="st1 st2"> </text>
	<text transform="matrix(0.9023 0 0 1 215.2227 1532.415)" class="st1 st2">P</text>
	<text transform="matrix(0.9023 0 0 1 309.7217 1532.415)" class="st1 st2">A</text>
	<text transform="matrix(0.9023 0 0 1 404.2217 1532.415)" class="st1 st2">S</text>
	<text transform="matrix(0.9023 0 0 1 498.7197 1532.415)" class="st1 st2">T</text>
	<text transform="matrix(0.9023 0 0 1 593.2188 1532.415)" class="st1 st2">E</text>
	<text transform="matrix(0.9023 0 0 1 687.7188 1532.415)" class="st1 st2">R</text>
	<text transform="matrix(0.9023 0 0 1 782.2188 1532.415)" class="st1 st2">U</text>
	<text transform="matrix(0.9023 0 0 1 876.7168 1532.415)" class="st1 st2">N</text>
	<text transform="matrix(0.9023 0 0 1 983.2168 1532.415)" class="st1 st2">I</text>
	<text transform="matrix(0.9023 0 0 1 1065.7168 1532.415)" class="st1 st2">N</text>
	<text transform="matrix(0.9023 0 0 1 1160.2158 1532.415)" class="st1 st2">E</text>
	<text transform="matrix(0.9023 0 0 1 1254.7139 1532.415)" class="st1 st2"> </text>
	<text transform="matrix(0.9023 0 0 1 215.2227 1648.6572)" class="st1 st2">O</text>
	<text transform="matrix(0.9023 0 0 1 309.7217 1648.6572)" class="st1 st2">N</text>
	<text transform="matrix(0.9023 0 0 1 404.2217 1648.6572)" class="st1 st2">E</text>
	<text transform="matrix(0.9023 0 0 1 498.7197 1648.6572)" class="st1 st2">S</text>
	<text transform="matrix(0.9023 0 0 1 605.2188 1648.6572)" class="st1 st2">I</text>
	<text transform="matrix(0.9023 0 0 1 687.7188 1648.6572)" class="st1 st2">X</text>
	<text transform="matrix(0.9023 0 0 1 782.2188 1648.6572)" class="st1 st2">T</text>
	<text transform="matrix(0.9023 0 0 1 876.7168 1648.6572)" class="st1 st2">H</text>
	<text transform="matrix(0.9023 0 0 1 971.2168 1648.6572)" class="st1 st2">R</text>
	<text transform="matrix(0.9023 0 0 1 1065.7168 1648.6572)" class="st1 st2">E</text>
	<text transform="matrix(0.9023 0 0 1 1160.2158 1648.6572)" class="st1 st2">E</text>
	<text transform="matrix(0.9023 0 0 1 1254.7139 1648.6572)" class="st1 st2"> </text>
	<text transform="matrix(0.9023 0 0 1 215.2227 1764.9014)" class="st1 st2">F</text>
	<text transform="matrix(0.9023 0 0 1 309.7217 1764.9014)" class="st1 st2">O</text>
	<text transform="matrix(0.9023 0 0 1 404.2217 1764.9014)" class="st1 st2">U</text>
	<text transform="matrix(0.9023 0 0 1 498.7197 1764.9014)" class="st1 st2">R</text>
	<text transform="matrix(0.9023 0 0 1 593.2188 1764.9014)" class="st1 st2">F</text>
	<text transform="matrix(0.9023 0 0 1 699.7188 1764.9014)" class="st1 st2">I</text>
	<text transform="matrix(0.9023 0 0 1 782.2188 1764.9014)" class="st1 st2">V</text>
	<text transform="matrix(0.9023 0 0 1 876.7168 1764.9014)" class="st1 st2">E</text>
	<text transform="matrix(0.9023 0 0 1 971.2168 1764.9014)" class="st1 st2">T</text>
	<text transform="matrix(0.9023 0 0 1 1059.7168 1764.9014)" class="st1 st2">W</text>
	<text transform="matrix(0.9023 0 0 1 1160.2158 1764.9014)" class="st1 st2">O</text>
	<text transform="matrix(0.9023 0 0 1 1254.7139 1764.9014)" class="st1 st2"> </text>
	<text transform="matrix(0.9023 0 0 1 215.2227 1881.1465)" class="st1 st2">E</text>
	<text transform="matrix(0.9023 0 0 1 321.7217 1881.1465)" class="st1 st2">I</text>
	<text transform="matrix(0.9023 0 0 1 404.2217 1881.1465)" class="st1 st2">G</text>
	<text transform="matrix(0.9023 0 0 1 498.7197 1881.1465)" class="st1 st2">H</text>
	<text transform="matrix(0.9023 0 0 1 593.2188 1881.1465)" class="st1 st2">T</text>
	<text transform="matrix(0.9023 0 0 1 687.7188 1881.1465)" class="st1 st2">E</text>
	<text transform="matrix(0.9023 0 0 1 782.2188 1881.1465)" class="st1 st2">L</text>
	<text transform="matrix(0.9023 0 0 1 876.7168 1881.1465)" class="st1 st2">E</text>
	<text transform="matrix(0.9023 0 0 1 971.2168 1881.1465)" class="st1 st2">V</text>
	<text transform="matrix(0.9023 0 0 1 1065.7168 1881.1465)" class="st1 st2">E</text>
	<text transform="matrix(0.9023 0 0 1 1160.2158 1881.1465)" class="st1 st2">N</text>
	<text transform="matrix(0.9023 0 0 1 1254.7139 1881.1465)" class="st1 st2"> </text>
	<text transform="matrix(0.9023 0 0 1 215.2227 1997.3877)" class="st1 st2">S</text>
	<text transform="matrix(0.9023 0 0 1 309.7217 1997.3877)" class="st1 st2">E</text>
	<text transform="matrix(0.9023 0 0 1 404.2217 1997.3877)" class="st1 st2">V</text>
	<text transform="matrix(0.9023 0 0 1 498.7197 1997.3877)" class="st1 st2">E</text>
	<text transform="matrix(0.9023 0 0 1 593.2188 1997.3877)" class="st1 st2">N</text>
	<text transform="matrix(0.9023 0 0 1 687.7188 1997.3877)" class="st1 st2">T</text>
	<text transform="matrix(0.9023 0 0 1 776.2188 1997.3877)" class="st1 st2">W</text>
	<text transform="matrix(0.9023 0 0 1 876.7168 1997.3877)" class="st1 st2">E</text>
	<text transform="matrix(0.9023 0 0 1 971.2168 1997.3877)" class="st1 st2">L</text>
	<text transform="matrix(0.9023 0 0 1 1065.7168 1997.3877)" class="st1 st2">V</text>
	<text transform="matrix(0.9023 0 0 1 1160.2158 1997.3877)" class="st1 st2">E</text>
	<text transform="matrix(0.9023 0 0 1 1254.7139 1997.3877)" class="st1 st2"> </text>
	<text transform="matrix(0.9023 0 0 1 215.2227 2113.6318)" class="st1 st2">T</text>
	<text transform="matrix(0.9023 0 0 1 309.7217 2113.6318)" class="st1 st2">E</text>
	<text transform="matrix(0.9023 0 0 1 404.2217 2113.6318)" class="st1 st2">N</text>
	<text transform="matrix(0.9023 0 0 1 498.7197 2113.6318)" class="st1 st2">S</text>
	<text transform="matrix(0.9023 0 0 1 593.2188 2113.6318)" class="st1 st2">E</text>
	<text transform="matrix(0.9023 0 0 1 683.7178 2113.6318)" class="st1 st2">O</text>
	<text transform="matrix(0.9023 0 0 1 728.2188 2113.6318)" class="st1 st2">&apos;</text>
	<text transform="matrix(0.9023 0 0 1 781.8184 2113.6318)" class="st1 st2">C</text>
	<text transform="matrix(0.9023 0 0 1 876.3174 2113.6318)" class="st1 st2">L</text>
	<text transform="matrix(0.9023 0 0 1 970.8154 2113.6318)" class="st1 st2">O</text>
	<text transform="matrix(0.9023 0 0 1 1065.3154 2113.6318)" class="st1 st2">C</text>
	<text transform="matrix(0.9023 0 0 1 1159.8154 2113.6318)" class="st1 st2">K</text>
</g>
<g class="st3">
	<rect x="194.2" y="141.4" class="st4" width="85" height="85"/>
	<rect x="288.6" y="141.4" class="st5" width="85" height="85"/>
	<rect x="383" y="141.4" class="st4" width="85" height="85"/>
	<rect x="477.4" y="141.4" class="st4" width="85" height="85"/>
	<rect x="571.7" y="141.4" class="st4" width="85" height="85"/>
	<rect x="666.1" y="141.4" class="st4" width="85" height="85"/>
	<rect x="760.5" y="141.4" class="st4" width="85" height="85"/>
	<rect x="854.9" y="141.4" class="st4" width="85" height="85"/>
	<rect x="949.3" y="141.4" class="st4" width="85" height="85"/>
	<rect x="1043.7" y="141.4" class="st4" width="85" height="85"/>
	<rect x="1138.1" y="141.4" class="st4" width="85" height="85"/>
	<rect x="194.2" y="257.3" class="st4" width="85" height="85"/>
	<rect x="288.6" y="257.3" class="st4" width="85" height="85"/>
	<rect x="383" y="257.3" class="st4" width="85" height="85"/>
	<rect x="477.4" y="257.3" class="st4" width="85" height="85"/>
	<rect x="571.7" y="257.3" class="st4" width="85" height="85"/>
	<rect x="666.1" y="257.3" class="st4" width="85" height="85"/>
	<rect x="760.5" y="257.3" class="st4" width="85" height="85"/>
	<rect x="854.9" y="257.3" class="st4" width="85" height="85"/>
	<rect x="949.3" y="257.3" class="st4" width="85" height="85"/>
	<rect x="1043.7" y="257.3" class="st4" width="85" height="85"/>
	<rect x="1138.1" y="257.3" class="st4" width="85" height="85"/>
	<rect x="194.2" y="373.3" class="st4" width="85" height="85"/>
	<rect x="288.6" y="373.3" class="st4" width="85" height="85"/>
	<rect x="383" y="373.3" class="st4" width="85" height="85"/>
	<rect x="477.4" y="373.3" class="st4" width="85" height="85"/>
	<rect x="571.7" y="373.3" class="st4" width="85" height="85"/>
	<rect x="666.1" y="373.3" class="st4" width="85" height="85"/>
	<rect x="760.5" y="373.3" class="st4" width="85" height="85"/>
	<rect x="854.9" y="373.3" class="st4" width="85" height="85"/>
	<rect x="949.3" y="373.3" class="st4" width="85" height="85"/>
	<rect x="1043.7" y="373.3" class="st4" width="85" height="85"/>
	<rect x="1138.1" y="373.3" class="st4" width="85" height="85"/>
	<rect x="194.2" y="489.2" class="st4" width="85" height="85"/>
	<rect x="288.6" y="489.2" class="st4" width="85" height="85"/>
	<rect x="383" y="489.2" class="st4" width="85" height="85"/>
	<rect x="477.4" y="489.2" class="st4" width="85" height="85"/>
	<rect x="571.7" y="489.2" class="st4" width="85" height="85"/>
	<rect x="666.1" y="489.2" class="st4" width="85" height="85"/>
	<rect x="760.5" y="489.2" class="st4" width="85" height="85"/>
	<rect x="854.9" y="489.2" class="st4" width="85" height="85"/>
	<rect x="949.3" y="489.2" class="st4" width="85" height="85"/>
	<rect x="1043.7" y="489.2" class="st4" width="85" height="85"/>
	<rect x="1138.1" y="489.2" class="st4" width="85" height="85"/>
	<rect x="194.2" y="605.2" class="st4" width="85" height="85"/>
	<rect x="288.6" y="605.2" class="st4" width="85" height="85"/>
	<rect x="383" y="605.2" class="st4" width="85" height="85"/>
	<rect x="477.4" y="605.2" class="st4" width="85" height="85"/>
	<rect x="571.7" y="605.2" class="st4" width="85" height="85"/>
	<rect x="666.1" y="605.2" class="st4" width="85" height="85"/>
	<rect x="760.5" y="605.2" class="st4" width="85" height="85"/>
	<rect x="854.9" y="605.2" class="st4" width="85" height="85"/>
	<rect x="949.3" y="605.2" class="st4" width="85" height="85"/>
	<rect x="1043.7" y="605.2" class="st4" width="85" height="85"/>
	<rect x="1138.1" y="605.2" class="st4" width="85" height="85"/>
	<path class="st4" d="M1417.3,708.7"/>
	<path class="st4" d="M1417.3,708.7"/>
	<rect x="548.7" y="1325.8" class="st4" width="35.4" height="35.4"/>
	<rect x="643.5" y="1325.8" class="st4" width="35.4" height="35.4"/>
	<rect x="738.4" y="1325.8" class="st4" width="35.4" height="35.4"/>
	<rect x="833.2" y="1325.8" class="st4" width="35.4" height="35.4"/>
	<rect x="194.2" y="721.1" class="st4" width="85" height="85"/>
	<rect x="288.6" y="721.1" class="st4" width="85" height="85"/>
	<rect x="383" y="721.1" class="st4" width="85" height="85"/>
	<rect x="477.4" y="721.1" class="st4" width="85" height="85"/>
	<rect x="571.7" y="721.1" class="st4" width="85" height="85"/>
	<rect x="666.1" y="721.1" class="st4" width="85" height="85"/>
	<rect x="760.5" y="721.1" class="st4" width="85" height="85"/>
	<rect x="854.9" y="721.1" class="st4" width="85" height="85"/>
	<rect x="949.3" y="721.1" class="st4" width="85" height="85"/>
	<rect x="1043.7" y="721.1" class="st4" width="85" height="85"/>
	<rect x="1138.1" y="721.1" class="st4" width="85" height="85"/>
	<rect x="194.2" y="837" class="st4" width="85" height="85"/>
	<rect x="288.6" y="837" class="st4" width="85" height="85"/>
	<rect x="383" y="837" class="st4" width="85" height="85"/>
	<rect x="477.4" y="837" class="st4" width="85" height="85"/>
	<rect x="571.7" y="837" class="st4" width="85" height="85"/>
	<rect x="666.1" y="837" class="st4" width="85" height="85"/>
	<rect x="760.5" y="837" class="st4" width="85" height="85"/>
	<rect x="854.9" y="837" class="st4" width="85" height="85"/>
	<rect x="949.3" y="837" class="st4" width="85" height="85"/>
	<rect x="1043.7" y="837" class="st4" width="85" height="85"/>
	<rect x="1138.1" y="837" class="st4" width="85" height="85"/>
	<rect x="194.2" y="953" class="st4" width="85" height="85"/>
	<rect x="288.6" y="953" class="st4" width="85" height="85"/>
	<rect x="383" y="953" class="st4" width="85" height="85"/>
	<rect x="477.4" y="953" class="st4" width="85" height="85"/>
	<rect x="571.7" y="953" class="st4" width="85" height="85"/>
	<rect x="666.1" y="953" class="st4" width="85" height="85"/>
	<rect x="760.5" y="953" class="st4" width="85" height="85"/>
	<rect x="854.9" y="953" class="st4" width="85" height="85"/>
	<rect x="949.3" y="953" class="st4" width="85" height="85"/>
	<rect x="1043.7" y="953" class="st4" width="85" height="85"/>
	<rect x="1138.1" y="953" class="st4" width="85" height="85"/>
	<rect x="194.2" y="1068.9" class="st4" width="85" height="85"/>
	<rect x="288.6" y="1068.9" class="st4" width="85" height="85"/>
	<rect x="383" y="1068.9" class="st4" width="85" height="85"/>
	<rect x="477.4" y="1068.9" class="st4" width="85" height="85"/>
	<rect x="571.7" y="1068.9" class="st4" width="85" height="85"/>
	<rect x="666.1" y="1068.9" class="st4" width="85" height="85"/>
	<rect x="760.5" y="1068.9" class="st4" width="85" height="85"/>
	<rect x="854.9" y="1068.9" class="st4" width="85" height="85"/>
	<rect x="949.3" y="1068.9" class="st4" width="85" height="85"/>
	<rect x="1043.7" y="1068.9" class="st4" width="85" height="85"/>
	<rect x="1138.1" y="1068.9" class="st4" width="85" height="85"/>
	<rect x="194.2" y="1184.8" class="st4" width="85" height="85"/>
	<rect x="288.6" y="1184.8" class="st4" width="85" height="85"/>
	<rect x="383" y="1184.8" class="st4" width="85" height="85"/>
	<rect x="477.4" y="1184.8" class="st4" width="85" height="85"/>
	<rect x="571.7" y="1184.8" class="st4" width="85" height="85"/>
	<rect x="666.1" y="1184.8" class="st4" width="85" height="85"/>
	<rect x="760.5" y="1184.8" class="st4" width="85" height="85"/>
	<rect x="854.9" y="1184.8" class="st4" width="85" height="85"/>
	<rect x="949.3" y="1184.8" class="st4" width="85" height="85"/>
	<rect x="1043.7" y="1184.8" class="st4" width="85" height="85"/>
	<rect x="1138.1" y="1184.8" class="st4" width="85" height="85"/>
	<path class="st4" d="M1417.3,708.7"/>
	<rect class="st4" width="1417.3" height="1417.3"/>
	<path class="st4" d="M1417.3,0"/>
</g>
</svg>
