<?xml version="1.0" encoding="utf-8"?>
<!-- Generator: Adobe Illustrator 24.3.0, SVG Export Plug-In . SVG Version: 6.00 Build 0)  -->
<svg version="1.1"
	 id="svg918" inkscape:version="0.92.4 (5da689c313, 2019-01-14)" xmlns:cc="http://creativecommons.org/ns#" xmlns:dc="http://purl.org/dc/elements/1.1/" xmlns:inkscape="http://www.inkscape.org/namespaces/inkscape" xmlns:rdf="http://www.w3.org/1999/02/22-rdf-syntax-ns#" xmlns:sodipodi="http://sodipodi.sourceforge.net/DTD/sodipodi-0.dtd" xmlns:svg="http://www.w3.org/2000/svg"
	 xmlns="http://www.w3.org/2000/svg" xmlns:xlink="http://www.w3.org/1999/xlink" x="0px" y="0px" viewBox="0 0 1417.3 1417.3"
	 style="enable-background:new 0 0 1417.3 1417.3;" xml:space="preserve">
<style type="text/css">
	.st0{fill:#000055;fill-opacity:0.1647;}
	.st1{font-family:'Helvetica';}
	.st2{font-size:62.7495px;}
	.st3{display:none;}
	.st4{display:inline;fill:none;stroke:#FF0000;stroke-width:0.1;stroke-miterlimit:10;}
	.st5{display:inline;opacity:0.99;fill:none;stroke:#FF0000;stroke-width:0.1;stroke-miterlimit:10;}
</style>
<g id="g916" transform="translate(0,-861.73197)">
	<path id="path2" inkscape:connector-curvature="0" class="st0" d="M0,861.7h1417.3V2279H0V861.7z"/>
	<circle id="circle6" cx="566.6" cy="2205.2" r="10.7"/>
	
		<ellipse id="circle6_1_" transform="matrix(0.7071 -0.7071 0.7071 0.7071 -1365.6824 1113.4238)" cx="661.2" cy="2205.2" rx="10.6" ry="10.7"/>
	
		<ellipse id="circle6_2_" transform="matrix(0.7071 -0.7071 0.7071 0.7071 -1337.8657 1180.5065)" cx="756.1" cy="2205.2" rx="10.6" ry="10.7"/>
	
		<ellipse id="circle6_3_" transform="matrix(0.7071 -0.7071 0.7071 0.7071 -1310.1202 1247.5605)" cx="850.9" cy="2205.2" rx="10.6" ry="10.7"/>
	<text transform="matrix(0.9562 0 0 1 221.6218 1028.3007)" class="st1 st2">E</text>
	<text transform="matrix(0.9562 0 0 1 316.1208 1028.3007)" class="st1 st2">S</text>
	<text transform="matrix(0.9562 0 0 1 410.6208 1028.3007)" class="st1 st2">K</text>
	<text transform="matrix(0.9562 0 0 1 517.1189 1028.3007)" class="st1 st2">I</text>
	<text transform="matrix(0.9562 0 0 1 599.6179 1028.3007)" class="st1 st2">S</text>
	<text transform="matrix(0.9562 0 0 1 694.1184 1028.3007)" class="st1 st2">T</text>
	<text transform="matrix(0.9562 0 0 1 788.6184 1028.3007)" class="st1 st2">R</text>
	<text transform="matrix(0.9562 0 0 1 883.1165 1028.3007)" class="st1 st2">F</text>
	<text transform="matrix(0.9562 0 0 1 977.6165 1028.3007)" class="st1 st2">Ü</text>
	<text transform="matrix(0.9562 0 0 1 1072.1165 1028.3007)" class="st1 st2">N</text>
	<text transform="matrix(0.9562 0 0 1 1166.6155 1028.3007)" class="st1 st2">F</text>
	<text transform="matrix(0.9562 0 0 1 221.6218 1137.9872)" class="st1 st2">Z</text>
	<text transform="matrix(0.9562 0 0 1 316.1208 1137.9872)" class="st1 st2">E</text>
	<text transform="matrix(0.9562 0 0 1 410.6208 1137.9872)" class="st1 st2">H</text>
	<text transform="matrix(0.9562 0 0 1 505.1189 1137.9872)" class="st1 st2">N</text>
	<text transform="matrix(0.9562 0 0 1 599.6179 1137.9872)" class="st1 st2">Z</text>
	<text transform="matrix(0.9562 0 0 1 688.1184 1137.9872)" class="st1 st2">W</text>
	<text transform="matrix(0.9562 0 0 1 788.6184 1137.9872)" class="st1 st2">A</text>
	<text transform="matrix(0.9562 0 0 1 883.1165 1137.9872)" class="st1 st2">N</text>
	<text transform="matrix(0.9562 0 0 1 977.6165 1137.9872)" class="st1 st2">Z</text>
	<text transform="matrix(0.9562 0 0 1 1084.1165 1137.9872)" class="st1 st2">I</text>
	<text transform="matrix(0.9562 0 0 1 1166.6155 1137.9872)" class="st1 st2">G</text>
	<text transform="matrix(0.9562 0 0 1 221.6218 1247.6757)" class="st1 st2">D</text>
	<text transform="matrix(0.9562 0 0 1 316.1208 1247.6757)" class="st1 st2">R</text>
	<text transform="matrix(0.9562 0 0 1 410.6208 1247.6757)" class="st1 st2">E</text>
	<text transform="matrix(0.9562 0 0 1 517.1189 1247.6757)" class="st1 st2">I</text>
	<text transform="matrix(0.9562 0 0 1 599.6179 1247.6757)" class="st1 st2">V</text>
	<text transform="matrix(0.9562 0 0 1 706.1184 1247.6757)" class="st1 st2">I</text>
	<text transform="matrix(0.9562 0 0 1 788.6184 1247.6757)" class="st1 st2">E</text>
	<text transform="matrix(0.9562 0 0 1 883.1165 1247.6757)" class="st1 st2">R</text>
	<text transform="matrix(0.9562 0 0 1 977.6165 1247.6757)" class="st1 st2">T</text>
	<text transform="matrix(0.9562 0 0 1 1072.1165 1247.6757)" class="st1 st2">E</text>
	<text transform="matrix(0.9562 0 0 1 1166.6155 1247.6757)" class="st1 st2">L</text>
	<text transform="matrix(0.9562 0 0 1 221.6218 1357.3641)" class="st1 st2">T</text>
	<text transform="matrix(0.9562 0 0 1 316.1208 1357.3641)" class="st1 st2">G</text>
	<text transform="matrix(0.9562 0 0 1 410.6208 1357.3641)" class="st1 st2">N</text>
	<text transform="matrix(0.9562 0 0 1 505.1189 1357.3641)" class="st1 st2">A</text>
	<text transform="matrix(0.9562 0 0 1 599.6179 1357.3641)" class="st1 st2">C</text>
	<text transform="matrix(0.9562 0 0 1 694.1184 1357.3641)" class="st1 st2">H</text>
	<text transform="matrix(0.9562 0 0 1 788.6184 1357.3641)" class="st1 st2">V</text>
	<text transform="matrix(0.9562 0 0 1 883.1165 1357.3641)" class="st1 st2">O</text>
	<text transform="matrix(0.9562 0 0 1 977.6165 1357.3641)" class="st1 st2">R</text>
	<text transform="matrix(0.9562 0 0 1 1072.1165 1357.3641)" class="st1 st2">U</text>
	<text transform="matrix(0.9562 0 0 1 1166.6155 1357.3641)" class="st1 st2">M</text>
	<text transform="matrix(0.9562 0 0 1 221.6218 1467.0536)" class="st1 st2">H</text>
	<text transform="matrix(0.9562 0 0 1 316.1208 1467.0536)" class="st1 st2">A</text>
	<text transform="matrix(0.9562 0 0 1 410.6208 1467.0536)" class="st1 st2">L</text>
	<text transform="matrix(0.9562 0 0 1 505.1189 1467.0536)" class="st1 st2">B</text>
	<text transform="matrix(0.9562 0 0 1 599.6179 1467.0536)" class="st1 st2">G</text>
	<text transform="matrix(0.9562 0 0 1 694.1184 1467.0536)" class="st1 st2">Z</text>
	<text transform="matrix(0.9562 0 0 1 782.6184 1467.0536)" class="st1 st2">W</text>
	<text transform="matrix(0.9562 0 0 1 883.1165 1467.0536)" class="st1 st2">Ö</text>
	<text transform="matrix(0.9562 0 0 1 977.6165 1467.0536)" class="st1 st2">L</text>
	<text transform="matrix(0.9562 0 0 1 1072.1165 1467.0536)" class="st1 st2">F</text>
	<text transform="matrix(0.9562 0 0 1 1166.6155 1467.0536)" class="st1 st2">J</text>
	<text transform="matrix(0.9562 0 0 1 221.6218 1576.7391)" class="st1 st2">Z</text>
	<text transform="matrix(0.9562 0 0 1 316.1208 1576.7391)" class="st1 st2">W</text>
	<text transform="matrix(0.9562 0 0 1 410.6208 1576.7391)" class="st1 st2">E</text>
	<text transform="matrix(0.9562 0 0 1 517.1189 1576.7391)" class="st1 st2">I</text>
	<text transform="matrix(0.9562 0 0 1 599.6179 1576.7391)" class="st1 st2">N</text>
	<text transform="matrix(0.9562 0 0 1 694.1184 1576.7391)" class="st1 st2">S</text>
	<text transform="matrix(0.9562 0 0 1 800.6174 1576.7391)" class="st1 st2">I</text>
	<text transform="matrix(0.9562 0 0 1 883.1165 1576.7391)" class="st1 st2">E</text>
	<text transform="matrix(0.9562 0 0 1 977.6165 1576.7391)" class="st1 st2">B</text>
	<text transform="matrix(0.9562 0 0 1 1072.1165 1576.7391)" class="st1 st2">E</text>
	<text transform="matrix(0.9562 0 0 1 1166.6155 1576.7391)" class="st1 st2">N</text>
	<text transform="matrix(0.9562 0 0 1 221.6218 1686.4286)" class="st1 st2">K</text>
	<text transform="matrix(0.9562 0 0 1 316.1208 1686.4286)" class="st1 st2">D</text>
	<text transform="matrix(0.9562 0 0 1 410.6208 1686.4286)" class="st1 st2">R</text>
	<text transform="matrix(0.9562 0 0 1 505.1189 1686.4286)" class="st1 st2">E</text>
	<text transform="matrix(0.9562 0 0 1 611.6179 1686.4286)" class="st1 st2">I</text>
	<text transform="matrix(0.9562 0 0 1 694.1184 1686.4286)" class="st1 st2">R</text>
	<text transform="matrix(0.9562 0 0 1 788.6184 1686.4286)" class="st1 st2">H</text>
	<text transform="matrix(0.9562 0 0 1 883.1165 1686.4286)" class="st1 st2">F</text>
	<text transform="matrix(0.9562 0 0 1 977.6165 1686.4286)" class="st1 st2">Ü</text>
	<text transform="matrix(0.9562 0 0 1 1072.1165 1686.4286)" class="st1 st2">N</text>
	<text transform="matrix(0.9562 0 0 1 1166.6155 1686.4286)" class="st1 st2">F</text>
	<text transform="matrix(0.9562 0 0 1 221.6218 1796.118)" class="st1 st2">E</text>
	<text transform="matrix(0.9562 0 0 1 316.1208 1796.118)" class="st1 st2">L</text>
	<text transform="matrix(0.9562 0 0 1 410.6208 1796.118)" class="st1 st2">F</text>
	<text transform="matrix(0.9562 0 0 1 505.1189 1796.118)" class="st1 st2">N</text>
	<text transform="matrix(0.9562 0 0 1 599.6179 1796.118)" class="st1 st2">E</text>
	<text transform="matrix(0.9562 0 0 1 694.1184 1796.118)" class="st1 st2">U</text>
	<text transform="matrix(0.9562 0 0 1 788.6184 1796.118)" class="st1 st2">N</text>
	<text transform="matrix(0.9562 0 0 1 883.1165 1796.118)" class="st1 st2">V</text>
	<text transform="matrix(0.9562 0 0 1 989.6165 1796.118)" class="st1 st2">I</text>
	<text transform="matrix(0.9562 0 0 1 1072.1165 1796.118)" class="st1 st2">E</text>
	<text transform="matrix(0.9562 0 0 1 1166.6155 1796.118)" class="st1 st2">R</text>
	<text transform="matrix(0.9562 0 0 1 221.6218 1905.8055)" class="st1 st2">N</text>
	<text transform="matrix(0.9562 0 0 1 316.1208 1905.8055)" class="st1 st2">A</text>
	<text transform="matrix(0.9562 0 0 1 410.6208 1905.8055)" class="st1 st2">C</text>
	<text transform="matrix(0.9562 0 0 1 505.1189 1905.8055)" class="st1 st2">H</text>
	<text transform="matrix(0.9562 0 0 1 599.6179 1905.8055)" class="st1 st2">T</text>
	<text transform="matrix(0.9562 0 0 1 694.1184 1905.8055)" class="st1 st2">Z</text>
	<text transform="matrix(0.9562 0 0 1 788.6184 1905.8055)" class="st1 st2">E</text>
	<text transform="matrix(0.9562 0 0 1 883.1165 1905.8055)" class="st1 st2">H</text>
	<text transform="matrix(0.9562 0 0 1 977.6165 1905.8055)" class="st1 st2">N</text>
	<text transform="matrix(0.9562 0 0 1 1072.1165 1905.8055)" class="st1 st2">B</text>
	<text transform="matrix(0.9562 0 0 1 1166.6155 1905.8055)" class="st1 st2">X</text>
	<text transform="matrix(0.9562 0 0 1 221.6218 2015.493)" class="st1 st2">U</text>
	<text transform="matrix(0.9562 0 0 1 316.1208 2015.493)" class="st1 st2">S</text>
	<text transform="matrix(0.9562 0 0 1 410.6208 2015.493)" class="st1 st2">E</text>
	<text transform="matrix(0.9562 0 0 1 505.1189 2015.493)" class="st1 st2">C</text>
	<text transform="matrix(0.9562 0 0 1 599.6179 2015.493)" class="st1 st2">H</text>
	<text transform="matrix(0.9562 0 0 1 694.1184 2015.493)" class="st1 st2">S</text>
	<text transform="matrix(0.9562 0 0 1 788.6184 2015.493)" class="st1 st2">F</text>
	<text transform="matrix(0.9562 0 0 1 883.1165 2015.493)" class="st1 st2">U</text>
	<text transform="matrix(0.9562 0 0 1 977.6165 2015.493)" class="st1 st2">E</text>
	<text transform="matrix(0.9562 0 0 1 1072.1165 2015.493)" class="st1 st2">R</text>
	<text transform="matrix(0.9562 0 0 1 1166.6155 2015.493)" class="st1 st2">Y</text>
	<text transform="matrix(0.9562 0 0 1 215.6218 2125.1807)" class="st1 st2">W</text>
	<text transform="matrix(0.9562 0 0 1 316.1208 2125.1807)" class="st1 st2">A</text>
	<text transform="matrix(0.9562 0 0 1 410.6208 2125.1807)" class="st1 st2">S</text>
	<text transform="matrix(0.9562 0 0 1 505.1189 2125.1807)" class="st1 st2">D</text>
	<text transform="matrix(0.9562 0 0 1 599.6179 2125.1807)" class="st1 st2">F</text>
	<text transform="matrix(0.9562 0 0 1 694.1184 2125.1807)" class="st1 st2">U</text>
	<text transform="matrix(0.9562 0 0 1 788.6184 2125.1807)" class="st1 st2">N</text>
	<text transform="matrix(0.9562 0 0 1 883.1165 2125.1807)" class="st1 st2">K</text>
	<text transform="matrix(0.9562 0 0 1 977.6165 2125.1807)" class="st1 st2">U</text>
	<text transform="matrix(0.9562 0 0 1 1072.1165 2125.1807)" class="st1 st2">H</text>
	<text transform="matrix(0.9562 0 0 1 1166.6155 2125.1807)" class="st1 st2">R</text>
</g>
<g class="st3">
	<rect x="194.2" y="207.4" class="st4" width="85" height="80.8"/>
	<rect x="288.6" y="207.4" class="st5" width="85" height="80.8"/>
	<rect x="383" y="207.4" class="st4" width="85" height="80.8"/>
	<rect x="477.4" y="207.4" class="st4" width="85" height="80.8"/>
	<rect x="571.7" y="207.4" class="st4" width="85" height="80.8"/>
	<rect x="666.1" y="207.4" class="st4" width="85" height="80.8"/>
	<rect x="760.5" y="207.4" class="st4" width="85" height="80.8"/>
	<rect x="854.9" y="207.4" class="st4" width="85" height="80.8"/>
	<rect x="949.3" y="207.4" class="st4" width="85" height="80.8"/>
	<rect x="1043.7" y="207.4" class="st4" width="85" height="80.8"/>
	<rect x="1138.1" y="207.4" class="st4" width="85" height="80.8"/>
	<rect x="194.2" y="317.5" class="st4" width="85" height="80.8"/>
	<rect x="288.6" y="317.5" class="st4" width="85" height="80.8"/>
	<rect x="383" y="317.5" class="st4" width="85" height="80.8"/>
	<rect x="477.4" y="317.5" class="st4" width="85" height="80.8"/>
	<rect x="571.7" y="317.5" class="st4" width="85" height="80.8"/>
	<rect x="666.1" y="317.5" class="st4" width="85" height="80.8"/>
	<rect x="760.5" y="317.5" class="st4" width="85" height="80.8"/>
	<rect x="854.9" y="317.5" class="st4" width="85" height="80.8"/>
	<rect x="949.3" y="317.5" class="st4" width="85" height="80.8"/>
	<rect x="1043.7" y="317.5" class="st4" width="85" height="80.8"/>
	<rect x="1138.1" y="317.5" class="st4" width="85" height="80.8"/>
	<rect x="194.2" y="427.7" class="st4" width="85" height="80.8"/>
	<rect x="288.6" y="427.7" class="st4" width="85" height="80.8"/>
	<rect x="383" y="427.7" class="st4" width="85" height="80.8"/>
	<rect x="477.4" y="427.7" class="st4" width="85" height="80.8"/>
	<rect x="571.7" y="427.7" class="st4" width="85" height="80.8"/>
	<rect x="666.1" y="427.7" class="st4" width="85" height="80.8"/>
	<rect x="760.5" y="427.7" class="st4" width="85" height="80.8"/>
	<rect x="854.9" y="427.7" class="st4" width="85" height="80.8"/>
	<rect x="949.3" y="427.7" class="st4" width="85" height="80.8"/>
	<rect x="1043.7" y="427.7" class="st4" width="85" height="80.8"/>
	<rect x="1138.1" y="427.7" class="st4" width="85" height="80.8"/>
	<rect x="194.2" y="537.8" class="st4" width="85" height="80.8"/>
	<rect x="288.6" y="537.8" class="st4" width="85" height="80.8"/>
	<rect x="383" y="537.8" class="st4" width="85" height="80.8"/>
	<rect x="477.4" y="537.8" class="st4" width="85" height="80.8"/>
	<rect x="571.7" y="537.8" class="st4" width="85" height="80.8"/>
	<rect x="666.1" y="537.8" class="st4" width="85" height="80.8"/>
	<rect x="760.5" y="537.8" class="st4" width="85" height="80.8"/>
	<rect x="854.9" y="537.8" class="st4" width="85" height="80.8"/>
	<rect x="949.3" y="537.8" class="st4" width="85" height="80.8"/>
	<rect x="1043.7" y="537.8" class="st4" width="85" height="80.8"/>
	<rect x="1138.1" y="537.8" class="st4" width="85" height="80.8"/>
	<rect x="194.2" y="647.9" class="st4" width="85" height="80.8"/>
	<rect x="288.6" y="647.9" class="st4" width="85" height="80.8"/>
	<rect x="383" y="647.9" class="st4" width="85" height="80.8"/>
	<rect x="477.4" y="647.9" class="st4" width="85" height="80.8"/>
	<rect x="571.7" y="647.9" class="st4" width="85" height="80.8"/>
	<rect x="666.1" y="647.9" class="st4" width="85" height="80.8"/>
	<rect x="760.5" y="647.9" class="st4" width="85" height="80.8"/>
	<rect x="854.9" y="647.9" class="st4" width="85" height="80.8"/>
	<rect x="949.3" y="647.9" class="st4" width="85" height="80.8"/>
	<rect x="1043.7" y="647.9" class="st4" width="85" height="80.8"/>
	<rect x="1138.1" y="647.9" class="st4" width="85" height="80.8"/>
	<path class="st4" d="M1417.3,709.2"/>
	<path class="st4" d="M1417.3,709.2"/>
	<rect x="548.7" y="1326.3" class="st4" width="35.4" height="35.4"/>
	<rect x="643.5" y="1326.3" class="st4" width="35.4" height="35.4"/>
	<rect x="738.4" y="1326.3" class="st4" width="35.4" height="35.4"/>
	<rect x="833.2" y="1326.3" class="st4" width="35.4" height="35.4"/>
	<rect x="194.2" y="758.1" class="st4" width="85" height="80.8"/>
	<rect x="288.6" y="758.1" class="st4" width="85" height="80.8"/>
	<rect x="383" y="758.1" class="st4" width="85" height="80.8"/>
	<rect x="477.4" y="758.1" class="st4" width="85" height="80.8"/>
	<rect x="571.7" y="758.1" class="st4" width="85" height="80.8"/>
	<rect x="666.1" y="758.1" class="st4" width="85" height="80.8"/>
	<rect x="760.5" y="758.1" class="st4" width="85" height="80.8"/>
	<rect x="854.9" y="758.1" class="st4" width="85" height="80.8"/>
	<rect x="949.3" y="758.1" class="st4" width="85" height="80.8"/>
	<rect x="1043.7" y="758.1" class="st4" width="85" height="80.8"/>
	<rect x="1138.1" y="758.1" class="st4" width="85" height="80.8"/>
	<rect x="194.2" y="868.2" class="st4" width="85" height="80.8"/>
	<rect x="288.6" y="868.2" class="st4" width="85" height="80.8"/>
	<rect x="383" y="868.2" class="st4" width="85" height="80.8"/>
	<rect x="477.4" y="868.2" class="st4" width="85" height="80.8"/>
	<rect x="571.7" y="868.2" class="st4" width="85" height="80.8"/>
	<rect x="666.1" y="868.2" class="st4" width="85" height="80.8"/>
	<rect x="760.5" y="868.2" class="st4" width="85" height="80.8"/>
	<rect x="854.9" y="868.2" class="st4" width="85" height="80.8"/>
	<rect x="949.3" y="868.2" class="st4" width="85" height="80.8"/>
	<rect x="1043.7" y="868.2" class="st4" width="85" height="80.8"/>
	<rect x="1138.1" y="868.2" class="st4" width="85" height="80.8"/>
	<rect x="194.2" y="978.4" class="st4" width="85" height="80.8"/>
	<rect x="288.6" y="978.4" class="st4" width="85" height="80.8"/>
	<rect x="383" y="978.4" class="st4" width="85" height="80.8"/>
	<rect x="477.4" y="978.4" class="st4" width="85" height="80.8"/>
	<rect x="571.7" y="978.4" class="st4" width="85" height="80.8"/>
	<rect x="666.1" y="978.4" class="st4" width="85" height="80.8"/>
	<rect x="760.5" y="978.4" class="st4" width="85" height="80.8"/>
	<rect x="854.9" y="978.4" class="st4" width="85" height="80.8"/>
	<rect x="949.3" y="978.4" class="st4" width="85" height="80.8"/>
	<rect x="1043.7" y="978.4" class="st4" width="85" height="80.8"/>
	<rect x="1138.1" y="978.4" class="st4" width="85" height="80.8"/>
	<rect x="194.2" y="1088.5" class="st4" width="85" height="80.8"/>
	<rect x="288.6" y="1088.5" class="st4" width="85" height="80.8"/>
	<rect x="383" y="1088.5" class="st4" width="85" height="80.8"/>
	<rect x="477.4" y="1088.5" class="st4" width="85" height="80.8"/>
	<rect x="571.7" y="1088.5" class="st4" width="85" height="80.8"/>
	<rect x="666.1" y="1088.5" class="st4" width="85" height="80.8"/>
	<rect x="760.5" y="1088.5" class="st4" width="85" height="80.8"/>
	<rect x="854.9" y="1088.5" class="st4" width="85" height="80.8"/>
	<rect x="949.3" y="1088.5" class="st4" width="85" height="80.8"/>
	<rect x="1043.7" y="1088.5" class="st4" width="85" height="80.8"/>
	<rect x="1138.1" y="1088.5" class="st4" width="85" height="80.8"/>
	<rect x="194.2" y="1198.7" class="st4" width="85" height="80.8"/>
	<rect x="288.6" y="1198.7" class="st4" width="85" height="80.8"/>
	<rect x="383" y="1198.7" class="st4" width="85" height="80.8"/>
	<rect x="477.4" y="1198.7" class="st4" width="85" height="80.8"/>
	<rect x="571.7" y="1198.7" class="st4" width="85" height="80.8"/>
	<rect x="666.1" y="1198.7" class="st4" width="85" height="80.8"/>
	<rect x="760.5" y="1198.7" class="st4" width="85" height="80.8"/>
	<rect x="854.9" y="1198.7" class="st4" width="85" height="80.8"/>
	<rect x="949.3" y="1198.7" class="st4" width="85" height="80.8"/>
	<rect x="1043.7" y="1198.7" class="st4" width="85" height="80.8"/>
	<rect x="1138.1" y="1198.7" class="st4" width="85" height="80.8"/>
	<rect x="194.2" y="101.4" class="st4" width="85" height="80.8"/>
	<rect x="288.6" y="101.4" class="st4" width="85" height="80.8"/>
	<rect x="383" y="101.4" class="st4" width="85" height="80.8"/>
	<rect x="477.4" y="101.4" class="st4" width="85" height="80.8"/>
	<rect x="571.7" y="101.4" class="st4" width="85" height="80.8"/>
	<rect x="666.1" y="101.4" class="st4" width="85" height="80.8"/>
	<rect x="760.5" y="101.4" class="st4" width="85" height="80.8"/>
	<rect x="854.9" y="101.4" class="st4" width="85" height="80.8"/>
	<rect x="949.3" y="101.4" class="st4" width="85" height="80.8"/>
	<rect x="1043.7" y="101.4" class="st4" width="85" height="80.8"/>
	<rect x="1138.1" y="101.4" class="st4" width="85" height="80.8"/>
</g>
</svg>
