<?xml version="1.0" encoding="utf-8"?>
<!-- Generator: Adobe Illustrator 24.3.0, SVG Export Plug-In . SVG Version: 6.00 Build 0)  -->
<svg version="1.1"
	 id="svg918" inkscape:version="0.92.4 (5da689c313, 2019-01-14)" xmlns:cc="http://creativecommons.org/ns#" xmlns:dc="http://purl.org/dc/elements/1.1/" xmlns:inkscape="http://www.inkscape.org/namespaces/inkscape" xmlns:rdf="http://www.w3.org/1999/02/22-rdf-syntax-ns#" xmlns:sodipodi="http://sodipodi.sourceforge.net/DTD/sodipodi-0.dtd" xmlns:svg="http://www.w3.org/2000/svg"
	 xmlns="http://www.w3.org/2000/svg" xmlns:xlink="http://www.w3.org/1999/xlink" x="0px" y="0px" viewBox="0 0 1417.3 1417.3"
	 style="enable-background:new 0 0 1417.3 1417.3;" xml:space="preserve">
<style type="text/css">
	.st0{fill:#000055;fill-opacity:0.1647;}
	.st1{font-family:'Helvetica';}
	.st2{font-size:66.4995px;}
	.st3{display:none;}
	.st4{display:inline;fill:none;stroke:#FF0000;stroke-width:0.1;stroke-miterlimit:10;}
	.st5{display:inline;opacity:0.99;fill:none;stroke:#FF0000;stroke-width:0.1;stroke-miterlimit:10;}
</style>
<g id="g916" transform="translate(0,-861.73197)">
	<path id="path2" inkscape:connector-curvature="0" class="st0" d="M0,861.7h1417.3V2279H0V861.7z"/>
	<circle id="circle6" cx="566.6" cy="2205.2" r="10.7"/>
	
		<ellipse id="circle6_1_" transform="matrix(0.7071 -0.7071 0.7071 0.7071 -1365.6511 1113.4741)" cx="661.2" cy="2205.2" rx="10.6" ry="10.7"/>
	
		<ellipse id="circle6_2_" transform="matrix(0.7071 -0.7071 0.7071 0.7071 -1337.8706 1180.5415)" cx="756.1" cy="2205.2" rx="10.6" ry="10.7"/>
	
		<ellipse id="circle6_3_" transform="matrix(0.7071 -0.7071 0.7071 0.7071 -1310.0895 1247.6099)" cx="850.9" cy="2205.2" rx="10.6" ry="10.7"/>
	<text transform="matrix(0.9023 0 0 1 218.6221 1069.6016)" class="st1 st2">H</text>
	<text transform="matrix(0.9023 0 0 1 313.1221 1069.6016)" class="st1 st2">E</text>
	<text transform="matrix(0.9023 0 0 1 407.6211 1069.6016)" class="st1 st2">T</text>
	<text transform="matrix(0.9023 0 0 1 502.1201 1069.6016)" class="st1 st2">L</text>
	<text transform="matrix(0.9023 0 0 1 606.6191 1069.6016)" class="st1 st2">I</text>
	<text transform="matrix(0.9023 0 0 1 691.1191 1069.6016)" class="st1 st2">S</text>
	<text transform="matrix(0.9023 0 0 1 785.6182 1069.6016)" class="st1 st2">H</text>
	<text transform="matrix(0.9023 0 0 1 880.1172 1069.6016)" class="st1 st2">N</text>
	<text transform="matrix(0.9023 0 0 1 974.6172 1069.6016)" class="st1 st2">U</text>
	<text transform="matrix(0.9023 0 0 1 1061.1162 1069.6016)" class="st1 st2">W</text>
	<text transform="matrix(0.9023 0 0 1 1163.6152 1069.6016)" class="st1 st2">S</text>
	<text transform="matrix(0.9023 0 0 1 218.6221 1185.8438)" class="st1 st2">T</text>
	<text transform="matrix(0.9023 0 0 1 307.1221 1185.8438)" class="st1 st2">W</text>
	<text transform="matrix(0.9023 0 0 1 419.6211 1185.8438)" class="st1 st2">I</text>
	<text transform="matrix(0.9023 0 0 1 502.1201 1185.8438)" class="st1 st2">N</text>
	<text transform="matrix(0.9023 0 0 1 596.6191 1185.8438)" class="st1 st2">T</text>
	<text transform="matrix(0.9023 0 0 1 703.1191 1185.8438)" class="st1 st2">I</text>
	<text transform="matrix(0.9023 0 0 1 785.6182 1185.8438)" class="st1 st2">G</text>
	<text transform="matrix(0.9023 0 0 1 880.1172 1185.8438)" class="st1 st2">T</text>
	<text transform="matrix(0.9023 0 0 1 986.6162 1185.8438)" class="st1 st2">I</text>
	<text transform="matrix(0.9023 0 0 1 1069.1162 1185.8438)" class="st1 st2">E</text>
	<text transform="matrix(0.9023 0 0 1 1163.6152 1185.8438)" class="st1 st2">N</text>
	<text transform="matrix(0.9023 0 0 1 218.6221 1302.0879)" class="st1 st2">V</text>
	<text transform="matrix(0.9023 0 0 1 325.1221 1302.0879)" class="st1 st2">I</text>
	<text transform="matrix(0.9023 0 0 1 407.6211 1302.0879)" class="st1 st2">J</text>
	<text transform="matrix(0.9023 0 0 1 502.1201 1302.0879)" class="st1 st2">F</text>
	<text transform="matrix(0.9023 0 0 1 596.6191 1302.0879)" class="st1 st2">B</text>
	<text transform="matrix(0.9023 0 0 1 691.1191 1302.0879)" class="st1 st2">Y</text>
	<text transform="matrix(0.9023 0 0 1 785.6182 1302.0879)" class="st1 st2">K</text>
	<text transform="matrix(0.9023 0 0 1 874.1172 1302.0879)" class="st1 st2">W</text>
	<text transform="matrix(0.9023 0 0 1 974.6172 1302.0879)" class="st1 st2">A</text>
	<text transform="matrix(0.9023 0 0 1 1069.1162 1302.0879)" class="st1 st2">R</text>
	<text transform="matrix(0.9023 0 0 1 1163.6152 1302.0879)" class="st1 st2">T</text>
	<text transform="matrix(0.9023 0 0 1 218.6221 1418.3301)" class="st1 st2">V</text>
	<text transform="matrix(0.9023 0 0 1 313.1221 1418.3301)" class="st1 st2">O</text>
	<text transform="matrix(0.9023 0 0 1 407.6211 1418.3301)" class="st1 st2">O</text>
	<text transform="matrix(0.9023 0 0 1 502.1201 1418.3301)" class="st1 st2">R</text>
	<text transform="matrix(0.9023 0 0 1 596.6191 1418.3301)" class="st1 st2">P</text>
	<text transform="matrix(0.9023 0 0 1 691.1191 1418.3301)" class="st1 st2">M</text>
	<text transform="matrix(0.9023 0 0 1 785.6182 1418.3301)" class="st1 st2">O</text>
	<text transform="matrix(0.9023 0 0 1 880.1172 1418.3301)" class="st1 st2">V</text>
	<text transform="matrix(0.9023 0 0 1 974.6172 1418.3301)" class="st1 st2">E</text>
	<text transform="matrix(0.9023 0 0 1 1069.1162 1418.3301)" class="st1 st2">R</text>
	<text transform="matrix(0.9023 0 0 1 1163.6152 1418.3301)" class="st1 st2">U</text>
	<text transform="matrix(0.9023 0 0 1 218.6221 1534.5742)" class="st1 st2">H</text>
	<text transform="matrix(0.9023 0 0 1 313.1221 1534.5742)" class="st1 st2">A</text>
	<text transform="matrix(0.9023 0 0 1 407.6211 1534.5742)" class="st1 st2">L</text>
	<text transform="matrix(0.9023 0 0 1 502.1201 1534.5742)" class="st1 st2">F</text>
	<text transform="matrix(0.9023 0 0 1 608.6191 1534.5742)" class="st1 st2">I</text>
	<text transform="matrix(0.9023 0 0 1 691.1191 1534.5742)" class="st1 st2">T</text>
	<text transform="matrix(0.9023 0 0 1 779.6182 1534.5742)" class="st1 st2">W</text>
	<text transform="matrix(0.9023 0 0 1 880.1172 1534.5742)" class="st1 st2">E</text>
	<text transform="matrix(0.9023 0 0 1 974.6172 1534.5742)" class="st1 st2">E</text>
	<text transform="matrix(0.9023 0 0 1 1069.1162 1534.5742)" class="st1 st2">N</text>
	<text transform="matrix(0.9023 0 0 1 1163.6152 1534.5742)" class="st1 st2">N</text>
	<text transform="matrix(0.9023 0 0 1 218.6221 1650.8164)" class="st1 st2">A</text>
	<text transform="matrix(0.9023 0 0 1 313.1221 1650.8164)" class="st1 st2">C</text>
	<text transform="matrix(0.9023 0 0 1 407.6211 1650.8164)" class="st1 st2">H</text>
	<text transform="matrix(0.9023 0 0 1 502.1201 1650.8164)" class="st1 st2">T</text>
	<text transform="matrix(0.9023 0 0 1 596.6191 1650.8164)" class="st1 st2">D</text>
	<text transform="matrix(0.9023 0 0 1 691.1191 1650.8164)" class="st1 st2">R</text>
	<text transform="matrix(0.9023 0 0 1 797.6182 1650.8164)" class="st1 st2">I</text>
	<text transform="matrix(0.9023 0 0 1 880.1172 1650.8164)" class="st1 st2">E</text>
	<text transform="matrix(0.9023 0 0 1 974.6172 1650.8164)" class="st1 st2">Z</text>
	<text transform="matrix(0.9023 0 0 1 1069.1162 1650.8164)" class="st1 st2">E</text>
	<text transform="matrix(0.9023 0 0 1 1163.6152 1650.8164)" class="st1 st2">S</text>
	<text transform="matrix(0.9023 0 0 1 218.6221 1767.0605)" class="st1 st2">Z</text>
	<text transform="matrix(0.9023 0 0 1 313.1221 1767.0605)" class="st1 st2">E</text>
	<text transform="matrix(0.9023 0 0 1 407.6211 1767.0605)" class="st1 st2">V</text>
	<text transform="matrix(0.9023 0 0 1 502.1201 1767.0605)" class="st1 st2">E</text>
	<text transform="matrix(0.9023 0 0 1 596.6191 1767.0605)" class="st1 st2">N</text>
	<text transform="matrix(0.9023 0 0 1 691.1191 1767.0605)" class="st1 st2">E</text>
	<text transform="matrix(0.9023 0 0 1 785.6182 1767.0605)" class="st1 st2">G</text>
	<text transform="matrix(0.9023 0 0 1 880.1172 1767.0605)" class="st1 st2">E</text>
	<text transform="matrix(0.9023 0 0 1 974.6172 1767.0605)" class="st1 st2">N</text>
	<text transform="matrix(0.9023 0 0 1 1069.1162 1767.0605)" class="st1 st2">T</text>
	<text transform="matrix(0.9023 0 0 1 1163.6152 1767.0605)" class="st1 st2">O</text>
	<text transform="matrix(0.9023 0 0 1 218.6221 1883.3027)" class="st1 st2">T</text>
	<text transform="matrix(0.9023 0 0 1 307.1221 1883.3027)" class="st1 st2">W</text>
	<text transform="matrix(0.9023 0 0 1 407.6211 1883.3027)" class="st1 st2">A</text>
	<text transform="matrix(0.9023 0 0 1 502.1201 1883.3027)" class="st1 st2">A</text>
	<text transform="matrix(0.9023 0 0 1 596.6191 1883.3027)" class="st1 st2">L</text>
	<text transform="matrix(0.9023 0 0 1 691.1191 1883.3027)" class="st1 st2">F</text>
	<text transform="matrix(0.9023 0 0 1 785.6182 1883.3027)" class="st1 st2">A</text>
	<text transform="matrix(0.9023 0 0 1 880.1172 1883.3027)" class="st1 st2">T</text>
	<text transform="matrix(0.9023 0 0 1 986.6162 1883.3027)" class="st1 st2">I</text>
	<text transform="matrix(0.9023 0 0 1 1069.1162 1883.3027)" class="st1 st2">E</text>
	<text transform="matrix(0.9023 0 0 1 1163.6152 1883.3027)" class="st1 st2">N</text>
	<text transform="matrix(0.9023 0 0 1 218.6221 1999.5469)" class="st1 st2">V</text>
	<text transform="matrix(0.9023 0 0 1 325.1221 1999.5469)" class="st1 st2">I</text>
	<text transform="matrix(0.9023 0 0 1 407.6211 1999.5469)" class="st1 st2">E</text>
	<text transform="matrix(0.9023 0 0 1 502.1201 1999.5469)" class="st1 st2">R</text>
	<text transform="matrix(0.9023 0 0 1 596.6191 1999.5469)" class="st1 st2">V</text>
	<text transform="matrix(0.9023 0 0 1 703.1191 1999.5469)" class="st1 st2">I</text>
	<text transform="matrix(0.9023 0 0 1 785.6182 1999.5469)" class="st1 st2">J</text>
	<text transform="matrix(0.9023 0 0 1 880.1172 1999.5469)" class="st1 st2">F</text>
	<text transform="matrix(0.9023 0 0 1 974.6172 1999.5469)" class="st1 st2">E</text>
	<text transform="matrix(0.9023 0 0 1 1069.1162 1999.5469)" class="st1 st2">L</text>
	<text transform="matrix(0.9023 0 0 1 1163.6152 1999.5469)" class="st1 st2">F</text>
	<text transform="matrix(0.9023 0 0 1 218.6221 2115.791)" class="st1 st2">U</text>
	<text transform="matrix(0.9023 0 0 1 313.1221 2115.791)" class="st1 st2">U</text>
	<text transform="matrix(0.9023 0 0 1 407.6211 2115.791)" class="st1 st2">R</text>
	<text transform="matrix(0.9023 0 0 1 502.1201 2115.791)" class="st1 st2">A</text>
	<text transform="matrix(0.9023 0 0 1 596.6191 2115.791)" class="st1 st2">G</text>
	<text transform="matrix(0.9023 0 0 1 691.1191 2115.791)" class="st1 st2">E</text>
	<text transform="matrix(0.9023 0 0 1 779.6182 2115.791)" class="st1 st2">W</text>
	<text transform="matrix(0.9023 0 0 1 880.1172 2115.791)" class="st1 st2">E</text>
	<text transform="matrix(0.9023 0 0 1 974.6172 2115.791)" class="st1 st2">E</text>
	<text transform="matrix(0.9023 0 0 1 1069.1162 2115.791)" class="st1 st2">S</text>
	<text transform="matrix(0.9023 0 0 1 1163.6152 2115.791)" class="st1 st2">T</text>
</g>
<g class="st3">
	<rect x="194.2" y="141.4" class="st4" width="85" height="85"/>
	<rect x="288.6" y="141.4" class="st5" width="85" height="85"/>
	<rect x="383" y="141.4" class="st4" width="85" height="85"/>
	<rect x="477.4" y="141.4" class="st4" width="85" height="85"/>
	<rect x="571.7" y="141.4" class="st4" width="85" height="85"/>
	<rect x="666.1" y="141.4" class="st4" width="85" height="85"/>
	<rect x="760.5" y="141.4" class="st4" width="85" height="85"/>
	<rect x="854.9" y="141.4" class="st4" width="85" height="85"/>
	<rect x="949.3" y="141.4" class="st4" width="85" height="85"/>
	<rect x="1043.7" y="141.4" class="st4" width="85" height="85"/>
	<rect x="1138.1" y="141.4" class="st4" width="85" height="85"/>
	<rect x="194.2" y="257.3" class="st4" width="85" height="85"/>
	<rect x="288.6" y="257.3" class="st4" width="85" height="85"/>
	<rect x="383" y="257.3" class="st4" width="85" height="85"/>
	<rect x="477.4" y="257.3" class="st4" width="85" height="85"/>
	<rect x="571.7" y="257.3" class="st4" width="85" height="85"/>
	<rect x="666.1" y="257.3" class="st4" width="85" height="85"/>
	<rect x="760.5" y="257.3" class="st4" width="85" height="85"/>
	<rect x="854.9" y="257.3" class="st4" width="85" height="85"/>
	<rect x="949.3" y="257.3" class="st4" width="85" height="85"/>
	<rect x="1043.7" y="257.3" class="st4" width="85" height="85"/>
	<rect x="1138.1" y="257.3" class="st4" width="85" height="85"/>
	<rect x="194.2" y="373.3" class="st4" width="85" height="85"/>
	<rect x="288.6" y="373.3" class="st4" width="85" height="85"/>
	<rect x="383" y="373.3" class="st4" width="85" height="85"/>
	<rect x="477.4" y="373.3" class="st4" width="85" height="85"/>
	<rect x="571.7" y="373.3" class="st4" width="85" height="85"/>
	<rect x="666.1" y="373.3" class="st4" width="85" height="85"/>
	<rect x="760.5" y="373.3" class="st4" width="85" height="85"/>
	<rect x="854.9" y="373.3" class="st4" width="85" height="85"/>
	<rect x="949.3" y="373.3" class="st4" width="85" height="85"/>
	<rect x="1043.7" y="373.3" class="st4" width="85" height="85"/>
	<rect x="1138.1" y="373.3" class="st4" width="85" height="85"/>
	<rect x="194.2" y="489.2" class="st4" width="85" height="85"/>
	<rect x="288.6" y="489.2" class="st4" width="85" height="85"/>
	<rect x="383" y="489.2" class="st4" width="85" height="85"/>
	<rect x="477.4" y="489.2" class="st4" width="85" height="85"/>
	<rect x="571.7" y="489.2" class="st4" width="85" height="85"/>
	<rect x="666.1" y="489.2" class="st4" width="85" height="85"/>
	<rect x="760.5" y="489.2" class="st4" width="85" height="85"/>
	<rect x="854.9" y="489.2" class="st4" width="85" height="85"/>
	<rect x="949.3" y="489.2" class="st4" width="85" height="85"/>
	<rect x="1043.7" y="489.2" class="st4" width="85" height="85"/>
	<rect x="1138.1" y="489.2" class="st4" width="85" height="85"/>
	<rect x="194.2" y="605.2" class="st4" width="85" height="85"/>
	<rect x="288.6" y="605.2" class="st4" width="85" height="85"/>
	<rect x="383" y="605.2" class="st4" width="85" height="85"/>
	<rect x="477.4" y="605.2" class="st4" width="85" height="85"/>
	<rect x="571.7" y="605.2" class="st4" width="85" height="85"/>
	<rect x="666.1" y="605.2" class="st4" width="85" height="85"/>
	<rect x="760.5" y="605.2" class="st4" width="85" height="85"/>
	<rect x="854.9" y="605.2" class="st4" width="85" height="85"/>
	<rect x="949.3" y="605.2" class="st4" width="85" height="85"/>
	<rect x="1043.7" y="605.2" class="st4" width="85" height="85"/>
	<rect x="1138.1" y="605.2" class="st4" width="85" height="85"/>
	<rect x="548.7" y="1325.8" class="st4" width="35.4" height="35.4"/>
	<rect x="643.5" y="1325.8" class="st4" width="35.4" height="35.4"/>
	<rect x="738.4" y="1325.8" class="st4" width="35.4" height="35.4"/>
	<rect x="833.2" y="1325.8" class="st4" width="35.4" height="35.4"/>
	<rect x="194.2" y="721.1" class="st4" width="85" height="85"/>
	<rect x="288.6" y="721.1" class="st4" width="85" height="85"/>
	<rect x="383" y="721.1" class="st4" width="85" height="85"/>
	<rect x="477.4" y="721.1" class="st4" width="85" height="85"/>
	<rect x="571.7" y="721.1" class="st4" width="85" height="85"/>
	<rect x="666.1" y="721.1" class="st4" width="85" height="85"/>
	<rect x="760.5" y="721.1" class="st4" width="85" height="85"/>
	<rect x="854.9" y="721.1" class="st4" width="85" height="85"/>
	<rect x="949.3" y="721.1" class="st4" width="85" height="85"/>
	<rect x="1043.7" y="721.1" class="st4" width="85" height="85"/>
	<rect x="1138.1" y="721.1" class="st4" width="85" height="85"/>
	<rect x="194.2" y="837" class="st4" width="85" height="85"/>
	<rect x="288.6" y="837" class="st4" width="85" height="85"/>
	<rect x="383" y="837" class="st4" width="85" height="85"/>
	<rect x="477.4" y="837" class="st4" width="85" height="85"/>
	<rect x="571.7" y="837" class="st4" width="85" height="85"/>
	<rect x="666.1" y="837" class="st4" width="85" height="85"/>
	<rect x="760.5" y="837" class="st4" width="85" height="85"/>
	<rect x="854.9" y="837" class="st4" width="85" height="85"/>
	<rect x="949.3" y="837" class="st4" width="85" height="85"/>
	<rect x="1043.7" y="837" class="st4" width="85" height="85"/>
	<rect x="1138.1" y="837" class="st4" width="85" height="85"/>
	<rect x="194.2" y="953" class="st4" width="85" height="85"/>
	<rect x="288.6" y="953" class="st4" width="85" height="85"/>
	<rect x="383" y="953" class="st4" width="85" height="85"/>
	<rect x="477.4" y="953" class="st4" width="85" height="85"/>
	<rect x="571.7" y="953" class="st4" width="85" height="85"/>
	<rect x="666.1" y="953" class="st4" width="85" height="85"/>
	<rect x="760.5" y="953" class="st4" width="85" height="85"/>
	<rect x="854.9" y="953" class="st4" width="85" height="85"/>
	<rect x="949.3" y="953" class="st4" width="85" height="85"/>
	<rect x="1043.7" y="953" class="st4" width="85" height="85"/>
	<rect x="1138.1" y="953" class="st4" width="85" height="85"/>
	<rect x="194.2" y="1068.9" class="st4" width="85" height="85"/>
	<rect x="288.6" y="1068.9" class="st4" width="85" height="85"/>
	<rect x="383" y="1068.9" class="st4" width="85" height="85"/>
	<rect x="477.4" y="1068.9" class="st4" width="85" height="85"/>
	<rect x="571.7" y="1068.9" class="st4" width="85" height="85"/>
	<rect x="666.1" y="1068.9" class="st4" width="85" height="85"/>
	<rect x="760.5" y="1068.9" class="st4" width="85" height="85"/>
	<rect x="854.9" y="1068.9" class="st4" width="85" height="85"/>
	<rect x="949.3" y="1068.9" class="st4" width="85" height="85"/>
	<rect x="1043.7" y="1068.9" class="st4" width="85" height="85"/>
	<rect x="1138.1" y="1068.9" class="st4" width="85" height="85"/>
	<rect x="194.2" y="1184.8" class="st4" width="85" height="85"/>
	<rect x="288.6" y="1184.8" class="st4" width="85" height="85"/>
	<rect x="383" y="1184.8" class="st4" width="85" height="85"/>
	<rect x="477.4" y="1184.8" class="st4" width="85" height="85"/>
	<rect x="571.7" y="1184.8" class="st4" width="85" height="85"/>
	<rect x="666.1" y="1184.8" class="st4" width="85" height="85"/>
	<rect x="760.5" y="1184.8" class="st4" width="85" height="85"/>
	<rect x="854.9" y="1184.8" class="st4" width="85" height="85"/>
	<rect x="949.3" y="1184.8" class="st4" width="85" height="85"/>
	<rect x="1043.7" y="1184.8" class="st4" width="85" height="85"/>
	<rect x="1138.1" y="1184.8" class="st4" width="85" height="85"/>
</g>
</svg>
