<svg version="1.1" viewBox="0 0 32 32" xmlns="http://www.w3.org/2000/svg"><path d="m16 3c-5.2368 0-9.9046 4.266-9.4961 9.5762 0.22868 2.9728 1.4263 4.6861 2.5488 6.1016 1.1187 1.4106 2.1315 2.5586 2.6426 5.0234l0.30859 3.3887c0.088686 0.97554 0.90264 1.9102 1.9961 1.9102h4c1.0935 0 1.9074-0.93462 1.9961-1.9102l0.30859-3.3887c0.51111-2.4648 1.5238-3.6128 2.6426-5.0234 1.1225-1.4154 2.3202-3.1288 2.5488-6.1016 0.40847-5.3101-4.2593-9.5762-9.4961-9.5762zm0 2c4.152 0 7.8155 3.3728 7.5039 7.4238-0.19504 2.5356-1.0361 3.6391-2.123 5.0098-0.5809 0.73247-1.2393 1.5362-1.8184 2.5664h-1.2812l1.6895-6.7578a1.0001 1.0001 0 0 0-0.9707-1.2422h-6a1.0001 1.0001 0 0 0-0.9707 1.2422l1.6895 6.7578h-1.2812c-0.57907-1.0302-1.2375-1.8339-1.8184-2.5664-1.087-1.3706-1.928-2.4742-2.123-5.0098-0.31162-4.051 3.3519-7.4238 7.5039-7.4238zm-1.7188 9h3.4375l-1.5 6h-0.4375l-1.5-6zm-0.9668 8h1.6855 2 1.6855c-0.13328 0.40905-0.25249 0.84514-0.34961 1.3184a1.0001 1.0001 0 0 0-0.015626 0.11133l-0.31641 3.4805c-0.01162 0.12788 0.010609 0.089844-0.003906 0.089844h-4c-0.01451 0 0.007694 0.038036-0.003906-0.089844l-0.31641-3.4805a1.0001 1.0001 0 0 0-0.015626-0.11133c-0.097118-0.47322-0.21633-0.90931-0.34961-1.3184z" color="#000000"/></svg>
