<svg version="1.1" viewBox="0 0 32 32" xmlns="http://www.w3.org/2000/svg"><path d="m15.998 3c-7.1669 0-12.998 5.8322-12.998 13 0 7.1678 5.8312 13 12.998 13 0.89091 0 1.5745-0.08607 2.1738-0.4043 0.59928-0.31823 1.0208-1.0214 1.0469-1.6348 0.0522-1.2268-0.60885-2.1459-1.1816-3.2344-0.57279-1.0885-1.1444-2.2527-1.3105-3.2852-0.16611-1.0324-0.039199-1.8689 0.90234-2.8105 0.94544-0.94559 1.7774-1.0782 2.7949-0.92188 1.0175 0.15629 2.1627 0.71371 3.2402 1.2773 1.0775 0.56363 1.9998 1.2131 3.2148 1.1738 0.60752-0.01964 1.3115-0.40842 1.6504-0.99414 0.33893-0.58572 0.44433-1.2644 0.4668-2.1406 0.18451-7.1962-5.831-13.025-12.998-13.025zm0 2c6.0856 0 11.153 4.9203 10.998 10.975-0.01789 0.69768-0.142 1.0813-0.19727 1.1797-0.16625-5.09e-4 -1.1207-0.37121-2.207-0.93945-1.0942-0.57237-2.3988-1.2572-3.8652-1.4824-1.4664-0.22526-3.1518 0.12227-4.5137 1.4844-1.3658 1.366-1.6986 3.0658-1.4609 4.543 0.23767 1.4772 0.93476 2.7946 1.5156 3.8984 0.57013 1.0834 0.92709 2.0184 0.93555 2.1758-0.11294 0.05484-0.49914 0.16602-1.2051 0.16602-6.0858 0-10.998-4.9129-10.998-11 0-6.0871 4.9122-11 10.998-11zm3.502 2a1.5 1.5 0 0 0-1.5 1.5 1.5 1.5 0 0 0 1.5 1.5 1.5 1.5 0 0 0 1.5-1.5 1.5 1.5 0 0 0-1.5-1.5zm-6 1a1.5 1.5 0 0 0-1.5 1.5 1.5 1.5 0 0 0 1.5 1.5 1.5 1.5 0 0 0 1.5-1.5 1.5 1.5 0 0 0-1.5-1.5zm-4 4a1.5 1.5 0 0 0-1.5 1.5 1.5 1.5 0 0 0 1.5 1.5 1.5 1.5 0 0 0 1.5-1.5 1.5 1.5 0 0 0-1.5-1.5zm-1 6a1.5 1.5 0 0 0-1.5 1.5 1.5 1.5 0 0 0 1.5 1.5 1.5 1.5 0 0 0 1.5-1.5 1.5 1.5 0 0 0-1.5-1.5z" color="#000000"/></svg>
