<svg version="1.1" viewBox="0 0 32 32" xmlns="http://www.w3.org/2000/svg"><path d="m16 9c-3.5149 0-6.6675 1.0492-8.9844 2.3828-1.1584 0.66681-2.1093 1.4026-2.8066 2.1562s-1.209 1.5132-1.209 2.4609 0.5116 1.7073 1.209 2.4609 1.6482 1.4894 2.8066 2.1562c2.3168 1.3336 5.4695 2.3828 8.9844 2.3828s6.6675-1.0492 8.9844-2.3828c1.1584-0.66681 2.1093-1.4026 2.8066-2.1562 0.69738-0.75367 1.209-1.5132 1.209-2.4609s-0.5116-1.7073-1.209-2.4609c-0.69738-0.75367-1.6482-1.4894-2.8066-2.1562-2.3168-1.3336-5.4695-2.3828-8.9844-2.3828zm0 2c3.1125 0 5.96 0.9508 7.9863 2.1172 1.0132 0.58319 1.8189 1.2224 2.3359 1.7812 0.51708 0.55882 0.67773 1.0493 0.67773 1.1016 0 0.05229-0.16065 0.54274-0.67773 1.1016-0.51708 0.55882-1.3228 1.1981-2.3359 1.7812-2.0263 1.1664-4.8738 2.1172-7.9863 2.1172s-5.96-0.9508-7.9863-2.1172c-1.0132-0.58319-1.8189-1.2224-2.3359-1.7812-0.51708-0.55882-0.67773-1.0493-0.67773-1.1016s0.16065-0.54274 0.67773-1.1016c0.51708-0.55882 1.3228-1.1981 2.3359-1.7812 2.0263-1.1664 4.8738-2.1172 7.9863-2.1172zm0 1c-2.1973 0-4 1.8027-4 4s1.8027 4 4 4 4-1.8027 4-4-1.8027-4-4-4zm0 2c1.1164 0 2 0.88359 2 2s-0.88359 2-2 2-2-0.88359-2-2 0.88359-2 2-2z" color="#000000"/></svg>
