<svg version="1.1" viewBox="0 0 32 32" xmlns="http://www.w3.org/2000/svg"><path d="m16 3c-7.1678 0-13 5.8322-13 13 0 7.1678 5.8322 13 13 13 7.1678 0 13-5.8322 13-13 0-7.1678-5.8322-13-13-13zm0 2c6.087 0 11 4.913 11 11 0 6.087-4.913 11-11 11-6.087 0-11-4.913-11-11 0-6.087 4.913-11 11-11zm0 3c-1.108 0-2 0.892-2 2 0 1.108 0.892 2 2 2s2-0.892 2-2c0-1.108-0.892-2-2-2zm0 6c-0.8137 0-1.5 0.6863-1.5 1.5v8c0 0.8137 0.6863 1.5 1.5 1.5s1.5-0.6863 1.5-1.5v-8c0-0.8137-0.6863-1.5-1.5-1.5z" color="#000000"/></svg>
