<?xml version="1.0" encoding="UTF-8"?>
<svg version="1.1" viewBox="0 0 32 32" xmlns="http://www.w3.org/2000/svg">
 <path d="m5 2c-1.6447 0-3 1.3553-3 3v22c0 1.6447 1.3553 3 3 3h22c1.6447 0 3-1.3553 3-3v-22c0-1.6447-1.3553-3-3-3h-22zm0 2h22c0.5713 0 1 0.4287 1 1v8.1016c-0.61209-0.3222-1.3249-0.48437-2.1387-0.48437-1.4371-3e-6 -2.5777 0.50582-3.4219 1.5176-0.84421 1.0053-1.2656 2.3573-1.2656 4.0586 0 1.6884 0.45131 3.0177 1.3535 3.9844 0.90865 0.96021 2.1582 1.4395 3.75 1.4395 0.65664-1e-6 1.2292-0.046658 1.7227-0.13672v3.5195c0 0.5713-0.4287 1-1 1h-22c-0.5713 0-1-0.4287-1-1v-22c0-0.5713 0.4287-1 1-1zm2.332 5.291v14.133h1.7773v-6.5918h7.25v6.5918h1.7793v-14.133h-1.7793v5.9746h-7.25v-5.9746h-1.7773zm18.512 4.7461c0.81199 0 1.4401 0.25789 1.8848 0.77344 0.10251 0.11885 0.19198 0.25231 0.27148 0.39648v1.8652h-4.9902c0.09022-0.95376 0.378-1.6975 0.86133-2.2324 0.48332-0.53488 1.1413-0.80274 1.9727-0.80274zm-2.8711 4.418h5.0273v3.5312c-0.009911 0.002071-0.021413 0.00582-0.03125 0.007813-0.5091 0.096665-1.0462 0.14453-1.6133 0.14453-1.0633 0-1.8849-0.3124-2.4648-0.9375-0.57999-0.6251-0.88575-1.541-0.91797-2.7461z" fill="#5c5c5c" stroke-linecap="round" stroke-linejoin="round"/>
</svg>
