<?xml version="1.0" encoding="UTF-8"?>
<svg version="1.1" viewBox="0 0 32 32" xml:space="preserve" xmlns="http://www.w3.org/2000/svg"><g><path d="m6 6v8.7852c0.53448-0.48429 1.2371-0.78516 2-0.78516v-8h-2zm0 13.215v6.7852h2v-6c-0.76285 0-1.4655-0.30087-2-0.78516z" fill="#ebebeb"/><path d="m8 6v8h2v-8h-2zm0 14v6h2v-6h-2z" fill="#dcdcdc"/><path d="m10 6v8h2v-8h-2zm0 14v6h2v-6h-2z" fill="#cdcdcd"/><path d="m12 6v8h2v-8h-2zm0 14v6h2v-6h-2z" fill="#bebebe"/><path d="m14 6v8h1.9219c-1.0108-1.0816-1.1928-2.7614-0.22461-3.9219 0.092904-0.11141 0.19594-0.21278 0.30273-0.30859v-3.7695h-2zm0 14v6h2v-1.7715c-0.10626-0.094541-0.20936-0.1948-0.30273-0.30664-0.96815-1.1605-0.78617-2.8403 0.22461-3.9219h-1.9219z" fill="#afafaf"/><path d="m16 6v3.7695c0.47835-0.42916 1.0833-0.69917 1.7305-0.75781 0.089834-0.0080611 0.17994-0.0098313 0.26953-0.0097657v-3.002h-2zm0 18.229v1.7715h2v-1.0137c-0.7236-0.002383-1.442-0.26133-2-0.75781z" fill="#a0a0a0"/><path d="m18 6v3.002c0.009102 6.7e-6 0.018254-0.0020406 0.027344-0.0019531 0.68986 0.00664 1.3607 0.25136 1.8945 0.69727v-0.0019531l0.078125 0.064453v-3.7598h-2zm2 18.24-0.078125 0.064454v-0.001954c-0.55431 0.46243-1.2392 0.68584-1.9219 0.68359v1.0137h2v-1.7598z" fill="#919191"/><path d="m20 6v3.7598l2 1.668v-5.4277h-2zm2 16.572-2 1.668v1.7598h2v-3.4277z" fill="#818181"/><path d="m24 6v7.0938l1.9219 1.6016a2.0002 2.0002 0 0 1 0.021484 0.021485c0.01794 0.0152 0.035145 0.031255 0.052735 0.046875a2.0002 2.0002 0 0 1 0.003906 0.003906v-8.7676h-2zm2 13.23c-0.02619 0.02391-0.050855 0.049505-0.078125 0.072265a2.0002 2.0002 0 0 0 0 0.001954l-1.9219 1.6016v5.0938h2v-6.7695z" fill="#5e5e5e"/><path d="m22 6v5.4277l2 1.666v-7.0938h-2zm1.1445 10.482c-0.0027 0.0045-0.005212 0.009102-0.007812 0.013672l-0.009766 0.015625-0.015625 0.03125a2.0002 2.0002 0 0 1 0.033203-0.054688 2.0002 2.0002 0 0 1 0-0.005859zm-0.005859 0.03125-0.044922 0.066406-0.003906 0.007813-0.033203 0.083984-0.001953 0.003906c-7e-4 2e-3 -0.001254 0.00386-0.001954 0.00586l-0.003906 0.011718-0.037109 0.22656v0.011719l-0.001953 0.009765-0.003907 0.091797 0.001953 0.029297a2.0002 2.0002 0 0 1 0.13086-0.54883zm-0.14062 0.48633v0.007812a2.0002 2.0002 0 0 1 0.001953-0.003906 2.0002 2.0002 0 0 0 0-0.001953 2.0002 2.0002 0 0 0 0-0.001953h-0.001953zm0.001953 0.017578v0.03125l0.001953 0.013672a2.0002 2.0002 0 0 1-0.001953-0.044922zm0.003906 0.03711-0.001953 0.021484v0.001953l0.001953 0.003906a2.0002 2.0002 0 0 1 0.001953-0.009765 2.0002 2.0002 0 0 1-0.001953-0.017578zm0.99609 3.8516-2 1.666v3.4277h2v-5.0938z" fill="#6f6f6f"/></g><path d="m5 2c-1.6447 0-3 1.3553-3 3v22c0 1.6447 1.3553 3 3 3h22c1.6447 0 3-1.3553 3-3v-22c0-1.6447-1.3553-3-3-3zm0 2h22c0.5713 0 1 0.4287 1 1v22c0 0.5713-0.4287 1-1 1h-22c-0.5713 0-1-0.4287-1-1v-22c0-0.5713 0.4287-1 1-1z" fill="#5c5c5c" stroke-linecap="round" stroke-linejoin="round"/><path d="m17.91 11.004a1 1 0 0 0-0.67773 0.35547 1 1 0 0 0 0.12695 1.4082l3.8789 3.2324h-13.238a1 1 0 0 0-1 1 1 1 0 0 0 1 1h13.238l-3.8789 3.2324a1 1 0 0 0-0.12695 1.4082 1 1 0 0 0 1.4082 0.12695l6-5a1 1 0 0 0 0.12695-0.12695 1 1 0 0 0 0.0039-0.0039 1 1 0 0 0 0.02539-0.03516 1 1 0 0 0 0.01172-0.01367 1 1 0 0 0 2e-3 -0.0039 1 1 0 0 0 0.01367-0.01758 1 1 0 0 0 2e-3 -0.0039 1 1 0 0 0 0.04687-0.07422 1 1 0 0 0 2e-3 -0.0039 1 1 0 0 0 0.03906-0.07813 1 1 0 0 0 2e-3 -0.0039 1 1 0 0 0 0.03125-0.08203 1 1 0 0 0 0-2e-3 1 1 0 0 0 2e-3 -0.0039 1 1 0 0 0 2e-3 -0.0059 1 1 0 0 0 0-2e-3 1 1 0 0 0 0.03906-0.16602 1 1 0 0 0 0-0.0059 1 1 0 0 0 0.0078-0.08594 1 1 0 0 0 0-0.0059 1 1 0 0 0 0-0.03125 1 1 0 0 0 0.0017-0.01153 1 1 0 0 0-2e-3 -0.03125 1 1 0 0 0 0-0.01172 1 1 0 0 0 0-0.0059 1 1 0 0 0-0.0039-0.04492 1 1 0 0 0-2e-3 -0.02734 1 1 0 0 0-2e-3 -0.01367 1 1 0 0 0 0-0.0059 1 1 0 0 0-0.0078-0.03906 1 1 0 0 0-0.0098-0.05078 1 1 0 0 0-2e-3 -0.0098 1 1 0 0 0-0.02148-0.07422 1 1 0 0 0-2e-3 -0.0059 1 1 0 0 0-0.01172-0.03125 1 1 0 0 0-0.0078-0.02344 1 1 0 0 0-0.01172-0.02734 1 1 0 0 0-2e-3 -0.0039 1 1 0 0 0-0.0293-0.05859 1 1 0 0 0-0.0098-0.01953 1 1 0 0 0-2e-3 -0.0039 1 1 0 0 0-0.04687-0.07422 1 1 0 0 0-2e-3 -0.0039 1 1 0 0 0-2e-3 -2e-3 1 1 0 0 0-0.02539-0.0332 1 1 0 0 0-0.02539-0.03516 1 1 0 0 0-0.0039-0.0039 1 1 0 0 0-0.01953-0.02344 1 1 0 0 0-0.03906-0.04102 1 1 0 0 0-0.02344-0.02148 1 1 0 0 0-0.03516-0.03125 1 1 0 0 0-0.0098-0.0098l-6-5a1 1 0 0 0-0.73047-0.22852z" fill="#5c5c5c" stroke-linecap="round" stroke-linejoin="round"/></svg>
