<?xml version="1.0" encoding="UTF-8"?>
<svg version="1.1" viewBox="0 0 32 32" xml:space="preserve" xmlns="http://www.w3.org/2000/svg"><path d="m5 2c-1.6447 0-3 1.3553-3 3v22c0 1.6447 1.3553 3 3 3h22c1.6447 0 3-1.3553 3-3v-22c0-1.6447-1.3553-3-3-3h-22zm0 2h22c0.5713 0 1 0.4287 1 1v22c0 0.5713-0.4287 1-1 1h-22c-0.5713 0-1-0.4287-1-1v-22c0-0.5713 0.4287-1 1-1zm15.432 6.0723c-0.74178 0-1.3918 0.16386-1.9512 0.49219-0.54721 0.32833-1.0644 0.76529-1.5508 1.3125l0.83984 0.82227c0.34049-0.38913 0.71741-0.7188 1.1309-0.98633 0.41345-0.27969 0.8632-0.41797 1.3496-0.41797 0.74178 0 1.2953 0.21111 1.6602 0.63672 0.36481 0.42561 0.54688 0.97376 0.54688 1.6426 0 0.62017-0.21306 1.2884-0.63867 2.0059-0.42561 0.71746-1.0446 1.5205-1.8594 2.4082-0.81474 0.87554-1.8072 1.8843-2.9746 3.0273v0.91211h7.5156v-1.2949h-3.502c-0.30401 1e-6 -0.62631 0.01279-0.9668 0.03711s-0.66821 0.047946-0.98438 0.072266c0.9485-0.97282 1.786-1.8669 2.5156-2.6816 0.72962-0.81474 1.3014-1.5922 1.7148-2.334 0.42561-0.74178 0.63867-1.4902 0.63867-2.2441 0-1.0215-0.30951-1.8427-0.92969-2.4629-0.62017-0.63233-1.4724-0.94726-2.5547-0.94726zm-7.9512 0.21875-4.9805 7.4414v0.98633h5.2344v3.209h1.4238v-3.209h1.5859v-1.2051h-1.5859v-7.2227h-1.6777zm0.27344 1.6055h0.072266c-0.01216 0.30401-0.030368 0.67356-0.054688 1.1113-0.02432 0.43777-0.037109 0.81469-0.037109 1.1309v3.375h-3.6484l2.7188-3.9766c0.17024-0.27969 0.3341-0.55279 0.49219-0.82031s0.31111-0.54063 0.45703-0.82031z" fill="#5c5c5c" stroke-linecap="round" stroke-linejoin="round"/></svg>
