<?xml version="1.0" encoding="UTF-8"?>
<svg version="1.1" viewBox="0 0 32 32" xml:space="preserve" xmlns="http://www.w3.org/2000/svg"><g stroke-linecap="round" stroke-linejoin="round"><g stroke-width="6"><path d="m20 8c-5.6675 0-10.705 2.5947-14 6.6641v3.5684c2.724-4.9166 7.9593-8.2324 14-8.2324 2.1247 0 4.1484 0.41463 6 1.1602v-2.1406c-1.8756-0.65909-3.8935-1.0195-6-1.0195z" fill="#5c5c5c"/><path d="m20 10c-6.0407 0-11.276 3.3158-14 8.2324v7.7539c0-7.7483 6.244-13.986 14-13.986 2.1502 0 4.183 0.48167 6 1.3398v-2.1797c-1.8516-0.74553-3.8753-1.1602-6-1.1602z" fill="#8a8a8a"/><path d="m20 12c-7.756 0-14 6.2381-14 13.986v0.01367h2c0-6.648 5.352-12 12-12 2.1895 0 4.2365 0.58343 6 1.5996v-2.2598c-1.817-0.85818-3.8498-1.3398-6-1.3398z" fill="#cacaca"/></g><path d="m5 2c-1.6447 0-3 1.3553-3 3v22c0 1.6447 1.3553 3 3 3h22c1.6447 0 3-1.3553 3-3v-22c0-1.6447-1.3553-3-3-3zm0 2h22c0.5713 0 1 0.4287 1 1v22c0 0.5713-0.4287 1-1 1h-22c-0.5713 0-1-0.4287-1-1v-22c0-0.5713 0.4287-1 1-1z" fill="#5c5c5c"/><path d="m20 14c-6.648 0-12 5.352-12 12h2c0-5.54 4.46-10 10-10 2.2551 0 4.3308 0.74015 6 1.9902v-2.3906c-1.7635-1.0162-3.8105-1.5996-6-1.5996z" fill="#fff" stroke-width="6"/><path d="m20 16c-5.54 0-10 4.46-10 10h2c0-4.432 3.568-8 8-8 2.3954 0 4.5363 1.0436 6 2.7012v-2.7109c-1.6692-1.2501-3.7449-1.9902-6-1.9902z" fill="#6e6e6e" stroke-width="6"/></g></svg>
