<?xml version="1.0" encoding="UTF-8"?>
<svg version="1.1" viewBox="0 0 32 32" xml:space="preserve" xmlns="http://www.w3.org/2000/svg"><defs><linearGradient id="linearGradient15" x1="6" x2="26" y1="8" y2="8" gradientUnits="userSpaceOnUse"><stop stop-color="#f2f2f2" offset="0"/><stop stop-color="#5c5c5c" offset="1"/></linearGradient></defs><g stroke-linecap="round" stroke-linejoin="round"><path d="m6 6v8.7852c0.53448-0.48429 1.2371-0.78516 2-0.78516h7.9219c-1.0108-1.0816-1.1928-2.7614-0.22461-3.9219 0.50903-0.61041 1.2416-0.99466 2.0332-1.0664 0.09896-0.00888 0.19832-0.012668 0.29688-0.011719 0.68986 0.00664 1.3607 0.25136 1.8945 0.69727v-0.00195l6 5a2.0002 2.0002 0 0 1 0.02148 0.02149c0.01794 0.0152 0.03515 0.03125 0.05274 0.04687a2.0002 2.0002 0 0 1 0.0039 0.0039v-8.7676h-20zm17.145 10.482c-0.0027 0.0045-0.0052 0.0091-0.0078 0.01367l-0.0098 0.01563-0.01563 0.03125a2.0002 2.0002 0 0 1 0.0332-0.05469 2.0002 2.0002 0 0 1 0-0.0059zm-0.0059 0.03125-0.04492 0.06641-0.0039 0.0078-0.0332 0.08398-2e-3 0.0039c-7e-4 2e-3 -0.0013 0.0039-2e-3 0.0059l-0.0039 0.01172-0.03711 0.22656v0.01172l-2e-3 0.0098-0.0039 0.0918 2e-3 0.0293a2.0002 2.0002 0 0 1 0.13086-0.54883zm-0.14062 0.48633v0.0078a2.0002 2.0002 0 0 1 2e-3 -0.0039 2.0002 2.0002 0 0 0 0-2e-3 2.0002 2.0002 0 0 0 0-2e-3zm2e-3 0.01758v0.03125l2e-3 0.01367a2.0002 2.0002 0 0 1-2e-3 -0.04492zm0.0039 0.03711-2e-3 0.02148v2e-3l2e-3 0.0039a2.0002 2.0002 0 0 1 2e-3 -0.0098 2.0002 2.0002 0 0 1-2e-3 -0.01758zm-17.004 2.1602v6.7852h20v-6.7695c-0.02619 0.02391-0.05086 0.04951-0.07813 0.07227a2.0002 2.0002 0 0 0 0 2e-3l-6 5v-2e-3c-1.2537 1.0459-3.1782 0.87241-4.2246-0.38086-0.96815-1.1605-0.78617-2.8403 0.22461-3.9219h-7.9219c-0.76285 0-1.4655-0.30087-2-0.78516z" fill="url(#linearGradient15)" stroke-width="2"/><path d="m5 2c-1.6447 0-3 1.3553-3 3v22c0 1.6447 1.3553 3 3 3h22c1.6447 0 3-1.3553 3-3v-22c0-1.6447-1.3553-3-3-3zm0 2h22c0.5713 0 1 0.4287 1 1v22c0 0.5713-0.4287 1-1 1h-22c-0.5713 0-1-0.4287-1-1v-22c0-0.5713 0.4287-1 1-1z" fill="#5c5c5c"/><path d="m17.91 11.004a1 1 0 0 0-0.67773 0.35547 1 1 0 0 0 0.12695 1.4082l3.8789 3.2324h-13.238a1 1 0 0 0-1 1 1 1 0 0 0 1 1h13.238l-3.8789 3.2324a1 1 0 0 0-0.12695 1.4082 1 1 0 0 0 1.4082 0.12695l6-5a1 1 0 0 0 0.12695-0.12695 1 1 0 0 0 0.0039-0.0039 1 1 0 0 0 0.02539-0.03516 1 1 0 0 0 0.01172-0.01367 1 1 0 0 0 2e-3 -0.0039 1 1 0 0 0 0.01367-0.01758 1 1 0 0 0 2e-3 -0.0039 1 1 0 0 0 0.04687-0.07422 1 1 0 0 0 2e-3 -0.0039 1 1 0 0 0 0.03906-0.07813 1 1 0 0 0 2e-3 -0.0039 1 1 0 0 0 0.03125-0.08203 1 1 0 0 0 0-2e-3 1 1 0 0 0 2e-3 -0.0039 1 1 0 0 0 2e-3 -0.0059 1 1 0 0 0 0-2e-3 1 1 0 0 0 0.03906-0.16602 1 1 0 0 0 0-0.0059 1 1 0 0 0 0.0078-0.08594 1 1 0 0 0 0-0.0059 1 1 0 0 0 0-0.03125 1 1 0 0 0 0.0017-0.01153 1 1 0 0 0-2e-3 -0.03125 1 1 0 0 0 0-0.01172 1 1 0 0 0 0-0.0059 1 1 0 0 0-0.0039-0.04492 1 1 0 0 0-2e-3 -0.02734 1 1 0 0 0-2e-3 -0.01367 1 1 0 0 0 0-0.0059 1 1 0 0 0-0.0078-0.03906 1 1 0 0 0-0.0098-0.05078 1 1 0 0 0-2e-3 -0.0098 1 1 0 0 0-0.02148-0.07422 1 1 0 0 0-2e-3 -0.0059 1 1 0 0 0-0.01172-0.03125 1 1 0 0 0-0.0078-0.02344 1 1 0 0 0-0.01172-0.02734 1 1 0 0 0-2e-3 -0.0039 1 1 0 0 0-0.0293-0.05859 1 1 0 0 0-0.0098-0.01953 1 1 0 0 0-2e-3 -0.0039 1 1 0 0 0-0.04687-0.07422 1 1 0 0 0-2e-3 -0.0039 1 1 0 0 0-2e-3 -2e-3 1 1 0 0 0-0.02539-0.0332 1 1 0 0 0-0.02539-0.03516 1 1 0 0 0-0.0039-0.0039 1 1 0 0 0-0.01953-0.02344 1 1 0 0 0-0.03906-0.04102 1 1 0 0 0-0.02344-0.02148 1 1 0 0 0-0.03516-0.03125 1 1 0 0 0-0.0098-0.0098l-6-5a1 1 0 0 0-0.73047-0.22852z" fill="#5c5c5c"/></g></svg>
