<?xml version="1.0" encoding="UTF-8"?>
<svg version="1.1" viewBox="0 0 32 32" xmlns="http://www.w3.org/2000/svg">
 <path d="m5 2c-1.6447 0-3 1.3553-3 3v22c0 1.6447 1.3553 3 3 3h22c1.6447 0 3-1.3553 3-3v-22c0-1.6447-1.3553-3-3-3h-22zm0 2h22c0.5713 0 1 0.4287 1 1v22c0 0.5713-0.4287 1-1 1h-22c-0.5713 0-1-0.4287-1-1v-22c0-0.5713 0.4287-1 1-1zm7.4648 3.3965c-1.5368 0-3.0731 0.58481-4.2422 1.7539-2.3382 2.3382-2.3382 6.1481 0 8.4863l7.0703 7.0703a1.0001 1.0001 0 0 0 1.4141 0l7.0703-7.0703c2.3382-2.3382 2.3382-6.1481 0-8.4863-2.1297-2.1297-5.43-2.2187-7.7773-0.46875-1.0588-0.78933-2.2724-1.2852-3.5352-1.2852zm0 1.9844c1.0194 0 2.0385 0.394 2.8281 1.1836a1.0001 1.0001 0 0 0 1.4141 0c1.5792-1.5792 4.0771-1.5792 5.6562 0 1.5792 1.5792 1.5792 4.079 0 5.6582l-6.3633 6.3633-6.3633-6.3633c-1.5792-1.5792-1.5792-4.079 0-5.6582 0.78959-0.78959 1.8087-1.1836 2.8281-1.1836z" fill="#5c5c5c" stroke-linecap="round" stroke-linejoin="round"/>
</svg>
