<?xml version="1.0" encoding="UTF-8"?>
<svg version="1.1" viewBox="0 0 32 32" xml:space="preserve" xmlns="http://www.w3.org/2000/svg"><path d="m5 2c-1.6447 0-3 1.3553-3 3v22c0 1.6447 1.3553 3 3 3h22c1.6447 0 3-1.3553 3-3v-22c0-1.6447-1.3553-3-3-3h-22zm0 2h22c0.5713 0 1 0.4287 1 1v22c0 0.5713-0.4287 1-1 1h-22c-0.5713 0-1-0.4287-1-1v-22c0-0.5713 0.4287-1 1-1zm12.369 3.291c-0.38767 0-0.73912 0.078652-1.0508 0.23828-0.31166 0.15203-0.5578 0.36914-0.74023 0.65039s-0.27344 0.608-0.27344 0.98047c-2e-6 0.38007 0.10336 0.70682 0.30859 0.98047 0.20524 0.27365 0.43903 0.50528 0.70508 0.69531v0.044921c-0.22804 0.12162-0.44732 0.27872-0.66016 0.46875-0.20524 0.18243-0.37685 0.39954-0.51367 0.65039-0.12922 0.24324-0.19336 0.52449-0.19336 0.84375 0 0.38007 0.10336 0.72134 0.30859 1.0254 0.21284 0.30406 0.49625 0.54392 0.85352 0.71875 0.35727 0.16723 0.76462 0.25 1.2207 0.25 0.47129-1e-6 0.88276-0.08277 1.2324-0.25 0.35727-0.17483 0.63028-0.41058 0.82031-0.70703 0.19764-0.29645 0.29688-0.6232 0.29688-0.98047 0-0.32686-0.061972-0.60399-0.18359-0.83203-0.12162-0.23564-0.27676-0.43824-0.4668-0.60547s-0.39479-0.31197-0.61523-0.43359v-0.044922c0.15203-0.11402 0.30305-0.25876 0.45508-0.43359 0.15203-0.18243 0.28225-0.38308 0.38867-0.60352 0.10642-0.22804 0.1582-0.4679 0.1582-0.71875 0-0.5625-0.18612-1.0258-0.55859-1.3906-0.36487-0.36487-0.86127-0.54688-1.4922-0.54688zm-5.7695 0.13672c-0.19764 0.12162-0.42298 0.22714-0.67383 0.31836-0.24324 0.083615-0.53273 0.15599-0.86719 0.2168v0.60352h1.3242v5.3594h-1.666v0.77539h4.1055v-0.77539h-1.5059v-6.498h-0.7168zm5.7461 0.55859c0.40287 0 0.71511 0.12415 0.93555 0.375s0.33008 0.55484 0.33008 0.91211c0 0.26605-0.068253 0.52043-0.20508 0.76367-0.12922 0.24324-0.31535 0.47682-0.55859 0.69727-0.28885-0.11402-0.56382-0.23601-0.82226-0.36523-0.25845-0.13683-0.46732-0.3002-0.62695-0.49023-0.15203-0.19003-0.22656-0.4299-0.22656-0.71875 0-0.35727 0.10964-0.64263 0.33008-0.85547 0.22804-0.21284 0.50929-0.31836 0.84375-0.31836zm-0.53711 3.1797c0.34966 0.13682 0.67425 0.27745 0.9707 0.42188 0.30406 0.14443 0.54608 0.31604 0.72852 0.51367 0.18243 0.19764 0.27344 0.45202 0.27344 0.76367 0 0.37247-0.13239 0.68058-0.39844 0.92383-0.25845 0.23564-0.59971 0.35352-1.0254 0.35352-0.44088 0-0.81313-0.12827-1.1172-0.38672-0.29645-0.26605-0.44531-0.60103-0.44531-1.0039 0-0.33446 0.095121-0.63434 0.28516-0.90039 0.19764-0.26605 0.43966-0.49551 0.72852-0.68555zm-2.3711 6.1328c-0.19764 0.12162-0.42103 0.22714-0.67188 0.31836-0.24324 0.083612-0.53273 0.15598-0.86719 0.2168v0.60547h1.3223v5.3574h-1.6641v0.77539h4.1055v-0.77539h-1.5059v-6.498h-0.71875zm4.002 0-0.23828 3.5 0.50195 0.32031c0.22044-0.14443 0.41696-0.25602 0.5918-0.33203 0.18243-0.076014 0.39954-0.11328 0.65039-0.11328 0.47129 0 0.84766 0.14062 1.1289 0.42188 0.28125 0.28125 0.42188 0.67214 0.42188 1.1738 0 0.50929-0.15514 0.91665-0.4668 1.2207-0.30406 0.29646-0.68042 0.44336-1.1289 0.44336-0.42568 0-0.78341-0.08277-1.0723-0.25-0.28885-0.17483-0.54323-0.36919-0.76367-0.58203l-0.45703 0.61719c0.25085 0.25085 0.5672 0.47836 0.94727 0.68359 0.38007 0.20524 0.85784 0.30664 1.4355 0.30664 0.42568 0 0.8248-0.093168 1.1973-0.2832s0.67235-0.46912 0.90039-0.83398c0.23564-0.37247 0.35352-0.82121 0.35352-1.3457 0-0.5245-0.1014-0.95265-0.30664-1.2871-0.20524-0.33446-0.4802-0.58256-0.82227-0.74219-0.33446-0.16723-0.70888-0.25-1.127-0.25-0.22044 0-0.41892 0.026871-0.59375 0.080078-0.17483 0.05321-0.35056 0.12558-0.52539 0.2168l0.19531-2.1562h2.8164v-0.80859h-3.6387zm-8.1973 1.8574c-0.19004 0-0.35341 0.068253-0.49023 0.20508-0.12922 0.12922-0.19336 0.30495-0.19336 0.52539 0 0.20524 0.064136 0.37685 0.19336 0.51367 0.13683 0.12922 0.3002 0.19336 0.49023 0.19336 0.18243 0 0.33757-0.064135 0.4668-0.19336 0.13683-0.13682 0.20508-0.30843 0.20508-0.51367 2e-6 -0.22044-0.068252-0.39617-0.20508-0.52539-0.12922-0.13682-0.28436-0.20508-0.4668-0.20508zm0 4.1172c-0.19004 0-0.35341 0.068253-0.49023 0.20508-0.12922 0.12922-0.19336 0.30495-0.19336 0.52539 0 0.20524 0.064136 0.37489 0.19336 0.51172 0.13683 0.12922 0.3002 0.19336 0.49023 0.19336 0.18243 0 0.33757-0.064135 0.4668-0.19336 0.13683-0.13682 0.20508-0.30648 0.20508-0.51172 2e-6 -0.22044-0.068252-0.39617-0.20508-0.52539-0.12922-0.13682-0.28436-0.20508-0.4668-0.20508z" fill="#5c5c5c" stroke-linecap="round" stroke-linejoin="round"/></svg>
