<?xml version="1.0" encoding="UTF-8"?>
<svg version="1.1" viewBox="0 0 32 32" xml:space="preserve" xmlns="http://www.w3.org/2000/svg"><path d="m5 2c-1.6447 0-3 1.3553-3 3v22c0 1.6447 1.3553 3 3 3h22c1.6447 0 3-1.3553 3-3v-22c0-1.6447-1.3553-3-3-3zm0 2h22c0.5713 0 1 0.4287 1 1v22c0 0.5713-0.4287 1-1 1h-22c-0.5713 0-1-0.4287-1-1v-22c0-0.5713 0.4287-1 1-1z" fill="#5c5c5c" stroke-linecap="round" stroke-linejoin="round"/><path d="m14 21h12v3h-12z" fill="#999"/><path d="m10 15h9v3h-9z" fill="#6c6c6c"/><path d="m14 10h12v3h-12z" fill="#525252"/><path d="m7 6h6v3h-6z" fill="#a6a6a6"/></svg>
