<svg version="1.1" viewBox="0 0 32 32" xmlns="http://www.w3.org/2000/svg"><path d="m8.2207 6.2285c-0.5143 1e-7 -1.0284 0.19251-1.4141 0.57812-0.77123 0.77123-0.77123 2.0569 0 2.8281l1.4141 1.416c0.51517 0.51518 1.2601 0.68481 1.9277 0.51172l5.1445 5.1445c-0.77123 0.77123-0.77123 2.0569 0 2.8281l6.3633 6.3633c0.77123 0.77123 2.0569 0.77123 2.8281 0l1.4141-1.4141c0.77123-0.77123 0.77123-2.0569 0-2.8281l-6.3633-6.3633c-0.77123-0.77123-2.0569-0.77123-2.8281 0l-5.1445-5.1445c0.17309-0.66768 0.003457-1.4126-0.51172-1.9277l-1.416-1.4141c-0.38562-0.38562-0.89977-0.57813-1.4141-0.57812zm9.9004 10.479 6.3633 6.3633-1.4141 1.4141-6.3633-6.3633 1.4141-1.4141z" color="#000000"/></svg>
