<svg version="1.1" viewBox="0 0 32 32" xmlns="http://www.w3.org/2000/svg"><path transform="rotate(90)" d="m3-15c0 1.0907 0.90928 2 2 2h2.6738c0.094291 0.26066 0.20027 0.51484 0.31836 0.76562l-1.8926 1.8906c-0.77116 0.77116-0.77116 2.057 0 2.8281l1.416 1.416c0.77116 0.77116 2.057 0.77116 2.8281 0l1.8906-1.8926c0.25078 0.11809 0.50496 0.22407 0.76562 0.31836v2.6738c0 1.0907 0.90928 2 2 2h2c1.0907 0 2-0.90928 2-2v-2.6738c0.26066-0.094291 0.51484-0.20027 0.76562-0.31836l1.8906 1.8926c0.77116 0.77116 2.057 0.77116 2.8281 0l1.416-1.416c0.77116-0.77116 0.77116-2.057 0-2.8281l-1.8926-1.8906c0.11809-0.25078 0.22407-0.50496 0.31836-0.76562h2.6738c1.0907 0 2-0.90928 2-2v-2c0-1.0907-0.90928-2-2-2h-2.6738c-0.09429-0.26066-0.20027-0.51484-0.31836-0.76562l1.8926-1.8906c0.77116-0.77116 0.77116-2.057 0-2.8281l-1.416-1.416c-0.77116-0.77116-2.057-0.77116-2.8281 0l-1.8906 1.8926c-0.25078-0.11809-0.50496-0.22407-0.76562-0.31836v-2.6738c0-1.0907-0.90928-2-2-2h-2c-1.0907 0-2 0.90928-2 2v2.6582c-0.26413 0.09513-0.52138 0.20272-0.77539 0.32227l-1.8809-1.8809c-0.77116-0.77116-2.057-0.77116-2.8281 0l-1.416 1.416c-0.77116 0.77116-0.77116 2.057 0 2.8281l1.8809 1.8809c-0.11955 0.25401-0.22713 0.51126-0.32227 0.77539h-2.6582c-1.0907 0-2 0.90928-2 2v2zm2 0v-2h3.3164a1.0001 1.0001 0 0 0 0.9668-0.74805c0.16118-0.61868 0.40881-1.2123 0.73242-1.7637a1.0001 1.0001 0 0 0-0.15625-1.2129l-2.3457-2.3457 1.416-1.416 2.3457 2.3457a1.0001 1.0001 0 0 0 1.2129 0.15625c0.55138-0.32361 1.145-0.57124 1.7637-0.73242a1.0001 1.0001 0 0 0 0.74805-0.9668v-3.3164h2v3.3301a1.0001 1.0001 0 0 0 0.74609 0.9668c0.61565 0.16138 1.2071 0.40622 1.7559 0.72852a1.0001 1.0001 0 0 0 1.2129-0.1543l2.3555-2.3574 1.416 1.416-2.3574 2.3555a1.0001 1.0001 0 0 0-0.1543 1.2129c0.3223 0.54881 0.56714 1.1402 0.72852 1.7559a1.0001 1.0001 0 0 0 0.9668 0.74609h3.3301v2h-3.3301a1.0001 1.0001 0 0 0-0.9668 0.74609c-0.16138 0.61565-0.40622 1.2071-0.72852 1.7559a1.0001 1.0001 0 0 0 0.1543 1.2129l2.3574 2.3555-1.416 1.416-2.3555-2.3574a1.0001 1.0001 0 0 0-1.2129-0.1543c-0.54881 0.3223-1.1402 0.56714-1.7559 0.72852a1.0001 1.0001 0 0 0-0.74609 0.9668v3.3301h-2v-3.3301a1.0001 1.0001 0 0 0-0.74609-0.9668c-0.61565-0.16138-1.2071-0.40622-1.7559-0.72852a1.0001 1.0001 0 0 0-1.2129 0.1543l-2.3555 2.3574-1.416-1.416 2.3574-2.3555a1.0001 1.0001 0 0 0 0.1543-1.2129c-0.3223-0.54881-0.56714-1.1402-0.72852-1.7559a1.0001 1.0001 0 0 0-0.9668-0.74609h-3.3301zm7-1c0 2.1973 1.8027 4 4 4s4-1.8027 4-4-1.8027-4-4-4-4 1.8027-4 4zm2 0c0-1.1164 0.88359-2 2-2s2 0.88359 2 2-0.88359 2-2 2-2-0.88359-2-2z" color="#000000"/></svg>
