<?xml version="1.0" encoding="utf-8"?>
<!-- Generator: Adobe Illustrator 24.3.0, SVG Export Plug-In . SVG Version: 6.00 Build 0)  -->
<svg version="1.1"
	 id="svg918" inkscape:version="0.92.4 (5da689c313, 2019-01-14)" sodipodi:docname="UHR291_Front.svg" xmlns:cc="http://creativecommons.org/ns#" xmlns:dc="http://purl.org/dc/elements/1.1/" xmlns:inkscape="http://www.inkscape.org/namespaces/inkscape" xmlns:rdf="http://www.w3.org/1999/02/22-rdf-syntax-ns#" xmlns:sodipodi="http://sodipodi.sourceforge.net/DTD/sodipodi-0.dtd" xmlns:svg="http://www.w3.org/2000/svg"
	 xmlns="http://www.w3.org/2000/svg" xmlns:xlink="http://www.w3.org/1999/xlink" x="0px" y="0px" viewBox="0 0 1133.9 1133.9"
	 style="enable-background:new 0 0 1133.9 1133.9;" xml:space="preserve">
<style type="text/css">
	.st0{fill:#2FE5B3;fill-opacity:0.3125;}
	.st1{font-family:'Helvetica';}
	.st2{font-size:30px;}
	.st3{display:none;}
	.st4{display:inline;fill:none;stroke:#FF0000;stroke-width:0.2835;}
</style>
<sodipodi:namedview  bordercolor="#666666" borderopacity="1" gridtolerance="10" guidetolerance="10" id="namedview920" inkscape:current-layer="g916" inkscape:cx="881.90521" inkscape:cy="962.74081" inkscape:document-units="mm" inkscape:pageopacity="0" inkscape:pageshadow="2" inkscape:window-height="1109" inkscape:window-maximized="1" inkscape:window-width="1920" inkscape:window-x="1920" inkscape:window-y="0" inkscape:zoom="0.44003255" objecttolerance="10" pagecolor="#ffffff" showgrid="false">
	</sodipodi:namedview>
<g id="g916" transform="translate(0,-483.77923)">
	<path id="path2" inkscape:connector-curvature="0" class="st0" d="M1133.9,483.8H0v1133.9h1133.9V483.8z"/>
	<text transform="matrix(1 0 0 1 153.0801 678.9449)" class="st1 st2">E</text>
	<text transform="matrix(1 0 0 1 200.3242 678.9449)" class="st1 st2">S</text>
	<text transform="matrix(1 0 0 1 247.5684 678.9449)" class="st1 st2">A</text>
	<text transform="matrix(1 0 0 1 300.7656 678.9449)" class="st1 st2">I</text>
	<text transform="matrix(1 0 0 1 342.0566 678.9449)" class="st1 st2">S</text>
	<text transform="matrix(1 0 0 1 389.3008 678.9449)" class="st1 st2">T</text>
	<text transform="matrix(1 0 0 1 436.5449 678.9449)" class="st1 st2">O</text>
	<text transform="matrix(1 0 0 1 483.7891 678.9449)" class="st1 st2">V</text>
	<text transform="matrix(1 0 0 1 536.9863 678.9449)" class="st1 st2">I</text>
	<text transform="matrix(1 0 0 1 578.2773 678.9449)" class="st1 st2">E</text>
	<text transform="matrix(1 0 0 1 625.5215 678.9449)" class="st1 st2">R</text>
	<text transform="matrix(1 0 0 1 672.7656 678.9449)" class="st1 st2">T</text>
	<text transform="matrix(1 0 0 1 720.0098 678.9449)" class="st1 st2">E</text>
	<text transform="matrix(1 0 0 1 767.2539 678.9449)" class="st1 st2">L</text>
	<text transform="matrix(1 0 0 1 814.498 678.9449)" class="st1 st2">E</text>
	<text transform="matrix(1 0 0 1 867.6953 678.9449)" class="st1 st2">I</text>
	<text transform="matrix(1 0 0 1 908.9873 678.9449)" class="st1 st2">N</text>
	<text transform="matrix(1 0 0 1 956.2314 678.9449)" class="st1 st2">S</text>
	<text transform="matrix(1 0 0 1 153.0801 731.3858)" class="st1 st2">D</text>
	<text transform="matrix(1 0 0 1 200.3242 731.3858)" class="st1 st2">R</text>
	<text transform="matrix(1 0 0 1 247.5684 731.3858)" class="st1 st2">E</text>
	<text transform="matrix(1 0 0 1 300.7656 731.3858)" class="st1 st2">I</text>
	<text transform="matrix(1 0 0 1 342.0566 731.3858)" class="st1 st2">N</text>
	<text transform="matrix(1 0 0 1 389.3008 731.3858)" class="st1 st2">E</text>
	<text transform="matrix(1 0 0 1 436.5449 731.3858)" class="st1 st2">R</text>
	<text transform="matrix(1 0 0 1 483.7891 731.3858)" class="st1 st2">S</text>
	<text transform="matrix(1 0 0 1 531.0332 731.3858)" class="st1 st2">E</text>
	<text transform="matrix(1 0 0 1 578.2773 731.3858)" class="st1 st2">C</text>
	<text transform="matrix(1 0 0 1 625.5215 731.3858)" class="st1 st2">H</text>
	<text transform="matrix(1 0 0 1 672.7656 731.3858)" class="st1 st2">S</text>
	<text transform="matrix(1 0 0 1 725.9629 731.3858)" class="st1 st2">I</text>
	<text transform="matrix(1 0 0 1 767.2539 731.3858)" class="st1 st2">E</text>
	<text transform="matrix(1 0 0 1 814.498 731.3858)" class="st1 st2">B</text>
	<text transform="matrix(1 0 0 1 861.7422 731.3858)" class="st1 st2">E</text>
	<text transform="matrix(1 0 0 1 908.9873 731.3858)" class="st1 st2">N</text>
	<text transform="matrix(1 0 0 1 956.2314 731.3858)" class="st1 st2">E</text>
	<text transform="matrix(1 0 0 1 153.0801 783.8267)" class="st1 st2">E</text>
	<text transform="matrix(1 0 0 1 200.3242 783.8267)" class="st1 st2">L</text>
	<text transform="matrix(1 0 0 1 247.5684 783.8267)" class="st1 st2">F</text>
	<text transform="matrix(1 0 0 1 294.8125 783.8267)" class="st1 st2">Ü</text>
	<text transform="matrix(1 0 0 1 342.0566 783.8267)" class="st1 st2">N</text>
	<text transform="matrix(1 0 0 1 389.3008 783.8267)" class="st1 st2">F</text>
	<text transform="matrix(1 0 0 1 436.5449 783.8267)" class="st1 st2">N</text>
	<text transform="matrix(1 0 0 1 483.7891 783.8267)" class="st1 st2">E</text>
	<text transform="matrix(1 0 0 1 531.0332 783.8267)" class="st1 st2">U</text>
	<text transform="matrix(1 0 0 1 578.2773 783.8267)" class="st1 st2">N</text>
	<text transform="matrix(1 0 0 1 625.5215 783.8267)" class="st1 st2">V</text>
	<text transform="matrix(1 0 0 1 678.7188 783.8267)" class="st1 st2">I</text>
	<text transform="matrix(1 0 0 1 720.0098 783.8267)" class="st1 st2">E</text>
	<text transform="matrix(1 0 0 1 767.2539 783.8267)" class="st1 st2">R</text>
	<text transform="matrix(1 0 0 1 814.498 783.8267)" class="st1 st2">A</text>
	<text transform="matrix(1 0 0 1 861.7422 783.8267)" class="st1 st2">C</text>
	<text transform="matrix(1 0 0 1 908.9873 783.8267)" class="st1 st2">H</text>
	<text transform="matrix(1 0 0 1 956.2314 783.8267)" class="st1 st2">T</text>
	<text transform="matrix(1 0 0 1 153.0801 836.2676)" class="st1 st2">N</text>
	<text transform="matrix(1 0 0 1 200.3242 836.2676)" class="st1 st2">U</text>
	<text transform="matrix(1 0 0 1 247.5684 836.2676)" class="st1 st2">L</text>
	<text transform="matrix(1 0 0 1 294.8125 836.2676)" class="st1 st2">L</text>
	<text transform="matrix(1 0 0 1 342.0566 836.2676)" class="st1 st2">Z</text>
	<text transform="matrix(1 0 0 1 389.3008 836.2676)" class="st1 st2">W</text>
	<text transform="matrix(1 0 0 1 436.5449 836.2676)" class="st1 st2">E</text>
	<text transform="matrix(1 0 0 1 489.7422 836.2676)" class="st1 st2">I</text>
	<text transform="matrix(1 0 0 1 531.0332 836.2676)" class="st1 st2">N</text>
	<text transform="matrix(1 0 0 1 578.2773 836.2676)" class="st1 st2">Z</text>
	<text transform="matrix(1 0 0 1 625.5215 836.2676)" class="st1 st2">W</text>
	<text transform="matrix(1 0 0 1 672.7656 836.2676)" class="st1 st2">Ö</text>
	<text transform="matrix(1 0 0 1 720.0098 836.2676)" class="st1 st2">L</text>
	<text transform="matrix(1 0 0 1 767.2539 836.2676)" class="st1 st2">F</text>
	<text transform="matrix(1 0 0 1 814.498 836.2676)" class="st1 st2">Z</text>
	<text transform="matrix(1 0 0 1 861.7422 836.2676)" class="st1 st2">E</text>
	<text transform="matrix(1 0 0 1 908.9873 836.2676)" class="st1 st2">H</text>
	<text transform="matrix(1 0 0 1 956.2314 836.2676)" class="st1 st2">N</text>
	<text transform="matrix(1 0 0 1 153.0801 888.7086)" class="st1 st2">U</text>
	<text transform="matrix(1 0 0 1 200.3242 888.7086)" class="st1 st2">N</text>
	<text transform="matrix(1 0 0 1 247.5684 888.7086)" class="st1 st2">D</text>
	<text transform="matrix(1 0 0 1 294.8125 888.7086)" class="st1 st2">O</text>
	<text transform="matrix(1 0 0 1 342.0566 888.7086)" class="st1 st2">Z</text>
	<text transform="matrix(1 0 0 1 389.3008 888.7086)" class="st1 st2">W</text>
	<text transform="matrix(1 0 0 1 436.5449 888.7086)" class="st1 st2">A</text>
	<text transform="matrix(1 0 0 1 483.7891 888.7086)" class="st1 st2">N</text>
	<text transform="matrix(1 0 0 1 531.0332 888.7086)" class="st1 st2">Z</text>
	<text transform="matrix(1 0 0 1 584.2305 888.7086)" class="st1 st2">I</text>
	<text transform="matrix(1 0 0 1 625.5215 888.7086)" class="st1 st2">G</text>
	<text transform="matrix(1 0 0 1 672.7656 888.7086)" class="st1 st2">V</text>
	<text transform="matrix(1 0 0 1 725.9629 888.7086)" class="st1 st2">I</text>
	<text transform="matrix(1 0 0 1 767.2539 888.7086)" class="st1 st2">E</text>
	<text transform="matrix(1 0 0 1 814.498 888.7086)" class="st1 st2">R</text>
	<text transform="matrix(1 0 0 1 861.7422 888.7086)" class="st1 st2">Z</text>
	<text transform="matrix(1 0 0 1 914.9395 888.7086)" class="st1 st2">I</text>
	<text transform="matrix(1 0 0 1 956.2314 888.7086)" class="st1 st2">G</text>
	<text transform="matrix(1 0 0 1 153.0801 941.1495)" class="st1 st2">D</text>
	<text transform="matrix(1 0 0 1 200.3242 941.1495)" class="st1 st2">R</text>
	<text transform="matrix(1 0 0 1 247.5684 941.1495)" class="st1 st2">E</text>
	<text transform="matrix(1 0 0 1 300.7656 941.1495)" class="st1 st2">I</text>
	<text transform="matrix(1 0 0 1 342.0566 941.1495)" class="st1 st2">S</text>
	<text transform="matrix(1 0 0 1 389.3008 941.1495)" class="st1 st2">S</text>
	<text transform="matrix(1 0 0 1 442.498 941.1495)" class="st1 st2">I</text>
	<text transform="matrix(1 0 0 1 483.7891 941.1495)" class="st1 st2">G</text>
	<text transform="matrix(1 0 0 1 531.0332 941.1495)" class="st1 st2">F</text>
	<text transform="matrix(1 0 0 1 578.2773 941.1495)" class="st1 st2">Ü</text>
	<text transform="matrix(1 0 0 1 625.5215 941.1495)" class="st1 st2">N</text>
	<text transform="matrix(1 0 0 1 672.7656 941.1495)" class="st1 st2">F</text>
	<text transform="matrix(1 0 0 1 720.0098 941.1495)" class="st1 st2">Z</text>
	<text transform="matrix(1 0 0 1 773.207 941.1495)" class="st1 st2">I</text>
	<text transform="matrix(1 0 0 1 814.498 941.1495)" class="st1 st2">G</text>
	<text transform="matrix(1 0 0 1 861.7422 941.1495)" class="st1 st2">U</text>
	<text transform="matrix(1 0 0 1 908.9873 941.1495)" class="st1 st2">H</text>
	<text transform="matrix(1 0 0 1 956.2314 941.1495)" class="st1 st2">R</text>
	<text transform="matrix(1 0 0 1 153.0801 993.5909)" class="st1 st2">M</text>
	<text transform="matrix(1 0 0 1 206.2769 993.5909)" class="st1 st2">I</text>
	<text transform="matrix(1 0 0 1 247.5684 993.5909)" class="st1 st2">N</text>
	<text transform="matrix(1 0 0 1 294.8125 993.5909)" class="st1 st2">U</text>
	<text transform="matrix(1 0 0 1 342.0566 993.5909)" class="st1 st2">T</text>
	<text transform="matrix(1 0 0 1 389.3008 993.5909)" class="st1 st2">E</text>
	<text transform="matrix(1 0 0 1 436.5449 993.5909)" class="st1 st2">N</text>
	<text transform="matrix(1 0 0 1 489.7422 993.5909)" class="st1 st2">I</text>
	<text transform="matrix(1 0 0 1 531.0332 993.5909)" class="st1 st2">V</text>
	<text transform="matrix(1 0 0 1 578.2773 993.5909)" class="st1 st2">O</text>
	<text transform="matrix(1 0 0 1 625.5215 993.5909)" class="st1 st2">R</text>
	<text transform="matrix(1 0 0 1 672.7656 993.5909)" class="st1 st2">U</text>
	<text transform="matrix(1 0 0 1 720.0098 993.5909)" class="st1 st2">N</text>
	<text transform="matrix(1 0 0 1 767.2539 993.5909)" class="st1 st2">D</text>
	<text transform="matrix(1 0 0 1 814.498 993.5909)" class="st1 st2">N</text>
	<text transform="matrix(1 0 0 1 861.7422 993.5909)" class="st1 st2">A</text>
	<text transform="matrix(1 0 0 1 908.9873 993.5909)" class="st1 st2">C</text>
	<text transform="matrix(1 0 0 1 956.2314 993.5909)" class="st1 st2">H</text>
	<text transform="matrix(1 0 0 1 153.0801 1046.0312)" class="st1 st2">E</text>
	<text transform="matrix(1 0 0 1 206.2769 1046.0312)" class="st1 st2">I</text>
	<text transform="matrix(1 0 0 1 247.5684 1046.0312)" class="st1 st2">N</text>
	<text transform="matrix(1 0 0 1 294.8125 1046.0312)" class="st1 st2">D</text>
	<text transform="matrix(1 0 0 1 342.0566 1046.0312)" class="st1 st2">R</text>
	<text transform="matrix(1 0 0 1 389.3008 1046.0312)" class="st1 st2">E</text>
	<text transform="matrix(1 0 0 1 442.498 1046.0312)" class="st1 st2">I</text>
	<text transform="matrix(1 0 0 1 483.7891 1046.0312)" class="st1 st2">V</text>
	<text transform="matrix(1 0 0 1 536.9863 1046.0312)" class="st1 st2">I</text>
	<text transform="matrix(1 0 0 1 578.2773 1046.0312)" class="st1 st2">E</text>
	<text transform="matrix(1 0 0 1 625.5215 1046.0312)" class="st1 st2">R</text>
	<text transform="matrix(1 0 0 1 672.7656 1046.0312)" class="st1 st2">T</text>
	<text transform="matrix(1 0 0 1 720.0098 1046.0312)" class="st1 st2">E</text>
	<text transform="matrix(1 0 0 1 767.2539 1046.0312)" class="st1 st2">L</text>
	<text transform="matrix(1 0 0 1 814.498 1046.0312)" class="st1 st2">H</text>
	<text transform="matrix(1 0 0 1 861.7422 1046.0312)" class="st1 st2">A</text>
	<text transform="matrix(1 0 0 1 908.9873 1046.0312)" class="st1 st2">L</text>
	<text transform="matrix(1 0 0 1 956.2314 1046.0312)" class="st1 st2">B</text>
	<text transform="matrix(1 0 0 1 153.0801 1098.4717)" class="st1 st2">S</text>
	<text transform="matrix(1 0 0 1 206.2769 1098.4717)" class="st1 st2">I</text>
	<text transform="matrix(1 0 0 1 247.5684 1098.4717)" class="st1 st2">E</text>
	<text transform="matrix(1 0 0 1 294.8125 1098.4717)" class="st1 st2">B</text>
	<text transform="matrix(1 0 0 1 342.0566 1098.4717)" class="st1 st2">E</text>
	<text transform="matrix(1 0 0 1 389.3008 1098.4717)" class="st1 st2">N</text>
	<text transform="matrix(1 0 0 1 436.5449 1098.4717)" class="st1 st2">E</text>
	<text transform="matrix(1 0 0 1 483.7891 1098.4717)" class="st1 st2">U</text>
	<text transform="matrix(1 0 0 1 531.0332 1098.4717)" class="st1 st2">N</text>
	<text transform="matrix(1 0 0 1 578.2773 1098.4717)" class="st1 st2">U</text>
	<text transform="matrix(1 0 0 1 625.5215 1098.4717)" class="st1 st2">L</text>
	<text transform="matrix(1 0 0 1 672.7656 1098.4717)" class="st1 st2">L</text>
	<text transform="matrix(1 0 0 1 720.0098 1098.4717)" class="st1 st2">Z</text>
	<text transform="matrix(1 0 0 1 767.2539 1098.4717)" class="st1 st2">W</text>
	<text transform="matrix(1 0 0 1 814.498 1098.4717)" class="st1 st2">E</text>
	<text transform="matrix(1 0 0 1 867.6953 1098.4717)" class="st1 st2">I</text>
	<text transform="matrix(1 0 0 1 908.9873 1098.4717)" class="st1 st2">N</text>
	<text transform="matrix(1 0 0 1 956.2314 1098.4717)" class="st1 st2">E</text>
	<text transform="matrix(1 0 0 1 153.0801 1150.9131)" class="st1 st2">F</text>
	<text transform="matrix(1 0 0 1 200.3242 1150.9131)" class="st1 st2">Ü</text>
	<text transform="matrix(1 0 0 1 247.5684 1150.9131)" class="st1 st2">N</text>
	<text transform="matrix(1 0 0 1 294.8125 1150.9131)" class="st1 st2">F</text>
	<text transform="matrix(1 0 0 1 342.0566 1150.9131)" class="st1 st2">S</text>
	<text transform="matrix(1 0 0 1 389.3008 1150.9131)" class="st1 st2">E</text>
	<text transform="matrix(1 0 0 1 436.5449 1150.9131)" class="st1 st2">C</text>
	<text transform="matrix(1 0 0 1 483.7891 1150.9131)" class="st1 st2">H</text>
	<text transform="matrix(1 0 0 1 531.0332 1150.9131)" class="st1 st2">S</text>
	<text transform="matrix(1 0 0 1 578.2773 1150.9131)" class="st1 st2">N</text>
	<text transform="matrix(1 0 0 1 625.5215 1150.9131)" class="st1 st2">A</text>
	<text transform="matrix(1 0 0 1 672.7656 1150.9131)" class="st1 st2">C</text>
	<text transform="matrix(1 0 0 1 720.0098 1150.9131)" class="st1 st2">H</text>
	<text transform="matrix(1 0 0 1 767.2539 1150.9131)" class="st1 st2">T</text>
	<text transform="matrix(1 0 0 1 814.498 1150.9131)" class="st1 st2">V</text>
	<text transform="matrix(1 0 0 1 867.6953 1150.9131)" class="st1 st2">I</text>
	<text transform="matrix(1 0 0 1 908.9873 1150.9131)" class="st1 st2">E</text>
	<text transform="matrix(1 0 0 1 956.2314 1150.9131)" class="st1 st2">R</text>
	<text transform="matrix(1 0 0 1 153.0801 1203.3545)" class="st1 st2">D</text>
	<text transform="matrix(1 0 0 1 200.3242 1203.3545)" class="st1 st2">R</text>
	<text transform="matrix(1 0 0 1 247.5684 1203.3545)" class="st1 st2">E</text>
	<text transform="matrix(1 0 0 1 300.7656 1203.3545)" class="st1 st2">I</text>
	<text transform="matrix(1 0 0 1 342.0566 1203.3545)" class="st1 st2">N</text>
	<text transform="matrix(1 0 0 1 389.3008 1203.3545)" class="st1 st2">S</text>
	<text transform="matrix(1 0 0 1 436.5449 1203.3545)" class="st1 st2">U</text>
	<text transform="matrix(1 0 0 1 483.7891 1203.3545)" class="st1 st2">N</text>
	<text transform="matrix(1 0 0 1 531.0332 1203.3545)" class="st1 st2">D</text>
	<text transform="matrix(1 0 0 1 578.2773 1203.3545)" class="st1 st2">A</text>
	<text transform="matrix(1 0 0 1 625.5215 1203.3545)" class="st1 st2">E</text>
	<text transform="matrix(1 0 0 1 672.7656 1203.3545)" class="st1 st2">L</text>
	<text transform="matrix(1 0 0 1 720.0098 1203.3545)" class="st1 st2">F</text>
	<text transform="matrix(1 0 0 1 767.2539 1203.3545)" class="st1 st2">E</text>
	<text transform="matrix(1 0 0 1 814.498 1203.3545)" class="st1 st2">Z</text>
	<text transform="matrix(1 0 0 1 861.7422 1203.3545)" class="st1 st2">E</text>
	<text transform="matrix(1 0 0 1 908.9873 1203.3545)" class="st1 st2">H</text>
	<text transform="matrix(1 0 0 1 956.2314 1203.3545)" class="st1 st2">N</text>
	<text transform="matrix(1 0 0 1 153.0801 1255.7949)" class="st1 st2">Z</text>
	<text transform="matrix(1 0 0 1 200.3242 1255.7949)" class="st1 st2">W</text>
	<text transform="matrix(1 0 0 1 247.5684 1255.7949)" class="st1 st2">A</text>
	<text transform="matrix(1 0 0 1 294.8125 1255.7949)" class="st1 st2">N</text>
	<text transform="matrix(1 0 0 1 342.0566 1255.7949)" class="st1 st2">Z</text>
	<text transform="matrix(1 0 0 1 395.2539 1255.7949)" class="st1 st2">I</text>
	<text transform="matrix(1 0 0 1 436.5449 1255.7949)" class="st1 st2">G</text>
	<text transform="matrix(1 0 0 1 483.7891 1255.7949)" class="st1 st2">G</text>
	<text transform="matrix(1 0 0 1 531.0332 1255.7949)" class="st1 st2">R</text>
	<text transform="matrix(1 0 0 1 578.2773 1255.7949)" class="st1 st2">A</text>
	<text transform="matrix(1 0 0 1 625.5215 1255.7949)" class="st1 st2">D</text>
	<text transform="matrix(1 0 0 1 672.7656 1255.7949)" class="st1 st2">R</text>
	<text transform="matrix(1 0 0 1 720.0098 1255.7949)" class="st1 st2">E</text>
	<text transform="matrix(1 0 0 1 773.207 1255.7949)" class="st1 st2">I</text>
	<text transform="matrix(1 0 0 1 814.498 1255.7949)" class="st1 st2">S</text>
	<text transform="matrix(1 0 0 1 861.7422 1255.7949)" class="st1 st2">S</text>
	<text transform="matrix(1 0 0 1 914.9395 1255.7949)" class="st1 st2">I</text>
	<text transform="matrix(1 0 0 1 956.2314 1255.7949)" class="st1 st2">G</text>
	<text transform="matrix(1 0 0 1 153.0801 1308.2363)" class="st1 st2">V</text>
	<text transform="matrix(1 0 0 1 206.2769 1308.2363)" class="st1 st2">I</text>
	<text transform="matrix(1 0 0 1 247.5684 1308.2363)" class="st1 st2">E</text>
	<text transform="matrix(1 0 0 1 294.8125 1308.2363)" class="st1 st2">R</text>
	<text transform="matrix(1 0 0 1 342.0566 1308.2363)" class="st1 st2">Z</text>
	<text transform="matrix(1 0 0 1 395.2539 1308.2363)" class="st1 st2">I</text>
	<text transform="matrix(1 0 0 1 436.5449 1308.2363)" class="st1 st2">G</text>
	<text transform="matrix(1 0 0 1 483.7891 1308.2363)" class="st1 st2">Z</text>
	<text transform="matrix(1 0 0 1 531.0332 1308.2363)" class="st1 st2">W</text>
	<text transform="matrix(1 0 0 1 578.2773 1308.2363)" class="st1 st2">Ö</text>
	<text transform="matrix(1 0 0 1 625.5215 1308.2363)" class="st1 st2">L</text>
	<text transform="matrix(1 0 0 1 672.7656 1308.2363)" class="st1 st2">F</text>
	<text transform="matrix(1 0 0 1 720.0098 1308.2363)" class="st1 st2">Ü</text>
	<text transform="matrix(1 0 0 1 767.2539 1308.2363)" class="st1 st2">N</text>
	<text transform="matrix(1 0 0 1 814.498 1308.2363)" class="st1 st2">F</text>
	<text transform="matrix(1 0 0 1 861.7422 1308.2363)" class="st1 st2">Z</text>
	<text transform="matrix(1 0 0 1 914.9395 1308.2363)" class="st1 st2">I</text>
	<text transform="matrix(1 0 0 1 956.2314 1308.2363)" class="st1 st2">G</text>
	<text transform="matrix(1 0 0 1 153.0801 1360.6768)" class="st1 st2">M</text>
	<text transform="matrix(1 0 0 1 206.2769 1360.6768)" class="st1 st2">I</text>
	<text transform="matrix(1 0 0 1 247.5684 1360.6768)" class="st1 st2">N</text>
	<text transform="matrix(1 0 0 1 294.8125 1360.6768)" class="st1 st2">U</text>
	<text transform="matrix(1 0 0 1 342.0566 1360.6768)" class="st1 st2">T</text>
	<text transform="matrix(1 0 0 1 389.3008 1360.6768)" class="st1 st2">E</text>
	<text transform="matrix(1 0 0 1 436.5449 1360.6768)" class="st1 st2">N</text>
	<text transform="matrix(1 0 0 1 483.7891 1360.6768)" class="st1 st2">U</text>
	<text transform="matrix(1 0 0 1 531.0332 1360.6768)" class="st1 st2">H</text>
	<text transform="matrix(1 0 0 1 578.2773 1360.6768)" class="st1 st2">R</text>
	<text transform="matrix(1 0 0 1 625.5215 1360.6768)" class="st1 st2">E</text>
	<text transform="matrix(1 0 0 1 672.7656 1360.6768)" class="st1 st2">F</text>
	<text transform="matrix(1 0 0 1 720.0098 1360.6768)" class="st1 st2">R</text>
	<text transform="matrix(1 0 0 1 767.2539 1360.6768)" class="st1 st2">Ü</text>
	<text transform="matrix(1 0 0 1 814.498 1360.6768)" class="st1 st2">H</text>
	<text transform="matrix(1 0 0 1 861.7422 1360.6768)" class="st1 st2">V</text>
	<text transform="matrix(1 0 0 1 908.9873 1360.6768)" class="st1 st2">O</text>
	<text transform="matrix(1 0 0 1 956.2314 1360.6768)" class="st1 st2">R</text>
	<text transform="matrix(1 0 0 1 153.0801 1413.1182)" class="st1 st2">A</text>
	<text transform="matrix(1 0 0 1 200.3242 1413.1182)" class="st1 st2">B</text>
	<text transform="matrix(1 0 0 1 247.5684 1413.1182)" class="st1 st2">E</text>
	<text transform="matrix(1 0 0 1 294.8125 1413.1182)" class="st1 st2">N</text>
	<text transform="matrix(1 0 0 1 342.0566 1413.1182)" class="st1 st2">D</text>
	<text transform="matrix(1 0 0 1 389.3008 1413.1182)" class="st1 st2">S</text>
	<text transform="matrix(1 0 0 1 436.5449 1413.1182)" class="st1 st2">M</text>
	<text transform="matrix(1 0 0 1 489.7422 1413.1182)" class="st1 st2">I</text>
	<text transform="matrix(1 0 0 1 531.0332 1413.1182)" class="st1 st2">T</text>
	<text transform="matrix(1 0 0 1 578.2773 1413.1182)" class="st1 st2">T</text>
	<text transform="matrix(1 0 0 1 625.5215 1413.1182)" class="st1 st2">E</text>
	<text transform="matrix(1 0 0 1 672.7656 1413.1182)" class="st1 st2">R</text>
	<text transform="matrix(1 0 0 1 720.0098 1413.1182)" class="st1 st2">N</text>
	<text transform="matrix(1 0 0 1 767.2539 1413.1182)" class="st1 st2">A</text>
	<text transform="matrix(1 0 0 1 814.498 1413.1182)" class="st1 st2">C</text>
	<text transform="matrix(1 0 0 1 861.7422 1413.1182)" class="st1 st2">H</text>
	<text transform="matrix(1 0 0 1 908.9873 1413.1182)" class="st1 st2">T</text>
	<text transform="matrix(1 0 0 1 956.2314 1413.1182)" class="st1 st2">S</text>
	<text transform="matrix(1 0 0 1 153.0801 1465.5586)" class="st1 st2">M</text>
	<text transform="matrix(1 0 0 1 200.3242 1465.5586)" class="st1 st2">O</text>
	<text transform="matrix(1 0 0 1 247.5684 1465.5586)" class="st1 st2">R</text>
	<text transform="matrix(1 0 0 1 294.8125 1465.5586)" class="st1 st2">G</text>
	<text transform="matrix(1 0 0 1 342.0566 1465.5586)" class="st1 st2">E</text>
	<text transform="matrix(1 0 0 1 389.3008 1465.5586)" class="st1 st2">N</text>
	<text transform="matrix(1 0 0 1 436.5449 1465.5586)" class="st1 st2">S</text>
	<text transform="matrix(1 0 0 1 483.7891 1465.5586)" class="st1 st2">W</text>
	<text transform="matrix(1 0 0 1 531.0332 1465.5586)" class="st1 st2">A</text>
	<text transform="matrix(1 0 0 1 578.2773 1465.5586)" class="st1 st2">R</text>
	<text transform="matrix(1 0 0 1 625.5215 1465.5586)" class="st1 st2">M</text>
	<text transform="matrix(1 0 0 1 672.7656 1465.5586)" class="st1 st2">M</text>
	<text transform="matrix(1 0 0 1 725.9629 1465.5586)" class="st1 st2">I</text>
	<text transform="matrix(1 0 0 1 767.2539 1465.5586)" class="st1 st2">T</text>
	<text transform="matrix(1 0 0 1 814.498 1465.5586)" class="st1 st2">T</text>
	<text transform="matrix(1 0 0 1 861.7422 1465.5586)" class="st1 st2">A</text>
	<text transform="matrix(1 0 0 1 908.9873 1465.5586)" class="st1 st2">G</text>
	<text transform="matrix(1 0 0 1 956.2314 1465.5586)" class="st1 st2">S</text>
</g>
<g class="st3">
	<path class="st4" d="M183,198.2c0,3.9-3.2,7.1-7.1,7.1h-22.7c-3.9,0-7.1-3.2-7.1-7.1v-28.3c0-3.9,3.2-7.1,7.1-7.1h22.7
		c3.9,0,7.1,3.2,7.1,7.1V198.2z"/>
	<path class="st4" d="M230.2,198.2c0,3.9-3.2,7.1-7.1,7.1h-22.7c-3.9,0-7.1-3.2-7.1-7.1v-28.3c0-3.9,3.2-7.1,7.1-7.1h22.7
		c3.9,0,7.1,3.2,7.1,7.1V198.2z"/>
	<path class="st4" d="M277.5,198.2c0,3.9-3.2,7.1-7.1,7.1h-22.7c-3.9,0-7.1-3.2-7.1-7.1v-28.3c0-3.9,3.2-7.1,7.1-7.1h22.7
		c3.9,0,7.1,3.2,7.1,7.1V198.2z"/>
	<path class="st4" d="M324.7,198.2c0,3.9-3.2,7.1-7.1,7.1h-22.7c-3.9,0-7.1-3.2-7.1-7.1v-28.3c0-3.9,3.2-7.1,7.1-7.1h22.7
		c3.9,0,7.1,3.2,7.1,7.1V198.2z"/>
	<path class="st4" d="M371.9,198.2c0,3.9-3.2,7.1-7.1,7.1h-22.7c-3.9,0-7.1-3.2-7.1-7.1v-28.3c0-3.9,3.2-7.1,7.1-7.1h22.7
		c3.9,0,7.1,3.2,7.1,7.1V198.2z"/>
	<path class="st4" d="M419.2,198.2c0,3.9-3.2,7.1-7.1,7.1h-22.7c-3.9,0-7.1-3.2-7.1-7.1v-28.3c0-3.9,3.2-7.1,7.1-7.1h22.7
		c3.9,0,7.1,3.2,7.1,7.1V198.2z"/>
	<path class="st4" d="M466.4,198.2c0,3.9-3.2,7.1-7.1,7.1h-22.7c-3.9,0-7.1-3.2-7.1-7.1v-28.3c0-3.9,3.2-7.1,7.1-7.1h22.7
		c3.9,0,7.1,3.2,7.1,7.1V198.2z"/>
	<path class="st4" d="M513.7,198.2c0,3.9-3.2,7.1-7.1,7.1h-22.7c-3.9,0-7.1-3.2-7.1-7.1v-28.3c0-3.9,3.2-7.1,7.1-7.1h22.7
		c3.9,0,7.1,3.2,7.1,7.1V198.2z"/>
	<path class="st4" d="M560.9,198.2c0,3.9-3.2,7.1-7.1,7.1h-22.7c-3.9,0-7.1-3.2-7.1-7.1v-28.3c0-3.9,3.2-7.1,7.1-7.1h22.7
		c3.9,0,7.1,3.2,7.1,7.1V198.2z"/>
	<path class="st4" d="M608.2,198.2c0,3.9-3.2,7.1-7.1,7.1h-22.7c-3.9,0-7.1-3.2-7.1-7.1v-28.3c0-3.9,3.2-7.1,7.1-7.1h22.7
		c3.9,0,7.1,3.2,7.1,7.1V198.2z"/>
	<path class="st4" d="M655.4,198.2c0,3.9-3.2,7.1-7.1,7.1h-22.7c-3.9,0-7.1-3.2-7.1-7.1v-28.3c0-3.9,3.2-7.1,7.1-7.1h22.7
		c3.9,0,7.1,3.2,7.1,7.1V198.2z"/>
	<path class="st4" d="M183,250.6c0,3.9-3.2,7.1-7.1,7.1h-22.7c-3.9,0-7.1-3.2-7.1-7.1v-28.3c0-3.9,3.2-7.1,7.1-7.1h22.7
		c3.9,0,7.1,3.2,7.1,7.1V250.6z"/>
	<path class="st4" d="M230.2,250.6c0,3.9-3.2,7.1-7.1,7.1h-22.7c-3.9,0-7.1-3.2-7.1-7.1v-28.3c0-3.9,3.2-7.1,7.1-7.1h22.7
		c3.9,0,7.1,3.2,7.1,7.1V250.6z"/>
	<path class="st4" d="M277.5,250.6c0,3.9-3.2,7.1-7.1,7.1h-22.7c-3.9,0-7.1-3.2-7.1-7.1v-28.3c0-3.9,3.2-7.1,7.1-7.1h22.7
		c3.9,0,7.1,3.2,7.1,7.1V250.6z"/>
	<path class="st4" d="M324.7,250.6c0,3.9-3.2,7.1-7.1,7.1h-22.7c-3.9,0-7.1-3.2-7.1-7.1v-28.3c0-3.9,3.2-7.1,7.1-7.1h22.7
		c3.9,0,7.1,3.2,7.1,7.1V250.6z"/>
	<path class="st4" d="M371.9,250.6c0,3.9-3.2,7.1-7.1,7.1h-22.7c-3.9,0-7.1-3.2-7.1-7.1v-28.3c0-3.9,3.2-7.1,7.1-7.1h22.7
		c3.9,0,7.1,3.2,7.1,7.1V250.6z"/>
	<path class="st4" d="M422,250.6c0,3.9-3.7,7.1-8.2,7.1h-26.2c-4.5,0-8.2-3.2-8.2-7.1v-28.3c0-3.9,3.7-7.1,8.2-7.1h26.2
		c4.5,0,8.2,3.2,8.2,7.1V250.6z"/>
	<path class="st4" d="M466.4,250.6c0,3.9-3.2,7.1-7.1,7.1h-22.7c-3.9,0-7.1-3.2-7.1-7.1v-28.3c0-3.9,3.2-7.1,7.1-7.1h22.7
		c3.9,0,7.1,3.2,7.1,7.1V250.6z"/>
	<path class="st4" d="M513.7,250.6c0,3.9-3.2,7.1-7.1,7.1h-22.7c-3.9,0-7.1-3.2-7.1-7.1v-28.3c0-3.9,3.2-7.1,7.1-7.1h22.7
		c3.9,0,7.1,3.2,7.1,7.1V250.6z"/>
	<path class="st4" d="M560.9,250.6c0,3.9-3.2,7.1-7.1,7.1h-22.7c-3.9,0-7.1-3.2-7.1-7.1v-28.3c0-3.9,3.2-7.1,7.1-7.1h22.7
		c3.9,0,7.1,3.2,7.1,7.1V250.6z"/>
	<path class="st4" d="M608.2,250.6c0,3.9-3.2,7.1-7.1,7.1h-22.7c-3.9,0-7.1-3.2-7.1-7.1v-28.3c0-3.9,3.2-7.1,7.1-7.1h22.7
		c3.9,0,7.1,3.2,7.1,7.1V250.6z"/>
	<path class="st4" d="M655.4,250.6c0,3.9-3.2,7.1-7.1,7.1h-22.7c-3.9,0-7.1-3.2-7.1-7.1v-28.3c0-3.9,3.2-7.1,7.1-7.1h22.7
		c3.9,0,7.1,3.2,7.1,7.1V250.6z"/>
	<path class="st4" d="M183,303.1c0,3.9-3.2,7.1-7.1,7.1h-22.7c-3.9,0-7.1-3.2-7.1-7.1v-28.3c0-3.9,3.2-7.1,7.1-7.1h22.7
		c3.9,0,7.1,3.2,7.1,7.1V303.1z"/>
	<path class="st4" d="M233.1,303.1c0,3.9-3.7,7.1-8.2,7.1h-26.2c-4.5,0-8.2-3.2-8.2-7.1v-28.3c0-3.9,3.7-7.1,8.2-7.1h26.2
		c4.5,0,8.2,3.2,8.2,7.1L233.1,303.1L233.1,303.1z"/>
	<path class="st4" d="M277.5,303.1c0,3.9-3.2,7.1-7.1,7.1h-22.7c-3.9,0-7.1-3.2-7.1-7.1v-28.3c0-3.9,3.2-7.1,7.1-7.1h22.7
		c3.9,0,7.1,3.2,7.1,7.1V303.1z"/>
	<path class="st4" d="M324.7,303.1c0,3.9-3.2,7.1-7.1,7.1h-22.7c-3.9,0-7.1-3.2-7.1-7.1v-28.3c0-3.9,3.2-7.1,7.1-7.1h22.7
		c3.9,0,7.1,3.2,7.1,7.1V303.1z"/>
	<path class="st4" d="M371.9,303.1c0,3.9-3.2,7.1-7.1,7.1h-22.7c-3.9,0-7.1-3.2-7.1-7.1v-28.3c0-3.9,3.2-7.1,7.1-7.1h22.7
		c3.9,0,7.1,3.2,7.1,7.1V303.1z"/>
	<path class="st4" d="M419.2,303.1c0,3.9-3.2,7.1-7.1,7.1h-22.7c-3.9,0-7.1-3.2-7.1-7.1v-28.3c0-3.9,3.2-7.1,7.1-7.1h22.7
		c3.9,0,7.1,3.2,7.1,7.1V303.1z"/>
	<path class="st4" d="M466.4,303.1c0,3.9-3.2,7.1-7.1,7.1h-22.7c-3.9,0-7.1-3.2-7.1-7.1v-28.3c0-3.9,3.2-7.1,7.1-7.1h22.7
		c3.9,0,7.1,3.2,7.1,7.1V303.1z"/>
	<path class="st4" d="M513.7,303.1c0,3.9-3.2,7.1-7.1,7.1h-22.7c-3.9,0-7.1-3.2-7.1-7.1v-28.3c0-3.9,3.2-7.1,7.1-7.1h22.7
		c3.9,0,7.1,3.2,7.1,7.1V303.1z"/>
	<path class="st4" d="M560.9,303.1c0,3.9-3.2,7.1-7.1,7.1h-22.7c-3.9,0-7.1-3.2-7.1-7.1v-28.3c0-3.9,3.2-7.1,7.1-7.1h22.7
		c3.9,0,7.1,3.2,7.1,7.1V303.1z"/>
	<path class="st4" d="M611,303.1c0,3.9-3.7,7.1-8.2,7.1h-26.2c-4.5,0-8.2-3.2-8.2-7.1v-28.3c0-3.9,3.7-7.1,8.2-7.1h26.2
		c4.5,0,8.2,3.2,8.2,7.1V303.1z"/>
	<path class="st4" d="M655.4,303.1c0,3.9-3.2,7.1-7.1,7.1h-22.7c-3.9,0-7.1-3.2-7.1-7.1v-28.3c0-3.9,3.2-7.1,7.1-7.1h22.7
		c3.9,0,7.1,3.2,7.1,7.1V303.1z"/>
	<path class="st4" d="M183,355.6c0,3.9-3.2,7.1-7.1,7.1h-22.7c-3.9,0-7.1-3.2-7.1-7.1v-28.3c0-3.9,3.2-7.1,7.1-7.1h22.7
		c3.9,0,7.1,3.2,7.1,7.1V355.6z"/>
	<path class="st4" d="M230.2,355.6c0,3.9-3.2,7.1-7.1,7.1h-22.7c-3.9,0-7.1-3.2-7.1-7.1v-28.3c0-3.9,3.2-7.1,7.1-7.1h22.7
		c3.9,0,7.1,3.2,7.1,7.1V355.6z"/>
	<path class="st4" d="M277.5,355.6c0,3.9-3.2,7.1-7.1,7.1h-22.7c-3.9,0-7.1-3.2-7.1-7.1v-28.3c0-3.9,3.2-7.1,7.1-7.1h22.7
		c3.9,0,7.1,3.2,7.1,7.1V355.6z"/>
	<path class="st4" d="M324.7,355.6c0,3.9-3.2,7.1-7.1,7.1h-22.7c-3.9,0-7.1-3.2-7.1-7.1v-28.3c0-3.9,3.2-7.1,7.1-7.1h22.7
		c3.9,0,7.1,3.2,7.1,7.1V355.6z"/>
	<path class="st4" d="M371.9,355.6c0,3.9-3.2,7.1-7.1,7.1h-22.7c-3.9,0-7.1-3.2-7.1-7.1v-28.3c0-3.9,3.2-7.1,7.1-7.1h22.7
		c3.9,0,7.1,3.2,7.1,7.1V355.6z"/>
	<path class="st4" d="M419.2,355.6c0,3.9-3.2,7.1-7.1,7.1h-22.7c-3.9,0-7.1-3.2-7.1-7.1v-28.3c0-3.9,3.2-7.1,7.1-7.1h22.7
		c3.9,0,7.1,3.2,7.1,7.1V355.6z"/>
	<path class="st4" d="M466.4,355.6c0,3.9-3.2,7.1-7.1,7.1h-22.7c-3.9,0-7.1-3.2-7.1-7.1v-28.3c0-3.9,3.2-7.1,7.1-7.1h22.7
		c3.9,0,7.1,3.2,7.1,7.1V355.6z"/>
	<path class="st4" d="M513.7,355.6c0,3.9-3.2,7.1-7.1,7.1h-22.7c-3.9,0-7.1-3.2-7.1-7.1v-28.3c0-3.9,3.2-7.1,7.1-7.1h22.7
		c3.9,0,7.1,3.2,7.1,7.1V355.6z"/>
	<path class="st4" d="M560.9,355.6c0,3.9-3.2,7.1-7.1,7.1h-22.7c-3.9,0-7.1-3.2-7.1-7.1v-28.3c0-3.9,3.2-7.1,7.1-7.1h22.7
		c3.9,0,7.1,3.2,7.1,7.1V355.6z"/>
	<path class="st4" d="M608.2,355.6c0,3.9-3.2,7.1-7.1,7.1h-22.7c-3.9,0-7.1-3.2-7.1-7.1v-28.3c0-3.9,3.2-7.1,7.1-7.1h22.7
		c3.9,0,7.1,3.2,7.1,7.1V355.6z"/>
	<path class="st4" d="M655.4,355.6c0,3.9-3.2,7.1-7.1,7.1h-22.7c-3.9,0-7.1-3.2-7.1-7.1v-28.3c0-3.9,3.2-7.1,7.1-7.1h22.7
		c3.9,0,7.1,3.2,7.1,7.1V355.6z"/>
	<path class="st4" d="M183,408.1c0,3.9-3.2,7.1-7.1,7.1h-22.7c-3.9,0-7.1-3.2-7.1-7.1v-28.3c0-3.9,3.2-7.1,7.1-7.1h22.7
		c3.9,0,7.1,3.2,7.1,7.1V408.1z"/>
	<path class="st4" d="M230.2,408.1c0,3.9-3.2,7.1-7.1,7.1h-22.7c-3.9,0-7.1-3.2-7.1-7.1v-28.3c0-3.9,3.2-7.1,7.1-7.1h22.7
		c3.9,0,7.1,3.2,7.1,7.1V408.1z"/>
	<path class="st4" d="M277.5,408.1c0,3.9-3.2,7.1-7.1,7.1h-22.7c-3.9,0-7.1-3.2-7.1-7.1v-28.3c0-3.9,3.2-7.1,7.1-7.1h22.7
		c3.9,0,7.1,3.2,7.1,7.1V408.1z"/>
	<path class="st4" d="M327.5,408.1c0,3.9-3.7,7.1-8.2,7.1h-26.2c-4.5,0-8.2-3.2-8.2-7.1v-28.3c0-3.9,3.7-7.1,8.2-7.1h26.2
		c4.5,0,8.2,3.2,8.2,7.1V408.1z"/>
	<path class="st4" d="M371.9,408.1c0,3.9-3.2,7.1-7.1,7.1h-22.7c-3.9,0-7.1-3.2-7.1-7.1v-28.3c0-3.9,3.2-7.1,7.1-7.1h22.7
		c3.9,0,7.1,3.2,7.1,7.1V408.1z"/>
	<path class="st4" d="M419.2,408.1c0,3.9-3.2,7.1-7.1,7.1h-22.7c-3.9,0-7.1-3.2-7.1-7.1v-28.3c0-3.9,3.2-7.1,7.1-7.1h22.7
		c3.9,0,7.1,3.2,7.1,7.1V408.1z"/>
	<path class="st4" d="M466.4,408.1c0,3.9-3.2,7.1-7.1,7.1h-22.7c-3.9,0-7.1-3.2-7.1-7.1v-28.3c0-3.9,3.2-7.1,7.1-7.1h22.7
		c3.9,0,7.1,3.2,7.1,7.1V408.1z"/>
	<path class="st4" d="M516.5,408.1c0,3.9-3.7,7.1-8.2,7.1h-26.2c-4.5,0-8.2-3.2-8.2-7.1v-28.3c0-3.9,3.7-7.1,8.2-7.1h26.2
		c4.5,0,8.2,3.2,8.2,7.1L516.5,408.1L516.5,408.1z"/>
	<path class="st4" d="M560.9,408.1c0,3.9-3.2,7.1-7.1,7.1h-22.7c-3.9,0-7.1-3.2-7.1-7.1v-28.3c0-3.9,3.2-7.1,7.1-7.1h22.7
		c3.9,0,7.1,3.2,7.1,7.1V408.1z"/>
	<path class="st4" d="M608.2,408.1c0,3.9-3.2,7.1-7.1,7.1h-22.7c-3.9,0-7.1-3.2-7.1-7.1v-28.3c0-3.9,3.2-7.1,7.1-7.1h22.7
		c3.9,0,7.1,3.2,7.1,7.1V408.1z"/>
	<path class="st4" d="M655.4,408.1c0,3.9-3.2,7.1-7.1,7.1h-22.7c-3.9,0-7.1-3.2-7.1-7.1v-28.3c0-3.9,3.2-7.1,7.1-7.1h22.7
		c3.9,0,7.1,3.2,7.1,7.1V408.1z"/>
	<path class="st4" d="M183,460.6c0,3.9-3.2,7.1-7.1,7.1h-22.7c-3.9,0-7.1-3.2-7.1-7.1v-28.3c0-3.9,3.2-7.1,7.1-7.1h22.7
		c3.9,0,7.1,3.2,7.1,7.1V460.6z"/>
	<path class="st4" d="M230.2,460.6c0,3.9-3.2,7.1-7.1,7.1h-22.7c-3.9,0-7.1-3.2-7.1-7.1v-28.3c0-3.9,3.2-7.1,7.1-7.1h22.7
		c3.9,0,7.1,3.2,7.1,7.1V460.6z"/>
	<path class="st4" d="M277.5,460.6c0,3.9-3.2,7.1-7.1,7.1h-22.7c-3.9,0-7.1-3.2-7.1-7.1v-28.3c0-3.9,3.2-7.1,7.1-7.1h22.7
		c3.9,0,7.1,3.2,7.1,7.1V460.6z"/>
	<path class="st4" d="M327.5,460.6c0,3.9-3.7,7.1-8.2,7.1h-26.2c-4.5,0-8.2-3.2-8.2-7.1v-28.3c0-3.9,3.7-7.1,8.2-7.1h26.2
		c4.5,0,8.2,3.2,8.2,7.1V460.6z"/>
	<path class="st4" d="M371.9,460.6c0,3.9-3.2,7.1-7.1,7.1h-22.7c-3.9,0-7.1-3.2-7.1-7.1v-28.3c0-3.9,3.2-7.1,7.1-7.1h22.7
		c3.9,0,7.1,3.2,7.1,7.1V460.6z"/>
	<path class="st4" d="M419.2,460.6c0,3.9-3.2,7.1-7.1,7.1h-22.7c-3.9,0-7.1-3.2-7.1-7.1v-28.3c0-3.9,3.2-7.1,7.1-7.1h22.7
		c3.9,0,7.1,3.2,7.1,7.1V460.6z"/>
	<path class="st4" d="M466.4,460.6c0,3.9-3.2,7.1-7.1,7.1h-22.7c-3.9,0-7.1-3.2-7.1-7.1v-28.3c0-3.9,3.2-7.1,7.1-7.1h22.7
		c3.9,0,7.1,3.2,7.1,7.1V460.6z"/>
	<path class="st4" d="M516.5,460.6c0,3.9-3.7,7.1-8.2,7.1h-26.2c-4.5,0-8.2-3.2-8.2-7.1v-28.3c0-3.9,3.7-7.1,8.2-7.1h26.2
		c4.5,0,8.2,3.2,8.2,7.1L516.5,460.6L516.5,460.6z"/>
	<path class="st4" d="M560.9,460.6c0,3.9-3.2,7.1-7.1,7.1h-22.7c-3.9,0-7.1-3.2-7.1-7.1v-28.3c0-3.9,3.2-7.1,7.1-7.1h22.7
		c3.9,0,7.1,3.2,7.1,7.1V460.6z"/>
	<path class="st4" d="M608.2,460.6c0,3.9-3.2,7.1-7.1,7.1h-22.7c-3.9,0-7.1-3.2-7.1-7.1v-28.3c0-3.9,3.2-7.1,7.1-7.1h22.7
		c3.9,0,7.1,3.2,7.1,7.1V460.6z"/>
	<path class="st4" d="M655.4,460.6c0,3.9-3.2,7.1-7.1,7.1h-22.7c-3.9,0-7.1-3.2-7.1-7.1v-28.3c0-3.9,3.2-7.1,7.1-7.1h22.7
		c3.9,0,7.1,3.2,7.1,7.1V460.6z"/>
	<path class="st4" d="M183,513.1c0,3.9-3.2,7.1-7.1,7.1h-22.7c-3.9,0-7.1-3.2-7.1-7.1v-28.3c0-3.9,3.2-7.1,7.1-7.1h22.7
		c3.9,0,7.1,3.2,7.1,7.1V513.1z"/>
	<path class="st4" d="M230.2,513.1c0,3.9-3.2,7.1-7.1,7.1h-22.7c-3.9,0-7.1-3.2-7.1-7.1v-28.3c0-3.9,3.2-7.1,7.1-7.1h22.7
		c3.9,0,7.1,3.2,7.1,7.1V513.1z"/>
	<path class="st4" d="M277.5,513.1c0,3.9-3.2,7.1-7.1,7.1h-22.7c-3.9,0-7.1-3.2-7.1-7.1v-28.3c0-3.9,3.2-7.1,7.1-7.1h22.7
		c3.9,0,7.1,3.2,7.1,7.1V513.1z"/>
	<path class="st4" d="M324.7,513.1c0,3.9-3.2,7.1-7.1,7.1h-22.7c-3.9,0-7.1-3.2-7.1-7.1v-28.3c0-3.9,3.2-7.1,7.1-7.1h22.7
		c3.9,0,7.1,3.2,7.1,7.1V513.1z"/>
	<path class="st4" d="M371.9,513.1c0,3.9-3.2,7.1-7.1,7.1h-22.7c-3.9,0-7.1-3.2-7.1-7.1v-28.3c0-3.9,3.2-7.1,7.1-7.1h22.7
		c3.9,0,7.1,3.2,7.1,7.1V513.1z"/>
	<path class="st4" d="M419.2,513.1c0,3.9-3.2,7.1-7.1,7.1h-22.7c-3.9,0-7.1-3.2-7.1-7.1v-28.3c0-3.9,3.2-7.1,7.1-7.1h22.7
		c3.9,0,7.1,3.2,7.1,7.1V513.1z"/>
	<path class="st4" d="M466.4,513.1c0,3.9-3.2,7.1-7.1,7.1h-22.7c-3.9,0-7.1-3.2-7.1-7.1v-28.3c0-3.9,3.2-7.1,7.1-7.1h22.7
		c3.9,0,7.1,3.2,7.1,7.1V513.1z"/>
	<path class="st4" d="M513.7,513.1c0,3.9-3.2,7.1-7.1,7.1h-22.7c-3.9,0-7.1-3.2-7.1-7.1v-28.3c0-3.9,3.2-7.1,7.1-7.1h22.7
		c3.9,0,7.1,3.2,7.1,7.1V513.1z"/>
	<path class="st4" d="M560.9,513.1c0,3.9-3.2,7.1-7.1,7.1h-22.7c-3.9,0-7.1-3.2-7.1-7.1v-28.3c0-3.9,3.2-7.1,7.1-7.1h22.7
		c3.9,0,7.1,3.2,7.1,7.1V513.1z"/>
	<path class="st4" d="M608.2,513.1c0,3.9-3.2,7.1-7.1,7.1h-22.7c-3.9,0-7.1-3.2-7.1-7.1v-28.3c0-3.9,3.2-7.1,7.1-7.1h22.7
		c3.9,0,7.1,3.2,7.1,7.1V513.1z"/>
	<path class="st4" d="M655.4,513.1c0,3.9-3.2,7.1-7.1,7.1h-22.7c-3.9,0-7.1-3.2-7.1-7.1v-28.3c0-3.9,3.2-7.1,7.1-7.1h22.7
		c3.9,0,7.1,3.2,7.1,7.1V513.1z"/>
	<path class="st4" d="M183,565.6c0,3.9-3.2,7.1-7.1,7.1h-22.7c-3.9,0-7.1-3.2-7.1-7.1v-28.3c0-3.9,3.2-7.1,7.1-7.1h22.7
		c3.9,0,7.1,3.2,7.1,7.1V565.6z"/>
	<path class="st4" d="M233.1,565.6c0,3.9-3.7,7.1-8.2,7.1h-26.2c-4.5,0-8.2-3.2-8.2-7.1v-28.3c0-3.9,3.7-7.1,8.2-7.1h26.2
		c4.5,0,8.2,3.2,8.2,7.1L233.1,565.6L233.1,565.6z"/>
	<path class="st4" d="M277.5,565.6c0,3.9-3.2,7.1-7.1,7.1h-22.7c-3.9,0-7.1-3.2-7.1-7.1v-28.3c0-3.9,3.2-7.1,7.1-7.1h22.7
		c3.9,0,7.1,3.2,7.1,7.1V565.6z"/>
	<path class="st4" d="M324.7,565.6c0,3.9-3.2,7.1-7.1,7.1h-22.7c-3.9,0-7.1-3.2-7.1-7.1v-28.3c0-3.9,3.2-7.1,7.1-7.1h22.7
		c3.9,0,7.1,3.2,7.1,7.1V565.6z"/>
	<path class="st4" d="M371.9,565.6c0,3.9-3.2,7.1-7.1,7.1h-22.7c-3.9,0-7.1-3.2-7.1-7.1v-28.3c0-3.9,3.2-7.1,7.1-7.1h22.7
		c3.9,0,7.1,3.2,7.1,7.1V565.6z"/>
	<path class="st4" d="M419.2,565.6c0,3.9-3.2,7.1-7.1,7.1h-22.7c-3.9,0-7.1-3.2-7.1-7.1v-28.3c0-3.9,3.2-7.1,7.1-7.1h22.7
		c3.9,0,7.1,3.2,7.1,7.1V565.6z"/>
	<path class="st4" d="M466.4,565.6c0,3.9-3.2,7.1-7.1,7.1h-22.7c-3.9,0-7.1-3.2-7.1-7.1v-28.3c0-3.9,3.2-7.1,7.1-7.1h22.7
		c3.9,0,7.1,3.2,7.1,7.1V565.6z"/>
	<path class="st4" d="M513.7,565.6c0,3.9-3.2,7.1-7.1,7.1h-22.7c-3.9,0-7.1-3.2-7.1-7.1v-28.3c0-3.9,3.2-7.1,7.1-7.1h22.7
		c3.9,0,7.1,3.2,7.1,7.1V565.6z"/>
	<path class="st4" d="M560.9,565.6c0,3.9-3.2,7.1-7.1,7.1h-22.7c-3.9,0-7.1-3.2-7.1-7.1v-28.3c0-3.9,3.2-7.1,7.1-7.1h22.7
		c3.9,0,7.1,3.2,7.1,7.1V565.6z"/>
	<path class="st4" d="M611,565.6c0,3.9-3.7,7.1-8.2,7.1h-26.2c-4.5,0-8.2-3.2-8.2-7.1v-28.3c0-3.9,3.7-7.1,8.2-7.1h26.2
		c4.5,0,8.2,3.2,8.2,7.1V565.6z"/>
	<path class="st4" d="M655.4,565.6c0,3.9-3.2,7.1-7.1,7.1h-22.7c-3.9,0-7.1-3.2-7.1-7.1v-28.3c0-3.9,3.2-7.1,7.1-7.1h22.7
		c3.9,0,7.1,3.2,7.1,7.1V565.6z"/>
	<path class="st4" d="M183,618.1c0,3.9-3.2,7.1-7.1,7.1h-22.7c-3.9,0-7.1-3.2-7.1-7.1v-28.3c0-3.9,3.2-7.1,7.1-7.1h22.7
		c3.9,0,7.1,3.2,7.1,7.1V618.1z"/>
	<path class="st4" d="M230.2,618.1c0,3.9-3.2,7.1-7.1,7.1h-22.7c-3.9,0-7.1-3.2-7.1-7.1v-28.3c0-3.9,3.2-7.1,7.1-7.1h22.7
		c3.9,0,7.1,3.2,7.1,7.1V618.1z"/>
	<path class="st4" d="M277.5,618.1c0,3.9-3.2,7.1-7.1,7.1h-22.7c-3.9,0-7.1-3.2-7.1-7.1v-28.3c0-3.9,3.2-7.1,7.1-7.1h22.7
		c3.9,0,7.1,3.2,7.1,7.1V618.1z"/>
	<path class="st4" d="M324.7,618.1c0,3.9-3.2,7.1-7.1,7.1h-22.7c-3.9,0-7.1-3.2-7.1-7.1v-28.3c0-3.9,3.2-7.1,7.1-7.1h22.7
		c3.9,0,7.1,3.2,7.1,7.1V618.1z"/>
	<path class="st4" d="M371.9,618.1c0,3.9-3.2,7.1-7.1,7.1h-22.7c-3.9,0-7.1-3.2-7.1-7.1v-28.3c0-3.9,3.2-7.1,7.1-7.1h22.7
		c3.9,0,7.1,3.2,7.1,7.1V618.1z"/>
	<path class="st4" d="M422,618.1c0,3.9-3.7,7.1-8.2,7.1h-26.2c-4.5,0-8.2-3.2-8.2-7.1v-28.3c0-3.9,3.7-7.1,8.2-7.1h26.2
		c4.5,0,8.2,3.2,8.2,7.1V618.1z"/>
	<path class="st4" d="M466.4,618.1c0,3.9-3.2,7.1-7.1,7.1h-22.7c-3.9,0-7.1-3.2-7.1-7.1v-28.3c0-3.9,3.2-7.1,7.1-7.1h22.7
		c3.9,0,7.1,3.2,7.1,7.1V618.1z"/>
	<path class="st4" d="M513.7,618.1c0,3.9-3.2,7.1-7.1,7.1h-22.7c-3.9,0-7.1-3.2-7.1-7.1v-28.3c0-3.9,3.2-7.1,7.1-7.1h22.7
		c3.9,0,7.1,3.2,7.1,7.1V618.1z"/>
	<path class="st4" d="M560.9,618.1c0,3.9-3.2,7.1-7.1,7.1h-22.7c-3.9,0-7.1-3.2-7.1-7.1v-28.3c0-3.9,3.2-7.1,7.1-7.1h22.7
		c3.9,0,7.1,3.2,7.1,7.1V618.1z"/>
	<path class="st4" d="M608.2,618.1c0,3.9-3.2,7.1-7.1,7.1h-22.7c-3.9,0-7.1-3.2-7.1-7.1v-28.3c0-3.9,3.2-7.1,7.1-7.1h22.7
		c3.9,0,7.1,3.2,7.1,7.1V618.1z"/>
	<path class="st4" d="M655.4,618.1c0,3.9-3.2,7.1-7.1,7.1h-22.7c-3.9,0-7.1-3.2-7.1-7.1v-28.3c0-3.9,3.2-7.1,7.1-7.1h22.7
		c3.9,0,7.1,3.2,7.1,7.1V618.1z"/>
	<path class="st4" d="M183,670.6c0,3.9-3.2,7.1-7.1,7.1h-22.7c-3.9,0-7.1-3.2-7.1-7.1v-28.3c0-3.9,3.2-7.1,7.1-7.1h22.7
		c3.9,0,7.1,3.2,7.1,7.1V670.6z"/>
	<path class="st4" d="M230.2,670.6c0,3.9-3.2,7.1-7.1,7.1h-22.7c-3.9,0-7.1-3.2-7.1-7.1v-28.3c0-3.9,3.2-7.1,7.1-7.1h22.7
		c3.9,0,7.1,3.2,7.1,7.1V670.6z"/>
	<path class="st4" d="M277.5,670.6c0,3.9-3.2,7.1-7.1,7.1h-22.7c-3.9,0-7.1-3.2-7.1-7.1v-28.3c0-3.9,3.2-7.1,7.1-7.1h22.7
		c3.9,0,7.1,3.2,7.1,7.1V670.6z"/>
	<path class="st4" d="M324.7,670.6c0,3.9-3.2,7.1-7.1,7.1h-22.7c-3.9,0-7.1-3.2-7.1-7.1v-28.3c0-3.9,3.2-7.1,7.1-7.1h22.7
		c3.9,0,7.1,3.2,7.1,7.1V670.6z"/>
	<path class="st4" d="M371.9,670.6c0,3.9-3.2,7.1-7.1,7.1h-22.7c-3.9,0-7.1-3.2-7.1-7.1v-28.3c0-3.9,3.2-7.1,7.1-7.1h22.7
		c3.9,0,7.1,3.2,7.1,7.1V670.6z"/>
	<path class="st4" d="M419.2,670.6c0,3.9-3.2,7.1-7.1,7.1h-22.7c-3.9,0-7.1-3.2-7.1-7.1v-28.3c0-3.9,3.2-7.1,7.1-7.1h22.7
		c3.9,0,7.1,3.2,7.1,7.1V670.6z"/>
	<path class="st4" d="M466.4,670.6c0,3.9-3.2,7.1-7.1,7.1h-22.7c-3.9,0-7.1-3.2-7.1-7.1v-28.3c0-3.9,3.2-7.1,7.1-7.1h22.7
		c3.9,0,7.1,3.2,7.1,7.1V670.6z"/>
	<path class="st4" d="M513.7,670.6c0,3.9-3.2,7.1-7.1,7.1h-22.7c-3.9,0-7.1-3.2-7.1-7.1v-28.3c0-3.9,3.2-7.1,7.1-7.1h22.7
		c3.9,0,7.1,3.2,7.1,7.1V670.6z"/>
	<path class="st4" d="M560.9,670.6c0,3.9-3.2,7.1-7.1,7.1h-22.7c-3.9,0-7.1-3.2-7.1-7.1v-28.3c0-3.9,3.2-7.1,7.1-7.1h22.7
		c3.9,0,7.1,3.2,7.1,7.1V670.6z"/>
	<path class="st4" d="M608.2,670.6c0,3.9-3.2,7.1-7.1,7.1h-22.7c-3.9,0-7.1-3.2-7.1-7.1v-28.3c0-3.9,3.2-7.1,7.1-7.1h22.7
		c3.9,0,7.1,3.2,7.1,7.1V670.6z"/>
	<path class="st4" d="M655.4,670.6c0,3.9-3.2,7.1-7.1,7.1h-22.7c-3.9,0-7.1-3.2-7.1-7.1v-28.3c0-3.9,3.2-7.1,7.1-7.1h22.7
		c3.9,0,7.1,3.2,7.1,7.1V670.6z"/>
	<path class="st4" d="M701.9,198.2c0,3.9-3.2,7.1-7.1,7.1h-22.7c-3.9,0-7.1-3.2-7.1-7.1v-28.3c0-3.9,3.2-7.1,7.1-7.1h22.7
		c3.9,0,7.1,3.2,7.1,7.1V198.2z"/>
	<path class="st4" d="M749.2,198.2c0,3.9-3.2,7.1-7.1,7.1h-22.7c-3.9,0-7.1-3.2-7.1-7.1v-28.3c0-3.9,3.2-7.1,7.1-7.1h22.7
		c3.9,0,7.1,3.2,7.1,7.1V198.2z"/>
	<path class="st4" d="M796.4,198.2c0,3.9-3.2,7.1-7.1,7.1h-22.7c-3.9,0-7.1-3.2-7.1-7.1v-28.3c0-3.9,3.2-7.1,7.1-7.1h22.7
		c3.9,0,7.1,3.2,7.1,7.1V198.2z"/>
	<path class="st4" d="M843.7,198.2c0,3.9-3.2,7.1-7.1,7.1h-22.7c-3.9,0-7.1-3.2-7.1-7.1v-28.3c0-3.9,3.2-7.1,7.1-7.1h22.7
		c3.9,0,7.1,3.2,7.1,7.1V198.2z"/>
	<path class="st4" d="M890.9,198.2c0,3.9-3.2,7.1-7.1,7.1h-22.7c-3.9,0-7.1-3.2-7.1-7.1v-28.3c0-3.9,3.2-7.1,7.1-7.1h22.7
		c3.9,0,7.1,3.2,7.1,7.1V198.2z"/>
	<path class="st4" d="M938.2,198.2c0,3.9-3.2,7.1-7.1,7.1h-22.7c-3.9,0-7.1-3.2-7.1-7.1v-28.3c0-3.9,3.2-7.1,7.1-7.1h22.7
		c3.9,0,7.1,3.2,7.1,7.1V198.2z"/>
	<path class="st4" d="M985.4,198.2c0,3.9-3.2,7.1-7.1,7.1h-22.7c-3.9,0-7.1-3.2-7.1-7.1v-28.3c0-3.9,3.2-7.1,7.1-7.1h22.7
		c3.9,0,7.1,3.2,7.1,7.1V198.2z"/>
	<path class="st4" d="M701.9,250.6c0,3.9-3.2,7.1-7.1,7.1h-22.7c-3.9,0-7.1-3.2-7.1-7.1v-28.3c0-3.9,3.2-7.1,7.1-7.1h22.7
		c3.9,0,7.1,3.2,7.1,7.1V250.6z"/>
	<path class="st4" d="M752,250.6c0,3.9-3.7,7.1-8.2,7.1h-26.2c-4.5,0-8.2-3.2-8.2-7.1v-28.3c0-3.9,3.7-7.1,8.2-7.1h26.2
		c4.5,0,8.2,3.2,8.2,7.1V250.6z"/>
	<path class="st4" d="M796.4,250.6c0,3.9-3.2,7.1-7.1,7.1h-22.7c-3.9,0-7.1-3.2-7.1-7.1v-28.3c0-3.9,3.2-7.1,7.1-7.1h22.7
		c3.9,0,7.1,3.2,7.1,7.1V250.6z"/>
	<path class="st4" d="M843.7,250.6c0,3.9-3.2,7.1-7.1,7.1h-22.7c-3.9,0-7.1-3.2-7.1-7.1v-28.3c0-3.9,3.2-7.1,7.1-7.1h22.7
		c3.9,0,7.1,3.2,7.1,7.1V250.6z"/>
	<path class="st4" d="M890.9,250.6c0,3.9-3.2,7.1-7.1,7.1h-22.7c-3.9,0-7.1-3.2-7.1-7.1v-28.3c0-3.9,3.2-7.1,7.1-7.1h22.7
		c3.9,0,7.1,3.2,7.1,7.1V250.6z"/>
	<path class="st4" d="M938.2,250.6c0,3.9-3.2,7.1-7.1,7.1h-22.7c-3.9,0-7.1-3.2-7.1-7.1v-28.3c0-3.9,3.2-7.1,7.1-7.1h22.7
		c3.9,0,7.1,3.2,7.1,7.1V250.6z"/>
	<path class="st4" d="M985.4,250.6c0,3.9-3.2,7.1-7.1,7.1h-22.7c-3.9,0-7.1-3.2-7.1-7.1v-28.3c0-3.9,3.2-7.1,7.1-7.1h22.7
		c3.9,0,7.1,3.2,7.1,7.1V250.6z"/>
	<path class="st4" d="M701.9,303.1c0,3.9-3.2,7.1-7.1,7.1h-22.7c-3.9,0-7.1-3.2-7.1-7.1v-28.3c0-3.9,3.2-7.1,7.1-7.1h22.7
		c3.9,0,7.1,3.2,7.1,7.1V303.1z"/>
	<path class="st4" d="M749.2,303.1c0,3.9-3.2,7.1-7.1,7.1h-22.7c-3.9,0-7.1-3.2-7.1-7.1v-28.3c0-3.9,3.2-7.1,7.1-7.1h22.7
		c3.9,0,7.1,3.2,7.1,7.1V303.1z"/>
	<path class="st4" d="M796.4,303.1c0,3.9-3.2,7.1-7.1,7.1h-22.7c-3.9,0-7.1-3.2-7.1-7.1v-28.3c0-3.9,3.2-7.1,7.1-7.1h22.7
		c3.9,0,7.1,3.2,7.1,7.1V303.1z"/>
	<path class="st4" d="M843.7,303.1c0,3.9-3.2,7.1-7.1,7.1h-22.7c-3.9,0-7.1-3.2-7.1-7.1v-28.3c0-3.9,3.2-7.1,7.1-7.1h22.7
		c3.9,0,7.1,3.2,7.1,7.1V303.1z"/>
	<path class="st4" d="M890.9,303.1c0,3.9-3.2,7.1-7.1,7.1h-22.7c-3.9,0-7.1-3.2-7.1-7.1v-28.3c0-3.9,3.2-7.1,7.1-7.1h22.7
		c3.9,0,7.1,3.2,7.1,7.1V303.1z"/>
	<path class="st4" d="M941,303.1c0,3.9-3.7,7.1-8.2,7.1h-26.2c-4.5,0-8.2-3.2-8.2-7.1v-28.3c0-3.9,3.7-7.1,8.2-7.1h26.2
		c4.5,0,8.2,3.2,8.2,7.1V303.1z"/>
	<path class="st4" d="M985.4,303.1c0,3.9-3.2,7.1-7.1,7.1h-22.7c-3.9,0-7.1-3.2-7.1-7.1v-28.3c0-3.9,3.2-7.1,7.1-7.1h22.7
		c3.9,0,7.1,3.2,7.1,7.1V303.1z"/>
	<path class="st4" d="M701.9,355.6c0,3.9-3.2,7.1-7.1,7.1h-22.7c-3.9,0-7.1-3.2-7.1-7.1v-28.3c0-3.9,3.2-7.1,7.1-7.1h22.7
		c3.9,0,7.1,3.2,7.1,7.1V355.6z"/>
	<path class="st4" d="M749.2,355.6c0,3.9-3.2,7.1-7.1,7.1h-22.7c-3.9,0-7.1-3.2-7.1-7.1v-28.3c0-3.9,3.2-7.1,7.1-7.1h22.7
		c3.9,0,7.1,3.2,7.1,7.1V355.6z"/>
	<path class="st4" d="M796.4,355.6c0,3.9-3.2,7.1-7.1,7.1h-22.7c-3.9,0-7.1-3.2-7.1-7.1v-28.3c0-3.9,3.2-7.1,7.1-7.1h22.7
		c3.9,0,7.1,3.2,7.1,7.1V355.6z"/>
	<path class="st4" d="M843.7,355.6c0,3.9-3.2,7.1-7.1,7.1h-22.7c-3.9,0-7.1-3.2-7.1-7.1v-28.3c0-3.9,3.2-7.1,7.1-7.1h22.7
		c3.9,0,7.1,3.2,7.1,7.1V355.6z"/>
	<path class="st4" d="M890.9,355.6c0,3.9-3.2,7.1-7.1,7.1h-22.7c-3.9,0-7.1-3.2-7.1-7.1v-28.3c0-3.9,3.2-7.1,7.1-7.1h22.7
		c3.9,0,7.1,3.2,7.1,7.1V355.6z"/>
	<path class="st4" d="M938.2,355.6c0,3.9-3.2,7.1-7.1,7.1h-22.7c-3.9,0-7.1-3.2-7.1-7.1v-28.3c0-3.9,3.2-7.1,7.1-7.1h22.7
		c3.9,0,7.1,3.2,7.1,7.1V355.6z"/>
	<path class="st4" d="M985.4,355.6c0,3.9-3.2,7.1-7.1,7.1h-22.7c-3.9,0-7.1-3.2-7.1-7.1v-28.3c0-3.9,3.2-7.1,7.1-7.1h22.7
		c3.9,0,7.1,3.2,7.1,7.1V355.6z"/>
	<path class="st4" d="M701.9,408.1c0,3.9-3.2,7.1-7.1,7.1h-22.7c-3.9,0-7.1-3.2-7.1-7.1v-28.3c0-3.9,3.2-7.1,7.1-7.1h22.7
		c3.9,0,7.1,3.2,7.1,7.1V408.1z"/>
	<path class="st4" d="M749.2,408.1c0,3.9-3.2,7.1-7.1,7.1h-22.7c-3.9,0-7.1-3.2-7.1-7.1v-28.3c0-3.9,3.2-7.1,7.1-7.1h22.7
		c3.9,0,7.1,3.2,7.1,7.1V408.1z"/>
	<path class="st4" d="M796.4,408.1c0,3.9-3.2,7.1-7.1,7.1h-22.7c-3.9,0-7.1-3.2-7.1-7.1v-28.3c0-3.9,3.2-7.1,7.1-7.1h22.7
		c3.9,0,7.1,3.2,7.1,7.1V408.1z"/>
	<path class="st4" d="M846.5,408.1c0,3.9-3.7,7.1-8.2,7.1h-26.2c-4.5,0-8.2-3.2-8.2-7.1v-28.3c0-3.9,3.7-7.1,8.2-7.1h26.2
		c4.5,0,8.2,3.2,8.2,7.1L846.5,408.1L846.5,408.1z"/>
	<path class="st4" d="M890.9,408.1c0,3.9-3.2,7.1-7.1,7.1h-22.7c-3.9,0-7.1-3.2-7.1-7.1v-28.3c0-3.9,3.2-7.1,7.1-7.1h22.7
		c3.9,0,7.1,3.2,7.1,7.1V408.1z"/>
	<path class="st4" d="M938.2,408.1c0,3.9-3.2,7.1-7.1,7.1h-22.7c-3.9,0-7.1-3.2-7.1-7.1v-28.3c0-3.9,3.2-7.1,7.1-7.1h22.7
		c3.9,0,7.1,3.2,7.1,7.1V408.1z"/>
	<path class="st4" d="M985.4,408.1c0,3.9-3.2,7.1-7.1,7.1h-22.7c-3.9,0-7.1-3.2-7.1-7.1v-28.3c0-3.9,3.2-7.1,7.1-7.1h22.7
		c3.9,0,7.1,3.2,7.1,7.1V408.1z"/>
	<path class="st4" d="M701.9,460.6c0,3.9-3.2,7.1-7.1,7.1h-22.7c-3.9,0-7.1-3.2-7.1-7.1v-28.3c0-3.9,3.2-7.1,7.1-7.1h22.7
		c3.9,0,7.1,3.2,7.1,7.1V460.6z"/>
	<path class="st4" d="M749.2,460.6c0,3.9-3.2,7.1-7.1,7.1h-22.7c-3.9,0-7.1-3.2-7.1-7.1v-28.3c0-3.9,3.2-7.1,7.1-7.1h22.7
		c3.9,0,7.1,3.2,7.1,7.1V460.6z"/>
	<path class="st4" d="M796.4,460.6c0,3.9-3.2,7.1-7.1,7.1h-22.7c-3.9,0-7.1-3.2-7.1-7.1v-28.3c0-3.9,3.2-7.1,7.1-7.1h22.7
		c3.9,0,7.1,3.2,7.1,7.1V460.6z"/>
	<path class="st4" d="M846.5,460.6c0,3.9-3.7,7.1-8.2,7.1h-26.2c-4.5,0-8.2-3.2-8.2-7.1v-28.3c0-3.9,3.7-7.1,8.2-7.1h26.2
		c4.5,0,8.2,3.2,8.2,7.1L846.5,460.6L846.5,460.6z"/>
	<path class="st4" d="M890.9,460.6c0,3.9-3.2,7.1-7.1,7.1h-22.7c-3.9,0-7.1-3.2-7.1-7.1v-28.3c0-3.9,3.2-7.1,7.1-7.1h22.7
		c3.9,0,7.1,3.2,7.1,7.1V460.6z"/>
	<path class="st4" d="M938.2,460.6c0,3.9-3.2,7.1-7.1,7.1h-22.7c-3.9,0-7.1-3.2-7.1-7.1v-28.3c0-3.9,3.2-7.1,7.1-7.1h22.7
		c3.9,0,7.1,3.2,7.1,7.1V460.6z"/>
	<path class="st4" d="M985.4,460.6c0,3.9-3.2,7.1-7.1,7.1h-22.7c-3.9,0-7.1-3.2-7.1-7.1v-28.3c0-3.9,3.2-7.1,7.1-7.1h22.7
		c3.9,0,7.1,3.2,7.1,7.1V460.6z"/>
	<path class="st4" d="M701.9,513.1c0,3.9-3.2,7.1-7.1,7.1h-22.7c-3.9,0-7.1-3.2-7.1-7.1v-28.3c0-3.9,3.2-7.1,7.1-7.1h22.7
		c3.9,0,7.1,3.2,7.1,7.1V513.1z"/>
	<path class="st4" d="M749.2,513.1c0,3.9-3.2,7.1-7.1,7.1h-22.7c-3.9,0-7.1-3.2-7.1-7.1v-28.3c0-3.9,3.2-7.1,7.1-7.1h22.7
		c3.9,0,7.1,3.2,7.1,7.1V513.1z"/>
	<path class="st4" d="M796.4,513.1c0,3.9-3.2,7.1-7.1,7.1h-22.7c-3.9,0-7.1-3.2-7.1-7.1v-28.3c0-3.9,3.2-7.1,7.1-7.1h22.7
		c3.9,0,7.1,3.2,7.1,7.1V513.1z"/>
	<path class="st4" d="M843.7,513.1c0,3.9-3.2,7.1-7.1,7.1h-22.7c-3.9,0-7.1-3.2-7.1-7.1v-28.3c0-3.9,3.2-7.1,7.1-7.1h22.7
		c3.9,0,7.1,3.2,7.1,7.1V513.1z"/>
	<path class="st4" d="M890.9,513.1c0,3.9-3.2,7.1-7.1,7.1h-22.7c-3.9,0-7.1-3.2-7.1-7.1v-28.3c0-3.9,3.2-7.1,7.1-7.1h22.7
		c3.9,0,7.1,3.2,7.1,7.1V513.1z"/>
	<path class="st4" d="M938.2,513.1c0,3.9-3.2,7.1-7.1,7.1h-22.7c-3.9,0-7.1-3.2-7.1-7.1v-28.3c0-3.9,3.2-7.1,7.1-7.1h22.7
		c3.9,0,7.1,3.2,7.1,7.1V513.1z"/>
	<path class="st4" d="M985.4,513.1c0,3.9-3.2,7.1-7.1,7.1h-22.7c-3.9,0-7.1-3.2-7.1-7.1v-28.3c0-3.9,3.2-7.1,7.1-7.1h22.7
		c3.9,0,7.1,3.2,7.1,7.1V513.1z"/>
	<path class="st4" d="M701.9,565.6c0,3.9-3.2,7.1-7.1,7.1h-22.7c-3.9,0-7.1-3.2-7.1-7.1v-28.3c0-3.9,3.2-7.1,7.1-7.1h22.7
		c3.9,0,7.1,3.2,7.1,7.1V565.6z"/>
	<path class="st4" d="M749.2,565.6c0,3.9-3.2,7.1-7.1,7.1h-22.7c-3.9,0-7.1-3.2-7.1-7.1v-28.3c0-3.9,3.2-7.1,7.1-7.1h22.7
		c3.9,0,7.1,3.2,7.1,7.1V565.6z"/>
	<path class="st4" d="M796.4,565.6c0,3.9-3.2,7.1-7.1,7.1h-22.7c-3.9,0-7.1-3.2-7.1-7.1v-28.3c0-3.9,3.2-7.1,7.1-7.1h22.7
		c3.9,0,7.1,3.2,7.1,7.1V565.6z"/>
	<path class="st4" d="M843.7,565.6c0,3.9-3.2,7.1-7.1,7.1h-22.7c-3.9,0-7.1-3.2-7.1-7.1v-28.3c0-3.9,3.2-7.1,7.1-7.1h22.7
		c3.9,0,7.1,3.2,7.1,7.1V565.6z"/>
	<path class="st4" d="M890.9,565.6c0,3.9-3.2,7.1-7.1,7.1h-22.7c-3.9,0-7.1-3.2-7.1-7.1v-28.3c0-3.9,3.2-7.1,7.1-7.1h22.7
		c3.9,0,7.1,3.2,7.1,7.1V565.6z"/>
	<path class="st4" d="M941,565.6c0,3.9-3.7,7.1-8.2,7.1h-26.2c-4.5,0-8.2-3.2-8.2-7.1v-28.3c0-3.9,3.7-7.1,8.2-7.1h26.2
		c4.5,0,8.2,3.2,8.2,7.1V565.6z"/>
	<path class="st4" d="M985.4,565.6c0,3.9-3.2,7.1-7.1,7.1h-22.7c-3.9,0-7.1-3.2-7.1-7.1v-28.3c0-3.9,3.2-7.1,7.1-7.1h22.7
		c3.9,0,7.1,3.2,7.1,7.1V565.6z"/>
	<path class="st4" d="M701.9,618.1c0,3.9-3.2,7.1-7.1,7.1h-22.7c-3.9,0-7.1-3.2-7.1-7.1v-28.3c0-3.9,3.2-7.1,7.1-7.1h22.7
		c3.9,0,7.1,3.2,7.1,7.1V618.1z"/>
	<path class="st4" d="M752,618.1c0,3.9-3.7,7.1-8.2,7.1h-26.2c-4.5,0-8.2-3.2-8.2-7.1v-28.3c0-3.9,3.7-7.1,8.2-7.1h26.2
		c4.5,0,8.2,3.2,8.2,7.1V618.1z"/>
	<path class="st4" d="M796.4,618.1c0,3.9-3.2,7.1-7.1,7.1h-22.7c-3.9,0-7.1-3.2-7.1-7.1v-28.3c0-3.9,3.2-7.1,7.1-7.1h22.7
		c3.9,0,7.1,3.2,7.1,7.1V618.1z"/>
	<path class="st4" d="M843.7,618.1c0,3.9-3.2,7.1-7.1,7.1h-22.7c-3.9,0-7.1-3.2-7.1-7.1v-28.3c0-3.9,3.2-7.1,7.1-7.1h22.7
		c3.9,0,7.1,3.2,7.1,7.1V618.1z"/>
	<path class="st4" d="M890.9,618.1c0,3.9-3.2,7.1-7.1,7.1h-22.7c-3.9,0-7.1-3.2-7.1-7.1v-28.3c0-3.9,3.2-7.1,7.1-7.1h22.7
		c3.9,0,7.1,3.2,7.1,7.1V618.1z"/>
	<path class="st4" d="M938.2,618.1c0,3.9-3.2,7.1-7.1,7.1h-22.7c-3.9,0-7.1-3.2-7.1-7.1v-28.3c0-3.9,3.2-7.1,7.1-7.1h22.7
		c3.9,0,7.1,3.2,7.1,7.1V618.1z"/>
	<path class="st4" d="M985.4,618.1c0,3.9-3.2,7.1-7.1,7.1h-22.7c-3.9,0-7.1-3.2-7.1-7.1v-28.3c0-3.9,3.2-7.1,7.1-7.1h22.7
		c3.9,0,7.1,3.2,7.1,7.1V618.1z"/>
	<path class="st4" d="M701.9,670.6c0,3.9-3.2,7.1-7.1,7.1h-22.7c-3.9,0-7.1-3.2-7.1-7.1v-28.3c0-3.9,3.2-7.1,7.1-7.1h22.7
		c3.9,0,7.1,3.2,7.1,7.1V670.6z"/>
	<path class="st4" d="M749.2,670.6c0,3.9-3.2,7.1-7.1,7.1h-22.7c-3.9,0-7.1-3.2-7.1-7.1v-28.3c0-3.9,3.2-7.1,7.1-7.1h22.7
		c3.9,0,7.1,3.2,7.1,7.1V670.6z"/>
	<path class="st4" d="M796.4,670.6c0,3.9-3.2,7.1-7.1,7.1h-22.7c-3.9,0-7.1-3.2-7.1-7.1v-28.3c0-3.9,3.2-7.1,7.1-7.1h22.7
		c3.9,0,7.1,3.2,7.1,7.1V670.6z"/>
	<path class="st4" d="M843.7,670.6c0,3.9-3.2,7.1-7.1,7.1h-22.7c-3.9,0-7.1-3.2-7.1-7.1v-28.3c0-3.9,3.2-7.1,7.1-7.1h22.7
		c3.9,0,7.1,3.2,7.1,7.1V670.6z"/>
	<path class="st4" d="M890.9,670.6c0,3.9-3.2,7.1-7.1,7.1h-22.7c-3.9,0-7.1-3.2-7.1-7.1v-28.3c0-3.9,3.2-7.1,7.1-7.1h22.7
		c3.9,0,7.1,3.2,7.1,7.1V670.6z"/>
	<path class="st4" d="M938.2,670.6c0,3.9-3.2,7.1-7.1,7.1h-22.7c-3.9,0-7.1-3.2-7.1-7.1v-28.3c0-3.9,3.2-7.1,7.1-7.1h22.7
		c3.9,0,7.1,3.2,7.1,7.1V670.6z"/>
	<path class="st4" d="M985.4,670.6c0,3.9-3.2,7.1-7.1,7.1h-22.7c-3.9,0-7.1-3.2-7.1-7.1v-28.3c0-3.9,3.2-7.1,7.1-7.1h22.7
		c3.9,0,7.1,3.2,7.1,7.1V670.6z"/>
	<rect x="70.9" y="70.9" class="st4" width="992.1" height="992.1"/>
	<path class="st4" d="M183,721.1c0,3.9-3.2,7.1-7.1,7.1h-22.7c-3.9,0-7.1-3.2-7.1-7.1v-28.3c0-3.9,3.2-7.1,7.1-7.1h22.7
		c3.9,0,7.1,3.2,7.1,7.1V721.1z"/>
	<path class="st4" d="M230.2,721.1c0,3.9-3.2,7.1-7.1,7.1h-22.7c-3.9,0-7.1-3.2-7.1-7.1v-28.3c0-3.9,3.2-7.1,7.1-7.1h22.7
		c3.9,0,7.1,3.2,7.1,7.1V721.1z"/>
	<path class="st4" d="M277.5,721.1c0,3.9-3.2,7.1-7.1,7.1h-22.7c-3.9,0-7.1-3.2-7.1-7.1v-28.3c0-3.9,3.2-7.1,7.1-7.1h22.7
		c3.9,0,7.1,3.2,7.1,7.1V721.1z"/>
	<path class="st4" d="M327.5,721.1c0,3.9-3.7,7.1-8.2,7.1h-26.2c-4.5,0-8.2-3.2-8.2-7.1v-28.3c0-3.9,3.7-7.1,8.2-7.1h26.2
		c4.5,0,8.2,3.2,8.2,7.1V721.1z"/>
	<path class="st4" d="M371.9,721.1c0,3.9-3.2,7.1-7.1,7.1h-22.7c-3.9,0-7.1-3.2-7.1-7.1v-28.3c0-3.9,3.2-7.1,7.1-7.1h22.7
		c3.9,0,7.1,3.2,7.1,7.1V721.1z"/>
	<path class="st4" d="M419.2,721.1c0,3.9-3.2,7.1-7.1,7.1h-22.7c-3.9,0-7.1-3.2-7.1-7.1v-28.3c0-3.9,3.2-7.1,7.1-7.1h22.7
		c3.9,0,7.1,3.2,7.1,7.1V721.1z"/>
	<path class="st4" d="M466.4,721.1c0,3.9-3.2,7.1-7.1,7.1h-22.7c-3.9,0-7.1-3.2-7.1-7.1v-28.3c0-3.9,3.2-7.1,7.1-7.1h22.7
		c3.9,0,7.1,3.2,7.1,7.1V721.1z"/>
	<path class="st4" d="M516.5,721.1c0,3.9-3.7,7.1-8.2,7.1h-26.2c-4.5,0-8.2-3.2-8.2-7.1v-28.3c0-3.9,3.7-7.1,8.2-7.1h26.2
		c4.5,0,8.2,3.2,8.2,7.1L516.5,721.1L516.5,721.1z"/>
	<path class="st4" d="M560.9,721.1c0,3.9-3.2,7.1-7.1,7.1h-22.7c-3.9,0-7.1-3.2-7.1-7.1v-28.3c0-3.9,3.2-7.1,7.1-7.1h22.7
		c3.9,0,7.1,3.2,7.1,7.1V721.1z"/>
	<path class="st4" d="M608.2,721.1c0,3.9-3.2,7.1-7.1,7.1h-22.7c-3.9,0-7.1-3.2-7.1-7.1v-28.3c0-3.9,3.2-7.1,7.1-7.1h22.7
		c3.9,0,7.1,3.2,7.1,7.1V721.1z"/>
	<path class="st4" d="M655.4,721.1c0,3.9-3.2,7.1-7.1,7.1h-22.7c-3.9,0-7.1-3.2-7.1-7.1v-28.3c0-3.9,3.2-7.1,7.1-7.1h22.7
		c3.9,0,7.1,3.2,7.1,7.1V721.1z"/>
	<path class="st4" d="M183,773.6c0,3.9-3.2,7.1-7.1,7.1h-22.7c-3.9,0-7.1-3.2-7.1-7.1v-28.3c0-3.9,3.2-7.1,7.1-7.1h22.7
		c3.9,0,7.1,3.2,7.1,7.1V773.6z"/>
	<path class="st4" d="M230.2,773.6c0,3.9-3.2,7.1-7.1,7.1h-22.7c-3.9,0-7.1-3.2-7.1-7.1v-28.3c0-3.9,3.2-7.1,7.1-7.1h22.7
		c3.9,0,7.1,3.2,7.1,7.1V773.6z"/>
	<path class="st4" d="M277.5,773.6c0,3.9-3.2,7.1-7.1,7.1h-22.7c-3.9,0-7.1-3.2-7.1-7.1v-28.3c0-3.9,3.2-7.1,7.1-7.1h22.7
		c3.9,0,7.1,3.2,7.1,7.1V773.6z"/>
	<path class="st4" d="M327.5,773.6c0,3.9-3.7,7.1-8.2,7.1h-26.2c-4.5,0-8.2-3.2-8.2-7.1v-28.3c0-3.9,3.7-7.1,8.2-7.1h26.2
		c4.5,0,8.2,3.2,8.2,7.1V773.6z"/>
	<path class="st4" d="M371.9,773.6c0,3.9-3.2,7.1-7.1,7.1h-22.7c-3.9,0-7.1-3.2-7.1-7.1v-28.3c0-3.9,3.2-7.1,7.1-7.1h22.7
		c3.9,0,7.1,3.2,7.1,7.1V773.6z"/>
	<path class="st4" d="M419.2,773.6c0,3.9-3.2,7.1-7.1,7.1h-22.7c-3.9,0-7.1-3.2-7.1-7.1v-28.3c0-3.9,3.2-7.1,7.1-7.1h22.7
		c3.9,0,7.1,3.2,7.1,7.1V773.6z"/>
	<path class="st4" d="M466.4,773.6c0,3.9-3.2,7.1-7.1,7.1h-22.7c-3.9,0-7.1-3.2-7.1-7.1v-28.3c0-3.9,3.2-7.1,7.1-7.1h22.7
		c3.9,0,7.1,3.2,7.1,7.1V773.6z"/>
	<path class="st4" d="M516.5,773.6c0,3.9-3.7,7.1-8.2,7.1h-26.2c-4.5,0-8.2-3.2-8.2-7.1v-28.3c0-3.9,3.7-7.1,8.2-7.1h26.2
		c4.5,0,8.2,3.2,8.2,7.1L516.5,773.6L516.5,773.6z"/>
	<path class="st4" d="M560.9,773.6c0,3.9-3.2,7.1-7.1,7.1h-22.7c-3.9,0-7.1-3.2-7.1-7.1v-28.3c0-3.9,3.2-7.1,7.1-7.1h22.7
		c3.9,0,7.1,3.2,7.1,7.1V773.6z"/>
	<path class="st4" d="M608.2,773.6c0,3.9-3.2,7.1-7.1,7.1h-22.7c-3.9,0-7.1-3.2-7.1-7.1v-28.3c0-3.9,3.2-7.1,7.1-7.1h22.7
		c3.9,0,7.1,3.2,7.1,7.1V773.6z"/>
	<path class="st4" d="M655.4,773.6c0,3.9-3.2,7.1-7.1,7.1h-22.7c-3.9,0-7.1-3.2-7.1-7.1v-28.3c0-3.9,3.2-7.1,7.1-7.1h22.7
		c3.9,0,7.1,3.2,7.1,7.1V773.6z"/>
	<path class="st4" d="M183,826.1c0,3.9-3.2,7.1-7.1,7.1h-22.7c-3.9,0-7.1-3.2-7.1-7.1v-28.3c0-3.9,3.2-7.1,7.1-7.1h22.7
		c3.9,0,7.1,3.2,7.1,7.1V826.1z"/>
	<path class="st4" d="M230.2,826.1c0,3.9-3.2,7.1-7.1,7.1h-22.7c-3.9,0-7.1-3.2-7.1-7.1v-28.3c0-3.9,3.2-7.1,7.1-7.1h22.7
		c3.9,0,7.1,3.2,7.1,7.1V826.1z"/>
	<path class="st4" d="M277.5,826.1c0,3.9-3.2,7.1-7.1,7.1h-22.7c-3.9,0-7.1-3.2-7.1-7.1v-28.3c0-3.9,3.2-7.1,7.1-7.1h22.7
		c3.9,0,7.1,3.2,7.1,7.1V826.1z"/>
	<path class="st4" d="M324.7,826.1c0,3.9-3.2,7.1-7.1,7.1h-22.7c-3.9,0-7.1-3.2-7.1-7.1v-28.3c0-3.9,3.2-7.1,7.1-7.1h22.7
		c3.9,0,7.1,3.2,7.1,7.1V826.1z"/>
	<path class="st4" d="M371.9,826.1c0,3.9-3.2,7.1-7.1,7.1h-22.7c-3.9,0-7.1-3.2-7.1-7.1v-28.3c0-3.9,3.2-7.1,7.1-7.1h22.7
		c3.9,0,7.1,3.2,7.1,7.1V826.1z"/>
	<path class="st4" d="M419.2,826.1c0,3.9-3.2,7.1-7.1,7.1h-22.7c-3.9,0-7.1-3.2-7.1-7.1v-28.3c0-3.9,3.2-7.1,7.1-7.1h22.7
		c3.9,0,7.1,3.2,7.1,7.1V826.1z"/>
	<path class="st4" d="M466.4,826.1c0,3.9-3.2,7.1-7.1,7.1h-22.7c-3.9,0-7.1-3.2-7.1-7.1v-28.3c0-3.9,3.2-7.1,7.1-7.1h22.7
		c3.9,0,7.1,3.2,7.1,7.1V826.1z"/>
	<path class="st4" d="M513.7,826.1c0,3.9-3.2,7.1-7.1,7.1h-22.7c-3.9,0-7.1-3.2-7.1-7.1v-28.3c0-3.9,3.2-7.1,7.1-7.1h22.7
		c3.9,0,7.1,3.2,7.1,7.1V826.1z"/>
	<path class="st4" d="M560.9,826.1c0,3.9-3.2,7.1-7.1,7.1h-22.7c-3.9,0-7.1-3.2-7.1-7.1v-28.3c0-3.9,3.2-7.1,7.1-7.1h22.7
		c3.9,0,7.1,3.2,7.1,7.1V826.1z"/>
	<path class="st4" d="M608.2,826.1c0,3.9-3.2,7.1-7.1,7.1h-22.7c-3.9,0-7.1-3.2-7.1-7.1v-28.3c0-3.9,3.2-7.1,7.1-7.1h22.7
		c3.9,0,7.1,3.2,7.1,7.1V826.1z"/>
	<path class="st4" d="M655.4,826.1c0,3.9-3.2,7.1-7.1,7.1h-22.7c-3.9,0-7.1-3.2-7.1-7.1v-28.3c0-3.9,3.2-7.1,7.1-7.1h22.7
		c3.9,0,7.1,3.2,7.1,7.1V826.1z"/>
	<path class="st4" d="M183,878.6c0,3.9-3.2,7.1-7.1,7.1h-22.7c-3.9,0-7.1-3.2-7.1-7.1v-28.3c0-3.9,3.2-7.1,7.1-7.1h22.7
		c3.9,0,7.1,3.2,7.1,7.1V878.6z"/>
	<path class="st4" d="M233.1,878.6c0,3.9-3.7,7.1-8.2,7.1h-26.2c-4.5,0-8.2-3.2-8.2-7.1v-28.3c0-3.9,3.7-7.1,8.2-7.1h26.2
		c4.5,0,8.2,3.2,8.2,7.1L233.1,878.6L233.1,878.6z"/>
	<path class="st4" d="M277.5,878.6c0,3.9-3.2,7.1-7.1,7.1h-22.7c-3.9,0-7.1-3.2-7.1-7.1v-28.3c0-3.9,3.2-7.1,7.1-7.1h22.7
		c3.9,0,7.1,3.2,7.1,7.1V878.6z"/>
	<path class="st4" d="M324.7,878.6c0,3.9-3.2,7.1-7.1,7.1h-22.7c-3.9,0-7.1-3.2-7.1-7.1v-28.3c0-3.9,3.2-7.1,7.1-7.1h22.7
		c3.9,0,7.1,3.2,7.1,7.1V878.6z"/>
	<path class="st4" d="M371.9,878.6c0,3.9-3.2,7.1-7.1,7.1h-22.7c-3.9,0-7.1-3.2-7.1-7.1v-28.3c0-3.9,3.2-7.1,7.1-7.1h22.7
		c3.9,0,7.1,3.2,7.1,7.1V878.6z"/>
	<path class="st4" d="M419.2,878.6c0,3.9-3.2,7.1-7.1,7.1h-22.7c-3.9,0-7.1-3.2-7.1-7.1v-28.3c0-3.9,3.2-7.1,7.1-7.1h22.7
		c3.9,0,7.1,3.2,7.1,7.1V878.6z"/>
	<path class="st4" d="M466.4,878.6c0,3.9-3.2,7.1-7.1,7.1h-22.7c-3.9,0-7.1-3.2-7.1-7.1v-28.3c0-3.9,3.2-7.1,7.1-7.1h22.7
		c3.9,0,7.1,3.2,7.1,7.1V878.6z"/>
	<path class="st4" d="M513.7,878.6c0,3.9-3.2,7.1-7.1,7.1h-22.7c-3.9,0-7.1-3.2-7.1-7.1v-28.3c0-3.9,3.2-7.1,7.1-7.1h22.7
		c3.9,0,7.1,3.2,7.1,7.1V878.6z"/>
	<path class="st4" d="M560.9,878.6c0,3.9-3.2,7.1-7.1,7.1h-22.7c-3.9,0-7.1-3.2-7.1-7.1v-28.3c0-3.9,3.2-7.1,7.1-7.1h22.7
		c3.9,0,7.1,3.2,7.1,7.1V878.6z"/>
	<path class="st4" d="M611,878.6c0,3.9-3.7,7.1-8.2,7.1h-26.2c-4.5,0-8.2-3.2-8.2-7.1v-28.3c0-3.9,3.7-7.1,8.2-7.1h26.2
		c4.5,0,8.2,3.2,8.2,7.1V878.6z"/>
	<path class="st4" d="M655.4,878.6c0,3.9-3.2,7.1-7.1,7.1h-22.7c-3.9,0-7.1-3.2-7.1-7.1v-28.3c0-3.9,3.2-7.1,7.1-7.1h22.7
		c3.9,0,7.1,3.2,7.1,7.1V878.6z"/>
	<path class="st4" d="M183,931.1c0,3.9-3.2,7.1-7.1,7.1h-22.7c-3.9,0-7.1-3.2-7.1-7.1v-28.3c0-3.9,3.2-7.1,7.1-7.1h22.7
		c3.9,0,7.1,3.2,7.1,7.1V931.1z"/>
	<path class="st4" d="M230.2,931.1c0,3.9-3.2,7.1-7.1,7.1h-22.7c-3.9,0-7.1-3.2-7.1-7.1v-28.3c0-3.9,3.2-7.1,7.1-7.1h22.7
		c3.9,0,7.1,3.2,7.1,7.1V931.1z"/>
	<path class="st4" d="M277.5,931.1c0,3.9-3.2,7.1-7.1,7.1h-22.7c-3.9,0-7.1-3.2-7.1-7.1v-28.3c0-3.9,3.2-7.1,7.1-7.1h22.7
		c3.9,0,7.1,3.2,7.1,7.1V931.1z"/>
	<path class="st4" d="M324.7,931.1c0,3.9-3.2,7.1-7.1,7.1h-22.7c-3.9,0-7.1-3.2-7.1-7.1v-28.3c0-3.9,3.2-7.1,7.1-7.1h22.7
		c3.9,0,7.1,3.2,7.1,7.1V931.1z"/>
	<path class="st4" d="M371.9,931.1c0,3.9-3.2,7.1-7.1,7.1h-22.7c-3.9,0-7.1-3.2-7.1-7.1v-28.3c0-3.9,3.2-7.1,7.1-7.1h22.7
		c3.9,0,7.1,3.2,7.1,7.1V931.1z"/>
	<path class="st4" d="M422,931.1c0,3.9-3.7,7.1-8.2,7.1h-26.2c-4.5,0-8.2-3.2-8.2-7.1v-28.3c0-3.9,3.7-7.1,8.2-7.1h26.2
		c4.5,0,8.2,3.2,8.2,7.1V931.1z"/>
	<path class="st4" d="M466.4,931.1c0,3.9-3.2,7.1-7.1,7.1h-22.7c-3.9,0-7.1-3.2-7.1-7.1v-28.3c0-3.9,3.2-7.1,7.1-7.1h22.7
		c3.9,0,7.1,3.2,7.1,7.1V931.1z"/>
	<path class="st4" d="M513.7,931.1c0,3.9-3.2,7.1-7.1,7.1h-22.7c-3.9,0-7.1-3.2-7.1-7.1v-28.3c0-3.9,3.2-7.1,7.1-7.1h22.7
		c3.9,0,7.1,3.2,7.1,7.1V931.1z"/>
	<path class="st4" d="M560.9,931.1c0,3.9-3.2,7.1-7.1,7.1h-22.7c-3.9,0-7.1-3.2-7.1-7.1v-28.3c0-3.9,3.2-7.1,7.1-7.1h22.7
		c3.9,0,7.1,3.2,7.1,7.1V931.1z"/>
	<path class="st4" d="M608.2,931.1c0,3.9-3.2,7.1-7.1,7.1h-22.7c-3.9,0-7.1-3.2-7.1-7.1v-28.3c0-3.9,3.2-7.1,7.1-7.1h22.7
		c3.9,0,7.1,3.2,7.1,7.1V931.1z"/>
	<path class="st4" d="M655.4,931.1c0,3.9-3.2,7.1-7.1,7.1h-22.7c-3.9,0-7.1-3.2-7.1-7.1v-28.3c0-3.9,3.2-7.1,7.1-7.1h22.7
		c3.9,0,7.1,3.2,7.1,7.1V931.1z"/>
	<path class="st4" d="M183,983.6c0,3.9-3.2,7.1-7.1,7.1h-22.7c-3.9,0-7.1-3.2-7.1-7.1v-28.3c0-3.9,3.2-7.1,7.1-7.1h22.7
		c3.9,0,7.1,3.2,7.1,7.1V983.6z"/>
	<path class="st4" d="M230.2,983.6c0,3.9-3.2,7.1-7.1,7.1h-22.7c-3.9,0-7.1-3.2-7.1-7.1v-28.3c0-3.9,3.2-7.1,7.1-7.1h22.7
		c3.9,0,7.1,3.2,7.1,7.1V983.6z"/>
	<path class="st4" d="M277.5,983.6c0,3.9-3.2,7.1-7.1,7.1h-22.7c-3.9,0-7.1-3.2-7.1-7.1v-28.3c0-3.9,3.2-7.1,7.1-7.1h22.7
		c3.9,0,7.1,3.2,7.1,7.1V983.6z"/>
	<path class="st4" d="M324.7,983.6c0,3.9-3.2,7.1-7.1,7.1h-22.7c-3.9,0-7.1-3.2-7.1-7.1v-28.3c0-3.9,3.2-7.1,7.1-7.1h22.7
		c3.9,0,7.1,3.2,7.1,7.1V983.6z"/>
	<path class="st4" d="M371.9,983.6c0,3.9-3.2,7.1-7.1,7.1h-22.7c-3.9,0-7.1-3.2-7.1-7.1v-28.3c0-3.9,3.2-7.1,7.1-7.1h22.7
		c3.9,0,7.1,3.2,7.1,7.1V983.6z"/>
	<path class="st4" d="M419.2,983.6c0,3.9-3.2,7.1-7.1,7.1h-22.7c-3.9,0-7.1-3.2-7.1-7.1v-28.3c0-3.9,3.2-7.1,7.1-7.1h22.7
		c3.9,0,7.1,3.2,7.1,7.1V983.6z"/>
	<path class="st4" d="M466.4,983.6c0,3.9-3.2,7.1-7.1,7.1h-22.7c-3.9,0-7.1-3.2-7.1-7.1v-28.3c0-3.9,3.2-7.1,7.1-7.1h22.7
		c3.9,0,7.1,3.2,7.1,7.1V983.6z"/>
	<path class="st4" d="M513.7,983.6c0,3.9-3.2,7.1-7.1,7.1h-22.7c-3.9,0-7.1-3.2-7.1-7.1v-28.3c0-3.9,3.2-7.1,7.1-7.1h22.7
		c3.9,0,7.1,3.2,7.1,7.1V983.6z"/>
	<path class="st4" d="M560.9,983.6c0,3.9-3.2,7.1-7.1,7.1h-22.7c-3.9,0-7.1-3.2-7.1-7.1v-28.3c0-3.9,3.2-7.1,7.1-7.1h22.7
		c3.9,0,7.1,3.2,7.1,7.1V983.6z"/>
	<path class="st4" d="M608.2,983.6c0,3.9-3.2,7.1-7.1,7.1h-22.7c-3.9,0-7.1-3.2-7.1-7.1v-28.3c0-3.9,3.2-7.1,7.1-7.1h22.7
		c3.9,0,7.1,3.2,7.1,7.1V983.6z"/>
	<path class="st4" d="M655.4,983.6c0,3.9-3.2,7.1-7.1,7.1h-22.7c-3.9,0-7.1-3.2-7.1-7.1v-28.3c0-3.9,3.2-7.1,7.1-7.1h22.7
		c3.9,0,7.1,3.2,7.1,7.1V983.6z"/>
	<path class="st4" d="M701.9,721.1c0,3.9-3.2,7.1-7.1,7.1h-22.7c-3.9,0-7.1-3.2-7.1-7.1v-28.3c0-3.9,3.2-7.1,7.1-7.1h22.7
		c3.9,0,7.1,3.2,7.1,7.1V721.1z"/>
	<path class="st4" d="M749.2,721.1c0,3.9-3.2,7.1-7.1,7.1h-22.7c-3.9,0-7.1-3.2-7.1-7.1v-28.3c0-3.9,3.2-7.1,7.1-7.1h22.7
		c3.9,0,7.1,3.2,7.1,7.1V721.1z"/>
	<path class="st4" d="M796.4,721.1c0,3.9-3.2,7.1-7.1,7.1h-22.7c-3.9,0-7.1-3.2-7.1-7.1v-28.3c0-3.9,3.2-7.1,7.1-7.1h22.7
		c3.9,0,7.1,3.2,7.1,7.1V721.1z"/>
	<path class="st4" d="M846.5,721.1c0,3.9-3.7,7.1-8.2,7.1h-26.2c-4.5,0-8.2-3.2-8.2-7.1v-28.3c0-3.9,3.7-7.1,8.2-7.1h26.2
		c4.5,0,8.2,3.2,8.2,7.1L846.5,721.1L846.5,721.1z"/>
	<path class="st4" d="M890.9,721.1c0,3.9-3.2,7.1-7.1,7.1h-22.7c-3.9,0-7.1-3.2-7.1-7.1v-28.3c0-3.9,3.2-7.1,7.1-7.1h22.7
		c3.9,0,7.1,3.2,7.1,7.1V721.1z"/>
	<path class="st4" d="M938.2,721.1c0,3.9-3.2,7.1-7.1,7.1h-22.7c-3.9,0-7.1-3.2-7.1-7.1v-28.3c0-3.9,3.2-7.1,7.1-7.1h22.7
		c3.9,0,7.1,3.2,7.1,7.1V721.1z"/>
	<path class="st4" d="M985.4,721.1c0,3.9-3.2,7.1-7.1,7.1h-22.7c-3.9,0-7.1-3.2-7.1-7.1v-28.3c0-3.9,3.2-7.1,7.1-7.1h22.7
		c3.9,0,7.1,3.2,7.1,7.1V721.1z"/>
	<path class="st4" d="M701.9,773.6c0,3.9-3.2,7.1-7.1,7.1h-22.7c-3.9,0-7.1-3.2-7.1-7.1v-28.3c0-3.9,3.2-7.1,7.1-7.1h22.7
		c3.9,0,7.1,3.2,7.1,7.1V773.6z"/>
	<path class="st4" d="M749.2,773.6c0,3.9-3.2,7.1-7.1,7.1h-22.7c-3.9,0-7.1-3.2-7.1-7.1v-28.3c0-3.9,3.2-7.1,7.1-7.1h22.7
		c3.9,0,7.1,3.2,7.1,7.1V773.6z"/>
	<path class="st4" d="M796.4,773.6c0,3.9-3.2,7.1-7.1,7.1h-22.7c-3.9,0-7.1-3.2-7.1-7.1v-28.3c0-3.9,3.2-7.1,7.1-7.1h22.7
		c3.9,0,7.1,3.2,7.1,7.1V773.6z"/>
	<path class="st4" d="M846.5,773.6c0,3.9-3.7,7.1-8.2,7.1h-26.2c-4.5,0-8.2-3.2-8.2-7.1v-28.3c0-3.9,3.7-7.1,8.2-7.1h26.2
		c4.5,0,8.2,3.2,8.2,7.1L846.5,773.6L846.5,773.6z"/>
	<path class="st4" d="M890.9,773.6c0,3.9-3.2,7.1-7.1,7.1h-22.7c-3.9,0-7.1-3.2-7.1-7.1v-28.3c0-3.9,3.2-7.1,7.1-7.1h22.7
		c3.9,0,7.1,3.2,7.1,7.1V773.6z"/>
	<path class="st4" d="M938.2,773.6c0,3.9-3.2,7.1-7.1,7.1h-22.7c-3.9,0-7.1-3.2-7.1-7.1v-28.3c0-3.9,3.2-7.1,7.1-7.1h22.7
		c3.9,0,7.1,3.2,7.1,7.1V773.6z"/>
	<path class="st4" d="M985.4,773.6c0,3.9-3.2,7.1-7.1,7.1h-22.7c-3.9,0-7.1-3.2-7.1-7.1v-28.3c0-3.9,3.2-7.1,7.1-7.1h22.7
		c3.9,0,7.1,3.2,7.1,7.1V773.6z"/>
	<path class="st4" d="M701.9,826.1c0,3.9-3.2,7.1-7.1,7.1h-22.7c-3.9,0-7.1-3.2-7.1-7.1v-28.3c0-3.9,3.2-7.1,7.1-7.1h22.7
		c3.9,0,7.1,3.2,7.1,7.1V826.1z"/>
	<path class="st4" d="M749.2,826.1c0,3.9-3.2,7.1-7.1,7.1h-22.7c-3.9,0-7.1-3.2-7.1-7.1v-28.3c0-3.9,3.2-7.1,7.1-7.1h22.7
		c3.9,0,7.1,3.2,7.1,7.1V826.1z"/>
	<path class="st4" d="M796.4,826.1c0,3.9-3.2,7.1-7.1,7.1h-22.7c-3.9,0-7.1-3.2-7.1-7.1v-28.3c0-3.9,3.2-7.1,7.1-7.1h22.7
		c3.9,0,7.1,3.2,7.1,7.1V826.1z"/>
	<path class="st4" d="M843.7,826.1c0,3.9-3.2,7.1-7.1,7.1h-22.7c-3.9,0-7.1-3.2-7.1-7.1v-28.3c0-3.9,3.2-7.1,7.1-7.1h22.7
		c3.9,0,7.1,3.2,7.1,7.1V826.1z"/>
	<path class="st4" d="M890.9,826.1c0,3.9-3.2,7.1-7.1,7.1h-22.7c-3.9,0-7.1-3.2-7.1-7.1v-28.3c0-3.9,3.2-7.1,7.1-7.1h22.7
		c3.9,0,7.1,3.2,7.1,7.1V826.1z"/>
	<path class="st4" d="M938.2,826.1c0,3.9-3.2,7.1-7.1,7.1h-22.7c-3.9,0-7.1-3.2-7.1-7.1v-28.3c0-3.9,3.2-7.1,7.1-7.1h22.7
		c3.9,0,7.1,3.2,7.1,7.1V826.1z"/>
	<path class="st4" d="M985.4,826.1c0,3.9-3.2,7.1-7.1,7.1h-22.7c-3.9,0-7.1-3.2-7.1-7.1v-28.3c0-3.9,3.2-7.1,7.1-7.1h22.7
		c3.9,0,7.1,3.2,7.1,7.1V826.1z"/>
	<path class="st4" d="M701.9,878.6c0,3.9-3.2,7.1-7.1,7.1h-22.7c-3.9,0-7.1-3.2-7.1-7.1v-28.3c0-3.9,3.2-7.1,7.1-7.1h22.7
		c3.9,0,7.1,3.2,7.1,7.1V878.6z"/>
	<path class="st4" d="M749.2,878.6c0,3.9-3.2,7.1-7.1,7.1h-22.7c-3.9,0-7.1-3.2-7.1-7.1v-28.3c0-3.9,3.2-7.1,7.1-7.1h22.7
		c3.9,0,7.1,3.2,7.1,7.1V878.6z"/>
	<path class="st4" d="M796.4,878.6c0,3.9-3.2,7.1-7.1,7.1h-22.7c-3.9,0-7.1-3.2-7.1-7.1v-28.3c0-3.9,3.2-7.1,7.1-7.1h22.7
		c3.9,0,7.1,3.2,7.1,7.1V878.6z"/>
	<path class="st4" d="M843.7,878.6c0,3.9-3.2,7.1-7.1,7.1h-22.7c-3.9,0-7.1-3.2-7.1-7.1v-28.3c0-3.9,3.2-7.1,7.1-7.1h22.7
		c3.9,0,7.1,3.2,7.1,7.1V878.6z"/>
	<path class="st4" d="M890.9,878.6c0,3.9-3.2,7.1-7.1,7.1h-22.7c-3.9,0-7.1-3.2-7.1-7.1v-28.3c0-3.9,3.2-7.1,7.1-7.1h22.7
		c3.9,0,7.1,3.2,7.1,7.1V878.6z"/>
	<path class="st4" d="M941,878.6c0,3.9-3.7,7.1-8.2,7.1h-26.2c-4.5,0-8.2-3.2-8.2-7.1v-28.3c0-3.9,3.7-7.1,8.2-7.1h26.2
		c4.5,0,8.2,3.2,8.2,7.1V878.6z"/>
	<path class="st4" d="M985.4,878.6c0,3.9-3.2,7.1-7.1,7.1h-22.7c-3.9,0-7.1-3.2-7.1-7.1v-28.3c0-3.9,3.2-7.1,7.1-7.1h22.7
		c3.9,0,7.1,3.2,7.1,7.1V878.6z"/>
	<path class="st4" d="M701.9,931.1c0,3.9-3.2,7.1-7.1,7.1h-22.7c-3.9,0-7.1-3.2-7.1-7.1v-28.3c0-3.9,3.2-7.1,7.1-7.1h22.7
		c3.9,0,7.1,3.2,7.1,7.1V931.1z"/>
	<path class="st4" d="M752,931.1c0,3.9-3.7,7.1-8.2,7.1h-26.2c-4.5,0-8.2-3.2-8.2-7.1v-28.3c0-3.9,3.7-7.1,8.2-7.1h26.2
		c4.5,0,8.2,3.2,8.2,7.1V931.1z"/>
	<path class="st4" d="M796.4,931.1c0,3.9-3.2,7.1-7.1,7.1h-22.7c-3.9,0-7.1-3.2-7.1-7.1v-28.3c0-3.9,3.2-7.1,7.1-7.1h22.7
		c3.9,0,7.1,3.2,7.1,7.1V931.1z"/>
	<path class="st4" d="M843.7,931.1c0,3.9-3.2,7.1-7.1,7.1h-22.7c-3.9,0-7.1-3.2-7.1-7.1v-28.3c0-3.9,3.2-7.1,7.1-7.1h22.7
		c3.9,0,7.1,3.2,7.1,7.1V931.1z"/>
	<path class="st4" d="M890.9,931.1c0,3.9-3.2,7.1-7.1,7.1h-22.7c-3.9,0-7.1-3.2-7.1-7.1v-28.3c0-3.9,3.2-7.1,7.1-7.1h22.7
		c3.9,0,7.1,3.2,7.1,7.1V931.1z"/>
	<path class="st4" d="M938.2,931.1c0,3.9-3.2,7.1-7.1,7.1h-22.7c-3.9,0-7.1-3.2-7.1-7.1v-28.3c0-3.9,3.2-7.1,7.1-7.1h22.7
		c3.9,0,7.1,3.2,7.1,7.1V931.1z"/>
	<path class="st4" d="M985.4,931.1c0,3.9-3.2,7.1-7.1,7.1h-22.7c-3.9,0-7.1-3.2-7.1-7.1v-28.3c0-3.9,3.2-7.1,7.1-7.1h22.7
		c3.9,0,7.1,3.2,7.1,7.1V931.1z"/>
	<path class="st4" d="M701.9,983.6c0,3.9-3.2,7.1-7.1,7.1h-22.7c-3.9,0-7.1-3.2-7.1-7.1v-28.3c0-3.9,3.2-7.1,7.1-7.1h22.7
		c3.9,0,7.1,3.2,7.1,7.1V983.6z"/>
	<path class="st4" d="M749.2,983.6c0,3.9-3.2,7.1-7.1,7.1h-22.7c-3.9,0-7.1-3.2-7.1-7.1v-28.3c0-3.9,3.2-7.1,7.1-7.1h22.7
		c3.9,0,7.1,3.2,7.1,7.1V983.6z"/>
	<path class="st4" d="M796.4,983.6c0,3.9-3.2,7.1-7.1,7.1h-22.7c-3.9,0-7.1-3.2-7.1-7.1v-28.3c0-3.9,3.2-7.1,7.1-7.1h22.7
		c3.9,0,7.1,3.2,7.1,7.1V983.6z"/>
	<path class="st4" d="M843.7,983.6c0,3.9-3.2,7.1-7.1,7.1h-22.7c-3.9,0-7.1-3.2-7.1-7.1v-28.3c0-3.9,3.2-7.1,7.1-7.1h22.7
		c3.9,0,7.1,3.2,7.1,7.1V983.6z"/>
	<path class="st4" d="M890.9,983.6c0,3.9-3.2,7.1-7.1,7.1h-22.7c-3.9,0-7.1-3.2-7.1-7.1v-28.3c0-3.9,3.2-7.1,7.1-7.1h22.7
		c3.9,0,7.1,3.2,7.1,7.1V983.6z"/>
	<path class="st4" d="M938.2,983.6c0,3.9-3.2,7.1-7.1,7.1h-22.7c-3.9,0-7.1-3.2-7.1-7.1v-28.3c0-3.9,3.2-7.1,7.1-7.1h22.7
		c3.9,0,7.1,3.2,7.1,7.1V983.6z"/>
	<path class="st4" d="M985.4,983.6c0,3.9-3.2,7.1-7.1,7.1h-22.7c-3.9,0-7.1-3.2-7.1-7.1v-28.3c0-3.9,3.2-7.1,7.1-7.1h22.7
		c3.9,0,7.1,3.2,7.1,7.1V983.6z"/>
</g>
</svg>
