<?xml version="1.0" encoding="utf-8"?>
<!-- Generator: Adobe Illustrator 24.3.0, SVG Export Plug-In . SVG Version: 6.00 Build 0)  -->
<svg version="1.1"
	 id="svg918" inkscape:version="0.92.4 (5da689c313, 2019-01-14)" sodipodi:docname="UHR125_Type2_Front.svg" xmlns:cc="http://creativecommons.org/ns#" xmlns:dc="http://purl.org/dc/elements/1.1/" xmlns:inkscape="http://www.inkscape.org/namespaces/inkscape" xmlns:rdf="http://www.w3.org/1999/02/22-rdf-syntax-ns#" xmlns:sodipodi="http://sodipodi.sourceforge.net/DTD/sodipodi-0.dtd" xmlns:svg="http://www.w3.org/2000/svg"
	 xmlns="http://www.w3.org/2000/svg" xmlns:xlink="http://www.w3.org/1999/xlink" x="0px" y="0px" viewBox="0 0 2834.6 1700.8"
	 style="enable-background:new 0 0 2834.6 1700.8;" xml:space="preserve">
<style type="text/css">
	.st0{fill:none;stroke:#FF0000;stroke-width:0.2835;}
</style>
<g>
	<path class="st0" d="M139.4,74.9c0,3.9-3.2,7.1-7.1,7.1h-22.7c-3.9,0-7.1-3.2-7.1-7.1V46.5c0-3.9,3.2-7.1,7.1-7.1h22.7
		c3.9,0,7.1,3.2,7.1,7.1V74.9z"/>
	<path class="st0" d="M186.6,74.9c0,3.9-3.2,7.1-7.1,7.1h-22.7c-3.9,0-7.1-3.2-7.1-7.1V46.5c0-3.9,3.2-7.1,7.1-7.1h22.7
		c3.9,0,7.1,3.2,7.1,7.1V74.9z"/>
	<path class="st0" d="M233.9,74.9c0,3.9-3.2,7.1-7.1,7.1h-22.7c-3.9,0-7.1-3.2-7.1-7.1V46.5c0-3.9,3.2-7.1,7.1-7.1h22.7
		c3.9,0,7.1,3.2,7.1,7.1V74.9z"/>
	<path class="st0" d="M281.1,74.9c0,3.9-3.2,7.1-7.1,7.1h-22.7c-3.9,0-7.1-3.2-7.1-7.1V46.5c0-3.9,3.2-7.1,7.1-7.1H274
		c3.9,0,7.1,3.2,7.1,7.1V74.9z"/>
	<path class="st0" d="M328.3,74.9c0,3.9-3.2,7.1-7.1,7.1h-22.7c-3.9,0-7.1-3.2-7.1-7.1V46.5c0-3.9,3.2-7.1,7.1-7.1h22.7
		c3.9,0,7.1,3.2,7.1,7.1V74.9z"/>
	<path class="st0" d="M375.6,74.9c0,3.9-3.2,7.1-7.1,7.1h-22.7c-3.9,0-7.1-3.2-7.1-7.1V46.5c0-3.9,3.2-7.1,7.1-7.1h22.7
		c3.9,0,7.1,3.2,7.1,7.1V74.9z"/>
	<path class="st0" d="M422.8,74.9c0,3.9-3.2,7.1-7.1,7.1h-22.7c-3.9,0-7.1-3.2-7.1-7.1V46.5c0-3.9,3.2-7.1,7.1-7.1h22.7
		c3.9,0,7.1,3.2,7.1,7.1V74.9z"/>
	<path class="st0" d="M470.1,74.9c0,3.9-3.2,7.1-7.1,7.1h-22.7c-3.9,0-7.1-3.2-7.1-7.1V46.5c0-3.9,3.2-7.1,7.1-7.1H463
		c3.9,0,7.1,3.2,7.1,7.1V74.9z"/>
	<path class="st0" d="M517.3,74.9c0,3.9-3.2,7.1-7.1,7.1h-22.7c-3.9,0-7.1-3.2-7.1-7.1V46.5c0-3.9,3.2-7.1,7.1-7.1h22.7
		c3.9,0,7.1,3.2,7.1,7.1V74.9z"/>
	<path class="st0" d="M564.6,74.9c0,3.9-3.2,7.1-7.1,7.1h-22.7c-3.9,0-7.1-3.2-7.1-7.1V46.5c0-3.9,3.2-7.1,7.1-7.1h22.7
		c3.9,0,7.1,3.2,7.1,7.1V74.9z"/>
	<path class="st0" d="M611.8,74.9c0,3.9-3.2,7.1-7.1,7.1H582c-3.9,0-7.1-3.2-7.1-7.1V46.5c0-3.9,3.2-7.1,7.1-7.1h22.7
		c3.9,0,7.1,3.2,7.1,7.1V74.9z"/>
	<path class="st0" d="M139.4,127.4c0,3.9-3.2,7.1-7.1,7.1h-22.7c-3.9,0-7.1-3.2-7.1-7.1V99c0-3.9,3.2-7.1,7.1-7.1h22.7
		c3.9,0,7.1,3.2,7.1,7.1V127.4z"/>
	<path class="st0" d="M186.6,127.4c0,3.9-3.2,7.1-7.1,7.1h-22.7c-3.9,0-7.1-3.2-7.1-7.1V99c0-3.9,3.2-7.1,7.1-7.1h22.7
		c3.9,0,7.1,3.2,7.1,7.1V127.4z"/>
	<path class="st0" d="M233.9,127.4c0,3.9-3.2,7.1-7.1,7.1h-22.7c-3.9,0-7.1-3.2-7.1-7.1V99c0-3.9,3.2-7.1,7.1-7.1h22.7
		c3.9,0,7.1,3.2,7.1,7.1V127.4z"/>
	<path class="st0" d="M281.1,127.4c0,3.9-3.2,7.1-7.1,7.1h-22.7c-3.9,0-7.1-3.2-7.1-7.1V99c0-3.9,3.2-7.1,7.1-7.1H274
		c3.9,0,7.1,3.2,7.1,7.1V127.4z"/>
	<path class="st0" d="M328.3,127.4c0,3.9-3.2,7.1-7.1,7.1h-22.7c-3.9,0-7.1-3.2-7.1-7.1V99c0-3.9,3.2-7.1,7.1-7.1h22.7
		c3.9,0,7.1,3.2,7.1,7.1V127.4z"/>
	<path class="st0" d="M378.4,127.4c0,3.9-3.7,7.1-8.2,7.1h-26.2c-4.5,0-8.2-3.2-8.2-7.1V99c0-3.9,3.7-7.1,8.2-7.1h26.2
		c4.5,0,8.2,3.2,8.2,7.1V127.4z"/>
	<path class="st0" d="M422.8,127.4c0,3.9-3.2,7.1-7.1,7.1h-22.7c-3.9,0-7.1-3.2-7.1-7.1V99c0-3.9,3.2-7.1,7.1-7.1h22.7
		c3.9,0,7.1,3.2,7.1,7.1V127.4z"/>
	<path class="st0" d="M470.1,127.4c0,3.9-3.2,7.1-7.1,7.1h-22.7c-3.9,0-7.1-3.2-7.1-7.1V99c0-3.9,3.2-7.1,7.1-7.1H463
		c3.9,0,7.1,3.2,7.1,7.1V127.4z"/>
	<path class="st0" d="M517.3,127.4c0,3.9-3.2,7.1-7.1,7.1h-22.7c-3.9,0-7.1-3.2-7.1-7.1V99c0-3.9,3.2-7.1,7.1-7.1h22.7
		c3.9,0,7.1,3.2,7.1,7.1V127.4z"/>
	<path class="st0" d="M564.6,127.4c0,3.9-3.2,7.1-7.1,7.1h-22.7c-3.9,0-7.1-3.2-7.1-7.1V99c0-3.9,3.2-7.1,7.1-7.1h22.7
		c3.9,0,7.1,3.2,7.1,7.1V127.4z"/>
	<path class="st0" d="M611.8,127.4c0,3.9-3.2,7.1-7.1,7.1H582c-3.9,0-7.1-3.2-7.1-7.1V99c0-3.9,3.2-7.1,7.1-7.1h22.7
		c3.9,0,7.1,3.2,7.1,7.1V127.4z"/>
	<path class="st0" d="M139.4,179.9c0,3.9-3.2,7.1-7.1,7.1h-22.7c-3.9,0-7.1-3.2-7.1-7.1v-28.3c0-3.9,3.2-7.1,7.1-7.1h22.7
		c3.9,0,7.1,3.2,7.1,7.1V179.9z"/>
	<path class="st0" d="M189.4,179.9c0,3.9-3.7,7.1-8.2,7.1h-26.2c-4.5,0-8.2-3.2-8.2-7.1v-28.3c0-3.9,3.7-7.1,8.2-7.1h26.2
		c4.5,0,8.2,3.2,8.2,7.1L189.4,179.9L189.4,179.9z"/>
	<path class="st0" d="M233.9,179.9c0,3.9-3.2,7.1-7.1,7.1h-22.7c-3.9,0-7.1-3.2-7.1-7.1v-28.3c0-3.9,3.2-7.1,7.1-7.1h22.7
		c3.9,0,7.1,3.2,7.1,7.1V179.9z"/>
	<path class="st0" d="M281.1,179.9c0,3.9-3.2,7.1-7.1,7.1h-22.7c-3.9,0-7.1-3.2-7.1-7.1v-28.3c0-3.9,3.2-7.1,7.1-7.1H274
		c3.9,0,7.1,3.2,7.1,7.1V179.9z"/>
	<path class="st0" d="M328.3,179.9c0,3.9-3.2,7.1-7.1,7.1h-22.7c-3.9,0-7.1-3.2-7.1-7.1v-28.3c0-3.9,3.2-7.1,7.1-7.1h22.7
		c3.9,0,7.1,3.2,7.1,7.1V179.9z"/>
	<path class="st0" d="M375.6,179.9c0,3.9-3.2,7.1-7.1,7.1h-22.7c-3.9,0-7.1-3.2-7.1-7.1v-28.3c0-3.9,3.2-7.1,7.1-7.1h22.7
		c3.9,0,7.1,3.2,7.1,7.1V179.9z"/>
	<path class="st0" d="M422.8,179.9c0,3.9-3.2,7.1-7.1,7.1h-22.7c-3.9,0-7.1-3.2-7.1-7.1v-28.3c0-3.9,3.2-7.1,7.1-7.1h22.7
		c3.9,0,7.1,3.2,7.1,7.1V179.9z"/>
	<path class="st0" d="M470.1,179.9c0,3.9-3.2,7.1-7.1,7.1h-22.7c-3.9,0-7.1-3.2-7.1-7.1v-28.3c0-3.9,3.2-7.1,7.1-7.1H463
		c3.9,0,7.1,3.2,7.1,7.1V179.9z"/>
	<path class="st0" d="M517.3,179.9c0,3.9-3.2,7.1-7.1,7.1h-22.7c-3.9,0-7.1-3.2-7.1-7.1v-28.3c0-3.9,3.2-7.1,7.1-7.1h22.7
		c3.9,0,7.1,3.2,7.1,7.1V179.9z"/>
	<path class="st0" d="M567.4,179.9c0,3.9-3.7,7.1-8.2,7.1h-26.2c-4.5,0-8.2-3.2-8.2-7.1v-28.3c0-3.9,3.7-7.1,8.2-7.1h26.2
		c4.5,0,8.2,3.2,8.2,7.1V179.9z"/>
	<path class="st0" d="M611.8,179.9c0,3.9-3.2,7.1-7.1,7.1H582c-3.9,0-7.1-3.2-7.1-7.1v-28.3c0-3.9,3.2-7.1,7.1-7.1h22.7
		c3.9,0,7.1,3.2,7.1,7.1V179.9z"/>
	<path class="st0" d="M139.4,232.4c0,3.9-3.2,7.1-7.1,7.1h-22.7c-3.9,0-7.1-3.2-7.1-7.1V204c0-3.9,3.2-7.1,7.1-7.1h22.7
		c3.9,0,7.1,3.2,7.1,7.1V232.4z"/>
	<path class="st0" d="M186.6,232.4c0,3.9-3.2,7.1-7.1,7.1h-22.7c-3.9,0-7.1-3.2-7.1-7.1V204c0-3.9,3.2-7.1,7.1-7.1h22.7
		c3.9,0,7.1,3.2,7.1,7.1V232.4z"/>
	<path class="st0" d="M233.9,232.4c0,3.9-3.2,7.1-7.1,7.1h-22.7c-3.9,0-7.1-3.2-7.1-7.1V204c0-3.9,3.2-7.1,7.1-7.1h22.7
		c3.9,0,7.1,3.2,7.1,7.1V232.4z"/>
	<path class="st0" d="M281.1,232.4c0,3.9-3.2,7.1-7.1,7.1h-22.7c-3.9,0-7.1-3.2-7.1-7.1V204c0-3.9,3.2-7.1,7.1-7.1H274
		c3.9,0,7.1,3.2,7.1,7.1V232.4z"/>
	<path class="st0" d="M328.3,232.4c0,3.9-3.2,7.1-7.1,7.1h-22.7c-3.9,0-7.1-3.2-7.1-7.1V204c0-3.9,3.2-7.1,7.1-7.1h22.7
		c3.9,0,7.1,3.2,7.1,7.1V232.4z"/>
	<path class="st0" d="M375.6,232.4c0,3.9-3.2,7.1-7.1,7.1h-22.7c-3.9,0-7.1-3.2-7.1-7.1V204c0-3.9,3.2-7.1,7.1-7.1h22.7
		c3.9,0,7.1,3.2,7.1,7.1V232.4z"/>
	<path class="st0" d="M422.8,232.4c0,3.9-3.2,7.1-7.1,7.1h-22.7c-3.9,0-7.1-3.2-7.1-7.1V204c0-3.9,3.2-7.1,7.1-7.1h22.7
		c3.9,0,7.1,3.2,7.1,7.1V232.4z"/>
	<path class="st0" d="M470.1,232.4c0,3.9-3.2,7.1-7.1,7.1h-22.7c-3.9,0-7.1-3.2-7.1-7.1V204c0-3.9,3.2-7.1,7.1-7.1H463
		c3.9,0,7.1,3.2,7.1,7.1V232.4z"/>
	<path class="st0" d="M517.3,232.4c0,3.9-3.2,7.1-7.1,7.1h-22.7c-3.9,0-7.1-3.2-7.1-7.1V204c0-3.9,3.2-7.1,7.1-7.1h22.7
		c3.9,0,7.1,3.2,7.1,7.1V232.4z"/>
	<path class="st0" d="M564.6,232.4c0,3.9-3.2,7.1-7.1,7.1h-22.7c-3.9,0-7.1-3.2-7.1-7.1V204c0-3.9,3.2-7.1,7.1-7.1h22.7
		c3.9,0,7.1,3.2,7.1,7.1V232.4z"/>
	<path class="st0" d="M611.8,232.4c0,3.9-3.2,7.1-7.1,7.1H582c-3.9,0-7.1-3.2-7.1-7.1V204c0-3.9,3.2-7.1,7.1-7.1h22.7
		c3.9,0,7.1,3.2,7.1,7.1V232.4z"/>
	<path class="st0" d="M139.4,284.8c0,3.9-3.2,7.1-7.1,7.1h-22.7c-3.9,0-7.1-3.2-7.1-7.1v-28.3c0-3.9,3.2-7.1,7.1-7.1h22.7
		c3.9,0,7.1,3.2,7.1,7.1V284.8z"/>
	<path class="st0" d="M186.6,284.8c0,3.9-3.2,7.1-7.1,7.1h-22.7c-3.9,0-7.1-3.2-7.1-7.1v-28.3c0-3.9,3.2-7.1,7.1-7.1h22.7
		c3.9,0,7.1,3.2,7.1,7.1V284.8z"/>
	<path class="st0" d="M233.9,284.8c0,3.9-3.2,7.1-7.1,7.1h-22.7c-3.9,0-7.1-3.2-7.1-7.1v-28.3c0-3.9,3.2-7.1,7.1-7.1h22.7
		c3.9,0,7.1,3.2,7.1,7.1V284.8z"/>
	<path class="st0" d="M283.9,284.8c0,3.9-3.7,7.1-8.2,7.1h-26.2c-4.5,0-8.2-3.2-8.2-7.1v-28.3c0-3.9,3.7-7.1,8.2-7.1h26.2
		c4.5,0,8.2,3.2,8.2,7.1V284.8z"/>
	<path class="st0" d="M328.3,284.8c0,3.9-3.2,7.1-7.1,7.1h-22.7c-3.9,0-7.1-3.2-7.1-7.1v-28.3c0-3.9,3.2-7.1,7.1-7.1h22.7
		c3.9,0,7.1,3.2,7.1,7.1V284.8z"/>
	<path class="st0" d="M375.6,284.8c0,3.9-3.2,7.1-7.1,7.1h-22.7c-3.9,0-7.1-3.2-7.1-7.1v-28.3c0-3.9,3.2-7.1,7.1-7.1h22.7
		c3.9,0,7.1,3.2,7.1,7.1V284.8z"/>
	<path class="st0" d="M422.8,284.8c0,3.9-3.2,7.1-7.1,7.1h-22.7c-3.9,0-7.1-3.2-7.1-7.1v-28.3c0-3.9,3.2-7.1,7.1-7.1h22.7
		c3.9,0,7.1,3.2,7.1,7.1V284.8z"/>
	<path class="st0" d="M472.9,284.8c0,3.9-3.7,7.1-8.2,7.1h-26.2c-4.5,0-8.2-3.2-8.2-7.1v-28.3c0-3.9,3.7-7.1,8.2-7.1h26.2
		c4.5,0,8.2,3.2,8.2,7.1L472.9,284.8L472.9,284.8z"/>
	<path class="st0" d="M517.3,284.8c0,3.9-3.2,7.1-7.1,7.1h-22.7c-3.9,0-7.1-3.2-7.1-7.1v-28.3c0-3.9,3.2-7.1,7.1-7.1h22.7
		c3.9,0,7.1,3.2,7.1,7.1V284.8z"/>
	<path class="st0" d="M564.6,284.8c0,3.9-3.2,7.1-7.1,7.1h-22.7c-3.9,0-7.1-3.2-7.1-7.1v-28.3c0-3.9,3.2-7.1,7.1-7.1h22.7
		c3.9,0,7.1,3.2,7.1,7.1V284.8z"/>
	<path class="st0" d="M611.8,284.8c0,3.9-3.2,7.1-7.1,7.1H582c-3.9,0-7.1-3.2-7.1-7.1v-28.3c0-3.9,3.2-7.1,7.1-7.1h22.7
		c3.9,0,7.1,3.2,7.1,7.1V284.8z"/>
	<path class="st0" d="M139.4,337.3c0,3.9-3.2,7.1-7.1,7.1h-22.7c-3.9,0-7.1-3.2-7.1-7.1V309c0-3.9,3.2-7.1,7.1-7.1h22.7
		c3.9,0,7.1,3.2,7.1,7.1V337.3z"/>
	<path class="st0" d="M186.6,337.3c0,3.9-3.2,7.1-7.1,7.1h-22.7c-3.9,0-7.1-3.2-7.1-7.1V309c0-3.9,3.2-7.1,7.1-7.1h22.7
		c3.9,0,7.1,3.2,7.1,7.1V337.3z"/>
	<path class="st0" d="M233.9,337.3c0,3.9-3.2,7.1-7.1,7.1h-22.7c-3.9,0-7.1-3.2-7.1-7.1V309c0-3.9,3.2-7.1,7.1-7.1h22.7
		c3.9,0,7.1,3.2,7.1,7.1V337.3z"/>
	<path class="st0" d="M283.9,337.3c0,3.9-3.7,7.1-8.2,7.1h-26.2c-4.5,0-8.2-3.2-8.2-7.1V309c0-3.9,3.7-7.1,8.2-7.1h26.2
		c4.5,0,8.2,3.2,8.2,7.1V337.3z"/>
	<path class="st0" d="M328.3,337.3c0,3.9-3.2,7.1-7.1,7.1h-22.7c-3.9,0-7.1-3.2-7.1-7.1V309c0-3.9,3.2-7.1,7.1-7.1h22.7
		c3.9,0,7.1,3.2,7.1,7.1V337.3z"/>
	<path class="st0" d="M375.6,337.3c0,3.9-3.2,7.1-7.1,7.1h-22.7c-3.9,0-7.1-3.2-7.1-7.1V309c0-3.9,3.2-7.1,7.1-7.1h22.7
		c3.9,0,7.1,3.2,7.1,7.1V337.3z"/>
	<path class="st0" d="M422.8,337.3c0,3.9-3.2,7.1-7.1,7.1h-22.7c-3.9,0-7.1-3.2-7.1-7.1V309c0-3.9,3.2-7.1,7.1-7.1h22.7
		c3.9,0,7.1,3.2,7.1,7.1V337.3z"/>
	<path class="st0" d="M472.9,337.3c0,3.9-3.7,7.1-8.2,7.1h-26.2c-4.5,0-8.2-3.2-8.2-7.1V309c0-3.9,3.7-7.1,8.2-7.1h26.2
		c4.5,0,8.2,3.2,8.2,7.1L472.9,337.3L472.9,337.3z"/>
	<path class="st0" d="M517.3,337.3c0,3.9-3.2,7.1-7.1,7.1h-22.7c-3.9,0-7.1-3.2-7.1-7.1V309c0-3.9,3.2-7.1,7.1-7.1h22.7
		c3.9,0,7.1,3.2,7.1,7.1V337.3z"/>
	<path class="st0" d="M564.6,337.3c0,3.9-3.2,7.1-7.1,7.1h-22.7c-3.9,0-7.1-3.2-7.1-7.1V309c0-3.9,3.2-7.1,7.1-7.1h22.7
		c3.9,0,7.1,3.2,7.1,7.1V337.3z"/>
	<path class="st0" d="M611.8,337.3c0,3.9-3.2,7.1-7.1,7.1H582c-3.9,0-7.1-3.2-7.1-7.1V309c0-3.9,3.2-7.1,7.1-7.1h22.7
		c3.9,0,7.1,3.2,7.1,7.1V337.3z"/>
	<path class="st0" d="M139.4,389.8c0,3.9-3.2,7.1-7.1,7.1h-22.7c-3.9,0-7.1-3.2-7.1-7.1v-28.3c0-3.9,3.2-7.1,7.1-7.1h22.7
		c3.9,0,7.1,3.2,7.1,7.1V389.8z"/>
	<path class="st0" d="M186.6,389.8c0,3.9-3.2,7.1-7.1,7.1h-22.7c-3.9,0-7.1-3.2-7.1-7.1v-28.3c0-3.9,3.2-7.1,7.1-7.1h22.7
		c3.9,0,7.1,3.2,7.1,7.1V389.8z"/>
	<path class="st0" d="M233.9,389.8c0,3.9-3.2,7.1-7.1,7.1h-22.7c-3.9,0-7.1-3.2-7.1-7.1v-28.3c0-3.9,3.2-7.1,7.1-7.1h22.7
		c3.9,0,7.1,3.2,7.1,7.1V389.8z"/>
	<path class="st0" d="M281.1,389.8c0,3.9-3.2,7.1-7.1,7.1h-22.7c-3.9,0-7.1-3.2-7.1-7.1v-28.3c0-3.9,3.2-7.1,7.1-7.1H274
		c3.9,0,7.1,3.2,7.1,7.1V389.8z"/>
	<path class="st0" d="M328.3,389.8c0,3.9-3.2,7.1-7.1,7.1h-22.7c-3.9,0-7.1-3.2-7.1-7.1v-28.3c0-3.9,3.2-7.1,7.1-7.1h22.7
		c3.9,0,7.1,3.2,7.1,7.1V389.8z"/>
	<path class="st0" d="M375.6,389.8c0,3.9-3.2,7.1-7.1,7.1h-22.7c-3.9,0-7.1-3.2-7.1-7.1v-28.3c0-3.9,3.2-7.1,7.1-7.1h22.7
		c3.9,0,7.1,3.2,7.1,7.1V389.8z"/>
	<path class="st0" d="M422.8,389.8c0,3.9-3.2,7.1-7.1,7.1h-22.7c-3.9,0-7.1-3.2-7.1-7.1v-28.3c0-3.9,3.2-7.1,7.1-7.1h22.7
		c3.9,0,7.1,3.2,7.1,7.1V389.8z"/>
	<path class="st0" d="M470.1,389.8c0,3.9-3.2,7.1-7.1,7.1h-22.7c-3.9,0-7.1-3.2-7.1-7.1v-28.3c0-3.9,3.2-7.1,7.1-7.1H463
		c3.9,0,7.1,3.2,7.1,7.1V389.8z"/>
	<path class="st0" d="M517.3,389.8c0,3.9-3.2,7.1-7.1,7.1h-22.7c-3.9,0-7.1-3.2-7.1-7.1v-28.3c0-3.9,3.2-7.1,7.1-7.1h22.7
		c3.9,0,7.1,3.2,7.1,7.1V389.8z"/>
	<path class="st0" d="M564.6,389.8c0,3.9-3.2,7.1-7.1,7.1h-22.7c-3.9,0-7.1-3.2-7.1-7.1v-28.3c0-3.9,3.2-7.1,7.1-7.1h22.7
		c3.9,0,7.1,3.2,7.1,7.1V389.8z"/>
	<path class="st0" d="M611.8,389.8c0,3.9-3.2,7.1-7.1,7.1H582c-3.9,0-7.1-3.2-7.1-7.1v-28.3c0-3.9,3.2-7.1,7.1-7.1h22.7
		c3.9,0,7.1,3.2,7.1,7.1V389.8z"/>
	<path class="st0" d="M139.4,442.3c0,3.9-3.2,7.1-7.1,7.1h-22.7c-3.9,0-7.1-3.2-7.1-7.1V414c0-3.9,3.2-7.1,7.1-7.1h22.7
		c3.9,0,7.1,3.2,7.1,7.1V442.3z"/>
	<path class="st0" d="M189.4,442.3c0,3.9-3.7,7.1-8.2,7.1h-26.2c-4.5,0-8.2-3.2-8.2-7.1V414c0-3.9,3.7-7.1,8.2-7.1h26.2
		c4.5,0,8.2,3.2,8.2,7.1L189.4,442.3L189.4,442.3z"/>
	<path class="st0" d="M233.9,442.3c0,3.9-3.2,7.1-7.1,7.1h-22.7c-3.9,0-7.1-3.2-7.1-7.1V414c0-3.9,3.2-7.1,7.1-7.1h22.7
		c3.9,0,7.1,3.2,7.1,7.1V442.3z"/>
	<path class="st0" d="M281.1,442.3c0,3.9-3.2,7.1-7.1,7.1h-22.7c-3.9,0-7.1-3.2-7.1-7.1V414c0-3.9,3.2-7.1,7.1-7.1H274
		c3.9,0,7.1,3.2,7.1,7.1V442.3z"/>
	<path class="st0" d="M328.3,442.3c0,3.9-3.2,7.1-7.1,7.1h-22.7c-3.9,0-7.1-3.2-7.1-7.1V414c0-3.9,3.2-7.1,7.1-7.1h22.7
		c3.9,0,7.1,3.2,7.1,7.1V442.3z"/>
	<path class="st0" d="M375.6,442.3c0,3.9-3.2,7.1-7.1,7.1h-22.7c-3.9,0-7.1-3.2-7.1-7.1V414c0-3.9,3.2-7.1,7.1-7.1h22.7
		c3.9,0,7.1,3.2,7.1,7.1V442.3z"/>
	<path class="st0" d="M422.8,442.3c0,3.9-3.2,7.1-7.1,7.1h-22.7c-3.9,0-7.1-3.2-7.1-7.1V414c0-3.9,3.2-7.1,7.1-7.1h22.7
		c3.9,0,7.1,3.2,7.1,7.1V442.3z"/>
	<path class="st0" d="M470.1,442.3c0,3.9-3.2,7.1-7.1,7.1h-22.7c-3.9,0-7.1-3.2-7.1-7.1V414c0-3.9,3.2-7.1,7.1-7.1H463
		c3.9,0,7.1,3.2,7.1,7.1V442.3z"/>
	<path class="st0" d="M517.3,442.3c0,3.9-3.2,7.1-7.1,7.1h-22.7c-3.9,0-7.1-3.2-7.1-7.1V414c0-3.9,3.2-7.1,7.1-7.1h22.7
		c3.9,0,7.1,3.2,7.1,7.1V442.3z"/>
	<path class="st0" d="M567.4,442.3c0,3.9-3.7,7.1-8.2,7.1h-26.2c-4.5,0-8.2-3.2-8.2-7.1V414c0-3.9,3.7-7.1,8.2-7.1h26.2
		c4.5,0,8.2,3.2,8.2,7.1V442.3z"/>
	<path class="st0" d="M611.8,442.3c0,3.9-3.2,7.1-7.1,7.1H582c-3.9,0-7.1-3.2-7.1-7.1V414c0-3.9,3.2-7.1,7.1-7.1h22.7
		c3.9,0,7.1,3.2,7.1,7.1V442.3z"/>
	<path class="st0" d="M139.4,494.8c0,3.9-3.2,7.1-7.1,7.1h-22.7c-3.9,0-7.1-3.2-7.1-7.1v-28.3c0-3.9,3.2-7.1,7.1-7.1h22.7
		c3.9,0,7.1,3.2,7.1,7.1V494.8z"/>
	<path class="st0" d="M186.6,494.8c0,3.9-3.2,7.1-7.1,7.1h-22.7c-3.9,0-7.1-3.2-7.1-7.1v-28.3c0-3.9,3.2-7.1,7.1-7.1h22.7
		c3.9,0,7.1,3.2,7.1,7.1V494.8z"/>
	<path class="st0" d="M233.9,494.8c0,3.9-3.2,7.1-7.1,7.1h-22.7c-3.9,0-7.1-3.2-7.1-7.1v-28.3c0-3.9,3.2-7.1,7.1-7.1h22.7
		c3.9,0,7.1,3.2,7.1,7.1V494.8z"/>
	<path class="st0" d="M281.1,494.8c0,3.9-3.2,7.1-7.1,7.1h-22.7c-3.9,0-7.1-3.2-7.1-7.1v-28.3c0-3.9,3.2-7.1,7.1-7.1H274
		c3.9,0,7.1,3.2,7.1,7.1V494.8z"/>
	<path class="st0" d="M328.3,494.8c0,3.9-3.2,7.1-7.1,7.1h-22.7c-3.9,0-7.1-3.2-7.1-7.1v-28.3c0-3.9,3.2-7.1,7.1-7.1h22.7
		c3.9,0,7.1,3.2,7.1,7.1V494.8z"/>
	<path class="st0" d="M378.4,494.8c0,3.9-3.7,7.1-8.2,7.1h-26.2c-4.5,0-8.2-3.2-8.2-7.1v-28.3c0-3.9,3.7-7.1,8.2-7.1h26.2
		c4.5,0,8.2,3.2,8.2,7.1V494.8z"/>
	<path class="st0" d="M422.8,494.8c0,3.9-3.2,7.1-7.1,7.1h-22.7c-3.9,0-7.1-3.2-7.1-7.1v-28.3c0-3.9,3.2-7.1,7.1-7.1h22.7
		c3.9,0,7.1,3.2,7.1,7.1V494.8z"/>
	<path class="st0" d="M470.1,494.8c0,3.9-3.2,7.1-7.1,7.1h-22.7c-3.9,0-7.1-3.2-7.1-7.1v-28.3c0-3.9,3.2-7.1,7.1-7.1H463
		c3.9,0,7.1,3.2,7.1,7.1V494.8z"/>
	<path class="st0" d="M517.3,494.8c0,3.9-3.2,7.1-7.1,7.1h-22.7c-3.9,0-7.1-3.2-7.1-7.1v-28.3c0-3.9,3.2-7.1,7.1-7.1h22.7
		c3.9,0,7.1,3.2,7.1,7.1V494.8z"/>
	<path class="st0" d="M564.6,494.8c0,3.9-3.2,7.1-7.1,7.1h-22.7c-3.9,0-7.1-3.2-7.1-7.1v-28.3c0-3.9,3.2-7.1,7.1-7.1h22.7
		c3.9,0,7.1,3.2,7.1,7.1V494.8z"/>
	<path class="st0" d="M611.8,494.8c0,3.9-3.2,7.1-7.1,7.1H582c-3.9,0-7.1-3.2-7.1-7.1v-28.3c0-3.9,3.2-7.1,7.1-7.1h22.7
		c3.9,0,7.1,3.2,7.1,7.1V494.8z"/>
	<path class="st0" d="M139.4,547.3c0,3.9-3.2,7.1-7.1,7.1h-22.7c-3.9,0-7.1-3.2-7.1-7.1V519c0-3.9,3.2-7.1,7.1-7.1h22.7
		c3.9,0,7.1,3.2,7.1,7.1V547.3z"/>
	<path class="st0" d="M186.6,547.3c0,3.9-3.2,7.1-7.1,7.1h-22.7c-3.9,0-7.1-3.2-7.1-7.1V519c0-3.9,3.2-7.1,7.1-7.1h22.7
		c3.9,0,7.1,3.2,7.1,7.1V547.3z"/>
	<path class="st0" d="M233.9,547.3c0,3.9-3.2,7.1-7.1,7.1h-22.7c-3.9,0-7.1-3.2-7.1-7.1V519c0-3.9,3.2-7.1,7.1-7.1h22.7
		c3.9,0,7.1,3.2,7.1,7.1V547.3z"/>
	<path class="st0" d="M281.1,547.3c0,3.9-3.2,7.1-7.1,7.1h-22.7c-3.9,0-7.1-3.2-7.1-7.1V519c0-3.9,3.2-7.1,7.1-7.1H274
		c3.9,0,7.1,3.2,7.1,7.1V547.3z"/>
	<path class="st0" d="M328.3,547.3c0,3.9-3.2,7.1-7.1,7.1h-22.7c-3.9,0-7.1-3.2-7.1-7.1V519c0-3.9,3.2-7.1,7.1-7.1h22.7
		c3.9,0,7.1,3.2,7.1,7.1V547.3z"/>
	<path class="st0" d="M375.6,547.3c0,3.9-3.2,7.1-7.1,7.1h-22.7c-3.9,0-7.1-3.2-7.1-7.1V519c0-3.9,3.2-7.1,7.1-7.1h22.7
		c3.9,0,7.1,3.2,7.1,7.1V547.3z"/>
	<path class="st0" d="M422.8,547.3c0,3.9-3.2,7.1-7.1,7.1h-22.7c-3.9,0-7.1-3.2-7.1-7.1V519c0-3.9,3.2-7.1,7.1-7.1h22.7
		c3.9,0,7.1,3.2,7.1,7.1V547.3z"/>
	<path class="st0" d="M470.1,547.3c0,3.9-3.2,7.1-7.1,7.1h-22.7c-3.9,0-7.1-3.2-7.1-7.1V519c0-3.9,3.2-7.1,7.1-7.1H463
		c3.9,0,7.1,3.2,7.1,7.1V547.3z"/>
	<path class="st0" d="M517.3,547.3c0,3.9-3.2,7.1-7.1,7.1h-22.7c-3.9,0-7.1-3.2-7.1-7.1V519c0-3.9,3.2-7.1,7.1-7.1h22.7
		c3.9,0,7.1,3.2,7.1,7.1V547.3z"/>
	<path class="st0" d="M564.6,547.3c0,3.9-3.2,7.1-7.1,7.1h-22.7c-3.9,0-7.1-3.2-7.1-7.1V519c0-3.9,3.2-7.1,7.1-7.1h22.7
		c3.9,0,7.1,3.2,7.1,7.1V547.3z"/>
	<path class="st0" d="M611.8,547.3c0,3.9-3.2,7.1-7.1,7.1H582c-3.9,0-7.1-3.2-7.1-7.1V519c0-3.9,3.2-7.1,7.1-7.1h22.7
		c3.9,0,7.1,3.2,7.1,7.1V547.3z"/>
	<path class="st0" d="M139.4,599.8c0,3.9-3.2,7.1-7.1,7.1h-22.7c-3.9,0-7.1-3.2-7.1-7.1v-28.3c0-3.9,3.2-7.1,7.1-7.1h22.7
		c3.9,0,7.1,3.2,7.1,7.1V599.8z"/>
	<path class="st0" d="M186.6,599.8c0,3.9-3.2,7.1-7.1,7.1h-22.7c-3.9,0-7.1-3.2-7.1-7.1v-28.3c0-3.9,3.2-7.1,7.1-7.1h22.7
		c3.9,0,7.1,3.2,7.1,7.1V599.8z"/>
	<path class="st0" d="M233.9,599.8c0,3.9-3.2,7.1-7.1,7.1h-22.7c-3.9,0-7.1-3.2-7.1-7.1v-28.3c0-3.9,3.2-7.1,7.1-7.1h22.7
		c3.9,0,7.1,3.2,7.1,7.1V599.8z"/>
	<path class="st0" d="M281.1,599.8c0,3.9-3.2,7.1-7.1,7.1h-22.7c-3.9,0-7.1-3.2-7.1-7.1v-28.3c0-3.9,3.2-7.1,7.1-7.1H274
		c3.9,0,7.1,3.2,7.1,7.1V599.8z"/>
	<path class="st0" d="M328.3,599.8c0,3.9-3.2,7.1-7.1,7.1h-22.7c-3.9,0-7.1-3.2-7.1-7.1v-28.3c0-3.9,3.2-7.1,7.1-7.1h22.7
		c3.9,0,7.1,3.2,7.1,7.1V599.8z"/>
	<path class="st0" d="M375.6,599.8c0,3.9-3.2,7.1-7.1,7.1h-22.7c-3.9,0-7.1-3.2-7.1-7.1v-28.3c0-3.9,3.2-7.1,7.1-7.1h22.7
		c3.9,0,7.1,3.2,7.1,7.1V599.8z"/>
	<path class="st0" d="M422.8,599.8c0,3.9-3.2,7.1-7.1,7.1h-22.7c-3.9,0-7.1-3.2-7.1-7.1v-28.3c0-3.9,3.2-7.1,7.1-7.1h22.7
		c3.9,0,7.1,3.2,7.1,7.1V599.8z"/>
	<path class="st0" d="M470.1,599.8c0,3.9-3.2,7.1-7.1,7.1h-22.7c-3.9,0-7.1-3.2-7.1-7.1v-28.3c0-3.9,3.2-7.1,7.1-7.1H463
		c3.9,0,7.1,3.2,7.1,7.1V599.8z"/>
	<path class="st0" d="M304.3,667.8c0,3.9-3.2,7.1-7.1,7.1h-22.7c-3.9,0-7.1-3.2-7.1-7.1v-28.3c0-3.9,3.2-7.1,7.1-7.1h22.7
		c3.9,0,7.1,3.2,7.1,7.1V667.8z"/>
	<path class="st0" d="M351.6,667.8c0,3.9-3.2,7.1-7.1,7.1h-22.7c-3.9,0-7.1-3.2-7.1-7.1v-28.3c0-3.9,3.2-7.1,7.1-7.1h22.7
		c3.9,0,7.1,3.2,7.1,7.1V667.8z"/>
	<path class="st0" d="M398.8,667.8c0,3.9-3.2,7.1-7.1,7.1h-22.7c-3.9,0-7.1-3.2-7.1-7.1v-28.3c0-3.9,3.2-7.1,7.1-7.1h22.7
		c3.9,0,7.1,3.2,7.1,7.1V667.8z"/>
	<path class="st0" d="M446.1,667.8c0,3.9-3.2,7.1-7.1,7.1h-22.7c-3.9,0-7.1-3.2-7.1-7.1v-28.3c0-3.9,3.2-7.1,7.1-7.1H439
		c3.9,0,7.1,3.2,7.1,7.1V667.8z"/>
	<path class="st0" d="M517.3,599.8c0,3.9-3.2,7.1-7.1,7.1h-22.7c-3.9,0-7.1-3.2-7.1-7.1v-28.3c0-3.9,3.2-7.1,7.1-7.1h22.7
		c3.9,0,7.1,3.2,7.1,7.1V599.8z"/>
	<path class="st0" d="M564.6,599.8c0,3.9-3.2,7.1-7.1,7.1h-22.7c-3.9,0-7.1-3.2-7.1-7.1v-28.3c0-3.9,3.2-7.1,7.1-7.1h22.7
		c3.9,0,7.1,3.2,7.1,7.1V599.8z"/>
	<path class="st0" d="M611.8,599.8c0,3.9-3.2,7.1-7.1,7.1H582c-3.9,0-7.1-3.2-7.1-7.1v-28.3c0-3.9,3.2-7.1,7.1-7.1h22.7
		c3.9,0,7.1,3.2,7.1,7.1V599.8z"/>
</g>
<rect x="2.8" y="2.8" class="st0" width="708.7" height="708.7"/>
</svg>
