<?xml version="1.0" encoding="utf-8"?>
<!-- Generator: Adobe Illustrator 24.3.0, SVG Export Plug-In . SVG Version: 6.00 Build 0)  -->
<svg version="1.1"
	 id="Ebene_1" inkscape:version="0.92.3 (2405546, 2018-03-11)" sodipodi:docname="Wordclock_v3.svg" xmlns:cc="http://creativecommons.org/ns#" xmlns:dc="http://purl.org/dc/elements/1.1/" xmlns:inkscape="http://www.inkscape.org/namespaces/inkscape" xmlns:rdf="http://www.w3.org/1999/02/22-rdf-syntax-ns#" xmlns:sodipodi="http://sodipodi.sourceforge.net/DTD/sodipodi-0.dtd" xmlns:svg="http://www.w3.org/2000/svg"
	 xmlns="http://www.w3.org/2000/svg" xmlns:xlink="http://www.w3.org/1999/xlink" x="0px" y="0px" viewBox="0 0 2834.6 1700.8"
	 style="enable-background:new 0 0 2834.6 1700.8;" xml:space="preserve">
<style type="text/css">
	.st0{fill:none;stroke:#00FF00;stroke-width:0.3149;stroke-linecap:round;stroke-linejoin:round;stroke-miterlimit:13.3289;}
	.st1{fill:none;stroke:#FF0000;stroke-width:0.3149;stroke-miterlimit:13.3289;}
	.st2{fill:none;stroke:#00FF00;stroke-width:0.3149;stroke-miterlimit:13.3289;}
</style>
<sodipodi:namedview  bordercolor="#666666" borderopacity="1" gridtolerance="10" guidetolerance="10" id="namedview85" inkscape:current-layer="Ebene_1" inkscape:cx="718.32767" inkscape:cy="1142.0333" inkscape:pageopacity="0" inkscape:pageshadow="2" inkscape:window-height="1137" inkscape:window-maximized="1" inkscape:window-width="1920" inkscape:window-x="-8" inkscape:window-y="-8" inkscape:zoom="0.75649604" objecttolerance="10" pagecolor="#ffffff" showgrid="false">
	</sodipodi:namedview>
<g>
	<path id="path8" inkscape:connector-curvature="0" class="st0" d="M95,86.5c0,4.7-3.8,8.5-8.5,8.5H60.9c-4.7,0-8.5-3.8-8.5-8.5V61
		c0-4.7,3.8-8.5,8.5-8.5h25.5c4.7,0,8.5,3.8,8.5,8.5V86.5z"/>
</g>
<g>
	<path id="path10" inkscape:connector-curvature="0" class="st1" d="M97,135.5c0,4.7-3.8,8.5-8.5,8.5H62.9c-4.7,0-8.5-3.8-8.5-8.5
		V110c0-4.7,3.8-8.5,8.5-8.5h25.5c4.7,0,8.5,3.8,8.5,8.5V135.5z"/>
</g>
<g>
	<path id="path12" inkscape:connector-curvature="0" class="st0" d="M661.9,86.5c0,4.7-3.8,8.5-8.5,8.5h-25.5
		c-4.7,0-8.5-3.8-8.5-8.5V61c0-4.7,3.8-8.5,8.5-8.5h25.5c4.7,0,8.5,3.8,8.5,8.5V86.5z"/>
</g>
<g>
	<path id="path14" inkscape:connector-curvature="0" class="st0" d="M95,653.4c0,4.7-3.8,8.5-8.5,8.5H60.9c-4.7,0-8.5-3.8-8.5-8.5
		v-25.5c0-4.7,3.8-8.5,8.5-8.5h25.5c4.7,0,8.5,3.8,8.5,8.5V653.4z"/>
</g>
<g>
	<path id="path16" inkscape:connector-curvature="0" class="st0" d="M661.9,653.4c0,4.7-3.8,8.5-8.5,8.5h-25.5
		c-4.7,0-8.5-3.8-8.5-8.5v-25.5c0-4.7,3.8-8.5,8.5-8.5h25.5c4.7,0,8.5,3.8,8.5,8.5V653.4z"/>
</g>
<g>
	<rect id="rect18" x="626.4" y="108.6" class="st1" width="18.3" height="80.8"/>
</g>
<g>
	<rect id="rect20" x="626.4" y="213.6" class="st1" width="18.3" height="80.8"/>
</g>
<g>
	<rect id="rect22" x="626.4" y="318.6" class="st1" width="18.3" height="80.8"/>
</g>
<g>
	<rect id="rect24" x="626.4" y="423.6" class="st1" width="18.3" height="80.8"/>
</g>
<g>
	<rect id="rect26" x="626.5" y="528.6" class="st1" width="18.3" height="80.8"/>
</g>
<g>
	<rect id="rect28" x="76.5" y="161.1" class="st1" width="18.3" height="80.8"/>
</g>
<g>
	<rect id="rect30" x="76.5" y="266.1" class="st1" width="18.3" height="80.8"/>
</g>
<g>
	<rect id="rect32" x="76.5" y="371.1" class="st1" width="18.3" height="80.8"/>
</g>
<g>
	<rect id="rect34" x="76.5" y="476.1" class="st1" width="18.3" height="80.8"/>
</g>
<g>
	<rect id="rect36" x="98.7" y="631.5" class="st1" width="514.8" height="18.3"/>
</g>
<g>
	<rect id="rect38" x="98.7" y="64.5" class="st1" width="514.8" height="18.3"/>
	<rect id="rect38_1_" x="659.2" y="98.6" class="st1" width="18.3" height="514.8"/>
	<rect id="rect38_2_" x="30.3" y="98.6" class="st1" width="18.3" height="514.8"/>
</g>
<g>
	<polyline id="polyline40" class="st2" points="603.8,609.4 618.4,609.4 618.4,581.1 603.8,581.1 	"/>
</g>
<g>
	<polyline id="polyline42" class="st2" points="114.8,581.1 98.7,581.1 98.7,609.4 114.8,609.4 	"/>
</g>
<g>
	<polyline id="polyline44" class="st2" points="603.8,556.9 618.4,556.9 618.4,528.6 603.8,528.6 	"/>
</g>
<g>
	<polyline id="polyline46" class="st2" points="114.8,528.6 98.7,528.6 98.7,556.9 114.8,556.9 	"/>
</g>
<g>
	<polyline id="polyline48" class="st2" points="603.8,504.4 618.4,504.4 618.4,476.1 603.8,476.1 	"/>
</g>
<g>
	<polyline id="polyline50" class="st2" points="114.8,476.1 98.7,476.1 98.7,504.4 114.8,504.4 	"/>
</g>
<g>
	<polyline id="polyline52" class="st2" points="114.8,423.6 98.7,423.6 98.7,451.9 114.8,451.9 	"/>
</g>
<g>
	<polyline id="polyline54" class="st2" points="603.8,451.9 618.4,451.9 618.4,423.6 603.8,423.6 	"/>
</g>
<g>
	<polyline id="polyline56" class="st2" points="114.8,371.1 98.7,371.1 98.7,399.4 114.8,399.4 	"/>
</g>
<g>
	<polyline id="polyline58" class="st2" points="603.8,399.4 618.4,399.4 618.4,371.1 603.8,371.1 	"/>
</g>
<g>
	<polyline id="polyline60" class="st2" points="114.8,318.6 98.7,318.6 98.7,346.9 114.8,346.9 	"/>
</g>
<g>
	<polyline id="polyline62" class="st2" points="603.8,346.9 618.4,346.9 618.4,318.6 603.8,318.6 	"/>
</g>
<g>
	<polyline id="polyline64" class="st2" points="603.8,294.4 618.4,294.4 618.4,266.1 603.8,266.1 	"/>
</g>
<g>
	<polyline id="polyline66" class="st2" points="114.8,266.1 98.7,266.1 98.7,294.4 114.8,294.4 	"/>
</g>
<g>
	<polyline id="polyline68" class="st2" points="603.8,242 618.4,242 618.4,213.6 603.8,213.6 	"/>
</g>
<g>
	<polyline id="polyline70" class="st2" points="114.8,213.6 98.7,213.6 98.7,242 114.8,242 	"/>
</g>
<g>
	<polyline id="polyline72" class="st2" points="603.8,189.5 618.4,189.5 618.4,161.1 603.8,161.1 	"/>
</g>
<g>
	<polyline id="polyline74" class="st2" points="114.8,161.1 98.7,161.1 98.7,189.5 114.8,189.5 	"/>
</g>
<g>
	<polyline id="polyline76" class="st2" points="603.8,137 618.4,137 618.4,108.6 603.8,108.6 	"/>
</g>
<g>
	<polyline id="polyline78" class="st2" points="114.8,108.6 98.7,108.6 98.7,137 114.8,137 	"/>
</g>
<g>
	<path id="path80" inkscape:connector-curvature="0" class="st1" d="M711.5,654.8c0,31.3-25.4,56.7-56.7,56.7H59.5
		c-31.3,0-56.7-25.4-56.7-56.7V59.5c0-31.3,25.4-56.7,56.7-56.7h595.3c31.3,0,56.7,25.4,56.7,56.7L711.5,654.8L711.5,654.8z"/>
</g>
</svg>
