<?xml version="1.0" encoding="UTF-8" standalone="no"?>
<!-- Generator: Adobe Illustrator 24.3.0, SVG Export Plug-In . SVG Version: 6.00 Build 0)  -->

<svg
   version="1.1"
   id="Schaum"
   inkscape:version="1.2.2 (b0a84865, 2022-12-01)"
   sodipodi:docname="Wordclock_300x300_Floating_Backplane.svg"
   x="0px"
   y="0px"
   viewBox="0 0 2834.6 1700.8"
   style="enable-background:new 0 0 2834.6 1700.8;"
   xml:space="preserve"
   xmlns:inkscape="http://www.inkscape.org/namespaces/inkscape"
   xmlns:sodipodi="http://sodipodi.sourceforge.net/DTD/sodipodi-0.dtd"
   xmlns="http://www.w3.org/2000/svg"
   xmlns:svg="http://www.w3.org/2000/svg"><defs
   id="defs13" />
<style
   type="text/css"
   id="style2">
	.st0{fill:none;stroke:#FF0000;stroke-width:0.378;}
</style>
<sodipodi:namedview
   bordercolor="#666666"
   borderopacity="1"
   gridtolerance="10"
   guidetolerance="10"
   id="namedview19"
   inkscape:current-layer="Schaum"
   inkscape:cx="503.89413"
   inkscape:cy="764.05687"
   inkscape:deskcolor="#d1d1d1"
   inkscape:pagecheckerboard="0"
   inkscape:pageopacity="0"
   inkscape:pageshadow="2"
   inkscape:showpageshadow="2"
   inkscape:window-height="1205"
   inkscape:window-maximized="0"
   inkscape:window-width="1387"
   inkscape:window-x="0"
   inkscape:window-y="25"
   inkscape:zoom="0.5477341"
   objecttolerance="10"
   pagecolor="#ffffff"
   showgrid="false">
	</sodipodi:namedview>
<path
   id="path4"
   inkscape:connector-curvature="0"
   class="st0"
   d="m 504.54488,948.31096 h 368.2355 c 41.71471,0 75.56625,-33.85028 75.56625,-75.5634 V 79.531893 c 0,-41.713123 -33.85154,-75.5633889 -75.56625,-75.5633889 H 79.534746 C 37.820049,3.9685041 3.9685039,37.81877 3.9685039,79.531893 V 872.74756 c 0,41.71312 33.8515451,75.5634 75.5662421,75.5634 H 447.77025"
   style="stroke-width:0.377953;stroke-dasharray:none" />
<path
   id="path6"
   inkscape:connector-curvature="0"
   class="st0"
   d="M 447.90352,326.34564"
   style="stroke-width:0.377953;stroke-dasharray:none" />
<path
   id="path8"
   inkscape:connector-curvature="0"
   class="st0"
   d="M 431.91067,329.14428 H 127.51332 c -8.92935,0 -15.99286,-7.1965 -15.99286,-15.99225 V 148.96491 c 0,-8.929 7.19678,-15.99225 15.99286,-15.99225 h 361.03871 c 8.92934,0 15.99285,7.19651 15.99285,15.99225"
   style="stroke-width:0.377953;stroke-dasharray:none" />
<line
   id="line10"
   class="st0"
   x1="447.9035"
   y1="345.13657"
   x2="447.9035"
   y2="948.57751"
   style="stroke-width:0.377953;stroke-dasharray:none" />
<line
   id="line12"
   class="st0"
   x1="504.54489"
   y1="948.57751"
   x2="504.54489"
   y2="148.96492"
   style="stroke-width:0.377953;stroke-dasharray:none" />
<path
   id="path14"
   inkscape:connector-curvature="0"
   class="st0"
   d="m 447.90352,345.13654 c 0,-8.92901 -7.19678,-15.99226 -15.99285,-15.99226"
   style="stroke-width:0.377953;stroke-dasharray:none" />
<ellipse
   id="circle16"
   class="st0"
   cx="476.15756"
   cy="98.456055"
   rx="11.328272"
   ry="11.327845"
   style="stroke-width:0.377953;stroke-dasharray:none" />
</svg>
