999
dxflib 3.17.0.0
  0
SECTION
  2
HEADER
  9
$ACADVER
  1
AC1015
  9
$HANDSEED
  5
FFFF
  9
$DIMADEC
 70
0
  9
$DIMASZ
 40
0.18
  9
$DIMAUNIT
 70
0
  9
$DIMAZIN
 70
0
  9
$DIMDEC
 70
4
  9
$DIMDLI
 40
0.36
  9
$DIMDSEP
 70
46
  9
$DIMEXE
 40
0.18
  9
$DIMEXO
 40
0.0625
  9
$DIMGAP
 40
0.09
  9
$DIMLUNIT
 70
2
  9
$DIMSCALE
 40
1.0
  9
$DIMTSZ
 40
0.0
  9
$DIMTXT
 40
0.18
  9
$DIMZIN
 70
0
  9
$DWGCODEPAGE
  3
ANSI_1252
  9
$INSUNITS
 70
4
  9
$LTSCALE
 40
1.0
  9
$MAXACTVP
 70
64
  9
$MEASUREMENT
 70
1
  9
$PDMODE
 70
0
  9
$PDSIZE
 40
0.0
  0
ENDSEC
  0
SECTION
  2
TABLES
  0
TABLE
  2
VPORT
  5
8
100
AcDbSymbolTable
 70
1
  0
VPORT
  5
30
100
AcDbSymbolTableRecord
100
AcDbViewportTableRecord
  2
*Active
 70
0
 10
0.0
 20
0.0
 11
1.0
 21
1.0
 12
286.30555555555549
 22
148.5
 13
0.0
 23
0.0
 14
10.0
 24
10.0
 15
10.0
 25
10.0
 16
0.0
 26
0.0
 36
1.0
 17
0.0
 27
0.0
 37
0.0
 40
297.0
 41
1.92798353909465
 42
50.0
 43
0.0
 44
0.0
 50
0.0
 51
0.0
 71
0
 72
100
 73
1
 74
3
 75
1
 76
1
 77
0
 78
0
281
0
 65
1
110
0.0
120
0.0
130
0.0
111
1.0
121
0.0
131
0.0
112
0.0
122
1.0
132
0.0
 79
0
146
0.0
  0
ENDTAB
  0
TABLE
  2
LTYPE
  5
5
100
AcDbSymbolTable
 70
41
  0
LTYPE
  5
16
100
AcDbSymbolTableRecord
100
AcDbLinetypeTableRecord
  2
Continuous
 70
0
  3
Solid line
 72
65
 73
0
 40
0.0
  0
LTYPE
  5
31
100
AcDbSymbolTableRecord
100
AcDbLinetypeTableRecord
  2
CENTER
 70
0
  3
Center ____ _ ____ _ ____ _ ____ _ ____ _ ____
 72
65
 73
4
 40
50.800000000000004
 49
31.75
 74
0
 49
-6.3499999999999996
 74
0
 49
6.3499999999999996
 74
0
 49
-6.3499999999999996
 74
0
  0
LTYPE
  5
32
100
AcDbSymbolTableRecord
100
AcDbLinetypeTableRecord
  2
ACAD_ISO11W100
 70
0
  3
ISO double-dash dot __ __ . __ __ . __ __ . __ _
 72
65
 73
6
 40
33.0
 49
12.0
 74
0
 49
-3.0
 74
0
 49
12.0
 74
0
 49
-2.9500000000000002
 74
0
 49
0.1
 74
0
 49
-2.9500000000000002
 74
0
  0
LTYPE
  5
33
100
AcDbSymbolTableRecord
100
AcDbLinetypeTableRecord
  2
ACAD_ISO07W100
 70
0
  3
ISO dot . . . . . . . . . . . . . . . . . . . . 
 72
65
 73
2
 40
3.0
 49
0.1
 74
0
 49
-2.8999999999999999
 74
0
  0
LTYPE
  5
34
100
AcDbSymbolTableRecord
100
AcDbLinetypeTableRecord
  2
BORDERX2
 70
0
  3
Border (2x) ____  ____  .  ____  ____  .  ___
 72
65
 73
6
 40
88.899999999999977
 49
25.399999999999999
 74
0
 49
-12.699999999999999
 74
0
 49
25.399999999999999
 74
0
 49
-12.649999999999999
 74
0
 49
0.1
 74
0
 49
-12.649999999999999
 74
0
  0
LTYPE
  5
35
100
AcDbSymbolTableRecord
100
AcDbLinetypeTableRecord
  2
DASHDOT
 70
0
  3
Dash dot __ . __ . __ . __ . __ . __ . __ . __
 72
65
 73
4
 40
25.400000000000002
 49
12.699999999999999
 74
0
 49
-6.2999999999999998
 74
0
 49
0.1
 74
0
 49
-6.2999999999999998
 74
0
  0
LTYPE
  5
36
100
AcDbSymbolTableRecord
100
AcDbLinetypeTableRecord
  2
ACAD_ISO13W100
 70
0
  3
ISO double-dash double-dot __ __ . . __ __ . . _
 72
65
 73
8
 40
36.000000000000007
 49
12.0
 74
0
 49
-3.0
 74
0
 49
12.0
 74
0
 49
-2.9500000000000002
 74
0
 49
0.1
 74
0
 49
-2.9000000000000004
 74
0
 49
0.1
 74
0
 49
-2.9500000000000002
 74
0
  0
LTYPE
  5
37
100
AcDbSymbolTableRecord
100
AcDbLinetypeTableRecord
  2
DOT2
 70
0
  3
Dot (.5x) ........................................
 72
65
 73
2
 40
3.1749999999999998
 49
0.1
 74
0
 49
-3.0749999999999997
 74
0
  0
LTYPE
  5
38
100
AcDbSymbolTableRecord
100
AcDbLinetypeTableRecord
  2
DOT
 70
0
  3
Dot . . . . . . . . . . . . . . . . . . . . . . . .
 72
65
 73
2
 40
6.3499999999999996
 49
0.1
 74
0
 49
-6.25
 74
0
  0
LTYPE
  5
39
100
AcDbSymbolTableRecord
100
AcDbLinetypeTableRecord
  2
HIDDEN
 70
0
  3
Hidden __ __ __ __ __ __ __ __ __ __ __ __ __ __
 72
65
 73
2
 40
9.5249999999999986
 49
6.3499999999999996
 74
0
 49
-3.1749999999999998
 74
0
  0
LTYPE
  5
3A
100
AcDbSymbolTableRecord
100
AcDbLinetypeTableRecord
  2
BORDER
 70
0
  3
Border __ __ . __ __ . __ __ . __ __ . __ __ .
 72
65
 73
6
 40
44.449999999999996
 49
12.699999999999999
 74
0
 49
-6.3499999999999996
 74
0
 49
12.699999999999999
 74
0
 49
-6.2999999999999998
 74
0
 49
0.1
 74
0
 49
-6.2999999999999998
 74
0
  0
LTYPE
  5
3B
100
AcDbSymbolTableRecord
100
AcDbLinetypeTableRecord
  2
PHANTOM2
 70
0
  3
Phantom (.5x) ___ _ _ ___ _ _ ___ _ _ ___ _ _
 72
65
 73
6
 40
31.750000000000004
 49
15.875
 74
0
 49
-3.1749999999999998
 74
0
 49
3.1749999999999998
 74
0
 49
-3.1749999999999998
 74
0
 49
3.1749999999999998
 74
0
 49
-3.1749999999999998
 74
0
  0
LTYPE
  5
3C
100
AcDbSymbolTableRecord
100
AcDbLinetypeTableRecord
  2
ACAD_ISO12W100
 70
0
  3
ISO dash double-dot __ . . __ . . __ . . __ . . 
 72
65
 73
6
 40
21.0
 49
12.0
 74
0
 49
-2.9500000000000002
 74
0
 49
0.1
 74
0
 49
-2.9000000000000004
 74
0
 49
0.1
 74
0
 49
-2.9500000000000002
 74
0
  0
LTYPE
  5
3D
100
AcDbSymbolTableRecord
100
AcDbLinetypeTableRecord
  2
BORDER2
 70
0
  3
Border (.5x) __.__.__.__.__.__.__.__.__.__.__.
 72
65
 73
6
 40
22.225000000000001
 49
6.3499999999999996
 74
0
 49
-3.1749999999999998
 74
0
 49
6.3499999999999996
 74
0
 49
-3.125
 74
0
 49
0.1
 74
0
 49
-3.125
 74
0
  0
LTYPE
  5
3E
100
AcDbSymbolTableRecord
100
AcDbLinetypeTableRecord
  2
ACAD_ISO08W100
 70
0
  3
ISO long-dash short-dash ____ __ ____ __ ____ _
 72
65
 73
4
 40
36.0
 49
24.0
 74
0
 49
-3.0
 74
0
 49
6.0
 74
0
 49
-3.0
 74
0
  0
LTYPE
  5
3F
100
AcDbSymbolTableRecord
100
AcDbLinetypeTableRecord
  2
DOTX2
 70
0
  3
Dot (2x) .  .  .  .  .  .  .  .  .  .  .  .  .  .
 72
65
 73
2
 40
12.699999999999999
 49
0.1
 74
0
 49
-12.6
 74
0
  0
LTYPE
  5
40
100
AcDbSymbolTableRecord
100
AcDbLinetypeTableRecord
  2
DASHED2
 70
0
  3
Dashed (.5x) _ _ _ _ _ _ _ _ _ _ _ _ _ _ _ _ _ 
 72
65
 73
2
 40
9.5249999999999986
 49
6.3499999999999996
 74
0
 49
-3.1749999999999998
 74
0
  0
LTYPE
  5
41
100
AcDbSymbolTableRecord
100
AcDbLinetypeTableRecord
  2
DASHEDX2
 70
0
  3
Dashed (2x) ____  ____  ____  ____  ____  ___
 72
65
 73
2
 40
38.099999999999994
 49
25.399999999999999
 74
0
 49
-12.699999999999999
 74
0
  0
LTYPE
  5
42
100
AcDbSymbolTableRecord
100
AcDbLinetypeTableRecord
  2
DASHED
 70
0
  3
Dashed __ __ __ __ __ __ __ __ __ __ __ __ __ _
 72
65
 73
2
 40
19.049999999999997
 49
12.699999999999999
 74
0
 49
-6.3499999999999996
 74
0
  0
LTYPE
  5
43
100
AcDbSymbolTableRecord
100
AcDbLinetypeTableRecord
  2
DASHDOTX2
 70
0
  3
Dash dot (2x) ____  .  ____  .  ____  .  ___
 72
65
 73
4
 40
50.799999999999997
 49
25.399999999999999
 74
0
 49
-12.649999999999999
 74
0
 49
0.1
 74
0
 49
-12.649999999999999
 74
0
  0
LTYPE
  5
44
100
AcDbSymbolTableRecord
100
AcDbLinetypeTableRecord
  2
ACAD_ISO03W100
 70
0
  3
ISO dash space __    __    __    __    __    __
 72
65
 73
2
 40
30.0
 49
12.0
 74
0
 49
-18.0
 74
0
  0
LTYPE
  5
45
100
AcDbSymbolTableRecord
100
AcDbLinetypeTableRecord
  2
DIVIDE
 70
0
  3
Divide ____ . . ____ . . ____ . . ____ . . ____
 72
65
 73
6
 40
31.750000000000004
 49
12.699999999999999
 74
0
 49
-6.2999999999999998
 74
0
 49
0.1
 74
0
 49
-6.25
 74
0
 49
0.1
 74
0
 49
-6.2999999999999998
 74
0
  0
LTYPE
  5
46
100
AcDbSymbolTableRecord
100
AcDbLinetypeTableRecord
  2
ACAD_ISO14W100
 70
0
  3
ISO dash triple-dot __ . . . __ . . . __ . . . _
 72
65
 73
8
 40
24.000000000000004
 49
12.0
 74
0
 49
-2.9500000000000002
 74
0
 49
0.1
 74
0
 49
-2.9000000000000004
 74
0
 49
0.1
 74
0
 49
-2.9000000000000004
 74
0
 49
0.1
 74
0
 49
-2.9500000000000002
 74
0
  0
LTYPE
  5
47
100
AcDbSymbolTableRecord
100
AcDbLinetypeTableRecord
  2
PHANTOM
 70
0
  3
Phantom ______  __  __  ______  __  __  ______ 
 72
65
 73
6
 40
63.500000000000007
 49
31.75
 74
0
 49
-6.3499999999999996
 74
0
 49
6.3499999999999996
 74
0
 49
-6.3499999999999996
 74
0
 49
6.3499999999999996
 74
0
 49
-6.3499999999999996
 74
0
  0
LTYPE
  5
15
100
AcDbSymbolTableRecord
100
AcDbLinetypeTableRecord
  2
BYLAYER
 70
0
  3

 72
65
 73
0
 40
0.0
  0
LTYPE
  5
48
100
AcDbSymbolTableRecord
100
AcDbLinetypeTableRecord
  2
ACAD_ISO02W100
 70
0
  3
ISO dash __ __ __ __ __ __ __ __ __ __ __ __ __
 72
65
 73
2
 40
15.0
 49
12.0
 74
0
 49
-3.0
 74
0
  0
LTYPE
  5
49
100
AcDbSymbolTableRecord
100
AcDbLinetypeTableRecord
  2
PHANTOMX2
 70
0
  3
Phantom (2x) ____________    ____    ____   _
 72
65
 73
6
 40
127.00000000000001
 49
63.5
 74
0
 49
-12.699999999999999
 74
0
 49
12.699999999999999
 74
0
 49
-12.699999999999999
 74
0
 49
12.699999999999999
 74
0
 49
-12.699999999999999
 74
0
  0
LTYPE
  5
4A
100
AcDbSymbolTableRecord
100
AcDbLinetypeTableRecord
  2
ACAD_ISO09W100
 70
0
  3
ISO long-dash double-short-dash ____ __ __ ____
 72
65
 73
6
 40
45.0
 49
24.0
 74
0
 49
-3.0
 74
0
 49
6.0
 74
0
 49
-3.0
 74
0
 49
6.0
 74
0
 49
-3.0
 74
0
  0
LTYPE
  5
4B
100
AcDbSymbolTableRecord
100
AcDbLinetypeTableRecord
  2
DIVIDEX2
 70
0
  3
Divide (2x) ________  .  .  ________  .  .  _
 72
65
 73
6
 40
63.5
 49
25.399999999999999
 74
0
 49
-12.649999999999999
 74
0
 49
0.1
 74
0
 49
-12.599999999999998
 74
0
 49
0.1
 74
0
 49
-12.649999999999999
 74
0
  0
LTYPE
  5
14
100
AcDbSymbolTableRecord
100
AcDbLinetypeTableRecord
  2
BYBLOCK
 70
0
  3

 72
65
 73
0
 40
0.0
  0
LTYPE
  5
4C
100
AcDbSymbolTableRecord
100
AcDbLinetypeTableRecord
  2
ACAD_ISO06W100
 70
0
  3
ISO long-dash triple-dot ____ ... ____ ... ____
 72
65
 73
8
 40
36.000000000000007
 49
24.0
 74
0
 49
-2.9500000000000002
 74
0
 49
0.1
 74
0
 49
-2.9000000000000004
 74
0
 49
0.1
 74
0
 49
-2.9000000000000004
 74
0
 49
0.1
 74
0
 49
-2.9500000000000002
 74
0
  0
LTYPE
  5
4D
100
AcDbSymbolTableRecord
100
AcDbLinetypeTableRecord
  2
DIVIDE2
 70
0
  3
Divide (.5x) __..__..__..__..__..__..__..__.._
 72
65
 73
6
 40
15.874999999999998
 49
6.3499999999999996
 74
0
 49
-3.125
 74
0
 49
0.1
 74
0
 49
-3.0750000000000002
 74
0
 49
0.1
 74
0
 49
-3.125
 74
0
  0
LTYPE
  5
4E
100
AcDbSymbolTableRecord
100
AcDbLinetypeTableRecord
  2
CENTER2
 70
0
  3
Center (.5x) ___ _ ___ _ ___ _ ___ _ ___ _ ___
 72
65
 73
4
 40
28.575000000000003
 49
19.050000000000001
 74
0
 49
-3.1749999999999998
 74
0
 49
3.1749999999999998
 74
0
 49
-3.1749999999999998
 74
0
  0
LTYPE
  5
4F
100
AcDbSymbolTableRecord
100
AcDbLinetypeTableRecord
  2
ACAD_ISO04W100
 70
0
  3
ISO long-dash dot ____ . ____ . ____ . ____ . _
 72
65
 73
4
 40
30.0
 49
24.0
 74
0
 49
-2.9500000000000002
 74
0
 49
0.1
 74
0
 49
-2.9500000000000002
 74
0
  0
LTYPE
  5
50
100
AcDbSymbolTableRecord
100
AcDbLinetypeTableRecord
  2
HIDDEN2
 70
0
  3
Hidden (.5x) _ _ _ _ _ _ _ _ _ _ _ _ _ _ _ _ _ 
 72
65
 73
2
 40
4.7624999999999993
 49
3.1749999999999998
 74
0
 49
-1.5874999999999999
 74
0
  0
LTYPE
  5
51
100
AcDbSymbolTableRecord
100
AcDbLinetypeTableRecord
  2
ACAD_ISO05W100
 70
0
  3
ISO long-dash double-dot ____ .. ____ .. ____ . 
 72
65
 73
6
 40
33.000000000000007
 49
24.0
 74
0
 49
-2.9500000000000002
 74
0
 49
0.1
 74
0
 49
-2.9000000000000004
 74
0
 49
0.1
 74
0
 49
-2.9500000000000002
 74
0
  0
LTYPE
  5
52
100
AcDbSymbolTableRecord
100
AcDbLinetypeTableRecord
  2
ACAD_ISO15W100
 70
0
  3
ISO double-dash triple-dot __ __ . . . __ __ . .
 72
65
 73
10
 40
39.000000000000007
 49
12.0
 74
0
 49
-3.0
 74
0
 49
12.0
 74
0
 49
-2.9500000000000002
 74
0
 49
0.1
 74
0
 49
-2.9000000000000004
 74
0
 49
0.1
 74
0
 49
-2.9000000000000004
 74
0
 49
0.1
 74
0
 49
-2.9500000000000002
 74
0
  0
LTYPE
  5
53
100
AcDbSymbolTableRecord
100
AcDbLinetypeTableRecord
  2
CENTERX2
 70
0
  3
Center (2x) ________  __  ________  __  _____
 72
65
 73
4
 40
101.60000000000001
 49
63.5
 74
0
 49
-12.699999999999999
 74
0
 49
12.699999999999999
 74
0
 49
-12.699999999999999
 74
0
  0
LTYPE
  5
54
100
AcDbSymbolTableRecord
100
AcDbLinetypeTableRecord
  2
HIDDENX2
 70
0
  3
Hidden (2x) ____ ____ ____ ____ ____ ____ ____ 
 72
65
 73
2
 40
19.049999999999997
 49
12.699999999999999
 74
0
 49
-6.3499999999999996
 74
0
  0
LTYPE
  5
55
100
AcDbSymbolTableRecord
100
AcDbLinetypeTableRecord
  2
ACAD_ISO10W100
 70
0
  3
ISO dash dot __ . __ . __ . __ . __ . __ . __ . 
 72
65
 73
4
 40
18.0
 49
12.0
 74
0
 49
-2.9500000000000002
 74
0
 49
0.1
 74
0
 49
-2.9500000000000002
 74
0
  0
LTYPE
  5
56
100
AcDbSymbolTableRecord
100
AcDbLinetypeTableRecord
  2
DASHDOT2
 70
0
  3
Dash dot (.5x) _._._._._._._._._._._._._._._.
 72
65
 73
4
 40
12.699999999999999
 49
6.3499999999999996
 74
0
 49
-3.125
 74
0
 49
0.1
 74
0
 49
-3.125
 74
0
  0
ENDTAB
  0
TABLE
  2
LAYER
  5
2
100
AcDbSymbolTable
 70
1
  0
LAYER
  5
10
100
AcDbSymbolTableRecord
100
AcDbLayerTableRecord
  2
0
 70
0
 62
7
420
16777215
  6
Continuous
370
5
390
F
  0
ENDTAB
  0
TABLE
  2
STYLE
  5
3
100
AcDbSymbolTable
 70
1
  0
STYLE
  5
57
100
AcDbSymbolTableRecord
100
AcDbTextStyleTableRecord
  2
Standard
 70
0
 40
0.0
 41
1.0
 50
0.0
 71
0
 42
2.5
  3

  4

1001
ACAD
1000
txt
1071
0
  0
ENDTAB
  0
TABLE
  2
VIEW
  5
6
100
AcDbSymbolTable
 70
0
  0
ENDTAB
  0
TABLE
  2
UCS
  5
7
100
AcDbSymbolTable
 70
0
  0
ENDTAB
  0
TABLE
  2
APPID
  5
9
100
AcDbSymbolTable
 70
1
  0
APPID
  5
12
100
AcDbSymbolTableRecord
100
AcDbRegAppTableRecord
  2
ACAD
 70
0
  0
APPID
  5
58
100
AcDbSymbolTableRecord
100
AcDbRegAppTableRecord
  2
QCAD
 70
0
  0
ENDTAB
  0
TABLE
  2
DIMSTYLE
  5
A
100
AcDbSymbolTable
 70
1
100
AcDbDimStyleTable
 71
0
  0
DIMSTYLE
105
27
100
AcDbSymbolTableRecord
100
AcDbDimStyleTableRecord
  2
Standard
 41
0.18
 42
0.0625
 43
3.75
 44
0.18
 70
0
 73
0
 74
0
 77
1
 78
8
140
0.18
141
2.5
143
0.03937007874016
147
0.09
171
3
172
1
271
2
272
2
274
3
278
44
283
0
284
8
340
57
  0
ENDTAB
  0
TABLE
  2
BLOCK_RECORD
  5
1
100
AcDbSymbolTable
 70
1
  0
BLOCK_RECORD
  5
1F
100
AcDbSymbolTableRecord
100
AcDbBlockTableRecord
  2
*Model_Space
340
22
  0
BLOCK_RECORD
  5
1B
100
AcDbSymbolTableRecord
100
AcDbBlockTableRecord
  2
*Paper_Space
340
1E
  0
BLOCK_RECORD
  5
23
100
AcDbSymbolTableRecord
100
AcDbBlockTableRecord
  2
*Paper_Space0
340
26
  0
ENDTAB
  0
ENDSEC
  0
SECTION
  2
BLOCKS
  0
BLOCK
  5
20
100
AcDbEntity
  8
0
100
AcDbBlockBegin
  2
*Model_Space
 70
0
 10
0.0
 20
0.0
 30
0.0
  3
*Model_Space
  1

  0
ENDBLK
  5
21
100
AcDbEntity
  8
0
100
AcDbBlockEnd
  0
BLOCK
  5
1C
100
AcDbEntity
 67
1
  8
0
100
AcDbBlockBegin
  2
*Paper_Space
 70
0
 10
0.0
 20
0.0
 30
0.0
  3
*Paper_Space
  1

  0
ENDBLK
  5
1D
100
AcDbEntity
 67
1
  8
0
100
AcDbBlockEnd
  0
BLOCK
  5
24
100
AcDbEntity
  8
0
100
AcDbBlockBegin
  2
*Paper_Space0
 70
0
 10
0.0
 20
0.0
 30
0.0
  3
*Paper_Space0
  1

  0
ENDBLK
  5
25
100
AcDbEntity
  8
0
100
AcDbBlockEnd
  0
ENDSEC
  0
SECTION
  2
ENTITIES
  0
LWPOLYLINE
  5
59
100
AcDbEntity
  8
0
 62
256
370
-1
 48
1.0
  6
BYLAYER
100
AcDbPolyline
 90
4
 70
1
 10
0.0
 20
0.0
 10
500.0
 20
0.0
 10
500.0
 20
500.0
 10
0.0
 20
500.0
  0
CIRCLE
  5
5A
100
AcDbEntity
  8
0
 62
256
370
-1
 48
1.0
  6
BYLAYER
100
AcDbCircle
 10
450.0
 20
15.0
 30
0.0
 40
2.5
  0
CIRCLE
  5
5B
100
AcDbEntity
  8
0
 62
256
370
-1
 48
1.0
  6
BYLAYER
100
AcDbCircle
 10
450.0
 20
485.0
 30
0.0
 40
2.5
  0
CIRCLE
  5
5C
100
AcDbEntity
  8
0
 62
256
370
-1
 48
1.0
  6
BYLAYER
100
AcDbCircle
 10
50.0
 20
485.0
 30
0.0
 40
2.5
  0
LWPOLYLINE
  5
5D
100
AcDbEntity
  8
0
 62
256
370
-1
 48
1.0
  6
BYLAYER
100
AcDbPolyline
 90
4
 70
1
 10
400.0
 20
65.0
 10
400.0
 20
10.0
 10
180.0
 20
10.0
 10
180.0
 20
65.0
  0
LWPOLYLINE
  5
5E
100
AcDbEntity
  8
0
 62
256
370
-1
 48
1.0
  6
BYLAYER
100
AcDbPolyline
 90
8
 70
1
 10
312.35000000000002
 20
264.0
 10
314.95000000000005
 20
264.0
 42
0.414213562373095
 10
317.15000000000003
 20
266.19999999999999
 10
317.15000000000003
 20
268.80000000000001
 42
0.414213562373095
 10
314.95000000000005
 20
271.0
 10
312.35000000000002
 20
271.0
 42
0.414213562373095
 10
310.15000000000003
 20
268.80000000000001
 10
310.15000000000003
 20
266.19999999999999
 42
0.414213562373095
  0
LWPOLYLINE
  5
5F
100
AcDbEntity
  8
0
 62
256
370
-1
 48
1.0
  6
BYLAYER
100
AcDbPolyline
 90
8
 70
1
 10
89.610000000000014
 20
404.00000000000006
 10
92.210000000000022
 20
404.00000000000006
 42
0.414213562373095
 10
94.999999999999986
 20
406.19999999999999
 10
94.999999999999986
 20
408.79999999999995
 42
0.414213562373095
 10
92.210000000000022
 20
411.0
 10
89.610000000000014
 20
411.0
 42
0.414213562373095
 10
86.799999999999997
 20
408.79999999999995
 10
86.799999999999997
 20
406.19999999999999
 42
0.414213562373095
  0
LWPOLYLINE
  5
60
100
AcDbEntity
  8
0
 62
256
370
-1
 48
1.0
  6
BYLAYER
100
AcDbPolyline
 90
8
 70
1
 10
121.44848267253019
 20
404.0
 10
124.0484826725302
 20
404.01418905877478
 42
0.414213562373095
 10
126.83848267253016
 20
406.21418905877471
 10
126.83848267253016
 20
408.81418905877467
 42
0.414213562373095
 10
124.0484826725302
 20
411.01418905877472
 10
121.44848267253019
 20
411.01418905877472
 42
0.414213562373095
 10
118.63848267253017
 20
408.81418905877467
 10
118.63848267253017
 20
406.21418905877471
 42
0.414213562373095
  0
LWPOLYLINE
  5
61
100
AcDbEntity
  8
0
 62
256
370
-1
 48
1.0
  6
BYLAYER
100
AcDbPolyline
 90
8
 70
1
 10
153.31
 20
404.03411724036437
 10
155.91000000000003
 20
404.00000000000006
 42
0.414213562373095
 10
158.69999999999999
 20
406.19999999999999
 10
158.69999999999999
 20
408.79999999999995
 42
0.414213562373095
 10
155.91000000000003
 20
411.0
 10
153.31
 20
411.0
 42
0.414213562373095
 10
150.5
 20
408.79999999999995
 10
150.5
 20
406.19999999999999
 42
0.414213562373095
  0
LWPOLYLINE
  5
62
100
AcDbEntity
  8
0
 62
256
370
-1
 48
1.0
  6
BYLAYER
100
AcDbPolyline
 90
8
 70
1
 10
185.06
 20
403.99290547061264
 10
187.66000000000003
 20
403.99290547061264
 42
0.414213562373095
 10
190.44999999999999
 20
406.19290547061257
 10
190.44999999999999
 20
408.79290547061254
 42
0.414213562373095
 10
187.66000000000003
 20
410.99290547061258
 10
185.06
 20
410.99290547061258
 42
0.414213562373095
 10
182.25
 20
408.79290547061254
 10
182.25
 20
406.19290547061257
 42
0.414213562373095
  0
LWPOLYLINE
  5
63
100
AcDbEntity
  8
0
 62
256
370
-1
 48
1.0
  6
BYLAYER
100
AcDbPolyline
 90
8
 70
1
 10
216.89848267253018
 20
403.99290547061258
 10
219.4984826725302
 20
404.00709452938736
 42
0.414213562373095
 10
222.28848267253017
 20
406.20709452938729
 10
222.28848267253017
 20
408.80709452938726
 42
0.414213562373095
 10
219.4984826725302
 20
411.0070945293873
 10
216.89848267253018
 20
411.0070945293873
 42
0.414213562373095
 10
214.08848267253018
 20
408.80709452938726
 10
214.08848267253018
 20
406.20709452938729
 42
0.414213562373095
  0
LWPOLYLINE
  5
64
100
AcDbEntity
  8
0
 62
256
370
-1
 48
1.0
  6
BYLAYER
100
AcDbPolyline
 90
8
 70
1
 10
248.75999999999999
 20
404.02702271097695
 10
251.36000000000001
 20
403.99290547061264
 42
0.414213562373095
 10
254.14999999999998
 20
406.19290547061257
 10
254.14999999999998
 20
408.79290547061254
 42
0.414213562373095
 10
251.36000000000001
 20
410.99290547061258
 10
248.75999999999999
 20
410.99290547061258
 42
0.414213562373095
 10
245.94999999999999
 20
408.79290547061254
 10
245.94999999999999
 20
406.19290547061257
 42
0.414213562373095
  0
LWPOLYLINE
  5
65
100
AcDbEntity
  8
0
 62
256
370
-1
 48
1.0
  6
BYLAYER
100
AcDbPolyline
 90
8
 70
1
 10
280.56575866373487
 20
403.99645273530632
 10
283.16575866373489
 20
403.99645273530632
 42
0.414213562373095
 10
285.95575866373485
 20
406.19645273530625
 10
285.95575866373485
 20
408.79645273530622
 42
0.414213562373095
 10
283.16575866373489
 20
410.99645273530626
 10
280.56575866373487
 20
410.99645273530626
 42
0.414213562373095
 10
277.75575866373487
 20
408.79645273530622
 10
277.75575866373487
 20
406.19645273530625
 42
0.414213562373095
  0
LWPOLYLINE
  5
66
100
AcDbEntity
  8
0
 62
256
370
-1
 48
1.0
  6
BYLAYER
100
AcDbPolyline
 90
8
 70
1
 10
312.40424133626504
 20
403.99645273530626
 10
315.00424133626507
 20
404.01064179408104
 42
0.414213562373095
 10
317.79424133626503
 20
406.21064179408097
 10
317.79424133626503
 20
408.81064179408094
 42
0.414213562373095
 10
315.00424133626507
 20
411.01064179408098
 10
312.40424133626504
 20
411.01064179408098
 42
0.414213562373095
 10
309.59424133626504
 20
408.81064179408094
 10
309.59424133626504
 20
406.21064179408097
 42
0.414213562373095
  0
LWPOLYLINE
  5
67
100
AcDbEntity
  8
0
 62
256
370
-1
 48
1.0
  6
BYLAYER
100
AcDbPolyline
 90
8
 70
1
 10
344.26575866373486
 20
404.03056997567063
 10
346.86575866373488
 20
403.99645273530632
 42
0.414213562373095
 10
349.65575866373484
 20
406.19645273530625
 10
349.65575866373484
 20
408.79645273530622
 42
0.414213562373095
 10
346.86575866373488
 20
410.99645273530626
 10
344.26575866373486
 20
410.99645273530626
 42
0.414213562373095
 10
341.45575866373485
 20
408.79645273530622
 10
341.45575866373485
 20
406.19645273530625
 42
0.414213562373095
  0
LWPOLYLINE
  5
68
100
AcDbEntity
  8
0
 62
256
370
-1
 48
1.0
  6
BYLAYER
100
AcDbPolyline
 90
8
 70
1
 10
376.01575866373486
 20
403.9893582059189
 10
378.61575866373488
 20
403.9893582059189
 42
0.414213562373095
 10
381.40575866373484
 20
406.18935820591884
 10
381.40575866373484
 20
408.7893582059188
 42
0.414213562373095
 10
378.61575866373488
 20
410.98935820591885
 10
376.01575866373486
 20
410.98935820591885
 42
0.414213562373095
 10
373.20575866373485
 20
408.7893582059188
 10
373.20575866373485
 20
406.18935820591884
 42
0.414213562373095
  0
LWPOLYLINE
  5
69
100
AcDbEntity
  8
0
 62
256
370
-1
 48
1.0
  6
BYLAYER
100
AcDbPolyline
 90
8
 70
1
 10
407.85424133626503
 20
403.98935820591885
 10
410.45424133626506
 20
404.00354726469362
 42
0.414213562373095
 10
413.24424133626502
 20
406.20354726469355
 10
413.24424133626502
 20
408.80354726469352
 42
0.414213562373095
 10
410.45424133626506
 20
411.00354726469357
 10
407.85424133626503
 20
411.00354726469357
 42
0.414213562373095
 10
405.04424133626503
 20
408.80354726469352
 10
405.04424133626503
 20
406.20354726469355
 42
0.414213562373095
  0
LWPOLYLINE
  5
6A
100
AcDbEntity
  8
0
 62
256
370
-1
 48
1.0
  6
BYLAYER
100
AcDbPolyline
 90
8
 70
1
 10
89.58787933186747
 20
368.99822636765316
 10
92.187879331867492
 20
368.99822636765316
 42
0.414213562373095
 10
94.977879331867456
 20
371.19822636765309
 10
94.977879331867456
 20
373.79822636765306
 42
0.414213562373095
 10
92.187879331867492
 20
375.9982263676531
 10
89.58787933186747
 20
375.9982263676531
 42
0.414213562373095
 10
86.777879331867467
 20
373.79822636765306
 10
86.777879331867467
 20
371.19822636765309
 42
0.414213562373095
  0
LWPOLYLINE
  5
6B
100
AcDbEntity
  8
0
 62
256
370
-1
 48
1.0
  6
BYLAYER
100
AcDbPolyline
 90
8
 70
1
 10
121.42636200439765
 20
368.9982263676531
 10
124.02636200439765
 20
369.01241542642788
 42
0.414213562373095
 10
126.81636200439762
 20
371.21241542642781
 10
126.81636200439762
 20
373.81241542642778
 42
0.414213562373095
 10
124.02636200439765
 20
376.01241542642782
 10
121.42636200439765
 20
376.01241542642782
 42
0.414213562373095
 10
118.61636200439764
 20
373.81241542642778
 10
118.61636200439764
 20
371.21241542642781
 42
0.414213562373095
  0
LWPOLYLINE
  5
6C
100
AcDbEntity
  8
0
 62
256
370
-1
 48
1.0
  6
BYLAYER
100
AcDbPolyline
 90
8
 70
1
 10
153.28787933186746
 20
369.03234360801747
 10
155.88787933186748
 20
368.99822636765316
 42
0.414213562373095
 10
158.67787933186744
 20
371.19822636765309
 10
158.67787933186744
 20
373.79822636765306
 42
0.414213562373095
 10
155.88787933186748
 20
375.9982263676531
 10
153.28787933186746
 20
375.9982263676531
 42
0.414213562373095
 10
150.47787933186746
 20
373.79822636765306
 10
150.47787933186746
 20
371.19822636765309
 42
0.414213562373095
  0
LWPOLYLINE
  5
6D
100
AcDbEntity
  8
0
 62
256
370
-1
 48
1.0
  6
BYLAYER
100
AcDbPolyline
 90
8
 70
1
 10
185.03787933186746
 20
368.99113183826574
 10
187.63787933186748
 20
368.99113183826574
 42
0.414213562373095
 10
190.42787933186744
 20
371.19113183826568
 10
190.42787933186744
 20
373.79113183826564
 42
0.414213562373095
 10
187.63787933186748
 20
375.99113183826569
 10
185.03787933186746
 20
375.99113183826569
 42
0.414213562373095
 10
182.22787933186746
 20
373.79113183826564
 10
182.22787933186746
 20
371.19113183826568
 42
0.414213562373095
  0
LWPOLYLINE
  5
6E
100
AcDbEntity
  8
0
 62
256
370
-1
 48
1.0
  6
BYLAYER
100
AcDbPolyline
 90
8
 70
1
 10
216.87636200439763
 20
368.99113183826569
 10
219.47636200439766
 20
369.00532089704046
 42
0.414213562373095
 10
222.26636200439762
 20
371.20532089704039
 10
222.26636200439762
 20
373.80532089704036
 42
0.414213562373095
 10
219.47636200439766
 20
376.00532089704041
 10
216.87636200439763
 20
376.00532089704041
 42
0.414213562373095
 10
214.06636200439763
 20
373.80532089704036
 10
214.06636200439763
 20
371.20532089704039
 42
0.414213562373095
  0
LWPOLYLINE
  5
6F
100
AcDbEntity
  8
0
 62
256
370
-1
 48
1.0
  6
BYLAYER
100
AcDbPolyline
 90
8
 70
1
 10
248.73787933186745
 20
369.02524907863005
 10
251.33787933186747
 20
368.99113183826574
 42
0.414213562373095
 10
254.12787933186743
 20
371.19113183826568
 10
254.12787933186743
 20
373.79113183826564
 42
0.414213562373095
 10
251.33787933186747
 20
375.99113183826569
 10
248.73787933186745
 20
375.99113183826569
 42
0.414213562373095
 10
245.92787933186744
 20
373.79113183826564
 10
245.92787933186744
 20
371.19113183826568
 42
0.414213562373095
  0
LWPOLYLINE
  5
70
100
AcDbEntity
  8
0
 62
256
370
-1
 48
1.0
  6
BYLAYER
100
AcDbPolyline
 90
8
 70
1
 10
280.54363799560235
 20
368.99467910295942
 10
283.14363799560238
 20
368.99467910295942
 42
0.414213562373095
 10
285.93363799560234
 20
371.19467910295936
 10
285.93363799560234
 20
373.79467910295932
 42
0.414213562373095
 10
283.14363799560238
 20
375.99467910295937
 10
280.54363799560235
 20
375.99467910295937
 42
0.414213562373095
 10
277.73363799560229
 20
373.79467910295932
 10
277.73363799560229
 20
371.19467910295936
 42
0.414213562373095
  0
LWPOLYLINE
  5
71
100
AcDbEntity
  8
0
 62
256
370
-1
 48
1.0
  6
BYLAYER
100
AcDbPolyline
 90
8
 70
1
 10
312.38212066813253
 20
368.99467910295937
 10
314.98212066813255
 20
369.00886816173414
 42
0.414213562373095
 10
317.77212066813252
 20
371.20886816173407
 10
317.77212066813252
 20
373.80886816173404
 42
0.414213562373095
 10
314.98212066813255
 20
376.00886816173409
 10
312.38212066813253
 20
376.00886816173409
 42
0.414213562373095
 10
309.57212066813247
 20
373.80886816173404
 10
309.57212066813247
 20
371.20886816173407
 42
0.414213562373095
  0
LWPOLYLINE
  5
72
100
AcDbEntity
  8
0
 62
256
370
-1
 48
1.0
  6
BYLAYER
100
AcDbPolyline
 90
8
 70
1
 10
344.24363799560228
 20
369.02879634332373
 10
346.84363799560231
 20
368.99467910295942
 42
0.414213562373095
 10
349.63363799560227
 20
371.19467910295936
 10
349.63363799560227
 20
373.79467910295932
 42
0.414213562373095
 10
346.84363799560231
 20
375.99467910295937
 10
344.24363799560228
 20
375.99467910295937
 42
0.414213562373095
 10
341.43363799560234
 20
373.79467910295932
 10
341.43363799560234
 20
371.19467910295936
 42
0.414213562373095
  0
LWPOLYLINE
  5
73
100
AcDbEntity
  8
0
 62
256
370
-1
 48
1.0
  6
BYLAYER
100
AcDbPolyline
 90
8
 70
1
 10
375.99363799560228
 20
368.98758457357201
 10
378.59363799560231
 20
368.98758457357201
 42
0.414213562373095
 10
381.38363799560227
 20
371.18758457357194
 10
381.38363799560227
 20
373.78758457357191
 42
0.414213562373095
 10
378.59363799560231
 20
375.98758457357195
 10
375.99363799560228
 20
375.98758457357195
 42
0.414213562373095
 10
373.18363799560234
 20
373.78758457357191
 10
373.18363799560234
 20
371.18758457357194
 42
0.414213562373095
  0
LWPOLYLINE
  5
74
100
AcDbEntity
  8
0
 62
256
370
-1
 48
1.0
  6
BYLAYER
100
AcDbPolyline
 90
8
 70
1
 10
407.83212066813246
 20
368.98758457357195
 10
410.43212066813248
 20
369.00177363234673
 42
0.414213562373095
 10
413.22212066813245
 20
371.20177363234666
 10
413.22212066813245
 20
373.80177363234662
 42
0.414213562373095
 10
410.43212066813248
 20
376.00177363234667
 10
407.83212066813246
 20
376.00177363234667
 42
0.414213562373095
 10
405.02212066813252
 20
373.80177363234662
 10
405.02212066813252
 20
371.20177363234666
 42
0.414213562373095
  0
LWPOLYLINE
  5
75
100
AcDbEntity
  8
0
 62
256
370
-1
 48
1.0
  6
BYLAYER
100
AcDbPolyline
 90
8
 70
1
 10
89.598939665933756
 20
333.99911318382669
 10
92.198939665933779
 20
333.99911318382669
 42
0.414213562373095
 10
94.988939665933742
 20
336.19911318382663
 10
94.988939665933742
 20
338.79911318382659
 42
0.414213562373095
 10
92.198939665933779
 20
340.99911318382664
 10
89.598939665933756
 20
340.99911318382664
 42
0.414213562373095
 10
86.788939665933754
 20
338.79911318382659
 10
86.788939665933754
 20
336.19911318382663
 42
0.414213562373095
  0
LWPOLYLINE
  5
76
100
AcDbEntity
  8
0
 62
256
370
-1
 48
1.0
  6
BYLAYER
100
AcDbPolyline
 90
8
 70
1
 10
121.43742233846393
 20
333.99911318382664
 10
124.03742233846394
 20
334.01330224260141
 42
0.414213562373095
 10
126.8274223384639
 20
336.21330224260134
 10
126.8274223384639
 20
338.81330224260131
 42
0.414213562373095
 10
124.03742233846394
 20
341.01330224260136
 10
121.43742233846393
 20
341.01330224260136
 42
0.414213562373095
 10
118.62742233846393
 20
338.81330224260131
 10
118.62742233846393
 20
336.21330224260134
 42
0.414213562373095
  0
LWPOLYLINE
  5
77
100
AcDbEntity
  8
0
 62
256
370
-1
 48
1.0
  6
BYLAYER
100
AcDbPolyline
 90
8
 70
1
 10
153.29893966593374
 20
334.033230424191
 10
155.89893966593377
 20
333.99911318382669
 42
0.414213562373095
 10
158.68893966593373
 20
336.19911318382663
 10
158.68893966593373
 20
338.79911318382659
 42
0.414213562373095
 10
155.89893966593377
 20
340.99911318382664
 10
153.29893966593374
 20
340.99911318382664
 42
0.414213562373095
 10
150.48893966593374
 20
338.79911318382659
 10
150.48893966593374
 20
336.19911318382663
 42
0.414213562373095
  0
LWPOLYLINE
  5
78
100
AcDbEntity
  8
0
 62
256
370
-1
 48
1.0
  6
BYLAYER
100
AcDbPolyline
 90
8
 70
1
 10
185.04893966593374
 20
333.99201865443928
 10
187.64893966593377
 20
333.99201865443928
 42
0.414213562373095
 10
190.43893966593373
 20
336.19201865443921
 10
190.43893966593373
 20
338.79201865443918
 42
0.414213562373095
 10
187.64893966593377
 20
340.99201865443922
 10
185.04893966593374
 20
340.99201865443922
 42
0.414213562373095
 10
182.23893966593374
 20
338.79201865443918
 10
182.23893966593374
 20
336.19201865443921
 42
0.414213562373095
  0
LWPOLYLINE
  5
79
100
AcDbEntity
  8
0
 62
256
370
-1
 48
1.0
  6
BYLAYER
100
AcDbPolyline
 90
8
 70
1
 10
216.88742233846392
 20
333.99201865443922
 10
219.48742233846394
 20
334.006207713214
 42
0.414213562373095
 10
222.27742233846391
 20
336.20620771321393
 10
222.27742233846391
 20
338.80620771321389
 42
0.414213562373095
 10
219.48742233846394
 20
341.00620771321394
 10
216.88742233846392
 20
341.00620771321394
 42
0.414213562373095
 10
214.07742233846392
 20
338.80620771321389
 10
214.07742233846392
 20
336.20620771321393
 42
0.414213562373095
  0
LWPOLYLINE
  5
7A
100
AcDbEntity
  8
0
 62
256
370
-1
 48
1.0
  6
BYLAYER
100
AcDbPolyline
 90
8
 70
1
 10
248.74893966593373
 20
334.02613589480359
 10
251.34893966593376
 20
333.99201865443928
 42
0.414213562373095
 10
254.13893966593372
 20
336.19201865443921
 10
254.13893966593372
 20
338.79201865443918
 42
0.414213562373095
 10
251.34893966593376
 20
340.99201865443922
 10
248.74893966593373
 20
340.99201865443922
 42
0.414213562373095
 10
245.93893966593373
 20
338.79201865443918
 10
245.93893966593373
 20
336.19201865443921
 42
0.414213562373095
  0
LWPOLYLINE
  5
7B
100
AcDbEntity
  8
0
 62
256
370
-1
 48
1.0
  6
BYLAYER
100
AcDbPolyline
 90
8
 70
1
 10
280.55469832966861
 20
333.99556591913296
 10
283.15469832966863
 20
333.99556591913296
 42
0.414213562373095
 10
285.9446983296686
 20
336.19556591913289
 10
285.9446983296686
 20
338.79556591913286
 42
0.414213562373095
 10
283.15469832966863
 20
340.9955659191329
 10
280.55469832966861
 20
340.9955659191329
 42
0.414213562373095
 10
277.74469832966861
 20
338.79556591913286
 10
277.74469832966861
 20
336.19556591913289
 42
0.414213562373095
  0
LWPOLYLINE
  5
7C
100
AcDbEntity
  8
0
 62
256
370
-1
 48
1.0
  6
BYLAYER
100
AcDbPolyline
 90
8
 70
1
 10
312.39318100219879
 20
333.9955659191329
 10
314.99318100219881
 20
334.00975497790768
 42
0.414213562373095
 10
317.78318100219877
 20
336.20975497790761
 10
317.78318100219877
 20
338.80975497790757
 42
0.414213562373095
 10
314.99318100219881
 20
341.00975497790762
 10
312.39318100219879
 20
341.00975497790762
 42
0.414213562373095
 10
309.58318100219878
 20
338.80975497790757
 10
309.58318100219878
 20
336.20975497790761
 42
0.414213562373095
  0
LWPOLYLINE
  5
7D
100
AcDbEntity
  8
0
 62
256
370
-1
 48
1.0
  6
BYLAYER
100
AcDbPolyline
 90
8
 70
1
 10
344.2546983296686
 20
334.02968315949727
 10
346.85469832966862
 20
333.99556591913296
 42
0.414213562373095
 10
349.64469832966859
 20
336.19556591913289
 10
349.64469832966859
 20
338.79556591913286
 42
0.414213562373095
 10
346.85469832966862
 20
340.9955659191329
 10
344.2546983296686
 20
340.9955659191329
 42
0.414213562373095
 10
341.4446983296686
 20
338.79556591913286
 10
341.4446983296686
 20
336.19556591913289
 42
0.414213562373095
  0
LWPOLYLINE
  5
7E
100
AcDbEntity
  8
0
 62
256
370
-1
 48
1.0
  6
BYLAYER
100
AcDbPolyline
 90
8
 70
1
 10
376.0046983296686
 20
333.98847138974554
 10
378.60469832966862
 20
333.98847138974554
 42
0.414213562373095
 10
381.39469832966859
 20
336.18847138974547
 10
381.39469832966859
 20
338.78847138974544
 42
0.414213562373095
 10
378.60469832966862
 20
340.98847138974548
 10
376.0046983296686
 20
340.98847138974548
 42
0.414213562373095
 10
373.1946983296686
 20
338.78847138974544
 10
373.1946983296686
 20
336.18847138974547
 42
0.414213562373095
  0
LWPOLYLINE
  5
7F
100
AcDbEntity
  8
0
 62
256
370
-1
 48
1.0
  6
BYLAYER
100
AcDbPolyline
 90
8
 70
1
 10
407.84318100219878
 20
333.98847138974548
 10
410.4431810021988
 20
334.00266044852026
 42
0.414213562373095
 10
413.23318100219876
 20
336.20266044852019
 10
413.23318100219876
 20
338.80266044852016
 42
0.414213562373095
 10
410.4431810021988
 20
341.0026604485202
 10
407.84318100219878
 20
341.0026604485202
 42
0.414213562373095
 10
405.03318100219877
 20
338.80266044852016
 10
405.03318100219877
 20
336.20266044852019
 42
0.414213562373095
  0
LWPOLYLINE
  5
80
100
AcDbEntity
  8
0
 62
256
370
-1
 48
1.0
  6
BYLAYER
100
AcDbPolyline
 90
8
 70
1
 10
89.576818997801212
 20
298.9973395514798
 10
92.176818997801234
 20
298.9973395514798
 42
0.414213562373095
 10
94.966818997801198
 20
301.19733955147973
 10
94.966818997801198
 20
303.79733955147969
 42
0.414213562373095
 10
92.176818997801234
 20
305.99733955147974
 10
89.576818997801212
 20
305.99733955147974
 42
0.414213562373095
 10
86.766818997801209
 20
303.79733955147969
 10
86.766818997801209
 20
301.19733955147973
 42
0.414213562373095
  0
LWPOLYLINE
  5
81
100
AcDbEntity
  8
0
 62
256
370
-1
 48
1.0
  6
BYLAYER
100
AcDbPolyline
 90
8
 70
1
 10
121.41530167033139
 20
298.99733955147974
 10
124.0153016703314
 20
299.01152861025452
 42
0.414213562373095
 10
126.80530167033136
 20
301.21152861025445
 10
126.80530167033136
 20
303.81152861025441
 42
0.414213562373095
 10
124.0153016703314
 20
306.01152861025446
 10
121.41530167033139
 20
306.01152861025446
 42
0.414213562373095
 10
118.60530167033139
 20
303.81152861025441
 10
118.60530167033139
 20
301.21152861025445
 42
0.414213562373095
  0
LWPOLYLINE
  5
82
100
AcDbEntity
  8
0
 62
256
370
-1
 48
1.0
  6
BYLAYER
100
AcDbPolyline
 90
8
 70
1
 10
153.2768189978012
 20
299.03145679184411
 10
155.87681899780122
 20
298.9973395514798
 42
0.414213562373095
 10
158.66681899780119
 20
301.19733955147973
 10
158.66681899780119
 20
303.79733955147969
 42
0.414213562373095
 10
155.87681899780122
 20
305.99733955147974
 10
153.2768189978012
 20
305.99733955147974
 42
0.414213562373095
 10
150.4668189978012
 20
303.79733955147969
 10
150.4668189978012
 20
301.19733955147973
 42
0.414213562373095
  0
LWPOLYLINE
  5
83
100
AcDbEntity
  8
0
 62
256
370
-1
 48
1.0
  6
BYLAYER
100
AcDbPolyline
 90
8
 70
1
 10
185.0268189978012
 20
298.99024502209238
 10
187.62681899780122
 20
298.99024502209238
 42
0.414213562373095
 10
190.41681899780119
 20
301.19024502209231
 10
190.41681899780119
 20
303.79024502209228
 42
0.414213562373095
 10
187.62681899780122
 20
305.99024502209232
 10
185.0268189978012
 20
305.99024502209232
 42
0.414213562373095
 10
182.2168189978012
 20
303.79024502209228
 10
182.2168189978012
 20
301.19024502209231
 42
0.414213562373095
  0
LWPOLYLINE
  5
84
100
AcDbEntity
  8
0
 62
256
370
-1
 48
1.0
  6
BYLAYER
100
AcDbPolyline
 90
8
 70
1
 10
216.86530167033138
 20
298.99024502209232
 10
219.4653016703314
 20
299.0044340808671
 42
0.414213562373095
 10
222.25530167033136
 20
301.20443408086703
 10
222.25530167033136
 20
303.804434080867
 42
0.414213562373095
 10
219.4653016703314
 20
306.00443408086704
 10
216.86530167033138
 20
306.00443408086704
 42
0.414213562373095
 10
214.05530167033137
 20
303.804434080867
 10
214.05530167033137
 20
301.20443408086703
 42
0.414213562373095
  0
LWPOLYLINE
  5
85
100
AcDbEntity
  8
0
 62
256
370
-1
 48
1.0
  6
BYLAYER
100
AcDbPolyline
 90
8
 70
1
 10
248.72681899780119
 20
299.02436226245669
 10
251.32681899780121
 20
298.99024502209238
 42
0.414213562373095
 10
254.11681899780118
 20
301.19024502209231
 10
254.11681899780118
 20
303.79024502209228
 42
0.414213562373095
 10
251.32681899780121
 20
305.99024502209232
 10
248.72681899780119
 20
305.99024502209232
 42
0.414213562373095
 10
245.91681899780119
 20
303.79024502209228
 10
245.91681899780119
 20
301.19024502209231
 42
0.414213562373095
  0
LWPOLYLINE
  5
86
100
AcDbEntity
  8
0
 62
256
370
-1
 48
1.0
  6
BYLAYER
100
AcDbPolyline
 90
8
 70
1
 10
280.5325776615361
 20
298.99379228678606
 10
283.13257766153612
 20
298.99379228678606
 42
0.414213562373095
 10
285.92257766153608
 20
301.19379228678599
 10
285.92257766153608
 20
303.79379228678596
 42
0.414213562373095
 10
283.13257766153612
 20
305.993792286786
 10
280.5325776615361
 20
305.993792286786
 42
0.414213562373095
 10
277.72257766153604
 20
303.79379228678596
 10
277.72257766153604
 20
301.19379228678599
 42
0.414213562373095
  0
LWPOLYLINE
  5
87
100
AcDbEntity
  8
0
 62
256
370
-1
 48
1.0
  6
BYLAYER
100
AcDbPolyline
 90
8
 70
1
 10
312.37106033406627
 20
298.993792286786
 10
314.97106033406629
 20
299.00798134556078
 42
0.414213562373095
 10
317.76106033406626
 20
301.20798134556071
 10
317.76106033406626
 20
303.80798134556068
 42
0.414213562373095
 10
314.97106033406629
 20
306.00798134556072
 10
312.37106033406627
 20
306.00798134556072
 42
0.414213562373095
 10
309.56106033406621
 20
303.80798134556068
 10
309.56106033406621
 20
301.20798134556071
 42
0.414213562373095
  0
LWPOLYLINE
  5
88
100
AcDbEntity
  8
0
 62
256
370
-1
 48
1.0
  6
BYLAYER
100
AcDbPolyline
 90
8
 70
1
 10
344.23257766153603
 20
299.02790952715037
 10
346.83257766153605
 20
298.99379228678606
 42
0.414213562373095
 10
349.62257766153601
 20
301.19379228678599
 10
349.62257766153601
 20
303.79379228678596
 42
0.414213562373095
 10
346.83257766153605
 20
305.993792286786
 10
344.23257766153603
 20
305.993792286786
 42
0.414213562373095
 10
341.42257766153608
 20
303.79379228678596
 10
341.42257766153608
 20
301.19379228678599
 42
0.414213562373095
  0
LWPOLYLINE
  5
89
100
AcDbEntity
  8
0
 62
256
370
-1
 48
1.0
  6
BYLAYER
100
AcDbPolyline
 90
8
 70
1
 10
375.98257766153603
 20
298.98669775739864
 10
378.58257766153605
 20
298.98669775739864
 42
0.414213562373095
 10
381.37257766153601
 20
301.18669775739858
 10
381.37257766153601
 20
303.78669775739854
 42
0.414213562373095
 10
378.58257766153605
 20
305.98669775739859
 10
375.98257766153603
 20
305.98669775739859
 42
0.414213562373095
 10
373.17257766153608
 20
303.78669775739854
 10
373.17257766153608
 20
301.18669775739858
 42
0.414213562373095
  0
LWPOLYLINE
  5
8A
100
AcDbEntity
  8
0
 62
256
370
-1
 48
1.0
  6
BYLAYER
100
AcDbPolyline
 90
8
 70
1
 10
407.8210603340662
 20
298.98669775739859
 10
410.42106033406623
 20
299.00088681617336
 42
0.414213562373095
 10
413.21106033406619
 20
301.20088681617329
 10
413.21106033406619
 20
303.80088681617326
 42
0.414213562373095
 10
410.42106033406623
 20
306.00088681617331
 10
407.8210603340662
 20
306.00088681617331
 42
0.414213562373095
 10
405.01106033406626
 20
303.80088681617326
 10
405.01106033406626
 20
301.20088681617329
 42
0.414213562373095
  0
LWPOLYLINE
  5
8B
100
AcDbEntity
  8
0
 62
256
370
-1
 48
1.0
  6
BYLAYER
100
AcDbPolyline
 90
8
 70
1
 10
89.598939665933756
 20
263.99911318382669
 10
92.198939665933779
 20
263.99911318382669
 42
0.414213562373095
 10
94.988939665933742
 20
266.19911318382663
 10
94.988939665933742
 20
268.79911318382659
 42
0.414213562373095
 10
92.198939665933779
 20
270.99911318382664
 10
89.598939665933756
 20
270.99911318382664
 42
0.414213562373095
 10
86.788939665933754
 20
268.79911318382659
 10
86.788939665933754
 20
266.19911318382663
 42
0.414213562373095
  0
LWPOLYLINE
  5
8C
100
AcDbEntity
  8
0
 62
256
370
-1
 48
1.0
  6
BYLAYER
100
AcDbPolyline
 90
8
 70
1
 10
121.43742233846393
 20
263.99911318382664
 10
124.03742233846394
 20
264.01330224260141
 42
0.414213562373095
 10
126.8274223384639
 20
266.21330224260134
 10
126.8274223384639
 20
268.81330224260131
 42
0.414213562373095
 10
124.03742233846394
 20
271.01330224260136
 10
121.43742233846393
 20
271.01330224260136
 42
0.414213562373095
 10
118.62742233846393
 20
268.81330224260131
 10
118.62742233846393
 20
266.21330224260134
 42
0.414213562373095
  0
LWPOLYLINE
  5
8D
100
AcDbEntity
  8
0
 62
256
370
-1
 48
1.0
  6
BYLAYER
100
AcDbPolyline
 90
8
 70
1
 10
153.29893966593374
 20
264.033230424191
 10
155.89893966593377
 20
263.99911318382669
 42
0.414213562373095
 10
158.68893966593373
 20
266.19911318382663
 10
158.68893966593373
 20
268.79911318382659
 42
0.414213562373095
 10
155.89893966593377
 20
270.99911318382664
 10
153.29893966593374
 20
270.99911318382664
 42
0.414213562373095
 10
150.48893966593374
 20
268.79911318382659
 10
150.48893966593374
 20
266.19911318382663
 42
0.414213562373095
  0
LWPOLYLINE
  5
8E
100
AcDbEntity
  8
0
 62
256
370
-1
 48
1.0
  6
BYLAYER
100
AcDbPolyline
 90
8
 70
1
 10
185.04893966593374
 20
263.99201865443928
 10
187.64893966593377
 20
263.99201865443928
 42
0.414213562373095
 10
190.43893966593373
 20
266.19201865443921
 10
190.43893966593373
 20
268.79201865443918
 42
0.414213562373095
 10
187.64893966593377
 20
270.99201865443922
 10
185.04893966593374
 20
270.99201865443922
 42
0.414213562373095
 10
182.23893966593374
 20
268.79201865443918
 10
182.23893966593374
 20
266.19201865443921
 42
0.414213562373095
  0
LWPOLYLINE
  5
8F
100
AcDbEntity
  8
0
 62
256
370
-1
 48
1.0
  6
BYLAYER
100
AcDbPolyline
 90
8
 70
1
 10
216.88742233846392
 20
263.99201865443922
 10
219.48742233846394
 20
264.006207713214
 42
0.414213562373095
 10
222.27742233846391
 20
266.20620771321393
 10
222.27742233846391
 20
268.80620771321389
 42
0.414213562373095
 10
219.48742233846394
 20
271.00620771321394
 10
216.88742233846392
 20
271.00620771321394
 42
0.414213562373095
 10
214.07742233846392
 20
268.80620771321389
 10
214.07742233846392
 20
266.20620771321393
 42
0.414213562373095
  0
LWPOLYLINE
  5
90
100
AcDbEntity
  8
0
 62
256
370
-1
 48
1.0
  6
BYLAYER
100
AcDbPolyline
 90
8
 70
1
 10
248.74893966593373
 20
264.02613589480359
 10
251.34893966593376
 20
263.99201865443928
 42
0.414213562373095
 10
254.13893966593372
 20
266.19201865443921
 10
254.13893966593372
 20
268.79201865443918
 42
0.414213562373095
 10
251.34893966593376
 20
270.99201865443922
 10
248.74893966593373
 20
270.99201865443922
 42
0.414213562373095
 10
245.93893966593373
 20
268.79201865443918
 10
245.93893966593373
 20
266.19201865443921
 42
0.414213562373095
  0
LWPOLYLINE
  5
91
100
AcDbEntity
  8
0
 62
256
370
-1
 48
1.0
  6
BYLAYER
100
AcDbPolyline
 90
8
 70
1
 10
280.55469832966861
 20
263.99556591913296
 10
283.15469832966863
 20
263.99556591913296
 42
0.414213562373095
 10
285.9446983296686
 20
266.19556591913289
 10
285.9446983296686
 20
268.79556591913286
 42
0.414213562373095
 10
283.15469832966863
 20
270.9955659191329
 10
280.55469832966861
 20
270.9955659191329
 42
0.414213562373095
 10
277.74469832966861
 20
268.79556591913286
 10
277.74469832966861
 20
266.19556591913289
 42
0.414213562373095
  0
LWPOLYLINE
  5
92
100
AcDbEntity
  8
0
 62
256
370
-1
 48
1.0
  6
BYLAYER
100
AcDbPolyline
 90
8
 70
1
 10
312.39318100219879
 20
263.9955659191329
 10
314.99318100219881
 20
264.00975497790768
 42
0.414213562373095
 10
317.78318100219877
 20
266.20975497790761
 10
317.78318100219877
 20
268.80975497790757
 42
0.414213562373095
 10
314.99318100219881
 20
271.00975497790762
 10
312.39318100219879
 20
271.00975497790762
 42
0.414213562373095
 10
309.58318100219878
 20
268.80975497790757
 10
309.58318100219878
 20
266.20975497790761
 42
0.414213562373095
  0
LWPOLYLINE
  5
93
100
AcDbEntity
  8
0
 62
256
370
-1
 48
1.0
  6
BYLAYER
100
AcDbPolyline
 90
8
 70
1
 10
344.2546983296686
 20
264.02968315949727
 10
346.85469832966862
 20
263.99556591913296
 42
0.414213562373095
 10
349.64469832966859
 20
266.19556591913289
 10
349.64469832966859
 20
268.79556591913286
 42
0.414213562373095
 10
346.85469832966862
 20
270.9955659191329
 10
344.2546983296686
 20
270.9955659191329
 42
0.414213562373095
 10
341.4446983296686
 20
268.79556591913286
 10
341.4446983296686
 20
266.19556591913289
 42
0.414213562373095
  0
LWPOLYLINE
  5
94
100
AcDbEntity
  8
0
 62
256
370
-1
 48
1.0
  6
BYLAYER
100
AcDbPolyline
 90
8
 70
1
 10
376.0046983296686
 20
263.98847138974554
 10
378.60469832966862
 20
263.98847138974554
 42
0.414213562373095
 10
381.39469832966859
 20
266.18847138974547
 10
381.39469832966859
 20
268.78847138974544
 42
0.414213562373095
 10
378.60469832966862
 20
270.98847138974548
 10
376.0046983296686
 20
270.98847138974548
 42
0.414213562373095
 10
373.1946983296686
 20
268.78847138974544
 10
373.1946983296686
 20
266.18847138974547
 42
0.414213562373095
  0
LWPOLYLINE
  5
95
100
AcDbEntity
  8
0
 62
256
370
-1
 48
1.0
  6
BYLAYER
100
AcDbPolyline
 90
8
 70
1
 10
407.84318100219878
 20
263.98847138974548
 10
410.4431810021988
 20
264.00266044852026
 42
0.414213562373095
 10
413.23318100219876
 20
266.20266044852019
 10
413.23318100219876
 20
268.80266044852016
 42
0.414213562373095
 10
410.4431810021988
 20
271.0026604485202
 10
407.84318100219878
 20
271.0026604485202
 42
0.414213562373095
 10
405.03318100219877
 20
268.80266044852016
 10
405.03318100219877
 20
266.20266044852019
 42
0.414213562373095
  0
LWPOLYLINE
  5
96
100
AcDbEntity
  8
0
 62
256
370
-1
 48
1.0
  6
BYLAYER
100
AcDbPolyline
 90
8
 70
1
 10
89.576818997801212
 20
228.9973395514798
 10
92.176818997801234
 20
228.9973395514798
 42
0.414213562373095
 10
94.966818997801198
 20
231.19733955147973
 10
94.966818997801198
 20
233.79733955147969
 42
0.414213562373095
 10
92.176818997801234
 20
235.99733955147974
 10
89.576818997801212
 20
235.99733955147974
 42
0.414213562373095
 10
86.766818997801209
 20
233.79733955147969
 10
86.766818997801209
 20
231.19733955147973
 42
0.414213562373095
  0
LWPOLYLINE
  5
97
100
AcDbEntity
  8
0
 62
256
370
-1
 48
1.0
  6
BYLAYER
100
AcDbPolyline
 90
8
 70
1
 10
121.41530167033139
 20
228.99733955147974
 10
124.0153016703314
 20
229.01152861025452
 42
0.414213562373095
 10
126.80530167033136
 20
231.21152861025445
 10
126.80530167033136
 20
233.81152861025441
 42
0.414213562373095
 10
124.0153016703314
 20
236.01152861025446
 10
121.41530167033139
 20
236.01152861025446
 42
0.414213562373095
 10
118.60530167033139
 20
233.81152861025441
 10
118.60530167033139
 20
231.21152861025445
 42
0.414213562373095
  0
LWPOLYLINE
  5
98
100
AcDbEntity
  8
0
 62
256
370
-1
 48
1.0
  6
BYLAYER
100
AcDbPolyline
 90
8
 70
1
 10
153.2768189978012
 20
229.03145679184411
 10
155.87681899780122
 20
228.9973395514798
 42
0.414213562373095
 10
158.66681899780119
 20
231.19733955147973
 10
158.66681899780119
 20
233.79733955147969
 42
0.414213562373095
 10
155.87681899780122
 20
235.99733955147974
 10
153.2768189978012
 20
235.99733955147974
 42
0.414213562373095
 10
150.4668189978012
 20
233.79733955147969
 10
150.4668189978012
 20
231.19733955147973
 42
0.414213562373095
  0
LWPOLYLINE
  5
99
100
AcDbEntity
  8
0
 62
256
370
-1
 48
1.0
  6
BYLAYER
100
AcDbPolyline
 90
8
 70
1
 10
185.0268189978012
 20
228.99024502209238
 10
187.62681899780122
 20
228.99024502209238
 42
0.414213562373095
 10
190.41681899780119
 20
231.19024502209231
 10
190.41681899780119
 20
233.79024502209228
 42
0.414213562373095
 10
187.62681899780122
 20
235.99024502209232
 10
185.0268189978012
 20
235.99024502209232
 42
0.414213562373095
 10
182.2168189978012
 20
233.79024502209228
 10
182.2168189978012
 20
231.19024502209231
 42
0.414213562373095
  0
LWPOLYLINE
  5
9A
100
AcDbEntity
  8
0
 62
256
370
-1
 48
1.0
  6
BYLAYER
100
AcDbPolyline
 90
8
 70
1
 10
216.86530167033138
 20
228.99024502209232
 10
219.4653016703314
 20
229.0044340808671
 42
0.414213562373095
 10
222.25530167033136
 20
231.20443408086703
 10
222.25530167033136
 20
233.804434080867
 42
0.414213562373095
 10
219.4653016703314
 20
236.00443408086704
 10
216.86530167033138
 20
236.00443408086704
 42
0.414213562373095
 10
214.05530167033137
 20
233.804434080867
 10
214.05530167033137
 20
231.20443408086703
 42
0.414213562373095
  0
LWPOLYLINE
  5
9B
100
AcDbEntity
  8
0
 62
256
370
-1
 48
1.0
  6
BYLAYER
100
AcDbPolyline
 90
8
 70
1
 10
248.72681899780119
 20
229.02436226245669
 10
251.32681899780121
 20
228.99024502209238
 42
0.414213562373095
 10
254.11681899780118
 20
231.19024502209231
 10
254.11681899780118
 20
233.79024502209228
 42
0.414213562373095
 10
251.32681899780121
 20
235.99024502209232
 10
248.72681899780119
 20
235.99024502209232
 42
0.414213562373095
 10
245.91681899780119
 20
233.79024502209228
 10
245.91681899780119
 20
231.19024502209231
 42
0.414213562373095
  0
LWPOLYLINE
  5
9C
100
AcDbEntity
  8
0
 62
256
370
-1
 48
1.0
  6
BYLAYER
100
AcDbPolyline
 90
8
 70
1
 10
280.5325776615361
 20
228.99379228678606
 10
283.13257766153612
 20
228.99379228678606
 42
0.414213562373095
 10
285.92257766153608
 20
231.19379228678599
 10
285.92257766153608
 20
233.79379228678596
 42
0.414213562373095
 10
283.13257766153612
 20
235.993792286786
 10
280.5325776615361
 20
235.993792286786
 42
0.414213562373095
 10
277.72257766153604
 20
233.79379228678596
 10
277.72257766153604
 20
231.19379228678599
 42
0.414213562373095
  0
LWPOLYLINE
  5
9D
100
AcDbEntity
  8
0
 62
256
370
-1
 48
1.0
  6
BYLAYER
100
AcDbPolyline
 90
8
 70
1
 10
312.37106033406627
 20
228.993792286786
 10
314.97106033406629
 20
229.00798134556078
 42
0.414213562373095
 10
317.76106033406626
 20
231.20798134556071
 10
317.76106033406626
 20
233.80798134556068
 42
0.414213562373095
 10
314.97106033406629
 20
236.00798134556072
 10
312.37106033406627
 20
236.00798134556072
 42
0.414213562373095
 10
309.56106033406621
 20
233.80798134556068
 10
309.56106033406621
 20
231.20798134556071
 42
0.414213562373095
  0
LWPOLYLINE
  5
9E
100
AcDbEntity
  8
0
 62
256
370
-1
 48
1.0
  6
BYLAYER
100
AcDbPolyline
 90
8
 70
1
 10
344.23257766153603
 20
229.02790952715037
 10
346.83257766153605
 20
228.99379228678606
 42
0.414213562373095
 10
349.62257766153601
 20
231.19379228678599
 10
349.62257766153601
 20
233.79379228678596
 42
0.414213562373095
 10
346.83257766153605
 20
235.993792286786
 10
344.23257766153603
 20
235.993792286786
 42
0.414213562373095
 10
341.42257766153608
 20
233.79379228678596
 10
341.42257766153608
 20
231.19379228678599
 42
0.414213562373095
  0
LWPOLYLINE
  5
9F
100
AcDbEntity
  8
0
 62
256
370
-1
 48
1.0
  6
BYLAYER
100
AcDbPolyline
 90
8
 70
1
 10
375.98257766153603
 20
228.98669775739864
 10
378.58257766153605
 20
228.98669775739864
 42
0.414213562373095
 10
381.37257766153601
 20
231.18669775739858
 10
381.37257766153601
 20
233.78669775739854
 42
0.414213562373095
 10
378.58257766153605
 20
235.98669775739859
 10
375.98257766153603
 20
235.98669775739859
 42
0.414213562373095
 10
373.17257766153608
 20
233.78669775739854
 10
373.17257766153608
 20
231.18669775739858
 42
0.414213562373095
  0
LWPOLYLINE
  5
A0
100
AcDbEntity
  8
0
 62
256
370
-1
 48
1.0
  6
BYLAYER
100
AcDbPolyline
 90
8
 70
1
 10
407.8210603340662
 20
228.98669775739859
 10
410.42106033406623
 20
229.00088681617336
 42
0.414213562373095
 10
413.21106033406619
 20
231.20088681617329
 10
413.21106033406619
 20
233.80088681617326
 42
0.414213562373095
 10
410.42106033406623
 20
236.00088681617331
 10
407.8210603340662
 20
236.00088681617331
 42
0.414213562373095
 10
405.01106033406626
 20
233.80088681617326
 10
405.01106033406626
 20
231.20088681617329
 42
0.414213562373095
  0
LWPOLYLINE
  5
A1
100
AcDbEntity
  8
0
 62
256
370
-1
 48
1.0
  6
BYLAYER
100
AcDbPolyline
 90
8
 70
1
 10
89.598939665933756
 20
193.99911318382669
 10
92.198939665933779
 20
193.99911318382669
 42
0.414213562373095
 10
94.988939665933742
 20
196.19911318382663
 10
94.988939665933742
 20
198.79911318382659
 42
0.414213562373095
 10
92.198939665933779
 20
200.99911318382664
 10
89.598939665933756
 20
200.99911318382664
 42
0.414213562373095
 10
86.788939665933754
 20
198.79911318382659
 10
86.788939665933754
 20
196.19911318382663
 42
0.414213562373095
  0
LWPOLYLINE
  5
A2
100
AcDbEntity
  8
0
 62
256
370
-1
 48
1.0
  6
BYLAYER
100
AcDbPolyline
 90
8
 70
1
 10
121.43742233846393
 20
193.99911318382664
 10
124.03742233846394
 20
194.01330224260141
 42
0.414213562373095
 10
126.8274223384639
 20
196.21330224260134
 10
126.8274223384639
 20
198.81330224260131
 42
0.414213562373095
 10
124.03742233846394
 20
201.01330224260136
 10
121.43742233846393
 20
201.01330224260136
 42
0.414213562373095
 10
118.62742233846393
 20
198.81330224260131
 10
118.62742233846393
 20
196.21330224260134
 42
0.414213562373095
  0
LWPOLYLINE
  5
A3
100
AcDbEntity
  8
0
 62
256
370
-1
 48
1.0
  6
BYLAYER
100
AcDbPolyline
 90
8
 70
1
 10
153.29893966593374
 20
194.033230424191
 10
155.89893966593377
 20
193.99911318382669
 42
0.414213562373095
 10
158.68893966593373
 20
196.19911318382663
 10
158.68893966593373
 20
198.79911318382659
 42
0.414213562373095
 10
155.89893966593377
 20
200.99911318382664
 10
153.29893966593374
 20
200.99911318382664
 42
0.414213562373095
 10
150.48893966593374
 20
198.79911318382659
 10
150.48893966593374
 20
196.19911318382663
 42
0.414213562373095
  0
LWPOLYLINE
  5
A4
100
AcDbEntity
  8
0
 62
256
370
-1
 48
1.0
  6
BYLAYER
100
AcDbPolyline
 90
8
 70
1
 10
185.04893966593374
 20
193.99201865443928
 10
187.64893966593377
 20
193.99201865443928
 42
0.414213562373095
 10
190.43893966593373
 20
196.19201865443921
 10
190.43893966593373
 20
198.79201865443918
 42
0.414213562373095
 10
187.64893966593377
 20
200.99201865443922
 10
185.04893966593374
 20
200.99201865443922
 42
0.414213562373095
 10
182.23893966593374
 20
198.79201865443918
 10
182.23893966593374
 20
196.19201865443921
 42
0.414213562373095
  0
LWPOLYLINE
  5
A5
100
AcDbEntity
  8
0
 62
256
370
-1
 48
1.0
  6
BYLAYER
100
AcDbPolyline
 90
8
 70
1
 10
216.88742233846392
 20
193.99201865443922
 10
219.48742233846394
 20
194.006207713214
 42
0.414213562373095
 10
222.27742233846391
 20
196.20620771321393
 10
222.27742233846391
 20
198.80620771321389
 42
0.414213562373095
 10
219.48742233846394
 20
201.00620771321394
 10
216.88742233846392
 20
201.00620771321394
 42
0.414213562373095
 10
214.07742233846392
 20
198.80620771321389
 10
214.07742233846392
 20
196.20620771321393
 42
0.414213562373095
  0
LWPOLYLINE
  5
A6
100
AcDbEntity
  8
0
 62
256
370
-1
 48
1.0
  6
BYLAYER
100
AcDbPolyline
 90
8
 70
1
 10
248.74893966593373
 20
194.02613589480359
 10
251.34893966593376
 20
193.99201865443928
 42
0.414213562373095
 10
254.13893966593372
 20
196.19201865443921
 10
254.13893966593372
 20
198.79201865443918
 42
0.414213562373095
 10
251.34893966593376
 20
200.99201865443922
 10
248.74893966593373
 20
200.99201865443922
 42
0.414213562373095
 10
245.93893966593373
 20
198.79201865443918
 10
245.93893966593373
 20
196.19201865443921
 42
0.414213562373095
  0
LWPOLYLINE
  5
A7
100
AcDbEntity
  8
0
 62
256
370
-1
 48
1.0
  6
BYLAYER
100
AcDbPolyline
 90
8
 70
1
 10
280.55469832966861
 20
193.99556591913296
 10
283.15469832966863
 20
193.99556591913296
 42
0.414213562373095
 10
285.9446983296686
 20
196.19556591913289
 10
285.9446983296686
 20
198.79556591913286
 42
0.414213562373095
 10
283.15469832966863
 20
200.9955659191329
 10
280.55469832966861
 20
200.9955659191329
 42
0.414213562373095
 10
277.74469832966861
 20
198.79556591913286
 10
277.74469832966861
 20
196.19556591913289
 42
0.414213562373095
  0
LWPOLYLINE
  5
A8
100
AcDbEntity
  8
0
 62
256
370
-1
 48
1.0
  6
BYLAYER
100
AcDbPolyline
 90
8
 70
1
 10
312.39318100219879
 20
193.9955659191329
 10
314.99318100219881
 20
194.00975497790768
 42
0.414213562373095
 10
317.78318100219877
 20
196.20975497790761
 10
317.78318100219877
 20
198.80975497790757
 42
0.414213562373095
 10
314.99318100219881
 20
201.00975497790762
 10
312.39318100219879
 20
201.00975497790762
 42
0.414213562373095
 10
309.58318100219878
 20
198.80975497790757
 10
309.58318100219878
 20
196.20975497790761
 42
0.414213562373095
  0
LWPOLYLINE
  5
A9
100
AcDbEntity
  8
0
 62
256
370
-1
 48
1.0
  6
BYLAYER
100
AcDbPolyline
 90
8
 70
1
 10
344.2546983296686
 20
194.02968315949727
 10
346.85469832966862
 20
193.99556591913296
 42
0.414213562373095
 10
349.64469832966859
 20
196.19556591913289
 10
349.64469832966859
 20
198.79556591913286
 42
0.414213562373095
 10
346.85469832966862
 20
200.9955659191329
 10
344.2546983296686
 20
200.9955659191329
 42
0.414213562373095
 10
341.4446983296686
 20
198.79556591913286
 10
341.4446983296686
 20
196.19556591913289
 42
0.414213562373095
  0
LWPOLYLINE
  5
AA
100
AcDbEntity
  8
0
 62
256
370
-1
 48
1.0
  6
BYLAYER
100
AcDbPolyline
 90
8
 70
1
 10
376.0046983296686
 20
193.98847138974554
 10
378.60469832966862
 20
193.98847138974554
 42
0.414213562373095
 10
381.39469832966859
 20
196.18847138974547
 10
381.39469832966859
 20
198.78847138974544
 42
0.414213562373095
 10
378.60469832966862
 20
200.98847138974548
 10
376.0046983296686
 20
200.98847138974548
 42
0.414213562373095
 10
373.1946983296686
 20
198.78847138974544
 10
373.1946983296686
 20
196.18847138974547
 42
0.414213562373095
  0
LWPOLYLINE
  5
AB
100
AcDbEntity
  8
0
 62
256
370
-1
 48
1.0
  6
BYLAYER
100
AcDbPolyline
 90
8
 70
1
 10
407.84318100219878
 20
193.98847138974548
 10
410.4431810021988
 20
194.00266044852026
 42
0.414213562373095
 10
413.23318100219876
 20
196.20266044852019
 10
413.23318100219876
 20
198.80266044852016
 42
0.414213562373095
 10
410.4431810021988
 20
201.0026604485202
 10
407.84318100219878
 20
201.0026604485202
 42
0.414213562373095
 10
405.03318100219877
 20
198.80266044852016
 10
405.03318100219877
 20
196.20266044852019
 42
0.414213562373095
  0
LWPOLYLINE
  5
AC
100
AcDbEntity
  8
0
 62
256
370
-1
 48
1.0
  6
BYLAYER
100
AcDbPolyline
 90
8
 70
1
 10
89.576818997801212
 20
158.9973395514798
 10
92.176818997801234
 20
158.9973395514798
 42
0.414213562373095
 10
94.966818997801198
 20
161.19733955147973
 10
94.966818997801198
 20
163.79733955147969
 42
0.414213562373095
 10
92.176818997801234
 20
165.99733955147974
 10
89.576818997801212
 20
165.99733955147974
 42
0.414213562373095
 10
86.766818997801209
 20
163.79733955147969
 10
86.766818997801209
 20
161.19733955147973
 42
0.414213562373095
  0
LWPOLYLINE
  5
AD
100
AcDbEntity
  8
0
 62
256
370
-1
 48
1.0
  6
BYLAYER
100
AcDbPolyline
 90
8
 70
1
 10
121.41530167033139
 20
158.99733955147974
 10
124.0153016703314
 20
159.01152861025452
 42
0.414213562373095
 10
126.80530167033136
 20
161.21152861025445
 10
126.80530167033136
 20
163.81152861025441
 42
0.414213562373095
 10
124.0153016703314
 20
166.01152861025446
 10
121.41530167033139
 20
166.01152861025446
 42
0.414213562373095
 10
118.60530167033139
 20
163.81152861025441
 10
118.60530167033139
 20
161.21152861025445
 42
0.414213562373095
  0
LWPOLYLINE
  5
AE
100
AcDbEntity
  8
0
 62
256
370
-1
 48
1.0
  6
BYLAYER
100
AcDbPolyline
 90
8
 70
1
 10
153.2768189978012
 20
159.03145679184411
 10
155.87681899780122
 20
158.9973395514798
 42
0.414213562373095
 10
158.66681899780119
 20
161.19733955147973
 10
158.66681899780119
 20
163.79733955147969
 42
0.414213562373095
 10
155.87681899780122
 20
165.99733955147974
 10
153.2768189978012
 20
165.99733955147974
 42
0.414213562373095
 10
150.4668189978012
 20
163.79733955147969
 10
150.4668189978012
 20
161.19733955147973
 42
0.414213562373095
  0
LWPOLYLINE
  5
AF
100
AcDbEntity
  8
0
 62
256
370
-1
 48
1.0
  6
BYLAYER
100
AcDbPolyline
 90
8
 70
1
 10
185.0268189978012
 20
158.99024502209238
 10
187.62681899780122
 20
158.99024502209238
 42
0.414213562373095
 10
190.41681899780119
 20
161.19024502209231
 10
190.41681899780119
 20
163.79024502209228
 42
0.414213562373095
 10
187.62681899780122
 20
165.99024502209232
 10
185.0268189978012
 20
165.99024502209232
 42
0.414213562373095
 10
182.2168189978012
 20
163.79024502209228
 10
182.2168189978012
 20
161.19024502209231
 42
0.414213562373095
  0
LWPOLYLINE
  5
B0
100
AcDbEntity
  8
0
 62
256
370
-1
 48
1.0
  6
BYLAYER
100
AcDbPolyline
 90
8
 70
1
 10
216.86530167033138
 20
158.99024502209232
 10
219.4653016703314
 20
159.0044340808671
 42
0.414213562373095
 10
222.25530167033136
 20
161.20443408086703
 10
222.25530167033136
 20
163.804434080867
 42
0.414213562373095
 10
219.4653016703314
 20
166.00443408086704
 10
216.86530167033138
 20
166.00443408086704
 42
0.414213562373095
 10
214.05530167033137
 20
163.804434080867
 10
214.05530167033137
 20
161.20443408086703
 42
0.414213562373095
  0
LWPOLYLINE
  5
B1
100
AcDbEntity
  8
0
 62
256
370
-1
 48
1.0
  6
BYLAYER
100
AcDbPolyline
 90
8
 70
1
 10
248.72681899780119
 20
159.02436226245669
 10
251.32681899780121
 20
158.99024502209238
 42
0.414213562373095
 10
254.11681899780118
 20
161.19024502209231
 10
254.11681899780118
 20
163.79024502209228
 42
0.414213562373095
 10
251.32681899780121
 20
165.99024502209232
 10
248.72681899780119
 20
165.99024502209232
 42
0.414213562373095
 10
245.91681899780119
 20
163.79024502209228
 10
245.91681899780119
 20
161.19024502209231
 42
0.414213562373095
  0
LWPOLYLINE
  5
B2
100
AcDbEntity
  8
0
 62
256
370
-1
 48
1.0
  6
BYLAYER
100
AcDbPolyline
 90
8
 70
1
 10
280.5325776615361
 20
158.99379228678606
 10
283.13257766153612
 20
158.99379228678606
 42
0.414213562373095
 10
285.92257766153608
 20
161.19379228678599
 10
285.92257766153608
 20
163.79379228678596
 42
0.414213562373095
 10
283.13257766153612
 20
165.993792286786
 10
280.5325776615361
 20
165.993792286786
 42
0.414213562373095
 10
277.72257766153604
 20
163.79379228678596
 10
277.72257766153604
 20
161.19379228678599
 42
0.414213562373095
  0
LWPOLYLINE
  5
B3
100
AcDbEntity
  8
0
 62
256
370
-1
 48
1.0
  6
BYLAYER
100
AcDbPolyline
 90
8
 70
1
 10
312.37106033406627
 20
158.993792286786
 10
314.97106033406629
 20
159.00798134556078
 42
0.414213562373095
 10
317.76106033406626
 20
161.20798134556071
 10
317.76106033406626
 20
163.80798134556068
 42
0.414213562373095
 10
314.97106033406629
 20
166.00798134556072
 10
312.37106033406627
 20
166.00798134556072
 42
0.414213562373095
 10
309.56106033406621
 20
163.80798134556068
 10
309.56106033406621
 20
161.20798134556071
 42
0.414213562373095
  0
LWPOLYLINE
  5
B4
100
AcDbEntity
  8
0
 62
256
370
-1
 48
1.0
  6
BYLAYER
100
AcDbPolyline
 90
8
 70
1
 10
344.23257766153603
 20
159.02790952715037
 10
346.83257766153605
 20
158.99379228678606
 42
0.414213562373095
 10
349.62257766153601
 20
161.19379228678599
 10
349.62257766153601
 20
163.79379228678596
 42
0.414213562373095
 10
346.83257766153605
 20
165.993792286786
 10
344.23257766153603
 20
165.993792286786
 42
0.414213562373095
 10
341.42257766153608
 20
163.79379228678596
 10
341.42257766153608
 20
161.19379228678599
 42
0.414213562373095
  0
LWPOLYLINE
  5
B5
100
AcDbEntity
  8
0
 62
256
370
-1
 48
1.0
  6
BYLAYER
100
AcDbPolyline
 90
8
 70
1
 10
375.98257766153603
 20
158.98669775739864
 10
378.58257766153605
 20
158.98669775739864
 42
0.414213562373095
 10
381.37257766153601
 20
161.18669775739858
 10
381.37257766153601
 20
163.78669775739854
 42
0.414213562373095
 10
378.58257766153605
 20
165.98669775739859
 10
375.98257766153603
 20
165.98669775739859
 42
0.414213562373095
 10
373.17257766153608
 20
163.78669775739854
 10
373.17257766153608
 20
161.18669775739858
 42
0.414213562373095
  0
LWPOLYLINE
  5
B6
100
AcDbEntity
  8
0
 62
256
370
-1
 48
1.0
  6
BYLAYER
100
AcDbPolyline
 90
8
 70
1
 10
407.8210603340662
 20
158.98669775739859
 10
410.42106033406623
 20
159.00088681617336
 42
0.414213562373095
 10
413.21106033406619
 20
161.20088681617329
 10
413.21106033406619
 20
163.80088681617326
 42
0.414213562373095
 10
410.42106033406623
 20
166.00088681617331
 10
407.8210603340662
 20
166.00088681617331
 42
0.414213562373095
 10
405.01106033406626
 20
163.80088681617326
 10
405.01106033406626
 20
161.20088681617329
 42
0.414213562373095
  0
LWPOLYLINE
  5
B7
100
AcDbEntity
  8
0
 62
256
370
-1
 48
1.0
  6
BYLAYER
100
AcDbPolyline
 90
8
 70
1
 10
89.598939665933756
 20
123.99911318382669
 10
92.198939665933779
 20
123.99911318382669
 42
0.414213562373095
 10
94.988939665933742
 20
126.19911318382663
 10
94.988939665933742
 20
128.79911318382659
 42
0.414213562373095
 10
92.198939665933779
 20
130.99911318382664
 10
89.598939665933756
 20
130.99911318382664
 42
0.414213562373095
 10
86.788939665933754
 20
128.79911318382659
 10
86.788939665933754
 20
126.19911318382663
 42
0.414213562373095
  0
LWPOLYLINE
  5
B8
100
AcDbEntity
  8
0
 62
256
370
-1
 48
1.0
  6
BYLAYER
100
AcDbPolyline
 90
8
 70
1
 10
121.43742233846393
 20
123.99911318382664
 10
124.03742233846394
 20
124.01330224260141
 42
0.414213562373095
 10
126.8274223384639
 20
126.21330224260134
 10
126.8274223384639
 20
128.81330224260131
 42
0.414213562373095
 10
124.03742233846394
 20
131.01330224260136
 10
121.43742233846393
 20
131.01330224260136
 42
0.414213562373095
 10
118.62742233846393
 20
128.81330224260131
 10
118.62742233846393
 20
126.21330224260134
 42
0.414213562373095
  0
LWPOLYLINE
  5
B9
100
AcDbEntity
  8
0
 62
256
370
-1
 48
1.0
  6
BYLAYER
100
AcDbPolyline
 90
8
 70
1
 10
153.29893966593374
 20
124.033230424191
 10
155.89893966593377
 20
123.99911318382669
 42
0.414213562373095
 10
158.68893966593373
 20
126.19911318382663
 10
158.68893966593373
 20
128.79911318382659
 42
0.414213562373095
 10
155.89893966593377
 20
130.99911318382664
 10
153.29893966593374
 20
130.99911318382664
 42
0.414213562373095
 10
150.48893966593374
 20
128.79911318382659
 10
150.48893966593374
 20
126.19911318382663
 42
0.414213562373095
  0
LWPOLYLINE
  5
BA
100
AcDbEntity
  8
0
 62
256
370
-1
 48
1.0
  6
BYLAYER
100
AcDbPolyline
 90
8
 70
1
 10
185.04893966593374
 20
123.99201865443928
 10
187.64893966593377
 20
123.99201865443928
 42
0.414213562373095
 10
190.43893966593373
 20
126.19201865443921
 10
190.43893966593373
 20
128.79201865443918
 42
0.414213562373095
 10
187.64893966593377
 20
130.99201865443922
 10
185.04893966593374
 20
130.99201865443922
 42
0.414213562373095
 10
182.23893966593374
 20
128.79201865443918
 10
182.23893966593374
 20
126.19201865443921
 42
0.414213562373095
  0
LWPOLYLINE
  5
BB
100
AcDbEntity
  8
0
 62
256
370
-1
 48
1.0
  6
BYLAYER
100
AcDbPolyline
 90
8
 70
1
 10
216.88742233846392
 20
123.99201865443922
 10
219.48742233846394
 20
124.006207713214
 42
0.414213562373095
 10
222.27742233846391
 20
126.20620771321393
 10
222.27742233846391
 20
128.80620771321389
 42
0.414213562373095
 10
219.48742233846394
 20
131.00620771321394
 10
216.88742233846392
 20
131.00620771321394
 42
0.414213562373095
 10
214.07742233846392
 20
128.80620771321389
 10
214.07742233846392
 20
126.20620771321393
 42
0.414213562373095
  0
LWPOLYLINE
  5
BC
100
AcDbEntity
  8
0
 62
256
370
-1
 48
1.0
  6
BYLAYER
100
AcDbPolyline
 90
8
 70
1
 10
248.74893966593373
 20
124.02613589480359
 10
251.34893966593376
 20
123.99201865443928
 42
0.414213562373095
 10
254.13893966593372
 20
126.19201865443921
 10
254.13893966593372
 20
128.79201865443918
 42
0.414213562373095
 10
251.34893966593376
 20
130.99201865443922
 10
248.74893966593373
 20
130.99201865443922
 42
0.414213562373095
 10
245.93893966593373
 20
128.79201865443918
 10
245.93893966593373
 20
126.19201865443921
 42
0.414213562373095
  0
LWPOLYLINE
  5
BD
100
AcDbEntity
  8
0
 62
256
370
-1
 48
1.0
  6
BYLAYER
100
AcDbPolyline
 90
8
 70
1
 10
280.55469832966861
 20
123.99556591913296
 10
283.15469832966863
 20
123.99556591913296
 42
0.414213562373095
 10
285.9446983296686
 20
126.19556591913289
 10
285.9446983296686
 20
128.79556591913286
 42
0.414213562373095
 10
283.15469832966863
 20
130.9955659191329
 10
280.55469832966861
 20
130.9955659191329
 42
0.414213562373095
 10
277.74469832966861
 20
128.79556591913286
 10
277.74469832966861
 20
126.19556591913289
 42
0.414213562373095
  0
LWPOLYLINE
  5
BE
100
AcDbEntity
  8
0
 62
256
370
-1
 48
1.0
  6
BYLAYER
100
AcDbPolyline
 90
8
 70
1
 10
312.39318100219879
 20
123.9955659191329
 10
314.99318100219881
 20
124.00975497790768
 42
0.414213562373095
 10
317.78318100219877
 20
126.20975497790761
 10
317.78318100219877
 20
128.80975497790757
 42
0.414213562373095
 10
314.99318100219881
 20
131.00975497790762
 10
312.39318100219879
 20
131.00975497790762
 42
0.414213562373095
 10
309.58318100219878
 20
128.80975497790757
 10
309.58318100219878
 20
126.20975497790761
 42
0.414213562373095
  0
LWPOLYLINE
  5
BF
100
AcDbEntity
  8
0
 62
256
370
-1
 48
1.0
  6
BYLAYER
100
AcDbPolyline
 90
8
 70
1
 10
344.2546983296686
 20
124.02968315949727
 10
346.85469832966862
 20
123.99556591913296
 42
0.414213562373095
 10
349.64469832966859
 20
126.19556591913289
 10
349.64469832966859
 20
128.79556591913286
 42
0.414213562373095
 10
346.85469832966862
 20
130.9955659191329
 10
344.2546983296686
 20
130.9955659191329
 42
0.414213562373095
 10
341.4446983296686
 20
128.79556591913286
 10
341.4446983296686
 20
126.19556591913289
 42
0.414213562373095
  0
LWPOLYLINE
  5
C0
100
AcDbEntity
  8
0
 62
256
370
-1
 48
1.0
  6
BYLAYER
100
AcDbPolyline
 90
8
 70
1
 10
376.0046983296686
 20
123.98847138974554
 10
378.60469832966862
 20
123.98847138974554
 42
0.414213562373095
 10
381.39469832966859
 20
126.18847138974547
 10
381.39469832966859
 20
128.78847138974544
 42
0.414213562373095
 10
378.60469832966862
 20
130.98847138974548
 10
376.0046983296686
 20
130.98847138974548
 42
0.414213562373095
 10
373.1946983296686
 20
128.78847138974544
 10
373.1946983296686
 20
126.18847138974547
 42
0.414213562373095
  0
LWPOLYLINE
  5
C1
100
AcDbEntity
  8
0
 62
256
370
-1
 48
1.0
  6
BYLAYER
100
AcDbPolyline
 90
8
 70
1
 10
407.84318100219878
 20
123.98847138974548
 10
410.4431810021988
 20
124.00266044852026
 42
0.414213562373095
 10
413.23318100219876
 20
126.20266044852019
 10
413.23318100219876
 20
128.80266044852016
 42
0.414213562373095
 10
410.4431810021988
 20
131.0026604485202
 10
407.84318100219878
 20
131.0026604485202
 42
0.414213562373095
 10
405.03318100219877
 20
128.80266044852016
 10
405.03318100219877
 20
126.20266044852019
 42
0.414213562373095
  0
LWPOLYLINE
  5
C2
100
AcDbEntity
  8
0
 62
256
370
-1
 48
1.0
  6
BYLAYER
100
AcDbPolyline
 90
8
 70
1
 10
89.576818997801212
 20
88.997339551479797
 10
92.176818997801234
 20
88.997339551479797
 42
0.414213562373095
 10
94.966818997801198
 20
91.197339551479729
 10
94.966818997801198
 20
93.797339551479695
 42
0.414213562373095
 10
92.176818997801234
 20
95.99733955147974
 10
89.576818997801212
 20
95.99733955147974
 42
0.414213562373095
 10
86.766818997801209
 20
93.797339551479695
 10
86.766818997801209
 20
91.197339551479729
 42
0.414213562373095
  0
LWPOLYLINE
  5
C3
100
AcDbEntity
  8
0
 62
256
370
-1
 48
1.0
  6
BYLAYER
100
AcDbPolyline
 90
8
 70
1
 10
121.41530167033139
 20
88.99733955147974
 10
124.0153016703314
 20
89.011528610254516
 42
0.414213562373095
 10
126.80530167033136
 20
91.211528610254447
 10
126.80530167033136
 20
93.811528610254413
 42
0.414213562373095
 10
124.0153016703314
 20
96.011528610254459
 10
121.41530167033139
 20
96.011528610254459
 42
0.414213562373095
 10
118.60530167033139
 20
93.811528610254413
 10
118.60530167033139
 20
91.211528610254447
 42
0.414213562373095
  0
LWPOLYLINE
  5
C4
100
AcDbEntity
  8
0
 62
256
370
-1
 48
1.0
  6
BYLAYER
100
AcDbPolyline
 90
8
 70
1
 10
153.2768189978012
 20
89.031456791844107
 10
155.87681899780122
 20
88.997339551479797
 42
0.414213562373095
 10
158.66681899780119
 20
91.197339551479729
 10
158.66681899780119
 20
93.797339551479695
 42
0.414213562373095
 10
155.87681899780122
 20
95.99733955147974
 10
153.2768189978012
 20
95.99733955147974
 42
0.414213562373095
 10
150.4668189978012
 20
93.797339551479695
 10
150.4668189978012
 20
91.197339551479729
 42
0.414213562373095
  0
LWPOLYLINE
  5
C5
100
AcDbEntity
  8
0
 62
256
370
-1
 48
1.0
  6
BYLAYER
100
AcDbPolyline
 90
8
 70
1
 10
185.0268189978012
 20
88.990245022092381
 10
187.62681899780122
 20
88.990245022092381
 42
0.414213562373095
 10
190.41681899780119
 20
91.190245022092313
 10
190.41681899780119
 20
93.790245022092279
 42
0.414213562373095
 10
187.62681899780122
 20
95.990245022092324
 10
185.0268189978012
 20
95.990245022092324
 42
0.414213562373095
 10
182.2168189978012
 20
93.790245022092279
 10
182.2168189978012
 20
91.190245022092313
 42
0.414213562373095
  0
LWPOLYLINE
  5
C6
100
AcDbEntity
  8
0
 62
256
370
-1
 48
1.0
  6
BYLAYER
100
AcDbPolyline
 90
8
 70
1
 10
216.86530167033138
 20
88.990245022092324
 10
219.4653016703314
 20
89.0044340808671
 42
0.414213562373095
 10
222.25530167033136
 20
91.204434080867031
 10
222.25530167033136
 20
93.804434080866997
 42
0.414213562373095
 10
219.4653016703314
 20
96.004434080867043
 10
216.86530167033138
 20
96.004434080867043
 42
0.414213562373095
 10
214.05530167033137
 20
93.804434080866997
 10
214.05530167033137
 20
91.204434080867031
 42
0.414213562373095
  0
LWPOLYLINE
  5
C7
100
AcDbEntity
  8
0
 62
256
370
-1
 48
1.0
  6
BYLAYER
100
AcDbPolyline
 90
8
 70
1
 10
248.72681899780119
 20
89.024362262456691
 10
251.32681899780121
 20
88.990245022092381
 42
0.414213562373095
 10
254.11681899780118
 20
91.190245022092313
 10
254.11681899780118
 20
93.790245022092279
 42
0.414213562373095
 10
251.32681899780121
 20
95.990245022092324
 10
248.72681899780119
 20
95.990245022092324
 42
0.414213562373095
 10
245.91681899780119
 20
93.790245022092279
 10
245.91681899780119
 20
91.190245022092313
 42
0.414213562373095
  0
LWPOLYLINE
  5
C8
100
AcDbEntity
  8
0
 62
256
370
-1
 48
1.0
  6
BYLAYER
100
AcDbPolyline
 90
8
 70
1
 10
280.5325776615361
 20
88.993792286786061
 10
283.13257766153612
 20
88.993792286786061
 42
0.414213562373095
 10
285.92257766153608
 20
91.193792286785992
 10
285.92257766153608
 20
93.793792286785958
 42
0.414213562373095
 10
283.13257766153612
 20
95.993792286786004
 10
280.5325776615361
 20
95.993792286786004
 42
0.414213562373095
 10
277.72257766153604
 20
93.793792286785958
 10
277.72257766153604
 20
91.193792286785992
 42
0.414213562373095
  0
LWPOLYLINE
  5
C9
100
AcDbEntity
  8
0
 62
256
370
-1
 48
1.0
  6
BYLAYER
100
AcDbPolyline
 90
8
 70
1
 10
312.37106033406627
 20
88.993792286786004
 10
314.97106033406629
 20
89.007981345560779
 42
0.414213562373095
 10
317.76106033406626
 20
91.207981345560711
 10
317.76106033406626
 20
93.807981345560677
 42
0.414213562373095
 10
314.97106033406629
 20
96.007981345560722
 10
312.37106033406627
 20
96.007981345560722
 42
0.414213562373095
 10
309.56106033406621
 20
93.807981345560677
 10
309.56106033406621
 20
91.207981345560711
 42
0.414213562373095
  0
LWPOLYLINE
  5
CA
100
AcDbEntity
  8
0
 62
256
370
-1
 48
1.0
  6
BYLAYER
100
AcDbPolyline
 90
8
 70
1
 10
344.23257766153603
 20
89.027909527150371
 10
346.83257766153605
 20
88.993792286786061
 42
0.414213562373095
 10
349.62257766153601
 20
91.193792286785992
 10
349.62257766153601
 20
93.793792286785958
 42
0.414213562373095
 10
346.83257766153605
 20
95.993792286786004
 10
344.23257766153603
 20
95.993792286786004
 42
0.414213562373095
 10
341.42257766153608
 20
93.793792286785958
 10
341.42257766153608
 20
91.193792286785992
 42
0.414213562373095
  0
LWPOLYLINE
  5
CB
100
AcDbEntity
  8
0
 62
256
370
-1
 48
1.0
  6
BYLAYER
100
AcDbPolyline
 90
8
 70
1
 10
375.98257766153603
 20
88.986697757398645
 10
378.58257766153605
 20
88.986697757398645
 42
0.414213562373095
 10
381.37257766153601
 20
91.186697757398576
 10
381.37257766153601
 20
93.786697757398542
 42
0.414213562373095
 10
378.58257766153605
 20
95.986697757398588
 10
375.98257766153603
 20
95.986697757398588
 42
0.414213562373095
 10
373.17257766153608
 20
93.786697757398542
 10
373.17257766153608
 20
91.186697757398576
 42
0.414213562373095
  0
LWPOLYLINE
  5
CC
100
AcDbEntity
  8
0
 62
256
370
-1
 48
1.0
  6
BYLAYER
100
AcDbPolyline
 90
8
 70
1
 10
407.8210603340662
 20
88.986697757398588
 10
410.42106033406623
 20
89.000886816173363
 42
0.414213562373095
 10
413.21106033406619
 20
91.200886816173295
 10
413.21106033406619
 20
93.800886816173261
 42
0.414213562373095
 10
410.42106033406623
 20
96.000886816173306
 10
407.8210603340662
 20
96.000886816173306
 42
0.414213562373095
 10
405.01106033406626
 20
93.800886816173261
 10
405.01106033406626
 20
91.200886816173295
 42
0.414213562373095
  0
LWPOLYLINE
  5
CD
100
AcDbEntity
  8
0
 62
256
370
-1
 48
1.0
  6
BYLAYER
100
AcDbPolyline
 90
8
 70
1
 10
35.70000000000006
 20
459.5
 10
38.300000000000047
 20
459.5
 42
0.414213562373095
 10
40.500000000000057
 20
461.70000000000005
 10
40.500000000000057
 20
464.30000000000007
 42
0.414213562373095
 10
38.300000000000047
 20
466.50000000000006
 10
35.70000000000006
 20
466.50000000000006
 42
0.414213562373095
 10
33.500000000000057
 20
464.30000000000007
 10
33.500000000000057
 20
461.70000000000005
 42
0.414213562373095
  0
LWPOLYLINE
  5
CE
100
AcDbEntity
  8
0
 62
256
370
-1
 48
1.0
  6
BYLAYER
100
AcDbPolyline
 90
8
 70
1
 10
461.70000000000005
 20
459.5
 10
464.30000000000013
 20
459.5
 42
0.414213562373095
 10
466.50000000000011
 20
461.70000000000005
 10
466.50000000000011
 20
464.30000000000007
 42
0.414213562373095
 10
464.30000000000013
 20
466.50000000000006
 10
461.70000000000005
 20
466.50000000000006
 42
0.414213562373095
 10
459.50000000000011
 20
464.30000000000007
 10
459.50000000000011
 20
461.70000000000005
 42
0.414213562373095
  0
LWPOLYLINE
  5
CF
100
AcDbEntity
  8
0
 62
256
370
-1
 48
1.0
  6
BYLAYER
100
AcDbPolyline
 90
8
 70
1
 10
461.70000000000005
 20
33.5
 10
464.30000000000013
 20
33.5
 42
0.414213562373095
 10
466.50000000000011
 20
35.700000000000003
 10
466.50000000000011
 20
38.299999999999997
 42
0.414213562373095
 10
464.30000000000013
 20
40.5
 10
461.70000000000005
 20
40.5
 42
0.414213562373095
 10
459.50000000000011
 20
38.299999999999997
 10
459.50000000000011
 20
35.70000000000001
 42
0.414213562373095
  0
LWPOLYLINE
  5
D0
100
AcDbEntity
  8
0
 62
256
370
-1
 48
1.0
  6
BYLAYER
100
AcDbPolyline
 90
8
 70
1
 10
35.70000000000006
 20
33.5
 10
38.300000000000047
 20
33.5
 42
0.414213562373095
 10
40.500000000000057
 20
35.700000000000003
 10
40.500000000000057
 20
38.299999999999997
 42
0.414213562373095
 10
38.300000000000047
 20
40.5
 10
35.70000000000006
 20
40.5
 42
0.414213562373095
 10
33.500000000000057
 20
38.299999999999997
 10
33.500000000000057
 20
35.70000000000001
 42
0.414213562373095
  0
CIRCLE
  5
D1
100
AcDbEntity
  8
0
 62
256
370
-1
 48
1.0
  6
BYLAYER
100
AcDbCircle
 10
50.0
 20
15.0
 30
0.0
 40
2.5
  0
LWPOLYLINE
  5
D2
100
AcDbEntity
  8
0
 62
256
370
-1
 48
1.0
  6
BYLAYER
100
AcDbPolyline
 90
4
 70
1
 10
500.0
 20
500.0
 10
0.0000000000000711
 20
500.00000000000006
 10
0.0
 20
0.0
 10
500.0
 20
0.0
  0
ENDSEC
  0
SECTION
  2
OBJECTS
  0
DICTIONARY
  5
C
100
AcDbDictionary
280
0
281
1
  3
ACAD_GROUP
350
D
  3
ACAD_LAYOUT
350
1A
  3
ACAD_MLINESTYLE
350
17
  3
ACAD_PLOTSETTINGS
350
19
  3
ACAD_PLOTSTYLENAME
350
E
  3
AcDbVariableDictionary
350
D3
  3
QCAD_OBJECTS
350
D4
  0
DICTIONARY
  5
D
100
AcDbDictionary
280
0
281
1
  0
ACDBDICTIONARYWDFLT
  5
E
100
AcDbDictionary
281
1
  3
Normal
350
F
100
AcDbDictionaryWithDefault
340
F
  0
ACDBPLACEHOLDER
  5
F
  0
DICTIONARY
  5
17
100
AcDbDictionary
280
0
281
1
  3
Standard
350
18
  0
MLINESTYLE
  5
18
100
AcDbMlineStyle
  2
STANDARD
 70
0
  3

 62
256
 51
90.0
 52
90.0
 71
2
 49
0.5
 62
256
  6
BYLAYER
 49
-0.5
 62
256
  6
BYLAYER
  0
DICTIONARY
  5
19
100
AcDbDictionary
280
0
281
1
  0
DICTIONARY
  5
1A
100
AcDbDictionary
281
1
  3
Layout1
350
1E
  3
Layout2
350
26
  3
Model
350
22
  0
LAYOUT
  5
1E
100
AcDbPlotSettings
  1

  2
none_device
  4

  6

 40
0.0
 41
0.0
 42
0.0
 43
0.0
 44
0.0
 45
0.0
 46
0.0
 47
0.0
 48
0.0
 49
0.0
140
0.0
141
0.0
142
1.0
143
1.0
 70
688
 72
0
 73
0
 74
5
  7

 75
16
147
1.0
148
0.0
149
0.0
100
AcDbLayout
  1
Layout1
 70
1
 71
1
 10
0.0
 20
0.0
 11
420.0
 21
297.0
 12
0.0
 22
0.0
 32
0.0
 14
100000000000000000000.0
 24
100000000000000000000.0
 34
100000000000000000000.0
 15
-100000000000000000000.0
 25
-100000000000000000000.0
 35
-100000000000000000000.0
146
0.0
 13
0.0
 23
0.0
 33
0.0
 16
1.0
 26
0.0
 36
0.0
 17
0.0
 27
1.0
 37
0.0
 76
0
330
1B
  0
LAYOUT
  5
22
100
AcDbPlotSettings
  1

  2
none_device
  4

  6

 40
0.0
 41
0.0
 42
0.0
 43
0.0
 44
0.0
 45
0.0
 46
0.0
 47
0.0
 48
0.0
 49
0.0
140
0.0
141
0.0
142
1.0
143
1.0
 70
1712
 72
0
 73
0
 74
0
  7

 75
0
147
1.0
148
0.0
149
0.0
100
AcDbLayout
  1
Model
 70
1
 71
0
 10
0.0
 20
0.0
 11
12.0
 21
9.0
 12
0.0
 22
0.0
 32
0.0
 14
0.0
 24
0.0
 34
0.0
 15
0.0
 25
0.0
 35
0.0
146
0.0
 13
0.0
 23
0.0
 33
0.0
 16
1.0
 26
0.0
 36
0.0
 17
0.0
 27
1.0
 37
0.0
 76
0
330
1F
  0
LAYOUT
  5
26
100
AcDbPlotSettings
  1

  2
none_device
  4

  6

 40
0.0
 41
0.0
 42
0.0
 43
0.0
 44
0.0
 45
0.0
 46
0.0
 47
0.0
 48
0.0
 49
0.0
140
0.0
141
0.0
142
1.0
143
1.0
 70
688
 72
0
 73
0
 74
5
  7

 75
16
147
1.0
148
0.0
149
0.0
100
AcDbLayout
  1
Layout2
 70
1
 71
2
 10
0.0
 20
0.0
 11
12.0
 21
9.0
 12
0.0
 22
0.0
 32
0.0
 14
0.0
 24
0.0
 34
0.0
 15
0.0
 25
0.0
 35
0.0
146
0.0
 13
0.0
 23
0.0
 33
0.0
 16
1.0
 26
0.0
 36
0.0
 17
0.0
 27
1.0
 37
0.0
 76
0
330
23
  0
DICTIONARY
  5
D3
100
AcDbDictionary
281
1
  3
DIMASSOC
350
D6
  3
HIDETEXT
350
D5
  0
DICTIONARYVAR
  5
D5
100
DictionaryVariables
280
0
  1
2
  0
DICTIONARYVAR
  5
D6
100
DictionaryVariables
280
0
  1
1
  0
DICTIONARY
  5
D4
100
AcDbDictionary
281
1
  3
ColorSettings/BackgroundColor
350
D7
  3
ColorSettings/ColorMode
350
D8
  3
Grid/DisplayGrid00
350
D9
  3
Grid/DisplayGrid01
350
DA
  3
Grid/DisplayGrid02
350
DB
  3
Grid/DisplayGrid03
350
DC
  3
Grid/GridSpacingX00
350
DD
  3
Grid/GridSpacingX01
350
DE
  3
Grid/GridSpacingX02
350
DF
  3
Grid/GridSpacingX03
350
E0
  3
Grid/GridSpacingY00
350
E1
  3
Grid/GridSpacingY01
350
E2
  3
Grid/GridSpacingY02
350
E3
  3
Grid/GridSpacingY03
350
E4
  3
Grid/IsometricGrid00
350
E5
  3
Grid/IsometricGrid01
350
E6
  3
Grid/IsometricGrid02
350
E7
  3
Grid/IsometricGrid03
350
E8
  3
Grid/IsometricProjection00
350
E9
  3
Grid/IsometricProjection01
350
EA
  3
Grid/IsometricProjection02
350
EB
  3
Grid/IsometricProjection03
350
EC
  3
Grid/MetaGridSpacingX00
350
ED
  3
Grid/MetaGridSpacingX01
350
EE
  3
Grid/MetaGridSpacingX02
350
EF
  3
Grid/MetaGridSpacingX03
350
F0
  3
Grid/MetaGridSpacingY00
350
F1
  3
Grid/MetaGridSpacingY01
350
F2
  3
Grid/MetaGridSpacingY02
350
F3
  3
Grid/MetaGridSpacingY03
350
F4
  3
MultiPageSettings/Columns
350
F5
  3
MultiPageSettings/GlueMarginsBottom
350
F6
  3
MultiPageSettings/GlueMarginsLeft
350
F7
  3
MultiPageSettings/GlueMarginsRight
350
F8
  3
MultiPageSettings/GlueMarginsTop
350
F9
  3
MultiPageSettings/PrintCropMarks
350
FA
  3
MultiPageSettings/Rows
350
FB
  3
PageSettings/OffsetX
350
FC
  3
PageSettings/OffsetY
350
FD
  3
PageSettings/PageOrientation
350
FE
  3
PageSettings/PaperHeight
350
FF
  3
PageSettings/PaperWidth
350
100
  3
PageSettings/Scale
350
101
  3
PageSettings/ShowPaperBorders
350
102
  3
QCADVersion
350
103
  3
UnitSettings/PaperUnit
350
104
  3
ViewportCenter
350
105
  3
ViewportHeight
350
106
  3
ViewportWidth
350
107
  0
XRECORD
  5
D7
330
D4
100
AcDbXrecord
280
1
1000
Weiss
  0
XRECORD
  5
D8
330
D4
100
AcDbXrecord
280
1
1000
FullColor
  0
XRECORD
  5
D9
330
D4
100
AcDbXrecord
280
1
290
1
  0
XRECORD
  5
DA
330
D4
100
AcDbXrecord
280
1
290
1
  0
XRECORD
  5
DB
330
D4
100
AcDbXrecord
280
1
290
1
  0
XRECORD
  5
DC
330
D4
100
AcDbXrecord
280
1
290
1
  0
XRECORD
  5
DD
330
D4
100
AcDbXrecord
280
1
1000
auto
  0
XRECORD
  5
DE
330
D4
100
AcDbXrecord
280
1
1000
auto
  0
XRECORD
  5
DF
330
D4
100
AcDbXrecord
280
1
1000
auto
  0
XRECORD
  5
E0
330
D4
100
AcDbXrecord
280
1
1000
auto
  0
XRECORD
  5
E1
330
D4
100
AcDbXrecord
280
1
1000
auto
  0
XRECORD
  5
E2
330
D4
100
AcDbXrecord
280
1
1000
auto
  0
XRECORD
  5
E3
330
D4
100
AcDbXrecord
280
1
1000
auto
  0
XRECORD
  5
E4
330
D4
100
AcDbXrecord
280
1
1000
auto
  0
XRECORD
  5
E5
330
D4
100
AcDbXrecord
280
1
290
0
  0
XRECORD
  5
E6
330
D4
100
AcDbXrecord
280
1
290
0
  0
XRECORD
  5
E7
330
D4
100
AcDbXrecord
280
1
290
0
  0
XRECORD
  5
E8
330
D4
100
AcDbXrecord
280
1
290
0
  0
XRECORD
  5
E9
330
D4
100
AcDbXrecord
280
1
 90
65537
  0
XRECORD
  5
EA
330
D4
100
AcDbXrecord
280
1
 90
65537
  0
XRECORD
  5
EB
330
D4
100
AcDbXrecord
280
1
 90
65537
  0
XRECORD
  5
EC
330
D4
100
AcDbXrecord
280
1
 90
65537
  0
XRECORD
  5
ED
330
D4
100
AcDbXrecord
280
1
1000
auto
  0
XRECORD
  5
EE
330
D4
100
AcDbXrecord
280
1
1000
auto
  0
XRECORD
  5
EF
330
D4
100
AcDbXrecord
280
1
1000
auto
  0
XRECORD
  5
F0
330
D4
100
AcDbXrecord
280
1
1000
auto
  0
XRECORD
  5
F1
330
D4
100
AcDbXrecord
280
1
1000
auto
  0
XRECORD
  5
F2
330
D4
100
AcDbXrecord
280
1
1000
auto
  0
XRECORD
  5
F3
330
D4
100
AcDbXrecord
280
1
1000
auto
  0
XRECORD
  5
F4
330
D4
100
AcDbXrecord
280
1
1000
auto
  0
XRECORD
  5
F5
330
D4
100
AcDbXrecord
280
1
 90
1
  0
XRECORD
  5
F6
330
D4
100
AcDbXrecord
280
1
 40
10.0
  0
XRECORD
  5
F7
330
D4
100
AcDbXrecord
280
1
 40
10.0
  0
XRECORD
  5
F8
330
D4
100
AcDbXrecord
280
1
 40
10.0
  0
XRECORD
  5
F9
330
D4
100
AcDbXrecord
280
1
 40
10.0
  0
XRECORD
  5
FA
330
D4
100
AcDbXrecord
280
1
290
0
  0
XRECORD
  5
FB
330
D4
100
AcDbXrecord
280
1
 90
1
  0
XRECORD
  5
FC
330
D4
100
AcDbXrecord
280
1
 40
0.0
  0
XRECORD
  5
FD
330
D4
100
AcDbXrecord
280
1
 40
0.0
  0
XRECORD
  5
FE
330
D4
100
AcDbXrecord
280
1
1000
Portrait
  0
XRECORD
  5
FF
330
D4
100
AcDbXrecord
280
1
 40
297.0
  0
XRECORD
  5
100
330
D4
100
AcDbXrecord
280
1
 40
210.0
  0
XRECORD
  5
101
330
D4
100
AcDbXrecord
280
1
1000
1:1
  0
XRECORD
  5
102
330
D4
100
AcDbXrecord
280
1
290
1
  0
XRECORD
  5
103
330
D4
100
AcDbXrecord
280
1
1000
3.22.0
  0
XRECORD
  5
104
330
D4
100
AcDbXrecord
280
1
 90
4
  0
XRECORD
  5
106
330
D4
100
AcDbXrecord
280
1
 40
121.80729017188237
  0
XRECORD
  5
107
330
D4
100
AcDbXrecord
280
1
 40
236.33921278598712
  0
ENDSEC
  0
EOF
