<?xml version="1.0" encoding="utf-8"?>
<!-- Generator: Adobe Illustrator 24.3.0, SVG Export Plug-In . SVG Version: 6.00 Build 0)  -->
<svg version="1.1"
	 id="svg918" inkscape:version="0.92.4 (5da689c313, 2019-01-14)" sodipodi:docname="UHR242_Front.svg" xmlns:cc="http://creativecommons.org/ns#" xmlns:dc="http://purl.org/dc/elements/1.1/" xmlns:inkscape="http://www.inkscape.org/namespaces/inkscape" xmlns:rdf="http://www.w3.org/1999/02/22-rdf-syntax-ns#" xmlns:sodipodi="http://sodipodi.sourceforge.net/DTD/sodipodi-0.dtd" xmlns:svg="http://www.w3.org/2000/svg"
	 xmlns="http://www.w3.org/2000/svg" xmlns:xlink="http://www.w3.org/1999/xlink" x="0px" y="0px" viewBox="0 0 850.4 1417.3"
	 style="enable-background:new 0 0 850.4 1417.3;" xml:space="preserve">
<style type="text/css">
	.st0{fill:#60BE6D;fill-opacity:0.3569;}
	.st1{enable-background:new    ;}
	.st2{display:none;}
	.st3{display:inline;fill:none;stroke:#FF0000;stroke-width:0.2835;}
	.st4{display:none;fill:none;stroke:#FF0000;stroke-width:0.2835;}
</style>
<sodipodi:namedview  bordercolor="#666666" borderopacity="1" gridtolerance="10" guidetolerance="10" id="namedview920" inkscape:current-layer="g916" inkscape:cx="480.87947" inkscape:cy="812.14096" inkscape:document-units="mm" inkscape:pageopacity="0" inkscape:pageshadow="2" inkscape:window-height="1109" inkscape:window-maximized="1" inkscape:window-width="1920" inkscape:window-x="1920" inkscape:window-y="0" inkscape:zoom="0.6223" objecttolerance="10" pagecolor="#ffffff" showgrid="false">
	</sodipodi:namedview>
<g id="g916" transform="translate(0,-105.82649)">
	<path id="path2" inkscape:connector-curvature="0" sodipodi:insensitive="true" class="st0" d="M0,105.8h850.4v1417.3H0V105.8z"/>
	<path id="path8" inkscape:connector-curvature="0" d="M358.9,828.3c0,3.5-2.9,6.4-6.4,6.4c-3.5,0-6.4-2.9-6.4-6.4
		c0-3.5,2.9-6.4,6.4-6.4C356.1,821.9,358.9,824.8,358.9,828.3"/>
	<g>
		<g class="st1">
			<path d="M181.8,283.5h13.6v2.5h-10.6v7.4h9v2.5h-9v8.6h11v2.5h-14V283.5z"/>
		</g>
	</g>
	<g>
		<g class="st1">
			<path d="M227.3,304l1.8-2.1c1.7,1.8,4.1,2.9,6.5,2.9c3.1,0,4.9-1.5,4.9-3.8c0-2.4-1.7-3.2-3.9-4.2l-3.4-1.5
				c-2.2-0.9-4.8-2.6-4.8-6.1c0-3.6,3.1-6.3,7.4-6.3c2.8,0,5.3,1.2,7,2.9l-1.6,1.9c-1.4-1.4-3.2-2.2-5.4-2.2c-2.6,0-4.4,1.3-4.4,3.4
				c0,2.3,2.1,3.1,3.9,3.9l3.4,1.5c2.7,1.2,4.9,2.8,4.9,6.3c0,3.7-3.1,6.7-8.1,6.7C232.3,307.5,229.4,306.2,227.3,304z"/>
		</g>
	</g>
	<g>
		<g class="st1">
			<path d="M276.3,283.5h3v11.9h0.1l9.8-11.9h3.4l-7.4,9l8.5,14.6h-3.4l-7-12.3l-4.1,4.8v7.5h-3V283.5z"/>
		</g>
	</g>
	<g>
		<g class="st1">
			<path d="M329.5,283.5h3v23.6h-3V283.5z"/>
		</g>
	</g>
	<g>
		<g class="st1">
			<path d="M369.1,304l1.8-2.1c1.7,1.8,4.1,2.9,6.5,2.9c3.1,0,4.9-1.5,4.9-3.8c0-2.4-1.7-3.2-3.9-4.2l-3.4-1.5
				c-2.2-0.9-4.8-2.6-4.8-6.1c0-3.6,3.1-6.3,7.4-6.3c2.8,0,5.3,1.2,7,2.9l-1.6,1.9c-1.4-1.4-3.2-2.2-5.4-2.2c-2.6,0-4.4,1.3-4.4,3.4
				c0,2.3,2.1,3.1,3.9,3.9l3.4,1.5c2.7,1.2,4.9,2.8,4.9,6.3c0,3.7-3.1,6.7-8.1,6.7C374,307.5,371.1,306.2,369.1,304z"/>
		</g>
	</g>
	<g>
		<g class="st1">
			<path d="M422.9,286h-7.1v-2.5h17.3v2.5H426v21.1h-3V286z"/>
		</g>
	</g>
	<g>
		<g class="st1">
			<path d="M465.3,283.5h3v21.1h10.3v2.5h-13.3V283.5z"/>
		</g>
	</g>
	<g>
		<g class="st1">
			<path d="M512.5,283.5h13.6v2.5h-10.6v8h9v2.5h-9v10.6h-3V283.5z"/>
		</g>
	</g>
	<g>
		<g class="st1">
			<path d="M558.7,297.3v-13.9h3v14c0,5.7,2.4,7.5,5.5,7.5c3.1,0,5.6-1.8,5.6-7.5v-14h2.9v13.9c0,7.6-3.7,10.2-8.5,10.2
				S558.7,304.9,558.7,297.3z M561.7,279.6c0-1,0.7-1.8,1.8-1.8s1.8,0.7,1.8,1.8c0,1-0.7,1.8-1.8,1.8S561.7,280.6,561.7,279.6z
				 M569.1,279.6c0-1,0.7-1.8,1.8-1.8s1.8,0.7,1.8,1.8c0,1-0.7,1.8-1.8,1.8S569.1,280.6,569.1,279.6z"/>
		</g>
	</g>
	<g>
		<g class="st1">
			<path d="M607,283.5h3.1l8.6,14.9l2.5,4.9h0.1c-0.2-2.4-0.4-5-0.4-7.5v-12.2h2.9v23.6h-3.1l-8.5-14.9l-2.6-4.9h-0.1
				c0.2,2.4,0.4,4.9,0.4,7.4v12.4H607V283.5z"/>
		</g>
	</g>
	<g>
		<g class="st1">
			<path d="M654.2,283.5h13.6v2.5h-10.6v8h9v2.5h-9v10.6h-3V283.5z"/>
		</g>
	</g>
	<g>
		<g class="st1">
			<path d="M180.2,357.8l12.4-19.3h-11.3v-2.5h15v1.8L183.9,357h12.6v2.5h-16.3V357.8z"/>
		</g>
	</g>
	<g>
		<g class="st1">
			<path d="M229.1,335.9h13.6v2.5h-10.6v7.4h9v2.5h-9v8.6h11v2.5h-14V335.9z"/>
		</g>
	</g>
	<g>
		<g class="st1">
			<path d="M276.3,335.9h3v9.9h11v-9.9h3v23.6h-3v-11.1h-11v11.1h-3V335.9z"/>
		</g>
	</g>
	<g>
		<g class="st1">
			<path d="M323.5,335.9h3.1l8.6,14.9l2.5,4.9h0.1c-0.2-2.4-0.4-5-0.4-7.5v-12.2h2.9v23.6h-3.1l-8.5-14.9l-2.6-4.9H326
				c0.2,2.4,0.4,4.9,0.4,7.4v12.4h-2.9V335.9z"/>
		</g>
	</g>
	<g>
		<g class="st1">
			<path d="M369.2,357.8l12.4-19.3h-11.3v-2.5h15v1.8L372.9,357h12.6v2.5h-16.3V357.8z"/>
		</g>
	</g>
	<g>
		<g class="st1">
			<path d="M411.6,335.9h3.1l2.5,12.9c0.5,2.5,0.9,5.1,1.4,7.6h0.1c0.5-2.5,1.1-5.1,1.7-7.6l3.3-12.9h2.7l3.3,12.9
				c0.6,2.5,1.1,5.1,1.7,7.6h0.1c0.5-2.6,0.9-5.1,1.3-7.6l2.5-12.9h2.9l-4.9,23.6h-3.6l-3.6-14.2c-0.4-1.8-0.8-3.6-1.1-5.4h-0.1
				c-0.4,1.8-0.8,3.5-1.2,5.4l-3.5,14.2h-3.6L411.6,335.9z"/>
		</g>
	</g>
	<g>
		<g class="st1">
			<path d="M470.1,335.9h3.4l8,23.6h-3.2l-4.1-13.2c-0.8-2.6-1.6-5.2-2.4-8h-0.1c-0.7,2.7-1.5,5.3-2.3,8l-4.2,13.2h-3.1L470.1,335.9
				z M466.3,349.9h10.9v2.4h-10.9V349.9z"/>
		</g>
	</g>
	<g>
		<g class="st1">
			<path d="M512.5,335.9h3.1l8.6,14.9l2.5,4.9h0.1c-0.2-2.4-0.4-5-0.4-7.5v-12.2h2.9v23.6h-3.1l-8.5-14.9l-2.6-4.9H515
				c0.2,2.4,0.4,4.9,0.4,7.4v12.4h-2.9V335.9z"/>
		</g>
	</g>
	<g>
		<g class="st1">
			<path d="M558.1,357.8l12.4-19.3h-11.3v-2.5h15v1.8L561.9,357h12.6v2.5h-16.3V357.8z"/>
		</g>
	</g>
	<g>
		<g class="st1">
			<path d="M613,335.9h3v23.6h-3V335.9z"/>
		</g>
	</g>
	<g>
		<g class="st1">
			<path d="M652.9,347.8c0-7.6,4.6-12.3,10.8-12.3c3.3,0,5.4,1.5,6.8,2.9l-1.6,2c-1.2-1.2-2.7-2.2-5.1-2.2c-4.8,0-7.8,3.7-7.8,9.5
				c0,5.9,2.8,9.7,7.8,9.7c1.7,0,3.3-0.5,4.3-1.4v-6.2h-5v-2.5h7.7v9.9c-1.5,1.6-4.1,2.7-7.3,2.7C657.3,360,652.9,355.4,652.9,347.8
				z"/>
		</g>
	</g>
	<g>
		<g class="st1">
			<path d="M181.8,388.4h5.9c7.3,0,11.2,4.2,11.2,11.7s-3.9,11.9-11,11.9h-6V388.4z M187.5,409.5c5.5,0,8.3-3.5,8.3-9.4
				s-2.8-9.3-8.3-9.3h-2.7v18.7H187.5z"/>
		</g>
	</g>
	<g>
		<g class="st1">
			<path d="M229.1,388.4h7.4c4.8,0,8.3,1.7,8.3,6.6c0,4.7-3.5,7-8.3,7h-4.4v10h-3V388.4z M236,399.6c3.7,0,5.7-1.5,5.7-4.6
				c0-3.1-2-4.2-5.7-4.2h-4v8.8H236z M235.9,401.2l2.4-1.6l7.2,12.4H242L235.9,401.2z"/>
		</g>
	</g>
	<g>
		<g class="st1">
			<path d="M276.3,388.4h13.6v2.5h-10.6v7.4h9v2.5h-9v8.6h11v2.5h-14V388.4z"/>
		</g>
	</g>
	<g>
		<g class="st1">
			<path d="M329.5,388.4h3V412h-3V388.4z"/>
		</g>
	</g>
	<g>
		<g class="st1">
			<path d="M367.6,388.4h3.2l3.8,12.8c0.8,2.8,1.4,5,2.3,7.8h0.1c0.9-2.8,1.5-5,2.3-7.8l3.8-12.8h3.1l-7.5,23.6h-3.5L367.6,388.4z"
				/>
		</g>
	</g>
	<g>
		<g class="st1">
			<path d="M424,388.4h3V412h-3V388.4z"/>
		</g>
	</g>
	<g>
		<g class="st1">
			<path d="M465.3,388.4h13.6v2.5h-10.6v7.4h9v2.5h-9v8.6h11v2.5h-14V388.4z"/>
		</g>
	</g>
	<g>
		<g class="st1">
			<path d="M512.5,388.4h7.4c4.8,0,8.3,1.7,8.3,6.6c0,4.7-3.5,7-8.3,7h-4.4v10h-3V388.4z M519.5,399.6c3.7,0,5.7-1.5,5.7-4.6
				c0-3.1-2-4.2-5.7-4.2h-4v8.8H519.5z M519.3,401.2l2.4-1.6l7.2,12.4h-3.4L519.3,401.2z"/>
		</g>
	</g>
	<g>
		<g class="st1">
			<path d="M564.7,390.9h-7.1v-2.5h17.3v2.5h-7.1V412h-3V390.9z"/>
		</g>
	</g>
	<g>
		<g class="st1">
			<path d="M607,388.4h13.6v2.5H610v7.4h9v2.5h-9v8.6h11v2.5h-14V388.4z"/>
		</g>
	</g>
	<g>
		<g class="st1">
			<path d="M654.2,388.4h3v21.1h10.3v2.5h-13.3V388.4z"/>
		</g>
	</g>
	<g>
		<g class="st1">
			<path d="M186.7,443.3h-7.1v-2.5h17.3v2.5h-7.1v21.1h-3V443.3z"/>
		</g>
	</g>
	<g>
		<g class="st1">
			<path d="M227.7,452.6c0-7.6,4.6-12.3,10.8-12.3c3.3,0,5.4,1.5,6.8,2.9l-1.6,2c-1.2-1.2-2.7-2.2-5.1-2.2c-4.8,0-7.8,3.7-7.8,9.5
				c0,5.9,2.8,9.7,7.8,9.7c1.7,0,3.3-0.5,4.3-1.4v-6.2h-5v-2.5h7.7v9.9c-1.5,1.6-4.1,2.7-7.3,2.7
				C232.1,464.9,227.7,460.3,227.7,452.6z"/>
		</g>
	</g>
	<g>
		<g class="st1">
			<path d="M276.3,440.8h3.1l8.6,14.9l2.6,4.9h0.1c-0.2-2.4-0.4-5-0.4-7.5v-12.2h2.9v23.6H290l-8.5-14.9l-2.6-4.9h-0.1
				c0.2,2.4,0.4,4.9,0.4,7.4v12.4h-2.9V440.8z"/>
		</g>
	</g>
	<g>
		<g class="st1">
			<path d="M328.4,440.8h3.4l8,23.6h-3.2l-4.1-13.2c-0.8-2.6-1.6-5.2-2.4-8H330c-0.7,2.7-1.5,5.3-2.3,8l-4.2,13.2h-3.1L328.4,440.8z
				 M324.6,454.8h10.9v2.4h-10.9V454.8z"/>
		</g>
	</g>
	<g>
		<g class="st1">
			<path d="M369.4,452.6c0-7.6,4.5-12.3,10.5-12.3c2.9,0,5.1,1.4,6.5,2.9l-1.6,2c-1.2-1.3-2.8-2.2-4.8-2.2c-4.5,0-7.4,3.7-7.4,9.5
				c0,5.9,2.8,9.7,7.3,9.7c2.3,0,4-1,5.5-2.7l1.6,1.9c-1.9,2.2-4.2,3.4-7.2,3.4C373.8,464.9,369.4,460.3,369.4,452.6z"/>
		</g>
	</g>
	<g>
		<g class="st1">
			<path d="M418,440.8h3v9.9h11v-9.9h3v23.6h-3v-11.1h-11v11.1h-3V440.8z"/>
		</g>
	</g>
	<g>
		<g class="st1">
			<path d="M462,440.8h3.2l3.8,12.8c0.8,2.8,1.4,5,2.3,7.8h0.1c0.9-2.8,1.5-5,2.3-7.8l3.8-12.8h3.1l-7.5,23.6h-3.5L462,440.8z"/>
		</g>
	</g>
	<g>
		<g class="st1">
			<path d="M511.1,452.5c0-7.6,4.2-12.2,10.1-12.2c5.9,0,10.1,4.6,10.1,12.2c0,7.6-4.2,12.3-10.1,12.3
				C515.3,464.9,511.1,460.1,511.1,452.5z M528.2,452.5c0-5.9-2.8-9.5-7-9.5s-7,3.6-7,9.5s2.8,9.7,7,9.7S528.2,458.4,528.2,452.5z"
				/>
		</g>
	</g>
	<g>
		<g class="st1">
			<path d="M559.8,440.8h7.4c4.8,0,8.3,1.7,8.3,6.6c0,4.7-3.5,7-8.3,7h-4.4v10h-3V440.8z M566.7,452c3.7,0,5.7-1.5,5.7-4.6
				c0-3.1-2-4.2-5.7-4.2h-4v8.8H566.7z M566.6,453.6l2.4-1.6l7.2,12.4h-3.4L566.6,453.6z"/>
		</g>
	</g>
	<g>
		<g class="st1">
			<path d="M604.9,461.1l2.1-1.5c1.1,1.9,2.4,2.6,4.1,2.6c2.5,0,3.8-1.4,3.8-5v-16.4h3v16.7c0,4.1-1.9,7.4-6.5,7.4
				C608.4,464.9,606.3,463.6,604.9,461.1z"/>
		</g>
	</g>
	<g>
		<g class="st1">
			<path d="M654.2,440.8h3.6l4.5,12.6c0.6,1.6,1.1,3.3,1.7,4.9h0.1c0.6-1.6,1.1-3.3,1.6-4.9l4.5-12.6h3.6v23.6h-2.8v-13
				c0-2.1,0.2-4.9,0.4-7h-0.1l-1.9,5.4l-4.4,12.2h-2l-4.5-12.2l-1.9-5.4h-0.1c0.2,2.1,0.4,4.9,0.4,7v13h-2.7V440.8z"/>
		</g>
	</g>
	<g>
		<g class="st1">
			<path d="M181.8,493.2h3v9.9h11v-9.9h3v23.6h-3v-11.1h-11v11.1h-3V493.2z"/>
		</g>
	</g>
	<g>
		<g class="st1">
			<path d="M233.9,493.2h3.4l8,23.6h-3.2l-4.1-13.2c-0.8-2.6-1.6-5.2-2.4-8h-0.1c-0.7,2.7-1.5,5.3-2.3,8l-4.2,13.2h-3.1L233.9,493.2
				z M230.1,507.3H241v2.4h-10.9V507.3z"/>
		</g>
	</g>
	<g>
		<g class="st1">
			<path d="M276.3,493.2h3v21.1h10.3v2.5h-13.3V493.2z"/>
		</g>
	</g>
	<g>
		<g class="st1">
			<path d="M323.5,493.2h7c4.8,0,8.1,1.6,8.1,5.8c0,2.3-1.2,4.4-3.5,5.1v0.1c2.8,0.6,4.8,2.4,4.8,5.7c0,4.6-3.7,6.9-8.9,6.9h-7.6
				V493.2z M330,503.3c4,0,5.7-1.5,5.7-3.9c0-2.8-1.9-3.8-5.5-3.8h-3.6v7.7H330z M330.7,514.5c4,0,6.4-1.5,6.4-4.6
				c0-2.9-2.3-4.2-6.4-4.2h-4.1v8.9H330.7z"/>
		</g>
	</g>
	<g>
		<g class="st1">
			<path d="M369.4,505c0-7.6,4.2-12.2,10.1-12.2c5.9,0,10.1,4.6,10.1,12.2c0,7.6-4.2,12.3-10.1,12.3
				C373.6,517.3,369.4,512.5,369.4,505z M386.5,505c0-5.9-2.8-9.5-7-9.5s-7,3.6-7,9.5c0,6,2.8,9.8,7,9.8S386.5,511,386.5,505z
				 M377.9,516.8l3.1-0.2c1,2.5,3.3,3.7,6.1,3.7c1.1,0,1.9-0.2,2.5-0.3l0.6,2.3c-0.7,0.3-2,0.5-3.4,0.5
				C382.2,522.8,379.2,520.2,377.9,516.8z"/>
		</g>
	</g>
	<g>
		<g class="st1">
			<path d="M416.4,515.1l12.4-19.3h-11.3v-2.5h15v1.8l-12.4,19.3h12.6v2.5h-16.3V515.1z"/>
		</g>
	</g>
	<g>
		<g class="st1">
			<path d="M458.9,493.2h3.1l2.5,12.9c0.5,2.5,0.9,5.1,1.4,7.6h0.1c0.5-2.5,1.1-5.1,1.7-7.6l3.3-12.9h2.7l3.3,12.9
				c0.6,2.5,1.1,5.1,1.7,7.6h0.1c0.5-2.6,0.9-5.1,1.3-7.6l2.5-12.9h2.9l-4.9,23.6H477l-3.6-14.2c-0.4-1.8-0.8-3.6-1.1-5.4h-0.1
				c-0.4,1.8-0.8,3.5-1.2,5.4l-3.5,14.2h-3.6L458.9,493.2z"/>
		</g>
	</g>
	<g>
		<g class="st1">
			<path d="M511.1,505c0-7.6,4.2-12.2,10.1-12.2c5.9,0,10.1,4.6,10.1,12.2c0,7.6-4.2,12.3-10.1,12.3
				C515.3,517.3,511.1,512.5,511.1,505z M528.2,505c0-5.9-2.8-9.5-7-9.5s-7,3.6-7,9.5s2.8,9.7,7,9.7S528.2,510.9,528.2,505z
				 M515.8,489.4c0-1,0.7-1.8,1.8-1.8s1.8,0.7,1.8,1.8c0,1-0.7,1.8-1.8,1.8S515.8,490.4,515.8,489.4z M523.2,489.4
				c0-1,0.7-1.8,1.8-1.8c1,0,1.8,0.7,1.8,1.8c0,1-0.7,1.8-1.8,1.8C523.9,491.1,523.2,490.4,523.2,489.4z"/>
		</g>
	</g>
	<g>
		<g class="st1">
			<path d="M559.8,493.2h3v21.1h10.3v2.5h-13.3V493.2z"/>
		</g>
	</g>
	<g>
		<g class="st1">
			<path d="M607,493.2h13.6v2.5H610v8h9v2.5h-9v10.6h-3V493.2z"/>
		</g>
	</g>
	<g>
		<g class="st1">
			<path d="M654.2,493.2h6.7c5.3,0,8.9,1.8,8.9,7c0,5-3.6,7.3-8.7,7.3h-3.9v9.4h-3V493.2z M660.8,505.1c4.1,0,6.1-1.5,6.1-4.9
				c0-3.4-2.1-4.5-6.2-4.5h-3.4v9.4H660.8z"/>
		</g>
	</g>
	<g>
		<g class="st1">
			<path d="M180.2,567.5l12.4-19.3h-11.3v-2.5h15v1.8l-12.4,19.3h12.6v2.5h-16.3V567.5z"/>
		</g>
	</g>
	<g>
		<g class="st1">
			<path d="M222.6,545.7h3.1l2.5,12.9c0.5,2.5,0.9,5.1,1.4,7.6h0.1c0.5-2.5,1.1-5.1,1.7-7.6l3.3-12.9h2.7l3.3,12.9
				c0.6,2.5,1.1,5.1,1.7,7.6h0.1c0.5-2.6,0.9-5.1,1.3-7.6l2.5-12.9h2.9l-4.9,23.6h-3.6l-3.6-14.2c-0.4-1.8-0.8-3.6-1.1-5.4h-0.1
				c-0.4,1.8-0.8,3.5-1.2,5.4l-3.5,14.2h-3.6L222.6,545.7z"/>
		</g>
	</g>
	<g>
		<g class="st1">
			<path d="M276.3,545.7h13.6v2.5h-10.6v7.4h9v2.5h-9v8.6h11v2.5h-14V545.7z"/>
		</g>
	</g>
	<g>
		<g class="st1">
			<path d="M329.5,545.7h3v23.6h-3V545.7z"/>
		</g>
	</g>
	<g>
		<g class="st1">
			<path d="M370.8,545.7h3.1l8.6,14.9l2.5,4.9h0.1c-0.2-2.4-0.4-5-0.4-7.5v-12.2h2.9v23.6h-3.1l-8.5-14.9l-2.6-4.9h-0.1
				c0.2,2.4,0.4,4.9,0.4,7.4v12.4h-2.9V545.7z"/>
		</g>
	</g>
	<g>
		<g class="st1">
			<path d="M416.3,566.2l1.8-2.1c1.7,1.8,4.1,2.9,6.5,2.9c3.1,0,4.9-1.5,4.9-3.8c0-2.4-1.7-3.2-3.9-4.2l-3.4-1.5
				c-2.2-0.9-4.8-2.6-4.8-6.1c0-3.6,3.1-6.3,7.4-6.3c2.8,0,5.3,1.2,7,2.9l-1.6,1.9c-1.4-1.4-3.2-2.2-5.4-2.2c-2.6,0-4.4,1.3-4.4,3.5
				c0,2.3,2.1,3.1,3.9,3.9l3.4,1.5c2.7,1.2,4.9,2.8,4.9,6.3c0,3.7-3.1,6.7-8.1,6.7C421.3,569.7,418.4,568.4,416.3,566.2z"/>
		</g>
	</g>
	<g>
		<g class="st1">
			<path d="M471.2,545.7h3v23.6h-3V545.7z"/>
		</g>
	</g>
	<g>
		<g class="st1">
			<path d="M512.5,545.7h13.6v2.5h-10.6v7.4h9v2.5h-9v8.6h11v2.5h-14V545.7z"/>
		</g>
	</g>
	<g>
		<g class="st1">
			<path d="M559.8,545.7h7c4.8,0,8.1,1.6,8.1,5.8c0,2.3-1.2,4.4-3.5,5.1v0.1c2.8,0.6,4.8,2.4,4.8,5.7c0,4.6-3.7,6.9-8.9,6.9h-7.6
				V545.7z M566.3,555.7c4,0,5.7-1.5,5.7-3.9c0-2.8-1.9-3.8-5.5-3.8h-3.6v7.7H566.3z M566.9,566.9c4,0,6.4-1.5,6.4-4.6
				c0-2.9-2.3-4.2-6.4-4.2h-4.1v8.9H566.9z"/>
		</g>
	</g>
	<g>
		<g class="st1">
			<path d="M607,545.7h13.6v2.5H610v7.4h9v2.5h-9v8.6h11v2.5h-14V545.7z"/>
		</g>
	</g>
	<g>
		<g class="st1">
			<path d="M654.2,545.7h3.1l8.6,14.9l2.5,4.9h0.1c-0.2-2.4-0.4-5-0.4-7.5v-12.2h2.9v23.6H668l-8.5-14.9l-2.6-4.9h-0.1
				c0.2,2.4,0.4,4.9,0.4,7.4v12.4h-2.9V545.7z"/>
		</g>
	</g>
	<g>
		<g class="st1">
			<path d="M181.8,598.1h3V610h0.1l9.8-11.9h3.4l-7.4,9l8.5,14.6h-3.4l-7-12.3l-4.1,4.8v7.5h-3V598.1z"/>
		</g>
	</g>
	<g>
		<g class="st1">
			<path d="M229.1,598.1h5.9c7.3,0,11.2,4.2,11.2,11.7s-3.9,11.9-11,11.9h-6V598.1z M234.7,619.3c5.5,0,8.3-3.5,8.3-9.4
				s-2.8-9.3-8.3-9.3h-2.7v18.7H234.7z"/>
		</g>
	</g>
	<g>
		<g class="st1">
			<path d="M276.3,598.1h7.4c4.8,0,8.3,1.7,8.3,6.6c0,4.7-3.5,7-8.3,7h-4.4v10h-3V598.1z M283.3,609.3c3.7,0,5.7-1.5,5.7-4.6
				c0-3.1-2-4.2-5.7-4.2h-4v8.8H283.3z M283.1,610.9l2.4-1.6l7.2,12.4h-3.4L283.1,610.9z"/>
		</g>
	</g>
	<g>
		<g class="st1">
			<path d="M323.5,598.1h13.6v2.5h-10.6v7.4h9v2.5h-9v8.6h11v2.5h-14V598.1z"/>
		</g>
	</g>
	<g>
		<g class="st1">
			<path d="M376.7,598.1h3v23.6h-3V598.1z"/>
		</g>
	</g>
	<g>
		<g class="st1">
			<path d="M418,598.1h7.4c4.8,0,8.3,1.7,8.3,6.6c0,4.7-3.5,7-8.3,7H421v10h-3V598.1z M425,609.3c3.7,0,5.7-1.5,5.7-4.6
				c0-3.1-2-4.2-5.7-4.2h-4v8.8H425z M424.8,610.9l2.4-1.6l7.2,12.4H431L424.8,610.9z"/>
		</g>
	</g>
	<g>
		<g class="st1">
			<path d="M465.3,598.1h3v9.9h11v-9.9h3v23.6h-3v-11.1h-11v11.1h-3V598.1z"/>
		</g>
	</g>
	<g>
		<g class="st1">
			<path d="M512.5,598.1h13.6v2.5h-10.6v8h9v2.5h-9v10.6h-3V598.1z"/>
		</g>
	</g>
	<g>
		<g class="st1">
			<path d="M558.7,612v-13.9h3v14c0,5.7,2.4,7.5,5.5,7.5c3.1,0,5.6-1.8,5.6-7.5v-14h2.9V612c0,7.6-3.7,10.2-8.5,10.2
				S558.7,619.6,558.7,612z M561.7,594.2c0-1,0.7-1.8,1.8-1.8s1.8,0.7,1.8,1.8s-0.7,1.8-1.8,1.8S561.7,595.3,561.7,594.2z
				 M569.1,594.2c0-1,0.7-1.8,1.8-1.8s1.8,0.7,1.8,1.8s-0.7,1.8-1.8,1.8S569.1,595.3,569.1,594.2z"/>
		</g>
	</g>
	<g>
		<g class="st1">
			<path d="M607,598.1h3.1l8.6,14.9l2.5,4.9h0.1c-0.2-2.4-0.4-5-0.4-7.5v-12.2h2.9v23.6h-3.1l-8.5-14.9l-2.6-4.9h-0.1
				c0.2,2.4,0.4,4.9,0.4,7.4v12.4H607V598.1z"/>
		</g>
	</g>
	<g>
		<g class="st1">
			<path d="M654.2,598.1h13.6v2.5h-10.6v8h9v2.5h-9v10.6h-3V598.1z"/>
		</g>
	</g>
	<g>
		<g class="st1">
			<path d="M181.8,650.6h13.6v2.5h-10.6v7.4h9v2.5h-9v8.6h11v2.5h-14V650.6z"/>
		</g>
	</g>
	<g>
		<g class="st1">
			<path d="M229.1,650.6h3v21.1h10.3v2.5h-13.3V650.6z"/>
		</g>
	</g>
	<g>
		<g class="st1">
			<path d="M276.3,650.6h13.6v2.5h-10.6v8h9v2.5h-9v10.6h-3V650.6z"/>
		</g>
	</g>
	<g>
		<g class="st1">
			<path d="M323.5,650.6h3.1l8.6,14.9l2.5,4.9h0.1c-0.2-2.4-0.4-5-0.4-7.5v-12.2h2.9v23.6h-3.1l-8.5-14.9l-2.6-4.9H326
				c0.2,2.4,0.4,4.9,0.4,7.4v12.4h-2.9V650.6z"/>
		</g>
	</g>
	<g>
		<g class="st1">
			<path d="M370.8,650.6h13.6v2.5h-10.6v7.4h9v2.5h-9v8.6h11v2.5h-14V650.6z"/>
		</g>
	</g>
	<g>
		<g class="st1">
			<path d="M417.9,664.4v-13.9h3v14c0,5.7,2.4,7.5,5.5,7.5c3.1,0,5.6-1.8,5.6-7.5v-14h2.9v13.9c0,7.6-3.7,10.2-8.5,10.2
				S417.9,672,417.9,664.4z"/>
		</g>
	</g>
	<g>
		<g class="st1">
			<path d="M465.3,650.6h3.1l8.6,14.9l2.5,4.9h0.1c-0.2-2.4-0.4-5-0.4-7.5v-12.2h2.9v23.6H479l-8.5-14.9l-2.6-4.9h-0.1
				c0.2,2.4,0.4,4.9,0.4,7.4v12.4h-2.9V650.6z"/>
		</g>
	</g>
	<g>
		<g class="st1">
			<path d="M509.3,650.6h3.2l3.8,12.8c0.8,2.8,1.4,5,2.3,7.8h0.1c0.9-2.8,1.5-5,2.3-7.8l3.8-12.8h3.1l-7.5,23.6h-3.5L509.3,650.6z"
				/>
		</g>
	</g>
	<g>
		<g class="st1">
			<path d="M565.7,650.6h3v23.6h-3V650.6z"/>
		</g>
	</g>
	<g>
		<g class="st1">
			<path d="M607,650.6h13.6v2.5H610v7.4h9v2.5h-9v8.6h11v2.5h-14V650.6z"/>
		</g>
	</g>
	<g>
		<g class="st1">
			<path d="M654.2,650.6h7.4c4.8,0,8.3,1.7,8.3,6.6c0,4.7-3.5,7-8.3,7h-4.4v10h-3V650.6z M661.2,661.8c3.7,0,5.7-1.5,5.7-4.6
				c0-3.1-2-4.2-5.7-4.2h-4v8.8H661.2z M661.1,663.4l2.4-1.6l7.2,12.4h-3.4L661.1,663.4z"/>
		</g>
	</g>
	<g>
		<g class="st1">
			<path d="M179.4,703h3.1l2.5,12.9c0.5,2.5,0.9,5.1,1.4,7.6h0.1c0.5-2.5,1.1-5.1,1.7-7.6l3.3-12.9h2.7l3.3,12.9
				c0.6,2.5,1.1,5.1,1.7,7.6h0.1c0.5-2.6,0.9-5.1,1.3-7.6l2.5-12.9h2.9l-4.9,23.6h-3.6l-3.6-14.2c-0.4-1.8-0.8-3.6-1.1-5.4h-0.1
				c-0.4,1.8-0.8,3.5-1.2,5.4l-3.5,14.2h-3.6L179.4,703z"/>
		</g>
	</g>
	<g>
		<g class="st1">
			<path d="M233.9,703h3.4l8,23.6h-3.2l-4.1-13.2c-0.8-2.6-1.6-5.2-2.4-8h-0.1c-0.7,2.7-1.5,5.3-2.3,8l-4.2,13.2h-3.1L233.9,703z
				 M230.1,717H241v2.4h-10.9V717z"/>
		</g>
	</g>
	<g>
		<g class="st1">
			<path d="M274.9,714.8c0-7.6,4.5-12.3,10.5-12.3c2.9,0,5.1,1.4,6.5,2.9l-1.6,2c-1.2-1.3-2.8-2.2-4.8-2.2c-4.5,0-7.4,3.7-7.4,9.5
				c0,5.9,2.8,9.7,7.3,9.7c2.3,0,4-1,5.5-2.7l1.6,1.9c-1.9,2.2-4.2,3.4-7.2,3.4C279.3,727.1,274.9,722.5,274.9,714.8z"/>
		</g>
	</g>
	<g>
		<g class="st1">
			<path d="M323.5,703h3v9.9h11V703h3v23.6h-3v-11.1h-11v11.1h-3V703z"/>
		</g>
	</g>
	<g>
		<g class="st1">
			<path d="M375.7,705.5h-7.1V703h17.3v2.5h-7.1v21.1h-3V705.5z"/>
		</g>
	</g>
	<g>
		<g class="st1">
			<path d="M416.4,724.8l12.4-19.3h-11.3V703h15v1.8l-12.4,19.3h12.6v2.5h-16.3V724.8z"/>
		</g>
	</g>
	<g>
		<g class="st1">
			<path d="M465.3,703h13.6v2.5h-10.6v7.4h9v2.5h-9v8.6h11v2.5h-14V703z"/>
		</g>
	</g>
	<g>
		<g class="st1">
			<path d="M512.5,703h3v9.9h11V703h3v23.6h-3v-11.1h-11v11.1h-3V703z"/>
		</g>
	</g>
	<g>
		<g class="st1">
			<path d="M559.8,703h3.1l8.6,14.9l2.5,4.9h0.1c-0.2-2.4-0.4-5-0.4-7.5V703h2.9v23.6h-3.1l-8.5-14.9l-2.6-4.9h-0.1
				c0.2,2.4,0.4,4.9,0.4,7.4v12.4h-2.9V703z"/>
		</g>
	</g>
	<g>
		<g class="st1">
			<path d="M607,703h7c4.8,0,8.1,1.6,8.1,5.8c0,2.3-1.2,4.4-3.5,5.1v0.1c2.8,0.6,4.8,2.4,4.8,5.7c0,4.6-3.7,6.9-8.9,6.9H607V703z
				 M613.5,713.1c4,0,5.7-1.5,5.7-3.9c0-2.8-1.9-3.8-5.5-3.8H610v7.7H613.5z M614.1,724.2c4,0,6.4-1.5,6.4-4.6
				c0-2.9-2.3-4.2-6.4-4.2H610v8.9H614.1z"/>
		</g>
	</g>
	<g>
		<g class="st1">
			<path d="M658.4,714.4L652,703h3.3l3.2,6c0.6,1.1,1.1,2.1,1.8,3.4h0.1c0.6-1.4,1.1-2.4,1.7-3.4l3.1-6h3.2l-6.4,11.6l6.9,12.1h-3.3
				l-3.5-6.4c-0.6-1.2-1.3-2.4-2-3.8H660c-0.7,1.4-1.3,2.6-1.9,3.8l-3.4,6.4h-3.2L658.4,714.4z"/>
		</g>
	</g>
	<g>
		<g class="st1">
			<path d="M181.8,755.4h7c4.8,0,8.1,1.6,8.1,5.8c0,2.3-1.2,4.4-3.5,5.1v0.1c2.8,0.6,4.8,2.4,4.8,5.7c0,4.6-3.7,6.9-8.9,6.9h-7.6
				V755.4z M188.3,765.5c4,0,5.7-1.5,5.7-3.9c0-2.8-1.9-3.8-5.5-3.8h-3.6v7.7H188.3z M188.9,776.7c4,0,6.4-1.5,6.4-4.6
				c0-2.9-2.3-4.2-6.4-4.2h-4.1v8.9H188.9z"/>
		</g>
	</g>
	<g>
		<g class="st1">
			<path d="M227.3,776l1.8-2.1c1.7,1.8,4.1,2.9,6.5,2.9c3.1,0,4.9-1.5,4.9-3.8c0-2.4-1.7-3.2-3.9-4.2l-3.4-1.5
				c-2.2-0.9-4.8-2.6-4.8-6.1c0-3.6,3.1-6.3,7.4-6.3c2.8,0,5.3,1.2,7,2.9l-1.6,1.9c-1.4-1.4-3.2-2.2-5.4-2.2c-2.6,0-4.4,1.3-4.4,3.5
				c0,2.3,2.1,3.1,3.9,3.9l3.4,1.5c2.7,1.2,4.9,2.8,4.9,6.3c0,3.7-3.1,6.7-8.1,6.7C232.3,779.5,229.4,778.1,227.3,776z"/>
		</g>
	</g>
	<g>
		<g class="st1">
			<path d="M276.3,755.4h13.6v2.5h-10.6v7.4h9v2.5h-9v8.6h11v2.5h-14V755.4z"/>
		</g>
	</g>
	<g>
		<g class="st1">
			<path d="M322.2,767.3c0-7.6,4.5-12.3,10.5-12.3c2.9,0,5.1,1.4,6.5,2.9l-1.6,2c-1.2-1.3-2.8-2.2-4.8-2.2c-4.5,0-7.4,3.7-7.4,9.5
				c0,5.9,2.8,9.7,7.3,9.7c2.3,0,4-1,5.5-2.7l1.6,1.9c-1.9,2.2-4.2,3.4-7.2,3.4C326.6,779.5,322.2,775,322.2,767.3z"/>
		</g>
	</g>
	<g>
		<g class="st1">
			<path d="M370.8,755.4h3v9.9h11v-9.9h3v23.6h-3V768h-11v11.1h-3V755.4z"/>
		</g>
	</g>
	<g>
		<g class="st1">
			<path d="M416.3,776l1.8-2.1c1.7,1.8,4.1,2.9,6.5,2.9c3.1,0,4.9-1.5,4.9-3.8c0-2.4-1.7-3.2-3.9-4.2l-3.4-1.5
				c-2.2-0.9-4.8-2.6-4.8-6.1c0-3.6,3.1-6.3,7.4-6.3c2.8,0,5.3,1.2,7,2.9l-1.6,1.9c-1.4-1.4-3.2-2.2-5.4-2.2c-2.6,0-4.4,1.3-4.4,3.5
				c0,2.3,2.1,3.1,3.9,3.9l3.4,1.5c2.7,1.2,4.9,2.8,4.9,6.3c0,3.7-3.1,6.7-8.1,6.7C421.3,779.5,418.4,778.1,416.3,776z"/>
		</g>
	</g>
	<g>
		<g class="st1">
			<path d="M465.3,755.4h13.6v2.5h-10.6v8h9v2.5h-9v10.6h-3V755.4z"/>
		</g>
	</g>
	<g>
		<g class="st1">
			<path d="M512.4,769.3v-13.9h3v14c0,5.7,2.4,7.5,5.5,7.5c3.1,0,5.6-1.8,5.6-7.5v-14h2.9v13.9c0,7.6-3.7,10.2-8.5,10.2
				S512.4,776.9,512.4,769.3z"/>
		</g>
	</g>
	<g>
		<g class="st1">
			<path d="M559.8,755.4h3v9.9h11v-9.9h3v23.6h-3V768h-11v11.1h-3V755.4z"/>
		</g>
	</g>
	<g>
		<g class="st1">
			<path d="M607,755.4h7.4c4.8,0,8.3,1.7,8.3,6.6c0,4.7-3.5,7-8.3,7H610v10h-3V755.4z M614,766.6c3.7,0,5.7-1.5,5.7-4.6
				c0-3.1-2-4.2-5.7-4.2h-4v8.8H614z M613.8,768.3l2.4-1.6l7.2,12.4H620L613.8,768.3z"/>
		</g>
	</g>
	<g>
		<g class="st1">
			<path d="M652.2,755.4h3.6l4.5,12.6c0.6,1.6,1.1,3.3,1.7,4.9h0.1c0.6-1.6,1.1-3.3,1.6-4.9l4.5-12.6h3.6v23.6h-2.8v-13
				c0-2.1,0.2-4.9,0.4-7h-0.1l-1.9,5.4l-4.4,12.2h-2l-4.5-12.2l-1.9-5.4h-0.1c0.2,2.1,0.4,4.9,0.4,7v13h-2.7V755.4z"/>
		</g>
	</g>
	<g>
		<g class="st1">
			<path d="M179.8,875.5h3.6l4.5,12.6c0.6,1.6,1.1,3.3,1.7,4.9h0.1c0.6-1.6,1.1-3.3,1.6-4.9l4.5-12.6h3.6v23.6h-2.8v-13
				c0-2.1,0.2-4.9,0.4-7H197l-1.9,5.4l-4.4,12.2h-2l-4.5-12.2l-1.9-5.4h-0.1c0.2,2.1,0.4,4.9,0.4,7v13h-2.7V875.5z"/>
		</g>
	</g>
	<g>
		<g class="st1">
			<path d="M227.7,887.2c0-7.6,4.2-12.2,10.1-12.2c5.9,0,10.1,4.6,10.1,12.2c0,7.6-4.2,12.3-10.1,12.3
				C231.8,899.6,227.7,894.8,227.7,887.2z M244.8,887.2c0-5.9-2.8-9.5-7-9.5c-4.2,0-7,3.6-7,9.5s2.8,9.7,7,9.7
				C242,896.9,244.8,893.1,244.8,887.2z"/>
		</g>
	</g>
	<g>
		<g class="st1">
			<path d="M276.3,875.5h7.4c4.8,0,8.3,1.7,8.3,6.6c0,4.7-3.5,7-8.3,7h-4.4v10h-3V875.5z M283.3,886.7c3.7,0,5.7-1.5,5.7-4.6
				c0-3.1-2-4.2-5.7-4.2h-4v8.8H283.3z M283.1,888.3l2.4-1.6l7.2,12.4h-3.4L283.1,888.3z"/>
		</g>
	</g>
	<g>
		<g class="st1">
			<path d="M322.2,887.3c0-7.6,4.6-12.3,10.8-12.3c3.3,0,5.4,1.5,6.8,2.9l-1.6,2c-1.2-1.2-2.7-2.2-5.1-2.2c-4.8,0-7.8,3.7-7.8,9.5
				c0,5.9,2.8,9.7,7.8,9.7c1.7,0,3.3-0.5,4.3-1.4v-6.2h-5v-2.5h7.7v9.9c-1.5,1.6-4.1,2.7-7.3,2.7C326.6,899.6,322.2,895,322.2,887.3
				z"/>
		</g>
	</g>
	<g>
		<g class="st1">
			<path d="M370.8,875.5h13.6v2.5h-10.6v7.4h9v2.5h-9v8.6h11v2.5h-14V875.5z"/>
		</g>
	</g>
	<g>
		<g class="st1">
			<path d="M418,875.5h3.1l8.6,14.9l2.5,4.9h0.1c-0.2-2.4-0.4-5-0.4-7.5v-12.2h2.9v23.6h-3.1l-8.5-14.9l-2.6-4.9h-0.1
				c0.2,2.4,0.4,4.9,0.4,7.4v12.4H418V875.5z"/>
		</g>
	</g>
	<g>
		<g class="st1">
			<path d="M469.5,886.9l-6.4-11.4h3.3l3.2,6c0.6,1.1,1.1,2.1,1.8,3.4h0.1c0.6-1.4,1.1-2.4,1.7-3.4l3.1-6h3.2l-6.4,11.6l6.9,12.1
				h-3.3l-3.5-6.4c-0.6-1.2-1.3-2.4-2-3.8H471c-0.7,1.4-1.3,2.6-1.9,3.8l-3.4,6.4h-3.2L469.5,886.9z"/>
		</g>
	</g>
	<g>
		<g class="st1">
			<path d="M512.5,875.5h13.6v2.5h-10.6v8h9v2.5h-9v10.6h-3V875.5z"/>
		</g>
	</g>
	<g>
		<g class="st1">
			<path d="M559.8,875.5h7.4c4.8,0,8.3,1.7,8.3,6.6c0,4.7-3.5,7-8.3,7h-4.4v10h-3V875.5z M566.7,886.7c3.7,0,5.7-1.5,5.7-4.6
				c0-3.1-2-4.2-5.7-4.2h-4v8.8H566.7z M566.6,888.3l2.4-1.6l7.2,12.4h-3.4L566.6,888.3z"/>
		</g>
	</g>
	<g>
		<g class="st1">
			<path d="M605.9,889.4v-13.9h3v14c0,5.7,2.4,7.5,5.5,7.5c3.1,0,5.6-1.8,5.6-7.5v-14h2.9v13.9c0,7.6-3.7,10.2-8.5,10.2
				S605.9,897,605.9,889.4z M608.9,871.6c0-1,0.7-1.8,1.8-1.8s1.8,0.7,1.8,1.8s-0.7,1.8-1.8,1.8S608.9,872.7,608.9,871.6z
				 M616.3,871.6c0-1,0.7-1.8,1.8-1.8s1.8,0.7,1.8,1.8s-0.7,1.8-1.8,1.8S616.3,872.7,616.3,871.6z"/>
		</g>
	</g>
	<g>
		<g class="st1">
			<path d="M654.2,875.5h3v9.9h11v-9.9h3v23.6h-3V888h-11v11.1h-3V875.5z"/>
		</g>
	</g>
	<g>
		<g class="st1">
			<path d="M186.7,927.9h3.4l8,23.6h-3.2l-4.1-13.2c-0.8-2.6-1.6-5.2-2.4-8h-0.1c-0.7,2.7-1.5,5.3-2.3,8l-4.2,13.2h-3.1L186.7,927.9
				z M182.9,942h10.9v2.4h-10.9V942z"/>
		</g>
	</g>
	<g>
		<g class="st1">
			<path d="M229.1,927.9h7c4.8,0,8.1,1.6,8.1,5.8c0,2.3-1.2,4.4-3.5,5.1v0.1c2.8,0.6,4.8,2.4,4.8,5.7c0,4.6-3.7,6.9-8.9,6.9h-7.6
				V927.9z M235.6,938c4,0,5.7-1.5,5.7-3.9c0-2.8-1.9-3.8-5.5-3.8h-3.6v7.7H235.6z M236.2,949.2c4,0,6.4-1.5,6.4-4.6
				c0-2.9-2.3-4.2-6.4-4.2h-4.1v8.9H236.2z"/>
		</g>
	</g>
	<g>
		<g class="st1">
			<path d="M276.3,927.9h13.6v2.5h-10.6v7.4h9v2.5h-9v8.6h11v2.5h-14V927.9z"/>
		</g>
	</g>
	<g>
		<g class="st1">
			<path d="M323.5,927.9h3.1l8.6,14.9l2.5,4.9h0.1c-0.2-2.4-0.4-5-0.4-7.5v-12.2h2.9v23.6h-3.1l-8.5-14.9l-2.6-4.9H326
				c0.2,2.4,0.4,4.9,0.4,7.4v12.4h-2.9V927.9z"/>
		</g>
	</g>
	<g>
		<g class="st1">
			<path d="M370.8,927.9h5.9c7.3,0,11.2,4.2,11.2,11.7s-3.9,11.9-11,11.9h-6V927.9z M376.5,949.1c5.5,0,8.3-3.5,8.3-9.4
				s-2.8-9.3-8.3-9.3h-2.7v18.7H376.5z"/>
		</g>
	</g>
	<g>
		<g class="st1">
			<path d="M418,927.9h3.6l4.5,12.6c0.6,1.6,1.1,3.3,1.7,4.9h0.1c0.6-1.6,1.1-3.3,1.6-4.9l4.5-12.6h3.6v23.6h-2.8v-13
				c0-2.1,0.2-4.9,0.4-7h-0.1l-1.9,5.4l-4.4,12.2h-2l-4.5-12.2l-1.9-5.4h-0.1c0.2,2.1,0.4,4.9,0.4,7v13H418V927.9z"/>
		</g>
	</g>
	<g>
		<g class="st1">
			<path d="M471.2,927.9h3v23.6h-3V927.9z"/>
		</g>
	</g>
	<g>
		<g class="st1">
			<path d="M517.4,930.5h-7.1v-2.5h17.3v2.5h-7.1v21.1h-3V930.5z"/>
		</g>
	</g>
	<g>
		<g class="st1">
			<path d="M564.7,930.5h-7.1v-2.5h17.3v2.5h-7.1v21.1h-3V930.5z"/>
		</g>
	</g>
	<g>
		<g class="st1">
			<path d="M611.9,927.9h3.4l8,23.6h-3.2l-4.1-13.2c-0.8-2.6-1.6-5.2-2.4-8h-0.1c-0.7,2.7-1.5,5.3-2.3,8l-4.2,13.2h-3.1L611.9,927.9
				z M608.1,942H619v2.4h-10.9V942z"/>
		</g>
	</g>
	<g>
		<g class="st1">
			<path d="M652.9,939.8c0-7.6,4.6-12.3,10.8-12.3c3.3,0,5.4,1.5,6.8,2.9l-1.6,2c-1.2-1.2-2.7-2.2-5.1-2.2c-4.8,0-7.8,3.7-7.8,9.5
				c0,5.9,2.8,9.7,7.8,9.7c1.7,0,3.3-0.5,4.3-1.4v-6.2h-5v-2.5h7.7v9.9c-1.5,1.6-4.1,2.7-7.3,2.7C657.3,952,652.9,947.5,652.9,939.8
				z"/>
		</g>
	</g>
	<g>
		<g class="st1">
			<path d="M181.8,980.4h3.1l8.6,14.9l2.6,4.9h0.1c-0.2-2.4-0.4-5-0.4-7.5v-12.2h2.9v23.6h-3.1l-8.5-14.9l-2.6-4.9h-0.1
				c0.2,2.4,0.4,4.9,0.4,7.4v12.4h-2.9V980.4z"/>
		</g>
	</g>
	<g>
		<g class="st1">
			<path d="M233.9,980.4h3.4l8,23.6h-3.2l-4.1-13.2c-0.8-2.6-1.6-5.2-2.4-8h-0.1c-0.7,2.7-1.5,5.3-2.3,8L229,1004h-3.1L233.9,980.4z
				 M230.1,994.4H241v2.4h-10.9V994.4z"/>
		</g>
	</g>
	<g>
		<g class="st1">
			<path d="M274.9,992.2c0-7.6,4.5-12.3,10.5-12.3c2.9,0,5.1,1.4,6.5,2.9l-1.6,2c-1.2-1.3-2.8-2.2-4.8-2.2c-4.5,0-7.4,3.7-7.4,9.5
				c0,5.9,2.8,9.7,7.3,9.7c2.3,0,4-1,5.5-2.7l1.6,1.9c-1.9,2.2-4.2,3.4-7.2,3.4C279.3,1004.4,274.9,999.9,274.9,992.2z"/>
		</g>
	</g>
	<g>
		<g class="st1">
			<path d="M323.5,980.4h3v9.9h11v-9.9h3v23.6h-3v-11.1h-11v11.1h-3V980.4z"/>
		</g>
	</g>
	<g>
		<g class="st1">
			<path d="M375.7,982.9h-7.1v-2.5h17.3v2.5h-7.1v21.1h-3V982.9z"/>
		</g>
	</g>
	<g>
		<g class="st1">
			<path d="M416.3,1000.9l1.8-2.1c1.7,1.8,4.1,2.9,6.5,2.9c3.1,0,4.9-1.5,4.9-3.8c0-2.4-1.7-3.2-3.9-4.2l-3.4-1.5
				c-2.2-0.9-4.8-2.6-4.8-6.1c0-3.6,3.1-6.3,7.4-6.3c2.8,0,5.3,1.2,7,2.9l-1.6,1.9c-1.4-1.4-3.2-2.2-5.4-2.2c-2.6,0-4.4,1.3-4.4,3.5
				c0,2.3,2.1,3.1,3.9,3.9l3.4,1.5c2.7,1.2,4.9,2.8,4.9,6.3c0,3.7-3.1,6.7-8.1,6.7C421.3,1004.4,418.4,1003.1,416.3,1000.9z"/>
		</g>
	</g>
	<g>
		<g class="st1">
			<path d="M463.9,992.2c0-7.6,4.5-12.3,10.5-12.3c2.9,0,5.1,1.4,6.5,2.9l-1.6,2c-1.2-1.3-2.8-2.2-4.8-2.2c-4.5,0-7.4,3.7-7.4,9.5
				c0,5.9,2.8,9.7,7.3,9.7c2.3,0,4-1,5.5-2.7l1.6,1.9c-1.9,2.2-4.2,3.4-7.2,3.4C468.3,1004.4,463.9,999.9,463.9,992.2z"/>
		</g>
	</g>
	<g>
		<g class="st1">
			<path d="M512.5,980.4h3v9.9h11v-9.9h3v23.6h-3v-11.1h-11v11.1h-3V980.4z"/>
		</g>
	</g>
	<g>
		<g class="st1">
			<path d="M559.8,980.4h3.1l8.6,14.9l2.5,4.9h0.1c-0.2-2.4-0.4-5-0.4-7.5v-12.2h2.9v23.6h-3.1l-8.5-14.9l-2.6-4.9h-0.1
				c0.2,2.4,0.4,4.9,0.4,7.4v12.4h-2.9V980.4z"/>
		</g>
	</g>
	<g>
		<g class="st1">
			<path d="M607,980.4h13.6v2.5H610v7.4h9v2.5h-9v8.6h11v2.5h-14V980.4z"/>
		</g>
	</g>
	<g>
		<g class="st1">
			<path d="M654.2,980.4h13.6v2.5h-10.6v7.4h9v2.5h-9v8.6h11v2.5h-14V980.4z"/>
		</g>
	</g>
	<g>
		<g class="st1">
			<path d="M181.8,1032.8h3v11.9h0.1l9.8-11.9h3.4l-7.4,9l8.5,14.6h-3.4l-7-12.3l-4.1,4.8v7.5h-3V1032.8z"/>
		</g>
	</g>
	<g>
		<g class="st1">
			<path d="M229.1,1032.8h3v21.1h10.3v2.5h-13.3V1032.8z"/>
		</g>
	</g>
	<g>
		<g class="st1">
			<path d="M281.2,1032.8h3.4l8,23.6h-3.2l-4.1-13.2c-0.8-2.6-1.6-5.2-2.4-8h-0.1c-0.7,2.7-1.5,5.3-2.3,8l-4.2,13.2h-3.1
				L281.2,1032.8z M277.4,1046.9h10.9v2.4h-10.9V1046.9z"/>
		</g>
	</g>
	<g>
		<g class="st1">
			<path d="M323.5,1032.8h7.4c4.8,0,8.3,1.7,8.3,6.6c0,4.7-3.5,7-8.3,7h-4.4v10h-3V1032.8z M330.5,1044c3.7,0,5.7-1.5,5.7-4.6
				c0-3.1-2-4.2-5.7-4.2h-4v8.8H330.5z M330.3,1045.6l2.4-1.6l7.2,12.4h-3.4L330.3,1045.6z"/>
		</g>
	</g>
	<g>
		<g class="st1">
			<path d="M364.4,1032.8h3.1l2.5,12.9c0.5,2.5,0.9,5.1,1.4,7.6h0.1c0.5-2.5,1.1-5.1,1.7-7.6l3.3-12.9h2.7l3.3,12.9
				c0.6,2.5,1.1,5.1,1.7,7.6h0.1c0.5-2.6,0.9-5.1,1.3-7.6l2.5-12.9h2.9l-4.9,23.6h-3.6l-3.6-14.2c-0.4-1.8-0.8-3.6-1.1-5.4h-0.1
				c-0.4,1.8-0.8,3.5-1.2,5.4l-3.5,14.2h-3.6L364.4,1032.8z"/>
		</g>
	</g>
	<g>
		<g class="st1">
			<path d="M422.9,1032.8h3.4l8,23.6h-3.2l-4.1-13.2c-0.8-2.6-1.6-5.2-2.4-8h-0.1c-0.7,2.7-1.5,5.3-2.3,8l-4.2,13.2h-3.1
				L422.9,1032.8z M419.1,1046.9H430v2.4h-10.9V1046.9z"/>
		</g>
	</g>
	<g>
		<g class="st1">
			<path d="M465.3,1032.8h7.4c4.8,0,8.3,1.7,8.3,6.6c0,4.7-3.5,7-8.3,7h-4.4v10h-3V1032.8z M472.2,1044c3.7,0,5.7-1.5,5.7-4.6
				c0-3.1-2-4.2-5.7-4.2h-4v8.8H472.2z M472.1,1045.6l2.4-1.6l7.2,12.4h-3.4L472.1,1045.6z"/>
		</g>
	</g>
	<g>
		<g class="st1">
			<path d="M512.5,1032.8h3.1l8.6,14.9l2.5,4.9h0.1c-0.2-2.4-0.4-5-0.4-7.5v-12.2h2.9v23.6h-3.1l-8.5-14.9l-2.6-4.9H515
				c0.2,2.4,0.4,4.9,0.4,7.4v12.4h-2.9V1032.8z"/>
		</g>
	</g>
	<g>
		<g class="st1">
			<path d="M559.7,1046.7v-13.9h3v14c0,5.7,2.4,7.5,5.5,7.5c3.1,0,5.6-1.8,5.6-7.5v-14h2.9v13.9c0,7.6-3.7,10.2-8.5,10.2
				S559.7,1054.3,559.7,1046.7z"/>
		</g>
	</g>
	<g>
		<g class="st1">
			<path d="M607,1032.8h3.1l8.6,14.9l2.5,4.9h0.1c-0.2-2.4-0.4-5-0.4-7.5v-12.2h2.9v23.6h-3.1l-8.5-14.9l-2.6-4.9h-0.1
				c0.2,2.4,0.4,4.9,0.4,7.4v12.4H607V1032.8z"/>
		</g>
	</g>
	<g>
		<g class="st1">
			<path d="M652.9,1044.7c0-7.6,4.6-12.3,10.8-12.3c3.3,0,5.4,1.5,6.8,2.9l-1.6,2c-1.2-1.2-2.7-2.2-5.1-2.2c-4.8,0-7.8,3.7-7.8,9.5
				c0,5.9,2.8,9.7,7.8,9.7c1.7,0,3.3-0.5,4.3-1.4v-6.2h-5v-2.5h7.7v9.9c-1.5,1.6-4.1,2.7-7.3,2.7
				C657.3,1056.9,652.9,1052.3,652.9,1044.7z"/>
		</g>
	</g>
	<g>
		<g class="st1">
			<path d="M181.8,1085.3h7.4c4.8,0,8.3,1.7,8.3,6.6c0,4.7-3.5,7-8.3,7h-4.4v10h-3V1085.3z M188.8,1096.5c3.7,0,5.7-1.5,5.7-4.6
				c0-3.1-2-4.2-5.7-4.2h-4v8.8H188.8z M188.6,1098.1l2.4-1.6l7.2,12.4h-3.4L188.6,1098.1z"/>
		</g>
	</g>
	<g>
		<g class="st1">
			<path d="M229.1,1085.3h13.6v2.5h-10.6v7.4h9v2.5h-9v8.6h11v2.5h-14V1085.3z"/>
		</g>
	</g>
	<g>
		<g class="st1">
			<path d="M274.9,1097.1c0-7.6,4.6-12.3,10.8-12.3c3.3,0,5.4,1.5,6.8,2.9l-1.6,2c-1.2-1.2-2.7-2.2-5.1-2.2c-4.8,0-7.8,3.7-7.8,9.5
				c0,5.9,2.8,9.7,7.8,9.7c1.7,0,3.3-0.5,4.3-1.4v-6.2h-5v-2.5h7.7v9.9c-1.5,1.6-4.1,2.7-7.3,2.7
				C279.4,1109.3,274.9,1104.8,274.9,1097.1z"/>
		</g>
	</g>
	<g>
		<g class="st1">
			<path d="M323.5,1085.3h13.6v2.5h-10.6v7.4h9v2.5h-9v8.6h11v2.5h-14V1085.3z"/>
		</g>
	</g>
	<g>
		<g class="st1">
			<path d="M370.8,1085.3h3.1l8.6,14.9l2.5,4.9h0.1c-0.2-2.4-0.4-5-0.4-7.5v-12.2h2.9v23.6h-3.1L376,1094l-2.6-4.9h-0.1
				c0.2,2.4,0.4,4.9,0.4,7.4v12.4h-2.9V1085.3z"/>
		</g>
	</g>
	<g>
		<g class="st1">
			<path d="M411.6,1085.3h3.1l2.5,12.9c0.5,2.5,0.9,5.1,1.4,7.6h0.1c0.5-2.5,1.1-5.1,1.7-7.6l3.3-12.9h2.7l3.3,12.9
				c0.6,2.5,1.1,5.1,1.7,7.6h0.1c0.5-2.6,0.9-5.1,1.3-7.6l2.5-12.9h2.9l-4.9,23.6h-3.6l-3.6-14.2c-0.4-1.8-0.8-3.6-1.1-5.4h-0.1
				c-0.4,1.8-0.8,3.5-1.2,5.4l-3.5,14.2h-3.6L411.6,1085.3z"/>
		</g>
	</g>
	<g>
		<g class="st1">
			<path d="M463.9,1097c0-7.6,4.2-12.2,10.1-12.2c5.9,0,10.1,4.6,10.1,12.2c0,7.6-4.2,12.3-10.1,12.3
				C468.1,1109.3,463.9,1104.6,463.9,1097z M481,1097c0-5.9-2.8-9.5-7-9.5s-7,3.6-7,9.5s2.8,9.7,7,9.7S481,1102.9,481,1097z"/>
		</g>
	</g>
	<g>
		<g class="st1">
			<path d="M512.5,1085.3h3v21.1h10.3v2.5h-13.3V1085.3z"/>
		</g>
	</g>
	<g>
		<g class="st1">
			<path d="M559.8,1085.3h3v11.9h0.1l9.8-11.9h3.4l-7.4,9l8.5,14.6h-3.4l-7-12.3l-4.1,4.8v7.5h-3V1085.3z"/>
		</g>
	</g>
	<g>
		<g class="st1">
			<path d="M607,1085.3h13.6v2.5H610v7.4h9v2.5h-9v8.6h11v2.5h-14V1085.3z"/>
		</g>
	</g>
	<g>
		<g class="st1">
			<path d="M654.2,1085.3h3.1l8.6,14.9l2.5,4.9h0.1c-0.2-2.4-0.4-5-0.4-7.5v-12.2h2.9v23.6H668l-8.5-14.9l-2.6-4.9h-0.1
				c0.2,2.4,0.4,4.9,0.4,7.4v12.4h-2.9V1085.3z"/>
		</g>
	</g>
	<g>
		<g class="st1">
			<path d="M180.4,1149.4c0-7.6,4.2-12.2,10.1-12.2c5.9,0,10.1,4.6,10.1,12.2c0,7.6-4.2,12.3-10.1,12.3
				C184.6,1161.8,180.4,1157,180.4,1149.4z M197.5,1149.4c0-5.9-2.8-9.5-7-9.5c-4.2,0-7,3.6-7,9.5s2.8,9.7,7,9.7
				C194.8,1159.1,197.5,1155.3,197.5,1149.4z"/>
		</g>
	</g>
	<g>
		<g class="st1">
			<path d="M227.7,1149.5c0-7.6,4.6-12.3,10.8-12.3c3.3,0,5.4,1.5,6.8,2.9l-1.6,2c-1.2-1.2-2.7-2.2-5.1-2.2c-4.8,0-7.8,3.7-7.8,9.5
				c0,5.9,2.8,9.7,7.8,9.7c1.7,0,3.3-0.5,4.3-1.4v-6.2h-5v-2.5h7.7v9.9c-1.5,1.6-4.1,2.7-7.3,2.7
				C232.1,1161.8,227.7,1157.2,227.7,1149.5z"/>
		</g>
	</g>
	<g>
		<g class="st1">
			<path d="M276.3,1137.7h13.6v2.5h-10.6v7.4h9v2.5h-9v8.6h11v2.5h-14V1137.7z"/>
		</g>
	</g>
	<g>
		<g class="st1">
			<path d="M317.1,1137.7h3.1l2.5,12.9c0.5,2.5,0.9,5.1,1.4,7.6h0.1c0.5-2.5,1.1-5.1,1.7-7.6l3.3-12.9h2.7l3.3,12.9
				c0.6,2.5,1.1,5.1,1.7,7.6h0.1c0.5-2.6,0.9-5.1,1.3-7.6l2.5-12.9h2.9l-4.9,23.6h-3.6l-3.6-14.2c-0.4-1.8-0.8-3.6-1.1-5.4h-0.1
				c-0.4,1.8-0.8,3.5-1.2,5.4l-3.5,14.2h-3.6L317.1,1137.7z"/>
		</g>
	</g>
	<g>
		<g class="st1">
			<path d="M376.7,1137.7h3v23.6h-3V1137.7z"/>
		</g>
	</g>
	<g>
		<g class="st1">
			<path d="M422.9,1140.3h-7.1v-2.5h17.3v2.5H426v21.1h-3V1140.3z"/>
		</g>
	</g>
	<g>
		<g class="st1">
			<path d="M470.2,1140.3H463v-2.5h17.3v2.5h-7.1v21.1h-3V1140.3z"/>
		</g>
	</g>
	<g>
		<g class="st1">
			<path d="M512.5,1137.7h13.6v2.5h-10.6v7.4h9v2.5h-9v8.6h11v2.5h-14V1137.7z"/>
		</g>
	</g>
	<g>
		<g class="st1">
			<path d="M559.8,1137.7h7.4c4.8,0,8.3,1.7,8.3,6.6c0,4.7-3.5,7-8.3,7h-4.4v10h-3V1137.7z M566.7,1148.9c3.7,0,5.7-1.5,5.7-4.6
				c0-3.1-2-4.2-5.7-4.2h-4v8.8H566.7z M566.6,1150.5l2.4-1.6l7.2,12.4h-3.4L566.6,1150.5z"/>
		</g>
	</g>
	<g>
		<g class="st1">
			<path d="M607,1137.7h7c4.8,0,8.1,1.6,8.1,5.8c0,2.3-1.2,4.4-3.5,5.1v0.1c2.8,0.6,4.8,2.4,4.8,5.7c0,4.6-3.7,6.9-8.9,6.9H607
				V1137.7z M613.5,1147.8c4,0,5.7-1.5,5.7-3.9c0-2.8-1.9-3.8-5.5-3.8H610v7.7H613.5z M614.1,1158.9c4,0,6.4-1.5,6.4-4.6
				c0-2.9-2.3-4.2-6.4-4.2H610v8.9H614.1z"/>
		</g>
	</g>
	<g>
		<g class="st1">
			<path d="M654.2,1137.7h3.1l8.6,14.9l2.5,4.9h0.1c-0.2-2.4-0.4-5-0.4-7.5v-12.2h2.9v23.6H668l-8.5-14.9l-2.6-4.9h-0.1
				c0.2,2.4,0.4,4.9,0.4,7.4v12.4h-2.9V1137.7z"/>
		</g>
	</g>
	<g>
		<g class="st1">
			<path d="M181.7,1204v-13.9h3v14c0,5.7,2.4,7.5,5.5,7.5c3.1,0,5.6-1.8,5.6-7.5v-14h2.9v13.9c0,7.6-3.7,10.2-8.5,10.2
				S181.7,1211.6,181.7,1204z"/>
		</g>
	</g>
	<g>
		<g class="st1">
			<path d="M229.1,1190.1h3.1l8.6,14.9l2.6,4.9h0.1c-0.2-2.4-0.4-5-0.4-7.5v-12.2h2.9v23.6h-3.1l-8.5-14.9l-2.6-4.9h-0.1
				c0.2,2.4,0.4,4.9,0.4,7.4v12.4h-2.9V1190.1z"/>
		</g>
	</g>
	<g>
		<g class="st1">
			<path d="M281.2,1192.7h-7.1v-2.5h17.3v2.5h-7.1v21.1h-3V1192.7z"/>
		</g>
	</g>
	<g>
		<g class="st1">
			<path d="M323.5,1190.1h13.6v2.5h-10.6v7.4h9v2.5h-9v8.6h11v2.5h-14V1190.1z"/>
		</g>
	</g>
	<g>
		<g class="st1">
			<path d="M370.8,1190.1h7.4c4.8,0,8.3,1.7,8.3,6.6c0,4.7-3.5,7-8.3,7h-4.4v10h-3V1190.1z M377.8,1201.4c3.7,0,5.7-1.5,5.7-4.6
				c0-3.1-2-4.2-5.7-4.2h-4v8.8H377.8z M377.6,1203l2.4-1.6l7.2,12.4h-3.4L377.6,1203z"/>
		</g>
	</g>
	<g>
		<g class="st1">
			<path d="M416.4,1212l12.4-19.3h-11.3v-2.5h15v1.8l-12.4,19.3h12.6v2.5h-16.3V1212z"/>
		</g>
	</g>
	<g>
		<g class="st1">
			<path d="M464.2,1204v-13.9h3v14c0,5.7,2.4,7.5,5.5,7.5c3.1,0,5.6-1.8,5.6-7.5v-14h2.9v13.9c0,7.6-3.7,10.2-8.5,10.2
				S464.2,1211.6,464.2,1204z M467.2,1186.3c0-1,0.7-1.8,1.8-1.8s1.8,0.7,1.8,1.8s-0.7,1.8-1.8,1.8S467.2,1187.3,467.2,1186.3z
				 M474.6,1186.3c0-1,0.7-1.8,1.8-1.8s1.8,0.7,1.8,1.8s-0.7,1.8-1.8,1.8S474.6,1187.3,474.6,1186.3z"/>
		</g>
	</g>
	<g>
		<g class="st1">
			<path d="M512.5,1190.1h7c4.8,0,8.1,1.6,8.1,5.8c0,2.3-1.2,4.4-3.5,5.1v0.1c2.8,0.6,4.8,2.4,4.8,5.7c0,4.6-3.7,6.9-8.9,6.9h-7.6
				V1190.1z M519,1200.2c4,0,5.7-1.5,5.7-3.9c0-2.8-1.9-3.8-5.5-3.8h-3.6v7.7H519z M519.6,1211.4c4,0,6.4-1.5,6.4-4.6
				c0-2.9-2.3-4.2-6.4-4.2h-4.1v8.9H519.6z"/>
		</g>
	</g>
	<g>
		<g class="st1">
			<path d="M559.8,1190.1h13.6v2.5h-10.6v7.4h9v2.5h-9v8.6h11v2.5h-14V1190.1z"/>
		</g>
	</g>
	<g>
		<g class="st1">
			<path d="M607,1190.1h7.4c4.8,0,8.3,1.7,8.3,6.6c0,4.7-3.5,7-8.3,7H610v10h-3V1190.1z M614,1201.4c3.7,0,5.7-1.5,5.7-4.6
				c0-3.1-2-4.2-5.7-4.2h-4v8.8H614z M613.8,1203l2.4-1.6l7.2,12.4H620L613.8,1203z"/>
		</g>
	</g>
	<g>
		<g class="st1">
			<path d="M654.2,1190.1h3v11.9h0.1l9.8-11.9h3.4l-7.4,9l8.5,14.6h-3.4l-7-12.3l-4.1,4.8v7.5h-3V1190.1z"/>
		</g>
	</g>
	<g>
		<g class="st1">
			<path d="M185.6,1257.1l-7.1-14.5h3.2l3,6.7c0.8,1.7,1.5,3.4,2.3,5.2h0.1c0.8-1.8,1.6-3.4,2.4-5.2l3-6.7h3.1l-7.1,14.5v9.2h-3
				V1257.1z"/>
		</g>
	</g>
	<g>
		<g class="st1">
			<path d="M227.1,1242.6h3.6l4.5,12.6c0.6,1.6,1.1,3.3,1.7,4.9h0.1c0.6-1.6,1.1-3.3,1.6-4.9l4.5-12.6h3.6v23.6H244v-13
				c0-2.1,0.2-4.9,0.4-7h-0.1l-1.9,5.4l-4.4,12.2h-2l-4.5-12.2l-1.9-5.4h-0.1c0.2,2.1,0.4,4.9,0.4,7v13h-2.7V1242.6z"/>
		</g>
	</g>
	<g>
		<g class="st1">
			<path d="M282.2,1242.6h3v23.6h-3V1242.6z"/>
		</g>
	</g>
	<g>
		<g class="st1">
			<path d="M323.5,1242.6h3.1l8.6,14.9l2.5,4.9h0.1c-0.2-2.4-0.4-5-0.4-7.5v-12.2h2.9v23.6h-3.1l-8.5-14.9l-2.6-4.9H326
				c0.2,2.4,0.4,4.9,0.4,7.4v12.4h-2.9V1242.6z"/>
		</g>
	</g>
	<g>
		<g class="st1">
			<path d="M370.7,1256.5v-13.9h3v14c0,5.7,2.4,7.5,5.5,7.5c3.1,0,5.6-1.8,5.6-7.5v-14h2.9v13.9c0,7.6-3.7,10.2-8.5,10.2
				S370.7,1264,370.7,1256.5z"/>
		</g>
	</g>
	<g>
		<g class="st1">
			<path d="M416.3,1263.1l1.8-2.1c1.7,1.8,4.1,2.9,6.5,2.9c3.1,0,4.9-1.5,4.9-3.8c0-2.4-1.7-3.2-3.9-4.2l-3.4-1.5
				c-2.2-0.9-4.8-2.6-4.8-6.1c0-3.6,3.1-6.3,7.4-6.3c2.8,0,5.3,1.2,7,2.9l-1.6,1.9c-1.4-1.4-3.2-2.2-5.4-2.2c-2.6,0-4.4,1.3-4.4,3.5
				c0,2.3,2.1,3.1,3.9,3.9l3.4,1.5c2.7,1.2,4.9,2.8,4.9,6.3c0,3.7-3.1,6.7-8.1,6.7C421.3,1266.6,418.4,1265.3,416.3,1263.1z"/>
		</g>
	</g>
	<g>
		<g class="st1">
			<path d="M470.1,1242.6h3.4l8,23.6h-3.2l-4.1-13.2c-0.8-2.6-1.6-5.2-2.4-8h-0.1c-0.7,2.7-1.5,5.3-2.3,8l-4.2,13.2h-3.1
				L470.1,1242.6z M466.3,1256.6h10.9v2.4h-10.9V1256.6z"/>
		</g>
	</g>
	<g>
		<g class="st1">
			<path d="M512.5,1242.6h3.1l8.6,14.9l2.5,4.9h0.1c-0.2-2.4-0.4-5-0.4-7.5v-12.2h2.9v23.6h-3.1l-8.5-14.9l-2.6-4.9H515
				c0.2,2.4,0.4,4.9,0.4,7.4v12.4h-2.9V1242.6z"/>
		</g>
	</g>
	<g>
		<g class="st1">
			<path d="M559.7,1256.5v-13.9h3v14c0,5.7,2.4,7.5,5.5,7.5c3.1,0,5.6-1.8,5.6-7.5v-14h2.9v13.9c0,7.6-3.7,10.2-8.5,10.2
				S559.7,1264,559.7,1256.5z"/>
		</g>
	</g>
	<g>
		<g class="st1">
			<path d="M607,1242.6h3v21.1h10.3v2.5H607V1242.6z"/>
		</g>
	</g>
	<g>
		<g class="st1">
			<path d="M654.2,1242.6h3v21.1h10.3v2.5h-13.3V1242.6z"/>
		</g>
	</g>
	<g>
		<g class="st1">
			<path d="M181.8,1295h3v9.9h11v-9.9h3v23.6h-3v-11.1h-11v11.1h-3V1295z"/>
		</g>
	</g>
	<g>
		<g class="st1">
			<path d="M229.1,1295h3.1l8.6,14.9l2.6,4.9h0.1c-0.2-2.4-0.4-5-0.4-7.5V1295h2.9v23.6h-3.1l-8.5-14.9l-2.6-4.9h-0.1
				c0.2,2.4,0.4,4.9,0.4,7.4v12.4h-2.9V1295z"/>
		</g>
	</g>
	<g>
		<g class="st1">
			<path d="M274.7,1316.9l12.4-19.3h-11.3v-2.5h15v1.8l-12.4,19.3H291v2.5h-16.3V1316.9z"/>
		</g>
	</g>
	<g>
		<g class="st1">
			<path d="M317.1,1295h3.1l2.5,12.9c0.5,2.5,0.9,5.1,1.4,7.6h0.1c0.5-2.5,1.1-5.1,1.7-7.6l3.3-12.9h2.7l3.3,12.9
				c0.6,2.5,1.1,5.1,1.7,7.6h0.1c0.5-2.6,0.9-5.1,1.3-7.6l2.5-12.9h2.9l-4.9,23.6h-3.6l-3.6-14.2c-0.4-1.8-0.8-3.6-1.1-5.4h-0.1
				c-0.4,1.8-0.8,3.5-1.2,5.4l-3.5,14.2h-3.6L317.1,1295z"/>
		</g>
	</g>
	<g>
		<g class="st1">
			<path d="M375.6,1295h3.4l8,23.6h-3.2l-4.1-13.2c-0.8-2.6-1.6-5.2-2.4-8h-0.1c-0.7,2.7-1.5,5.3-2.3,8l-4.2,13.2h-3.1L375.6,1295z
				 M371.9,1309.1h10.9v2.4h-10.9V1309.1z"/>
		</g>
	</g>
	<g>
		<g class="st1">
			<path d="M418,1295h3.1l8.6,14.9l2.5,4.9h0.1c-0.2-2.4-0.4-5-0.4-7.5V1295h2.9v23.6h-3.1l-8.5-14.9l-2.6-4.9h-0.1
				c0.2,2.4,0.4,4.9,0.4,7.4v12.4H418V1295z"/>
		</g>
	</g>
	<g>
		<g class="st1">
			<path d="M463.7,1316.9l12.4-19.3h-11.3v-2.5h15v1.8l-12.4,19.3h12.6v2.5h-16.3V1316.9z"/>
		</g>
	</g>
	<g>
		<g class="st1">
			<path d="M518.5,1295h3v23.6h-3V1295z"/>
		</g>
	</g>
	<g>
		<g class="st1">
			<path d="M558.4,1306.9c0-7.6,4.6-12.3,10.8-12.3c3.3,0,5.4,1.5,6.8,2.9l-1.6,2c-1.2-1.2-2.7-2.2-5.1-2.2c-4.8,0-7.8,3.7-7.8,9.5
				c0,5.9,2.8,9.7,7.8,9.7c1.7,0,3.3-0.5,4.3-1.4v-6.2h-5v-2.5h7.7v9.9c-1.5,1.6-4.1,2.7-7.3,2.7
				C562.8,1319.1,558.4,1314.5,558.4,1306.9z"/>
		</g>
	</g>
	<g>
		<g class="st1">
			<path d="M610.9,1315.3l2.1-1.5c1.1,1.9,2.4,2.6,4.1,2.6c2.5,0,3.8-1.4,3.8-5V1295h3v16.7c0,4.1-1.9,7.4-6.5,7.4
				C614.4,1319.1,612.3,1317.8,610.9,1315.3z"/>
		</g>
	</g>
	<g>
		<g class="st1">
			<path d="M659.2,1297.6H652v-2.5h17.3v2.5h-7.1v21.1h-3V1297.6z"/>
		</g>
	</g>
	<g>
		<g class="st1">
			<path d="M181.8,1347.5h5.9c7.3,0,11.2,4.2,11.2,11.7s-3.9,11.9-11,11.9h-6V1347.5z M187.5,1368.6c5.5,0,8.3-3.5,8.3-9.4
				s-2.8-9.3-8.3-9.3h-2.7v18.7H187.5z"/>
		</g>
	</g>
	<g>
		<g class="st1">
			<path d="M229.1,1347.5h7.4c4.8,0,8.3,1.7,8.3,6.6c0,4.7-3.5,7-8.3,7h-4.4v10h-3V1347.5z M236,1358.7c3.7,0,5.7-1.5,5.7-4.6
				c0-3.1-2-4.2-5.7-4.2h-4v8.8H236z M235.9,1360.3l2.4-1.6l7.2,12.4H242L235.9,1360.3z"/>
		</g>
	</g>
	<g>
		<g class="st1">
			<path d="M276.3,1347.5h13.6v2.5h-10.6v7.4h9v2.5h-9v8.6h11v2.5h-14V1347.5z"/>
		</g>
	</g>
	<g>
		<g class="st1">
			<path d="M329.5,1347.5h3v23.6h-3V1347.5z"/>
		</g>
	</g>
	<g>
		<g class="st1">
			<path d="M376.7,1368.8l1.7-1.9c1.4,1.5,2.8,2.2,4.5,2.2c2.5,0,4-1.7,4-4.1c0-2.2-1.4-4.1-6.9-5l-0.2-1.9l4.9-5.5
				c-0.8-1.6-2.4-2.9-4.8-2.9c-3.8,0-6.1,2.2-6.1,7.1v14.5h-3v-15c0-5.6,3.4-9,9.2-9c4,0,6.5,2.2,7.8,5.6l-5,5.5
				c5,1,7.1,3.4,7.1,6.9c0,3.8-2.7,6.6-6.9,6.6C380.4,1371.5,378.1,1370.4,376.7,1368.8z"/>
		</g>
	</g>
	<g>
		<g class="st1">
			<path d="M424,1347.5h3v23.6h-3V1347.5z"/>
		</g>
	</g>
	<g>
		<g class="st1">
			<path d="M463.9,1359.3c0-7.6,4.6-12.3,10.8-12.3c3.3,0,5.4,1.5,6.8,2.9l-1.6,2c-1.2-1.2-2.7-2.2-5.1-2.2c-4.8,0-7.8,3.7-7.8,9.5
				c0,5.9,2.8,9.7,7.8,9.7c1.7,0,3.3-0.5,4.3-1.4v-6.2h-5v-2.5h7.7v9.9c-1.5,1.6-4.1,2.7-7.3,2.7
				C468.3,1371.5,463.9,1367,463.9,1359.3z"/>
		</g>
	</g>
	<g>
		<g class="st1">
			<path d="M511.1,1359.2c0-7.6,4.2-12.2,10.1-12.2c5.9,0,10.1,4.6,10.1,12.2c0,7.6-4.2,12.3-10.1,12.3
				C515.3,1371.5,511.1,1366.8,511.1,1359.2z M528.2,1359.2c0-5.9-2.8-9.5-7-9.5s-7,3.6-7,9.5s2.8,9.7,7,9.7
				S528.2,1365.1,528.2,1359.2z"/>
		</g>
	</g>
	<g>
		<g class="st1">
			<path d="M558,1351.1c0-2.8,2.1-4.6,4.5-4.6s4.5,1.8,4.5,4.6c0,2.8-2.1,4.6-4.5,4.6S558,1353.9,558,1351.1z M565.2,1351.1
				c0-1.7-1.1-3-2.7-3s-2.7,1.2-2.7,3c0,1.7,1.1,2.9,2.7,2.9S565.2,1352.8,565.2,1351.1z"/>
		</g>
	</g>
	<g>
		<g class="st1">
			<path d="M605.6,1359.3c0-7.6,4.5-12.3,10.5-12.3c2.9,0,5.1,1.4,6.5,2.9l-1.6,2c-1.2-1.3-2.8-2.2-4.8-2.2c-4.5,0-7.4,3.7-7.4,9.5
				c0,5.9,2.8,9.7,7.3,9.7c2.3,0,4-1,5.5-2.7l1.6,1.9c-1.9,2.2-4.2,3.4-7.2,3.4C610,1371.5,605.6,1367,605.6,1359.3z"/>
		</g>
	</g>
	<g>
		<g class="st1">
			<path d="M658.4,1358.9l-6.4-11.4h3.3l3.2,6c0.6,1.1,1.1,2.1,1.8,3.4h0.1c0.6-1.4,1.1-2.4,1.7-3.4l3.1-6h3.2l-6.4,11.6l6.9,12.1
				h-3.3l-3.5-6.4c-0.6-1.2-1.3-2.4-2-3.8H660c-0.7,1.4-1.3,2.6-1.9,3.8l-3.4,6.4h-3.2L658.4,1358.9z"/>
		</g>
	</g>
	<path id="path8-3" inkscape:connector-curvature="0" d="M407.1,828.3c0,3.5-2.9,6.4-6.4,6.4c-3.5,0-6.4-2.9-6.4-6.4
		c0-3.5,2.9-6.4,6.4-6.4C404.2,821.9,407.1,824.8,407.1,828.3"/>
	<path id="path8-7" inkscape:connector-curvature="0" d="M503.5,828.3c0,3.5-2.9,6.4-6.4,6.4c-3.5,0-6.4-2.9-6.4-6.4
		c0-3.5,2.9-6.4,6.4-6.4C500.6,821.9,503.5,824.8,503.5,828.3"/>
	<path id="path8-35" inkscape:connector-curvature="0" d="M455.3,828.3c0,3.5-2.9,6.4-6.4,6.4c-3.5,0-6.4-2.9-6.4-6.4
		c0-3.5,2.9-6.4,6.4-6.4C452.4,821.9,455.3,824.8,455.3,828.3"/>
</g>
<g class="st2">
	<path class="st3" d="M207.4,794.2c0,3.9-3.2,7.1-7.1,7.1h-22.7c-3.9,0-7.1-3.2-7.1-7.1v-28.3c0-3.9,3.2-7.1,7.1-7.1h22.7
		c3.9,0,7.1,3.2,7.1,7.1V794.2z"/>
	<path class="st3" d="M254.6,794.2c0,3.9-3.2,7.1-7.1,7.1h-22.7c-3.9,0-7.1-3.2-7.1-7.1v-28.3c0-3.9,3.2-7.1,7.1-7.1h22.7
		c3.9,0,7.1,3.2,7.1,7.1V794.2z"/>
	<path class="st3" d="M301.9,794.2c0,3.9-3.2,7.1-7.1,7.1h-22.7c-3.9,0-7.1-3.2-7.1-7.1v-28.3c0-3.9,3.2-7.1,7.1-7.1h22.7
		c3.9,0,7.1,3.2,7.1,7.1V794.2z"/>
	<path class="st3" d="M349.1,794.2c0,3.9-3.2,7.1-7.1,7.1h-22.7c-3.9,0-7.1-3.2-7.1-7.1v-28.3c0-3.9,3.2-7.1,7.1-7.1H342
		c3.9,0,7.1,3.2,7.1,7.1V794.2z"/>
	<path class="st3" d="M396.4,794.2c0,3.9-3.2,7.1-7.1,7.1h-22.7c-3.9,0-7.1-3.2-7.1-7.1v-28.3c0-3.9,3.2-7.1,7.1-7.1h22.7
		c3.9,0,7.1,3.2,7.1,7.1V794.2z"/>
	<path class="st3" d="M443.6,794.2c0,3.9-3.2,7.1-7.1,7.1h-22.7c-3.9,0-7.1-3.2-7.1-7.1v-28.3c0-3.9,3.2-7.1,7.1-7.1h22.7
		c3.9,0,7.1,3.2,7.1,7.1V794.2z"/>
	<path class="st3" d="M490.9,794.2c0,3.9-3.2,7.1-7.1,7.1h-22.7c-3.9,0-7.1-3.2-7.1-7.1v-28.3c0-3.9,3.2-7.1,7.1-7.1h22.7
		c3.9,0,7.1,3.2,7.1,7.1V794.2z"/>
	<path class="st3" d="M538.1,794.2c0,3.9-3.2,7.1-7.1,7.1h-22.7c-3.9,0-7.1-3.2-7.1-7.1v-28.3c0-3.9,3.2-7.1,7.1-7.1H531
		c3.9,0,7.1,3.2,7.1,7.1V794.2z"/>
	<path class="st3" d="M585.4,794.2c0,3.9-3.2,7.1-7.1,7.1h-22.7c-3.9,0-7.1-3.2-7.1-7.1v-28.3c0-3.9,3.2-7.1,7.1-7.1h22.7
		c3.9,0,7.1,3.2,7.1,7.1V794.2z"/>
	<path class="st3" d="M632.6,794.2c0,3.9-3.2,7.1-7.1,7.1h-22.7c-3.9,0-7.1-3.2-7.1-7.1v-28.3c0-3.9,3.2-7.1,7.1-7.1h22.7
		c3.9,0,7.1,3.2,7.1,7.1V794.2z"/>
	<path class="st3" d="M679.8,794.2c0,3.9-3.2,7.1-7.1,7.1h-22.7c-3.9,0-7.1-3.2-7.1-7.1v-28.3c0-3.9,3.2-7.1,7.1-7.1h22.7
		c3.9,0,7.1,3.2,7.1,7.1V794.2z"/>
	<path class="st3" d="M207.4,846.6c0,3.9-3.2,7.1-7.1,7.1h-22.7c-3.9,0-7.1-3.2-7.1-7.1v-28.3c0-3.9,3.2-7.1,7.1-7.1h22.7
		c3.9,0,7.1,3.2,7.1,7.1V846.6z"/>
	<path class="st3" d="M254.6,846.6c0,3.9-3.2,7.1-7.1,7.1h-22.7c-3.9,0-7.1-3.2-7.1-7.1v-28.3c0-3.9,3.2-7.1,7.1-7.1h22.7
		c3.9,0,7.1,3.2,7.1,7.1V846.6z"/>
	<path class="st3" d="M301.9,846.6c0,3.9-3.2,7.1-7.1,7.1h-22.7c-3.9,0-7.1-3.2-7.1-7.1v-28.3c0-3.9,3.2-7.1,7.1-7.1h22.7
		c3.9,0,7.1,3.2,7.1,7.1V846.6z"/>
	<path class="st3" d="M349.1,846.6c0,3.9-3.2,7.1-7.1,7.1h-22.7c-3.9,0-7.1-3.2-7.1-7.1v-28.3c0-3.9,3.2-7.1,7.1-7.1H342
		c3.9,0,7.1,3.2,7.1,7.1V846.6z"/>
	<path class="st3" d="M396.4,846.6c0,3.9-3.2,7.1-7.1,7.1h-22.7c-3.9,0-7.1-3.2-7.1-7.1v-28.3c0-3.9,3.2-7.1,7.1-7.1h22.7
		c3.9,0,7.1,3.2,7.1,7.1V846.6z"/>
	<path class="st3" d="M446.5,846.6c0,3.9-3.7,7.1-8.2,7.1h-26.2c-4.5,0-8.2-3.2-8.2-7.1v-28.3c0-3.9,3.7-7.1,8.2-7.1h26.2
		c4.5,0,8.2,3.2,8.2,7.1V846.6z"/>
	<path class="st3" d="M490.9,846.6c0,3.9-3.2,7.1-7.1,7.1h-22.7c-3.9,0-7.1-3.2-7.1-7.1v-28.3c0-3.9,3.2-7.1,7.1-7.1h22.7
		c3.9,0,7.1,3.2,7.1,7.1V846.6z"/>
	<path class="st3" d="M538.1,846.6c0,3.9-3.2,7.1-7.1,7.1h-22.7c-3.9,0-7.1-3.2-7.1-7.1v-28.3c0-3.9,3.2-7.1,7.1-7.1H531
		c3.9,0,7.1,3.2,7.1,7.1V846.6z"/>
	<path class="st3" d="M585.4,846.6c0,3.9-3.2,7.1-7.1,7.1h-22.7c-3.9,0-7.1-3.2-7.1-7.1v-28.3c0-3.9,3.2-7.1,7.1-7.1h22.7
		c3.9,0,7.1,3.2,7.1,7.1V846.6z"/>
	<path class="st3" d="M632.6,846.6c0,3.9-3.2,7.1-7.1,7.1h-22.7c-3.9,0-7.1-3.2-7.1-7.1v-28.3c0-3.9,3.2-7.1,7.1-7.1h22.7
		c3.9,0,7.1,3.2,7.1,7.1V846.6z"/>
	<path class="st3" d="M679.8,846.6c0,3.9-3.2,7.1-7.1,7.1h-22.7c-3.9,0-7.1-3.2-7.1-7.1v-28.3c0-3.9,3.2-7.1,7.1-7.1h22.7
		c3.9,0,7.1,3.2,7.1,7.1V846.6z"/>
	<path class="st3" d="M207.4,899.1c0,3.9-3.2,7.1-7.1,7.1h-22.7c-3.9,0-7.1-3.2-7.1-7.1v-28.3c0-3.9,3.2-7.1,7.1-7.1h22.7
		c3.9,0,7.1,3.2,7.1,7.1V899.1z"/>
	<path class="st3" d="M257.5,899.1c0,3.9-3.7,7.1-8.2,7.1h-26.2c-4.5,0-8.2-3.2-8.2-7.1v-28.3c0-3.9,3.7-7.1,8.2-7.1h26.2
		c4.5,0,8.2,3.2,8.2,7.1V899.1L257.5,899.1z"/>
	<path class="st3" d="M301.9,899.1c0,3.9-3.2,7.1-7.1,7.1h-22.7c-3.9,0-7.1-3.2-7.1-7.1v-28.3c0-3.9,3.2-7.1,7.1-7.1h22.7
		c3.9,0,7.1,3.2,7.1,7.1V899.1z"/>
	<path class="st3" d="M349.1,899.1c0,3.9-3.2,7.1-7.1,7.1h-22.7c-3.9,0-7.1-3.2-7.1-7.1v-28.3c0-3.9,3.2-7.1,7.1-7.1H342
		c3.9,0,7.1,3.2,7.1,7.1V899.1z"/>
	<path class="st3" d="M396.4,899.1c0,3.9-3.2,7.1-7.1,7.1h-22.7c-3.9,0-7.1-3.2-7.1-7.1v-28.3c0-3.9,3.2-7.1,7.1-7.1h22.7
		c3.9,0,7.1,3.2,7.1,7.1V899.1z"/>
	<path class="st3" d="M443.6,899.1c0,3.9-3.2,7.1-7.1,7.1h-22.7c-3.9,0-7.1-3.2-7.1-7.1v-28.3c0-3.9,3.2-7.1,7.1-7.1h22.7
		c3.9,0,7.1,3.2,7.1,7.1V899.1z"/>
	<path class="st3" d="M490.9,899.1c0,3.9-3.2,7.1-7.1,7.1h-22.7c-3.9,0-7.1-3.2-7.1-7.1v-28.3c0-3.9,3.2-7.1,7.1-7.1h22.7
		c3.9,0,7.1,3.2,7.1,7.1V899.1z"/>
	<path class="st3" d="M538.1,899.1c0,3.9-3.2,7.1-7.1,7.1h-22.7c-3.9,0-7.1-3.2-7.1-7.1v-28.3c0-3.9,3.2-7.1,7.1-7.1H531
		c3.9,0,7.1,3.2,7.1,7.1V899.1z"/>
	<path class="st3" d="M585.4,899.1c0,3.9-3.2,7.1-7.1,7.1h-22.7c-3.9,0-7.1-3.2-7.1-7.1v-28.3c0-3.9,3.2-7.1,7.1-7.1h22.7
		c3.9,0,7.1,3.2,7.1,7.1V899.1z"/>
	<path class="st3" d="M635.4,899.1c0,3.9-3.7,7.1-8.2,7.1h-26.2c-4.5,0-8.2-3.2-8.2-7.1v-28.3c0-3.9,3.7-7.1,8.2-7.1h26.2
		c4.5,0,8.2,3.2,8.2,7.1V899.1z"/>
	<path class="st3" d="M679.8,899.1c0,3.9-3.2,7.1-7.1,7.1h-22.7c-3.9,0-7.1-3.2-7.1-7.1v-28.3c0-3.9,3.2-7.1,7.1-7.1h22.7
		c3.9,0,7.1,3.2,7.1,7.1V899.1z"/>
	<path class="st3" d="M207.4,951.6c0,3.9-3.2,7.1-7.1,7.1h-22.7c-3.9,0-7.1-3.2-7.1-7.1v-28.3c0-3.9,3.2-7.1,7.1-7.1h22.7
		c3.9,0,7.1,3.2,7.1,7.1V951.6z"/>
	<path class="st3" d="M254.6,951.6c0,3.9-3.2,7.1-7.1,7.1h-22.7c-3.9,0-7.1-3.2-7.1-7.1v-28.3c0-3.9,3.2-7.1,7.1-7.1h22.7
		c3.9,0,7.1,3.2,7.1,7.1V951.6z"/>
	<path class="st3" d="M301.9,951.6c0,3.9-3.2,7.1-7.1,7.1h-22.7c-3.9,0-7.1-3.2-7.1-7.1v-28.3c0-3.9,3.2-7.1,7.1-7.1h22.7
		c3.9,0,7.1,3.2,7.1,7.1V951.6z"/>
	<path class="st3" d="M349.1,951.6c0,3.9-3.2,7.1-7.1,7.1h-22.7c-3.9,0-7.1-3.2-7.1-7.1v-28.3c0-3.9,3.2-7.1,7.1-7.1H342
		c3.9,0,7.1,3.2,7.1,7.1V951.6z"/>
	<path class="st3" d="M396.4,951.6c0,3.9-3.2,7.1-7.1,7.1h-22.7c-3.9,0-7.1-3.2-7.1-7.1v-28.3c0-3.9,3.2-7.1,7.1-7.1h22.7
		c3.9,0,7.1,3.2,7.1,7.1V951.6z"/>
	<path class="st3" d="M443.6,951.6c0,3.9-3.2,7.1-7.1,7.1h-22.7c-3.9,0-7.1-3.2-7.1-7.1v-28.3c0-3.9,3.2-7.1,7.1-7.1h22.7
		c3.9,0,7.1,3.2,7.1,7.1V951.6z"/>
	<path class="st3" d="M490.9,951.6c0,3.9-3.2,7.1-7.1,7.1h-22.7c-3.9,0-7.1-3.2-7.1-7.1v-28.3c0-3.9,3.2-7.1,7.1-7.1h22.7
		c3.9,0,7.1,3.2,7.1,7.1V951.6z"/>
	<path class="st3" d="M538.1,951.6c0,3.9-3.2,7.1-7.1,7.1h-22.7c-3.9,0-7.1-3.2-7.1-7.1v-28.3c0-3.9,3.2-7.1,7.1-7.1H531
		c3.9,0,7.1,3.2,7.1,7.1V951.6z"/>
	<path class="st3" d="M585.4,951.6c0,3.9-3.2,7.1-7.1,7.1h-22.7c-3.9,0-7.1-3.2-7.1-7.1v-28.3c0-3.9,3.2-7.1,7.1-7.1h22.7
		c3.9,0,7.1,3.2,7.1,7.1V951.6z"/>
	<path class="st3" d="M632.6,951.6c0,3.9-3.2,7.1-7.1,7.1h-22.7c-3.9,0-7.1-3.2-7.1-7.1v-28.3c0-3.9,3.2-7.1,7.1-7.1h22.7
		c3.9,0,7.1,3.2,7.1,7.1V951.6z"/>
	<path class="st3" d="M679.8,951.6c0,3.9-3.2,7.1-7.1,7.1h-22.7c-3.9,0-7.1-3.2-7.1-7.1v-28.3c0-3.9,3.2-7.1,7.1-7.1h22.7
		c3.9,0,7.1,3.2,7.1,7.1V951.6z"/>
	<path class="st3" d="M207.4,1004.1c0,3.9-3.2,7.1-7.1,7.1h-22.7c-3.9,0-7.1-3.2-7.1-7.1v-28.3c0-3.9,3.2-7.1,7.1-7.1h22.7
		c3.9,0,7.1,3.2,7.1,7.1V1004.1z"/>
	<path class="st3" d="M254.6,1004.1c0,3.9-3.2,7.1-7.1,7.1h-22.7c-3.9,0-7.1-3.2-7.1-7.1v-28.3c0-3.9,3.2-7.1,7.1-7.1h22.7
		c3.9,0,7.1,3.2,7.1,7.1V1004.1z"/>
	<path class="st3" d="M301.9,1004.1c0,3.9-3.2,7.1-7.1,7.1h-22.7c-3.9,0-7.1-3.2-7.1-7.1v-28.3c0-3.9,3.2-7.1,7.1-7.1h22.7
		c3.9,0,7.1,3.2,7.1,7.1V1004.1z"/>
	<path class="st3" d="M352,1004.1c0,3.9-3.7,7.1-8.2,7.1h-26.2c-4.5,0-8.2-3.2-8.2-7.1v-28.3c0-3.9,3.7-7.1,8.2-7.1h26.2
		c4.5,0,8.2,3.2,8.2,7.1V1004.1z"/>
	<path class="st3" d="M396.4,1004.1c0,3.9-3.2,7.1-7.1,7.1h-22.7c-3.9,0-7.1-3.2-7.1-7.1v-28.3c0-3.9,3.2-7.1,7.1-7.1h22.7
		c3.9,0,7.1,3.2,7.1,7.1V1004.1z"/>
	<path class="st3" d="M443.6,1004.1c0,3.9-3.2,7.1-7.1,7.1h-22.7c-3.9,0-7.1-3.2-7.1-7.1v-28.3c0-3.9,3.2-7.1,7.1-7.1h22.7
		c3.9,0,7.1,3.2,7.1,7.1V1004.1z"/>
	<path class="st3" d="M490.9,1004.1c0,3.9-3.2,7.1-7.1,7.1h-22.7c-3.9,0-7.1-3.2-7.1-7.1v-28.3c0-3.9,3.2-7.1,7.1-7.1h22.7
		c3.9,0,7.1,3.2,7.1,7.1V1004.1z"/>
	<path class="st3" d="M540.9,1004.1c0,3.9-3.7,7.1-8.2,7.1h-26.2c-4.5,0-8.2-3.2-8.2-7.1v-28.3c0-3.9,3.7-7.1,8.2-7.1h26.2
		c4.5,0,8.2,3.2,8.2,7.1L540.9,1004.1L540.9,1004.1z"/>
	<path class="st3" d="M585.4,1004.1c0,3.9-3.2,7.1-7.1,7.1h-22.7c-3.9,0-7.1-3.2-7.1-7.1v-28.3c0-3.9,3.2-7.1,7.1-7.1h22.7
		c3.9,0,7.1,3.2,7.1,7.1V1004.1z"/>
	<path class="st3" d="M632.6,1004.1c0,3.9-3.2,7.1-7.1,7.1h-22.7c-3.9,0-7.1-3.2-7.1-7.1v-28.3c0-3.9,3.2-7.1,7.1-7.1h22.7
		c3.9,0,7.1,3.2,7.1,7.1V1004.1z"/>
	<path class="st3" d="M679.8,1004.1c0,3.9-3.2,7.1-7.1,7.1h-22.7c-3.9,0-7.1-3.2-7.1-7.1v-28.3c0-3.9,3.2-7.1,7.1-7.1h22.7
		c3.9,0,7.1,3.2,7.1,7.1V1004.1z"/>
	<path class="st3" d="M207.4,1056.6c0,3.9-3.2,7.1-7.1,7.1h-22.7c-3.9,0-7.1-3.2-7.1-7.1v-28.3c0-3.9,3.2-7.1,7.1-7.1h22.7
		c3.9,0,7.1,3.2,7.1,7.1V1056.6z"/>
	<path class="st3" d="M254.6,1056.6c0,3.9-3.2,7.1-7.1,7.1h-22.7c-3.9,0-7.1-3.2-7.1-7.1v-28.3c0-3.9,3.2-7.1,7.1-7.1h22.7
		c3.9,0,7.1,3.2,7.1,7.1V1056.6z"/>
	<path class="st3" d="M301.9,1056.6c0,3.9-3.2,7.1-7.1,7.1h-22.7c-3.9,0-7.1-3.2-7.1-7.1v-28.3c0-3.9,3.2-7.1,7.1-7.1h22.7
		c3.9,0,7.1,3.2,7.1,7.1V1056.6z"/>
	<path class="st3" d="M352,1056.6c0,3.9-3.7,7.1-8.2,7.1h-26.2c-4.5,0-8.2-3.2-8.2-7.1v-28.3c0-3.9,3.7-7.1,8.2-7.1h26.2
		c4.5,0,8.2,3.2,8.2,7.1V1056.6z"/>
	<path class="st3" d="M396.4,1056.6c0,3.9-3.2,7.1-7.1,7.1h-22.7c-3.9,0-7.1-3.2-7.1-7.1v-28.3c0-3.9,3.2-7.1,7.1-7.1h22.7
		c3.9,0,7.1,3.2,7.1,7.1V1056.6z"/>
	<path class="st3" d="M443.6,1056.6c0,3.9-3.2,7.1-7.1,7.1h-22.7c-3.9,0-7.1-3.2-7.1-7.1v-28.3c0-3.9,3.2-7.1,7.1-7.1h22.7
		c3.9,0,7.1,3.2,7.1,7.1V1056.6z"/>
	<path class="st3" d="M490.9,1056.6c0,3.9-3.2,7.1-7.1,7.1h-22.7c-3.9,0-7.1-3.2-7.1-7.1v-28.3c0-3.9,3.2-7.1,7.1-7.1h22.7
		c3.9,0,7.1,3.2,7.1,7.1V1056.6z"/>
	<path class="st3" d="M540.9,1056.6c0,3.9-3.7,7.1-8.2,7.1h-26.2c-4.5,0-8.2-3.2-8.2-7.1v-28.3c0-3.9,3.7-7.1,8.2-7.1h26.2
		c4.5,0,8.2,3.2,8.2,7.1L540.9,1056.6L540.9,1056.6z"/>
	<path class="st3" d="M585.4,1056.6c0,3.9-3.2,7.1-7.1,7.1h-22.7c-3.9,0-7.1-3.2-7.1-7.1v-28.3c0-3.9,3.2-7.1,7.1-7.1h22.7
		c3.9,0,7.1,3.2,7.1,7.1V1056.6z"/>
	<path class="st3" d="M632.6,1056.6c0,3.9-3.2,7.1-7.1,7.1h-22.7c-3.9,0-7.1-3.2-7.1-7.1v-28.3c0-3.9,3.2-7.1,7.1-7.1h22.7
		c3.9,0,7.1,3.2,7.1,7.1V1056.6z"/>
	<path class="st3" d="M679.8,1056.6c0,3.9-3.2,7.1-7.1,7.1h-22.7c-3.9,0-7.1-3.2-7.1-7.1v-28.3c0-3.9,3.2-7.1,7.1-7.1h22.7
		c3.9,0,7.1,3.2,7.1,7.1V1056.6z"/>
	<path class="st3" d="M207.4,1109.1c0,3.9-3.2,7.1-7.1,7.1h-22.7c-3.9,0-7.1-3.2-7.1-7.1v-28.3c0-3.9,3.2-7.1,7.1-7.1h22.7
		c3.9,0,7.1,3.2,7.1,7.1V1109.1z"/>
	<path class="st3" d="M254.6,1109.1c0,3.9-3.2,7.1-7.1,7.1h-22.7c-3.9,0-7.1-3.2-7.1-7.1v-28.3c0-3.9,3.2-7.1,7.1-7.1h22.7
		c3.9,0,7.1,3.2,7.1,7.1V1109.1z"/>
	<path class="st3" d="M301.9,1109.1c0,3.9-3.2,7.1-7.1,7.1h-22.7c-3.9,0-7.1-3.2-7.1-7.1v-28.3c0-3.9,3.2-7.1,7.1-7.1h22.7
		c3.9,0,7.1,3.2,7.1,7.1V1109.1z"/>
	<path class="st3" d="M349.1,1109.1c0,3.9-3.2,7.1-7.1,7.1h-22.7c-3.9,0-7.1-3.2-7.1-7.1v-28.3c0-3.9,3.2-7.1,7.1-7.1H342
		c3.9,0,7.1,3.2,7.1,7.1V1109.1z"/>
	<path class="st3" d="M396.4,1109.1c0,3.9-3.2,7.1-7.1,7.1h-22.7c-3.9,0-7.1-3.2-7.1-7.1v-28.3c0-3.9,3.2-7.1,7.1-7.1h22.7
		c3.9,0,7.1,3.2,7.1,7.1V1109.1z"/>
	<path class="st3" d="M443.6,1109.1c0,3.9-3.2,7.1-7.1,7.1h-22.7c-3.9,0-7.1-3.2-7.1-7.1v-28.3c0-3.9,3.2-7.1,7.1-7.1h22.7
		c3.9,0,7.1,3.2,7.1,7.1V1109.1z"/>
	<path class="st3" d="M490.9,1109.1c0,3.9-3.2,7.1-7.1,7.1h-22.7c-3.9,0-7.1-3.2-7.1-7.1v-28.3c0-3.9,3.2-7.1,7.1-7.1h22.7
		c3.9,0,7.1,3.2,7.1,7.1V1109.1z"/>
	<path class="st3" d="M538.1,1109.1c0,3.9-3.2,7.1-7.1,7.1h-22.7c-3.9,0-7.1-3.2-7.1-7.1v-28.3c0-3.9,3.2-7.1,7.1-7.1H531
		c3.9,0,7.1,3.2,7.1,7.1V1109.1z"/>
	<path class="st3" d="M585.4,1109.1c0,3.9-3.2,7.1-7.1,7.1h-22.7c-3.9,0-7.1-3.2-7.1-7.1v-28.3c0-3.9,3.2-7.1,7.1-7.1h22.7
		c3.9,0,7.1,3.2,7.1,7.1V1109.1z"/>
	<path class="st3" d="M632.6,1109.1c0,3.9-3.2,7.1-7.1,7.1h-22.7c-3.9,0-7.1-3.2-7.1-7.1v-28.3c0-3.9,3.2-7.1,7.1-7.1h22.7
		c3.9,0,7.1,3.2,7.1,7.1V1109.1z"/>
	<path class="st3" d="M679.8,1109.1c0,3.9-3.2,7.1-7.1,7.1h-22.7c-3.9,0-7.1-3.2-7.1-7.1v-28.3c0-3.9,3.2-7.1,7.1-7.1h22.7
		c3.9,0,7.1,3.2,7.1,7.1V1109.1z"/>
	<path class="st3" d="M207.4,1161.6c0,3.9-3.2,7.1-7.1,7.1h-22.7c-3.9,0-7.1-3.2-7.1-7.1v-28.3c0-3.9,3.2-7.1,7.1-7.1h22.7
		c3.9,0,7.1,3.2,7.1,7.1V1161.6z"/>
	<path class="st3" d="M257.5,1161.6c0,3.9-3.7,7.1-8.2,7.1h-26.2c-4.5,0-8.2-3.2-8.2-7.1v-28.3c0-3.9,3.7-7.1,8.2-7.1h26.2
		c4.5,0,8.2,3.2,8.2,7.1V1161.6L257.5,1161.6z"/>
	<path class="st3" d="M301.9,1161.6c0,3.9-3.2,7.1-7.1,7.1h-22.7c-3.9,0-7.1-3.2-7.1-7.1v-28.3c0-3.9,3.2-7.1,7.1-7.1h22.7
		c3.9,0,7.1,3.2,7.1,7.1V1161.6z"/>
	<path class="st3" d="M349.1,1161.6c0,3.9-3.2,7.1-7.1,7.1h-22.7c-3.9,0-7.1-3.2-7.1-7.1v-28.3c0-3.9,3.2-7.1,7.1-7.1H342
		c3.9,0,7.1,3.2,7.1,7.1V1161.6z"/>
	<path class="st3" d="M396.4,1161.6c0,3.9-3.2,7.1-7.1,7.1h-22.7c-3.9,0-7.1-3.2-7.1-7.1v-28.3c0-3.9,3.2-7.1,7.1-7.1h22.7
		c3.9,0,7.1,3.2,7.1,7.1V1161.6z"/>
	<path class="st3" d="M443.6,1161.6c0,3.9-3.2,7.1-7.1,7.1h-22.7c-3.9,0-7.1-3.2-7.1-7.1v-28.3c0-3.9,3.2-7.1,7.1-7.1h22.7
		c3.9,0,7.1,3.2,7.1,7.1V1161.6z"/>
	<path class="st3" d="M490.9,1161.6c0,3.9-3.2,7.1-7.1,7.1h-22.7c-3.9,0-7.1-3.2-7.1-7.1v-28.3c0-3.9,3.2-7.1,7.1-7.1h22.7
		c3.9,0,7.1,3.2,7.1,7.1V1161.6z"/>
	<path class="st3" d="M538.1,1161.6c0,3.9-3.2,7.1-7.1,7.1h-22.7c-3.9,0-7.1-3.2-7.1-7.1v-28.3c0-3.9,3.2-7.1,7.1-7.1H531
		c3.9,0,7.1,3.2,7.1,7.1V1161.6z"/>
	<path class="st3" d="M585.4,1161.6c0,3.9-3.2,7.1-7.1,7.1h-22.7c-3.9,0-7.1-3.2-7.1-7.1v-28.3c0-3.9,3.2-7.1,7.1-7.1h22.7
		c3.9,0,7.1,3.2,7.1,7.1V1161.6z"/>
	<path class="st3" d="M635.4,1161.6c0,3.9-3.7,7.1-8.2,7.1h-26.2c-4.5,0-8.2-3.2-8.2-7.1v-28.3c0-3.9,3.7-7.1,8.2-7.1h26.2
		c4.5,0,8.2,3.2,8.2,7.1V1161.6z"/>
	<path class="st3" d="M679.8,1161.6c0,3.9-3.2,7.1-7.1,7.1h-22.7c-3.9,0-7.1-3.2-7.1-7.1v-28.3c0-3.9,3.2-7.1,7.1-7.1h22.7
		c3.9,0,7.1,3.2,7.1,7.1V1161.6z"/>
	<path class="st3" d="M207.4,1214.1c0,3.9-3.2,7.1-7.1,7.1h-22.7c-3.9,0-7.1-3.2-7.1-7.1v-28.3c0-3.9,3.2-7.1,7.1-7.1h22.7
		c3.9,0,7.1,3.2,7.1,7.1V1214.1z"/>
	<path class="st3" d="M254.6,1214.1c0,3.9-3.2,7.1-7.1,7.1h-22.7c-3.9,0-7.1-3.2-7.1-7.1v-28.3c0-3.9,3.2-7.1,7.1-7.1h22.7
		c3.9,0,7.1,3.2,7.1,7.1V1214.1z"/>
	<path class="st3" d="M301.9,1214.1c0,3.9-3.2,7.1-7.1,7.1h-22.7c-3.9,0-7.1-3.2-7.1-7.1v-28.3c0-3.9,3.2-7.1,7.1-7.1h22.7
		c3.9,0,7.1,3.2,7.1,7.1V1214.1z"/>
	<path class="st3" d="M349.1,1214.1c0,3.9-3.2,7.1-7.1,7.1h-22.7c-3.9,0-7.1-3.2-7.1-7.1v-28.3c0-3.9,3.2-7.1,7.1-7.1H342
		c3.9,0,7.1,3.2,7.1,7.1V1214.1z"/>
	<path class="st3" d="M396.4,1214.1c0,3.9-3.2,7.1-7.1,7.1h-22.7c-3.9,0-7.1-3.2-7.1-7.1v-28.3c0-3.9,3.2-7.1,7.1-7.1h22.7
		c3.9,0,7.1,3.2,7.1,7.1V1214.1z"/>
	<path class="st3" d="M446.5,1214.1c0,3.9-3.7,7.1-8.2,7.1h-26.2c-4.5,0-8.2-3.2-8.2-7.1v-28.3c0-3.9,3.7-7.1,8.2-7.1h26.2
		c4.5,0,8.2,3.2,8.2,7.1V1214.1z"/>
	<path class="st3" d="M490.9,1214.1c0,3.9-3.2,7.1-7.1,7.1h-22.7c-3.9,0-7.1-3.2-7.1-7.1v-28.3c0-3.9,3.2-7.1,7.1-7.1h22.7
		c3.9,0,7.1,3.2,7.1,7.1V1214.1z"/>
	<path class="st3" d="M538.1,1214.1c0,3.9-3.2,7.1-7.1,7.1h-22.7c-3.9,0-7.1-3.2-7.1-7.1v-28.3c0-3.9,3.2-7.1,7.1-7.1H531
		c3.9,0,7.1,3.2,7.1,7.1V1214.1z"/>
	<path class="st3" d="M585.4,1214.1c0,3.9-3.2,7.1-7.1,7.1h-22.7c-3.9,0-7.1-3.2-7.1-7.1v-28.3c0-3.9,3.2-7.1,7.1-7.1h22.7
		c3.9,0,7.1,3.2,7.1,7.1V1214.1z"/>
	<path class="st3" d="M632.6,1214.1c0,3.9-3.2,7.1-7.1,7.1h-22.7c-3.9,0-7.1-3.2-7.1-7.1v-28.3c0-3.9,3.2-7.1,7.1-7.1h22.7
		c3.9,0,7.1,3.2,7.1,7.1V1214.1z"/>
	<path class="st3" d="M679.8,1214.1c0,3.9-3.2,7.1-7.1,7.1h-22.7c-3.9,0-7.1-3.2-7.1-7.1v-28.3c0-3.9,3.2-7.1,7.1-7.1h22.7
		c3.9,0,7.1,3.2,7.1,7.1V1214.1z"/>
	<path class="st3" d="M207.4,1266.6c0,3.9-3.2,7.1-7.1,7.1h-22.7c-3.9,0-7.1-3.2-7.1-7.1v-28.3c0-3.9,3.2-7.1,7.1-7.1h22.7
		c3.9,0,7.1,3.2,7.1,7.1V1266.6z"/>
	<path class="st3" d="M254.6,1266.6c0,3.9-3.2,7.1-7.1,7.1h-22.7c-3.9,0-7.1-3.2-7.1-7.1v-28.3c0-3.9,3.2-7.1,7.1-7.1h22.7
		c3.9,0,7.1,3.2,7.1,7.1V1266.6z"/>
	<path class="st3" d="M301.9,1266.6c0,3.9-3.2,7.1-7.1,7.1h-22.7c-3.9,0-7.1-3.2-7.1-7.1v-28.3c0-3.9,3.2-7.1,7.1-7.1h22.7
		c3.9,0,7.1,3.2,7.1,7.1V1266.6z"/>
	<path class="st3" d="M349.1,1266.6c0,3.9-3.2,7.1-7.1,7.1h-22.7c-3.9,0-7.1-3.2-7.1-7.1v-28.3c0-3.9,3.2-7.1,7.1-7.1H342
		c3.9,0,7.1,3.2,7.1,7.1V1266.6z"/>
	<path class="st3" d="M396.4,1266.6c0,3.9-3.2,7.1-7.1,7.1h-22.7c-3.9,0-7.1-3.2-7.1-7.1v-28.3c0-3.9,3.2-7.1,7.1-7.1h22.7
		c3.9,0,7.1,3.2,7.1,7.1V1266.6z"/>
	<path class="st3" d="M443.6,1266.6c0,3.9-3.2,7.1-7.1,7.1h-22.7c-3.9,0-7.1-3.2-7.1-7.1v-28.3c0-3.9,3.2-7.1,7.1-7.1h22.7
		c3.9,0,7.1,3.2,7.1,7.1V1266.6z"/>
	<path class="st3" d="M490.9,1266.6c0,3.9-3.2,7.1-7.1,7.1h-22.7c-3.9,0-7.1-3.2-7.1-7.1v-28.3c0-3.9,3.2-7.1,7.1-7.1h22.7
		c3.9,0,7.1,3.2,7.1,7.1V1266.6z"/>
	<path class="st3" d="M538.1,1266.6c0,3.9-3.2,7.1-7.1,7.1h-22.7c-3.9,0-7.1-3.2-7.1-7.1v-28.3c0-3.9,3.2-7.1,7.1-7.1H531
		c3.9,0,7.1,3.2,7.1,7.1V1266.6z"/>
	<path class="st3" d="M585.4,1266.6c0,3.9-3.2,7.1-7.1,7.1h-22.7c-3.9,0-7.1-3.2-7.1-7.1v-28.3c0-3.9,3.2-7.1,7.1-7.1h22.7
		c3.9,0,7.1,3.2,7.1,7.1V1266.6z"/>
	<path class="st3" d="M632.6,1266.6c0,3.9-3.2,7.1-7.1,7.1h-22.7c-3.9,0-7.1-3.2-7.1-7.1v-28.3c0-3.9,3.2-7.1,7.1-7.1h22.7
		c3.9,0,7.1,3.2,7.1,7.1V1266.6z"/>
	<path class="st3" d="M679.8,1266.6c0,3.9-3.2,7.1-7.1,7.1h-22.7c-3.9,0-7.1-3.2-7.1-7.1v-28.3c0-3.9,3.2-7.1,7.1-7.1h22.7
		c3.9,0,7.1,3.2,7.1,7.1V1266.6z"/>
	<path class="st3" d="M207.4,203.2c0,3.9-3.2,7.1-7.1,7.1h-22.7c-3.9,0-7.1-3.2-7.1-7.1v-28.3c0-3.9,3.2-7.1,7.1-7.1h22.7
		c3.9,0,7.1,3.2,7.1,7.1V203.2z"/>
	<path class="st3" d="M254.6,203.2c0,3.9-3.2,7.1-7.1,7.1h-22.7c-3.9,0-7.1-3.2-7.1-7.1v-28.3c0-3.9,3.2-7.1,7.1-7.1h22.7
		c3.9,0,7.1,3.2,7.1,7.1V203.2z"/>
	<path class="st3" d="M301.9,203.2c0,3.9-3.2,7.1-7.1,7.1h-22.7c-3.9,0-7.1-3.2-7.1-7.1v-28.3c0-3.9,3.2-7.1,7.1-7.1h22.7
		c3.9,0,7.1,3.2,7.1,7.1V203.2z"/>
	<path class="st3" d="M349.1,203.2c0,3.9-3.2,7.1-7.1,7.1h-22.7c-3.9,0-7.1-3.2-7.1-7.1v-28.3c0-3.9,3.2-7.1,7.1-7.1H342
		c3.9,0,7.1,3.2,7.1,7.1V203.2z"/>
	<path class="st3" d="M396.4,203.2c0,3.9-3.2,7.1-7.1,7.1h-22.7c-3.9,0-7.1-3.2-7.1-7.1v-28.3c0-3.9,3.2-7.1,7.1-7.1h22.7
		c3.9,0,7.1,3.2,7.1,7.1V203.2z"/>
	<path class="st3" d="M443.6,203.2c0,3.9-3.2,7.1-7.1,7.1h-22.7c-3.9,0-7.1-3.2-7.1-7.1v-28.3c0-3.9,3.2-7.1,7.1-7.1h22.7
		c3.9,0,7.1,3.2,7.1,7.1V203.2z"/>
	<path class="st3" d="M490.9,203.2c0,3.9-3.2,7.1-7.1,7.1h-22.7c-3.9,0-7.1-3.2-7.1-7.1v-28.3c0-3.9,3.2-7.1,7.1-7.1h22.7
		c3.9,0,7.1,3.2,7.1,7.1V203.2z"/>
	<path class="st3" d="M538.1,203.2c0,3.9-3.2,7.1-7.1,7.1h-22.7c-3.9,0-7.1-3.2-7.1-7.1v-28.3c0-3.9,3.2-7.1,7.1-7.1H531
		c3.9,0,7.1,3.2,7.1,7.1V203.2z"/>
	<path class="st3" d="M585.4,203.2c0,3.9-3.2,7.1-7.1,7.1h-22.7c-3.9,0-7.1-3.2-7.1-7.1v-28.3c0-3.9,3.2-7.1,7.1-7.1h22.7
		c3.9,0,7.1,3.2,7.1,7.1V203.2z"/>
	<path class="st3" d="M632.6,203.2c0,3.9-3.2,7.1-7.1,7.1h-22.7c-3.9,0-7.1-3.2-7.1-7.1v-28.3c0-3.9,3.2-7.1,7.1-7.1h22.7
		c3.9,0,7.1,3.2,7.1,7.1V203.2z"/>
	<path class="st3" d="M679.8,203.2c0,3.9-3.2,7.1-7.1,7.1h-22.7c-3.9,0-7.1-3.2-7.1-7.1v-28.3c0-3.9,3.2-7.1,7.1-7.1h22.7
		c3.9,0,7.1,3.2,7.1,7.1V203.2z"/>
	<path class="st3" d="M207.4,255.6c0,3.9-3.2,7.1-7.1,7.1h-22.7c-3.9,0-7.1-3.2-7.1-7.1v-28.3c0-3.9,3.2-7.1,7.1-7.1h22.7
		c3.9,0,7.1,3.2,7.1,7.1V255.6z"/>
	<path class="st3" d="M254.6,255.6c0,3.9-3.2,7.1-7.1,7.1h-22.7c-3.9,0-7.1-3.2-7.1-7.1v-28.3c0-3.9,3.2-7.1,7.1-7.1h22.7
		c3.9,0,7.1,3.2,7.1,7.1V255.6z"/>
	<path class="st3" d="M301.9,255.6c0,3.9-3.2,7.1-7.1,7.1h-22.7c-3.9,0-7.1-3.2-7.1-7.1v-28.3c0-3.9,3.2-7.1,7.1-7.1h22.7
		c3.9,0,7.1,3.2,7.1,7.1V255.6z"/>
	<path class="st3" d="M349.1,255.6c0,3.9-3.2,7.1-7.1,7.1h-22.7c-3.9,0-7.1-3.2-7.1-7.1v-28.3c0-3.9,3.2-7.1,7.1-7.1H342
		c3.9,0,7.1,3.2,7.1,7.1V255.6z"/>
	<path class="st3" d="M396.4,255.6c0,3.9-3.2,7.1-7.1,7.1h-22.7c-3.9,0-7.1-3.2-7.1-7.1v-28.3c0-3.9,3.2-7.1,7.1-7.1h22.7
		c3.9,0,7.1,3.2,7.1,7.1V255.6z"/>
	<path class="st3" d="M446.5,255.6c0,3.9-3.7,7.1-8.2,7.1h-26.2c-4.5,0-8.2-3.2-8.2-7.1v-28.3c0-3.9,3.7-7.1,8.2-7.1h26.2
		c4.5,0,8.2,3.2,8.2,7.1V255.6z"/>
	<path class="st3" d="M490.9,255.6c0,3.9-3.2,7.1-7.1,7.1h-22.7c-3.9,0-7.1-3.2-7.1-7.1v-28.3c0-3.9,3.2-7.1,7.1-7.1h22.7
		c3.9,0,7.1,3.2,7.1,7.1V255.6z"/>
	<path class="st3" d="M538.1,255.6c0,3.9-3.2,7.1-7.1,7.1h-22.7c-3.9,0-7.1-3.2-7.1-7.1v-28.3c0-3.9,3.2-7.1,7.1-7.1H531
		c3.9,0,7.1,3.2,7.1,7.1V255.6z"/>
	<path class="st3" d="M585.4,255.6c0,3.9-3.2,7.1-7.1,7.1h-22.7c-3.9,0-7.1-3.2-7.1-7.1v-28.3c0-3.9,3.2-7.1,7.1-7.1h22.7
		c3.9,0,7.1,3.2,7.1,7.1V255.6z"/>
	<path class="st3" d="M632.6,255.6c0,3.9-3.2,7.1-7.1,7.1h-22.7c-3.9,0-7.1-3.2-7.1-7.1v-28.3c0-3.9,3.2-7.1,7.1-7.1h22.7
		c3.9,0,7.1,3.2,7.1,7.1V255.6z"/>
	<path class="st3" d="M679.8,255.6c0,3.9-3.2,7.1-7.1,7.1h-22.7c-3.9,0-7.1-3.2-7.1-7.1v-28.3c0-3.9,3.2-7.1,7.1-7.1h22.7
		c3.9,0,7.1,3.2,7.1,7.1V255.6z"/>
	<path class="st3" d="M207.4,308.1c0,3.9-3.2,7.1-7.1,7.1h-22.7c-3.9,0-7.1-3.2-7.1-7.1v-28.3c0-3.9,3.2-7.1,7.1-7.1h22.7
		c3.9,0,7.1,3.2,7.1,7.1V308.1z"/>
	<path class="st3" d="M257.5,308.1c0,3.9-3.7,7.1-8.2,7.1h-26.2c-4.5,0-8.2-3.2-8.2-7.1v-28.3c0-3.9,3.7-7.1,8.2-7.1h26.2
		c4.5,0,8.2,3.2,8.2,7.1V308.1L257.5,308.1z"/>
	<path class="st3" d="M301.9,308.1c0,3.9-3.2,7.1-7.1,7.1h-22.7c-3.9,0-7.1-3.2-7.1-7.1v-28.3c0-3.9,3.2-7.1,7.1-7.1h22.7
		c3.9,0,7.1,3.2,7.1,7.1V308.1z"/>
	<path class="st3" d="M349.1,308.1c0,3.9-3.2,7.1-7.1,7.1h-22.7c-3.9,0-7.1-3.2-7.1-7.1v-28.3c0-3.9,3.2-7.1,7.1-7.1H342
		c3.9,0,7.1,3.2,7.1,7.1V308.1z"/>
	<path class="st3" d="M396.4,308.1c0,3.9-3.2,7.1-7.1,7.1h-22.7c-3.9,0-7.1-3.2-7.1-7.1v-28.3c0-3.9,3.2-7.1,7.1-7.1h22.7
		c3.9,0,7.1,3.2,7.1,7.1V308.1z"/>
	<path class="st3" d="M443.6,308.1c0,3.9-3.2,7.1-7.1,7.1h-22.7c-3.9,0-7.1-3.2-7.1-7.1v-28.3c0-3.9,3.2-7.1,7.1-7.1h22.7
		c3.9,0,7.1,3.2,7.1,7.1V308.1z"/>
	<path class="st3" d="M490.9,308.1c0,3.9-3.2,7.1-7.1,7.1h-22.7c-3.9,0-7.1-3.2-7.1-7.1v-28.3c0-3.9,3.2-7.1,7.1-7.1h22.7
		c3.9,0,7.1,3.2,7.1,7.1V308.1z"/>
	<path class="st3" d="M538.1,308.1c0,3.9-3.2,7.1-7.1,7.1h-22.7c-3.9,0-7.1-3.2-7.1-7.1v-28.3c0-3.9,3.2-7.1,7.1-7.1H531
		c3.9,0,7.1,3.2,7.1,7.1V308.1z"/>
	<path class="st3" d="M585.4,308.1c0,3.9-3.2,7.1-7.1,7.1h-22.7c-3.9,0-7.1-3.2-7.1-7.1v-28.3c0-3.9,3.2-7.1,7.1-7.1h22.7
		c3.9,0,7.1,3.2,7.1,7.1V308.1z"/>
	<path class="st3" d="M635.4,308.1c0,3.9-3.7,7.1-8.2,7.1h-26.2c-4.5,0-8.2-3.2-8.2-7.1v-28.3c0-3.9,3.7-7.1,8.2-7.1h26.2
		c4.5,0,8.2,3.2,8.2,7.1V308.1z"/>
	<path class="st3" d="M679.8,308.1c0,3.9-3.2,7.1-7.1,7.1h-22.7c-3.9,0-7.1-3.2-7.1-7.1v-28.3c0-3.9,3.2-7.1,7.1-7.1h22.7
		c3.9,0,7.1,3.2,7.1,7.1V308.1z"/>
	<path class="st3" d="M207.4,360.6c0,3.9-3.2,7.1-7.1,7.1h-22.7c-3.9,0-7.1-3.2-7.1-7.1v-28.3c0-3.9,3.2-7.1,7.1-7.1h22.7
		c3.9,0,7.1,3.2,7.1,7.1V360.6z"/>
	<path class="st3" d="M254.6,360.6c0,3.9-3.2,7.1-7.1,7.1h-22.7c-3.9,0-7.1-3.2-7.1-7.1v-28.3c0-3.9,3.2-7.1,7.1-7.1h22.7
		c3.9,0,7.1,3.2,7.1,7.1V360.6z"/>
	<path class="st3" d="M301.9,360.6c0,3.9-3.2,7.1-7.1,7.1h-22.7c-3.9,0-7.1-3.2-7.1-7.1v-28.3c0-3.9,3.2-7.1,7.1-7.1h22.7
		c3.9,0,7.1,3.2,7.1,7.1V360.6z"/>
	<path class="st3" d="M349.1,360.6c0,3.9-3.2,7.1-7.1,7.1h-22.7c-3.9,0-7.1-3.2-7.1-7.1v-28.3c0-3.9,3.2-7.1,7.1-7.1H342
		c3.9,0,7.1,3.2,7.1,7.1V360.6z"/>
	<path class="st3" d="M396.4,360.6c0,3.9-3.2,7.1-7.1,7.1h-22.7c-3.9,0-7.1-3.2-7.1-7.1v-28.3c0-3.9,3.2-7.1,7.1-7.1h22.7
		c3.9,0,7.1,3.2,7.1,7.1V360.6z"/>
	<path class="st3" d="M443.6,360.6c0,3.9-3.2,7.1-7.1,7.1h-22.7c-3.9,0-7.1-3.2-7.1-7.1v-28.3c0-3.9,3.2-7.1,7.1-7.1h22.7
		c3.9,0,7.1,3.2,7.1,7.1V360.6z"/>
	<path class="st3" d="M490.9,360.6c0,3.9-3.2,7.1-7.1,7.1h-22.7c-3.9,0-7.1-3.2-7.1-7.1v-28.3c0-3.9,3.2-7.1,7.1-7.1h22.7
		c3.9,0,7.1,3.2,7.1,7.1V360.6z"/>
	<path class="st3" d="M538.1,360.6c0,3.9-3.2,7.1-7.1,7.1h-22.7c-3.9,0-7.1-3.2-7.1-7.1v-28.3c0-3.9,3.2-7.1,7.1-7.1H531
		c3.9,0,7.1,3.2,7.1,7.1V360.6z"/>
	<path class="st3" d="M585.4,360.6c0,3.9-3.2,7.1-7.1,7.1h-22.7c-3.9,0-7.1-3.2-7.1-7.1v-28.3c0-3.9,3.2-7.1,7.1-7.1h22.7
		c3.9,0,7.1,3.2,7.1,7.1V360.6z"/>
	<path class="st3" d="M632.6,360.6c0,3.9-3.2,7.1-7.1,7.1h-22.7c-3.9,0-7.1-3.2-7.1-7.1v-28.3c0-3.9,3.2-7.1,7.1-7.1h22.7
		c3.9,0,7.1,3.2,7.1,7.1V360.6z"/>
	<path class="st3" d="M679.8,360.6c0,3.9-3.2,7.1-7.1,7.1h-22.7c-3.9,0-7.1-3.2-7.1-7.1v-28.3c0-3.9,3.2-7.1,7.1-7.1h22.7
		c3.9,0,7.1,3.2,7.1,7.1V360.6z"/>
	<path class="st3" d="M207.4,413.1c0,3.9-3.2,7.1-7.1,7.1h-22.7c-3.9,0-7.1-3.2-7.1-7.1v-28.3c0-3.9,3.2-7.1,7.1-7.1h22.7
		c3.9,0,7.1,3.2,7.1,7.1V413.1z"/>
	<path class="st3" d="M254.6,413.1c0,3.9-3.2,7.1-7.1,7.1h-22.7c-3.9,0-7.1-3.2-7.1-7.1v-28.3c0-3.9,3.2-7.1,7.1-7.1h22.7
		c3.9,0,7.1,3.2,7.1,7.1V413.1z"/>
	<path class="st3" d="M301.9,413.1c0,3.9-3.2,7.1-7.1,7.1h-22.7c-3.9,0-7.1-3.2-7.1-7.1v-28.3c0-3.9,3.2-7.1,7.1-7.1h22.7
		c3.9,0,7.1,3.2,7.1,7.1V413.1z"/>
	<path class="st3" d="M352,413.1c0,3.9-3.7,7.1-8.2,7.1h-26.2c-4.5,0-8.2-3.2-8.2-7.1v-28.3c0-3.9,3.7-7.1,8.2-7.1h26.2
		c4.5,0,8.2,3.2,8.2,7.1V413.1z"/>
	<path class="st3" d="M396.4,413.1c0,3.9-3.2,7.1-7.1,7.1h-22.7c-3.9,0-7.1-3.2-7.1-7.1v-28.3c0-3.9,3.2-7.1,7.1-7.1h22.7
		c3.9,0,7.1,3.2,7.1,7.1V413.1z"/>
	<path class="st3" d="M443.6,413.1c0,3.9-3.2,7.1-7.1,7.1h-22.7c-3.9,0-7.1-3.2-7.1-7.1v-28.3c0-3.9,3.2-7.1,7.1-7.1h22.7
		c3.9,0,7.1,3.2,7.1,7.1V413.1z"/>
	<path class="st3" d="M490.9,413.1c0,3.9-3.2,7.1-7.1,7.1h-22.7c-3.9,0-7.1-3.2-7.1-7.1v-28.3c0-3.9,3.2-7.1,7.1-7.1h22.7
		c3.9,0,7.1,3.2,7.1,7.1V413.1z"/>
	<path class="st3" d="M540.9,413.1c0,3.9-3.7,7.1-8.2,7.1h-26.2c-4.5,0-8.2-3.2-8.2-7.1v-28.3c0-3.9,3.7-7.1,8.2-7.1h26.2
		c4.5,0,8.2,3.2,8.2,7.1L540.9,413.1L540.9,413.1z"/>
	<path class="st3" d="M585.4,413.1c0,3.9-3.2,7.1-7.1,7.1h-22.7c-3.9,0-7.1-3.2-7.1-7.1v-28.3c0-3.9,3.2-7.1,7.1-7.1h22.7
		c3.9,0,7.1,3.2,7.1,7.1V413.1z"/>
	<path class="st3" d="M632.6,413.1c0,3.9-3.2,7.1-7.1,7.1h-22.7c-3.9,0-7.1-3.2-7.1-7.1v-28.3c0-3.9,3.2-7.1,7.1-7.1h22.7
		c3.9,0,7.1,3.2,7.1,7.1V413.1z"/>
	<path class="st3" d="M679.8,413.1c0,3.9-3.2,7.1-7.1,7.1h-22.7c-3.9,0-7.1-3.2-7.1-7.1v-28.3c0-3.9,3.2-7.1,7.1-7.1h22.7
		c3.9,0,7.1,3.2,7.1,7.1V413.1z"/>
	<path class="st3" d="M207.4,465.6c0,3.9-3.2,7.1-7.1,7.1h-22.7c-3.9,0-7.1-3.2-7.1-7.1v-28.3c0-3.9,3.2-7.1,7.1-7.1h22.7
		c3.9,0,7.1,3.2,7.1,7.1V465.6z"/>
	<path class="st3" d="M254.6,465.6c0,3.9-3.2,7.1-7.1,7.1h-22.7c-3.9,0-7.1-3.2-7.1-7.1v-28.3c0-3.9,3.2-7.1,7.1-7.1h22.7
		c3.9,0,7.1,3.2,7.1,7.1V465.6z"/>
	<path class="st3" d="M301.9,465.6c0,3.9-3.2,7.1-7.1,7.1h-22.7c-3.9,0-7.1-3.2-7.1-7.1v-28.3c0-3.9,3.2-7.1,7.1-7.1h22.7
		c3.9,0,7.1,3.2,7.1,7.1V465.6z"/>
	<path class="st3" d="M352,465.6c0,3.9-3.7,7.1-8.2,7.1h-26.2c-4.5,0-8.2-3.2-8.2-7.1v-28.3c0-3.9,3.7-7.1,8.2-7.1h26.2
		c4.5,0,8.2,3.2,8.2,7.1V465.6z"/>
	<path class="st3" d="M396.4,465.6c0,3.9-3.2,7.1-7.1,7.1h-22.7c-3.9,0-7.1-3.2-7.1-7.1v-28.3c0-3.9,3.2-7.1,7.1-7.1h22.7
		c3.9,0,7.1,3.2,7.1,7.1V465.6z"/>
	<path class="st3" d="M443.6,465.6c0,3.9-3.2,7.1-7.1,7.1h-22.7c-3.9,0-7.1-3.2-7.1-7.1v-28.3c0-3.9,3.2-7.1,7.1-7.1h22.7
		c3.9,0,7.1,3.2,7.1,7.1V465.6z"/>
	<path class="st3" d="M490.9,465.6c0,3.9-3.2,7.1-7.1,7.1h-22.7c-3.9,0-7.1-3.2-7.1-7.1v-28.3c0-3.9,3.2-7.1,7.1-7.1h22.7
		c3.9,0,7.1,3.2,7.1,7.1V465.6z"/>
	<path class="st3" d="M540.9,465.6c0,3.9-3.7,7.1-8.2,7.1h-26.2c-4.5,0-8.2-3.2-8.2-7.1v-28.3c0-3.9,3.7-7.1,8.2-7.1h26.2
		c4.5,0,8.2,3.2,8.2,7.1L540.9,465.6L540.9,465.6z"/>
	<path class="st3" d="M585.4,465.6c0,3.9-3.2,7.1-7.1,7.1h-22.7c-3.9,0-7.1-3.2-7.1-7.1v-28.3c0-3.9,3.2-7.1,7.1-7.1h22.7
		c3.9,0,7.1,3.2,7.1,7.1V465.6z"/>
	<path class="st3" d="M632.6,465.6c0,3.9-3.2,7.1-7.1,7.1h-22.7c-3.9,0-7.1-3.2-7.1-7.1v-28.3c0-3.9,3.2-7.1,7.1-7.1h22.7
		c3.9,0,7.1,3.2,7.1,7.1V465.6z"/>
	<path class="st3" d="M679.8,465.6c0,3.9-3.2,7.1-7.1,7.1h-22.7c-3.9,0-7.1-3.2-7.1-7.1v-28.3c0-3.9,3.2-7.1,7.1-7.1h22.7
		c3.9,0,7.1,3.2,7.1,7.1V465.6z"/>
	<path class="st3" d="M207.4,518.1c0,3.9-3.2,7.1-7.1,7.1h-22.7c-3.9,0-7.1-3.2-7.1-7.1v-28.3c0-3.9,3.2-7.1,7.1-7.1h22.7
		c3.9,0,7.1,3.2,7.1,7.1V518.1z"/>
	<path class="st3" d="M254.6,518.1c0,3.9-3.2,7.1-7.1,7.1h-22.7c-3.9,0-7.1-3.2-7.1-7.1v-28.3c0-3.9,3.2-7.1,7.1-7.1h22.7
		c3.9,0,7.1,3.2,7.1,7.1V518.1z"/>
	<path class="st3" d="M301.9,518.1c0,3.9-3.2,7.1-7.1,7.1h-22.7c-3.9,0-7.1-3.2-7.1-7.1v-28.3c0-3.9,3.2-7.1,7.1-7.1h22.7
		c3.9,0,7.1,3.2,7.1,7.1V518.1z"/>
	<path class="st3" d="M349.1,518.1c0,3.9-3.2,7.1-7.1,7.1h-22.7c-3.9,0-7.1-3.2-7.1-7.1v-28.3c0-3.9,3.2-7.1,7.1-7.1H342
		c3.9,0,7.1,3.2,7.1,7.1V518.1z"/>
	<path class="st3" d="M396.4,518.1c0,3.9-3.2,7.1-7.1,7.1h-22.7c-3.9,0-7.1-3.2-7.1-7.1v-28.3c0-3.9,3.2-7.1,7.1-7.1h22.7
		c3.9,0,7.1,3.2,7.1,7.1V518.1z"/>
	<path class="st3" d="M443.6,518.1c0,3.9-3.2,7.1-7.1,7.1h-22.7c-3.9,0-7.1-3.2-7.1-7.1v-28.3c0-3.9,3.2-7.1,7.1-7.1h22.7
		c3.9,0,7.1,3.2,7.1,7.1V518.1z"/>
	<path class="st3" d="M490.9,518.1c0,3.9-3.2,7.1-7.1,7.1h-22.7c-3.9,0-7.1-3.2-7.1-7.1v-28.3c0-3.9,3.2-7.1,7.1-7.1h22.7
		c3.9,0,7.1,3.2,7.1,7.1V518.1z"/>
	<path class="st3" d="M538.1,518.1c0,3.9-3.2,7.1-7.1,7.1h-22.7c-3.9,0-7.1-3.2-7.1-7.1v-28.3c0-3.9,3.2-7.1,7.1-7.1H531
		c3.9,0,7.1,3.2,7.1,7.1V518.1z"/>
	<path class="st3" d="M585.4,518.1c0,3.9-3.2,7.1-7.1,7.1h-22.7c-3.9,0-7.1-3.2-7.1-7.1v-28.3c0-3.9,3.2-7.1,7.1-7.1h22.7
		c3.9,0,7.1,3.2,7.1,7.1V518.1z"/>
	<path class="st3" d="M632.6,518.1c0,3.9-3.2,7.1-7.1,7.1h-22.7c-3.9,0-7.1-3.2-7.1-7.1v-28.3c0-3.9,3.2-7.1,7.1-7.1h22.7
		c3.9,0,7.1,3.2,7.1,7.1V518.1z"/>
	<path class="st3" d="M679.8,518.1c0,3.9-3.2,7.1-7.1,7.1h-22.7c-3.9,0-7.1-3.2-7.1-7.1v-28.3c0-3.9,3.2-7.1,7.1-7.1h22.7
		c3.9,0,7.1,3.2,7.1,7.1V518.1z"/>
	<path class="st3" d="M207.4,570.6c0,3.9-3.2,7.1-7.1,7.1h-22.7c-3.9,0-7.1-3.2-7.1-7.1v-28.3c0-3.9,3.2-7.1,7.1-7.1h22.7
		c3.9,0,7.1,3.2,7.1,7.1V570.6z"/>
	<path class="st3" d="M257.5,570.6c0,3.9-3.7,7.1-8.2,7.1h-26.2c-4.5,0-8.2-3.2-8.2-7.1v-28.3c0-3.9,3.7-7.1,8.2-7.1h26.2
		c4.5,0,8.2,3.2,8.2,7.1V570.6L257.5,570.6z"/>
	<path class="st3" d="M301.9,570.6c0,3.9-3.2,7.1-7.1,7.1h-22.7c-3.9,0-7.1-3.2-7.1-7.1v-28.3c0-3.9,3.2-7.1,7.1-7.1h22.7
		c3.9,0,7.1,3.2,7.1,7.1V570.6z"/>
	<path class="st3" d="M349.1,570.6c0,3.9-3.2,7.1-7.1,7.1h-22.7c-3.9,0-7.1-3.2-7.1-7.1v-28.3c0-3.9,3.2-7.1,7.1-7.1H342
		c3.9,0,7.1,3.2,7.1,7.1V570.6z"/>
	<path class="st3" d="M396.4,570.6c0,3.9-3.2,7.1-7.1,7.1h-22.7c-3.9,0-7.1-3.2-7.1-7.1v-28.3c0-3.9,3.2-7.1,7.1-7.1h22.7
		c3.9,0,7.1,3.2,7.1,7.1V570.6z"/>
	<path class="st3" d="M443.6,570.6c0,3.9-3.2,7.1-7.1,7.1h-22.7c-3.9,0-7.1-3.2-7.1-7.1v-28.3c0-3.9,3.2-7.1,7.1-7.1h22.7
		c3.9,0,7.1,3.2,7.1,7.1V570.6z"/>
	<path class="st3" d="M490.9,570.6c0,3.9-3.2,7.1-7.1,7.1h-22.7c-3.9,0-7.1-3.2-7.1-7.1v-28.3c0-3.9,3.2-7.1,7.1-7.1h22.7
		c3.9,0,7.1,3.2,7.1,7.1V570.6z"/>
	<path class="st3" d="M538.1,570.6c0,3.9-3.2,7.1-7.1,7.1h-22.7c-3.9,0-7.1-3.2-7.1-7.1v-28.3c0-3.9,3.2-7.1,7.1-7.1H531
		c3.9,0,7.1,3.2,7.1,7.1V570.6z"/>
	<path class="st3" d="M585.4,570.6c0,3.9-3.2,7.1-7.1,7.1h-22.7c-3.9,0-7.1-3.2-7.1-7.1v-28.3c0-3.9,3.2-7.1,7.1-7.1h22.7
		c3.9,0,7.1,3.2,7.1,7.1V570.6z"/>
	<path class="st3" d="M635.4,570.6c0,3.9-3.7,7.1-8.2,7.1h-26.2c-4.5,0-8.2-3.2-8.2-7.1v-28.3c0-3.9,3.7-7.1,8.2-7.1h26.2
		c4.5,0,8.2,3.2,8.2,7.1V570.6z"/>
	<path class="st3" d="M679.8,570.6c0,3.9-3.2,7.1-7.1,7.1h-22.7c-3.9,0-7.1-3.2-7.1-7.1v-28.3c0-3.9,3.2-7.1,7.1-7.1h22.7
		c3.9,0,7.1,3.2,7.1,7.1V570.6z"/>
	<path class="st3" d="M207.4,623.1c0,3.9-3.2,7.1-7.1,7.1h-22.7c-3.9,0-7.1-3.2-7.1-7.1v-28.3c0-3.9,3.2-7.1,7.1-7.1h22.7
		c3.9,0,7.1,3.2,7.1,7.1V623.1z"/>
	<path class="st3" d="M254.6,623.1c0,3.9-3.2,7.1-7.1,7.1h-22.7c-3.9,0-7.1-3.2-7.1-7.1v-28.3c0-3.9,3.2-7.1,7.1-7.1h22.7
		c3.9,0,7.1,3.2,7.1,7.1V623.1z"/>
	<path class="st3" d="M301.9,623.1c0,3.9-3.2,7.1-7.1,7.1h-22.7c-3.9,0-7.1-3.2-7.1-7.1v-28.3c0-3.9,3.2-7.1,7.1-7.1h22.7
		c3.9,0,7.1,3.2,7.1,7.1V623.1z"/>
	<path class="st3" d="M349.1,623.1c0,3.9-3.2,7.1-7.1,7.1h-22.7c-3.9,0-7.1-3.2-7.1-7.1v-28.3c0-3.9,3.2-7.1,7.1-7.1H342
		c3.9,0,7.1,3.2,7.1,7.1V623.1z"/>
	<path class="st3" d="M396.4,623.1c0,3.9-3.2,7.1-7.1,7.1h-22.7c-3.9,0-7.1-3.2-7.1-7.1v-28.3c0-3.9,3.2-7.1,7.1-7.1h22.7
		c3.9,0,7.1,3.2,7.1,7.1V623.1z"/>
	<path class="st3" d="M446.5,623.1c0,3.9-3.7,7.1-8.2,7.1h-26.2c-4.5,0-8.2-3.2-8.2-7.1v-28.3c0-3.9,3.7-7.1,8.2-7.1h26.2
		c4.5,0,8.2,3.2,8.2,7.1V623.1z"/>
	<path class="st3" d="M490.9,623.1c0,3.9-3.2,7.1-7.1,7.1h-22.7c-3.9,0-7.1-3.2-7.1-7.1v-28.3c0-3.9,3.2-7.1,7.1-7.1h22.7
		c3.9,0,7.1,3.2,7.1,7.1V623.1z"/>
	<path class="st3" d="M538.1,623.1c0,3.9-3.2,7.1-7.1,7.1h-22.7c-3.9,0-7.1-3.2-7.1-7.1v-28.3c0-3.9,3.2-7.1,7.1-7.1H531
		c3.9,0,7.1,3.2,7.1,7.1V623.1z"/>
	<path class="st3" d="M585.4,623.1c0,3.9-3.2,7.1-7.1,7.1h-22.7c-3.9,0-7.1-3.2-7.1-7.1v-28.3c0-3.9,3.2-7.1,7.1-7.1h22.7
		c3.9,0,7.1,3.2,7.1,7.1V623.1z"/>
	<path class="st3" d="M632.6,623.1c0,3.9-3.2,7.1-7.1,7.1h-22.7c-3.9,0-7.1-3.2-7.1-7.1v-28.3c0-3.9,3.2-7.1,7.1-7.1h22.7
		c3.9,0,7.1,3.2,7.1,7.1V623.1z"/>
	<path class="st3" d="M679.8,623.1c0,3.9-3.2,7.1-7.1,7.1h-22.7c-3.9,0-7.1-3.2-7.1-7.1v-28.3c0-3.9,3.2-7.1,7.1-7.1h22.7
		c3.9,0,7.1,3.2,7.1,7.1V623.1z"/>
	<path class="st3" d="M207.4,675.6c0,3.9-3.2,7.1-7.1,7.1h-22.7c-3.9,0-7.1-3.2-7.1-7.1v-28.3c0-3.9,3.2-7.1,7.1-7.1h22.7
		c3.9,0,7.1,3.2,7.1,7.1V675.6z"/>
	<path class="st3" d="M254.6,675.6c0,3.9-3.2,7.1-7.1,7.1h-22.7c-3.9,0-7.1-3.2-7.1-7.1v-28.3c0-3.9,3.2-7.1,7.1-7.1h22.7
		c3.9,0,7.1,3.2,7.1,7.1V675.6z"/>
	<path class="st3" d="M301.9,675.6c0,3.9-3.2,7.1-7.1,7.1h-22.7c-3.9,0-7.1-3.2-7.1-7.1v-28.3c0-3.9,3.2-7.1,7.1-7.1h22.7
		c3.9,0,7.1,3.2,7.1,7.1V675.6z"/>
	<path class="st3" d="M349.1,675.6c0,3.9-3.2,7.1-7.1,7.1h-22.7c-3.9,0-7.1-3.2-7.1-7.1v-28.3c0-3.9,3.2-7.1,7.1-7.1H342
		c3.9,0,7.1,3.2,7.1,7.1V675.6z"/>
	<path class="st3" d="M396.4,675.6c0,3.9-3.2,7.1-7.1,7.1h-22.7c-3.9,0-7.1-3.2-7.1-7.1v-28.3c0-3.9,3.2-7.1,7.1-7.1h22.7
		c3.9,0,7.1,3.2,7.1,7.1V675.6z"/>
	<path class="st3" d="M443.6,675.6c0,3.9-3.2,7.1-7.1,7.1h-22.7c-3.9,0-7.1-3.2-7.1-7.1v-28.3c0-3.9,3.2-7.1,7.1-7.1h22.7
		c3.9,0,7.1,3.2,7.1,7.1V675.6z"/>
	<path class="st3" d="M371.9,734.6c0,3.9-3.2,7.1-7.1,7.1h-22.7c-3.9,0-7.1-3.2-7.1-7.1v-28.3c0-3.9,3.2-7.1,7.1-7.1h22.7
		c3.9,0,7.1,3.2,7.1,7.1V734.6z"/>
	<path class="st3" d="M419.1,734.6c0,3.9-3.2,7.1-7.1,7.1h-22.7c-3.9,0-7.1-3.2-7.1-7.1v-28.3c0-3.9,3.2-7.1,7.1-7.1H412
		c3.9,0,7.1,3.2,7.1,7.1V734.6z"/>
	<path class="st3" d="M466.4,734.6c0,3.9-3.2,7.1-7.1,7.1h-22.7c-3.9,0-7.1-3.2-7.1-7.1v-28.3c0-3.9,3.2-7.1,7.1-7.1h22.7
		c3.9,0,7.1,3.2,7.1,7.1V734.6z"/>
	<path class="st3" d="M513.6,734.6c0,3.9-3.2,7.1-7.1,7.1h-22.7c-3.9,0-7.1-3.2-7.1-7.1v-28.3c0-3.9,3.2-7.1,7.1-7.1h22.7
		c3.9,0,7.1,3.2,7.1,7.1V734.6z"/>
	<path class="st3" d="M490.9,675.6c0,3.9-3.2,7.1-7.1,7.1h-22.7c-3.9,0-7.1-3.2-7.1-7.1v-28.3c0-3.9,3.2-7.1,7.1-7.1h22.7
		c3.9,0,7.1,3.2,7.1,7.1V675.6z"/>
	<path class="st3" d="M538.1,675.6c0,3.9-3.2,7.1-7.1,7.1h-22.7c-3.9,0-7.1-3.2-7.1-7.1v-28.3c0-3.9,3.2-7.1,7.1-7.1H531
		c3.9,0,7.1,3.2,7.1,7.1V675.6z"/>
	<path class="st3" d="M585.4,675.6c0,3.9-3.2,7.1-7.1,7.1h-22.7c-3.9,0-7.1-3.2-7.1-7.1v-28.3c0-3.9,3.2-7.1,7.1-7.1h22.7
		c3.9,0,7.1,3.2,7.1,7.1V675.6z"/>
	<path class="st3" d="M632.6,675.6c0,3.9-3.2,7.1-7.1,7.1h-22.7c-3.9,0-7.1-3.2-7.1-7.1v-28.3c0-3.9,3.2-7.1,7.1-7.1h22.7
		c3.9,0,7.1,3.2,7.1,7.1V675.6z"/>
	<path class="st3" d="M679.8,675.6c0,3.9-3.2,7.1-7.1,7.1h-22.7c-3.9,0-7.1-3.2-7.1-7.1v-28.3c0-3.9,3.2-7.1,7.1-7.1h22.7
		c3.9,0,7.1,3.2,7.1,7.1V675.6z"/>
</g>
<rect x="70.9" y="70.9" class="st4" width="708.7" height="1275.6"/>
</svg>
