<?xml version="1.0" encoding="utf-8"?>
<!-- Generator: Adobe Illustrator 24.3.0, SVG Export Plug-In . SVG Version: 6.00 Build 0)  -->
<svg version="1.1"
	 id="svg918" inkscape:version="0.92.4 (5da689c313, 2019-01-14)" sodipodi:docname="UHR125_Type2_Front.svg" xmlns:cc="http://creativecommons.org/ns#" xmlns:dc="http://purl.org/dc/elements/1.1/" xmlns:inkscape="http://www.inkscape.org/namespaces/inkscape" xmlns:rdf="http://www.w3.org/1999/02/22-rdf-syntax-ns#" xmlns:sodipodi="http://sodipodi.sourceforge.net/DTD/sodipodi-0.dtd" xmlns:svg="http://www.w3.org/2000/svg"
	 xmlns="http://www.w3.org/2000/svg" xmlns:xlink="http://www.w3.org/1999/xlink" x="0px" y="0px" viewBox="0 0 850.4 850.4"
	 style="enable-background:new 0 0 850.4 850.4;" xml:space="preserve">
<style type="text/css">
	.st0{fill:#92CAE8;fill-opacity:0.624;}
	.st1{font-family:'Helvetica';}
	.st2{font-size:30px;}
	.st3{display:none;}
	.st4{display:inline;fill:none;stroke:#FF0000;stroke-width:0.2835;}
	.st5{display:none;fill:none;stroke:#FF0000;stroke-width:0.2835;}
</style>
<sodipodi:namedview  bordercolor="#666666" borderopacity="1" gridtolerance="10" guidetolerance="10" id="namedview920" inkscape:current-layer="g916" inkscape:cx="559.04355" inkscape:cy="578.8998" inkscape:document-units="mm" inkscape:pageopacity="0" inkscape:pageshadow="2" inkscape:window-height="1109" inkscape:window-maximized="1" inkscape:window-width="1920" inkscape:window-x="1920" inkscape:window-y="0" inkscape:zoom="2.4892" objecttolerance="10" pagecolor="#ffffff" showgrid="false">
	</sodipodi:namedview>
<g id="g916" transform="translate(0,-861.73199)">
	<path id="path2" inkscape:connector-curvature="0" sodipodi:insensitive="true" class="st0" d="M0,861.7h850.4v850.4H0V861.7z"/>
	<path id="path4" inkscape:connector-curvature="0" d="M455.3,1612.2c0,3.5-2.9,6.4-6.4,6.4c-3.5,0-6.4-2.9-6.4-6.4s2.9-6.4,6.4-6.4
		C452.4,1605.8,455.3,1608.7,455.3,1612.2"/>
	<text transform="matrix(1 0 0 1 178.5801 1031.3766)" class="st1 st2">E</text>
	<text transform="matrix(1 0 0 1 225.8242 1031.3766)" class="st1 st2">S</text>
	<text transform="matrix(1 0 0 1 273.0684 1031.3766)" class="st1 st2">K</text>
	<text transform="matrix(1 0 0 1 326.2656 1031.3766)" class="st1 st2">I</text>
	<text transform="matrix(1 0 0 1 367.5566 1031.3766)" class="st1 st2">S</text>
	<text transform="matrix(1 0 0 1 414.8008 1031.3766)" class="st1 st2">T</text>
	<text transform="matrix(1 0 0 1 462.0449 1031.3766)" class="st1 st2">A</text>
	<text transform="matrix(1 0 0 1 509.2891 1031.3766)" class="st1 st2">F</text>
	<text transform="matrix(1 0 0 1 556.5332 1031.3766)" class="st1 st2">Ü</text>
	<text transform="matrix(1 0 0 1 603.7773 1031.3766)" class="st1 st2">N</text>
	<text transform="matrix(1 0 0 1 651.0215 1031.3766)" class="st1 st2">F</text>
	<text transform="matrix(1 0 0 1 178.5801 1083.8175)" class="st1 st2">Z</text>
	<text transform="matrix(1 0 0 1 225.8242 1083.8175)" class="st1 st2">E</text>
	<text transform="matrix(1 0 0 1 273.0684 1083.8175)" class="st1 st2">H</text>
	<text transform="matrix(1 0 0 1 320.3125 1083.8175)" class="st1 st2">N</text>
	<text transform="matrix(1 0 0 1 367.5566 1083.8175)" class="st1 st2">D</text>
	<text transform="matrix(1 0 0 1 414.8008 1083.8175)" class="st1 st2">A</text>
	<text transform="matrix(1 0 0 1 462.0449 1083.8175)" class="st1 st2">U</text>
	<text transform="matrix(1 0 0 1 509.2891 1083.8175)" class="st1 st2">V</text>
	<text transform="matrix(1 0 0 1 556.5332 1083.8175)" class="st1 st2">O</text>
	<text transform="matrix(1 0 0 1 603.7773 1083.8175)" class="st1 st2">R</text>
	<text transform="matrix(1 0 0 1 651.0215 1083.8175)" class="st1 st2">G</text>
	<text transform="matrix(1 0 0 1 178.5801 1136.2584)" class="st1 st2">N</text>
	<text transform="matrix(1 0 0 1 225.8242 1136.2584)" class="st1 st2">A</text>
	<text transform="matrix(1 0 0 1 273.0684 1136.2584)" class="st1 st2">C</text>
	<text transform="matrix(1 0 0 1 320.3125 1136.2584)" class="st1 st2">H</text>
	<text transform="matrix(1 0 0 1 367.5566 1136.2584)" class="st1 st2">V</text>
	<text transform="matrix(1 0 0 1 420.7539 1136.2584)" class="st1 st2">I</text>
	<text transform="matrix(1 0 0 1 462.0449 1136.2584)" class="st1 st2">E</text>
	<text transform="matrix(1 0 0 1 509.2891 1136.2584)" class="st1 st2">R</text>
	<text transform="matrix(1 0 0 1 556.5332 1136.2584)" class="st1 st2">T</text>
	<text transform="matrix(1 0 0 1 603.7773 1136.2584)" class="st1 st2">E</text>
	<text transform="matrix(1 0 0 1 651.0215 1136.2584)" class="st1 st2">L</text>
	<text transform="matrix(1 0 0 1 178.5801 1188.6993)" class="st1 st2">H</text>
	<text transform="matrix(1 0 0 1 225.8242 1188.6993)" class="st1 st2">A</text>
	<text transform="matrix(1 0 0 1 273.0684 1188.6993)" class="st1 st2">L</text>
	<text transform="matrix(1 0 0 1 320.3125 1188.6993)" class="st1 st2">B</text>
	<text transform="matrix(1 0 0 1 367.5566 1188.6993)" class="st1 st2">V</text>
	<text transform="matrix(1 0 0 1 414.8008 1188.6993)" class="st1 st2">O</text>
	<text transform="matrix(1 0 0 1 462.0449 1188.6993)" class="st1 st2">R</text>
	<text transform="matrix(1 0 0 1 509.2891 1188.6993)" class="st1 st2">N</text>
	<text transform="matrix(1 0 0 1 556.5332 1188.6993)" class="st1 st2">A</text>
	<text transform="matrix(1 0 0 1 603.7773 1188.6993)" class="st1 st2">C</text>
	<text transform="matrix(1 0 0 1 651.0215 1188.6993)" class="st1 st2">H</text>
	<text transform="matrix(1 0 0 1 178.5801 1241.1403)" class="st1 st2">E</text>
	<text transform="matrix(1 0 0 1 231.7769 1241.1403)" class="st1 st2">I</text>
	<text transform="matrix(1 0 0 1 273.0684 1241.1403)" class="st1 st2">N</text>
	<text transform="matrix(1 0 0 1 320.3125 1241.1403)" class="st1 st2">S</text>
	<text transform="matrix(1 0 0 1 367.5566 1241.1403)" class="st1 st2">K</text>
	<text transform="matrix(1 0 0 1 414.8008 1241.1403)" class="st1 st2">U</text>
	<text transform="matrix(1 0 0 1 462.0449 1241.1403)" class="st1 st2">R</text>
	<text transform="matrix(1 0 0 1 509.2891 1241.1403)" class="st1 st2">Z</text>
	<text transform="matrix(1 0 0 1 553.5332 1241.1403)" class="st1 st2">W</text>
	<text transform="matrix(1 0 0 1 603.7773 1241.1403)" class="st1 st2">E</text>
	<text transform="matrix(1 0 0 1 656.9746 1241.1403)" class="st1 st2">I</text>
	<text transform="matrix(1 0 0 1 178.5801 1293.5817)" class="st1 st2">D</text>
	<text transform="matrix(1 0 0 1 225.8242 1293.5817)" class="st1 st2">R</text>
	<text transform="matrix(1 0 0 1 273.0684 1293.5817)" class="st1 st2">E</text>
	<text transform="matrix(1 0 0 1 326.2656 1293.5817)" class="st1 st2">I</text>
	<text transform="matrix(1 0 0 1 367.5566 1293.5817)" class="st1 st2">A</text>
	<text transform="matrix(1 0 0 1 414.8008 1293.5817)" class="st1 st2">U</text>
	<text transform="matrix(1 0 0 1 465.0449 1293.5817)" class="st1 st2">J</text>
	<text transform="matrix(1 0 0 1 509.2891 1293.5817)" class="st1 st2">V</text>
	<text transform="matrix(1 0 0 1 562.4863 1293.5817)" class="st1 st2">I</text>
	<text transform="matrix(1 0 0 1 603.7773 1293.5817)" class="st1 st2">E</text>
	<text transform="matrix(1 0 0 1 651.0215 1293.5817)" class="st1 st2">R</text>
	<text transform="matrix(1 0 0 1 178.5801 1346.0221)" class="st1 st2">F</text>
	<text transform="matrix(1 0 0 1 225.8242 1346.0221)" class="st1 st2">Ü</text>
	<text transform="matrix(1 0 0 1 273.0684 1346.0221)" class="st1 st2">N</text>
	<text transform="matrix(1 0 0 1 320.3125 1346.0221)" class="st1 st2">F</text>
	<text transform="matrix(1 0 0 1 367.5566 1346.0221)" class="st1 st2">T</text>
	<text transform="matrix(1 0 0 1 414.8008 1346.0221)" class="st1 st2">O</text>
	<text transform="matrix(1 0 0 1 462.0449 1346.0221)" class="st1 st2">S</text>
	<text transform="matrix(1 0 0 1 509.2891 1346.0221)" class="st1 st2">E</text>
	<text transform="matrix(1 0 0 1 556.5332 1346.0221)" class="st1 st2">C</text>
	<text transform="matrix(1 0 0 1 603.7773 1346.0221)" class="st1 st2">H</text>
	<text transform="matrix(1 0 0 1 651.0215 1346.0221)" class="st1 st2">S</text>
	<text transform="matrix(1 0 0 1 178.5801 1398.4635)" class="st1 st2">S</text>
	<text transform="matrix(1 0 0 1 231.7769 1398.4635)" class="st1 st2">I</text>
	<text transform="matrix(1 0 0 1 273.0684 1398.4635)" class="st1 st2">E</text>
	<text transform="matrix(1 0 0 1 320.3125 1398.4635)" class="st1 st2">B</text>
	<text transform="matrix(1 0 0 1 367.5566 1398.4635)" class="st1 st2">E</text>
	<text transform="matrix(1 0 0 1 414.8008 1398.4635)" class="st1 st2">N</text>
	<text transform="matrix(1 0 0 1 462.0449 1398.4635)" class="st1 st2">L</text>
	<text transform="matrix(1 0 0 1 509.2891 1398.4635)" class="st1 st2">A</text>
	<text transform="matrix(1 0 0 1 556.5332 1398.4635)" class="st1 st2">C</text>
	<text transform="matrix(1 0 0 1 603.7773 1398.4635)" class="st1 st2">H</text>
	<text transform="matrix(1 0 0 1 651.0215 1398.4635)" class="st1 st2">T</text>
	<text transform="matrix(1 0 0 1 178.5801 1450.9039)" class="st1 st2">A</text>
	<text transform="matrix(1 0 0 1 225.8242 1450.9039)" class="st1 st2">N</text>
	<text transform="matrix(1 0 0 1 273.0684 1450.9039)" class="st1 st2">E</text>
	<text transform="matrix(1 0 0 1 320.3125 1450.9039)" class="st1 st2">U</text>
	<text transform="matrix(1 0 0 1 367.5566 1450.9039)" class="st1 st2">N</text>
	<text transform="matrix(1 0 0 1 414.8008 1450.9039)" class="st1 st2">M</text>
	<text transform="matrix(1 0 0 1 462.0449 1450.9039)" class="st1 st2">H</text>
	<text transform="matrix(1 0 0 1 509.2891 1450.9039)" class="st1 st2">Z</text>
	<text transform="matrix(1 0 0 1 556.5332 1450.9039)" class="st1 st2">E</text>
	<text transform="matrix(1 0 0 1 603.7773 1450.9039)" class="st1 st2">H</text>
	<text transform="matrix(1 0 0 1 651.0215 1450.9039)" class="st1 st2">N</text>
	<text transform="matrix(1 0 0 1 178.5801 1503.3453)" class="st1 st2">Z</text>
	<text transform="matrix(1 0 0 1 222.8242 1503.3453)" class="st1 st2">W</text>
	<text transform="matrix(1 0 0 1 273.0684 1503.3453)" class="st1 st2">Ö</text>
	<text transform="matrix(1 0 0 1 320.3125 1503.3453)" class="st1 st2">L</text>
	<text transform="matrix(1 0 0 1 367.5566 1503.3453)" class="st1 st2">F</text>
	<text transform="matrix(1 0 0 1 414.8008 1503.3453)" class="st1 st2">D</text>
	<text transform="matrix(1 0 0 1 462.0449 1503.3453)" class="st1 st2">T</text>
	<text transform="matrix(1 0 0 1 509.2891 1503.3453)" class="st1 st2">F</text>
	<text transform="matrix(1 0 0 1 556.5332 1503.3453)" class="st1 st2">E</text>
	<text transform="matrix(1 0 0 1 603.7773 1503.3453)" class="st1 st2">L</text>
	<text transform="matrix(1 0 0 1 651.0215 1503.3453)" class="st1 st2">F</text>
	<text transform="matrix(1 0 0 1 175.5801 1555.7858)" class="st1 st2">W</text>
	<text transform="matrix(1 0 0 1 225.8242 1555.7858)" class="st1 st2">A</text>
	<text transform="matrix(1 0 0 1 273.0684 1555.7858)" class="st1 st2">S</text>
	<text transform="matrix(1 0 0 1 320.3125 1555.7858)" class="st1 st2">D</text>
	<text transform="matrix(1 0 0 1 367.5566 1555.7858)" class="st1 st2">F</text>
	<text transform="matrix(1 0 0 1 414.8008 1555.7858)" class="st1 st2">U</text>
	<text transform="matrix(1 0 0 1 462.0449 1555.7858)" class="st1 st2">N</text>
	<text transform="matrix(1 0 0 1 509.2891 1555.7858)" class="st1 st2">K</text>
	<text transform="matrix(1 0 0 1 556.5332 1555.7858)" class="st1 st2">U</text>
	<text transform="matrix(1 0 0 1 603.7773 1555.7858)" class="st1 st2">H</text>
	<text transform="matrix(1 0 0 1 651.0215 1555.7858)" class="st1 st2">R</text>
	<path id="path4-3" inkscape:connector-curvature="0" d="M503.5,1612.2c0,3.5-2.9,6.4-6.4,6.4c-3.5,0-6.4-2.9-6.4-6.4
		c0-3.5,2.9-6.4,6.4-6.4C500.6,1605.8,503.5,1608.7,503.5,1612.2"/>
	<path id="path4-7" inkscape:connector-curvature="0" d="M358.9,1612.2c0,3.5-2.9,6.4-6.4,6.4c-3.5,0-6.4-2.9-6.4-6.4
		c0-3.5,2.9-6.4,6.4-6.4C356.1,1605.8,358.9,1608.7,358.9,1612.2"/>
	<path id="path4-3-3" inkscape:connector-curvature="0" d="M407.1,1612.2c0,3.5-2.9,6.4-6.4,6.4c-3.5,0-6.4-2.9-6.4-6.4
		c0-3.5,2.9-6.4,6.4-6.4C404.2,1605.8,407.1,1608.7,407.1,1612.2"/>
</g>
<g class="st3">
	<path class="st4" d="M207.4,172.2c0,3.9-3.2,7.1-7.1,7.1h-22.7c-3.9,0-7.1-3.2-7.1-7.1v-28.3c0-3.9,3.2-7.1,7.1-7.1h22.7
		c3.9,0,7.1,3.2,7.1,7.1V172.2z"/>
	<path class="st4" d="M254.6,172.2c0,3.9-3.2,7.1-7.1,7.1h-22.7c-3.9,0-7.1-3.2-7.1-7.1v-28.3c0-3.9,3.2-7.1,7.1-7.1h22.7
		c3.9,0,7.1,3.2,7.1,7.1V172.2z"/>
	<path class="st4" d="M301.9,172.2c0,3.9-3.2,7.1-7.1,7.1h-22.7c-3.9,0-7.1-3.2-7.1-7.1v-28.3c0-3.9,3.2-7.1,7.1-7.1h22.7
		c3.9,0,7.1,3.2,7.1,7.1V172.2z"/>
	<path class="st4" d="M349.1,172.2c0,3.9-3.2,7.1-7.1,7.1h-22.7c-3.9,0-7.1-3.2-7.1-7.1v-28.3c0-3.9,3.2-7.1,7.1-7.1h22.7
		c3.9,0,7.1,3.2,7.1,7.1V172.2z"/>
	<path class="st4" d="M396.4,172.2c0,3.9-3.2,7.1-7.1,7.1h-22.7c-3.9,0-7.1-3.2-7.1-7.1v-28.3c0-3.9,3.2-7.1,7.1-7.1h22.7
		c3.9,0,7.1,3.2,7.1,7.1V172.2z"/>
	<path class="st4" d="M443.6,172.2c0,3.9-3.2,7.1-7.1,7.1h-22.7c-3.9,0-7.1-3.2-7.1-7.1v-28.3c0-3.9,3.2-7.1,7.1-7.1h22.7
		c3.9,0,7.1,3.2,7.1,7.1V172.2z"/>
	<path class="st4" d="M490.9,172.2c0,3.9-3.2,7.1-7.1,7.1h-22.7c-3.9,0-7.1-3.2-7.1-7.1v-28.3c0-3.9,3.2-7.1,7.1-7.1h22.7
		c3.9,0,7.1,3.2,7.1,7.1V172.2z"/>
	<path class="st4" d="M538.1,172.2c0,3.9-3.2,7.1-7.1,7.1h-22.7c-3.9,0-7.1-3.2-7.1-7.1v-28.3c0-3.9,3.2-7.1,7.1-7.1H531
		c3.9,0,7.1,3.2,7.1,7.1V172.2z"/>
	<path class="st4" d="M585.4,172.2c0,3.9-3.2,7.1-7.1,7.1h-22.7c-3.9,0-7.1-3.2-7.1-7.1v-28.3c0-3.9,3.2-7.1,7.1-7.1h22.7
		c3.9,0,7.1,3.2,7.1,7.1V172.2z"/>
	<path class="st4" d="M632.6,172.2c0,3.9-3.2,7.1-7.1,7.1h-22.7c-3.9,0-7.1-3.2-7.1-7.1v-28.3c0-3.9,3.2-7.1,7.1-7.1h22.7
		c3.9,0,7.1,3.2,7.1,7.1V172.2z"/>
	<path class="st4" d="M679.8,172.2c0,3.9-3.2,7.1-7.1,7.1h-22.7c-3.9,0-7.1-3.2-7.1-7.1v-28.3c0-3.9,3.2-7.1,7.1-7.1h22.7
		c3.9,0,7.1,3.2,7.1,7.1V172.2z"/>
	<path class="st4" d="M207.4,224.6c0,3.9-3.2,7.1-7.1,7.1h-22.7c-3.9,0-7.1-3.2-7.1-7.1v-28.3c0-3.9,3.2-7.1,7.1-7.1h22.7
		c3.9,0,7.1,3.2,7.1,7.1V224.6z"/>
	<path class="st4" d="M254.6,224.6c0,3.9-3.2,7.1-7.1,7.1h-22.7c-3.9,0-7.1-3.2-7.1-7.1v-28.3c0-3.9,3.2-7.1,7.1-7.1h22.7
		c3.9,0,7.1,3.2,7.1,7.1V224.6z"/>
	<path class="st4" d="M301.9,224.6c0,3.9-3.2,7.1-7.1,7.1h-22.7c-3.9,0-7.1-3.2-7.1-7.1v-28.3c0-3.9,3.2-7.1,7.1-7.1h22.7
		c3.9,0,7.1,3.2,7.1,7.1V224.6z"/>
	<path class="st4" d="M349.1,224.6c0,3.9-3.2,7.1-7.1,7.1h-22.7c-3.9,0-7.1-3.2-7.1-7.1v-28.3c0-3.9,3.2-7.1,7.1-7.1h22.7
		c3.9,0,7.1,3.2,7.1,7.1V224.6z"/>
	<path class="st4" d="M396.4,224.6c0,3.9-3.2,7.1-7.1,7.1h-22.7c-3.9,0-7.1-3.2-7.1-7.1v-28.3c0-3.9,3.2-7.1,7.1-7.1h22.7
		c3.9,0,7.1,3.2,7.1,7.1V224.6z"/>
	<path class="st4" d="M446.5,224.6c0,3.9-3.7,7.1-8.2,7.1h-26.2c-4.5,0-8.2-3.2-8.2-7.1v-28.3c0-3.9,3.7-7.1,8.2-7.1h26.2
		c4.5,0,8.2,3.2,8.2,7.1V224.6z"/>
	<path class="st4" d="M490.9,224.6c0,3.9-3.2,7.1-7.1,7.1h-22.7c-3.9,0-7.1-3.2-7.1-7.1v-28.3c0-3.9,3.2-7.1,7.1-7.1h22.7
		c3.9,0,7.1,3.2,7.1,7.1V224.6z"/>
	<path class="st4" d="M538.1,224.6c0,3.9-3.2,7.1-7.1,7.1h-22.7c-3.9,0-7.1-3.2-7.1-7.1v-28.3c0-3.9,3.2-7.1,7.1-7.1H531
		c3.9,0,7.1,3.2,7.1,7.1V224.6z"/>
	<path class="st4" d="M585.4,224.6c0,3.9-3.2,7.1-7.1,7.1h-22.7c-3.9,0-7.1-3.2-7.1-7.1v-28.3c0-3.9,3.2-7.1,7.1-7.1h22.7
		c3.9,0,7.1,3.2,7.1,7.1V224.6z"/>
	<path class="st4" d="M632.6,224.6c0,3.9-3.2,7.1-7.1,7.1h-22.7c-3.9,0-7.1-3.2-7.1-7.1v-28.3c0-3.9,3.2-7.1,7.1-7.1h22.7
		c3.9,0,7.1,3.2,7.1,7.1V224.6z"/>
	<path class="st4" d="M679.8,224.6c0,3.9-3.2,7.1-7.1,7.1h-22.7c-3.9,0-7.1-3.2-7.1-7.1v-28.3c0-3.9,3.2-7.1,7.1-7.1h22.7
		c3.9,0,7.1,3.2,7.1,7.1V224.6z"/>
	<path class="st4" d="M207.4,277.1c0,3.9-3.2,7.1-7.1,7.1h-22.7c-3.9,0-7.1-3.2-7.1-7.1v-28.3c0-3.9,3.2-7.1,7.1-7.1h22.7
		c3.9,0,7.1,3.2,7.1,7.1V277.1z"/>
	<path class="st4" d="M257.5,277.1c0,3.9-3.7,7.1-8.2,7.1h-26.2c-4.5,0-8.2-3.2-8.2-7.1v-28.3c0-3.9,3.7-7.1,8.2-7.1h26.2
		c4.5,0,8.2,3.2,8.2,7.1V277.1L257.5,277.1z"/>
	<path class="st4" d="M301.9,277.1c0,3.9-3.2,7.1-7.1,7.1h-22.7c-3.9,0-7.1-3.2-7.1-7.1v-28.3c0-3.9,3.2-7.1,7.1-7.1h22.7
		c3.9,0,7.1,3.2,7.1,7.1V277.1z"/>
	<path class="st4" d="M349.1,277.1c0,3.9-3.2,7.1-7.1,7.1h-22.7c-3.9,0-7.1-3.2-7.1-7.1v-28.3c0-3.9,3.2-7.1,7.1-7.1h22.7
		c3.9,0,7.1,3.2,7.1,7.1V277.1z"/>
	<path class="st4" d="M396.4,277.1c0,3.9-3.2,7.1-7.1,7.1h-22.7c-3.9,0-7.1-3.2-7.1-7.1v-28.3c0-3.9,3.2-7.1,7.1-7.1h22.7
		c3.9,0,7.1,3.2,7.1,7.1V277.1z"/>
	<path class="st4" d="M443.6,277.1c0,3.9-3.2,7.1-7.1,7.1h-22.7c-3.9,0-7.1-3.2-7.1-7.1v-28.3c0-3.9,3.2-7.1,7.1-7.1h22.7
		c3.9,0,7.1,3.2,7.1,7.1V277.1z"/>
	<path class="st4" d="M490.9,277.1c0,3.9-3.2,7.1-7.1,7.1h-22.7c-3.9,0-7.1-3.2-7.1-7.1v-28.3c0-3.9,3.2-7.1,7.1-7.1h22.7
		c3.9,0,7.1,3.2,7.1,7.1V277.1z"/>
	<path class="st4" d="M538.1,277.1c0,3.9-3.2,7.1-7.1,7.1h-22.7c-3.9,0-7.1-3.2-7.1-7.1v-28.3c0-3.9,3.2-7.1,7.1-7.1H531
		c3.9,0,7.1,3.2,7.1,7.1V277.1z"/>
	<path class="st4" d="M585.4,277.1c0,3.9-3.2,7.1-7.1,7.1h-22.7c-3.9,0-7.1-3.2-7.1-7.1v-28.3c0-3.9,3.2-7.1,7.1-7.1h22.7
		c3.9,0,7.1,3.2,7.1,7.1V277.1z"/>
	<path class="st4" d="M635.4,277.1c0,3.9-3.7,7.1-8.2,7.1h-26.2c-4.5,0-8.2-3.2-8.2-7.1v-28.3c0-3.9,3.7-7.1,8.2-7.1h26.2
		c4.5,0,8.2,3.2,8.2,7.1V277.1z"/>
	<path class="st4" d="M679.8,277.1c0,3.9-3.2,7.1-7.1,7.1h-22.7c-3.9,0-7.1-3.2-7.1-7.1v-28.3c0-3.9,3.2-7.1,7.1-7.1h22.7
		c3.9,0,7.1,3.2,7.1,7.1V277.1z"/>
	<path class="st4" d="M207.4,329.6c0,3.9-3.2,7.1-7.1,7.1h-22.7c-3.9,0-7.1-3.2-7.1-7.1v-28.3c0-3.9,3.2-7.1,7.1-7.1h22.7
		c3.9,0,7.1,3.2,7.1,7.1V329.6z"/>
	<path class="st4" d="M254.6,329.6c0,3.9-3.2,7.1-7.1,7.1h-22.7c-3.9,0-7.1-3.2-7.1-7.1v-28.3c0-3.9,3.2-7.1,7.1-7.1h22.7
		c3.9,0,7.1,3.2,7.1,7.1V329.6z"/>
	<path class="st4" d="M301.9,329.6c0,3.9-3.2,7.1-7.1,7.1h-22.7c-3.9,0-7.1-3.2-7.1-7.1v-28.3c0-3.9,3.2-7.1,7.1-7.1h22.7
		c3.9,0,7.1,3.2,7.1,7.1V329.6z"/>
	<path class="st4" d="M349.1,329.6c0,3.9-3.2,7.1-7.1,7.1h-22.7c-3.9,0-7.1-3.2-7.1-7.1v-28.3c0-3.9,3.2-7.1,7.1-7.1h22.7
		c3.9,0,7.1,3.2,7.1,7.1V329.6z"/>
	<path class="st4" d="M396.4,329.6c0,3.9-3.2,7.1-7.1,7.1h-22.7c-3.9,0-7.1-3.2-7.1-7.1v-28.3c0-3.9,3.2-7.1,7.1-7.1h22.7
		c3.9,0,7.1,3.2,7.1,7.1V329.6z"/>
	<path class="st4" d="M443.6,329.6c0,3.9-3.2,7.1-7.1,7.1h-22.7c-3.9,0-7.1-3.2-7.1-7.1v-28.3c0-3.9,3.2-7.1,7.1-7.1h22.7
		c3.9,0,7.1,3.2,7.1,7.1V329.6z"/>
	<path class="st4" d="M490.9,329.6c0,3.9-3.2,7.1-7.1,7.1h-22.7c-3.9,0-7.1-3.2-7.1-7.1v-28.3c0-3.9,3.2-7.1,7.1-7.1h22.7
		c3.9,0,7.1,3.2,7.1,7.1V329.6z"/>
	<path class="st4" d="M538.1,329.6c0,3.9-3.2,7.1-7.1,7.1h-22.7c-3.9,0-7.1-3.2-7.1-7.1v-28.3c0-3.9,3.2-7.1,7.1-7.1H531
		c3.9,0,7.1,3.2,7.1,7.1V329.6z"/>
	<path class="st4" d="M585.4,329.6c0,3.9-3.2,7.1-7.1,7.1h-22.7c-3.9,0-7.1-3.2-7.1-7.1v-28.3c0-3.9,3.2-7.1,7.1-7.1h22.7
		c3.9,0,7.1,3.2,7.1,7.1V329.6z"/>
	<path class="st4" d="M632.6,329.6c0,3.9-3.2,7.1-7.1,7.1h-22.7c-3.9,0-7.1-3.2-7.1-7.1v-28.3c0-3.9,3.2-7.1,7.1-7.1h22.7
		c3.9,0,7.1,3.2,7.1,7.1V329.6z"/>
	<path class="st4" d="M679.8,329.6c0,3.9-3.2,7.1-7.1,7.1h-22.7c-3.9,0-7.1-3.2-7.1-7.1v-28.3c0-3.9,3.2-7.1,7.1-7.1h22.7
		c3.9,0,7.1,3.2,7.1,7.1V329.6z"/>
	<path class="st4" d="M207.4,382.1c0,3.9-3.2,7.1-7.1,7.1h-22.7c-3.9,0-7.1-3.2-7.1-7.1v-28.3c0-3.9,3.2-7.1,7.1-7.1h22.7
		c3.9,0,7.1,3.2,7.1,7.1V382.1z"/>
	<path class="st4" d="M254.6,382.1c0,3.9-3.2,7.1-7.1,7.1h-22.7c-3.9,0-7.1-3.2-7.1-7.1v-28.3c0-3.9,3.2-7.1,7.1-7.1h22.7
		c3.9,0,7.1,3.2,7.1,7.1V382.1z"/>
	<path class="st4" d="M301.9,382.1c0,3.9-3.2,7.1-7.1,7.1h-22.7c-3.9,0-7.1-3.2-7.1-7.1v-28.3c0-3.9,3.2-7.1,7.1-7.1h22.7
		c3.9,0,7.1,3.2,7.1,7.1V382.1z"/>
	<path class="st4" d="M352,382.1c0,3.9-3.7,7.1-8.2,7.1h-26.2c-4.5,0-8.2-3.2-8.2-7.1v-28.3c0-3.9,3.7-7.1,8.2-7.1h26.2
		c4.5,0,8.2,3.2,8.2,7.1V382.1z"/>
	<path class="st4" d="M396.4,382.1c0,3.9-3.2,7.1-7.1,7.1h-22.7c-3.9,0-7.1-3.2-7.1-7.1v-28.3c0-3.9,3.2-7.1,7.1-7.1h22.7
		c3.9,0,7.1,3.2,7.1,7.1V382.1z"/>
	<path class="st4" d="M443.6,382.1c0,3.9-3.2,7.1-7.1,7.1h-22.7c-3.9,0-7.1-3.2-7.1-7.1v-28.3c0-3.9,3.2-7.1,7.1-7.1h22.7
		c3.9,0,7.1,3.2,7.1,7.1V382.1z"/>
	<path class="st4" d="M490.9,382.1c0,3.9-3.2,7.1-7.1,7.1h-22.7c-3.9,0-7.1-3.2-7.1-7.1v-28.3c0-3.9,3.2-7.1,7.1-7.1h22.7
		c3.9,0,7.1,3.2,7.1,7.1V382.1z"/>
	<path class="st4" d="M540.9,382.1c0,3.9-3.7,7.1-8.2,7.1h-26.2c-4.5,0-8.2-3.2-8.2-7.1v-28.3c0-3.9,3.7-7.1,8.2-7.1h26.2
		c4.5,0,8.2,3.2,8.2,7.1L540.9,382.1L540.9,382.1z"/>
	<path class="st4" d="M585.4,382.1c0,3.9-3.2,7.1-7.1,7.1h-22.7c-3.9,0-7.1-3.2-7.1-7.1v-28.3c0-3.9,3.2-7.1,7.1-7.1h22.7
		c3.9,0,7.1,3.2,7.1,7.1V382.1z"/>
	<path class="st4" d="M632.6,382.1c0,3.9-3.2,7.1-7.1,7.1h-22.7c-3.9,0-7.1-3.2-7.1-7.1v-28.3c0-3.9,3.2-7.1,7.1-7.1h22.7
		c3.9,0,7.1,3.2,7.1,7.1V382.1z"/>
	<path class="st4" d="M679.8,382.1c0,3.9-3.2,7.1-7.1,7.1h-22.7c-3.9,0-7.1-3.2-7.1-7.1v-28.3c0-3.9,3.2-7.1,7.1-7.1h22.7
		c3.9,0,7.1,3.2,7.1,7.1V382.1z"/>
	<path class="st4" d="M207.4,434.6c0,3.9-3.2,7.1-7.1,7.1h-22.7c-3.9,0-7.1-3.2-7.1-7.1v-28.3c0-3.9,3.2-7.1,7.1-7.1h22.7
		c3.9,0,7.1,3.2,7.1,7.1V434.6z"/>
	<path class="st4" d="M254.6,434.6c0,3.9-3.2,7.1-7.1,7.1h-22.7c-3.9,0-7.1-3.2-7.1-7.1v-28.3c0-3.9,3.2-7.1,7.1-7.1h22.7
		c3.9,0,7.1,3.2,7.1,7.1V434.6z"/>
	<path class="st4" d="M301.9,434.6c0,3.9-3.2,7.1-7.1,7.1h-22.7c-3.9,0-7.1-3.2-7.1-7.1v-28.3c0-3.9,3.2-7.1,7.1-7.1h22.7
		c3.9,0,7.1,3.2,7.1,7.1V434.6z"/>
	<path class="st4" d="M352,434.6c0,3.9-3.7,7.1-8.2,7.1h-26.2c-4.5,0-8.2-3.2-8.2-7.1v-28.3c0-3.9,3.7-7.1,8.2-7.1h26.2
		c4.5,0,8.2,3.2,8.2,7.1V434.6z"/>
	<path class="st4" d="M396.4,434.6c0,3.9-3.2,7.1-7.1,7.1h-22.7c-3.9,0-7.1-3.2-7.1-7.1v-28.3c0-3.9,3.2-7.1,7.1-7.1h22.7
		c3.9,0,7.1,3.2,7.1,7.1V434.6z"/>
	<path class="st4" d="M443.6,434.6c0,3.9-3.2,7.1-7.1,7.1h-22.7c-3.9,0-7.1-3.2-7.1-7.1v-28.3c0-3.9,3.2-7.1,7.1-7.1h22.7
		c3.9,0,7.1,3.2,7.1,7.1V434.6z"/>
	<path class="st4" d="M490.9,434.6c0,3.9-3.2,7.1-7.1,7.1h-22.7c-3.9,0-7.1-3.2-7.1-7.1v-28.3c0-3.9,3.2-7.1,7.1-7.1h22.7
		c3.9,0,7.1,3.2,7.1,7.1V434.6z"/>
	<path class="st4" d="M540.9,434.6c0,3.9-3.7,7.1-8.2,7.1h-26.2c-4.5,0-8.2-3.2-8.2-7.1v-28.3c0-3.9,3.7-7.1,8.2-7.1h26.2
		c4.5,0,8.2,3.2,8.2,7.1L540.9,434.6L540.9,434.6z"/>
	<path class="st4" d="M585.4,434.6c0,3.9-3.2,7.1-7.1,7.1h-22.7c-3.9,0-7.1-3.2-7.1-7.1v-28.3c0-3.9,3.2-7.1,7.1-7.1h22.7
		c3.9,0,7.1,3.2,7.1,7.1V434.6z"/>
	<path class="st4" d="M632.6,434.6c0,3.9-3.2,7.1-7.1,7.1h-22.7c-3.9,0-7.1-3.2-7.1-7.1v-28.3c0-3.9,3.2-7.1,7.1-7.1h22.7
		c3.9,0,7.1,3.2,7.1,7.1V434.6z"/>
	<path class="st4" d="M679.8,434.6c0,3.9-3.2,7.1-7.1,7.1h-22.7c-3.9,0-7.1-3.2-7.1-7.1v-28.3c0-3.9,3.2-7.1,7.1-7.1h22.7
		c3.9,0,7.1,3.2,7.1,7.1V434.6z"/>
	<path class="st4" d="M207.4,487.1c0,3.9-3.2,7.1-7.1,7.1h-22.7c-3.9,0-7.1-3.2-7.1-7.1v-28.3c0-3.9,3.2-7.1,7.1-7.1h22.7
		c3.9,0,7.1,3.2,7.1,7.1V487.1z"/>
	<path class="st4" d="M254.6,487.1c0,3.9-3.2,7.1-7.1,7.1h-22.7c-3.9,0-7.1-3.2-7.1-7.1v-28.3c0-3.9,3.2-7.1,7.1-7.1h22.7
		c3.9,0,7.1,3.2,7.1,7.1V487.1z"/>
	<path class="st4" d="M301.9,487.1c0,3.9-3.2,7.1-7.1,7.1h-22.7c-3.9,0-7.1-3.2-7.1-7.1v-28.3c0-3.9,3.2-7.1,7.1-7.1h22.7
		c3.9,0,7.1,3.2,7.1,7.1V487.1z"/>
	<path class="st4" d="M349.1,487.1c0,3.9-3.2,7.1-7.1,7.1h-22.7c-3.9,0-7.1-3.2-7.1-7.1v-28.3c0-3.9,3.2-7.1,7.1-7.1h22.7
		c3.9,0,7.1,3.2,7.1,7.1V487.1z"/>
	<path class="st4" d="M396.4,487.1c0,3.9-3.2,7.1-7.1,7.1h-22.7c-3.9,0-7.1-3.2-7.1-7.1v-28.3c0-3.9,3.2-7.1,7.1-7.1h22.7
		c3.9,0,7.1,3.2,7.1,7.1V487.1z"/>
	<path class="st4" d="M443.6,487.1c0,3.9-3.2,7.1-7.1,7.1h-22.7c-3.9,0-7.1-3.2-7.1-7.1v-28.3c0-3.9,3.2-7.1,7.1-7.1h22.7
		c3.9,0,7.1,3.2,7.1,7.1V487.1z"/>
	<path class="st4" d="M490.9,487.1c0,3.9-3.2,7.1-7.1,7.1h-22.7c-3.9,0-7.1-3.2-7.1-7.1v-28.3c0-3.9,3.2-7.1,7.1-7.1h22.7
		c3.9,0,7.1,3.2,7.1,7.1V487.1z"/>
	<path class="st4" d="M538.1,487.1c0,3.9-3.2,7.1-7.1,7.1h-22.7c-3.9,0-7.1-3.2-7.1-7.1v-28.3c0-3.9,3.2-7.1,7.1-7.1H531
		c3.9,0,7.1,3.2,7.1,7.1V487.1z"/>
	<path class="st4" d="M585.4,487.1c0,3.9-3.2,7.1-7.1,7.1h-22.7c-3.9,0-7.1-3.2-7.1-7.1v-28.3c0-3.9,3.2-7.1,7.1-7.1h22.7
		c3.9,0,7.1,3.2,7.1,7.1V487.1z"/>
	<path class="st4" d="M632.6,487.1c0,3.9-3.2,7.1-7.1,7.1h-22.7c-3.9,0-7.1-3.2-7.1-7.1v-28.3c0-3.9,3.2-7.1,7.1-7.1h22.7
		c3.9,0,7.1,3.2,7.1,7.1V487.1z"/>
	<path class="st4" d="M679.8,487.1c0,3.9-3.2,7.1-7.1,7.1h-22.7c-3.9,0-7.1-3.2-7.1-7.1v-28.3c0-3.9,3.2-7.1,7.1-7.1h22.7
		c3.9,0,7.1,3.2,7.1,7.1V487.1z"/>
	<path class="st4" d="M207.4,539.6c0,3.9-3.2,7.1-7.1,7.1h-22.7c-3.9,0-7.1-3.2-7.1-7.1v-28.3c0-3.9,3.2-7.1,7.1-7.1h22.7
		c3.9,0,7.1,3.2,7.1,7.1V539.6z"/>
	<path class="st4" d="M257.5,539.6c0,3.9-3.7,7.1-8.2,7.1h-26.2c-4.5,0-8.2-3.2-8.2-7.1v-28.3c0-3.9,3.7-7.1,8.2-7.1h26.2
		c4.5,0,8.2,3.2,8.2,7.1V539.6L257.5,539.6z"/>
	<path class="st4" d="M301.9,539.6c0,3.9-3.2,7.1-7.1,7.1h-22.7c-3.9,0-7.1-3.2-7.1-7.1v-28.3c0-3.9,3.2-7.1,7.1-7.1h22.7
		c3.9,0,7.1,3.2,7.1,7.1V539.6z"/>
	<path class="st4" d="M349.1,539.6c0,3.9-3.2,7.1-7.1,7.1h-22.7c-3.9,0-7.1-3.2-7.1-7.1v-28.3c0-3.9,3.2-7.1,7.1-7.1h22.7
		c3.9,0,7.1,3.2,7.1,7.1V539.6z"/>
	<path class="st4" d="M396.4,539.6c0,3.9-3.2,7.1-7.1,7.1h-22.7c-3.9,0-7.1-3.2-7.1-7.1v-28.3c0-3.9,3.2-7.1,7.1-7.1h22.7
		c3.9,0,7.1,3.2,7.1,7.1V539.6z"/>
	<path class="st4" d="M443.6,539.6c0,3.9-3.2,7.1-7.1,7.1h-22.7c-3.9,0-7.1-3.2-7.1-7.1v-28.3c0-3.9,3.2-7.1,7.1-7.1h22.7
		c3.9,0,7.1,3.2,7.1,7.1V539.6z"/>
	<path class="st4" d="M490.9,539.6c0,3.9-3.2,7.1-7.1,7.1h-22.7c-3.9,0-7.1-3.2-7.1-7.1v-28.3c0-3.9,3.2-7.1,7.1-7.1h22.7
		c3.9,0,7.1,3.2,7.1,7.1V539.6z"/>
	<path class="st4" d="M538.1,539.6c0,3.9-3.2,7.1-7.1,7.1h-22.7c-3.9,0-7.1-3.2-7.1-7.1v-28.3c0-3.9,3.2-7.1,7.1-7.1H531
		c3.9,0,7.1,3.2,7.1,7.1V539.6z"/>
	<path class="st4" d="M585.4,539.6c0,3.9-3.2,7.1-7.1,7.1h-22.7c-3.9,0-7.1-3.2-7.1-7.1v-28.3c0-3.9,3.2-7.1,7.1-7.1h22.7
		c3.9,0,7.1,3.2,7.1,7.1V539.6z"/>
	<path class="st4" d="M635.4,539.6c0,3.9-3.7,7.1-8.2,7.1h-26.2c-4.5,0-8.2-3.2-8.2-7.1v-28.3c0-3.9,3.7-7.1,8.2-7.1h26.2
		c4.5,0,8.2,3.2,8.2,7.1V539.6z"/>
	<path class="st4" d="M679.8,539.6c0,3.9-3.2,7.1-7.1,7.1h-22.7c-3.9,0-7.1-3.2-7.1-7.1v-28.3c0-3.9,3.2-7.1,7.1-7.1h22.7
		c3.9,0,7.1,3.2,7.1,7.1V539.6z"/>
	<path class="st4" d="M207.4,592.1c0,3.9-3.2,7.1-7.1,7.1h-22.7c-3.9,0-7.1-3.2-7.1-7.1v-28.3c0-3.9,3.2-7.1,7.1-7.1h22.7
		c3.9,0,7.1,3.2,7.1,7.1V592.1z"/>
	<path class="st4" d="M254.6,592.1c0,3.9-3.2,7.1-7.1,7.1h-22.7c-3.9,0-7.1-3.2-7.1-7.1v-28.3c0-3.9,3.2-7.1,7.1-7.1h22.7
		c3.9,0,7.1,3.2,7.1,7.1V592.1z"/>
	<path class="st4" d="M301.9,592.1c0,3.9-3.2,7.1-7.1,7.1h-22.7c-3.9,0-7.1-3.2-7.1-7.1v-28.3c0-3.9,3.2-7.1,7.1-7.1h22.7
		c3.9,0,7.1,3.2,7.1,7.1V592.1z"/>
	<path class="st4" d="M349.1,592.1c0,3.9-3.2,7.1-7.1,7.1h-22.7c-3.9,0-7.1-3.2-7.1-7.1v-28.3c0-3.9,3.2-7.1,7.1-7.1h22.7
		c3.9,0,7.1,3.2,7.1,7.1V592.1z"/>
	<path class="st4" d="M396.4,592.1c0,3.9-3.2,7.1-7.1,7.1h-22.7c-3.9,0-7.1-3.2-7.1-7.1v-28.3c0-3.9,3.2-7.1,7.1-7.1h22.7
		c3.9,0,7.1,3.2,7.1,7.1V592.1z"/>
	<path class="st4" d="M446.5,592.1c0,3.9-3.7,7.1-8.2,7.1h-26.2c-4.5,0-8.2-3.2-8.2-7.1v-28.3c0-3.9,3.7-7.1,8.2-7.1h26.2
		c4.5,0,8.2,3.2,8.2,7.1V592.1z"/>
	<path class="st4" d="M490.9,592.1c0,3.9-3.2,7.1-7.1,7.1h-22.7c-3.9,0-7.1-3.2-7.1-7.1v-28.3c0-3.9,3.2-7.1,7.1-7.1h22.7
		c3.9,0,7.1,3.2,7.1,7.1V592.1z"/>
	<path class="st4" d="M538.1,592.1c0,3.9-3.2,7.1-7.1,7.1h-22.7c-3.9,0-7.1-3.2-7.1-7.1v-28.3c0-3.9,3.2-7.1,7.1-7.1H531
		c3.9,0,7.1,3.2,7.1,7.1V592.1z"/>
	<path class="st4" d="M585.4,592.1c0,3.9-3.2,7.1-7.1,7.1h-22.7c-3.9,0-7.1-3.2-7.1-7.1v-28.3c0-3.9,3.2-7.1,7.1-7.1h22.7
		c3.9,0,7.1,3.2,7.1,7.1V592.1z"/>
	<path class="st4" d="M632.6,592.1c0,3.9-3.2,7.1-7.1,7.1h-22.7c-3.9,0-7.1-3.2-7.1-7.1v-28.3c0-3.9,3.2-7.1,7.1-7.1h22.7
		c3.9,0,7.1,3.2,7.1,7.1V592.1z"/>
	<path class="st4" d="M679.8,592.1c0,3.9-3.2,7.1-7.1,7.1h-22.7c-3.9,0-7.1-3.2-7.1-7.1v-28.3c0-3.9,3.2-7.1,7.1-7.1h22.7
		c3.9,0,7.1,3.2,7.1,7.1V592.1z"/>
	<path class="st4" d="M207.4,644.6c0,3.9-3.2,7.1-7.1,7.1h-22.7c-3.9,0-7.1-3.2-7.1-7.1v-28.3c0-3.9,3.2-7.1,7.1-7.1h22.7
		c3.9,0,7.1,3.2,7.1,7.1V644.6z"/>
	<path class="st4" d="M254.6,644.6c0,3.9-3.2,7.1-7.1,7.1h-22.7c-3.9,0-7.1-3.2-7.1-7.1v-28.3c0-3.9,3.2-7.1,7.1-7.1h22.7
		c3.9,0,7.1,3.2,7.1,7.1V644.6z"/>
	<path class="st4" d="M301.9,644.6c0,3.9-3.2,7.1-7.1,7.1h-22.7c-3.9,0-7.1-3.2-7.1-7.1v-28.3c0-3.9,3.2-7.1,7.1-7.1h22.7
		c3.9,0,7.1,3.2,7.1,7.1V644.6z"/>
	<path class="st4" d="M349.1,644.6c0,3.9-3.2,7.1-7.1,7.1h-22.7c-3.9,0-7.1-3.2-7.1-7.1v-28.3c0-3.9,3.2-7.1,7.1-7.1h22.7
		c3.9,0,7.1,3.2,7.1,7.1V644.6z"/>
	<path class="st4" d="M396.4,644.6c0,3.9-3.2,7.1-7.1,7.1h-22.7c-3.9,0-7.1-3.2-7.1-7.1v-28.3c0-3.9,3.2-7.1,7.1-7.1h22.7
		c3.9,0,7.1,3.2,7.1,7.1V644.6z"/>
	<path class="st4" d="M443.6,644.6c0,3.9-3.2,7.1-7.1,7.1h-22.7c-3.9,0-7.1-3.2-7.1-7.1v-28.3c0-3.9,3.2-7.1,7.1-7.1h22.7
		c3.9,0,7.1,3.2,7.1,7.1V644.6z"/>
	<path class="st4" d="M490.9,644.6c0,3.9-3.2,7.1-7.1,7.1h-22.7c-3.9,0-7.1-3.2-7.1-7.1v-28.3c0-3.9,3.2-7.1,7.1-7.1h22.7
		c3.9,0,7.1,3.2,7.1,7.1V644.6z"/>
	<path class="st4" d="M538.1,644.6c0,3.9-3.2,7.1-7.1,7.1h-22.7c-3.9,0-7.1-3.2-7.1-7.1v-28.3c0-3.9,3.2-7.1,7.1-7.1H531
		c3.9,0,7.1,3.2,7.1,7.1V644.6z"/>
	<path class="st4" d="M585.4,644.6c0,3.9-3.2,7.1-7.1,7.1h-22.7c-3.9,0-7.1-3.2-7.1-7.1v-28.3c0-3.9,3.2-7.1,7.1-7.1h22.7
		c3.9,0,7.1,3.2,7.1,7.1V644.6z"/>
	<path class="st4" d="M632.6,644.6c0,3.9-3.2,7.1-7.1,7.1h-22.7c-3.9,0-7.1-3.2-7.1-7.1v-28.3c0-3.9,3.2-7.1,7.1-7.1h22.7
		c3.9,0,7.1,3.2,7.1,7.1V644.6z"/>
	<path class="st4" d="M679.8,644.6c0,3.9-3.2,7.1-7.1,7.1h-22.7c-3.9,0-7.1-3.2-7.1-7.1v-28.3c0-3.9,3.2-7.1,7.1-7.1h22.7
		c3.9,0,7.1,3.2,7.1,7.1V644.6z"/>
	<path class="st4" d="M207.4,697.1c0,3.9-3.2,7.1-7.1,7.1h-22.7c-3.9,0-7.1-3.2-7.1-7.1v-28.3c0-3.9,3.2-7.1,7.1-7.1h22.7
		c3.9,0,7.1,3.2,7.1,7.1V697.1z"/>
	<path class="st4" d="M254.6,697.1c0,3.9-3.2,7.1-7.1,7.1h-22.7c-3.9,0-7.1-3.2-7.1-7.1v-28.3c0-3.9,3.2-7.1,7.1-7.1h22.7
		c3.9,0,7.1,3.2,7.1,7.1V697.1z"/>
	<path class="st4" d="M301.9,697.1c0,3.9-3.2,7.1-7.1,7.1h-22.7c-3.9,0-7.1-3.2-7.1-7.1v-28.3c0-3.9,3.2-7.1,7.1-7.1h22.7
		c3.9,0,7.1,3.2,7.1,7.1V697.1z"/>
	<path class="st4" d="M349.1,697.1c0,3.9-3.2,7.1-7.1,7.1h-22.7c-3.9,0-7.1-3.2-7.1-7.1v-28.3c0-3.9,3.2-7.1,7.1-7.1h22.7
		c3.9,0,7.1,3.2,7.1,7.1V697.1z"/>
	<path class="st4" d="M396.4,697.1c0,3.9-3.2,7.1-7.1,7.1h-22.7c-3.9,0-7.1-3.2-7.1-7.1v-28.3c0-3.9,3.2-7.1,7.1-7.1h22.7
		c3.9,0,7.1,3.2,7.1,7.1V697.1z"/>
	<path class="st4" d="M443.6,697.1c0,3.9-3.2,7.1-7.1,7.1h-22.7c-3.9,0-7.1-3.2-7.1-7.1v-28.3c0-3.9,3.2-7.1,7.1-7.1h22.7
		c3.9,0,7.1,3.2,7.1,7.1V697.1z"/>
	<path class="st4" d="M490.9,697.1c0,3.9-3.2,7.1-7.1,7.1h-22.7c-3.9,0-7.1-3.2-7.1-7.1v-28.3c0-3.9,3.2-7.1,7.1-7.1h22.7
		c3.9,0,7.1,3.2,7.1,7.1V697.1z"/>
	<path class="st4" d="M538.1,697.1c0,3.9-3.2,7.1-7.1,7.1h-22.7c-3.9,0-7.1-3.2-7.1-7.1v-28.3c0-3.9,3.2-7.1,7.1-7.1H531
		c3.9,0,7.1,3.2,7.1,7.1V697.1z"/>
	<path class="st4" d="M372.4,765.1c0,3.9-3.2,7.1-7.1,7.1h-22.7c-3.9,0-7.1-3.2-7.1-7.1v-28.3c0-3.9,3.2-7.1,7.1-7.1h22.7
		c3.9,0,7.1,3.2,7.1,7.1V765.1z"/>
	<path class="st4" d="M419.6,765.1c0,3.9-3.2,7.1-7.1,7.1h-22.7c-3.9,0-7.1-3.2-7.1-7.1v-28.3c0-3.9,3.2-7.1,7.1-7.1h22.7
		c3.9,0,7.1,3.2,7.1,7.1V765.1z"/>
	<path class="st4" d="M466.9,765.1c0,3.9-3.2,7.1-7.1,7.1h-22.7c-3.9,0-7.1-3.2-7.1-7.1v-28.3c0-3.9,3.2-7.1,7.1-7.1h22.7
		c3.9,0,7.1,3.2,7.1,7.1V765.1z"/>
	<path class="st4" d="M514.1,765.1c0,3.9-3.2,7.1-7.1,7.1h-22.7c-3.9,0-7.1-3.2-7.1-7.1v-28.3c0-3.9,3.2-7.1,7.1-7.1H507
		c3.9,0,7.1,3.2,7.1,7.1V765.1z"/>
	<path class="st4" d="M585.4,697.1c0,3.9-3.2,7.1-7.1,7.1h-22.7c-3.9,0-7.1-3.2-7.1-7.1v-28.3c0-3.9,3.2-7.1,7.1-7.1h22.7
		c3.9,0,7.1,3.2,7.1,7.1V697.1z"/>
	<path class="st4" d="M632.6,697.1c0,3.9-3.2,7.1-7.1,7.1h-22.7c-3.9,0-7.1-3.2-7.1-7.1v-28.3c0-3.9,3.2-7.1,7.1-7.1h22.7
		c3.9,0,7.1,3.2,7.1,7.1V697.1z"/>
	<path class="st4" d="M679.8,697.1c0,3.9-3.2,7.1-7.1,7.1h-22.7c-3.9,0-7.1-3.2-7.1-7.1v-28.3c0-3.9,3.2-7.1,7.1-7.1h22.7
		c3.9,0,7.1,3.2,7.1,7.1V697.1z"/>
</g>
<rect x="70.9" y="39.9" class="st5" width="708.7" height="708.7"/>
</svg>
