<?xml version="1.0" encoding="utf-8"?>
<!-- Generator: Adobe Illustrator 24.3.0, SVG Export Plug-In . SVG Version: 6.00 Build 0)  -->
<svg version="1.1"
	 id="svg918" inkscape:version="0.92.4 (5da689c313, 2019-01-14)" xmlns:cc="http://creativecommons.org/ns#" xmlns:dc="http://purl.org/dc/elements/1.1/" xmlns:inkscape="http://www.inkscape.org/namespaces/inkscape" xmlns:rdf="http://www.w3.org/1999/02/22-rdf-syntax-ns#" xmlns:sodipodi="http://sodipodi.sourceforge.net/DTD/sodipodi-0.dtd" xmlns:svg="http://www.w3.org/2000/svg"
	 xmlns="http://www.w3.org/2000/svg" xmlns:xlink="http://www.w3.org/1999/xlink" x="0px" y="0px" viewBox="0 0 850.4 850.4"
	 style="enable-background:new 0 0 850.4 850.4;" xml:space="preserve">
<style type="text/css">
	.st0{fill:#00D300;fill-opacity:0.1647;}
	.st1{font-family:'Helvetica';}
	.st2{font-size:30px;}
	.st3{display:none;}
	.st4{display:inline;fill:none;stroke:#FF0000;stroke-width:0.2835;}
	.st5{display:none;fill:none;stroke:#FF0000;stroke-width:0.2835;}
</style>
<sodipodi:namedview  bordercolor="#666666" borderopacity="1" gridtolerance="10" guidetolerance="10" id="namedview920" inkscape:current-layer="g916" inkscape:cx="-90.764306" inkscape:cy="1012.9005" inkscape:document-units="mm" inkscape:pageopacity="0" inkscape:pageshadow="2" inkscape:window-height="1109" inkscape:window-maximized="1" inkscape:window-width="1920" inkscape:window-x="1920" inkscape:window-y="0" inkscape:zoom="0.31115" objecttolerance="10" pagecolor="#ffffff" showgrid="false">
	</sodipodi:namedview>
<g id="g916" transform="translate(0,-861.73197)">
	<path id="path2" inkscape:connector-curvature="0" class="st0" d="M0,861.7h850.4v850.4H0V861.7z"/>
	<path id="path4" inkscape:connector-curvature="0" d="M715,1570.4c0,3.5-2.9,6.4-6.4,6.4c-3.5,0-6.4-2.9-6.4-6.4
		c0-3.5,2.9-6.4,6.4-6.4C712.1,1564,715,1566.9,715,1570.4"/>
	<circle id="circle6" cx="708.6" cy="1570.4" r="6.4"/>
	<path id="path8" inkscape:connector-curvature="0" d="M148.1,1570.4c0,3.5-2.9,6.4-6.4,6.4c-3.5,0-6.4-2.9-6.4-6.4
		c0-3.5,2.9-6.4,6.4-6.4C145.2,1564,148.1,1566.9,148.1,1570.4"/>
	<circle id="circle10" cx="141.7" cy="1570.4" r="6.4"/>
	<path id="path12" inkscape:connector-curvature="0" d="M148.1,1003.6c0,3.5-2.9,6.4-6.4,6.4c-3.5,0-6.4-2.9-6.4-6.4
		c0-3.5,2.9-6.4,6.4-6.4C145.2,997.2,148.1,1000,148.1,1003.6"/>
	<circle id="circle14" cx="141.7" cy="1003.6" r="6.4"/>
	<path id="path16" inkscape:connector-curvature="0" d="M715,1003.6c0,3.5-2.9,6.4-6.4,6.4c-3.5,0-6.4-2.9-6.4-6.4
		c0-3.5,2.9-6.4,6.4-6.4C712.1,997.2,715,1000,715,1003.6"/>
	<circle id="circle18" cx="708.6" cy="1003.6" r="6.4"/>
	<text transform="matrix(1 0 0 1 178.0498 1062.1832)" class="st1 st2">E</text>
	<text transform="matrix(1 0 0 1 225.2998 1062.1832)" class="st1 st2">S</text>
	<text transform="matrix(1 0 0 1 272.5498 1062.1832)" class="st1 st2">K</text>
	<text transform="matrix(1 0 0 1 325.7998 1062.1832)" class="st1 st2">I</text>
	<text transform="matrix(1 0 0 1 367.0498 1062.1832)" class="st1 st2">S</text>
	<text transform="matrix(1 0 0 1 414.2998 1062.1832)" class="st1 st2">T</text>
	<text transform="matrix(1 0 0 1 461.5498 1062.1832)" class="st1 st2">A</text>
	<text transform="matrix(1 0 0 1 508.7998 1062.1832)" class="st1 st2">F</text>
	<text transform="matrix(1 0 0 1 556.0498 1062.1832)" class="st1 st2">Ü</text>
	<text transform="matrix(1 0 0 1 603.2998 1062.1832)" class="st1 st2">N</text>
	<text transform="matrix(1 0 0 1 650.5498 1062.1832)" class="st1 st2">F</text>
	<text transform="matrix(1 0 0 1 697.7998 1062.1832)" class="st1 st2"> </text>
	<text transform="matrix(1 0 0 1 178.0498 1114.6237)" class="st1 st2">Z</text>
	<text transform="matrix(1 0 0 1 225.2998 1114.6237)" class="st1 st2">E</text>
	<text transform="matrix(1 0 0 1 272.5498 1114.6237)" class="st1 st2">H</text>
	<text transform="matrix(1 0 0 1 319.7998 1114.6237)" class="st1 st2">N</text>
	<text transform="matrix(1 0 0 1 367.0498 1114.6237)" class="st1 st2">Z</text>
	<text transform="matrix(1 0 0 1 411.2998 1114.6237)" class="st1 st2">W</text>
	<text transform="matrix(1 0 0 1 461.5498 1114.6237)" class="st1 st2">A</text>
	<text transform="matrix(1 0 0 1 508.7998 1114.6237)" class="st1 st2">N</text>
	<text transform="matrix(1 0 0 1 556.0498 1114.6237)" class="st1 st2">Z</text>
	<text transform="matrix(1 0 0 1 609.2998 1114.6237)" class="st1 st2">I</text>
	<text transform="matrix(1 0 0 1 650.5498 1114.6237)" class="st1 st2">G</text>
	<text transform="matrix(1 0 0 1 697.7998 1114.6237)" class="st1 st2"> </text>
	<text transform="matrix(1 0 0 1 178.0498 1167.0651)" class="st1 st2">D</text>
	<text transform="matrix(1 0 0 1 225.2998 1167.0651)" class="st1 st2">R</text>
	<text transform="matrix(1 0 0 1 272.5498 1167.0651)" class="st1 st2">E</text>
	<text transform="matrix(1 0 0 1 325.7998 1167.0651)" class="st1 st2">I</text>
	<text transform="matrix(1 0 0 1 367.0498 1167.0651)" class="st1 st2">V</text>
	<text transform="matrix(1 0 0 1 420.2998 1167.0651)" class="st1 st2">I</text>
	<text transform="matrix(1 0 0 1 461.5498 1167.0651)" class="st1 st2">E</text>
	<text transform="matrix(1 0 0 1 508.7998 1167.0651)" class="st1 st2">R</text>
	<text transform="matrix(1 0 0 1 556.0498 1167.0651)" class="st1 st2">T</text>
	<text transform="matrix(1 0 0 1 603.2998 1167.0651)" class="st1 st2">E</text>
	<text transform="matrix(1 0 0 1 650.5498 1167.0651)" class="st1 st2">L</text>
	<text transform="matrix(1 0 0 1 697.7998 1167.0651)" class="st1 st2"> </text>
	<text transform="matrix(1 0 0 1 178.0498 1219.506)" class="st1 st2">V</text>
	<text transform="matrix(1 0 0 1 225.2998 1219.506)" class="st1 st2">O</text>
	<text transform="matrix(1 0 0 1 272.5498 1219.506)" class="st1 st2">R</text>
	<text transform="matrix(1 0 0 1 319.7998 1219.506)" class="st1 st2">F</text>
	<text transform="matrix(1 0 0 1 367.0498 1219.506)" class="st1 st2">U</text>
	<text transform="matrix(1 0 0 1 414.2998 1219.506)" class="st1 st2">N</text>
	<text transform="matrix(1 0 0 1 461.5498 1219.506)" class="st1 st2">K</text>
	<text transform="matrix(1 0 0 1 508.7998 1219.506)" class="st1 st2">N</text>
	<text transform="matrix(1 0 0 1 556.0498 1219.506)" class="st1 st2">A</text>
	<text transform="matrix(1 0 0 1 603.2998 1219.506)" class="st1 st2">C</text>
	<text transform="matrix(1 0 0 1 650.5498 1219.506)" class="st1 st2">H</text>
	<text transform="matrix(1 0 0 1 697.7998 1219.506)" class="st1 st2"> </text>
	<text transform="matrix(1 0 0 1 178.0498 1271.9469)" class="st1 st2">H</text>
	<text transform="matrix(1 0 0 1 225.2998 1271.9469)" class="st1 st2">A</text>
	<text transform="matrix(1 0 0 1 272.5498 1271.9469)" class="st1 st2">L</text>
	<text transform="matrix(1 0 0 1 319.7998 1271.9469)" class="st1 st2">B</text>
	<text transform="matrix(1 0 0 1 367.0498 1271.9469)" class="st1 st2">A</text>
	<text transform="matrix(1 0 0 1 414.2998 1271.9469)" class="st1 st2">E</text>
	<text transform="matrix(1 0 0 1 461.5498 1271.9469)" class="st1 st2">L</text>
	<text transform="matrix(1 0 0 1 508.7998 1271.9469)" class="st1 st2">F</text>
	<text transform="matrix(1 0 0 1 556.0498 1271.9469)" class="st1 st2">Ü</text>
	<text transform="matrix(1 0 0 1 603.2998 1271.9469)" class="st1 st2">N</text>
	<text transform="matrix(1 0 0 1 650.5498 1271.9469)" class="st1 st2">F</text>
	<text transform="matrix(1 0 0 1 697.7998 1271.9469)" class="st1 st2"> </text>
	<text transform="matrix(1 0 0 1 178.0498 1324.3873)" class="st1 st2">E</text>
	<text transform="matrix(1 0 0 1 231.2998 1324.3873)" class="st1 st2">I</text>
	<text transform="matrix(1 0 0 1 272.5498 1324.3873)" class="st1 st2">N</text>
	<text transform="matrix(1 0 0 1 319.7998 1324.3873)" class="st1 st2">S</text>
	<text transform="matrix(1 0 0 1 367.0498 1324.3873)" class="st1 st2">X</text>
	<text transform="matrix(1 0 0 1 414.2998 1324.3873)" class="st1 st2">A</text>
	<text transform="matrix(1 0 0 1 461.5498 1324.3873)" class="st1 st2">M</text>
	<text transform="matrix(1 0 0 1 508.7998 1324.3873)" class="st1 st2">Z</text>
	<text transform="matrix(1 0 0 1 553.0498 1324.3873)" class="st1 st2">W</text>
	<text transform="matrix(1 0 0 1 603.2998 1324.3873)" class="st1 st2">E</text>
	<text transform="matrix(1 0 0 1 656.5498 1324.3873)" class="st1 st2">I</text>
	<text transform="matrix(1 0 0 1 697.7998 1324.3873)" class="st1 st2"> </text>
	<text transform="matrix(1 0 0 1 178.0498 1376.8287)" class="st1 st2">D</text>
	<text transform="matrix(1 0 0 1 225.2998 1376.8287)" class="st1 st2">R</text>
	<text transform="matrix(1 0 0 1 272.5498 1376.8287)" class="st1 st2">E</text>
	<text transform="matrix(1 0 0 1 325.7998 1376.8287)" class="st1 st2">I</text>
	<text transform="matrix(1 0 0 1 367.0498 1376.8287)" class="st1 st2">A</text>
	<text transform="matrix(1 0 0 1 414.2998 1376.8287)" class="st1 st2">U</text>
	<text transform="matrix(1 0 0 1 461.5498 1376.8287)" class="st1 st2">J</text>
	<text transform="matrix(1 0 0 1 508.7998 1376.8287)" class="st1 st2">V</text>
	<text transform="matrix(1 0 0 1 562.0498 1376.8287)" class="st1 st2">I</text>
	<text transform="matrix(1 0 0 1 603.2998 1376.8287)" class="st1 st2">E</text>
	<text transform="matrix(1 0 0 1 650.5498 1376.8287)" class="st1 st2">R</text>
	<text transform="matrix(1 0 0 1 697.7998 1376.8287)" class="st1 st2"> </text>
	<text transform="matrix(1 0 0 1 178.0498 1429.2701)" class="st1 st2">S</text>
	<text transform="matrix(1 0 0 1 225.2998 1429.2701)" class="st1 st2">E</text>
	<text transform="matrix(1 0 0 1 272.5498 1429.2701)" class="st1 st2">C</text>
	<text transform="matrix(1 0 0 1 319.7998 1429.2701)" class="st1 st2">H</text>
	<text transform="matrix(1 0 0 1 367.0498 1429.2701)" class="st1 st2">S</text>
	<text transform="matrix(1 0 0 1 414.2998 1429.2701)" class="st1 st2">N</text>
	<text transform="matrix(1 0 0 1 461.5498 1429.2701)" class="st1 st2">L</text>
	<text transform="matrix(1 0 0 1 508.7998 1429.2701)" class="st1 st2">A</text>
	<text transform="matrix(1 0 0 1 556.0498 1429.2701)" class="st1 st2">C</text>
	<text transform="matrix(1 0 0 1 603.2998 1429.2701)" class="st1 st2">H</text>
	<text transform="matrix(1 0 0 1 650.5498 1429.2701)" class="st1 st2">T</text>
	<text transform="matrix(1 0 0 1 697.7998 1429.2701)" class="st1 st2"> </text>
	<text transform="matrix(1 0 0 1 178.0498 1481.7106)" class="st1 st2">S</text>
	<text transform="matrix(1 0 0 1 231.2998 1481.7106)" class="st1 st2">I</text>
	<text transform="matrix(1 0 0 1 272.5498 1481.7106)" class="st1 st2">E</text>
	<text transform="matrix(1 0 0 1 319.7998 1481.7106)" class="st1 st2">B</text>
	<text transform="matrix(1 0 0 1 367.0498 1481.7106)" class="st1 st2">E</text>
	<text transform="matrix(1 0 0 1 414.2998 1481.7106)" class="st1 st2">N</text>
	<text transform="matrix(1 0 0 1 461.5498 1481.7106)" class="st1 st2">Z</text>
	<text transform="matrix(1 0 0 1 505.7998 1481.7106)" class="st1 st2">W</text>
	<text transform="matrix(1 0 0 1 556.0498 1481.7106)" class="st1 st2">Ö</text>
	<text transform="matrix(1 0 0 1 603.2998 1481.7106)" class="st1 st2">L</text>
	<text transform="matrix(1 0 0 1 650.5498 1481.7106)" class="st1 st2">F</text>
	<text transform="matrix(1 0 0 1 697.7998 1481.7106)" class="st1 st2"> </text>
	<text transform="matrix(1 0 0 1 178.0498 1534.152)" class="st1 st2">Z</text>
	<text transform="matrix(1 0 0 1 225.2998 1534.152)" class="st1 st2">E</text>
	<text transform="matrix(1 0 0 1 272.5498 1534.152)" class="st1 st2">H</text>
	<text transform="matrix(1 0 0 1 319.7998 1534.152)" class="st1 st2">N</text>
	<text transform="matrix(1 0 0 1 367.0498 1534.152)" class="st1 st2">E</text>
	<text transform="matrix(1 0 0 1 414.2998 1534.152)" class="st1 st2">U</text>
	<text transform="matrix(1 0 0 1 461.5498 1534.152)" class="st1 st2">N</text>
	<text transform="matrix(1 0 0 1 508.7998 1534.152)" class="st1 st2">K</text>
	<text transform="matrix(1 0 0 1 556.0498 1534.152)" class="st1 st2">U</text>
	<text transform="matrix(1 0 0 1 603.2998 1534.152)" class="st1 st2">H</text>
	<text transform="matrix(1 0 0 1 650.5498 1534.152)" class="st1 st2">R</text>
</g>
<g class="st3">
	<path class="st4" d="M163,154.5c0,4.7-3.8,8.5-8.5,8.5H129c-4.7,0-8.5-3.8-8.5-8.5V129c0-4.7,3.8-8.5,8.5-8.5h25.5
		c4.7,0,8.5,3.8,8.5,8.5V154.5z"/>
	<path class="st4" d="M729.9,154.5c0,4.7-3.8,8.5-8.5,8.5h-25.5c-4.7,0-8.5-3.8-8.5-8.5V129c0-4.7,3.8-8.5,8.5-8.5h25.5
		c4.7,0,8.5,3.8,8.5,8.5V154.5z"/>
	<path class="st4" d="M163,721.4c0,4.7-3.8,8.5-8.5,8.5H129c-4.7,0-8.5-3.8-8.5-8.5v-25.5c0-4.7,3.8-8.5,8.5-8.5h25.5
		c4.7,0,8.5,3.8,8.5,8.5V721.4z"/>
	<path class="st4" d="M729.9,721.4c0,4.7-3.8,8.5-8.5,8.5h-25.5c-4.7,0-8.5-3.8-8.5-8.5v-25.5c0-4.7,3.8-8.5,8.5-8.5h25.5
		c4.7,0,8.5,3.8,8.5,8.5V721.4z"/>
	<path class="st4" d="M207.4,203.2c0,3.9-3.2,7.1-7.1,7.1h-22.7c-3.9,0-7.1-3.2-7.1-7.1v-28.3c0-3.9,3.2-7.1,7.1-7.1h22.7
		c3.9,0,7.1,3.2,7.1,7.1V203.2z"/>
	<path class="st4" d="M254.6,203.2c0,3.9-3.2,7.1-7.1,7.1h-22.7c-3.9,0-7.1-3.2-7.1-7.1v-28.3c0-3.9,3.2-7.1,7.1-7.1h22.7
		c3.9,0,7.1,3.2,7.1,7.1V203.2z"/>
	<path class="st4" d="M301.9,203.2c0,3.9-3.2,7.1-7.1,7.1h-22.7c-3.9,0-7.1-3.2-7.1-7.1v-28.3c0-3.9,3.2-7.1,7.1-7.1h22.7
		c3.9,0,7.1,3.2,7.1,7.1V203.2z"/>
	<path class="st4" d="M349.1,203.2c0,3.9-3.2,7.1-7.1,7.1h-22.7c-3.9,0-7.1-3.2-7.1-7.1v-28.3c0-3.9,3.2-7.1,7.1-7.1h22.7
		c3.9,0,7.1,3.2,7.1,7.1V203.2z"/>
	<path class="st4" d="M396.4,203.2c0,3.9-3.2,7.1-7.1,7.1h-22.7c-3.9,0-7.1-3.2-7.1-7.1v-28.3c0-3.9,3.2-7.1,7.1-7.1h22.7
		c3.9,0,7.1,3.2,7.1,7.1V203.2z"/>
	<path class="st4" d="M443.6,203.2c0,3.9-3.2,7.1-7.1,7.1h-22.7c-3.9,0-7.1-3.2-7.1-7.1v-28.3c0-3.9,3.2-7.1,7.1-7.1h22.7
		c3.9,0,7.1,3.2,7.1,7.1V203.2z"/>
	<path class="st4" d="M490.9,203.2c0,3.9-3.2,7.1-7.1,7.1h-22.7c-3.9,0-7.1-3.2-7.1-7.1v-28.3c0-3.9,3.2-7.1,7.1-7.1h22.7
		c3.9,0,7.1,3.2,7.1,7.1V203.2z"/>
	<path class="st4" d="M538.1,203.2c0,3.9-3.2,7.1-7.1,7.1h-22.7c-3.9,0-7.1-3.2-7.1-7.1v-28.3c0-3.9,3.2-7.1,7.1-7.1H531
		c3.9,0,7.1,3.2,7.1,7.1V203.2z"/>
	<path class="st4" d="M585.4,203.2c0,3.9-3.2,7.1-7.1,7.1h-22.7c-3.9,0-7.1-3.2-7.1-7.1v-28.3c0-3.9,3.2-7.1,7.1-7.1h22.7
		c3.9,0,7.1,3.2,7.1,7.1V203.2z"/>
	<path class="st4" d="M632.6,203.2c0,3.9-3.2,7.1-7.1,7.1h-22.7c-3.9,0-7.1-3.2-7.1-7.1v-28.3c0-3.9,3.2-7.1,7.1-7.1h22.7
		c3.9,0,7.1,3.2,7.1,7.1V203.2z"/>
	<path class="st4" d="M679.8,203.2c0,3.9-3.2,7.1-7.1,7.1h-22.7c-3.9,0-7.1-3.2-7.1-7.1v-28.3c0-3.9,3.2-7.1,7.1-7.1h22.7
		c3.9,0,7.1,3.2,7.1,7.1V203.2z"/>
	<path class="st4" d="M207.4,255.6c0,3.9-3.2,7.1-7.1,7.1h-22.7c-3.9,0-7.1-3.2-7.1-7.1v-28.3c0-3.9,3.2-7.1,7.1-7.1h22.7
		c3.9,0,7.1,3.2,7.1,7.1V255.6z"/>
	<path class="st4" d="M254.6,255.6c0,3.9-3.2,7.1-7.1,7.1h-22.7c-3.9,0-7.1-3.2-7.1-7.1v-28.3c0-3.9,3.2-7.1,7.1-7.1h22.7
		c3.9,0,7.1,3.2,7.1,7.1V255.6z"/>
	<path class="st4" d="M301.9,255.6c0,3.9-3.2,7.1-7.1,7.1h-22.7c-3.9,0-7.1-3.2-7.1-7.1v-28.3c0-3.9,3.2-7.1,7.1-7.1h22.7
		c3.9,0,7.1,3.2,7.1,7.1V255.6z"/>
	<path class="st4" d="M349.1,255.6c0,3.9-3.2,7.1-7.1,7.1h-22.7c-3.9,0-7.1-3.2-7.1-7.1v-28.3c0-3.9,3.2-7.1,7.1-7.1h22.7
		c3.9,0,7.1,3.2,7.1,7.1V255.6z"/>
	<path class="st4" d="M396.4,255.6c0,3.9-3.2,7.1-7.1,7.1h-22.7c-3.9,0-7.1-3.2-7.1-7.1v-28.3c0-3.9,3.2-7.1,7.1-7.1h22.7
		c3.9,0,7.1,3.2,7.1,7.1V255.6z"/>
	<path class="st4" d="M446.5,255.6c0,3.9-3.7,7.1-8.2,7.1h-26.2c-4.5,0-8.2-3.2-8.2-7.1v-28.3c0-3.9,3.7-7.1,8.2-7.1h26.2
		c4.5,0,8.2,3.2,8.2,7.1V255.6z"/>
	<path class="st4" d="M490.9,255.6c0,3.9-3.2,7.1-7.1,7.1h-22.7c-3.9,0-7.1-3.2-7.1-7.1v-28.3c0-3.9,3.2-7.1,7.1-7.1h22.7
		c3.9,0,7.1,3.2,7.1,7.1V255.6z"/>
	<path class="st4" d="M538.1,255.6c0,3.9-3.2,7.1-7.1,7.1h-22.7c-3.9,0-7.1-3.2-7.1-7.1v-28.3c0-3.9,3.2-7.1,7.1-7.1H531
		c3.9,0,7.1,3.2,7.1,7.1V255.6z"/>
	<path class="st4" d="M585.4,255.6c0,3.9-3.2,7.1-7.1,7.1h-22.7c-3.9,0-7.1-3.2-7.1-7.1v-28.3c0-3.9,3.2-7.1,7.1-7.1h22.7
		c3.9,0,7.1,3.2,7.1,7.1V255.6z"/>
	<path class="st4" d="M632.6,255.6c0,3.9-3.2,7.1-7.1,7.1h-22.7c-3.9,0-7.1-3.2-7.1-7.1v-28.3c0-3.9,3.2-7.1,7.1-7.1h22.7
		c3.9,0,7.1,3.2,7.1,7.1V255.6z"/>
	<path class="st4" d="M679.8,255.6c0,3.9-3.2,7.1-7.1,7.1h-22.7c-3.9,0-7.1-3.2-7.1-7.1v-28.3c0-3.9,3.2-7.1,7.1-7.1h22.7
		c3.9,0,7.1,3.2,7.1,7.1V255.6z"/>
	<path class="st4" d="M207.4,308.1c0,3.9-3.2,7.1-7.1,7.1h-22.7c-3.9,0-7.1-3.2-7.1-7.1v-28.3c0-3.9,3.2-7.1,7.1-7.1h22.7
		c3.9,0,7.1,3.2,7.1,7.1V308.1z"/>
	<path class="st4" d="M257.5,308.1c0,3.9-3.7,7.1-8.2,7.1h-26.2c-4.5,0-8.2-3.2-8.2-7.1v-28.3c0-3.9,3.7-7.1,8.2-7.1h26.2
		c4.5,0,8.2,3.2,8.2,7.1V308.1L257.5,308.1z"/>
	<path class="st4" d="M301.9,308.1c0,3.9-3.2,7.1-7.1,7.1h-22.7c-3.9,0-7.1-3.2-7.1-7.1v-28.3c0-3.9,3.2-7.1,7.1-7.1h22.7
		c3.9,0,7.1,3.2,7.1,7.1V308.1z"/>
	<path class="st4" d="M349.1,308.1c0,3.9-3.2,7.1-7.1,7.1h-22.7c-3.9,0-7.1-3.2-7.1-7.1v-28.3c0-3.9,3.2-7.1,7.1-7.1h22.7
		c3.9,0,7.1,3.2,7.1,7.1V308.1z"/>
	<path class="st4" d="M396.4,308.1c0,3.9-3.2,7.1-7.1,7.1h-22.7c-3.9,0-7.1-3.2-7.1-7.1v-28.3c0-3.9,3.2-7.1,7.1-7.1h22.7
		c3.9,0,7.1,3.2,7.1,7.1V308.1z"/>
	<path class="st4" d="M443.6,308.1c0,3.9-3.2,7.1-7.1,7.1h-22.7c-3.9,0-7.1-3.2-7.1-7.1v-28.3c0-3.9,3.2-7.1,7.1-7.1h22.7
		c3.9,0,7.1,3.2,7.1,7.1V308.1z"/>
	<path class="st4" d="M490.9,308.1c0,3.9-3.2,7.1-7.1,7.1h-22.7c-3.9,0-7.1-3.2-7.1-7.1v-28.3c0-3.9,3.2-7.1,7.1-7.1h22.7
		c3.9,0,7.1,3.2,7.1,7.1V308.1z"/>
	<path class="st4" d="M538.1,308.1c0,3.9-3.2,7.1-7.1,7.1h-22.7c-3.9,0-7.1-3.2-7.1-7.1v-28.3c0-3.9,3.2-7.1,7.1-7.1H531
		c3.9,0,7.1,3.2,7.1,7.1V308.1z"/>
	<path class="st4" d="M585.4,308.1c0,3.9-3.2,7.1-7.1,7.1h-22.7c-3.9,0-7.1-3.2-7.1-7.1v-28.3c0-3.9,3.2-7.1,7.1-7.1h22.7
		c3.9,0,7.1,3.2,7.1,7.1V308.1z"/>
	<path class="st4" d="M635.4,308.1c0,3.9-3.7,7.1-8.2,7.1h-26.2c-4.5,0-8.2-3.2-8.2-7.1v-28.3c0-3.9,3.7-7.1,8.2-7.1h26.2
		c4.5,0,8.2,3.2,8.2,7.1V308.1z"/>
	<path class="st4" d="M679.8,308.1c0,3.9-3.2,7.1-7.1,7.1h-22.7c-3.9,0-7.1-3.2-7.1-7.1v-28.3c0-3.9,3.2-7.1,7.1-7.1h22.7
		c3.9,0,7.1,3.2,7.1,7.1V308.1z"/>
	<path class="st4" d="M207.4,360.6c0,3.9-3.2,7.1-7.1,7.1h-22.7c-3.9,0-7.1-3.2-7.1-7.1v-28.3c0-3.9,3.2-7.1,7.1-7.1h22.7
		c3.9,0,7.1,3.2,7.1,7.1V360.6z"/>
	<path class="st4" d="M254.6,360.6c0,3.9-3.2,7.1-7.1,7.1h-22.7c-3.9,0-7.1-3.2-7.1-7.1v-28.3c0-3.9,3.2-7.1,7.1-7.1h22.7
		c3.9,0,7.1,3.2,7.1,7.1V360.6z"/>
	<path class="st4" d="M301.9,360.6c0,3.9-3.2,7.1-7.1,7.1h-22.7c-3.9,0-7.1-3.2-7.1-7.1v-28.3c0-3.9,3.2-7.1,7.1-7.1h22.7
		c3.9,0,7.1,3.2,7.1,7.1V360.6z"/>
	<path class="st4" d="M349.1,360.6c0,3.9-3.2,7.1-7.1,7.1h-22.7c-3.9,0-7.1-3.2-7.1-7.1v-28.3c0-3.9,3.2-7.1,7.1-7.1h22.7
		c3.9,0,7.1,3.2,7.1,7.1V360.6z"/>
	<path class="st4" d="M396.4,360.6c0,3.9-3.2,7.1-7.1,7.1h-22.7c-3.9,0-7.1-3.2-7.1-7.1v-28.3c0-3.9,3.2-7.1,7.1-7.1h22.7
		c3.9,0,7.1,3.2,7.1,7.1V360.6z"/>
	<path class="st4" d="M443.6,360.6c0,3.9-3.2,7.1-7.1,7.1h-22.7c-3.9,0-7.1-3.2-7.1-7.1v-28.3c0-3.9,3.2-7.1,7.1-7.1h22.7
		c3.9,0,7.1,3.2,7.1,7.1V360.6z"/>
	<path class="st4" d="M490.9,360.6c0,3.9-3.2,7.1-7.1,7.1h-22.7c-3.9,0-7.1-3.2-7.1-7.1v-28.3c0-3.9,3.2-7.1,7.1-7.1h22.7
		c3.9,0,7.1,3.2,7.1,7.1V360.6z"/>
	<path class="st4" d="M538.1,360.6c0,3.9-3.2,7.1-7.1,7.1h-22.7c-3.9,0-7.1-3.2-7.1-7.1v-28.3c0-3.9,3.2-7.1,7.1-7.1H531
		c3.9,0,7.1,3.2,7.1,7.1V360.6z"/>
	<path class="st4" d="M585.4,360.6c0,3.9-3.2,7.1-7.1,7.1h-22.7c-3.9,0-7.1-3.2-7.1-7.1v-28.3c0-3.9,3.2-7.1,7.1-7.1h22.7
		c3.9,0,7.1,3.2,7.1,7.1V360.6z"/>
	<path class="st4" d="M632.6,360.6c0,3.9-3.2,7.1-7.1,7.1h-22.7c-3.9,0-7.1-3.2-7.1-7.1v-28.3c0-3.9,3.2-7.1,7.1-7.1h22.7
		c3.9,0,7.1,3.2,7.1,7.1V360.6z"/>
	<path class="st4" d="M679.8,360.6c0,3.9-3.2,7.1-7.1,7.1h-22.7c-3.9,0-7.1-3.2-7.1-7.1v-28.3c0-3.9,3.2-7.1,7.1-7.1h22.7
		c3.9,0,7.1,3.2,7.1,7.1V360.6z"/>
	<path class="st4" d="M207.4,413.1c0,3.9-3.2,7.1-7.1,7.1h-22.7c-3.9,0-7.1-3.2-7.1-7.1v-28.3c0-3.9,3.2-7.1,7.1-7.1h22.7
		c3.9,0,7.1,3.2,7.1,7.1V413.1z"/>
	<path class="st4" d="M254.6,413.1c0,3.9-3.2,7.1-7.1,7.1h-22.7c-3.9,0-7.1-3.2-7.1-7.1v-28.3c0-3.9,3.2-7.1,7.1-7.1h22.7
		c3.9,0,7.1,3.2,7.1,7.1V413.1z"/>
	<path class="st4" d="M301.9,413.1c0,3.9-3.2,7.1-7.1,7.1h-22.7c-3.9,0-7.1-3.2-7.1-7.1v-28.3c0-3.9,3.2-7.1,7.1-7.1h22.7
		c3.9,0,7.1,3.2,7.1,7.1V413.1z"/>
	<path class="st4" d="M352,413.1c0,3.9-3.7,7.1-8.2,7.1h-26.2c-4.5,0-8.2-3.2-8.2-7.1v-28.3c0-3.9,3.7-7.1,8.2-7.1h26.2
		c4.5,0,8.2,3.2,8.2,7.1V413.1z"/>
	<path class="st4" d="M396.4,413.1c0,3.9-3.2,7.1-7.1,7.1h-22.7c-3.9,0-7.1-3.2-7.1-7.1v-28.3c0-3.9,3.2-7.1,7.1-7.1h22.7
		c3.9,0,7.1,3.2,7.1,7.1V413.1z"/>
	<path class="st4" d="M443.6,413.1c0,3.9-3.2,7.1-7.1,7.1h-22.7c-3.9,0-7.1-3.2-7.1-7.1v-28.3c0-3.9,3.2-7.1,7.1-7.1h22.7
		c3.9,0,7.1,3.2,7.1,7.1V413.1z"/>
	<path class="st4" d="M490.9,413.1c0,3.9-3.2,7.1-7.1,7.1h-22.7c-3.9,0-7.1-3.2-7.1-7.1v-28.3c0-3.9,3.2-7.1,7.1-7.1h22.7
		c3.9,0,7.1,3.2,7.1,7.1V413.1z"/>
	<path class="st4" d="M540.9,413.1c0,3.9-3.7,7.1-8.2,7.1h-26.2c-4.5,0-8.2-3.2-8.2-7.1v-28.3c0-3.9,3.7-7.1,8.2-7.1h26.2
		c4.5,0,8.2,3.2,8.2,7.1L540.9,413.1L540.9,413.1z"/>
	<path class="st4" d="M585.4,413.1c0,3.9-3.2,7.1-7.1,7.1h-22.7c-3.9,0-7.1-3.2-7.1-7.1v-28.3c0-3.9,3.2-7.1,7.1-7.1h22.7
		c3.9,0,7.1,3.2,7.1,7.1V413.1z"/>
	<path class="st4" d="M632.6,413.1c0,3.9-3.2,7.1-7.1,7.1h-22.7c-3.9,0-7.1-3.2-7.1-7.1v-28.3c0-3.9,3.2-7.1,7.1-7.1h22.7
		c3.9,0,7.1,3.2,7.1,7.1V413.1z"/>
	<path class="st4" d="M679.8,413.1c0,3.9-3.2,7.1-7.1,7.1h-22.7c-3.9,0-7.1-3.2-7.1-7.1v-28.3c0-3.9,3.2-7.1,7.1-7.1h22.7
		c3.9,0,7.1,3.2,7.1,7.1V413.1z"/>
	<path class="st4" d="M207.4,465.6c0,3.9-3.2,7.1-7.1,7.1h-22.7c-3.9,0-7.1-3.2-7.1-7.1v-28.3c0-3.9,3.2-7.1,7.1-7.1h22.7
		c3.9,0,7.1,3.2,7.1,7.1V465.6z"/>
	<path class="st4" d="M254.6,465.6c0,3.9-3.2,7.1-7.1,7.1h-22.7c-3.9,0-7.1-3.2-7.1-7.1v-28.3c0-3.9,3.2-7.1,7.1-7.1h22.7
		c3.9,0,7.1,3.2,7.1,7.1V465.6z"/>
	<path class="st4" d="M301.9,465.6c0,3.9-3.2,7.1-7.1,7.1h-22.7c-3.9,0-7.1-3.2-7.1-7.1v-28.3c0-3.9,3.2-7.1,7.1-7.1h22.7
		c3.9,0,7.1,3.2,7.1,7.1V465.6z"/>
	<path class="st4" d="M352,465.6c0,3.9-3.7,7.1-8.2,7.1h-26.2c-4.5,0-8.2-3.2-8.2-7.1v-28.3c0-3.9,3.7-7.1,8.2-7.1h26.2
		c4.5,0,8.2,3.2,8.2,7.1V465.6z"/>
	<path class="st4" d="M396.4,465.6c0,3.9-3.2,7.1-7.1,7.1h-22.7c-3.9,0-7.1-3.2-7.1-7.1v-28.3c0-3.9,3.2-7.1,7.1-7.1h22.7
		c3.9,0,7.1,3.2,7.1,7.1V465.6z"/>
	<path class="st4" d="M443.6,465.6c0,3.9-3.2,7.1-7.1,7.1h-22.7c-3.9,0-7.1-3.2-7.1-7.1v-28.3c0-3.9,3.2-7.1,7.1-7.1h22.7
		c3.9,0,7.1,3.2,7.1,7.1V465.6z"/>
	<path class="st4" d="M490.9,465.6c0,3.9-3.2,7.1-7.1,7.1h-22.7c-3.9,0-7.1-3.2-7.1-7.1v-28.3c0-3.9,3.2-7.1,7.1-7.1h22.7
		c3.9,0,7.1,3.2,7.1,7.1V465.6z"/>
	<path class="st4" d="M540.9,465.6c0,3.9-3.7,7.1-8.2,7.1h-26.2c-4.5,0-8.2-3.2-8.2-7.1v-28.3c0-3.9,3.7-7.1,8.2-7.1h26.2
		c4.5,0,8.2,3.2,8.2,7.1L540.9,465.6L540.9,465.6z"/>
	<path class="st4" d="M585.4,465.6c0,3.9-3.2,7.1-7.1,7.1h-22.7c-3.9,0-7.1-3.2-7.1-7.1v-28.3c0-3.9,3.2-7.1,7.1-7.1h22.7
		c3.9,0,7.1,3.2,7.1,7.1V465.6z"/>
	<path class="st4" d="M632.6,465.6c0,3.9-3.2,7.1-7.1,7.1h-22.7c-3.9,0-7.1-3.2-7.1-7.1v-28.3c0-3.9,3.2-7.1,7.1-7.1h22.7
		c3.9,0,7.1,3.2,7.1,7.1V465.6z"/>
	<path class="st4" d="M679.8,465.6c0,3.9-3.2,7.1-7.1,7.1h-22.7c-3.9,0-7.1-3.2-7.1-7.1v-28.3c0-3.9,3.2-7.1,7.1-7.1h22.7
		c3.9,0,7.1,3.2,7.1,7.1V465.6z"/>
	<path class="st4" d="M207.4,518.1c0,3.9-3.2,7.1-7.1,7.1h-22.7c-3.9,0-7.1-3.2-7.1-7.1v-28.3c0-3.9,3.2-7.1,7.1-7.1h22.7
		c3.9,0,7.1,3.2,7.1,7.1V518.1z"/>
	<path class="st4" d="M254.6,518.1c0,3.9-3.2,7.1-7.1,7.1h-22.7c-3.9,0-7.1-3.2-7.1-7.1v-28.3c0-3.9,3.2-7.1,7.1-7.1h22.7
		c3.9,0,7.1,3.2,7.1,7.1V518.1z"/>
	<path class="st4" d="M301.9,518.1c0,3.9-3.2,7.1-7.1,7.1h-22.7c-3.9,0-7.1-3.2-7.1-7.1v-28.3c0-3.9,3.2-7.1,7.1-7.1h22.7
		c3.9,0,7.1,3.2,7.1,7.1V518.1z"/>
	<path class="st4" d="M349.1,518.1c0,3.9-3.2,7.1-7.1,7.1h-22.7c-3.9,0-7.1-3.2-7.1-7.1v-28.3c0-3.9,3.2-7.1,7.1-7.1h22.7
		c3.9,0,7.1,3.2,7.1,7.1V518.1z"/>
	<path class="st4" d="M396.4,518.1c0,3.9-3.2,7.1-7.1,7.1h-22.7c-3.9,0-7.1-3.2-7.1-7.1v-28.3c0-3.9,3.2-7.1,7.1-7.1h22.7
		c3.9,0,7.1,3.2,7.1,7.1V518.1z"/>
	<path class="st4" d="M443.6,518.1c0,3.9-3.2,7.1-7.1,7.1h-22.7c-3.9,0-7.1-3.2-7.1-7.1v-28.3c0-3.9,3.2-7.1,7.1-7.1h22.7
		c3.9,0,7.1,3.2,7.1,7.1V518.1z"/>
	<path class="st4" d="M490.9,518.1c0,3.9-3.2,7.1-7.1,7.1h-22.7c-3.9,0-7.1-3.2-7.1-7.1v-28.3c0-3.9,3.2-7.1,7.1-7.1h22.7
		c3.9,0,7.1,3.2,7.1,7.1V518.1z"/>
	<path class="st4" d="M538.1,518.1c0,3.9-3.2,7.1-7.1,7.1h-22.7c-3.9,0-7.1-3.2-7.1-7.1v-28.3c0-3.9,3.2-7.1,7.1-7.1H531
		c3.9,0,7.1,3.2,7.1,7.1V518.1z"/>
	<path class="st4" d="M585.4,518.1c0,3.9-3.2,7.1-7.1,7.1h-22.7c-3.9,0-7.1-3.2-7.1-7.1v-28.3c0-3.9,3.2-7.1,7.1-7.1h22.7
		c3.9,0,7.1,3.2,7.1,7.1V518.1z"/>
	<path class="st4" d="M632.6,518.1c0,3.9-3.2,7.1-7.1,7.1h-22.7c-3.9,0-7.1-3.2-7.1-7.1v-28.3c0-3.9,3.2-7.1,7.1-7.1h22.7
		c3.9,0,7.1,3.2,7.1,7.1V518.1z"/>
	<path class="st4" d="M679.8,518.1c0,3.9-3.2,7.1-7.1,7.1h-22.7c-3.9,0-7.1-3.2-7.1-7.1v-28.3c0-3.9,3.2-7.1,7.1-7.1h22.7
		c3.9,0,7.1,3.2,7.1,7.1V518.1z"/>
	<path class="st4" d="M207.4,570.6c0,3.9-3.2,7.1-7.1,7.1h-22.7c-3.9,0-7.1-3.2-7.1-7.1v-28.3c0-3.9,3.2-7.1,7.1-7.1h22.7
		c3.9,0,7.1,3.2,7.1,7.1V570.6z"/>
	<path class="st4" d="M257.5,570.6c0,3.9-3.7,7.1-8.2,7.1h-26.2c-4.5,0-8.2-3.2-8.2-7.1v-28.3c0-3.9,3.7-7.1,8.2-7.1h26.2
		c4.5,0,8.2,3.2,8.2,7.1V570.6L257.5,570.6z"/>
	<path class="st4" d="M301.9,570.6c0,3.9-3.2,7.1-7.1,7.1h-22.7c-3.9,0-7.1-3.2-7.1-7.1v-28.3c0-3.9,3.2-7.1,7.1-7.1h22.7
		c3.9,0,7.1,3.2,7.1,7.1V570.6z"/>
	<path class="st4" d="M349.1,570.6c0,3.9-3.2,7.1-7.1,7.1h-22.7c-3.9,0-7.1-3.2-7.1-7.1v-28.3c0-3.9,3.2-7.1,7.1-7.1h22.7
		c3.9,0,7.1,3.2,7.1,7.1V570.6z"/>
	<path class="st4" d="M396.4,570.6c0,3.9-3.2,7.1-7.1,7.1h-22.7c-3.9,0-7.1-3.2-7.1-7.1v-28.3c0-3.9,3.2-7.1,7.1-7.1h22.7
		c3.9,0,7.1,3.2,7.1,7.1V570.6z"/>
	<path class="st4" d="M443.6,570.6c0,3.9-3.2,7.1-7.1,7.1h-22.7c-3.9,0-7.1-3.2-7.1-7.1v-28.3c0-3.9,3.2-7.1,7.1-7.1h22.7
		c3.9,0,7.1,3.2,7.1,7.1V570.6z"/>
	<path class="st4" d="M490.9,570.6c0,3.9-3.2,7.1-7.1,7.1h-22.7c-3.9,0-7.1-3.2-7.1-7.1v-28.3c0-3.9,3.2-7.1,7.1-7.1h22.7
		c3.9,0,7.1,3.2,7.1,7.1V570.6z"/>
	<path class="st4" d="M538.1,570.6c0,3.9-3.2,7.1-7.1,7.1h-22.7c-3.9,0-7.1-3.2-7.1-7.1v-28.3c0-3.9,3.2-7.1,7.1-7.1H531
		c3.9,0,7.1,3.2,7.1,7.1V570.6z"/>
	<path class="st4" d="M585.4,570.6c0,3.9-3.2,7.1-7.1,7.1h-22.7c-3.9,0-7.1-3.2-7.1-7.1v-28.3c0-3.9,3.2-7.1,7.1-7.1h22.7
		c3.9,0,7.1,3.2,7.1,7.1V570.6z"/>
	<path class="st4" d="M635.4,570.6c0,3.9-3.7,7.1-8.2,7.1h-26.2c-4.5,0-8.2-3.2-8.2-7.1v-28.3c0-3.9,3.7-7.1,8.2-7.1h26.2
		c4.5,0,8.2,3.2,8.2,7.1V570.6z"/>
	<path class="st4" d="M679.8,570.6c0,3.9-3.2,7.1-7.1,7.1h-22.7c-3.9,0-7.1-3.2-7.1-7.1v-28.3c0-3.9,3.2-7.1,7.1-7.1h22.7
		c3.9,0,7.1,3.2,7.1,7.1V570.6z"/>
	<path class="st4" d="M207.4,623.1c0,3.9-3.2,7.1-7.1,7.1h-22.7c-3.9,0-7.1-3.2-7.1-7.1v-28.3c0-3.9,3.2-7.1,7.1-7.1h22.7
		c3.9,0,7.1,3.2,7.1,7.1V623.1z"/>
	<path class="st4" d="M254.6,623.1c0,3.9-3.2,7.1-7.1,7.1h-22.7c-3.9,0-7.1-3.2-7.1-7.1v-28.3c0-3.9,3.2-7.1,7.1-7.1h22.7
		c3.9,0,7.1,3.2,7.1,7.1V623.1z"/>
	<path class="st4" d="M301.9,623.1c0,3.9-3.2,7.1-7.1,7.1h-22.7c-3.9,0-7.1-3.2-7.1-7.1v-28.3c0-3.9,3.2-7.1,7.1-7.1h22.7
		c3.9,0,7.1,3.2,7.1,7.1V623.1z"/>
	<path class="st4" d="M349.1,623.1c0,3.9-3.2,7.1-7.1,7.1h-22.7c-3.9,0-7.1-3.2-7.1-7.1v-28.3c0-3.9,3.2-7.1,7.1-7.1h22.7
		c3.9,0,7.1,3.2,7.1,7.1V623.1z"/>
	<path class="st4" d="M396.4,623.1c0,3.9-3.2,7.1-7.1,7.1h-22.7c-3.9,0-7.1-3.2-7.1-7.1v-28.3c0-3.9,3.2-7.1,7.1-7.1h22.7
		c3.9,0,7.1,3.2,7.1,7.1V623.1z"/>
	<path class="st4" d="M446.5,623.1c0,3.9-3.7,7.1-8.2,7.1h-26.2c-4.5,0-8.2-3.2-8.2-7.1v-28.3c0-3.9,3.7-7.1,8.2-7.1h26.2
		c4.5,0,8.2,3.2,8.2,7.1V623.1z"/>
	<path class="st4" d="M490.9,623.1c0,3.9-3.2,7.1-7.1,7.1h-22.7c-3.9,0-7.1-3.2-7.1-7.1v-28.3c0-3.9,3.2-7.1,7.1-7.1h22.7
		c3.9,0,7.1,3.2,7.1,7.1V623.1z"/>
	<path class="st4" d="M538.1,623.1c0,3.9-3.2,7.1-7.1,7.1h-22.7c-3.9,0-7.1-3.2-7.1-7.1v-28.3c0-3.9,3.2-7.1,7.1-7.1H531
		c3.9,0,7.1,3.2,7.1,7.1V623.1z"/>
	<path class="st4" d="M585.4,623.1c0,3.9-3.2,7.1-7.1,7.1h-22.7c-3.9,0-7.1-3.2-7.1-7.1v-28.3c0-3.9,3.2-7.1,7.1-7.1h22.7
		c3.9,0,7.1,3.2,7.1,7.1V623.1z"/>
	<path class="st4" d="M632.6,623.1c0,3.9-3.2,7.1-7.1,7.1h-22.7c-3.9,0-7.1-3.2-7.1-7.1v-28.3c0-3.9,3.2-7.1,7.1-7.1h22.7
		c3.9,0,7.1,3.2,7.1,7.1V623.1z"/>
	<path class="st4" d="M679.8,623.1c0,3.9-3.2,7.1-7.1,7.1h-22.7c-3.9,0-7.1-3.2-7.1-7.1v-28.3c0-3.9,3.2-7.1,7.1-7.1h22.7
		c3.9,0,7.1,3.2,7.1,7.1V623.1z"/>
	<path class="st4" d="M207.4,675.6c0,3.9-3.2,7.1-7.1,7.1h-22.7c-3.9,0-7.1-3.2-7.1-7.1v-28.3c0-3.9,3.2-7.1,7.1-7.1h22.7
		c3.9,0,7.1,3.2,7.1,7.1V675.6z"/>
	<path class="st4" d="M254.6,675.6c0,3.9-3.2,7.1-7.1,7.1h-22.7c-3.9,0-7.1-3.2-7.1-7.1v-28.3c0-3.9,3.2-7.1,7.1-7.1h22.7
		c3.9,0,7.1,3.2,7.1,7.1V675.6z"/>
	<path class="st4" d="M301.9,675.6c0,3.9-3.2,7.1-7.1,7.1h-22.7c-3.9,0-7.1-3.2-7.1-7.1v-28.3c0-3.9,3.2-7.1,7.1-7.1h22.7
		c3.9,0,7.1,3.2,7.1,7.1V675.6z"/>
	<path class="st4" d="M349.1,675.6c0,3.9-3.2,7.1-7.1,7.1h-22.7c-3.9,0-7.1-3.2-7.1-7.1v-28.3c0-3.9,3.2-7.1,7.1-7.1h22.7
		c3.9,0,7.1,3.2,7.1,7.1V675.6z"/>
	<path class="st4" d="M396.4,675.6c0,3.9-3.2,7.1-7.1,7.1h-22.7c-3.9,0-7.1-3.2-7.1-7.1v-28.3c0-3.9,3.2-7.1,7.1-7.1h22.7
		c3.9,0,7.1,3.2,7.1,7.1V675.6z"/>
	<path class="st4" d="M443.6,675.6c0,3.9-3.2,7.1-7.1,7.1h-22.7c-3.9,0-7.1-3.2-7.1-7.1v-28.3c0-3.9,3.2-7.1,7.1-7.1h22.7
		c3.9,0,7.1,3.2,7.1,7.1V675.6z"/>
	<path class="st4" d="M490.9,675.6c0,3.9-3.2,7.1-7.1,7.1h-22.7c-3.9,0-7.1-3.2-7.1-7.1v-28.3c0-3.9,3.2-7.1,7.1-7.1h22.7
		c3.9,0,7.1,3.2,7.1,7.1V675.6z"/>
	<path class="st4" d="M538.1,675.6c0,3.9-3.2,7.1-7.1,7.1h-22.7c-3.9,0-7.1-3.2-7.1-7.1v-28.3c0-3.9,3.2-7.1,7.1-7.1H531
		c3.9,0,7.1,3.2,7.1,7.1V675.6z"/>
	<path class="st4" d="M585.4,675.6c0,3.9-3.2,7.1-7.1,7.1h-22.7c-3.9,0-7.1-3.2-7.1-7.1v-28.3c0-3.9,3.2-7.1,7.1-7.1h22.7
		c3.9,0,7.1,3.2,7.1,7.1V675.6z"/>
	<path class="st4" d="M632.6,675.6c0,3.9-3.2,7.1-7.1,7.1h-22.7c-3.9,0-7.1-3.2-7.1-7.1v-28.3c0-3.9,3.2-7.1,7.1-7.1h22.7
		c3.9,0,7.1,3.2,7.1,7.1V675.6z"/>
	<path class="st4" d="M679.8,675.6c0,3.9-3.2,7.1-7.1,7.1h-22.7c-3.9,0-7.1-3.2-7.1-7.1v-28.3c0-3.9,3.2-7.1,7.1-7.1h22.7
		c3.9,0,7.1,3.2,7.1,7.1V675.6z"/>
</g>
<rect x="70.9" y="70.9" class="st5" width="708.7" height="708.7"/>
</svg>
