<?xml version="1.0" encoding="utf-8"?>
<!-- Generator: Adobe Illustrator 24.3.0, SVG Export Plug-In . SVG Version: 6.00 Build 0)  -->
<svg version="1.1"
	 id="svg918" inkscape:version="0.92.4 (5da689c313, 2019-01-14)" xmlns:cc="http://creativecommons.org/ns#" xmlns:dc="http://purl.org/dc/elements/1.1/" xmlns:inkscape="http://www.inkscape.org/namespaces/inkscape" xmlns:rdf="http://www.w3.org/1999/02/22-rdf-syntax-ns#" xmlns:sodipodi="http://sodipodi.sourceforge.net/DTD/sodipodi-0.dtd" xmlns:svg="http://www.w3.org/2000/svg"
	 xmlns="http://www.w3.org/2000/svg" xmlns:xlink="http://www.w3.org/1999/xlink" x="0px" y="0px" viewBox="0 0 850.4 850.4"
	 style="enable-background:new 0 0 850.4 850.4;" xml:space="preserve">
<style type="text/css">
	.st0{fill:#003DEE;fill-opacity:0.1647;}
	.st1{enable-background:new    ;}
</style>
<sodipodi:namedview  bordercolor="#666666" borderopacity="1" gridtolerance="10" guidetolerance="10" id="namedview920" inkscape:current-layer="g916" inkscape:cx="-90.764306" inkscape:cy="1012.9005" inkscape:document-units="mm" inkscape:pageopacity="0" inkscape:pageshadow="2" inkscape:window-height="1109" inkscape:window-maximized="1" inkscape:window-width="1920" inkscape:window-x="1920" inkscape:window-y="0" inkscape:zoom="0.31115" objecttolerance="10" pagecolor="#ffffff" showgrid="false">
	</sodipodi:namedview>
<g id="g916" transform="translate(0,-861.73197)">
	<path id="path2" inkscape:connector-curvature="0" class="st0" d="M0,861.7h850.4v850.4H0V861.7z"/>
	<path id="path4" inkscape:connector-curvature="0" d="M715,1570.4c0,3.5-2.9,6.4-6.4,6.4c-3.5,0-6.4-2.9-6.4-6.4
		c0-3.5,2.9-6.4,6.4-6.4C712.1,1564,715,1566.9,715,1570.4"/>
	<circle id="circle6" cx="708.6" cy="1570.4" r="6.4"/>
	<path id="path8" inkscape:connector-curvature="0" d="M148.1,1570.4c0,3.5-2.9,6.4-6.4,6.4c-3.5,0-6.4-2.9-6.4-6.4
		c0-3.5,2.9-6.4,6.4-6.4C145.2,1564,148.1,1566.9,148.1,1570.4"/>
	<circle id="circle10" cx="141.7" cy="1570.4" r="6.4"/>
	<path id="path12" inkscape:connector-curvature="0" d="M148.1,1003.6c0,3.5-2.9,6.4-6.4,6.4c-3.5,0-6.4-2.9-6.4-6.4
		c0-3.5,2.9-6.4,6.4-6.4C145.2,997.2,148.1,1000,148.1,1003.6"/>
	<circle id="circle14" cx="141.7" cy="1003.6" r="6.4"/>
	<path id="path16" inkscape:connector-curvature="0" d="M715,1003.6c0,3.5-2.9,6.4-6.4,6.4c-3.5,0-6.4-2.9-6.4-6.4
		c0-3.5,2.9-6.4,6.4-6.4C712.1,997.2,715,1000,715,1003.6"/>
	<circle id="circle18" cx="708.6" cy="1003.6" r="6.4"/>
	<g class="st1">
		<path d="M175.5,1065.8c-0.1-0.1-0.1-0.1-0.1-0.2v-19.8c0-0.1,0-0.2,0.1-0.2c0.1,0,0.1-0.1,0.2-0.1h1.1c0.1,0,0.2,0,0.2,0.1
			c0,0.1,0.1,0.1,0.1,0.2v19.8c0,0.1,0,0.1-0.1,0.2c-0.1,0.1-0.1,0.1-0.2,0.1h-1.1C175.6,1065.9,175.6,1065.8,175.5,1065.8z"/>
	</g>
	<g class="st1">
		<path d="M219,1047c-0.1-0.1-0.1-0.1-0.1-0.2v-1c0-0.1,0-0.2,0.1-0.2c0.1,0,0.1-0.1,0.2-0.1H233c0.1,0,0.2,0,0.2,0.1
			c0,0.1,0.1,0.1,0.1,0.2v1c0,0.1,0,0.1-0.1,0.2s-0.1,0.1-0.2,0.1h-13.8C219.1,1047.1,219.1,1047,219,1047z M225.3,1065.8
			c-0.1-0.1-0.1-0.1-0.1-0.2v-16.7c0-0.1,0-0.2,0.1-0.2c0.1,0,0.1-0.1,0.2-0.1h1.1c0.1,0,0.2,0,0.2,0.1c0,0.1,0.1,0.1,0.1,0.2v16.7
			c0,0.1,0,0.1-0.1,0.2c-0.1,0.1-0.1,0.1-0.2,0.1h-1.1C225.5,1065.9,225.4,1065.8,225.3,1065.8z"/>
	</g>
	<g class="st1">
		<path d="M268.4,1065.8c-0.1-0.1-0.1-0.1-0.1-0.2v-19.8c0-0.1,0-0.2,0.1-0.2c0.1,0,0.1-0.1,0.2-0.1h1.1c0.1,0,0.2,0,0.2,0.1
			c0,0.1,0.1,0.1,0.1,0.2v19.8c0,0.1,0,0.1-0.1,0.2c-0.1,0.1-0.1,0.1-0.2,0.1h-1.1C268.5,1065.9,268.5,1065.8,268.4,1065.8z
			 M271.7,1065.8c-0.1-0.1-0.1-0.1-0.1-0.2v-1c0-0.1,0-0.2,0.1-0.2c0.1,0,0.1-0.1,0.2-0.1h8.4c0.1,0,0.2,0,0.2,0.1
			c0,0.1,0.1,0.1,0.1,0.2v1c0,0.1,0,0.1-0.1,0.2c-0.1,0.1-0.1,0.1-0.2,0.1h-8.4C271.8,1065.9,271.8,1065.8,271.7,1065.8z"/>
	</g>
	<g class="st1">
		<path d="M317.2,1065.8c-0.1-0.1-0.1-0.1-0.1-0.2v-19.8c0-0.1,0-0.2,0.1-0.2c0.1,0,0.1-0.1,0.2-0.1h1.1c0.1,0,0.2,0,0.2,0.1
			c0,0.1,0.1,0.1,0.1,0.2v19.8c0,0.1,0,0.1-0.1,0.2s-0.1,0.1-0.2,0.1h-1.1C317.4,1065.9,317.3,1065.8,317.2,1065.8z"/>
	</g>
	<g class="st1">
		<path d="M364.5,1065.3c-1.1-0.4-1.9-0.9-2.5-1.5c-0.1-0.1-0.1-0.1-0.1-0.2c0-0.1,0-0.2,0.1-0.2l0.7-0.8c0.1-0.1,0.3-0.1,0.4,0
			c0.6,0.5,1.3,0.9,2.1,1.3c0.8,0.4,1.7,0.6,2.6,0.7c0.2,0,0.3,0.1,0.3,0.3v1c0,0.1,0,0.2-0.1,0.2c-0.1,0-0.1,0.1-0.2,0
			C366.6,1066,365.5,1065.8,364.5,1065.3z M369.9,1066.1c-0.1,0-0.1,0-0.2-0.1c-0.1-0.1-0.1-0.1-0.1-0.2v-1c0-0.2,0.1-0.3,0.3-0.3
			c1.3-0.1,2.3-0.6,3.1-1.3c0.7-0.7,1.1-1.7,1.1-2.8c0-1.1-0.4-2-1.1-2.7c-0.7-0.7-2-1.1-3.8-1.3l-1-0.1c-2-0.3-3.4-0.8-4.4-1.8
			c-1-0.9-1.5-2.1-1.5-3.6c0-1,0.2-2,0.6-2.8s1-1.5,1.8-2c0.8-0.5,1.7-0.8,2.8-0.9h0.1c0.1,0,0.1,0,0.2,0.1c0,0.1,0.1,0.1,0.1,0.2v1
			c0,0.2-0.1,0.3-0.3,0.3c-1.1,0.2-2,0.6-2.6,1.3c-0.6,0.7-0.9,1.6-0.9,2.6c0,1.1,0.4,2,1.1,2.6c0.8,0.7,2,1.1,3.7,1.3l1,0.1
			c2,0.3,3.5,0.8,4.4,1.8c1,0.9,1.4,2.1,1.4,3.7c0,1.1-0.2,2-0.7,2.8c-0.4,0.8-1.1,1.5-2,2C372.3,1065.7,371.3,1066,369.9,1066.1
			L369.9,1066.1z M369.9,1046.8c-0.2,0-0.3-0.2-0.3-0.3v-1c0-0.1,0-0.2,0.1-0.2c0.1,0,0.1-0.1,0.2,0c0.9,0.1,1.8,0.3,2.6,0.5
			c0.8,0.3,1.5,0.6,2.1,1.1c0.2,0.1,0.2,0.3,0.1,0.4l-0.6,0.9c-0.1,0.1-0.3,0.2-0.4,0.1C372.5,1047.4,371.2,1047,369.9,1046.8z"/>
	</g>
	<g class="st1">
		<path d="M408.2,1065.8c0-0.1,0-0.1,0-0.2l6.2-17.1c0.1-0.1,0.1-0.2,0.2-0.2c0,0,0.1,0,0.1,0c0,0,0.1,0.1,0.1,0.1l0.6,1.6
			c0,0.1,0.1,0.1,0.1,0.2s0,0.1-0.1,0.2l-3,8.4h5.9c0.2,0,0.3,0.1,0.4,0.2l0.4,1l0,0.1c0,0.1,0,0.1-0.1,0.1c0,0-0.1,0.1-0.2,0.1
			h-6.9l-1.8,5.1c0,0.1-0.1,0.2-0.2,0.2c-0.1,0-0.1,0.1-0.2,0.1h-1.2C408.3,1065.9,408.2,1065.8,408.2,1065.8z M422.4,1065.6
			l-7-19.8l0-0.1c0-0.1,0-0.1,0.1-0.2c0,0,0.1-0.1,0.2-0.1h1.1c0.2,0,0.3,0.1,0.4,0.3l7.1,19.8l0,0.1c0,0.1,0,0.1-0.1,0.1
			c0,0-0.1,0.1-0.2,0.1h-1.2C422.6,1065.9,422.5,1065.8,422.4,1065.6z"/>
	</g>
	<g class="st1">
		<path d="M459,1065.3c-1.1-0.4-1.9-0.9-2.5-1.5c-0.1-0.1-0.1-0.1-0.1-0.2c0-0.1,0-0.2,0.1-0.2l0.7-0.8c0.1-0.1,0.3-0.1,0.4,0
			c0.6,0.5,1.3,0.9,2.1,1.3c0.8,0.4,1.7,0.6,2.6,0.7c0.2,0,0.3,0.1,0.3,0.3v1c0,0.1,0,0.2-0.1,0.2c-0.1,0-0.1,0.1-0.2,0
			C461.1,1066,460,1065.8,459,1065.3z M464.4,1066.1c-0.1,0-0.1,0-0.2-0.1c-0.1-0.1-0.1-0.1-0.1-0.2v-1c0-0.2,0.1-0.3,0.3-0.3
			c1.3-0.1,2.3-0.6,3.1-1.3c0.7-0.7,1.1-1.7,1.1-2.8c0-1.1-0.4-2-1.1-2.7c-0.7-0.7-2-1.1-3.8-1.3l-1-0.1c-2-0.3-3.4-0.8-4.4-1.8
			c-1-0.9-1.5-2.1-1.5-3.6c0-1,0.2-2,0.6-2.8s1-1.5,1.8-2c0.8-0.5,1.7-0.8,2.8-0.9h0.1c0.1,0,0.1,0,0.2,0.1c0,0.1,0.1,0.1,0.1,0.2v1
			c0,0.2-0.1,0.3-0.3,0.3c-1.1,0.2-2,0.6-2.6,1.3c-0.6,0.7-0.9,1.6-0.9,2.6c0,1.1,0.4,2,1.1,2.6c0.8,0.7,2,1.1,3.7,1.3l1,0.1
			c2,0.3,3.5,0.8,4.4,1.8c1,0.9,1.4,2.1,1.4,3.7c0,1.1-0.2,2-0.7,2.8c-0.4,0.8-1.1,1.5-2,2C466.8,1065.7,465.7,1066,464.4,1066.1
			L464.4,1066.1z M464.4,1046.8c-0.2,0-0.3-0.2-0.3-0.3v-1c0-0.1,0-0.2,0.1-0.2c0.1,0,0.1-0.1,0.2,0c0.9,0.1,1.8,0.3,2.6,0.5
			c0.8,0.3,1.5,0.6,2.1,1.1c0.2,0.1,0.2,0.3,0.1,0.4l-0.6,0.9c-0.1,0.1-0.3,0.2-0.4,0.1C467,1047.4,465.7,1047,464.4,1046.8z"/>
	</g>
	<g class="st1">
		<path d="M502.7,1065.8c0-0.1,0-0.1,0-0.2l6.2-17.1c0.1-0.1,0.1-0.2,0.2-0.2c0,0,0.1,0,0.1,0c0,0,0.1,0.1,0.1,0.1l0.6,1.6
			c0,0.1,0.1,0.1,0.1,0.2s0,0.1-0.1,0.2l-3,8.4h5.9c0.2,0,0.3,0.1,0.4,0.2l0.4,1l0,0.1c0,0.1,0,0.1-0.1,0.1c0,0-0.1,0.1-0.2,0.1
			h-6.9l-1.8,5.1c0,0.1-0.1,0.2-0.2,0.2c-0.1,0-0.1,0.1-0.2,0.1h-1.2C502.8,1065.9,502.7,1065.8,502.7,1065.8z M516.9,1065.6
			l-7-19.8l0-0.1c0-0.1,0-0.1,0.1-0.2c0,0,0.1-0.1,0.2-0.1h1.1c0.2,0,0.3,0.1,0.4,0.3l7.1,19.8l0,0.1c0,0.1,0,0.1-0.1,0.1
			c0,0-0.1,0.1-0.2,0.1h-1.2C517.1,1065.9,517,1065.8,516.9,1065.6z"/>
	</g>
	<g class="st1">
		<path d="M551.9,1065.8c-0.1-0.1-0.1-0.1-0.1-0.2v-15.5c0-0.1,0-0.1,0-0.2c0,0,0.1-0.1,0.1-0.1c0.1,0,0.2,0.1,0.2,0.2l1.2,2.6
			c0.1,0.1,0.1,0.3,0.1,0.4v12.5c0,0.1,0,0.1-0.1,0.2c-0.1,0.1-0.1,0.1-0.2,0.1h-1C552,1065.9,551.9,1065.8,551.9,1065.8z
			 M559.7,1062.8c-0.1,0-0.1-0.1-0.2-0.3l-7.6-16.7c0,0,0-0.1,0-0.2c0-0.1,0.1-0.2,0.2-0.2h1.1c0.2,0,0.3,0.1,0.4,0.3l7.4,16.5
			c0,0,0,0.1,0,0.2c0,0,0,0.1,0,0.1c0,0.1,0,0.1-0.1,0.1l0,0c-0.1,0.1-0.2,0.2-0.3,0.2H560C559.8,1062.8,559.7,1062.8,559.7,1062.8z
			 M567.2,1065.8c-0.1-0.1-0.1-0.1-0.1-0.2v-16.1H567l-4.9,10.8c0,0.1-0.1,0.2-0.2,0.2c-0.1,0-0.2-0.1-0.2-0.2l-0.5-1.2
			c0-0.1-0.1-0.1-0.1-0.2s0-0.2,0.1-0.2l5.7-12.8c0.1-0.2,0.2-0.3,0.5-0.3h1.1c0.1,0,0.2,0,0.2,0.1c0,0.1,0.1,0.1,0.1,0.2v19.8
			c0,0.1,0,0.1-0.1,0.2s-0.1,0.1-0.2,0.1h-1C567.4,1065.9,567.3,1065.8,567.2,1065.8z"/>
	</g>
	<g class="st1">
		<path d="M599.1,1065.8c-0.1-0.1-0.1-0.1-0.1-0.2v-19.8c0-0.1,0-0.2,0.1-0.2c0.1,0,0.1-0.1,0.2-0.1h1.1c0.1,0,0.2,0,0.2,0.1
			c0,0.1,0.1,0.1,0.1,0.2v19.8c0,0.1,0,0.1-0.1,0.2s-0.1,0.1-0.2,0.1h-1.1C599.2,1065.9,599.2,1065.8,599.1,1065.8z M602.4,1056.9
			c-0.1-0.1-0.1-0.1-0.1-0.2v-1c0-0.1,0-0.2,0.1-0.2c0.1,0,0.1-0.1,0.2-0.1h3.5c1.5,0,2.6-0.4,3.4-1.1c0.8-0.7,1.2-1.8,1.2-3.1
			c0-1.3-0.4-2.3-1.2-3.1s-1.9-1.1-3.4-1.1h-3.5c-0.1,0-0.2,0-0.2-0.1s-0.1-0.1-0.1-0.2v-1c0-0.1,0-0.2,0.1-0.2
			c0.1,0,0.1-0.1,0.2-0.1h3.5c1.3,0,2.4,0.2,3.3,0.7c0.9,0.5,1.7,1.1,2.2,2c0.5,0.9,0.8,1.9,0.8,3.1c0,1.2-0.3,2.2-0.8,3.1
			c-0.5,0.9-1.2,1.5-2.2,2c-1,0.5-2.1,0.7-3.3,0.7h-3.5C602.5,1057,602.5,1057,602.4,1056.9z"/>
	</g>
	<g class="st1">
		<path d="M646.4,1065.8c-0.1-0.1-0.1-0.1-0.1-0.2v-15.5c0-0.1,0-0.1,0-0.2c0,0,0.1-0.1,0.1-0.1c0.1,0,0.2,0.1,0.2,0.2l1.2,2.6
			c0.1,0.1,0.1,0.3,0.1,0.4v12.5c0,0.1,0,0.1-0.1,0.2c-0.1,0.1-0.1,0.1-0.2,0.1h-1C646.5,1065.9,646.4,1065.8,646.4,1065.8z
			 M654.1,1062.8c-0.1,0-0.1-0.1-0.2-0.3l-7.6-16.7c0,0,0-0.1,0-0.2c0-0.1,0.1-0.2,0.2-0.2h1.1c0.2,0,0.3,0.1,0.4,0.3l7.4,16.5
			c0,0,0,0.1,0,0.2c0,0,0,0.1,0,0.1c0,0.1,0,0.1-0.1,0.1l0,0c-0.1,0.1-0.2,0.2-0.3,0.2h-0.7C654.3,1062.8,654.2,1062.8,654.1,1062.8
			z M661.7,1065.8c-0.1-0.1-0.1-0.1-0.1-0.2v-16.1h-0.1l-4.9,10.8c0,0.1-0.1,0.2-0.2,0.2c-0.1,0-0.2-0.1-0.2-0.2l-0.5-1.2
			c0-0.1-0.1-0.1-0.1-0.2s0-0.2,0.1-0.2l5.7-12.8c0.1-0.2,0.2-0.3,0.5-0.3h1.1c0.1,0,0.2,0,0.2,0.1c0,0.1,0.1,0.1,0.1,0.2v19.8
			c0,0.1,0,0.1-0.1,0.2s-0.1,0.1-0.2,0.1h-1C661.8,1065.9,661.8,1065.8,661.7,1065.8z"/>
	</g>
	<g class="st1">
		<path d="M171.9,1118.2c0-0.1,0-0.1,0-0.2l6.2-17.1c0.1-0.1,0.1-0.2,0.2-0.2c0,0,0.1,0,0.1,0c0,0,0.1,0.1,0.1,0.1l0.6,1.6
			c0,0.1,0.1,0.1,0.1,0.2s0,0.1-0.1,0.2l-3,8.4h5.9c0.2,0,0.3,0.1,0.4,0.2l0.4,1l0,0.1c0,0.1,0,0.1-0.1,0.1c-0.1,0-0.1,0.1-0.2,0.1
			h-6.9l-1.8,5.1c0,0.1-0.1,0.2-0.2,0.2c-0.1,0-0.1,0.1-0.2,0.1h-1.2C172,1118.3,172,1118.3,171.9,1118.2z M186.2,1118.1l-7-19.8
			l0-0.1c0-0.1,0-0.1,0.1-0.2s0.1-0.1,0.2-0.1h1.1c0.2,0,0.3,0.1,0.4,0.3l7.1,19.8l0,0.1c0,0.1,0,0.1-0.1,0.1c0,0-0.1,0.1-0.2,0.1
			h-1.2C186.4,1118.3,186.3,1118.2,186.2,1118.1z"/>
	</g>
	<g class="st1">
		<path d="M222.8,1117.2c-0.9-0.8-1.6-1.8-2-3.1c-0.2-0.5-0.3-1.2-0.4-2.1c-0.1-0.9-0.1-2.2-0.1-3.9c0-1.7,0-3,0.1-3.9
			c0.1-0.9,0.2-1.6,0.4-2.1c0.4-1.3,1.1-2.4,2-3.1c0.9-0.8,2-1.2,3.3-1.4h0.1c0.1,0,0.1,0,0.2,0.1c0,0.1,0.1,0.1,0.1,0.2v1
			c0,0.2-0.1,0.3-0.3,0.3c-0.9,0.1-1.7,0.5-2.3,1c-0.6,0.6-1.1,1.3-1.4,2.3c-0.1,0.4-0.3,1.1-0.3,1.9c-0.1,0.8-0.1,2-0.1,3.6
			c0,1.6,0,2.8,0.1,3.6c0.1,0.8,0.2,1.4,0.3,1.9c0.3,1,0.8,1.7,1.4,2.3c0.6,0.6,1.4,0.9,2.3,1c0.2,0,0.3,0.1,0.3,0.3v1
			c0,0.1,0,0.2-0.1,0.2s-0.1,0.1-0.2,0C224.7,1118.4,223.7,1117.9,222.8,1117.2z M232.1,1102.3c-0.1,0-0.2-0.1-0.3-0.2
			c-0.9-1.6-2.1-2.5-3.6-2.8c-0.2,0-0.3-0.1-0.3-0.3v-1c0-0.1,0-0.2,0.1-0.2s0.1-0.1,0.2-0.1c1.1,0.2,2.1,0.6,3,1.2
			c0.9,0.6,1.5,1.5,2,2.5c0,0,0,0.1,0,0.2c0,0.1,0,0.1-0.1,0.2l-1,0.5C232.2,1102.3,232.2,1102.3,232.1,1102.3z M228.2,1118.6
			c-0.1,0-0.1,0-0.2-0.1c-0.1-0.1-0.1-0.1-0.1-0.2v-1c0-0.2,0.1-0.3,0.3-0.3c1.6-0.3,2.8-1.2,3.6-2.8c0-0.1,0.1-0.1,0.2-0.2
			c0.1,0,0.1,0,0.2,0l1,0.5c0.1,0.1,0.2,0.2,0.1,0.4c-0.5,1.1-1.2,1.9-2,2.5C230.4,1118,229.4,1118.4,228.2,1118.6L228.2,1118.6z"/>
	</g>
	<g class="st1">
		<path d="M277.7,1117.7c0.1,0.1,0.1,0.1,0.1,0.2c0,0.1-0.1,0.1-0.2,0.2c-0.9,0.3-1.9,0.5-3,0.5c-1.7,0-3.1-0.4-4.2-1.2
			c-1.1-0.8-1.9-1.9-2.4-3.4c-0.2-0.6-0.3-1.3-0.4-2.1c-0.1-0.9-0.1-2.1-0.1-3.8c0-1.7,0-2.9,0.1-3.8c0.1-0.9,0.2-1.6,0.4-2.1
			c0.4-1.3,1.1-2.4,2-3.1s2.1-1.2,3.4-1.4h0.1c0.1,0,0.1,0,0.2,0.1c0,0.1,0.1,0.1,0.1,0.2v1c0,0.2-0.1,0.3-0.3,0.3
			c-1.9,0.3-3.2,1.5-3.9,3.4c-0.2,0.5-0.3,1.1-0.4,1.9c-0.1,0.8-0.1,2-0.1,3.5c0,1.5,0,2.7,0.1,3.5c0.1,0.8,0.2,1.5,0.4,1.9
			c0.8,2.3,2.4,3.5,4.9,3.5c0.7,0,1.2-0.1,1.6-0.2c0.2,0,0.3-0.1,0.3-0.1c0.2,0,0.3,0,0.3,0.1L277.7,1117.7z M282.4,1118.6l-0.7,0.7
			c-0.1,0.1-0.1,0.1-0.2,0.1c-0.1,0-0.2,0-0.2-0.1l-5.6-5.9c-0.1-0.1-0.1-0.3,0-0.4l0.7-0.7c0.2-0.1,0.3-0.1,0.4,0l2.3,2.5
			c0.1-0.2,0.2-0.4,0.3-0.6c0.1-0.2,0.2-0.5,0.3-0.8c0.3-1.1,0.4-2.8,0.4-5.2c0-1.5,0-2.7-0.1-3.5c-0.1-0.8-0.2-1.5-0.4-2
			c-0.7-1.9-2-3.1-3.9-3.4c-0.2,0-0.3-0.1-0.3-0.3v-1c0-0.1,0-0.2,0.1-0.2c0.1,0,0.1-0.1,0.2,0c1.4,0.2,2.5,0.6,3.4,1.4
			c0.9,0.8,1.6,1.8,2.1,3.1c0.2,0.6,0.3,1.3,0.4,2.2c0.1,0.9,0.1,2.1,0.1,3.8c0,1.6,0,2.9-0.1,3.8s-0.2,1.6-0.4,2.2
			c-0.1,0.4-0.3,0.7-0.4,1c-0.1,0.3-0.3,0.6-0.5,0.9l2.1,2.2C282.5,1118.3,282.5,1118.5,282.4,1118.6z"/>
	</g>
	<g class="st1">
		<path d="M316.9,1116.4c-1-1.2-1.5-3-1.5-5.2v-13.1c0-0.1,0-0.2,0.1-0.2c0.1,0,0.1-0.1,0.2-0.1h1.1c0.1,0,0.2,0,0.2,0.1
			c0,0.1,0.1,0.1,0.1,0.2v13.1c0,1.7,0.4,3,1.1,3.9c0.7,1,1.7,1.5,3.1,1.8c0.2,0,0.3,0.1,0.3,0.3v1c0,0.1,0,0.2-0.1,0.2
			c-0.1,0-0.1,0.1-0.2,0C319.3,1118.4,317.9,1117.7,316.9,1116.4z M323.3,1118.6c-0.1,0-0.1,0-0.2-0.1c0-0.1-0.1-0.1-0.1-0.2v-1
			c0-0.2,0.1-0.3,0.3-0.3c1.3-0.2,2.4-0.8,3.1-1.7s1.1-2.3,1.1-4v-13.1c0-0.1,0-0.2,0.1-0.2c0.1,0,0.1-0.1,0.2-0.1h1.1
			c0.1,0,0.2,0,0.2,0.1c0,0.1,0.1,0.1,0.1,0.2v13.1c0,2.2-0.5,3.9-1.5,5.1C326.7,1117.6,325.2,1118.4,323.3,1118.6L323.3,1118.6z"/>
	</g>
	<g class="st1">
		<path d="M360.9,1118.2c0-0.1,0-0.1,0-0.2l6.2-17.1c0.1-0.1,0.1-0.2,0.2-0.2c0,0,0.1,0,0.1,0c0,0,0.1,0.1,0.1,0.1l0.6,1.6
			c0,0.1,0.1,0.1,0.1,0.2s0,0.1-0.1,0.2l-3,8.4h5.9c0.2,0,0.3,0.1,0.4,0.2l0.4,1l0,0.1c0,0.1,0,0.1-0.1,0.1c0,0-0.1,0.1-0.2,0.1
			h-6.9l-1.8,5.1c0,0.1-0.1,0.2-0.2,0.2c-0.1,0-0.1,0.1-0.2,0.1h-1.2C361,1118.3,361,1118.3,360.9,1118.2z M375.2,1118.1l-7-19.8
			l0-0.1c0-0.1,0-0.1,0.1-0.2c0,0,0.1-0.1,0.2-0.1h1.1c0.2,0,0.3,0.1,0.4,0.3l7.1,19.8l0,0.1c0,0.1,0,0.1-0.1,0.1
			c0,0-0.1,0.1-0.2,0.1h-1.2C375.4,1118.3,375.3,1118.2,375.2,1118.1z"/>
	</g>
	<g class="st1">
		<path d="M410.1,1118.2c-0.1-0.1-0.1-0.1-0.1-0.2v-19.8c0-0.1,0-0.2,0.1-0.2c0.1,0,0.1-0.1,0.2-0.1h1.1c0.1,0,0.2,0,0.2,0.1
			c0,0.1,0.1,0.1,0.1,0.2v19.8c0,0.1,0,0.1-0.1,0.2s-0.1,0.1-0.2,0.1h-1.1C410.3,1118.3,410.2,1118.3,410.1,1118.2z M413.4,1109.1
			c-0.1-0.1-0.1-0.1-0.1-0.2v-1c0-0.1,0-0.2,0.1-0.2c0.1,0,0.1-0.1,0.2-0.1h3.5c1.5,0,2.6-0.3,3.4-1s1.2-1.7,1.2-3s-0.4-2.3-1.2-3
			s-1.9-1.1-3.4-1.1h-3.5c-0.1,0-0.2,0-0.2-0.1s-0.1-0.1-0.1-0.2v-1c0-0.1,0-0.2,0.1-0.2c0.1,0,0.1-0.1,0.2-0.1h3.5
			c1.3,0,2.4,0.2,3.3,0.7c0.9,0.5,1.6,1.1,2.1,2s0.8,1.9,0.8,3c0,1.1-0.2,2.1-0.7,2.9c-0.5,0.9-1.2,1.5-2.1,2
			c-1,0.5-2.1,0.7-3.5,0.7h-3.4C413.6,1109.2,413.5,1109.1,413.4,1109.1z M421.9,1118.3c0,0-0.1-0.1-0.1-0.2l-3.4-7.1
			c-0.1-0.1-0.1-0.2,0-0.3c0,0,0.1-0.1,0.2-0.1c0.1,0,0.1,0,0.2,0c0.4,0,0.7-0.1,0.9-0.2c0,0,0.1,0,0.1,0c0.1,0,0.2,0.1,0.2,0.2
			l3.7,7.4c0,0,0,0.1,0,0.1c0,0.1-0.1,0.2-0.2,0.2h-1.3C422,1118.3,422,1118.3,421.9,1118.3z"/>
	</g>
	<g class="st1">
		<path d="M455.2,1099.4c-0.1-0.1-0.1-0.1-0.1-0.2v-1c0-0.1,0-0.2,0.1-0.2c0.1,0,0.1-0.1,0.2-0.1h13.8c0.1,0,0.2,0,0.2,0.1
			c0,0.1,0.1,0.1,0.1,0.2v1c0,0.1,0,0.1-0.1,0.2c-0.1,0.1-0.1,0.1-0.2,0.1h-13.8C455.4,1099.5,455.3,1099.5,455.2,1099.4z
			 M461.6,1118.2c-0.1-0.1-0.1-0.1-0.1-0.2v-16.7c0-0.1,0-0.2,0.1-0.2c0.1,0,0.1-0.1,0.2-0.1h1.1c0.1,0,0.2,0,0.2,0.1
			c0,0.1,0.1,0.1,0.1,0.2v16.7c0,0.1,0,0.1-0.1,0.2s-0.1,0.1-0.2,0.1h-1.1C461.7,1118.3,461.6,1118.3,461.6,1118.2z"/>
	</g>
	<g class="st1">
		<path d="M504.6,1118.2c-0.1-0.1-0.1-0.1-0.1-0.2v-19.8c0-0.1,0-0.2,0.1-0.2c0.1,0,0.1-0.1,0.2-0.1h1.1c0.1,0,0.2,0,0.2,0.1
			c0,0.1,0.1,0.1,0.1,0.2v19.8c0,0.1,0,0.1-0.1,0.2s-0.1,0.1-0.2,0.1h-1.1C504.8,1118.3,504.7,1118.3,504.6,1118.2z M507.9,1099.4
			c-0.1-0.1-0.1-0.1-0.1-0.2v-1c0-0.1,0-0.2,0.1-0.2c0.1,0,0.1-0.1,0.2-0.1h8.4c0.1,0,0.2,0,0.2,0.1c0,0.1,0.1,0.1,0.1,0.2v1
			c0,0.1,0,0.1-0.1,0.2s-0.1,0.1-0.2,0.1h-8.4C508.1,1099.5,508,1099.5,507.9,1099.4z M507.9,1108.7c-0.1-0.1-0.1-0.1-0.1-0.2v-1
			c0-0.1,0-0.2,0.1-0.2c0.1,0,0.1-0.1,0.2-0.1h7c0.1,0,0.2,0,0.2,0.1c0,0.1,0.1,0.1,0.1,0.2v1c0,0.1,0,0.1-0.1,0.2
			c-0.1,0.1-0.1,0.1-0.2,0.1h-7C508.1,1108.8,508,1108.7,507.9,1108.7z M507.9,1118.2c-0.1-0.1-0.1-0.1-0.1-0.2v-1
			c0-0.1,0-0.2,0.1-0.2c0.1,0,0.1-0.1,0.2-0.1h8.4c0.1,0,0.2,0,0.2,0.1c0,0.1,0.1,0.1,0.1,0.2v1c0,0.1,0,0.1-0.1,0.2
			s-0.1,0.1-0.2,0.1h-8.4C508.1,1118.3,508,1118.3,507.9,1118.2z"/>
	</g>
	<g class="st1">
		<path d="M551.9,1118.2c-0.1-0.1-0.1-0.1-0.1-0.2v-19.8c0-0.1,0-0.2,0.1-0.2c0.1,0,0.1-0.1,0.2-0.1h1.1c0.1,0,0.2,0,0.2,0.1
			c0,0.1,0.1,0.1,0.1,0.2v19.8c0,0.1,0,0.1-0.1,0.2s-0.1,0.1-0.2,0.1h-1.1C552,1118.3,551.9,1118.3,551.9,1118.2z M555.2,1109.1
			c-0.1-0.1-0.1-0.1-0.1-0.2v-1c0-0.1,0-0.2,0.1-0.2c0.1,0,0.1-0.1,0.2-0.1h3.5c1.5,0,2.6-0.3,3.4-1s1.2-1.7,1.2-3s-0.4-2.3-1.2-3
			s-1.9-1.1-3.4-1.1h-3.5c-0.1,0-0.2,0-0.2-0.1s-0.1-0.1-0.1-0.2v-1c0-0.1,0-0.2,0.1-0.2c0.1,0,0.1-0.1,0.2-0.1h3.5
			c1.3,0,2.4,0.2,3.3,0.7c0.9,0.5,1.6,1.1,2.1,2s0.8,1.9,0.8,3c0,1.1-0.2,2.1-0.7,2.9c-0.5,0.9-1.2,1.5-2.1,2
			c-1,0.5-2.1,0.7-3.5,0.7h-3.4C555.3,1109.2,555.2,1109.1,555.2,1109.1z M563.6,1118.3c0,0-0.1-0.1-0.1-0.2l-3.4-7.1
			c-0.1-0.1-0.1-0.2,0-0.3c0,0,0.1-0.1,0.2-0.1c0.1,0,0.1,0,0.2,0c0.4,0,0.7-0.1,0.9-0.2c0,0,0.1,0,0.1,0c0.1,0,0.2,0.1,0.2,0.2
			l3.7,7.4c0,0,0,0.1,0,0.1c0,0.1-0.1,0.2-0.2,0.2h-1.3C563.8,1118.3,563.7,1118.3,563.6,1118.3z"/>
	</g>
	<g class="st1">
		<path d="M599.1,1118.2c-0.1-0.1-0.1-0.1-0.1-0.2v-19.8c0-0.1,0-0.2,0.1-0.2c0.1,0,0.1-0.1,0.2-0.1h1.1c0.1,0,0.2,0,0.2,0.1
			c0,0.1,0.1,0.1,0.1,0.2v19.8c0,0.1,0,0.1-0.1,0.2s-0.1,0.1-0.2,0.1h-1.1C599.2,1118.3,599.2,1118.3,599.1,1118.2z M602.4,1118.2
			c-0.1-0.1-0.1-0.1-0.1-0.2v-1c0-0.1,0-0.2,0.1-0.2c0.1,0,0.1-0.1,0.2-0.1h2.9c1.4,0,2.5-0.2,3.3-0.7c0.9-0.5,1.5-1.3,1.8-2.3
			c0.2-0.5,0.3-1.2,0.4-2c0.1-0.8,0.1-2,0.1-3.6c0-1.6,0-2.8-0.1-3.6c-0.1-0.8-0.2-1.4-0.4-2c-0.4-1.1-1-1.8-1.8-2.3
			c-0.8-0.5-2-0.7-3.3-0.7h-2.9c-0.1,0-0.1,0-0.2-0.1c-0.1-0.1-0.1-0.1-0.1-0.2v-1c0-0.1,0-0.2,0.1-0.2c0.1,0,0.1-0.1,0.2-0.1h3.1
			c3.4,0,5.6,1.4,6.5,4.1c0.2,0.6,0.3,1.3,0.4,2.2c0.1,0.8,0.1,2.1,0.1,3.9c0,1.8,0,3.1-0.1,3.9c-0.1,0.8-0.2,1.5-0.4,2.2
			c-0.9,2.8-3.1,4.1-6.5,4.1h-3.1C602.5,1118.3,602.4,1118.3,602.4,1118.2z"/>
	</g>
	<g class="st1">
		<path d="M648,1117.2c-0.9-0.8-1.6-1.8-2-3.1c-0.2-0.5-0.3-1.2-0.4-2.1c-0.1-0.9-0.1-2.2-0.1-3.9c0-1.7,0-3,0.1-3.9
			c0.1-0.9,0.2-1.6,0.4-2.1c0.4-1.3,1.1-2.4,2-3.1s2-1.2,3.3-1.4h0.1c0.1,0,0.1,0,0.2,0.1c0,0.1,0.1,0.1,0.1,0.2v1
			c0,0.2-0.1,0.3-0.3,0.3c-0.9,0.1-1.7,0.5-2.3,1c-0.6,0.6-1.1,1.3-1.4,2.3c-0.1,0.4-0.2,1.1-0.3,1.9c-0.1,0.8-0.1,2-0.1,3.6
			c0,1.6,0,2.8,0.1,3.6s0.2,1.4,0.3,1.9c0.3,1,0.8,1.7,1.4,2.3c0.6,0.6,1.4,0.9,2.3,1c0.2,0,0.3,0.1,0.3,0.3v1c0,0.1,0,0.2-0.1,0.2
			s-0.1,0.1-0.2,0C649.9,1118.4,648.9,1117.9,648,1117.2z M657.3,1102.3c-0.1,0-0.2-0.1-0.3-0.2c-0.9-1.6-2.1-2.5-3.6-2.8
			c-0.2,0-0.3-0.1-0.3-0.3v-1c0-0.1,0-0.2,0.1-0.2c0.1-0.1,0.1-0.1,0.2-0.1c1.1,0.2,2.1,0.6,3,1.2c0.9,0.6,1.5,1.5,2,2.5
			c0,0,0,0.1,0,0.2c0,0.1,0,0.1-0.1,0.2l-1,0.5C657.4,1102.3,657.4,1102.3,657.3,1102.3z M653.4,1118.6c-0.1,0-0.1,0-0.2-0.1
			s-0.1-0.1-0.1-0.2v-1c0-0.2,0.1-0.3,0.3-0.3c1.6-0.3,2.8-1.2,3.6-2.8c0-0.1,0.1-0.1,0.2-0.2c0.1,0,0.1,0,0.2,0l1,0.5
			c0.1,0.1,0.2,0.2,0.1,0.4c-0.5,1.1-1.2,1.9-2,2.5C655.6,1118,654.6,1118.4,653.4,1118.6L653.4,1118.6z"/>
	</g>
	<g class="st1">
		<path d="M171.8,1151.9c-0.1-0.1-0.1-0.1-0.1-0.2v-1c0-0.1,0-0.2,0.1-0.2c0.1,0,0.1-0.1,0.2-0.1h13.8c0.1,0,0.2,0,0.2,0.1
			c0,0.1,0.1,0.1,0.1,0.2v1c0,0.1,0,0.1-0.1,0.2s-0.1,0.1-0.2,0.1H172C171.9,1151.9,171.8,1151.9,171.8,1151.9z M178.1,1170.7
			c-0.1-0.1-0.1-0.1-0.1-0.2v-16.7c0-0.1,0-0.2,0.1-0.2c0.1,0,0.1-0.1,0.2-0.1h1.1c0.1,0,0.2,0,0.2,0.1c0,0.1,0.1,0.1,0.1,0.2v16.7
			c0,0.1,0,0.1-0.1,0.2c-0.1,0.1-0.1,0.1-0.2,0.1h-1.1C178.2,1170.8,178.1,1170.7,178.1,1170.7z"/>
	</g>
	<g class="st1">
		<path d="M224.2,1170.7c-0.1,0-0.1-0.1-0.1-0.2l-4.9-19.8l0-0.1c0-0.1,0-0.1,0.1-0.1s0.1-0.1,0.2-0.1h1.1c0.1,0,0.2,0,0.3,0.1
			c0.1,0,0.1,0.1,0.1,0.2l4.7,19.6c0,0.1,0,0.1,0,0.2c0,0.2-0.1,0.3-0.3,0.3h-1C224.3,1170.8,224.2,1170.7,224.2,1170.7z
			 M235.5,1170.7c-0.1,0-0.1-0.1-0.1-0.2l-4.8-16.8h-0.1l-3.9,13.6c0,0.1,0,0.1-0.1,0.1c0,0-0.1,0.1-0.1,0.1c-0.1,0-0.1-0.1-0.2-0.2
			l-0.5-2.1c0-0.1,0-0.2,0-0.4l3.9-14.1c0-0.1,0.1-0.2,0.1-0.2c0,0,0.1-0.1,0.2-0.1h0.9c0.1,0,0.2,0,0.2,0.1c0,0.1,0.1,0.1,0.1,0.2
			l5.5,19.6l0,0.1c0,0.2-0.1,0.3-0.3,0.3h-1C235.6,1170.8,235.5,1170.7,235.5,1170.7z M236.8,1165.1c0-0.2,0-0.3,0-0.4l3.3-14.1
			c0-0.1,0.1-0.2,0.1-0.2c0.1,0,0.1-0.1,0.3-0.1h1.1c0.1,0,0.2,0,0.2,0.1c0,0.1,0,0.1,0,0.2l-4,16.5c0,0.1,0,0.1-0.1,0.1
			c0,0-0.1,0.1-0.1,0.1c-0.1,0-0.1-0.1-0.2-0.2L236.8,1165.1z"/>
	</g>
	<g class="st1">
		<path d="M268.4,1170.7c-0.1-0.1-0.1-0.1-0.1-0.2v-19.8c0-0.1,0-0.2,0.1-0.2c0.1,0,0.1-0.1,0.2-0.1h1.1c0.1,0,0.2,0,0.2,0.1
			c0,0.1,0.1,0.1,0.1,0.2v19.8c0,0.1,0,0.1-0.1,0.2c-0.1,0.1-0.1,0.1-0.2,0.1h-1.1C268.5,1170.8,268.5,1170.7,268.4,1170.7z
			 M271.7,1151.9c-0.1-0.1-0.1-0.1-0.1-0.2v-1c0-0.1,0-0.2,0.1-0.2c0.1,0,0.1-0.1,0.2-0.1h8.4c0.1,0,0.2,0,0.2,0.1
			c0,0.1,0.1,0.1,0.1,0.2v1c0,0.1,0,0.1-0.1,0.2c-0.1,0.1-0.1,0.1-0.2,0.1h-8.4C271.8,1151.9,271.8,1151.9,271.7,1151.9z
			 M271.7,1161.1c-0.1-0.1-0.1-0.1-0.1-0.2v-1c0-0.1,0-0.2,0.1-0.2c0.1,0,0.1-0.1,0.2-0.1h7c0.1,0,0.2,0,0.2,0.1
			c0,0.1,0.1,0.1,0.1,0.2v1c0,0.1,0,0.1-0.1,0.2c-0.1,0.1-0.1,0.1-0.2,0.1h-7C271.8,1161.2,271.8,1161.2,271.7,1161.1z
			 M271.7,1170.7c-0.1-0.1-0.1-0.1-0.1-0.2v-1c0-0.1,0-0.2,0.1-0.2c0.1,0,0.1-0.1,0.2-0.1h8.4c0.1,0,0.2,0,0.2,0.1
			c0,0.1,0.1,0.1,0.1,0.2v1c0,0.1,0,0.1-0.1,0.2c-0.1,0.1-0.1,0.1-0.2,0.1h-8.4C271.8,1170.8,271.8,1170.7,271.7,1170.7z"/>
	</g>
	<g class="st1">
		<path d="M327.8,1170.7c-0.1,0-0.2-0.1-0.2-0.2l-11.9-19.4c-0.1-0.1-0.1-0.2-0.1-0.4c0-0.2,0.1-0.3,0.3-0.3h1c0.1,0,0.2,0,0.3,0.1
			c0.1,0,0.1,0.1,0.2,0.2l12,19.5c0,0.1,0.1,0.1,0.1,0.2c0,0.1,0,0.1,0,0.2c0,0.1-0.1,0.2-0.3,0.2h-1
			C328,1170.8,327.9,1170.7,327.8,1170.7z M315.6,1170.7c-0.1-0.1-0.1-0.1-0.1-0.2v-16.2c0-0.2,0-0.2,0.1-0.2c0.1,0,0.2,0.1,0.2,0.1
			l1.2,1.9c0.1,0.1,0.1,0.2,0.1,0.4v14c0,0.1,0,0.1-0.1,0.2c-0.1,0.1-0.1,0.1-0.2,0.1h-1C315.8,1170.8,315.7,1170.7,315.6,1170.7z
			 M327.9,1165c-0.1-0.1-0.1-0.2-0.1-0.4v-14c0-0.1,0-0.2,0.1-0.2c0.1,0,0.1-0.1,0.2-0.1h1c0.1,0,0.2,0,0.2,0.1
			c0,0.1,0.1,0.1,0.1,0.2v16.1c0,0.2,0,0.2-0.2,0.2c-0.1,0-0.1,0-0.2-0.1L327.9,1165z"/>
	</g>
	<g class="st1">
		<path d="M360.7,1151.9c-0.1-0.1-0.1-0.1-0.1-0.2v-1c0-0.1,0-0.2,0.1-0.2c0.1,0,0.1-0.1,0.2-0.1h13.8c0.1,0,0.2,0,0.2,0.1
			c0,0.1,0.1,0.1,0.1,0.2v1c0,0.1,0,0.1-0.1,0.2c-0.1,0.1-0.1,0.1-0.2,0.1h-13.8C360.9,1151.9,360.8,1151.9,360.7,1151.9z
			 M367.1,1170.7c-0.1-0.1-0.1-0.1-0.1-0.2v-16.7c0-0.1,0-0.2,0.1-0.2c0.1,0,0.1-0.1,0.2-0.1h1.1c0.1,0,0.2,0,0.2,0.1
			c0,0.1,0.1,0.1,0.1,0.2v16.7c0,0.1,0,0.1-0.1,0.2s-0.1,0.1-0.2,0.1h-1.1C367.2,1170.8,367.1,1170.7,367.1,1170.7z"/>
	</g>
	<g class="st1">
		<path d="M414.2,1170.7c-0.1-0.1-0.1-0.1-0.1-0.2v-8.1l-6.1-11.5c-0.1-0.1-0.1-0.2-0.1-0.3c0-0.1,0-0.1,0.1-0.2
			c0,0,0.1-0.1,0.2-0.1h1.1c0.1,0,0.2,0,0.3,0.1s0.1,0.1,0.2,0.2l5.9,11.1c0.1,0.1,0.1,0.3,0.1,0.4v8.3c0,0.1,0,0.1-0.1,0.2
			s-0.1,0.1-0.2,0.1h-1.1C414.3,1170.8,414.3,1170.7,414.2,1170.7z M415.9,1159.1c-0.1-0.1-0.1-0.3,0-0.4l4.2-8
			c0.1-0.1,0.1-0.2,0.2-0.2c0.1,0,0.2-0.1,0.3-0.1h1.1c0.1,0,0.2,0.1,0.3,0.2c0,0.1,0,0.2,0,0.2c0,0.1-0.1,0.1-0.1,0.1l-4.9,9.4
			c-0.1,0.1-0.1,0.2-0.2,0.2s-0.1-0.1-0.2-0.2L415.9,1159.1z"/>
	</g>
	<g class="st1">
		<path d="M457.4,1170.7c-0.1-0.1-0.1-0.1-0.1-0.2v-19.8c0-0.1,0-0.2,0.1-0.2c0.1,0,0.1-0.1,0.2-0.1h1.1c0.1,0,0.2,0,0.2,0.1
			c0,0.1,0.1,0.1,0.1,0.2v19.8c0,0.1,0,0.1-0.1,0.2s-0.1,0.1-0.2,0.1h-1.1C457.5,1170.8,457.4,1170.7,457.4,1170.7z M460.7,1151.9
			c-0.1-0.1-0.1-0.1-0.1-0.2v-1c0-0.1,0-0.2,0.1-0.2c0.1,0,0.1-0.1,0.2-0.1h8.4c0.1,0,0.2,0,0.2,0.1c0,0.1,0.1,0.1,0.1,0.2v1
			c0,0.1,0,0.1-0.1,0.2s-0.1,0.1-0.2,0.1h-8.4C460.8,1151.9,460.7,1151.9,460.7,1151.9z M460.7,1161.3c-0.1-0.1-0.1-0.1-0.1-0.2v-1
			c0-0.1,0-0.2,0.1-0.2c0.1,0,0.1-0.1,0.2-0.1h7c0.1,0,0.2,0,0.2,0.1c0,0.1,0.1,0.1,0.1,0.2v1c0,0.1,0,0.1-0.1,0.2
			c-0.1,0.1-0.1,0.1-0.2,0.1h-7C460.8,1161.4,460.7,1161.4,460.7,1161.3z"/>
	</g>
	<g class="st1">
		<path d="M506.2,1170.7c-0.1-0.1-0.1-0.1-0.1-0.2v-19.8c0-0.1,0-0.2,0.1-0.2c0.1,0,0.1-0.1,0.2-0.1h1.1c0.1,0,0.2,0,0.2,0.1
			c0,0.1,0.1,0.1,0.1,0.2v19.8c0,0.1,0,0.1-0.1,0.2s-0.1,0.1-0.2,0.1h-1.1C506.3,1170.8,506.3,1170.7,506.2,1170.7z"/>
	</g>
	<g class="st1">
		<path d="M556.5,1170.5l-6.8-19.7l-0.1-0.2c0-0.1,0-0.1,0.1-0.2c0,0,0.1-0.1,0.2-0.1h1.1c0.1,0,0.2,0,0.3,0.1
			c0.1,0,0.1,0.1,0.1,0.2l6.7,19.6c0,0.1,0.1,0.2,0.1,0.3c0,0.2-0.1,0.3-0.3,0.3h-1C556.7,1170.8,556.6,1170.7,556.5,1170.5z
			 M558.2,1166.2c0,0,0-0.1,0-0.2c0-0.1,0-0.2,0.1-0.3l5-15c0-0.1,0.1-0.2,0.2-0.2c0.1,0,0.1-0.1,0.3-0.1h1.1c0.1,0,0.2,0,0.2,0.1
			c0,0.1,0,0.2,0,0.3l-5.8,17c0,0.1,0,0.1-0.1,0.1c0,0-0.1,0.1-0.1,0.1c-0.1,0-0.1-0.1-0.2-0.2L558.2,1166.2z"/>
	</g>
	<g class="st1">
		<path d="M599.1,1170.7c-0.1-0.1-0.1-0.1-0.1-0.2v-19.8c0-0.1,0-0.2,0.1-0.2c0.1,0,0.1-0.1,0.2-0.1h1.1c0.1,0,0.2,0,0.2,0.1
			c0,0.1,0.1,0.1,0.1,0.2v19.8c0,0.1,0,0.1-0.1,0.2s-0.1,0.1-0.2,0.1h-1.1C599.2,1170.8,599.2,1170.7,599.1,1170.7z M602.4,1151.9
			c-0.1-0.1-0.1-0.1-0.1-0.2v-1c0-0.1,0-0.2,0.1-0.2c0.1,0,0.1-0.1,0.2-0.1h8.4c0.1,0,0.2,0,0.2,0.1c0,0.1,0.1,0.1,0.1,0.2v1
			c0,0.1,0,0.1-0.1,0.2s-0.1,0.1-0.2,0.1h-8.4C602.5,1151.9,602.5,1151.9,602.4,1151.9z M602.4,1161.1c-0.1-0.1-0.1-0.1-0.1-0.2v-1
			c0-0.1,0-0.2,0.1-0.2c0.1,0,0.1-0.1,0.2-0.1h7c0.1,0,0.2,0,0.2,0.1c0,0.1,0.1,0.1,0.1,0.2v1c0,0.1,0,0.1-0.1,0.2
			c-0.1,0.1-0.1,0.1-0.2,0.1h-7C602.5,1161.2,602.5,1161.2,602.4,1161.1z M602.4,1170.7c-0.1-0.1-0.1-0.1-0.1-0.2v-1
			c0-0.1,0-0.2,0.1-0.2c0.1,0,0.1-0.1,0.2-0.1h8.4c0.1,0,0.2,0,0.2,0.1c0,0.1,0.1,0.1,0.1,0.2v1c0,0.1,0,0.1-0.1,0.2
			s-0.1,0.1-0.2,0.1h-8.4C602.5,1170.8,602.5,1170.7,602.4,1170.7z"/>
	</g>
	<g class="st1">
		<path d="M644.4,1170.7c0-0.1,0-0.1,0-0.2l5.1-8.5c0.1-0.1,0.1-0.1,0.2-0.1s0.2,0.1,0.2,0.1l0.6,1.1c0,0.1,0.1,0.1,0.1,0.2
			s0,0.1-0.1,0.2l-4.3,7.1c-0.1,0.2-0.2,0.2-0.4,0.2h-1.3C644.5,1170.8,644.4,1170.7,644.4,1170.7z M657,1170.7
			c-0.1,0-0.1-0.1-0.1-0.2l-11.8-19.8l-0.1-0.2c0-0.1,0.1-0.2,0.2-0.2h1.3c0.1,0,0.2,0,0.2,0.1c0.1,0,0.1,0.1,0.2,0.2l4.6,7.8
			l7.2,12c0,0,0,0.1,0,0.1c0,0.1-0.1,0.2-0.2,0.2h-1.3C657.2,1170.8,657.1,1170.7,657,1170.7z M652.6,1157.2c0-0.1-0.1-0.1-0.1-0.2
			c0-0.1,0-0.1,0.1-0.2l3.7-6.2c0-0.1,0.1-0.1,0.2-0.2c0.1,0,0.1-0.1,0.2-0.1h1.3c0.1,0,0.1,0,0.2,0.1s0,0.1,0,0.2l-4.5,7.6
			c-0.1,0.1-0.1,0.1-0.2,0.1s-0.2,0-0.2-0.1L652.6,1157.2z"/>
	</g>
	<g class="st1">
		<path d="M173.9,1223.1c-0.1-0.1-0.1-0.1-0.1-0.2v-19.8c0-0.1,0-0.2,0.1-0.2c0.1,0,0.1-0.1,0.2-0.1h1.1c0.1,0,0.2,0,0.2,0.1
			c0,0.1,0.1,0.1,0.1,0.2v19.8c0,0.1,0,0.1-0.1,0.2c-0.1,0.1-0.1,0.1-0.2,0.1h-1.1C174,1223.2,174,1223.2,173.9,1223.1z
			 M177.1,1213.6c-0.1-0.1-0.1-0.1-0.1-0.2v-1c0-0.1,0-0.2,0.1-0.2c0.1,0,0.1-0.1,0.2-0.1h6.9c0.1,0,0.2,0,0.2,0.1
			c0,0.1,0.1,0.1,0.1,0.2v1c0,0.1,0,0.1-0.1,0.2s-0.1,0.1-0.2,0.1h-6.9C177.2,1213.7,177.2,1213.6,177.1,1213.6z M186.1,1223.1
			c-0.1-0.1-0.1-0.1-0.1-0.2v-19.8c0-0.1,0-0.2,0.1-0.2c0.1,0,0.1-0.1,0.2-0.1h1.1c0.1,0,0.2,0,0.2,0.1c0,0.1,0.1,0.1,0.1,0.2v19.8
			c0,0.1,0,0.1-0.1,0.2c-0.1,0.1-0.1,0.1-0.2,0.1h-1.1C186.2,1223.2,186.1,1223.2,186.1,1223.1z"/>
	</g>
	<g class="st1">
		<path d="M219.2,1223.1c0-0.1,0-0.1,0-0.2l6.2-17.1c0.1-0.1,0.1-0.2,0.2-0.2c0,0,0.1,0,0.1,0c0,0,0.1,0.1,0.1,0.1l0.6,1.6
			c0,0.1,0.1,0.1,0.1,0.2s0,0.1-0.1,0.2l-3,8.4h5.9c0.2,0,0.3,0.1,0.4,0.2l0.4,1l0,0.1c0,0.1,0,0.1-0.1,0.1c-0.1,0-0.1,0.1-0.2,0.1
			h-6.9l-1.8,5.1c0,0.1-0.1,0.2-0.2,0.2c-0.1,0-0.1,0.1-0.2,0.1h-1.2C219.3,1223.2,219.2,1223.2,219.2,1223.1z M233.5,1223l-7-19.8
			l0-0.1c0-0.1,0-0.1,0.1-0.2s0.1-0.1,0.2-0.1h1.1c0.2,0,0.3,0.1,0.4,0.3l7.1,19.8l0,0.1c0,0.1,0,0.1-0.1,0.1c0,0-0.1,0.1-0.2,0.1
			h-1.2C233.6,1223.2,233.5,1223.1,233.5,1223z"/>
	</g>
	<g class="st1">
		<path d="M268.4,1223.1c-0.1-0.1-0.1-0.1-0.1-0.2v-19.8c0-0.1,0-0.2,0.1-0.2c0.1,0,0.1-0.1,0.2-0.1h1.1c0.1,0,0.2,0,0.2,0.1
			c0,0.1,0.1,0.1,0.1,0.2v19.8c0,0.1,0,0.1-0.1,0.2c-0.1,0.1-0.1,0.1-0.2,0.1h-1.1C268.5,1223.2,268.5,1223.2,268.4,1223.1z
			 M271.7,1223.1c-0.1-0.1-0.1-0.1-0.1-0.2v-1c0-0.1,0-0.2,0.1-0.2c0.1,0,0.1-0.1,0.2-0.1h8.4c0.1,0,0.2,0,0.2,0.1
			c0,0.1,0.1,0.1,0.1,0.2v1c0,0.1,0,0.1-0.1,0.2c-0.1,0.1-0.1,0.1-0.2,0.1h-8.4C271.8,1223.2,271.8,1223.2,271.7,1223.1z"/>
	</g>
	<g class="st1">
		<path d="M315.6,1223.1c-0.1-0.1-0.1-0.1-0.1-0.2v-19.8c0-0.1,0-0.2,0.1-0.2c0.1,0,0.1-0.1,0.2-0.1h1.1c0.1,0,0.2,0,0.2,0.1
			c0,0.1,0.1,0.1,0.1,0.2v19.8c0,0.1,0,0.1-0.1,0.2s-0.1,0.1-0.2,0.1h-1.1C315.8,1223.2,315.7,1223.2,315.6,1223.1z M318.9,1204.3
			c-0.1-0.1-0.1-0.1-0.1-0.2v-1c0-0.1,0-0.2,0.1-0.2c0.1,0,0.1-0.1,0.2-0.1h8.4c0.1,0,0.2,0,0.2,0.1c0,0.1,0.1,0.1,0.1,0.2v1
			c0,0.1,0,0.1-0.1,0.2s-0.1,0.1-0.2,0.1h-8.4C319.1,1204.4,319,1204.4,318.9,1204.3z M318.9,1213.8c-0.1-0.1-0.1-0.1-0.1-0.2v-1
			c0-0.1,0-0.2,0.1-0.2c0.1,0,0.1-0.1,0.2-0.1h7c0.1,0,0.2,0,0.2,0.1c0,0.1,0.1,0.1,0.1,0.2v1c0,0.1,0,0.1-0.1,0.2
			c-0.1,0.1-0.1,0.1-0.2,0.1h-7C319.1,1213.9,319,1213.8,318.9,1213.8z"/>
	</g>
	<g class="st1">
		<path d="M364.5,1222.6c-1.1-0.4-1.9-0.9-2.5-1.5c-0.1-0.1-0.1-0.1-0.1-0.2c0-0.1,0-0.2,0.1-0.2l0.7-0.8c0.1-0.1,0.3-0.1,0.4,0
			c0.6,0.5,1.3,0.9,2.1,1.3c0.8,0.4,1.7,0.6,2.6,0.7c0.2,0,0.3,0.1,0.3,0.3v1c0,0.1,0,0.2-0.1,0.2c-0.1,0-0.1,0.1-0.2,0
			C366.6,1223.3,365.5,1223.1,364.5,1222.6z M369.9,1223.4c-0.1,0-0.1,0-0.2-0.1c-0.1-0.1-0.1-0.1-0.1-0.2v-1c0-0.2,0.1-0.3,0.3-0.3
			c1.3-0.1,2.3-0.6,3.1-1.3c0.7-0.7,1.1-1.7,1.1-2.8c0-1.1-0.4-2-1.1-2.7c-0.7-0.7-2-1.1-3.8-1.3l-1-0.1c-2-0.3-3.4-0.8-4.4-1.8
			c-1-0.9-1.5-2.1-1.5-3.6c0-1,0.2-2,0.6-2.8s1-1.5,1.8-2c0.8-0.5,1.7-0.8,2.8-0.9h0.1c0.1,0,0.1,0,0.2,0.1c0,0.1,0.1,0.1,0.1,0.2v1
			c0,0.2-0.1,0.3-0.3,0.3c-1.1,0.2-2,0.6-2.6,1.3c-0.6,0.7-0.9,1.6-0.9,2.6c0,1.1,0.4,2,1.1,2.6c0.8,0.7,2,1.1,3.7,1.3l1,0.1
			c2,0.3,3.5,0.8,4.4,1.8c1,0.9,1.4,2.1,1.4,3.7c0,1.1-0.2,2-0.7,2.8c-0.4,0.8-1.1,1.5-2,2C372.3,1223,371.3,1223.3,369.9,1223.4
			L369.9,1223.4z M369.9,1204.1c-0.2,0-0.3-0.2-0.3-0.3v-1c0-0.1,0-0.2,0.1-0.2c0.1,0,0.1-0.1,0.2,0c0.9,0.1,1.8,0.3,2.6,0.5
			c0.8,0.3,1.5,0.6,2.1,1.1c0.2,0.1,0.2,0.3,0.1,0.4l-0.6,0.9c-0.1,0.1-0.3,0.2-0.4,0.1C372.5,1204.8,371.2,1204.3,369.9,1204.1z"/>
	</g>
	<g class="st1">
		<path d="M408,1204.3c-0.1-0.1-0.1-0.1-0.1-0.2v-1c0-0.1,0-0.2,0.1-0.2c0.1,0,0.1-0.1,0.2-0.1H422c0.1,0,0.2,0,0.2,0.1
			c0,0.1,0.1,0.1,0.1,0.2v1c0,0.1,0,0.1-0.1,0.2c-0.1,0.1-0.1,0.1-0.2,0.1h-13.8C408.1,1204.4,408,1204.4,408,1204.3z M414.3,1223.1
			c-0.1-0.1-0.1-0.1-0.1-0.2v-16.7c0-0.1,0-0.2,0.1-0.2c0.1,0,0.1-0.1,0.2-0.1h1.1c0.1,0,0.2,0,0.2,0.1c0,0.1,0.1,0.1,0.1,0.2v16.7
			c0,0.1,0,0.1-0.1,0.2s-0.1,0.1-0.2,0.1h-1.1C414.4,1223.2,414.4,1223.2,414.3,1223.1z"/>
	</g>
	<g class="st1">
		<path d="M457.4,1223.1c-0.1-0.1-0.1-0.1-0.1-0.2v-19.8c0-0.1,0-0.2,0.1-0.2c0.1,0,0.1-0.1,0.2-0.1h1.1c0.1,0,0.2,0,0.2,0.1
			c0,0.1,0.1,0.1,0.1,0.2v19.8c0,0.1,0,0.1-0.1,0.2s-0.1,0.1-0.2,0.1h-1.1C457.5,1223.2,457.4,1223.2,457.4,1223.1z M460.7,1204.3
			c-0.1-0.1-0.1-0.1-0.1-0.2v-1c0-0.1,0-0.2,0.1-0.2c0.1,0,0.1-0.1,0.2-0.1h8.4c0.1,0,0.2,0,0.2,0.1c0,0.1,0.1,0.1,0.1,0.2v1
			c0,0.1,0,0.1-0.1,0.2s-0.1,0.1-0.2,0.1h-8.4C460.8,1204.4,460.7,1204.4,460.7,1204.3z M460.7,1213.6c-0.1-0.1-0.1-0.1-0.1-0.2v-1
			c0-0.1,0-0.2,0.1-0.2c0.1,0,0.1-0.1,0.2-0.1h7c0.1,0,0.2,0,0.2,0.1c0,0.1,0.1,0.1,0.1,0.2v1c0,0.1,0,0.1-0.1,0.2
			c-0.1,0.1-0.1,0.1-0.2,0.1h-7C460.8,1213.7,460.7,1213.6,460.7,1213.6z M460.7,1223.1c-0.1-0.1-0.1-0.1-0.1-0.2v-1
			c0-0.1,0-0.2,0.1-0.2c0.1,0,0.1-0.1,0.2-0.1h8.4c0.1,0,0.2,0,0.2,0.1c0,0.1,0.1,0.1,0.1,0.2v1c0,0.1,0,0.1-0.1,0.2
			s-0.1,0.1-0.2,0.1h-8.4C460.8,1223.2,460.7,1223.2,460.7,1223.1z"/>
	</g>
	<g class="st1">
		<path d="M516.8,1223.1c-0.1,0-0.2-0.1-0.2-0.2l-11.9-19.4c-0.1-0.1-0.1-0.2-0.1-0.4c0-0.2,0.1-0.3,0.3-0.3h1c0.1,0,0.2,0,0.3,0.1
			c0.1,0,0.1,0.1,0.2,0.2l12,19.5c0,0.1,0.1,0.1,0.1,0.2c0,0.1,0,0.1,0,0.2c0,0.1-0.1,0.2-0.3,0.2h-1
			C517,1223.2,516.9,1223.2,516.8,1223.1z M504.6,1223.1c-0.1-0.1-0.1-0.1-0.1-0.2v-16.2c0-0.2,0-0.2,0.1-0.2c0.1,0,0.2,0.1,0.2,0.1
			l1.2,1.9c0.1,0.1,0.1,0.2,0.1,0.4v14c0,0.1,0,0.1-0.1,0.2c-0.1,0.1-0.1,0.1-0.2,0.1h-1C504.8,1223.2,504.7,1223.2,504.6,1223.1z
			 M516.9,1217.4c-0.1-0.1-0.1-0.2-0.1-0.4v-14c0-0.1,0-0.2,0.1-0.2c0.1,0,0.1-0.1,0.2-0.1h1c0.1,0,0.2,0,0.2,0.1
			c0,0.1,0.1,0.1,0.1,0.2v16.1c0,0.2,0,0.2-0.2,0.2c-0.1,0-0.1,0-0.2-0.1L516.9,1217.4z"/>
	</g>
	<g class="st1">
		<path d="M551.9,1223.1c-0.1-0.1-0.1-0.1-0.1-0.2v-19.8c0-0.1,0-0.2,0.1-0.2c0.1,0,0.1-0.1,0.2-0.1h1.1c0.1,0,0.2,0,0.2,0.1
			c0,0.1,0.1,0.1,0.1,0.2v19.8c0,0.1,0,0.1-0.1,0.2s-0.1,0.1-0.2,0.1h-1.1C552,1223.2,551.9,1223.2,551.9,1223.1z M555.2,1204.3
			c-0.1-0.1-0.1-0.1-0.1-0.2v-1c0-0.1,0-0.2,0.1-0.2c0.1,0,0.1-0.1,0.2-0.1h8.4c0.1,0,0.2,0,0.2,0.1c0,0.1,0.1,0.1,0.1,0.2v1
			c0,0.1,0,0.1-0.1,0.2s-0.1,0.1-0.2,0.1h-8.4C555.3,1204.4,555.2,1204.4,555.2,1204.3z M555.2,1213.8c-0.1-0.1-0.1-0.1-0.1-0.2v-1
			c0-0.1,0-0.2,0.1-0.2c0.1,0,0.1-0.1,0.2-0.1h7c0.1,0,0.2,0,0.2,0.1c0,0.1,0.1,0.1,0.1,0.2v1c0,0.1,0,0.1-0.1,0.2
			c-0.1,0.1-0.1,0.1-0.2,0.1h-7C555.3,1213.9,555.2,1213.8,555.2,1213.8z"/>
	</g>
	<g class="st1">
		<path d="M597,1204.3c-0.1-0.1-0.1-0.1-0.1-0.2v-1c0-0.1,0-0.2,0.1-0.2c0.1,0,0.1-0.1,0.2-0.1H611c0.1,0,0.2,0,0.2,0.1
			c0,0.1,0.1,0.1,0.1,0.2v1c0,0.1,0,0.1-0.1,0.2c-0.1,0.1-0.1,0.1-0.2,0.1h-13.8C597.1,1204.4,597,1204.4,597,1204.3z M603.3,1223.1
			c-0.1-0.1-0.1-0.1-0.1-0.2v-16.7c0-0.1,0-0.2,0.1-0.2c0.1,0,0.1-0.1,0.2-0.1h1.1c0.1,0,0.2,0,0.2,0.1c0,0.1,0.1,0.1,0.1,0.2v16.7
			c0,0.1,0,0.1-0.1,0.2s-0.1,0.1-0.2,0.1h-1.1C603.4,1223.2,603.3,1223.2,603.3,1223.1z"/>
	</g>
	<g class="st1">
		<path d="M648,1222.1c-0.9-0.8-1.6-1.8-2-3.1c-0.2-0.6-0.3-1.3-0.4-2.1c-0.1-0.9-0.1-2.1-0.1-3.8c0-1.7,0-2.9,0.1-3.8
			s0.2-1.6,0.4-2.1c0.4-1.3,1.1-2.4,2-3.1s2.1-1.2,3.4-1.4h0.1c0.1,0,0.1,0,0.2,0.1c0,0.1,0.1,0.1,0.1,0.2v1c0,0.2-0.1,0.3-0.3,0.3
			c-1.9,0.3-3.2,1.5-3.9,3.4c-0.2,0.5-0.3,1.1-0.4,1.9c-0.1,0.8-0.1,2-0.1,3.5c0,1.5,0,2.7,0.1,3.5s0.2,1.5,0.4,1.9
			c0.6,1.9,1.9,3.1,3.9,3.4c0.2,0,0.3,0.1,0.3,0.3v1c0,0.1,0,0.2-0.1,0.2s-0.1,0.1-0.2,0C650.1,1223.3,649,1222.8,648,1222.1z
			 M653.6,1223.4c-0.1,0-0.1,0-0.2-0.1c0-0.1-0.1-0.1-0.1-0.2v-1c0-0.2,0.1-0.3,0.3-0.3c1.9-0.3,3.2-1.4,3.9-3.4
			c0.2-0.5,0.3-1.1,0.4-2c0.1-0.8,0.1-2,0.1-3.5s0-2.7-0.1-3.5c-0.1-0.8-0.2-1.5-0.4-2c-0.7-1.9-2-3.1-3.9-3.4
			c-0.2,0-0.3-0.1-0.3-0.3v-1c0-0.1,0-0.2,0.1-0.2c0.1,0,0.1-0.1,0.2,0c1.4,0.2,2.5,0.6,3.4,1.4c0.9,0.8,1.6,1.8,2.1,3.1
			c0.2,0.6,0.3,1.3,0.4,2.2c0.1,0.9,0.2,2.1,0.2,3.8c0,1.6-0.1,2.9-0.2,3.8c-0.1,0.9-0.2,1.6-0.4,2.2c-0.4,1.3-1.1,2.4-2.1,3.1
			C656.2,1222.8,655.1,1223.3,653.6,1223.4L653.6,1223.4z"/>
	</g>
	<g class="st1">
		<path d="M173.9,1275.6c-0.1-0.1-0.1-0.1-0.1-0.2v-19.8c0-0.1,0-0.2,0.1-0.2c0.1,0,0.1-0.1,0.2-0.1h1.1c0.1,0,0.2,0,0.2,0.1
			c0,0.1,0.1,0.1,0.1,0.2v19.8c0,0.1,0,0.1-0.1,0.2c-0.1,0.1-0.1,0.1-0.2,0.1h-1.1C174,1275.6,174,1275.6,173.9,1275.6z
			 M177.2,1266.7c-0.1-0.1-0.1-0.1-0.1-0.2v-1c0-0.1,0-0.2,0.1-0.2c0.1,0,0.1-0.1,0.2-0.1h3.5c1.5,0,2.6-0.4,3.4-1.1
			c0.8-0.7,1.2-1.8,1.2-3.1c0-1.3-0.4-2.3-1.2-3.1c-0.8-0.7-1.9-1.1-3.4-1.1h-3.5c-0.1,0-0.1,0-0.2-0.1s-0.1-0.1-0.1-0.2v-1
			c0-0.1,0-0.2,0.1-0.2c0.1,0,0.1-0.1,0.2-0.1h3.5c1.3,0,2.4,0.2,3.3,0.7c0.9,0.5,1.7,1.1,2.2,2c0.5,0.9,0.8,1.9,0.8,3.1
			c0,1.2-0.3,2.2-0.8,3.1c-0.5,0.9-1.2,1.5-2.2,2c-1,0.5-2.1,0.7-3.3,0.7h-3.5C177.3,1266.8,177.3,1266.8,177.2,1266.7z"/>
	</g>
	<g class="st1">
		<path d="M219.2,1275.6c0-0.1,0-0.1,0-0.2l6.2-17.1c0.1-0.1,0.1-0.2,0.2-0.2c0,0,0.1,0,0.1,0c0,0,0.1,0.1,0.1,0.1l0.6,1.6
			c0,0.1,0.1,0.1,0.1,0.2s0,0.1-0.1,0.2l-3,8.4h5.9c0.2,0,0.3,0.1,0.4,0.2l0.4,1l0,0.1c0,0.1,0,0.1-0.1,0.1c-0.1,0-0.1,0.1-0.2,0.1
			h-6.9l-1.8,5.1c0,0.1-0.1,0.2-0.2,0.2c-0.1,0-0.1,0.1-0.2,0.1h-1.2C219.3,1275.6,219.2,1275.6,219.2,1275.6z M233.5,1275.4
			l-7-19.8l0-0.1c0-0.1,0-0.1,0.1-0.2s0.1-0.1,0.2-0.1h1.1c0.2,0,0.3,0.1,0.4,0.3l7.1,19.8l0,0.1c0,0.1,0,0.1-0.1,0.1
			c0,0-0.1,0.1-0.2,0.1h-1.2C233.6,1275.6,233.5,1275.6,233.5,1275.4z"/>
	</g>
	<g class="st1">
		<path d="M270,1275.1c-1-0.4-1.9-0.9-2.5-1.5c-0.1-0.1-0.1-0.1-0.1-0.2c0-0.1,0-0.2,0.1-0.2l0.7-0.8c0.1-0.1,0.3-0.1,0.4,0
			c0.6,0.5,1.3,0.9,2.1,1.3s1.7,0.6,2.6,0.7c0.2,0,0.3,0.1,0.3,0.3v1c0,0.1,0,0.2-0.1,0.2c-0.1,0-0.1,0.1-0.2,0
			C272.1,1275.8,271,1275.5,270,1275.1z M275.4,1275.9c-0.1,0-0.1,0-0.2-0.1c0-0.1-0.1-0.1-0.1-0.2v-1c0-0.2,0.1-0.3,0.3-0.3
			c1.3-0.1,2.4-0.6,3.1-1.3c0.7-0.7,1.1-1.7,1.1-2.8c0-1.1-0.4-2-1.1-2.7c-0.7-0.7-2-1.1-3.8-1.3l-1-0.1c-2-0.3-3.4-0.8-4.4-1.8
			c-1-0.9-1.5-2.1-1.5-3.6c0-1,0.2-2,0.6-2.8s1-1.5,1.8-2c0.8-0.5,1.7-0.8,2.8-0.9h0.1c0.1,0,0.1,0,0.2,0.1c0,0.1,0.1,0.1,0.1,0.2v1
			c0,0.2-0.1,0.3-0.3,0.3c-1.1,0.2-2,0.6-2.6,1.3c-0.6,0.7-0.9,1.6-0.9,2.6c0,1.1,0.4,2,1.1,2.6c0.8,0.7,2,1.1,3.7,1.3l1,0.1
			c2,0.3,3.5,0.8,4.4,1.8c1,0.9,1.4,2.1,1.4,3.7c0,1.1-0.2,2-0.7,2.8c-0.5,0.8-1.1,1.5-2,2C277.8,1275.4,276.8,1275.8,275.4,1275.9
			L275.4,1275.9z M275.4,1256.6c-0.2,0-0.3-0.2-0.3-0.3v-1c0-0.1,0-0.2,0.1-0.2c0.1,0,0.1-0.1,0.2,0c0.9,0.1,1.8,0.3,2.6,0.5
			c0.8,0.3,1.5,0.6,2.1,1.1c0.2,0.1,0.2,0.3,0.1,0.4l-0.6,0.9c-0.1,0.1-0.3,0.2-0.4,0.1C278,1257.2,276.7,1256.7,275.4,1256.6z"/>
	</g>
	<g class="st1">
		<path d="M313.5,1256.7c-0.1-0.1-0.1-0.1-0.1-0.2v-1c0-0.1,0-0.2,0.1-0.2c0.1,0,0.1-0.1,0.2-0.1h13.8c0.1,0,0.2,0,0.2,0.1
			c0,0.1,0.1,0.1,0.1,0.2v1c0,0.1,0,0.1-0.1,0.2c-0.1,0.1-0.1,0.1-0.2,0.1h-13.8C313.6,1256.8,313.5,1256.8,313.5,1256.7z
			 M319.8,1275.6c-0.1-0.1-0.1-0.1-0.1-0.2v-16.7c0-0.1,0-0.2,0.1-0.2c0.1,0,0.1-0.1,0.2-0.1h1.1c0.1,0,0.2,0,0.2,0.1
			c0,0.1,0.1,0.1,0.1,0.2v16.7c0,0.1,0,0.1-0.1,0.2s-0.1,0.1-0.2,0.1H320C319.9,1275.6,319.9,1275.6,319.8,1275.6z"/>
	</g>
	<g class="st1">
		<path d="M362.9,1275.6c-0.1-0.1-0.1-0.1-0.1-0.2v-19.8c0-0.1,0-0.2,0.1-0.2c0.1,0,0.1-0.1,0.2-0.1h1.1c0.1,0,0.2,0,0.2,0.1
			c0,0.1,0.1,0.1,0.1,0.2v19.8c0,0.1,0,0.1-0.1,0.2s-0.1,0.1-0.2,0.1h-1.1C363,1275.6,363,1275.6,362.9,1275.6z M366.2,1256.7
			c-0.1-0.1-0.1-0.1-0.1-0.2v-1c0-0.1,0-0.2,0.1-0.2c0.1,0,0.1-0.1,0.2-0.1h8.4c0.1,0,0.2,0,0.2,0.1c0,0.1,0.1,0.1,0.1,0.2v1
			c0,0.1,0,0.1-0.1,0.2s-0.1,0.1-0.2,0.1h-8.4C366.3,1256.8,366.3,1256.8,366.2,1256.7z M366.2,1266c-0.1-0.1-0.1-0.1-0.1-0.2v-1
			c0-0.1,0-0.2,0.1-0.2c0.1,0,0.1-0.1,0.2-0.1h7c0.1,0,0.2,0,0.2,0.1c0,0.1,0.1,0.1,0.1,0.2v1c0,0.1,0,0.1-0.1,0.2
			c-0.1,0.1-0.1,0.1-0.2,0.1h-7C366.3,1266.1,366.3,1266.1,366.2,1266z M366.2,1275.6c-0.1-0.1-0.1-0.1-0.1-0.2v-1
			c0-0.1,0-0.2,0.1-0.2c0.1,0,0.1-0.1,0.2-0.1h8.4c0.1,0,0.2,0,0.2,0.1c0,0.1,0.1,0.1,0.1,0.2v1c0,0.1,0,0.1-0.1,0.2
			s-0.1,0.1-0.2,0.1h-8.4C366.3,1275.6,366.3,1275.6,366.2,1275.6z"/>
	</g>
	<g class="st1">
		<path d="M410.1,1275.6c-0.1-0.1-0.1-0.1-0.1-0.2v-19.8c0-0.1,0-0.2,0.1-0.2c0.1,0,0.1-0.1,0.2-0.1h1.1c0.1,0,0.2,0,0.2,0.1
			c0,0.1,0.1,0.1,0.1,0.2v19.8c0,0.1,0,0.1-0.1,0.2s-0.1,0.1-0.2,0.1h-1.1C410.3,1275.6,410.2,1275.6,410.1,1275.6z M413.4,1266.4
			c-0.1-0.1-0.1-0.1-0.1-0.2v-1c0-0.1,0-0.2,0.1-0.2c0.1,0,0.1-0.1,0.2-0.1h3.5c1.5,0,2.6-0.3,3.4-1s1.2-1.7,1.2-3s-0.4-2.3-1.2-3
			s-1.9-1.1-3.4-1.1h-3.5c-0.1,0-0.2,0-0.2-0.1s-0.1-0.1-0.1-0.2v-1c0-0.1,0-0.2,0.1-0.2c0.1,0,0.1-0.1,0.2-0.1h3.5
			c1.3,0,2.4,0.2,3.3,0.7c0.9,0.5,1.6,1.1,2.1,2s0.8,1.9,0.8,3c0,1.1-0.2,2.1-0.7,2.9c-0.5,0.9-1.2,1.5-2.1,2
			c-1,0.5-2.1,0.7-3.5,0.7h-3.4C413.6,1266.5,413.5,1266.5,413.4,1266.4z M421.9,1275.6c0,0-0.1-0.1-0.1-0.2l-3.4-7.1
			c-0.1-0.1-0.1-0.2,0-0.3c0,0,0.1-0.1,0.2-0.1c0.1,0,0.1,0,0.2,0c0.4,0,0.7-0.1,0.9-0.2c0,0,0.1,0,0.1,0c0.1,0,0.2,0.1,0.2,0.2
			l3.7,7.4c0,0,0,0.1,0,0.1c0,0.1-0.1,0.2-0.2,0.2h-1.3C422,1275.6,422,1275.6,421.9,1275.6z"/>
	</g>
	<g class="st1">
		<path d="M458.6,1273.8c-1-1.2-1.5-3-1.5-5.2v-13.1c0-0.1,0-0.2,0.1-0.2c0.1,0,0.1-0.1,0.2-0.1h1.1c0.1,0,0.2,0,0.2,0.1
			c0,0.1,0.1,0.1,0.1,0.2v13.1c0,1.7,0.4,3,1.1,3.9c0.7,1,1.7,1.5,3.1,1.8c0.2,0,0.3,0.1,0.3,0.3v1c0,0.1,0,0.2-0.1,0.2
			c-0.1,0-0.1,0.1-0.2,0C461,1275.7,459.6,1275,458.6,1273.8z M465.1,1275.9c-0.1,0-0.1,0-0.2-0.1c0-0.1-0.1-0.1-0.1-0.2v-1
			c0-0.2,0.1-0.3,0.3-0.3c1.3-0.2,2.4-0.8,3.1-1.7s1.1-2.3,1.1-4v-13.1c0-0.1,0-0.2,0.1-0.2c0.1,0,0.1-0.1,0.2-0.1h1.1
			c0.1,0,0.2,0,0.2,0.1c0,0.1,0.1,0.1,0.1,0.2v13.1c0,2.2-0.5,3.9-1.5,5.1C468.4,1275,467,1275.7,465.1,1275.9L465.1,1275.9z"/>
	</g>
	<g class="st1">
		<path d="M516.8,1275.6c-0.1,0-0.2-0.1-0.2-0.2l-11.9-19.4c-0.1-0.1-0.1-0.2-0.1-0.4c0-0.2,0.1-0.3,0.3-0.3h1c0.1,0,0.2,0,0.3,0.1
			c0.1,0,0.1,0.1,0.2,0.2l12,19.5c0,0.1,0.1,0.1,0.1,0.2c0,0.1,0,0.1,0,0.2c0,0.1-0.1,0.2-0.3,0.2h-1
			C517,1275.6,516.9,1275.6,516.8,1275.6z M504.6,1275.6c-0.1-0.1-0.1-0.1-0.1-0.2v-16.2c0-0.2,0-0.2,0.1-0.2c0.1,0,0.2,0.1,0.2,0.1
			l1.2,1.9c0.1,0.1,0.1,0.2,0.1,0.4v14c0,0.1,0,0.1-0.1,0.2c-0.1,0.1-0.1,0.1-0.2,0.1h-1C504.8,1275.6,504.7,1275.6,504.6,1275.6z
			 M516.9,1269.9c-0.1-0.1-0.1-0.2-0.1-0.4v-14c0-0.1,0-0.2,0.1-0.2c0.1,0,0.1-0.1,0.2-0.1h1c0.1,0,0.2,0,0.2,0.1
			c0,0.1,0.1,0.1,0.1,0.2v16.1c0,0.2,0,0.2-0.2,0.2c-0.1,0-0.1,0-0.2-0.1L516.9,1269.9z"/>
	</g>
	<g class="st1">
		<path d="M553.4,1275.6c-0.1-0.1-0.1-0.1-0.1-0.2v-19.8c0-0.1,0-0.2,0.1-0.2c0.1,0,0.1-0.1,0.2-0.1h1.1c0.1,0,0.2,0,0.2,0.1
			c0,0.1,0.1,0.1,0.1,0.2v19.8c0,0.1,0,0.1-0.1,0.2s-0.1,0.1-0.2,0.1h-1.1C553.6,1275.6,553.5,1275.6,553.4,1275.6z"/>
	</g>
	<g class="st1">
		<path d="M611.3,1275.6c-0.1,0-0.2-0.1-0.2-0.2l-11.9-19.4c-0.1-0.1-0.1-0.2-0.1-0.4c0-0.2,0.1-0.3,0.3-0.3h1c0.1,0,0.2,0,0.3,0.1
			c0.1,0,0.1,0.1,0.2,0.2l12,19.5c0,0.1,0.1,0.1,0.1,0.2c0,0.1,0,0.1,0,0.2c0,0.1-0.1,0.2-0.3,0.2h-1
			C611.5,1275.6,611.4,1275.6,611.3,1275.6z M599.1,1275.6c-0.1-0.1-0.1-0.1-0.1-0.2v-16.2c0-0.2,0-0.2,0.1-0.2
			c0.1,0,0.2,0.1,0.2,0.1l1.2,1.9c0.1,0.1,0.1,0.2,0.1,0.4v14c0,0.1,0,0.1-0.1,0.2c-0.1,0.1-0.1,0.1-0.2,0.1h-1
			C599.2,1275.6,599.2,1275.6,599.1,1275.6z M611.4,1269.9c-0.1-0.1-0.1-0.2-0.1-0.4v-14c0-0.1,0-0.2,0.1-0.2c0.1,0,0.1-0.1,0.2-0.1
			h1c0.1,0,0.2,0,0.2,0.1c0,0.1,0.1,0.1,0.1,0.2v16.1c0,0.2,0,0.2-0.2,0.2c-0.1,0-0.1,0-0.2-0.1L611.4,1269.9z"/>
	</g>
	<g class="st1">
		<path d="M646.4,1275.6c-0.1-0.1-0.1-0.1-0.1-0.2v-19.8c0-0.1,0-0.2,0.1-0.2c0.1,0,0.1-0.1,0.2-0.1h1.1c0.1,0,0.2,0,0.2,0.1
			c0,0.1,0.1,0.1,0.1,0.2v19.8c0,0.1,0,0.1-0.1,0.2s-0.1,0.1-0.2,0.1h-1.1C646.5,1275.6,646.4,1275.6,646.4,1275.6z M649.7,1256.7
			c-0.1-0.1-0.1-0.1-0.1-0.2v-1c0-0.1,0-0.2,0.1-0.2c0.1,0,0.1-0.1,0.2-0.1h8.4c0.1,0,0.2,0,0.2,0.1c0,0.1,0.1,0.1,0.1,0.2v1
			c0,0.1,0,0.1-0.1,0.2s-0.1,0.1-0.2,0.1h-8.4C649.8,1256.8,649.7,1256.8,649.7,1256.7z M649.7,1266c-0.1-0.1-0.1-0.1-0.1-0.2v-1
			c0-0.1,0-0.2,0.1-0.2c0.1,0,0.1-0.1,0.2-0.1h7c0.1,0,0.2,0,0.2,0.1c0,0.1,0.1,0.1,0.1,0.2v1c0,0.1,0,0.1-0.1,0.2
			c-0.1,0.1-0.1,0.1-0.2,0.1h-7C649.8,1266.1,649.7,1266.1,649.7,1266z M649.7,1275.6c-0.1-0.1-0.1-0.1-0.1-0.2v-1
			c0-0.1,0-0.2,0.1-0.2c0.1,0,0.1-0.1,0.2-0.1h8.4c0.1,0,0.2,0,0.2,0.1c0,0.1,0.1,0.1,0.1,0.2v1c0,0.1,0,0.1-0.1,0.2
			s-0.1,0.1-0.2,0.1h-8.4C649.8,1275.6,649.7,1275.6,649.7,1275.6z"/>
	</g>
	<g class="st1">
		<path d="M175.6,1326.9c-0.9-0.8-1.6-1.8-2-3.1c-0.2-0.6-0.3-1.3-0.4-2.1c-0.1-0.9-0.1-2.1-0.1-3.8c0-1.7,0-2.9,0.1-3.8
			c0.1-0.9,0.2-1.6,0.4-2.1c0.4-1.3,1.1-2.4,2-3.1s2.1-1.2,3.4-1.4h0.1c0.1,0,0.1,0,0.2,0.1c0,0.1,0.1,0.1,0.1,0.2v1
			c0,0.2-0.1,0.3-0.3,0.3c-1.9,0.3-3.2,1.5-3.9,3.4c-0.2,0.5-0.3,1.1-0.4,1.9c-0.1,0.8-0.1,2-0.1,3.5c0,1.5,0,2.7,0.1,3.5
			c0.1,0.8,0.2,1.5,0.4,1.9c0.6,1.9,1.9,3.1,3.9,3.4c0.2,0,0.3,0.1,0.3,0.3v1c0,0.1,0,0.2-0.1,0.2c-0.1,0-0.1,0.1-0.2,0
			C177.7,1328.2,176.5,1327.7,175.6,1326.9z M181.2,1328.3c-0.1,0-0.1,0-0.2-0.1s-0.1-0.1-0.1-0.2v-1c0-0.2,0.1-0.3,0.3-0.3
			c1.9-0.3,3.2-1.5,3.9-3.4c0.2-0.5,0.3-1.1,0.4-2c0.1-0.8,0.1-2,0.1-3.5s0-2.7-0.1-3.5c-0.1-0.8-0.2-1.5-0.4-2
			c-0.7-1.9-2-3.1-3.9-3.4c-0.2,0-0.3-0.1-0.3-0.3v-1c0-0.1,0-0.2,0.1-0.2s0.1-0.1,0.2,0c1.4,0.2,2.5,0.6,3.4,1.4
			c0.9,0.8,1.6,1.8,2.1,3.1c0.2,0.6,0.3,1.3,0.4,2.2c0.1,0.9,0.1,2.1,0.1,3.8c0,1.6,0,2.9-0.1,3.8c-0.1,0.9-0.2,1.6-0.4,2.2
			c-0.4,1.3-1.1,2.4-2.1,3.1C183.8,1327.7,182.6,1328.2,181.2,1328.3L181.2,1328.3z"/>
	</g>
	<g class="st1">
		<path d="M233.4,1328c-0.1,0-0.2-0.1-0.2-0.2l-11.9-19.4c-0.1-0.1-0.1-0.2-0.1-0.4c0-0.2,0.1-0.3,0.3-0.3h1c0.1,0,0.2,0,0.3,0.1
			c0.1,0,0.1,0.1,0.2,0.2l12,19.5c0,0.1,0.1,0.1,0.1,0.2c0,0.1,0,0.1,0,0.2c0,0.1-0.1,0.2-0.3,0.2h-1
			C233.5,1328.1,233.4,1328.1,233.4,1328z M221.2,1328c-0.1-0.1-0.1-0.1-0.1-0.2v-16.2c0-0.2,0-0.2,0.2-0.2c0.1,0,0.2,0,0.2,0.2
			l1.2,1.9c0.1,0.1,0.1,0.2,0.1,0.4v14c0,0.1,0,0.1-0.1,0.2c-0.1,0.1-0.1,0.1-0.2,0.1h-1C221.3,1328.1,221.2,1328.1,221.2,1328z
			 M233.4,1322.3c-0.1-0.1-0.1-0.2-0.1-0.4V1308c0-0.1,0-0.2,0.1-0.2c0.1,0,0.1-0.1,0.2-0.1h1c0.1,0,0.2,0,0.2,0.1
			c0,0.1,0.1,0.1,0.1,0.2v16.1c0,0.2-0.1,0.2-0.1,0.2c-0.1,0-0.1,0-0.2-0.2L233.4,1322.3z"/>
	</g>
	<g class="st1">
		<path d="M268.4,1328c-0.1-0.1-0.1-0.1-0.1-0.2V1308c0-0.1,0-0.2,0.1-0.2c0.1,0,0.1-0.1,0.2-0.1h1.1c0.1,0,0.2,0,0.2,0.1
			c0,0.1,0.1,0.1,0.1,0.2v19.8c0,0.1,0,0.1-0.1,0.2c-0.1,0.1-0.1,0.1-0.2,0.1h-1.1C268.5,1328.1,268.5,1328.1,268.4,1328z
			 M271.7,1309.2c-0.1-0.1-0.1-0.1-0.1-0.2v-1c0-0.1,0-0.2,0.1-0.2c0.1,0,0.1-0.1,0.2-0.1h8.4c0.1,0,0.2,0,0.2,0.1
			c0,0.1,0.1,0.1,0.1,0.2v1c0,0.1,0,0.2-0.1,0.2c-0.1,0.1-0.1,0.1-0.2,0.1h-8.4C271.8,1309.3,271.8,1309.2,271.7,1309.2z
			 M271.7,1318.5c-0.1-0.1-0.1-0.1-0.1-0.2v-1c0-0.1,0-0.2,0.1-0.2s0.1-0.1,0.2-0.1h7c0.1,0,0.2,0,0.2,0.1c0,0,0.1,0.1,0.1,0.2v1
			c0,0.1,0,0.1-0.1,0.2c-0.1,0.1-0.1,0.1-0.2,0.1h-7C271.8,1318.5,271.8,1318.5,271.7,1318.5z M271.7,1328c-0.1-0.1-0.1-0.1-0.1-0.2
			v-1c0-0.1,0-0.2,0.1-0.2s0.1-0.1,0.2-0.1h8.4c0.1,0,0.2,0,0.2,0.1c0,0,0.1,0.1,0.1,0.2v1c0,0.1,0,0.1-0.1,0.2
			c-0.1,0.1-0.1,0.1-0.2,0.1h-8.4C271.8,1328.1,271.8,1328.1,271.7,1328z"/>
	</g>
	<g class="st1">
		<path d="M317.2,1327.5c-1.1-0.4-1.9-0.9-2.5-1.5c-0.1-0.1-0.1-0.1-0.1-0.2s0-0.2,0.1-0.2l0.7-0.8c0.1-0.1,0.3-0.2,0.4,0
			c0.6,0.5,1.3,0.9,2.1,1.3c0.8,0.4,1.7,0.6,2.6,0.7c0.2,0,0.3,0.1,0.3,0.3v1c0,0.1,0,0.2-0.1,0.2c-0.1,0-0.1,0.1-0.2,0
			C319.4,1328.2,318.3,1328,317.2,1327.5z M322.7,1328.3c-0.1,0-0.1,0-0.2-0.1c-0.1,0-0.1-0.1-0.1-0.2v-1c0-0.2,0.1-0.3,0.3-0.3
			c1.3-0.1,2.3-0.6,3.1-1.3s1.1-1.7,1.1-2.8c0-1.1-0.4-2-1.1-2.7c-0.7-0.7-2-1.1-3.8-1.3l-1-0.1c-2-0.3-3.4-0.8-4.4-1.8
			c-1-0.9-1.5-2.1-1.5-3.6c0-1,0.2-2,0.6-2.8c0.4-0.8,1-1.5,1.8-2s1.7-0.8,2.8-0.9h0.1c0.1,0,0.1,0,0.2,0.1c0,0.1,0.1,0.1,0.1,0.2v1
			c0,0.2-0.1,0.3-0.3,0.3c-1.1,0.2-2,0.6-2.6,1.3c-0.6,0.7-0.9,1.6-0.9,2.6c0,1.1,0.4,2,1.1,2.6c0.8,0.7,2,1.1,3.7,1.3l1,0.1
			c2,0.3,3.5,0.8,4.4,1.8s1.4,2.1,1.4,3.7c0,1.1-0.2,2-0.7,2.8c-0.4,0.8-1.1,1.5-2,2C325.1,1327.9,324,1328.2,322.7,1328.3
			L322.7,1328.3z M322.7,1309c-0.2,0-0.3-0.2-0.3-0.3v-1c0-0.1,0-0.2,0.1-0.2s0.1-0.1,0.2,0c0.9,0.1,1.8,0.3,2.6,0.5
			s1.5,0.6,2.1,1.1c0.2,0.1,0.2,0.3,0.1,0.4l-0.6,0.9c-0.1,0.1-0.3,0.2-0.4,0.1C325.2,1309.6,323.9,1309.2,322.7,1309z"/>
	</g>
	<g class="st1">
		<path d="M364.5,1328c-0.1-0.1-0.1-0.1-0.1-0.2V1308c0-0.1,0-0.2,0.1-0.2c0.1,0,0.1-0.1,0.2-0.1h1.1c0.1,0,0.2,0,0.2,0.1
			c0,0.1,0.1,0.1,0.1,0.2v19.8c0,0.1,0,0.1-0.1,0.2c0,0.1-0.1,0.1-0.2,0.1h-1.1C364.6,1328.1,364.5,1328.1,364.5,1328z"/>
	</g>
	<g class="st1">
		<path d="M408.2,1328c0-0.1,0-0.1,0-0.2l5.1-8.5c0.1-0.1,0.1-0.2,0.2-0.2s0.2,0,0.2,0.2l0.6,1c0,0.1,0.1,0.1,0.1,0.2s0,0.1-0.1,0.2
			l-4.3,7.1c-0.1,0.2-0.2,0.2-0.4,0.2h-1.3C408.3,1328.1,408.2,1328,408.2,1328z M420.8,1328c-0.1,0-0.1-0.1-0.1-0.2l-11.8-19.8
			l-0.1-0.1c0-0.1,0.1-0.2,0.2-0.2h1.3c0.1,0,0.2,0,0.2,0.1c0.1,0,0.1,0.1,0.2,0.2l4.6,7.8l7.2,12c0,0,0,0.1,0,0.2
			c0,0.1-0.1,0.2-0.2,0.2h-1.3C421,1328.1,420.9,1328.1,420.8,1328z M416.4,1314.5c0-0.1-0.1-0.1-0.1-0.2s0-0.2,0.1-0.2l3.7-6.2
			c0-0.1,0.1-0.1,0.2-0.2c0.1,0,0.1-0.1,0.2-0.1h1.3c0.1,0,0.1,0,0.2,0.1c0,0.1,0,0.1,0,0.2l-4.5,7.6c-0.1,0.1-0.1,0.1-0.2,0.1
			s-0.2,0-0.2-0.1L416.4,1314.5z"/>
	</g>
	<g class="st1">
		<path d="M455.2,1309.2c-0.1-0.1-0.1-0.1-0.1-0.2v-1c0-0.1,0-0.2,0.1-0.2c0.1,0,0.1-0.1,0.2-0.1h13.8c0.1,0,0.2,0,0.2,0.1
			c0,0.1,0.1,0.1,0.1,0.2v1c0,0.1,0,0.2-0.1,0.2c-0.1,0.1-0.1,0.1-0.2,0.1h-13.8C455.4,1309.3,455.3,1309.2,455.2,1309.2z
			 M461.6,1328c-0.1-0.1-0.1-0.1-0.1-0.2v-16.7c0-0.1,0-0.2,0.1-0.2c0.1,0,0.1-0.1,0.2-0.1h1.1c0.1,0,0.2,0,0.2,0.1s0.1,0.1,0.1,0.2
			v16.7c0,0.1,0,0.1-0.1,0.2c0,0.1-0.1,0.1-0.2,0.1h-1.1C461.7,1328.1,461.6,1328.1,461.6,1328z"/>
	</g>
	<g class="st1">
		<path d="M504.6,1328c-0.1-0.1-0.1-0.1-0.1-0.2V1308c0-0.1,0-0.2,0.1-0.2c0.1,0,0.1-0.1,0.2-0.1h1.1c0.1,0,0.2,0,0.2,0.1
			c0,0.1,0.1,0.1,0.1,0.2v19.8c0,0.1,0,0.1-0.1,0.2c0,0.1-0.1,0.1-0.2,0.1h-1.1C504.8,1328.1,504.7,1328.1,504.6,1328z
			 M507.8,1318.5c-0.1-0.1-0.1-0.1-0.1-0.2v-1c0-0.1,0-0.2,0.1-0.2c0.1,0,0.1-0.1,0.2-0.1h6.9c0.1,0,0.2,0,0.2,0.1s0.1,0.1,0.1,0.2
			v1c0,0.1,0,0.1-0.1,0.2c0,0.1-0.1,0.1-0.2,0.1H508C507.9,1318.5,507.9,1318.5,507.8,1318.5z M516.8,1328c-0.1-0.1-0.1-0.1-0.1-0.2
			V1308c0-0.1,0-0.2,0.1-0.2c0.1,0,0.1-0.1,0.2-0.1h1.1c0.1,0,0.2,0,0.2,0.1c0,0.1,0.1,0.1,0.1,0.2v19.8c0,0.1,0,0.1-0.1,0.2
			c-0.1,0.1-0.1,0.1-0.2,0.1H517C516.9,1328.1,516.8,1328.1,516.8,1328z"/>
	</g>
	<g class="st1">
		<path d="M551.9,1328c-0.1-0.1-0.1-0.1-0.1-0.2V1308c0-0.1,0-0.2,0.1-0.2c0.1,0,0.1-0.1,0.2-0.1h1.1c0.1,0,0.2,0,0.2,0.1
			c0,0.1,0.1,0.1,0.1,0.2v19.8c0,0.1,0,0.1-0.1,0.2c0,0.1-0.1,0.1-0.2,0.1h-1.1C552,1328.1,551.9,1328.1,551.9,1328z M555.2,1318.8
			c-0.1-0.1-0.1-0.1-0.1-0.2v-1c0-0.1,0-0.2,0.1-0.2s0.1-0.1,0.2-0.1h3.5c1.5,0,2.6-0.3,3.4-1c0.8-0.7,1.2-1.7,1.2-3s-0.4-2.3-1.2-3
			s-1.9-1-3.4-1h-3.5c-0.1,0-0.2,0-0.2-0.1c-0.1-0.1-0.1-0.1-0.1-0.2v-1c0-0.1,0-0.2,0.1-0.2c0.1,0,0.1-0.1,0.2-0.1h3.5
			c1.3,0,2.4,0.2,3.3,0.7c0.9,0.4,1.6,1.1,2.1,1.9c0.5,0.9,0.8,1.9,0.8,3c0,1.1-0.2,2.1-0.7,2.9c-0.5,0.9-1.2,1.5-2.1,2
			c-1,0.5-2.1,0.7-3.5,0.7h-3.4C555.3,1318.9,555.2,1318.9,555.2,1318.8z M563.6,1328c0,0-0.1-0.1-0.1-0.2l-3.4-7.1
			c-0.1-0.1-0.1-0.2,0-0.3c0,0,0.1-0.1,0.2-0.1c0.1,0,0.1,0,0.2,0c0.4,0,0.7-0.1,0.9-0.2c0,0,0.1,0,0.1,0c0.1,0,0.2,0.1,0.2,0.2
			l3.7,7.4c0,0,0,0.1,0,0.2c0,0.1-0.1,0.2-0.2,0.2h-1.3C563.8,1328.1,563.7,1328.1,563.6,1328z"/>
	</g>
	<g class="st1">
		<path d="M599.1,1328c-0.1-0.1-0.1-0.1-0.1-0.2V1308c0-0.1,0-0.2,0.1-0.2c0.1,0,0.1-0.1,0.2-0.1h1.1c0.1,0,0.2,0,0.2,0.1
			c0,0.1,0.1,0.1,0.1,0.2v19.8c0,0.1,0,0.1-0.1,0.2c0,0.1-0.1,0.1-0.2,0.1h-1.1C599.2,1328.1,599.2,1328.1,599.1,1328z
			 M602.4,1309.2c-0.1-0.1-0.1-0.1-0.1-0.2v-1c0-0.1,0-0.2,0.1-0.2c0.1,0,0.1-0.1,0.2-0.1h8.4c0.1,0,0.2,0,0.2,0.1
			c0,0.1,0.1,0.1,0.1,0.2v1c0,0.1,0,0.2-0.1,0.2c0,0.1-0.1,0.1-0.2,0.1h-8.4C602.5,1309.3,602.5,1309.2,602.4,1309.2z M602.4,1318.5
			c-0.1-0.1-0.1-0.1-0.1-0.2v-1c0-0.1,0-0.2,0.1-0.2s0.1-0.1,0.2-0.1h7c0.1,0,0.2,0,0.2,0.1c0,0,0.1,0.1,0.1,0.2v1
			c0,0.1,0,0.1-0.1,0.2c-0.1,0.1-0.1,0.1-0.2,0.1h-7C602.5,1318.5,602.5,1318.5,602.4,1318.5z M602.4,1328c-0.1-0.1-0.1-0.1-0.1-0.2
			v-1c0-0.1,0-0.2,0.1-0.2s0.1-0.1,0.2-0.1h8.4c0.1,0,0.2,0,0.2,0.1s0.1,0.1,0.1,0.2v1c0,0.1,0,0.1-0.1,0.2c0,0.1-0.1,0.1-0.2,0.1
			h-8.4C602.5,1328.1,602.5,1328.1,602.4,1328z"/>
	</g>
	<g class="st1">
		<path d="M646.4,1328c-0.1-0.1-0.1-0.1-0.1-0.2V1308c0-0.1,0-0.2,0.1-0.2c0.1,0,0.1-0.1,0.2-0.1h1.1c0.1,0,0.2,0,0.2,0.1
			c0,0.1,0.1,0.1,0.1,0.2v19.8c0,0.1,0,0.1-0.1,0.2c0,0.1-0.1,0.1-0.2,0.1h-1.1C646.5,1328.1,646.4,1328.1,646.4,1328z
			 M649.7,1309.2c-0.1-0.1-0.1-0.1-0.1-0.2v-1c0-0.1,0-0.2,0.1-0.2c0.1,0,0.1-0.1,0.2-0.1h8.4c0.1,0,0.2,0,0.2,0.1
			c0,0.1,0.1,0.1,0.1,0.2v1c0,0.1,0,0.2-0.1,0.2c0,0.1-0.1,0.1-0.2,0.1h-8.4C649.8,1309.3,649.7,1309.2,649.7,1309.2z M649.7,1318.5
			c-0.1-0.1-0.1-0.1-0.1-0.2v-1c0-0.1,0-0.2,0.1-0.2s0.1-0.1,0.2-0.1h7c0.1,0,0.2,0,0.2,0.1c0,0,0.1,0.1,0.1,0.2v1
			c0,0.1,0,0.1-0.1,0.2c-0.1,0.1-0.1,0.1-0.2,0.1h-7C649.8,1318.5,649.7,1318.5,649.7,1318.5z M649.7,1328c-0.1-0.1-0.1-0.1-0.1-0.2
			v-1c0-0.1,0-0.2,0.1-0.2s0.1-0.1,0.2-0.1h8.4c0.1,0,0.2,0,0.2,0.1s0.1,0.1,0.1,0.2v1c0,0.1,0,0.1-0.1,0.2c0,0.1-0.1,0.1-0.2,0.1
			h-8.4C649.8,1328.1,649.7,1328.1,649.7,1328z"/>
	</g>
	<g class="st1">
		<path d="M173.9,1380.4c-0.1-0.1-0.1-0.1-0.1-0.2v-19.8c0-0.1,0-0.2,0.1-0.2c0.1,0,0.1-0.1,0.2-0.1h1.1c0.1,0,0.2,0,0.2,0.1
			c0,0.1,0.1,0.1,0.1,0.2v19.8c0,0.1,0,0.1-0.1,0.2c-0.1,0.1-0.1,0.1-0.2,0.1h-1.1C174,1380.5,174,1380.5,173.9,1380.4z
			 M177.2,1361.6c-0.1-0.1-0.1-0.1-0.1-0.2v-1c0-0.1,0-0.2,0.1-0.2c0.1,0,0.1-0.1,0.2-0.1h8.4c0.1,0,0.2,0,0.2,0.1
			c0,0.1,0.1,0.1,0.1,0.2v1c0,0.1,0,0.2-0.1,0.2c-0.1,0.1-0.1,0.1-0.2,0.1h-8.4C177.3,1361.7,177.3,1361.7,177.2,1361.6z
			 M177.2,1371.1c-0.1-0.1-0.1-0.1-0.1-0.2v-1c0-0.1,0-0.2,0.1-0.2s0.1-0.1,0.2-0.1h7c0.1,0,0.2,0,0.2,0.1c0,0,0.1,0.1,0.1,0.2v1
			c0,0.1,0,0.1-0.1,0.2c-0.1,0.1-0.1,0.1-0.2,0.1h-7C177.3,1371.2,177.3,1371.2,177.2,1371.1z"/>
	</g>
	<g class="st1">
		<path d="M222.8,1379.4c-0.9-0.8-1.6-1.8-2-3.1c-0.2-0.6-0.3-1.3-0.4-2.1c-0.1-0.9-0.1-2.1-0.1-3.8c0-1.7,0-2.9,0.1-3.8
			c0.1-0.9,0.2-1.6,0.4-2.1c0.4-1.3,1.1-2.4,2-3.1s2.1-1.2,3.4-1.4h0.1c0.1,0,0.1,0,0.2,0.1c0,0.1,0.1,0.1,0.1,0.2v1
			c0,0.2-0.1,0.3-0.3,0.3c-1.9,0.3-3.2,1.5-3.9,3.4c-0.2,0.5-0.3,1.1-0.4,1.9c-0.1,0.8-0.1,2-0.1,3.5c0,1.5,0,2.7,0.1,3.5
			c0.1,0.8,0.2,1.5,0.4,1.9c0.6,1.9,1.9,3.1,3.9,3.4c0.2,0,0.3,0.1,0.3,0.3v1c0,0.1,0,0.2-0.1,0.2c-0.1,0-0.1,0.1-0.2,0
			C224.9,1380.6,223.8,1380.1,222.8,1379.4z M228.4,1380.8c-0.1,0-0.1,0-0.2-0.1s-0.1-0.1-0.1-0.2v-1c0-0.2,0.1-0.3,0.3-0.3
			c1.9-0.3,3.2-1.5,3.9-3.4c0.2-0.5,0.3-1.1,0.4-2c0.1-0.8,0.1-2,0.1-3.5s0-2.7-0.1-3.5c-0.1-0.8-0.2-1.5-0.4-2
			c-0.7-1.9-2-3.1-3.9-3.4c-0.2,0-0.3-0.1-0.3-0.3v-1c0-0.1,0-0.2,0.1-0.2s0.1-0.1,0.2,0c1.4,0.2,2.5,0.6,3.4,1.4
			c0.9,0.8,1.6,1.8,2.1,3.1c0.2,0.6,0.3,1.3,0.4,2.2c0.1,0.9,0.1,2.1,0.1,3.8c0,1.6,0,2.9-0.1,3.8c-0.1,0.9-0.2,1.6-0.4,2.2
			c-0.4,1.3-1.1,2.4-2.1,3.1C231,1380.1,229.9,1380.6,228.4,1380.8L228.4,1380.8z"/>
	</g>
	<g class="st1">
		<path d="M269.6,1378.6c-1-1.2-1.5-3-1.5-5.2v-13c0-0.1,0-0.2,0.1-0.2c0.1,0,0.1-0.1,0.2-0.1h1.1c0.1,0,0.2,0,0.2,0.1
			c0,0.1,0.1,0.1,0.1,0.2v13c0,1.7,0.4,3,1.1,3.9c0.7,1,1.7,1.5,3.1,1.8c0.2,0,0.3,0.1,0.3,0.3v1c0,0.1,0,0.2-0.1,0.2
			c-0.1,0-0.1,0.1-0.2,0C272.1,1380.6,270.6,1379.9,269.6,1378.6z M276.1,1380.8c-0.1,0-0.1,0-0.2-0.1c-0.1,0-0.1-0.1-0.1-0.2v-1
			c0-0.2,0.1-0.3,0.3-0.3c1.3-0.2,2.4-0.8,3.1-1.7c0.7-1,1.1-2.3,1.1-4v-13c0-0.1,0-0.2,0.1-0.2c0.1,0,0.1-0.1,0.2-0.1h1.1
			c0.1,0,0.2,0,0.2,0.1c0,0.1,0.1,0.1,0.1,0.2v13c0,2.2-0.5,3.9-1.5,5.1C279.4,1379.8,278,1380.6,276.1,1380.8L276.1,1380.8z"/>
	</g>
	<g class="st1">
		<path d="M315.6,1380.4c-0.1-0.1-0.1-0.1-0.1-0.2v-19.8c0-0.1,0-0.2,0.1-0.2c0.1,0,0.1-0.1,0.2-0.1h1.1c0.1,0,0.2,0,0.2,0.1
			c0,0.1,0.1,0.1,0.1,0.2v19.8c0,0.1,0,0.1-0.1,0.2c0,0.1-0.1,0.1-0.2,0.1h-1.1C315.8,1380.5,315.7,1380.5,315.6,1380.4z
			 M318.9,1371.3c-0.1-0.1-0.1-0.1-0.1-0.2v-1c0-0.1,0-0.2,0.1-0.2s0.1-0.1,0.2-0.1h3.5c1.5,0,2.6-0.3,3.4-1c0.8-0.7,1.2-1.7,1.2-3
			s-0.4-2.3-1.2-3s-1.9-1-3.4-1h-3.5c-0.1,0-0.2,0-0.2-0.1c-0.1-0.1-0.1-0.1-0.1-0.2v-1c0-0.1,0-0.2,0.1-0.2c0.1,0,0.1-0.1,0.2-0.1
			h3.5c1.3,0,2.4,0.2,3.3,0.7c0.9,0.4,1.6,1.1,2.1,1.9c0.5,0.9,0.8,1.9,0.8,3c0,1.1-0.2,2.1-0.7,2.9c-0.5,0.9-1.2,1.5-2.1,2
			c-1,0.5-2.1,0.7-3.5,0.7h-3.4C319.1,1371.4,319,1371.3,318.9,1371.3z M327.4,1380.5c0,0-0.1-0.1-0.1-0.2l-3.4-7.1
			c-0.1-0.1-0.1-0.2,0-0.3c0,0,0.1-0.1,0.2-0.1c0.1,0,0.1,0,0.2,0c0.4,0,0.7-0.1,0.9-0.2c0,0,0.1,0,0.1,0c0.1,0,0.2,0.1,0.2,0.2
			l3.7,7.4c0,0,0,0.1,0,0.2c0,0.1-0.1,0.2-0.2,0.2h-1.3C327.5,1380.5,327.5,1380.5,327.4,1380.5z"/>
	</g>
	<g class="st1">
		<path d="M362.9,1380.4c-0.1-0.1-0.1-0.1-0.1-0.2v-19.8c0-0.1,0-0.2,0.1-0.2c0.1,0,0.1-0.1,0.2-0.1h1.1c0.1,0,0.2,0,0.2,0.1
			c0,0.1,0.1,0.1,0.1,0.2v19.8c0,0.1,0,0.1-0.1,0.2c0,0.1-0.1,0.1-0.2,0.1h-1.1C363,1380.5,363,1380.5,362.9,1380.4z M366.2,1361.6
			c-0.1-0.1-0.1-0.1-0.1-0.2v-1c0-0.1,0-0.2,0.1-0.2c0.1,0,0.1-0.1,0.2-0.1h8.4c0.1,0,0.2,0,0.2,0.1c0,0.1,0.1,0.1,0.1,0.2v1
			c0,0.1,0,0.2-0.1,0.2c0,0.1-0.1,0.1-0.2,0.1h-8.4C366.3,1361.7,366.3,1361.7,366.2,1361.6z M366.2,1371.1
			c-0.1-0.1-0.1-0.1-0.1-0.2v-1c0-0.1,0-0.2,0.1-0.2s0.1-0.1,0.2-0.1h7c0.1,0,0.2,0,0.2,0.1c0,0,0.1,0.1,0.1,0.2v1
			c0,0.1,0,0.1-0.1,0.2c-0.1,0.1-0.1,0.1-0.2,0.1h-7C366.3,1371.2,366.3,1371.2,366.2,1371.1z"/>
	</g>
	<g class="st1">
		<path d="M411.7,1380.4c-0.1-0.1-0.1-0.1-0.1-0.2v-19.8c0-0.1,0-0.2,0.1-0.2c0.1,0,0.1-0.1,0.2-0.1h1.1c0.1,0,0.2,0,0.2,0.1
			c0,0.1,0.1,0.1,0.1,0.2v19.8c0,0.1,0,0.1-0.1,0.2c0,0.1-0.1,0.1-0.2,0.1h-1.1C411.8,1380.5,411.8,1380.5,411.7,1380.4z"/>
	</g>
	<g class="st1">
		<path d="M462,1380.2l-6.8-19.7l-0.1-0.2c0-0.1,0-0.1,0.1-0.2c0,0,0.1-0.1,0.2-0.1h1.1c0.1,0,0.2,0,0.3,0.1c0.1,0,0.1,0.1,0.1,0.2
			l6.7,19.6c0,0.1,0.1,0.2,0.1,0.3c0,0.2-0.1,0.3-0.3,0.3h-1C462.2,1380.5,462.1,1380.4,462,1380.2z M463.7,1375.9c0,0,0-0.1,0-0.2
			c0-0.1,0-0.2,0.1-0.3l5-15c0-0.1,0.1-0.2,0.2-0.2c0.1,0,0.1-0.1,0.3-0.1h1.1c0.1,0,0.2,0,0.2,0.1c0,0.1,0,0.2,0,0.3l-5.8,17
			c0,0.1,0,0.1-0.1,0.2s-0.1,0.1-0.1,0.1c-0.1,0-0.1-0.1-0.2-0.2L463.7,1375.9z"/>
	</g>
	<g class="st1">
		<path d="M504.6,1380.4c-0.1-0.1-0.1-0.1-0.1-0.2v-19.8c0-0.1,0-0.2,0.1-0.2c0.1,0,0.1-0.1,0.2-0.1h1.1c0.1,0,0.2,0,0.2,0.1
			c0,0.1,0.1,0.1,0.1,0.2v19.8c0,0.1,0,0.1-0.1,0.2c0,0.1-0.1,0.1-0.2,0.1h-1.1C504.8,1380.5,504.7,1380.5,504.6,1380.4z
			 M507.9,1361.6c-0.1-0.1-0.1-0.1-0.1-0.2v-1c0-0.1,0-0.2,0.1-0.2c0.1,0,0.1-0.1,0.2-0.1h8.4c0.1,0,0.2,0,0.2,0.1
			c0,0.1,0.1,0.1,0.1,0.2v1c0,0.1,0,0.2-0.1,0.2c0,0.1-0.1,0.1-0.2,0.1h-8.4C508.1,1361.7,508,1361.7,507.9,1361.6z M507.9,1370.9
			c-0.1-0.1-0.1-0.1-0.1-0.2v-1c0-0.1,0-0.2,0.1-0.2s0.1-0.1,0.2-0.1h7c0.1,0,0.2,0,0.2,0.1c0,0,0.1,0.1,0.1,0.2v1
			c0,0.1,0,0.1-0.1,0.2c-0.1,0.1-0.1,0.1-0.2,0.1h-7C508.1,1371,508,1371,507.9,1370.9z M507.9,1380.4c-0.1-0.1-0.1-0.1-0.1-0.2v-1
			c0-0.1,0-0.2,0.1-0.2s0.1-0.1,0.2-0.1h8.4c0.1,0,0.2,0,0.2,0.1s0.1,0.1,0.1,0.2v1c0,0.1,0,0.1-0.1,0.2c0,0.1-0.1,0.1-0.2,0.1h-8.4
			C508.1,1380.5,508,1380.5,507.9,1380.4z"/>
	</g>
	<g class="st1">
		<path d="M549.7,1361.6c-0.1-0.1-0.1-0.1-0.1-0.2v-1c0-0.1,0-0.2,0.1-0.2c0.1,0,0.1-0.1,0.2-0.1h13.8c0.1,0,0.2,0,0.2,0.1
			c0,0.1,0.1,0.1,0.1,0.2v1c0,0.1,0,0.2-0.1,0.2c-0.1,0.1-0.1,0.1-0.2,0.1h-13.8C549.8,1361.7,549.8,1361.7,549.7,1361.6z
			 M556,1380.4c-0.1-0.1-0.1-0.1-0.1-0.2v-16.7c0-0.1,0-0.2,0.1-0.2c0.1,0,0.1-0.1,0.2-0.1h1.1c0.1,0,0.2,0,0.2,0.1s0.1,0.1,0.1,0.2
			v16.7c0,0.1,0,0.1-0.1,0.2c0,0.1-0.1,0.1-0.2,0.1h-1.1C556.2,1380.5,556.1,1380.5,556,1380.4z"/>
	</g>
	<g class="st1">
		<path d="M602.1,1380.4c-0.1,0-0.1-0.1-0.1-0.2l-4.9-19.8l0-0.1c0-0.1,0-0.1,0.1-0.1s0.1-0.1,0.2-0.1h1.1c0.1,0,0.2,0,0.3,0.1
			c0.1,0,0.1,0.1,0.1,0.2l4.7,19.6c0,0.1,0,0.1,0,0.2c0,0.2-0.1,0.3-0.3,0.3h-1C602.3,1380.5,602.2,1380.5,602.1,1380.4z
			 M613.4,1380.4c0,0-0.1-0.1-0.1-0.2l-4.8-16.8h-0.1l-3.9,13.6c0,0.1,0,0.1-0.1,0.2s-0.1,0.1-0.1,0.1c-0.1,0-0.1-0.1-0.2-0.2
			l-0.5-2.1c0-0.1,0-0.2,0-0.4l3.9-14.1c0-0.1,0.1-0.2,0.1-0.2c0,0,0.1-0.1,0.2-0.1h0.9c0.1,0,0.2,0,0.2,0.1c0,0.1,0.1,0.1,0.1,0.2
			l5.5,19.6l0,0.2c0,0.2-0.1,0.3-0.3,0.3h-1C613.5,1380.5,613.5,1380.5,613.4,1380.4z M614.8,1374.9c0-0.2-0.1-0.3,0-0.4l3.3-14.1
			c0-0.1,0.1-0.2,0.1-0.2c0.1,0,0.1-0.1,0.3-0.1h1c0.1,0,0.2,0,0.2,0.1c0,0.1,0,0.1,0,0.2l-4,16.5c0,0.1,0,0.1-0.1,0.2
			s-0.1,0.1-0.1,0.1c-0.1,0-0.1-0.1-0.2-0.2L614.8,1374.9z"/>
	</g>
	<g class="st1">
		<path d="M648,1379.4c-0.9-0.8-1.6-1.8-2-3.1c-0.2-0.6-0.3-1.3-0.4-2.1c-0.1-0.9-0.1-2.1-0.1-3.8c0-1.7,0-2.9,0.1-3.8
			s0.2-1.6,0.4-2.1c0.4-1.3,1.1-2.4,2-3.1s2.1-1.2,3.4-1.4h0.1c0.1,0,0.1,0,0.2,0.1c0,0.1,0.1,0.1,0.1,0.2v1c0,0.2-0.1,0.3-0.3,0.3
			c-1.9,0.3-3.2,1.5-3.9,3.4c-0.2,0.5-0.3,1.1-0.4,1.9s-0.1,2-0.1,3.5c0,1.5,0,2.7,0.1,3.5s0.2,1.5,0.4,1.9c0.6,1.9,1.9,3.1,3.9,3.4
			c0.2,0,0.3,0.1,0.3,0.3v1c0,0.1,0,0.2-0.1,0.2c-0.1,0-0.1,0.1-0.2,0C650.1,1380.6,649,1380.1,648,1379.4z M653.6,1380.8
			c-0.1,0-0.1,0-0.2-0.1s-0.1-0.1-0.1-0.2v-1c0-0.2,0.1-0.3,0.3-0.3c1.9-0.3,3.2-1.5,3.9-3.4c0.2-0.5,0.3-1.1,0.4-2
			c0.1-0.8,0.1-2,0.1-3.5s0-2.7-0.1-3.5c-0.1-0.8-0.2-1.5-0.4-2c-0.7-1.9-2-3.1-3.9-3.4c-0.2,0-0.3-0.1-0.3-0.3v-1
			c0-0.1,0-0.2,0.1-0.2c0.1,0,0.1-0.1,0.2,0c1.4,0.2,2.5,0.6,3.4,1.4c0.9,0.8,1.6,1.8,2.1,3.1c0.2,0.6,0.3,1.3,0.4,2.2
			c0.1,0.9,0.2,2.1,0.2,3.8c0,1.6-0.1,2.9-0.2,3.8c-0.1,0.9-0.2,1.6-0.4,2.2c-0.4,1.3-1.1,2.4-2.1,3.1
			C656.2,1380.1,655.1,1380.6,653.6,1380.8L653.6,1380.8z"/>
	</g>
	<g class="st1">
		<path d="M173.9,1432.9c-0.1-0.1-0.1-0.1-0.1-0.2v-19.8c0-0.1,0-0.2,0.1-0.2c0.1,0,0.1-0.1,0.2-0.1h1.1c0.1,0,0.2,0,0.2,0.1
			c0,0.1,0.1,0.1,0.1,0.2v19.8c0,0.1,0,0.1-0.1,0.2c-0.1,0.1-0.1,0.1-0.2,0.1h-1.1C174,1433,174,1432.9,173.9,1432.9z M177.2,1414.1
			c-0.1-0.1-0.1-0.1-0.1-0.2v-1c0-0.1,0-0.2,0.1-0.2c0.1,0,0.1-0.1,0.2-0.1h8.4c0.1,0,0.2,0,0.2,0.1c0,0.1,0.1,0.1,0.1,0.2v1
			c0,0.1,0,0.2-0.1,0.2c-0.1,0.1-0.1,0.1-0.2,0.1h-8.4C177.3,1414.2,177.3,1414.1,177.2,1414.1z M177.2,1423.3
			c-0.1-0.1-0.1-0.1-0.1-0.2v-1c0-0.1,0-0.2,0.1-0.2s0.1-0.1,0.2-0.1h7c0.1,0,0.2,0,0.2,0.1c0,0,0.1,0.1,0.1,0.2v1
			c0,0.1,0,0.1-0.1,0.2c-0.1,0.1-0.1,0.1-0.2,0.1h-7C177.3,1423.4,177.3,1423.4,177.2,1423.3z M177.2,1432.9
			c-0.1-0.1-0.1-0.1-0.1-0.2v-1c0-0.1,0-0.2,0.1-0.2s0.1-0.1,0.2-0.1h8.4c0.1,0,0.2,0,0.2,0.1c0,0,0.1,0.1,0.1,0.2v1
			c0,0.1,0,0.1-0.1,0.2c-0.1,0.1-0.1,0.1-0.2,0.1h-8.4C177.3,1433,177.3,1432.9,177.2,1432.9z"/>
	</g>
	<g class="st1">
		<path d="M222.7,1432.9c-0.1-0.1-0.1-0.1-0.1-0.2v-19.8c0-0.1,0-0.2,0.1-0.2c0.1,0,0.1-0.1,0.2-0.1h1.1c0.1,0,0.2,0,0.2,0.1
			c0,0.1,0.1,0.1,0.1,0.2v19.8c0,0.1,0,0.1-0.1,0.2c-0.1,0.1-0.1,0.1-0.2,0.1h-1.1C222.9,1433,222.8,1432.9,222.7,1432.9z"/>
	</g>
	<g class="st1">
		<path d="M270.1,1431.8c-0.9-0.8-1.6-1.8-2.1-3.1c-0.2-0.6-0.3-1.3-0.4-2.1c-0.1-0.9-0.1-2.1-0.1-3.8c0-1.7,0-2.9,0.1-3.8
			c0.1-0.9,0.2-1.6,0.4-2.1c0.4-1.3,1.1-2.4,2.1-3.1s2.1-1.2,3.5-1.4h0.1c0.1,0,0.1,0,0.2,0.1c0,0.1,0.1,0.1,0.1,0.2v1
			c0,0.2-0.1,0.3-0.3,0.3c-1,0.1-1.8,0.5-2.4,1.1c-0.7,0.6-1.1,1.3-1.5,2.3c-0.2,0.4-0.3,1.1-0.4,1.9c-0.1,0.8-0.1,2-0.1,3.6
			c0,1.6,0,2.8,0.1,3.6c0.1,0.8,0.2,1.5,0.4,1.9c0.3,1,0.8,1.7,1.5,2.3c0.6,0.6,1.5,0.9,2.4,1.1c0.2,0,0.3,0.1,0.3,0.3v1
			c0,0.1,0,0.2-0.1,0.2c-0.1,0-0.1,0.1-0.2,0C272.2,1433,271,1432.6,270.1,1431.8z M275.7,1433.2c-0.1,0-0.1,0-0.2-0.1
			c0,0-0.1-0.1-0.1-0.2v-1c0-0.2,0.1-0.3,0.3-0.3c1-0.2,1.8-0.5,2.4-1.1c0.7-0.6,1.1-1.3,1.5-2.3c0.3-0.9,0.5-2.2,0.5-3.9
			c0-0.1-0.1-0.2-0.2-0.2h-4.7c-0.1,0-0.1,0-0.2-0.1c-0.1-0.1-0.1-0.1-0.1-0.2v-0.9c0-0.1,0-0.2,0.1-0.2c0.1,0,0.1-0.1,0.2-0.1h6.2
			c0.1,0,0.2,0,0.2,0.1c0,0.1,0.1,0.1,0.1,0.2v1.2c0,1,0,1.8-0.1,2.6c-0.1,0.8-0.2,1.4-0.4,1.9c-0.4,1.3-1.1,2.4-2.1,3.1
			C278.3,1432.6,277.1,1433,275.7,1433.2L275.7,1433.2z M279.9,1416.9c-0.1,0-0.2,0-0.2-0.2c-0.4-0.8-1-1.5-1.6-1.9
			s-1.4-0.8-2.3-0.9c-0.2,0-0.3-0.1-0.3-0.3v-1c0-0.1,0-0.2,0.1-0.2c0.1,0,0.1-0.1,0.2,0c1.3,0.2,2.3,0.6,3.2,1.2
			c0.9,0.7,1.6,1.5,2,2.4c0,0.1,0.1,0.2,0.1,0.2c0,0.1,0,0.1-0.1,0.2l-1,0.5C280,1416.9,279.9,1416.9,279.9,1416.9z"/>
	</g>
	<g class="st1">
		<path d="M315.6,1432.9c-0.1-0.1-0.1-0.1-0.1-0.2v-19.8c0-0.1,0-0.2,0.1-0.2c0.1,0,0.1-0.1,0.2-0.1h1.1c0.1,0,0.2,0,0.2,0.1
			c0,0.1,0.1,0.1,0.1,0.2v19.8c0,0.1,0,0.1-0.1,0.2c0,0.1-0.1,0.1-0.2,0.1h-1.1C315.8,1433,315.7,1432.9,315.6,1432.9z
			 M318.8,1423.3c-0.1-0.1-0.1-0.1-0.1-0.2v-1c0-0.1,0-0.2,0.1-0.2c0.1,0,0.1-0.1,0.2-0.1h6.9c0.1,0,0.2,0,0.2,0.1s0.1,0.1,0.1,0.2
			v1c0,0.1,0,0.1-0.1,0.2c0,0.1-0.1,0.1-0.2,0.1H319C319,1423.4,318.9,1423.4,318.8,1423.3z M327.8,1432.9c-0.1-0.1-0.1-0.1-0.1-0.2
			v-19.8c0-0.1,0-0.2,0.1-0.2c0.1,0,0.1-0.1,0.2-0.1h1.1c0.1,0,0.2,0,0.2,0.1c0,0.1,0.1,0.1,0.1,0.2v19.8c0,0.1,0,0.1-0.1,0.2
			c-0.1,0.1-0.1,0.1-0.2,0.1H328C327.9,1433,327.9,1432.9,327.8,1432.9z"/>
	</g>
	<g class="st1">
		<path d="M360.7,1414.1c-0.1-0.1-0.1-0.1-0.1-0.2v-1c0-0.1,0-0.2,0.1-0.2c0.1,0,0.1-0.1,0.2-0.1h13.8c0.1,0,0.2,0,0.2,0.1
			c0,0.1,0.1,0.1,0.1,0.2v1c0,0.1,0,0.2-0.1,0.2c-0.1,0.1-0.1,0.1-0.2,0.1h-13.8C360.9,1414.2,360.8,1414.1,360.7,1414.1z
			 M367.1,1432.9c-0.1-0.1-0.1-0.1-0.1-0.2V1416c0-0.1,0-0.2,0.1-0.2c0.1,0,0.1-0.1,0.2-0.1h1.1c0.1,0,0.2,0,0.2,0.1
			s0.1,0.1,0.1,0.2v16.7c0,0.1,0,0.1-0.1,0.2c0,0.1-0.1,0.1-0.2,0.1h-1.1C367.2,1433,367.1,1432.9,367.1,1432.9z"/>
	</g>
	<g class="st1">
		<path d="M410.1,1432.9c-0.1-0.1-0.1-0.1-0.1-0.2v-19.8c0-0.1,0-0.2,0.1-0.2c0.1,0,0.1-0.1,0.2-0.1h1.1c0.1,0,0.2,0,0.2,0.1
			c0,0.1,0.1,0.1,0.1,0.2v19.8c0,0.1,0,0.1-0.1,0.2c0,0.1-0.1,0.1-0.2,0.1h-1.1C410.3,1433,410.2,1432.9,410.1,1432.9z
			 M413.4,1414.1c-0.1-0.1-0.1-0.1-0.1-0.2v-1c0-0.1,0-0.2,0.1-0.2c0.1,0,0.1-0.1,0.2-0.1h8.4c0.1,0,0.2,0,0.2,0.1
			c0,0.1,0.1,0.1,0.1,0.2v1c0,0.1,0,0.2-0.1,0.2c0,0.1-0.1,0.1-0.2,0.1h-8.4C413.6,1414.2,413.5,1414.1,413.4,1414.1z M413.4,1423.3
			c-0.1-0.1-0.1-0.1-0.1-0.2v-1c0-0.1,0-0.2,0.1-0.2s0.1-0.1,0.2-0.1h7c0.1,0,0.2,0,0.2,0.1c0,0,0.1,0.1,0.1,0.2v1
			c0,0.1,0,0.1-0.1,0.2c-0.1,0.1-0.1,0.1-0.2,0.1h-7C413.6,1423.4,413.5,1423.4,413.4,1423.3z M413.4,1432.9
			c-0.1-0.1-0.1-0.1-0.1-0.2v-1c0-0.1,0-0.2,0.1-0.2s0.1-0.1,0.2-0.1h8.4c0.1,0,0.2,0,0.2,0.1s0.1,0.1,0.1,0.2v1
			c0,0.1,0,0.1-0.1,0.2c0,0.1-0.1,0.1-0.2,0.1h-8.4C413.6,1433,413.5,1432.9,413.4,1432.9z"/>
	</g>
	<g class="st1">
		<path d="M457.4,1432.9c-0.1-0.1-0.1-0.1-0.1-0.2v-19.8c0-0.1,0-0.2,0.1-0.2c0.1,0,0.1-0.1,0.2-0.1h1.1c0.1,0,0.2,0,0.2,0.1
			c0,0.1,0.1,0.1,0.1,0.2v19.8c0,0.1,0,0.1-0.1,0.2c0,0.1-0.1,0.1-0.2,0.1h-1.1C457.5,1433,457.4,1432.9,457.4,1432.9z
			 M460.7,1432.9c-0.1-0.1-0.1-0.1-0.1-0.2v-1c0-0.1,0-0.2,0.1-0.2s0.1-0.1,0.2-0.1h8.4c0.1,0,0.2,0,0.2,0.1s0.1,0.1,0.1,0.2v1
			c0,0.1,0,0.1-0.1,0.2c0,0.1-0.1,0.1-0.2,0.1h-8.4C460.8,1433,460.7,1432.9,460.7,1432.9z"/>
	</g>
	<g class="st1">
		<path d="M504.6,1432.9c-0.1-0.1-0.1-0.1-0.1-0.2v-19.8c0-0.1,0-0.2,0.1-0.2c0.1,0,0.1-0.1,0.2-0.1h1.1c0.1,0,0.2,0,0.2,0.1
			c0,0.1,0.1,0.1,0.1,0.2v19.8c0,0.1,0,0.1-0.1,0.2c0,0.1-0.1,0.1-0.2,0.1h-1.1C504.8,1433,504.7,1432.9,504.6,1432.9z
			 M507.9,1414.1c-0.1-0.1-0.1-0.1-0.1-0.2v-1c0-0.1,0-0.2,0.1-0.2c0.1,0,0.1-0.1,0.2-0.1h8.4c0.1,0,0.2,0,0.2,0.1
			c0,0.1,0.1,0.1,0.1,0.2v1c0,0.1,0,0.2-0.1,0.2c0,0.1-0.1,0.1-0.2,0.1h-8.4C508.1,1414.2,508,1414.1,507.9,1414.1z M507.9,1423.3
			c-0.1-0.1-0.1-0.1-0.1-0.2v-1c0-0.1,0-0.2,0.1-0.2s0.1-0.1,0.2-0.1h7c0.1,0,0.2,0,0.2,0.1c0,0,0.1,0.1,0.1,0.2v1
			c0,0.1,0,0.1-0.1,0.2c-0.1,0.1-0.1,0.1-0.2,0.1h-7C508.1,1423.4,508,1423.4,507.9,1423.3z M507.9,1432.9c-0.1-0.1-0.1-0.1-0.1-0.2
			v-1c0-0.1,0-0.2,0.1-0.2s0.1-0.1,0.2-0.1h8.4c0.1,0,0.2,0,0.2,0.1s0.1,0.1,0.1,0.2v1c0,0.1,0,0.1-0.1,0.2c0,0.1-0.1,0.1-0.2,0.1
			h-8.4C508.1,1433,508,1432.9,507.9,1432.9z"/>
	</g>
	<g class="st1">
		<path d="M556.5,1432.7l-6.8-19.7l-0.1-0.2c0-0.1,0-0.1,0.1-0.2c0,0,0.1-0.1,0.2-0.1h1.1c0.1,0,0.2,0,0.3,0.1
			c0.1,0,0.1,0.1,0.1,0.2l6.7,19.6c0,0.1,0.1,0.2,0.1,0.3c0,0.2-0.1,0.3-0.3,0.3h-1C556.7,1433,556.6,1432.9,556.5,1432.7z
			 M558.2,1428.4c0,0,0-0.1,0-0.2c0-0.1,0-0.2,0.1-0.3l5-15c0-0.1,0.1-0.2,0.2-0.2c0.1,0,0.1-0.1,0.3-0.1h1.1c0.1,0,0.2,0,0.2,0.1
			c0,0.1,0,0.2,0,0.3l-5.8,17c0,0.1,0,0.1-0.1,0.2s-0.1,0.1-0.1,0.1c-0.1,0-0.1-0.1-0.2-0.2L558.2,1428.4z"/>
	</g>
	<g class="st1">
		<path d="M599.1,1432.9c-0.1-0.1-0.1-0.1-0.1-0.2v-19.8c0-0.1,0-0.2,0.1-0.2c0.1,0,0.1-0.1,0.2-0.1h1.1c0.1,0,0.2,0,0.2,0.1
			c0,0.1,0.1,0.1,0.1,0.2v19.8c0,0.1,0,0.1-0.1,0.2c0,0.1-0.1,0.1-0.2,0.1h-1.1C599.2,1433,599.2,1432.9,599.1,1432.9z
			 M602.4,1414.1c-0.1-0.1-0.1-0.1-0.1-0.2v-1c0-0.1,0-0.2,0.1-0.2c0.1,0,0.1-0.1,0.2-0.1h8.4c0.1,0,0.2,0,0.2,0.1
			c0,0.1,0.1,0.1,0.1,0.2v1c0,0.1,0,0.2-0.1,0.2c0,0.1-0.1,0.1-0.2,0.1h-8.4C602.5,1414.2,602.5,1414.1,602.4,1414.1z M602.4,1423.3
			c-0.1-0.1-0.1-0.1-0.1-0.2v-1c0-0.1,0-0.2,0.1-0.2s0.1-0.1,0.2-0.1h7c0.1,0,0.2,0,0.2,0.1c0,0,0.1,0.1,0.1,0.2v1
			c0,0.1,0,0.1-0.1,0.2c-0.1,0.1-0.1,0.1-0.2,0.1h-7C602.5,1423.4,602.5,1423.4,602.4,1423.3z M602.4,1432.9
			c-0.1-0.1-0.1-0.1-0.1-0.2v-1c0-0.1,0-0.2,0.1-0.2s0.1-0.1,0.2-0.1h8.4c0.1,0,0.2,0,0.2,0.1s0.1,0.1,0.1,0.2v1
			c0,0.1,0,0.1-0.1,0.2c0,0.1-0.1,0.1-0.2,0.1h-8.4C602.5,1433,602.5,1432.9,602.4,1432.9z"/>
	</g>
	<g class="st1">
		<path d="M658.6,1432.9c-0.1,0-0.2-0.1-0.2-0.2l-11.9-19.4c-0.1-0.1-0.1-0.2-0.1-0.4c0-0.2,0.1-0.3,0.3-0.3h1c0.1,0,0.2,0,0.3,0.1
			c0.1,0,0.1,0.1,0.2,0.2l12,19.5c0,0.1,0.1,0.1,0.1,0.2c0,0.1,0,0.1,0,0.2c0,0.1-0.1,0.2-0.3,0.2h-1
			C658.7,1433,658.6,1432.9,658.6,1432.9z M646.4,1432.9c-0.1-0.1-0.1-0.1-0.1-0.2v-16.2c0-0.2,0-0.2,0.1-0.2c0.1,0,0.2,0,0.2,0.2
			l1.2,1.9c0.1,0.1,0.1,0.2,0.1,0.4v14c0,0.1,0,0.1-0.1,0.2c-0.1,0.1-0.1,0.1-0.2,0.1h-1C646.5,1433,646.4,1432.9,646.4,1432.9z
			 M658.6,1427.2c-0.1-0.1-0.1-0.2-0.1-0.4v-13.9c0-0.1,0-0.2,0.1-0.2c0.1,0,0.1-0.1,0.2-0.1h1c0.1,0,0.2,0,0.2,0.1
			c0,0.1,0.1,0.1,0.1,0.2v16.1c0,0.2,0,0.2-0.2,0.2c-0.1,0-0.1,0-0.2-0.2L658.6,1427.2z"/>
	</g>
	<g class="st1">
		<path d="M175.5,1484.8c-1-0.4-1.9-0.9-2.5-1.5c-0.1-0.1-0.1-0.1-0.1-0.2c0-0.1,0-0.2,0.1-0.2l0.7-0.8c0.1-0.1,0.3-0.2,0.4,0
			c0.6,0.5,1.3,0.9,2.1,1.3s1.7,0.6,2.6,0.7c0.2,0,0.3,0.1,0.3,0.3v1c0,0.1,0,0.2-0.1,0.2c-0.1,0-0.1,0.1-0.2,0
			C177.6,1485.5,176.5,1485.3,175.5,1484.8z M180.9,1485.6c-0.1,0-0.1,0-0.2-0.1s-0.1-0.1-0.1-0.2v-1c0-0.2,0.1-0.3,0.3-0.3
			c1.3-0.1,2.4-0.6,3.1-1.3s1.1-1.7,1.1-2.8c0-1.1-0.4-2-1.1-2.7c-0.7-0.7-2-1.1-3.8-1.3l-1-0.1c-2-0.3-3.4-0.8-4.4-1.8
			c-1-0.9-1.5-2.1-1.5-3.6c0-1,0.2-2,0.6-2.8c0.4-0.8,1-1.5,1.8-2c0.8-0.5,1.7-0.8,2.8-0.9h0.1c0.1,0,0.1,0,0.2,0.1
			c0,0.1,0.1,0.1,0.1,0.2v1c0,0.2-0.1,0.3-0.3,0.3c-1.1,0.2-2,0.6-2.6,1.3c-0.6,0.7-0.9,1.6-0.9,2.6c0,1.1,0.4,2,1.1,2.6
			c0.8,0.7,2,1.1,3.7,1.3l1,0.1c2,0.3,3.5,0.8,4.4,1.8s1.4,2.1,1.4,3.7c0,1.1-0.2,2-0.7,2.8c-0.5,0.8-1.1,1.5-2,2
			C183.4,1485.2,182.3,1485.5,180.9,1485.6L180.9,1485.6z M180.9,1466.4c-0.2,0-0.3-0.2-0.3-0.3v-1c0-0.1,0-0.2,0.1-0.2
			s0.1-0.1,0.2,0c0.9,0.1,1.8,0.3,2.6,0.5c0.8,0.3,1.5,0.6,2.1,1.1c0.2,0.1,0.2,0.3,0.1,0.4l-0.6,0.9c-0.1,0.1-0.3,0.2-0.4,0.1
			C183.5,1467,182.2,1466.5,180.9,1466.4z"/>
	</g>
	<g class="st1">
		<path d="M221.2,1485.3c-0.1-0.1-0.1-0.1-0.1-0.2v-19.8c0-0.1,0-0.2,0.1-0.2c0.1,0,0.1-0.1,0.2-0.1h1.1c0.1,0,0.2,0,0.2,0.1
			c0,0.1,0.1,0.1,0.1,0.2v19.8c0,0.1,0,0.1-0.1,0.2c-0.1,0.1-0.1,0.1-0.2,0.1h-1.1C221.3,1485.4,221.2,1485.4,221.2,1485.3z
			 M224.5,1466.5c-0.1-0.1-0.1-0.1-0.1-0.2v-1c0-0.1,0-0.2,0.1-0.2c0.1,0,0.1-0.1,0.2-0.1h8.4c0.1,0,0.2,0,0.2,0.1
			c0,0.1,0.1,0.1,0.1,0.2v1c0,0.1,0,0.2-0.1,0.2c-0.1,0.1-0.1,0.1-0.2,0.1h-8.4C224.6,1466.6,224.5,1466.6,224.5,1466.5z
			 M224.5,1475.8c-0.1-0.1-0.1-0.1-0.1-0.2v-1c0-0.1,0-0.2,0.1-0.2s0.1-0.1,0.2-0.1h7c0.1,0,0.2,0,0.2,0.1c0,0,0.1,0.1,0.1,0.2v1
			c0,0.1,0,0.1-0.1,0.2c-0.1,0.1-0.1,0.1-0.2,0.1h-7C224.6,1475.9,224.5,1475.8,224.5,1475.8z M224.5,1485.3
			c-0.1-0.1-0.1-0.1-0.1-0.2v-1c0-0.1,0-0.2,0.1-0.2s0.1-0.1,0.2-0.1h8.4c0.1,0,0.2,0,0.2,0.1c0,0,0.1,0.1,0.1,0.2v1
			c0,0.1,0,0.1-0.1,0.2c-0.1,0.1-0.1,0.1-0.2,0.1h-8.4C224.6,1485.4,224.5,1485.4,224.5,1485.3z"/>
	</g>
	<g class="st1">
		<path d="M273.1,1485.1l-6.8-19.7l-0.1-0.2c0-0.1,0-0.1,0.1-0.2c0,0,0.1-0.1,0.2-0.1h1c0.1,0,0.2,0,0.3,0.1c0.1,0,0.1,0.1,0.1,0.2
			l6.7,19.6c0,0.1,0.1,0.2,0.1,0.3c0,0.2-0.1,0.3-0.3,0.3h-1C273.2,1485.4,273.1,1485.3,273.1,1485.1z M274.8,1480.8
			c0,0,0-0.1,0-0.2c0-0.1,0-0.2,0.1-0.3l5-15c0-0.1,0.1-0.2,0.1-0.2s0.1-0.1,0.3-0.1h1.1c0.1,0,0.2,0,0.2,0.1c0,0.1,0,0.2,0,0.3
			l-5.8,17c0,0.1,0,0.1-0.1,0.2s-0.1,0.1-0.1,0.1c-0.1,0-0.1-0.1-0.2-0.2L274.8,1480.8z"/>
	</g>
	<g class="st1">
		<path d="M315.6,1485.3c-0.1-0.1-0.1-0.1-0.1-0.2v-19.8c0-0.1,0-0.2,0.1-0.2c0.1,0,0.1-0.1,0.2-0.1h1.1c0.1,0,0.2,0,0.2,0.1
			c0,0.1,0.1,0.1,0.1,0.2v19.8c0,0.1,0,0.1-0.1,0.2c0,0.1-0.1,0.1-0.2,0.1h-1.1C315.8,1485.4,315.7,1485.4,315.6,1485.3z
			 M318.9,1466.5c-0.1-0.1-0.1-0.1-0.1-0.2v-1c0-0.1,0-0.2,0.1-0.2c0.1,0,0.1-0.1,0.2-0.1h8.4c0.1,0,0.2,0,0.2,0.1
			c0,0.1,0.1,0.1,0.1,0.2v1c0,0.1,0,0.2-0.1,0.2c0,0.1-0.1,0.1-0.2,0.1h-8.4C319.1,1466.6,319,1466.6,318.9,1466.5z M318.9,1475.8
			c-0.1-0.1-0.1-0.1-0.1-0.2v-1c0-0.1,0-0.2,0.1-0.2s0.1-0.1,0.2-0.1h7c0.1,0,0.2,0,0.2,0.1c0,0,0.1,0.1,0.1,0.2v1
			c0,0.1,0,0.1-0.1,0.2c-0.1,0.1-0.1,0.1-0.2,0.1h-7C319.1,1475.9,319,1475.8,318.9,1475.8z M318.9,1485.3c-0.1-0.1-0.1-0.1-0.1-0.2
			v-1c0-0.1,0-0.2,0.1-0.2s0.1-0.1,0.2-0.1h8.4c0.1,0,0.2,0,0.2,0.1s0.1,0.1,0.1,0.2v1c0,0.1,0,0.1-0.1,0.2c0,0.1-0.1,0.1-0.2,0.1
			h-8.4C319.1,1485.4,319,1485.4,318.9,1485.3z"/>
	</g>
	<g class="st1">
		<path d="M375.1,1485.3c-0.1,0-0.2-0.1-0.2-0.2l-11.9-19.4c-0.1-0.1-0.1-0.2-0.1-0.4c0-0.2,0.1-0.3,0.3-0.3h1c0.1,0,0.2,0,0.3,0.1
			c0.1,0,0.1,0.1,0.2,0.2l12,19.5c0,0.1,0.1,0.1,0.1,0.2c0,0.1,0,0.1,0,0.2c0,0.1-0.1,0.2-0.3,0.2h-1
			C375.3,1485.4,375.2,1485.4,375.1,1485.3z M362.9,1485.3c-0.1-0.1-0.1-0.1-0.1-0.2v-16.2c0-0.2,0-0.2,0.1-0.2c0.1,0,0.2,0,0.2,0.2
			l1.2,1.9c0.1,0.1,0.1,0.2,0.1,0.4v14c0,0.1,0,0.1-0.1,0.2c-0.1,0.1-0.1,0.1-0.2,0.1h-1C363,1485.4,363,1485.4,362.9,1485.3z
			 M375.2,1479.6c-0.1-0.1-0.1-0.2-0.1-0.4v-13.9c0-0.1,0-0.2,0.1-0.2c0.1,0,0.1-0.1,0.2-0.1h1c0.1,0,0.2,0,0.2,0.1
			c0,0.1,0.1,0.1,0.1,0.2v16.1c0,0.2,0,0.2-0.2,0.2c-0.1,0-0.1,0-0.2-0.2L375.2,1479.6z"/>
	</g>
	<g class="st1">
		<path d="M408,1466.5c-0.1-0.1-0.1-0.1-0.1-0.2v-1c0-0.1,0-0.2,0.1-0.2c0.1,0,0.1-0.1,0.2-0.1H422c0.1,0,0.2,0,0.2,0.1
			c0,0.1,0.1,0.1,0.1,0.2v1c0,0.1,0,0.2-0.1,0.2c-0.1,0.1-0.1,0.1-0.2,0.1h-13.8C408.1,1466.6,408,1466.6,408,1466.5z M414.3,1485.3
			c-0.1-0.1-0.1-0.1-0.1-0.2v-16.7c0-0.1,0-0.2,0.1-0.2c0.1,0,0.1-0.1,0.2-0.1h1.1c0.1,0,0.2,0,0.2,0.1s0.1,0.1,0.1,0.2v16.7
			c0,0.1,0,0.1-0.1,0.2c0,0.1-0.1,0.1-0.2,0.1h-1.1C414.4,1485.4,414.4,1485.4,414.3,1485.3z"/>
	</g>
	<g class="st1">
		<path d="M460.4,1485.3c-0.1,0-0.1-0.1-0.1-0.2l-4.9-19.8l0-0.1c0-0.1,0-0.1,0.1-0.1s0.1-0.1,0.2-0.1h1.1c0.1,0,0.2,0,0.3,0.1
			c0.1,0,0.1,0.1,0.1,0.2l4.7,19.6c0,0.1,0,0.1,0,0.2c0,0.2-0.1,0.3-0.3,0.3h-1C460.5,1485.4,460.5,1485.4,460.4,1485.3z
			 M471.7,1485.3c0,0-0.1-0.1-0.1-0.2l-4.8-16.8h-0.1l-3.9,13.6c0,0.1,0,0.1-0.1,0.2s-0.1,0.1-0.1,0.1c-0.1,0-0.1-0.1-0.2-0.2
			l-0.5-2.1c0-0.1,0-0.2,0-0.4l3.9-14.1c0-0.1,0.1-0.2,0.1-0.2c0,0,0.1-0.1,0.2-0.1h0.9c0.1,0,0.2,0,0.2,0.1c0,0.1,0.1,0.1,0.1,0.2
			l5.5,19.6l0,0.2c0,0.2-0.1,0.3-0.3,0.3h-1C471.8,1485.4,471.7,1485.4,471.7,1485.3z M473,1479.8c0-0.2-0.1-0.3,0-0.4l3.3-14.1
			c0-0.1,0.1-0.2,0.1-0.2c0.1,0,0.1-0.1,0.3-0.1h1c0.1,0,0.2,0,0.2,0.1c0,0.1,0,0.1,0,0.2l-4,16.5c0,0.1,0,0.1-0.1,0.2
			s-0.1,0.1-0.1,0.1c-0.1,0-0.1-0.1-0.2-0.2L473,1479.8z"/>
	</g>
	<g class="st1">
		<path d="M504.6,1485.3c-0.1-0.1-0.1-0.1-0.1-0.2v-19.8c0-0.1,0-0.2,0.1-0.2c0.1,0,0.1-0.1,0.2-0.1h1.1c0.1,0,0.2,0,0.2,0.1
			c0,0.1,0.1,0.1,0.1,0.2v19.8c0,0.1,0,0.1-0.1,0.2c0,0.1-0.1,0.1-0.2,0.1h-1.1C504.8,1485.4,504.7,1485.4,504.6,1485.3z
			 M507.9,1466.5c-0.1-0.1-0.1-0.1-0.1-0.2v-1c0-0.1,0-0.2,0.1-0.2c0.1,0,0.1-0.1,0.2-0.1h8.4c0.1,0,0.2,0,0.2,0.1
			c0,0.1,0.1,0.1,0.1,0.2v1c0,0.1,0,0.2-0.1,0.2c0,0.1-0.1,0.1-0.2,0.1h-8.4C508.1,1466.6,508,1466.6,507.9,1466.5z M507.9,1475.8
			c-0.1-0.1-0.1-0.1-0.1-0.2v-1c0-0.1,0-0.2,0.1-0.2s0.1-0.1,0.2-0.1h7c0.1,0,0.2,0,0.2,0.1c0,0,0.1,0.1,0.1,0.2v1
			c0,0.1,0,0.1-0.1,0.2c-0.1,0.1-0.1,0.1-0.2,0.1h-7C508.1,1475.9,508,1475.8,507.9,1475.8z M507.9,1485.3c-0.1-0.1-0.1-0.1-0.1-0.2
			v-1c0-0.1,0-0.2,0.1-0.2s0.1-0.1,0.2-0.1h8.4c0.1,0,0.2,0,0.2,0.1s0.1,0.1,0.1,0.2v1c0,0.1,0,0.1-0.1,0.2c0,0.1-0.1,0.1-0.2,0.1
			h-8.4C508.1,1485.4,508,1485.4,507.9,1485.3z"/>
	</g>
	<g class="st1">
		<path d="M551.9,1485.3c-0.1-0.1-0.1-0.1-0.1-0.2v-19.8c0-0.1,0-0.2,0.1-0.2c0.1,0,0.1-0.1,0.2-0.1h1.1c0.1,0,0.2,0,0.2,0.1
			c0,0.1,0.1,0.1,0.1,0.2v19.8c0,0.1,0,0.1-0.1,0.2c0,0.1-0.1,0.1-0.2,0.1h-1.1C552,1485.4,551.9,1485.4,551.9,1485.3z
			 M555.2,1485.3c-0.1-0.1-0.1-0.1-0.1-0.2v-1c0-0.1,0-0.2,0.1-0.2s0.1-0.1,0.2-0.1h8.4c0.1,0,0.2,0,0.2,0.1s0.1,0.1,0.1,0.2v1
			c0,0.1,0,0.1-0.1,0.2c0,0.1-0.1,0.1-0.2,0.1h-8.4C555.3,1485.4,555.2,1485.4,555.2,1485.3z"/>
	</g>
	<g class="st1">
		<path d="M603.8,1485.1l-6.8-19.7l-0.1-0.2c0-0.1,0-0.1,0.1-0.2c0,0,0.1-0.1,0.2-0.1h1.1c0.1,0,0.2,0,0.3,0.1
			c0.1,0,0.1,0.1,0.1,0.2l6.7,19.6c0,0.1,0.1,0.2,0.1,0.3c0,0.2-0.1,0.3-0.3,0.3h-1C603.9,1485.4,603.8,1485.3,603.8,1485.1z
			 M605.5,1480.8c0,0,0-0.1,0-0.2c0-0.1,0-0.2,0.1-0.3l5-15c0-0.1,0.1-0.2,0.2-0.2c0.1,0,0.1-0.1,0.3-0.1h1.1c0.1,0,0.2,0,0.2,0.1
			c0,0.1,0,0.2,0,0.3l-5.8,17c0,0.1,0,0.1-0.1,0.2s-0.1,0.1-0.1,0.1c-0.1,0-0.1-0.1-0.2-0.2L605.5,1480.8z"/>
	</g>
	<g class="st1">
		<path d="M646.4,1485.3c-0.1-0.1-0.1-0.1-0.1-0.2v-19.8c0-0.1,0-0.2,0.1-0.2c0.1,0,0.1-0.1,0.2-0.1h1.1c0.1,0,0.2,0,0.2,0.1
			c0,0.1,0.1,0.1,0.1,0.2v19.8c0,0.1,0,0.1-0.1,0.2c0,0.1-0.1,0.1-0.2,0.1h-1.1C646.5,1485.4,646.4,1485.4,646.4,1485.3z
			 M649.7,1466.5c-0.1-0.1-0.1-0.1-0.1-0.2v-1c0-0.1,0-0.2,0.1-0.2c0.1,0,0.1-0.1,0.2-0.1h8.4c0.1,0,0.2,0,0.2,0.1
			c0,0.1,0.1,0.1,0.1,0.2v1c0,0.1,0,0.2-0.1,0.2c0,0.1-0.1,0.1-0.2,0.1h-8.4C649.8,1466.6,649.7,1466.6,649.7,1466.5z M649.7,1475.8
			c-0.1-0.1-0.1-0.1-0.1-0.2v-1c0-0.1,0-0.2,0.1-0.2s0.1-0.1,0.2-0.1h7c0.1,0,0.2,0,0.2,0.1c0,0,0.1,0.1,0.1,0.2v1
			c0,0.1,0,0.1-0.1,0.2c-0.1,0.1-0.1,0.1-0.2,0.1h-7C649.8,1475.9,649.7,1475.8,649.7,1475.8z M649.7,1485.3
			c-0.1-0.1-0.1-0.1-0.1-0.2v-1c0-0.1,0-0.2,0.1-0.2s0.1-0.1,0.2-0.1h8.4c0.1,0,0.2,0,0.2,0.1s0.1,0.1,0.1,0.2v1
			c0,0.1,0,0.1-0.1,0.2c0,0.1-0.1,0.1-0.2,0.1h-8.4C649.8,1485.4,649.7,1485.4,649.7,1485.3z"/>
	</g>
	<g class="st1">
		<path d="M171.8,1518.9c-0.1-0.1-0.1-0.1-0.1-0.2v-1c0-0.1,0-0.2,0.1-0.2c0.1,0,0.1-0.1,0.2-0.1h13.8c0.1,0,0.2,0,0.2,0.1
			c0,0.1,0.1,0.1,0.1,0.2v1c0,0.1,0,0.2-0.1,0.2c0,0.1-0.1,0.1-0.2,0.1H172C171.9,1519,171.8,1519,171.8,1518.9z M178.1,1537.8
			c-0.1-0.1-0.1-0.1-0.1-0.2v-16.7c0-0.1,0-0.2,0.1-0.2s0.1-0.1,0.2-0.1h1.1c0.1,0,0.2,0,0.2,0.1c0,0,0.1,0.1,0.1,0.2v16.7
			c0,0.1,0,0.1-0.1,0.2c-0.1,0.1-0.1,0.1-0.2,0.1h-1.1C178.2,1537.8,178.1,1537.8,178.1,1537.8z"/>
	</g>
	<g class="st1">
		<path d="M221.2,1537.8c-0.1-0.1-0.1-0.1-0.1-0.2v-19.8c0-0.1,0-0.2,0.1-0.2c0.1,0,0.1-0.1,0.2-0.1h1.1c0.1,0,0.2,0,0.2,0.1
			c0,0.1,0.1,0.1,0.1,0.2v19.8c0,0.1,0,0.1-0.1,0.2c-0.1,0.1-0.1,0.1-0.2,0.1h-1.1C221.3,1537.8,221.2,1537.8,221.2,1537.8z
			 M224.5,1518.9c-0.1-0.1-0.1-0.1-0.1-0.2v-1c0-0.1,0-0.2,0.1-0.2c0.1,0,0.1-0.1,0.2-0.1h8.4c0.1,0,0.2,0,0.2,0.1
			c0,0.1,0.1,0.1,0.1,0.2v1c0,0.1,0,0.2-0.1,0.2c-0.1,0.1-0.1,0.1-0.2,0.1h-8.4C224.6,1519,224.5,1519,224.5,1518.9z M224.5,1528.2
			c-0.1-0.1-0.1-0.1-0.1-0.2v-1c0-0.1,0-0.2,0.1-0.2s0.1-0.1,0.2-0.1h7c0.1,0,0.2,0,0.2,0.1c0,0,0.1,0.1,0.1,0.2v1
			c0,0.1,0,0.1-0.1,0.2c-0.1,0.1-0.1,0.1-0.2,0.1h-7C224.6,1528.3,224.5,1528.3,224.5,1528.2z M224.5,1537.8
			c-0.1-0.1-0.1-0.1-0.1-0.2v-1c0-0.1,0-0.2,0.1-0.2s0.1-0.1,0.2-0.1h8.4c0.1,0,0.2,0,0.2,0.1c0,0,0.1,0.1,0.1,0.2v1
			c0,0.1,0,0.1-0.1,0.2c-0.1,0.1-0.1,0.1-0.2,0.1h-8.4C224.6,1537.8,224.5,1537.8,224.5,1537.8z"/>
	</g>
	<g class="st1">
		<path d="M280.6,1537.8c-0.1,0-0.2-0.1-0.2-0.2l-11.9-19.4c-0.1-0.1-0.1-0.2-0.1-0.4c0-0.2,0.1-0.3,0.3-0.3h1c0.1,0,0.2,0,0.3,0.1
			c0.1,0,0.1,0.1,0.2,0.2l12,19.5c0,0.1,0.1,0.1,0.1,0.2c0,0.1,0,0.1,0,0.2c0,0.1-0.1,0.2-0.3,0.2h-1
			C280.8,1537.8,280.7,1537.8,280.6,1537.8z M268.4,1537.8c-0.1-0.1-0.1-0.1-0.1-0.2v-16.2c0-0.2,0-0.2,0.2-0.2c0.1,0,0.2,0,0.2,0.2
			l1.2,1.9c0.1,0.1,0.1,0.2,0.1,0.4v14c0,0.1,0,0.1-0.1,0.2c-0.1,0.1-0.1,0.1-0.2,0.1h-1C268.5,1537.8,268.5,1537.8,268.4,1537.8z
			 M280.7,1532.1c-0.1-0.1-0.1-0.2-0.1-0.4v-13.9c0-0.1,0-0.2,0.1-0.2c0.1,0,0.1-0.1,0.2-0.1h1c0.1,0,0.2,0,0.2,0.1
			c0,0.1,0.1,0.1,0.1,0.2v16.1c0,0.2-0.1,0.2-0.1,0.2c-0.1,0-0.1,0-0.2-0.2L280.7,1532.1z"/>
	</g>
	<g class="st1">
		<path d="M317.2,1537.3c-1.1-0.4-1.9-0.9-2.5-1.5c-0.1-0.1-0.1-0.1-0.1-0.2s0-0.2,0.1-0.2l0.7-0.8c0.1-0.1,0.3-0.2,0.4,0
			c0.6,0.5,1.3,0.9,2.1,1.3c0.8,0.4,1.7,0.6,2.6,0.7c0.2,0,0.3,0.1,0.3,0.3v1c0,0.1,0,0.2-0.1,0.2c-0.1,0-0.1,0.1-0.2,0
			C319.4,1538,318.3,1537.7,317.2,1537.3z M322.7,1538.1c-0.1,0-0.1,0-0.2-0.1c-0.1,0-0.1-0.1-0.1-0.2v-1c0-0.2,0.1-0.3,0.3-0.3
			c1.3-0.1,2.3-0.6,3.1-1.3s1.1-1.7,1.1-2.8c0-1.1-0.4-2-1.1-2.7c-0.7-0.7-2-1.1-3.8-1.3l-1-0.1c-2-0.3-3.4-0.8-4.4-1.8
			c-1-0.9-1.5-2.1-1.5-3.6c0-1,0.2-2,0.6-2.8c0.4-0.8,1-1.5,1.8-2s1.7-0.8,2.8-0.9h0.1c0.1,0,0.1,0,0.2,0.1c0,0.1,0.1,0.1,0.1,0.2v1
			c0,0.2-0.1,0.3-0.3,0.3c-1.1,0.2-2,0.6-2.6,1.3c-0.6,0.7-0.9,1.6-0.9,2.6c0,1.1,0.4,2,1.1,2.6c0.8,0.7,2,1.1,3.7,1.3l1,0.1
			c2,0.3,3.5,0.8,4.4,1.8s1.4,2.1,1.4,3.7c0,1.1-0.2,2-0.7,2.8c-0.4,0.8-1.1,1.5-2,2C325.1,1537.6,324,1538,322.7,1538.1
			L322.7,1538.1z M322.7,1518.8c-0.2,0-0.3-0.2-0.3-0.3v-1c0-0.1,0-0.2,0.1-0.2s0.1-0.1,0.2,0c0.9,0.1,1.8,0.3,2.6,0.5
			s1.5,0.6,2.1,1.1c0.2,0.1,0.2,0.3,0.1,0.4l-0.6,0.9c-0.1,0.1-0.3,0.2-0.4,0.1C325.2,1519.4,323.9,1518.9,322.7,1518.8z"/>
	</g>
	<g class="st1">
		<path d="M362.9,1537.8c-0.1-0.1-0.1-0.1-0.1-0.2v-19.8c0-0.1,0-0.2,0.1-0.2c0.1,0,0.1-0.1,0.2-0.1h1.1c0.1,0,0.2,0,0.2,0.1
			c0,0.1,0.1,0.1,0.1,0.2v19.8c0,0.1,0,0.1-0.1,0.2c0,0.1-0.1,0.1-0.2,0.1h-1.1C363,1537.8,363,1537.8,362.9,1537.8z M366.2,1518.9
			c-0.1-0.1-0.1-0.1-0.1-0.2v-1c0-0.1,0-0.2,0.1-0.2c0.1,0,0.1-0.1,0.2-0.1h8.4c0.1,0,0.2,0,0.2,0.1c0,0.1,0.1,0.1,0.1,0.2v1
			c0,0.1,0,0.2-0.1,0.2c0,0.1-0.1,0.1-0.2,0.1h-8.4C366.3,1519,366.3,1519,366.2,1518.9z M366.2,1528.2c-0.1-0.1-0.1-0.1-0.1-0.2v-1
			c0-0.1,0-0.2,0.1-0.2s0.1-0.1,0.2-0.1h7c0.1,0,0.2,0,0.2,0.1c0,0,0.1,0.1,0.1,0.2v1c0,0.1,0,0.1-0.1,0.2c-0.1,0.1-0.1,0.1-0.2,0.1
			h-7C366.3,1528.3,366.3,1528.3,366.2,1528.2z M366.2,1537.8c-0.1-0.1-0.1-0.1-0.1-0.2v-1c0-0.1,0-0.2,0.1-0.2s0.1-0.1,0.2-0.1h8.4
			c0.1,0,0.2,0,0.2,0.1s0.1,0.1,0.1,0.2v1c0,0.1,0,0.1-0.1,0.2c0,0.1-0.1,0.1-0.2,0.1h-8.4C366.3,1537.8,366.3,1537.8,366.2,1537.8z
			"/>
	</g>
	<g class="st1">
		<path d="M411.8,1536.7c-0.9-0.8-1.6-1.8-2-3.1c-0.2-0.6-0.3-1.3-0.4-2.1c-0.1-0.9-0.1-2.1-0.1-3.8c0-1.7,0-2.9,0.1-3.8
			s0.2-1.6,0.4-2.1c0.4-1.3,1.1-2.4,2-3.1s2.1-1.2,3.4-1.4h0.1c0.1,0,0.1,0,0.2,0.1c0,0.1,0.1,0.1,0.1,0.2v1c0,0.2-0.1,0.3-0.3,0.3
			c-1.9,0.3-3.2,1.5-3.9,3.4c-0.2,0.5-0.3,1.1-0.4,1.9s-0.1,2-0.1,3.5c0,1.5,0,2.7,0.1,3.5s0.2,1.5,0.4,1.9c0.6,1.9,1.9,3.1,3.9,3.4
			c0.2,0,0.3,0.1,0.3,0.3v1c0,0.1,0,0.2-0.1,0.2c-0.1,0-0.1,0.1-0.2,0C413.9,1537.9,412.7,1537.5,411.8,1536.7z M417.4,1538.1
			c-0.1,0-0.1,0-0.2-0.1s-0.1-0.1-0.1-0.2v-1c0-0.2,0.1-0.3,0.3-0.3c1.9-0.3,3.2-1.5,3.9-3.4c0.2-0.5,0.3-1.1,0.4-2
			c0.1-0.8,0.1-2,0.1-3.5s0-2.7-0.1-3.5c-0.1-0.8-0.2-1.5-0.4-2c-0.7-1.9-2-3.1-3.9-3.4c-0.2,0-0.3-0.1-0.3-0.3v-1
			c0-0.1,0-0.2,0.1-0.2c0.1,0,0.1-0.1,0.2,0c1.4,0.2,2.5,0.6,3.4,1.4c0.9,0.8,1.6,1.8,2.1,3.1c0.2,0.6,0.3,1.3,0.4,2.2
			c0.1,0.9,0.2,2.1,0.2,3.8c0,1.6-0.1,2.9-0.2,3.8c-0.1,0.9-0.2,1.6-0.4,2.2c-0.4,1.3-1.1,2.4-2.1,3.1
			C420,1537.5,418.8,1537.9,417.4,1538.1L417.4,1538.1z"/>
		<path d="M427.8,1522.1c-0.1-0.1-0.1-0.1-0.1-0.2v-2c0-0.1,0-0.3,0-0.4c0-0.1,0.1-0.2,0.1-0.3l1-1.5c0.1-0.2,0.2-0.2,0.3-0.2
			c0.2,0,0.2,0.1,0.2,0.3v4.2c0,0.1,0,0.2-0.1,0.2s-0.1,0.1-0.2,0.1H428C428,1522.2,427.9,1522.2,427.8,1522.1z"/>
	</g>
	<g class="st1">
		<path d="M459,1536.7c-0.9-0.8-1.6-1.8-2-3.1c-0.2-0.5-0.3-1.2-0.4-2.1s-0.1-2.2-0.1-3.9c0-1.7,0-3,0.1-3.9s0.2-1.6,0.4-2.1
			c0.4-1.3,1.1-2.4,2-3.1s2-1.2,3.3-1.4h0.1c0.1,0,0.1,0,0.2,0.1c0,0.1,0.1,0.1,0.1,0.2v1c0,0.2-0.1,0.3-0.3,0.3
			c-0.9,0.1-1.7,0.5-2.3,1c-0.6,0.6-1.1,1.3-1.4,2.3c-0.1,0.4-0.2,1.1-0.3,1.9c-0.1,0.8-0.1,2-0.1,3.6s0,2.8,0.1,3.6
			c0.1,0.8,0.2,1.4,0.3,1.9c0.3,1,0.8,1.7,1.4,2.3c0.6,0.6,1.4,0.9,2.3,1.1c0.2,0,0.3,0.1,0.3,0.3v1c0,0.1,0,0.2-0.1,0.2
			c-0.1,0-0.1,0.1-0.2,0C461,1537.9,459.9,1537.5,459,1536.7z M468.4,1521.8c-0.1,0-0.2-0.1-0.3-0.2c-0.9-1.6-2.1-2.5-3.6-2.8
			c-0.2,0-0.3-0.1-0.3-0.3v-1c0-0.1,0-0.2,0.1-0.2c0.1-0.1,0.1-0.1,0.2-0.1c1.1,0.2,2.1,0.5,3,1.2s1.5,1.5,2,2.5c0,0,0,0.1,0,0.2
			s0,0.1-0.1,0.2l-1,0.5C468.5,1521.8,468.4,1521.8,468.4,1521.8z M464.5,1538.1c-0.1,0-0.1,0-0.2-0.1c0-0.1-0.1-0.1-0.1-0.2v-1
			c0-0.2,0.1-0.3,0.3-0.3c1.6-0.3,2.8-1.2,3.6-2.8c0-0.1,0.1-0.1,0.2-0.2c0.1,0,0.1,0,0.2,0l1,0.5c0.1,0.1,0.2,0.2,0.1,0.4
			c-0.5,1.1-1.2,1.9-2,2.5S465.7,1537.9,464.5,1538.1L464.5,1538.1z"/>
	</g>
	<g class="st1">
		<path d="M504.6,1537.8c-0.1-0.1-0.1-0.1-0.1-0.2v-19.8c0-0.1,0-0.2,0.1-0.2c0.1,0,0.1-0.1,0.2-0.1h1.1c0.1,0,0.2,0,0.2,0.1
			c0,0.1,0.1,0.1,0.1,0.2v19.8c0,0.1,0,0.1-0.1,0.2c0,0.1-0.1,0.1-0.2,0.1h-1.1C504.8,1537.8,504.7,1537.8,504.6,1537.8z
			 M507.9,1537.8c-0.1-0.1-0.1-0.1-0.1-0.2v-1c0-0.1,0-0.2,0.1-0.2s0.1-0.1,0.2-0.1h8.4c0.1,0,0.2,0,0.2,0.1s0.1,0.1,0.1,0.2v1
			c0,0.1,0,0.1-0.1,0.2c0,0.1-0.1,0.1-0.2,0.1h-8.4C508.1,1537.8,508,1537.8,507.9,1537.8z"/>
	</g>
	<g class="st1">
		<path d="M553.5,1536.7c-0.9-0.8-1.6-1.8-2-3.1c-0.2-0.6-0.3-1.3-0.4-2.1c-0.1-0.9-0.1-2.1-0.1-3.8c0-1.7,0-2.9,0.1-3.8
			s0.2-1.6,0.4-2.1c0.4-1.3,1.1-2.4,2-3.1s2.1-1.2,3.4-1.4h0.1c0.1,0,0.1,0,0.2,0.1c0,0.1,0.1,0.1,0.1,0.2v1c0,0.2-0.1,0.3-0.3,0.3
			c-1.9,0.3-3.2,1.5-3.9,3.4c-0.2,0.5-0.3,1.1-0.4,1.9s-0.1,2-0.1,3.5c0,1.5,0,2.7,0.1,3.5s0.2,1.5,0.4,1.9c0.6,1.9,1.9,3.1,3.9,3.4
			c0.2,0,0.3,0.1,0.3,0.3v1c0,0.1,0,0.2-0.1,0.2c-0.1,0-0.1,0.1-0.2,0C555.6,1537.9,554.5,1537.5,553.5,1536.7z M559.2,1538.1
			c-0.1,0-0.1,0-0.2-0.1s-0.1-0.1-0.1-0.2v-1c0-0.2,0.1-0.3,0.3-0.3c1.9-0.3,3.2-1.5,3.9-3.4c0.2-0.5,0.3-1.1,0.4-2
			c0.1-0.8,0.1-2,0.1-3.5s0-2.7-0.1-3.5c-0.1-0.8-0.2-1.5-0.4-2c-0.7-1.9-2-3.1-3.9-3.4c-0.2,0-0.3-0.1-0.3-0.3v-1
			c0-0.1,0-0.2,0.1-0.2c0.1,0,0.1-0.1,0.2,0c1.4,0.2,2.5,0.6,3.4,1.4c0.9,0.8,1.6,1.8,2.1,3.1c0.2,0.6,0.3,1.3,0.4,2.2
			c0.1,0.9,0.2,2.1,0.2,3.8c0,1.6-0.1,2.9-0.2,3.8c-0.1,0.9-0.2,1.6-0.4,2.2c-0.4,1.3-1.1,2.4-2.1,3.1
			C561.7,1537.5,560.6,1537.9,559.2,1538.1L559.2,1538.1z"/>
	</g>
	<g class="st1">
		<path d="M600.7,1536.7c-0.9-0.8-1.6-1.8-2-3.1c-0.2-0.5-0.3-1.2-0.4-2.1s-0.1-2.2-0.1-3.9c0-1.7,0-3,0.1-3.9s0.2-1.6,0.4-2.1
			c0.4-1.3,1.1-2.4,2-3.1s2-1.2,3.3-1.4h0.1c0.1,0,0.1,0,0.2,0.1c0,0.1,0.1,0.1,0.1,0.2v1c0,0.2-0.1,0.3-0.3,0.3
			c-0.9,0.1-1.7,0.5-2.3,1c-0.6,0.6-1.1,1.3-1.4,2.3c-0.1,0.4-0.2,1.1-0.3,1.9c-0.1,0.8-0.1,2-0.1,3.6s0,2.8,0.1,3.6
			c0.1,0.8,0.2,1.4,0.3,1.9c0.3,1,0.8,1.7,1.4,2.3c0.6,0.6,1.4,0.9,2.3,1.1c0.2,0,0.3,0.1,0.3,0.3v1c0,0.1,0,0.2-0.1,0.2
			c-0.1,0-0.1,0.1-0.2,0C602.7,1537.9,601.6,1537.5,600.7,1536.7z M610.1,1521.8c-0.1,0-0.2-0.1-0.3-0.2c-0.9-1.6-2.1-2.5-3.6-2.8
			c-0.2,0-0.3-0.1-0.3-0.3v-1c0-0.1,0-0.2,0.1-0.2c0.1-0.1,0.1-0.1,0.2-0.1c1.1,0.2,2.1,0.5,3,1.2s1.5,1.5,2,2.5c0,0,0,0.1,0,0.2
			s0,0.1-0.1,0.2l-1,0.5C610.2,1521.8,610.2,1521.8,610.1,1521.8z M606.2,1538.1c-0.1,0-0.1,0-0.2-0.1c0-0.1-0.1-0.1-0.1-0.2v-1
			c0-0.2,0.1-0.3,0.3-0.3c1.6-0.3,2.8-1.2,3.6-2.8c0-0.1,0.1-0.1,0.2-0.2c0.1,0,0.1,0,0.2,0l1,0.5c0.1,0.1,0.2,0.2,0.1,0.4
			c-0.5,1.1-1.2,1.9-2,2.5S607.4,1537.9,606.2,1538.1L606.2,1538.1z"/>
	</g>
	<g class="st1">
		<path d="M646.4,1537.8c-0.1-0.1-0.1-0.1-0.1-0.2v-19.8c0-0.1,0-0.2,0.1-0.2c0.1,0,0.1-0.1,0.2-0.1h1.1c0.1,0,0.2,0,0.2,0.1
			c0,0.1,0.1,0.1,0.1,0.2v19.8c0,0.1,0,0.1-0.1,0.2c0,0.1-0.1,0.1-0.2,0.1h-1.1C646.5,1537.8,646.4,1537.8,646.4,1537.8z
			 M649.7,1529.6c-0.1,0-0.1-0.1-0.1-0.2v-1.6c0-0.1,0-0.2,0.1-0.4l8-9.7c0.1-0.1,0.2-0.2,0.3-0.2s0.2-0.1,0.3-0.1h1.4
			c0.1,0,0.2,0,0.2,0.1s0,0.1,0,0.2l-9.8,11.7C649.9,1529.5,649.8,1529.6,649.7,1529.6z M658.5,1537.8c-0.1,0-0.1-0.1-0.2-0.2
			l-5.2-9.1c0-0.1-0.1-0.1-0.1-0.2c0-0.1,0-0.2,0.1-0.2l0.7-0.9c0.1-0.1,0.1-0.1,0.2-0.1c0.1,0,0.1,0,0.2,0.1l6,10.4l0,0.1
			c0,0.1-0.1,0.2-0.2,0.2h-1.4C658.6,1537.8,658.6,1537.8,658.5,1537.8z"/>
	</g>
</g>
</svg>
