<?xml version="1.0" encoding="utf-8"?>
<!-- Generator: Adobe Illustrator 24.3.0, SVG Export Plug-In . SVG Version: 6.00 Build 0)  -->
<svg version="1.1"
	 id="svg918" inkscape:version="0.92.4 (5da689c313, 2019-01-14)" xmlns:cc="http://creativecommons.org/ns#" xmlns:dc="http://purl.org/dc/elements/1.1/" xmlns:inkscape="http://www.inkscape.org/namespaces/inkscape" xmlns:rdf="http://www.w3.org/1999/02/22-rdf-syntax-ns#" xmlns:sodipodi="http://sodipodi.sourceforge.net/DTD/sodipodi-0.dtd" xmlns:svg="http://www.w3.org/2000/svg"
	 xmlns="http://www.w3.org/2000/svg" xmlns:xlink="http://www.w3.org/1999/xlink" x="0px" y="0px" viewBox="0 0 850.4 850.4"
	 style="enable-background:new 0 0 850.4 850.4;" xml:space="preserve">
<style type="text/css">
	.st0{fill:#111700;fill-opacity:0.1647;}
	.st1{enable-background:new    ;}
</style>
<sodipodi:namedview  bordercolor="#666666" borderopacity="1" gridtolerance="10" guidetolerance="10" id="namedview920" inkscape:current-layer="g916" inkscape:cx="-90.764306" inkscape:cy="1012.9005" inkscape:document-units="mm" inkscape:pageopacity="0" inkscape:pageshadow="2" inkscape:window-height="1109" inkscape:window-maximized="1" inkscape:window-width="1920" inkscape:window-x="1920" inkscape:window-y="0" inkscape:zoom="0.31115" objecttolerance="10" pagecolor="#ffffff" showgrid="false">
	</sodipodi:namedview>
<g id="g916" transform="translate(0,-861.73197)">
	<path id="path2" inkscape:connector-curvature="0" class="st0" d="M0,861.7h850.4v850.4H0V861.7z"/>
	<g class="st1">
		<path d="M175.4,1031.4c-0.1-0.1-0.1-0.1-0.1-0.2v-19.8c0-0.1,0-0.2,0.1-0.2s0.1-0.1,0.2-0.1h1.1c0.1,0,0.2,0,0.2,0.1
			s0.1,0.1,0.1,0.2v19.8c0,0.1,0,0.1-0.1,0.2s-0.1,0.1-0.2,0.1h-1.1C175.6,1031.5,175.5,1031.4,175.4,1031.4z M178.7,1012.6
			c-0.1-0.1-0.1-0.1-0.1-0.2v-1c0-0.1,0-0.2,0.1-0.2s0.1-0.1,0.2-0.1h8.4c0.1,0,0.2,0,0.2,0.1s0.1,0.1,0.1,0.2v1
			c0,0.1,0,0.2-0.1,0.2c-0.1,0.1-0.1,0.1-0.2,0.1h-8.4C178.9,1012.7,178.8,1012.6,178.7,1012.6z M178.7,1021.8
			c-0.1-0.1-0.1-0.1-0.1-0.2v-1c0-0.1,0-0.2,0.1-0.2s0.1-0.1,0.2-0.1h7c0.1,0,0.2,0,0.2,0.1c0,0,0.1,0.1,0.1,0.2v1
			c0,0.1,0,0.1-0.1,0.2c-0.1,0.1-0.1,0.1-0.2,0.1h-7C178.9,1021.9,178.8,1021.9,178.7,1021.8z M178.7,1031.4
			c-0.1-0.1-0.1-0.1-0.1-0.2v-1c0-0.1,0-0.2,0.1-0.2s0.1-0.1,0.2-0.1h8.4c0.1,0,0.2,0,0.2,0.1c0,0,0.1,0.1,0.1,0.2v1
			c0,0.1,0,0.1-0.1,0.2s-0.1,0.1-0.2,0.1h-8.4C178.9,1031.5,178.8,1031.4,178.7,1031.4z"/>
	</g>
	<g class="st1">
		<path d="M224.3,1030.9c-1-0.4-1.9-0.9-2.5-1.5c-0.1-0.1-0.1-0.1-0.1-0.2s0-0.2,0.1-0.2l0.7-0.8c0.1-0.1,0.3-0.2,0.4,0
			c0.6,0.5,1.3,0.9,2.1,1.3s1.7,0.6,2.6,0.7c0.2,0,0.3,0.1,0.3,0.3v1c0,0.1,0,0.2-0.1,0.2s-0.1,0.1-0.2,0
			C226.4,1031.6,225.3,1031.3,224.3,1030.9z M229.7,1031.7c-0.1,0-0.1,0-0.2-0.1s-0.1-0.1-0.1-0.2v-1c0-0.2,0.1-0.3,0.3-0.3
			c1.3-0.1,2.4-0.6,3.1-1.3s1.1-1.7,1.1-2.8c0-1.1-0.4-2-1.1-2.7c-0.7-0.7-2-1.1-3.8-1.3l-1-0.1c-2-0.3-3.4-0.8-4.4-1.8
			c-1-0.9-1.5-2.1-1.5-3.6c0-1,0.2-2,0.6-2.8c0.4-0.8,1-1.5,1.8-2s1.7-0.8,2.8-0.9h0.1c0.1,0,0.1,0,0.2,0.1c0,0.1,0.1,0.1,0.1,0.2v1
			c0,0.2-0.1,0.3-0.3,0.3c-1.1,0.2-2,0.6-2.6,1.3s-0.9,1.6-0.9,2.6c0,1.1,0.4,2,1.1,2.6c0.8,0.7,2,1.1,3.7,1.3l1,0.1
			c2,0.3,3.5,0.8,4.4,1.8s1.4,2.1,1.4,3.7c0,1.1-0.2,2-0.7,2.8s-1.1,1.5-2,2C232.1,1031.3,231,1031.6,229.7,1031.7L229.7,1031.7z
			 M229.7,1012.4c-0.2,0-0.3-0.2-0.3-0.3v-1c0-0.1,0-0.2,0.1-0.2s0.1-0.1,0.2,0c0.9,0.1,1.8,0.3,2.6,0.5c0.8,0.3,1.5,0.6,2.1,1.1
			c0.2,0.1,0.2,0.3,0.1,0.4l-0.6,0.9c-0.1,0.1-0.3,0.2-0.4,0.1C232.3,1013,231,1012.6,229.7,1012.4z"/>
	</g>
	<g class="st1">
		<path d="M269.9,1031.4c-0.1-0.1-0.1-0.1-0.1-0.2v-19.8c0-0.1,0-0.2,0.1-0.2s0.1-0.1,0.2-0.1h1.1c0.1,0,0.2,0,0.2,0.1
			s0.1,0.1,0.1,0.2v19.8c0,0.1,0,0.1-0.1,0.2s-0.1,0.1-0.2,0.1h-1.1C270.1,1031.5,270,1031.4,269.9,1031.4z M273.3,1023.2
			c-0.1,0-0.1-0.1-0.1-0.2v-1.6c0-0.1,0-0.2,0.1-0.4l8-9.7c0.1-0.1,0.2-0.2,0.3-0.2c0.1,0,0.2-0.1,0.3-0.1h1.4c0.1,0,0.2,0,0.2,0.1
			s0,0.1,0,0.2l-9.8,11.7C273.4,1023.1,273.4,1023.2,273.3,1023.2z M282.1,1031.4c-0.1,0-0.1-0.1-0.2-0.2l-5.2-9.1
			c0-0.1-0.1-0.1-0.1-0.2c0-0.1,0-0.2,0.1-0.2l0.7-0.9c0.1-0.1,0.1-0.1,0.2-0.1s0.1,0,0.2,0.1l6,10.4v0.1c0,0.1-0.1,0.2-0.2,0.2
			h-1.4L282.1,1031.4z"/>
	</g>
	<g class="st1">
		<path d="M317.2,1031.4c-0.1-0.1-0.1-0.1-0.1-0.2v-19.8c0-0.1,0-0.2,0.1-0.2s0.1-0.1,0.2-0.1h1.1c0.1,0,0.2,0,0.2,0.1
			s0.1,0.1,0.1,0.2v19.8c0,0.1,0,0.1-0.1,0.2s-0.1,0.1-0.2,0.1h-1.1C317.3,1031.5,317.2,1031.4,317.2,1031.4z"/>
	</g>
	<g class="st1">
		<path d="M366,1030.9c-1-0.4-1.9-0.9-2.5-1.5c-0.1-0.1-0.1-0.1-0.1-0.2s0-0.2,0.1-0.2l0.7-0.8c0.1-0.1,0.3-0.2,0.4,0
			c0.6,0.5,1.3,0.9,2.1,1.3c0.8,0.4,1.7,0.6,2.6,0.7c0.2,0,0.3,0.1,0.3,0.3v1c0,0.1,0,0.2-0.1,0.2s-0.1,0.1-0.2,0
			C368.1,1031.6,367,1031.3,366,1030.9z M371.4,1031.7c-0.1,0-0.1,0-0.2-0.1s-0.1-0.1-0.1-0.2v-1c0-0.2,0.1-0.3,0.3-0.3
			c1.3-0.1,2.4-0.6,3.1-1.3c0.7-0.7,1.1-1.7,1.1-2.8c0-1.1-0.4-2-1.1-2.7s-2-1.1-3.8-1.3l-1-0.1c-2-0.3-3.4-0.8-4.4-1.8
			c-1-0.9-1.5-2.1-1.5-3.6c0-1,0.2-2,0.6-2.8s1-1.5,1.8-2s1.7-0.8,2.8-0.9h0.1c0.1,0,0.1,0,0.2,0.1c0,0.1,0.1,0.1,0.1,0.2v1
			c0,0.2-0.1,0.3-0.3,0.3c-1.1,0.2-2,0.6-2.6,1.3s-0.9,1.6-0.9,2.6c0,1.1,0.4,2,1.1,2.6c0.8,0.7,2,1.1,3.7,1.3l1,0.1
			c2,0.3,3.5,0.8,4.4,1.8s1.4,2.1,1.4,3.7c0,1.1-0.2,2-0.7,2.8s-1.1,1.5-2,2C373.9,1031.3,372.8,1031.6,371.4,1031.7L371.4,1031.7z
			 M371.4,1012.4c-0.2,0-0.3-0.2-0.3-0.3v-1c0-0.1,0-0.2,0.1-0.2s0.1-0.1,0.2,0c0.9,0.1,1.8,0.3,2.6,0.5c0.8,0.3,1.5,0.6,2.1,1.1
			c0.2,0.1,0.2,0.3,0.1,0.4l-0.6,0.9c-0.1,0.1-0.3,0.2-0.4,0.1C374,1013,372.7,1012.6,371.4,1012.4z"/>
	</g>
	<g class="st1">
		<path d="M409.5,1012.6c-0.1-0.1-0.1-0.1-0.1-0.2v-1c0-0.1,0-0.2,0.1-0.2s0.1-0.1,0.2-0.1h13.8c0.1,0,0.2,0,0.2,0.1
			s0.1,0.1,0.1,0.2v1c0,0.1,0,0.2-0.1,0.2c0,0.1-0.1,0.1-0.2,0.1h-13.8C409.6,1012.7,409.6,1012.6,409.5,1012.6z M415.8,1031.4
			c-0.1-0.1-0.1-0.1-0.1-0.2v-16.7c0-0.1,0-0.2,0.1-0.2s0.1-0.1,0.2-0.1h1.1c0.1,0,0.2,0,0.2,0.1s0.1,0.1,0.1,0.2v16.7
			c0,0.1,0,0.1-0.1,0.2c0,0.1-0.1,0.1-0.2,0.1H416C416,1031.5,415.9,1031.4,415.8,1031.4z"/>
	</g>
	<g class="st1">
		<path d="M458.9,1031.4c-0.1-0.1-0.1-0.1-0.1-0.2v-19.8c0-0.1,0-0.2,0.1-0.2s0.1-0.1,0.2-0.1h1.1c0.1,0,0.2,0,0.2,0.1
			s0.1,0.1,0.1,0.2v19.8c0,0.1,0,0.1-0.1,0.2c0,0.1-0.1,0.1-0.2,0.1h-1.1C459,1031.5,459,1031.4,458.9,1031.4z M462.2,1022.2
			c-0.1-0.1-0.1-0.1-0.1-0.2v-1c0-0.1,0-0.2,0.1-0.2s0.1-0.1,0.2-0.1h3.5c1.5,0,2.6-0.3,3.4-1s1.2-1.7,1.2-3s-0.4-2.3-1.2-3
			s-1.9-1-3.4-1h-3.5c-0.1,0-0.1,0-0.2-0.1s-0.1-0.1-0.1-0.2v-1c0-0.1,0-0.2,0.1-0.2s0.1-0.1,0.2-0.1h3.5c1.3,0,2.4,0.2,3.3,0.7
			c0.9,0.4,1.6,1.1,2.1,1.9c0.5,0.9,0.8,1.9,0.8,3s-0.2,2.1-0.7,2.9c-0.5,0.9-1.2,1.5-2.1,2c-1,0.5-2.1,0.7-3.5,0.7h-3.4
			C462.3,1022.3,462.3,1022.3,462.2,1022.2z M470.7,1031.4c-0.1,0-0.1-0.1-0.1-0.2l-3.4-7.1c-0.1-0.1-0.1-0.2,0-0.3
			c0,0,0.1-0.1,0.2-0.1s0.1,0,0.1,0c0.4,0,0.7-0.1,0.9-0.2h0.1c0.1,0,0.2,0.1,0.2,0.2l3.7,7.4c0,0,0,0.1,0,0.2s-0.1,0.2-0.2,0.2
			h-1.3C470.8,1031.5,470.7,1031.4,470.7,1031.4z"/>
	</g>
	<g class="st1">
		<path d="M506.1,1031.4c-0.1-0.1-0.1-0.1-0.1-0.2v-19.8c0-0.1,0-0.2,0.1-0.2s0.1-0.1,0.2-0.1h1.1c0.1,0,0.2,0,0.2,0.1
			s0.1,0.1,0.1,0.2v19.8c0,0.1,0,0.1-0.1,0.2c0,0.1-0.1,0.1-0.2,0.1h-1.1C506.3,1031.5,506.2,1031.4,506.1,1031.4z M509.4,1012.6
			c-0.1-0.1-0.1-0.1-0.1-0.2v-1c0-0.1,0-0.2,0.1-0.2s0.1-0.1,0.2-0.1h8.4c0.1,0,0.2,0,0.2,0.1s0.1,0.1,0.1,0.2v1
			c0,0.1,0,0.2-0.1,0.2c0,0.1-0.1,0.1-0.2,0.1h-8.4C509.6,1012.7,509.5,1012.6,509.4,1012.6z M509.4,1022c-0.1-0.1-0.1-0.1-0.1-0.2
			v-1c0-0.1,0-0.2,0.1-0.2s0.1-0.1,0.2-0.1h7c0.1,0,0.2,0,0.2,0.1c0,0,0.1,0.1,0.1,0.2v1c0,0.1,0,0.1-0.1,0.2
			c-0.1,0.1-0.1,0.1-0.2,0.1h-7C509.6,1022.1,509.5,1022.1,509.4,1022z"/>
	</g>
	<g class="st1">
		<path d="M554.6,1029.6c-1-1.2-1.5-3-1.5-5.2v-13c0-0.1,0-0.2,0.1-0.2s0.1-0.1,0.2-0.1h1.1c0.1,0,0.2,0,0.2,0.1s0.1,0.1,0.1,0.2v13
			c0,1.7,0.4,3,1.1,3.9c0.7,1,1.7,1.5,3.1,1.8c0.2,0,0.3,0.1,0.3,0.3v1c0,0.1,0,0.2-0.1,0.2s-0.1,0.1-0.2,0
			C557,1031.5,555.6,1030.8,554.6,1029.6z M556.2,1007.8c-0.1-0.1-0.1-0.1-0.1-0.2v-1.6c0-0.1,0-0.2,0.1-0.2s0.1-0.1,0.2-0.1h1.1
			c0.1,0,0.2,0,0.2,0.1c0,0,0.1,0.1,0.1,0.2v1.6c0,0.1,0,0.2-0.1,0.2c-0.1,0.1-0.1,0.1-0.2,0.1h-1.1
			C556.3,1007.9,556.3,1007.8,556.2,1007.8z M561.1,1031.7c-0.1,0-0.1,0-0.2-0.1c-0.1,0-0.1-0.1-0.1-0.2v-1c0-0.2,0.1-0.3,0.3-0.3
			c1.3-0.2,2.4-0.8,3.1-1.7s1.1-2.3,1.1-4v-13c0-0.1,0-0.2,0.1-0.2s0.1-0.1,0.2-0.1h1.1c0.1,0,0.2,0,0.2,0.1s0.1,0.1,0.1,0.2v13
			c0,2.2-0.5,3.9-1.5,5.1C564.4,1030.8,563,1031.5,561.1,1031.7L561.1,1031.7z M562.2,1007.8c-0.1-0.1-0.1-0.1-0.1-0.2v-1.6
			c0-0.1,0-0.2,0.1-0.2s0.1-0.1,0.2-0.1h1.1c0.1,0,0.2,0,0.2,0.1c0,0,0.1,0.1,0.1,0.2v1.6c0,0.1,0,0.2-0.1,0.2
			c-0.1,0.1-0.1,0.1-0.2,0.1h-1.1C562.3,1007.9,562.3,1007.8,562.2,1007.8z"/>
	</g>
	<g class="st1">
		<path d="M612.8,1031.4c-0.1,0-0.2-0.1-0.2-0.2l-11.9-19.4c-0.1-0.1-0.1-0.2-0.1-0.4s0.1-0.3,0.3-0.3h1c0.1,0,0.2,0,0.3,0.1
			s0.2,0.1,0.2,0.2l12,19.5c0,0.1,0.1,0.1,0.1,0.2s0,0.1,0,0.2s-0.1,0.2-0.3,0.2h-1C613,1031.5,612.9,1031.4,612.8,1031.4z
			 M600.6,1031.4c-0.1-0.1-0.1-0.1-0.1-0.2V1015c0-0.2,0-0.2,0.2-0.2c0.1,0,0.2,0,0.2,0.2l1.2,1.9c0.1,0.1,0.1,0.2,0.1,0.4v14
			c0,0.1,0,0.1-0.1,0.2c0,0.1-0.1,0.1-0.2,0.1h-1C600.8,1031.5,600.7,1031.4,600.6,1031.4z M612.9,1025.7c-0.1-0.1-0.1-0.2-0.1-0.4
			v-13.9c0-0.1,0-0.2,0.1-0.2s0.1-0.1,0.2-0.1h1c0.1,0,0.2,0,0.2,0.1s0.1,0.1,0.1,0.2v16.1c0,0.2,0,0.2-0.1,0.2s-0.2,0-0.2-0.2
			L612.9,1025.7z"/>
	</g>
	<g class="st1">
		<path d="M647.9,1031.4c-0.1-0.1-0.1-0.1-0.1-0.2v-19.8c0-0.1,0-0.2,0.1-0.2s0.1-0.1,0.2-0.1h1.1c0.1,0,0.2,0,0.2,0.1
			s0.1,0.1,0.1,0.2v19.8c0,0.1,0,0.1-0.1,0.2c0,0.1-0.1,0.1-0.2,0.1h-1.1C648,1031.5,647.9,1031.4,647.9,1031.4z M651.2,1012.6
			c-0.1-0.1-0.1-0.1-0.1-0.2v-1c0-0.1,0-0.2,0.1-0.2s0.1-0.1,0.2-0.1h8.4c0.1,0,0.2,0,0.2,0.1s0.1,0.1,0.1,0.2v1
			c0,0.1,0,0.2-0.1,0.2c0,0.1-0.1,0.1-0.2,0.1h-8.4C651.3,1012.7,651.2,1012.6,651.2,1012.6z M651.2,1022c-0.1-0.1-0.1-0.1-0.1-0.2
			v-1c0-0.1,0-0.2,0.1-0.2s0.1-0.1,0.2-0.1h7c0.1,0,0.2,0,0.2,0.1c0,0,0.1,0.1,0.1,0.2v1c0,0.1,0,0.1-0.1,0.2
			c-0.1,0.1-0.1,0.1-0.2,0.1h-7C651.3,1022.1,651.2,1022.1,651.2,1022z"/>
	</g>
	<g class="st1">
		<path d="M174.2,1083.8c-0.1-0.1-0.1-0.1-0.1-0.2v-1c0-0.1,0-0.2,0-0.2c0-0.1,0.1-0.1,0.1-0.2l11.7-18.5c0.1-0.1,0.2-0.2,0.4-0.2
			h0.4c0.1,0,0.2,0,0.2,0.1s0.1,0.1,0.1,0.2v1c0,0.1,0,0.1,0,0.2s-0.1,0.1-0.1,0.2l-11.7,18.5c-0.1,0.1-0.2,0.2-0.4,0.2h-0.4
			C174.3,1083.9,174.3,1083.9,174.2,1083.8z M174.6,1065c-0.1-0.1-0.1-0.1-0.1-0.2v-1c0-0.1,0-0.2,0.1-0.2s0.1-0.1,0.2-0.1h9.1
			c0.1,0,0.2,0,0.2,0.1s0,0.2,0,0.3l-0.7,1c-0.1,0.1-0.2,0.2-0.4,0.2h-8.3C174.8,1065.1,174.7,1065.1,174.6,1065z M177,1083.8
			c0-0.1,0-0.2,0-0.3l0.7-1c0.1-0.1,0.2-0.2,0.4-0.2h8.7c0.1,0,0.2,0,0.2,0.1s0.1,0.1,0.1,0.2v1c0,0.1,0,0.1-0.1,0.2
			c0,0.1-0.1,0.1-0.2,0.1h-9.6C177.1,1083.9,177,1083.9,177,1083.8z"/>
	</g>
	<g class="st1">
		<path d="M222.7,1083.8c-0.1-0.1-0.1-0.1-0.1-0.2v-19.8c0-0.1,0-0.2,0.1-0.2s0.1-0.1,0.2-0.1h1.1c0.1,0,0.2,0,0.2,0.1
			s0.1,0.1,0.1,0.2v19.8c0,0.1,0,0.1-0.1,0.2s-0.1,0.1-0.2,0.1h-1.1C222.8,1083.9,222.7,1083.9,222.7,1083.8z M226,1065
			c-0.1-0.1-0.1-0.1-0.1-0.2v-1c0-0.1,0-0.2,0.1-0.2s0.1-0.1,0.2-0.1h8.4c0.1,0,0.2,0,0.2,0.1s0.1,0.1,0.1,0.2v1
			c0,0.1,0,0.2-0.1,0.2c-0.1,0.1-0.1,0.1-0.2,0.1h-8.4C226.1,1065.1,226,1065.1,226,1065z M226,1074.3c-0.1-0.1-0.1-0.1-0.1-0.2v-1
			c0-0.1,0-0.2,0.1-0.2s0.1-0.1,0.2-0.1h7c0.1,0,0.2,0,0.2,0.1c0,0,0.1,0.1,0.1,0.2v1c0,0.1,0,0.1-0.1,0.2s-0.1,0.1-0.2,0.1h-7
			C226.1,1074.4,226,1074.3,226,1074.3z M226,1083.8c-0.1-0.1-0.1-0.1-0.1-0.2v-1c0-0.1,0-0.2,0.1-0.2s0.1-0.1,0.2-0.1h8.4
			c0.1,0,0.2,0,0.2,0.1c0,0,0.1,0.1,0.1,0.2v1c0,0.1,0,0.1-0.1,0.2s-0.1,0.1-0.2,0.1h-8.4C226.1,1083.9,226,1083.9,226,1083.8z"/>
	</g>
	<g class="st1">
		<path d="M269.9,1083.8c-0.1-0.1-0.1-0.1-0.1-0.2v-19.8c0-0.1,0-0.2,0.1-0.2s0.1-0.1,0.2-0.1h1.1c0.1,0,0.2,0,0.2,0.1
			s0.1,0.1,0.1,0.2v19.8c0,0.1,0,0.1-0.1,0.2s-0.1,0.1-0.2,0.1h-1.1C270.1,1083.9,270,1083.9,269.9,1083.8z M273.1,1074.3
			c-0.1-0.1-0.1-0.1-0.1-0.2v-1c0-0.1,0-0.2,0.1-0.2s0.1-0.1,0.2-0.1h6.9c0.1,0,0.2,0,0.2,0.1s0.1,0.1,0.1,0.2v1
			c0,0.1,0,0.1-0.1,0.2c0,0.1-0.1,0.1-0.2,0.1h-6.9C273.2,1074.4,273.2,1074.3,273.1,1074.3z M282.1,1083.8
			c-0.1-0.1-0.1-0.1-0.1-0.2v-19.8c0-0.1,0-0.2,0.1-0.2s0.1-0.1,0.2-0.1h1.1c0.1,0,0.2,0,0.2,0.1s0.1,0.1,0.1,0.2v19.8
			c0,0.1,0,0.1-0.1,0.2s-0.1,0.1-0.2,0.1h-1.1C282.2,1083.9,282.1,1083.9,282.1,1083.8z"/>
	</g>
	<g class="st1">
		<path d="M329.4,1083.8c-0.1,0-0.2-0.1-0.2-0.2l-11.9-19.4c-0.1-0.1-0.1-0.2-0.1-0.4c0-0.2,0.1-0.3,0.3-0.3h1c0.1,0,0.2,0,0.3,0.1
			c0.1,0,0.1,0.1,0.2,0.2l12,19.5c0,0.1,0.1,0.1,0.1,0.2s0,0.1,0,0.2s-0.1,0.2-0.3,0.2h-1C329.5,1083.9,329.5,1083.9,329.4,1083.8z
			 M317.2,1083.8c-0.1-0.1-0.1-0.1-0.1-0.2v-16.2c0-0.2,0-0.2,0.2-0.2c0.1,0,0.2,0,0.2,0.2l1.2,1.9c0.1,0.1,0.1,0.2,0.1,0.4v14
			c0,0.1,0,0.1-0.1,0.2s-0.1,0.1-0.2,0.1h-1C317.3,1083.9,317.2,1083.9,317.2,1083.8z M329.4,1078.1c-0.1-0.1-0.1-0.2-0.1-0.4v-13.9
			c0-0.1,0-0.2,0.1-0.2s0.1-0.1,0.2-0.1h1c0.1,0,0.2,0,0.2,0.1s0.1,0.1,0.1,0.2v16.1c0,0.2-0.1,0.2-0.1,0.2c-0.1,0-0.1,0-0.2-0.2
			L329.4,1078.1z"/>
	</g>
	<g class="st1">
		<path d="M363.2,1083.8c-0.1-0.1-0.1-0.1-0.1-0.2v-1c0-0.1,0-0.2,0-0.2c0-0.1,0.1-0.1,0.1-0.2l11.7-18.5c0.1-0.1,0.2-0.2,0.4-0.2
			h0.5c0.1,0,0.2,0,0.2,0.1s0.1,0.1,0.1,0.2v1c0,0.1,0,0.1,0,0.2s-0.1,0.1-0.1,0.2l-11.7,18.5c-0.1,0.1-0.2,0.2-0.4,0.2h-0.4
			C363.3,1083.9,363.2,1083.9,363.2,1083.8z M363.6,1065c-0.1-0.1-0.1-0.1-0.1-0.2v-1c0-0.1,0-0.2,0.1-0.2s0.1-0.1,0.2-0.1h9.1
			c0.1,0,0.2,0,0.2,0.1s0,0.2,0,0.3l-0.7,1c-0.1,0.1-0.2,0.2-0.4,0.2h-8.3C363.7,1065.1,363.7,1065.1,363.6,1065z M366,1083.8
			c0-0.1,0-0.2,0-0.3l0.7-1c0.1-0.1,0.2-0.2,0.4-0.2h8.7c0.1,0,0.2,0,0.2,0.1s0.1,0.1,0.1,0.2v1c0,0.1,0,0.1-0.1,0.2
			c0,0.1-0.1,0.1-0.2,0.1h-9.6C366.1,1083.9,366,1083.9,366,1083.8z"/>
	</g>
	<g class="st1">
		<path d="M414.7,1083.8c-0.1,0-0.1-0.1-0.1-0.2l-4.9-19.8v-0.1c0-0.1,0-0.1,0.1-0.1s0.1-0.1,0.2-0.1h1.1c0.1,0,0.2,0,0.3,0.1
			c0.1,0,0.1,0.1,0.1,0.2l4.7,19.6c0,0.1,0,0.1,0,0.2c0,0.2-0.1,0.3-0.3,0.3h-1C414.8,1083.9,414.7,1083.9,414.7,1083.8z
			 M426,1083.8c0,0-0.1-0.1-0.1-0.2l-4.8-16.8H421l-3.9,13.6c0,0.1,0,0.1-0.1,0.2l-0.1,0.1c-0.1,0-0.1-0.1-0.2-0.2l-0.5-2.1
			c0-0.1,0-0.2,0-0.4l3.9-14.1c0-0.1,0.1-0.2,0.1-0.2s0.1-0.1,0.2-0.1h0.9c0.1,0,0.2,0,0.2,0.1s0.1,0.1,0.1,0.2l5.5,19.6v0.2
			c0,0.2-0.1,0.3-0.3,0.3h-1C426.1,1083.9,426,1083.9,426,1083.8z M427.3,1078.3c0-0.2,0-0.3,0-0.4l3.3-14.1c0-0.1,0.1-0.2,0.1-0.2
			s0.2-0.1,0.3-0.1h1.1c0.1,0,0.2,0,0.2,0.1s0,0.1,0,0.2l-4,16.5c0,0.1,0,0.1-0.1,0.2l-0.1,0.1c-0.1,0-0.1-0.1-0.2-0.2L427.3,1078.3
			z"/>
	</g>
	<g class="st1">
		<path d="M456.9,1083.8c0-0.1,0-0.1,0-0.2l6.2-17.1c0.1-0.1,0.1-0.2,0.2-0.2h0.1l0.1,0.1l0.6,1.6c0,0.1,0.1,0.1,0.1,0.2
			s0,0.2-0.1,0.2l-3,8.4h5.9c0.2,0,0.3,0.1,0.4,0.2l0.4,1v0.1c0,0.1,0,0.1-0.1,0.2c-0.1,0-0.1,0.1-0.2,0.1h-6.9l-1.8,5.1
			c0,0.1-0.1,0.2-0.2,0.2s-0.1,0.1-0.2,0.1h-1.2C457,1083.9,457,1083.9,456.9,1083.8z M471.2,1083.7l-7-19.8v-0.1
			c0-0.1,0-0.1,0.1-0.2s0.1-0.1,0.2-0.1h1.1c0.2,0,0.3,0.1,0.4,0.3l7.1,19.8v0.1c0,0.1,0,0.1-0.1,0.2s-0.1,0.1-0.2,0.1h-1.2
			C471.4,1083.9,471.3,1083.8,471.2,1083.7z"/>
	</g>
	<g class="st1">
		<path d="M518.3,1083.8c-0.1,0-0.2-0.1-0.2-0.2l-11.9-19.4c-0.1-0.1-0.1-0.2-0.1-0.4c0-0.2,0.1-0.3,0.3-0.3h1c0.1,0,0.2,0,0.3,0.1
			s0.2,0.1,0.2,0.2l12,19.5c0,0.1,0.1,0.1,0.1,0.2s0,0.1,0,0.2s-0.1,0.2-0.3,0.2h-1C518.5,1083.9,518.4,1083.9,518.3,1083.8z
			 M506.1,1083.8c-0.1-0.1-0.1-0.1-0.1-0.2v-16.2c0-0.2,0-0.2,0.2-0.2c0.1,0,0.2,0,0.2,0.2l1.2,1.9c0.1,0.1,0.1,0.2,0.1,0.4v14
			c0,0.1,0,0.1-0.1,0.2c0,0.1-0.1,0.1-0.2,0.1h-1C506.3,1083.9,506.2,1083.9,506.1,1083.8z M518.4,1078.1c-0.1-0.1-0.1-0.2-0.1-0.4
			v-13.9c0-0.1,0-0.2,0.1-0.2s0.1-0.1,0.2-0.1h1c0.1,0,0.2,0,0.2,0.1s0.1,0.1,0.1,0.2v16.1c0,0.2,0,0.2-0.1,0.2s-0.2,0-0.2-0.2
			L518.4,1078.1z"/>
	</g>
	<g class="st1">
		<path d="M552.2,1083.8c-0.1-0.1-0.1-0.1-0.1-0.2v-1c0-0.1,0-0.2,0-0.2c0-0.1,0.1-0.1,0.1-0.2l11.7-18.5c0.1-0.1,0.2-0.2,0.4-0.2
			h0.5c0.1,0,0.2,0,0.2,0.1s0.1,0.1,0.1,0.2v1c0,0.1,0,0.1,0,0.2s-0.1,0.1-0.1,0.2l-11.7,18.5c-0.1,0.1-0.2,0.2-0.4,0.2h-0.4
			C552.3,1083.9,552.2,1083.9,552.2,1083.8z M552.6,1065c-0.1-0.1-0.1-0.1-0.1-0.2v-1c0-0.1,0-0.2,0.1-0.2s0.1-0.1,0.2-0.1h9.1
			c0.1,0,0.2,0,0.2,0.1s0,0.2,0,0.3l-0.7,1c-0.1,0.1-0.2,0.2-0.4,0.2h-8.3C552.7,1065.1,552.6,1065.1,552.6,1065z M555,1083.8
			c0-0.1,0-0.2,0-0.3l0.7-1c0.1-0.1,0.2-0.2,0.4-0.2h8.7c0.1,0,0.2,0,0.2,0.1s0.1,0.1,0.1,0.2v1c0,0.1,0,0.1-0.1,0.2
			c0,0.1-0.1,0.1-0.2,0.1h-9.6C555.1,1083.9,555,1083.9,555,1083.8z"/>
	</g>
	<g class="st1">
		<path d="M600.6,1083.8c-0.1-0.1-0.1-0.1-0.1-0.2v-19.8c0-0.1,0-0.2,0.1-0.2s0.1-0.1,0.2-0.1h1.1c0.1,0,0.2,0,0.2,0.1
			s0.1,0.1,0.1,0.2v19.8c0,0.1,0,0.1-0.1,0.2c0,0.1-0.1,0.1-0.2,0.1h-1.1C600.8,1083.9,600.7,1083.9,600.6,1083.8z"/>
	</g>
	<g class="st1">
		<path d="M649.6,1082.8c-0.9-0.8-1.6-1.8-2.1-3.1c-0.2-0.6-0.3-1.3-0.4-2.1s-0.1-2.1-0.1-3.8c0-1.7,0-2.9,0.1-3.8s0.2-1.6,0.4-2.1
			c0.4-1.3,1.1-2.4,2.1-3.1c0.9-0.8,2.1-1.2,3.5-1.4h0.1c0.1,0,0.1,0,0.2,0.1c0,0.1,0.1,0.1,0.1,0.2v1c0,0.2-0.1,0.3-0.3,0.3
			c-1,0.1-1.8,0.5-2.4,1.1s-1.1,1.3-1.5,2.3c-0.2,0.4-0.3,1.1-0.4,1.9c-0.1,0.8-0.1,2-0.1,3.6s0,2.8,0.1,3.6
			c0.1,0.8,0.2,1.5,0.4,1.9c0.3,1,0.8,1.7,1.5,2.3s1.5,0.9,2.4,1.1c0.2,0,0.3,0.1,0.3,0.3v1c0,0.1,0,0.2-0.1,0.2s-0.1,0.1-0.2,0
			C651.6,1084,650.5,1083.5,649.6,1082.8z M655.2,1084.1c-0.1,0-0.1,0-0.2-0.1c0,0-0.1-0.1-0.1-0.2v-1c0-0.2,0.1-0.3,0.3-0.3
			c1-0.2,1.8-0.5,2.4-1.1c0.7-0.6,1.2-1.3,1.5-2.3c0.3-0.9,0.5-2.2,0.5-3.9c0-0.1-0.1-0.2-0.2-0.2h-4.7c-0.1,0-0.2,0-0.2-0.1
			c-0.1-0.1-0.1-0.1-0.1-0.2v-0.9c0-0.1,0-0.2,0.1-0.2s0.1-0.1,0.2-0.1h6.2c0.1,0,0.2,0,0.2,0.1s0.1,0.1,0.1,0.2v1.2
			c0,1,0,1.8-0.2,2.6c-0.1,0.8-0.2,1.4-0.4,1.9c-0.4,1.3-1.1,2.4-2.1,3.1C657.7,1083.5,656.6,1084,655.2,1084.1L655.2,1084.1z
			 M659.3,1067.9c-0.1,0-0.2,0-0.2-0.2c-0.4-0.8-1-1.5-1.6-1.9c-0.6-0.5-1.4-0.8-2.3-0.9c-0.2,0-0.3-0.1-0.3-0.3v-1
			c0-0.1,0-0.2,0.1-0.2s0.1-0.1,0.2,0c1.3,0.2,2.3,0.6,3.2,1.2c0.9,0.7,1.6,1.5,2,2.4c0,0.1,0.1,0.2,0.1,0.2c0,0.1,0,0.1-0.1,0.2
			l-1,0.5C659.4,1067.8,659.4,1067.9,659.3,1067.9z"/>
	</g>
	<g class="st1">
		<path d="M175.4,1136.3c-0.1-0.1-0.1-0.1-0.1-0.2v-19.8c0-0.1,0-0.2,0.1-0.2s0.1-0.1,0.2-0.1h1.1c0.1,0,0.2,0,0.2,0.1
			s0.1,0.1,0.1,0.2v19.8c0,0.1,0,0.1-0.1,0.2s-0.1,0.1-0.2,0.1h-1.1C175.6,1136.3,175.5,1136.3,175.4,1136.3z M178.7,1136.3
			c-0.1-0.1-0.1-0.1-0.1-0.2v-1c0-0.1,0-0.2,0.1-0.2s0.1-0.1,0.2-0.1h2.9c1.4,0,2.5-0.2,3.3-0.7s1.5-1.3,1.8-2.3
			c0.2-0.5,0.3-1.2,0.4-1.9c0.1-0.8,0.1-2,0.1-3.6s0-2.8-0.1-3.6c-0.1-0.8-0.2-1.4-0.4-2c-0.4-1.1-1-1.8-1.8-2.3
			c-0.9-0.5-2-0.7-3.3-0.7h-2.9c-0.1,0-0.1,0-0.2-0.1c-0.1-0.1-0.1-0.1-0.1-0.2v-1c0-0.1,0-0.2,0.1-0.2s0.1-0.1,0.2-0.1h3.1
			c3.4,0,5.6,1.4,6.5,4.1c0.2,0.6,0.3,1.3,0.4,2.2c0.1,0.8,0.1,2.1,0.1,3.9s0,3.1-0.1,3.9s-0.2,1.5-0.4,2.2
			c-0.9,2.8-3.1,4.1-6.5,4.1h-3.1C178.8,1136.3,178.8,1136.3,178.7,1136.3z"/>
	</g>
	<g class="st1">
		<path d="M222.7,1136.3c-0.1-0.1-0.1-0.1-0.1-0.2v-19.8c0-0.1,0-0.2,0.1-0.2s0.1-0.1,0.2-0.1h1.1c0.1,0,0.2,0,0.2,0.1
			s0.1,0.1,0.1,0.2v19.8c0,0.1,0,0.1-0.1,0.2s-0.1,0.1-0.2,0.1h-1.1C222.8,1136.3,222.7,1136.3,222.7,1136.3z M226,1127.1
			c-0.1-0.1-0.1-0.1-0.1-0.2v-1c0-0.1,0-0.2,0.1-0.2s0.1-0.1,0.2-0.1h3.5c1.5,0,2.6-0.3,3.4-1c0.8-0.7,1.2-1.7,1.2-3s-0.4-2.3-1.2-3
			s-1.9-1-3.4-1h-3.5c-0.1,0-0.1,0-0.2-0.1c-0.1-0.1-0.1-0.1-0.1-0.2v-1c0-0.1,0-0.2,0.1-0.2s0.1-0.1,0.2-0.1h3.5
			c1.3,0,2.4,0.2,3.3,0.7c0.9,0.4,1.6,1.1,2.1,1.9c0.5,0.9,0.8,1.9,0.8,3s-0.2,2.1-0.7,2.9c-0.5,0.9-1.2,1.5-2.1,2
			c-1,0.5-2.1,0.7-3.5,0.7h-3.4C226.1,1127.2,226,1127.2,226,1127.1z M234.5,1136.3c-0.1,0-0.1-0.1-0.1-0.2l-3.4-7.1
			c-0.1-0.1-0.1-0.2,0-0.3c0,0,0.1-0.1,0.2-0.1c0.1,0,0.1,0,0.1,0c0.4,0,0.7-0.1,0.9-0.2h0.1c0.1,0,0.2,0.1,0.2,0.2l3.7,7.4
			c0,0,0,0.1,0,0.2s-0.1,0.2-0.2,0.2h-1.3C234.6,1136.3,234.5,1136.3,234.5,1136.3z"/>
	</g>
	<g class="st1">
		<path d="M269.9,1136.3c-0.1-0.1-0.1-0.1-0.1-0.2v-19.8c0-0.1,0-0.2,0.1-0.2s0.1-0.1,0.2-0.1h1.1c0.1,0,0.2,0,0.2,0.1
			s0.1,0.1,0.1,0.2v19.8c0,0.1,0,0.1-0.1,0.2s-0.1,0.1-0.2,0.1h-1.1C270.1,1136.3,270,1136.3,269.9,1136.3z M273.2,1117.4
			c-0.1-0.1-0.1-0.1-0.1-0.2v-1c0-0.1,0-0.2,0.1-0.2s0.1-0.1,0.2-0.1h8.4c0.1,0,0.2,0,0.2,0.1s0.1,0.1,0.1,0.2v1
			c0,0.1,0,0.2-0.1,0.2c-0.1,0.1-0.1,0.1-0.2,0.1h-8.4C273.4,1117.5,273.3,1117.5,273.2,1117.4z M273.2,1126.7
			c-0.1-0.1-0.1-0.1-0.1-0.2v-1c0-0.1,0-0.2,0.1-0.2s0.1-0.1,0.2-0.1h7c0.1,0,0.2,0,0.2,0.1c0,0,0.1,0.1,0.1,0.2v1
			c0,0.1,0,0.1-0.1,0.2s-0.1,0.1-0.2,0.1h-7C273.4,1126.8,273.3,1126.8,273.2,1126.7z M273.2,1136.3c-0.1-0.1-0.1-0.1-0.1-0.2v-1
			c0-0.1,0-0.2,0.1-0.2s0.1-0.1,0.2-0.1h8.4c0.1,0,0.2,0,0.2,0.1c0,0,0.1,0.1,0.1,0.2v1c0,0.1,0,0.1-0.1,0.2s-0.1,0.1-0.2,0.1h-8.4
			C273.4,1136.3,273.3,1136.3,273.2,1136.3z"/>
	</g>
	<g class="st1">
		<path d="M317.2,1136.3c-0.1-0.1-0.1-0.1-0.1-0.2v-19.8c0-0.1,0-0.2,0.1-0.2s0.1-0.1,0.2-0.1h1.1c0.1,0,0.2,0,0.2,0.1
			s0.1,0.1,0.1,0.2v19.8c0,0.1,0,0.1-0.1,0.2s-0.1,0.1-0.2,0.1h-1.1C317.3,1136.3,317.2,1136.3,317.2,1136.3z"/>
	</g>
	<g class="st1">
		<path d="M369.1,1136l-6.8-19.7l-0.1-0.2c0-0.1,0-0.1,0.1-0.2s0.1-0.1,0.2-0.1h1c0.1,0,0.2,0,0.3,0.1c0.1,0,0.1,0.1,0.1,0.2
			l6.7,19.6c0,0.1,0.1,0.2,0.1,0.3c0,0.2-0.1,0.3-0.3,0.3h-1C369.2,1136.3,369.1,1136.2,369.1,1136z M370.8,1131.8c0,0,0-0.1,0-0.2
			s0-0.2,0.1-0.3l5-15c0-0.1,0.1-0.2,0.2-0.2s0.1-0.1,0.3-0.1h1.1c0.1,0,0.2,0,0.2,0.1s0,0.2,0,0.3l-5.8,17c0,0.1,0,0.1-0.1,0.2
			l-0.1,0.1c-0.1,0-0.1-0.1-0.2-0.2L370.8,1131.8z"/>
	</g>
	<g class="st1">
		<path d="M411.7,1136.3c-0.1-0.1-0.1-0.1-0.1-0.2v-19.8c0-0.1,0-0.2,0.1-0.2s0.1-0.1,0.2-0.1h1.1c0.1,0,0.2,0,0.2,0.1
			s0.1,0.1,0.1,0.2v19.8c0,0.1,0,0.1-0.1,0.2c0,0.1-0.1,0.1-0.2,0.1h-1.1C411.8,1136.3,411.7,1136.3,411.7,1136.3z"/>
	</g>
	<g class="st1">
		<path d="M458.9,1136.3c-0.1-0.1-0.1-0.1-0.1-0.2v-19.8c0-0.1,0-0.2,0.1-0.2s0.1-0.1,0.2-0.1h1.1c0.1,0,0.2,0,0.2,0.1
			s0.1,0.1,0.1,0.2v19.8c0,0.1,0,0.1-0.1,0.2c0,0.1-0.1,0.1-0.2,0.1h-1.1C459,1136.3,459,1136.3,458.9,1136.3z M462.2,1117.4
			c-0.1-0.1-0.1-0.1-0.1-0.2v-1c0-0.1,0-0.2,0.1-0.2s0.1-0.1,0.2-0.1h8.4c0.1,0,0.2,0,0.2,0.1s0.1,0.1,0.1,0.2v1
			c0,0.1,0,0.2-0.1,0.2c0,0.1-0.1,0.1-0.2,0.1h-8.4C462.3,1117.5,462.3,1117.5,462.2,1117.4z M462.2,1126.7
			c-0.1-0.1-0.1-0.1-0.1-0.2v-1c0-0.1,0-0.2,0.1-0.2s0.1-0.1,0.2-0.1h7c0.1,0,0.2,0,0.2,0.1c0,0,0.1,0.1,0.1,0.2v1
			c0,0.1,0,0.1-0.1,0.2s-0.1,0.1-0.2,0.1h-7C462.3,1126.8,462.3,1126.8,462.2,1126.7z M462.2,1136.3c-0.1-0.1-0.1-0.1-0.1-0.2v-1
			c0-0.1,0-0.2,0.1-0.2s0.1-0.1,0.2-0.1h8.4c0.1,0,0.2,0,0.2,0.1s0.1,0.1,0.1,0.2v1c0,0.1,0,0.1-0.1,0.2c0,0.1-0.1,0.1-0.2,0.1h-8.4
			C462.3,1136.3,462.3,1136.3,462.2,1136.3z"/>
	</g>
	<g class="st1">
		<path d="M506.1,1136.3c-0.1-0.1-0.1-0.1-0.1-0.2v-19.8c0-0.1,0-0.2,0.1-0.2s0.1-0.1,0.2-0.1h1.1c0.1,0,0.2,0,0.2,0.1
			s0.1,0.1,0.1,0.2v19.8c0,0.1,0,0.1-0.1,0.2c0,0.1-0.1,0.1-0.2,0.1h-1.1C506.3,1136.3,506.2,1136.3,506.1,1136.3z M509.4,1127.1
			c-0.1-0.1-0.1-0.1-0.1-0.2v-1c0-0.1,0-0.2,0.1-0.2s0.1-0.1,0.2-0.1h3.5c1.5,0,2.6-0.3,3.4-1c0.8-0.7,1.2-1.7,1.2-3s-0.4-2.3-1.2-3
			s-1.9-1-3.4-1h-3.5c-0.1,0-0.1,0-0.2-0.1s-0.1-0.1-0.1-0.2v-1c0-0.1,0-0.2,0.1-0.2s0.1-0.1,0.2-0.1h3.5c1.3,0,2.4,0.2,3.3,0.7
			c0.9,0.4,1.6,1.1,2.1,1.9c0.5,0.9,0.8,1.9,0.8,3s-0.2,2.1-0.7,2.9c-0.5,0.9-1.2,1.5-2.1,2c-1,0.5-2.1,0.7-3.5,0.7h-3.4
			C509.6,1127.2,509.5,1127.2,509.4,1127.1z M517.9,1136.3c-0.1,0-0.1-0.1-0.1-0.2l-3.4-7.1c-0.1-0.1-0.1-0.2,0-0.3
			c0,0,0.1-0.1,0.2-0.1c0.1,0,0.1,0,0.1,0c0.4,0,0.7-0.1,0.9-0.2h0.1c0.1,0,0.2,0.1,0.2,0.2l3.7,7.4c0,0,0,0.1,0,0.2
			s-0.1,0.2-0.2,0.2h-1.3C518,1136.3,518,1136.3,517.9,1136.3z"/>
	</g>
	<g class="st1">
		<path d="M551.2,1117.4c-0.1-0.1-0.1-0.1-0.1-0.2v-1c0-0.1,0-0.2,0.1-0.2s0.1-0.1,0.2-0.1h13.8c0.1,0,0.2,0,0.2,0.1
			s0.1,0.1,0.1,0.2v1c0,0.1,0,0.2-0.1,0.2c0,0.1-0.1,0.1-0.2,0.1h-13.8C551.4,1117.5,551.3,1117.5,551.2,1117.4z M557.6,1136.3
			c-0.1-0.1-0.1-0.1-0.1-0.2v-16.7c0-0.1,0-0.2,0.1-0.2s0.1-0.1,0.2-0.1h1.1c0.1,0,0.2,0,0.2,0.1s0.1,0.1,0.1,0.2v16.7
			c0,0.1,0,0.1-0.1,0.2c0,0.1-0.1,0.1-0.2,0.1h-1.1C557.7,1136.3,557.6,1136.3,557.6,1136.3z"/>
	</g>
	<g class="st1">
		<path d="M600.6,1136.3c-0.1-0.1-0.1-0.1-0.1-0.2v-19.8c0-0.1,0-0.2,0.1-0.2s0.1-0.1,0.2-0.1h1.1c0.1,0,0.2,0,0.2,0.1
			s0.1,0.1,0.1,0.2v19.8c0,0.1,0,0.1-0.1,0.2c0,0.1-0.1,0.1-0.2,0.1h-1.1C600.8,1136.3,600.7,1136.3,600.6,1136.3z M603.9,1117.4
			c-0.1-0.1-0.1-0.1-0.1-0.2v-1c0-0.1,0-0.2,0.1-0.2s0.1-0.1,0.2-0.1h8.4c0.1,0,0.2,0,0.2,0.1s0.1,0.1,0.1,0.2v1
			c0,0.1,0,0.2-0.1,0.2c0,0.1-0.1,0.1-0.2,0.1h-8.4C604.1,1117.5,604,1117.5,603.9,1117.4z M603.9,1126.7c-0.1-0.1-0.1-0.1-0.1-0.2
			v-1c0-0.1,0-0.2,0.1-0.2s0.1-0.1,0.2-0.1h7c0.1,0,0.2,0,0.2,0.1c0,0,0.1,0.1,0.1,0.2v1c0,0.1,0,0.1-0.1,0.2s-0.1,0.1-0.2,0.1h-7
			C604.1,1126.8,604,1126.8,603.9,1126.7z M603.9,1136.3c-0.1-0.1-0.1-0.1-0.1-0.2v-1c0-0.1,0-0.2,0.1-0.2s0.1-0.1,0.2-0.1h8.4
			c0.1,0,0.2,0,0.2,0.1s0.1,0.1,0.1,0.2v1c0,0.1,0,0.1-0.1,0.2c0,0.1-0.1,0.1-0.2,0.1h-8.4C604.1,1136.3,604,1136.3,603.9,1136.3z"
			/>
	</g>
	<g class="st1">
		<path d="M647.9,1136.3c-0.1-0.1-0.1-0.1-0.1-0.2v-19.8c0-0.1,0-0.2,0.1-0.2s0.1-0.1,0.2-0.1h1.1c0.1,0,0.2,0,0.2,0.1
			s0.1,0.1,0.1,0.2v19.8c0,0.1,0,0.1-0.1,0.2c0,0.1-0.1,0.1-0.2,0.1h-1.1C648,1136.3,647.9,1136.3,647.9,1136.3z M651.2,1136.3
			c-0.1-0.1-0.1-0.1-0.1-0.2v-1c0-0.1,0-0.2,0.1-0.2s0.1-0.1,0.2-0.1h8.4c0.1,0,0.2,0,0.2,0.1s0.1,0.1,0.1,0.2v1
			c0,0.1,0,0.1-0.1,0.2c0,0.1-0.1,0.1-0.2,0.1h-8.4C651.3,1136.3,651.2,1136.3,651.2,1136.3z"/>
	</g>
	<g class="st1">
		<path d="M173.3,1169.9c-0.1-0.1-0.1-0.1-0.1-0.2v-1c0-0.1,0-0.2,0.1-0.2s0.1-0.1,0.2-0.1h13.8c0.1,0,0.2,0,0.2,0.1
			s0.1,0.1,0.1,0.2v1c0,0.1,0,0.2-0.1,0.2c0,0.1-0.1,0.1-0.2,0.1h-13.8C173.4,1170,173.3,1169.9,173.3,1169.9z M179.6,1188.7
			c-0.1-0.1-0.1-0.1-0.1-0.2v-16.7c0-0.1,0-0.2,0.1-0.2s0.1-0.1,0.2-0.1h1.1c0.1,0,0.2,0,0.2,0.1c0,0,0.1,0.1,0.1,0.2v16.7
			c0,0.1,0,0.1-0.1,0.2s-0.1,0.1-0.2,0.1h-1.1C179.7,1188.8,179.7,1188.8,179.6,1188.7z"/>
	</g>
	<g class="st1">
		<path d="M224.4,1187.6c-0.9-0.8-1.6-1.8-2.1-3.1c-0.2-0.6-0.3-1.3-0.4-2.1c-0.1-0.9-0.1-2.1-0.1-3.8c0-1.7,0-2.9,0.1-3.8
			s0.2-1.6,0.4-2.1c0.4-1.3,1.1-2.4,2.1-3.1s2.1-1.2,3.5-1.4h0.1c0.1,0,0.1,0,0.2,0.1c0,0.1,0.1,0.1,0.1,0.2v1
			c0,0.2-0.1,0.3-0.3,0.3c-1,0.1-1.8,0.5-2.4,1.1c-0.7,0.6-1.1,1.3-1.5,2.3c-0.2,0.4-0.3,1.1-0.4,1.9c-0.1,0.8-0.1,2-0.1,3.6
			s0,2.8,0.1,3.6c0.1,0.8,0.2,1.5,0.4,1.9c0.3,1,0.8,1.7,1.5,2.3c0.6,0.6,1.5,0.9,2.4,1.1c0.2,0,0.3,0.1,0.3,0.3v1
			c0,0.1,0,0.2-0.1,0.2s-0.1,0.1-0.2,0C226.4,1188.9,225.3,1188.4,224.4,1187.6z M230,1189c-0.1,0-0.1,0-0.2-0.1
			c0,0-0.1-0.1-0.1-0.2v-1c0-0.2,0.1-0.3,0.3-0.3c1-0.2,1.8-0.5,2.4-1.1c0.7-0.6,1.1-1.3,1.5-2.3c0.3-0.9,0.5-2.2,0.5-3.9
			c0-0.1-0.1-0.2-0.2-0.2h-4.7c-0.1,0-0.1,0-0.2-0.1c-0.1-0.1-0.1-0.1-0.1-0.2v-0.9c0-0.1,0-0.2,0.1-0.2s0.1-0.1,0.2-0.1h6.2
			c0.1,0,0.2,0,0.2,0.1s0.1,0.1,0.1,0.2v1.2c0,1,0,1.8-0.1,2.6c-0.1,0.8-0.2,1.4-0.4,1.9c-0.4,1.3-1.1,2.4-2.1,3.1
			C232.5,1188.4,231.4,1188.9,230,1189L230,1189z M234.1,1172.7c-0.1,0-0.2,0-0.2-0.2c-0.4-0.8-1-1.5-1.6-1.9s-1.4-0.8-2.3-0.9
			c-0.2,0-0.3-0.1-0.3-0.3v-1c0-0.1,0-0.2,0.1-0.2s0.1-0.1,0.2,0c1.3,0.2,2.3,0.6,3.2,1.2c0.9,0.7,1.6,1.5,2,2.4
			c0,0.1,0.1,0.2,0.1,0.2c0,0.1,0,0.1-0.1,0.2L234.1,1172.7C234.2,1172.7,234.2,1172.7,234.1,1172.7z"/>
	</g>
	<g class="st1">
		<path d="M282.1,1188.7c-0.1,0-0.2-0.1-0.2-0.2l-11.9-19.4c-0.1-0.1-0.1-0.2-0.1-0.4c0-0.2,0.1-0.3,0.3-0.3h1c0.1,0,0.2,0,0.3,0.1
			c0.1,0,0.1,0.1,0.2,0.2l12,19.5c0,0.1,0.1,0.1,0.1,0.2s0,0.1,0,0.2s-0.1,0.2-0.3,0.2h-1C282.3,1188.8,282.2,1188.8,282.1,1188.7z
			 M269.9,1188.7c-0.1-0.1-0.1-0.1-0.1-0.2v-16.2c0-0.2,0-0.2,0.2-0.2c0.1,0,0.2,0,0.2,0.2l1.2,1.9c0.1,0.1,0.1,0.2,0.1,0.4v14
			c0,0.1,0,0.1-0.1,0.2s-0.1,0.1-0.2,0.1h-1C270.1,1188.8,270,1188.8,269.9,1188.7z M282.2,1183c-0.1-0.1-0.1-0.2-0.1-0.4v-13.9
			c0-0.1,0-0.2,0.1-0.2s0.1-0.1,0.2-0.1h1c0.1,0,0.2,0,0.2,0.1s0.1,0.1,0.1,0.2v16.1c0,0.2-0.1,0.2-0.1,0.2c-0.1,0-0.1,0-0.2-0.2
			L282.2,1183z"/>
	</g>
	<g class="st1">
		<path d="M315.2,1188.7c0-0.1,0-0.1,0-0.2l6.2-17.1c0.1-0.1,0.1-0.2,0.2-0.2h0.1l0.1,0.1l0.6,1.6c0,0.1,0.1,0.1,0.1,0.2
			s0,0.2-0.1,0.2l-3,8.4h5.9c0.2,0,0.3,0.1,0.4,0.2l0.4,1v0.1c0,0.1,0,0.1-0.1,0.2c-0.1,0-0.1,0.1-0.2,0.1h-6.9l-1.8,5.1
			c0,0.1-0.1,0.2-0.2,0.2s-0.1,0.1-0.2,0.1h-1.2C315.3,1188.8,315.2,1188.8,315.2,1188.7z M329.5,1188.5l-7-19.8v-0.1
			c0-0.1,0-0.1,0.1-0.2s0.1-0.1,0.2-0.1h1.1c0.2,0,0.3,0.1,0.4,0.3l7.1,19.8v0.1c0,0.1,0,0.1-0.1,0.2s-0.1,0.1-0.2,0.1h-1.2
			C329.6,1188.8,329.5,1188.7,329.5,1188.5z"/>
	</g>
	<g class="st1">
		<path d="M366,1187.7c-0.9-0.8-1.6-1.8-2-3.1c-0.2-0.5-0.3-1.2-0.4-2.1s-0.1-2.2-0.1-3.9c0-1.7,0-3,0.1-3.9s0.2-1.6,0.4-2.1
			c0.4-1.3,1.1-2.4,2-3.1c0.9-0.8,2-1.2,3.3-1.4h0.1c0.1,0,0.1,0,0.2,0.1c0,0.1,0.1,0.1,0.1,0.2v1c0,0.2-0.1,0.3-0.3,0.3
			c-0.9,0.1-1.7,0.5-2.3,1c-0.6,0.6-1.1,1.3-1.4,2.3c-0.1,0.4-0.3,1.1-0.3,1.9c-0.1,0.8-0.1,2-0.1,3.6s0,2.8,0.1,3.6
			c0.1,0.8,0.2,1.4,0.3,1.9c0.3,1,0.8,1.7,1.4,2.3c0.6,0.6,1.4,0.9,2.3,1.1c0.2,0,0.3,0.1,0.3,0.3v1c0,0.1,0,0.2-0.1,0.2
			s-0.1,0.1-0.2,0C368,1188.9,366.9,1188.4,366,1187.7z M375.4,1172.7c-0.1,0-0.2-0.1-0.3-0.2c-0.9-1.6-2.1-2.5-3.6-2.8
			c-0.2,0-0.3-0.1-0.3-0.3v-1c0-0.1,0-0.2,0.1-0.2c0.1-0.1,0.1-0.1,0.2-0.1c1.1,0.2,2.1,0.5,3,1.2c0.9,0.6,1.5,1.5,2,2.5
			c0,0,0,0.1,0,0.2s0,0.1-0.1,0.2L375.4,1172.7C375.5,1172.7,375.5,1172.7,375.4,1172.7z M371.5,1189c-0.1,0-0.1,0-0.2-0.1
			c0-0.1-0.1-0.1-0.1-0.2v-1c0-0.2,0.1-0.3,0.3-0.3c1.6-0.3,2.8-1.2,3.6-2.8c0-0.1,0.1-0.1,0.2-0.2s0.1,0,0.2,0l1,0.5
			c0.1,0.1,0.2,0.2,0.1,0.4c-0.5,1.1-1.2,1.9-2,2.5C373.7,1188.5,372.7,1188.9,371.5,1189L371.5,1189z"/>
	</g>
	<g class="st1">
		<path d="M411.7,1188.7c-0.1-0.1-0.1-0.1-0.1-0.2v-19.8c0-0.1,0-0.2,0.1-0.2s0.1-0.1,0.2-0.1h1.1c0.1,0,0.2,0,0.2,0.1
			s0.1,0.1,0.1,0.2v19.8c0,0.1,0,0.1-0.1,0.2c0,0.1-0.1,0.1-0.2,0.1h-1.1C411.8,1188.8,411.7,1188.8,411.7,1188.7z M414.8,1179.2
			c-0.1-0.1-0.1-0.1-0.1-0.2v-1c0-0.1,0-0.2,0.1-0.2s0.1-0.1,0.2-0.1h6.9c0.1,0,0.2,0,0.2,0.1s0.1,0.1,0.1,0.2v1
			c0,0.1,0,0.1-0.1,0.2c0,0.1-0.1,0.1-0.2,0.1H415C415,1179.2,414.9,1179.2,414.8,1179.2z M423.8,1188.7c-0.1-0.1-0.1-0.1-0.1-0.2
			v-19.8c0-0.1,0-0.2,0.1-0.2s0.1-0.1,0.2-0.1h1.1c0.1,0,0.2,0,0.2,0.1s0.1,0.1,0.1,0.2v19.8c0,0.1,0,0.1-0.1,0.2s-0.1,0.1-0.2,0.1
			H424C423.9,1188.8,423.9,1188.8,423.8,1188.7z"/>
	</g>
	<g class="st1">
		<path d="M463.6,1188.5l-6.8-19.7l-0.1-0.2c0-0.1,0-0.1,0.1-0.2s0.1-0.1,0.2-0.1h1c0.1,0,0.2,0,0.3,0.1c0.1,0,0.1,0.1,0.1,0.2
			l6.7,19.6c0,0.1,0.1,0.2,0.1,0.3c0,0.2-0.1,0.3-0.3,0.3h-1C463.7,1188.8,463.6,1188.7,463.6,1188.5z M465.3,1184.2
			c0,0,0-0.1,0-0.2s0-0.2,0.1-0.3l5-15c0-0.1,0.1-0.2,0.2-0.2s0.1-0.1,0.3-0.1h1.1c0.1,0,0.2,0,0.2,0.1s0,0.2,0,0.3l-5.8,17
			c0,0.1,0,0.1-0.1,0.2l-0.1,0.1c-0.1,0-0.1-0.1-0.2-0.2L465.3,1184.2z"/>
	</g>
	<g class="st1">
		<path d="M507.8,1187.6c-0.9-0.8-1.6-1.8-2-3.1c-0.2-0.6-0.3-1.3-0.4-2.1c-0.1-0.9-0.1-2.1-0.1-3.8c0-1.7,0-2.9,0.1-3.8
			s0.2-1.6,0.4-2.1c0.4-1.3,1.1-2.4,2-3.1s2.1-1.2,3.4-1.4h0.1c0.1,0,0.1,0,0.2,0.1c0,0.1,0.1,0.1,0.1,0.2v1c0,0.2-0.1,0.3-0.3,0.3
			c-1.9,0.3-3.2,1.5-3.9,3.4c-0.2,0.5-0.3,1.1-0.4,1.9s-0.1,2-0.1,3.5s0,2.7,0.1,3.5s0.2,1.5,0.4,1.9c0.6,1.9,1.9,3.1,3.9,3.4
			c0.2,0,0.3,0.1,0.3,0.3v1c0,0.1,0,0.2-0.1,0.2s-0.1,0.1-0.2,0C509.9,1188.9,508.7,1188.4,507.8,1187.6z M513.4,1189
			c-0.1,0-0.1,0-0.2-0.1s-0.1-0.1-0.1-0.2v-1c0-0.2,0.1-0.3,0.3-0.3c1.9-0.3,3.2-1.5,3.9-3.4c0.2-0.5,0.3-1.1,0.4-2
			c0.1-0.8,0.1-2,0.1-3.5s0-2.7-0.1-3.5s-0.2-1.5-0.4-2c-0.7-1.9-2-3.1-3.9-3.4c-0.2,0-0.3-0.1-0.3-0.3v-1c0-0.1,0-0.2,0.1-0.2
			s0.1-0.1,0.2,0c1.4,0.2,2.5,0.6,3.4,1.4s1.6,1.8,2.1,3.1c0.2,0.6,0.3,1.3,0.4,2.2c0.1,0.9,0.2,2.1,0.2,3.8c0,1.6,0,2.9-0.2,3.8
			c-0.1,0.9-0.2,1.6-0.4,2.2c-0.4,1.3-1.1,2.4-2.1,3.1S514.9,1188.9,513.4,1189L513.4,1189z"/>
	</g>
	<g class="st1">
		<path d="M553.4,1188.7c-0.1-0.1-0.1-0.1-0.1-0.2v-19.8c0-0.1,0-0.2,0.1-0.2s0.1-0.1,0.2-0.1h1.1c0.1,0,0.2,0,0.2,0.1
			s0.1,0.1,0.1,0.2v19.8c0,0.1,0,0.1-0.1,0.2c0,0.1-0.1,0.1-0.2,0.1h-1.1C553.5,1188.8,553.5,1188.8,553.4,1188.7z M556.7,1179.5
			c-0.1-0.1-0.1-0.1-0.1-0.2v-1c0-0.1,0-0.2,0.1-0.2s0.1-0.1,0.2-0.1h3.5c1.5,0,2.6-0.3,3.4-1c0.8-0.7,1.2-1.7,1.2-3s-0.4-2.3-1.2-3
			s-1.9-1-3.4-1h-3.5c-0.1,0-0.1,0-0.2-0.1c-0.1-0.1-0.1-0.1-0.1-0.2v-1c0-0.1,0-0.2,0.1-0.2s0.1-0.1,0.2-0.1h3.5
			c1.3,0,2.4,0.2,3.3,0.7c0.9,0.4,1.6,1.1,2.1,1.9c0.5,0.9,0.8,1.9,0.8,3s-0.2,2.1-0.7,2.9c-0.5,0.9-1.2,1.5-2.1,2
			c-1,0.5-2.1,0.7-3.5,0.7h-3.4C556.8,1179.6,556.8,1179.6,556.7,1179.5z M565.2,1188.7c-0.1,0-0.1-0.1-0.1-0.2l-3.4-7.1
			c-0.1-0.1-0.1-0.2,0-0.3c0,0,0.1-0.1,0.2-0.1c0.1,0,0.1,0,0.1,0c0.4,0,0.7-0.1,0.9-0.2h0.1c0.1,0,0.2,0.1,0.2,0.2l3.7,7.4
			c0,0,0,0.1,0,0.2s-0.1,0.2-0.2,0.2h-1.3C565.3,1188.8,565.2,1188.8,565.2,1188.7z"/>
	</g>
	<g class="st1">
		<path d="M601.8,1186.9c-1-1.2-1.5-3-1.5-5.2v-13c0-0.1,0-0.2,0.1-0.2s0.1-0.1,0.2-0.1h1.1c0.1,0,0.2,0,0.2,0.1s0.1,0.1,0.1,0.2v13
			c0,1.7,0.4,3,1.1,3.9c0.7,1,1.7,1.5,3.1,1.8c0.2,0,0.3,0.1,0.3,0.3v1c0,0.1,0,0.2-0.1,0.2s-0.1,0.1-0.2,0
			C604.3,1188.8,602.9,1188.1,601.8,1186.9z M608.3,1189c-0.1,0-0.1,0-0.2-0.1c-0.1,0-0.1-0.1-0.1-0.2v-1c0-0.2,0.1-0.3,0.3-0.3
			c1.3-0.2,2.4-0.8,3.1-1.7s1.1-2.3,1.1-4v-13c0-0.1,0-0.2,0.1-0.2s0.1-0.1,0.2-0.1h1.1c0.1,0,0.2,0,0.2,0.1s0.1,0.1,0.1,0.2v13
			c0,2.2-0.5,3.9-1.5,5.1C611.7,1188.1,610.2,1188.8,608.3,1189L608.3,1189z"/>
	</g>
	<g class="st1">
		<path d="M647.9,1188.7c-0.1-0.1-0.1-0.1-0.1-0.2V1173c0-0.1,0-0.1,0-0.2l0.1-0.1c0.1,0,0.1,0.1,0.2,0.2l1.2,2.6
			c0.1,0.1,0.1,0.3,0.1,0.4v12.5c0,0.1,0,0.1-0.1,0.2c0,0.1-0.1,0.1-0.2,0.1h-1C648,1188.8,647.9,1188.8,647.9,1188.7z
			 M655.7,1185.7c-0.1,0-0.1-0.1-0.2-0.3l-7.6-16.7c0,0,0-0.1,0-0.2s0.1-0.2,0.2-0.2h1.1c0.2,0,0.3,0.1,0.4,0.3l7.4,16.5
			c0,0,0,0.1,0,0.2v0.1c0,0.1,0,0.1-0.1,0.1l0,0c-0.1,0.1-0.2,0.2-0.3,0.2H656C655.8,1185.8,655.7,1185.7,655.7,1185.7z
			 M663.2,1188.7c-0.1-0.1-0.1-0.1-0.1-0.2v-16.1H663l-4.9,10.8c0,0.1-0.1,0.2-0.2,0.2c-0.1,0-0.2-0.1-0.2-0.2l-0.5-1.2
			c0-0.1-0.1-0.1-0.1-0.2s0-0.2,0.1-0.2l5.7-12.8c0.1-0.2,0.2-0.3,0.4-0.3h1.1c0.1,0,0.2,0,0.2,0.1s0.1,0.1,0.1,0.2v19.8
			c0,0.1,0,0.1-0.1,0.2s-0.1,0.1-0.2,0.1h-1C663.4,1188.8,663.3,1188.8,663.2,1188.7z"/>
	</g>
	<g class="st1">
		<path d="M175.4,1241.1c-0.1-0.1-0.1-0.1-0.1-0.2v-19.8c0-0.1,0-0.2,0.1-0.2s0.1-0.1,0.2-0.1h1.1c0.1,0,0.2,0,0.2,0.1
			s0.1,0.1,0.1,0.2v19.8c0,0.1,0,0.1-0.1,0.2s-0.1,0.1-0.2,0.1h-1.1C175.6,1241.2,175.5,1241.2,175.4,1241.1z M178.6,1231.6
			c-0.1-0.1-0.1-0.1-0.1-0.2v-1c0-0.1,0-0.2,0.1-0.2s0.1-0.1,0.2-0.1h6.9c0.1,0,0.2,0,0.2,0.1s0.1,0.1,0.1,0.2v1
			c0,0.1,0,0.1-0.1,0.2c0,0.1-0.1,0.1-0.2,0.1h-6.9C178.7,1231.7,178.7,1231.7,178.6,1231.6z M187.6,1241.1
			c-0.1-0.1-0.1-0.1-0.1-0.2v-19.8c0-0.1,0-0.2,0.1-0.2s0.1-0.1,0.2-0.1h1.1c0.1,0,0.2,0,0.2,0.1s0.1,0.1,0.1,0.2v19.8
			c0,0.1,0,0.1-0.1,0.2s-0.1,0.1-0.2,0.1h-1.1C187.7,1241.2,187.6,1241.2,187.6,1241.1z"/>
	</g>
	<g class="st1">
		<path d="M220.7,1241.1c0-0.1,0-0.1,0-0.2l6.2-17.1c0.1-0.1,0.1-0.2,0.2-0.2h0.1l0.1,0.1l0.6,1.6c0,0.1,0.1,0.1,0.1,0.2
			s0,0.2-0.1,0.2l-3,8.4h5.9c0.2,0,0.3,0.1,0.4,0.2l0.4,1v0.1c0,0.1,0,0.1-0.1,0.2c-0.1,0-0.1,0.1-0.2,0.1h-6.9l-1.8,5.1
			c0,0.1-0.1,0.2-0.2,0.2c-0.1,0-0.1,0.1-0.2,0.1H221C220.8,1241.2,220.7,1241.2,220.7,1241.1z M235,1241l-7-19.8v-0.1
			c0-0.1,0-0.1,0.1-0.2s0.1-0.1,0.2-0.1h1.1c0.2,0,0.3,0.1,0.4,0.3l7.1,19.8v0.1c0,0.1,0,0.1-0.1,0.2s-0.1,0.1-0.2,0.1h-1.2
			C235.2,1241.2,235,1241.1,235,1241z"/>
	</g>
	<g class="st1">
		<path d="M269.9,1241.1c-0.1-0.1-0.1-0.1-0.1-0.2v-19.8c0-0.1,0-0.2,0.1-0.2s0.1-0.1,0.2-0.1h1.1c0.1,0,0.2,0,0.2,0.1
			s0.1,0.1,0.1,0.2v19.8c0,0.1,0,0.1-0.1,0.2s-0.1,0.1-0.2,0.1h-1.1C270.1,1241.2,270,1241.2,269.9,1241.1z M273.2,1241.1
			c-0.1-0.1-0.1-0.1-0.1-0.2v-1c0-0.1,0-0.2,0.1-0.2s0.1-0.1,0.2-0.1h8.4c0.1,0,0.2,0,0.2,0.1c0,0,0.1,0.1,0.1,0.2v1
			c0,0.1,0,0.1-0.1,0.2s-0.1,0.1-0.2,0.1h-8.4C273.4,1241.2,273.3,1241.2,273.2,1241.1z"/>
	</g>
	<g class="st1">
		<path d="M317.2,1241.1c-0.1-0.1-0.1-0.1-0.1-0.2v-19.8c0-0.1,0-0.2,0.1-0.2s0.1-0.1,0.2-0.1h1.1c0.1,0,0.2,0,0.2,0.1
			s0.1,0.1,0.1,0.2v19.8c0,0.1,0,0.1-0.1,0.2s-0.1,0.1-0.2,0.1h-1.1C317.3,1241.2,317.2,1241.2,317.2,1241.1z M328.2,1229.3
			c-0.1-0.1-0.3-0.1-0.5-0.2s-0.3-0.2-0.2-0.5c0.7-0.9,1-1.8,1-2.7c0-0.7-0.2-1.3-0.5-1.8s-0.8-1-1.5-1.3c-0.6-0.3-1.4-0.5-2.3-0.5
			h-3.5c-0.1,0-0.1,0-0.2-0.1s-0.1-0.1-0.1-0.2v-1c0-0.1,0-0.2,0.1-0.2s0.1-0.1,0.2-0.1h3.5c1.3,0,2.4,0.2,3.2,0.7
			c0.9,0.4,1.5,1,2,1.8s0.7,1.7,0.7,2.7c0,0.6-0.1,1.3-0.3,1.9c-0.2,0.6-0.5,1.1-0.9,1.6c-0.1,0.1-0.2,0.1-0.4,0.1
			C328.4,1229.5,328.3,1229.4,328.2,1229.3z M320.5,1241.1c-0.1-0.1-0.1-0.1-0.1-0.2v-1c0-0.1,0-0.2,0.1-0.2s0.1-0.1,0.2-0.1h3.7
			c1.4,0,2.5-0.4,3.3-1.1s1.1-1.7,1.1-3c0-1.2-0.4-2.2-1.2-2.9c-0.8-0.7-1.9-1.1-3.3-1.1h-3.7c-0.1,0-0.1,0-0.2-0.1
			s-0.1-0.1-0.1-0.2v-1c0-0.1,0-0.2,0.1-0.2s0.1-0.1,0.2-0.1h3.5c1.3,0,2.4,0.2,3.4,0.7c0.9,0.5,1.7,1.1,2.1,1.9
			c0.5,0.8,0.7,1.8,0.7,3s-0.2,2.2-0.7,3s-1.2,1.5-2.1,1.9s-2.1,0.7-3.4,0.7h-3.5C320.6,1241.2,320.5,1241.2,320.5,1241.1z"/>
	</g>
	<g class="st1">
		<path d="M366.1,1240.1c-0.9-0.8-1.6-1.8-2.1-3.1c-0.2-0.6-0.3-1.3-0.4-2.1s-0.1-2.1-0.1-3.8c0-1.7,0-2.9,0.1-3.8s0.2-1.6,0.4-2.1
			c0.4-1.3,1.1-2.4,2.1-3.1c0.9-0.8,2.1-1.2,3.5-1.4h0.1c0.1,0,0.1,0,0.2,0.1c0,0.1,0.1,0.1,0.1,0.2v1c0,0.2-0.1,0.3-0.3,0.3
			c-1,0.1-1.8,0.5-2.4,1.1s-1.1,1.3-1.5,2.3c-0.2,0.4-0.3,1.1-0.4,1.9s-0.1,2-0.1,3.6s0,2.8,0.1,3.6c0.1,0.8,0.2,1.5,0.4,1.9
			c0.3,1,0.8,1.7,1.5,2.3s1.5,0.9,2.4,1.1c0.2,0,0.3,0.1,0.3,0.3v1c0,0.1,0,0.2-0.1,0.2s-0.1,0.1-0.2,0
			C368.2,1241.3,367,1240.8,366.1,1240.1z M371.7,1241.5c-0.1,0-0.1,0-0.2-0.1c0,0-0.1-0.1-0.1-0.2v-1c0-0.2,0.1-0.3,0.3-0.3
			c1-0.2,1.8-0.5,2.4-1.1c0.7-0.6,1.2-1.3,1.5-2.3c0.3-0.9,0.5-2.2,0.5-3.9c0-0.1-0.1-0.2-0.2-0.2h-4.7c-0.1,0-0.2,0-0.2-0.1
			c-0.1-0.1-0.1-0.1-0.1-0.2v-0.9c0-0.1,0-0.2,0.1-0.2s0.1-0.1,0.2-0.1h6.2c0.1,0,0.2,0,0.2,0.1s0.1,0.1,0.1,0.2v1.2
			c0,1,0,1.8-0.2,2.6c-0.1,0.8-0.2,1.4-0.4,1.9c-0.4,1.3-1.1,2.4-2.1,3.1C374.3,1240.8,373.1,1241.3,371.7,1241.5L371.7,1241.5z
			 M375.9,1225.2c-0.1,0-0.2,0-0.2-0.2c-0.4-0.8-1-1.5-1.6-1.9c-0.6-0.5-1.4-0.8-2.3-0.9c-0.2,0-0.3-0.1-0.3-0.3v-1
			c0-0.1,0-0.2,0.1-0.2s0.1-0.1,0.2,0c1.3,0.2,2.3,0.6,3.2,1.2c0.9,0.7,1.6,1.5,2,2.4c0,0.1,0.1,0.2,0.1,0.2c0,0.1,0,0.1-0.1,0.2
			l-1,0.5C376,1225.2,375.9,1225.2,375.9,1225.2z"/>
	</g>
	<g class="st1">
		<path d="M410.4,1241.1c-0.1-0.1-0.1-0.1-0.1-0.2v-1c0-0.1,0-0.2,0-0.2c0-0.1,0.1-0.1,0.1-0.2l11.7-18.5c0.1-0.1,0.2-0.2,0.4-0.2
			h0.5c0.1,0,0.2,0,0.2,0.1s0.1,0.1,0.1,0.2v1c0,0.1,0,0.1,0,0.2s-0.1,0.1-0.1,0.2l-11.7,18.5c-0.1,0.1-0.2,0.2-0.4,0.2h-0.4
			C410.6,1241.2,410.5,1241.2,410.4,1241.1z M410.8,1222.3c-0.1-0.1-0.1-0.1-0.1-0.2v-1c0-0.1,0-0.2,0.1-0.2s0.1-0.1,0.2-0.1h9.1
			c0.1,0,0.2,0,0.2,0.1s0,0.2,0,0.3l-0.7,1c-0.1,0.1-0.2,0.2-0.4,0.2h-8.3C411,1222.4,410.9,1222.4,410.8,1222.3z M413.2,1241.1
			c0-0.1,0-0.2,0-0.3l0.7-1c0.1-0.1,0.2-0.2,0.4-0.2h8.7c0.1,0,0.2,0,0.2,0.1s0.1,0.1,0.1,0.2v1c0,0.1,0,0.1-0.1,0.2
			c0,0.1-0.1,0.1-0.2,0.1h-9.6C413.3,1241.2,413.3,1241.2,413.2,1241.1z"/>
	</g>
	<g class="st1">
		<path d="M461.9,1241.2c-0.1,0-0.1-0.1-0.1-0.2l-4.9-19.8v-0.1c0-0.1,0-0.1,0.1-0.1s0.1-0.1,0.2-0.1h1.1c0.1,0,0.2,0,0.3,0.1
			c0.1,0,0.1,0.1,0.1,0.2l4.7,19.6c0,0.1,0,0.1,0,0.2c0,0.2-0.1,0.3-0.3,0.3h-1C462.1,1241.2,462,1241.2,461.9,1241.2z
			 M473.2,1241.2c0,0-0.1-0.1-0.1-0.2l-4.8-16.8h-0.1l-3.9,13.6c0,0.1,0,0.1-0.1,0.2l-0.1,0.1c-0.1,0-0.1-0.1-0.2-0.2l-0.5-2.1
			c0-0.1,0-0.2,0-0.4l3.9-14.1c0-0.1,0.1-0.2,0.1-0.2s0.1-0.1,0.2-0.1h0.9c0.1,0,0.2,0,0.2,0.1s0.1,0.1,0.1,0.2l5.5,19.6v0.2
			c0,0.2-0.1,0.3-0.3,0.3h-1C473.3,1241.2,473.2,1241.2,473.2,1241.2z M474.6,1235.6c0-0.2,0-0.3,0-0.4l3.3-14.1
			c0-0.1,0.1-0.2,0.1-0.2s0.2-0.1,0.3-0.1h1.1c0.1,0,0.2,0,0.2,0.1s0,0.1,0,0.2l-4,16.5c0,0.1,0,0.1-0.1,0.2l-0.1,0.1
			c-0.1,0-0.1-0.1-0.2-0.2L474.6,1235.6z"/>
	</g>
	<g class="st1">
		<path d="M507.8,1240.1c-0.9-0.8-1.6-1.8-2-3.1c-0.2-0.6-0.3-1.3-0.4-2.1c-0.1-0.9-0.1-2.1-0.1-3.8c0-1.7,0-2.9,0.1-3.8
			s0.2-1.6,0.4-2.1c0.4-1.3,1.1-2.4,2-3.1s2.1-1.2,3.4-1.4h0.1c0.1,0,0.1,0,0.2,0.1c0,0.1,0.1,0.1,0.1,0.2v1c0,0.2-0.1,0.3-0.3,0.3
			c-1.9,0.3-3.2,1.5-3.9,3.4c-0.2,0.5-0.3,1.1-0.4,1.9s-0.1,2-0.1,3.5s0,2.7,0.1,3.5s0.2,1.5,0.4,1.9c0.6,1.9,1.9,3.1,3.9,3.4
			c0.2,0,0.3,0.1,0.3,0.3v1c0,0.1,0,0.2-0.1,0.2s-0.1,0.1-0.2,0C509.9,1241.3,508.7,1240.8,507.8,1240.1z M508.6,1217.5
			c-0.1-0.1-0.1-0.1-0.1-0.2v-1.6c0-0.1,0-0.2,0.1-0.2s0.1-0.1,0.2-0.1h1.2c0.1,0,0.2,0,0.2,0.1s0.1,0.1,0.1,0.2v1.6
			c0,0.1,0,0.2-0.1,0.2c0,0.1-0.1,0.1-0.2,0.1h-1.2C508.7,1217.6,508.6,1217.6,508.6,1217.5z M513.4,1241.5c-0.1,0-0.1,0-0.2-0.1
			s-0.1-0.1-0.1-0.2v-1c0-0.2,0.1-0.3,0.3-0.3c1.9-0.3,3.2-1.5,3.9-3.4c0.2-0.5,0.3-1.1,0.4-2c0.1-0.8,0.1-2,0.1-3.5s0-2.7-0.1-3.5
			s-0.2-1.5-0.4-2c-0.7-1.9-2-3.1-3.9-3.4c-0.2,0-0.3-0.1-0.3-0.3v-1c0-0.1,0-0.2,0.1-0.2s0.1-0.1,0.2,0c1.4,0.2,2.5,0.6,3.4,1.4
			s1.6,1.8,2.1,3.1c0.2,0.6,0.3,1.3,0.4,2.2c0.1,0.9,0.2,2.1,0.2,3.8c0,1.6,0,2.9-0.2,3.8c-0.1,0.9-0.2,1.6-0.4,2.2
			c-0.4,1.3-1.1,2.4-2.1,3.1S514.9,1241.3,513.4,1241.5L513.4,1241.5z M514.6,1217.5c-0.1-0.1-0.1-0.1-0.1-0.2v-1.6
			c0-0.1,0-0.2,0.1-0.2s0.1-0.1,0.2-0.1h1.2c0.1,0,0.2,0,0.2,0.1s0.1,0.1,0.1,0.2v1.6c0,0.1,0,0.2-0.1,0.2c0,0.1-0.1,0.1-0.2,0.1
			h-1.2C514.7,1217.6,514.6,1217.6,514.6,1217.5z"/>
	</g>
	<g class="st1">
		<path d="M553.4,1241.1c-0.1-0.1-0.1-0.1-0.1-0.2v-19.8c0-0.1,0-0.2,0.1-0.2s0.1-0.1,0.2-0.1h1.1c0.1,0,0.2,0,0.2,0.1
			s0.1,0.1,0.1,0.2v19.8c0,0.1,0,0.1-0.1,0.2c0,0.1-0.1,0.1-0.2,0.1h-1.1C553.5,1241.2,553.5,1241.2,553.4,1241.1z M556.7,1241.1
			c-0.1-0.1-0.1-0.1-0.1-0.2v-1c0-0.1,0-0.2,0.1-0.2s0.1-0.1,0.2-0.1h8.4c0.1,0,0.2,0,0.2,0.1s0.1,0.1,0.1,0.2v1
			c0,0.1,0,0.1-0.1,0.2c0,0.1-0.1,0.1-0.2,0.1h-8.4C556.8,1241.2,556.8,1241.2,556.7,1241.1z"/>
	</g>
	<g class="st1">
		<path d="M600.6,1241.1c-0.1-0.1-0.1-0.1-0.1-0.2v-19.8c0-0.1,0-0.2,0.1-0.2s0.1-0.1,0.2-0.1h1.1c0.1,0,0.2,0,0.2,0.1
			s0.1,0.1,0.1,0.2v19.8c0,0.1,0,0.1-0.1,0.2c0,0.1-0.1,0.1-0.2,0.1h-1.1C600.8,1241.2,600.7,1241.2,600.6,1241.1z M603.9,1222.3
			c-0.1-0.1-0.1-0.1-0.1-0.2v-1c0-0.1,0-0.2,0.1-0.2s0.1-0.1,0.2-0.1h8.4c0.1,0,0.2,0,0.2,0.1s0.1,0.1,0.1,0.2v1
			c0,0.1,0,0.2-0.1,0.2c0,0.1-0.1,0.1-0.2,0.1h-8.4C604.1,1222.4,604,1222.4,603.9,1222.3z M603.9,1231.8c-0.1-0.1-0.1-0.1-0.1-0.2
			v-1c0-0.1,0-0.2,0.1-0.2s0.1-0.1,0.2-0.1h7c0.1,0,0.2,0,0.2,0.1c0,0,0.1,0.1,0.1,0.2v1c0,0.1,0,0.1-0.1,0.2s-0.1,0.1-0.2,0.1h-7
			C604.1,1231.9,604,1231.9,603.9,1231.8z"/>
	</g>
	<g class="st1">
		<path d="M647.8,1240.9c-0.6-0.3-1.2-0.6-1.6-1.1c-0.1-0.1-0.1-0.1-0.1-0.2s0-0.1,0.1-0.2c0.1,0,0.1-0.1,0.1-0.1l0.7-0.6
			c0.1-0.1,0.1-0.1,0.2-0.1c0.1,0,0.2,0,0.2,0.1c0.3,0.3,0.7,0.5,1.1,0.7c0.4,0.2,0.9,0.3,1.4,0.4c0.2,0,0.3,0.1,0.3,0.3v1
			c0,0.1,0,0.2-0.1,0.2c-0.1,0.1-0.1,0.1-0.2,0.1C649.1,1241.4,648.4,1241.2,647.8,1240.9z M652,1241.4c-0.1,0-0.1,0-0.2-0.1
			c-0.1-0.1-0.1-0.1-0.1-0.2v-1c0-0.2,0.1-0.3,0.3-0.3c0.9-0.2,1.6-0.7,2.1-1.5s0.7-1.8,0.7-3.2v-14c0-0.1,0-0.2,0.1-0.2
			s0.1-0.1,0.2-0.1h1.1c0.1,0,0.2,0,0.2,0.1s0.1,0.1,0.1,0.2v14c0,1.8-0.4,3.3-1.2,4.3S653.5,1241.1,652,1241.4L652,1241.4z"/>
	</g>
	<g class="st1">
		<path d="M174.2,1293.6c-0.1-0.1-0.1-0.1-0.1-0.2v-1c0-0.1,0-0.2,0-0.2c0-0.1,0.1-0.1,0.1-0.2l11.7-18.5c0.1-0.1,0.2-0.2,0.4-0.2
			h0.4c0.1,0,0.2,0,0.2,0.1s0.1,0.1,0.1,0.2v1c0,0.1,0,0.1,0,0.2s-0.1,0.1-0.1,0.2l-11.7,18.5c-0.1,0.1-0.2,0.2-0.4,0.2h-0.4
			C174.3,1293.7,174.3,1293.6,174.2,1293.6z M174.6,1274.8c-0.1-0.1-0.1-0.1-0.1-0.2v-1c0-0.1,0-0.2,0.1-0.2s0.1-0.1,0.2-0.1h9.1
			c0.1,0,0.2,0,0.2,0.1s0,0.2,0,0.3l-0.7,1c-0.1,0.1-0.2,0.2-0.4,0.2h-8.3C174.8,1274.9,174.7,1274.8,174.6,1274.8z M177,1293.6
			c0-0.1,0-0.2,0-0.3l0.7-1c0.1-0.1,0.2-0.2,0.4-0.2h8.7c0.1,0,0.2,0,0.2,0.1s0.1,0.1,0.1,0.2v1c0,0.1,0,0.1-0.1,0.2
			c0,0.1-0.1,0.1-0.2,0.1h-9.6C177.1,1293.7,177,1293.6,177,1293.6z"/>
	</g>
	<g class="st1">
		<path d="M225.7,1293.6c-0.1,0-0.1-0.1-0.1-0.2l-4.9-19.8v-0.1c0-0.1,0-0.1,0.1-0.1s0.1-0.1,0.2-0.1h1.1c0.1,0,0.2,0,0.3,0.1
			c0.1,0,0.1,0.1,0.1,0.2l4.7,19.6c0,0.1,0,0.1,0,0.2c0,0.2-0.1,0.3-0.3,0.3h-1C225.8,1293.7,225.8,1293.6,225.7,1293.6z
			 M237,1293.6c-0.1,0-0.1-0.1-0.1-0.2l-4.8-16.8H232l-3.9,13.6c0,0.1,0,0.1-0.1,0.2l-0.1,0.1c-0.1,0-0.1-0.1-0.2-0.2l-0.5-2.1
			c0-0.1,0-0.2,0-0.4l3.9-14.1c0-0.1,0.1-0.2,0.1-0.2s0.1-0.1,0.2-0.1h0.9c0.1,0,0.2,0,0.2,0.1s0.1,0.1,0.1,0.2l5.5,19.6v0.2
			c0,0.2-0.1,0.3-0.3,0.3h-1C237.1,1293.7,237,1293.6,237,1293.6z M238.3,1288.1c0-0.2,0-0.3,0-0.4l3.3-14.1c0-0.1,0.1-0.2,0.1-0.2
			c0.1,0,0.1-0.1,0.3-0.1h1.1c0.1,0,0.2,0,0.2,0.1s0,0.1,0,0.2l-4,16.5c0,0.1,0,0.1-0.1,0.2l-0.1,0.1c-0.1,0-0.1-0.1-0.2-0.2
			L238.3,1288.1z"/>
	</g>
	<g class="st1">
		<path d="M269.9,1293.6c-0.1-0.1-0.1-0.1-0.1-0.2v-19.8c0-0.1,0-0.2,0.1-0.2s0.1-0.1,0.2-0.1h1.1c0.1,0,0.2,0,0.2,0.1
			s0.1,0.1,0.1,0.2v19.8c0,0.1,0,0.1-0.1,0.2s-0.1,0.1-0.2,0.1h-1.1C270.1,1293.7,270,1293.6,269.9,1293.6z M273.2,1274.8
			c-0.1-0.1-0.1-0.1-0.1-0.2v-1c0-0.1,0-0.2,0.1-0.2s0.1-0.1,0.2-0.1h8.4c0.1,0,0.2,0,0.2,0.1s0.1,0.1,0.1,0.2v1
			c0,0.1,0,0.2-0.1,0.2c-0.1,0.1-0.1,0.1-0.2,0.1h-8.4C273.4,1274.9,273.3,1274.8,273.2,1274.8z M273.2,1284
			c-0.1-0.1-0.1-0.1-0.1-0.2v-1c0-0.1,0-0.2,0.1-0.2s0.1-0.1,0.2-0.1h7c0.1,0,0.2,0,0.2,0.1c0,0,0.1,0.1,0.1,0.2v1
			c0,0.1,0,0.1-0.1,0.2s-0.1,0.1-0.2,0.1h-7C273.4,1284.1,273.3,1284.1,273.2,1284z M273.2,1293.6c-0.1-0.1-0.1-0.1-0.1-0.2v-1
			c0-0.1,0-0.2,0.1-0.2s0.1-0.1,0.2-0.1h8.4c0.1,0,0.2,0,0.2,0.1c0,0,0.1,0.1,0.1,0.2v1c0,0.1,0,0.1-0.1,0.2s-0.1,0.1-0.2,0.1h-8.4
			C273.4,1293.7,273.3,1293.6,273.2,1293.6z"/>
	</g>
	<g class="st1">
		<path d="M317.2,1293.6c-0.1-0.1-0.1-0.1-0.1-0.2v-19.8c0-0.1,0-0.2,0.1-0.2s0.1-0.1,0.2-0.1h1.1c0.1,0,0.2,0,0.2,0.1
			s0.1,0.1,0.1,0.2v19.8c0,0.1,0,0.1-0.1,0.2s-0.1,0.1-0.2,0.1h-1.1C317.3,1293.7,317.2,1293.6,317.2,1293.6z"/>
	</g>
	<g class="st1">
		<path d="M376.6,1293.6c-0.1,0-0.2-0.1-0.2-0.2l-11.9-19.4c-0.1-0.1-0.1-0.2-0.1-0.4c0-0.2,0.1-0.3,0.3-0.3h1c0.1,0,0.2,0,0.3,0.1
			s0.2,0.1,0.2,0.2l12,19.5c0,0.1,0.1,0.1,0.1,0.2s0,0.1,0,0.2s-0.1,0.2-0.3,0.2h-1C376.8,1293.7,376.7,1293.6,376.6,1293.6z
			 M364.4,1293.6c-0.1-0.1-0.1-0.1-0.1-0.2v-16.2c0-0.2,0-0.2,0.2-0.2c0.1,0,0.2,0,0.2,0.2l1.2,1.9c0.1,0.1,0.1,0.2,0.1,0.4v14
			c0,0.1,0,0.1-0.1,0.2c0,0.1-0.1,0.1-0.2,0.1h-1C364.5,1293.7,364.5,1293.6,364.4,1293.6z M376.7,1287.9c-0.1-0.1-0.1-0.2-0.1-0.4
			v-13.9c0-0.1,0-0.2,0.1-0.2s0.1-0.1,0.2-0.1h1c0.1,0,0.2,0,0.2,0.1s0.1,0.1,0.1,0.2v16.1c0,0.2,0,0.2-0.1,0.2s-0.2,0-0.2-0.2
			L376.7,1287.9z"/>
	</g>
	<g class="st1">
		<path d="M413.2,1293.1c-1-0.4-1.9-0.9-2.5-1.5c-0.1-0.1-0.1-0.1-0.1-0.2s0-0.2,0.1-0.2l0.7-0.8c0.1-0.1,0.3-0.2,0.4,0
			c0.6,0.5,1.3,0.9,2.1,1.3c0.8,0.4,1.7,0.6,2.6,0.7c0.2,0,0.3,0.1,0.3,0.3v1c0,0.1,0,0.2-0.1,0.2s-0.1,0.1-0.2,0
			C415.4,1293.8,414.3,1293.5,413.2,1293.1z M418.7,1293.9c-0.1,0-0.1,0-0.2-0.1s-0.1-0.1-0.1-0.2v-1c0-0.2,0.1-0.3,0.3-0.3
			c1.3-0.1,2.4-0.6,3.1-1.3c0.7-0.7,1.1-1.7,1.1-2.8c0-1.1-0.4-2-1.1-2.7s-2-1.1-3.8-1.3l-1-0.1c-2-0.3-3.4-0.8-4.4-1.8
			c-1-0.9-1.5-2.1-1.5-3.6c0-1,0.2-2,0.6-2.8s1-1.5,1.8-2s1.7-0.8,2.8-0.9h0.1c0.1,0,0.1,0,0.2,0.1c0,0.1,0.1,0.1,0.1,0.2v1
			c0,0.2-0.1,0.3-0.3,0.3c-1.1,0.2-2,0.6-2.6,1.3c-0.6,0.7-0.9,1.6-0.9,2.6c0,1.1,0.4,2,1.1,2.6c0.8,0.7,2,1.1,3.7,1.3l1,0.1
			c2,0.3,3.5,0.8,4.4,1.8s1.4,2.1,1.4,3.7c0,1.1-0.2,2-0.7,2.8s-1.1,1.5-2,2C421.1,1293.5,420,1293.8,418.7,1293.9L418.7,1293.9z
			 M418.7,1274.6c-0.2,0-0.3-0.2-0.3-0.3v-1c0-0.1,0-0.2,0.1-0.2s0.1-0.1,0.2,0c0.9,0.1,1.8,0.3,2.6,0.5c0.8,0.3,1.5,0.6,2.1,1.1
			c0.2,0.1,0.2,0.3,0.1,0.4l-0.6,0.9c-0.1,0.1-0.3,0.2-0.4,0.1C421.2,1275.2,420,1274.8,418.7,1274.6z"/>
	</g>
	<g class="st1">
		<path d="M458.9,1293.6c-0.1-0.1-0.1-0.1-0.1-0.2v-19.8c0-0.1,0-0.2,0.1-0.2s0.1-0.1,0.2-0.1h1.1c0.1,0,0.2,0,0.2,0.1
			s0.1,0.1,0.1,0.2v19.8c0,0.1,0,0.1-0.1,0.2c0,0.1-0.1,0.1-0.2,0.1h-1.1C459,1293.7,459,1293.6,458.9,1293.6z"/>
	</g>
	<g class="st1">
		<path d="M506.1,1293.6c-0.1-0.1-0.1-0.1-0.1-0.2v-19.8c0-0.1,0-0.2,0.1-0.2s0.1-0.1,0.2-0.1h1.1c0.1,0,0.2,0,0.2,0.1
			s0.1,0.1,0.1,0.2v19.8c0,0.1,0,0.1-0.1,0.2c0,0.1-0.1,0.1-0.2,0.1h-1.1C506.3,1293.7,506.2,1293.6,506.1,1293.6z M509.4,1274.8
			c-0.1-0.1-0.1-0.1-0.1-0.2v-1c0-0.1,0-0.2,0.1-0.2s0.1-0.1,0.2-0.1h8.4c0.1,0,0.2,0,0.2,0.1s0.1,0.1,0.1,0.2v1
			c0,0.1,0,0.2-0.1,0.2c0,0.1-0.1,0.1-0.2,0.1h-8.4C509.6,1274.9,509.5,1274.8,509.4,1274.8z M509.4,1284c-0.1-0.1-0.1-0.1-0.1-0.2
			v-1c0-0.1,0-0.2,0.1-0.2s0.1-0.1,0.2-0.1h7c0.1,0,0.2,0,0.2,0.1c0,0,0.1,0.1,0.1,0.2v1c0,0.1,0,0.1-0.1,0.2s-0.1,0.1-0.2,0.1h-7
			C509.6,1284.1,509.5,1284.1,509.4,1284z M509.4,1293.6c-0.1-0.1-0.1-0.1-0.1-0.2v-1c0-0.1,0-0.2,0.1-0.2s0.1-0.1,0.2-0.1h8.4
			c0.1,0,0.2,0,0.2,0.1s0.1,0.1,0.1,0.2v1c0,0.1,0,0.1-0.1,0.2c0,0.1-0.1,0.1-0.2,0.1h-8.4C509.6,1293.7,509.5,1293.6,509.4,1293.6z
			"/>
	</g>
	<g class="st1">
		<path d="M553.4,1293.6c-0.1-0.1-0.1-0.1-0.1-0.2v-19.8c0-0.1,0-0.2,0.1-0.2s0.1-0.1,0.2-0.1h1.1c0.1,0,0.2,0,0.2,0.1
			s0.1,0.1,0.1,0.2v19.8c0,0.1,0,0.1-0.1,0.2c0,0.1-0.1,0.1-0.2,0.1h-1.1C553.5,1293.7,553.5,1293.6,553.4,1293.6z M564.4,1281.8
			c-0.2-0.1-0.3-0.1-0.5-0.2s-0.3-0.2-0.2-0.5c0.7-0.9,1-1.8,1-2.7c0-0.7-0.2-1.3-0.5-1.8s-0.8-1-1.5-1.3c-0.6-0.3-1.4-0.5-2.3-0.5
			h-3.5c-0.1,0-0.1,0-0.2-0.1c-0.1-0.1-0.1-0.1-0.1-0.2v-1c0-0.1,0-0.2,0.1-0.2s0.1-0.1,0.2-0.1h3.5c1.3,0,2.4,0.2,3.2,0.7
			c0.9,0.4,1.5,1,2,1.8s0.7,1.7,0.7,2.7c0,0.6-0.1,1.3-0.3,1.9s-0.5,1.1-0.9,1.6c-0.1,0.1-0.2,0.1-0.4,0.1
			C564.7,1281.9,564.5,1281.8,564.4,1281.8z M556.7,1293.6c-0.1-0.1-0.1-0.1-0.1-0.2v-1c0-0.1,0-0.2,0.1-0.2s0.1-0.1,0.2-0.1h3.7
			c1.4,0,2.5-0.4,3.3-1.1s1.1-1.7,1.1-3c0-1.2-0.4-2.2-1.2-2.9c-0.8-0.7-1.9-1.1-3.3-1.1h-3.7c-0.1,0-0.1,0-0.2-0.1
			c-0.1-0.1-0.1-0.1-0.1-0.2v-1c0-0.1,0-0.2,0.1-0.2s0.1-0.1,0.2-0.1h3.5c1.3,0,2.5,0.2,3.4,0.7s1.7,1.1,2.1,1.9
			c0.5,0.8,0.7,1.8,0.7,3s-0.2,2.2-0.7,3s-1.2,1.5-2.1,1.9c-0.9,0.4-2.1,0.7-3.4,0.7L556.7,1293.6
			C556.8,1293.7,556.8,1293.6,556.7,1293.6z"/>
	</g>
	<g class="st1">
		<path d="M600.6,1293.6c-0.1-0.1-0.1-0.1-0.1-0.2v-19.8c0-0.1,0-0.2,0.1-0.2s0.1-0.1,0.2-0.1h1.1c0.1,0,0.2,0,0.2,0.1
			s0.1,0.1,0.1,0.2v19.8c0,0.1,0,0.1-0.1,0.2c0,0.1-0.1,0.1-0.2,0.1h-1.1C600.8,1293.7,600.7,1293.6,600.6,1293.6z M603.9,1274.8
			c-0.1-0.1-0.1-0.1-0.1-0.2v-1c0-0.1,0-0.2,0.1-0.2s0.1-0.1,0.2-0.1h8.4c0.1,0,0.2,0,0.2,0.1s0.1,0.1,0.1,0.2v1
			c0,0.1,0,0.2-0.1,0.2c0,0.1-0.1,0.1-0.2,0.1h-8.4C604.1,1274.9,604,1274.8,603.9,1274.8z M603.9,1284c-0.1-0.1-0.1-0.1-0.1-0.2v-1
			c0-0.1,0-0.2,0.1-0.2s0.1-0.1,0.2-0.1h7c0.1,0,0.2,0,0.2,0.1c0,0,0.1,0.1,0.1,0.2v1c0,0.1,0,0.1-0.1,0.2s-0.1,0.1-0.2,0.1h-7
			C604.1,1284.1,604,1284.1,603.9,1284z M603.9,1293.6c-0.1-0.1-0.1-0.1-0.1-0.2v-1c0-0.1,0-0.2,0.1-0.2s0.1-0.1,0.2-0.1h8.4
			c0.1,0,0.2,0,0.2,0.1s0.1,0.1,0.1,0.2v1c0,0.1,0,0.1-0.1,0.2c0,0.1-0.1,0.1-0.2,0.1h-8.4C604.1,1293.7,604,1293.6,603.9,1293.6z"
			/>
	</g>
	<g class="st1">
		<path d="M660.1,1293.6c-0.1,0-0.2-0.1-0.2-0.2L648,1274c-0.1-0.1-0.1-0.2-0.1-0.4c0-0.2,0.1-0.3,0.3-0.3h1c0.1,0,0.2,0,0.3,0.1
			s0.2,0.1,0.2,0.2l12,19.5c0,0.1,0.1,0.1,0.1,0.2s0,0.1,0,0.2s-0.1,0.2-0.3,0.2h-1C660.3,1293.7,660.2,1293.6,660.1,1293.6z
			 M647.9,1293.6c-0.1-0.1-0.1-0.1-0.1-0.2v-16.2c0-0.2,0-0.2,0.2-0.2c0.1,0,0.2,0,0.2,0.2l1.2,1.9c0.1,0.1,0.1,0.2,0.1,0.4v14
			c0,0.1,0,0.1-0.1,0.2c0,0.1-0.1,0.1-0.2,0.1h-1C648,1293.7,647.9,1293.6,647.9,1293.6z M660.1,1287.9c-0.1-0.1-0.1-0.2-0.1-0.4
			v-13.9c0-0.1,0-0.2,0.1-0.2s0.1-0.1,0.2-0.1h1c0.1,0,0.2,0,0.2,0.1s0.1,0.1,0.1,0.2v16.1c0,0.2,0,0.2-0.1,0.2s-0.2,0-0.2-0.2
			L660.1,1287.9z"/>
	</g>
	<g class="st1">
		<path d="M175.4,1346c-0.1-0.1-0.1-0.1-0.1-0.2V1326c0-0.1,0-0.2,0.1-0.2s0.1-0.1,0.2-0.1h1.1c0.1,0,0.2,0,0.2,0.1s0.1,0.1,0.1,0.2
			v19.8c0,0.1,0,0.1-0.1,0.2s-0.1,0.1-0.2,0.1h-1.1C175.6,1346.1,175.5,1346.1,175.4,1346z M178.8,1337.8c-0.1,0-0.1-0.1-0.1-0.2
			v-1.6c0-0.1,0-0.2,0.1-0.4l8-9.7c0.1-0.1,0.2-0.2,0.3-0.2s0.2-0.1,0.3-0.1h1.4c0.1,0,0.2,0,0.2,0.1s0,0.1,0,0.2l-9.8,11.7
			C178.9,1337.8,178.9,1337.8,178.8,1337.8z M187.6,1346c-0.1,0-0.1-0.1-0.2-0.2l-5.2-9.1c0-0.1-0.1-0.1-0.1-0.2s0-0.2,0.1-0.2
			l0.7-0.9c0.1-0.1,0.1-0.1,0.2-0.1c0.1,0,0.1,0,0.2,0.1l6,10.4v0.1c0,0.1-0.1,0.2-0.2,0.2h-1.4
			C187.7,1346.1,187.6,1346.1,187.6,1346z"/>
	</g>
	<g class="st1">
		<path d="M222.7,1346c-0.1-0.1-0.1-0.1-0.1-0.2V1326c0-0.1,0-0.2,0.1-0.2s0.1-0.1,0.2-0.1h1.1c0.1,0,0.2,0,0.2,0.1s0.1,0.1,0.1,0.2
			v19.8c0,0.1,0,0.1-0.1,0.2s-0.1,0.1-0.2,0.1h-1.1C222.8,1346.1,222.7,1346.1,222.7,1346z M226,1346c-0.1-0.1-0.1-0.1-0.1-0.2v-1
			c0-0.1,0-0.2,0.1-0.2s0.1-0.1,0.2-0.1h2.9c1.4,0,2.5-0.2,3.3-0.7s1.5-1.3,1.8-2.3c0.2-0.5,0.3-1.2,0.4-1.9c0.1-0.8,0.1-2,0.1-3.6
			s0-2.8-0.1-3.6c-0.1-0.8-0.2-1.4-0.4-2c-0.4-1.1-1-1.8-1.8-2.3c-0.9-0.5-2-0.7-3.3-0.7h-2.9c-0.1,0-0.1,0-0.2-0.1
			c-0.1-0.1-0.1-0.1-0.1-0.2v-1c0-0.1,0-0.2,0.1-0.2s0.1-0.1,0.2-0.1h3.1c3.4,0,5.6,1.4,6.5,4.1c0.2,0.6,0.3,1.3,0.4,2.2
			c0.1,0.8,0.1,2.1,0.1,3.9s0,3.1-0.1,3.9s-0.2,1.5-0.4,2.2c-0.9,2.8-3.1,4.1-6.5,4.1h-3.1C226.1,1346.1,226,1346.1,226,1346z"/>
	</g>
	<g class="st1">
		<path d="M269.9,1346c-0.1-0.1-0.1-0.1-0.1-0.2V1326c0-0.1,0-0.2,0.1-0.2s0.1-0.1,0.2-0.1h1.1c0.1,0,0.2,0,0.2,0.1s0.1,0.1,0.1,0.2
			v19.8c0,0.1,0,0.1-0.1,0.2s-0.1,0.1-0.2,0.1h-1.1C270.1,1346.1,270,1346.1,269.9,1346z M273.2,1336.9c-0.1-0.1-0.1-0.1-0.1-0.2v-1
			c0-0.1,0-0.2,0.1-0.2s0.1-0.1,0.2-0.1h3.5c1.5,0,2.6-0.3,3.4-1s1.2-1.7,1.2-3s-0.4-2.3-1.2-3c-0.8-0.7-1.9-1-3.4-1h-3.5
			c-0.1,0-0.1,0-0.2-0.1s-0.1-0.1-0.1-0.2v-1c0-0.1,0-0.2,0.1-0.2s0.1-0.1,0.2-0.1h3.5c1.3,0,2.4,0.2,3.3,0.7
			c0.9,0.4,1.6,1.1,2.1,1.9c0.5,0.9,0.8,1.9,0.8,3s-0.2,2.1-0.7,2.9c-0.5,0.9-1.2,1.5-2.1,2c-1,0.5-2.1,0.7-3.5,0.7h-3.4
			C273.4,1337,273.3,1336.9,273.2,1336.9z M281.7,1346c-0.1,0-0.1-0.1-0.1-0.2l-3.4-7.1c-0.1-0.1-0.1-0.2,0-0.3c0,0,0.1-0.1,0.2-0.1
			s0.1,0,0.1,0c0.4,0,0.7-0.1,0.9-0.2h0.1c0.1,0,0.2,0.1,0.2,0.2l3.7,7.4c0,0,0,0.1,0,0.2s-0.1,0.2-0.2,0.2h-1.3
			C281.8,1346.1,281.7,1346.1,281.7,1346z"/>
	</g>
	<g class="st1">
		<path d="M317.2,1346c-0.1-0.1-0.1-0.1-0.1-0.2V1326c0-0.1,0-0.2,0.1-0.2s0.1-0.1,0.2-0.1h1.1c0.1,0,0.2,0,0.2,0.1s0.1,0.1,0.1,0.2
			v19.8c0,0.1,0,0.1-0.1,0.2s-0.1,0.1-0.2,0.1h-1.1C317.3,1346.1,317.2,1346.1,317.2,1346z M320.5,1327.2c-0.1-0.1-0.1-0.1-0.1-0.2
			v-1c0-0.1,0-0.2,0.1-0.2s0.1-0.1,0.2-0.1h8.4c0.1,0,0.2,0,0.2,0.1s0.1,0.1,0.1,0.2v1c0,0.1,0,0.2-0.1,0.2
			c-0.1,0.1-0.1,0.1-0.2,0.1h-8.4C320.6,1327.3,320.5,1327.3,320.5,1327.2z M320.5,1336.5c-0.1-0.1-0.1-0.1-0.1-0.2v-1
			c0-0.1,0-0.2,0.1-0.2s0.1-0.1,0.2-0.1h7c0.1,0,0.2,0,0.2,0.1c0,0,0.1,0.1,0.1,0.2v1c0,0.1,0,0.1-0.1,0.2s-0.1,0.1-0.2,0.1h-7
			C320.6,1336.6,320.5,1336.5,320.5,1336.5z M320.5,1346c-0.1-0.1-0.1-0.1-0.1-0.2v-1c0-0.1,0-0.2,0.1-0.2s0.1-0.1,0.2-0.1h8.4
			c0.1,0,0.2,0,0.2,0.1c0,0,0.1,0.1,0.1,0.2v1c0,0.1,0,0.1-0.1,0.2s-0.1,0.1-0.2,0.1h-8.4C320.6,1346.1,320.5,1346.1,320.5,1346z"/>
	</g>
	<g class="st1">
		<path d="M364.4,1346c-0.1-0.1-0.1-0.1-0.1-0.2V1326c0-0.1,0-0.2,0.1-0.2s0.1-0.1,0.2-0.1h1.1c0.1,0,0.2,0,0.2,0.1s0.1,0.1,0.1,0.2
			v19.8c0,0.1,0,0.1-0.1,0.2c0,0.1-0.1,0.1-0.2,0.1h-1.1C364.5,1346.1,364.5,1346.1,364.4,1346z"/>
	</g>
	<g class="st1">
		<path d="M411.7,1346c-0.1-0.1-0.1-0.1-0.1-0.2V1326c0-0.1,0-0.2,0.1-0.2s0.1-0.1,0.2-0.1h1.1c0.1,0,0.2,0,0.2,0.1s0.1,0.1,0.1,0.2
			v19.8c0,0.1,0,0.1-0.1,0.2c0,0.1-0.1,0.1-0.2,0.1h-1.1C411.8,1346.1,411.7,1346.1,411.7,1346z M415,1336.9
			c-0.1-0.1-0.1-0.1-0.1-0.2v-1c0-0.1,0-0.2,0.1-0.2s0.1-0.1,0.2-0.1h3.5c1.5,0,2.6-0.3,3.4-1s1.2-1.7,1.2-3s-0.4-2.3-1.2-3
			s-1.9-1-3.4-1h-3.5c-0.1,0-0.1,0-0.2-0.1s-0.1-0.1-0.1-0.2v-1c0-0.1,0-0.2,0.1-0.2s0.1-0.1,0.2-0.1h3.5c1.3,0,2.4,0.2,3.3,0.7
			c0.9,0.4,1.6,1.1,2.1,1.9c0.5,0.9,0.8,1.9,0.8,3s-0.2,2.1-0.7,2.9c-0.5,0.9-1.2,1.5-2.1,2c-1,0.5-2.1,0.7-3.5,0.7h-3.4
			C415.1,1337,415,1336.9,415,1336.9z M423.4,1346c-0.1,0-0.1-0.1-0.1-0.2l-3.4-7.1c-0.1-0.1-0.1-0.2,0-0.3c0,0,0.1-0.1,0.2-0.1
			s0.1,0,0.1,0c0.4,0,0.7-0.1,0.9-0.2h0.1c0.1,0,0.2,0.1,0.2,0.2l3.7,7.4c0,0,0,0.1,0,0.2s-0.1,0.2-0.2,0.2h-1.3
			C423.6,1346.1,423.5,1346.1,423.4,1346z"/>
	</g>
	<g class="st1">
		<path d="M458.9,1346c-0.1-0.1-0.1-0.1-0.1-0.2V1326c0-0.1,0-0.2,0.1-0.2s0.1-0.1,0.2-0.1h1.1c0.1,0,0.2,0,0.2,0.1s0.1,0.1,0.1,0.2
			v19.8c0,0.1,0,0.1-0.1,0.2c0,0.1-0.1,0.1-0.2,0.1h-1.1C459,1346.1,459,1346.1,458.9,1346z M462.1,1336.5c-0.1-0.1-0.1-0.1-0.1-0.2
			v-1c0-0.1,0-0.2,0.1-0.2s0.1-0.1,0.2-0.1h6.9c0.1,0,0.2,0,0.2,0.1s0.1,0.1,0.1,0.2v1c0,0.1,0,0.1-0.1,0.2c0,0.1-0.1,0.1-0.2,0.1
			h-6.9C462.2,1336.6,462.1,1336.5,462.1,1336.5z M471.1,1346c-0.1-0.1-0.1-0.1-0.1-0.2V1326c0-0.1,0-0.2,0.1-0.2s0.1-0.1,0.2-0.1
			h1.1c0.1,0,0.2,0,0.2,0.1s0.1,0.1,0.1,0.2v19.8c0,0.1,0,0.1-0.1,0.2s-0.1,0.1-0.2,0.1h-1.1C471.2,1346.1,471.1,1346.1,471.1,1346z
			"/>
	</g>
	<g class="st1">
		<path d="M506.1,1346c-0.1-0.1-0.1-0.1-0.1-0.2V1326c0-0.1,0-0.2,0.1-0.2s0.1-0.1,0.2-0.1h1.1c0.1,0,0.2,0,0.2,0.1s0.1,0.1,0.1,0.2
			v19.8c0,0.1,0,0.1-0.1,0.2c0,0.1-0.1,0.1-0.2,0.1h-1.1C506.3,1346.1,506.2,1346.1,506.1,1346z M509.4,1327.2
			c-0.1-0.1-0.1-0.1-0.1-0.2v-1c0-0.1,0-0.2,0.1-0.2s0.1-0.1,0.2-0.1h8.4c0.1,0,0.2,0,0.2,0.1s0.1,0.1,0.1,0.2v1
			c0,0.1,0,0.2-0.1,0.2c0,0.1-0.1,0.1-0.2,0.1h-8.4C509.6,1327.3,509.5,1327.3,509.4,1327.2z M509.4,1336.7
			c-0.1-0.1-0.1-0.1-0.1-0.2v-1c0-0.1,0-0.2,0.1-0.2s0.1-0.1,0.2-0.1h7c0.1,0,0.2,0,0.2,0.1c0,0,0.1,0.1,0.1,0.2v1
			c0,0.1,0,0.1-0.1,0.2s-0.1,0.1-0.2,0.1h-7C509.6,1336.8,509.5,1336.7,509.4,1336.7z"/>
	</g>
	<g class="st1">
		<path d="M554.6,1344.2c-1-1.2-1.5-3-1.5-5.2v-13c0-0.1,0-0.2,0.1-0.2s0.1-0.1,0.2-0.1h1.1c0.1,0,0.2,0,0.2,0.1s0.1,0.1,0.1,0.2v13
			c0,1.7,0.4,3,1.1,3.9c0.7,1,1.7,1.5,3.1,1.8c0.2,0,0.3,0.1,0.3,0.3v1c0,0.1,0,0.2-0.1,0.2s-0.1,0.1-0.2,0
			C557,1346.2,555.6,1345.5,554.6,1344.2z M556.2,1322.4c-0.1-0.1-0.1-0.1-0.1-0.2v-1.6c0-0.1,0-0.2,0.1-0.2s0.1-0.1,0.2-0.1h1.1
			c0.1,0,0.2,0,0.2,0.1c0,0,0.1,0.1,0.1,0.2v1.6c0,0.1,0,0.2-0.1,0.2c-0.1,0.1-0.1,0.1-0.2,0.1h-1.1
			C556.3,1322.5,556.3,1322.5,556.2,1322.4z M561.1,1346.3c-0.1,0-0.1,0-0.2-0.1c-0.1,0-0.1-0.1-0.1-0.2v-1c0-0.2,0.1-0.3,0.3-0.3
			c1.3-0.2,2.4-0.8,3.1-1.7s1.1-2.3,1.1-4v-13c0-0.1,0-0.2,0.1-0.2s0.1-0.1,0.2-0.1h1.1c0.1,0,0.2,0,0.2,0.1s0.1,0.1,0.1,0.2v13
			c0,2.2-0.5,3.9-1.5,5.1C564.4,1345.4,563,1346.1,561.1,1346.3L561.1,1346.3z M562.2,1322.4c-0.1-0.1-0.1-0.1-0.1-0.2v-1.6
			c0-0.1,0-0.2,0.1-0.2s0.1-0.1,0.2-0.1h1.1c0.1,0,0.2,0,0.2,0.1c0,0,0.1,0.1,0.1,0.2v1.6c0,0.1,0,0.2-0.1,0.2
			c-0.1,0.1-0.1,0.1-0.2,0.1h-1.1C562.3,1322.5,562.3,1322.5,562.2,1322.4z"/>
	</g>
	<g class="st1">
		<path d="M612.8,1346c-0.1,0-0.2-0.1-0.2-0.2l-11.9-19.4c-0.1-0.1-0.1-0.2-0.1-0.4c0-0.2,0.1-0.3,0.3-0.3h1c0.1,0,0.2,0,0.3,0.1
			s0.2,0.1,0.2,0.2l12,19.5c0,0.1,0.1,0.1,0.1,0.2s0,0.1,0,0.2s-0.1,0.2-0.3,0.2h-1C613,1346.1,612.9,1346.1,612.8,1346z
			 M600.6,1346c-0.1-0.1-0.1-0.1-0.1-0.2v-16.2c0-0.2,0-0.2,0.2-0.2c0.1,0,0.2,0,0.2,0.2l1.2,1.9c0.1,0.1,0.1,0.2,0.1,0.4v14
			c0,0.1,0,0.1-0.1,0.2c0,0.1-0.1,0.1-0.2,0.1h-1C600.8,1346.1,600.7,1346.1,600.6,1346z M612.9,1340.3c-0.1-0.1-0.1-0.2-0.1-0.4
			V1326c0-0.1,0-0.2,0.1-0.2s0.1-0.1,0.2-0.1h1c0.1,0,0.2,0,0.2,0.1s0.1,0.1,0.1,0.2v16.1c0,0.2,0,0.2-0.1,0.2s-0.2,0-0.2-0.2
			L612.9,1340.3z"/>
	</g>
	<g class="st1">
		<path d="M647.9,1346c-0.1-0.1-0.1-0.1-0.1-0.2V1326c0-0.1,0-0.2,0.1-0.2s0.1-0.1,0.2-0.1h1.1c0.1,0,0.2,0,0.2,0.1s0.1,0.1,0.1,0.2
			v19.8c0,0.1,0,0.1-0.1,0.2c0,0.1-0.1,0.1-0.2,0.1h-1.1C648,1346.1,647.9,1346.1,647.9,1346z M651.2,1327.2
			c-0.1-0.1-0.1-0.1-0.1-0.2v-1c0-0.1,0-0.2,0.1-0.2s0.1-0.1,0.2-0.1h8.4c0.1,0,0.2,0,0.2,0.1s0.1,0.1,0.1,0.2v1
			c0,0.1,0,0.2-0.1,0.2c0,0.1-0.1,0.1-0.2,0.1h-8.4C651.3,1327.3,651.2,1327.3,651.2,1327.2z M651.2,1336.7
			c-0.1-0.1-0.1-0.1-0.1-0.2v-1c0-0.1,0-0.2,0.1-0.2s0.1-0.1,0.2-0.1h7c0.1,0,0.2,0,0.2,0.1c0,0,0.1,0.1,0.1,0.2v1
			c0,0.1,0,0.1-0.1,0.2s-0.1,0.1-0.2,0.1h-7C651.3,1336.8,651.2,1336.7,651.2,1336.7z"/>
	</g>
	<g class="st1">
		<path d="M175.4,1398.5c-0.1-0.1-0.1-0.1-0.1-0.2v-19.8c0-0.1,0-0.2,0.1-0.2s0.1-0.1,0.2-0.1h1.1c0.1,0,0.2,0,0.2,0.1
			s0.1,0.1,0.1,0.2v19.8c0,0.1,0,0.1-0.1,0.2s-0.1,0.1-0.2,0.1h-1.1C175.6,1398.5,175.5,1398.5,175.4,1398.5z M178.7,1379.6
			c-0.1-0.1-0.1-0.1-0.1-0.2v-1c0-0.1,0-0.2,0.1-0.2s0.1-0.1,0.2-0.1h8.4c0.1,0,0.2,0,0.2,0.1s0.1,0.1,0.1,0.2v1
			c0,0.1,0,0.2-0.1,0.2c-0.1,0.1-0.1,0.1-0.2,0.1h-8.4C178.9,1379.7,178.8,1379.7,178.7,1379.6z M178.7,1388.9
			c-0.1-0.1-0.1-0.1-0.1-0.2v-1c0-0.1,0-0.2,0.1-0.2s0.1-0.1,0.2-0.1h7c0.1,0,0.2,0,0.2,0.1c0,0,0.1,0.1,0.1,0.2v1
			c0,0.1,0,0.1-0.1,0.2s-0.1,0.1-0.2,0.1h-7C178.9,1389,178.8,1389,178.7,1388.9z M178.7,1398.5c-0.1-0.1-0.1-0.1-0.1-0.2v-1
			c0-0.1,0-0.2,0.1-0.2s0.1-0.1,0.2-0.1h8.4c0.1,0,0.2,0,0.2,0.1c0,0,0.1,0.1,0.1,0.2v1c0,0.1,0,0.1-0.1,0.2s-0.1,0.1-0.2,0.1h-8.4
			C178.9,1398.5,178.8,1398.5,178.7,1398.5z"/>
	</g>
	<g class="st1">
		<path d="M222.7,1398.5c-0.1-0.1-0.1-0.1-0.1-0.2v-19.8c0-0.1,0-0.2,0.1-0.2s0.1-0.1,0.2-0.1h1.1c0.1,0,0.2,0,0.2,0.1
			s0.1,0.1,0.1,0.2v19.8c0,0.1,0,0.1-0.1,0.2s-0.1,0.1-0.2,0.1h-1.1C222.8,1398.5,222.7,1398.5,222.7,1398.5z M226,1398.5
			c-0.1-0.1-0.1-0.1-0.1-0.2v-1c0-0.1,0-0.2,0.1-0.2s0.1-0.1,0.2-0.1h8.4c0.1,0,0.2,0,0.2,0.1c0,0,0.1,0.1,0.1,0.2v1
			c0,0.1,0,0.1-0.1,0.2s-0.1,0.1-0.2,0.1h-8.4C226.1,1398.5,226,1398.5,226,1398.5z"/>
	</g>
	<g class="st1">
		<path d="M269.9,1398.5c-0.1-0.1-0.1-0.1-0.1-0.2v-19.8c0-0.1,0-0.2,0.1-0.2s0.1-0.1,0.2-0.1h1.1c0.1,0,0.2,0,0.2,0.1
			s0.1,0.1,0.1,0.2v19.8c0,0.1,0,0.1-0.1,0.2s-0.1,0.1-0.2,0.1h-1.1C270.1,1398.5,270,1398.5,269.9,1398.5z M273.2,1379.6
			c-0.1-0.1-0.1-0.1-0.1-0.2v-1c0-0.1,0-0.2,0.1-0.2s0.1-0.1,0.2-0.1h8.4c0.1,0,0.2,0,0.2,0.1s0.1,0.1,0.1,0.2v1
			c0,0.1,0,0.2-0.1,0.2c-0.1,0.1-0.1,0.1-0.2,0.1h-8.4C273.4,1379.7,273.3,1379.7,273.2,1379.6z M273.2,1389.1
			c-0.1-0.1-0.1-0.1-0.1-0.2v-1c0-0.1,0-0.2,0.1-0.2s0.1-0.1,0.2-0.1h7c0.1,0,0.2,0,0.2,0.1c0,0,0.1,0.1,0.1,0.2v1
			c0,0.1,0,0.1-0.1,0.2s-0.1,0.1-0.2,0.1h-7C273.4,1389.2,273.3,1389.2,273.2,1389.1z"/>
	</g>
	<g class="st1">
		<path d="M329.4,1398.5c-0.1,0-0.2-0.1-0.2-0.2l-11.9-19.4c-0.1-0.1-0.1-0.2-0.1-0.4c0-0.2,0.1-0.3,0.3-0.3h1c0.1,0,0.2,0,0.3,0.1
			c0.1,0,0.1,0.1,0.2,0.2l12,19.5c0,0.1,0.1,0.1,0.1,0.2s0,0.1,0,0.2s-0.1,0.2-0.3,0.2h-1C329.5,1398.5,329.5,1398.5,329.4,1398.5z
			 M317.2,1398.5c-0.1-0.1-0.1-0.1-0.1-0.2v-16.2c0-0.2,0-0.2,0.2-0.2c0.1,0,0.2,0,0.2,0.2l1.2,1.9c0.1,0.1,0.1,0.2,0.1,0.4v14
			c0,0.1,0,0.1-0.1,0.2s-0.1,0.1-0.2,0.1h-1C317.3,1398.5,317.2,1398.5,317.2,1398.5z M329.4,1392.8c-0.1-0.1-0.1-0.2-0.1-0.4v-13.9
			c0-0.1,0-0.2,0.1-0.2s0.1-0.1,0.2-0.1h1c0.1,0,0.2,0,0.2,0.1s0.1,0.1,0.1,0.2v16.1c0,0.2-0.1,0.2-0.1,0.2c-0.1,0-0.1,0-0.2-0.2
			L329.4,1392.8z"/>
	</g>
	<g class="st1">
		<path d="M364.4,1398.5c-0.1-0.1-0.1-0.1-0.1-0.2v-19.8c0-0.1,0-0.2,0.1-0.2s0.1-0.1,0.2-0.1h1.1c0.1,0,0.2,0,0.2,0.1
			s0.1,0.1,0.1,0.2v19.8c0,0.1,0,0.1-0.1,0.2c0,0.1-0.1,0.1-0.2,0.1h-1.1C364.5,1398.5,364.5,1398.5,364.4,1398.5z M367.7,1379.6
			c-0.1-0.1-0.1-0.1-0.1-0.2v-1c0-0.1,0-0.2,0.1-0.2s0.1-0.1,0.2-0.1h8.4c0.1,0,0.2,0,0.2,0.1s0.1,0.1,0.1,0.2v1
			c0,0.1,0,0.2-0.1,0.2c0,0.1-0.1,0.1-0.2,0.1h-8.4C367.8,1379.7,367.8,1379.7,367.7,1379.6z M367.7,1388.9
			c-0.1-0.1-0.1-0.1-0.1-0.2v-1c0-0.1,0-0.2,0.1-0.2s0.1-0.1,0.2-0.1h7c0.1,0,0.2,0,0.2,0.1c0,0,0.1,0.1,0.1,0.2v1
			c0,0.1,0,0.1-0.1,0.2s-0.1,0.1-0.2,0.1h-7C367.8,1389,367.8,1389,367.7,1388.9z M367.7,1398.5c-0.1-0.1-0.1-0.1-0.1-0.2v-1
			c0-0.1,0-0.2,0.1-0.2s0.1-0.1,0.2-0.1h8.4c0.1,0,0.2,0,0.2,0.1s0.1,0.1,0.1,0.2v1c0,0.1,0,0.1-0.1,0.2c0,0.1-0.1,0.1-0.2,0.1h-8.4
			C367.8,1398.5,367.8,1398.5,367.7,1398.5z"/>
	</g>
	<g class="st1">
		<path d="M412.9,1396.7c-1-1.2-1.5-3-1.5-5.2v-13c0-0.1,0-0.2,0.1-0.2s0.1-0.1,0.2-0.1h1.1c0.1,0,0.2,0,0.2,0.1s0.1,0.1,0.1,0.2v13
			c0,1.7,0.4,3,1.1,3.9c0.7,1,1.7,1.5,3.1,1.8c0.2,0,0.3,0.1,0.3,0.3v1c0,0.1,0,0.2-0.1,0.2s-0.1,0.1-0.2,0
			C415.3,1398.6,413.9,1397.9,412.9,1396.7z M419.3,1398.8c-0.1,0-0.1,0-0.2-0.1c-0.1,0-0.1-0.1-0.1-0.2v-1c0-0.2,0.1-0.3,0.3-0.3
			c1.3-0.2,2.4-0.8,3.1-1.7s1.1-2.3,1.1-4v-13c0-0.1,0-0.2,0.1-0.2s0.1-0.1,0.2-0.1h1.1c0.1,0,0.2,0,0.2,0.1s0.1,0.1,0.1,0.2v13
			c0,2.2-0.5,3.9-1.5,5.1C422.7,1397.9,421.3,1398.6,419.3,1398.8L419.3,1398.8z"/>
	</g>
	<g class="st1">
		<path d="M471.1,1398.5c-0.1,0-0.2-0.1-0.2-0.2l-11.9-19.4c-0.1-0.1-0.1-0.2-0.1-0.4c0-0.2,0.1-0.3,0.3-0.3h1c0.1,0,0.2,0,0.3,0.1
			s0.2,0.1,0.2,0.2l12,19.5c0,0.1,0.1,0.1,0.1,0.2s0,0.1,0,0.2s-0.1,0.2-0.3,0.2h-1C471.3,1398.5,471.2,1398.5,471.1,1398.5z
			 M458.9,1398.5c-0.1-0.1-0.1-0.1-0.1-0.2v-16.2c0-0.2,0-0.2,0.2-0.2c0.1,0,0.2,0,0.2,0.2l1.2,1.9c0.1,0.1,0.1,0.2,0.1,0.4v14
			c0,0.1,0,0.1-0.1,0.2c0,0.1-0.1,0.1-0.2,0.1h-1C459,1398.5,459,1398.5,458.9,1398.5z M471.2,1392.8c-0.1-0.1-0.1-0.2-0.1-0.4
			v-13.9c0-0.1,0-0.2,0.1-0.2s0.1-0.1,0.2-0.1h1c0.1,0,0.2,0,0.2,0.1s0.1,0.1,0.1,0.2v16.1c0,0.2,0,0.2-0.1,0.2s-0.2,0-0.2-0.2
			L471.2,1392.8z"/>
	</g>
	<g class="st1">
		<path d="M510.8,1398.2l-6.8-19.7l-0.1-0.2c0-0.1,0-0.1,0.1-0.2s0.1-0.1,0.2-0.1h1c0.1,0,0.2,0,0.3,0.1c0.1,0,0.1,0.1,0.1,0.2
			l6.7,19.6c0,0.1,0.1,0.2,0.1,0.3c0,0.2-0.1,0.3-0.3,0.3h-1C511,1398.5,510.9,1398.4,510.8,1398.2z M512.5,1394c0,0,0-0.1,0-0.2
			s0-0.2,0.1-0.3l5-15c0-0.1,0.1-0.2,0.2-0.2c0.1,0,0.1-0.1,0.3-0.1h1.1c0.1,0,0.2,0,0.2,0.1s0,0.2,0,0.3l-5.8,17
			c0,0.1,0,0.1-0.1,0.2l-0.1,0.1c-0.1,0-0.1-0.1-0.2-0.2L512.5,1394z"/>
	</g>
	<g class="st1">
		<path d="M553.4,1398.5c-0.1-0.1-0.1-0.1-0.1-0.2v-19.8c0-0.1,0-0.2,0.1-0.2s0.1-0.1,0.2-0.1h1.1c0.1,0,0.2,0,0.2,0.1
			s0.1,0.1,0.1,0.2v19.8c0,0.1,0,0.1-0.1,0.2c0,0.1-0.1,0.1-0.2,0.1h-1.1C553.5,1398.5,553.5,1398.5,553.4,1398.5z"/>
	</g>
	<g class="st1">
		<path d="M600.6,1398.5c-0.1-0.1-0.1-0.1-0.1-0.2v-19.8c0-0.1,0-0.2,0.1-0.2s0.1-0.1,0.2-0.1h1.1c0.1,0,0.2,0,0.2,0.1
			s0.1,0.1,0.1,0.2v19.8c0,0.1,0,0.1-0.1,0.2c0,0.1-0.1,0.1-0.2,0.1h-1.1C600.8,1398.5,600.7,1398.5,600.6,1398.5z M603.9,1379.6
			c-0.1-0.1-0.1-0.1-0.1-0.2v-1c0-0.1,0-0.2,0.1-0.2s0.1-0.1,0.2-0.1h8.4c0.1,0,0.2,0,0.2,0.1s0.1,0.1,0.1,0.2v1
			c0,0.1,0,0.2-0.1,0.2c0,0.1-0.1,0.1-0.2,0.1h-8.4C604.1,1379.7,604,1379.7,603.9,1379.6z M603.9,1388.9c-0.1-0.1-0.1-0.1-0.1-0.2
			v-1c0-0.1,0-0.2,0.1-0.2s0.1-0.1,0.2-0.1h7c0.1,0,0.2,0,0.2,0.1c0,0,0.1,0.1,0.1,0.2v1c0,0.1,0,0.1-0.1,0.2s-0.1,0.1-0.2,0.1h-7
			C604.1,1389,604,1389,603.9,1388.9z M603.9,1398.5c-0.1-0.1-0.1-0.1-0.1-0.2v-1c0-0.1,0-0.2,0.1-0.2s0.1-0.1,0.2-0.1h8.4
			c0.1,0,0.2,0,0.2,0.1s0.1,0.1,0.1,0.2v1c0,0.1,0,0.1-0.1,0.2c0,0.1-0.1,0.1-0.2,0.1h-8.4C604.1,1398.5,604,1398.5,603.9,1398.5z"
			/>
	</g>
	<g class="st1">
		<path d="M647.9,1398.5c-0.1-0.1-0.1-0.1-0.1-0.2v-19.8c0-0.1,0-0.2,0.1-0.2s0.1-0.1,0.2-0.1h1.1c0.1,0,0.2,0,0.2,0.1
			s0.1,0.1,0.1,0.2v19.8c0,0.1,0,0.1-0.1,0.2c0,0.1-0.1,0.1-0.2,0.1h-1.1C648,1398.5,647.9,1398.5,647.9,1398.5z M651.2,1389.3
			c-0.1-0.1-0.1-0.1-0.1-0.2v-1c0-0.1,0-0.2,0.1-0.2s0.1-0.1,0.2-0.1h3.5c1.5,0,2.6-0.3,3.4-1c0.8-0.7,1.2-1.7,1.2-3s-0.4-2.3-1.2-3
			s-1.9-1-3.4-1h-3.5c-0.1,0-0.1,0-0.2-0.1c-0.1-0.1-0.1-0.1-0.1-0.2v-1c0-0.1,0-0.2,0.1-0.2s0.1-0.1,0.2-0.1h3.5
			c1.3,0,2.4,0.2,3.3,0.7c0.9,0.4,1.6,1.1,2.1,1.9c0.5,0.9,0.8,1.9,0.8,3s-0.2,2.1-0.7,2.9c-0.5,0.9-1.2,1.5-2.1,2
			c-1,0.5-2.1,0.7-3.5,0.7h-3.4C651.3,1389.4,651.2,1389.4,651.2,1389.3z M659.7,1398.5c-0.1,0-0.1-0.1-0.1-0.2l-3.4-7.1
			c-0.1-0.1-0.1-0.2,0-0.3c0,0,0.1-0.1,0.2-0.1c0.1,0,0.1,0,0.1,0c0.4,0,0.7-0.1,0.9-0.2h0.1c0.1,0,0.2,0.1,0.2,0.2l3.7,7.4
			c0,0,0,0.1,0,0.2s-0.1,0.2-0.2,0.2h-1.3C659.8,1398.5,659.7,1398.5,659.7,1398.5z"/>
	</g>
	<g class="st1">
		<path d="M187.6,1450.9c-0.1,0-0.2-0.1-0.2-0.2l-11.9-19.4c-0.1-0.1-0.1-0.2-0.1-0.4c0-0.2,0.1-0.3,0.3-0.3h1c0.1,0,0.2,0,0.3,0.1
			c0.1,0,0.1,0.1,0.2,0.2l12,19.5c0,0.1,0.1,0.1,0.1,0.2s0,0.1,0,0.2s-0.1,0.2-0.3,0.2h-1C187.8,1451,187.7,1451,187.6,1450.9z
			 M175.4,1450.9c-0.1-0.1-0.1-0.1-0.1-0.2v-16.2c0-0.2,0-0.2,0.2-0.2c0.1,0,0.2,0,0.2,0.2l1.2,1.9c0.1,0.1,0.1,0.2,0.1,0.4v14
			c0,0.1,0,0.1-0.1,0.2s-0.1,0.1-0.2,0.1h-1C175.6,1451,175.5,1451,175.4,1450.9z M187.7,1445.2c-0.1-0.1-0.1-0.2-0.1-0.4v-13.9
			c0-0.1,0-0.2,0.1-0.2s0.1-0.1,0.2-0.1h1c0.1,0,0.2,0,0.2,0.1s0.1,0.1,0.1,0.2v16.1c0,0.2-0.1,0.2-0.1,0.2c-0.1,0-0.1,0-0.2-0.2
			L187.7,1445.2z"/>
	</g>
	<g class="st1">
		<path d="M220.7,1450.9c0-0.1,0-0.1,0-0.2l6.2-17.1c0.1-0.1,0.1-0.2,0.2-0.2h0.1l0.1,0.1l0.6,1.6c0,0.1,0.1,0.1,0.1,0.2
			s0,0.2-0.1,0.2l-3,8.4h5.9c0.2,0,0.3,0.1,0.4,0.2l0.4,1v0.1c0,0.1,0,0.1-0.1,0.2c-0.1,0-0.1,0.1-0.2,0.1h-6.9l-1.8,5.1
			c0,0.1-0.1,0.2-0.2,0.2c-0.1,0-0.1,0.1-0.2,0.1H221C220.8,1451,220.7,1451,220.7,1450.9z M235,1450.7l-7-19.8v-0.1
			c0-0.1,0-0.1,0.1-0.2s0.1-0.1,0.2-0.1h1.1c0.2,0,0.3,0.1,0.4,0.3l7.1,19.8v0.1c0,0.1,0,0.1-0.1,0.2s-0.1,0.1-0.2,0.1h-1.2
			C235.2,1451,235,1450.9,235,1450.7z"/>
	</g>
	<g class="st1">
		<path d="M271.5,1449.9c-0.9-0.8-1.6-1.8-2-3.1c-0.2-0.5-0.3-1.2-0.4-2.1s-0.1-2.2-0.1-3.9c0-1.7,0-3,0.1-3.9s0.2-1.6,0.4-2.1
			c0.4-1.3,1.1-2.4,2-3.1c0.9-0.8,2-1.2,3.3-1.4h0.1c0.1,0,0.1,0,0.2,0.1c0,0.1,0.1,0.1,0.1,0.2v1c0,0.2-0.1,0.3-0.3,0.3
			c-0.9,0.1-1.7,0.5-2.3,1c-0.6,0.6-1.1,1.3-1.4,2.3c-0.1,0.4-0.3,1.1-0.3,1.9c-0.1,0.8-0.1,2-0.1,3.6s0,2.8,0.1,3.6
			c0.1,0.8,0.2,1.4,0.3,1.9c0.3,1,0.8,1.7,1.4,2.3c0.6,0.6,1.4,0.9,2.3,1.1c0.2,0,0.3,0.1,0.3,0.3v1c0,0.1,0,0.2-0.1,0.2
			s-0.1,0.1-0.2,0C273.5,1451.1,272.4,1450.6,271.5,1449.9z M280.9,1434.9c-0.1,0-0.2-0.1-0.3-0.2c-0.9-1.6-2.1-2.5-3.6-2.8
			c-0.2,0-0.3-0.1-0.3-0.3v-1c0-0.1,0-0.2,0.1-0.2c0.1-0.1,0.1-0.1,0.2-0.1c1.1,0.2,2.1,0.5,3,1.2s1.5,1.5,2,2.5c0,0,0,0.1,0,0.2
			s0,0.1-0.1,0.2L280.9,1434.9C281,1434.9,281,1434.9,280.9,1434.9z M277,1451.2c-0.1,0-0.1,0-0.2-0.1s-0.1-0.1-0.1-0.2v-1
			c0-0.2,0.1-0.3,0.3-0.3c1.6-0.3,2.8-1.2,3.6-2.8c0-0.1,0.1-0.1,0.2-0.2c0.1,0,0.1,0,0.2,0l1,0.5c0.1,0.1,0.2,0.2,0.1,0.4
			c-0.5,1.1-1.2,1.9-2,2.5S278.2,1451.1,277,1451.2L277,1451.2z"/>
	</g>
	<g class="st1">
		<path d="M317.2,1450.9c-0.1-0.1-0.1-0.1-0.1-0.2v-19.8c0-0.1,0-0.2,0.1-0.2s0.1-0.1,0.2-0.1h1.1c0.1,0,0.2,0,0.2,0.1
			s0.1,0.1,0.1,0.2v19.8c0,0.1,0,0.1-0.1,0.2s-0.1,0.1-0.2,0.1h-1.1C317.3,1451,317.2,1451,317.2,1450.9z M320.3,1441.4
			c-0.1-0.1-0.1-0.1-0.1-0.2v-1c0-0.1,0-0.2,0.1-0.2s0.1-0.1,0.2-0.1h6.9c0.1,0,0.2,0,0.2,0.1s0.1,0.1,0.1,0.2v1
			c0,0.1,0,0.1-0.1,0.2c0,0.1-0.1,0.1-0.2,0.1h-6.9C320.5,1441.4,320.4,1441.4,320.3,1441.4z M329.3,1450.9
			c-0.1-0.1-0.1-0.1-0.1-0.2v-19.8c0-0.1,0-0.2,0.1-0.2s0.1-0.1,0.2-0.1h1.1c0.1,0,0.2,0,0.2,0.1s0.1,0.1,0.1,0.2v19.8
			c0,0.1,0,0.1-0.1,0.2s-0.1,0.1-0.2,0.1h-1.1C329.4,1451,329.4,1451,329.3,1450.9z"/>
	</g>
	<g class="st1">
		<path d="M362.3,1432.1c-0.1-0.1-0.1-0.1-0.1-0.2v-1c0-0.1,0-0.2,0.1-0.2s0.1-0.1,0.2-0.1h13.8c0.1,0,0.2,0,0.2,0.1
			s0.1,0.1,0.1,0.2v1c0,0.1,0,0.2-0.1,0.2c0,0.1-0.1,0.1-0.2,0.1h-13.8C362.4,1432.2,362.3,1432.2,362.3,1432.1z M368.6,1450.9
			c-0.1-0.1-0.1-0.1-0.1-0.2V1434c0-0.1,0-0.2,0.1-0.2s0.1-0.1,0.2-0.1h1.1c0.1,0,0.2,0,0.2,0.1s0.1,0.1,0.1,0.2v16.7
			c0,0.1,0,0.1-0.1,0.2c0,0.1-0.1,0.1-0.2,0.1h-1.1C368.7,1451,368.6,1451,368.6,1450.9z"/>
	</g>
	<g class="st1">
		<path d="M410.4,1450.9c-0.1-0.1-0.1-0.1-0.1-0.2v-1c0-0.1,0-0.2,0-0.2c0-0.1,0.1-0.1,0.1-0.2l11.7-18.5c0.1-0.1,0.2-0.2,0.4-0.2
			h0.5c0.1,0,0.2,0,0.2,0.1s0.1,0.1,0.1,0.2v1c0,0.1,0,0.1,0,0.2s-0.1,0.1-0.1,0.2l-11.7,18.5c-0.1,0.1-0.2,0.2-0.4,0.2h-0.4
			C410.6,1451,410.5,1451,410.4,1450.9z M410.8,1432.1c-0.1-0.1-0.1-0.1-0.1-0.2v-1c0-0.1,0-0.2,0.1-0.2s0.1-0.1,0.2-0.1h9.1
			c0.1,0,0.2,0,0.2,0.1s0,0.2,0,0.3l-0.7,1c-0.1,0.1-0.2,0.2-0.4,0.2h-8.3C411,1432.2,410.9,1432.2,410.8,1432.1z M413.2,1450.9
			c0-0.1,0-0.2,0-0.3l0.7-1c0.1-0.1,0.2-0.2,0.4-0.2h8.7c0.1,0,0.2,0,0.2,0.1s0.1,0.1,0.1,0.2v1c0,0.1,0,0.1-0.1,0.2
			c0,0.1-0.1,0.1-0.2,0.1h-9.6C413.3,1451,413.3,1451,413.2,1450.9z"/>
	</g>
	<g class="st1">
		<path d="M458.9,1450.9c-0.1-0.1-0.1-0.1-0.1-0.2v-19.8c0-0.1,0-0.2,0.1-0.2s0.1-0.1,0.2-0.1h1.1c0.1,0,0.2,0,0.2,0.1
			s0.1,0.1,0.1,0.2v19.8c0,0.1,0,0.1-0.1,0.2c0,0.1-0.1,0.1-0.2,0.1h-1.1C459,1451,459,1451,458.9,1450.9z M462.2,1432.1
			c-0.1-0.1-0.1-0.1-0.1-0.2v-1c0-0.1,0-0.2,0.1-0.2s0.1-0.1,0.2-0.1h8.4c0.1,0,0.2,0,0.2,0.1s0.1,0.1,0.1,0.2v1
			c0,0.1,0,0.2-0.1,0.2c0,0.1-0.1,0.1-0.2,0.1h-8.4C462.3,1432.2,462.3,1432.2,462.2,1432.1z M462.2,1441.4
			c-0.1-0.1-0.1-0.1-0.1-0.2v-1c0-0.1,0-0.2,0.1-0.2s0.1-0.1,0.2-0.1h7c0.1,0,0.2,0,0.2,0.1c0,0,0.1,0.1,0.1,0.2v1
			c0,0.1,0,0.1-0.1,0.2s-0.1,0.1-0.2,0.1h-7C462.3,1441.4,462.3,1441.4,462.2,1441.4z M462.2,1450.9c-0.1-0.1-0.1-0.1-0.1-0.2v-1
			c0-0.1,0-0.2,0.1-0.2s0.1-0.1,0.2-0.1h8.4c0.1,0,0.2,0,0.2,0.1s0.1,0.1,0.1,0.2v1c0,0.1,0,0.1-0.1,0.2c0,0.1-0.1,0.1-0.2,0.1h-8.4
			C462.3,1451,462.3,1451,462.2,1450.9z"/>
	</g>
	<g class="st1">
		<path d="M506.1,1450.9c-0.1-0.1-0.1-0.1-0.1-0.2v-19.8c0-0.1,0-0.2,0.1-0.2s0.1-0.1,0.2-0.1h1.1c0.1,0,0.2,0,0.2,0.1
			s0.1,0.1,0.1,0.2v19.8c0,0.1,0,0.1-0.1,0.2c0,0.1-0.1,0.1-0.2,0.1h-1.1C506.3,1451,506.2,1451,506.1,1450.9z M509.3,1441.4
			c-0.1-0.1-0.1-0.1-0.1-0.2v-1c0-0.1,0-0.2,0.1-0.2s0.1-0.1,0.2-0.1h6.9c0.1,0,0.2,0,0.2,0.1s0.1,0.1,0.1,0.2v1
			c0,0.1,0,0.1-0.1,0.2c0,0.1-0.1,0.1-0.2,0.1h-6.9C509.5,1441.4,509.4,1441.4,509.3,1441.4z M518.3,1450.9
			c-0.1-0.1-0.1-0.1-0.1-0.2v-19.8c0-0.1,0-0.2,0.1-0.2s0.1-0.1,0.2-0.1h1.1c0.1,0,0.2,0,0.2,0.1s0.1,0.1,0.1,0.2v19.8
			c0,0.1,0,0.1-0.1,0.2s-0.1,0.1-0.2,0.1h-1.1C518.4,1451,518.4,1451,518.3,1450.9z"/>
	</g>
	<g class="st1">
		<path d="M565.6,1450.9c-0.1,0-0.2-0.1-0.2-0.2l-11.9-19.4c-0.1-0.1-0.1-0.2-0.1-0.4c0-0.2,0.1-0.3,0.3-0.3h1c0.1,0,0.2,0,0.3,0.1
			s0.2,0.1,0.2,0.2l12,19.5c0,0.1,0.1,0.1,0.1,0.2s0,0.1,0,0.2s-0.1,0.2-0.3,0.2h-1C565.8,1451,565.7,1451,565.6,1450.9z
			 M553.4,1450.9c-0.1-0.1-0.1-0.1-0.1-0.2v-16.2c0-0.2,0-0.2,0.2-0.2c0.1,0,0.2,0,0.2,0.2l1.2,1.9c0.1,0.1,0.1,0.2,0.1,0.4v14
			c0,0.1,0,0.1-0.1,0.2c0,0.1-0.1,0.1-0.2,0.1h-1C553.5,1451,553.5,1451,553.4,1450.9z M565.7,1445.2c-0.1-0.1-0.1-0.2-0.1-0.4
			v-13.9c0-0.1,0-0.2,0.1-0.2s0.1-0.1,0.2-0.1h1c0.1,0,0.2,0,0.2,0.1s0.1,0.1,0.1,0.2v16.1c0,0.2,0,0.2-0.1,0.2s-0.2,0-0.2-0.2
			L565.7,1445.2z"/>
	</g>
	<g class="st1">
		<path d="M600.6,1450.9c-0.1-0.1-0.1-0.1-0.1-0.2v-19.8c0-0.1,0-0.2,0.1-0.2s0.1-0.1,0.2-0.1h1.1c0.1,0,0.2,0,0.2,0.1
			s0.1,0.1,0.1,0.2v19.8c0,0.1,0,0.1-0.1,0.2c0,0.1-0.1,0.1-0.2,0.1h-1.1C600.8,1451,600.7,1451,600.6,1450.9z M611.6,1439.1
			c-0.2-0.1-0.3-0.1-0.5-0.2s-0.3-0.2-0.2-0.5c0.7-0.9,1-1.8,1-2.7c0-0.7-0.2-1.3-0.5-1.8s-0.8-1-1.5-1.3c-0.6-0.3-1.4-0.5-2.3-0.5
			h-3.5c-0.1,0-0.1,0-0.2-0.1c-0.1-0.1-0.1-0.1-0.1-0.2v-1c0-0.1,0-0.2,0.1-0.2s0.1-0.1,0.2-0.1h3.5c1.3,0,2.4,0.2,3.2,0.7
			c0.9,0.4,1.5,1,2,1.8s0.7,1.7,0.7,2.7c0,0.6-0.1,1.3-0.3,1.9s-0.5,1.1-0.9,1.6c-0.1,0.1-0.2,0.1-0.4,0.1
			C611.9,1439.2,611.8,1439.2,611.6,1439.1z M603.9,1450.9c-0.1-0.1-0.1-0.1-0.1-0.2v-1c0-0.1,0-0.2,0.1-0.2s0.1-0.1,0.2-0.1h3.7
			c1.4,0,2.5-0.4,3.3-1.1s1.1-1.7,1.1-3c0-1.2-0.4-2.2-1.2-2.9c-0.8-0.7-1.9-1.1-3.3-1.1H604c-0.1,0-0.1,0-0.2-0.1
			c-0.1-0.1-0.1-0.1-0.1-0.2v-1c0-0.1,0-0.2,0.1-0.2s0.1-0.1,0.2-0.1h3.5c1.3,0,2.5,0.2,3.4,0.7s1.7,1.1,2.1,1.9
			c0.5,0.8,0.7,1.8,0.7,3s-0.2,2.2-0.7,3s-1.2,1.5-2.1,1.9c-0.9,0.4-2.1,0.7-3.4,0.7L603.9,1450.9C604.1,1451,604,1451,603.9,1450.9
			z"/>
	</g>
	<g class="st1">
		<path d="M645.9,1450.9c0-0.1,0-0.1,0-0.2l5.1-8.5c0.1-0.1,0.1-0.2,0.2-0.2s0.2,0,0.2,0.2l0.6,1c0,0.1,0.1,0.1,0.1,0.2
			s0,0.1-0.1,0.2l-4.3,7.1c-0.1,0.2-0.2,0.2-0.4,0.2L645.9,1450.9C646,1451,645.9,1451,645.9,1450.9z M658.6,1450.9
			c-0.1,0-0.1-0.1-0.1-0.2l-11.8-19.8l-0.1-0.1c0-0.1,0.1-0.2,0.2-0.2h1.3c0.1,0,0.2,0,0.2,0.1c0.1,0,0.1,0.1,0.2,0.2l4.6,7.8
			l7.2,12c0,0,0,0.1,0,0.2s-0.1,0.2-0.2,0.2h-1.4C658.7,1451,658.6,1451,658.6,1450.9z M654.1,1437.4c0-0.1-0.1-0.1-0.1-0.2
			s0-0.2,0.1-0.2l3.7-6.2c0-0.1,0.1-0.1,0.2-0.2s0.1-0.1,0.2-0.1h1.3c0.1,0,0.1,0,0.2,0.1c0,0.1,0,0.1,0,0.2l-4.5,7.6
			c-0.1,0.1-0.1,0.1-0.2,0.1s-0.1,0-0.2-0.1L654.1,1437.4z"/>
	</g>
	<g class="st1">
		<path d="M176.7,1501.5c-1-1.2-1.5-3-1.5-5.2v-13c0-0.1,0-0.2,0.1-0.2s0.1-0.1,0.2-0.1h1.1c0.1,0,0.2,0,0.2,0.1s0.1,0.1,0.1,0.2v13
			c0,1.7,0.4,3,1.1,3.9c0.7,1,1.7,1.5,3.1,1.8c0.2,0,0.3,0.1,0.3,0.3v1c0,0.1,0,0.2-0.1,0.2s-0.1,0.1-0.2,0
			C179.1,1503.5,177.7,1502.8,176.7,1501.5z M183.1,1503.7c-0.1,0-0.1,0-0.2-0.1c-0.1,0-0.1-0.1-0.1-0.2v-1c0-0.2,0.1-0.3,0.3-0.3
			c1.3-0.2,2.4-0.8,3.1-1.7c0.7-1,1.1-2.3,1.1-4v-13c0-0.1,0-0.2,0.1-0.2s0.1-0.1,0.2-0.1h1.1c0.1,0,0.2,0,0.2,0.1s0.1,0.1,0.1,0.2
			v13c0,2.2-0.5,3.9-1.5,5.1C186.5,1502.8,185,1503.5,183.1,1503.7L183.1,1503.7z"/>
	</g>
	<g class="st1">
		<path d="M224.3,1502.9c-1-0.4-1.9-0.9-2.5-1.5c-0.1-0.1-0.1-0.1-0.1-0.2s0-0.2,0.1-0.2l0.7-0.8c0.1-0.1,0.3-0.2,0.4,0
			c0.6,0.5,1.3,0.9,2.1,1.3s1.7,0.6,2.6,0.7c0.2,0,0.3,0.1,0.3,0.3v1c0,0.1,0,0.2-0.1,0.2s-0.1,0.1-0.2,0
			C226.4,1503.6,225.3,1503.3,224.3,1502.9z M229.7,1503.7c-0.1,0-0.1,0-0.2-0.1s-0.1-0.1-0.1-0.2v-1c0-0.2,0.1-0.3,0.3-0.3
			c1.3-0.1,2.4-0.6,3.1-1.3s1.1-1.7,1.1-2.8c0-1.1-0.4-2-1.1-2.7c-0.7-0.7-2-1.1-3.8-1.3l-1-0.1c-2-0.3-3.4-0.8-4.4-1.8
			c-1-0.9-1.5-2.1-1.5-3.6c0-1,0.2-2,0.6-2.8c0.4-0.8,1-1.5,1.8-2s1.7-0.8,2.8-0.9h0.1c0.1,0,0.1,0,0.2,0.1c0,0.1,0.1,0.1,0.1,0.2v1
			c0,0.2-0.1,0.3-0.3,0.3c-1.1,0.2-2,0.6-2.6,1.3c-0.6,0.7-0.9,1.6-0.9,2.6c0,1.1,0.4,2,1.1,2.6c0.8,0.7,2,1.1,3.7,1.3l1,0.1
			c2,0.3,3.5,0.8,4.4,1.8s1.4,2.1,1.4,3.7c0,1.1-0.2,2-0.7,2.8s-1.1,1.5-2,2C232.1,1503.2,231,1503.6,229.7,1503.7L229.7,1503.7z
			 M229.7,1484.4c-0.2,0-0.3-0.2-0.3-0.3v-1c0-0.1,0-0.2,0.1-0.2s0.1-0.1,0.2,0c0.9,0.1,1.8,0.3,2.6,0.5c0.8,0.3,1.5,0.6,2.1,1.1
			c0.2,0.1,0.2,0.3,0.1,0.4l-0.6,0.9c-0.1,0.1-0.3,0.2-0.4,0.1C232.3,1485,231,1484.5,229.7,1484.4z"/>
	</g>
	<g class="st1">
		<path d="M269.9,1503.3c-0.1-0.1-0.1-0.1-0.1-0.2v-19.8c0-0.1,0-0.2,0.1-0.2s0.1-0.1,0.2-0.1h1.1c0.1,0,0.2,0,0.2,0.1
			s0.1,0.1,0.1,0.2v19.8c0,0.1,0,0.1-0.1,0.2s-0.1,0.1-0.2,0.1h-1.1C270.1,1503.4,270,1503.4,269.9,1503.3z M273.2,1484.5
			c-0.1-0.1-0.1-0.1-0.1-0.2v-1c0-0.1,0-0.2,0.1-0.2s0.1-0.1,0.2-0.1h8.4c0.1,0,0.2,0,0.2,0.1s0.1,0.1,0.1,0.2v1
			c0,0.1,0,0.2-0.1,0.2c-0.1,0.1-0.1,0.1-0.2,0.1h-8.4C273.4,1484.6,273.3,1484.6,273.2,1484.5z M273.2,1493.8
			c-0.1-0.1-0.1-0.1-0.1-0.2v-1c0-0.1,0-0.2,0.1-0.2s0.1-0.1,0.2-0.1h7c0.1,0,0.2,0,0.2,0.1c0,0,0.1,0.1,0.1,0.2v1
			c0,0.1,0,0.1-0.1,0.2s-0.1,0.1-0.2,0.1h-7C273.4,1493.9,273.3,1493.9,273.2,1493.8z M273.2,1503.3c-0.1-0.1-0.1-0.1-0.1-0.2v-1
			c0-0.1,0-0.2,0.1-0.2s0.1-0.1,0.2-0.1h8.4c0.1,0,0.2,0,0.2,0.1c0,0,0.1,0.1,0.1,0.2v1c0,0.1,0,0.1-0.1,0.2s-0.1,0.1-0.2,0.1h-8.4
			C273.4,1503.4,273.3,1503.4,273.2,1503.3z"/>
	</g>
	<g class="st1">
		<path d="M318.8,1502.3c-0.9-0.8-1.6-1.8-2-3.1c-0.2-0.5-0.3-1.2-0.4-2.1s-0.1-2.2-0.1-3.9c0-1.7,0-3,0.1-3.9s0.2-1.6,0.4-2.1
			c0.4-1.3,1.1-2.4,2-3.1c0.9-0.8,2-1.2,3.3-1.4h0.1c0.1,0,0.1,0,0.2,0.1c0,0.1,0.1,0.1,0.1,0.2v1c0,0.2-0.1,0.3-0.3,0.3
			c-0.9,0.1-1.7,0.5-2.3,1c-0.6,0.6-1.1,1.3-1.4,2.3c-0.1,0.4-0.3,1.1-0.3,1.9c-0.1,0.8-0.1,2-0.1,3.6s0,2.8,0.1,3.6
			c0.1,0.8,0.2,1.4,0.3,1.9c0.3,1,0.8,1.7,1.4,2.3c0.6,0.6,1.4,0.9,2.3,1.1c0.2,0,0.3,0.1,0.3,0.3v1c0,0.1,0,0.2-0.1,0.2
			s-0.1,0.1-0.2,0C320.8,1503.5,319.7,1503.1,318.8,1502.3z M328.1,1487.4c-0.1,0-0.2-0.1-0.3-0.2c-0.9-1.6-2.1-2.5-3.6-2.8
			c-0.2,0-0.3-0.1-0.3-0.3v-1c0-0.1,0-0.2,0.1-0.2c0.1-0.1,0.1-0.1,0.2-0.1c1.1,0.2,2.1,0.5,3,1.2s1.5,1.5,2,2.5c0,0,0,0.1,0,0.2
			s0,0.1-0.1,0.2L328.1,1487.4C328.2,1487.4,328.2,1487.4,328.1,1487.4z M324.2,1503.7c-0.1,0-0.1,0-0.2-0.1s-0.1-0.1-0.1-0.2v-1
			c0-0.2,0.1-0.3,0.3-0.3c1.6-0.3,2.8-1.2,3.6-2.8c0-0.1,0.1-0.1,0.2-0.2c0.1,0,0.1,0,0.2,0l1,0.5c0.1,0.1,0.2,0.2,0.1,0.4
			c-0.5,1.1-1.2,1.9-2,2.5S325.4,1503.5,324.2,1503.7L324.2,1503.7z"/>
	</g>
	<g class="st1">
		<path d="M364.4,1503.3c-0.1-0.1-0.1-0.1-0.1-0.2v-19.8c0-0.1,0-0.2,0.1-0.2s0.1-0.1,0.2-0.1h1.1c0.1,0,0.2,0,0.2,0.1
			s0.1,0.1,0.1,0.2v19.8c0,0.1,0,0.1-0.1,0.2c0,0.1-0.1,0.1-0.2,0.1h-1.1C364.5,1503.4,364.5,1503.4,364.4,1503.3z M367.6,1493.8
			c-0.1-0.1-0.1-0.1-0.1-0.2v-1c0-0.1,0-0.2,0.1-0.2s0.1-0.1,0.2-0.1h6.9c0.1,0,0.2,0,0.2,0.1s0.1,0.1,0.1,0.2v1
			c0,0.1,0,0.1-0.1,0.2c0,0.1-0.1,0.1-0.2,0.1h-6.9C367.7,1493.9,367.7,1493.9,367.6,1493.8z M376.6,1503.3
			c-0.1-0.1-0.1-0.1-0.1-0.2v-19.8c0-0.1,0-0.2,0.1-0.2s0.1-0.1,0.2-0.1h1.1c0.1,0,0.2,0,0.2,0.1s0.1,0.1,0.1,0.2v19.8
			c0,0.1,0,0.1-0.1,0.2s-0.1,0.1-0.2,0.1h-1.1C376.7,1503.4,376.6,1503.4,376.6,1503.3z"/>
	</g>
	<g class="st1">
		<path d="M413.2,1502.9c-1-0.4-1.9-0.9-2.5-1.5c-0.1-0.1-0.1-0.1-0.1-0.2s0-0.2,0.1-0.2l0.7-0.8c0.1-0.1,0.3-0.2,0.4,0
			c0.6,0.5,1.3,0.9,2.1,1.3c0.8,0.4,1.7,0.6,2.6,0.7c0.2,0,0.3,0.1,0.3,0.3v1c0,0.1,0,0.2-0.1,0.2s-0.1,0.1-0.2,0
			C415.4,1503.6,414.3,1503.3,413.2,1502.9z M418.7,1503.7c-0.1,0-0.1,0-0.2-0.1s-0.1-0.1-0.1-0.2v-1c0-0.2,0.1-0.3,0.3-0.3
			c1.3-0.1,2.4-0.6,3.1-1.3c0.7-0.7,1.1-1.7,1.1-2.8c0-1.1-0.4-2-1.1-2.7s-2-1.1-3.8-1.3l-1-0.1c-2-0.3-3.4-0.8-4.4-1.8
			c-1-0.9-1.5-2.1-1.5-3.6c0-1,0.2-2,0.6-2.8s1-1.5,1.8-2s1.7-0.8,2.8-0.9h0.1c0.1,0,0.1,0,0.2,0.1c0,0.1,0.1,0.1,0.1,0.2v1
			c0,0.2-0.1,0.3-0.3,0.3c-1.1,0.2-2,0.6-2.6,1.3c-0.6,0.7-0.9,1.6-0.9,2.6c0,1.1,0.4,2,1.1,2.6c0.8,0.7,2,1.1,3.7,1.3l1,0.1
			c2,0.3,3.5,0.8,4.4,1.8s1.4,2.1,1.4,3.7c0,1.1-0.2,2-0.7,2.8s-1.1,1.5-2,2C421.1,1503.2,420,1503.6,418.7,1503.7L418.7,1503.7z
			 M418.7,1484.4c-0.2,0-0.3-0.2-0.3-0.3v-1c0-0.1,0-0.2,0.1-0.2s0.1-0.1,0.2,0c0.9,0.1,1.8,0.3,2.6,0.5c0.8,0.3,1.5,0.6,2.1,1.1
			c0.2,0.1,0.2,0.3,0.1,0.4l-0.6,0.9c-0.1,0.1-0.3,0.2-0.4,0.1C421.2,1485,420,1484.5,418.7,1484.4z"/>
	</g>
	<g class="st1">
		<path d="M458.9,1503.3c-0.1-0.1-0.1-0.1-0.1-0.2v-19.8c0-0.1,0-0.2,0.1-0.2s0.1-0.1,0.2-0.1h1.1c0.1,0,0.2,0,0.2,0.1
			s0.1,0.1,0.1,0.2v19.8c0,0.1,0,0.1-0.1,0.2c0,0.1-0.1,0.1-0.2,0.1h-1.1C459,1503.4,459,1503.4,458.9,1503.3z M462.2,1484.5
			c-0.1-0.1-0.1-0.1-0.1-0.2v-1c0-0.1,0-0.2,0.1-0.2s0.1-0.1,0.2-0.1h8.4c0.1,0,0.2,0,0.2,0.1s0.1,0.1,0.1,0.2v1
			c0,0.1,0,0.2-0.1,0.2c0,0.1-0.1,0.1-0.2,0.1h-8.4C462.3,1484.6,462.3,1484.6,462.2,1484.5z M462.2,1494c-0.1-0.1-0.1-0.1-0.1-0.2
			v-1c0-0.1,0-0.2,0.1-0.2s0.1-0.1,0.2-0.1h7c0.1,0,0.2,0,0.2,0.1c0,0,0.1,0.1,0.1,0.2v1c0,0.1,0,0.1-0.1,0.2s-0.1,0.1-0.2,0.1h-7
			C462.3,1494.1,462.3,1494.1,462.2,1494z"/>
	</g>
	<g class="st1">
		<path d="M507.4,1501.5c-1-1.2-1.5-3-1.5-5.2v-13c0-0.1,0-0.2,0.1-0.2s0.1-0.1,0.2-0.1h1.1c0.1,0,0.2,0,0.2,0.1s0.1,0.1,0.1,0.2v13
			c0,1.7,0.4,3,1.1,3.9c0.7,1,1.7,1.5,3.1,1.8c0.2,0,0.3,0.1,0.3,0.3v1c0,0.1,0,0.2-0.1,0.2c-0.1,0-0.1,0.1-0.2,0
			C509.8,1503.5,508.4,1502.8,507.4,1501.5z M513.8,1503.7c-0.1,0-0.1,0-0.2-0.1c-0.1,0-0.1-0.1-0.1-0.2v-1c0-0.2,0.1-0.3,0.3-0.3
			c1.3-0.2,2.4-0.8,3.1-1.7s1.1-2.3,1.1-4v-13c0-0.1,0-0.2,0.1-0.2s0.1-0.1,0.2-0.1h1.1c0.1,0,0.2,0,0.2,0.1s0.1,0.1,0.1,0.2v13
			c0,2.2-0.5,3.9-1.5,5.1C517.2,1502.8,515.7,1503.5,513.8,1503.7L513.8,1503.7z"/>
	</g>
	<g class="st1">
		<path d="M553.4,1503.3c-0.1-0.1-0.1-0.1-0.1-0.2v-19.8c0-0.1,0-0.2,0.1-0.2s0.1-0.1,0.2-0.1h1.1c0.1,0,0.2,0,0.2,0.1
			s0.1,0.1,0.1,0.2v19.8c0,0.1,0,0.1-0.1,0.2c0,0.1-0.1,0.1-0.2,0.1h-1.1C553.5,1503.4,553.5,1503.4,553.4,1503.3z M556.7,1484.5
			c-0.1-0.1-0.1-0.1-0.1-0.2v-1c0-0.1,0-0.2,0.1-0.2s0.1-0.1,0.2-0.1h8.4c0.1,0,0.2,0,0.2,0.1s0.1,0.1,0.1,0.2v1
			c0,0.1,0,0.2-0.1,0.2c0,0.1-0.1,0.1-0.2,0.1h-8.4C556.8,1484.6,556.8,1484.6,556.7,1484.5z M556.7,1493.8
			c-0.1-0.1-0.1-0.1-0.1-0.2v-1c0-0.1,0-0.2,0.1-0.2s0.1-0.1,0.2-0.1h7c0.1,0,0.2,0,0.2,0.1c0,0,0.1,0.1,0.1,0.2v1
			c0,0.1,0,0.1-0.1,0.2s-0.1,0.1-0.2,0.1h-7C556.8,1493.9,556.8,1493.9,556.7,1493.8z M556.7,1503.3c-0.1-0.1-0.1-0.1-0.1-0.2v-1
			c0-0.1,0-0.2,0.1-0.2s0.1-0.1,0.2-0.1h8.4c0.1,0,0.2,0,0.2,0.1s0.1,0.1,0.1,0.2v1c0,0.1,0,0.1-0.1,0.2c0,0.1-0.1,0.1-0.2,0.1h-8.4
			C556.8,1503.4,556.8,1503.4,556.7,1503.3z"/>
	</g>
	<g class="st1">
		<path d="M600.6,1503.3c-0.1-0.1-0.1-0.1-0.1-0.2v-19.8c0-0.1,0-0.2,0.1-0.2s0.1-0.1,0.2-0.1h1.1c0.1,0,0.2,0,0.2,0.1
			s0.1,0.1,0.1,0.2v19.8c0,0.1,0,0.1-0.1,0.2c0,0.1-0.1,0.1-0.2,0.1h-1.1C600.8,1503.4,600.7,1503.4,600.6,1503.3z M603.9,1494.2
			c-0.1-0.1-0.1-0.1-0.1-0.2v-1c0-0.1,0-0.2,0.1-0.2s0.1-0.1,0.2-0.1h3.5c1.5,0,2.6-0.3,3.4-1c0.8-0.7,1.2-1.7,1.2-3s-0.4-2.3-1.2-3
			s-1.9-1-3.4-1h-3.5c-0.1,0-0.1,0-0.2-0.1c-0.1-0.1-0.1-0.1-0.1-0.2v-1c0-0.1,0-0.2,0.1-0.2s0.1-0.1,0.2-0.1h3.5
			c1.3,0,2.4,0.2,3.3,0.7c0.9,0.4,1.6,1.1,2.1,1.9c0.5,0.9,0.8,1.9,0.8,3s-0.2,2.1-0.7,2.9c-0.5,0.9-1.2,1.5-2.1,2
			c-1,0.5-2.1,0.7-3.5,0.7h-3.4C604.1,1494.3,604,1494.3,603.9,1494.2z M612.4,1503.4c-0.1,0-0.1-0.1-0.1-0.2l-3.4-7.1
			c-0.1-0.1-0.1-0.2,0-0.3c0,0,0.1-0.1,0.2-0.1c0.1,0,0.1,0,0.1,0c0.4,0,0.7-0.1,0.9-0.2h0.1c0.1,0,0.2,0.1,0.2,0.2l3.7,7.4
			c0,0,0,0.1,0,0.2s-0.1,0.2-0.2,0.2h-1.3C612.5,1503.4,612.5,1503.4,612.4,1503.4z"/>
	</g>
	<g class="st1">
		<path d="M652,1503.3c-0.1-0.1-0.1-0.1-0.1-0.2v-8.1l-6.1-11.5c-0.1-0.1-0.1-0.2-0.1-0.3c0-0.1,0-0.1,0.1-0.2c0,0,0.1-0.1,0.2-0.1
			h1.1c0.1,0,0.2,0,0.3,0.1s0.1,0.1,0.2,0.2l5.9,11.1c0.1,0.1,0.1,0.3,0.1,0.4v8.3c0,0.1,0,0.1-0.1,0.2c0,0.1-0.1,0.1-0.2,0.1h-1.1
			C652.1,1503.4,652,1503.4,652,1503.3z M653.7,1491.8c-0.1-0.1-0.1-0.3,0-0.4l4.2-8c0.1-0.1,0.1-0.2,0.2-0.2c0.1,0,0.2-0.1,0.3-0.1
			h1.1c0.1,0,0.2,0.1,0.3,0.2c0,0.1,0,0.1,0,0.2s-0.1,0.1-0.1,0.1l-4.9,9.4c-0.1,0.1-0.1,0.2-0.2,0.2s-0.1-0.1-0.2-0.2L653.7,1491.8
			z"/>
	</g>
	<g class="st1">
		<path d="M178.5,1555.8c-0.1,0-0.1-0.1-0.1-0.2l-4.9-19.8v-0.1c0-0.1,0-0.1,0.1-0.1s0.1-0.1,0.2-0.1h1.1c0.1,0,0.2,0,0.3,0.1
			c0.1,0,0.1,0.1,0.1,0.2l4.7,19.6c0,0.1,0,0.1,0,0.2c0,0.2-0.1,0.3-0.3,0.3h-1C178.6,1555.9,178.5,1555.8,178.5,1555.8z
			 M189.7,1555.8c-0.1,0-0.1-0.1-0.1-0.2l-4.8-16.8h-0.1l-3.9,13.6c0,0.1,0,0.1-0.1,0.2l-0.1,0.1c-0.1,0-0.1-0.1-0.2-0.2l-0.5-2.1
			c0-0.1,0-0.2,0-0.4l3.9-14.1c0-0.1,0.1-0.2,0.1-0.2s0.1-0.1,0.2-0.1h0.9c0.1,0,0.2,0,0.2,0.1s0.1,0.1,0.1,0.2l5.5,19.6v0.2
			c0,0.2-0.1,0.3-0.3,0.3h-1C189.8,1555.9,189.8,1555.8,189.7,1555.8z M191.1,1550.3c0-0.2,0-0.3,0-0.4l3.3-14.1
			c0-0.1,0.1-0.2,0.1-0.2c0.1,0,0.1-0.1,0.3-0.1h1.1c0.1,0,0.2,0,0.2,0.1s0,0.1,0,0.2l-4,16.5c0,0.1,0,0.1-0.1,0.2l-0.1,0.1
			c-0.1,0-0.1-0.1-0.2-0.2L191.1,1550.3z"/>
	</g>
	<g class="st1">
		<path d="M220.7,1555.8c0-0.1,0-0.1,0-0.2l6.2-17.1c0.1-0.1,0.1-0.2,0.2-0.2h0.1l0.1,0.1l0.6,1.6c0,0.1,0.1,0.1,0.1,0.2
			s0,0.2-0.1,0.2l-3,8.4h5.9c0.2,0,0.3,0.1,0.4,0.2l0.4,1v0.1c0,0.1,0,0.1-0.1,0.2c-0.1,0-0.1,0.1-0.2,0.1h-6.9l-1.8,5.1
			c0,0.1-0.1,0.2-0.2,0.2c-0.1,0-0.1,0.1-0.2,0.1H221C220.8,1555.9,220.7,1555.8,220.7,1555.8z M235,1555.6l-7-19.8v-0.1
			c0-0.1,0-0.1,0.1-0.2s0.1-0.1,0.2-0.1h1.1c0.2,0,0.3,0.1,0.4,0.3l7.1,19.8v0.1c0,0.1,0,0.1-0.1,0.2s-0.1,0.1-0.2,0.1h-1.2
			C235.2,1555.9,235,1555.8,235,1555.6z"/>
	</g>
	<g class="st1">
		<path d="M271.5,1555.3c-1-0.4-1.9-0.9-2.5-1.5c-0.1-0.1-0.1-0.1-0.1-0.2s0-0.2,0.1-0.2l0.7-0.8c0.1-0.1,0.3-0.2,0.4,0
			c0.6,0.5,1.3,0.9,2.1,1.3s1.7,0.6,2.6,0.7c0.2,0,0.3,0.1,0.3,0.3v1c0,0.1,0,0.2-0.1,0.2s-0.1,0.1-0.2,0
			C273.6,1556,272.5,1555.7,271.5,1555.3z M276.9,1556.1c-0.1,0-0.1,0-0.2-0.1s-0.1-0.1-0.1-0.2v-1c0-0.2,0.1-0.3,0.3-0.3
			c1.3-0.1,2.4-0.6,3.1-1.3s1.1-1.7,1.1-2.8c0-1.1-0.4-2-1.1-2.7s-2-1.1-3.8-1.3l-1-0.1c-2-0.3-3.4-0.8-4.4-1.8
			c-1-0.9-1.5-2.1-1.5-3.6c0-1,0.2-2,0.6-2.8s1-1.5,1.8-2s1.7-0.8,2.8-0.9h0.1c0.1,0,0.1,0,0.2,0.1c0,0.1,0.1,0.1,0.1,0.2v1
			c0,0.2-0.1,0.3-0.3,0.3c-1.1,0.2-2,0.6-2.6,1.3c-0.6,0.7-0.9,1.6-0.9,2.6c0,1.1,0.4,2,1.1,2.6c0.8,0.7,2,1.1,3.7,1.3l1,0.1
			c2,0.3,3.5,0.8,4.4,1.8s1.4,2.1,1.4,3.7c0,1.1-0.2,2-0.7,2.8s-1.1,1.5-2,2C279.4,1555.7,278.3,1556,276.9,1556.1L276.9,1556.1z
			 M276.9,1536.8c-0.2,0-0.3-0.2-0.3-0.3v-1c0-0.1,0-0.2,0.1-0.2s0.1-0.1,0.2,0c0.9,0.1,1.8,0.3,2.6,0.5c0.8,0.3,1.5,0.6,2.1,1.1
			c0.2,0.1,0.2,0.3,0.1,0.4l-0.6,0.9c-0.1,0.1-0.3,0.2-0.4,0.1C279.5,1537.4,278.2,1537,276.9,1536.8z"/>
	</g>
	<g class="st1">
		<path d="M317.2,1555.8c-0.1-0.1-0.1-0.1-0.1-0.2v-19.8c0-0.1,0-0.2,0.1-0.2s0.1-0.1,0.2-0.1h1.1c0.1,0,0.2,0,0.2,0.1
			s0.1,0.1,0.1,0.2v19.8c0,0.1,0,0.1-0.1,0.2s-0.1,0.1-0.2,0.1h-1.1C317.3,1555.9,317.2,1555.8,317.2,1555.8z M320.4,1555.8
			c-0.1-0.1-0.1-0.1-0.1-0.2v-1c0-0.1,0-0.2,0.1-0.2s0.1-0.1,0.2-0.1h2.9c1.4,0,2.5-0.2,3.3-0.7s1.5-1.3,1.8-2.3
			c0.2-0.5,0.3-1.2,0.4-1.9c0.1-0.8,0.1-2,0.1-3.6s0-2.8-0.1-3.6c-0.1-0.8-0.2-1.4-0.4-2c-0.4-1.1-1-1.8-1.8-2.3
			c-0.9-0.5-2-0.7-3.3-0.7h-2.9c-0.1,0-0.1,0-0.2-0.1s-0.1-0.1-0.1-0.2v-1c0-0.1,0-0.2,0.1-0.2s0.1-0.1,0.2-0.1h3.1
			c3.4,0,5.6,1.4,6.5,4.1c0.2,0.6,0.3,1.3,0.4,2.2c0.1,0.8,0.1,2.1,0.1,3.9s0,3.1-0.1,3.9s-0.2,1.5-0.4,2.2
			c-0.9,2.8-3.1,4.1-6.5,4.1h-3.1C320.6,1555.9,320.5,1555.8,320.4,1555.8z"/>
	</g>
	<g class="st1">
		<path d="M364.4,1555.8c-0.1-0.1-0.1-0.1-0.1-0.2v-19.8c0-0.1,0-0.2,0.1-0.2s0.1-0.1,0.2-0.1h1.1c0.1,0,0.2,0,0.2,0.1
			s0.1,0.1,0.1,0.2v19.8c0,0.1,0,0.1-0.1,0.2c0,0.1-0.1,0.1-0.2,0.1h-1.1C364.5,1555.9,364.5,1555.8,364.4,1555.8z M367.7,1537
			c-0.1-0.1-0.1-0.1-0.1-0.2v-1c0-0.1,0-0.2,0.1-0.2s0.1-0.1,0.2-0.1h8.4c0.1,0,0.2,0,0.2,0.1s0.1,0.1,0.1,0.2v1
			c0,0.1,0,0.2-0.1,0.2c0,0.1-0.1,0.1-0.2,0.1h-8.4C367.8,1537.1,367.8,1537,367.7,1537z M367.7,1546.5c-0.1-0.1-0.1-0.1-0.1-0.2v-1
			c0-0.1,0-0.2,0.1-0.2s0.1-0.1,0.2-0.1h7c0.1,0,0.2,0,0.2,0.1c0,0,0.1,0.1,0.1,0.2v1c0,0.1,0,0.1-0.1,0.2s-0.1,0.1-0.2,0.1h-7
			C367.8,1546.5,367.8,1546.5,367.7,1546.5z"/>
	</g>
	<g class="st1">
		<path d="M412.9,1554c-1-1.2-1.5-3-1.5-5.2v-13c0-0.1,0-0.2,0.1-0.2s0.1-0.1,0.2-0.1h1.1c0.1,0,0.2,0,0.2,0.1s0.1,0.1,0.1,0.2v13
			c0,1.7,0.4,3,1.1,3.9c0.7,1,1.7,1.5,3.1,1.8c0.2,0,0.3,0.1,0.3,0.3v1c0,0.1,0,0.2-0.1,0.2s-0.1,0.1-0.2,0
			C415.3,1555.9,413.9,1555.2,412.9,1554z M419.3,1556.1c-0.1,0-0.1,0-0.2-0.1c-0.1,0-0.1-0.1-0.1-0.2v-1c0-0.2,0.1-0.3,0.3-0.3
			c1.3-0.2,2.4-0.8,3.1-1.7s1.1-2.3,1.1-4v-13c0-0.1,0-0.2,0.1-0.2s0.1-0.1,0.2-0.1h1.1c0.1,0,0.2,0,0.2,0.1s0.1,0.1,0.1,0.2v13
			c0,2.2-0.5,3.9-1.5,5.1C422.7,1555.2,421.3,1555.9,419.3,1556.1L419.3,1556.1z"/>
	</g>
	<g class="st1">
		<path d="M471.1,1555.8c-0.1,0-0.2-0.1-0.2-0.2l-11.9-19.4c-0.1-0.1-0.1-0.2-0.1-0.4c0-0.2,0.1-0.3,0.3-0.3h1c0.1,0,0.2,0,0.3,0.1
			s0.2,0.1,0.2,0.2l12,19.5c0,0.1,0.1,0.1,0.1,0.2s0,0.1,0,0.2s-0.1,0.2-0.3,0.2h-1C471.3,1555.9,471.2,1555.9,471.1,1555.8z
			 M458.9,1555.8c-0.1-0.1-0.1-0.1-0.1-0.2v-16.2c0-0.2,0-0.2,0.2-0.2c0.1,0,0.2,0,0.2,0.2l1.2,1.9c0.1,0.1,0.1,0.2,0.1,0.4v14
			c0,0.1,0,0.1-0.1,0.2c0,0.1-0.1,0.1-0.2,0.1h-1C459,1555.9,459,1555.8,458.9,1555.8z M471.2,1550.1c-0.1-0.1-0.1-0.2-0.1-0.4
			v-13.9c0-0.1,0-0.2,0.1-0.2s0.1-0.1,0.2-0.1h1c0.1,0,0.2,0,0.2,0.1s0.1,0.1,0.1,0.2v16.1c0,0.2,0,0.2-0.1,0.2s-0.2,0-0.2-0.2
			L471.2,1550.1z"/>
	</g>
	<g class="st1">
		<path d="M506.1,1555.8c-0.1-0.1-0.1-0.1-0.1-0.2v-19.8c0-0.1,0-0.2,0.1-0.2s0.1-0.1,0.2-0.1h1.1c0.1,0,0.2,0,0.2,0.1
			s0.1,0.1,0.1,0.2v19.8c0,0.1,0,0.1-0.1,0.2c0,0.1-0.1,0.1-0.2,0.1h-1.1C506.3,1555.9,506.2,1555.8,506.1,1555.8z M509.5,1547.6
			c-0.1,0-0.2-0.1-0.2-0.2v-1.6c0-0.1,0-0.2,0.2-0.4l8-9.7c0.1-0.1,0.2-0.2,0.3-0.2s0.2-0.1,0.3-0.1h1.4c0.1,0,0.2,0,0.2,0.1
			s0,0.1,0,0.2l-9.8,11.7C509.7,1547.6,509.6,1547.6,509.5,1547.6z M518.3,1555.8c-0.1,0-0.1-0.1-0.2-0.2l-5.2-9.1
			c0-0.1-0.1-0.1-0.1-0.2s0-0.2,0.1-0.2l0.7-0.9c0.1-0.1,0.2-0.1,0.2-0.1c0.1,0,0.2,0,0.2,0.1l6,10.4v0.1c0,0.1-0.1,0.2-0.2,0.2
			h-1.4C518.4,1555.9,518.4,1555.9,518.3,1555.8z"/>
	</g>
	<g class="st1">
		<path d="M554.6,1554c-1-1.2-1.5-3-1.5-5.2v-13c0-0.1,0-0.2,0.1-0.2s0.1-0.1,0.2-0.1h1.1c0.1,0,0.2,0,0.2,0.1s0.1,0.1,0.1,0.2v13
			c0,1.7,0.4,3,1.1,3.9c0.7,1,1.7,1.5,3.1,1.8c0.2,0,0.3,0.1,0.3,0.3v1c0,0.1,0,0.2-0.1,0.2s-0.1,0.1-0.2,0
			C557,1555.9,555.6,1555.2,554.6,1554z M561.1,1556.1c-0.1,0-0.1,0-0.2-0.1c-0.1,0-0.1-0.1-0.1-0.2v-1c0-0.2,0.1-0.3,0.3-0.3
			c1.3-0.2,2.4-0.8,3.1-1.7s1.1-2.3,1.1-4v-13c0-0.1,0-0.2,0.1-0.2s0.1-0.1,0.2-0.1h1.1c0.1,0,0.2,0,0.2,0.1s0.1,0.1,0.1,0.2v13
			c0,2.2-0.5,3.9-1.5,5.1C564.4,1555.2,563,1555.9,561.1,1556.1L561.1,1556.1z"/>
	</g>
	<g class="st1">
		<path d="M600.6,1555.8c-0.1-0.1-0.1-0.1-0.1-0.2v-19.8c0-0.1,0-0.2,0.1-0.2s0.1-0.1,0.2-0.1h1.1c0.1,0,0.2,0,0.2,0.1
			s0.1,0.1,0.1,0.2v19.8c0,0.1,0,0.1-0.1,0.2c0,0.1-0.1,0.1-0.2,0.1h-1.1C600.8,1555.9,600.7,1555.8,600.6,1555.8z M603.8,1546.2
			c-0.1-0.1-0.1-0.1-0.1-0.2v-1c0-0.1,0-0.2,0.1-0.2s0.1-0.1,0.2-0.1h6.9c0.1,0,0.2,0,0.2,0.1s0.1,0.1,0.1,0.2v1
			c0,0.1,0,0.1-0.1,0.2c0,0.1-0.1,0.1-0.2,0.1H604C603.9,1546.3,603.9,1546.3,603.8,1546.2z M612.8,1555.8c-0.1-0.1-0.1-0.1-0.1-0.2
			v-19.8c0-0.1,0-0.2,0.1-0.2s0.1-0.1,0.2-0.1h1.1c0.1,0,0.2,0,0.2,0.1s0.1,0.1,0.1,0.2v19.8c0,0.1,0,0.1-0.1,0.2s-0.1,0.1-0.2,0.1
			H613C612.9,1555.9,612.8,1555.8,612.8,1555.8z"/>
	</g>
	<g class="st1">
		<path d="M647.9,1555.8c-0.1-0.1-0.1-0.1-0.1-0.2v-19.8c0-0.1,0-0.2,0.1-0.2s0.1-0.1,0.2-0.1h1.1c0.1,0,0.2,0,0.2,0.1
			s0.1,0.1,0.1,0.2v19.8c0,0.1,0,0.1-0.1,0.2c0,0.1-0.1,0.1-0.2,0.1h-1.1C648,1555.9,647.9,1555.8,647.9,1555.8z M651.2,1546.6
			c-0.1-0.1-0.1-0.1-0.1-0.2v-1c0-0.1,0-0.2,0.1-0.2s0.1-0.1,0.2-0.1h3.5c1.5,0,2.6-0.3,3.4-1c0.8-0.7,1.2-1.7,1.2-3s-0.4-2.3-1.2-3
			s-1.9-1-3.4-1h-3.5c-0.1,0-0.1,0-0.2-0.1c-0.1-0.1-0.1-0.1-0.1-0.2v-1c0-0.1,0-0.2,0.1-0.2s0.1-0.1,0.2-0.1h3.5
			c1.3,0,2.4,0.2,3.3,0.7c0.9,0.4,1.6,1.1,2.1,1.9c0.5,0.9,0.8,1.9,0.8,3s-0.2,2.1-0.7,2.9c-0.5,0.9-1.2,1.5-2.1,2
			c-1,0.5-2.1,0.7-3.5,0.7h-3.4C651.3,1546.7,651.2,1546.7,651.2,1546.6z M659.7,1555.8c-0.1,0-0.1-0.1-0.1-0.2l-3.4-7.1
			c-0.1-0.1-0.1-0.2,0-0.3c0,0,0.1-0.1,0.2-0.1c0.1,0,0.1,0,0.1,0c0.4,0,0.7-0.1,0.9-0.2h0.1c0.1,0,0.2,0.1,0.2,0.2l3.7,7.4
			c0,0,0,0.1,0,0.2s-0.1,0.2-0.2,0.2h-1.3C659.8,1555.9,659.7,1555.9,659.7,1555.8z"/>
	</g>
	<path id="path4" inkscape:connector-curvature="0" d="M449.3,1612.2c0,3.5-2.9,6.4-6.4,6.4s-6.4-2.9-6.4-6.4s2.9-6.4,6.4-6.4
		C446.4,1605.8,449.3,1608.7,449.3,1612.2"/>
	<path id="path4-3" inkscape:connector-curvature="0" d="M497.5,1612.2c0,3.5-2.9,6.4-6.4,6.4s-6.4-2.9-6.4-6.4s2.9-6.4,6.4-6.4
		C494.6,1605.8,497.5,1608.7,497.5,1612.2"/>
	<path id="path4-7" inkscape:connector-curvature="0" d="M352.9,1612.2c0,3.5-2.9,6.4-6.4,6.4s-6.4-2.9-6.4-6.4s2.9-6.4,6.4-6.4
		C350.1,1605.8,352.9,1608.7,352.9,1612.2"/>
	<path id="path4-3-3" inkscape:connector-curvature="0" d="M401.1,1612.2c0,3.5-2.9,6.4-6.4,6.4s-6.4-2.9-6.4-6.4s2.9-6.4,6.4-6.4
		C398.2,1605.8,401.1,1608.7,401.1,1612.2"/>
</g>
</svg>
