<?xml version="1.0" encoding="utf-8"?>
<!-- Generator: Adobe Illustrator 24.3.0, SVG Export Plug-In . SVG Version: 6.00 Build 0)  -->
<svg version="1.1"
	 id="svg918" inkscape:version="0.92.4 (5da689c313, 2019-01-14)" xmlns:cc="http://creativecommons.org/ns#" xmlns:dc="http://purl.org/dc/elements/1.1/" xmlns:inkscape="http://www.inkscape.org/namespaces/inkscape" xmlns:rdf="http://www.w3.org/1999/02/22-rdf-syntax-ns#" xmlns:sodipodi="http://sodipodi.sourceforge.net/DTD/sodipodi-0.dtd" xmlns:svg="http://www.w3.org/2000/svg"
	 xmlns="http://www.w3.org/2000/svg" xmlns:xlink="http://www.w3.org/1999/xlink" x="0px" y="0px" viewBox="0 0 850.4 850.4"
	 style="enable-background:new 0 0 850.4 850.4;" xml:space="preserve">
<style type="text/css">
	.st0{fill:#92CAE8;fill-opacity:0.624;}
	.st1{enable-background:new    ;}
</style>
<sodipodi:namedview  bordercolor="#666666" borderopacity="1" gridtolerance="10" guidetolerance="10" id="namedview920" inkscape:current-layer="g916" inkscape:cx="559.04355" inkscape:cy="578.8998" inkscape:document-units="mm" inkscape:pageopacity="0" inkscape:pageshadow="2" inkscape:window-height="1109" inkscape:window-maximized="1" inkscape:window-width="1920" inkscape:window-x="1920" inkscape:window-y="0" inkscape:zoom="2.4892" objecttolerance="10" pagecolor="#ffffff" showgrid="false">
	</sodipodi:namedview>
<g id="g916" transform="translate(0,-861.73199)">
	<path id="path2" inkscape:connector-curvature="0" sodipodi:insensitive="true" class="st0" d="M0,861.7h850.4v850.4H0V861.7z"/>
	<path id="path4" inkscape:connector-curvature="0" d="M449.3,1612.2c0,3.5-2.9,6.4-6.4,6.4c-3.5,0-6.4-2.9-6.4-6.4s2.9-6.4,6.4-6.4
		C446.4,1605.8,449.3,1608.7,449.3,1612.2"/>
	<g class="st1">
		<path d="M175.5,1031.3c-0.1-0.1-0.1-0.1-0.1-0.2v-19.8c0-0.1,0-0.2,0.1-0.2c0.1,0,0.1-0.1,0.2-0.1h1.1c0.1,0,0.2,0,0.2,0.1
			c0,0.1,0.1,0.1,0.1,0.2v19.8c0,0.1,0,0.1-0.1,0.2c-0.1,0.1-0.1,0.1-0.2,0.1h-1.1C175.6,1031.4,175.6,1031.3,175.5,1031.3z
			 M178.8,1012.5c-0.1-0.1-0.1-0.1-0.1-0.2v-1c0-0.1,0-0.2,0.1-0.2c0.1,0,0.1-0.1,0.2-0.1h8.4c0.1,0,0.2,0,0.2,0.1
			c0,0.1,0.1,0.1,0.1,0.2v1c0,0.1,0,0.1-0.1,0.2c-0.1,0.1-0.1,0.1-0.2,0.1H179C178.9,1012.6,178.9,1012.5,178.8,1012.5z
			 M178.8,1021.7c-0.1-0.1-0.1-0.1-0.1-0.2v-1c0-0.1,0-0.2,0.1-0.2c0.1,0,0.1-0.1,0.2-0.1h7c0.1,0,0.2,0,0.2,0.1
			c0,0.1,0.1,0.1,0.1,0.2v1c0,0.1,0,0.1-0.1,0.2c-0.1,0.1-0.1,0.1-0.2,0.1h-7C178.9,1021.8,178.9,1021.8,178.8,1021.7z
			 M178.8,1031.3c-0.1-0.1-0.1-0.1-0.1-0.2v-1c0-0.1,0-0.2,0.1-0.2c0.1,0,0.1-0.1,0.2-0.1h8.4c0.1,0,0.2,0,0.2,0.1
			c0,0.1,0.1,0.1,0.1,0.2v1c0,0.1,0,0.1-0.1,0.2c-0.1,0.1-0.1,0.1-0.2,0.1H179C178.9,1031.4,178.9,1031.3,178.8,1031.3z"/>
	</g>
	<g class="st1">
		<path d="M224.3,1030.8c-1-0.4-1.9-0.9-2.5-1.5c-0.1-0.1-0.1-0.1-0.1-0.2c0-0.1,0-0.2,0.1-0.2l0.7-0.8c0.1-0.1,0.3-0.1,0.4,0
			c0.6,0.5,1.3,0.9,2.1,1.3s1.7,0.6,2.6,0.7c0.2,0,0.3,0.1,0.3,0.3v1c0,0.1,0,0.2-0.1,0.2c-0.1,0-0.1,0.1-0.2,0
			C226.4,1031.5,225.4,1031.3,224.3,1030.8z M229.8,1031.6c-0.1,0-0.1,0-0.2-0.1c0-0.1-0.1-0.1-0.1-0.2v-1c0-0.2,0.1-0.3,0.3-0.3
			c1.3-0.1,2.4-0.6,3.1-1.3c0.7-0.7,1.1-1.7,1.1-2.8c0-1.1-0.4-2-1.1-2.7c-0.7-0.7-2-1.1-3.8-1.3l-1-0.1c-2-0.3-3.4-0.8-4.4-1.8
			c-1-0.9-1.5-2.1-1.5-3.6c0-1,0.2-2,0.6-2.8s1-1.5,1.8-2c0.8-0.5,1.7-0.8,2.8-0.9h0.1c0.1,0,0.1,0,0.2,0.1c0,0.1,0.1,0.1,0.1,0.2v1
			c0,0.2-0.1,0.3-0.3,0.3c-1.1,0.2-2,0.6-2.6,1.3c-0.6,0.7-0.9,1.6-0.9,2.6c0,1.1,0.4,2,1.1,2.6c0.8,0.7,2,1.1,3.7,1.3l1,0.1
			c2,0.3,3.5,0.8,4.4,1.8c1,0.9,1.4,2.1,1.4,3.7c0,1.1-0.2,2-0.7,2.8c-0.5,0.8-1.1,1.5-2,2C232.2,1031.2,231.1,1031.5,229.8,1031.6
			L229.8,1031.6z M229.8,1012.3c-0.2,0-0.3-0.2-0.3-0.3v-1c0-0.1,0-0.2,0.1-0.2c0.1,0,0.1-0.1,0.2,0c0.9,0.1,1.8,0.3,2.6,0.5
			c0.8,0.3,1.5,0.6,2.1,1.1c0.2,0.1,0.2,0.3,0.1,0.4l-0.6,0.9c-0.1,0.1-0.3,0.2-0.4,0.1C232.3,1012.9,231,1012.5,229.8,1012.3z"/>
	</g>
	<g class="st1">
		<path d="M270,1031.3c-0.1-0.1-0.1-0.1-0.1-0.2v-19.8c0-0.1,0-0.2,0.1-0.2c0.1,0,0.1-0.1,0.2-0.1h1.1c0.1,0,0.2,0,0.2,0.1
			c0,0.1,0.1,0.1,0.1,0.2v19.8c0,0.1,0,0.1-0.1,0.2c-0.1,0.1-0.1,0.1-0.2,0.1h-1.1C270.1,1031.4,270,1031.3,270,1031.3z
			 M273.3,1023.1c-0.1,0-0.1-0.1-0.1-0.2v-1.6c0-0.1,0-0.2,0.1-0.4l8-9.7c0.1-0.1,0.2-0.2,0.3-0.2c0.1,0,0.2-0.1,0.3-0.1h1.4
			c0.1,0,0.2,0,0.2,0.1c0,0.1,0,0.1,0,0.2l-9.8,11.7C273.5,1023.1,273.4,1023.1,273.3,1023.1z M282.1,1031.3c-0.1,0-0.1-0.1-0.2-0.2
			l-5.2-9.1c0-0.1-0.1-0.1-0.1-0.2c0-0.1,0-0.2,0.1-0.2l0.7-0.9c0.1-0.1,0.1-0.1,0.2-0.1c0.1,0,0.1,0,0.2,0.1l6,10.4l0,0.1
			c0,0.1-0.1,0.2-0.2,0.2h-1.4C282.3,1031.4,282.2,1031.4,282.1,1031.3z"/>
	</g>
	<g class="st1">
		<path d="M323.2,1031.3c-0.1-0.1-0.1-0.1-0.1-0.2v-19.8c0-0.1,0-0.2,0.1-0.2c0.1,0,0.1-0.1,0.2-0.1h1.1c0.1,0,0.2,0,0.2,0.1
			c0,0.1,0.1,0.1,0.1,0.2v19.8c0,0.1,0,0.1-0.1,0.2s-0.1,0.1-0.2,0.1h-1.1C323.3,1031.4,323.2,1031.3,323.2,1031.3z"/>
	</g>
	<g class="st1">
		<path d="M366,1030.8c-1.1-0.4-1.9-0.9-2.5-1.5c-0.1-0.1-0.1-0.1-0.1-0.2c0-0.1,0-0.2,0.1-0.2l0.7-0.8c0.1-0.1,0.3-0.1,0.4,0
			c0.6,0.5,1.3,0.9,2.1,1.3c0.8,0.4,1.7,0.6,2.6,0.7c0.2,0,0.3,0.1,0.3,0.3v1c0,0.1,0,0.2-0.1,0.2c-0.1,0-0.1,0.1-0.2,0
			C368.2,1031.5,367.1,1031.3,366,1030.8z M371.5,1031.6c-0.1,0-0.1,0-0.2-0.1c-0.1-0.1-0.1-0.1-0.1-0.2v-1c0-0.2,0.1-0.3,0.3-0.3
			c1.3-0.1,2.3-0.6,3.1-1.3c0.7-0.7,1.1-1.7,1.1-2.8c0-1.1-0.4-2-1.1-2.7c-0.7-0.7-2-1.1-3.8-1.3l-1-0.1c-2-0.3-3.4-0.8-4.4-1.8
			c-1-0.9-1.5-2.1-1.5-3.6c0-1,0.2-2,0.6-2.8s1-1.5,1.8-2c0.8-0.5,1.7-0.8,2.8-0.9h0.1c0.1,0,0.1,0,0.2,0.1c0,0.1,0.1,0.1,0.1,0.2v1
			c0,0.2-0.1,0.3-0.3,0.3c-1.1,0.2-2,0.6-2.6,1.3c-0.6,0.7-0.9,1.6-0.9,2.6c0,1.1,0.4,2,1.1,2.6c0.8,0.7,2,1.1,3.7,1.3l1,0.1
			c2,0.3,3.5,0.8,4.4,1.8c1,0.9,1.4,2.1,1.4,3.7c0,1.1-0.2,2-0.7,2.8c-0.4,0.8-1.1,1.5-2,2C373.9,1031.2,372.8,1031.5,371.5,1031.6
			L371.5,1031.6z M371.5,1012.3c-0.2,0-0.3-0.2-0.3-0.3v-1c0-0.1,0-0.2,0.1-0.2c0.1,0,0.1-0.1,0.2,0c0.9,0.1,1.8,0.3,2.6,0.5
			c0.8,0.3,1.5,0.6,2.1,1.1c0.2,0.1,0.2,0.3,0.1,0.4l-0.6,0.9c-0.1,0.1-0.3,0.2-0.4,0.1C374,1012.9,372.8,1012.5,371.5,1012.3z"/>
	</g>
	<g class="st1">
		<path d="M409.6,1012.5c-0.1-0.1-0.1-0.1-0.1-0.2v-1c0-0.1,0-0.2,0.1-0.2c0.1,0,0.1-0.1,0.2-0.1h13.8c0.1,0,0.2,0,0.2,0.1
			c0,0.1,0.1,0.1,0.1,0.2v1c0,0.1,0,0.1-0.1,0.2c-0.1,0.1-0.1,0.1-0.2,0.1h-13.8C409.7,1012.6,409.6,1012.5,409.6,1012.5z
			 M415.9,1031.3c-0.1-0.1-0.1-0.1-0.1-0.2v-16.7c0-0.1,0-0.2,0.1-0.2c0.1,0,0.1-0.1,0.2-0.1h1.1c0.1,0,0.2,0,0.2,0.1
			c0,0.1,0.1,0.1,0.1,0.2v16.7c0,0.1,0,0.1-0.1,0.2s-0.1,0.1-0.2,0.1h-1.1C416,1031.4,415.9,1031.3,415.9,1031.3z"/>
	</g>
	<g class="st1">
		<path d="M457,1031.3c0-0.1,0-0.1,0-0.2l6.2-17.1c0.1-0.1,0.1-0.2,0.2-0.2c0,0,0.1,0,0.1,0c0,0,0.1,0.1,0.1,0.1l0.6,1.6
			c0,0.1,0.1,0.1,0.1,0.2s0,0.1-0.1,0.2l-3,8.4h5.9c0.2,0,0.3,0.1,0.4,0.2l0.4,1l0,0.1c0,0.1,0,0.1-0.1,0.1c0,0-0.1,0.1-0.2,0.1
			h-6.9l-1.8,5.1c0,0.1-0.1,0.2-0.2,0.2c-0.1,0-0.1,0.1-0.2,0.1h-1.2C457.1,1031.4,457,1031.3,457,1031.3z M471.3,1031.1l-7-19.8
			l0-0.1c0-0.1,0-0.1,0.1-0.2c0,0,0.1-0.1,0.2-0.1h1.1c0.2,0,0.3,0.1,0.4,0.3l7.1,19.8l0,0.1c0,0.1,0,0.1-0.1,0.1
			c0,0-0.1,0.1-0.2,0.1h-1.2C471.4,1031.4,471.3,1031.3,471.3,1031.1z"/>
	</g>
	<g class="st1">
		<path d="M506.2,1031.3c-0.1-0.1-0.1-0.1-0.1-0.2v-19.8c0-0.1,0-0.2,0.1-0.2c0.1,0,0.1-0.1,0.2-0.1h1.1c0.1,0,0.2,0,0.2,0.1
			c0,0.1,0.1,0.1,0.1,0.2v19.8c0,0.1,0,0.1-0.1,0.2s-0.1,0.1-0.2,0.1h-1.1C506.3,1031.4,506.3,1031.3,506.2,1031.3z M509.5,1012.5
			c-0.1-0.1-0.1-0.1-0.1-0.2v-1c0-0.1,0-0.2,0.1-0.2c0.1,0,0.1-0.1,0.2-0.1h8.4c0.1,0,0.2,0,0.2,0.1c0,0.1,0.1,0.1,0.1,0.2v1
			c0,0.1,0,0.1-0.1,0.2s-0.1,0.1-0.2,0.1h-8.4C509.6,1012.6,509.6,1012.5,509.5,1012.5z M509.5,1022c-0.1-0.1-0.1-0.1-0.1-0.2v-1
			c0-0.1,0-0.2,0.1-0.2c0.1,0,0.1-0.1,0.2-0.1h7c0.1,0,0.2,0,0.2,0.1c0,0.1,0.1,0.1,0.1,0.2v1c0,0.1,0,0.1-0.1,0.2
			c-0.1,0.1-0.1,0.1-0.2,0.1h-7C509.6,1022,509.6,1022,509.5,1022z"/>
	</g>
	<g class="st1">
		<path d="M554.7,1029.5c-1-1.2-1.5-3-1.5-5.2v-9.1c0-0.1,0-0.2,0.1-0.2c0.1,0,0.1-0.1,0.2-0.1h1.1c0.1,0,0.2,0,0.2,0.1
			c0,0.1,0.1,0.1,0.1,0.2v9.1c0,1.7,0.4,3,1.1,3.9c0.7,1,1.7,1.5,3.1,1.8c0.2,0,0.3,0.1,0.3,0.3v1c0,0.1,0,0.2-0.1,0.2
			c-0.1,0-0.1,0.1-0.2,0C557.1,1031.4,555.7,1030.7,554.7,1029.5z M556.3,1011.7c-0.1-0.1-0.1-0.1-0.1-0.2v-1.6c0-0.1,0-0.2,0.1-0.2
			c0.1,0,0.1-0.1,0.2-0.1h1.1c0.1,0,0.2,0,0.2,0.1s0.1,0.1,0.1,0.2v1.6c0,0.1,0,0.2-0.1,0.2c0,0.1-0.1,0.1-0.2,0.1h-1.1
			C556.4,1011.8,556.3,1011.7,556.3,1011.7z M561.1,1031.6c-0.1,0-0.1,0-0.2-0.1c0-0.1-0.1-0.1-0.1-0.2v-1c0-0.2,0.1-0.3,0.3-0.3
			c1.3-0.2,2.4-0.8,3.1-1.7s1.1-2.3,1.1-4v-9.1c0-0.1,0-0.2,0.1-0.2c0.1,0,0.1-0.1,0.2-0.1h1.1c0.1,0,0.2,0,0.2,0.1
			c0,0.1,0.1,0.1,0.1,0.2v9.1c0,2.2-0.5,3.9-1.5,5.1C564.5,1030.7,563,1031.4,561.1,1031.6L561.1,1031.6z M562.3,1011.7
			c-0.1-0.1-0.1-0.1-0.1-0.2v-1.6c0-0.1,0-0.2,0.1-0.2c0.1,0,0.1-0.1,0.2-0.1h1.1c0.1,0,0.2,0,0.2,0.1s0.1,0.1,0.1,0.2v1.6
			c0,0.1,0,0.2-0.1,0.2c0,0.1-0.1,0.1-0.2,0.1h-1.1C562.4,1011.8,562.3,1011.7,562.3,1011.7z"/>
	</g>
	<g class="st1">
		<path d="M612.9,1031.3c-0.1,0-0.2-0.1-0.2-0.2l-11.9-19.4c-0.1-0.1-0.1-0.2-0.1-0.4c0-0.2,0.1-0.3,0.3-0.3h1c0.1,0,0.2,0,0.3,0.1
			c0.1,0,0.1,0.1,0.2,0.2l12,19.5c0,0.1,0.1,0.1,0.1,0.2c0,0.1,0,0.1,0,0.2c0,0.1-0.1,0.2-0.3,0.2h-1
			C613.1,1031.4,613,1031.4,612.9,1031.3z M600.7,1031.3c-0.1-0.1-0.1-0.1-0.1-0.2v-16.2c0-0.2,0-0.2,0.1-0.2c0.1,0,0.2,0.1,0.2,0.1
			l1.2,1.9c0.1,0.1,0.1,0.2,0.1,0.4v14c0,0.1,0,0.1-0.1,0.2c-0.1,0.1-0.1,0.1-0.2,0.1h-1C600.8,1031.4,600.7,1031.3,600.7,1031.3z
			 M613,1025.6c-0.1-0.1-0.1-0.2-0.1-0.4v-14c0-0.1,0-0.2,0.1-0.2c0.1,0,0.1-0.1,0.2-0.1h1c0.1,0,0.2,0,0.2,0.1
			c0,0.1,0.1,0.1,0.1,0.2v16.1c0,0.2,0,0.2-0.2,0.2c-0.1,0-0.1,0-0.2-0.1L613,1025.6z"/>
	</g>
	<g class="st1">
		<path d="M647.9,1031.3c-0.1-0.1-0.1-0.1-0.1-0.2v-19.8c0-0.1,0-0.2,0.1-0.2c0.1,0,0.1-0.1,0.2-0.1h1.1c0.1,0,0.2,0,0.2,0.1
			c0,0.1,0.1,0.1,0.1,0.2v19.8c0,0.1,0,0.1-0.1,0.2s-0.1,0.1-0.2,0.1h-1.1C648.1,1031.4,648,1031.3,647.9,1031.3z M651.2,1012.5
			c-0.1-0.1-0.1-0.1-0.1-0.2v-1c0-0.1,0-0.2,0.1-0.2c0.1,0,0.1-0.1,0.2-0.1h8.4c0.1,0,0.2,0,0.2,0.1c0,0.1,0.1,0.1,0.1,0.2v1
			c0,0.1,0,0.1-0.1,0.2s-0.1,0.1-0.2,0.1h-8.4C651.4,1012.6,651.3,1012.5,651.2,1012.5z M651.2,1022c-0.1-0.1-0.1-0.1-0.1-0.2v-1
			c0-0.1,0-0.2,0.1-0.2c0.1,0,0.1-0.1,0.2-0.1h7c0.1,0,0.2,0,0.2,0.1c0,0.1,0.1,0.1,0.1,0.2v1c0,0.1,0,0.1-0.1,0.2
			c-0.1,0.1-0.1,0.1-0.2,0.1h-7C651.4,1022,651.3,1022,651.2,1022z"/>
	</g>
	<g class="st1">
		<path d="M174.3,1083.7c-0.1-0.1-0.1-0.1-0.1-0.2v-1c0-0.1,0-0.1,0-0.2c0-0.1,0.1-0.1,0.1-0.2l11.7-18.5c0.1-0.1,0.2-0.2,0.4-0.2
			h0.4c0.1,0,0.2,0,0.2,0.1c0,0.1,0.1,0.1,0.1,0.2v1c0,0.1,0,0.1,0,0.2c0,0.1-0.1,0.1-0.1,0.2l-11.7,18.5c-0.1,0.1-0.2,0.2-0.4,0.2
			h-0.4C174.4,1083.8,174.3,1083.8,174.3,1083.7z M174.7,1064.9c-0.1-0.1-0.1-0.1-0.1-0.2v-1c0-0.1,0-0.2,0.1-0.2
			c0.1,0,0.1-0.1,0.2-0.1h9.1c0.1,0,0.2,0,0.2,0.1c0,0.1,0,0.2,0,0.3l-0.7,1c-0.1,0.1-0.2,0.2-0.4,0.2h-8.3
			C174.8,1065,174.7,1065,174.7,1064.9z M177.1,1083.7c0-0.1,0-0.2,0-0.3l0.7-1c0.1-0.1,0.2-0.2,0.4-0.2h8.7c0.1,0,0.2,0,0.2,0.1
			c0,0.1,0.1,0.1,0.1,0.2v1c0,0.1,0,0.1-0.1,0.2s-0.1,0.1-0.2,0.1h-9.6C177.2,1083.8,177.1,1083.8,177.1,1083.7z"/>
	</g>
	<g class="st1">
		<path d="M222.7,1083.7c-0.1-0.1-0.1-0.1-0.1-0.2v-19.8c0-0.1,0-0.2,0.1-0.2c0.1,0,0.1-0.1,0.2-0.1h1.1c0.1,0,0.2,0,0.2,0.1
			c0,0.1,0.1,0.1,0.1,0.2v19.8c0,0.1,0,0.1-0.1,0.2c-0.1,0.1-0.1,0.1-0.2,0.1h-1.1C222.9,1083.8,222.8,1083.8,222.7,1083.7z
			 M226,1064.9c-0.1-0.1-0.1-0.1-0.1-0.2v-1c0-0.1,0-0.2,0.1-0.2c0.1,0,0.1-0.1,0.2-0.1h8.4c0.1,0,0.2,0,0.2,0.1
			c0,0.1,0.1,0.1,0.1,0.2v1c0,0.1,0,0.1-0.1,0.2c-0.1,0.1-0.1,0.1-0.2,0.1h-8.4C226.2,1065,226.1,1065,226,1064.9z M226,1074.2
			c-0.1-0.1-0.1-0.1-0.1-0.2v-1c0-0.1,0-0.2,0.1-0.2c0.1,0,0.1-0.1,0.2-0.1h7c0.1,0,0.2,0,0.2,0.1c0,0.1,0.1,0.1,0.1,0.2v1
			c0,0.1,0,0.1-0.1,0.2c-0.1,0.1-0.1,0.1-0.2,0.1h-7C226.2,1074.3,226.1,1074.2,226,1074.2z M226,1083.7c-0.1-0.1-0.1-0.1-0.1-0.2
			v-1c0-0.1,0-0.2,0.1-0.2c0.1,0,0.1-0.1,0.2-0.1h8.4c0.1,0,0.2,0,0.2,0.1c0,0.1,0.1,0.1,0.1,0.2v1c0,0.1,0,0.1-0.1,0.2
			c-0.1,0.1-0.1,0.1-0.2,0.1h-8.4C226.2,1083.8,226.1,1083.8,226,1083.7z"/>
	</g>
	<g class="st1">
		<path d="M270,1083.7c-0.1-0.1-0.1-0.1-0.1-0.2v-19.8c0-0.1,0-0.2,0.1-0.2c0.1,0,0.1-0.1,0.2-0.1h1.1c0.1,0,0.2,0,0.2,0.1
			c0,0.1,0.1,0.1,0.1,0.2v19.8c0,0.1,0,0.1-0.1,0.2c-0.1,0.1-0.1,0.1-0.2,0.1h-1.1C270.1,1083.8,270,1083.8,270,1083.7z
			 M273.2,1074.2c-0.1-0.1-0.1-0.1-0.1-0.2v-1c0-0.1,0-0.2,0.1-0.2c0.1,0,0.1-0.1,0.2-0.1h6.9c0.1,0,0.2,0,0.2,0.1
			c0,0.1,0.1,0.1,0.1,0.2v1c0,0.1,0,0.1-0.1,0.2s-0.1,0.1-0.2,0.1h-6.9C273.3,1074.3,273.2,1074.2,273.2,1074.2z M282.1,1083.7
			c-0.1-0.1-0.1-0.1-0.1-0.2v-19.8c0-0.1,0-0.2,0.1-0.2c0.1,0,0.1-0.1,0.2-0.1h1.1c0.1,0,0.2,0,0.2,0.1c0,0.1,0.1,0.1,0.1,0.2v19.8
			c0,0.1,0,0.1-0.1,0.2c-0.1,0.1-0.1,0.1-0.2,0.1h-1.1C282.3,1083.8,282.2,1083.8,282.1,1083.7z"/>
	</g>
	<g class="st1">
		<path d="M329.4,1083.8c-0.1,0-0.2-0.1-0.2-0.2l-11.9-19.4c-0.1-0.1-0.1-0.2-0.1-0.4c0-0.2,0.1-0.3,0.3-0.3h1c0.1,0,0.2,0,0.3,0.1
			c0.1,0,0.1,0.1,0.2,0.2l12,19.5c0,0.1,0.1,0.1,0.1,0.2c0,0.1,0,0.1,0,0.2c0,0.1-0.1,0.2-0.3,0.2h-1
			C329.6,1083.8,329.5,1083.8,329.4,1083.8z M317.2,1083.7c-0.1-0.1-0.1-0.1-0.1-0.2v-16.2c0-0.2,0-0.2,0.1-0.2
			c0.1,0,0.2,0.1,0.2,0.1l1.2,1.9c0.1,0.1,0.1,0.2,0.1,0.4v14c0,0.1,0,0.1-0.1,0.2c-0.1,0.1-0.1,0.1-0.2,0.1h-1
			C317.4,1083.8,317.3,1083.8,317.2,1083.7z M329.5,1078.1c-0.1-0.1-0.1-0.2-0.1-0.4v-14c0-0.1,0-0.2,0.1-0.2c0.1,0,0.1-0.1,0.2-0.1
			h1c0.1,0,0.2,0,0.2,0.1c0,0.1,0.1,0.1,0.1,0.2v16.1c0,0.2,0,0.2-0.2,0.2c-0.1,0-0.1,0-0.2-0.1L329.5,1078.1z"/>
	</g>
	<g class="st1">
		<path d="M364.5,1083.7c-0.1-0.1-0.1-0.1-0.1-0.2v-19.8c0-0.1,0-0.2,0.1-0.2c0.1,0,0.1-0.1,0.2-0.1h1.1c0.1,0,0.2,0,0.2,0.1
			c0,0.1,0.1,0.1,0.1,0.2v19.8c0,0.1,0,0.1-0.1,0.2s-0.1,0.1-0.2,0.1h-1.1C364.6,1083.8,364.5,1083.8,364.5,1083.7z M367.7,1083.7
			c-0.1-0.1-0.1-0.1-0.1-0.2v-1c0-0.1,0-0.2,0.1-0.2c0.1,0,0.1-0.1,0.2-0.1h2.9c1.4,0,2.5-0.2,3.3-0.7c0.9-0.5,1.5-1.3,1.8-2.3
			c0.2-0.5,0.3-1.2,0.4-2c0.1-0.8,0.1-2,0.1-3.6c0-1.6,0-2.8-0.1-3.6c-0.1-0.8-0.2-1.4-0.4-2c-0.4-1.1-1-1.8-1.8-2.3
			c-0.8-0.5-2-0.7-3.3-0.7h-2.9c-0.1,0-0.1,0-0.2-0.1c-0.1-0.1-0.1-0.1-0.1-0.2v-1c0-0.1,0-0.2,0.1-0.2c0.1,0,0.1-0.1,0.2-0.1h3.1
			c3.4,0,5.6,1.4,6.5,4.1c0.2,0.6,0.3,1.3,0.4,2.2c0.1,0.8,0.1,2.1,0.1,3.9c0,1.8,0,3.1-0.1,3.9c-0.1,0.8-0.2,1.5-0.4,2.2
			c-0.9,2.8-3.1,4.1-6.5,4.1h-3.1C367.9,1083.8,367.8,1083.8,367.7,1083.7z"/>
	</g>
	<g class="st1">
		<path d="M409.7,1083.7c0-0.1,0-0.1,0-0.2l6.2-17.1c0.1-0.1,0.1-0.2,0.2-0.2c0,0,0.1,0,0.1,0c0,0,0.1,0.1,0.1,0.1l0.6,1.6
			c0,0.1,0.1,0.1,0.1,0.2s0,0.1-0.1,0.2l-3,8.4h5.9c0.2,0,0.3,0.1,0.4,0.2l0.4,1l0,0.1c0,0.1,0,0.1-0.1,0.1c0,0-0.1,0.1-0.2,0.1
			h-6.9l-1.8,5.1c0,0.1-0.1,0.2-0.2,0.2c-0.1,0-0.1,0.1-0.2,0.1h-1.2C409.8,1083.8,409.8,1083.8,409.7,1083.7z M424,1083.6l-7-19.8
			l0-0.1c0-0.1,0-0.1,0.1-0.2c0,0,0.1-0.1,0.2-0.1h1.1c0.2,0,0.3,0.1,0.4,0.3l7.1,19.8l0,0.1c0,0.1,0,0.1-0.1,0.1
			c0,0-0.1,0.1-0.2,0.1h-1.2C424.2,1083.8,424.1,1083.7,424,1083.6z"/>
	</g>
	<g class="st1">
		<path d="M460.2,1081.9c-1-1.2-1.5-3-1.5-5.2v-13.1c0-0.1,0-0.2,0.1-0.2c0.1,0,0.1-0.1,0.2-0.1h1.1c0.1,0,0.2,0,0.2,0.1
			c0,0.1,0.1,0.1,0.1,0.2v13.1c0,1.7,0.4,3,1.1,3.9c0.7,1,1.7,1.5,3.1,1.8c0.2,0,0.3,0.1,0.3,0.3v1c0,0.1,0,0.2-0.1,0.2
			c-0.1,0-0.1,0.1-0.2,0C462.6,1083.9,461.2,1083.2,460.2,1081.9z M466.6,1084.1c-0.1,0-0.1,0-0.2-0.1c0-0.1-0.1-0.1-0.1-0.2v-1
			c0-0.2,0.1-0.3,0.3-0.3c1.3-0.2,2.4-0.8,3.1-1.7s1.1-2.3,1.1-4v-13.1c0-0.1,0-0.2,0.1-0.2c0.1,0,0.1-0.1,0.2-0.1h1.1
			c0.1,0,0.2,0,0.2,0.1c0,0.1,0.1,0.1,0.1,0.2v13.1c0,2.2-0.5,3.9-1.5,5.1C470,1083.1,468.6,1083.9,466.6,1084.1L466.6,1084.1z"/>
	</g>
	<g class="st1">
		<path d="M510.8,1083.5l-6.8-19.7l-0.1-0.2c0-0.1,0-0.1,0.1-0.2c0,0,0.1-0.1,0.2-0.1h1.1c0.1,0,0.2,0,0.3,0.1
			c0.1,0,0.1,0.1,0.1,0.2l6.7,19.6c0,0.1,0.1,0.2,0.1,0.3c0,0.2-0.1,0.3-0.3,0.3h-1C511,1083.8,510.9,1083.7,510.8,1083.5z
			 M512.6,1079.2c0,0,0-0.1,0-0.2c0-0.1,0-0.2,0.1-0.3l5-15c0-0.1,0.1-0.2,0.2-0.2c0.1,0,0.1-0.1,0.3-0.1h1.1c0.1,0,0.2,0,0.2,0.1
			c0,0.1,0,0.2,0,0.3l-5.8,17c0,0.1,0,0.1-0.1,0.1c0,0-0.1,0.1-0.1,0.1c-0.1,0-0.1-0.1-0.2-0.2L512.6,1079.2z"/>
	</g>
	<g class="st1">
		<path d="M555.1,1082.7c-0.9-0.8-1.6-1.8-2-3.1c-0.2-0.6-0.3-1.3-0.4-2.1c-0.1-0.9-0.1-2.1-0.1-3.8c0-1.7,0-2.9,0.1-3.8
			s0.2-1.6,0.4-2.1c0.4-1.3,1.1-2.4,2-3.1s2.1-1.2,3.4-1.4h0.1c0.1,0,0.1,0,0.2,0.1c0,0.1,0.1,0.1,0.1,0.2v1c0,0.2-0.1,0.3-0.3,0.3
			c-1.9,0.3-3.2,1.5-3.9,3.4c-0.2,0.5-0.3,1.1-0.4,1.9c-0.1,0.8-0.1,2-0.1,3.5c0,1.5,0,2.7,0.1,3.5s0.2,1.5,0.4,1.9
			c0.6,1.9,1.9,3.1,3.9,3.4c0.2,0,0.3,0.1,0.3,0.3v1c0,0.1,0,0.2-0.1,0.2s-0.1,0.1-0.2,0C557.2,1083.9,556,1083.4,555.1,1082.7z
			 M560.7,1084.1c-0.1,0-0.1,0-0.2-0.1c0-0.1-0.1-0.1-0.1-0.2v-1c0-0.2,0.1-0.3,0.3-0.3c1.9-0.3,3.2-1.4,3.9-3.4
			c0.2-0.5,0.3-1.1,0.4-2c0.1-0.8,0.1-2,0.1-3.5s0-2.7-0.1-3.5c-0.1-0.8-0.2-1.5-0.4-2c-0.7-1.9-2-3.1-3.9-3.4
			c-0.2,0-0.3-0.1-0.3-0.3v-1c0-0.1,0-0.2,0.1-0.2c0.1,0,0.1-0.1,0.2,0c1.4,0.2,2.5,0.6,3.4,1.4c0.9,0.8,1.6,1.8,2.1,3.1
			c0.2,0.6,0.3,1.3,0.4,2.2c0.1,0.9,0.2,2.1,0.2,3.8c0,1.6-0.1,2.9-0.2,3.8c-0.1,0.9-0.2,1.6-0.4,2.2c-0.4,1.3-1.1,2.4-2.1,3.1
			C563.3,1083.4,562.2,1083.9,560.7,1084.1L560.7,1084.1z"/>
	</g>
	<g class="st1">
		<path d="M600.7,1083.7c-0.1-0.1-0.1-0.1-0.1-0.2v-19.8c0-0.1,0-0.2,0.1-0.2c0.1,0,0.1-0.1,0.2-0.1h1.1c0.1,0,0.2,0,0.2,0.1
			c0,0.1,0.1,0.1,0.1,0.2v19.8c0,0.1,0,0.1-0.1,0.2s-0.1,0.1-0.2,0.1h-1.1C600.8,1083.8,600.7,1083.8,600.7,1083.7z M604,1074.6
			c-0.1-0.1-0.1-0.1-0.1-0.2v-1c0-0.1,0-0.2,0.1-0.2c0.1,0,0.1-0.1,0.2-0.1h3.5c1.5,0,2.6-0.3,3.4-1s1.2-1.7,1.2-3s-0.4-2.3-1.2-3
			s-1.9-1.1-3.4-1.1h-3.5c-0.1,0-0.2,0-0.2-0.1s-0.1-0.1-0.1-0.2v-1c0-0.1,0-0.2,0.1-0.2c0.1,0,0.1-0.1,0.2-0.1h3.5
			c1.3,0,2.4,0.2,3.3,0.7c0.9,0.5,1.6,1.1,2.1,2s0.8,1.9,0.8,3c0,1.1-0.2,2.1-0.7,2.9c-0.5,0.9-1.2,1.5-2.1,2
			c-1,0.5-2.1,0.7-3.5,0.7h-3.4C604.1,1074.7,604,1074.6,604,1074.6z M612.5,1083.8c0,0-0.1-0.1-0.1-0.2l-3.4-7.1
			c-0.1-0.1-0.1-0.2,0-0.3c0,0,0.1-0.1,0.2-0.1c0.1,0,0.1,0,0.2,0c0.4,0,0.7-0.1,0.9-0.2c0,0,0.1,0,0.1,0c0.1,0,0.2,0.1,0.2,0.2
			l3.7,7.4c0,0,0,0.1,0,0.1c0,0.1-0.1,0.2-0.2,0.2h-1.3C612.6,1083.8,612.5,1083.8,612.5,1083.8z"/>
	</g>
	<g class="st1">
		<path d="M649.6,1082.7c-0.9-0.8-1.6-1.8-2.1-3.1c-0.2-0.6-0.3-1.3-0.4-2.1c-0.1-0.9-0.1-2.1-0.1-3.8c0-1.7,0-2.9,0.1-3.8
			s0.2-1.6,0.4-2.1c0.4-1.3,1.1-2.4,2.1-3.1s2.1-1.2,3.5-1.4h0.1c0.1,0,0.1,0,0.2,0.1c0,0.1,0.1,0.1,0.1,0.2v1
			c0,0.2-0.1,0.3-0.3,0.3c-1,0.1-1.8,0.5-2.4,1.1c-0.7,0.6-1.1,1.4-1.5,2.3c-0.2,0.4-0.3,1.1-0.4,1.9c-0.1,0.8-0.1,2-0.1,3.6
			c0,1.6,0,2.8,0.1,3.6c0.1,0.8,0.2,1.5,0.4,1.9c0.3,1,0.8,1.7,1.5,2.3c0.6,0.6,1.5,0.9,2.4,1.1c0.2,0,0.3,0.1,0.3,0.3v1
			c0,0.1,0,0.2-0.1,0.2s-0.1,0.1-0.2,0C651.7,1083.9,650.6,1083.4,649.6,1082.7z M655.2,1084.1c-0.1,0-0.1,0-0.2-0.1
			c0-0.1-0.1-0.1-0.1-0.2v-1c0-0.2,0.1-0.3,0.3-0.3c1-0.2,1.8-0.5,2.4-1.1c0.7-0.6,1.1-1.3,1.5-2.3c0.3-0.9,0.5-2.2,0.5-3.9
			c0-0.1-0.1-0.2-0.2-0.2h-4.6c-0.1,0-0.2,0-0.2-0.1c-0.1-0.1-0.1-0.1-0.1-0.2v-0.9c0-0.1,0-0.2,0.1-0.2c0.1,0,0.1-0.1,0.2-0.1h6.2
			c0.1,0,0.2,0,0.2,0.1c0,0.1,0.1,0.1,0.1,0.2v1.2c0,1-0.1,1.8-0.2,2.6c-0.1,0.8-0.2,1.4-0.4,1.9c-0.4,1.3-1.1,2.4-2.1,3.1
			C657.8,1083.4,656.6,1083.9,655.2,1084.1L655.2,1084.1z M659.4,1067.8c-0.1,0-0.2,0-0.2-0.2c-0.4-0.8-1-1.5-1.6-1.9
			s-1.4-0.8-2.3-0.9c-0.2,0-0.3-0.1-0.3-0.3v-1c0-0.1,0-0.2,0.1-0.2c0.1,0,0.1-0.1,0.2,0c1.3,0.2,2.3,0.6,3.2,1.2s1.6,1.5,2,2.4
			c0,0.1,0.1,0.2,0.1,0.2c0,0.1,0,0.1-0.1,0.2l-1,0.5C659.5,1067.8,659.5,1067.8,659.4,1067.8z"/>
	</g>
	<g class="st1">
		<path d="M187.7,1136.2c-0.1,0-0.2-0.1-0.2-0.2l-11.9-19.4c-0.1-0.1-0.1-0.2-0.1-0.4c0-0.2,0.1-0.3,0.3-0.3h1c0.1,0,0.2,0,0.3,0.1
			c0.1,0,0.1,0.1,0.2,0.2l12,19.5c0,0.1,0.1,0.1,0.1,0.2c0,0.1,0,0.1,0,0.2c0,0.1-0.1,0.2-0.3,0.2h-1
			C187.9,1136.3,187.8,1136.2,187.7,1136.2z M175.5,1136.2c-0.1-0.1-0.1-0.1-0.1-0.2v-16.2c0-0.2,0-0.2,0.2-0.2
			c0.1,0,0.2,0.1,0.2,0.1l1.2,1.9c0.1,0.1,0.1,0.2,0.1,0.4v14c0,0.1,0,0.1-0.1,0.2c-0.1,0.1-0.1,0.1-0.2,0.1h-1
			C175.6,1136.3,175.6,1136.2,175.5,1136.2z M187.8,1130.5c-0.1-0.1-0.1-0.2-0.1-0.4v-14c0-0.1,0-0.2,0.1-0.2c0.1,0,0.1-0.1,0.2-0.1
			h1c0.1,0,0.2,0,0.2,0.1c0,0.1,0.1,0.1,0.1,0.2v16.1c0,0.2-0.1,0.2-0.1,0.2c-0.1,0-0.1,0-0.2-0.1L187.8,1130.5z"/>
	</g>
	<g class="st1">
		<path d="M220.8,1136.2c0-0.1,0-0.1,0-0.2l6.2-17.1c0.1-0.1,0.1-0.2,0.2-0.2c0,0,0.1,0,0.1,0c0,0,0.1,0.1,0.1,0.1l0.6,1.6
			c0,0.1,0.1,0.1,0.1,0.2s0,0.1-0.1,0.2l-3,8.4h5.9c0.2,0,0.3,0.1,0.4,0.2l0.4,1l0,0.1c0,0.1,0,0.1-0.1,0.1c-0.1,0-0.1,0.1-0.2,0.1
			h-6.9l-1.8,5.1c0,0.1-0.1,0.2-0.2,0.2c-0.1,0-0.1,0.1-0.2,0.1H221C220.9,1136.3,220.8,1136.2,220.8,1136.2z M235,1136l-7-19.8
			l0-0.1c0-0.1,0-0.1,0.1-0.2s0.1-0.1,0.2-0.1h1.1c0.2,0,0.3,0.1,0.4,0.3l7.1,19.8l0,0.1c0,0.1,0,0.1-0.1,0.1c0,0-0.1,0.1-0.2,0.1
			h-1.2C235.2,1136.3,235.1,1136.2,235,1136z"/>
	</g>
	<g class="st1">
		<path d="M271.6,1135.1c-0.9-0.8-1.6-1.8-2-3.1c-0.2-0.5-0.3-1.2-0.4-2.1c-0.1-0.9-0.1-2.2-0.1-3.9c0-1.7,0-3,0.1-3.9
			c0.1-0.9,0.2-1.6,0.4-2.1c0.4-1.3,1.1-2.4,2-3.1c0.9-0.8,2-1.2,3.3-1.4h0.1c0.1,0,0.1,0,0.2,0.1c0,0.1,0.1,0.1,0.1,0.2v1
			c0,0.2-0.1,0.3-0.3,0.3c-0.9,0.1-1.7,0.5-2.3,1c-0.6,0.6-1.1,1.3-1.4,2.3c-0.1,0.4-0.3,1.1-0.3,1.9c-0.1,0.8-0.1,2-0.1,3.6
			c0,1.6,0,2.8,0.1,3.6c0.1,0.8,0.2,1.4,0.3,1.9c0.3,1,0.8,1.7,1.4,2.3c0.6,0.6,1.4,0.9,2.3,1c0.2,0,0.3,0.1,0.3,0.3v1
			c0,0.1,0,0.2-0.1,0.2s-0.1,0.1-0.2,0C273.6,1136.3,272.5,1135.9,271.6,1135.1z M281,1120.2c-0.1,0-0.2-0.1-0.3-0.2
			c-0.9-1.6-2.1-2.5-3.6-2.8c-0.2,0-0.3-0.1-0.3-0.3v-1c0-0.1,0-0.2,0.1-0.2s0.1-0.1,0.2-0.1c1.1,0.2,2.1,0.6,3,1.2
			c0.9,0.6,1.5,1.5,2,2.5c0,0,0,0.1,0,0.2c0,0.1,0,0.1-0.1,0.2l-1,0.5C281.1,1120.2,281,1120.2,281,1120.2z M277.1,1136.5
			c-0.1,0-0.1,0-0.2-0.1c-0.1-0.1-0.1-0.1-0.1-0.2v-1c0-0.2,0.1-0.3,0.3-0.3c1.6-0.3,2.8-1.2,3.6-2.8c0-0.1,0.1-0.1,0.2-0.2
			c0.1,0,0.1,0,0.2,0l1,0.5c0.1,0.1,0.2,0.2,0.1,0.4c-0.5,1.1-1.2,1.9-2,2.5C279.3,1135.9,278.3,1136.3,277.1,1136.5L277.1,1136.5z"
			/>
	</g>
	<g class="st1">
		<path d="M317.2,1136.2c-0.1-0.1-0.1-0.1-0.1-0.2v-19.8c0-0.1,0-0.2,0.1-0.2c0.1,0,0.1-0.1,0.2-0.1h1.1c0.1,0,0.2,0,0.2,0.1
			c0,0.1,0.1,0.1,0.1,0.2v19.8c0,0.1,0,0.1-0.1,0.2s-0.1,0.1-0.2,0.1h-1.1C317.4,1136.3,317.3,1136.2,317.2,1136.2z M320.4,1126.6
			c-0.1-0.1-0.1-0.1-0.1-0.2v-1c0-0.1,0-0.2,0.1-0.2c0.1,0,0.1-0.1,0.2-0.1h6.9c0.1,0,0.2,0,0.2,0.1c0,0.1,0.1,0.1,0.1,0.2v1
			c0,0.1,0,0.1-0.1,0.2s-0.1,0.1-0.2,0.1h-6.9C320.5,1126.7,320.5,1126.7,320.4,1126.6z M329.4,1136.2c-0.1-0.1-0.1-0.1-0.1-0.2
			v-19.8c0-0.1,0-0.2,0.1-0.2c0.1,0,0.1-0.1,0.2-0.1h1.1c0.1,0,0.2,0,0.2,0.1c0,0.1,0.1,0.1,0.1,0.2v19.8c0,0.1,0,0.1-0.1,0.2
			c-0.1,0.1-0.1,0.1-0.2,0.1h-1.1C329.5,1136.3,329.4,1136.2,329.4,1136.2z"/>
	</g>
	<g class="st1">
		<path d="M369.1,1136l-6.8-19.7l-0.1-0.2c0-0.1,0-0.1,0.1-0.2c0,0,0.1-0.1,0.2-0.1h1.1c0.1,0,0.2,0,0.3,0.1c0.1,0,0.1,0.1,0.1,0.2
			l6.7,19.6c0,0.1,0.1,0.2,0.1,0.3c0,0.2-0.1,0.3-0.3,0.3h-1C369.3,1136.3,369.2,1136.2,369.1,1136z M370.8,1131.7c0,0,0-0.1,0-0.2
			c0-0.1,0-0.2,0.1-0.3l5-15c0-0.1,0.1-0.2,0.2-0.2c0.1,0,0.1-0.1,0.3-0.1h1.1c0.1,0,0.2,0,0.2,0.1c0,0.1,0,0.2,0,0.3l-5.8,17
			c0,0.1,0,0.1-0.1,0.1c0,0-0.1,0.1-0.1,0.1c-0.1,0-0.1-0.1-0.2-0.2L370.8,1131.7z"/>
	</g>
	<g class="st1">
		<path d="M417.7,1136.2c-0.1-0.1-0.1-0.1-0.1-0.2v-19.8c0-0.1,0-0.2,0.1-0.2c0.1,0,0.1-0.1,0.2-0.1h1.1c0.1,0,0.2,0,0.2,0.1
			c0,0.1,0.1,0.1,0.1,0.2v19.8c0,0.1,0,0.1-0.1,0.2s-0.1,0.1-0.2,0.1h-1.1C417.8,1136.3,417.7,1136.2,417.7,1136.2z"/>
	</g>
	<g class="st1">
		<path d="M459,1136.2c-0.1-0.1-0.1-0.1-0.1-0.2v-19.8c0-0.1,0-0.2,0.1-0.2c0.1,0,0.1-0.1,0.2-0.1h1.1c0.1,0,0.2,0,0.2,0.1
			c0,0.1,0.1,0.1,0.1,0.2v19.8c0,0.1,0,0.1-0.1,0.2s-0.1,0.1-0.2,0.1h-1.1C459.1,1136.3,459,1136.2,459,1136.2z M462.3,1117.4
			c-0.1-0.1-0.1-0.1-0.1-0.2v-1c0-0.1,0-0.2,0.1-0.2c0.1,0,0.1-0.1,0.2-0.1h8.4c0.1,0,0.2,0,0.2,0.1c0,0.1,0.1,0.1,0.1,0.2v1
			c0,0.1,0,0.1-0.1,0.2s-0.1,0.1-0.2,0.1h-8.4C462.4,1117.4,462.3,1117.4,462.3,1117.4z M462.3,1126.6c-0.1-0.1-0.1-0.1-0.1-0.2v-1
			c0-0.1,0-0.2,0.1-0.2c0.1,0,0.1-0.1,0.2-0.1h7c0.1,0,0.2,0,0.2,0.1c0,0.1,0.1,0.1,0.1,0.2v1c0,0.1,0,0.1-0.1,0.2
			c-0.1,0.1-0.1,0.1-0.2,0.1h-7C462.4,1126.7,462.3,1126.7,462.3,1126.6z M462.3,1136.2c-0.1-0.1-0.1-0.1-0.1-0.2v-1
			c0-0.1,0-0.2,0.1-0.2c0.1,0,0.1-0.1,0.2-0.1h8.4c0.1,0,0.2,0,0.2,0.1c0,0.1,0.1,0.1,0.1,0.2v1c0,0.1,0,0.1-0.1,0.2
			s-0.1,0.1-0.2,0.1h-8.4C462.4,1136.3,462.3,1136.2,462.3,1136.2z"/>
	</g>
	<g class="st1">
		<path d="M506.2,1136.2c-0.1-0.1-0.1-0.1-0.1-0.2v-19.8c0-0.1,0-0.2,0.1-0.2c0.1,0,0.1-0.1,0.2-0.1h1.1c0.1,0,0.2,0,0.2,0.1
			c0,0.1,0.1,0.1,0.1,0.2v19.8c0,0.1,0,0.1-0.1,0.2s-0.1,0.1-0.2,0.1h-1.1C506.3,1136.3,506.3,1136.2,506.2,1136.2z M509.5,1127
			c-0.1-0.1-0.1-0.1-0.1-0.2v-1c0-0.1,0-0.2,0.1-0.2c0.1,0,0.1-0.1,0.2-0.1h3.5c1.5,0,2.6-0.3,3.4-1s1.2-1.7,1.2-3s-0.4-2.3-1.2-3
			s-1.9-1.1-3.4-1.1h-3.5c-0.1,0-0.2,0-0.2-0.1s-0.1-0.1-0.1-0.2v-1c0-0.1,0-0.2,0.1-0.2c0.1,0,0.1-0.1,0.2-0.1h3.5
			c1.3,0,2.4,0.2,3.3,0.7c0.9,0.5,1.6,1.1,2.1,2s0.8,1.9,0.8,3c0,1.1-0.2,2.1-0.7,2.9c-0.5,0.9-1.2,1.5-2.1,2
			c-1,0.5-2.1,0.7-3.5,0.7h-3.4C509.6,1127.1,509.6,1127.1,509.5,1127z M518,1136.2c0,0-0.1-0.1-0.1-0.2l-3.4-7.1
			c-0.1-0.1-0.1-0.2,0-0.3c0,0,0.1-0.1,0.2-0.1c0.1,0,0.1,0,0.2,0c0.4,0,0.7-0.1,0.9-0.2c0,0,0.1,0,0.1,0c0.1,0,0.2,0.1,0.2,0.2
			l3.7,7.4c0,0,0,0.1,0,0.1c0,0.1-0.1,0.2-0.2,0.2h-1.3C518.1,1136.3,518,1136.2,518,1136.2z"/>
	</g>
	<g class="st1">
		<path d="M551.3,1117.4c-0.1-0.1-0.1-0.1-0.1-0.2v-1c0-0.1,0-0.2,0.1-0.2c0.1,0,0.1-0.1,0.2-0.1h13.8c0.1,0,0.2,0,0.2,0.1
			c0,0.1,0.1,0.1,0.1,0.2v1c0,0.1,0,0.1-0.1,0.2c-0.1,0.1-0.1,0.1-0.2,0.1h-13.8C551.4,1117.4,551.3,1117.4,551.3,1117.4z
			 M557.6,1136.2c-0.1-0.1-0.1-0.1-0.1-0.2v-16.7c0-0.1,0-0.2,0.1-0.2c0.1,0,0.1-0.1,0.2-0.1h1.1c0.1,0,0.2,0,0.2,0.1
			c0,0.1,0.1,0.1,0.1,0.2v16.7c0,0.1,0,0.1-0.1,0.2s-0.1,0.1-0.2,0.1h-1.1C557.7,1136.3,557.7,1136.2,557.6,1136.2z"/>
	</g>
	<g class="st1">
		<path d="M600.7,1136.2c-0.1-0.1-0.1-0.1-0.1-0.2v-19.8c0-0.1,0-0.2,0.1-0.2c0.1,0,0.1-0.1,0.2-0.1h1.1c0.1,0,0.2,0,0.2,0.1
			c0,0.1,0.1,0.1,0.1,0.2v19.8c0,0.1,0,0.1-0.1,0.2s-0.1,0.1-0.2,0.1h-1.1C600.8,1136.3,600.7,1136.2,600.7,1136.2z M604,1117.4
			c-0.1-0.1-0.1-0.1-0.1-0.2v-1c0-0.1,0-0.2,0.1-0.2c0.1,0,0.1-0.1,0.2-0.1h8.4c0.1,0,0.2,0,0.2,0.1c0,0.1,0.1,0.1,0.1,0.2v1
			c0,0.1,0,0.1-0.1,0.2s-0.1,0.1-0.2,0.1h-8.4C604.1,1117.4,604,1117.4,604,1117.4z M604,1126.6c-0.1-0.1-0.1-0.1-0.1-0.2v-1
			c0-0.1,0-0.2,0.1-0.2c0.1,0,0.1-0.1,0.2-0.1h7c0.1,0,0.2,0,0.2,0.1c0,0.1,0.1,0.1,0.1,0.2v1c0,0.1,0,0.1-0.1,0.2
			c-0.1,0.1-0.1,0.1-0.2,0.1h-7C604.1,1126.7,604,1126.7,604,1126.6z M604,1136.2c-0.1-0.1-0.1-0.1-0.1-0.2v-1c0-0.1,0-0.2,0.1-0.2
			c0.1,0,0.1-0.1,0.2-0.1h8.4c0.1,0,0.2,0,0.2,0.1c0,0.1,0.1,0.1,0.1,0.2v1c0,0.1,0,0.1-0.1,0.2s-0.1,0.1-0.2,0.1h-8.4
			C604.1,1136.3,604,1136.2,604,1136.2z"/>
	</g>
	<g class="st1">
		<path d="M647.9,1136.2c-0.1-0.1-0.1-0.1-0.1-0.2v-19.8c0-0.1,0-0.2,0.1-0.2c0.1,0,0.1-0.1,0.2-0.1h1.1c0.1,0,0.2,0,0.2,0.1
			c0,0.1,0.1,0.1,0.1,0.2v19.8c0,0.1,0,0.1-0.1,0.2s-0.1,0.1-0.2,0.1h-1.1C648.1,1136.3,648,1136.2,647.9,1136.2z M651.2,1136.2
			c-0.1-0.1-0.1-0.1-0.1-0.2v-1c0-0.1,0-0.2,0.1-0.2c0.1,0,0.1-0.1,0.2-0.1h8.4c0.1,0,0.2,0,0.2,0.1c0,0.1,0.1,0.1,0.1,0.2v1
			c0,0.1,0,0.1-0.1,0.2s-0.1,0.1-0.2,0.1h-8.4C651.4,1136.3,651.3,1136.2,651.2,1136.2z"/>
	</g>
	<g class="st1">
		<path d="M175.5,1188.6c-0.1-0.1-0.1-0.1-0.1-0.2v-19.8c0-0.1,0-0.2,0.1-0.2c0.1,0,0.1-0.1,0.2-0.1h1.1c0.1,0,0.2,0,0.2,0.1
			c0,0.1,0.1,0.1,0.1,0.2v19.8c0,0.1,0,0.1-0.1,0.2c-0.1,0.1-0.1,0.1-0.2,0.1h-1.1C175.6,1188.7,175.6,1188.7,175.5,1188.6z
			 M178.7,1179.1c-0.1-0.1-0.1-0.1-0.1-0.2v-1c0-0.1,0-0.2,0.1-0.2c0.1,0,0.1-0.1,0.2-0.1h6.9c0.1,0,0.2,0,0.2,0.1
			c0,0.1,0.1,0.1,0.1,0.2v1c0,0.1,0,0.1-0.1,0.2s-0.1,0.1-0.2,0.1h-6.9C178.8,1179.2,178.7,1179.1,178.7,1179.1z M187.6,1188.6
			c-0.1-0.1-0.1-0.1-0.1-0.2v-19.8c0-0.1,0-0.2,0.1-0.2c0.1,0,0.1-0.1,0.2-0.1h1.1c0.1,0,0.2,0,0.2,0.1c0,0.1,0.1,0.1,0.1,0.2v19.8
			c0,0.1,0,0.1-0.1,0.2c-0.1,0.1-0.1,0.1-0.2,0.1h-1.1C187.8,1188.7,187.7,1188.7,187.6,1188.6z"/>
	</g>
	<g class="st1">
		<path d="M220.8,1188.6c0-0.1,0-0.1,0-0.2l6.2-17.1c0.1-0.1,0.1-0.2,0.2-0.2c0,0,0.1,0,0.1,0c0,0,0.1,0.1,0.1,0.1l0.6,1.6
			c0,0.1,0.1,0.1,0.1,0.2s0,0.1-0.1,0.2l-3,8.4h5.9c0.2,0,0.3,0.1,0.4,0.2l0.4,1l0,0.1c0,0.1,0,0.1-0.1,0.1c-0.1,0-0.1,0.1-0.2,0.1
			h-6.9l-1.8,5.1c0,0.1-0.1,0.2-0.2,0.2c-0.1,0-0.1,0.1-0.2,0.1H221C220.9,1188.7,220.8,1188.7,220.8,1188.6z M235,1188.5l-7-19.8
			l0-0.1c0-0.1,0-0.1,0.1-0.2s0.1-0.1,0.2-0.1h1.1c0.2,0,0.3,0.1,0.4,0.3l7.1,19.8l0,0.1c0,0.1,0,0.1-0.1,0.1c0,0-0.1,0.1-0.2,0.1
			h-1.2C235.2,1188.7,235.1,1188.6,235,1188.5z"/>
	</g>
	<g class="st1">
		<path d="M270,1188.6c-0.1-0.1-0.1-0.1-0.1-0.2v-19.8c0-0.1,0-0.2,0.1-0.2c0.1,0,0.1-0.1,0.2-0.1h1.1c0.1,0,0.2,0,0.2,0.1
			c0,0.1,0.1,0.1,0.1,0.2v19.8c0,0.1,0,0.1-0.1,0.2c-0.1,0.1-0.1,0.1-0.2,0.1h-1.1C270.1,1188.7,270,1188.7,270,1188.6z
			 M273.3,1188.6c-0.1-0.1-0.1-0.1-0.1-0.2v-1c0-0.1,0-0.2,0.1-0.2c0.1,0,0.1-0.1,0.2-0.1h8.4c0.1,0,0.2,0,0.2,0.1
			c0,0.1,0.1,0.1,0.1,0.2v1c0,0.1,0,0.1-0.1,0.2c-0.1,0.1-0.1,0.1-0.2,0.1h-8.4C273.4,1188.7,273.3,1188.7,273.3,1188.6z"/>
	</g>
	<g class="st1">
		<path d="M317.2,1188.6c-0.1-0.1-0.1-0.1-0.1-0.2v-19.8c0-0.1,0-0.2,0.1-0.2c0.1,0,0.1-0.1,0.2-0.1h1.1c0.1,0,0.2,0,0.2,0.1
			c0,0.1,0.1,0.1,0.1,0.2v19.8c0,0.1,0,0.1-0.1,0.2s-0.1,0.1-0.2,0.1h-1.1C317.4,1188.7,317.3,1188.7,317.2,1188.6z M328.2,1176.8
			c-0.2-0.1-0.3-0.1-0.5-0.2c-0.2-0.1-0.3-0.2-0.2-0.5c0.7-0.9,1-1.8,1-2.7c0-0.7-0.2-1.3-0.5-1.8s-0.8-1-1.5-1.3
			c-0.6-0.3-1.4-0.5-2.3-0.5h-3.5c-0.1,0-0.2,0-0.2-0.1s-0.1-0.1-0.1-0.2v-1c0-0.1,0-0.2,0.1-0.2c0.1,0,0.1-0.1,0.2-0.1h3.5
			c1.3,0,2.4,0.2,3.2,0.7c0.9,0.4,1.5,1.1,2,1.8c0.4,0.8,0.7,1.7,0.7,2.7c0,0.6-0.1,1.3-0.3,1.9c-0.2,0.6-0.5,1.1-0.9,1.6
			c-0.1,0.1-0.2,0.1-0.4,0.1C328.5,1176.9,328.4,1176.9,328.2,1176.8z M320.5,1188.6c-0.1-0.1-0.1-0.1-0.1-0.2v-1
			c0-0.1,0-0.2,0.1-0.2s0.1-0.1,0.2-0.1h3.7c1.4,0,2.5-0.4,3.3-1.1c0.8-0.7,1.1-1.7,1.1-3c0-1.2-0.4-2.2-1.2-2.9
			c-0.8-0.7-1.9-1.1-3.3-1.1h-3.7c-0.1,0-0.2,0-0.2-0.1s-0.1-0.1-0.1-0.2v-1c0-0.1,0-0.2,0.1-0.2c0.1,0,0.1-0.1,0.2-0.1h3.5
			c1.3,0,2.5,0.2,3.4,0.7c0.9,0.4,1.7,1.1,2.1,1.9c0.5,0.8,0.7,1.8,0.7,3c0,1.2-0.2,2.2-0.7,3c-0.5,0.8-1.2,1.5-2.1,1.9
			c-0.9,0.4-2.1,0.7-3.4,0.7h-3.5C320.7,1188.7,320.6,1188.7,320.5,1188.6z"/>
	</g>
	<g class="st1">
		<path d="M369.1,1188.4l-6.8-19.7l-0.1-0.2c0-0.1,0-0.1,0.1-0.2c0,0,0.1-0.1,0.2-0.1h1.1c0.1,0,0.2,0,0.3,0.1
			c0.1,0,0.1,0.1,0.1,0.2l6.7,19.6c0,0.1,0.1,0.2,0.1,0.3c0,0.2-0.1,0.3-0.3,0.3h-1C369.3,1188.7,369.2,1188.6,369.1,1188.4z
			 M370.8,1184.1c0,0,0-0.1,0-0.2c0-0.1,0-0.2,0.1-0.3l5-15c0-0.1,0.1-0.2,0.2-0.2c0.1,0,0.1-0.1,0.3-0.1h1.1c0.1,0,0.2,0,0.2,0.1
			c0,0.1,0,0.2,0,0.3l-5.8,17c0,0.1,0,0.1-0.1,0.1c0,0-0.1,0.1-0.1,0.1c-0.1,0-0.1-0.1-0.2-0.2L370.8,1184.1z"/>
	</g>
	<g class="st1">
		<path d="M413.4,1187.6c-0.9-0.8-1.6-1.8-2-3.1c-0.2-0.6-0.3-1.3-0.4-2.1c-0.1-0.9-0.1-2.1-0.1-3.8c0-1.7,0-2.9,0.1-3.8
			s0.2-1.6,0.4-2.1c0.4-1.3,1.1-2.4,2-3.1s2.1-1.2,3.4-1.4h0.1c0.1,0,0.1,0,0.2,0.1c0,0.1,0.1,0.1,0.1,0.2v1c0,0.2-0.1,0.3-0.3,0.3
			c-1.9,0.3-3.2,1.5-3.9,3.4c-0.2,0.5-0.3,1.1-0.4,1.9c-0.1,0.8-0.1,2-0.1,3.5c0,1.5,0,2.7,0.1,3.5s0.2,1.5,0.4,1.9
			c0.6,1.9,1.9,3.1,3.9,3.4c0.2,0,0.3,0.1,0.3,0.3v1c0,0.1,0,0.2-0.1,0.2s-0.1,0.1-0.2,0C415.5,1188.8,414.3,1188.3,413.4,1187.6z
			 M419,1188.9c-0.1,0-0.1,0-0.2-0.1c0-0.1-0.1-0.1-0.1-0.2v-1c0-0.2,0.1-0.3,0.3-0.3c1.9-0.3,3.2-1.4,3.9-3.4
			c0.2-0.5,0.3-1.1,0.4-2c0.1-0.8,0.1-2,0.1-3.5s0-2.7-0.1-3.5c-0.1-0.8-0.2-1.5-0.4-2c-0.7-1.9-2-3.1-3.9-3.4
			c-0.2,0-0.3-0.1-0.3-0.3v-1c0-0.1,0-0.2,0.1-0.2c0.1,0,0.1-0.1,0.2,0c1.4,0.2,2.5,0.6,3.4,1.4c0.9,0.8,1.6,1.8,2.1,3.1
			c0.2,0.6,0.3,1.3,0.4,2.2c0.1,0.9,0.2,2.1,0.2,3.8c0,1.6-0.1,2.9-0.2,3.8c-0.1,0.9-0.2,1.6-0.4,2.2c-0.4,1.3-1.1,2.4-2.1,3.1
			C421.6,1188.3,420.4,1188.8,419,1188.9L419,1188.9z"/>
	</g>
	<g class="st1">
		<path d="M459,1188.6c-0.1-0.1-0.1-0.1-0.1-0.2v-19.8c0-0.1,0-0.2,0.1-0.2c0.1,0,0.1-0.1,0.2-0.1h1.1c0.1,0,0.2,0,0.2,0.1
			c0,0.1,0.1,0.1,0.1,0.2v19.8c0,0.1,0,0.1-0.1,0.2s-0.1,0.1-0.2,0.1h-1.1C459.1,1188.7,459,1188.7,459,1188.6z M462.3,1179.5
			c-0.1-0.1-0.1-0.1-0.1-0.2v-1c0-0.1,0-0.2,0.1-0.2c0.1,0,0.1-0.1,0.2-0.1h3.5c1.5,0,2.6-0.3,3.4-1s1.2-1.7,1.2-3s-0.4-2.3-1.2-3
			s-1.9-1.1-3.4-1.1h-3.5c-0.1,0-0.2,0-0.2-0.1s-0.1-0.1-0.1-0.2v-1c0-0.1,0-0.2,0.1-0.2c0.1,0,0.1-0.1,0.2-0.1h3.5
			c1.3,0,2.4,0.2,3.3,0.7c0.9,0.5,1.6,1.1,2.1,2s0.8,1.9,0.8,3c0,1.1-0.2,2.1-0.7,2.9c-0.5,0.9-1.2,1.5-2.1,2
			c-1,0.5-2.1,0.7-3.5,0.7h-3.4C462.4,1179.5,462.3,1179.5,462.3,1179.5z M470.7,1188.6c0,0-0.1-0.1-0.1-0.2l-3.4-7.1
			c-0.1-0.1-0.1-0.2,0-0.3c0,0,0.1-0.1,0.2-0.1c0.1,0,0.1,0,0.2,0c0.4,0,0.7-0.1,0.9-0.2c0,0,0.1,0,0.1,0c0.1,0,0.2,0.1,0.2,0.2
			l3.7,7.4c0,0,0,0.1,0,0.1c0,0.1-0.1,0.2-0.2,0.2H471C470.9,1188.7,470.8,1188.7,470.7,1188.6z"/>
	</g>
	<g class="st1">
		<path d="M518.4,1188.6c-0.1,0-0.2-0.1-0.2-0.2l-11.9-19.4c-0.1-0.1-0.1-0.2-0.1-0.4c0-0.2,0.1-0.3,0.3-0.3h1c0.1,0,0.2,0,0.3,0.1
			c0.1,0,0.1,0.1,0.2,0.2l12,19.5c0,0.1,0.1,0.1,0.1,0.2c0,0.1,0,0.1,0,0.2c0,0.1-0.1,0.2-0.3,0.2h-1
			C518.6,1188.7,518.5,1188.7,518.4,1188.6z M506.2,1188.6c-0.1-0.1-0.1-0.1-0.1-0.2v-16.2c0-0.2,0-0.2,0.1-0.2
			c0.1,0,0.2,0.1,0.2,0.1l1.2,1.9c0.1,0.1,0.1,0.2,0.1,0.4v14c0,0.1,0,0.1-0.1,0.2c-0.1,0.1-0.1,0.1-0.2,0.1h-1
			C506.3,1188.7,506.3,1188.7,506.2,1188.6z M518.5,1182.9c-0.1-0.1-0.1-0.2-0.1-0.4v-14c0-0.1,0-0.2,0.1-0.2c0.1,0,0.1-0.1,0.2-0.1
			h1c0.1,0,0.2,0,0.2,0.1c0,0.1,0.1,0.1,0.1,0.2v16.1c0,0.2,0,0.2-0.2,0.2c-0.1,0-0.1,0-0.2-0.1L518.5,1182.9z"/>
	</g>
	<g class="st1">
		<path d="M551.5,1188.6c0-0.1,0-0.1,0-0.2l6.2-17.1c0.1-0.1,0.1-0.2,0.2-0.2c0,0,0.1,0,0.1,0c0,0,0.1,0.1,0.1,0.1l0.6,1.6
			c0,0.1,0.1,0.1,0.1,0.2s0,0.1-0.1,0.2l-3,8.4h5.9c0.2,0,0.3,0.1,0.4,0.2l0.4,1l0,0.1c0,0.1,0,0.1-0.1,0.1c0,0-0.1,0.1-0.2,0.1H555
			l-1.8,5.1c0,0.1-0.1,0.2-0.2,0.2c-0.1,0-0.1,0.1-0.2,0.1h-1.2C551.6,1188.7,551.5,1188.7,551.5,1188.6z M565.7,1188.5l-7-19.8
			l0-0.1c0-0.1,0-0.1,0.1-0.2c0,0,0.1-0.1,0.2-0.1h1.1c0.2,0,0.3,0.1,0.4,0.3l7.1,19.8l0,0.1c0,0.1,0,0.1-0.1,0.1
			c0,0-0.1,0.1-0.2,0.1h-1.2C565.9,1188.7,565.8,1188.6,565.7,1188.5z"/>
	</g>
	<g class="st1">
		<path d="M602.3,1187.6c-0.9-0.8-1.6-1.8-2-3.1c-0.2-0.5-0.3-1.2-0.4-2.1c-0.1-0.9-0.1-2.2-0.1-3.9c0-1.7,0-3,0.1-3.9
			c0.1-0.9,0.2-1.6,0.4-2.1c0.4-1.3,1.1-2.4,2-3.1s2-1.2,3.3-1.4h0.1c0.1,0,0.1,0,0.2,0.1c0,0.1,0.1,0.1,0.1,0.2v1
			c0,0.2-0.1,0.3-0.3,0.3c-0.9,0.1-1.7,0.5-2.3,1c-0.6,0.6-1.1,1.3-1.4,2.3c-0.1,0.4-0.2,1.1-0.3,1.9c-0.1,0.8-0.1,2-0.1,3.6
			c0,1.6,0,2.8,0.1,3.6s0.2,1.4,0.3,1.9c0.3,1,0.8,1.7,1.4,2.3c0.6,0.6,1.4,0.9,2.3,1c0.2,0,0.3,0.1,0.3,0.3v1c0,0.1,0,0.2-0.1,0.2
			s-0.1,0.1-0.2,0C604.3,1188.8,603.2,1188.3,602.3,1187.6z M611.7,1172.6c-0.1,0-0.2-0.1-0.3-0.2c-0.9-1.6-2.1-2.5-3.6-2.8
			c-0.2,0-0.3-0.1-0.3-0.3v-1c0-0.1,0-0.2,0.1-0.2c0.1-0.1,0.1-0.1,0.2-0.1c1.1,0.2,2.1,0.6,3,1.2c0.9,0.6,1.5,1.5,2,2.5
			c0,0,0,0.1,0,0.2c0,0.1,0,0.1-0.1,0.2l-1,0.5C611.8,1172.6,611.7,1172.6,611.7,1172.6z M607.8,1188.9c-0.1,0-0.1,0-0.2-0.1
			s-0.1-0.1-0.1-0.2v-1c0-0.2,0.1-0.3,0.3-0.3c1.6-0.3,2.8-1.2,3.6-2.8c0-0.1,0.1-0.1,0.2-0.2c0.1,0,0.1,0,0.2,0l1,0.5
			c0.1,0.1,0.2,0.2,0.1,0.4c-0.5,1.1-1.2,1.9-2,2.5C610,1188.4,609,1188.8,607.8,1188.9L607.8,1188.9z"/>
	</g>
	<g class="st1">
		<path d="M647.9,1188.6c-0.1-0.1-0.1-0.1-0.1-0.2v-19.8c0-0.1,0-0.2,0.1-0.2c0.1,0,0.1-0.1,0.2-0.1h1.1c0.1,0,0.2,0,0.2,0.1
			c0,0.1,0.1,0.1,0.1,0.2v19.8c0,0.1,0,0.1-0.1,0.2s-0.1,0.1-0.2,0.1h-1.1C648.1,1188.7,648,1188.7,647.9,1188.6z M651.1,1179.1
			c-0.1-0.1-0.1-0.1-0.1-0.2v-1c0-0.1,0-0.2,0.1-0.2c0.1,0,0.1-0.1,0.2-0.1h6.9c0.1,0,0.2,0,0.2,0.1c0,0.1,0.1,0.1,0.1,0.2v1
			c0,0.1,0,0.1-0.1,0.2s-0.1,0.1-0.2,0.1h-6.9C651.2,1179.2,651.2,1179.1,651.1,1179.1z M660.1,1188.6c-0.1-0.1-0.1-0.1-0.1-0.2
			v-19.8c0-0.1,0-0.2,0.1-0.2c0.1,0,0.1-0.1,0.2-0.1h1.1c0.1,0,0.2,0,0.2,0.1c0,0.1,0.1,0.1,0.1,0.2v19.8c0,0.1,0,0.1-0.1,0.2
			c-0.1,0.1-0.1,0.1-0.2,0.1h-1.1C660.2,1188.7,660.1,1188.7,660.1,1188.6z"/>
	</g>
	<g class="st1">
		<path d="M175.5,1241.1c-0.1-0.1-0.1-0.1-0.1-0.2V1221c0-0.1,0-0.2,0.1-0.2c0.1,0,0.1-0.1,0.2-0.1h1.1c0.1,0,0.2,0,0.2,0.1
			c0,0.1,0.1,0.1,0.1,0.2v19.8c0,0.1,0,0.1-0.1,0.2c-0.1,0.1-0.1,0.1-0.2,0.1h-1.1C175.6,1241.1,175.6,1241.1,175.5,1241.1z
			 M178.8,1222.2c-0.1-0.1-0.1-0.1-0.1-0.2v-1c0-0.1,0-0.2,0.1-0.2c0.1,0,0.1-0.1,0.2-0.1h8.4c0.1,0,0.2,0,0.2,0.1
			c0,0.1,0.1,0.1,0.1,0.2v1c0,0.1,0,0.1-0.1,0.2c-0.1,0.1-0.1,0.1-0.2,0.1H179C178.9,1222.3,178.9,1222.3,178.8,1222.2z
			 M178.8,1231.5c-0.1-0.1-0.1-0.1-0.1-0.2v-1c0-0.1,0-0.2,0.1-0.2c0.1,0,0.1-0.1,0.2-0.1h7c0.1,0,0.2,0,0.2,0.1
			c0,0.1,0.1,0.1,0.1,0.2v1c0,0.1,0,0.1-0.1,0.2c-0.1,0.1-0.1,0.1-0.2,0.1h-7C178.9,1231.6,178.9,1231.6,178.8,1231.5z
			 M178.8,1241.1c-0.1-0.1-0.1-0.1-0.1-0.2v-1c0-0.1,0-0.2,0.1-0.2c0.1,0,0.1-0.1,0.2-0.1h8.4c0.1,0,0.2,0,0.2,0.1
			c0,0.1,0.1,0.1,0.1,0.2v1c0,0.1,0,0.1-0.1,0.2c-0.1,0.1-0.1,0.1-0.2,0.1H179C178.9,1241.1,178.9,1241.1,178.8,1241.1z"/>
	</g>
	<g class="st1">
		<path d="M228.7,1241.1c-0.1-0.1-0.1-0.1-0.1-0.2V1221c0-0.1,0-0.2,0.1-0.2c0.1,0,0.1-0.1,0.2-0.1h1.1c0.1,0,0.2,0,0.2,0.1
			c0,0.1,0.1,0.1,0.1,0.2v19.8c0,0.1,0,0.1-0.1,0.2c-0.1,0.1-0.1,0.1-0.2,0.1h-1.1C228.8,1241.1,228.7,1241.1,228.7,1241.1z"/>
	</g>
	<g class="st1">
		<path d="M282.2,1241.1c-0.1,0-0.2-0.1-0.2-0.2l-11.9-19.4c-0.1-0.1-0.1-0.2-0.1-0.4c0-0.2,0.1-0.3,0.3-0.3h1c0.1,0,0.2,0,0.3,0.1
			c0.1,0,0.1,0.1,0.2,0.2l12,19.5c0,0.1,0.1,0.1,0.1,0.2c0,0.1,0,0.1,0,0.2c0,0.1-0.1,0.2-0.3,0.2h-1
			C282.4,1241.1,282.3,1241.1,282.2,1241.1z M270,1241.1c-0.1-0.1-0.1-0.1-0.1-0.2v-16.2c0-0.2,0-0.2,0.2-0.2c0.1,0,0.2,0.1,0.2,0.1
			l1.2,1.9c0.1,0.1,0.1,0.2,0.1,0.4v14c0,0.1,0,0.1-0.1,0.2c-0.1,0.1-0.1,0.1-0.2,0.1h-1C270.1,1241.1,270,1241.1,270,1241.1z
			 M282.2,1235.4c-0.1-0.1-0.1-0.2-0.1-0.4v-14c0-0.1,0-0.2,0.1-0.2c0.1,0,0.1-0.1,0.2-0.1h1c0.1,0,0.2,0,0.2,0.1
			c0,0.1,0.1,0.1,0.1,0.2v16.1c0,0.2-0.1,0.2-0.1,0.2c-0.1,0-0.1,0-0.2-0.1L282.2,1235.4z"/>
	</g>
	<g class="st1">
		<path d="M318.8,1240.6c-1.1-0.4-1.9-0.9-2.5-1.5c-0.1-0.1-0.1-0.1-0.1-0.2c0-0.1,0-0.2,0.1-0.2l0.7-0.8c0.1-0.1,0.3-0.1,0.4,0
			c0.6,0.5,1.3,0.9,2.1,1.3c0.8,0.4,1.7,0.6,2.6,0.7c0.2,0,0.3,0.1,0.3,0.3v1c0,0.1,0,0.2-0.1,0.2c-0.1,0-0.1,0.1-0.2,0
			C320.9,1241.3,319.8,1241,318.8,1240.6z M324.2,1241.4c-0.1,0-0.1,0-0.2-0.1c-0.1-0.1-0.1-0.1-0.1-0.2v-1c0-0.2,0.1-0.3,0.3-0.3
			c1.3-0.1,2.3-0.6,3.1-1.3c0.7-0.7,1.1-1.7,1.1-2.8c0-1.1-0.4-2-1.1-2.7c-0.7-0.7-2-1.1-3.8-1.3l-1-0.1c-2-0.3-3.4-0.8-4.4-1.8
			c-1-0.9-1.5-2.1-1.5-3.6c0-1,0.2-2,0.6-2.8s1-1.5,1.8-2c0.8-0.5,1.7-0.8,2.8-0.9h0.1c0.1,0,0.1,0,0.2,0.1c0,0.1,0.1,0.1,0.1,0.2v1
			c0,0.2-0.1,0.3-0.3,0.3c-1.1,0.2-2,0.6-2.6,1.3c-0.6,0.7-0.9,1.6-0.9,2.6c0,1.1,0.4,2,1.1,2.6c0.8,0.7,2,1.1,3.7,1.3l1,0.1
			c2,0.3,3.5,0.8,4.4,1.8c1,0.9,1.4,2.1,1.4,3.7c0,1.1-0.2,2-0.7,2.8c-0.4,0.8-1.1,1.5-2,2C326.7,1240.9,325.6,1241.3,324.2,1241.4
			L324.2,1241.4z M324.2,1222.1c-0.2,0-0.3-0.2-0.3-0.3v-1c0-0.1,0-0.2,0.1-0.2c0.1,0,0.1-0.1,0.2,0c0.9,0.1,1.8,0.3,2.6,0.5
			c0.8,0.3,1.5,0.6,2.1,1.1c0.2,0.1,0.2,0.3,0.1,0.4l-0.6,0.9c-0.1,0.1-0.3,0.2-0.4,0.1C326.8,1222.7,325.5,1222.2,324.2,1222.1z"/>
	</g>
	<g class="st1">
		<path d="M364.5,1241.1c-0.1-0.1-0.1-0.1-0.1-0.2V1221c0-0.1,0-0.2,0.1-0.2c0.1,0,0.1-0.1,0.2-0.1h1.1c0.1,0,0.2,0,0.2,0.1
			c0,0.1,0.1,0.1,0.1,0.2v19.8c0,0.1,0,0.1-0.1,0.2s-0.1,0.1-0.2,0.1h-1.1C364.6,1241.1,364.5,1241.1,364.5,1241.1z M367.8,1232.9
			c-0.1,0-0.1-0.1-0.1-0.2v-1.6c0-0.1,0-0.2,0.1-0.4l8-9.7c0.1-0.1,0.2-0.2,0.3-0.2s0.2-0.1,0.3-0.1h1.4c0.1,0,0.2,0,0.2,0.1
			c0,0.1,0,0.1,0,0.2l-9.8,11.7C368,1232.8,367.9,1232.9,367.8,1232.9z M376.6,1241.1c-0.1,0-0.1-0.1-0.2-0.2l-5.2-9.1
			c0-0.1-0.1-0.1-0.1-0.2c0-0.1,0-0.2,0.1-0.2l0.7-0.9c0.1-0.1,0.1-0.1,0.2-0.1c0.1,0,0.1,0,0.2,0.1l6,10.4l0,0.1
			c0,0.1-0.1,0.2-0.2,0.2h-1.4C376.8,1241.1,376.7,1241.1,376.6,1241.1z"/>
	</g>
	<g class="st1">
		<path d="M412.9,1239.3c-1-1.2-1.5-3-1.5-5.2V1221c0-0.1,0-0.2,0.1-0.2c0.1,0,0.1-0.1,0.2-0.1h1.1c0.1,0,0.2,0,0.2,0.1
			c0,0.1,0.1,0.1,0.1,0.2v13.1c0,1.7,0.4,3,1.1,3.9c0.7,1,1.7,1.5,3.1,1.8c0.2,0,0.3,0.1,0.3,0.3v1c0,0.1,0,0.2-0.1,0.2
			c-0.1,0-0.1,0.1-0.2,0C415.4,1241.2,413.9,1240.5,412.9,1239.3z M419.4,1241.4c-0.1,0-0.1,0-0.2-0.1c0-0.1-0.1-0.1-0.1-0.2v-1
			c0-0.2,0.1-0.3,0.3-0.3c1.3-0.2,2.4-0.8,3.1-1.7s1.1-2.3,1.1-4V1221c0-0.1,0-0.2,0.1-0.2c0.1,0,0.1-0.1,0.2-0.1h1.1
			c0.1,0,0.2,0,0.2,0.1c0,0.1,0.1,0.1,0.1,0.2v13.1c0,2.2-0.5,3.9-1.5,5.1C422.7,1240.5,421.3,1241.2,419.4,1241.4L419.4,1241.4z"/>
	</g>
	<g class="st1">
		<path d="M459,1241.1c-0.1-0.1-0.1-0.1-0.1-0.2V1221c0-0.1,0-0.2,0.1-0.2c0.1,0,0.1-0.1,0.2-0.1h1.1c0.1,0,0.2,0,0.2,0.1
			c0,0.1,0.1,0.1,0.1,0.2v19.8c0,0.1,0,0.1-0.1,0.2s-0.1,0.1-0.2,0.1h-1.1C459.1,1241.1,459,1241.1,459,1241.1z M462.3,1231.9
			c-0.1-0.1-0.1-0.1-0.1-0.2v-1c0-0.1,0-0.2,0.1-0.2c0.1,0,0.1-0.1,0.2-0.1h3.5c1.5,0,2.6-0.3,3.4-1s1.2-1.7,1.2-3s-0.4-2.3-1.2-3
			s-1.9-1.1-3.4-1.1h-3.5c-0.1,0-0.2,0-0.2-0.1s-0.1-0.1-0.1-0.2v-1c0-0.1,0-0.2,0.1-0.2c0.1,0,0.1-0.1,0.2-0.1h3.5
			c1.3,0,2.4,0.2,3.3,0.7c0.9,0.5,1.6,1.1,2.1,2s0.8,1.9,0.8,3c0,1.1-0.2,2.1-0.7,2.9c-0.5,0.9-1.2,1.5-2.1,2
			c-1,0.5-2.1,0.7-3.5,0.7h-3.4C462.4,1232,462.3,1232,462.3,1231.9z M470.7,1241.1c0,0-0.1-0.1-0.1-0.2l-3.4-7.1
			c-0.1-0.1-0.1-0.2,0-0.3c0,0,0.1-0.1,0.2-0.1c0.1,0,0.1,0,0.2,0c0.4,0,0.7-0.1,0.9-0.2c0,0,0.1,0,0.1,0c0.1,0,0.2,0.1,0.2,0.2
			l3.7,7.4c0,0,0,0.1,0,0.1c0,0.1-0.1,0.2-0.2,0.2H471C470.9,1241.1,470.8,1241.1,470.7,1241.1z"/>
	</g>
	<g class="st1">
		<path d="M505,1241.1c-0.1-0.1-0.1-0.1-0.1-0.2v-1c0-0.1,0-0.1,0-0.2c0-0.1,0.1-0.1,0.1-0.2l11.7-18.5c0.1-0.1,0.2-0.2,0.4-0.2h0.5
			c0.1,0,0.2,0,0.2,0.1c0,0.1,0.1,0.1,0.1,0.2v1c0,0.1,0,0.1,0,0.2c0,0.1-0.1,0.1-0.1,0.2l-11.7,18.5c-0.1,0.1-0.2,0.2-0.4,0.2h-0.5
			C505.1,1241.1,505,1241.1,505,1241.1z M505.4,1222.2c-0.1-0.1-0.1-0.1-0.1-0.2v-1c0-0.1,0-0.2,0.1-0.2c0.1,0,0.1-0.1,0.2-0.1h9.2
			c0.1,0,0.2,0,0.2,0.1c0,0.1,0,0.2,0,0.3l-0.7,1c-0.1,0.1-0.2,0.2-0.4,0.2h-8.3C505.5,1222.3,505.4,1222.3,505.4,1222.2z
			 M507.8,1241c0-0.1,0-0.2,0-0.3l0.7-1c0.1-0.1,0.2-0.2,0.4-0.2h8.7c0.1,0,0.2,0,0.2,0.1c0,0.1,0.1,0.1,0.1,0.2v1
			c0,0.1,0,0.1-0.1,0.2s-0.1,0.1-0.2,0.1H508C507.9,1241.1,507.8,1241.1,507.8,1241z"/>
	</g>
	<g class="st1">
		<path d="M556.5,1241.1c-0.1,0-0.1-0.1-0.1-0.2l-4.9-19.8l0-0.1c0-0.1,0-0.1,0.1-0.1s0.1-0.1,0.2-0.1h1.1c0.1,0,0.2,0,0.3,0.1
			c0.1,0,0.1,0.1,0.1,0.2l4.7,19.6c0,0.1,0,0.1,0,0.2c0,0.2-0.1,0.3-0.3,0.3h-1C556.6,1241.1,556.5,1241.1,556.5,1241.1z
			 M567.7,1241.1c0,0-0.1-0.1-0.1-0.2l-4.8-16.8h-0.1l-3.9,13.6c0,0.1,0,0.1-0.1,0.1s-0.1,0.1-0.1,0.1c-0.1,0-0.1-0.1-0.2-0.2
			l-0.5-2.1c0-0.1,0-0.2,0-0.4l3.9-14.1c0-0.1,0.1-0.2,0.1-0.2c0,0,0.1-0.1,0.2-0.1h0.9c0.1,0,0.2,0,0.2,0.1c0,0.1,0.1,0.1,0.1,0.2
			l5.5,19.6l0,0.1c0,0.2-0.1,0.3-0.3,0.3h-1C567.9,1241.1,567.8,1241.1,567.7,1241.1z M569.1,1235.5c0-0.2-0.1-0.3,0-0.4l3.3-14.1
			c0-0.1,0.1-0.2,0.1-0.2c0.1,0,0.1-0.1,0.3-0.1h1c0.1,0,0.2,0,0.2,0.1s0,0.1,0,0.2l-4,16.5c0,0.1,0,0.1-0.1,0.1s-0.1,0.1-0.1,0.1
			c-0.1,0-0.1-0.1-0.2-0.2L569.1,1235.5z"/>
	</g>
	<g class="st1">
		<path d="M600.7,1241.1c-0.1-0.1-0.1-0.1-0.1-0.2V1221c0-0.1,0-0.2,0.1-0.2c0.1,0,0.1-0.1,0.2-0.1h1.1c0.1,0,0.2,0,0.2,0.1
			c0,0.1,0.1,0.1,0.1,0.2v19.8c0,0.1,0,0.1-0.1,0.2s-0.1,0.1-0.2,0.1h-1.1C600.8,1241.1,600.7,1241.1,600.7,1241.1z M604,1222.2
			c-0.1-0.1-0.1-0.1-0.1-0.2v-1c0-0.1,0-0.2,0.1-0.2c0.1,0,0.1-0.1,0.2-0.1h8.4c0.1,0,0.2,0,0.2,0.1c0,0.1,0.1,0.1,0.1,0.2v1
			c0,0.1,0,0.1-0.1,0.2s-0.1,0.1-0.2,0.1h-8.4C604.1,1222.3,604,1222.3,604,1222.2z M604,1231.5c-0.1-0.1-0.1-0.1-0.1-0.2v-1
			c0-0.1,0-0.2,0.1-0.2c0.1,0,0.1-0.1,0.2-0.1h7c0.1,0,0.2,0,0.2,0.1c0,0.1,0.1,0.1,0.1,0.2v1c0,0.1,0,0.1-0.1,0.2
			c-0.1,0.1-0.1,0.1-0.2,0.1h-7C604.1,1231.6,604,1231.6,604,1231.5z M604,1241.1c-0.1-0.1-0.1-0.1-0.1-0.2v-1c0-0.1,0-0.2,0.1-0.2
			c0.1,0,0.1-0.1,0.2-0.1h8.4c0.1,0,0.2,0,0.2,0.1c0,0.1,0.1,0.1,0.1,0.2v1c0,0.1,0,0.1-0.1,0.2s-0.1,0.1-0.2,0.1h-8.4
			C604.1,1241.1,604,1241.1,604,1241.1z"/>
	</g>
	<g class="st1">
		<path d="M653.9,1241.1c-0.1-0.1-0.1-0.1-0.1-0.2V1221c0-0.1,0-0.2,0.1-0.2c0.1,0,0.1-0.1,0.2-0.1h1.1c0.1,0,0.2,0,0.2,0.1
			c0,0.1,0.1,0.1,0.1,0.2v19.8c0,0.1,0,0.1-0.1,0.2s-0.1,0.1-0.2,0.1h-1.1C654,1241.1,653.9,1241.1,653.9,1241.1z"/>
	</g>
	<g class="st1">
		<path d="M175.5,1293.5c-0.1-0.1-0.1-0.1-0.1-0.2v-19.8c0-0.1,0-0.2,0.1-0.2c0.1,0,0.1-0.1,0.2-0.1h1.1c0.1,0,0.2,0,0.2,0.1
			c0,0.1,0.1,0.1,0.1,0.2v19.8c0,0.1,0,0.1-0.1,0.2c-0.1,0.1-0.1,0.1-0.2,0.1h-1.1C175.6,1293.6,175.6,1293.6,175.5,1293.5z
			 M178.8,1293.5c-0.1-0.1-0.1-0.1-0.1-0.2v-1c0-0.1,0-0.2,0.1-0.2s0.1-0.1,0.2-0.1h2.9c1.4,0,2.5-0.2,3.3-0.7
			c0.8-0.5,1.5-1.3,1.8-2.3c0.2-0.5,0.3-1.2,0.4-1.9c0.1-0.8,0.1-2,0.1-3.6c0-1.6,0-2.8-0.1-3.6c-0.1-0.8-0.2-1.4-0.4-2
			c-0.4-1.1-1-1.8-1.8-2.3c-0.9-0.5-2-0.7-3.3-0.7H179c-0.1,0-0.1,0-0.2-0.1s-0.1-0.1-0.1-0.2v-1c0-0.1,0-0.2,0.1-0.2
			c0.1,0,0.1-0.1,0.2-0.1h3.1c3.4,0,5.6,1.4,6.5,4.1c0.2,0.6,0.3,1.3,0.4,2.2c0.1,0.8,0.1,2.1,0.1,3.9c0,1.8,0,3.1-0.1,3.9
			c-0.1,0.8-0.2,1.5-0.4,2.2c-0.9,2.8-3.1,4.1-6.5,4.1H179C178.9,1293.6,178.8,1293.6,178.8,1293.5z"/>
	</g>
	<g class="st1">
		<path d="M222.7,1293.5c-0.1-0.1-0.1-0.1-0.1-0.2v-19.8c0-0.1,0-0.2,0.1-0.2c0.1,0,0.1-0.1,0.2-0.1h1.1c0.1,0,0.2,0,0.2,0.1
			c0,0.1,0.1,0.1,0.1,0.2v19.8c0,0.1,0,0.1-0.1,0.2c-0.1,0.1-0.1,0.1-0.2,0.1h-1.1C222.9,1293.6,222.8,1293.6,222.7,1293.5z
			 M226,1284.3c-0.1-0.1-0.1-0.1-0.1-0.2v-1c0-0.1,0-0.2,0.1-0.2c0.1,0,0.1-0.1,0.2-0.1h3.5c1.5,0,2.6-0.3,3.4-1
			c0.8-0.7,1.2-1.7,1.2-3s-0.4-2.3-1.2-3c-0.8-0.7-1.9-1.1-3.4-1.1h-3.5c-0.1,0-0.1,0-0.2-0.1s-0.1-0.1-0.1-0.2v-1
			c0-0.1,0-0.2,0.1-0.2c0.1,0,0.1-0.1,0.2-0.1h3.5c1.3,0,2.4,0.2,3.3,0.7c0.9,0.5,1.6,1.1,2.1,2s0.8,1.9,0.8,3
			c0,1.1-0.2,2.1-0.7,2.9s-1.2,1.5-2.1,2c-1,0.5-2.1,0.7-3.5,0.7h-3.4C226.2,1284.4,226.1,1284.4,226,1284.3z M234.5,1293.5
			c-0.1,0-0.1-0.1-0.1-0.2l-3.4-7.1c-0.1-0.1-0.1-0.2,0-0.3c0,0,0.1-0.1,0.2-0.1c0.1,0,0.1,0,0.1,0c0.4,0,0.7-0.1,0.9-0.2
			c0,0,0.1,0,0.1,0c0.1,0,0.2,0.1,0.2,0.2l3.7,7.4c0,0,0,0.1,0,0.2c0,0.1-0.1,0.2-0.2,0.2h-1.3
			C234.6,1293.6,234.6,1293.6,234.5,1293.5z"/>
	</g>
	<g class="st1">
		<path d="M270,1293.5c-0.1-0.1-0.1-0.1-0.1-0.2v-19.8c0-0.1,0-0.2,0.1-0.2c0.1,0,0.1-0.1,0.2-0.1h1.1c0.1,0,0.2,0,0.2,0.1
			c0,0.1,0.1,0.1,0.1,0.2v19.8c0,0.1,0,0.1-0.1,0.2c-0.1,0.1-0.1,0.1-0.2,0.1h-1.1C270.1,1293.6,270,1293.6,270,1293.5z
			 M273.3,1274.7c-0.1-0.1-0.1-0.1-0.1-0.2v-1c0-0.1,0-0.2,0.1-0.2c0.1,0,0.1-0.1,0.2-0.1h8.4c0.1,0,0.2,0,0.2,0.1
			c0,0.1,0.1,0.1,0.1,0.2v1c0,0.1,0,0.1-0.1,0.2c-0.1,0.1-0.1,0.1-0.2,0.1h-8.4C273.4,1274.8,273.3,1274.7,273.3,1274.7z
			 M273.3,1284c-0.1-0.1-0.1-0.1-0.1-0.2v-1c0-0.1,0-0.2,0.1-0.2c0.1,0,0.1-0.1,0.2-0.1h7c0.1,0,0.2,0,0.2,0.1
			c0,0.1,0.1,0.1,0.1,0.2v1c0,0.1,0,0.1-0.1,0.2c-0.1,0.1-0.1,0.1-0.2,0.1h-7C273.4,1284,273.3,1284,273.3,1284z M273.3,1293.5
			c-0.1-0.1-0.1-0.1-0.1-0.2v-1c0-0.1,0-0.2,0.1-0.2s0.1-0.1,0.2-0.1h8.4c0.1,0,0.2,0,0.2,0.1c0,0,0.1,0.1,0.1,0.2v1
			c0,0.1,0,0.1-0.1,0.2c-0.1,0.1-0.1,0.1-0.2,0.1h-8.4C273.4,1293.6,273.3,1293.6,273.3,1293.5z"/>
	</g>
	<g class="st1">
		<path d="M323.2,1293.5c-0.1-0.1-0.1-0.1-0.1-0.2v-19.8c0-0.1,0-0.2,0.1-0.2c0.1,0,0.1-0.1,0.2-0.1h1.1c0.1,0,0.2,0,0.2,0.1
			c0,0.1,0.1,0.1,0.1,0.2v19.8c0,0.1,0,0.1-0.1,0.2c0,0.1-0.1,0.1-0.2,0.1h-1.1C323.3,1293.6,323.2,1293.6,323.2,1293.5z"/>
	</g>
	<g class="st1">
		<path d="M362.5,1293.5c0-0.1,0-0.1,0-0.2l6.2-17.1c0.1-0.1,0.1-0.2,0.2-0.2c0,0,0.1,0,0.1,0c0,0,0.1,0.1,0.1,0.1l0.6,1.6
			c0,0.1,0.1,0.1,0.1,0.2s0,0.1-0.1,0.2l-3,8.4h5.9c0.2,0,0.3,0.1,0.4,0.2l0.4,1l0,0.1c0,0.1,0,0.1-0.1,0.2s-0.1,0.1-0.2,0.1h-6.9
			l-1.8,5.1c0,0.1-0.1,0.2-0.2,0.2c-0.1,0-0.1,0.1-0.2,0.1h-1.2C362.6,1293.6,362.5,1293.6,362.5,1293.5z M376.8,1293.3l-7-19.8
			l0-0.1c0-0.1,0-0.1,0.1-0.2c0,0,0.1-0.1,0.2-0.1h1.1c0.2,0,0.3,0.1,0.4,0.3l7.1,19.8l0,0.1c0,0.1,0,0.1-0.1,0.2s-0.1,0.1-0.2,0.1
			h-1.2C376.9,1293.6,376.8,1293.5,376.8,1293.3z"/>
	</g>
	<g class="st1">
		<path d="M412.9,1291.7c-1-1.2-1.5-3-1.5-5.2v-13.1c0-0.1,0-0.2,0.1-0.2c0.1,0,0.1-0.1,0.2-0.1h1.1c0.1,0,0.2,0,0.2,0.1
			c0,0.1,0.1,0.1,0.1,0.2v13.1c0,1.7,0.4,3,1.1,3.9c0.7,1,1.7,1.5,3.1,1.8c0.2,0,0.3,0.1,0.3,0.3v1c0,0.1,0,0.2-0.1,0.2
			c-0.1,0-0.1,0.1-0.2,0C415.4,1293.6,413.9,1292.9,412.9,1291.7z M419.4,1293.8c-0.1,0-0.1,0-0.2-0.1s-0.1-0.1-0.1-0.2v-1
			c0-0.2,0.1-0.3,0.3-0.3c1.3-0.2,2.4-0.8,3.1-1.7s1.1-2.3,1.1-4v-13.1c0-0.1,0-0.2,0.1-0.2c0.1,0,0.1-0.1,0.2-0.1h1.1
			c0.1,0,0.2,0,0.2,0.1c0,0.1,0.1,0.1,0.1,0.2v13.1c0,2.2-0.5,3.9-1.5,5.1C422.7,1292.9,421.3,1293.6,419.4,1293.8L419.4,1293.8z"/>
	</g>
	<g class="st1">
		<path d="M464.9,1293.3c-0.6-0.3-1.2-0.6-1.6-1.1c-0.1-0.1-0.1-0.1-0.1-0.2c0-0.1,0-0.1,0.1-0.2c0.1,0,0.1-0.1,0.1-0.1l0.7-0.6
			c0.1-0.1,0.1-0.1,0.2-0.1c0.1,0,0.2,0,0.2,0.1c0.3,0.3,0.7,0.5,1.1,0.7s0.9,0.3,1.4,0.4c0.2,0,0.3,0.1,0.3,0.3v1
			c0,0.1,0,0.2-0.1,0.2c-0.1,0.1-0.1,0.1-0.2,0.1C466.2,1293.8,465.5,1293.6,464.9,1293.3z M469.1,1293.8c-0.1,0-0.1,0-0.2-0.1
			c-0.1-0.1-0.1-0.1-0.1-0.2v-1c0-0.2,0.1-0.3,0.3-0.3c0.9-0.2,1.6-0.7,2.1-1.5c0.5-0.8,0.7-1.8,0.7-3.2v-14c0-0.1,0-0.2,0.1-0.2
			c0.1,0,0.1-0.1,0.2-0.1h1.1c0.1,0,0.2,0,0.2,0.1c0,0.1,0.1,0.1,0.1,0.2v14c0,1.8-0.4,3.3-1.2,4.3S470.6,1293.5,469.1,1293.8
			L469.1,1293.8z"/>
	</g>
	<g class="st1">
		<path d="M510.8,1293.3l-6.8-19.7l-0.1-0.2c0-0.1,0-0.1,0.1-0.2c0,0,0.1-0.1,0.2-0.1h1.1c0.1,0,0.2,0,0.3,0.1
			c0.1,0,0.1,0.1,0.1,0.2l6.7,19.6c0,0.1,0.1,0.2,0.1,0.3c0,0.2-0.1,0.3-0.3,0.3h-1C511,1293.6,510.9,1293.5,510.8,1293.3z
			 M512.6,1289c0,0,0-0.1,0-0.2c0-0.1,0-0.2,0.1-0.3l5-15c0-0.1,0.1-0.2,0.2-0.2c0.1,0,0.1-0.1,0.3-0.1h1.1c0.1,0,0.2,0,0.2,0.1
			c0,0.1,0,0.2,0,0.3l-5.8,17c0,0.1,0,0.1-0.1,0.2s-0.1,0.1-0.1,0.1c-0.1,0-0.1-0.1-0.2-0.2L512.6,1289z"/>
	</g>
	<g class="st1">
		<path d="M559.4,1293.5c-0.1-0.1-0.1-0.1-0.1-0.2v-19.8c0-0.1,0-0.2,0.1-0.2c0.1,0,0.1-0.1,0.2-0.1h1.1c0.1,0,0.2,0,0.2,0.1
			c0,0.1,0.1,0.1,0.1,0.2v19.8c0,0.1,0,0.1-0.1,0.2c0,0.1-0.1,0.1-0.2,0.1h-1.1C559.5,1293.6,559.5,1293.6,559.4,1293.5z"/>
	</g>
	<g class="st1">
		<path d="M600.7,1293.5c-0.1-0.1-0.1-0.1-0.1-0.2v-19.8c0-0.1,0-0.2,0.1-0.2c0.1,0,0.1-0.1,0.2-0.1h1.1c0.1,0,0.2,0,0.2,0.1
			c0,0.1,0.1,0.1,0.1,0.2v19.8c0,0.1,0,0.1-0.1,0.2c0,0.1-0.1,0.1-0.2,0.1h-1.1C600.8,1293.6,600.7,1293.6,600.7,1293.5z
			 M604,1274.7c-0.1-0.1-0.1-0.1-0.1-0.2v-1c0-0.1,0-0.2,0.1-0.2c0.1,0,0.1-0.1,0.2-0.1h8.4c0.1,0,0.2,0,0.2,0.1
			c0,0.1,0.1,0.1,0.1,0.2v1c0,0.1,0,0.1-0.1,0.2s-0.1,0.1-0.2,0.1h-8.4C604.1,1274.8,604,1274.7,604,1274.7z M604,1284
			c-0.1-0.1-0.1-0.1-0.1-0.2v-1c0-0.1,0-0.2,0.1-0.2c0.1,0,0.1-0.1,0.2-0.1h7c0.1,0,0.2,0,0.2,0.1c0,0.1,0.1,0.1,0.1,0.2v1
			c0,0.1,0,0.1-0.1,0.2c-0.1,0.1-0.1,0.1-0.2,0.1h-7C604.1,1284,604,1284,604,1284z M604,1293.5c-0.1-0.1-0.1-0.1-0.1-0.2v-1
			c0-0.1,0-0.2,0.1-0.2s0.1-0.1,0.2-0.1h8.4c0.1,0,0.2,0,0.2,0.1s0.1,0.1,0.1,0.2v1c0,0.1,0,0.1-0.1,0.2c0,0.1-0.1,0.1-0.2,0.1h-8.4
			C604.1,1293.6,604,1293.6,604,1293.5z"/>
	</g>
	<g class="st1">
		<path d="M647.9,1293.5c-0.1-0.1-0.1-0.1-0.1-0.2v-19.8c0-0.1,0-0.2,0.1-0.2c0.1,0,0.1-0.1,0.2-0.1h1.1c0.1,0,0.2,0,0.2,0.1
			c0,0.1,0.1,0.1,0.1,0.2v19.8c0,0.1,0,0.1-0.1,0.2c0,0.1-0.1,0.1-0.2,0.1h-1.1C648.1,1293.6,648,1293.6,647.9,1293.5z
			 M651.2,1284.3c-0.1-0.1-0.1-0.1-0.1-0.2v-1c0-0.1,0-0.2,0.1-0.2c0.1,0,0.1-0.1,0.2-0.1h3.5c1.5,0,2.6-0.3,3.4-1s1.2-1.7,1.2-3
			s-0.4-2.3-1.2-3s-1.9-1.1-3.4-1.1h-3.5c-0.1,0-0.2,0-0.2-0.1s-0.1-0.1-0.1-0.2v-1c0-0.1,0-0.2,0.1-0.2c0.1,0,0.1-0.1,0.2-0.1h3.5
			c1.3,0,2.4,0.2,3.3,0.7c0.9,0.5,1.6,1.1,2.1,2s0.8,1.9,0.8,3c0,1.1-0.2,2.1-0.7,2.9c-0.5,0.9-1.2,1.5-2.1,2
			c-1,0.5-2.1,0.7-3.5,0.7h-3.4C651.4,1284.4,651.3,1284.4,651.2,1284.3z M659.7,1293.5c0,0-0.1-0.1-0.1-0.2l-3.4-7.1
			c-0.1-0.1-0.1-0.2,0-0.3c0,0,0.1-0.1,0.2-0.1c0.1,0,0.1,0,0.2,0c0.4,0,0.7-0.1,0.9-0.2c0,0,0.1,0,0.1,0c0.1,0,0.2,0.1,0.2,0.2
			l3.7,7.4c0,0,0,0.1,0,0.2c0,0.1-0.1,0.2-0.2,0.2h-1.3C659.8,1293.6,659.8,1293.6,659.7,1293.5z"/>
	</g>
	<g class="st1">
		<path d="M175.5,1345.9c-0.1-0.1-0.1-0.1-0.1-0.2v-19.8c0-0.1,0-0.2,0.1-0.2c0.1,0,0.1-0.1,0.2-0.1h1.1c0.1,0,0.2,0,0.2,0.1
			c0,0.1,0.1,0.1,0.1,0.2v19.8c0,0.1,0,0.1-0.1,0.2c-0.1,0.1-0.1,0.1-0.2,0.1h-1.1C175.6,1346,175.6,1346,175.5,1345.9z
			 M178.8,1327.1c-0.1-0.1-0.1-0.1-0.1-0.2v-1c0-0.1,0-0.2,0.1-0.2c0.1,0,0.1-0.1,0.2-0.1h8.4c0.1,0,0.2,0,0.2,0.1
			c0,0.1,0.1,0.1,0.1,0.2v1c0,0.1,0,0.2-0.1,0.2c-0.1,0.1-0.1,0.1-0.2,0.1H179C178.9,1327.2,178.9,1327.2,178.8,1327.1z
			 M178.8,1336.6c-0.1-0.1-0.1-0.1-0.1-0.2v-1c0-0.1,0-0.2,0.1-0.2s0.1-0.1,0.2-0.1h7c0.1,0,0.2,0,0.2,0.1c0,0,0.1,0.1,0.1,0.2v1
			c0,0.1,0,0.1-0.1,0.2c-0.1,0.1-0.1,0.1-0.2,0.1h-7C178.9,1336.7,178.9,1336.7,178.8,1336.6z"/>
	</g>
	<g class="st1">
		<path d="M223.9,1344.1c-1-1.2-1.5-3-1.5-5.2v-9c0-0.1,0-0.2,0.1-0.2c0.1,0,0.1-0.1,0.2-0.1h1.1c0.1,0,0.2,0,0.2,0.1
			c0,0.1,0.1,0.1,0.1,0.2v9c0,1.7,0.4,3,1.1,3.9c0.7,1,1.7,1.5,3.1,1.8c0.2,0,0.3,0.1,0.3,0.3v1c0,0.1,0,0.2-0.1,0.2
			c-0.1,0-0.1,0.1-0.2,0C226.4,1346.1,225,1345.4,223.9,1344.1z M225.6,1326.3c-0.1-0.1-0.1-0.1-0.1-0.2v-1.6c0-0.1,0-0.2,0.1-0.2
			s0.1-0.1,0.2-0.1h1.1c0.1,0,0.2,0,0.2,0.1c0,0,0.1,0.1,0.1,0.2v1.6c0,0.1,0,0.2-0.1,0.2c-0.1,0.1-0.1,0.1-0.2,0.1h-1.1
			C225.7,1326.4,225.6,1326.4,225.6,1326.3z M230.4,1346.3c-0.1,0-0.1,0-0.2-0.1c-0.1,0-0.1-0.1-0.1-0.2v-1c0-0.2,0.1-0.3,0.3-0.3
			c1.3-0.2,2.4-0.8,3.1-1.7c0.7-1,1.1-2.3,1.1-4v-9c0-0.1,0-0.2,0.1-0.2c0.1,0,0.1-0.1,0.2-0.1h1.1c0.1,0,0.2,0,0.2,0.1
			c0,0.1,0.1,0.1,0.1,0.2v9c0,2.2-0.5,3.9-1.5,5.1C233.8,1345.3,232.3,1346.1,230.4,1346.3L230.4,1346.3z M231.6,1326.3
			c-0.1-0.1-0.1-0.1-0.1-0.2v-1.6c0-0.1,0-0.2,0.1-0.2s0.1-0.1,0.2-0.1h1.1c0.1,0,0.2,0,0.2,0.1c0,0,0.1,0.1,0.1,0.2v1.6
			c0,0.1,0,0.2-0.1,0.2c-0.1,0.1-0.1,0.1-0.2,0.1h-1.1C231.7,1326.4,231.6,1326.4,231.6,1326.3z"/>
	</g>
	<g class="st1">
		<path d="M282.2,1346c-0.1,0-0.2-0.1-0.2-0.2l-11.9-19.4c-0.1-0.1-0.1-0.2-0.1-0.4c0-0.2,0.1-0.3,0.3-0.3h1c0.1,0,0.2,0,0.3,0.1
			c0.1,0,0.1,0.1,0.2,0.2l12,19.5c0,0.1,0.1,0.1,0.1,0.2c0,0.1,0,0.1,0,0.2c0,0.1-0.1,0.2-0.3,0.2h-1
			C282.4,1346,282.3,1346,282.2,1346z M270,1345.9c-0.1-0.1-0.1-0.1-0.1-0.2v-16.2c0-0.2,0-0.2,0.2-0.2c0.1,0,0.2,0,0.2,0.2l1.2,1.9
			c0.1,0.1,0.1,0.2,0.1,0.4v14c0,0.1,0,0.1-0.1,0.2c-0.1,0.1-0.1,0.1-0.2,0.1h-1C270.1,1346,270,1346,270,1345.9z M282.2,1340.3
			c-0.1-0.1-0.1-0.2-0.1-0.4v-13.9c0-0.1,0-0.2,0.1-0.2c0.1,0,0.1-0.1,0.2-0.1h1c0.1,0,0.2,0,0.2,0.1c0,0.1,0.1,0.1,0.1,0.2v16.1
			c0,0.2-0.1,0.2-0.1,0.2c-0.1,0-0.1,0-0.2-0.2L282.2,1340.3z"/>
	</g>
	<g class="st1">
		<path d="M317.2,1345.9c-0.1-0.1-0.1-0.1-0.1-0.2v-19.8c0-0.1,0-0.2,0.1-0.2c0.1,0,0.1-0.1,0.2-0.1h1.1c0.1,0,0.2,0,0.2,0.1
			c0,0.1,0.1,0.1,0.1,0.2v19.8c0,0.1,0,0.1-0.1,0.2c0,0.1-0.1,0.1-0.2,0.1h-1.1C317.4,1346,317.3,1346,317.2,1345.9z M320.5,1327.1
			c-0.1-0.1-0.1-0.1-0.1-0.2v-1c0-0.1,0-0.2,0.1-0.2c0.1,0,0.1-0.1,0.2-0.1h8.4c0.1,0,0.2,0,0.2,0.1c0,0.1,0.1,0.1,0.1,0.2v1
			c0,0.1,0,0.2-0.1,0.2c0,0.1-0.1,0.1-0.2,0.1h-8.4C320.7,1327.2,320.6,1327.2,320.5,1327.1z M320.5,1336.6
			c-0.1-0.1-0.1-0.1-0.1-0.2v-1c0-0.1,0-0.2,0.1-0.2s0.1-0.1,0.2-0.1h7c0.1,0,0.2,0,0.2,0.1c0,0,0.1,0.1,0.1,0.2v1
			c0,0.1,0,0.1-0.1,0.2c-0.1,0.1-0.1,0.1-0.2,0.1h-7C320.7,1336.7,320.6,1336.7,320.5,1336.6z"/>
	</g>
	<g class="st1">
		<path d="M362.3,1327.1c-0.1-0.1-0.1-0.1-0.1-0.2v-1c0-0.1,0-0.2,0.1-0.2c0.1,0,0.1-0.1,0.2-0.1h13.8c0.1,0,0.2,0,0.2,0.1
			c0,0.1,0.1,0.1,0.1,0.2v1c0,0.1,0,0.2-0.1,0.2c-0.1,0.1-0.1,0.1-0.2,0.1h-13.8C362.4,1327.2,362.4,1327.2,362.3,1327.1z
			 M368.6,1345.9c-0.1-0.1-0.1-0.1-0.1-0.2V1329c0-0.1,0-0.2,0.1-0.2c0.1,0,0.1-0.1,0.2-0.1h1.1c0.1,0,0.2,0,0.2,0.1
			s0.1,0.1,0.1,0.2v16.7c0,0.1,0,0.1-0.1,0.2c0,0.1-0.1,0.1-0.2,0.1h-1.1C368.8,1346,368.7,1346,368.6,1345.9z"/>
	</g>
	<g class="st1">
		<path d="M413.4,1344.9c-0.9-0.8-1.6-1.8-2-3.1c-0.2-0.6-0.3-1.3-0.4-2.1c-0.1-0.9-0.1-2.1-0.1-3.8c0-1.7,0-2.9,0.1-3.8
			s0.2-1.6,0.4-2.1c0.4-1.3,1.1-2.4,2-3.1s2.1-1.2,3.4-1.4h0.1c0.1,0,0.1,0,0.2,0.1c0,0.1,0.1,0.1,0.1,0.2v1c0,0.2-0.1,0.3-0.3,0.3
			c-1.9,0.3-3.2,1.5-3.9,3.4c-0.2,0.5-0.3,1.1-0.4,1.9s-0.1,2-0.1,3.5c0,1.5,0,2.7,0.1,3.5s0.2,1.5,0.4,1.9c0.6,1.9,1.9,3.1,3.9,3.4
			c0.2,0,0.3,0.1,0.3,0.3v1c0,0.1,0,0.2-0.1,0.2c-0.1,0-0.1,0.1-0.2,0C415.5,1346.1,414.3,1345.6,413.4,1344.9z M419,1346.3
			c-0.1,0-0.1,0-0.2-0.1s-0.1-0.1-0.1-0.2v-1c0-0.2,0.1-0.3,0.3-0.3c1.9-0.3,3.2-1.5,3.9-3.4c0.2-0.5,0.3-1.1,0.4-2
			c0.1-0.8,0.1-2,0.1-3.5s0-2.7-0.1-3.5c-0.1-0.8-0.2-1.5-0.4-2c-0.7-1.9-2-3.1-3.9-3.4c-0.2,0-0.3-0.1-0.3-0.3v-1
			c0-0.1,0-0.2,0.1-0.2c0.1,0,0.1-0.1,0.2,0c1.4,0.2,2.5,0.6,3.4,1.4c0.9,0.8,1.6,1.8,2.1,3.1c0.2,0.6,0.3,1.3,0.4,2.2
			c0.1,0.9,0.2,2.1,0.2,3.8c0,1.6-0.1,2.9-0.2,3.8c-0.1,0.9-0.2,1.6-0.4,2.2c-0.4,1.3-1.1,2.4-2.1,3.1
			C421.6,1345.6,420.4,1346.1,419,1346.3L419,1346.3z"/>
	</g>
	<g class="st1">
		<path d="M460.5,1345.5c-1.1-0.4-1.9-0.9-2.5-1.5c-0.1-0.1-0.1-0.1-0.1-0.2s0-0.2,0.1-0.2l0.7-0.8c0.1-0.1,0.3-0.2,0.4,0
			c0.6,0.5,1.3,0.9,2.1,1.3c0.8,0.4,1.7,0.6,2.6,0.7c0.2,0,0.3,0.1,0.3,0.3v1c0,0.1,0,0.2-0.1,0.2c-0.1,0-0.1,0.1-0.2,0
			C462.7,1346.2,461.6,1345.9,460.5,1345.5z M466,1346.3c-0.1,0-0.1,0-0.2-0.1c-0.1,0-0.1-0.1-0.1-0.2v-1c0-0.2,0.1-0.3,0.3-0.3
			c1.3-0.1,2.3-0.6,3.1-1.3s1.1-1.7,1.1-2.8c0-1.1-0.4-2-1.1-2.7c-0.7-0.7-2-1.1-3.8-1.3l-1-0.1c-2-0.3-3.4-0.8-4.4-1.8
			c-1-0.9-1.5-2.1-1.5-3.6c0-1,0.2-2,0.6-2.8c0.4-0.8,1-1.5,1.8-2s1.7-0.8,2.8-0.9h0.1c0.1,0,0.1,0,0.2,0.1c0,0.1,0.1,0.1,0.1,0.2v1
			c0,0.2-0.1,0.3-0.3,0.3c-1.1,0.2-2,0.6-2.6,1.3c-0.6,0.7-0.9,1.6-0.9,2.6c0,1.1,0.4,2,1.1,2.6c0.8,0.7,2,1.1,3.7,1.3l1,0.1
			c2,0.3,3.5,0.8,4.4,1.8s1.4,2.1,1.4,3.7c0,1.1-0.2,2-0.7,2.8c-0.4,0.8-1.1,1.5-2,2C468.4,1345.8,467.3,1346.1,466,1346.3
			L466,1346.3z M466,1327c-0.2,0-0.3-0.2-0.3-0.3v-1c0-0.1,0-0.2,0.1-0.2s0.1-0.1,0.2,0c0.9,0.1,1.8,0.3,2.6,0.5s1.5,0.6,2.1,1.1
			c0.2,0.1,0.2,0.3,0.1,0.4l-0.6,0.9c-0.1,0.1-0.3,0.2-0.4,0.1C468.5,1327.6,467.3,1327.1,466,1327z"/>
	</g>
	<g class="st1">
		<path d="M506.2,1345.9c-0.1-0.1-0.1-0.1-0.1-0.2v-19.8c0-0.1,0-0.2,0.1-0.2c0.1,0,0.1-0.1,0.2-0.1h1.1c0.1,0,0.2,0,0.2,0.1
			c0,0.1,0.1,0.1,0.1,0.2v19.8c0,0.1,0,0.1-0.1,0.2c0,0.1-0.1,0.1-0.2,0.1h-1.1C506.3,1346,506.3,1346,506.2,1345.9z M509.5,1327.1
			c-0.1-0.1-0.1-0.1-0.1-0.2v-1c0-0.1,0-0.2,0.1-0.2c0.1,0,0.1-0.1,0.2-0.1h8.4c0.1,0,0.2,0,0.2,0.1c0,0.1,0.1,0.1,0.1,0.2v1
			c0,0.1,0,0.2-0.1,0.2c0,0.1-0.1,0.1-0.2,0.1h-8.4C509.6,1327.2,509.6,1327.2,509.5,1327.1z M509.5,1336.4
			c-0.1-0.1-0.1-0.1-0.1-0.2v-1c0-0.1,0-0.2,0.1-0.2s0.1-0.1,0.2-0.1h7c0.1,0,0.2,0,0.2,0.1c0,0,0.1,0.1,0.1,0.2v1
			c0,0.1,0,0.1-0.1,0.2c-0.1,0.1-0.1,0.1-0.2,0.1h-7C509.6,1336.5,509.6,1336.5,509.5,1336.4z M509.5,1345.9
			c-0.1-0.1-0.1-0.1-0.1-0.2v-1c0-0.1,0-0.2,0.1-0.2s0.1-0.1,0.2-0.1h8.4c0.1,0,0.2,0,0.2,0.1s0.1,0.1,0.1,0.2v1
			c0,0.1,0,0.1-0.1,0.2c0,0.1-0.1,0.1-0.2,0.1h-8.4C509.6,1346,509.6,1346,509.5,1345.9z"/>
	</g>
	<g class="st1">
		<path d="M555,1344.9c-0.9-0.8-1.6-1.8-2-3.1c-0.2-0.5-0.3-1.2-0.4-2.1s-0.1-2.2-0.1-3.9c0-1.7,0-3,0.1-3.9s0.2-1.6,0.4-2.1
			c0.4-1.3,1.1-2.4,2-3.1s2-1.2,3.3-1.4h0.1c0.1,0,0.1,0,0.2,0.1c0,0.1,0.1,0.1,0.1,0.2v1c0,0.2-0.1,0.3-0.3,0.3
			c-0.9,0.1-1.7,0.5-2.3,1c-0.6,0.6-1.1,1.3-1.4,2.3c-0.1,0.4-0.2,1.1-0.3,1.9c-0.1,0.8-0.1,2-0.1,3.6s0,2.8,0.1,3.6
			c0.1,0.8,0.2,1.4,0.3,1.9c0.3,1,0.8,1.7,1.4,2.3c0.6,0.6,1.4,0.9,2.3,1.1c0.2,0,0.3,0.1,0.3,0.3v1c0,0.1,0,0.2-0.1,0.2
			c-0.1,0-0.1,0.1-0.2,0C557,1346.1,555.9,1345.6,555,1344.9z M564.4,1330c-0.1,0-0.2-0.1-0.3-0.2c-0.9-1.6-2.1-2.5-3.6-2.8
			c-0.2,0-0.3-0.1-0.3-0.3v-1c0-0.1,0-0.2,0.1-0.2c0.1-0.1,0.1-0.1,0.2-0.1c1.1,0.2,2.1,0.5,3,1.2s1.5,1.5,2,2.5c0,0,0,0.1,0,0.2
			s0,0.1-0.1,0.2l-1,0.5C564.5,1330,564.5,1330,564.4,1330z M560.5,1346.3c-0.1,0-0.1,0-0.2-0.1c0-0.1-0.1-0.1-0.1-0.2v-1
			c0-0.2,0.1-0.3,0.3-0.3c1.6-0.3,2.8-1.2,3.6-2.8c0-0.1,0.1-0.1,0.2-0.2c0.1,0,0.1,0,0.2,0l1,0.5c0.1,0.1,0.2,0.2,0.1,0.4
			c-0.5,1.1-1.2,1.9-2,2.5S561.7,1346.1,560.5,1346.3L560.5,1346.3z"/>
	</g>
	<g class="st1">
		<path d="M600.7,1345.9c-0.1-0.1-0.1-0.1-0.1-0.2v-19.8c0-0.1,0-0.2,0.1-0.2c0.1,0,0.1-0.1,0.2-0.1h1.1c0.1,0,0.2,0,0.2,0.1
			c0,0.1,0.1,0.1,0.1,0.2v19.8c0,0.1,0,0.1-0.1,0.2c0,0.1-0.1,0.1-0.2,0.1h-1.1C600.8,1346,600.7,1346,600.7,1345.9z M603.9,1336.4
			c-0.1-0.1-0.1-0.1-0.1-0.2v-1c0-0.1,0-0.2,0.1-0.2c0.1,0,0.1-0.1,0.2-0.1h6.9c0.1,0,0.2,0,0.2,0.1s0.1,0.1,0.1,0.2v1
			c0,0.1,0,0.1-0.1,0.2c0,0.1-0.1,0.1-0.2,0.1h-6.9C604,1336.5,603.9,1336.5,603.9,1336.4z M612.8,1345.9c-0.1-0.1-0.1-0.1-0.1-0.2
			v-19.8c0-0.1,0-0.2,0.1-0.2c0.1,0,0.1-0.1,0.2-0.1h1.1c0.1,0,0.2,0,0.2,0.1c0,0.1,0.1,0.1,0.1,0.2v19.8c0,0.1,0,0.1-0.1,0.2
			c-0.1,0.1-0.1,0.1-0.2,0.1H613C613,1346,612.9,1346,612.8,1345.9z"/>
	</g>
	<g class="st1">
		<path d="M649.5,1345.5c-1.1-0.4-1.9-0.9-2.5-1.5c-0.1-0.1-0.1-0.1-0.1-0.2s0-0.2,0.1-0.2l0.7-0.8c0.1-0.1,0.3-0.2,0.4,0
			c0.6,0.5,1.3,0.9,2.1,1.3c0.8,0.4,1.7,0.6,2.6,0.7c0.2,0,0.3,0.1,0.3,0.3v1c0,0.1,0,0.2-0.1,0.2c-0.1,0-0.1,0.1-0.2,0
			C651.6,1346.2,650.6,1345.9,649.5,1345.5z M655,1346.3c-0.1,0-0.1,0-0.2-0.1c-0.1,0-0.1-0.1-0.1-0.2v-1c0-0.2,0.1-0.3,0.3-0.3
			c1.3-0.1,2.3-0.6,3.1-1.3s1.1-1.7,1.1-2.8c0-1.1-0.4-2-1.1-2.7c-0.7-0.7-2-1.1-3.8-1.3l-1-0.1c-2-0.3-3.4-0.8-4.4-1.8
			c-1-0.9-1.5-2.1-1.5-3.6c0-1,0.2-2,0.6-2.8c0.4-0.8,1-1.5,1.8-2s1.7-0.8,2.8-0.9h0.1c0.1,0,0.1,0,0.2,0.1c0,0.1,0.1,0.1,0.1,0.2v1
			c0,0.2-0.1,0.3-0.3,0.3c-1.1,0.2-2,0.6-2.6,1.3c-0.6,0.7-0.9,1.6-0.9,2.6c0,1.1,0.4,2,1.1,2.6c0.8,0.7,2,1.1,3.7,1.3l1,0.1
			c2,0.3,3.5,0.8,4.4,1.8s1.4,2.1,1.4,3.7c0,1.1-0.2,2-0.7,2.8c-0.4,0.8-1.1,1.5-2,2C657.4,1345.8,656.3,1346.1,655,1346.3
			L655,1346.3z M655,1327c-0.2,0-0.3-0.2-0.3-0.3v-1c0-0.1,0-0.2,0.1-0.2s0.1-0.1,0.2,0c0.9,0.1,1.8,0.3,2.6,0.5s1.5,0.6,2.1,1.1
			c0.2,0.1,0.2,0.3,0.1,0.4l-0.6,0.9c-0.1,0.1-0.3,0.2-0.4,0.1C657.5,1327.6,656.2,1327.1,655,1327z"/>
	</g>
	<g class="st1">
		<path d="M177.1,1397.9c-1-0.4-1.9-0.9-2.5-1.5c-0.1-0.1-0.1-0.1-0.1-0.2c0-0.1,0-0.2,0.1-0.2l0.7-0.8c0.1-0.1,0.3-0.2,0.4,0
			c0.6,0.5,1.3,0.9,2.1,1.3s1.7,0.6,2.6,0.7c0.2,0,0.3,0.1,0.3,0.3v1c0,0.1,0,0.2-0.1,0.2c-0.1,0-0.1,0.1-0.2,0
			C179.2,1398.6,178.1,1398.3,177.1,1397.9z M182.5,1398.7c-0.1,0-0.1,0-0.2-0.1s-0.1-0.1-0.1-0.2v-1c0-0.2,0.1-0.3,0.3-0.3
			c1.3-0.1,2.4-0.6,3.1-1.3s1.1-1.7,1.1-2.8c0-1.1-0.4-2-1.1-2.7c-0.7-0.7-2-1.1-3.8-1.3l-1-0.1c-2-0.3-3.4-0.8-4.4-1.8
			c-1-0.9-1.5-2.1-1.5-3.6c0-1,0.2-2,0.6-2.8c0.4-0.8,1-1.5,1.8-2c0.8-0.5,1.7-0.8,2.8-0.9h0.1c0.1,0,0.1,0,0.2,0.1
			c0,0.1,0.1,0.1,0.1,0.2v1c0,0.2-0.1,0.3-0.3,0.3c-1.1,0.2-2,0.6-2.6,1.3c-0.6,0.7-0.9,1.6-0.9,2.6c0,1.1,0.4,2,1.1,2.6
			c0.8,0.7,2,1.1,3.7,1.3l1,0.1c2,0.3,3.5,0.8,4.4,1.8s1.4,2.1,1.4,3.7c0,1.1-0.2,2-0.7,2.8c-0.5,0.8-1.1,1.5-2,2
			C184.9,1398.3,183.8,1398.6,182.5,1398.7L182.5,1398.7z M182.5,1379.4c-0.2,0-0.3-0.2-0.3-0.3v-1c0-0.1,0-0.2,0.1-0.2
			s0.1-0.1,0.2,0c0.9,0.1,1.8,0.3,2.6,0.5c0.8,0.3,1.5,0.6,2.1,1.1c0.2,0.1,0.2,0.3,0.1,0.4l-0.6,0.9c-0.1,0.1-0.3,0.2-0.4,0.1
			C185.1,1380,183.8,1379.6,182.5,1379.4z"/>
	</g>
	<g class="st1">
		<path d="M228.7,1398.4c-0.1-0.1-0.1-0.1-0.1-0.2v-19.8c0-0.1,0-0.2,0.1-0.2c0.1,0,0.1-0.1,0.2-0.1h1.1c0.1,0,0.2,0,0.2,0.1
			c0,0.1,0.1,0.1,0.1,0.2v19.8c0,0.1,0,0.1-0.1,0.2c-0.1,0.1-0.1,0.1-0.2,0.1h-1.1C228.8,1398.5,228.7,1398.4,228.7,1398.4z"/>
	</g>
	<g class="st1">
		<path d="M270,1398.4c-0.1-0.1-0.1-0.1-0.1-0.2v-19.8c0-0.1,0-0.2,0.1-0.2c0.1,0,0.1-0.1,0.2-0.1h1.1c0.1,0,0.2,0,0.2,0.1
			c0,0.1,0.1,0.1,0.1,0.2v19.8c0,0.1,0,0.1-0.1,0.2c-0.1,0.1-0.1,0.1-0.2,0.1h-1.1C270.1,1398.5,270,1398.4,270,1398.4z
			 M273.3,1379.6c-0.1-0.1-0.1-0.1-0.1-0.2v-1c0-0.1,0-0.2,0.1-0.2c0.1,0,0.1-0.1,0.2-0.1h8.4c0.1,0,0.2,0,0.2,0.1
			c0,0.1,0.1,0.1,0.1,0.2v1c0,0.1,0,0.2-0.1,0.2c-0.1,0.1-0.1,0.1-0.2,0.1h-8.4C273.4,1379.7,273.3,1379.6,273.3,1379.6z
			 M273.3,1388.8c-0.1-0.1-0.1-0.1-0.1-0.2v-1c0-0.1,0-0.2,0.1-0.2s0.1-0.1,0.2-0.1h7c0.1,0,0.2,0,0.2,0.1c0,0,0.1,0.1,0.1,0.2v1
			c0,0.1,0,0.1-0.1,0.2c-0.1,0.1-0.1,0.1-0.2,0.1h-7C273.4,1388.9,273.3,1388.9,273.3,1388.8z M273.3,1398.4
			c-0.1-0.1-0.1-0.1-0.1-0.2v-1c0-0.1,0-0.2,0.1-0.2s0.1-0.1,0.2-0.1h8.4c0.1,0,0.2,0,0.2,0.1c0,0,0.1,0.1,0.1,0.2v1
			c0,0.1,0,0.1-0.1,0.2c-0.1,0.1-0.1,0.1-0.2,0.1h-8.4C273.4,1398.5,273.3,1398.4,273.3,1398.4z"/>
	</g>
	<g class="st1">
		<path d="M317.2,1398.4c-0.1-0.1-0.1-0.1-0.1-0.2v-19.8c0-0.1,0-0.2,0.1-0.2c0.1,0,0.1-0.1,0.2-0.1h1.1c0.1,0,0.2,0,0.2,0.1
			c0,0.1,0.1,0.1,0.1,0.2v19.8c0,0.1,0,0.1-0.1,0.2c0,0.1-0.1,0.1-0.2,0.1h-1.1C317.4,1398.5,317.3,1398.4,317.2,1398.4z
			 M328.2,1386.6c-0.2-0.1-0.3-0.1-0.5-0.2c-0.2-0.1-0.3-0.2-0.2-0.5c0.7-0.9,1-1.8,1-2.7c0-0.7-0.2-1.3-0.5-1.8s-0.8-1-1.5-1.3
			c-0.6-0.3-1.4-0.5-2.3-0.5h-3.5c-0.1,0-0.2,0-0.2-0.1c-0.1-0.1-0.1-0.1-0.1-0.2v-1c0-0.1,0-0.2,0.1-0.2c0.1,0,0.1-0.1,0.2-0.1h3.5
			c1.3,0,2.4,0.2,3.2,0.7c0.9,0.4,1.5,1,2,1.8c0.4,0.8,0.7,1.7,0.7,2.7c0,0.6-0.1,1.3-0.3,1.9c-0.2,0.6-0.5,1.1-0.9,1.6
			c-0.1,0.1-0.2,0.1-0.4,0.1C328.5,1386.7,328.4,1386.6,328.2,1386.6z M320.5,1398.4c-0.1-0.1-0.1-0.1-0.1-0.2v-1
			c0-0.1,0-0.2,0.1-0.2c0.1,0,0.1-0.1,0.2-0.1h3.7c1.4,0,2.5-0.4,3.3-1.1s1.1-1.7,1.1-3c0-1.2-0.4-2.2-1.2-2.9
			c-0.8-0.7-1.9-1.1-3.3-1.1h-3.7c-0.1,0-0.2,0-0.2-0.1c-0.1-0.1-0.1-0.1-0.1-0.2v-1c0-0.1,0-0.2,0.1-0.2s0.1-0.1,0.2-0.1h3.5
			c1.3,0,2.5,0.2,3.4,0.7c0.9,0.5,1.7,1.1,2.1,1.9c0.5,0.8,0.7,1.8,0.7,3c0,1.2-0.2,2.2-0.7,3c-0.5,0.8-1.2,1.5-2.1,1.9
			c-0.9,0.4-2.1,0.7-3.4,0.7h-3.5C320.7,1398.5,320.6,1398.4,320.5,1398.4z"/>
	</g>
	<g class="st1">
		<path d="M364.5,1398.4c-0.1-0.1-0.1-0.1-0.1-0.2v-19.8c0-0.1,0-0.2,0.1-0.2c0.1,0,0.1-0.1,0.2-0.1h1.1c0.1,0,0.2,0,0.2,0.1
			c0,0.1,0.1,0.1,0.1,0.2v19.8c0,0.1,0,0.1-0.1,0.2c0,0.1-0.1,0.1-0.2,0.1h-1.1C364.6,1398.5,364.5,1398.4,364.5,1398.4z
			 M367.8,1379.6c-0.1-0.1-0.1-0.1-0.1-0.2v-1c0-0.1,0-0.2,0.1-0.2c0.1,0,0.1-0.1,0.2-0.1h8.4c0.1,0,0.2,0,0.2,0.1
			c0,0.1,0.1,0.1,0.1,0.2v1c0,0.1,0,0.2-0.1,0.2c0,0.1-0.1,0.1-0.2,0.1H368C367.9,1379.7,367.8,1379.6,367.8,1379.6z M367.8,1388.8
			c-0.1-0.1-0.1-0.1-0.1-0.2v-1c0-0.1,0-0.2,0.1-0.2s0.1-0.1,0.2-0.1h7c0.1,0,0.2,0,0.2,0.1c0,0,0.1,0.1,0.1,0.2v1
			c0,0.1,0,0.1-0.1,0.2c-0.1,0.1-0.1,0.1-0.2,0.1h-7C367.9,1388.9,367.8,1388.9,367.8,1388.8z M367.8,1398.4
			c-0.1-0.1-0.1-0.1-0.1-0.2v-1c0-0.1,0-0.2,0.1-0.2s0.1-0.1,0.2-0.1h8.4c0.1,0,0.2,0,0.2,0.1s0.1,0.1,0.1,0.2v1
			c0,0.1,0,0.1-0.1,0.2c0,0.1-0.1,0.1-0.2,0.1H368C367.9,1398.5,367.8,1398.4,367.8,1398.4z"/>
	</g>
	<g class="st1">
		<path d="M423.9,1398.4c-0.1,0-0.2-0.1-0.2-0.2l-11.9-19.4c-0.1-0.1-0.1-0.2-0.1-0.4c0-0.2,0.1-0.3,0.3-0.3h1c0.1,0,0.2,0,0.3,0.1
			c0.1,0,0.1,0.1,0.2,0.2l12,19.5c0,0.1,0.1,0.1,0.1,0.2c0,0.1,0,0.1,0,0.2c0,0.1-0.1,0.2-0.3,0.2h-1
			C424.1,1398.5,424,1398.4,423.9,1398.4z M411.7,1398.4c-0.1-0.1-0.1-0.1-0.1-0.2V1382c0-0.2,0-0.2,0.1-0.2c0.1,0,0.2,0,0.2,0.2
			l1.2,1.9c0.1,0.1,0.1,0.2,0.1,0.4v14c0,0.1,0,0.1-0.1,0.2c-0.1,0.1-0.1,0.1-0.2,0.1h-1C411.8,1398.5,411.8,1398.4,411.7,1398.4z
			 M424,1392.7c-0.1-0.1-0.1-0.2-0.1-0.4v-13.9c0-0.1,0-0.2,0.1-0.2c0.1,0,0.1-0.1,0.2-0.1h1c0.1,0,0.2,0,0.2,0.1
			c0,0.1,0.1,0.1,0.1,0.2v16.1c0,0.2,0,0.2-0.2,0.2c-0.1,0-0.1,0-0.2-0.2L424,1392.7z"/>
	</g>
	<g class="st1">
		<path d="M459,1398.4c-0.1-0.1-0.1-0.1-0.1-0.2v-19.8c0-0.1,0-0.2,0.1-0.2c0.1,0,0.1-0.1,0.2-0.1h1.1c0.1,0,0.2,0,0.2,0.1
			c0,0.1,0.1,0.1,0.1,0.2v19.8c0,0.1,0,0.1-0.1,0.2c0,0.1-0.1,0.1-0.2,0.1h-1.1C459.1,1398.5,459,1398.4,459,1398.4z M462.3,1398.4
			c-0.1-0.1-0.1-0.1-0.1-0.2v-1c0-0.1,0-0.2,0.1-0.2s0.1-0.1,0.2-0.1h8.4c0.1,0,0.2,0,0.2,0.1s0.1,0.1,0.1,0.2v1
			c0,0.1,0,0.1-0.1,0.2c0,0.1-0.1,0.1-0.2,0.1h-8.4C462.4,1398.5,462.3,1398.4,462.3,1398.4z"/>
	</g>
	<g class="st1">
		<path d="M504.2,1398.4c0-0.1,0-0.1,0-0.2l6.2-17.1c0.1-0.1,0.1-0.2,0.2-0.2c0,0,0.1,0,0.1,0s0.1,0.1,0.1,0.1l0.6,1.6
			c0,0.1,0.1,0.1,0.1,0.2c0,0.1,0,0.2-0.1,0.2l-3,8.4h5.9c0.2,0,0.3,0.1,0.4,0.2l0.4,1l0,0.1c0,0.1,0,0.1-0.1,0.2s-0.1,0.1-0.2,0.1
			h-6.9l-1.8,5.1c0,0.1-0.1,0.2-0.2,0.2c-0.1,0-0.1,0.1-0.2,0.1h-1.2C504.3,1398.5,504.3,1398.4,504.2,1398.4z M518.5,1398.2
			l-7-19.8l0-0.1c0-0.1,0-0.1,0.1-0.2c0,0,0.1-0.1,0.2-0.1h1.1c0.2,0,0.3,0.1,0.4,0.3l7.1,19.8l0,0.1c0,0.1,0,0.1-0.1,0.2
			s-0.1,0.1-0.2,0.1h-1.2C518.7,1398.5,518.6,1398.4,518.5,1398.2z"/>
	</g>
	<g class="st1">
		<path d="M555,1397.3c-0.9-0.8-1.6-1.8-2-3.1c-0.2-0.5-0.3-1.2-0.4-2.1s-0.1-2.2-0.1-3.9c0-1.7,0-3,0.1-3.9s0.2-1.6,0.4-2.1
			c0.4-1.3,1.1-2.4,2-3.1s2-1.2,3.3-1.4h0.1c0.1,0,0.1,0,0.2,0.1c0,0.1,0.1,0.1,0.1,0.2v1c0,0.2-0.1,0.3-0.3,0.3
			c-0.9,0.1-1.7,0.5-2.3,1c-0.6,0.6-1.1,1.3-1.4,2.3c-0.1,0.4-0.2,1.1-0.3,1.9c-0.1,0.8-0.1,2-0.1,3.6s0,2.8,0.1,3.6
			c0.1,0.8,0.2,1.4,0.3,1.9c0.3,1,0.8,1.7,1.4,2.3c0.6,0.6,1.4,0.9,2.3,1.1c0.2,0,0.3,0.1,0.3,0.3v1c0,0.1,0,0.2-0.1,0.2
			c-0.1,0-0.1,0.1-0.2,0C557,1398.5,555.9,1398.1,555,1397.3z M564.4,1382.4c-0.1,0-0.2-0.1-0.3-0.2c-0.9-1.6-2.1-2.5-3.6-2.8
			c-0.2,0-0.3-0.1-0.3-0.3v-1c0-0.1,0-0.2,0.1-0.2c0.1-0.1,0.1-0.1,0.2-0.1c1.1,0.2,2.1,0.5,3,1.2s1.5,1.5,2,2.5c0,0,0,0.1,0,0.2
			s0,0.1-0.1,0.2l-1,0.5C564.5,1382.4,564.5,1382.4,564.4,1382.4z M560.5,1398.7c-0.1,0-0.1,0-0.2-0.1c0-0.1-0.1-0.1-0.1-0.2v-1
			c0-0.2,0.1-0.3,0.3-0.3c1.6-0.3,2.8-1.2,3.6-2.8c0-0.1,0.1-0.1,0.2-0.2c0.1,0,0.1,0,0.2,0l1,0.5c0.1,0.1,0.2,0.2,0.1,0.4
			c-0.5,1.1-1.2,1.9-2,2.5S561.7,1398.5,560.5,1398.7L560.5,1398.7z"/>
	</g>
	<g class="st1">
		<path d="M600.7,1398.4c-0.1-0.1-0.1-0.1-0.1-0.2v-19.8c0-0.1,0-0.2,0.1-0.2c0.1,0,0.1-0.1,0.2-0.1h1.1c0.1,0,0.2,0,0.2,0.1
			c0,0.1,0.1,0.1,0.1,0.2v19.8c0,0.1,0,0.1-0.1,0.2c0,0.1-0.1,0.1-0.2,0.1h-1.1C600.8,1398.5,600.7,1398.4,600.7,1398.4z
			 M603.9,1388.8c-0.1-0.1-0.1-0.1-0.1-0.2v-1c0-0.1,0-0.2,0.1-0.2c0.1,0,0.1-0.1,0.2-0.1h6.9c0.1,0,0.2,0,0.2,0.1s0.1,0.1,0.1,0.2
			v1c0,0.1,0,0.1-0.1,0.2c0,0.1-0.1,0.1-0.2,0.1h-6.9C604,1388.9,603.9,1388.9,603.9,1388.8z M612.8,1398.4
			c-0.1-0.1-0.1-0.1-0.1-0.2v-19.8c0-0.1,0-0.2,0.1-0.2c0.1,0,0.1-0.1,0.2-0.1h1.1c0.1,0,0.2,0,0.2,0.1c0,0.1,0.1,0.1,0.1,0.2v19.8
			c0,0.1,0,0.1-0.1,0.2c-0.1,0.1-0.1,0.1-0.2,0.1H613C613,1398.5,612.9,1398.4,612.8,1398.4z"/>
	</g>
	<g class="st1">
		<path d="M645.8,1379.6c-0.1-0.1-0.1-0.1-0.1-0.2v-1c0-0.1,0-0.2,0.1-0.2c0.1,0,0.1-0.1,0.2-0.1h13.8c0.1,0,0.2,0,0.2,0.1
			c0,0.1,0.1,0.1,0.1,0.2v1c0,0.1,0,0.2-0.1,0.2c-0.1,0.1-0.1,0.1-0.2,0.1H646C645.9,1379.7,645.8,1379.6,645.8,1379.6z
			 M652.1,1398.4c-0.1-0.1-0.1-0.1-0.1-0.2v-16.7c0-0.1,0-0.2,0.1-0.2c0.1,0,0.1-0.1,0.2-0.1h1.1c0.1,0,0.2,0,0.2,0.1
			s0.1,0.1,0.1,0.2v16.7c0,0.1,0,0.1-0.1,0.2c0,0.1-0.1,0.1-0.2,0.1h-1.1C652.2,1398.5,652.2,1398.4,652.1,1398.4z"/>
	</g>
	<g class="st1">
		<path d="M173.5,1450.8c0-0.1,0-0.1,0-0.2l6.2-17.1c0.1-0.1,0.1-0.2,0.2-0.2c0,0,0.1,0,0.1,0c0,0,0.1,0.1,0.1,0.1l0.6,1.6
			c0,0.1,0.1,0.1,0.1,0.2c0,0.1,0,0.2-0.1,0.2l-3,8.4h5.9c0.2,0,0.3,0.1,0.4,0.2l0.4,1l0,0.1c0,0.1,0,0.1-0.1,0.2
			c-0.1,0-0.1,0.1-0.2,0.1h-6.9l-1.8,5.1c0,0.1-0.1,0.2-0.2,0.2c-0.1,0-0.1,0.1-0.2,0.1h-1.2
			C173.6,1450.9,173.6,1450.9,173.5,1450.8z M187.8,1450.7l-7-19.8l0-0.1c0-0.1,0-0.1,0.1-0.2s0.1-0.1,0.2-0.1h1.1
			c0.2,0,0.3,0.1,0.4,0.3l7.1,19.8l0,0.1c0,0.1,0,0.1-0.1,0.2s-0.1,0.1-0.2,0.1h-1.2C188,1450.9,187.9,1450.8,187.8,1450.7z"/>
	</g>
	<g class="st1">
		<path d="M234.9,1450.8c-0.1,0-0.2-0.1-0.2-0.2l-11.9-19.4c-0.1-0.1-0.1-0.2-0.1-0.4c0-0.2,0.1-0.3,0.3-0.3h1c0.1,0,0.2,0,0.3,0.1
			c0.1,0,0.1,0.1,0.2,0.2l12,19.5c0,0.1,0.1,0.1,0.1,0.2c0,0.1,0,0.1,0,0.2c0,0.1-0.1,0.2-0.3,0.2h-1
			C235.1,1450.9,235,1450.9,234.9,1450.8z M222.7,1450.8c-0.1-0.1-0.1-0.1-0.1-0.2v-16.2c0-0.2,0-0.2,0.2-0.2c0.1,0,0.2,0,0.2,0.2
			l1.2,1.9c0.1,0.1,0.1,0.2,0.1,0.4v14c0,0.1,0,0.1-0.1,0.2c-0.1,0.1-0.1,0.1-0.2,0.1h-1C222.9,1450.9,222.8,1450.9,222.7,1450.8z
			 M235,1445.1c-0.1-0.1-0.1-0.2-0.1-0.4v-13.9c0-0.1,0-0.2,0.1-0.2c0.1,0,0.1-0.1,0.2-0.1h1c0.1,0,0.2,0,0.2,0.1
			c0,0.1,0.1,0.1,0.1,0.2v16.1c0,0.2-0.1,0.2-0.1,0.2c-0.1,0-0.1,0-0.2-0.2L235,1445.1z"/>
	</g>
	<g class="st1">
		<path d="M270,1450.8c-0.1-0.1-0.1-0.1-0.1-0.2v-19.8c0-0.1,0-0.2,0.1-0.2c0.1,0,0.1-0.1,0.2-0.1h1.1c0.1,0,0.2,0,0.2,0.1
			c0,0.1,0.1,0.1,0.1,0.2v19.8c0,0.1,0,0.1-0.1,0.2c-0.1,0.1-0.1,0.1-0.2,0.1h-1.1C270.1,1450.9,270,1450.9,270,1450.8z M273.3,1432
			c-0.1-0.1-0.1-0.1-0.1-0.2v-1c0-0.1,0-0.2,0.1-0.2c0.1,0,0.1-0.1,0.2-0.1h8.4c0.1,0,0.2,0,0.2,0.1c0,0.1,0.1,0.1,0.1,0.2v1
			c0,0.1,0,0.2-0.1,0.2c-0.1,0.1-0.1,0.1-0.2,0.1h-8.4C273.4,1432.1,273.3,1432.1,273.3,1432z M273.3,1441.3
			c-0.1-0.1-0.1-0.1-0.1-0.2v-1c0-0.1,0-0.2,0.1-0.2s0.1-0.1,0.2-0.1h7c0.1,0,0.2,0,0.2,0.1c0,0,0.1,0.1,0.1,0.2v1
			c0,0.1,0,0.1-0.1,0.2c-0.1,0.1-0.1,0.1-0.2,0.1h-7C273.4,1441.4,273.3,1441.3,273.3,1441.3z M273.3,1450.8
			c-0.1-0.1-0.1-0.1-0.1-0.2v-1c0-0.1,0-0.2,0.1-0.2s0.1-0.1,0.2-0.1h8.4c0.1,0,0.2,0,0.2,0.1c0,0,0.1,0.1,0.1,0.2v1
			c0,0.1,0,0.1-0.1,0.2c-0.1,0.1-0.1,0.1-0.2,0.1h-8.4C273.4,1450.9,273.3,1450.9,273.3,1450.8z"/>
	</g>
	<g class="st1">
		<path d="M318.4,1449c-1-1.2-1.5-3-1.5-5.2v-13c0-0.1,0-0.2,0.1-0.2c0.1,0,0.1-0.1,0.2-0.1h1.1c0.1,0,0.2,0,0.2,0.1
			c0,0.1,0.1,0.1,0.1,0.2v13c0,1.7,0.4,3,1.1,3.9c0.7,1,1.7,1.5,3.1,1.8c0.2,0,0.3,0.1,0.3,0.3v1c0,0.1,0,0.2-0.1,0.2
			c-0.1,0-0.1,0.1-0.2,0C320.9,1451,319.4,1450.3,318.4,1449z M324.9,1451.1c-0.1,0-0.1,0-0.2-0.1s-0.1-0.1-0.1-0.2v-1
			c0-0.2,0.1-0.3,0.3-0.3c1.3-0.2,2.4-0.8,3.1-1.7s1.1-2.3,1.1-4v-13c0-0.1,0-0.2,0.1-0.2c0.1,0,0.1-0.1,0.2-0.1h1.1
			c0.1,0,0.2,0,0.2,0.1c0,0.1,0.1,0.1,0.1,0.2v13c0,2.2-0.5,3.9-1.5,5.1C328.3,1450.2,326.8,1450.9,324.9,1451.1L324.9,1451.1z"/>
	</g>
	<g class="st1">
		<path d="M376.7,1450.8c-0.1,0-0.2-0.1-0.2-0.2l-11.9-19.4c-0.1-0.1-0.1-0.2-0.1-0.4c0-0.2,0.1-0.3,0.3-0.3h1c0.1,0,0.2,0,0.3,0.1
			c0.1,0,0.1,0.1,0.2,0.2l12,19.5c0,0.1,0.1,0.1,0.1,0.2c0,0.1,0,0.1,0,0.2c0,0.1-0.1,0.2-0.3,0.2h-1
			C376.8,1450.9,376.8,1450.9,376.7,1450.8z M364.5,1450.8c-0.1-0.1-0.1-0.1-0.1-0.2v-16.2c0-0.2,0-0.2,0.1-0.2c0.1,0,0.2,0,0.2,0.2
			l1.2,1.9c0.1,0.1,0.1,0.2,0.1,0.4v14c0,0.1,0,0.1-0.1,0.2c-0.1,0.1-0.1,0.1-0.2,0.1h-1C364.6,1450.9,364.5,1450.9,364.5,1450.8z
			 M376.7,1445.1c-0.1-0.1-0.1-0.2-0.1-0.4v-13.9c0-0.1,0-0.2,0.1-0.2c0.1,0,0.1-0.1,0.2-0.1h1c0.1,0,0.2,0,0.2,0.1
			c0,0.1,0.1,0.1,0.1,0.2v16.1c0,0.2,0,0.2-0.2,0.2c-0.1,0-0.1,0-0.2-0.2L376.7,1445.1z"/>
	</g>
	<g class="st1">
		<path d="M411.7,1450.8c-0.1-0.1-0.1-0.1-0.1-0.2v-15.5c0-0.1,0-0.1,0-0.2c0,0,0.1-0.1,0.1-0.1c0.1,0,0.2,0.1,0.2,0.2l1.2,2.6
			c0.1,0.1,0.1,0.3,0.1,0.4v12.5c0,0.1,0,0.1-0.1,0.2c-0.1,0.1-0.1,0.1-0.2,0.1h-1C411.8,1450.9,411.8,1450.9,411.7,1450.8z
			 M419.5,1447.8c-0.1,0-0.1-0.1-0.2-0.3l-7.6-16.7c0,0,0-0.1,0-0.2c0-0.1,0.1-0.2,0.2-0.2h1.1c0.2,0,0.3,0.1,0.4,0.3l7.4,16.5
			c0,0,0,0.1,0,0.2c0,0,0,0.1,0,0.1c0,0.1,0,0.1-0.1,0.1l0,0c-0.1,0.1-0.2,0.2-0.3,0.2h-0.7C419.7,1447.9,419.6,1447.9,419.5,1447.8
			z M427.1,1450.8c-0.1-0.1-0.1-0.1-0.1-0.2v-16.1h-0.1l-4.9,10.8c0,0.1-0.1,0.2-0.2,0.2c-0.1,0-0.2-0.1-0.2-0.2l-0.5-1.2
			c0-0.1-0.1-0.1-0.1-0.2s0-0.2,0.1-0.2l5.7-12.8c0.1-0.2,0.2-0.3,0.5-0.3h1.1c0.1,0,0.2,0,0.2,0.1c0,0.1,0.1,0.1,0.1,0.2v19.8
			c0,0.1,0,0.1-0.1,0.2c0,0.1-0.1,0.1-0.2,0.1h-1C427.2,1450.9,427.1,1450.9,427.1,1450.8z"/>
	</g>
	<g class="st1">
		<path d="M459,1450.8c-0.1-0.1-0.1-0.1-0.1-0.2v-19.8c0-0.1,0-0.2,0.1-0.2c0.1,0,0.1-0.1,0.2-0.1h1.1c0.1,0,0.2,0,0.2,0.1
			c0,0.1,0.1,0.1,0.1,0.2v19.8c0,0.1,0,0.1-0.1,0.2c0,0.1-0.1,0.1-0.2,0.1h-1.1C459.1,1450.9,459,1450.9,459,1450.8z M462.1,1441.3
			c-0.1-0.1-0.1-0.1-0.1-0.2v-1c0-0.1,0-0.2,0.1-0.2c0.1,0,0.1-0.1,0.2-0.1h6.9c0.1,0,0.2,0,0.2,0.1s0.1,0.1,0.1,0.2v1
			c0,0.1,0,0.1-0.1,0.2c0,0.1-0.1,0.1-0.2,0.1h-6.9C462.3,1441.4,462.2,1441.3,462.1,1441.3z M471.1,1450.8
			c-0.1-0.1-0.1-0.1-0.1-0.2v-19.8c0-0.1,0-0.2,0.1-0.2c0.1,0,0.1-0.1,0.2-0.1h1.1c0.1,0,0.2,0,0.2,0.1c0,0.1,0.1,0.1,0.1,0.2v19.8
			c0,0.1,0,0.1-0.1,0.2c-0.1,0.1-0.1,0.1-0.2,0.1h-1.1C471.2,1450.9,471.2,1450.9,471.1,1450.8z"/>
	</g>
	<g class="st1">
		<path d="M505,1450.8c-0.1-0.1-0.1-0.1-0.1-0.2v-1c0-0.1,0-0.2,0-0.2c0-0.1,0.1-0.1,0.1-0.2l11.7-18.5c0.1-0.1,0.2-0.2,0.4-0.2h0.5
			c0.1,0,0.2,0,0.2,0.1c0,0.1,0.1,0.1,0.1,0.2v1c0,0.1,0,0.1,0,0.2c0,0.1-0.1,0.1-0.1,0.2l-11.7,18.5c-0.1,0.1-0.2,0.2-0.4,0.2h-0.5
			C505.1,1450.9,505,1450.9,505,1450.8z M505.4,1432c-0.1-0.1-0.1-0.1-0.1-0.2v-1c0-0.1,0-0.2,0.1-0.2c0.1,0,0.1-0.1,0.2-0.1h9.2
			c0.1,0,0.2,0,0.2,0.1s0,0.2,0,0.3l-0.7,1c-0.1,0.1-0.2,0.2-0.4,0.2h-8.3C505.5,1432.1,505.4,1432.1,505.4,1432z M507.8,1450.8
			c0-0.1,0-0.2,0-0.3l0.7-1c0.1-0.1,0.2-0.2,0.4-0.2h8.7c0.1,0,0.2,0,0.2,0.1s0.1,0.1,0.1,0.2v1c0,0.1,0,0.1-0.1,0.2
			c0,0.1-0.1,0.1-0.2,0.1H508C507.9,1450.9,507.8,1450.9,507.8,1450.8z"/>
	</g>
	<g class="st1">
		<path d="M553.4,1450.8c-0.1-0.1-0.1-0.1-0.1-0.2v-19.8c0-0.1,0-0.2,0.1-0.2c0.1,0,0.1-0.1,0.2-0.1h1.1c0.1,0,0.2,0,0.2,0.1
			c0,0.1,0.1,0.1,0.1,0.2v19.8c0,0.1,0,0.1-0.1,0.2c0,0.1-0.1,0.1-0.2,0.1h-1.1C553.6,1450.9,553.5,1450.9,553.4,1450.8z
			 M556.7,1432c-0.1-0.1-0.1-0.1-0.1-0.2v-1c0-0.1,0-0.2,0.1-0.2c0.1,0,0.1-0.1,0.2-0.1h8.4c0.1,0,0.2,0,0.2,0.1
			c0,0.1,0.1,0.1,0.1,0.2v1c0,0.1,0,0.2-0.1,0.2c0,0.1-0.1,0.1-0.2,0.1H557C556.9,1432.1,556.8,1432.1,556.7,1432z M556.7,1441.3
			c-0.1-0.1-0.1-0.1-0.1-0.2v-1c0-0.1,0-0.2,0.1-0.2s0.1-0.1,0.2-0.1h7c0.1,0,0.2,0,0.2,0.1c0,0,0.1,0.1,0.1,0.2v1
			c0,0.1,0,0.1-0.1,0.2c-0.1,0.1-0.1,0.1-0.2,0.1h-7C556.9,1441.4,556.8,1441.3,556.7,1441.3z M556.7,1450.8
			c-0.1-0.1-0.1-0.1-0.1-0.2v-1c0-0.1,0-0.2,0.1-0.2s0.1-0.1,0.2-0.1h8.4c0.1,0,0.2,0,0.2,0.1s0.1,0.1,0.1,0.2v1
			c0,0.1,0,0.1-0.1,0.2c0,0.1-0.1,0.1-0.2,0.1H557C556.9,1450.9,556.8,1450.9,556.7,1450.8z"/>
	</g>
	<g class="st1">
		<path d="M600.7,1450.8c-0.1-0.1-0.1-0.1-0.1-0.2v-19.8c0-0.1,0-0.2,0.1-0.2c0.1,0,0.1-0.1,0.2-0.1h1.1c0.1,0,0.2,0,0.2,0.1
			c0,0.1,0.1,0.1,0.1,0.2v19.8c0,0.1,0,0.1-0.1,0.2c0,0.1-0.1,0.1-0.2,0.1h-1.1C600.8,1450.9,600.7,1450.9,600.7,1450.8z
			 M603.9,1441.3c-0.1-0.1-0.1-0.1-0.1-0.2v-1c0-0.1,0-0.2,0.1-0.2c0.1,0,0.1-0.1,0.2-0.1h6.9c0.1,0,0.2,0,0.2,0.1s0.1,0.1,0.1,0.2
			v1c0,0.1,0,0.1-0.1,0.2c0,0.1-0.1,0.1-0.2,0.1h-6.9C604,1441.4,603.9,1441.3,603.9,1441.3z M612.8,1450.8
			c-0.1-0.1-0.1-0.1-0.1-0.2v-19.8c0-0.1,0-0.2,0.1-0.2c0.1,0,0.1-0.1,0.2-0.1h1.1c0.1,0,0.2,0,0.2,0.1c0,0.1,0.1,0.1,0.1,0.2v19.8
			c0,0.1,0,0.1-0.1,0.2c-0.1,0.1-0.1,0.1-0.2,0.1H613C613,1450.9,612.9,1450.9,612.8,1450.8z"/>
	</g>
	<g class="st1">
		<path d="M660.1,1450.8c-0.1,0-0.2-0.1-0.2-0.2l-11.9-19.4c-0.1-0.1-0.1-0.2-0.1-0.4c0-0.2,0.1-0.3,0.3-0.3h1c0.1,0,0.2,0,0.3,0.1
			c0.1,0,0.1,0.1,0.2,0.2l12,19.5c0,0.1,0.1,0.1,0.1,0.2c0,0.1,0,0.1,0,0.2c0,0.1-0.1,0.2-0.3,0.2h-1
			C660.3,1450.9,660.2,1450.9,660.1,1450.8z M647.9,1450.8c-0.1-0.1-0.1-0.1-0.1-0.2v-16.2c0-0.2,0-0.2,0.1-0.2c0.1,0,0.2,0,0.2,0.2
			l1.2,1.9c0.1,0.1,0.1,0.2,0.1,0.4v14c0,0.1,0,0.1-0.1,0.2c-0.1,0.1-0.1,0.1-0.2,0.1h-1C648.1,1450.9,648,1450.9,647.9,1450.8z
			 M660.2,1445.1c-0.1-0.1-0.1-0.2-0.1-0.4v-13.9c0-0.1,0-0.2,0.1-0.2c0.1,0,0.1-0.1,0.2-0.1h1c0.1,0,0.2,0,0.2,0.1
			c0,0.1,0.1,0.1,0.1,0.2v16.1c0,0.2,0,0.2-0.2,0.2c-0.1,0-0.1,0-0.2-0.2L660.2,1445.1z"/>
	</g>
	<g class="st1">
		<path d="M174.3,1503.3c-0.1-0.1-0.1-0.1-0.1-0.2v-1c0-0.1,0-0.2,0-0.2c0-0.1,0.1-0.1,0.1-0.2l11.7-18.5c0.1-0.1,0.2-0.2,0.4-0.2
			h0.4c0.1,0,0.2,0,0.2,0.1c0,0.1,0.1,0.1,0.1,0.2v1c0,0.1,0,0.1,0,0.2c0,0.1-0.1,0.1-0.1,0.2l-11.7,18.5c-0.1,0.1-0.2,0.2-0.4,0.2
			h-0.4C174.4,1503.3,174.3,1503.3,174.3,1503.3z M174.7,1484.4c-0.1-0.1-0.1-0.1-0.1-0.2v-1c0-0.1,0-0.2,0.1-0.2
			c0.1,0,0.1-0.1,0.2-0.1h9.1c0.1,0,0.2,0,0.2,0.1c0,0.1,0,0.2,0,0.3l-0.7,1c-0.1,0.1-0.2,0.2-0.4,0.2h-8.3
			C174.8,1484.5,174.7,1484.5,174.7,1484.4z M177.1,1503.2c0-0.1,0-0.2,0-0.3l0.7-1c0.1-0.1,0.2-0.2,0.4-0.2h8.7
			c0.1,0,0.2,0,0.2,0.1s0.1,0.1,0.1,0.2v1c0,0.1,0,0.1-0.1,0.2c0,0.1-0.1,0.1-0.2,0.1h-9.6C177.2,1503.3,177.1,1503.3,177.1,1503.2z
			"/>
	</g>
	<g class="st1">
		<path d="M225.8,1503.3c-0.1,0-0.1-0.1-0.1-0.2l-4.9-19.8l0-0.1c0-0.1,0-0.1,0.1-0.1s0.1-0.1,0.2-0.1h1.1c0.1,0,0.2,0,0.3,0.1
			c0.1,0,0.1,0.1,0.1,0.2l4.7,19.6c0,0.1,0,0.1,0,0.2c0,0.2-0.1,0.3-0.3,0.3h-1C225.9,1503.3,225.8,1503.3,225.8,1503.3z
			 M237,1503.3c-0.1,0-0.1-0.1-0.1-0.2l-4.8-16.8h-0.1l-3.9,13.6c0,0.1,0,0.1-0.1,0.2c0,0-0.1,0.1-0.1,0.1c-0.1,0-0.1-0.1-0.2-0.2
			l-0.5-2.1c0-0.1,0-0.2,0-0.4l3.9-14.1c0-0.1,0.1-0.2,0.1-0.2c0,0,0.1-0.1,0.2-0.1h0.9c0.1,0,0.2,0,0.2,0.1c0,0.1,0.1,0.1,0.1,0.2
			l5.5,19.6l0,0.2c0,0.2-0.1,0.3-0.3,0.3h-1C237.1,1503.3,237.1,1503.3,237,1503.3z M238.4,1497.7c0-0.2,0-0.3,0-0.4l3.3-14.1
			c0-0.1,0.1-0.2,0.1-0.2c0.1,0,0.1-0.1,0.3-0.1h1.1c0.1,0,0.2,0,0.2,0.1c0,0.1,0,0.1,0,0.2l-4,16.5c0,0.1,0,0.1-0.1,0.2
			c0,0-0.1,0.1-0.1,0.1c-0.1,0-0.1-0.1-0.2-0.2L238.4,1497.7z"/>
	</g>
	<g class="st1">
		<path d="M271.7,1502.2c-0.9-0.8-1.6-1.8-2-3.1c-0.2-0.6-0.3-1.3-0.4-2.1c-0.1-0.9-0.1-2.1-0.1-3.8c0-1.7,0,1.1,0.1,0.2
			c0.1-0.9,0.2-1.6,0.4-2.1c0.4-1.3,1.1-2.4,2-3.1s2.1-1.2,3.4-1.4h0.1c0.1,0,0.1,0,0.2,0.1c0,0.1,0.1,0.1,0.1,0.2v1
			c0,0.2-0.1,0.3-0.3,0.3c-1.9,0.3-3.2,1.5-3.9,3.4c-0.2,0.5-0.3,1.1-0.4,1.9c-0.1,0.8-0.1-2-0.1-0.5c0,1.5,0,2.7,0.1,3.5
			c0.1,0.8,0.2,1.5,0.4,1.9c0.6,1.9,1.9,3.1,3.9,3.4c0.2,0,0.3,0.1,0.3,0.3v1c0,0.1,0,0.2-0.1,0.2c-0.1,0-0.1,0.1-0.2,0
			C273.7,1503.4,272.6,1503,271.7,1502.2z M272.4,1483.6c-0.1-0.1-0.1-0.1-0.1-0.2v-1.6c0-0.1,0-0.2,0.1-0.2s0.1-0.1,0.2-0.1h1.2
			c0.1,0,0.2,0,0.2,0.1s0.1,0.1,0.1,0.2v1.6c0,0.1,0,0.2-0.1,0.2c0,0.1-0.1,0.1-0.2,0.1h-1.2
			C272.5,1483.7,272.5,1483.7,272.4,1483.6z M277.3,1503.6c-0.1,0-0.1,0-0.2-0.1s-0.1-0.1-0.1-0.2v-1c0-0.2,0.1-0.3,0.3-0.3
			c1.9-0.3,3.2-1.5,3.9-3.4c0.2-0.5,0.3-1.1,0.4-2c0.1-0.8,0.1-2,0.1-3.5s0,1.3-0.1,0.5c-0.1-0.8-0.2-1.5-0.4-2
			c-0.7-1.9-2-3.1-3.9-3.4c-0.2,0-0.3-0.1-0.3-0.3v-1c0-0.1,0-0.2,0.1-0.2s0.1-0.1,0.2,0c1.4,0.2,2.5,0.6,3.4,1.4
			c0.9,0.8,1.6,1.8,2.1,3.1c0.2,0.6,0.3,1.3,0.4,2.2c0.1,0.9,0.1-1.9,0.1-0.2c0,1.6,0,2.9-0.1,3.8c-0.1,0.9-0.2,1.6-0.4,2.2
			c-0.4,1.3-1.1,2.4-2.1,3.1C279.8,1503,278.7,1503.4,277.3,1503.6L277.3,1503.6z M278.4,1483.6c-0.1-0.1-0.1-0.1-0.1-0.2v-1.6
			c0-0.1,0-0.2,0.1-0.2s0.1-0.1,0.2-0.1h1.2c0.1,0,0.2,0,0.2,0.1s0.1,0.1,0.1,0.2v1.6c0,0.1,0,0.2-0.1,0.2c0,0.1-0.1,0.1-0.2,0.1
			h-1.2C278.5,1483.7,278.5,1483.7,278.4,1483.6z"/>
	</g>
	<g class="st1">
		<path d="M317.2,1503.3c-0.1-0.1-0.1-0.1-0.1-0.2v-19.8c0-0.1,0-0.2,0.1-0.2c0.1,0,0.1-0.1,0.2-0.1h1.1c0.1,0,0.2,0,0.2,0.1
			c0,0.1,0.1,0.1,0.1,0.2v19.8c0,0.1,0,0.1-0.1,0.2c0,0.1-0.1,0.1-0.2,0.1h-1.1C317.4,1503.3,317.3,1503.3,317.2,1503.3z
			 M320.5,1503.3c-0.1-0.1-0.1-0.1-0.1-0.2v-1c0-0.1,0-0.2,0.1-0.2s0.1-0.1,0.2-0.1h8.4c0.1,0,0.2,0,0.2,0.1s0.1,0.1,0.1,0.2v1
			c0,0.1,0,0.1-0.1,0.2c0,0.1-0.1,0.1-0.2,0.1h-8.4C320.7,1503.3,320.6,1503.3,320.5,1503.3z"/>
	</g>
	<g class="st1">
		<path d="M364.5,1503.3c-0.1-0.1-0.1-0.1-0.1-0.2v-19.8c0-0.1,0-0.2,0.1-0.2c0.1,0,0.1-0.1,0.2-0.1h1.1c0.1,0,0.2,0,0.2,0.1
			c0,0.1,0.1,0.1,0.1,0.2v19.8c0,0.1,0,0.1-0.1,0.2c0,0.1-0.1,0.1-0.2,0.1h-1.1C364.6,1503.3,364.5,1503.3,364.5,1503.3z
			 M367.8,1484.4c-0.1-0.1-0.1-0.1-0.1-0.2v-1c0-0.1,0-0.2,0.1-0.2c0.1,0,0.1-0.1,0.2-0.1h8.4c0.1,0,0.2,0,0.2,0.1
			c0,0.1,0.1,0.1,0.1,0.2v1c0,0.1,0,0.2-0.1,0.2c0,0.1-0.1,0.1-0.2,0.1H368C367.9,1484.5,367.8,1484.5,367.8,1484.4z M367.8,1493.9
			c-0.1-0.1-0.1-0.1-0.1-0.2v-1c0-0.1,0-0.2,0.1-0.2s0.1-0.1,0.2-0.1h7c0.1,0,0.2,0,0.2,0.1c0,0,0.1,0.1,0.1,0.2v1
			c0,0.1,0,0.1-0.1,0.2c-0.1,0.1-0.1,0.1-0.2,0.1h-7C367.9,1494,367.8,1494,367.8,1493.9z"/>
	</g>
	<g class="st1">
		<path d="M411.7,1503.3c-0.1-0.1-0.1-0.1-0.1-0.2v-19.8c0-0.1,0-0.2,0.1-0.2c0.1,0,0.1-0.1,0.2-0.1h1.1c0.1,0,0.2,0,0.2,0.1
			c0,0.1,0.1,0.1,0.1,0.2v19.8c0,0.1,0,0.1-0.1,0.2c0,0.1-0.1,0.1-0.2,0.1h-1.1C411.8,1503.3,411.8,1503.3,411.7,1503.3z
			 M415,1503.3c-0.1-0.1-0.1-0.1-0.1-0.2v-1c0-0.1,0-0.2,0.1-0.2c0.1,0,0.1-0.1,0.2-0.1h2.9c1.4,0,2.5-0.2,3.3-0.7
			c0.9-0.5,1.5-1.3,1.8-2.3c0.2-0.5,0.3-1.2,0.4-1.9c0.1-0.8,0.1-2,0.1-3.6c0-1.6,0-2.8-0.1-3.6c-0.1-0.8-0.2-1.4-0.4-2
			c-0.4-1.1-1-1.8-1.8-2.3c-0.8-0.5-2-0.7-3.3-0.7h-2.9c-0.1,0-0.1,0-0.2-0.1c-0.1-0.1-0.1-0.1-0.1-0.2v-1c0-0.1,0-0.2,0.1-0.2
			c0.1,0,0.1-0.1,0.2-0.1h3.1c3.4,0,5.6,1.4,6.5,4.1c0.2,0.6,0.3,1.3,0.4,2.2c0.1,0.8,0.1,2.1,0.1,3.9c0,1.8,0,3.1-0.1,3.9
			c-0.1,0.8-0.2,1.5-0.4,2.2c-0.9,2.8-3.1,4.1-6.5,4.1h-3.1C415.1,1503.3,415,1503.3,415,1503.3z"/>
	</g>
	<g class="st1">
		<path d="M456.8,1484.4c-0.1-0.1-0.1-0.1-0.1-0.2v-1c0-0.1,0-0.2,0.1-0.2c0.1,0,0.1-0.1,0.2-0.1h13.8c0.1,0,0.2,0,0.2,0.1
			c0,0.1,0.1,0.1,0.1,0.2v1c0,0.1,0,0.2-0.1,0.2c-0.1,0.1-0.1,0.1-0.2,0.1H457C456.9,1484.5,456.9,1484.5,456.8,1484.4z
			 M463.1,1503.3c-0.1-0.1-0.1-0.1-0.1-0.2v-16.7c0-0.1,0-0.2,0.1-0.2c0.1,0,0.1-0.1,0.2-0.1h1.1c0.1,0,0.2,0,0.2,0.1
			s0.1,0.1,0.1,0.2v16.7c0,0.1,0,0.1-0.1,0.2c0,0.1-0.1,0.1-0.2,0.1h-1.1C463.3,1503.3,463.2,1503.3,463.1,1503.3z"/>
	</g>
	<g class="st1">
		<path d="M506.2,1503.3c-0.1-0.1-0.1-0.1-0.1-0.2v-19.8c0-0.1,0-0.2,0.1-0.2c0.1,0,0.1-0.1,0.2-0.1h1.1c0.1,0,0.2,0,0.2,0.1
			c0,0.1,0.1,0.1,0.1,0.2v19.8c0,0.1,0,0.1-0.1,0.2c0,0.1-0.1,0.1-0.2,0.1h-1.1C506.3,1503.3,506.3,1503.3,506.2,1503.3z
			 M509.5,1484.4c-0.1-0.1-0.1-0.1-0.1-0.2v-1c0-0.1,0-0.2,0.1-0.2c0.1,0,0.1-0.1,0.2-0.1h8.4c0.1,0,0.2,0,0.2,0.1
			c0,0.1,0.1,0.1,0.1,0.2v1c0,0.1,0,0.2-0.1,0.2c0,0.1-0.1,0.1-0.2,0.1h-8.4C509.6,1484.5,509.6,1484.5,509.5,1484.4z M509.5,1493.9
			c-0.1-0.1-0.1-0.1-0.1-0.2v-1c0-0.1,0-0.2,0.1-0.2s0.1-0.1,0.2-0.1h7c0.1,0,0.2,0,0.2,0.1c0,0,0.1,0.1,0.1,0.2v1
			c0,0.1,0,0.1-0.1,0.2c-0.1,0.1-0.1,0.1-0.2,0.1h-7C509.6,1494,509.6,1494,509.5,1493.9z"/>
	</g>
	<g class="st1">
		<path d="M553.4,1503.3c-0.1-0.1-0.1-0.1-0.1-0.2v-19.8c0-0.1,0-0.2,0.1-0.2c0.1,0,0.1-0.1,0.2-0.1h1.1c0.1,0,0.2,0,0.2,0.1
			c0,0.1,0.1,0.1,0.1,0.2v19.8c0,0.1,0,0.1-0.1,0.2c0,0.1-0.1,0.1-0.2,0.1h-1.1C553.6,1503.3,553.5,1503.3,553.4,1503.3z
			 M556.7,1484.4c-0.1-0.1-0.1-0.1-0.1-0.2v-1c0-0.1,0-0.2,0.1-0.2c0.1,0,0.1-0.1,0.2-0.1h8.4c0.1,0,0.2,0,0.2,0.1
			c0,0.1,0.1,0.1,0.1,0.2v1c0,0.1,0,0.2-0.1,0.2c0,0.1-0.1,0.1-0.2,0.1H557C556.9,1484.5,556.8,1484.5,556.7,1484.4z M556.7,1493.7
			c-0.1-0.1-0.1-0.1-0.1-0.2v-1c0-0.1,0-0.2,0.1-0.2s0.1-0.1,0.2-0.1h7c0.1,0,0.2,0,0.2,0.1c0,0,0.1,0.1,0.1,0.2v1
			c0,0.1,0,0.1-0.1,0.2c-0.1,0.1-0.1,0.1-0.2,0.1h-7C556.9,1493.8,556.8,1493.8,556.7,1493.7z M556.7,1503.3
			c-0.1-0.1-0.1-0.1-0.1-0.2v-1c0-0.1,0-0.2,0.1-0.2s0.1-0.1,0.2-0.1h8.4c0.1,0,0.2,0,0.2,0.1s0.1,0.1,0.1,0.2v1
			c0,0.1,0,0.1-0.1,0.2c0,0.1-0.1,0.1-0.2,0.1H557C556.9,1503.3,556.8,1503.3,556.7,1503.3z"/>
	</g>
	<g class="st1">
		<path d="M600.7,1503.3c-0.1-0.1-0.1-0.1-0.1-0.2v-19.8c0-0.1,0-0.2,0.1-0.2c0.1,0,0.1-0.1,0.2-0.1h1.1c0.1,0,0.2,0,0.2,0.1
			c0,0.1,0.1,0.1,0.1,0.2v19.8c0,0.1,0,0.1-0.1,0.2c0,0.1-0.1,0.1-0.2,0.1h-1.1C600.8,1503.3,600.7,1503.3,600.7,1503.3z
			 M604,1503.3c-0.1-0.1-0.1-0.1-0.1-0.2v-1c0-0.1,0-0.2,0.1-0.2s0.1-0.1,0.2-0.1h8.4c0.1,0,0.2,0,0.2,0.1s0.1,0.1,0.1,0.2v1
			c0,0.1,0,0.1-0.1,0.2c0,0.1-0.1,0.1-0.2,0.1h-8.4C604.1,1503.3,604,1503.3,604,1503.3z"/>
	</g>
	<g class="st1">
		<path d="M647.9,1503.3c-0.1-0.1-0.1-0.1-0.1-0.2v-19.8c0-0.1,0-0.2,0.1-0.2c0.1,0,0.1-0.1,0.2-0.1h1.1c0.1,0,0.2,0,0.2,0.1
			c0,0.1,0.1,0.1,0.1,0.2v19.8c0,0.1,0,0.1-0.1,0.2c0,0.1-0.1,0.1-0.2,0.1h-1.1C648.1,1503.3,648,1503.3,647.9,1503.3z
			 M651.2,1484.4c-0.1-0.1-0.1-0.1-0.1-0.2v-1c0-0.1,0-0.2,0.1-0.2c0.1,0,0.1-0.1,0.2-0.1h8.4c0.1,0,0.2,0,0.2,0.1
			c0,0.1,0.1,0.1,0.1,0.2v1c0,0.1,0,0.2-0.1,0.2c0,0.1-0.1,0.1-0.2,0.1h-8.4C651.4,1484.5,651.3,1484.5,651.2,1484.4z M651.2,1493.9
			c-0.1-0.1-0.1-0.1-0.1-0.2v-1c0-0.1,0-0.2,0.1-0.2s0.1-0.1,0.2-0.1h7c0.1,0,0.2,0,0.2,0.1c0,0,0.1,0.1,0.1,0.2v1
			c0,0.1,0,0.1-0.1,0.2c-0.1,0.1-0.1,0.1-0.2,0.1h-7C651.4,1494,651.3,1494,651.2,1493.9z"/>
	</g>
	<g class="st1">
		<path d="M178.5,1555.7c-0.1,0-0.1-0.1-0.1-0.2l-4.9-19.8l0-0.1c0-0.1,0-0.1,0.1-0.1s0.1-0.1,0.2-0.1h1.1c0.1,0,0.2,0,0.3,0.1
			c0.1,0,0.1,0.1,0.1,0.2l4.7,19.6c0,0.1,0,0.1,0,0.2c0,0.2-0.1,0.3-0.3,0.3h-1C178.6,1555.8,178.6,1555.8,178.5,1555.7z
			 M189.8,1555.7c-0.1,0-0.1-0.1-0.1-0.2l-4.8-16.8h-0.1l-3.9,13.6c0,0.1,0,0.1-0.1,0.2c0,0-0.1,0.1-0.1,0.1c-0.1,0-0.1-0.1-0.2-0.2
			l-0.5-2.1c0-0.1,0-0.2,0-0.4l3.9-14.1c0-0.1,0.1-0.2,0.1-0.2c0,0,0.1-0.1,0.2-0.1h0.9c0.1,0,0.2,0,0.2,0.1c0,0.1,0.1,0.1,0.1,0.2
			l5.5,19.6l0,0.2c0,0.2-0.1,0.3-0.3,0.3h-1C189.9,1555.8,189.8,1555.8,189.8,1555.7z M191.1,1550.2c0-0.2,0-0.3,0-0.4l3.3-14.1
			c0-0.1,0.1-0.2,0.1-0.2c0.1,0,0.1-0.1,0.3-0.1h1.1c0.1,0,0.2,0,0.2,0.1c0,0.1,0,0.1,0,0.2l-4,16.5c0,0.1,0,0.1-0.1,0.2
			c0,0-0.1,0.1-0.1,0.1c-0.1,0-0.1-0.1-0.2-0.2L191.1,1550.2z"/>
	</g>
	<g class="st1">
		<path d="M220.8,1555.7c0-0.1,0-0.1,0-0.2l6.2-17.1c0.1-0.1,0.1-0.2,0.2-0.2c0,0,0.1,0,0.1,0c0,0,0.1,0.1,0.1,0.1l0.6,1.6
			c0,0.1,0.1,0.1,0.1,0.2c0,0.1,0,0.2-0.1,0.2l-3,8.4h5.9c0.2,0,0.3,0.1,0.4,0.2l0.4,1l0,0.1c0,0.1,0,0.1-0.1,0.2
			c-0.1,0-0.1,0.1-0.2,0.1h-6.9l-1.8,5.1c0,0.1-0.1,0.2-0.2,0.2c-0.1,0-0.1,0.1-0.2,0.1H221C220.9,1555.8,220.8,1555.8,220.8,1555.7
			z M235,1555.5l-7-19.8l0-0.1c0-0.1,0-0.1,0.1-0.2s0.1-0.1,0.2-0.1h1.1c0.2,0,0.3,0.1,0.4,0.3l7.1,19.8l0,0.1c0,0.1,0,0.1-0.1,0.2
			s-0.1,0.1-0.2,0.1h-1.2C235.2,1555.8,235.1,1555.7,235,1555.5z"/>
	</g>
	<g class="st1">
		<path d="M271.6,1555.2c-1-0.4-1.9-0.9-2.5-1.5c-0.1-0.1-0.1-0.1-0.1-0.2c0-0.1,0-0.2,0.1-0.2l0.7-0.8c0.1-0.1,0.3-0.2,0.4,0
			c0.6,0.5,1.3,0.9,2.1,1.3s1.7,0.6,2.6,0.7c0.2,0,0.3,0.1,0.3,0.3v1c0,0.1,0,0.2-0.1,0.2c-0.1,0-0.1,0.1-0.2,0
			C273.7,1555.9,272.6,1555.7,271.6,1555.2z M277,1556c-0.1,0-0.1,0-0.2-0.1s-0.1-0.1-0.1-0.2v-1c0-0.2,0.1-0.3,0.3-0.3
			c1.3-0.1,2.4-0.6,3.1-1.3s1.1-1.7,1.1-2.8c0-1.1-0.4-2-1.1-2.7c-0.7-0.7-2-1.1-3.8-1.3l-1-0.1c-2-0.3-3.4-0.8-4.4-1.8
			c-1-0.9-1.5-2.1-1.5-3.6c0-1,0.2-2,0.6-2.8c0.4-0.8,1-1.5,1.8-2c0.8-0.5,1.7-0.8,2.8-0.9h0.1c0.1,0,0.1,0,0.2,0.1
			c0,0.1,0.1,0.1,0.1,0.2v1c0,0.2-0.1,0.3-0.3,0.3c-1.1,0.2-2,0.6-2.6,1.3c-0.6,0.7-0.9,1.6-0.9,2.6c0,1.1,0.4,2,1.1,2.6
			c0.8,0.7,2,1.1,3.7,1.3l1,0.1c2,0.3,3.5,0.8,4.4,1.8s1.4,2.1,1.4,3.7c0,1.1-0.2,2-0.7,2.8c-0.5,0.8-1.1,1.5-2,2
			C279.4,1555.6,278.3,1555.9,277,1556L277,1556z M277,1536.7c-0.2,0-0.3-0.2-0.3-0.3v-1c0-0.1,0-0.2,0.1-0.2s0.1-0.1,0.2,0
			c0.9,0.1,1.8,0.3,2.6,0.5c0.8,0.3,1.5,0.6,2.1,1.1c0.2,0.1,0.2,0.3,0.1,0.4l-0.6,0.9c-0.1,0.1-0.3,0.2-0.4,0.1
			C279.6,1537.3,278.3,1536.9,277,1536.7z"/>
	</g>
	<g class="st1">
		<path d="M317.2,1555.7c-0.1-0.1-0.1-0.1-0.1-0.2v-19.8c0-0.1,0-0.2,0.1-0.2c0.1,0,0.1-0.1,0.2-0.1h1.1c0.1,0,0.2,0,0.2,0.1
			c0,0.1,0.1,0.1,0.1,0.2v19.8c0,0.1,0,0.1-0.1,0.2c0,0.1-0.1,0.1-0.2,0.1h-1.1C317.4,1555.8,317.3,1555.8,317.2,1555.7z
			 M320.5,1555.7c-0.1-0.1-0.1-0.1-0.1-0.2v-1c0-0.1,0-0.2,0.1-0.2c0.1,0,0.1-0.1,0.2-0.1h2.9c1.4,0,2.5-0.2,3.3-0.7
			c0.9-0.5,1.5-1.3,1.8-2.3c0.2-0.5,0.3-1.2,0.4-1.9c0.1-0.8,0.1-2,0.1-3.6c0-1.6,0-2.8-0.1-3.6c-0.1-0.8-0.2-1.4-0.4-2
			c-0.4-1.1-1-1.8-1.8-2.3c-0.8-0.5-2-0.7-3.3-0.7h-2.9c-0.1,0-0.1,0-0.2-0.1c-0.1-0.1-0.1-0.1-0.1-0.2v-1c0-0.1,0-0.2,0.1-0.2
			c0.1,0,0.1-0.1,0.2-0.1h3.1c3.4,0,5.6,1.4,6.5,4.1c0.2,0.6,0.3,1.3,0.4,2.2c0.1,0.8,0.1,2.1,0.1,3.9c0,1.8,0,3.1-0.1,3.9
			c-0.1,0.8-0.2,1.5-0.4,2.2c-0.9,2.8-3.1,4.1-6.5,4.1h-3.1C320.6,1555.8,320.6,1555.8,320.5,1555.7z"/>
	</g>
	<g class="st1">
		<path d="M364.5,1555.7c-0.1-0.1-0.1-0.1-0.1-0.2v-19.8c0-0.1,0-0.2,0.1-0.2c0.1,0,0.1-0.1,0.2-0.1h1.1c0.1,0,0.2,0,0.2,0.1
			c0,0.1,0.1,0.1,0.1,0.2v19.8c0,0.1,0,0.1-0.1,0.2c0,0.1-0.1,0.1-0.2,0.1h-1.1C364.6,1555.8,364.5,1555.8,364.5,1555.7z
			 M367.8,1536.9c-0.1-0.1-0.1-0.1-0.1-0.2v-1c0-0.1,0-0.2,0.1-0.2c0.1,0,0.1-0.1,0.2-0.1h8.4c0.1,0,0.2,0,0.2,0.1
			c0,0.1,0.1,0.1,0.1,0.2v1c0,0.1,0,0.2-0.1,0.2c0,0.1-0.1,0.1-0.2,0.1H368C367.9,1537,367.8,1536.9,367.8,1536.9z M367.8,1546.4
			c-0.1-0.1-0.1-0.1-0.1-0.2v-1c0-0.1,0-0.2,0.1-0.2s0.1-0.1,0.2-0.1h7c0.1,0,0.2,0,0.2,0.1c0,0,0.1,0.1,0.1,0.2v1
			c0,0.1,0,0.1-0.1,0.2c-0.1,0.1-0.1,0.1-0.2,0.1h-7C367.9,1546.5,367.8,1546.4,367.8,1546.4z"/>
	</g>
	<g class="st1">
		<path d="M412.9,1553.9c-1-1.2-1.5-3-1.5-5.2v-13c0-0.1,0-0.2,0.1-0.2c0.1,0,0.1-0.1,0.2-0.1h1.1c0.1,0,0.2,0,0.2,0.1
			c0,0.1,0.1,0.1,0.1,0.2v13c0,1.7,0.4,3,1.1,3.9c0.7,1,1.7,1.5,3.1,1.8c0.2,0,0.3,0.1,0.3,0.3v1c0,0.1,0,0.2-0.1,0.2
			c-0.1,0-0.1,0.1-0.2,0C415.4,1555.8,413.9,1555.1,412.9,1553.9z M419.4,1556c-0.1,0-0.1,0-0.2-0.1s-0.1-0.1-0.1-0.2v-1
			c0-0.2,0.1-0.3,0.3-0.3c1.3-0.2,2.4-0.8,3.1-1.7s1.1-2.3,1.1-4v-13c0-0.1,0-0.2,0.1-0.2c0.1,0,0.1-0.1,0.2-0.1h1.1
			c0.1,0,0.2,0,0.2,0.1c0,0.1,0.1,0.1,0.1,0.2v13c0,2.2-0.5,3.9-1.5,5.1C422.7,1555.1,421.3,1555.8,419.4,1556L419.4,1556z"/>
	</g>
	<g class="st1">
		<path d="M471.2,1555.7c-0.1,0-0.2-0.1-0.2-0.2l-11.9-19.4c-0.1-0.1-0.1-0.2-0.1-0.4c0-0.2,0.1-0.3,0.3-0.3h1c0.1,0,0.2,0,0.3,0.1
			c0.1,0,0.1,0.1,0.2,0.2l12,19.5c0,0.1,0.1,0.1,0.1,0.2c0,0.1,0,0.1,0,0.2c0,0.1-0.1,0.2-0.3,0.2h-1
			C471.3,1555.8,471.2,1555.8,471.2,1555.7z M459,1555.7c-0.1-0.1-0.1-0.1-0.1-0.2v-16.2c0-0.2,0-0.2,0.1-0.2c0.1,0,0.2,0,0.2,0.2
			l1.2,1.9c0.1,0.1,0.1,0.2,0.1,0.4v14c0,0.1,0,0.1-0.1,0.2c-0.1,0.1-0.1,0.1-0.2,0.1h-1C459.1,1555.8,459,1555.8,459,1555.7z
			 M471.2,1550c-0.1-0.1-0.1-0.2-0.1-0.4v-13.9c0-0.1,0-0.2,0.1-0.2c0.1,0,0.1-0.1,0.2-0.1h1c0.1,0,0.2,0,0.2,0.1
			c0,0.1,0.1,0.1,0.1,0.2v16.1c0,0.2,0,0.2-0.2,0.2c-0.1,0-0.1,0-0.2-0.2L471.2,1550z"/>
	</g>
	<g class="st1">
		<path d="M506.2,1555.7c-0.1-0.1-0.1-0.1-0.1-0.2v-19.8c0-0.1,0-0.2,0.1-0.2c0.1,0,0.1-0.1,0.2-0.1h1.1c0.1,0,0.2,0,0.2,0.1
			c0,0.1,0.1,0.1,0.1,0.2v19.8c0,0.1,0,0.1-0.1,0.2c0,0.1-0.1,0.1-0.2,0.1h-1.1C506.3,1555.8,506.3,1555.8,506.2,1555.7z
			 M509.6,1547.5c-0.1,0-0.1-0.1-0.1-0.2v-1.6c0-0.1,0-0.2,0.1-0.4l8-9.7c0.1-0.1,0.2-0.2,0.3-0.2s0.2-0.1,0.3-0.1h1.4
			c0.1,0,0.2,0,0.2,0.1s0,0.1,0,0.2l-9.8,11.7C509.7,1547.5,509.6,1547.5,509.6,1547.5z M518.3,1555.7c-0.1,0-0.1-0.1-0.2-0.2
			l-5.2-9.1c0-0.1-0.1-0.1-0.1-0.2c0-0.1,0-0.2,0.1-0.2l0.7-0.9c0.1-0.1,0.1-0.1,0.2-0.1c0.1,0,0.1,0,0.2,0.1l6,10.4l0,0.1
			c0,0.1-0.1,0.2-0.2,0.2h-1.4C518.5,1555.8,518.4,1555.8,518.3,1555.7z"/>
	</g>
	<g class="st1">
		<path d="M554.7,1553.9c-1-1.2-1.5-3-1.5-5.2v-13c0-0.1,0-0.2,0.1-0.2c0.1,0,0.1-0.1,0.2-0.1h1.1c0.1,0,0.2,0,0.2,0.1
			c0,0.1,0.1,0.1,0.1,0.2v13c0,1.7,0.4,3,1.1,3.9c0.7,1,1.7,1.5,3.1,1.8c0.2,0,0.3,0.1,0.3,0.3v1c0,0.1,0,0.2-0.1,0.2
			c-0.1,0-0.1,0.1-0.2,0C557.1,1555.8,555.7,1555.1,554.7,1553.9z M561.1,1556c-0.1,0-0.1,0-0.2-0.1s-0.1-0.1-0.1-0.2v-1
			c0-0.2,0.1-0.3,0.3-0.3c1.3-0.2,2.4-0.8,3.1-1.7s1.1-2.3,1.1-4v-13c0-0.1,0-0.2,0.1-0.2c0.1,0,0.1-0.1,0.2-0.1h1.1
			c0.1,0,0.2,0,0.2,0.1c0,0.1,0.1,0.1,0.1,0.2v13c0,2.2-0.5,3.9-1.5,5.1C564.5,1555.1,563,1555.8,561.1,1556L561.1,1556z"/>
	</g>
	<g class="st1">
		<path d="M600.7,1555.7c-0.1-0.1-0.1-0.1-0.1-0.2v-19.8c0-0.1,0-0.2,0.1-0.2c0.1,0,0.1-0.1,0.2-0.1h1.1c0.1,0,0.2,0,0.2,0.1
			c0,0.1,0.1,0.1,0.1,0.2v19.8c0,0.1,0,0.1-0.1,0.2c0,0.1-0.1,0.1-0.2,0.1h-1.1C600.8,1555.8,600.7,1555.8,600.7,1555.7z
			 M603.9,1546.2c-0.1-0.1-0.1-0.1-0.1-0.2v-1c0-0.1,0-0.2,0.1-0.2c0.1,0,0.1-0.1,0.2-0.1h6.9c0.1,0,0.2,0,0.2,0.1s0.1,0.1,0.1,0.2
			v1c0,0.1,0,0.1-0.1,0.2c0,0.1-0.1,0.1-0.2,0.1h-6.9C604,1546.2,603.9,1546.2,603.9,1546.2z M612.8,1555.7
			c-0.1-0.1-0.1-0.1-0.1-0.2v-19.8c0-0.1,0-0.2,0.1-0.2c0.1,0,0.1-0.1,0.2-0.1h1.1c0.1,0,0.2,0,0.2,0.1c0,0.1,0.1,0.1,0.1,0.2v19.8
			c0,0.1,0,0.1-0.1,0.2c-0.1,0.1-0.1,0.1-0.2,0.1H613C613,1555.8,612.9,1555.8,612.8,1555.7z"/>
	</g>
	<g class="st1">
		<path d="M647.9,1555.7c-0.1-0.1-0.1-0.1-0.1-0.2v-19.8c0-0.1,0-0.2,0.1-0.2c0.1,0,0.1-0.1,0.2-0.1h1.1c0.1,0,0.2,0,0.2,0.1
			c0,0.1,0.1,0.1,0.1,0.2v19.8c0,0.1,0,0.1-0.1,0.2c0,0.1-0.1,0.1-0.2,0.1h-1.1C648.1,1555.8,648,1555.8,647.9,1555.7z
			 M651.2,1546.5c-0.1-0.1-0.1-0.1-0.1-0.2v-1c0-0.1,0-0.2,0.1-0.2s0.1-0.1,0.2-0.1h3.5c1.5,0,2.6-0.3,3.4-1c0.8-0.7,1.2-1.7,1.2-3
			s-0.4-2.3-1.2-3s-1.9-1-3.4-1h-3.5c-0.1,0-0.2,0-0.2-0.1c-0.1-0.1-0.1-0.1-0.1-0.2v-1c0-0.1,0-0.2,0.1-0.2c0.1,0,0.1-0.1,0.2-0.1
			h3.5c1.3,0,2.4,0.2,3.3,0.7c0.9,0.4,1.6,1.1,2.1,1.9c0.5,0.9,0.8,1.9,0.8,3c0,1.1-0.2,2.1-0.7,2.9c-0.5,0.9-1.2,1.5-2.1,2
			c-1,0.5-2.1,0.7-3.5,0.7h-3.4C651.4,1546.6,651.3,1546.6,651.2,1546.5z M659.7,1555.7c0,0-0.1-0.1-0.1-0.2l-3.4-7.1
			c-0.1-0.1-0.1-0.2,0-0.3c0,0,0.1-0.1,0.2-0.1c0.1,0,0.1,0,0.2,0c0.4,0,0.7-0.1,0.9-0.2c0,0,0.1,0,0.1,0c0.1,0,0.2,0.1,0.2,0.2
			l3.7,7.4c0,0,0,0.1,0,0.2c0,0.1-0.1,0.2-0.2,0.2h-1.3C659.8,1555.8,659.8,1555.8,659.7,1555.7z"/>
	</g>
	<path id="path4-3" inkscape:connector-curvature="0" d="M497.5,1612.2c0,3.5-2.9,6.4-6.4,6.4c-3.5,0-6.4-2.9-6.4-6.4
		c0-3.5,2.9-6.4,6.4-6.4C494.6,1605.8,497.5,1608.7,497.5,1612.2"/>
	<path id="path4-7" inkscape:connector-curvature="0" d="M352.9,1612.2c0,3.5-2.9,6.4-6.4,6.4c-3.5,0-6.4-2.9-6.4-6.4
		c0-3.5,2.9-6.4,6.4-6.4C350.1,1605.8,352.9,1608.7,352.9,1612.2"/>
	<path id="path4-3-3" inkscape:connector-curvature="0" d="M401.1,1612.2c0,3.5-2.9,6.4-6.4,6.4c-3.5,0-6.4-2.9-6.4-6.4
		c0-3.5,2.9-6.4,6.4-6.4C398.2,1605.8,401.1,1608.7,401.1,1612.2"/>
</g>
</svg>
