<?xml version="1.0" encoding="utf-8"?>
<!-- Generator: Adobe Illustrator 24.3.0, SVG Export Plug-In . SVG Version: 6.00 Build 0)  -->
<svg version="1.1"
	 id="svg918" inkscape:version="0.92.4 (5da689c313, 2019-01-14)" xmlns:cc="http://creativecommons.org/ns#" xmlns:dc="http://purl.org/dc/elements/1.1/" xmlns:inkscape="http://www.inkscape.org/namespaces/inkscape" xmlns:rdf="http://www.w3.org/1999/02/22-rdf-syntax-ns#" xmlns:sodipodi="http://sodipodi.sourceforge.net/DTD/sodipodi-0.dtd" xmlns:svg="http://www.w3.org/2000/svg"
	 xmlns="http://www.w3.org/2000/svg" xmlns:xlink="http://www.w3.org/1999/xlink" x="0px" y="0px" viewBox="0 0 850.4 850.4"
	 style="enable-background:new 0 0 850.4 850.4;" xml:space="preserve">
<style type="text/css">
	.st0{fill:#000055;fill-opacity:0.1647;}
	.st1{enable-background:new    ;}
</style>
<sodipodi:namedview  bordercolor="#666666" borderopacity="1" gridtolerance="10" guidetolerance="10" id="namedview920" inkscape:current-layer="g916" inkscape:cx="-90.764306" inkscape:cy="1012.9005" inkscape:document-units="mm" inkscape:pageopacity="0" inkscape:pageshadow="2" inkscape:window-height="1109" inkscape:window-maximized="1" inkscape:window-width="1920" inkscape:window-x="1920" inkscape:window-y="0" inkscape:zoom="0.31115" objecttolerance="10" pagecolor="#ffffff" showgrid="false">
	</sodipodi:namedview>
<g id="g916" transform="translate(0,-861.73197)">
	<path id="path2" inkscape:connector-curvature="0" class="st0" d="M0,861.7h850.4v850.4H0V861.7z"/>
	<path id="path4" inkscape:connector-curvature="0" d="M715,1570.4c0,3.5-2.9,6.4-6.4,6.4c-3.5,0-6.4-2.9-6.4-6.4
		c0-3.5,2.9-6.4,6.4-6.4C712.1,1564,715,1566.9,715,1570.4"/>
	<circle id="circle6" cx="708.6" cy="1570.4" r="6.4"/>
	<path id="path8" inkscape:connector-curvature="0" d="M148.1,1570.4c0,3.5-2.9,6.4-6.4,6.4c-3.5,0-6.4-2.9-6.4-6.4
		c0-3.5,2.9-6.4,6.4-6.4C145.2,1564,148.1,1566.9,148.1,1570.4"/>
	<circle id="circle10" cx="141.7" cy="1570.4" r="6.4"/>
	<path id="path12" inkscape:connector-curvature="0" d="M148.1,1003.6c0,3.5-2.9,6.4-6.4,6.4c-3.5,0-6.4-2.9-6.4-6.4
		c0-3.5,2.9-6.4,6.4-6.4C145.2,997.2,148.1,1000,148.1,1003.6"/>
	<circle id="circle14" cx="141.7" cy="1003.6" r="6.4"/>
	<path id="path16" inkscape:connector-curvature="0" d="M715,1003.6c0,3.5-2.9,6.4-6.4,6.4c-3.5,0-6.4-2.9-6.4-6.4
		c0-3.5,2.9-6.4,6.4-6.4C712.1,997.2,715,1000,715,1003.6"/>
	<circle id="circle18" cx="708.6" cy="1003.6" r="6.4"/>
	<g class="st1">
		<path d="M175.5,1065.8c-0.1-0.1-0.1-0.1-0.1-0.2v-19.8c0-0.1,0-0.2,0.1-0.2c0.1,0,0.1-0.1,0.2-0.1h1.1c0.1,0,0.2,0,0.2,0.1
			c0,0.1,0.1,0.1,0.1,0.2v19.8c0,0.1,0,0.1-0.1,0.2c-0.1,0.1-0.1,0.1-0.2,0.1h-1.1C175.6,1065.9,175.6,1065.8,175.5,1065.8z
			 M178.8,1047c-0.1-0.1-0.1-0.1-0.1-0.2v-1c0-0.1,0-0.2,0.1-0.2c0.1,0,0.1-0.1,0.2-0.1h8.4c0.1,0,0.2,0,0.2,0.1
			c0,0.1,0.1,0.1,0.1,0.2v1c0,0.1,0,0.1-0.1,0.2c-0.1,0.1-0.1,0.1-0.2,0.1H179C178.9,1047.1,178.9,1047,178.8,1047z M178.8,1056.2
			c-0.1-0.1-0.1-0.1-0.1-0.2v-1c0-0.1,0-0.2,0.1-0.2c0.1,0,0.1-0.1,0.2-0.1h7c0.1,0,0.2,0,0.2,0.1c0,0.1,0.1,0.1,0.1,0.2v1
			c0,0.1,0,0.1-0.1,0.2c-0.1,0.1-0.1,0.1-0.2,0.1h-7C178.9,1056.3,178.9,1056.3,178.8,1056.2z M178.8,1065.8
			c-0.1-0.1-0.1-0.1-0.1-0.2v-1c0-0.1,0-0.2,0.1-0.2c0.1,0,0.1-0.1,0.2-0.1h8.4c0.1,0,0.2,0,0.2,0.1c0,0.1,0.1,0.1,0.1,0.2v1
			c0,0.1,0,0.1-0.1,0.2c-0.1,0.1-0.1,0.1-0.2,0.1H179C178.9,1065.9,178.9,1065.8,178.8,1065.8z"/>
	</g>
	<g class="st1">
		<path d="M224.3,1065.3c-1-0.4-1.9-0.9-2.5-1.5c-0.1-0.1-0.1-0.1-0.1-0.2c0-0.1,0-0.2,0.1-0.2l0.7-0.8c0.1-0.1,0.3-0.1,0.4,0
			c0.6,0.5,1.3,0.9,2.1,1.3s1.7,0.6,2.6,0.7c0.2,0,0.3,0.1,0.3,0.3v1c0,0.1,0,0.2-0.1,0.2c-0.1,0-0.1,0.1-0.2,0
			C226.4,1066,225.4,1065.8,224.3,1065.3z M229.8,1066.1c-0.1,0-0.1,0-0.2-0.1c0-0.1-0.1-0.1-0.1-0.2v-1c0-0.2,0.1-0.3,0.3-0.3
			c1.3-0.1,2.4-0.6,3.1-1.3c0.7-0.7,1.1-1.7,1.1-2.8c0-1.1-0.4-2-1.1-2.7c-0.7-0.7-2-1.1-3.8-1.3l-1-0.1c-2-0.3-3.4-0.8-4.4-1.8
			c-1-0.9-1.5-2.1-1.5-3.6c0-1,0.2-2,0.6-2.8s1-1.5,1.8-2c0.8-0.5,1.7-0.8,2.8-0.9h0.1c0.1,0,0.1,0,0.2,0.1c0,0.1,0.1,0.1,0.1,0.2v1
			c0,0.2-0.1,0.3-0.3,0.3c-1.1,0.2-2,0.6-2.6,1.3c-0.6,0.7-0.9,1.6-0.9,2.6c0,1.1,0.4,2,1.1,2.6c0.8,0.7,2,1.1,3.7,1.3l1,0.1
			c2,0.3,3.5,0.8,4.4,1.8c1,0.9,1.4,2.1,1.4,3.7c0,1.1-0.2,2-0.7,2.8c-0.5,0.8-1.1,1.5-2,2C232.2,1065.7,231.1,1066,229.8,1066.1
			L229.8,1066.1z M229.8,1046.8c-0.2,0-0.3-0.2-0.3-0.3v-1c0-0.1,0-0.2,0.1-0.2c0.1,0,0.1-0.1,0.2,0c0.9,0.1,1.8,0.3,2.6,0.5
			c0.8,0.3,1.5,0.6,2.1,1.1c0.2,0.1,0.2,0.3,0.1,0.4l-0.6,0.9c-0.1,0.1-0.3,0.2-0.4,0.1C232.3,1047.4,231,1047,229.8,1046.8z"/>
	</g>
	<g class="st1">
		<path d="M270,1065.8c-0.1-0.1-0.1-0.1-0.1-0.2v-19.8c0-0.1,0-0.2,0.1-0.2c0.1,0,0.1-0.1,0.2-0.1h1.1c0.1,0,0.2,0,0.2,0.1
			c0,0.1,0.1,0.1,0.1,0.2v19.8c0,0.1,0,0.1-0.1,0.2c-0.1,0.1-0.1,0.1-0.2,0.1h-1.1C270.1,1065.9,270,1065.8,270,1065.8z
			 M273.3,1057.6c-0.1,0-0.1-0.1-0.1-0.2v-1.6c0-0.1,0-0.2,0.1-0.4l8-9.7c0.1-0.1,0.2-0.2,0.3-0.2c0.1,0,0.2-0.1,0.3-0.1h1.4
			c0.1,0,0.2,0,0.2,0.1c0,0.1,0,0.1,0,0.2l-9.8,11.7C273.5,1057.6,273.4,1057.6,273.3,1057.6z M282.1,1065.8c-0.1,0-0.1-0.1-0.2-0.2
			l-5.2-9.1c0-0.1-0.1-0.1-0.1-0.2c0-0.1,0-0.2,0.1-0.2l0.7-0.9c0.1-0.1,0.1-0.1,0.2-0.1c0.1,0,0.1,0,0.2,0.1l6,10.4l0,0.1
			c0,0.1-0.1,0.2-0.2,0.2h-1.4C282.3,1065.9,282.2,1065.9,282.1,1065.8z"/>
	</g>
	<g class="st1">
		<path d="M323.2,1065.8c-0.1-0.1-0.1-0.1-0.1-0.2v-19.8c0-0.1,0-0.2,0.1-0.2c0.1,0,0.1-0.1,0.2-0.1h1.1c0.1,0,0.2,0,0.2,0.1
			c0,0.1,0.1,0.1,0.1,0.2v19.8c0,0.1,0,0.1-0.1,0.2s-0.1,0.1-0.2,0.1h-1.1C323.3,1065.9,323.2,1065.8,323.2,1065.8z"/>
	</g>
	<g class="st1">
		<path d="M366,1065.3c-1.1-0.4-1.9-0.9-2.5-1.5c-0.1-0.1-0.1-0.1-0.1-0.2c0-0.1,0-0.2,0.1-0.2l0.7-0.8c0.1-0.1,0.3-0.1,0.4,0
			c0.6,0.5,1.3,0.9,2.1,1.3c0.8,0.4,1.7,0.6,2.6,0.7c0.2,0,0.3,0.1,0.3,0.3v1c0,0.1,0,0.2-0.1,0.2c-0.1,0-0.1,0.1-0.2,0
			C368.2,1066,367.1,1065.8,366,1065.3z M371.5,1066.1c-0.1,0-0.1,0-0.2-0.1c-0.1-0.1-0.1-0.1-0.1-0.2v-1c0-0.2,0.1-0.3,0.3-0.3
			c1.3-0.1,2.3-0.6,3.1-1.3c0.7-0.7,1.1-1.7,1.1-2.8c0-1.1-0.4-2-1.1-2.7c-0.7-0.7-2-1.1-3.8-1.3l-1-0.1c-2-0.3-3.4-0.8-4.4-1.8
			c-1-0.9-1.5-2.1-1.5-3.6c0-1,0.2-2,0.6-2.8s1-1.5,1.8-2c0.8-0.5,1.7-0.8,2.8-0.9h0.1c0.1,0,0.1,0,0.2,0.1c0,0.1,0.1,0.1,0.1,0.2v1
			c0,0.2-0.1,0.3-0.3,0.3c-1.1,0.2-2,0.6-2.6,1.3c-0.6,0.7-0.9,1.6-0.9,2.6c0,1.1,0.4,2,1.1,2.6c0.8,0.7,2,1.1,3.7,1.3l1,0.1
			c2,0.3,3.5,0.8,4.4,1.8c1,0.9,1.4,2.1,1.4,3.7c0,1.1-0.2,2-0.7,2.8c-0.4,0.8-1.1,1.5-2,2C373.9,1065.7,372.8,1066,371.5,1066.1
			L371.5,1066.1z M371.5,1046.8c-0.2,0-0.3-0.2-0.3-0.3v-1c0-0.1,0-0.2,0.1-0.2c0.1,0,0.1-0.1,0.2,0c0.9,0.1,1.8,0.3,2.6,0.5
			c0.8,0.3,1.5,0.6,2.1,1.1c0.2,0.1,0.2,0.3,0.1,0.4l-0.6,0.9c-0.1,0.1-0.3,0.2-0.4,0.1C374,1047.4,372.8,1047,371.5,1046.8z"/>
	</g>
	<g class="st1">
		<path d="M409.6,1047c-0.1-0.1-0.1-0.1-0.1-0.2v-1c0-0.1,0-0.2,0.1-0.2c0.1,0,0.1-0.1,0.2-0.1h13.8c0.1,0,0.2,0,0.2,0.1
			c0,0.1,0.1,0.1,0.1,0.2v1c0,0.1,0,0.1-0.1,0.2c-0.1,0.1-0.1,0.1-0.2,0.1h-13.8C409.7,1047.1,409.6,1047,409.6,1047z M415.9,1065.8
			c-0.1-0.1-0.1-0.1-0.1-0.2v-16.7c0-0.1,0-0.2,0.1-0.2c0.1,0,0.1-0.1,0.2-0.1h1.1c0.1,0,0.2,0,0.2,0.1c0,0.1,0.1,0.1,0.1,0.2v16.7
			c0,0.1,0,0.1-0.1,0.2s-0.1,0.1-0.2,0.1h-1.1C416,1065.9,415.9,1065.8,415.9,1065.8z"/>
	</g>
	<g class="st1">
		<path d="M457,1065.8c0-0.1,0-0.1,0-0.2l6.2-17.1c0.1-0.1,0.1-0.2,0.2-0.2c0,0,0.1,0,0.1,0c0,0,0.1,0.1,0.1,0.1l0.6,1.6
			c0,0.1,0.1,0.1,0.1,0.2s0,0.1-0.1,0.2l-3,8.4h5.9c0.2,0,0.3,0.1,0.4,0.2l0.4,1l0,0.1c0,0.1,0,0.1-0.1,0.1c0,0-0.1,0.1-0.2,0.1
			h-6.9l-1.8,5.1c0,0.1-0.1,0.2-0.2,0.2c-0.1,0-0.1,0.1-0.2,0.1h-1.2C457.1,1065.9,457,1065.8,457,1065.8z M471.3,1065.6l-7-19.8
			l0-0.1c0-0.1,0-0.1,0.1-0.2c0,0,0.1-0.1,0.2-0.1h1.1c0.2,0,0.3,0.1,0.4,0.3l7.1,19.8l0,0.1c0,0.1,0,0.1-0.1,0.1
			c0,0-0.1,0.1-0.2,0.1h-1.2C471.4,1065.9,471.3,1065.8,471.3,1065.6z"/>
	</g>
	<g class="st1">
		<path d="M506.2,1065.8c-0.1-0.1-0.1-0.1-0.1-0.2v-19.8c0-0.1,0-0.2,0.1-0.2c0.1,0,0.1-0.1,0.2-0.1h1.1c0.1,0,0.2,0,0.2,0.1
			c0,0.1,0.1,0.1,0.1,0.2v19.8c0,0.1,0,0.1-0.1,0.2s-0.1,0.1-0.2,0.1h-1.1C506.3,1065.9,506.3,1065.8,506.2,1065.8z M509.5,1047
			c-0.1-0.1-0.1-0.1-0.1-0.2v-1c0-0.1,0-0.2,0.1-0.2c0.1,0,0.1-0.1,0.2-0.1h8.4c0.1,0,0.2,0,0.2,0.1c0,0.1,0.1,0.1,0.1,0.2v1
			c0,0.1,0,0.1-0.1,0.2s-0.1,0.1-0.2,0.1h-8.4C509.6,1047.1,509.6,1047,509.5,1047z M509.5,1056.5c-0.1-0.1-0.1-0.1-0.1-0.2v-1
			c0-0.1,0-0.2,0.1-0.2c0.1,0,0.1-0.1,0.2-0.1h7c0.1,0,0.2,0,0.2,0.1c0,0.1,0.1,0.1,0.1,0.2v1c0,0.1,0,0.1-0.1,0.2
			c-0.1,0.1-0.1,0.1-0.2,0.1h-7C509.6,1056.5,509.6,1056.5,509.5,1056.5z"/>
	</g>
	<g class="st1">
		<path d="M554.7,1064c-1-1.2-1.5-3-1.5-5.2v-9.1c0-0.1,0-0.2,0.1-0.2c0.1,0,0.1-0.1,0.2-0.1h1.1c0.1,0,0.2,0,0.2,0.1
			c0,0.1,0.1,0.1,0.1,0.2v9.1c0,1.7,0.4,3,1.1,3.9c0.7,1,1.7,1.5,3.1,1.8c0.2,0,0.3,0.1,0.3,0.3v1c0,0.1,0,0.2-0.1,0.2
			c-0.1,0-0.1,0.1-0.2,0C557.1,1065.9,555.7,1065.2,554.7,1064z M556.3,1046.2c-0.1-0.1-0.1-0.1-0.1-0.2v-1.6c0-0.1,0-0.2,0.1-0.2
			c0.1,0,0.1-0.1,0.2-0.1h1.1c0.1,0,0.2,0,0.2,0.1s0.1,0.1,0.1,0.2v1.6c0,0.1,0,0.2-0.1,0.2c0,0.1-0.1,0.1-0.2,0.1h-1.1
			C556.4,1046.3,556.3,1046.2,556.3,1046.2z M561.1,1066.1c-0.1,0-0.1,0-0.2-0.1c0-0.1-0.1-0.1-0.1-0.2v-1c0-0.2,0.1-0.3,0.3-0.3
			c1.3-0.2,2.4-0.8,3.1-1.7s1.1-2.3,1.1-4v-9.1c0-0.1,0-0.2,0.1-0.2c0.1,0,0.1-0.1,0.2-0.1h1.1c0.1,0,0.2,0,0.2,0.1
			c0,0.1,0.1,0.1,0.1,0.2v9.1c0,2.2-0.5,3.9-1.5,5.1C564.5,1065.2,563,1065.9,561.1,1066.1L561.1,1066.1z M562.3,1046.2
			c-0.1-0.1-0.1-0.1-0.1-0.2v-1.6c0-0.1,0-0.2,0.1-0.2c0.1,0,0.1-0.1,0.2-0.1h1.1c0.1,0,0.2,0,0.2,0.1s0.1,0.1,0.1,0.2v1.6
			c0,0.1,0,0.2-0.1,0.2c0,0.1-0.1,0.1-0.2,0.1h-1.1C562.4,1046.3,562.3,1046.2,562.3,1046.2z"/>
	</g>
	<g class="st1">
		<path d="M612.9,1065.8c-0.1,0-0.2-0.1-0.2-0.2l-11.9-19.4c-0.1-0.1-0.1-0.2-0.1-0.4c0-0.2,0.1-0.3,0.3-0.3h1c0.1,0,0.2,0,0.3,0.1
			c0.1,0,0.1,0.1,0.2,0.2l12,19.5c0,0.1,0.1,0.1,0.1,0.2c0,0.1,0,0.1,0,0.2c0,0.1-0.1,0.2-0.3,0.2h-1
			C613.1,1065.9,613,1065.9,612.9,1065.8z M600.7,1065.8c-0.1-0.1-0.1-0.1-0.1-0.2v-16.2c0-0.2,0-0.2,0.1-0.2c0.1,0,0.2,0.1,0.2,0.1
			l1.2,1.9c0.1,0.1,0.1,0.2,0.1,0.4v14c0,0.1,0,0.1-0.1,0.2c-0.1,0.1-0.1,0.1-0.2,0.1h-1C600.8,1065.9,600.7,1065.8,600.7,1065.8z
			 M613,1060.1c-0.1-0.1-0.1-0.2-0.1-0.4v-14c0-0.1,0-0.2,0.1-0.2c0.1,0,0.1-0.1,0.2-0.1h1c0.1,0,0.2,0,0.2,0.1
			c0,0.1,0.1,0.1,0.1,0.2v16.1c0,0.2,0,0.2-0.2,0.2c-0.1,0-0.1,0-0.2-0.1L613,1060.1z"/>
	</g>
	<g class="st1">
		<path d="M647.9,1065.8c-0.1-0.1-0.1-0.1-0.1-0.2v-19.8c0-0.1,0-0.2,0.1-0.2c0.1,0,0.1-0.1,0.2-0.1h1.1c0.1,0,0.2,0,0.2,0.1
			c0,0.1,0.1,0.1,0.1,0.2v19.8c0,0.1,0,0.1-0.1,0.2s-0.1,0.1-0.2,0.1h-1.1C648.1,1065.9,648,1065.8,647.9,1065.8z M651.2,1047
			c-0.1-0.1-0.1-0.1-0.1-0.2v-1c0-0.1,0-0.2,0.1-0.2c0.1,0,0.1-0.1,0.2-0.1h8.4c0.1,0,0.2,0,0.2,0.1c0,0.1,0.1,0.1,0.1,0.2v1
			c0,0.1,0,0.1-0.1,0.2s-0.1,0.1-0.2,0.1h-8.4C651.4,1047.1,651.3,1047,651.2,1047z M651.2,1056.5c-0.1-0.1-0.1-0.1-0.1-0.2v-1
			c0-0.1,0-0.2,0.1-0.2c0.1,0,0.1-0.1,0.2-0.1h7c0.1,0,0.2,0,0.2,0.1c0,0.1,0.1,0.1,0.1,0.2v1c0,0.1,0,0.1-0.1,0.2
			c-0.1,0.1-0.1,0.1-0.2,0.1h-7C651.4,1056.5,651.3,1056.5,651.2,1056.5z"/>
	</g>
	<g class="st1">
		<path d="M174.3,1118.2c-0.1-0.1-0.1-0.1-0.1-0.2v-1c0-0.1,0-0.1,0-0.2c0-0.1,0.1-0.1,0.1-0.2l11.7-18.5c0.1-0.1,0.2-0.2,0.4-0.2
			h0.4c0.1,0,0.2,0,0.2,0.1c0,0.1,0.1,0.1,0.1,0.2v1c0,0.1,0,0.1,0,0.2c0,0.1-0.1,0.1-0.1,0.2l-11.7,18.5c-0.1,0.1-0.2,0.2-0.4,0.2
			h-0.4C174.4,1118.3,174.3,1118.3,174.3,1118.2z M174.7,1099.4c-0.1-0.1-0.1-0.1-0.1-0.2v-1c0-0.1,0-0.2,0.1-0.2
			c0.1,0,0.1-0.1,0.2-0.1h9.1c0.1,0,0.2,0,0.2,0.1c0,0.1,0,0.2,0,0.3l-0.7,1c-0.1,0.1-0.2,0.2-0.4,0.2h-8.3
			C174.8,1099.5,174.7,1099.5,174.7,1099.4z M177.1,1118.2c0-0.1,0-0.2,0-0.3l0.7-1c0.1-0.1,0.2-0.2,0.4-0.2h8.7
			c0.1,0,0.2,0,0.2,0.1c0,0.1,0.1,0.1,0.1,0.2v1c0,0.1,0,0.1-0.1,0.2s-0.1,0.1-0.2,0.1h-9.6C177.2,1118.3,177.1,1118.3,177.1,1118.2
			z"/>
	</g>
	<g class="st1">
		<path d="M222.7,1118.2c-0.1-0.1-0.1-0.1-0.1-0.2v-19.8c0-0.1,0-0.2,0.1-0.2c0.1,0,0.1-0.1,0.2-0.1h1.1c0.1,0,0.2,0,0.2,0.1
			c0,0.1,0.1,0.1,0.1,0.2v19.8c0,0.1,0,0.1-0.1,0.2c-0.1,0.1-0.1,0.1-0.2,0.1h-1.1C222.9,1118.3,222.8,1118.3,222.7,1118.2z
			 M226,1099.4c-0.1-0.1-0.1-0.1-0.1-0.2v-1c0-0.1,0-0.2,0.1-0.2c0.1,0,0.1-0.1,0.2-0.1h8.4c0.1,0,0.2,0,0.2,0.1
			c0,0.1,0.1,0.1,0.1,0.2v1c0,0.1,0,0.1-0.1,0.2c-0.1,0.1-0.1,0.1-0.2,0.1h-8.4C226.2,1099.5,226.1,1099.5,226,1099.4z M226,1108.7
			c-0.1-0.1-0.1-0.1-0.1-0.2v-1c0-0.1,0-0.2,0.1-0.2c0.1,0,0.1-0.1,0.2-0.1h7c0.1,0,0.2,0,0.2,0.1c0,0.1,0.1,0.1,0.1,0.2v1
			c0,0.1,0,0.1-0.1,0.2c-0.1,0.1-0.1,0.1-0.2,0.1h-7C226.2,1108.8,226.1,1108.7,226,1108.7z M226,1118.2c-0.1-0.1-0.1-0.1-0.1-0.2
			v-1c0-0.1,0-0.2,0.1-0.2c0.1,0,0.1-0.1,0.2-0.1h8.4c0.1,0,0.2,0,0.2,0.1c0,0.1,0.1,0.1,0.1,0.2v1c0,0.1,0,0.1-0.1,0.2
			c-0.1,0.1-0.1,0.1-0.2,0.1h-8.4C226.2,1118.3,226.1,1118.3,226,1118.2z"/>
	</g>
	<g class="st1">
		<path d="M270,1118.2c-0.1-0.1-0.1-0.1-0.1-0.2v-19.8c0-0.1,0-0.2,0.1-0.2c0.1,0,0.1-0.1,0.2-0.1h1.1c0.1,0,0.2,0,0.2,0.1
			c0,0.1,0.1,0.1,0.1,0.2v19.8c0,0.1,0,0.1-0.1,0.2c-0.1,0.1-0.1,0.1-0.2,0.1h-1.1C270.1,1118.3,270,1118.3,270,1118.2z
			 M273.2,1108.7c-0.1-0.1-0.1-0.1-0.1-0.2v-1c0-0.1,0-0.2,0.1-0.2c0.1,0,0.1-0.1,0.2-0.1h6.9c0.1,0,0.2,0,0.2,0.1
			c0,0.1,0.1,0.1,0.1,0.2v1c0,0.1,0,0.1-0.1,0.2s-0.1,0.1-0.2,0.1h-6.9C273.3,1108.8,273.2,1108.7,273.2,1108.7z M282.1,1118.2
			c-0.1-0.1-0.1-0.1-0.1-0.2v-19.8c0-0.1,0-0.2,0.1-0.2c0.1,0,0.1-0.1,0.2-0.1h1.1c0.1,0,0.2,0,0.2,0.1c0,0.1,0.1,0.1,0.1,0.2v19.8
			c0,0.1,0,0.1-0.1,0.2c-0.1,0.1-0.1,0.1-0.2,0.1h-1.1C282.3,1118.3,282.2,1118.3,282.1,1118.2z"/>
	</g>
	<g class="st1">
		<path d="M329.4,1118.3c-0.1,0-0.2-0.1-0.2-0.2l-11.9-19.4c-0.1-0.1-0.1-0.2-0.1-0.4c0-0.2,0.1-0.3,0.3-0.3h1c0.1,0,0.2,0,0.3,0.1
			c0.1,0,0.1,0.1,0.2,0.2l12,19.5c0,0.1,0.1,0.1,0.1,0.2c0,0.1,0,0.1,0,0.2c0,0.1-0.1,0.2-0.3,0.2h-1
			C329.6,1118.3,329.5,1118.3,329.4,1118.3z M317.2,1118.2c-0.1-0.1-0.1-0.1-0.1-0.2v-16.2c0-0.2,0-0.2,0.1-0.2
			c0.1,0,0.2,0.1,0.2,0.1l1.2,1.9c0.1,0.1,0.1,0.2,0.1,0.4v14c0,0.1,0,0.1-0.1,0.2c-0.1,0.1-0.1,0.1-0.2,0.1h-1
			C317.4,1118.3,317.3,1118.3,317.2,1118.2z M329.5,1112.6c-0.1-0.1-0.1-0.2-0.1-0.4v-14c0-0.1,0-0.2,0.1-0.2c0.1,0,0.1-0.1,0.2-0.1
			h1c0.1,0,0.2,0,0.2,0.1c0,0.1,0.1,0.1,0.1,0.2v16.1c0,0.2,0,0.2-0.2,0.2c-0.1,0-0.1,0-0.2-0.1L329.5,1112.6z"/>
	</g>
	<g class="st1">
		<path d="M363.2,1118.2c-0.1-0.1-0.1-0.1-0.1-0.2v-1c0-0.1,0-0.1,0-0.2c0-0.1,0.1-0.1,0.1-0.2l11.7-18.5c0.1-0.1,0.2-0.2,0.4-0.2
			h0.5c0.1,0,0.2,0,0.2,0.1c0,0.1,0.1,0.1,0.1,0.2v1c0,0.1,0,0.1,0,0.2c0,0.1-0.1,0.1-0.1,0.2l-11.7,18.5c-0.1,0.1-0.2,0.2-0.4,0.2
			h-0.5C363.4,1118.3,363.3,1118.3,363.2,1118.2z M363.7,1099.4c-0.1-0.1-0.1-0.1-0.1-0.2v-1c0-0.1,0-0.2,0.1-0.2
			c0.1,0,0.1-0.1,0.2-0.1h9.2c0.1,0,0.2,0,0.2,0.1c0,0.1,0,0.2,0,0.3l-0.7,1c-0.1,0.1-0.2,0.2-0.4,0.2h-8.3
			C363.8,1099.5,363.7,1099.5,363.7,1099.4z M366,1118.2c0-0.1,0-0.2,0-0.3l0.7-1c0.1-0.1,0.2-0.2,0.4-0.2h8.7c0.1,0,0.2,0,0.2,0.1
			c0,0.1,0.1,0.1,0.1,0.2v1c0,0.1,0,0.1-0.1,0.2s-0.1,0.1-0.2,0.1h-9.6C366.1,1118.3,366.1,1118.3,366,1118.2z"/>
	</g>
	<g class="st1">
		<path d="M414.7,1118.2c-0.1,0-0.1-0.1-0.1-0.2l-4.9-19.8l0-0.1c0-0.1,0-0.1,0.1-0.1s0.1-0.1,0.2-0.1h1.1c0.1,0,0.2,0,0.3,0.1
			c0.1,0,0.1,0.1,0.1,0.2l4.7,19.6c0,0.1,0,0.1,0,0.2c0,0.2-0.1,0.3-0.3,0.3h-1C414.9,1118.3,414.8,1118.3,414.7,1118.2z
			 M426,1118.2c0,0-0.1-0.1-0.1-0.2l-4.8-16.8H421l-3.9,13.6c0,0.1,0,0.1-0.1,0.1s-0.1,0.1-0.1,0.1c-0.1,0-0.1-0.1-0.2-0.2l-0.5-2.1
			c0-0.1,0-0.2,0-0.4l3.9-14.1c0-0.1,0.1-0.2,0.1-0.2c0,0,0.1-0.1,0.2-0.1h0.9c0.1,0,0.2,0,0.2,0.1c0,0.1,0.1,0.1,0.1,0.2l5.5,19.6
			l0,0.1c0,0.2-0.1,0.3-0.3,0.3h-1C426.1,1118.3,426.1,1118.3,426,1118.2z M427.4,1112.7c0-0.2-0.1-0.3,0-0.4l3.3-14.1
			c0-0.1,0.1-0.2,0.1-0.2c0.1,0,0.1-0.1,0.3-0.1h1c0.1,0,0.2,0,0.2,0.1s0,0.1,0,0.2l-4,16.5c0,0.1,0,0.1-0.1,0.1s-0.1,0.1-0.1,0.1
			c-0.1,0-0.1-0.1-0.2-0.2L427.4,1112.7z"/>
	</g>
	<g class="st1">
		<path d="M457,1118.2c0-0.1,0-0.1,0-0.2l6.2-17.1c0.1-0.1,0.1-0.2,0.2-0.2c0,0,0.1,0,0.1,0c0,0,0.1,0.1,0.1,0.1l0.6,1.6
			c0,0.1,0.1,0.1,0.1,0.2s0,0.1-0.1,0.2l-3,8.4h5.9c0.2,0,0.3,0.1,0.4,0.2l0.4,1l0,0.1c0,0.1,0,0.1-0.1,0.1c0,0-0.1,0.1-0.2,0.1
			h-6.9l-1.8,5.1c0,0.1-0.1,0.2-0.2,0.2c-0.1,0-0.1,0.1-0.2,0.1h-1.2C457.1,1118.3,457,1118.3,457,1118.2z M471.3,1118.1l-7-19.8
			l0-0.1c0-0.1,0-0.1,0.1-0.2c0,0,0.1-0.1,0.2-0.1h1.1c0.2,0,0.3,0.1,0.4,0.3l7.1,19.8l0,0.1c0,0.1,0,0.1-0.1,0.1
			c0,0-0.1,0.1-0.2,0.1h-1.2C471.4,1118.3,471.3,1118.2,471.3,1118.1z"/>
	</g>
	<g class="st1">
		<path d="M518.4,1118.3c-0.1,0-0.2-0.1-0.2-0.2l-11.9-19.4c-0.1-0.1-0.1-0.2-0.1-0.4c0-0.2,0.1-0.3,0.3-0.3h1c0.1,0,0.2,0,0.3,0.1
			c0.1,0,0.1,0.1,0.2,0.2l12,19.5c0,0.1,0.1,0.1,0.1,0.2c0,0.1,0,0.1,0,0.2c0,0.1-0.1,0.2-0.3,0.2h-1
			C518.6,1118.3,518.5,1118.3,518.4,1118.3z M506.2,1118.2c-0.1-0.1-0.1-0.1-0.1-0.2v-16.2c0-0.2,0-0.2,0.1-0.2
			c0.1,0,0.2,0.1,0.2,0.1l1.2,1.9c0.1,0.1,0.1,0.2,0.1,0.4v14c0,0.1,0,0.1-0.1,0.2c-0.1,0.1-0.1,0.1-0.2,0.1h-1
			C506.3,1118.3,506.3,1118.3,506.2,1118.2z M518.5,1112.6c-0.1-0.1-0.1-0.2-0.1-0.4v-14c0-0.1,0-0.2,0.1-0.2c0.1,0,0.1-0.1,0.2-0.1
			h1c0.1,0,0.2,0,0.2,0.1c0,0.1,0.1,0.1,0.1,0.2v16.1c0,0.2,0,0.2-0.2,0.2c-0.1,0-0.1,0-0.2-0.1L518.5,1112.6z"/>
	</g>
	<g class="st1">
		<path d="M552.2,1118.2c-0.1-0.1-0.1-0.1-0.1-0.2v-1c0-0.1,0-0.1,0-0.2c0-0.1,0.1-0.1,0.1-0.2l11.7-18.5c0.1-0.1,0.2-0.2,0.4-0.2
			h0.5c0.1,0,0.2,0,0.2,0.1c0,0.1,0.1,0.1,0.1,0.2v1c0,0.1,0,0.1,0,0.2c0,0.1-0.1,0.1-0.1,0.2l-11.7,18.5c-0.1,0.1-0.2,0.2-0.4,0.2
			h-0.5C552.3,1118.3,552.3,1118.3,552.2,1118.2z M552.6,1099.4c-0.1-0.1-0.1-0.1-0.1-0.2v-1c0-0.1,0-0.2,0.1-0.2
			c0.1,0,0.1-0.1,0.2-0.1h9.2c0.1,0,0.2,0,0.2,0.1c0,0.1,0,0.2,0,0.3l-0.7,1c-0.1,0.1-0.2,0.2-0.4,0.2h-8.3
			C552.8,1099.5,552.7,1099.5,552.6,1099.4z M555,1118.2c0-0.1,0-0.2,0-0.3l0.7-1c0.1-0.1,0.2-0.2,0.4-0.2h8.7c0.1,0,0.2,0,0.2,0.1
			c0,0.1,0.1,0.1,0.1,0.2v1c0,0.1,0,0.1-0.1,0.2s-0.1,0.1-0.2,0.1h-9.6C555.1,1118.3,555,1118.3,555,1118.2z"/>
	</g>
	<g class="st1">
		<path d="M606.6,1118.2c-0.1-0.1-0.1-0.1-0.1-0.2v-19.8c0-0.1,0-0.2,0.1-0.2c0.1,0,0.1-0.1,0.2-0.1h1.1c0.1,0,0.2,0,0.2,0.1
			c0,0.1,0.1,0.1,0.1,0.2v19.8c0,0.1,0,0.1-0.1,0.2s-0.1,0.1-0.2,0.1h-1.1C606.8,1118.3,606.7,1118.3,606.6,1118.2z"/>
	</g>
	<g class="st1">
		<path d="M649.6,1117.2c-0.9-0.8-1.6-1.8-2.1-3.1c-0.2-0.6-0.3-1.3-0.4-2.1c-0.1-0.9-0.1-2.1-0.1-3.8c0-1.7,0-2.9,0.1-3.8
			s0.2-1.6,0.4-2.1c0.4-1.3,1.1-2.4,2.1-3.1s2.1-1.2,3.5-1.4h0.1c0.1,0,0.1,0,0.2,0.1c0,0.1,0.1,0.1,0.1,0.2v1
			c0,0.2-0.1,0.3-0.3,0.3c-1,0.1-1.8,0.5-2.4,1.1c-0.7,0.6-1.1,1.4-1.5,2.3c-0.2,0.4-0.3,1.1-0.4,1.9c-0.1,0.8-0.1,2-0.1,3.6
			c0,1.6,0,2.8,0.1,3.6c0.1,0.8,0.2,1.5,0.4,1.9c0.3,1,0.8,1.7,1.5,2.3c0.6,0.6,1.5,0.9,2.4,1.1c0.2,0,0.3,0.1,0.3,0.3v1
			c0,0.1,0,0.2-0.1,0.2s-0.1,0.1-0.2,0C651.7,1118.4,650.6,1117.9,649.6,1117.2z M655.2,1118.6c-0.1,0-0.1,0-0.2-0.1
			c0-0.1-0.1-0.1-0.1-0.2v-1c0-0.2,0.1-0.3,0.3-0.3c1-0.2,1.8-0.5,2.4-1.1c0.7-0.6,1.1-1.3,1.5-2.3c0.3-0.9,0.5-2.2,0.5-3.9
			c0-0.1-0.1-0.2-0.2-0.2h-4.6c-0.1,0-0.2,0-0.2-0.1c-0.1-0.1-0.1-0.1-0.1-0.2v-0.9c0-0.1,0-0.2,0.1-0.2c0.1,0,0.1-0.1,0.2-0.1h6.2
			c0.1,0,0.2,0,0.2,0.1c0,0.1,0.1,0.1,0.1,0.2v1.2c0,1-0.1,1.8-0.2,2.6c-0.1,0.8-0.2,1.4-0.4,1.9c-0.4,1.3-1.1,2.4-2.1,3.1
			C657.8,1117.9,656.6,1118.4,655.2,1118.6L655.2,1118.6z M659.4,1102.3c-0.1,0-0.2,0-0.2-0.2c-0.4-0.8-1-1.5-1.6-1.9
			s-1.4-0.8-2.3-0.9c-0.2,0-0.3-0.1-0.3-0.3v-1c0-0.1,0-0.2,0.1-0.2c0.1,0,0.1-0.1,0.2,0c1.3,0.2,2.3,0.6,3.2,1.2s1.6,1.5,2,2.4
			c0,0.1,0.1,0.2,0.1,0.2c0,0.1,0,0.1-0.1,0.2l-1,0.5C659.5,1102.3,659.5,1102.3,659.4,1102.3z"/>
	</g>
	<g class="st1">
		<path d="M175.5,1170.7c-0.1-0.1-0.1-0.1-0.1-0.2v-19.8c0-0.1,0-0.2,0.1-0.2c0.1,0,0.1-0.1,0.2-0.1h1.1c0.1,0,0.2,0,0.2,0.1
			c0,0.1,0.1,0.1,0.1,0.2v19.8c0,0.1,0,0.1-0.1,0.2c-0.1,0.1-0.1,0.1-0.2,0.1h-1.1C175.6,1170.8,175.6,1170.7,175.5,1170.7z
			 M178.8,1170.7c-0.1-0.1-0.1-0.1-0.1-0.2v-1c0-0.1,0-0.2,0.1-0.2c0.1,0,0.1-0.1,0.2-0.1h2.9c1.4,0,2.5-0.2,3.3-0.7
			c0.8-0.5,1.5-1.3,1.8-2.3c0.2-0.5,0.3-1.2,0.4-2c0.1-0.8,0.1-2,0.1-3.6c0-1.6,0-2.8-0.1-3.6c-0.1-0.8-0.2-1.4-0.4-2
			c-0.4-1.1-1-1.8-1.8-2.3c-0.9-0.5-2-0.7-3.3-0.7H179c-0.1,0-0.1,0-0.2-0.1s-0.1-0.1-0.1-0.2v-1c0-0.1,0-0.2,0.1-0.2
			c0.1,0,0.1-0.1,0.2-0.1h3.1c3.4,0,5.6,1.4,6.5,4.1c0.2,0.6,0.3,1.3,0.4,2.2c0.1,0.8,0.1,2.1,0.1,3.9c0,1.8,0,3.1-0.1,3.9
			c-0.1,0.8-0.2,1.5-0.4,2.2c-0.9,2.8-3.1,4.1-6.5,4.1H179C178.9,1170.8,178.8,1170.7,178.8,1170.7z"/>
	</g>
	<g class="st1">
		<path d="M222.7,1170.7c-0.1-0.1-0.1-0.1-0.1-0.2v-19.8c0-0.1,0-0.2,0.1-0.2c0.1,0,0.1-0.1,0.2-0.1h1.1c0.1,0,0.2,0,0.2,0.1
			c0,0.1,0.1,0.1,0.1,0.2v19.8c0,0.1,0,0.1-0.1,0.2c-0.1,0.1-0.1,0.1-0.2,0.1h-1.1C222.9,1170.8,222.8,1170.7,222.7,1170.7z
			 M226,1161.5c-0.1-0.1-0.1-0.1-0.1-0.2v-1c0-0.1,0-0.2,0.1-0.2c0.1,0,0.1-0.1,0.2-0.1h3.5c1.5,0,2.6-0.3,3.4-1
			c0.8-0.7,1.2-1.7,1.2-3s-0.4-2.3-1.2-3c-0.8-0.7-1.9-1.1-3.4-1.1h-3.5c-0.1,0-0.1,0-0.2-0.1s-0.1-0.1-0.1-0.2v-1
			c0-0.1,0-0.2,0.1-0.2c0.1,0,0.1-0.1,0.2-0.1h3.5c1.3,0,2.4,0.2,3.3,0.7c0.9,0.5,1.6,1.1,2.1,2s0.8,1.9,0.8,3
			c0,1.1-0.2,2.1-0.7,2.9s-1.2,1.5-2.1,2c-1,0.5-2.1,0.7-3.5,0.7h-3.4C226.2,1161.6,226.1,1161.6,226,1161.5z M234.5,1170.7
			c-0.1,0-0.1-0.1-0.1-0.2l-3.4-7.1c-0.1-0.1-0.1-0.2,0-0.3c0,0,0.1-0.1,0.2-0.1c0.1,0,0.1,0,0.1,0c0.4,0,0.7-0.1,0.9-0.2
			c0,0,0.1,0,0.1,0c0.1,0,0.2,0.1,0.2,0.2l3.7,7.4c0,0,0,0.1,0,0.1c0,0.1-0.1,0.2-0.2,0.2h-1.3
			C234.6,1170.8,234.6,1170.7,234.5,1170.7z"/>
	</g>
	<g class="st1">
		<path d="M270,1170.7c-0.1-0.1-0.1-0.1-0.1-0.2v-19.8c0-0.1,0-0.2,0.1-0.2c0.1,0,0.1-0.1,0.2-0.1h1.1c0.1,0,0.2,0,0.2,0.1
			c0,0.1,0.1,0.1,0.1,0.2v19.8c0,0.1,0,0.1-0.1,0.2c-0.1,0.1-0.1,0.1-0.2,0.1h-1.1C270.1,1170.8,270,1170.7,270,1170.7z
			 M273.3,1151.9c-0.1-0.1-0.1-0.1-0.1-0.2v-1c0-0.1,0-0.2,0.1-0.2c0.1,0,0.1-0.1,0.2-0.1h8.4c0.1,0,0.2,0,0.2,0.1
			c0,0.1,0.1,0.1,0.1,0.2v1c0,0.1,0,0.1-0.1,0.2c-0.1,0.1-0.1,0.1-0.2,0.1h-8.4C273.4,1151.9,273.3,1151.9,273.3,1151.9z
			 M273.3,1161.1c-0.1-0.1-0.1-0.1-0.1-0.2v-1c0-0.1,0-0.2,0.1-0.2c0.1,0,0.1-0.1,0.2-0.1h7c0.1,0,0.2,0,0.2,0.1
			c0,0.1,0.1,0.1,0.1,0.2v1c0,0.1,0,0.1-0.1,0.2c-0.1,0.1-0.1,0.1-0.2,0.1h-7C273.4,1161.2,273.3,1161.2,273.3,1161.1z
			 M273.3,1170.7c-0.1-0.1-0.1-0.1-0.1-0.2v-1c0-0.1,0-0.2,0.1-0.2c0.1,0,0.1-0.1,0.2-0.1h8.4c0.1,0,0.2,0,0.2,0.1
			c0,0.1,0.1,0.1,0.1,0.2v1c0,0.1,0,0.1-0.1,0.2c-0.1,0.1-0.1,0.1-0.2,0.1h-8.4C273.4,1170.8,273.3,1170.7,273.3,1170.7z"/>
	</g>
	<g class="st1">
		<path d="M323.2,1170.7c-0.1-0.1-0.1-0.1-0.1-0.2v-19.8c0-0.1,0-0.2,0.1-0.2c0.1,0,0.1-0.1,0.2-0.1h1.1c0.1,0,0.2,0,0.2,0.1
			c0,0.1,0.1,0.1,0.1,0.2v19.8c0,0.1,0,0.1-0.1,0.2s-0.1,0.1-0.2,0.1h-1.1C323.3,1170.8,323.2,1170.7,323.2,1170.7z"/>
	</g>
	<g class="st1">
		<path d="M369.1,1170.5l-6.8-19.7l-0.1-0.2c0-0.1,0-0.1,0.1-0.2c0,0,0.1-0.1,0.2-0.1h1.1c0.1,0,0.2,0,0.3,0.1
			c0.1,0,0.1,0.1,0.1,0.2l6.7,19.6c0,0.1,0.1,0.2,0.1,0.3c0,0.2-0.1,0.3-0.3,0.3h-1C369.3,1170.8,369.2,1170.7,369.1,1170.5z
			 M370.8,1166.2c0,0,0-0.1,0-0.2c0-0.1,0-0.2,0.1-0.3l5-15c0-0.1,0.1-0.2,0.2-0.2c0.1,0,0.1-0.1,0.3-0.1h1.1c0.1,0,0.2,0,0.2,0.1
			c0,0.1,0,0.2,0,0.3l-5.8,17c0,0.1,0,0.1-0.1,0.1c0,0-0.1,0.1-0.1,0.1c-0.1,0-0.1-0.1-0.2-0.2L370.8,1166.2z"/>
	</g>
	<g class="st1">
		<path d="M417.7,1170.7c-0.1-0.1-0.1-0.1-0.1-0.2v-19.8c0-0.1,0-0.2,0.1-0.2c0.1,0,0.1-0.1,0.2-0.1h1.1c0.1,0,0.2,0,0.2,0.1
			c0,0.1,0.1,0.1,0.1,0.2v19.8c0,0.1,0,0.1-0.1,0.2s-0.1,0.1-0.2,0.1h-1.1C417.8,1170.8,417.7,1170.7,417.7,1170.7z"/>
	</g>
	<g class="st1">
		<path d="M459,1170.7c-0.1-0.1-0.1-0.1-0.1-0.2v-19.8c0-0.1,0-0.2,0.1-0.2c0.1,0,0.1-0.1,0.2-0.1h1.1c0.1,0,0.2,0,0.2,0.1
			c0,0.1,0.1,0.1,0.1,0.2v19.8c0,0.1,0,0.1-0.1,0.2s-0.1,0.1-0.2,0.1h-1.1C459.1,1170.8,459,1170.7,459,1170.7z M462.3,1151.9
			c-0.1-0.1-0.1-0.1-0.1-0.2v-1c0-0.1,0-0.2,0.1-0.2c0.1,0,0.1-0.1,0.2-0.1h8.4c0.1,0,0.2,0,0.2,0.1c0,0.1,0.1,0.1,0.1,0.2v1
			c0,0.1,0,0.1-0.1,0.2s-0.1,0.1-0.2,0.1h-8.4C462.4,1151.9,462.3,1151.9,462.3,1151.9z M462.3,1161.1c-0.1-0.1-0.1-0.1-0.1-0.2v-1
			c0-0.1,0-0.2,0.1-0.2c0.1,0,0.1-0.1,0.2-0.1h7c0.1,0,0.2,0,0.2,0.1c0,0.1,0.1,0.1,0.1,0.2v1c0,0.1,0,0.1-0.1,0.2
			c-0.1,0.1-0.1,0.1-0.2,0.1h-7C462.4,1161.2,462.3,1161.2,462.3,1161.1z M462.3,1170.7c-0.1-0.1-0.1-0.1-0.1-0.2v-1
			c0-0.1,0-0.2,0.1-0.2c0.1,0,0.1-0.1,0.2-0.1h8.4c0.1,0,0.2,0,0.2,0.1c0,0.1,0.1,0.1,0.1,0.2v1c0,0.1,0,0.1-0.1,0.2
			s-0.1,0.1-0.2,0.1h-8.4C462.4,1170.8,462.3,1170.7,462.3,1170.7z"/>
	</g>
	<g class="st1">
		<path d="M506.2,1170.7c-0.1-0.1-0.1-0.1-0.1-0.2v-19.8c0-0.1,0-0.2,0.1-0.2c0.1,0,0.1-0.1,0.2-0.1h1.1c0.1,0,0.2,0,0.2,0.1
			c0,0.1,0.1,0.1,0.1,0.2v19.8c0,0.1,0,0.1-0.1,0.2s-0.1,0.1-0.2,0.1h-1.1C506.3,1170.8,506.3,1170.7,506.2,1170.7z M509.5,1161.5
			c-0.1-0.1-0.1-0.1-0.1-0.2v-1c0-0.1,0-0.2,0.1-0.2c0.1,0,0.1-0.1,0.2-0.1h3.5c1.5,0,2.6-0.3,3.4-1s1.2-1.7,1.2-3s-0.4-2.3-1.2-3
			s-1.9-1.1-3.4-1.1h-3.5c-0.1,0-0.2,0-0.2-0.1s-0.1-0.1-0.1-0.2v-1c0-0.1,0-0.2,0.1-0.2c0.1,0,0.1-0.1,0.2-0.1h3.5
			c1.3,0,2.4,0.2,3.3,0.7c0.9,0.5,1.6,1.1,2.1,2s0.8,1.9,0.8,3c0,1.1-0.2,2.1-0.7,2.9c-0.5,0.9-1.2,1.5-2.1,2
			c-1,0.5-2.1,0.7-3.5,0.7h-3.4C509.6,1161.6,509.6,1161.6,509.5,1161.5z M518,1170.7c0,0-0.1-0.1-0.1-0.2l-3.4-7.1
			c-0.1-0.1-0.1-0.2,0-0.3c0,0,0.1-0.1,0.2-0.1c0.1,0,0.1,0,0.2,0c0.4,0,0.7-0.1,0.9-0.2c0,0,0.1,0,0.1,0c0.1,0,0.2,0.1,0.2,0.2
			l3.7,7.4c0,0,0,0.1,0,0.1c0,0.1-0.1,0.2-0.2,0.2h-1.3C518.1,1170.8,518,1170.7,518,1170.7z"/>
	</g>
	<g class="st1">
		<path d="M551.3,1151.9c-0.1-0.1-0.1-0.1-0.1-0.2v-1c0-0.1,0-0.2,0.1-0.2c0.1,0,0.1-0.1,0.2-0.1h13.8c0.1,0,0.2,0,0.2,0.1
			c0,0.1,0.1,0.1,0.1,0.2v1c0,0.1,0,0.1-0.1,0.2c-0.1,0.1-0.1,0.1-0.2,0.1h-13.8C551.4,1151.9,551.3,1151.9,551.3,1151.9z
			 M557.6,1170.7c-0.1-0.1-0.1-0.1-0.1-0.2v-16.7c0-0.1,0-0.2,0.1-0.2c0.1,0,0.1-0.1,0.2-0.1h1.1c0.1,0,0.2,0,0.2,0.1
			c0,0.1,0.1,0.1,0.1,0.2v16.7c0,0.1,0,0.1-0.1,0.2s-0.1,0.1-0.2,0.1h-1.1C557.7,1170.8,557.7,1170.7,557.6,1170.7z"/>
	</g>
	<g class="st1">
		<path d="M600.7,1170.7c-0.1-0.1-0.1-0.1-0.1-0.2v-19.8c0-0.1,0-0.2,0.1-0.2c0.1,0,0.1-0.1,0.2-0.1h1.1c0.1,0,0.2,0,0.2,0.1
			c0,0.1,0.1,0.1,0.1,0.2v19.8c0,0.1,0,0.1-0.1,0.2s-0.1,0.1-0.2,0.1h-1.1C600.8,1170.8,600.7,1170.7,600.7,1170.7z M604,1151.9
			c-0.1-0.1-0.1-0.1-0.1-0.2v-1c0-0.1,0-0.2,0.1-0.2c0.1,0,0.1-0.1,0.2-0.1h8.4c0.1,0,0.2,0,0.2,0.1c0,0.1,0.1,0.1,0.1,0.2v1
			c0,0.1,0,0.1-0.1,0.2s-0.1,0.1-0.2,0.1h-8.4C604.1,1151.9,604,1151.9,604,1151.9z M604,1161.1c-0.1-0.1-0.1-0.1-0.1-0.2v-1
			c0-0.1,0-0.2,0.1-0.2c0.1,0,0.1-0.1,0.2-0.1h7c0.1,0,0.2,0,0.2,0.1c0,0.1,0.1,0.1,0.1,0.2v1c0,0.1,0,0.1-0.1,0.2
			c-0.1,0.1-0.1,0.1-0.2,0.1h-7C604.1,1161.2,604,1161.2,604,1161.1z M604,1170.7c-0.1-0.1-0.1-0.1-0.1-0.2v-1c0-0.1,0-0.2,0.1-0.2
			c0.1,0,0.1-0.1,0.2-0.1h8.4c0.1,0,0.2,0,0.2,0.1c0,0.1,0.1,0.1,0.1,0.2v1c0,0.1,0,0.1-0.1,0.2s-0.1,0.1-0.2,0.1h-8.4
			C604.1,1170.8,604,1170.7,604,1170.7z"/>
	</g>
	<g class="st1">
		<path d="M647.9,1170.7c-0.1-0.1-0.1-0.1-0.1-0.2v-19.8c0-0.1,0-0.2,0.1-0.2c0.1,0,0.1-0.1,0.2-0.1h1.1c0.1,0,0.2,0,0.2,0.1
			c0,0.1,0.1,0.1,0.1,0.2v19.8c0,0.1,0,0.1-0.1,0.2s-0.1,0.1-0.2,0.1h-1.1C648.1,1170.8,648,1170.7,647.9,1170.7z M651.2,1170.7
			c-0.1-0.1-0.1-0.1-0.1-0.2v-1c0-0.1,0-0.2,0.1-0.2c0.1,0,0.1-0.1,0.2-0.1h8.4c0.1,0,0.2,0,0.2,0.1c0,0.1,0.1,0.1,0.1,0.2v1
			c0,0.1,0,0.1-0.1,0.2s-0.1,0.1-0.2,0.1h-8.4C651.4,1170.8,651.3,1170.7,651.2,1170.7z"/>
	</g>
	<g class="st1">
		<path d="M180.1,1222.9l-6.8-19.7l-0.1-0.2c0-0.1,0-0.1,0.1-0.2c0,0,0.1-0.1,0.2-0.1h1c0.1,0,0.2,0,0.3,0.1c0.1,0,0.1,0.1,0.1,0.2
			l6.7,19.6c0,0.1,0.1,0.2,0.1,0.3c0,0.2-0.1,0.3-0.3,0.3h-1C180.3,1223.2,180.2,1223.1,180.1,1222.9z M181.9,1218.6
			c0,0,0-0.1,0-0.2c0-0.1,0-0.2,0.1-0.3l5-15c0-0.1,0.1-0.2,0.1-0.2s0.1-0.1,0.3-0.1h1.1c0.1,0,0.2,0,0.2,0.1c0,0.1,0,0.2,0,0.3
			l-5.8,17c0,0.1,0,0.1-0.1,0.1c0,0-0.1,0.1-0.1,0.1c-0.1,0-0.1-0.1-0.2-0.2L181.9,1218.6z"/>
	</g>
	<g class="st1">
		<path d="M224.4,1222.1c-0.9-0.8-1.6-1.8-2-3.1c-0.2-0.6-0.3-1.3-0.4-2.1c-0.1-0.9-0.1-2.1-0.1-3.8c0-1.7,0-2.9,0.1-3.8
			c0.1-0.9,0.2-1.6,0.4-2.1c0.4-1.3,1.1-2.4,2-3.1s2.1-1.2,3.4-1.4h0.1c0.1,0,0.1,0,0.2,0.1c0,0.1,0.1,0.1,0.1,0.2v1
			c0,0.2-0.1,0.3-0.3,0.3c-1.9,0.3-3.2,1.5-3.9,3.4c-0.2,0.5-0.3,1.1-0.4,1.9c-0.1,0.8-0.1,2-0.1,3.5c0,1.5,0,2.7,0.1,3.5
			c0.1,0.8,0.2,1.5,0.4,1.9c0.6,1.9,1.9,3.1,3.9,3.4c0.2,0,0.3,0.1,0.3,0.3v1c0,0.1,0,0.2-0.1,0.2s-0.1,0.1-0.2,0
			C226.5,1223.3,225.3,1222.8,224.4,1222.1z M230,1223.4c-0.1,0-0.1,0-0.2-0.1c0-0.1-0.1-0.1-0.1-0.2v-1c0-0.2,0.1-0.3,0.3-0.3
			c1.9-0.3,3.2-1.4,3.9-3.4c0.2-0.5,0.3-1.1,0.4-2c0.1-0.8,0.1-2,0.1-3.5s0-2.7-0.1-3.5c-0.1-0.8-0.2-1.5-0.4-2
			c-0.7-1.9-2-3.1-3.9-3.4c-0.2,0-0.3-0.1-0.3-0.3v-1c0-0.1,0-0.2,0.1-0.2c0.1,0,0.1-0.1,0.2,0c1.4,0.2,2.5,0.6,3.4,1.4
			c0.9,0.8,1.6,1.8,2.1,3.1c0.2,0.6,0.3,1.3,0.4,2.2c0.1,0.9,0.1,2.1,0.1,3.8c0,1.6,0,2.9-0.1,3.8s-0.2,1.6-0.4,2.2
			c-0.4,1.3-1.1,2.4-2.1,3.1C232.6,1222.8,231.4,1223.3,230,1223.4L230,1223.4z"/>
	</g>
	<g class="st1">
		<path d="M270,1223.1c-0.1-0.1-0.1-0.1-0.1-0.2v-19.8c0-0.1,0-0.2,0.1-0.2c0.1,0,0.1-0.1,0.2-0.1h1.1c0.1,0,0.2,0,0.2,0.1
			c0,0.1,0.1,0.1,0.1,0.2v19.8c0,0.1,0,0.1-0.1,0.2c-0.1,0.1-0.1,0.1-0.2,0.1h-1.1C270.1,1223.2,270,1223.2,270,1223.1z M273.3,1214
			c-0.1-0.1-0.1-0.1-0.1-0.2v-1c0-0.1,0-0.2,0.1-0.2c0.1,0,0.1-0.1,0.2-0.1h3.5c1.5,0,2.6-0.3,3.4-1c0.8-0.7,1.2-1.7,1.2-3
			s-0.4-2.3-1.2-3c-0.8-0.7-1.9-1.1-3.4-1.1h-3.5c-0.1,0-0.1,0-0.2-0.1s-0.1-0.1-0.1-0.2v-1c0-0.1,0-0.2,0.1-0.2
			c0.1,0,0.1-0.1,0.2-0.1h3.5c1.3,0,2.4,0.2,3.3,0.7c0.9,0.5,1.6,1.1,2.1,2s0.8,1.9,0.8,3c0,1.1-0.2,2.1-0.7,2.9s-1.2,1.5-2.1,2
			c-1,0.5-2.1,0.7-3.5,0.7h-3.4C273.4,1214,273.3,1214,273.3,1214z M281.8,1223.1c-0.1,0-0.1-0.1-0.1-0.2l-3.4-7.1
			c-0.1-0.1-0.1-0.2,0-0.3c0,0,0.1-0.1,0.2-0.1c0.1,0,0.1,0,0.1,0c0.4,0,0.7-0.1,0.9-0.2c0,0,0.1,0,0.1,0c0.1,0,0.2,0.1,0.2,0.2
			l3.7,7.4c0,0,0,0.1,0,0.1c0,0.1-0.1,0.2-0.2,0.2H282C281.9,1223.2,281.8,1223.2,281.8,1223.1z"/>
	</g>
	<g class="st1">
		<path d="M317.2,1223.1c-0.1-0.1-0.1-0.1-0.1-0.2v-19.8c0-0.1,0-0.2,0.1-0.2c0.1,0,0.1-0.1,0.2-0.1h1.1c0.1,0,0.2,0,0.2,0.1
			c0,0.1,0.1,0.1,0.1,0.2v19.8c0,0.1,0,0.1-0.1,0.2s-0.1,0.1-0.2,0.1h-1.1C317.4,1223.2,317.3,1223.2,317.2,1223.1z M320.5,1204.3
			c-0.1-0.1-0.1-0.1-0.1-0.2v-1c0-0.1,0-0.2,0.1-0.2c0.1,0,0.1-0.1,0.2-0.1h8.4c0.1,0,0.2,0,0.2,0.1c0,0.1,0.1,0.1,0.1,0.2v1
			c0,0.1,0,0.1-0.1,0.2s-0.1,0.1-0.2,0.1h-8.4C320.7,1204.4,320.6,1204.4,320.5,1204.3z M320.5,1213.8c-0.1-0.1-0.1-0.1-0.1-0.2v-1
			c0-0.1,0-0.2,0.1-0.2c0.1,0,0.1-0.1,0.2-0.1h7c0.1,0,0.2,0,0.2,0.1c0,0.1,0.1,0.1,0.1,0.2v1c0,0.1,0,0.1-0.1,0.2
			c-0.1,0.1-0.1,0.1-0.2,0.1h-7C320.7,1213.9,320.6,1213.8,320.5,1213.8z"/>
	</g>
	<g class="st1">
		<path d="M365.7,1221.3c-1-1.2-1.5-3-1.5-5.2v-13.1c0-0.1,0-0.2,0.1-0.2c0.1,0,0.1-0.1,0.2-0.1h1.1c0.1,0,0.2,0,0.2,0.1
			c0,0.1,0.1,0.1,0.1,0.2v13.1c0,1.7,0.4,3,1.1,3.9c0.7,1,1.7,1.5,3.1,1.8c0.2,0,0.3,0.1,0.3,0.3v1c0,0.1,0,0.2-0.1,0.2
			c-0.1,0-0.1,0.1-0.2,0C368.1,1223.3,366.7,1222.5,365.7,1221.3z M372.1,1223.4c-0.1,0-0.1,0-0.2-0.1c0-0.1-0.1-0.1-0.1-0.2v-1
			c0-0.2,0.1-0.3,0.3-0.3c1.3-0.2,2.4-0.8,3.1-1.7s1.1-2.3,1.1-4v-13.1c0-0.1,0-0.2,0.1-0.2c0.1,0,0.1-0.1,0.2-0.1h1.1
			c0.1,0,0.2,0,0.2,0.1c0,0.1,0.1,0.1,0.1,0.2v13.1c0,2.2-0.5,3.9-1.5,5.1C375.5,1222.5,374.1,1223.2,372.1,1223.4L372.1,1223.4z"/>
	</g>
	<g class="st1">
		<path d="M423.9,1223.1c-0.1,0-0.2-0.1-0.2-0.2l-11.9-19.4c-0.1-0.1-0.1-0.2-0.1-0.4c0-0.2,0.1-0.3,0.3-0.3h1c0.1,0,0.2,0,0.3,0.1
			c0.1,0,0.1,0.1,0.2,0.2l12,19.5c0,0.1,0.1,0.1,0.1,0.2c0,0.1,0,0.1,0,0.2c0,0.1-0.1,0.2-0.3,0.2h-1
			C424.1,1223.2,424,1223.2,423.9,1223.1z M411.7,1223.1c-0.1-0.1-0.1-0.1-0.1-0.2v-16.2c0-0.2,0-0.2,0.1-0.2c0.1,0,0.2,0.1,0.2,0.1
			l1.2,1.9c0.1,0.1,0.1,0.2,0.1,0.4v14c0,0.1,0,0.1-0.1,0.2c-0.1,0.1-0.1,0.1-0.2,0.1h-1C411.8,1223.2,411.8,1223.2,411.7,1223.1z
			 M424,1217.4c-0.1-0.1-0.1-0.2-0.1-0.4v-14c0-0.1,0-0.2,0.1-0.2c0.1,0,0.1-0.1,0.2-0.1h1c0.1,0,0.2,0,0.2,0.1
			c0,0.1,0.1,0.1,0.1,0.2v16.1c0,0.2,0,0.2-0.2,0.2c-0.1,0-0.1,0-0.2-0.1L424,1217.4z"/>
	</g>
	<g class="st1">
		<path d="M459,1223.1c-0.1-0.1-0.1-0.1-0.1-0.2v-19.8c0-0.1,0-0.2,0.1-0.2c0.1,0,0.1-0.1,0.2-0.1h1.1c0.1,0,0.2,0,0.2,0.1
			c0,0.1,0.1,0.1,0.1,0.2v19.8c0,0.1,0,0.1-0.1,0.2s-0.1,0.1-0.2,0.1h-1.1C459.1,1223.2,459,1223.2,459,1223.1z M462.3,1214.9
			c-0.1,0-0.1-0.1-0.1-0.2v-1.6c0-0.1,0-0.2,0.1-0.4l8-9.7c0.1-0.1,0.2-0.2,0.3-0.2s0.2-0.1,0.3-0.1h1.4c0.1,0,0.2,0,0.2,0.1
			c0,0.1,0,0.1,0,0.2l-9.8,11.7C462.5,1214.9,462.4,1214.9,462.3,1214.9z M471.1,1223.1c-0.1,0-0.1-0.1-0.2-0.2l-5.2-9.1
			c0-0.1-0.1-0.1-0.1-0.2c0-0.1,0-0.2,0.1-0.2l0.7-0.9c0.1-0.1,0.1-0.1,0.2-0.1c0.1,0,0.1,0,0.2,0.1l6,10.4l0,0.1
			c0,0.1-0.1,0.2-0.2,0.2h-1.4C471.2,1223.2,471.2,1223.2,471.1,1223.1z"/>
	</g>
	<g class="st1">
		<path d="M518.4,1223.1c-0.1,0-0.2-0.1-0.2-0.2l-11.9-19.4c-0.1-0.1-0.1-0.2-0.1-0.4c0-0.2,0.1-0.3,0.3-0.3h1c0.1,0,0.2,0,0.3,0.1
			c0.1,0,0.1,0.1,0.2,0.2l12,19.5c0,0.1,0.1,0.1,0.1,0.2c0,0.1,0,0.1,0,0.2c0,0.1-0.1,0.2-0.3,0.2h-1
			C518.6,1223.2,518.5,1223.2,518.4,1223.1z M506.2,1223.1c-0.1-0.1-0.1-0.1-0.1-0.2v-16.2c0-0.2,0-0.2,0.1-0.2
			c0.1,0,0.2,0.1,0.2,0.1l1.2,1.9c0.1,0.1,0.1,0.2,0.1,0.4v14c0,0.1,0,0.1-0.1,0.2c-0.1,0.1-0.1,0.1-0.2,0.1h-1
			C506.3,1223.2,506.3,1223.2,506.2,1223.1z M518.5,1217.4c-0.1-0.1-0.1-0.2-0.1-0.4v-14c0-0.1,0-0.2,0.1-0.2c0.1,0,0.1-0.1,0.2-0.1
			h1c0.1,0,0.2,0,0.2,0.1c0,0.1,0.1,0.1,0.1,0.2v16.1c0,0.2,0,0.2-0.2,0.2c-0.1,0-0.1,0-0.2-0.1L518.5,1217.4z"/>
	</g>
	<g class="st1">
		<path d="M551.5,1223.1c0-0.1,0-0.1,0-0.2l6.2-17.1c0.1-0.1,0.1-0.2,0.2-0.2c0,0,0.1,0,0.1,0c0,0,0.1,0.1,0.1,0.1l0.6,1.6
			c0,0.1,0.1,0.1,0.1,0.2s0,0.1-0.1,0.2l-3,8.4h5.9c0.2,0,0.3,0.1,0.4,0.2l0.4,1l0,0.1c0,0.1,0,0.1-0.1,0.1c0,0-0.1,0.1-0.2,0.1H555
			l-1.8,5.1c0,0.1-0.1,0.2-0.2,0.2c-0.1,0-0.1,0.1-0.2,0.1h-1.2C551.6,1223.2,551.5,1223.2,551.5,1223.1z M565.7,1223l-7-19.8l0-0.1
			c0-0.1,0-0.1,0.1-0.2c0,0,0.1-0.1,0.2-0.1h1.1c0.2,0,0.3,0.1,0.4,0.3l7.1,19.8l0,0.1c0,0.1,0,0.1-0.1,0.1c0,0-0.1,0.1-0.2,0.1
			h-1.2C565.9,1223.2,565.8,1223.1,565.7,1223z"/>
	</g>
	<g class="st1">
		<path d="M602.3,1222.1c-0.9-0.8-1.6-1.8-2-3.1c-0.2-0.5-0.3-1.2-0.4-2.1c-0.1-0.9-0.1-2.2-0.1-3.9c0-1.7,0-3,0.1-3.9
			c0.1-0.9,0.2-1.6,0.4-2.1c0.4-1.3,1.1-2.4,2-3.1s2-1.2,3.3-1.4h0.1c0.1,0,0.1,0,0.2,0.1c0,0.1,0.1,0.1,0.1,0.2v1
			c0,0.2-0.1,0.3-0.3,0.3c-0.9,0.1-1.7,0.5-2.3,1c-0.6,0.6-1.1,1.3-1.4,2.3c-0.1,0.4-0.2,1.1-0.3,1.9c-0.1,0.8-0.1,2-0.1,3.6
			c0,1.6,0,2.8,0.1,3.6s0.2,1.4,0.3,1.9c0.3,1,0.8,1.7,1.4,2.3c0.6,0.6,1.4,0.9,2.3,1c0.2,0,0.3,0.1,0.3,0.3v1c0,0.1,0,0.2-0.1,0.2
			s-0.1,0.1-0.2,0C604.3,1223.3,603.2,1222.8,602.3,1222.1z M611.7,1207.1c-0.1,0-0.2-0.1-0.3-0.2c-0.9-1.6-2.1-2.5-3.6-2.8
			c-0.2,0-0.3-0.1-0.3-0.3v-1c0-0.1,0-0.2,0.1-0.2c0.1-0.1,0.1-0.1,0.2-0.1c1.1,0.2,2.1,0.6,3,1.2c0.9,0.6,1.5,1.5,2,2.5
			c0,0,0,0.1,0,0.2c0,0.1,0,0.1-0.1,0.2l-1,0.5C611.8,1207.1,611.7,1207.1,611.7,1207.1z M607.8,1223.4c-0.1,0-0.1,0-0.2-0.1
			s-0.1-0.1-0.1-0.2v-1c0-0.2,0.1-0.3,0.3-0.3c1.6-0.3,2.8-1.2,3.6-2.8c0-0.1,0.1-0.1,0.2-0.2c0.1,0,0.1,0,0.2,0l1,0.5
			c0.1,0.1,0.2,0.2,0.1,0.4c-0.5,1.1-1.2,1.9-2,2.5C610,1222.9,609,1223.3,607.8,1223.4L607.8,1223.4z"/>
	</g>
	<g class="st1">
		<path d="M647.9,1223.1c-0.1-0.1-0.1-0.1-0.1-0.2v-19.8c0-0.1,0-0.2,0.1-0.2c0.1,0,0.1-0.1,0.2-0.1h1.1c0.1,0,0.2,0,0.2,0.1
			c0,0.1,0.1,0.1,0.1,0.2v19.8c0,0.1,0,0.1-0.1,0.2s-0.1,0.1-0.2,0.1h-1.1C648.1,1223.2,648,1223.2,647.9,1223.1z M651.1,1213.6
			c-0.1-0.1-0.1-0.1-0.1-0.2v-1c0-0.1,0-0.2,0.1-0.2c0.1,0,0.1-0.1,0.2-0.1h6.9c0.1,0,0.2,0,0.2,0.1c0,0.1,0.1,0.1,0.1,0.2v1
			c0,0.1,0,0.1-0.1,0.2s-0.1,0.1-0.2,0.1h-6.9C651.2,1213.7,651.2,1213.6,651.1,1213.6z M660.1,1223.1c-0.1-0.1-0.1-0.1-0.1-0.2
			v-19.8c0-0.1,0-0.2,0.1-0.2c0.1,0,0.1-0.1,0.2-0.1h1.1c0.1,0,0.2,0,0.2,0.1c0,0.1,0.1,0.1,0.1,0.2v19.8c0,0.1,0,0.1-0.1,0.2
			c-0.1,0.1-0.1,0.1-0.2,0.1h-1.1C660.2,1223.2,660.1,1223.2,660.1,1223.1z"/>
	</g>
	<g class="st1">
		<path d="M175.5,1275.6c-0.1-0.1-0.1-0.1-0.1-0.2v-19.8c0-0.1,0-0.2,0.1-0.2c0.1,0,0.1-0.1,0.2-0.1h1.1c0.1,0,0.2,0,0.2,0.1
			c0,0.1,0.1,0.1,0.1,0.2v19.8c0,0.1,0,0.1-0.1,0.2c-0.1,0.1-0.1,0.1-0.2,0.1h-1.1C175.6,1275.6,175.6,1275.6,175.5,1275.6z
			 M178.7,1266c-0.1-0.1-0.1-0.1-0.1-0.2v-1c0-0.1,0-0.2,0.1-0.2c0.1,0,0.1-0.1,0.2-0.1h6.9c0.1,0,0.2,0,0.2,0.1
			c0,0.1,0.1,0.1,0.1,0.2v1c0,0.1,0,0.1-0.1,0.2s-0.1,0.1-0.2,0.1h-6.9C178.8,1266.1,178.7,1266.1,178.7,1266z M187.6,1275.6
			c-0.1-0.1-0.1-0.1-0.1-0.2v-19.8c0-0.1,0-0.2,0.1-0.2c0.1,0,0.1-0.1,0.2-0.1h1.1c0.1,0,0.2,0,0.2,0.1c0,0.1,0.1,0.1,0.1,0.2v19.8
			c0,0.1,0,0.1-0.1,0.2c-0.1,0.1-0.1,0.1-0.2,0.1h-1.1C187.8,1275.6,187.7,1275.6,187.6,1275.6z"/>
	</g>
	<g class="st1">
		<path d="M220.8,1275.6c0-0.1,0-0.1,0-0.2l6.2-17.1c0.1-0.1,0.1-0.2,0.2-0.2c0,0,0.1,0,0.1,0c0,0,0.1,0.1,0.1,0.1l0.6,1.6
			c0,0.1,0.1,0.1,0.1,0.2s0,0.1-0.1,0.2l-3,8.4h5.9c0.2,0,0.3,0.1,0.4,0.2l0.4,1l0,0.1c0,0.1,0,0.1-0.1,0.1c-0.1,0-0.1,0.1-0.2,0.1
			h-6.9l-1.8,5.1c0,0.1-0.1,0.2-0.2,0.2c-0.1,0-0.1,0.1-0.2,0.1H221C220.9,1275.6,220.8,1275.6,220.8,1275.6z M235,1275.4l-7-19.8
			l0-0.1c0-0.1,0-0.1,0.1-0.2s0.1-0.1,0.2-0.1h1.1c0.2,0,0.3,0.1,0.4,0.3l7.1,19.8l0,0.1c0,0.1,0,0.1-0.1,0.1c0,0-0.1,0.1-0.2,0.1
			h-1.2C235.2,1275.6,235.1,1275.6,235,1275.4z"/>
	</g>
	<g class="st1">
		<path d="M270,1275.6c-0.1-0.1-0.1-0.1-0.1-0.2v-19.8c0-0.1,0-0.2,0.1-0.2c0.1,0,0.1-0.1,0.2-0.1h1.1c0.1,0,0.2,0,0.2,0.1
			c0,0.1,0.1,0.1,0.1,0.2v19.8c0,0.1,0,0.1-0.1,0.2c-0.1,0.1-0.1,0.1-0.2,0.1h-1.1C270.1,1275.6,270,1275.6,270,1275.6z
			 M273.3,1275.6c-0.1-0.1-0.1-0.1-0.1-0.2v-1c0-0.1,0-0.2,0.1-0.2c0.1,0,0.1-0.1,0.2-0.1h8.4c0.1,0,0.2,0,0.2,0.1
			c0,0.1,0.1,0.1,0.1,0.2v1c0,0.1,0,0.1-0.1,0.2c-0.1,0.1-0.1,0.1-0.2,0.1h-8.4C273.4,1275.6,273.3,1275.6,273.3,1275.6z"/>
	</g>
	<g class="st1">
		<path d="M317.2,1275.6c-0.1-0.1-0.1-0.1-0.1-0.2v-19.8c0-0.1,0-0.2,0.1-0.2c0.1,0,0.1-0.1,0.2-0.1h1.1c0.1,0,0.2,0,0.2,0.1
			c0,0.1,0.1,0.1,0.1,0.2v19.8c0,0.1,0,0.1-0.1,0.2s-0.1,0.1-0.2,0.1h-1.1C317.4,1275.6,317.3,1275.6,317.2,1275.6z M328.2,1263.7
			c-0.2-0.1-0.3-0.1-0.5-0.2c-0.2-0.1-0.3-0.2-0.2-0.5c0.7-0.9,1-1.8,1-2.7c0-0.7-0.2-1.3-0.5-1.8s-0.8-1-1.5-1.3
			c-0.6-0.3-1.4-0.5-2.3-0.5h-3.5c-0.1,0-0.2,0-0.2-0.1s-0.1-0.1-0.1-0.2v-1c0-0.1,0-0.2,0.1-0.2c0.1,0,0.1-0.1,0.2-0.1h3.5
			c1.3,0,2.4,0.2,3.2,0.7c0.9,0.4,1.5,1.1,2,1.8c0.4,0.8,0.7,1.7,0.7,2.7c0,0.6-0.1,1.3-0.3,1.9c-0.2,0.6-0.5,1.1-0.9,1.6
			c-0.1,0.1-0.2,0.1-0.4,0.1C328.5,1263.9,328.4,1263.8,328.2,1263.7z M320.5,1275.6c-0.1-0.1-0.1-0.1-0.1-0.2v-1
			c0-0.1,0-0.2,0.1-0.2s0.1-0.1,0.2-0.1h3.7c1.4,0,2.5-0.4,3.3-1.1c0.8-0.7,1.1-1.7,1.1-3c0-1.2-0.4-2.2-1.2-2.9
			c-0.8-0.7-1.9-1.1-3.3-1.1h-3.7c-0.1,0-0.2,0-0.2-0.1s-0.1-0.1-0.1-0.2v-1c0-0.1,0-0.2,0.1-0.2c0.1,0,0.1-0.1,0.2-0.1h3.5
			c1.3,0,2.5,0.2,3.4,0.7c0.9,0.4,1.7,1.1,2.1,1.9c0.5,0.8,0.7,1.8,0.7,3c0,1.2-0.2,2.2-0.7,3c-0.5,0.8-1.2,1.5-2.1,1.9
			c-0.9,0.4-2.1,0.7-3.4,0.7h-3.5C320.7,1275.6,320.6,1275.6,320.5,1275.6z"/>
	</g>
	<g class="st1">
		<path d="M362.5,1275.6c0-0.1,0-0.1,0-0.2l6.2-17.1c0.1-0.1,0.1-0.2,0.2-0.2c0,0,0.1,0,0.1,0c0,0,0.1,0.1,0.1,0.1l0.6,1.6
			c0,0.1,0.1,0.1,0.1,0.2s0,0.1-0.1,0.2l-3,8.4h5.9c0.2,0,0.3,0.1,0.4,0.2l0.4,1l0,0.1c0,0.1,0,0.1-0.1,0.1c0,0-0.1,0.1-0.2,0.1
			h-6.9l-1.8,5.1c0,0.1-0.1,0.2-0.2,0.2c-0.1,0-0.1,0.1-0.2,0.1h-1.2C362.6,1275.6,362.5,1275.6,362.5,1275.6z M376.8,1275.4
			l-7-19.8l0-0.1c0-0.1,0-0.1,0.1-0.2c0,0,0.1-0.1,0.2-0.1h1.1c0.2,0,0.3,0.1,0.4,0.3l7.1,19.8l0,0.1c0,0.1,0,0.1-0.1,0.1
			c0,0-0.1,0.1-0.2,0.1h-1.2C376.9,1275.6,376.8,1275.6,376.8,1275.4z"/>
	</g>
	<g class="st1">
		<path d="M411.7,1275.6c-0.1-0.1-0.1-0.1-0.1-0.2v-19.8c0-0.1,0-0.2,0.1-0.2c0.1,0,0.1-0.1,0.2-0.1h1.1c0.1,0,0.2,0,0.2,0.1
			c0,0.1,0.1,0.1,0.1,0.2v19.8c0,0.1,0,0.1-0.1,0.2s-0.1,0.1-0.2,0.1h-1.1C411.8,1275.6,411.8,1275.6,411.7,1275.6z M415,1256.7
			c-0.1-0.1-0.1-0.1-0.1-0.2v-1c0-0.1,0-0.2,0.1-0.2c0.1,0,0.1-0.1,0.2-0.1h8.4c0.1,0,0.2,0,0.2,0.1c0,0.1,0.1,0.1,0.1,0.2v1
			c0,0.1,0,0.1-0.1,0.2s-0.1,0.1-0.2,0.1h-8.4C415.1,1256.8,415.1,1256.8,415,1256.7z M415,1266c-0.1-0.1-0.1-0.1-0.1-0.2v-1
			c0-0.1,0-0.2,0.1-0.2c0.1,0,0.1-0.1,0.2-0.1h7c0.1,0,0.2,0,0.2,0.1c0,0.1,0.1,0.1,0.1,0.2v1c0,0.1,0,0.1-0.1,0.2
			c-0.1,0.1-0.1,0.1-0.2,0.1h-7C415.1,1266.1,415.1,1266.1,415,1266z M415,1275.6c-0.1-0.1-0.1-0.1-0.1-0.2v-1c0-0.1,0-0.2,0.1-0.2
			c0.1,0,0.1-0.1,0.2-0.1h8.4c0.1,0,0.2,0,0.2,0.1c0,0.1,0.1,0.1,0.1,0.2v1c0,0.1,0,0.1-0.1,0.2s-0.1,0.1-0.2,0.1h-8.4
			C415.1,1275.6,415.1,1275.6,415,1275.6z"/>
	</g>
	<g class="st1">
		<path d="M459,1275.6c-0.1-0.1-0.1-0.1-0.1-0.2v-19.8c0-0.1,0-0.2,0.1-0.2c0.1,0,0.1-0.1,0.2-0.1h1.1c0.1,0,0.2,0,0.2,0.1
			c0,0.1,0.1,0.1,0.1,0.2v19.8c0,0.1,0,0.1-0.1,0.2s-0.1,0.1-0.2,0.1h-1.1C459.1,1275.6,459,1275.6,459,1275.6z M462.3,1275.6
			c-0.1-0.1-0.1-0.1-0.1-0.2v-1c0-0.1,0-0.2,0.1-0.2c0.1,0,0.1-0.1,0.2-0.1h8.4c0.1,0,0.2,0,0.2,0.1c0,0.1,0.1,0.1,0.1,0.2v1
			c0,0.1,0,0.1-0.1,0.2s-0.1,0.1-0.2,0.1h-8.4C462.4,1275.6,462.3,1275.6,462.3,1275.6z"/>
	</g>
	<g class="st1">
		<path d="M506.2,1275.6c-0.1-0.1-0.1-0.1-0.1-0.2v-19.8c0-0.1,0-0.2,0.1-0.2c0.1,0,0.1-0.1,0.2-0.1h1.1c0.1,0,0.2,0,0.2,0.1
			c0,0.1,0.1,0.1,0.1,0.2v19.8c0,0.1,0,0.1-0.1,0.2s-0.1,0.1-0.2,0.1h-1.1C506.3,1275.6,506.3,1275.6,506.2,1275.6z M509.5,1256.7
			c-0.1-0.1-0.1-0.1-0.1-0.2v-1c0-0.1,0-0.2,0.1-0.2c0.1,0,0.1-0.1,0.2-0.1h8.4c0.1,0,0.2,0,0.2,0.1c0,0.1,0.1,0.1,0.1,0.2v1
			c0,0.1,0,0.1-0.1,0.2s-0.1,0.1-0.2,0.1h-8.4C509.6,1256.8,509.6,1256.8,509.5,1256.7z M509.5,1266.2c-0.1-0.1-0.1-0.1-0.1-0.2v-1
			c0-0.1,0-0.2,0.1-0.2c0.1,0,0.1-0.1,0.2-0.1h7c0.1,0,0.2,0,0.2,0.1c0,0.1,0.1,0.1,0.1,0.2v1c0,0.1,0,0.1-0.1,0.2
			c-0.1,0.1-0.1,0.1-0.2,0.1h-7C509.6,1266.3,509.6,1266.3,509.5,1266.2z"/>
	</g>
	<g class="st1">
		<path d="M554.7,1273.8c-1-1.2-1.5-3-1.5-5.2v-8.1c0-0.1,0-0.2,0.1-0.2c0.1,0,0.1-0.1,0.2-0.1h1.1c0.1,0,0.2,0,0.2,0.1
			c0,0.1,0.1,0.1,0.1,0.2v8.1c0,1.7,0.4,3,1.1,3.9c0.7,1,1.7,1.5,3.1,1.8c0.2,0,0.3,0.1,0.3,0.3v1c0,0.1,0,0.2-0.1,0.2
			c-0.1,0-0.1,0.1-0.2,0C557.1,1275.7,555.7,1275,554.7,1273.8z M556.3,1256.9c-0.1-0.1-0.1-0.1-0.1-0.2v-1.6c0-0.1,0-0.2,0.1-0.2
			c0.1,0,0.1-0.1,0.2-0.1h1.1c0.1,0,0.2,0,0.2,0.1s0.1,0.1,0.1,0.2v1.6c0,0.1,0,0.2-0.1,0.2c0,0.1-0.1,0.1-0.2,0.1h-1.1
			C556.4,1257,556.3,1257,556.3,1256.9z M561.1,1275.9c-0.1,0-0.1,0-0.2-0.1c0-0.1-0.1-0.1-0.1-0.2v-1c0-0.2,0.1-0.3,0.3-0.3
			c1.3-0.2,2.4-0.8,3.1-1.7s1.1-2.3,1.1-4v-8.1c0-0.1,0-0.2,0.1-0.2c0.1,0,0.1-0.1,0.2-0.1h1.1c0.1,0,0.2,0,0.2,0.1
			c0,0.1,0.1,0.1,0.1,0.2v8.1c0,2.2-0.5,3.9-1.5,5.1C564.5,1275,563,1275.7,561.1,1275.9L561.1,1275.9z M562.3,1256.9
			c-0.1-0.1-0.1-0.1-0.1-0.2v-1.6c0-0.1,0-0.2,0.1-0.2c0.1,0,0.1-0.1,0.2-0.1h1.1c0.1,0,0.2,0,0.2,0.1s0.1,0.1,0.1,0.2v1.6
			c0,0.1,0,0.2-0.1,0.2c0,0.1-0.1,0.1-0.2,0.1h-1.1C562.4,1257,562.3,1257,562.3,1256.9z"/>
	</g>
	<g class="st1">
		<path d="M612.9,1275.6c-0.1,0-0.2-0.1-0.2-0.2l-11.9-19.4c-0.1-0.1-0.1-0.2-0.1-0.4c0-0.2,0.1-0.3,0.3-0.3h1c0.1,0,0.2,0,0.3,0.1
			c0.1,0,0.1,0.1,0.2,0.2l12,19.5c0,0.1,0.1,0.1,0.1,0.2c0,0.1,0,0.1,0,0.2c0,0.1-0.1,0.2-0.3,0.2h-1
			C613.1,1275.6,613,1275.6,612.9,1275.6z M600.7,1275.6c-0.1-0.1-0.1-0.1-0.1-0.2v-16.2c0-0.2,0-0.2,0.1-0.2c0.1,0,0.2,0.1,0.2,0.1
			l1.2,1.9c0.1,0.1,0.1,0.2,0.1,0.4v14c0,0.1,0,0.1-0.1,0.2c-0.1,0.1-0.1,0.1-0.2,0.1h-1C600.8,1275.6,600.7,1275.6,600.7,1275.6z
			 M613,1269.9c-0.1-0.1-0.1-0.2-0.1-0.4v-14c0-0.1,0-0.2,0.1-0.2c0.1,0,0.1-0.1,0.2-0.1h1c0.1,0,0.2,0,0.2,0.1
			c0,0.1,0.1,0.1,0.1,0.2v16.1c0,0.2,0,0.2-0.2,0.2c-0.1,0-0.1,0-0.2-0.1L613,1269.9z"/>
	</g>
	<g class="st1">
		<path d="M647.9,1275.6c-0.1-0.1-0.1-0.1-0.1-0.2v-19.8c0-0.1,0-0.2,0.1-0.2c0.1,0,0.1-0.1,0.2-0.1h1.1c0.1,0,0.2,0,0.2,0.1
			c0,0.1,0.1,0.1,0.1,0.2v19.8c0,0.1,0,0.1-0.1,0.2s-0.1,0.1-0.2,0.1h-1.1C648.1,1275.6,648,1275.6,647.9,1275.6z M651.2,1256.7
			c-0.1-0.1-0.1-0.1-0.1-0.2v-1c0-0.1,0-0.2,0.1-0.2c0.1,0,0.1-0.1,0.2-0.1h8.4c0.1,0,0.2,0,0.2,0.1c0,0.1,0.1,0.1,0.1,0.2v1
			c0,0.1,0,0.1-0.1,0.2s-0.1,0.1-0.2,0.1h-8.4C651.4,1256.8,651.3,1256.8,651.2,1256.7z M651.2,1266.2c-0.1-0.1-0.1-0.1-0.1-0.2v-1
			c0-0.1,0-0.2,0.1-0.2c0.1,0,0.1-0.1,0.2-0.1h7c0.1,0,0.2,0,0.2,0.1c0,0.1,0.1,0.1,0.1,0.2v1c0,0.1,0,0.1-0.1,0.2
			c-0.1,0.1-0.1,0.1-0.2,0.1h-7C651.4,1266.3,651.3,1266.3,651.2,1266.2z"/>
	</g>
	<g class="st1">
		<path d="M175.5,1328c-0.1-0.1-0.1-0.1-0.1-0.2V1308c0-0.1,0-0.2,0.1-0.2c0.1,0,0.1-0.1,0.2-0.1h1.1c0.1,0,0.2,0,0.2,0.1
			c0,0.1,0.1,0.1,0.1,0.2v19.8c0,0.1,0,0.1-0.1,0.2c-0.1,0.1-0.1,0.1-0.2,0.1h-1.1C175.6,1328.1,175.6,1328.1,175.5,1328z
			 M178.8,1309.2c-0.1-0.1-0.1-0.1-0.1-0.2v-1c0-0.1,0-0.2,0.1-0.2c0.1,0,0.1-0.1,0.2-0.1h8.4c0.1,0,0.2,0,0.2,0.1
			c0,0.1,0.1,0.1,0.1,0.2v1c0,0.1,0,0.2-0.1,0.2c-0.1,0.1-0.1,0.1-0.2,0.1H179C178.9,1309.3,178.9,1309.2,178.8,1309.2z
			 M178.8,1318.5c-0.1-0.1-0.1-0.1-0.1-0.2v-1c0-0.1,0-0.2,0.1-0.2s0.1-0.1,0.2-0.1h7c0.1,0,0.2,0,0.2,0.1c0,0,0.1,0.1,0.1,0.2v1
			c0,0.1,0,0.1-0.1,0.2c-0.1,0.1-0.1,0.1-0.2,0.1h-7C178.9,1318.5,178.9,1318.5,178.8,1318.5z M178.8,1328c-0.1-0.1-0.1-0.1-0.1-0.2
			v-1c0-0.1,0-0.2,0.1-0.2s0.1-0.1,0.2-0.1h8.4c0.1,0,0.2,0,0.2,0.1c0,0,0.1,0.1,0.1,0.2v1c0,0.1,0,0.1-0.1,0.2
			c-0.1,0.1-0.1,0.1-0.2,0.1H179C178.9,1328.1,178.9,1328.1,178.8,1328z"/>
	</g>
	<g class="st1">
		<path d="M228.7,1328c-0.1-0.1-0.1-0.1-0.1-0.2V1308c0-0.1,0-0.2,0.1-0.2c0.1,0,0.1-0.1,0.2-0.1h1.1c0.1,0,0.2,0,0.2,0.1
			c0,0.1,0.1,0.1,0.1,0.2v19.8c0,0.1,0,0.1-0.1,0.2c-0.1,0.1-0.1,0.1-0.2,0.1h-1.1C228.8,1328.1,228.7,1328.1,228.7,1328z"/>
	</g>
	<g class="st1">
		<path d="M282.2,1328c-0.1,0-0.2-0.1-0.2-0.2l-11.9-19.4c-0.1-0.1-0.1-0.2-0.1-0.4c0-0.2,0.1-0.3,0.3-0.3h1c0.1,0,0.2,0,0.3,0.1
			c0.1,0,0.1,0.1,0.2,0.2l12,19.5c0,0.1,0.1,0.1,0.1,0.2c0,0.1,0,0.1,0,0.2c0,0.1-0.1,0.2-0.3,0.2h-1
			C282.4,1328.1,282.3,1328.1,282.2,1328z M270,1328c-0.1-0.1-0.1-0.1-0.1-0.2v-16.2c0-0.2,0-0.2,0.2-0.2c0.1,0,0.2,0,0.2,0.2
			l1.2,1.9c0.1,0.1,0.1,0.2,0.1,0.4v14c0,0.1,0,0.1-0.1,0.2c-0.1,0.1-0.1,0.1-0.2,0.1h-1C270.1,1328.1,270,1328.1,270,1328z
			 M282.2,1322.3c-0.1-0.1-0.1-0.2-0.1-0.4V1308c0-0.1,0-0.2,0.1-0.2c0.1,0,0.1-0.1,0.2-0.1h1c0.1,0,0.2,0,0.2,0.1
			c0,0.1,0.1,0.1,0.1,0.2v16.1c0,0.2-0.1,0.2-0.1,0.2c-0.1,0-0.1,0-0.2-0.2L282.2,1322.3z"/>
	</g>
	<g class="st1">
		<path d="M318.8,1327.5c-1.1-0.4-1.9-0.9-2.5-1.5c-0.1-0.1-0.1-0.1-0.1-0.2s0-0.2,0.1-0.2l0.7-0.8c0.1-0.1,0.3-0.2,0.4,0
			c0.6,0.5,1.3,0.9,2.1,1.3c0.8,0.4,1.7,0.6,2.6,0.7c0.2,0,0.3,0.1,0.3,0.3v1c0,0.1,0,0.2-0.1,0.2c-0.1,0-0.1,0.1-0.2,0
			C320.9,1328.2,319.8,1328,318.8,1327.5z M324.2,1328.3c-0.1,0-0.1,0-0.2-0.1c-0.1,0-0.1-0.1-0.1-0.2v-1c0-0.2,0.1-0.3,0.3-0.3
			c1.3-0.1,2.3-0.6,3.1-1.3s1.1-1.7,1.1-2.8c0-1.1-0.4-2-1.1-2.7c-0.7-0.7-2-1.1-3.8-1.3l-1-0.1c-2-0.3-3.4-0.8-4.4-1.8
			c-1-0.9-1.5-2.1-1.5-3.6c0-1,0.2-2,0.6-2.8c0.4-0.8,1-1.5,1.8-2s1.7-0.8,2.8-0.9h0.1c0.1,0,0.1,0,0.2,0.1c0,0.1,0.1,0.1,0.1,0.2v1
			c0,0.2-0.1,0.3-0.3,0.3c-1.1,0.2-2,0.6-2.6,1.3c-0.6,0.7-0.9,1.6-0.9,2.6c0,1.1,0.4,2,1.1,2.6c0.8,0.7,2,1.1,3.7,1.3l1,0.1
			c2,0.3,3.5,0.8,4.4,1.8s1.4,2.1,1.4,3.7c0,1.1-0.2,2-0.7,2.8c-0.4,0.8-1.1,1.5-2,2C326.7,1327.9,325.6,1328.2,324.2,1328.3
			L324.2,1328.3z M324.2,1309c-0.2,0-0.3-0.2-0.3-0.3v-1c0-0.1,0-0.2,0.1-0.2s0.1-0.1,0.2,0c0.9,0.1,1.8,0.3,2.6,0.5
			s1.5,0.6,2.1,1.1c0.2,0.1,0.2,0.3,0.1,0.4l-0.6,0.9c-0.1,0.1-0.3,0.2-0.4,0.1C326.8,1309.6,325.5,1309.2,324.2,1309z"/>
	</g>
	<g class="st1">
		<path d="M362.5,1328c0-0.1,0-0.1,0-0.2l5.1-8.5c0.1-0.1,0.1-0.2,0.2-0.2s0.2,0,0.2,0.2l0.6,1c0,0.1,0.1,0.1,0.1,0.2s0,0.1-0.1,0.2
			l-4.3,7.1c-0.1,0.2-0.2,0.2-0.4,0.2h-1.3C362.6,1328.1,362.5,1328,362.5,1328z M375.1,1328c-0.1,0-0.1-0.1-0.1-0.2l-11.8-19.8
			l-0.1-0.1c0-0.1,0.1-0.2,0.2-0.2h1.3c0.1,0,0.2,0,0.2,0.1c0.1,0,0.1,0.1,0.2,0.2l4.6,7.8l7.2,12c0,0,0,0.1,0,0.2
			c0,0.1-0.1,0.2-0.2,0.2h-1.3C375.3,1328.1,375.2,1328.1,375.1,1328z M370.7,1314.5c0-0.1-0.1-0.1-0.1-0.2s0-0.2,0.1-0.2l3.7-6.2
			c0-0.1,0.1-0.1,0.2-0.2c0.1,0,0.1-0.1,0.2-0.1h1.3c0.1,0,0.1,0,0.2,0.1c0,0.1,0,0.1,0,0.2l-4.5,7.6c-0.1,0.1-0.1,0.1-0.2,0.1
			s-0.2,0-0.2-0.1L370.7,1314.5z"/>
	</g>
	<g class="st1">
		<path d="M409.7,1328c0-0.1,0-0.1,0-0.2l6.2-17.1c0.1-0.1,0.1-0.2,0.2-0.2c0,0,0.1,0,0.1,0s0.1,0.1,0.1,0.1l0.6,1.6
			c0,0.1,0.1,0.1,0.1,0.2c0,0.1,0,0.2-0.1,0.2l-3,8.4h5.9c0.2,0,0.3,0.1,0.4,0.2l0.4,1l0,0.1c0,0.1,0,0.1-0.1,0.2s-0.1,0.1-0.2,0.1
			h-6.9l-1.8,5.1c0,0.1-0.1,0.2-0.2,0.2c-0.1,0-0.1,0.1-0.2,0.1h-1.2C409.8,1328.1,409.8,1328.1,409.7,1328z M424,1327.8l-7-19.8
			l0-0.1c0-0.1,0-0.1,0.1-0.2c0,0,0.1-0.1,0.2-0.1h1.1c0.2,0,0.3,0.1,0.4,0.3l7.1,19.8l0,0.1c0,0.1,0,0.1-0.1,0.2s-0.1,0.1-0.2,0.1
			h-1.2C424.2,1328.1,424.1,1328,424,1327.8z"/>
	</g>
	<g class="st1">
		<path d="M459,1328c-0.1-0.1-0.1-0.1-0.1-0.2v-15.5c0-0.1,0-0.1,0-0.2c0,0,0.1-0.1,0.1-0.1c0.1,0,0.2,0.1,0.2,0.2l1.2,2.6
			c0.1,0.1,0.1,0.3,0.1,0.4v12.5c0,0.1,0,0.1-0.1,0.2c-0.1,0.1-0.1,0.1-0.2,0.1h-1C459.1,1328.1,459,1328.1,459,1328z M466.7,1325
			c-0.1,0-0.1-0.1-0.2-0.3L459,1308c0,0,0-0.1,0-0.2c0-0.1,0.1-0.2,0.2-0.2h1.1c0.2,0,0.3,0.1,0.4,0.3l7.4,16.5c0,0,0,0.1,0,0.2
			c0,0,0,0.1,0,0.1c0,0.1,0,0.1-0.1,0.1l0,0c-0.1,0.1-0.2,0.2-0.3,0.2h-0.7C466.9,1325.1,466.8,1325,466.7,1325z M474.3,1328
			c-0.1-0.1-0.1-0.1-0.1-0.2v-16.1h-0.1l-4.9,10.8c0,0.1-0.1,0.2-0.2,0.2c-0.1,0-0.2-0.1-0.2-0.2l-0.5-1.2c0-0.1-0.1-0.1-0.1-0.2
			s0-0.2,0.1-0.2l5.7-12.8c0.1-0.2,0.2-0.3,0.5-0.3h1.1c0.1,0,0.2,0,0.2,0.1c0,0.1,0.1,0.1,0.1,0.2v19.8c0,0.1,0,0.1-0.1,0.2
			c0,0.1-0.1,0.1-0.2,0.1h-1C474.4,1328.1,474.4,1328.1,474.3,1328z"/>
	</g>
	<g class="st1">
		<path d="M505,1328c-0.1-0.1-0.1-0.1-0.1-0.2v-1c0-0.1,0-0.2,0-0.2c0-0.1,0.1-0.1,0.1-0.2l11.7-18.5c0.1-0.1,0.2-0.2,0.4-0.2h0.5
			c0.1,0,0.2,0,0.2,0.1c0,0.1,0.1,0.1,0.1,0.2v1c0,0.1,0,0.1,0,0.2c0,0.1-0.1,0.1-0.1,0.2l-11.7,18.5c-0.1,0.1-0.2,0.2-0.4,0.2h-0.5
			C505.1,1328.1,505,1328.1,505,1328z M505.4,1309.2c-0.1-0.1-0.1-0.1-0.1-0.2v-1c0-0.1,0-0.2,0.1-0.2c0.1,0,0.1-0.1,0.2-0.1h9.2
			c0.1,0,0.2,0,0.2,0.1s0,0.2,0,0.3l-0.7,1c-0.1,0.1-0.2,0.2-0.4,0.2h-8.3C505.5,1309.3,505.4,1309.2,505.4,1309.2z M507.8,1328
			c0-0.1,0-0.2,0-0.3l0.7-1c0.1-0.1,0.2-0.2,0.4-0.2h8.7c0.1,0,0.2,0,0.2,0.1s0.1,0.1,0.1,0.2v1c0,0.1,0,0.1-0.1,0.2
			c0,0.1-0.1,0.1-0.2,0.1H508C507.9,1328.1,507.8,1328,507.8,1328z"/>
	</g>
	<g class="st1">
		<path d="M556.5,1328c-0.1,0-0.1-0.1-0.1-0.2l-4.9-19.8l0-0.1c0-0.1,0-0.1,0.1-0.1s0.1-0.1,0.2-0.1h1.1c0.1,0,0.2,0,0.3,0.1
			c0.1,0,0.1,0.1,0.1,0.2l4.7,19.6c0,0.1,0,0.1,0,0.2c0,0.2-0.1,0.3-0.3,0.3h-1C556.6,1328.1,556.5,1328.1,556.5,1328z M567.7,1328
			c0,0-0.1-0.1-0.1-0.2l-4.8-16.8h-0.1l-3.9,13.6c0,0.1,0,0.1-0.1,0.2s-0.1,0.1-0.1,0.1c-0.1,0-0.1-0.1-0.2-0.2l-0.5-2.1
			c0-0.1,0-0.2,0-0.4l3.9-14.1c0-0.1,0.1-0.2,0.1-0.2c0,0,0.1-0.1,0.2-0.1h0.9c0.1,0,0.2,0,0.2,0.1c0,0.1,0.1,0.1,0.1,0.2l5.5,19.6
			l0,0.2c0,0.2-0.1,0.3-0.3,0.3h-1C567.9,1328.1,567.8,1328.1,567.7,1328z M569.1,1322.5c0-0.2-0.1-0.3,0-0.4l3.3-14.1
			c0-0.1,0.1-0.2,0.1-0.2c0.1,0,0.1-0.1,0.3-0.1h1c0.1,0,0.2,0,0.2,0.1c0,0.1,0,0.1,0,0.2l-4,16.5c0,0.1,0,0.1-0.1,0.2
			s-0.1,0.1-0.1,0.1c-0.1,0-0.1-0.1-0.2-0.2L569.1,1322.5z"/>
	</g>
	<g class="st1">
		<path d="M600.7,1328c-0.1-0.1-0.1-0.1-0.1-0.2V1308c0-0.1,0-0.2,0.1-0.2c0.1,0,0.1-0.1,0.2-0.1h1.1c0.1,0,0.2,0,0.2,0.1
			c0,0.1,0.1,0.1,0.1,0.2v19.8c0,0.1,0,0.1-0.1,0.2c0,0.1-0.1,0.1-0.2,0.1h-1.1C600.8,1328.1,600.7,1328.1,600.7,1328z M604,1309.2
			c-0.1-0.1-0.1-0.1-0.1-0.2v-1c0-0.1,0-0.2,0.1-0.2c0.1,0,0.1-0.1,0.2-0.1h8.4c0.1,0,0.2,0,0.2,0.1c0,0.1,0.1,0.1,0.1,0.2v1
			c0,0.1,0,0.2-0.1,0.2c0,0.1-0.1,0.1-0.2,0.1h-8.4C604.1,1309.3,604,1309.2,604,1309.2z M604,1318.5c-0.1-0.1-0.1-0.1-0.1-0.2v-1
			c0-0.1,0-0.2,0.1-0.2s0.1-0.1,0.2-0.1h7c0.1,0,0.2,0,0.2,0.1c0,0,0.1,0.1,0.1,0.2v1c0,0.1,0,0.1-0.1,0.2c-0.1,0.1-0.1,0.1-0.2,0.1
			h-7C604.1,1318.5,604,1318.5,604,1318.5z M604,1328c-0.1-0.1-0.1-0.1-0.1-0.2v-1c0-0.1,0-0.2,0.1-0.2s0.1-0.1,0.2-0.1h8.4
			c0.1,0,0.2,0,0.2,0.1s0.1,0.1,0.1,0.2v1c0,0.1,0,0.1-0.1,0.2c0,0.1-0.1,0.1-0.2,0.1h-8.4C604.1,1328.1,604,1328.1,604,1328z"/>
	</g>
	<g class="st1">
		<path d="M653.9,1328c-0.1-0.1-0.1-0.1-0.1-0.2V1308c0-0.1,0-0.2,0.1-0.2c0.1,0,0.1-0.1,0.2-0.1h1.1c0.1,0,0.2,0,0.2,0.1
			c0,0.1,0.1,0.1,0.1,0.2v19.8c0,0.1,0,0.1-0.1,0.2c0,0.1-0.1,0.1-0.2,0.1h-1.1C654,1328.1,653.9,1328.1,653.9,1328z"/>
	</g>
	<g class="st1">
		<path d="M175.5,1380.4c-0.1-0.1-0.1-0.1-0.1-0.2v-19.8c0-0.1,0-0.2,0.1-0.2c0.1,0,0.1-0.1,0.2-0.1h1.1c0.1,0,0.2,0,0.2,0.1
			c0,0.1,0.1,0.1,0.1,0.2v19.8c0,0.1,0,0.1-0.1,0.2c-0.1,0.1-0.1,0.1-0.2,0.1h-1.1C175.6,1380.5,175.6,1380.5,175.5,1380.4z
			 M178.8,1380.4c-0.1-0.1-0.1-0.1-0.1-0.2v-1c0-0.1,0-0.2,0.1-0.2s0.1-0.1,0.2-0.1h2.9c1.4,0,2.5-0.2,3.3-0.7
			c0.8-0.5,1.5-1.3,1.8-2.3c0.2-0.5,0.3-1.2,0.4-1.9c0.1-0.8,0.1-2,0.1-3.6c0-1.6,0-2.8-0.1-3.6c-0.1-0.8-0.2-1.4-0.4-2
			c-0.4-1.1-1-1.8-1.8-2.3c-0.9-0.5-2-0.7-3.3-0.7H179c-0.1,0-0.1,0-0.2-0.1c-0.1-0.1-0.1-0.1-0.1-0.2v-1c0-0.1,0-0.2,0.1-0.2
			c0.1,0,0.1-0.1,0.2-0.1h3.1c3.4,0,5.6,1.4,6.5,4.1c0.2,0.6,0.3,1.3,0.4,2.2c0.1,0.8,0.1,2.1,0.1,3.9c0,1.8,0,3.1-0.1,3.9
			c-0.1,0.8-0.2,1.5-0.4,2.2c-0.9,2.8-3.1,4.1-6.5,4.1H179C178.9,1380.5,178.8,1380.5,178.8,1380.4z"/>
	</g>
	<g class="st1">
		<path d="M222.7,1380.4c-0.1-0.1-0.1-0.1-0.1-0.2v-19.8c0-0.1,0-0.2,0.1-0.2c0.1,0,0.1-0.1,0.2-0.1h1.1c0.1,0,0.2,0,0.2,0.1
			c0,0.1,0.1,0.1,0.1,0.2v19.8c0,0.1,0,0.1-0.1,0.2c-0.1,0.1-0.1,0.1-0.2,0.1h-1.1C222.9,1380.5,222.8,1380.5,222.7,1380.4z
			 M226,1371.3c-0.1-0.1-0.1-0.1-0.1-0.2v-1c0-0.1,0-0.2,0.1-0.2s0.1-0.1,0.2-0.1h3.5c1.5,0,2.6-0.3,3.4-1c0.8-0.7,1.2-1.7,1.2-3
			s-0.4-2.3-1.2-3c-0.8-0.7-1.9-1-3.4-1h-3.5c-0.1,0-0.1,0-0.2-0.1c-0.1-0.1-0.1-0.1-0.1-0.2v-1c0-0.1,0-0.2,0.1-0.2
			c0.1,0,0.1-0.1,0.2-0.1h3.5c1.3,0,2.4,0.2,3.3,0.7c0.9,0.4,1.6,1.1,2.1,1.9c0.5,0.9,0.8,1.9,0.8,3c0,1.1-0.2,2.1-0.7,2.9
			c-0.5,0.9-1.2,1.5-2.1,2c-1,0.5-2.1,0.7-3.5,0.7h-3.4C226.2,1371.4,226.1,1371.3,226,1371.3z M234.5,1380.5
			c-0.1,0-0.1-0.1-0.1-0.2l-3.4-7.1c-0.1-0.1-0.1-0.2,0-0.3c0,0,0.1-0.1,0.2-0.1c0.1,0,0.1,0,0.1,0c0.4,0,0.7-0.1,0.9-0.2
			c0,0,0.1,0,0.1,0c0.1,0,0.2,0.1,0.2,0.2l3.7,7.4c0,0,0,0.1,0,0.2c0,0.1-0.1,0.2-0.2,0.2h-1.3
			C234.6,1380.5,234.6,1380.5,234.5,1380.5z"/>
	</g>
	<g class="st1">
		<path d="M270,1380.4c-0.1-0.1-0.1-0.1-0.1-0.2v-19.8c0-0.1,0-0.2,0.1-0.2c0.1,0,0.1-0.1,0.2-0.1h1.1c0.1,0,0.2,0,0.2,0.1
			c0,0.1,0.1,0.1,0.1,0.2v19.8c0,0.1,0,0.1-0.1,0.2c-0.1,0.1-0.1,0.1-0.2,0.1h-1.1C270.1,1380.5,270,1380.5,270,1380.4z
			 M273.3,1361.6c-0.1-0.1-0.1-0.1-0.1-0.2v-1c0-0.1,0-0.2,0.1-0.2c0.1,0,0.1-0.1,0.2-0.1h8.4c0.1,0,0.2,0,0.2,0.1
			c0,0.1,0.1,0.1,0.1,0.2v1c0,0.1,0,0.2-0.1,0.2c-0.1,0.1-0.1,0.1-0.2,0.1h-8.4C273.4,1361.7,273.3,1361.7,273.3,1361.6z
			 M273.3,1370.9c-0.1-0.1-0.1-0.1-0.1-0.2v-1c0-0.1,0-0.2,0.1-0.2s0.1-0.1,0.2-0.1h7c0.1,0,0.2,0,0.2,0.1c0,0,0.1,0.1,0.1,0.2v1
			c0,0.1,0,0.1-0.1,0.2c-0.1,0.1-0.1,0.1-0.2,0.1h-7C273.4,1371,273.3,1371,273.3,1370.9z M273.3,1380.4c-0.1-0.1-0.1-0.1-0.1-0.2
			v-1c0-0.1,0-0.2,0.1-0.2s0.1-0.1,0.2-0.1h8.4c0.1,0,0.2,0,0.2,0.1c0,0,0.1,0.1,0.1,0.2v1c0,0.1,0,0.1-0.1,0.2
			c-0.1,0.1-0.1,0.1-0.2,0.1h-8.4C273.4,1380.5,273.3,1380.5,273.3,1380.4z"/>
	</g>
	<g class="st1">
		<path d="M323.2,1380.4c-0.1-0.1-0.1-0.1-0.1-0.2v-19.8c0-0.1,0-0.2,0.1-0.2c0.1,0,0.1-0.1,0.2-0.1h1.1c0.1,0,0.2,0,0.2,0.1
			c0,0.1,0.1,0.1,0.1,0.2v19.8c0,0.1,0,0.1-0.1,0.2c0,0.1-0.1,0.1-0.2,0.1h-1.1C323.3,1380.5,323.2,1380.5,323.2,1380.4z"/>
	</g>
	<g class="st1">
		<path d="M362.5,1380.4c0-0.1,0-0.1,0-0.2l6.2-17.1c0.1-0.1,0.1-0.2,0.2-0.2c0,0,0.1,0,0.1,0s0.1,0.1,0.1,0.1l0.6,1.6
			c0,0.1,0.1,0.1,0.1,0.2c0,0.1,0,0.2-0.1,0.2l-3,8.4h5.9c0.2,0,0.3,0.1,0.4,0.2l0.4,1l0,0.1c0,0.1,0,0.1-0.1,0.2s-0.1,0.1-0.2,0.1
			h-6.9l-1.8,5.1c0,0.1-0.1,0.2-0.2,0.2c-0.1,0-0.1,0.1-0.2,0.1h-1.2C362.6,1380.5,362.5,1380.5,362.5,1380.4z M376.8,1380.3
			l-7-19.8l0-0.1c0-0.1,0-0.1,0.1-0.2c0,0,0.1-0.1,0.2-0.1h1.1c0.2,0,0.3,0.1,0.4,0.3l7.1,19.8l0,0.1c0,0.1,0,0.1-0.1,0.2
			s-0.1,0.1-0.2,0.1h-1.2C376.9,1380.5,376.8,1380.4,376.8,1380.3z"/>
	</g>
	<g class="st1">
		<path d="M412.9,1378.6c-1-1.2-1.5-3-1.5-5.2v-13c0-0.1,0-0.2,0.1-0.2c0.1,0,0.1-0.1,0.2-0.1h1.1c0.1,0,0.2,0,0.2,0.1
			c0,0.1,0.1,0.1,0.1,0.2v13c0,1.7,0.4,3,1.1,3.9c0.7,1,1.7,1.5,3.1,1.8c0.2,0,0.3,0.1,0.3,0.3v1c0,0.1,0,0.2-0.1,0.2
			c-0.1,0-0.1,0.1-0.2,0C415.4,1380.6,413.9,1379.9,412.9,1378.6z M419.4,1380.8c-0.1,0-0.1,0-0.2-0.1s-0.1-0.1-0.1-0.2v-1
			c0-0.2,0.1-0.3,0.3-0.3c1.3-0.2,2.4-0.8,3.1-1.7s1.1-2.3,1.1-4v-13c0-0.1,0-0.2,0.1-0.2c0.1,0,0.1-0.1,0.2-0.1h1.1
			c0.1,0,0.2,0,0.2,0.1c0,0.1,0.1,0.1,0.1,0.2v13c0,2.2-0.5,3.9-1.5,5.1C422.7,1379.8,421.3,1380.6,419.4,1380.8L419.4,1380.8z"/>
	</g>
	<g class="st1">
		<path d="M458.9,1380.2c-0.6-0.3-1.2-0.6-1.6-1.1c-0.1-0.1-0.1-0.1-0.1-0.2c0-0.1,0-0.1,0.1-0.2c0.1,0,0.1-0.1,0.1-0.1l0.7-0.6
			c0.1-0.1,0.1-0.1,0.2-0.1c0.1,0,0.2,0,0.2,0.1c0.3,0.3,0.7,0.5,1.1,0.7s0.9,0.3,1.4,0.4c0.2,0,0.3,0.1,0.3,0.3v1
			c0,0.1,0,0.2-0.1,0.2c-0.1,0.1-0.1,0.1-0.2,0.1C460.2,1380.7,459.5,1380.5,458.9,1380.2z M463.1,1380.7c-0.1,0-0.1,0-0.2-0.1
			c-0.1-0.1-0.1-0.1-0.1-0.2v-1c0-0.2,0.1-0.3,0.3-0.3c0.9-0.2,1.6-0.7,2.1-1.5c0.5-0.8,0.7-1.8,0.7-3.2v-14c0-0.1,0-0.2,0.1-0.2
			c0.1,0,0.1-0.1,0.2-0.1h1.1c0.1,0,0.2,0,0.2,0.1c0,0.1,0.1,0.1,0.1,0.2v14c0,1.8-0.4,3.3-1.2,4.3S464.6,1380.4,463.1,1380.7
			L463.1,1380.7z"/>
	</g>
	<g class="st1">
		<path d="M510.8,1380.2l-6.8-19.7l-0.1-0.2c0-0.1,0-0.1,0.1-0.2c0,0,0.1-0.1,0.2-0.1h1.1c0.1,0,0.2,0,0.3,0.1
			c0.1,0,0.1,0.1,0.1,0.2l6.7,19.6c0,0.1,0.1,0.2,0.1,0.3c0,0.2-0.1,0.3-0.3,0.3h-1C511,1380.5,510.9,1380.4,510.8,1380.2z
			 M512.6,1375.9c0,0,0-0.1,0-0.2c0-0.1,0-0.2,0.1-0.3l5-15c0-0.1,0.1-0.2,0.2-0.2c0.1,0,0.1-0.1,0.3-0.1h1.1c0.1,0,0.2,0,0.2,0.1
			c0,0.1,0,0.2,0,0.3l-5.8,17c0,0.1,0,0.1-0.1,0.2s-0.1,0.1-0.1,0.1c-0.1,0-0.1-0.1-0.2-0.2L512.6,1375.9z"/>
	</g>
	<g class="st1">
		<path d="M559.4,1380.4c-0.1-0.1-0.1-0.1-0.1-0.2v-19.8c0-0.1,0-0.2,0.1-0.2c0.1,0,0.1-0.1,0.2-0.1h1.1c0.1,0,0.2,0,0.2,0.1
			c0,0.1,0.1,0.1,0.1,0.2v19.8c0,0.1,0,0.1-0.1,0.2c0,0.1-0.1,0.1-0.2,0.1h-1.1C559.5,1380.5,559.5,1380.5,559.4,1380.4z"/>
	</g>
	<g class="st1">
		<path d="M600.7,1380.4c-0.1-0.1-0.1-0.1-0.1-0.2v-19.8c0-0.1,0-0.2,0.1-0.2c0.1,0,0.1-0.1,0.2-0.1h1.1c0.1,0,0.2,0,0.2,0.1
			c0,0.1,0.1,0.1,0.1,0.2v19.8c0,0.1,0,0.1-0.1,0.2c0,0.1-0.1,0.1-0.2,0.1h-1.1C600.8,1380.5,600.7,1380.5,600.7,1380.4z
			 M604,1361.6c-0.1-0.1-0.1-0.1-0.1-0.2v-1c0-0.1,0-0.2,0.1-0.2c0.1,0,0.1-0.1,0.2-0.1h8.4c0.1,0,0.2,0,0.2,0.1
			c0,0.1,0.1,0.1,0.1,0.2v1c0,0.1,0,0.2-0.1,0.2c0,0.1-0.1,0.1-0.2,0.1h-8.4C604.1,1361.7,604,1361.7,604,1361.6z M604,1370.9
			c-0.1-0.1-0.1-0.1-0.1-0.2v-1c0-0.1,0-0.2,0.1-0.2s0.1-0.1,0.2-0.1h7c0.1,0,0.2,0,0.2,0.1c0,0,0.1,0.1,0.1,0.2v1
			c0,0.1,0,0.1-0.1,0.2c-0.1,0.1-0.1,0.1-0.2,0.1h-7C604.1,1371,604,1371,604,1370.9z M604,1380.4c-0.1-0.1-0.1-0.1-0.1-0.2v-1
			c0-0.1,0-0.2,0.1-0.2s0.1-0.1,0.2-0.1h8.4c0.1,0,0.2,0,0.2,0.1s0.1,0.1,0.1,0.2v1c0,0.1,0,0.1-0.1,0.2c0,0.1-0.1,0.1-0.2,0.1h-8.4
			C604.1,1380.5,604,1380.5,604,1380.4z"/>
	</g>
	<g class="st1">
		<path d="M647.9,1380.4c-0.1-0.1-0.1-0.1-0.1-0.2v-19.8c0-0.1,0-0.2,0.1-0.2c0.1,0,0.1-0.1,0.2-0.1h1.1c0.1,0,0.2,0,0.2,0.1
			c0,0.1,0.1,0.1,0.1,0.2v19.8c0,0.1,0,0.1-0.1,0.2c0,0.1-0.1,0.1-0.2,0.1h-1.1C648.1,1380.5,648,1380.5,647.9,1380.4z
			 M651.2,1371.3c-0.1-0.1-0.1-0.1-0.1-0.2v-1c0-0.1,0-0.2,0.1-0.2s0.1-0.1,0.2-0.1h3.5c1.5,0,2.6-0.3,3.4-1c0.8-0.7,1.2-1.7,1.2-3
			s-0.4-2.3-1.2-3s-1.9-1-3.4-1h-3.5c-0.1,0-0.2,0-0.2-0.1c-0.1-0.1-0.1-0.1-0.1-0.2v-1c0-0.1,0-0.2,0.1-0.2c0.1,0,0.1-0.1,0.2-0.1
			h3.5c1.3,0,2.4,0.2,3.3,0.7c0.9,0.4,1.6,1.1,2.1,1.9c0.5,0.9,0.8,1.9,0.8,3c0,1.1-0.2,2.1-0.7,2.9c-0.5,0.9-1.2,1.5-2.1,2
			c-1,0.5-2.1,0.7-3.5,0.7h-3.4C651.4,1371.4,651.3,1371.3,651.2,1371.3z M659.7,1380.5c0,0-0.1-0.1-0.1-0.2l-3.4-7.1
			c-0.1-0.1-0.1-0.2,0-0.3c0,0,0.1-0.1,0.2-0.1c0.1,0,0.1,0,0.2,0c0.4,0,0.7-0.1,0.9-0.2c0,0,0.1,0,0.1,0c0.1,0,0.2,0.1,0.2,0.2
			l3.7,7.4c0,0,0,0.1,0,0.2c0,0.1-0.1,0.2-0.2,0.2h-1.3C659.8,1380.5,659.8,1380.5,659.7,1380.5z"/>
	</g>
	<g class="st1">
		<path d="M177.1,1432.4c-1-0.4-1.9-0.9-2.5-1.5c-0.1-0.1-0.1-0.1-0.1-0.2c0-0.1,0-0.2,0.1-0.2l0.7-0.8c0.1-0.1,0.3-0.2,0.4,0
			c0.6,0.5,1.3,0.9,2.1,1.3s1.7,0.6,2.6,0.7c0.2,0,0.3,0.1,0.3,0.3v1c0,0.1,0,0.2-0.1,0.2c-0.1,0-0.1,0.1-0.2,0
			C179.2,1433.1,178.1,1432.8,177.1,1432.4z M182.5,1433.2c-0.1,0-0.1,0-0.2-0.1s-0.1-0.1-0.1-0.2v-1c0-0.2,0.1-0.3,0.3-0.3
			c1.3-0.1,2.4-0.6,3.1-1.3s1.1-1.7,1.1-2.8c0-1.1-0.4-2-1.1-2.7c-0.7-0.7-2-1.1-3.8-1.3l-1-0.1c-2-0.3-3.4-0.8-4.4-1.8
			c-1-0.9-1.5-2.1-1.5-3.6c0-1,0.2-2,0.6-2.8c0.4-0.8,1-1.5,1.8-2c0.8-0.5,1.7-0.8,2.8-0.9h0.1c0.1,0,0.1,0,0.2,0.1
			c0,0.1,0.1,0.1,0.1,0.2v1c0,0.2-0.1,0.3-0.3,0.3c-1.1,0.2-2,0.6-2.6,1.3c-0.6,0.7-0.9,1.6-0.9,2.6c0,1.1,0.4,2,1.1,2.6
			c0.8,0.7,2,1.1,3.7,1.3l1,0.1c2,0.3,3.5,0.8,4.4,1.8s1.4,2.1,1.4,3.7c0,1.1-0.2,2-0.7,2.8c-0.5,0.8-1.1,1.5-2,2
			C184.9,1432.8,183.8,1433.1,182.5,1433.2L182.5,1433.2z M182.5,1413.9c-0.2,0-0.3-0.2-0.3-0.3v-1c0-0.1,0-0.2,0.1-0.2
			s0.1-0.1,0.2,0c0.9,0.1,1.8,0.3,2.6,0.5c0.8,0.3,1.5,0.6,2.1,1.1c0.2,0.1,0.2,0.3,0.1,0.4l-0.6,0.9c-0.1,0.1-0.3,0.2-0.4,0.1
			C185.1,1414.5,183.8,1414.1,182.5,1413.9z"/>
	</g>
	<g class="st1">
		<path d="M222.7,1432.9c-0.1-0.1-0.1-0.1-0.1-0.2v-19.8c0-0.1,0-0.2,0.1-0.2c0.1,0,0.1-0.1,0.2-0.1h1.1c0.1,0,0.2,0,0.2,0.1
			c0,0.1,0.1,0.1,0.1,0.2v19.8c0,0.1,0,0.1-0.1,0.2c-0.1,0.1-0.1,0.1-0.2,0.1h-1.1C222.9,1433,222.8,1432.9,222.7,1432.9z
			 M226,1414.1c-0.1-0.1-0.1-0.1-0.1-0.2v-1c0-0.1,0-0.2,0.1-0.2c0.1,0,0.1-0.1,0.2-0.1h8.4c0.1,0,0.2,0,0.2,0.1
			c0,0.1,0.1,0.1,0.1,0.2v1c0,0.1,0,0.2-0.1,0.2c-0.1,0.1-0.1,0.1-0.2,0.1h-8.4C226.2,1414.2,226.1,1414.1,226,1414.1z M226,1423.3
			c-0.1-0.1-0.1-0.1-0.1-0.2v-1c0-0.1,0-0.2,0.1-0.2s0.1-0.1,0.2-0.1h7c0.1,0,0.2,0,0.2,0.1c0,0,0.1,0.1,0.1,0.2v1
			c0,0.1,0,0.1-0.1,0.2c-0.1,0.1-0.1,0.1-0.2,0.1h-7C226.2,1423.4,226.1,1423.4,226,1423.3z M226,1432.9c-0.1-0.1-0.1-0.1-0.1-0.2
			v-1c0-0.1,0-0.2,0.1-0.2s0.1-0.1,0.2-0.1h8.4c0.1,0,0.2,0,0.2,0.1c0,0,0.1,0.1,0.1,0.2v1c0,0.1,0,0.1-0.1,0.2
			c-0.1,0.1-0.1,0.1-0.2,0.1h-8.4C226.2,1433,226.1,1432.9,226,1432.9z"/>
	</g>
	<g class="st1">
		<path d="M271.6,1431.8c-0.9-0.8-1.6-1.8-2-3.1c-0.2-0.5-0.3-1.2-0.4-2.1c-0.1-0.9-0.1-2.2-0.1-3.9c0-1.7,0-3,0.1-3.9
			c0.1-0.9,0.2-1.6,0.4-2.1c0.4-1.3,1.1-2.4,2-3.1c0.9-0.8,2-1.2,3.3-1.4h0.1c0.1,0,0.1,0,0.2,0.1c0,0.1,0.1,0.1,0.1,0.2v1
			c0,0.2-0.1,0.3-0.3,0.3c-0.9,0.1-1.7,0.5-2.3,1c-0.6,0.6-1.1,1.3-1.4,2.3c-0.1,0.4-0.3,1.1-0.3,1.9c-0.1,0.8-0.1,2-0.1,3.6
			s0,2.8,0.1,3.6c0.1,0.8,0.2,1.4,0.3,1.9c0.3,1,0.8,1.7,1.4,2.3c0.6,0.6,1.4,0.9,2.3,1.1c0.2,0,0.3,0.1,0.3,0.3v1
			c0,0.1,0,0.2-0.1,0.2c-0.1,0-0.1,0.1-0.2,0C273.6,1433,272.5,1432.6,271.6,1431.8z M281,1416.9c-0.1,0-0.2-0.1-0.3-0.2
			c-0.9-1.6-2.1-2.5-3.6-2.8c-0.2,0-0.3-0.1-0.3-0.3v-1c0-0.1,0-0.2,0.1-0.2c0.1-0.1,0.1-0.1,0.2-0.1c1.1,0.2,2.1,0.5,3,1.2
			s1.5,1.5,2,2.5c0,0,0,0.1,0,0.2s0,0.1-0.1,0.2l-1,0.5C281.1,1416.9,281,1416.9,281,1416.9z M277.1,1433.2c-0.1,0-0.1,0-0.2-0.1
			c-0.1-0.1-0.1-0.1-0.1-0.2v-1c0-0.2,0.1-0.3,0.3-0.3c1.6-0.3,2.8-1.2,3.6-2.8c0-0.1,0.1-0.1,0.2-0.2c0.1,0,0.1,0,0.2,0l1,0.5
			c0.1,0.1,0.2,0.2,0.1,0.4c-0.5,1.1-1.2,1.9-2,2.5S278.3,1433,277.1,1433.2L277.1,1433.2z"/>
	</g>
	<g class="st1">
		<path d="M317.2,1432.9c-0.1-0.1-0.1-0.1-0.1-0.2v-19.8c0-0.1,0-0.2,0.1-0.2c0.1,0,0.1-0.1,0.2-0.1h1.1c0.1,0,0.2,0,0.2,0.1
			c0,0.1,0.1,0.1,0.1,0.2v19.8c0,0.1,0,0.1-0.1,0.2c0,0.1-0.1,0.1-0.2,0.1h-1.1C317.4,1433,317.3,1432.9,317.2,1432.9z
			 M320.4,1423.3c-0.1-0.1-0.1-0.1-0.1-0.2v-1c0-0.1,0-0.2,0.1-0.2c0.1,0,0.1-0.1,0.2-0.1h6.9c0.1,0,0.2,0,0.2,0.1s0.1,0.1,0.1,0.2
			v1c0,0.1,0,0.1-0.1,0.2c0,0.1-0.1,0.1-0.2,0.1h-6.9C320.5,1423.4,320.5,1423.4,320.4,1423.3z M329.4,1432.9
			c-0.1-0.1-0.1-0.1-0.1-0.2v-19.8c0-0.1,0-0.2,0.1-0.2c0.1,0,0.1-0.1,0.2-0.1h1.1c0.1,0,0.2,0,0.2,0.1c0,0.1,0.1,0.1,0.1,0.2v19.8
			c0,0.1,0,0.1-0.1,0.2c-0.1,0.1-0.1,0.1-0.2,0.1h-1.1C329.5,1433,329.4,1432.9,329.4,1432.9z"/>
	</g>
	<g class="st1">
		<path d="M366,1432.4c-1.1-0.4-1.9-0.9-2.5-1.5c-0.1-0.1-0.1-0.1-0.1-0.2s0-0.2,0.1-0.2l0.7-0.8c0.1-0.1,0.3-0.2,0.4,0
			c0.6,0.5,1.3,0.9,2.1,1.3c0.8,0.4,1.7,0.6,2.6,0.7c0.2,0,0.3,0.1,0.3,0.3v1c0,0.1,0,0.2-0.1,0.2c-0.1,0-0.1,0.1-0.2,0
			C368.2,1433.1,367.1,1432.8,366,1432.4z M371.5,1433.2c-0.1,0-0.1,0-0.2-0.1c-0.1,0-0.1-0.1-0.1-0.2v-1c0-0.2,0.1-0.3,0.3-0.3
			c1.3-0.1,2.3-0.6,3.1-1.3s1.1-1.7,1.1-2.8c0-1.1-0.4-2-1.1-2.7c-0.7-0.7-2-1.1-3.8-1.3l-1-0.1c-2-0.3-3.4-0.8-4.4-1.8
			c-1-0.9-1.5-2.1-1.5-3.6c0-1,0.2-2,0.6-2.8c0.4-0.8,1-1.5,1.8-2s1.7-0.8,2.8-0.9h0.1c0.1,0,0.1,0,0.2,0.1c0,0.1,0.1,0.1,0.1,0.2v1
			c0,0.2-0.1,0.3-0.3,0.3c-1.1,0.2-2,0.6-2.6,1.3c-0.6,0.7-0.9,1.6-0.9,2.6c0,1.1,0.4,2,1.1,2.6c0.8,0.7,2,1.1,3.7,1.3l1,0.1
			c2,0.3,3.5,0.8,4.4,1.8s1.4,2.1,1.4,3.7c0,1.1-0.2,2-0.7,2.8c-0.4,0.8-1.1,1.5-2,2C373.9,1432.8,372.8,1433.1,371.5,1433.2
			L371.5,1433.2z M371.5,1413.9c-0.2,0-0.3-0.2-0.3-0.3v-1c0-0.1,0-0.2,0.1-0.2s0.1-0.1,0.2,0c0.9,0.1,1.8,0.3,2.6,0.5
			s1.5,0.6,2.1,1.1c0.2,0.1,0.2,0.3,0.1,0.4l-0.6,0.9c-0.1,0.1-0.3,0.2-0.4,0.1C374,1414.5,372.8,1414.1,371.5,1413.9z"/>
	</g>
	<g class="st1">
		<path d="M423.9,1432.9c-0.1,0-0.2-0.1-0.2-0.2l-11.9-19.4c-0.1-0.1-0.1-0.2-0.1-0.4c0-0.2,0.1-0.3,0.3-0.3h1c0.1,0,0.2,0,0.3,0.1
			c0.1,0,0.1,0.1,0.2,0.2l12,19.5c0,0.1,0.1,0.1,0.1,0.2c0,0.1,0,0.1,0,0.2c0,0.1-0.1,0.2-0.3,0.2h-1
			C424.1,1433,424,1432.9,423.9,1432.9z M411.7,1432.9c-0.1-0.1-0.1-0.1-0.1-0.2v-16.2c0-0.2,0-0.2,0.1-0.2c0.1,0,0.2,0,0.2,0.2
			l1.2,1.9c0.1,0.1,0.1,0.2,0.1,0.4v14c0,0.1,0,0.1-0.1,0.2c-0.1,0.1-0.1,0.1-0.2,0.1h-1C411.8,1433,411.8,1432.9,411.7,1432.9z
			 M424,1427.2c-0.1-0.1-0.1-0.2-0.1-0.4v-13.9c0-0.1,0-0.2,0.1-0.2c0.1,0,0.1-0.1,0.2-0.1h1c0.1,0,0.2,0,0.2,0.1
			c0,0.1,0.1,0.1,0.1,0.2v16.1c0,0.2,0,0.2-0.2,0.2c-0.1,0-0.1,0-0.2-0.2L424,1427.2z"/>
	</g>
	<g class="st1">
		<path d="M459,1432.9c-0.1-0.1-0.1-0.1-0.1-0.2v-19.8c0-0.1,0-0.2,0.1-0.2c0.1,0,0.1-0.1,0.2-0.1h1.1c0.1,0,0.2,0,0.2,0.1
			c0,0.1,0.1,0.1,0.1,0.2v19.8c0,0.1,0,0.1-0.1,0.2c0,0.1-0.1,0.1-0.2,0.1h-1.1C459.1,1433,459,1432.9,459,1432.9z M462.3,1432.9
			c-0.1-0.1-0.1-0.1-0.1-0.2v-1c0-0.1,0-0.2,0.1-0.2s0.1-0.1,0.2-0.1h8.4c0.1,0,0.2,0,0.2,0.1s0.1,0.1,0.1,0.2v1
			c0,0.1,0,0.1-0.1,0.2c0,0.1-0.1,0.1-0.2,0.1h-8.4C462.4,1433,462.3,1432.9,462.3,1432.9z"/>
	</g>
	<g class="st1">
		<path d="M504.2,1432.9c0-0.1,0-0.1,0-0.2l6.2-17.1c0.1-0.1,0.1-0.2,0.2-0.2c0,0,0.1,0,0.1,0s0.1,0.1,0.1,0.1l0.6,1.6
			c0,0.1,0.1,0.1,0.1,0.2c0,0.1,0,0.2-0.1,0.2l-3,8.4h5.9c0.2,0,0.3,0.1,0.4,0.2l0.4,1l0,0.1c0,0.1,0,0.1-0.1,0.2s-0.1,0.1-0.2,0.1
			h-6.9l-1.8,5.1c0,0.1-0.1,0.2-0.2,0.2c-0.1,0-0.1,0.1-0.2,0.1h-1.2C504.3,1433,504.3,1432.9,504.2,1432.9z M518.5,1432.7l-7-19.8
			l0-0.1c0-0.1,0-0.1,0.1-0.2c0,0,0.1-0.1,0.2-0.1h1.1c0.2,0,0.3,0.1,0.4,0.3l7.1,19.8l0,0.1c0,0.1,0,0.1-0.1,0.2s-0.1,0.1-0.2,0.1
			h-1.2C518.7,1433,518.6,1432.9,518.5,1432.7z"/>
	</g>
	<g class="st1">
		<path d="M555,1431.8c-0.9-0.8-1.6-1.8-2-3.1c-0.2-0.5-0.3-1.2-0.4-2.1s-0.1-2.2-0.1-3.9c0-1.7,0-3,0.1-3.9s0.2-1.6,0.4-2.1
			c0.4-1.3,1.1-2.4,2-3.1s2-1.2,3.3-1.4h0.1c0.1,0,0.1,0,0.2,0.1c0,0.1,0.1,0.1,0.1,0.2v1c0,0.2-0.1,0.3-0.3,0.3
			c-0.9,0.1-1.7,0.5-2.3,1c-0.6,0.6-1.1,1.3-1.4,2.3c-0.1,0.4-0.2,1.1-0.3,1.9c-0.1,0.8-0.1,2-0.1,3.6s0,2.8,0.1,3.6
			c0.1,0.8,0.2,1.4,0.3,1.9c0.3,1,0.8,1.7,1.4,2.3c0.6,0.6,1.4,0.9,2.3,1.1c0.2,0,0.3,0.1,0.3,0.3v1c0,0.1,0,0.2-0.1,0.2
			c-0.1,0-0.1,0.1-0.2,0C557,1433,555.9,1432.6,555,1431.8z M564.4,1416.9c-0.1,0-0.2-0.1-0.3-0.2c-0.9-1.6-2.1-2.5-3.6-2.8
			c-0.2,0-0.3-0.1-0.3-0.3v-1c0-0.1,0-0.2,0.1-0.2c0.1-0.1,0.1-0.1,0.2-0.1c1.1,0.2,2.1,0.5,3,1.2s1.5,1.5,2,2.5c0,0,0,0.1,0,0.2
			s0,0.1-0.1,0.2l-1,0.5C564.5,1416.9,564.5,1416.9,564.4,1416.9z M560.5,1433.2c-0.1,0-0.1,0-0.2-0.1c0-0.1-0.1-0.1-0.1-0.2v-1
			c0-0.2,0.1-0.3,0.3-0.3c1.6-0.3,2.8-1.2,3.6-2.8c0-0.1,0.1-0.1,0.2-0.2c0.1,0,0.1,0,0.2,0l1,0.5c0.1,0.1,0.2,0.2,0.1,0.4
			c-0.5,1.1-1.2,1.9-2,2.5S561.7,1433,560.5,1433.2L560.5,1433.2z"/>
	</g>
	<g class="st1">
		<path d="M600.7,1432.9c-0.1-0.1-0.1-0.1-0.1-0.2v-19.8c0-0.1,0-0.2,0.1-0.2c0.1,0,0.1-0.1,0.2-0.1h1.1c0.1,0,0.2,0,0.2,0.1
			c0,0.1,0.1,0.1,0.1,0.2v19.8c0,0.1,0,0.1-0.1,0.2c0,0.1-0.1,0.1-0.2,0.1h-1.1C600.8,1433,600.7,1432.9,600.7,1432.9z
			 M603.9,1423.3c-0.1-0.1-0.1-0.1-0.1-0.2v-1c0-0.1,0-0.2,0.1-0.2c0.1,0,0.1-0.1,0.2-0.1h6.9c0.1,0,0.2,0,0.2,0.1s0.1,0.1,0.1,0.2
			v1c0,0.1,0,0.1-0.1,0.2c0,0.1-0.1,0.1-0.2,0.1h-6.9C604,1423.4,603.9,1423.4,603.9,1423.3z M612.8,1432.9
			c-0.1-0.1-0.1-0.1-0.1-0.2v-19.8c0-0.1,0-0.2,0.1-0.2c0.1,0,0.1-0.1,0.2-0.1h1.1c0.1,0,0.2,0,0.2,0.1c0,0.1,0.1,0.1,0.1,0.2v19.8
			c0,0.1,0,0.1-0.1,0.2c-0.1,0.1-0.1,0.1-0.2,0.1H613C613,1433,612.9,1432.9,612.8,1432.9z"/>
	</g>
	<g class="st1">
		<path d="M645.8,1414.1c-0.1-0.1-0.1-0.1-0.1-0.2v-1c0-0.1,0-0.2,0.1-0.2c0.1,0,0.1-0.1,0.2-0.1h13.8c0.1,0,0.2,0,0.2,0.1
			c0,0.1,0.1,0.1,0.1,0.2v1c0,0.1,0,0.2-0.1,0.2c-0.1,0.1-0.1,0.1-0.2,0.1H646C645.9,1414.2,645.8,1414.1,645.8,1414.1z
			 M652.1,1432.9c-0.1-0.1-0.1-0.1-0.1-0.2V1416c0-0.1,0-0.2,0.1-0.2c0.1,0,0.1-0.1,0.2-0.1h1.1c0.1,0,0.2,0,0.2,0.1
			s0.1,0.1,0.1,0.2v16.7c0,0.1,0,0.1-0.1,0.2c0,0.1-0.1,0.1-0.2,0.1h-1.1C652.2,1433,652.2,1432.9,652.1,1432.9z"/>
	</g>
	<g class="st1">
		<path d="M177.1,1484.8c-1-0.4-1.9-0.9-2.5-1.5c-0.1-0.1-0.1-0.1-0.1-0.2c0-0.1,0-0.2,0.1-0.2l0.7-0.8c0.1-0.1,0.3-0.2,0.4,0
			c0.6,0.5,1.3,0.9,2.1,1.3s1.7,0.6,2.6,0.7c0.2,0,0.3,0.1,0.3,0.3v1c0,0.1,0,0.2-0.1,0.2c-0.1,0-0.1,0.1-0.2,0
			C179.2,1485.5,178.1,1485.3,177.1,1484.8z M182.5,1485.6c-0.1,0-0.1,0-0.2-0.1s-0.1-0.1-0.1-0.2v-1c0-0.2,0.1-0.3,0.3-0.3
			c1.3-0.1,2.4-0.6,3.1-1.3s1.1-1.7,1.1-2.8c0-1.1-0.4-2-1.1-2.7c-0.7-0.7-2-1.1-3.8-1.3l-1-0.1c-2-0.3-3.4-0.8-4.4-1.8
			c-1-0.9-1.5-2.1-1.5-3.6c0-1,0.2-2,0.6-2.8c0.4-0.8,1-1.5,1.8-2c0.8-0.5,1.7-0.8,2.8-0.9h0.1c0.1,0,0.1,0,0.2,0.1
			c0,0.1,0.1,0.1,0.1,0.2v1c0,0.2-0.1,0.3-0.3,0.3c-1.1,0.2-2,0.6-2.6,1.3c-0.6,0.7-0.9,1.6-0.9,2.6c0,1.1,0.4,2,1.1,2.6
			c0.8,0.7,2,1.1,3.7,1.3l1,0.1c2,0.3,3.5,0.8,4.4,1.8s1.4,2.1,1.4,3.7c0,1.1-0.2,2-0.7,2.8c-0.5,0.8-1.1,1.5-2,2
			C184.9,1485.2,183.8,1485.5,182.5,1485.6L182.5,1485.6z M182.5,1466.4c-0.2,0-0.3-0.2-0.3-0.3v-1c0-0.1,0-0.2,0.1-0.2
			s0.1-0.1,0.2,0c0.9,0.1,1.8,0.3,2.6,0.5c0.8,0.3,1.5,0.6,2.1,1.1c0.2,0.1,0.2,0.3,0.1,0.4l-0.6,0.9c-0.1,0.1-0.3,0.2-0.4,0.1
			C185.1,1467,183.8,1466.5,182.5,1466.4z"/>
	</g>
	<g class="st1">
		<path d="M228.7,1485.3c-0.1-0.1-0.1-0.1-0.1-0.2v-19.8c0-0.1,0-0.2,0.1-0.2c0.1,0,0.1-0.1,0.2-0.1h1.1c0.1,0,0.2,0,0.2,0.1
			c0,0.1,0.1,0.1,0.1,0.2v19.8c0,0.1,0,0.1-0.1,0.2c-0.1,0.1-0.1,0.1-0.2,0.1h-1.1C228.8,1485.4,228.7,1485.4,228.7,1485.3z"/>
	</g>
	<g class="st1">
		<path d="M270,1485.3c-0.1-0.1-0.1-0.1-0.1-0.2v-19.8c0-0.1,0-0.2,0.1-0.2c0.1,0,0.1-0.1,0.2-0.1h1.1c0.1,0,0.2,0,0.2,0.1
			c0,0.1,0.1,0.1,0.1,0.2v19.8c0,0.1,0,0.1-0.1,0.2c-0.1,0.1-0.1,0.1-0.2,0.1h-1.1C270.1,1485.4,270,1485.4,270,1485.3z
			 M273.3,1466.5c-0.1-0.1-0.1-0.1-0.1-0.2v-1c0-0.1,0-0.2,0.1-0.2c0.1,0,0.1-0.1,0.2-0.1h8.4c0.1,0,0.2,0,0.2,0.1
			c0,0.1,0.1,0.1,0.1,0.2v1c0,0.1,0,0.2-0.1,0.2c-0.1,0.1-0.1,0.1-0.2,0.1h-8.4C273.4,1466.6,273.3,1466.6,273.3,1466.5z
			 M273.3,1475.8c-0.1-0.1-0.1-0.1-0.1-0.2v-1c0-0.1,0-0.2,0.1-0.2s0.1-0.1,0.2-0.1h7c0.1,0,0.2,0,0.2,0.1c0,0,0.1,0.1,0.1,0.2v1
			c0,0.1,0,0.1-0.1,0.2c-0.1,0.1-0.1,0.1-0.2,0.1h-7C273.4,1475.9,273.3,1475.8,273.3,1475.8z M273.3,1485.3
			c-0.1-0.1-0.1-0.1-0.1-0.2v-1c0-0.1,0-0.2,0.1-0.2s0.1-0.1,0.2-0.1h8.4c0.1,0,0.2,0,0.2,0.1c0,0,0.1,0.1,0.1,0.2v1
			c0,0.1,0,0.1-0.1,0.2c-0.1,0.1-0.1,0.1-0.2,0.1h-8.4C273.4,1485.4,273.3,1485.4,273.3,1485.3z"/>
	</g>
	<g class="st1">
		<path d="M317.2,1485.3c-0.1-0.1-0.1-0.1-0.1-0.2v-19.8c0-0.1,0-0.2,0.1-0.2c0.1,0,0.1-0.1,0.2-0.1h1.1c0.1,0,0.2,0,0.2,0.1
			c0,0.1,0.1,0.1,0.1,0.2v19.8c0,0.1,0,0.1-0.1,0.2c0,0.1-0.1,0.1-0.2,0.1h-1.1C317.4,1485.4,317.3,1485.4,317.2,1485.3z
			 M328.2,1473.5c-0.2-0.1-0.3-0.1-0.5-0.2c-0.2-0.1-0.3-0.2-0.2-0.5c0.7-0.9,1-1.8,1-2.7c0-0.7-0.2-1.3-0.5-1.8s-0.8-1-1.5-1.3
			c-0.6-0.3-1.4-0.5-2.3-0.5h-3.5c-0.1,0-0.2,0-0.2-0.1c-0.1-0.1-0.1-0.1-0.1-0.2v-1c0-0.1,0-0.2,0.1-0.2c0.1,0,0.1-0.1,0.2-0.1h3.5
			c1.3,0,2.4,0.2,3.2,0.7c0.9,0.4,1.5,1,2,1.8c0.4,0.8,0.7,1.7,0.7,2.7c0,0.6-0.1,1.3-0.3,1.9c-0.2,0.6-0.5,1.1-0.9,1.6
			c-0.1,0.1-0.2,0.1-0.4,0.1C328.5,1473.6,328.4,1473.6,328.2,1473.5z M320.5,1485.3c-0.1-0.1-0.1-0.1-0.1-0.2v-1
			c0-0.1,0-0.2,0.1-0.2c0.1,0,0.1-0.1,0.2-0.1h3.7c1.4,0,2.5-0.4,3.3-1.1s1.1-1.7,1.1-3c0-1.2-0.4-2.2-1.2-2.9
			c-0.8-0.7-1.9-1.1-3.3-1.1h-3.7c-0.1,0-0.2,0-0.2-0.1c-0.1-0.1-0.1-0.1-0.1-0.2v-1c0-0.1,0-0.2,0.1-0.2s0.1-0.1,0.2-0.1h3.5
			c1.3,0,2.5,0.2,3.4,0.7c0.9,0.5,1.7,1.1,2.1,1.9c0.5,0.8,0.7,1.8,0.7,3c0,1.2-0.2,2.2-0.7,3c-0.5,0.8-1.2,1.5-2.1,1.9
			c-0.9,0.4-2.1,0.7-3.4,0.7h-3.5C320.7,1485.4,320.6,1485.4,320.5,1485.3z"/>
	</g>
	<g class="st1">
		<path d="M364.5,1485.3c-0.1-0.1-0.1-0.1-0.1-0.2v-19.8c0-0.1,0-0.2,0.1-0.2c0.1,0,0.1-0.1,0.2-0.1h1.1c0.1,0,0.2,0,0.2,0.1
			c0,0.1,0.1,0.1,0.1,0.2v19.8c0,0.1,0,0.1-0.1,0.2c0,0.1-0.1,0.1-0.2,0.1h-1.1C364.6,1485.4,364.5,1485.4,364.5,1485.3z
			 M367.8,1466.5c-0.1-0.1-0.1-0.1-0.1-0.2v-1c0-0.1,0-0.2,0.1-0.2c0.1,0,0.1-0.1,0.2-0.1h8.4c0.1,0,0.2,0,0.2,0.1
			c0,0.1,0.1,0.1,0.1,0.2v1c0,0.1,0,0.2-0.1,0.2c0,0.1-0.1,0.1-0.2,0.1H368C367.9,1466.6,367.8,1466.6,367.8,1466.5z M367.8,1475.8
			c-0.1-0.1-0.1-0.1-0.1-0.2v-1c0-0.1,0-0.2,0.1-0.2s0.1-0.1,0.2-0.1h7c0.1,0,0.2,0,0.2,0.1c0,0,0.1,0.1,0.1,0.2v1
			c0,0.1,0,0.1-0.1,0.2c-0.1,0.1-0.1,0.1-0.2,0.1h-7C367.9,1475.9,367.8,1475.8,367.8,1475.8z M367.8,1485.3
			c-0.1-0.1-0.1-0.1-0.1-0.2v-1c0-0.1,0-0.2,0.1-0.2s0.1-0.1,0.2-0.1h8.4c0.1,0,0.2,0,0.2,0.1s0.1,0.1,0.1,0.2v1
			c0,0.1,0,0.1-0.1,0.2c0,0.1-0.1,0.1-0.2,0.1H368C367.9,1485.4,367.8,1485.4,367.8,1485.3z"/>
	</g>
	<g class="st1">
		<path d="M423.9,1485.3c-0.1,0-0.2-0.1-0.2-0.2l-11.9-19.4c-0.1-0.1-0.1-0.2-0.1-0.4c0-0.2,0.1-0.3,0.3-0.3h1c0.1,0,0.2,0,0.3,0.1
			c0.1,0,0.1,0.1,0.2,0.2l12,19.5c0,0.1,0.1,0.1,0.1,0.2c0,0.1,0,0.1,0,0.2c0,0.1-0.1,0.2-0.3,0.2h-1
			C424.1,1485.4,424,1485.4,423.9,1485.3z M411.7,1485.3c-0.1-0.1-0.1-0.1-0.1-0.2v-16.2c0-0.2,0-0.2,0.1-0.2c0.1,0,0.2,0,0.2,0.2
			l1.2,1.9c0.1,0.1,0.1,0.2,0.1,0.4v14c0,0.1,0,0.1-0.1,0.2c-0.1,0.1-0.1,0.1-0.2,0.1h-1C411.8,1485.4,411.8,1485.4,411.7,1485.3z
			 M424,1479.6c-0.1-0.1-0.1-0.2-0.1-0.4v-13.9c0-0.1,0-0.2,0.1-0.2c0.1,0,0.1-0.1,0.2-0.1h1c0.1,0,0.2,0,0.2,0.1
			c0,0.1,0.1,0.1,0.1,0.2v16.1c0,0.2,0,0.2-0.2,0.2c-0.1,0-0.1,0-0.2-0.2L424,1479.6z"/>
	</g>
	<g class="st1">
		<path d="M457.7,1485.3c-0.1-0.1-0.1-0.1-0.1-0.2v-1c0-0.1,0-0.2,0-0.2c0-0.1,0.1-0.1,0.1-0.2l11.7-18.5c0.1-0.1,0.2-0.2,0.4-0.2
			h0.5c0.1,0,0.2,0,0.2,0.1c0,0.1,0.1,0.1,0.1,0.2v1c0,0.1,0,0.1,0,0.2c0,0.1-0.1,0.1-0.1,0.2l-11.7,18.5c-0.1,0.1-0.2,0.2-0.4,0.2
			h-0.5C457.9,1485.4,457.8,1485.4,457.7,1485.3z M458.1,1466.5c-0.1-0.1-0.1-0.1-0.1-0.2v-1c0-0.1,0-0.2,0.1-0.2
			c0.1,0,0.1-0.1,0.2-0.1h9.2c0.1,0,0.2,0,0.2,0.1s0,0.2,0,0.3l-0.7,1c-0.1,0.1-0.2,0.2-0.4,0.2h-8.3
			C458.3,1466.6,458.2,1466.6,458.1,1466.5z M460.5,1485.3c0-0.1,0-0.2,0-0.3l0.7-1c0.1-0.1,0.2-0.2,0.4-0.2h8.7
			c0.1,0,0.2,0,0.2,0.1s0.1,0.1,0.1,0.2v1c0,0.1,0,0.1-0.1,0.2c0,0.1-0.1,0.1-0.2,0.1h-9.6C460.6,1485.4,460.6,1485.4,460.5,1485.3z
			"/>
	</g>
	<g class="st1">
		<path d="M509.2,1485.3c-0.1,0-0.1-0.1-0.1-0.2l-4.9-19.8l0-0.1c0-0.1,0-0.1,0.1-0.1s0.1-0.1,0.2-0.1h1.1c0.1,0,0.2,0,0.3,0.1
			c0.1,0,0.1,0.1,0.1,0.2l4.7,19.6c0,0.1,0,0.1,0,0.2c0,0.2-0.1,0.3-0.3,0.3h-1C509.4,1485.4,509.3,1485.4,509.2,1485.3z
			 M520.5,1485.3c0,0-0.1-0.1-0.1-0.2l-4.8-16.8h-0.1l-3.9,13.6c0,0.1,0,0.1-0.1,0.2s-0.1,0.1-0.1,0.1c-0.1,0-0.1-0.1-0.2-0.2
			l-0.5-2.1c0-0.1,0-0.2,0-0.4l3.9-14.1c0-0.1,0.1-0.2,0.1-0.2c0,0,0.1-0.1,0.2-0.1h0.9c0.1,0,0.2,0,0.2,0.1c0,0.1,0.1,0.1,0.1,0.2
			l5.5,19.6l0,0.2c0,0.2-0.1,0.3-0.3,0.3h-1C520.6,1485.4,520.5,1485.4,520.5,1485.3z M521.9,1479.8c0-0.2-0.1-0.3,0-0.4l3.3-14.1
			c0-0.1,0.1-0.2,0.1-0.2c0.1,0,0.1-0.1,0.3-0.1h1c0.1,0,0.2,0,0.2,0.1c0,0.1,0,0.1,0,0.2l-4,16.5c0,0.1,0,0.1-0.1,0.2
			s-0.1,0.1-0.1,0.1c-0.1,0-0.1-0.1-0.2-0.2L521.9,1479.8z"/>
	</g>
	<g class="st1">
		<path d="M555.1,1484.3c-0.9-0.8-1.6-1.8-2-3.1c-0.2-0.6-0.3-1.3-0.4-2.1c-0.1-0.9-0.1-2.1-0.1-3.8c0-1.7,0,1.1,0.1,0.2
			s0.2-1.6,0.4-2.1c0.4-1.3,1.1-2.4,2-3.1s2.1-1.2,3.4-1.4h0.1c0.1,0,0.1,0,0.2,0.1c0,0.1,0.1,0.1,0.1,0.2v1c0,0.2-0.1,0.3-0.3,0.3
			c-1.9,0.3-3.2,1.5-3.9,3.4c-0.2,0.5-0.3,1.1-0.4,1.9s-0.1-2-0.1-0.5c0,1.5,0,2.7,0.1,3.5s0.2,1.5,0.4,1.9c0.6,1.9,1.9,3.1,3.9,3.4
			c0.2,0,0.3,0.1,0.3,0.3v1c0,0.1,0,0.2-0.1,0.2c-0.1,0-0.1,0.1-0.2,0C557.2,1485.5,556,1485,555.1,1484.3z M555.9,1465.7
			c-0.1-0.1-0.1-0.1-0.1-0.2v-1.6c0-0.1,0-0.2,0.1-0.2c0.1,0,0.1-0.1,0.2-0.1h1.2c0.1,0,0.2,0,0.2,0.1c0,0,0.1,0.1,0.1,0.2v1.6
			c0,0.1,0,0.2-0.1,0.2c-0.1,0.1-0.1,0.1-0.2,0.1h-1.2C556,1465.8,555.9,1465.8,555.9,1465.7z M560.7,1485.6c-0.1,0-0.1,0-0.2-0.1
			s-0.1-0.1-0.1-0.2v-1c0-0.2,0.1-0.3,0.3-0.3c1.9-0.3,3.2-1.5,3.9-3.4c0.2-0.5,0.3-1.1,0.4-2c0.1-0.8,0.1-2,0.1-3.5s0,1.3-0.1,0.5
			c-0.1-0.8-0.2-1.5-0.4-2c-0.7-1.9-2-3.1-3.9-3.4c-0.2,0-0.3-0.1-0.3-0.3v-1c0-0.1,0-0.2,0.1-0.2c0.1,0,0.1-0.1,0.2,0
			c1.4,0.2,2.5,0.6,3.4,1.4c0.9,0.8,1.6,1.8,2.1,3.1c0.2,0.6,0.3,1.3,0.4,2.2c0.1,0.9,0.2-1.9,0.2-0.2c0,1.6-0.1,2.9-0.2,3.8
			c-0.1,0.9-0.2,1.6-0.4,2.2c-0.4,1.3-1.1,2.4-2.1,3.1C563.3,1485,562.2,1485.5,560.7,1485.6L560.7,1485.6z M561.9,1465.7
			c-0.1-0.1-0.1-0.1-0.1-0.2v-1.6c0-0.1,0-0.2,0.1-0.2c0.1,0,0.1-0.1,0.2-0.1h1.2c0.1,0,0.2,0,0.2,0.1c0,0,0.1,0.1,0.1,0.2v1.6
			c0,0.1,0,0.2-0.1,0.2c-0.1,0.1-0.1,0.1-0.2,0.1h-1.2C562,1465.8,561.9,1465.8,561.9,1465.7z"/>
	</g>
	<g class="st1">
		<path d="M600.7,1485.3c-0.1-0.1-0.1-0.1-0.1-0.2v-19.8c0-0.1,0-0.2,0.1-0.2c0.1,0,0.1-0.1,0.2-0.1h1.1c0.1,0,0.2,0,0.2,0.1
			c0,0.1,0.1,0.1,0.1,0.2v19.8c0,0.1,0,0.1-0.1,0.2c0,0.1-0.1,0.1-0.2,0.1h-1.1C600.8,1485.4,600.7,1485.4,600.7,1485.3z
			 M604,1485.3c-0.1-0.1-0.1-0.1-0.1-0.2v-1c0-0.1,0-0.2,0.1-0.2s0.1-0.1,0.2-0.1h8.4c0.1,0,0.2,0,0.2,0.1s0.1,0.1,0.1,0.2v1
			c0,0.1,0,0.1-0.1,0.2c0,0.1-0.1,0.1-0.2,0.1h-8.4C604.1,1485.4,604,1485.4,604,1485.3z"/>
	</g>
	<g class="st1">
		<path d="M647.9,1485.3c-0.1-0.1-0.1-0.1-0.1-0.2v-19.8c0-0.1,0-0.2,0.1-0.2c0.1,0,0.1-0.1,0.2-0.1h1.1c0.1,0,0.2,0,0.2,0.1
			c0,0.1,0.1,0.1,0.1,0.2v19.8c0,0.1,0,0.1-0.1,0.2c0,0.1-0.1,0.1-0.2,0.1h-1.1C648.1,1485.4,648,1485.4,647.9,1485.3z
			 M651.2,1466.5c-0.1-0.1-0.1-0.1-0.1-0.2v-1c0-0.1,0-0.2,0.1-0.2c0.1,0,0.1-0.1,0.2-0.1h8.4c0.1,0,0.2,0,0.2,0.1
			c0,0.1,0.1,0.1,0.1,0.2v1c0,0.1,0,0.2-0.1,0.2c0,0.1-0.1,0.1-0.2,0.1h-8.4C651.4,1466.6,651.3,1466.6,651.2,1466.5z M651.2,1476
			c-0.1-0.1-0.1-0.1-0.1-0.2v-1c0-0.1,0-0.2,0.1-0.2s0.1-0.1,0.2-0.1h7c0.1,0,0.2,0,0.2,0.1c0,0,0.1,0.1,0.1,0.2v1
			c0,0.1,0,0.1-0.1,0.2c-0.1,0.1-0.1,0.1-0.2,0.1h-7C651.4,1476.1,651.3,1476,651.2,1476z"/>
	</g>
	<g class="st1">
		<path d="M174.3,1537.8c-0.1-0.1-0.1-0.1-0.1-0.2v-1c0-0.1,0-0.2,0-0.2c0-0.1,0.1-0.1,0.1-0.2l11.7-18.5c0.1-0.1,0.2-0.2,0.4-0.2
			h0.4c0.1,0,0.2,0,0.2,0.1c0,0.1,0.1,0.1,0.1,0.2v1c0,0.1,0,0.1,0,0.2c0,0.1-0.1,0.1-0.1,0.2l-11.7,18.5c-0.1,0.1-0.2,0.2-0.4,0.2
			h-0.4C174.4,1537.8,174.3,1537.8,174.3,1537.8z M174.7,1518.9c-0.1-0.1-0.1-0.1-0.1-0.2v-1c0-0.1,0-0.2,0.1-0.2
			c0.1,0,0.1-0.1,0.2-0.1h9.1c0.1,0,0.2,0,0.2,0.1c0,0.1,0,0.2,0,0.3l-0.7,1c-0.1,0.1-0.2,0.2-0.4,0.2h-8.3
			C174.8,1519,174.7,1519,174.7,1518.9z M177.1,1537.7c0-0.1,0-0.2,0-0.3l0.7-1c0.1-0.1,0.2-0.2,0.4-0.2h8.7c0.1,0,0.2,0,0.2,0.1
			s0.1,0.1,0.1,0.2v1c0,0.1,0,0.1-0.1,0.2c0,0.1-0.1,0.1-0.2,0.1h-9.6C177.2,1537.8,177.1,1537.8,177.1,1537.7z"/>
	</g>
	<g class="st1">
		<path d="M222.7,1537.8c-0.1-0.1-0.1-0.1-0.1-0.2v-19.8c0-0.1,0-0.2,0.1-0.2c0.1,0,0.1-0.1,0.2-0.1h1.1c0.1,0,0.2,0,0.2,0.1
			c0,0.1,0.1,0.1,0.1,0.2v19.8c0,0.1,0,0.1-0.1,0.2c-0.1,0.1-0.1,0.1-0.2,0.1h-1.1C222.9,1537.8,222.8,1537.8,222.7,1537.8z
			 M226,1518.9c-0.1-0.1-0.1-0.1-0.1-0.2v-1c0-0.1,0-0.2,0.1-0.2c0.1,0,0.1-0.1,0.2-0.1h8.4c0.1,0,0.2,0,0.2,0.1
			c0,0.1,0.1,0.1,0.1,0.2v1c0,0.1,0,0.2-0.1,0.2c-0.1,0.1-0.1,0.1-0.2,0.1h-8.4C226.2,1519,226.1,1519,226,1518.9z M226,1528.2
			c-0.1-0.1-0.1-0.1-0.1-0.2v-1c0-0.1,0-0.2,0.1-0.2s0.1-0.1,0.2-0.1h7c0.1,0,0.2,0,0.2,0.1c0,0,0.1,0.1,0.1,0.2v1
			c0,0.1,0,0.1-0.1,0.2c-0.1,0.1-0.1,0.1-0.2,0.1h-7C226.2,1528.3,226.1,1528.3,226,1528.2z M226,1537.8c-0.1-0.1-0.1-0.1-0.1-0.2
			v-1c0-0.1,0-0.2,0.1-0.2s0.1-0.1,0.2-0.1h8.4c0.1,0,0.2,0,0.2,0.1c0,0,0.1,0.1,0.1,0.2v1c0,0.1,0,0.1-0.1,0.2
			c-0.1,0.1-0.1,0.1-0.2,0.1h-8.4C226.2,1537.8,226.1,1537.8,226,1537.8z"/>
	</g>
	<g class="st1">
		<path d="M270,1537.8c-0.1-0.1-0.1-0.1-0.1-0.2v-19.8c0-0.1,0-0.2,0.1-0.2c0.1,0,0.1-0.1,0.2-0.1h1.1c0.1,0,0.2,0,0.2,0.1
			c0,0.1,0.1,0.1,0.1,0.2v19.8c0,0.1,0,0.1-0.1,0.2c-0.1,0.1-0.1,0.1-0.2,0.1h-1.1C270.1,1537.8,270,1537.8,270,1537.8z
			 M273.2,1528.2c-0.1-0.1-0.1-0.1-0.1-0.2v-1c0-0.1,0-0.2,0.1-0.2s0.1-0.1,0.2-0.1h6.9c0.1,0,0.2,0,0.2,0.1s0.1,0.1,0.1,0.2v1
			c0,0.1,0,0.1-0.1,0.2c0,0.1-0.1,0.1-0.2,0.1h-6.9C273.3,1528.3,273.2,1528.3,273.2,1528.2z M282.1,1537.8
			c-0.1-0.1-0.1-0.1-0.1-0.2v-19.8c0-0.1,0-0.2,0.1-0.2c0.1,0,0.1-0.1,0.2-0.1h1.1c0.1,0,0.2,0,0.2,0.1c0,0.1,0.1,0.1,0.1,0.2v19.8
			c0,0.1,0,0.1-0.1,0.2c-0.1,0.1-0.1,0.1-0.2,0.1h-1.1C282.3,1537.8,282.2,1537.8,282.1,1537.8z"/>
	</g>
	<g class="st1">
		<path d="M329.4,1537.8c-0.1,0-0.2-0.1-0.2-0.2l-11.9-19.4c-0.1-0.1-0.1-0.2-0.1-0.4c0-0.2,0.1-0.3,0.3-0.3h1c0.1,0,0.2,0,0.3,0.1
			c0.1,0,0.1,0.1,0.2,0.2l12,19.5c0,0.1,0.1,0.1,0.1,0.2c0,0.1,0,0.1,0,0.2c0,0.1-0.1,0.2-0.3,0.2h-1
			C329.6,1537.8,329.5,1537.8,329.4,1537.8z M317.2,1537.8c-0.1-0.1-0.1-0.1-0.1-0.2v-16.2c0-0.2,0-0.2,0.1-0.2c0.1,0,0.2,0,0.2,0.2
			l1.2,1.9c0.1,0.1,0.1,0.2,0.1,0.4v14c0,0.1,0,0.1-0.1,0.2c-0.1,0.1-0.1,0.1-0.2,0.1h-1C317.4,1537.8,317.3,1537.8,317.2,1537.8z
			 M329.5,1532.1c-0.1-0.1-0.1-0.2-0.1-0.4v-13.9c0-0.1,0-0.2,0.1-0.2c0.1,0,0.1-0.1,0.2-0.1h1c0.1,0,0.2,0,0.2,0.1
			c0,0.1,0.1,0.1,0.1,0.2v16.1c0,0.2,0,0.2-0.2,0.2c-0.1,0-0.1,0-0.2-0.2L329.5,1532.1z"/>
	</g>
	<g class="st1">
		<path d="M364.5,1537.8c-0.1-0.1-0.1-0.1-0.1-0.2v-19.8c0-0.1,0-0.2,0.1-0.2c0.1,0,0.1-0.1,0.2-0.1h1.1c0.1,0,0.2,0,0.2,0.1
			c0,0.1,0.1,0.1,0.1,0.2v19.8c0,0.1,0,0.1-0.1,0.2c0,0.1-0.1,0.1-0.2,0.1h-1.1C364.6,1537.8,364.5,1537.8,364.5,1537.8z
			 M367.8,1518.9c-0.1-0.1-0.1-0.1-0.1-0.2v-1c0-0.1,0-0.2,0.1-0.2c0.1,0,0.1-0.1,0.2-0.1h8.4c0.1,0,0.2,0,0.2,0.1
			c0,0.1,0.1,0.1,0.1,0.2v1c0,0.1,0,0.2-0.1,0.2c0,0.1-0.1,0.1-0.2,0.1H368C367.9,1519,367.8,1519,367.8,1518.9z M367.8,1528.2
			c-0.1-0.1-0.1-0.1-0.1-0.2v-1c0-0.1,0-0.2,0.1-0.2s0.1-0.1,0.2-0.1h7c0.1,0,0.2,0,0.2,0.1c0,0,0.1,0.1,0.1,0.2v1
			c0,0.1,0,0.1-0.1,0.2c-0.1,0.1-0.1,0.1-0.2,0.1h-7C367.9,1528.3,367.8,1528.3,367.8,1528.2z M367.8,1537.8
			c-0.1-0.1-0.1-0.1-0.1-0.2v-1c0-0.1,0-0.2,0.1-0.2s0.1-0.1,0.2-0.1h8.4c0.1,0,0.2,0,0.2,0.1s0.1,0.1,0.1,0.2v1
			c0,0.1,0,0.1-0.1,0.2c0,0.1-0.1,0.1-0.2,0.1H368C367.9,1537.8,367.8,1537.8,367.8,1537.8z"/>
	</g>
	<g class="st1">
		<path d="M412.9,1536c-1-1.2-1.5-3-1.5-5.2v-13c0-0.1,0-0.2,0.1-0.2c0.1,0,0.1-0.1,0.2-0.1h1.1c0.1,0,0.2,0,0.2,0.1
			c0,0.1,0.1,0.1,0.1,0.2v13c0,1.7,0.4,3,1.1,3.9c0.7,1,1.7,1.5,3.1,1.8c0.2,0,0.3,0.1,0.3,0.3v1c0,0.1,0,0.2-0.1,0.2
			c-0.1,0-0.1,0.1-0.2,0C415.4,1537.9,413.9,1537.2,412.9,1536z M419.4,1538.1c-0.1,0-0.1,0-0.2-0.1s-0.1-0.1-0.1-0.2v-1
			c0-0.2,0.1-0.3,0.3-0.3c1.3-0.2,2.4-0.8,3.1-1.7s1.1-2.3,1.1-4v-13c0-0.1,0-0.2,0.1-0.2c0.1,0,0.1-0.1,0.2-0.1h1.1
			c0.1,0,0.2,0,0.2,0.1c0,0.1,0.1,0.1,0.1,0.2v13c0,2.2-0.5,3.9-1.5,5.1C422.7,1537.2,421.3,1537.9,419.4,1538.1L419.4,1538.1z"/>
	</g>
	<g class="st1">
		<path d="M471.2,1537.8c-0.1,0-0.2-0.1-0.2-0.2l-11.9-19.4c-0.1-0.1-0.1-0.2-0.1-0.4c0-0.2,0.1-0.3,0.3-0.3h1c0.1,0,0.2,0,0.3,0.1
			c0.1,0,0.1,0.1,0.2,0.2l12,19.5c0,0.1,0.1,0.1,0.1,0.2c0,0.1,0,0.1,0,0.2c0,0.1-0.1,0.2-0.3,0.2h-1
			C471.3,1537.8,471.2,1537.8,471.2,1537.8z M459,1537.8c-0.1-0.1-0.1-0.1-0.1-0.2v-16.2c0-0.2,0-0.2,0.1-0.2c0.1,0,0.2,0,0.2,0.2
			l1.2,1.9c0.1,0.1,0.1,0.2,0.1,0.4v14c0,0.1,0,0.1-0.1,0.2c-0.1,0.1-0.1,0.1-0.2,0.1h-1C459.1,1537.8,459,1537.8,459,1537.8z
			 M471.2,1532.1c-0.1-0.1-0.1-0.2-0.1-0.4v-13.9c0-0.1,0-0.2,0.1-0.2c0.1,0,0.1-0.1,0.2-0.1h1c0.1,0,0.2,0,0.2,0.1
			c0,0.1,0.1,0.1,0.1,0.2v16.1c0,0.2,0,0.2-0.2,0.2c-0.1,0-0.1,0-0.2-0.2L471.2,1532.1z"/>
	</g>
	<g class="st1">
		<path d="M506.2,1537.8c-0.1-0.1-0.1-0.1-0.1-0.2v-19.8c0-0.1,0-0.2,0.1-0.2c0.1,0,0.1-0.1,0.2-0.1h1.1c0.1,0,0.2,0,0.2,0.1
			c0,0.1,0.1,0.1,0.1,0.2v19.8c0,0.1,0,0.1-0.1,0.2c0,0.1-0.1,0.1-0.2,0.1h-1.1C506.3,1537.8,506.3,1537.8,506.2,1537.8z
			 M509.6,1529.6c-0.1,0-0.1-0.1-0.1-0.2v-1.6c0-0.1,0-0.2,0.1-0.4l8-9.7c0.1-0.1,0.2-0.2,0.3-0.2s0.2-0.1,0.3-0.1h1.4
			c0.1,0,0.2,0,0.2,0.1s0,0.1,0,0.2l-9.8,11.7C509.7,1529.5,509.6,1529.6,509.6,1529.6z M518.3,1537.8c-0.1,0-0.1-0.1-0.2-0.2
			l-5.2-9.1c0-0.1-0.1-0.1-0.1-0.2c0-0.1,0-0.2,0.1-0.2l0.7-0.9c0.1-0.1,0.1-0.1,0.2-0.1c0.1,0,0.1,0,0.2,0.1l6,10.4l0,0.1
			c0,0.1-0.1,0.2-0.2,0.2h-1.4C518.5,1537.8,518.4,1537.8,518.3,1537.8z"/>
	</g>
	<g class="st1">
		<path d="M554.7,1536c-1-1.2-1.5-3-1.5-5.2v-13c0-0.1,0-0.2,0.1-0.2c0.1,0,0.1-0.1,0.2-0.1h1.1c0.1,0,0.2,0,0.2,0.1
			c0,0.1,0.1,0.1,0.1,0.2v13c0,1.7,0.4,3,1.1,3.9c0.7,1,1.7,1.5,3.1,1.8c0.2,0,0.3,0.1,0.3,0.3v1c0,0.1,0,0.2-0.1,0.2
			c-0.1,0-0.1,0.1-0.2,0C557.1,1537.9,555.7,1537.2,554.7,1536z M561.1,1538.1c-0.1,0-0.1,0-0.2-0.1s-0.1-0.1-0.1-0.2v-1
			c0-0.2,0.1-0.3,0.3-0.3c1.3-0.2,2.4-0.8,3.1-1.7s1.1-2.3,1.1-4v-13c0-0.1,0-0.2,0.1-0.2c0.1,0,0.1-0.1,0.2-0.1h1.1
			c0.1,0,0.2,0,0.2,0.1c0,0.1,0.1,0.1,0.1,0.2v13c0,2.2-0.5,3.9-1.5,5.1C564.5,1537.2,563,1537.9,561.1,1538.1L561.1,1538.1z"/>
	</g>
	<g class="st1">
		<path d="M600.7,1537.8c-0.1-0.1-0.1-0.1-0.1-0.2v-19.8c0-0.1,0-0.2,0.1-0.2c0.1,0,0.1-0.1,0.2-0.1h1.1c0.1,0,0.2,0,0.2,0.1
			c0,0.1,0.1,0.1,0.1,0.2v19.8c0,0.1,0,0.1-0.1,0.2c0,0.1-0.1,0.1-0.2,0.1h-1.1C600.8,1537.8,600.7,1537.8,600.7,1537.8z
			 M603.9,1528.2c-0.1-0.1-0.1-0.1-0.1-0.2v-1c0-0.1,0-0.2,0.1-0.2c0.1,0,0.1-0.1,0.2-0.1h6.9c0.1,0,0.2,0,0.2,0.1s0.1,0.1,0.1,0.2
			v1c0,0.1,0,0.1-0.1,0.2c0,0.1-0.1,0.1-0.2,0.1h-6.9C604,1528.3,603.9,1528.3,603.9,1528.2z M612.8,1537.8
			c-0.1-0.1-0.1-0.1-0.1-0.2v-19.8c0-0.1,0-0.2,0.1-0.2c0.1,0,0.1-0.1,0.2-0.1h1.1c0.1,0,0.2,0,0.2,0.1c0,0.1,0.1,0.1,0.1,0.2v19.8
			c0,0.1,0,0.1-0.1,0.2c-0.1,0.1-0.1,0.1-0.2,0.1H613C613,1537.8,612.9,1537.8,612.8,1537.8z"/>
	</g>
	<g class="st1">
		<path d="M647.9,1537.8c-0.1-0.1-0.1-0.1-0.1-0.2v-19.8c0-0.1,0-0.2,0.1-0.2c0.1,0,0.1-0.1,0.2-0.1h1.1c0.1,0,0.2,0,0.2,0.1
			c0,0.1,0.1,0.1,0.1,0.2v19.8c0,0.1,0,0.1-0.1,0.2c0,0.1-0.1,0.1-0.2,0.1h-1.1C648.1,1537.8,648,1537.8,647.9,1537.8z
			 M651.2,1528.6c-0.1-0.1-0.1-0.1-0.1-0.2v-1c0-0.1,0-0.2,0.1-0.2s0.1-0.1,0.2-0.1h3.5c1.5,0,2.6-0.3,3.4-1c0.8-0.7,1.2-1.7,1.2-3
			s-0.4-2.3-1.2-3s-1.9-1-3.4-1h-3.5c-0.1,0-0.2,0-0.2-0.1c-0.1-0.1-0.1-0.1-0.1-0.2v-1c0-0.1,0-0.2,0.1-0.2c0.1,0,0.1-0.1,0.2-0.1
			h3.5c1.3,0,2.4,0.2,3.3,0.7c0.9,0.4,1.6,1.1,2.1,1.9c0.5,0.9,0.8,1.9,0.8,3c0,1.1-0.2,2.1-0.7,2.9c-0.5,0.9-1.2,1.5-2.1,2
			c-1,0.5-2.1,0.7-3.5,0.7h-3.4C651.4,1528.7,651.3,1528.7,651.2,1528.6z M659.7,1537.8c0,0-0.1-0.1-0.1-0.2l-3.4-7.1
			c-0.1-0.1-0.1-0.2,0-0.3c0,0,0.1-0.1,0.2-0.1c0.1,0,0.1,0,0.2,0c0.4,0,0.7-0.1,0.9-0.2c0,0,0.1,0,0.1,0c0.1,0,0.2,0.1,0.2,0.2
			l3.7,7.4c0,0,0,0.1,0,0.2c0,0.1-0.1,0.2-0.2,0.2h-1.3C659.8,1537.8,659.8,1537.8,659.7,1537.8z"/>
	</g>
</g>
</svg>
