<?xml version="1.0" encoding="utf-8"?>
<!-- Generator: Adobe Illustrator 24.3.0, SVG Export Plug-In . SVG Version: 6.00 Build 0)  -->
<svg version="1.1"
	 id="svg918" inkscape:version="0.92.4 (5da689c313, 2019-01-14)" xmlns:cc="http://creativecommons.org/ns#" xmlns:dc="http://purl.org/dc/elements/1.1/" xmlns:inkscape="http://www.inkscape.org/namespaces/inkscape" xmlns:rdf="http://www.w3.org/1999/02/22-rdf-syntax-ns#" xmlns:sodipodi="http://sodipodi.sourceforge.net/DTD/sodipodi-0.dtd" xmlns:svg="http://www.w3.org/2000/svg"
	 xmlns="http://www.w3.org/2000/svg" xmlns:xlink="http://www.w3.org/1999/xlink" x="0px" y="0px" viewBox="0 0 850.4 850.4"
	 style="enable-background:new 0 0 850.4 850.4;" xml:space="preserve">
<style type="text/css">
	.st0{fill:#AA0055;fill-opacity:0.1647;}
	.st1{enable-background:new    ;}
</style>
<sodipodi:namedview  bordercolor="#666666" borderopacity="1" gridtolerance="10" guidetolerance="10" id="namedview920" inkscape:current-layer="g916" inkscape:cx="-90.764306" inkscape:cy="1012.9005" inkscape:document-units="mm" inkscape:pageopacity="0" inkscape:pageshadow="2" inkscape:window-height="1109" inkscape:window-maximized="1" inkscape:window-width="1920" inkscape:window-x="1920" inkscape:window-y="0" inkscape:zoom="0.31115" objecttolerance="10" pagecolor="#ffffff" showgrid="false">
	</sodipodi:namedview>
<g id="g916" transform="translate(0,-861.73197)">
	<path id="path2" inkscape:connector-curvature="0" class="st0" d="M0,861.7h850.4v850.4H0V861.7z"/>
	<path id="path4" inkscape:connector-curvature="0" d="M715,1570.4c0,3.5-2.9,6.4-6.4,6.4c-3.5,0-6.4-2.9-6.4-6.4
		c0-3.5,2.9-6.4,6.4-6.4C712.1,1564,715,1566.9,715,1570.4"/>
	<circle id="circle6" cx="708.6" cy="1570.4" r="6.4"/>
	<path id="path8" inkscape:connector-curvature="0" d="M148.1,1570.4c0,3.5-2.9,6.4-6.4,6.4c-3.5,0-6.4-2.9-6.4-6.4
		c0-3.5,2.9-6.4,6.4-6.4C145.2,1564,148.1,1566.9,148.1,1570.4"/>
	<circle id="circle10" cx="141.7" cy="1570.4" r="6.4"/>
	<path id="path12" inkscape:connector-curvature="0" d="M148.1,1003.6c0,3.5-2.9,6.4-6.4,6.4c-3.5,0-6.4-2.9-6.4-6.4
		c0-3.5,2.9-6.4,6.4-6.4C145.2,997.2,148.1,1000,148.1,1003.6"/>
	<circle id="circle14" cx="141.7" cy="1003.6" r="6.4"/>
	<path id="path16" inkscape:connector-curvature="0" d="M715,1003.6c0,3.5-2.9,6.4-6.4,6.4c-3.5,0-6.4-2.9-6.4-6.4
		c0-3.5,2.9-6.4,6.4-6.4C712.1,997.2,715,1000,715,1003.6"/>
	<circle id="circle18" cx="708.6" cy="1003.6" r="6.4"/>
	<g class="st1">
		<path d="M173.9,1065.8c-0.1-0.1-0.1-0.1-0.1-0.2v-19.8c0-0.1,0-0.2,0.1-0.2c0.1,0,0.1-0.1,0.2-0.1h1.1c0.1,0,0.2,0,0.2,0.1
			c0,0.1,0.1,0.1,0.1,0.2v19.8c0,0.1,0,0.1-0.1,0.2c-0.1,0.1-0.1,0.1-0.2,0.1h-1.1C174,1065.9,174,1065.8,173.9,1065.8z
			 M177.1,1056.2c-0.1-0.1-0.1-0.1-0.1-0.2v-1c0-0.1,0-0.2,0.1-0.2c0.1,0,0.1-0.1,0.2-0.1h6.9c0.1,0,0.2,0,0.2,0.1
			c0,0.1,0.1,0.1,0.1,0.2v1c0,0.1,0,0.1-0.1,0.2s-0.1,0.1-0.2,0.1h-6.9C177.2,1056.3,177.2,1056.3,177.1,1056.2z M186.1,1065.8
			c-0.1-0.1-0.1-0.1-0.1-0.2v-19.8c0-0.1,0-0.2,0.1-0.2c0.1,0,0.1-0.1,0.2-0.1h1.1c0.1,0,0.2,0,0.2,0.1c0,0.1,0.1,0.1,0.1,0.2v19.8
			c0,0.1,0,0.1-0.1,0.2c-0.1,0.1-0.1,0.1-0.2,0.1h-1.1C186.2,1065.9,186.1,1065.8,186.1,1065.8z"/>
	</g>
	<g class="st1">
		<path d="M221.2,1065.8c-0.1-0.1-0.1-0.1-0.1-0.2v-19.8c0-0.1,0-0.2,0.1-0.2c0.1,0,0.1-0.1,0.2-0.1h1.1c0.1,0,0.2,0,0.2,0.1
			c0,0.1,0.1,0.1,0.1,0.2v19.8c0,0.1,0,0.1-0.1,0.2c-0.1,0.1-0.1,0.1-0.2,0.1h-1.1C221.3,1065.9,221.2,1065.8,221.2,1065.8z
			 M224.5,1047c-0.1-0.1-0.1-0.1-0.1-0.2v-1c0-0.1,0-0.2,0.1-0.2c0.1,0,0.1-0.1,0.2-0.1h8.4c0.1,0,0.2,0,0.2,0.1
			c0,0.1,0.1,0.1,0.1,0.2v1c0,0.1,0,0.1-0.1,0.2c-0.1,0.1-0.1,0.1-0.2,0.1h-8.4C224.6,1047.1,224.5,1047,224.5,1047z M224.5,1056.2
			c-0.1-0.1-0.1-0.1-0.1-0.2v-1c0-0.1,0-0.2,0.1-0.2c0.1,0,0.1-0.1,0.2-0.1h7c0.1,0,0.2,0,0.2,0.1c0,0.1,0.1,0.1,0.1,0.2v1
			c0,0.1,0,0.1-0.1,0.2c-0.1,0.1-0.1,0.1-0.2,0.1h-7C224.6,1056.3,224.5,1056.3,224.5,1056.2z M224.5,1065.8
			c-0.1-0.1-0.1-0.1-0.1-0.2v-1c0-0.1,0-0.2,0.1-0.2c0.1,0,0.1-0.1,0.2-0.1h8.4c0.1,0,0.2,0,0.2,0.1c0,0.1,0.1,0.1,0.1,0.2v1
			c0,0.1,0,0.1-0.1,0.2c-0.1,0.1-0.1,0.1-0.2,0.1h-8.4C224.6,1065.9,224.5,1065.8,224.5,1065.8z"/>
	</g>
	<g class="st1">
		<path d="M266.2,1047c-0.1-0.1-0.1-0.1-0.1-0.2v-1c0-0.1,0-0.2,0.1-0.2c0.1,0,0.1-0.1,0.2-0.1h13.8c0.1,0,0.2,0,0.2,0.1
			c0,0.1,0.1,0.1,0.1,0.2v1c0,0.1,0,0.1-0.1,0.2s-0.1,0.1-0.2,0.1h-13.8C266.4,1047.1,266.3,1047,266.2,1047z M272.6,1065.8
			c-0.1-0.1-0.1-0.1-0.1-0.2v-16.7c0-0.1,0-0.2,0.1-0.2c0.1,0,0.1-0.1,0.2-0.1h1.1c0.1,0,0.2,0,0.2,0.1c0,0.1,0.1,0.1,0.1,0.2v16.7
			c0,0.1,0,0.1-0.1,0.2c-0.1,0.1-0.1,0.1-0.2,0.1h-1.1C272.7,1065.9,272.6,1065.8,272.6,1065.8z"/>
	</g>
	<g class="st1">
		<path d="M315.6,1065.8c-0.1-0.1-0.1-0.1-0.1-0.2v-19.8c0-0.1,0-0.2,0.1-0.2c0.1,0,0.1-0.1,0.2-0.1h1.1c0.1,0,0.2,0,0.2,0.1
			c0,0.1,0.1,0.1,0.1,0.2v19.8c0,0.1,0,0.1-0.1,0.2s-0.1,0.1-0.2,0.1h-1.1C315.8,1065.9,315.7,1065.8,315.6,1065.8z M318.9,1065.8
			c-0.1-0.1-0.1-0.1-0.1-0.2v-1c0-0.1,0-0.2,0.1-0.2c0.1,0,0.1-0.1,0.2-0.1h8.4c0.1,0,0.2,0,0.2,0.1c0,0.1,0.1,0.1,0.1,0.2v1
			c0,0.1,0,0.1-0.1,0.2s-0.1,0.1-0.2,0.1h-8.4C319.1,1065.9,319,1065.8,318.9,1065.8z"/>
	</g>
	<g class="st1">
		<path d="M362.9,1065.8c-0.1-0.1-0.1-0.1-0.1-0.2v-19.8c0-0.1,0-0.2,0.1-0.2c0.1,0,0.1-0.1,0.2-0.1h1.1c0.1,0,0.2,0,0.2,0.1
			c0,0.1,0.1,0.1,0.1,0.2v19.8c0,0.1,0,0.1-0.1,0.2s-0.1,0.1-0.2,0.1h-1.1C363,1065.9,363,1065.8,362.9,1065.8z"/>
	</g>
	<g class="st1">
		<path d="M411.7,1065.3c-1.1-0.4-1.9-0.9-2.5-1.5c-0.1-0.1-0.1-0.1-0.1-0.2c0-0.1,0-0.2,0.1-0.2l0.7-0.8c0.1-0.1,0.3-0.1,0.4,0
			c0.6,0.5,1.3,0.9,2.1,1.3c0.8,0.4,1.7,0.6,2.6,0.7c0.2,0,0.3,0.1,0.3,0.3v1c0,0.1,0,0.2-0.1,0.2c-0.1,0-0.1,0.1-0.2,0
			C413.8,1066,412.8,1065.8,411.7,1065.3z M417.2,1066.1c-0.1,0-0.1,0-0.2-0.1c-0.1-0.1-0.1-0.1-0.1-0.2v-1c0-0.2,0.1-0.3,0.3-0.3
			c1.3-0.1,2.3-0.6,3.1-1.3c0.7-0.7,1.1-1.7,1.1-2.8c0-1.1-0.4-2-1.1-2.7c-0.7-0.7-2-1.1-3.8-1.3l-1-0.1c-2-0.3-3.4-0.8-4.4-1.8
			c-1-0.9-1.5-2.1-1.5-3.6c0-1,0.2-2,0.6-2.8s1-1.5,1.8-2c0.8-0.5,1.7-0.8,2.8-0.9h0.1c0.1,0,0.1,0,0.2,0.1c0,0.1,0.1,0.1,0.1,0.2v1
			c0,0.2-0.1,0.3-0.3,0.3c-1.1,0.2-2,0.6-2.6,1.3c-0.6,0.7-0.9,1.6-0.9,2.6c0,1.1,0.4,2,1.1,2.6c0.8,0.7,2,1.1,3.7,1.3l1,0.1
			c2,0.3,3.5,0.8,4.4,1.8c1,0.9,1.4,2.1,1.4,3.7c0,1.1-0.2,2-0.7,2.8c-0.4,0.8-1.1,1.5-2,2C419.6,1065.7,418.5,1066,417.2,1066.1
			L417.2,1066.1z M417.2,1046.8c-0.2,0-0.3-0.2-0.3-0.3v-1c0-0.1,0-0.2,0.1-0.2c0.1,0,0.1-0.1,0.2,0c0.9,0.1,1.8,0.3,2.6,0.5
			c0.8,0.3,1.5,0.6,2.1,1.1c0.2,0.1,0.2,0.3,0.1,0.4l-0.6,0.9c-0.1,0.1-0.3,0.2-0.4,0.1C419.7,1047.4,418.4,1047,417.2,1046.8z"/>
	</g>
	<g class="st1">
		<path d="M457.4,1065.8c-0.1-0.1-0.1-0.1-0.1-0.2v-19.8c0-0.1,0-0.2,0.1-0.2c0.1,0,0.1-0.1,0.2-0.1h1.1c0.1,0,0.2,0,0.2,0.1
			c0,0.1,0.1,0.1,0.1,0.2v19.8c0,0.1,0,0.1-0.1,0.2s-0.1,0.1-0.2,0.1h-1.1C457.5,1065.9,457.4,1065.8,457.4,1065.8z M460.6,1056.2
			c-0.1-0.1-0.1-0.1-0.1-0.2v-1c0-0.1,0-0.2,0.1-0.2c0.1,0,0.1-0.1,0.2-0.1h6.9c0.1,0,0.2,0,0.2,0.1c0,0.1,0.1,0.1,0.1,0.2v1
			c0,0.1,0,0.1-0.1,0.2s-0.1,0.1-0.2,0.1h-6.9C460.7,1056.3,460.6,1056.3,460.6,1056.2z M469.5,1065.8c-0.1-0.1-0.1-0.1-0.1-0.2
			v-19.8c0-0.1,0-0.2,0.1-0.2c0.1,0,0.1-0.1,0.2-0.1h1.1c0.1,0,0.2,0,0.2,0.1c0,0.1,0.1,0.1,0.1,0.2v19.8c0,0.1,0,0.1-0.1,0.2
			c-0.1,0.1-0.1,0.1-0.2,0.1h-1.1C469.7,1065.9,469.6,1065.8,469.5,1065.8z"/>
	</g>
	<g class="st1">
		<path d="M516.8,1065.8c-0.1,0-0.2-0.1-0.2-0.2l-11.9-19.4c-0.1-0.1-0.1-0.2-0.1-0.4c0-0.2,0.1-0.3,0.3-0.3h1c0.1,0,0.2,0,0.3,0.1
			c0.1,0,0.1,0.1,0.2,0.2l12,19.5c0,0.1,0.1,0.1,0.1,0.2c0,0.1,0,0.1,0,0.2c0,0.1-0.1,0.2-0.3,0.2h-1
			C517,1065.9,516.9,1065.9,516.8,1065.8z M504.6,1065.8c-0.1-0.1-0.1-0.1-0.1-0.2v-16.2c0-0.2,0-0.2,0.1-0.2c0.1,0,0.2,0.1,0.2,0.1
			l1.2,1.9c0.1,0.1,0.1,0.2,0.1,0.4v14c0,0.1,0,0.1-0.1,0.2c-0.1,0.1-0.1,0.1-0.2,0.1h-1C504.8,1065.9,504.7,1065.8,504.6,1065.8z
			 M516.9,1060.1c-0.1-0.1-0.1-0.2-0.1-0.4v-14c0-0.1,0-0.2,0.1-0.2c0.1,0,0.1-0.1,0.2-0.1h1c0.1,0,0.2,0,0.2,0.1
			c0,0.1,0.1,0.1,0.1,0.2v16.1c0,0.2,0,0.2-0.2,0.2c-0.1,0-0.1,0-0.2-0.1L516.9,1060.1z"/>
	</g>
	<g class="st1">
		<path d="M553.1,1064c-1-1.2-1.5-3-1.5-5.2v-13.1c0-0.1,0-0.2,0.1-0.2c0.1,0,0.1-0.1,0.2-0.1h1.1c0.1,0,0.2,0,0.2,0.1
			c0,0.1,0.1,0.1,0.1,0.2v13.1c0,1.7,0.4,3,1.1,3.9c0.7,1,1.7,1.5,3.1,1.8c0.2,0,0.3,0.1,0.3,0.3v1c0,0.1,0,0.2-0.1,0.2
			c-0.1,0-0.1,0.1-0.2,0C555.5,1065.9,554.1,1065.2,553.1,1064z M559.5,1066.1c-0.1,0-0.1,0-0.2-0.1c0-0.1-0.1-0.1-0.1-0.2v-1
			c0-0.2,0.1-0.3,0.3-0.3c1.3-0.2,2.4-0.8,3.1-1.7s1.1-2.3,1.1-4v-13.1c0-0.1,0-0.2,0.1-0.2c0.1,0,0.1-0.1,0.2-0.1h1.1
			c0.1,0,0.2,0,0.2,0.1c0,0.1,0.1,0.1,0.1,0.2v13.1c0,2.2-0.5,3.9-1.5,5.1C562.9,1065.2,561.5,1065.9,559.5,1066.1L559.5,1066.1z"/>
	</g>
	<g class="st1">
		<path d="M602.1,1065.8c-0.1,0-0.1-0.1-0.1-0.2l-4.9-19.8l0-0.1c0-0.1,0-0.1,0.1-0.1s0.1-0.1,0.2-0.1h1.1c0.1,0,0.2,0,0.3,0.1
			c0.1,0,0.1,0.1,0.1,0.2l4.7,19.6c0,0.1,0,0.1,0,0.2c0,0.2-0.1,0.3-0.3,0.3h-1C602.3,1065.9,602.2,1065.9,602.1,1065.8z
			 M613.4,1065.8c0,0-0.1-0.1-0.1-0.2l-4.8-16.8h-0.1l-3.9,13.6c0,0.1,0,0.1-0.1,0.1s-0.1,0.1-0.1,0.1c-0.1,0-0.1-0.1-0.2-0.2
			l-0.5-2.1c0-0.1,0-0.2,0-0.4l3.9-14.1c0-0.1,0.1-0.2,0.1-0.2c0,0,0.1-0.1,0.2-0.1h0.9c0.1,0,0.2,0,0.2,0.1c0,0.1,0.1,0.1,0.1,0.2
			l5.5,19.6l0,0.1c0,0.2-0.1,0.3-0.3,0.3h-1C613.5,1065.9,613.5,1065.9,613.4,1065.8z M614.8,1060.3c0-0.2-0.1-0.3,0-0.4l3.3-14.1
			c0-0.1,0.1-0.2,0.1-0.2c0.1,0,0.1-0.1,0.3-0.1h1c0.1,0,0.2,0,0.2,0.1s0,0.1,0,0.2l-4,16.5c0,0.1,0,0.1-0.1,0.1s-0.1,0.1-0.1,0.1
			c-0.1,0-0.1-0.1-0.2-0.2L614.8,1060.3z"/>
	</g>
	<g class="st1">
		<path d="M647.9,1065.3c-1.1-0.4-1.9-0.9-2.5-1.5c-0.1-0.1-0.1-0.1-0.1-0.2c0-0.1,0-0.2,0.1-0.2l0.7-0.8c0.1-0.1,0.3-0.1,0.4,0
			c0.6,0.5,1.3,0.9,2.1,1.3c0.8,0.4,1.7,0.6,2.6,0.7c0.2,0,0.3,0.1,0.3,0.3v1c0,0.1,0,0.2-0.1,0.2c-0.1,0-0.1,0.1-0.2,0
			C650.1,1066,649,1065.8,647.9,1065.3z M653.4,1066.1c-0.1,0-0.1,0-0.2-0.1c-0.1-0.1-0.1-0.1-0.1-0.2v-1c0-0.2,0.1-0.3,0.3-0.3
			c1.3-0.1,2.3-0.6,3.1-1.3c0.7-0.7,1.1-1.7,1.1-2.8c0-1.1-0.4-2-1.1-2.7c-0.7-0.7-2-1.1-3.8-1.3l-1-0.1c-2-0.3-3.4-0.8-4.4-1.8
			c-1-0.9-1.5-2.1-1.5-3.6c0-1,0.2-2,0.6-2.8s1-1.5,1.8-2c0.8-0.5,1.7-0.8,2.8-0.9h0.1c0.1,0,0.1,0,0.2,0.1c0,0.1,0.1,0.1,0.1,0.2v1
			c0,0.2-0.1,0.3-0.3,0.3c-1.1,0.2-2,0.6-2.6,1.3c-0.6,0.7-0.9,1.6-0.9,2.6c0,1.1,0.4,2,1.1,2.6c0.8,0.7,2,1.1,3.7,1.3l1,0.1
			c2,0.3,3.5,0.8,4.4,1.8c1,0.9,1.4,2.1,1.4,3.7c0,1.1-0.2,2-0.7,2.8c-0.4,0.8-1.1,1.5-2,2C655.8,1065.7,654.7,1066,653.4,1066.1
			L653.4,1066.1z M653.4,1046.8c-0.2,0-0.3-0.2-0.3-0.3v-1c0-0.1,0-0.2,0.1-0.2c0.1,0,0.1-0.1,0.2,0c0.9,0.1,1.8,0.3,2.6,0.5
			c0.8,0.3,1.5,0.6,2.1,1.1c0.2,0.1,0.2,0.3,0.1,0.4l-0.6,0.9c-0.1,0.1-0.3,0.2-0.4,0.1C655.9,1047.4,654.7,1047,653.4,1046.8z"/>
	</g>
	<g class="st1">
		<path d="M171.8,1099.4c-0.1-0.1-0.1-0.1-0.1-0.2v-1c0-0.1,0-0.2,0.1-0.2c0.1,0,0.1-0.1,0.2-0.1h13.8c0.1,0,0.2,0,0.2,0.1
			c0,0.1,0.1,0.1,0.1,0.2v1c0,0.1,0,0.1-0.1,0.2s-0.1,0.1-0.2,0.1H172C171.9,1099.5,171.8,1099.5,171.8,1099.4z M178.1,1118.2
			c-0.1-0.1-0.1-0.1-0.1-0.2v-16.7c0-0.1,0-0.2,0.1-0.2c0.1,0,0.1-0.1,0.2-0.1h1.1c0.1,0,0.2,0,0.2,0.1c0,0.1,0.1,0.1,0.1,0.2v16.7
			c0,0.1,0,0.1-0.1,0.2c-0.1,0.1-0.1,0.1-0.2,0.1h-1.1C178.2,1118.3,178.1,1118.3,178.1,1118.2z"/>
	</g>
	<g class="st1">
		<path d="M224.2,1118.2c-0.1,0-0.1-0.1-0.1-0.2l-4.9-19.8l0-0.1c0-0.1,0-0.1,0.1-0.1s0.1-0.1,0.2-0.1h1.1c0.1,0,0.2,0,0.3,0.1
			c0.1,0,0.1,0.1,0.1,0.2l4.7,19.6c0,0.1,0,0.1,0,0.2c0,0.2-0.1,0.3-0.3,0.3h-1C224.3,1118.3,224.2,1118.3,224.2,1118.2z
			 M235.5,1118.2c-0.1,0-0.1-0.1-0.1-0.2l-4.8-16.8h-0.1l-3.9,13.6c0,0.1,0,0.1-0.1,0.1c0,0-0.1,0.1-0.1,0.1c-0.1,0-0.1-0.1-0.2-0.2
			l-0.5-2.1c0-0.1,0-0.2,0-0.4l3.9-14.1c0-0.1,0.1-0.2,0.1-0.2c0,0,0.1-0.1,0.2-0.1h0.9c0.1,0,0.2,0,0.2,0.1c0,0.1,0.1,0.1,0.1,0.2
			l5.5,19.6l0,0.1c0,0.2-0.1,0.3-0.3,0.3h-1C235.6,1118.3,235.5,1118.3,235.5,1118.2z M236.8,1112.7c0-0.2,0-0.3,0-0.4l3.3-14.1
			c0-0.1,0.1-0.2,0.1-0.2c0.1,0,0.1-0.1,0.3-0.1h1.1c0.1,0,0.2,0,0.2,0.1c0,0.1,0,0.1,0,0.2l-4,16.5c0,0.1,0,0.1-0.1,0.1
			c0,0-0.1,0.1-0.1,0.1c-0.1,0-0.1-0.1-0.2-0.2L236.8,1112.7z"/>
	</g>
	<g class="st1">
		<path d="M268.4,1118.2c-0.1-0.1-0.1-0.1-0.1-0.2v-19.8c0-0.1,0-0.2,0.1-0.2c0.1,0,0.1-0.1,0.2-0.1h1.1c0.1,0,0.2,0,0.2,0.1
			c0,0.1,0.1,0.1,0.1,0.2v19.8c0,0.1,0,0.1-0.1,0.2c-0.1,0.1-0.1,0.1-0.2,0.1h-1.1C268.5,1118.3,268.5,1118.3,268.4,1118.2z"/>
	</g>
	<g class="st1">
		<path d="M327.8,1118.3c-0.1,0-0.2-0.1-0.2-0.2l-11.9-19.4c-0.1-0.1-0.1-0.2-0.1-0.4c0-0.2,0.1-0.3,0.3-0.3h1c0.1,0,0.2,0,0.3,0.1
			c0.1,0,0.1,0.1,0.2,0.2l12,19.5c0,0.1,0.1,0.1,0.1,0.2c0,0.1,0,0.1,0,0.2c0,0.1-0.1,0.2-0.3,0.2h-1
			C328,1118.3,327.9,1118.3,327.8,1118.3z M315.6,1118.2c-0.1-0.1-0.1-0.1-0.1-0.2v-16.2c0-0.2,0-0.2,0.1-0.2c0.1,0,0.2,0.1,0.2,0.1
			l1.2,1.9c0.1,0.1,0.1,0.2,0.1,0.4v14c0,0.1,0,0.1-0.1,0.2c-0.1,0.1-0.1,0.1-0.2,0.1h-1C315.8,1118.3,315.7,1118.3,315.6,1118.2z
			 M327.9,1112.6c-0.1-0.1-0.1-0.2-0.1-0.4v-14c0-0.1,0-0.2,0.1-0.2c0.1,0,0.1-0.1,0.2-0.1h1c0.1,0,0.2,0,0.2,0.1
			c0,0.1,0.1,0.1,0.1,0.2v16.1c0,0.2,0,0.2-0.2,0.2c-0.1,0-0.1,0-0.2-0.1L327.9,1112.6z"/>
	</g>
	<g class="st1">
		<path d="M360.7,1099.4c-0.1-0.1-0.1-0.1-0.1-0.2v-1c0-0.1,0-0.2,0.1-0.2c0.1,0,0.1-0.1,0.2-0.1h13.8c0.1,0,0.2,0,0.2,0.1
			c0,0.1,0.1,0.1,0.1,0.2v1c0,0.1,0,0.1-0.1,0.2c-0.1,0.1-0.1,0.1-0.2,0.1h-13.8C360.9,1099.5,360.8,1099.5,360.7,1099.4z
			 M367.1,1118.2c-0.1-0.1-0.1-0.1-0.1-0.2v-16.7c0-0.1,0-0.2,0.1-0.2c0.1,0,0.1-0.1,0.2-0.1h1.1c0.1,0,0.2,0,0.2,0.1
			c0,0.1,0.1,0.1,0.1,0.2v16.7c0,0.1,0,0.1-0.1,0.2s-0.1,0.1-0.2,0.1h-1.1C367.2,1118.3,367.1,1118.3,367.1,1118.2z"/>
	</g>
	<g class="st1">
		<path d="M410.1,1118.2c-0.1-0.1-0.1-0.1-0.1-0.2v-19.8c0-0.1,0-0.2,0.1-0.2c0.1,0,0.1-0.1,0.2-0.1h1.1c0.1,0,0.2,0,0.2,0.1
			c0,0.1,0.1,0.1,0.1,0.2v19.8c0,0.1,0,0.1-0.1,0.2s-0.1,0.1-0.2,0.1h-1.1C410.3,1118.3,410.2,1118.3,410.1,1118.2z"/>
	</g>
	<g class="st1">
		<path d="M459.1,1117.2c-0.9-0.8-1.6-1.8-2.1-3.1c-0.2-0.6-0.3-1.3-0.4-2.1c-0.1-0.9-0.1-2.1-0.1-3.8c0-1.7,0-2.9,0.1-3.8
			s0.2-1.6,0.4-2.1c0.4-1.3,1.1-2.4,2.1-3.1s2.1-1.2,3.5-1.4h0.1c0.1,0,0.1,0,0.2,0.1c0,0.1,0.1,0.1,0.1,0.2v1
			c0,0.2-0.1,0.3-0.3,0.3c-1,0.1-1.8,0.5-2.4,1.1c-0.7,0.6-1.1,1.4-1.5,2.3c-0.2,0.4-0.3,1.1-0.4,1.9c-0.1,0.8-0.1,2-0.1,3.6
			c0,1.6,0,2.8,0.1,3.6c0.1,0.8,0.2,1.5,0.4,1.9c0.3,1,0.8,1.7,1.5,2.3c0.6,0.6,1.5,0.9,2.4,1.1c0.2,0,0.3,0.1,0.3,0.3v1
			c0,0.1,0,0.2-0.1,0.2s-0.1,0.1-0.2,0C461.2,1118.4,460,1117.9,459.1,1117.2z M464.7,1118.6c-0.1,0-0.1,0-0.2-0.1
			c0-0.1-0.1-0.1-0.1-0.2v-1c0-0.2,0.1-0.3,0.3-0.3c1-0.2,1.8-0.5,2.4-1.1c0.7-0.6,1.1-1.3,1.5-2.3c0.3-0.9,0.5-2.2,0.5-3.9
			c0-0.1-0.1-0.2-0.2-0.2h-4.6c-0.1,0-0.2,0-0.2-0.1c-0.1-0.1-0.1-0.1-0.1-0.2v-0.9c0-0.1,0-0.2,0.1-0.2c0.1,0,0.1-0.1,0.2-0.1h6.2
			c0.1,0,0.2,0,0.2,0.1c0,0.1,0.1,0.1,0.1,0.2v1.2c0,1-0.1,1.8-0.2,2.6c-0.1,0.8-0.2,1.4-0.4,1.9c-0.4,1.3-1.1,2.4-2.1,3.1
			C467.2,1117.9,466.1,1118.4,464.7,1118.6L464.7,1118.6z M468.8,1102.3c-0.1,0-0.2,0-0.2-0.2c-0.4-0.8-1-1.5-1.6-1.9
			s-1.4-0.8-2.3-0.9c-0.2,0-0.3-0.1-0.3-0.3v-1c0-0.1,0-0.2,0.1-0.2c0.1,0,0.1-0.1,0.2,0c1.3,0.2,2.3,0.6,3.2,1.2s1.6,1.5,2,2.4
			c0,0.1,0.1,0.2,0.1,0.2c0,0.1,0,0.1-0.1,0.2l-1,0.5C469,1102.3,468.9,1102.3,468.8,1102.3z"/>
	</g>
	<g class="st1">
		<path d="M502.5,1099.4c-0.1-0.1-0.1-0.1-0.1-0.2v-1c0-0.1,0-0.2,0.1-0.2c0.1,0,0.1-0.1,0.2-0.1h13.8c0.1,0,0.2,0,0.2,0.1
			c0,0.1,0.1,0.1,0.1,0.2v1c0,0.1,0,0.1-0.1,0.2c-0.1,0.1-0.1,0.1-0.2,0.1h-13.8C502.6,1099.5,502.5,1099.5,502.5,1099.4z
			 M508.8,1118.2c-0.1-0.1-0.1-0.1-0.1-0.2v-16.7c0-0.1,0-0.2,0.1-0.2c0.1,0,0.1-0.1,0.2-0.1h1.1c0.1,0,0.2,0,0.2,0.1
			c0,0.1,0.1,0.1,0.1,0.2v16.7c0,0.1,0,0.1-0.1,0.2s-0.1,0.1-0.2,0.1H509C508.9,1118.3,508.9,1118.3,508.8,1118.2z"/>
	</g>
	<g class="st1">
		<path d="M551.9,1118.2c-0.1-0.1-0.1-0.1-0.1-0.2v-19.8c0-0.1,0-0.2,0.1-0.2c0.1,0,0.1-0.1,0.2-0.1h1.1c0.1,0,0.2,0,0.2,0.1
			c0,0.1,0.1,0.1,0.1,0.2v19.8c0,0.1,0,0.1-0.1,0.2s-0.1,0.1-0.2,0.1h-1.1C552,1118.3,551.9,1118.3,551.9,1118.2z"/>
	</g>
	<g class="st1">
		<path d="M599.1,1118.2c-0.1-0.1-0.1-0.1-0.1-0.2v-19.8c0-0.1,0-0.2,0.1-0.2c0.1,0,0.1-0.1,0.2-0.1h1.1c0.1,0,0.2,0,0.2,0.1
			c0,0.1,0.1,0.1,0.1,0.2v19.8c0,0.1,0,0.1-0.1,0.2s-0.1,0.1-0.2,0.1h-1.1C599.2,1118.3,599.2,1118.3,599.1,1118.2z M602.4,1099.4
			c-0.1-0.1-0.1-0.1-0.1-0.2v-1c0-0.1,0-0.2,0.1-0.2c0.1,0,0.1-0.1,0.2-0.1h8.4c0.1,0,0.2,0,0.2,0.1c0,0.1,0.1,0.1,0.1,0.2v1
			c0,0.1,0,0.1-0.1,0.2s-0.1,0.1-0.2,0.1h-8.4C602.5,1099.5,602.5,1099.5,602.4,1099.4z M602.4,1108.7c-0.1-0.1-0.1-0.1-0.1-0.2v-1
			c0-0.1,0-0.2,0.1-0.2c0.1,0,0.1-0.1,0.2-0.1h7c0.1,0,0.2,0,0.2,0.1c0,0.1,0.1,0.1,0.1,0.2v1c0,0.1,0,0.1-0.1,0.2
			c-0.1,0.1-0.1,0.1-0.2,0.1h-7C602.5,1108.8,602.5,1108.7,602.4,1108.7z M602.4,1118.2c-0.1-0.1-0.1-0.1-0.1-0.2v-1
			c0-0.1,0-0.2,0.1-0.2c0.1,0,0.1-0.1,0.2-0.1h8.4c0.1,0,0.2,0,0.2,0.1c0,0.1,0.1,0.1,0.1,0.2v1c0,0.1,0,0.1-0.1,0.2
			s-0.1,0.1-0.2,0.1h-8.4C602.5,1118.3,602.5,1118.3,602.4,1118.2z"/>
	</g>
	<g class="st1">
		<path d="M658.6,1118.3c-0.1,0-0.2-0.1-0.2-0.2l-11.9-19.4c-0.1-0.1-0.1-0.2-0.1-0.4c0-0.2,0.1-0.3,0.3-0.3h1c0.1,0,0.2,0,0.3,0.1
			c0.1,0,0.1,0.1,0.2,0.2l12,19.5c0,0.1,0.1,0.1,0.1,0.2c0,0.1,0,0.1,0,0.2c0,0.1-0.1,0.2-0.3,0.2h-1
			C658.7,1118.3,658.6,1118.3,658.6,1118.3z M646.4,1118.2c-0.1-0.1-0.1-0.1-0.1-0.2v-16.2c0-0.2,0-0.2,0.1-0.2
			c0.1,0,0.2,0.1,0.2,0.1l1.2,1.9c0.1,0.1,0.1,0.2,0.1,0.4v14c0,0.1,0,0.1-0.1,0.2c-0.1,0.1-0.1,0.1-0.2,0.1h-1
			C646.5,1118.3,646.4,1118.3,646.4,1118.2z M658.6,1112.6c-0.1-0.1-0.1-0.2-0.1-0.4v-14c0-0.1,0-0.2,0.1-0.2c0.1,0,0.1-0.1,0.2-0.1
			h1c0.1,0,0.2,0,0.2,0.1c0,0.1,0.1,0.1,0.1,0.2v16.1c0,0.2,0,0.2-0.2,0.2c-0.1,0-0.1,0-0.2-0.1L658.6,1112.6z"/>
	</g>
	<g class="st1">
		<path d="M178.6,1170.5l-6.8-19.7l-0.1-0.2c0-0.1,0-0.1,0.1-0.2c0,0,0.1-0.1,0.2-0.1h1c0.1,0,0.2,0,0.3,0.1c0.1,0,0.1,0.1,0.1,0.2
			l6.7,19.6c0,0.1,0.1,0.2,0.1,0.3c0,0.2-0.1,0.3-0.3,0.3h-1C178.7,1170.8,178.6,1170.7,178.6,1170.5z M180.3,1166.2
			c0,0,0-0.1,0-0.2c0-0.1,0-0.2,0.1-0.3l5-15c0-0.1,0.1-0.2,0.1-0.2s0.1-0.1,0.3-0.1h1.1c0.1,0,0.2,0,0.2,0.1c0,0.1,0,0.2,0,0.3
			l-5.8,17c0,0.1,0,0.1-0.1,0.1c0,0-0.1,0.1-0.1,0.1c-0.1,0-0.1-0.1-0.2-0.2L180.3,1166.2z"/>
	</g>
	<g class="st1">
		<path d="M221.2,1170.7c-0.1-0.1-0.1-0.1-0.1-0.2v-19.8c0-0.1,0-0.2,0.1-0.2c0.1,0,0.1-0.1,0.2-0.1h1.1c0.1,0,0.2,0,0.2,0.1
			c0,0.1,0.1,0.1,0.1,0.2v19.8c0,0.1,0,0.1-0.1,0.2c-0.1,0.1-0.1,0.1-0.2,0.1h-1.1C221.3,1170.8,221.2,1170.7,221.2,1170.7z"/>
	</g>
	<g class="st1">
		<path d="M268.3,1170.5c-0.6-0.3-1.2-0.6-1.6-1.1c-0.1-0.1-0.1-0.1-0.1-0.2c0-0.1,0-0.1,0.1-0.2c0.1,0,0.1-0.1,0.1-0.1l0.7-0.6
			c0.1-0.1,0.1-0.1,0.2-0.1c0.1,0,0.2,0,0.2,0.1c0.3,0.3,0.7,0.5,1.1,0.7c0.4,0.2,0.9,0.3,1.4,0.4c0.2,0,0.3,0.1,0.3,0.3v1
			c0,0.1,0,0.2-0.1,0.2s-0.1,0.1-0.2,0.1C269.6,1170.9,269,1170.8,268.3,1170.5z M272.5,1170.9c-0.1,0-0.1,0-0.2-0.1
			c-0.1-0.1-0.1-0.1-0.1-0.2v-1c0-0.2,0.1-0.3,0.3-0.3c0.9-0.2,1.6-0.7,2.1-1.5c0.5-0.8,0.7-1.8,0.7-3.2v-14c0-0.1,0-0.2,0.1-0.2
			c0.1,0,0.1-0.1,0.2-0.1h1.1c0.1,0,0.2,0,0.2,0.1c0,0.1,0.1,0.1,0.1,0.2v14c0,1.8-0.4,3.3-1.2,4.3
			C275.1,1170,274,1170.7,272.5,1170.9L272.5,1170.9z"/>
	</g>
	<g class="st1">
		<path d="M315.6,1170.7c-0.1-0.1-0.1-0.1-0.1-0.2v-19.8c0-0.1,0-0.2,0.1-0.2c0.1,0,0.1-0.1,0.2-0.1h1.1c0.1,0,0.2,0,0.2,0.1
			c0,0.1,0.1,0.1,0.1,0.2v19.8c0,0.1,0,0.1-0.1,0.2s-0.1,0.1-0.2,0.1h-1.1C315.8,1170.8,315.7,1170.7,315.6,1170.7z M318.9,1151.9
			c-0.1-0.1-0.1-0.1-0.1-0.2v-1c0-0.1,0-0.2,0.1-0.2c0.1,0,0.1-0.1,0.2-0.1h8.4c0.1,0,0.2,0,0.2,0.1c0,0.1,0.1,0.1,0.1,0.2v1
			c0,0.1,0,0.1-0.1,0.2s-0.1,0.1-0.2,0.1h-8.4C319.1,1151.9,319,1151.9,318.9,1151.9z M318.9,1161.3c-0.1-0.1-0.1-0.1-0.1-0.2v-1
			c0-0.1,0-0.2,0.1-0.2c0.1,0,0.1-0.1,0.2-0.1h7c0.1,0,0.2,0,0.2,0.1c0,0.1,0.1,0.1,0.1,0.2v1c0,0.1,0,0.1-0.1,0.2
			c-0.1,0.1-0.1,0.1-0.2,0.1h-7C319.1,1161.4,319,1161.4,318.9,1161.3z"/>
	</g>
	<g class="st1">
		<path d="M362.9,1170.7c-0.1-0.1-0.1-0.1-0.1-0.2v-19.8c0-0.1,0-0.2,0.1-0.2c0.1,0,0.1-0.1,0.2-0.1h1.1c0.1,0,0.2,0,0.2,0.1
			c0,0.1,0.1,0.1,0.1,0.2v19.8c0,0.1,0,0.1-0.1,0.2s-0.1,0.1-0.2,0.1h-1.1C363,1170.8,363,1170.7,362.9,1170.7z M373.9,1158.9
			c-0.2-0.1-0.3-0.1-0.5-0.2c-0.2-0.1-0.3-0.2-0.2-0.5c0.7-0.9,1-1.8,1-2.7c0-0.7-0.2-1.3-0.5-1.8s-0.8-1-1.5-1.3
			c-0.6-0.3-1.4-0.5-2.3-0.5h-3.5c-0.1,0-0.2,0-0.2-0.1s-0.1-0.1-0.1-0.2v-1c0-0.1,0-0.2,0.1-0.2c0.1,0,0.1-0.1,0.2-0.1h3.5
			c1.3,0,2.4,0.2,3.2,0.7c0.9,0.4,1.5,1.1,2,1.8c0.4,0.8,0.7,1.7,0.7,2.7c0,0.6-0.1,1.3-0.3,1.9c-0.2,0.6-0.5,1.1-0.9,1.6
			c-0.1,0.1-0.2,0.1-0.4,0.1C374.2,1159,374,1158.9,373.9,1158.9z M366.2,1170.7c-0.1-0.1-0.1-0.1-0.1-0.2v-1c0-0.1,0-0.2,0.1-0.2
			s0.1-0.1,0.2-0.1h3.7c1.4,0,2.5-0.4,3.3-1.1c0.8-0.7,1.1-1.7,1.1-3c0-1.2-0.4-2.2-1.2-2.9c-0.8-0.7-1.9-1.1-3.3-1.1h-3.7
			c-0.1,0-0.2,0-0.2-0.1s-0.1-0.1-0.1-0.2v-1c0-0.1,0-0.2,0.1-0.2c0.1,0,0.1-0.1,0.2-0.1h3.5c1.3,0,2.5,0.2,3.4,0.7
			c0.9,0.4,1.7,1.1,2.1,1.9c0.5,0.8,0.7,1.8,0.7,3c0,1.2-0.2,2.2-0.7,3c-0.5,0.8-1.2,1.5-2.1,1.9c-0.9,0.4-2.1,0.7-3.4,0.7h-3.5
			C366.3,1170.8,366.3,1170.7,366.2,1170.7z"/>
	</g>
	<g class="st1">
		<path d="M414.2,1170.7c-0.1-0.1-0.1-0.1-0.1-0.2v-8.1l-6.1-11.5c-0.1-0.1-0.1-0.2-0.1-0.3c0-0.1,0-0.1,0.1-0.2
			c0,0,0.1-0.1,0.2-0.1h1.1c0.1,0,0.2,0,0.3,0.1s0.1,0.1,0.2,0.2l5.9,11.1c0.1,0.1,0.1,0.3,0.1,0.4v8.3c0,0.1,0,0.1-0.1,0.2
			s-0.1,0.1-0.2,0.1h-1.1C414.3,1170.8,414.3,1170.7,414.2,1170.7z M415.9,1159.1c-0.1-0.1-0.1-0.3,0-0.4l4.2-8
			c0.1-0.1,0.1-0.2,0.2-0.2c0.1,0,0.2-0.1,0.3-0.1h1.1c0.1,0,0.2,0.1,0.3,0.2c0,0.1,0,0.2,0,0.2c0,0.1-0.1,0.1-0.1,0.1l-4.9,9.4
			c-0.1,0.1-0.1,0.2-0.2,0.2s-0.1-0.1-0.2-0.2L415.9,1159.1z"/>
	</g>
	<g class="st1">
		<path d="M457.4,1170.7c-0.1-0.1-0.1-0.1-0.1-0.2v-19.8c0-0.1,0-0.2,0.1-0.2c0.1,0,0.1-0.1,0.2-0.1h1.1c0.1,0,0.2,0,0.2,0.1
			c0,0.1,0.1,0.1,0.1,0.2v19.8c0,0.1,0,0.1-0.1,0.2s-0.1,0.1-0.2,0.1h-1.1C457.5,1170.8,457.4,1170.7,457.4,1170.7z M460.7,1162.5
			c-0.1,0-0.1-0.1-0.1-0.2v-1.6c0-0.1,0-0.2,0.1-0.4l8-9.7c0.1-0.1,0.2-0.2,0.3-0.2s0.2-0.1,0.3-0.1h1.4c0.1,0,0.2,0,0.2,0.1
			c0,0.1,0,0.1,0,0.2l-9.8,11.7C460.9,1162.4,460.8,1162.5,460.7,1162.5z M469.5,1170.7c-0.1,0-0.1-0.1-0.2-0.2l-5.2-9.1
			c0-0.1-0.1-0.1-0.1-0.2c0-0.1,0-0.2,0.1-0.2l0.7-0.9c0.1-0.1,0.1-0.1,0.2-0.1c0.1,0,0.1,0,0.2,0.1l6,10.4l0,0.1
			c0,0.1-0.1,0.2-0.2,0.2h-1.4C469.7,1170.8,469.6,1170.7,469.5,1170.7z"/>
	</g>
	<g class="st1">
		<path d="M507.7,1170.7c-0.1,0-0.1-0.1-0.1-0.2l-4.9-19.8l0-0.1c0-0.1,0-0.1,0.1-0.1s0.1-0.1,0.2-0.1h1.1c0.1,0,0.2,0,0.3,0.1
			c0.1,0,0.1,0.1,0.1,0.2l4.7,19.6c0,0.1,0,0.1,0,0.2c0,0.2-0.1,0.3-0.3,0.3h-1C507.8,1170.8,507.7,1170.7,507.7,1170.7z
			 M518.9,1170.7c0,0-0.1-0.1-0.1-0.2l-4.8-16.8H514l-3.9,13.6c0,0.1,0,0.1-0.1,0.1s-0.1,0.1-0.1,0.1c-0.1,0-0.1-0.1-0.2-0.2
			l-0.5-2.1c0-0.1,0-0.2,0-0.4l3.9-14.1c0-0.1,0.1-0.2,0.1-0.2c0,0,0.1-0.1,0.2-0.1h0.9c0.1,0,0.2,0,0.2,0.1c0,0.1,0.1,0.1,0.1,0.2
			l5.5,19.6l0,0.1c0,0.2-0.1,0.3-0.3,0.3h-1C519,1170.8,519,1170.7,518.9,1170.7z M520.3,1165.1c0-0.2-0.1-0.3,0-0.4l3.3-14.1
			c0-0.1,0.1-0.2,0.1-0.2c0.1,0,0.1-0.1,0.3-0.1h1c0.1,0,0.2,0,0.2,0.1s0,0.1,0,0.2l-4,16.5c0,0.1,0,0.1-0.1,0.1s-0.1,0.1-0.1,0.1
			c-0.1,0-0.1-0.1-0.2-0.2L520.3,1165.1z"/>
	</g>
	<g class="st1">
		<path d="M549.9,1170.7c0-0.1,0-0.1,0-0.2l6.2-17.1c0.1-0.1,0.1-0.2,0.2-0.2c0,0,0.1,0,0.1,0c0,0,0.1,0.1,0.1,0.1l0.6,1.6
			c0,0.1,0.1,0.1,0.1,0.2s0,0.1-0.1,0.2l-3,8.4h5.9c0.2,0,0.3,0.1,0.4,0.2l0.4,1l0,0.1c0,0.1,0,0.1-0.1,0.1c0,0-0.1,0.1-0.2,0.1
			h-6.9l-1.8,5.1c0,0.1-0.1,0.2-0.2,0.2c-0.1,0-0.1,0.1-0.2,0.1h-1.2C550,1170.8,549.9,1170.7,549.9,1170.7z M564.2,1170.5l-7-19.8
			l0-0.1c0-0.1,0-0.1,0.1-0.2c0,0,0.1-0.1,0.2-0.1h1.1c0.2,0,0.3,0.1,0.4,0.3l7.1,19.8l0,0.1c0,0.1,0,0.1-0.1,0.1
			c0,0-0.1,0.1-0.2,0.1h-1.2C564.3,1170.8,564.2,1170.7,564.2,1170.5z"/>
	</g>
	<g class="st1">
		<path d="M599.1,1170.7c-0.1-0.1-0.1-0.1-0.1-0.2v-19.8c0-0.1,0-0.2,0.1-0.2c0.1,0,0.1-0.1,0.2-0.1h1.1c0.1,0,0.2,0,0.2,0.1
			c0,0.1,0.1,0.1,0.1,0.2v19.8c0,0.1,0,0.1-0.1,0.2s-0.1,0.1-0.2,0.1h-1.1C599.2,1170.8,599.2,1170.7,599.1,1170.7z M602.4,1161.5
			c-0.1-0.1-0.1-0.1-0.1-0.2v-1c0-0.1,0-0.2,0.1-0.2c0.1,0,0.1-0.1,0.2-0.1h3.5c1.5,0,2.6-0.3,3.4-1s1.2-1.7,1.2-3s-0.4-2.3-1.2-3
			s-1.9-1.1-3.4-1.1h-3.5c-0.1,0-0.2,0-0.2-0.1s-0.1-0.1-0.1-0.2v-1c0-0.1,0-0.2,0.1-0.2c0.1,0,0.1-0.1,0.2-0.1h3.5
			c1.3,0,2.4,0.2,3.3,0.7c0.9,0.5,1.6,1.1,2.1,2s0.8,1.9,0.8,3c0,1.1-0.2,2.1-0.7,2.9c-0.5,0.9-1.2,1.5-2.1,2
			c-1,0.5-2.1,0.7-3.5,0.7h-3.4C602.5,1161.6,602.5,1161.6,602.4,1161.5z M610.9,1170.7c0,0-0.1-0.1-0.1-0.2l-3.4-7.1
			c-0.1-0.1-0.1-0.2,0-0.3c0,0,0.1-0.1,0.2-0.1c0.1,0,0.1,0,0.2,0c0.4,0,0.7-0.1,0.9-0.2c0,0,0.1,0,0.1,0c0.1,0,0.2,0.1,0.2,0.2
			l3.7,7.4c0,0,0,0.1,0,0.1c0,0.1-0.1,0.2-0.2,0.2h-1.3C611,1170.8,610.9,1170.7,610.9,1170.7z"/>
	</g>
	<g class="st1">
		<path d="M644.2,1151.9c-0.1-0.1-0.1-0.1-0.1-0.2v-1c0-0.1,0-0.2,0.1-0.2c0.1,0,0.1-0.1,0.2-0.1h13.8c0.1,0,0.2,0,0.2,0.1
			c0,0.1,0.1,0.1,0.1,0.2v1c0,0.1,0,0.1-0.1,0.2c-0.1,0.1-0.1,0.1-0.2,0.1h-13.8C644.3,1151.9,644.3,1151.9,644.2,1151.9z
			 M650.5,1170.7c-0.1-0.1-0.1-0.1-0.1-0.2v-16.7c0-0.1,0-0.2,0.1-0.2c0.1,0,0.1-0.1,0.2-0.1h1.1c0.1,0,0.2,0,0.2,0.1
			c0,0.1,0.1,0.1,0.1,0.2v16.7c0,0.1,0,0.1-0.1,0.2s-0.1,0.1-0.2,0.1h-1.1C650.7,1170.8,650.6,1170.7,650.5,1170.7z"/>
	</g>
	<g class="st1">
		<path d="M178.6,1222.9l-6.8-19.7l-0.1-0.2c0-0.1,0-0.1,0.1-0.2c0,0,0.1-0.1,0.2-0.1h1c0.1,0,0.2,0,0.3,0.1c0.1,0,0.1,0.1,0.1,0.2
			l6.7,19.6c0,0.1,0.1,0.2,0.1,0.3c0,0.2-0.1,0.3-0.3,0.3h-1C178.7,1223.2,178.6,1223.1,178.6,1222.9z M180.3,1218.6
			c0,0,0-0.1,0-0.2c0-0.1,0-0.2,0.1-0.3l5-15c0-0.1,0.1-0.2,0.1-0.2s0.1-0.1,0.3-0.1h1.1c0.1,0,0.2,0,0.2,0.1c0,0.1,0,0.2,0,0.3
			l-5.8,17c0,0.1,0,0.1-0.1,0.1c0,0-0.1,0.1-0.1,0.1c-0.1,0-0.1-0.1-0.2-0.2L180.3,1218.6z"/>
	</g>
	<g class="st1">
		<path d="M222.8,1222.1c-0.9-0.8-1.6-1.8-2-3.1c-0.2-0.6-0.3-1.3-0.4-2.1c-0.1-0.9-0.1-2.1-0.1-3.8c0-1.7,0-2.9,0.1-3.8
			c0.1-0.9,0.2-1.6,0.4-2.1c0.4-1.3,1.1-2.4,2-3.1s2.1-1.2,3.4-1.4h0.1c0.1,0,0.1,0,0.2,0.1c0,0.1,0.1,0.1,0.1,0.2v1
			c0,0.2-0.1,0.3-0.3,0.3c-1.9,0.3-3.2,1.5-3.9,3.4c-0.2,0.5-0.3,1.1-0.4,1.9c-0.1,0.8-0.1,2-0.1,3.5c0,1.5,0,2.7,0.1,3.5
			c0.1,0.8,0.2,1.5,0.4,1.9c0.6,1.9,1.9,3.1,3.9,3.4c0.2,0,0.3,0.1,0.3,0.3v1c0,0.1,0,0.2-0.1,0.2s-0.1,0.1-0.2,0
			C224.9,1223.3,223.8,1222.8,222.8,1222.1z M228.4,1223.4c-0.1,0-0.1,0-0.2-0.1c0-0.1-0.1-0.1-0.1-0.2v-1c0-0.2,0.1-0.3,0.3-0.3
			c1.9-0.3,3.2-1.4,3.9-3.4c0.2-0.5,0.3-1.1,0.4-2c0.1-0.8,0.1-2,0.1-3.5s0-2.7-0.1-3.5c-0.1-0.8-0.2-1.5-0.4-2
			c-0.7-1.9-2-3.1-3.9-3.4c-0.2,0-0.3-0.1-0.3-0.3v-1c0-0.1,0-0.2,0.1-0.2c0.1,0,0.1-0.1,0.2,0c1.4,0.2,2.5,0.6,3.4,1.4
			c0.9,0.8,1.6,1.8,2.1,3.1c0.2,0.6,0.3,1.3,0.4,2.2c0.1,0.9,0.1,2.1,0.1,3.8c0,1.6,0,2.9-0.1,3.8s-0.2,1.6-0.4,2.2
			c-0.4,1.3-1.1,2.4-2.1,3.1C231,1222.8,229.9,1223.3,228.4,1223.4L228.4,1223.4z"/>
	</g>
	<g class="st1">
		<path d="M270.1,1222.1c-0.9-0.8-1.6-1.8-2-3.1c-0.2-0.6-0.3-1.3-0.4-2.1c-0.1-0.9-0.1-2.1-0.1-3.8c0-1.7,0-2.9,0.1-3.8
			c0.1-0.9,0.2-1.6,0.4-2.1c0.4-1.3,1.1-2.4,2-3.1s2.1-1.2,3.4-1.4h0.1c0.1,0,0.1,0,0.2,0.1c0,0.1,0.1,0.1,0.1,0.2v1
			c0,0.2-0.1,0.3-0.3,0.3c-1.9,0.3-3.2,1.5-3.9,3.4c-0.2,0.5-0.3,1.1-0.4,1.9c-0.1,0.8-0.1,2-0.1,3.5c0,1.5,0,2.7,0.1,3.5
			c0.1,0.8,0.2,1.5,0.4,1.9c0.6,1.9,1.9,3.1,3.9,3.4c0.2,0,0.3,0.1,0.3,0.3v1c0,0.1,0,0.2-0.1,0.2s-0.1,0.1-0.2,0
			C272.1,1223.3,271,1222.8,270.1,1222.1z M275.7,1223.4c-0.1,0-0.1,0-0.2-0.1c0-0.1-0.1-0.1-0.1-0.2v-1c0-0.2,0.1-0.3,0.3-0.3
			c1.9-0.3,3.2-1.4,3.9-3.4c0.2-0.5,0.3-1.1,0.4-2c0.1-0.8,0.1-2,0.1-3.5s0-2.7-0.1-3.5c-0.1-0.8-0.2-1.5-0.4-2
			c-0.7-1.9-2-3.1-3.9-3.4c-0.2,0-0.3-0.1-0.3-0.3v-1c0-0.1,0-0.2,0.1-0.2c0.1,0,0.1-0.1,0.2,0c1.4,0.2,2.5,0.6,3.4,1.4
			c0.9,0.8,1.6,1.8,2.1,3.1c0.2,0.6,0.3,1.3,0.4,2.2c0.1,0.9,0.1,2.1,0.1,3.8c0,1.6,0,2.9-0.1,3.8s-0.2,1.6-0.4,2.2
			c-0.4,1.3-1.1,2.4-2.1,3.1C278.3,1222.8,277.1,1223.3,275.7,1223.4L275.7,1223.4z"/>
	</g>
	<g class="st1">
		<path d="M315.6,1223.1c-0.1-0.1-0.1-0.1-0.1-0.2v-19.8c0-0.1,0-0.2,0.1-0.2c0.1,0,0.1-0.1,0.2-0.1h1.1c0.1,0,0.2,0,0.2,0.1
			c0,0.1,0.1,0.1,0.1,0.2v19.8c0,0.1,0,0.1-0.1,0.2s-0.1,0.1-0.2,0.1h-1.1C315.8,1223.2,315.7,1223.2,315.6,1223.1z M318.9,1214
			c-0.1-0.1-0.1-0.1-0.1-0.2v-1c0-0.1,0-0.2,0.1-0.2c0.1,0,0.1-0.1,0.2-0.1h3.5c1.5,0,2.6-0.3,3.4-1s1.2-1.7,1.2-3s-0.4-2.3-1.2-3
			s-1.9-1.1-3.4-1.1h-3.5c-0.1,0-0.2,0-0.2-0.1s-0.1-0.1-0.1-0.2v-1c0-0.1,0-0.2,0.1-0.2c0.1,0,0.1-0.1,0.2-0.1h3.5
			c1.3,0,2.4,0.2,3.3,0.7c0.9,0.5,1.6,1.1,2.1,2s0.8,1.9,0.8,3c0,1.1-0.2,2.1-0.7,2.9c-0.5,0.9-1.2,1.5-2.1,2
			c-1,0.5-2.1,0.7-3.5,0.7h-3.4C319.1,1214,319,1214,318.9,1214z M327.4,1223.1c0,0-0.1-0.1-0.1-0.2l-3.4-7.1
			c-0.1-0.1-0.1-0.2,0-0.3c0,0,0.1-0.1,0.2-0.1c0.1,0,0.1,0,0.2,0c0.4,0,0.7-0.1,0.9-0.2c0,0,0.1,0,0.1,0c0.1,0,0.2,0.1,0.2,0.2
			l3.7,7.4c0,0,0,0.1,0,0.1c0,0.1-0.1,0.2-0.2,0.2h-1.3C327.5,1223.2,327.5,1223.2,327.4,1223.1z"/>
	</g>
	<g class="st1">
		<path d="M362.9,1223.1c-0.1-0.1-0.1-0.1-0.1-0.2v-19.8c0-0.1,0-0.2,0.1-0.2c0.1,0,0.1-0.1,0.2-0.1h1.1c0.1,0,0.2,0,0.2,0.1
			c0,0.1,0.1,0.1,0.1,0.2v19.8c0,0.1,0,0.1-0.1,0.2s-0.1,0.1-0.2,0.1h-1.1C363,1223.2,363,1223.2,362.9,1223.1z M366.2,1214.3
			c-0.1-0.1-0.1-0.1-0.1-0.2v-1c0-0.1,0-0.2,0.1-0.2c0.1,0,0.1-0.1,0.2-0.1h3.5c1.5,0,2.6-0.4,3.4-1.1c0.8-0.7,1.2-1.8,1.2-3.1
			c0-1.3-0.4-2.3-1.2-3.1s-1.9-1.1-3.4-1.1h-3.5c-0.1,0-0.2,0-0.2-0.1s-0.1-0.1-0.1-0.2v-1c0-0.1,0-0.2,0.1-0.2
			c0.1,0,0.1-0.1,0.2-0.1h3.5c1.3,0,2.4,0.2,3.3,0.7c0.9,0.5,1.7,1.1,2.2,2c0.5,0.9,0.8,1.9,0.8,3.1c0,1.2-0.3,2.2-0.8,3.1
			c-0.5,0.9-1.2,1.5-2.2,2c-1,0.5-2.1,0.7-3.3,0.7h-3.5C366.3,1214.3,366.3,1214.3,366.2,1214.3z"/>
	</g>
	<g class="st1">
		<path d="M410.1,1223.1c-0.1-0.1-0.1-0.1-0.1-0.2v-15.5c0-0.1,0-0.1,0-0.2c0,0,0.1-0.1,0.1-0.1c0.1,0,0.2,0.1,0.2,0.2l1.2,2.6
			c0.1,0.1,0.1,0.3,0.1,0.4v12.5c0,0.1,0,0.1-0.1,0.2c-0.1,0.1-0.1,0.1-0.2,0.1h-1C410.3,1223.2,410.2,1223.2,410.1,1223.1z
			 M417.9,1220.1c-0.1,0-0.1-0.1-0.2-0.3l-7.6-16.7c0,0,0-0.1,0-0.2c0-0.1,0.1-0.2,0.2-0.2h1.1c0.2,0,0.3,0.1,0.4,0.3l7.4,16.5
			c0,0,0,0.1,0,0.2c0,0,0,0.1,0,0.1c0,0.1,0,0.1-0.1,0.1l0,0c-0.1,0.1-0.2,0.2-0.3,0.2h-0.7C418.1,1220.2,418,1220.1,417.9,1220.1z
			 M425.5,1223.1c-0.1-0.1-0.1-0.1-0.1-0.2v-16.1h-0.1l-4.9,10.8c0,0.1-0.1,0.2-0.2,0.2c-0.1,0-0.2-0.1-0.2-0.2l-0.5-1.2
			c0-0.1-0.1-0.1-0.1-0.2s0-0.2,0.1-0.2l5.7-12.8c0.1-0.2,0.2-0.3,0.5-0.3h1.1c0.1,0,0.2,0,0.2,0.1c0,0.1,0.1,0.1,0.1,0.2v19.8
			c0,0.1,0,0.1-0.1,0.2s-0.1,0.1-0.2,0.1h-1C425.6,1223.2,425.6,1223.2,425.5,1223.1z"/>
	</g>
	<g class="st1">
		<path d="M459.1,1222.1c-0.9-0.8-1.6-1.8-2-3.1c-0.2-0.6-0.3-1.3-0.4-2.1c-0.1-0.9-0.1-2.1-0.1-3.8c0-1.7,0-2.9,0.1-3.8
			s0.2-1.6,0.4-2.1c0.4-1.3,1.1-2.4,2-3.1s2.1-1.2,3.4-1.4h0.1c0.1,0,0.1,0,0.2,0.1c0,0.1,0.1,0.1,0.1,0.2v1c0,0.2-0.1,0.3-0.3,0.3
			c-1.9,0.3-3.2,1.5-3.9,3.4c-0.2,0.5-0.3,1.1-0.4,1.9c-0.1,0.8-0.1,2-0.1,3.5c0,1.5,0,2.7,0.1,3.5s0.2,1.5,0.4,1.9
			c0.6,1.9,1.9,3.1,3.9,3.4c0.2,0,0.3,0.1,0.3,0.3v1c0,0.1,0,0.2-0.1,0.2s-0.1,0.1-0.2,0C461.1,1223.3,460,1222.8,459.1,1222.1z
			 M464.7,1223.4c-0.1,0-0.1,0-0.2-0.1c0-0.1-0.1-0.1-0.1-0.2v-1c0-0.2,0.1-0.3,0.3-0.3c1.9-0.3,3.2-1.4,3.9-3.4
			c0.2-0.5,0.3-1.1,0.4-2c0.1-0.8,0.1-2,0.1-3.5s0-2.7-0.1-3.5c-0.1-0.8-0.2-1.5-0.4-2c-0.7-1.9-2-3.1-3.9-3.4
			c-0.2,0-0.3-0.1-0.3-0.3v-1c0-0.1,0-0.2,0.1-0.2c0.1,0,0.1-0.1,0.2,0c1.4,0.2,2.5,0.6,3.4,1.4c0.9,0.8,1.6,1.8,2.1,3.1
			c0.2,0.6,0.3,1.3,0.4,2.2c0.1,0.9,0.2,2.1,0.2,3.8c0,1.6-0.1,2.9-0.2,3.8c-0.1,0.9-0.2,1.6-0.4,2.2c-0.4,1.3-1.1,2.4-2.1,3.1
			C467.2,1222.8,466.1,1223.3,464.7,1223.4L464.7,1223.4z"/>
	</g>
	<g class="st1">
		<path d="M509.3,1222.9l-6.8-19.7l-0.1-0.2c0-0.1,0-0.1,0.1-0.2c0,0,0.1-0.1,0.2-0.1h1.1c0.1,0,0.2,0,0.3,0.1
			c0.1,0,0.1,0.1,0.1,0.2l6.7,19.6c0,0.1,0.1,0.2,0.1,0.3c0,0.2-0.1,0.3-0.3,0.3h-1C509.5,1223.2,509.3,1223.1,509.3,1222.9z
			 M511,1218.6c0,0,0-0.1,0-0.2c0-0.1,0-0.2,0.1-0.3l5-15c0-0.1,0.1-0.2,0.2-0.2c0.1,0,0.1-0.1,0.3-0.1h1.1c0.1,0,0.2,0,0.2,0.1
			c0,0.1,0,0.2,0,0.3l-5.8,17c0,0.1,0,0.1-0.1,0.1c0,0-0.1,0.1-0.1,0.1c-0.1,0-0.1-0.1-0.2-0.2L511,1218.6z"/>
	</g>
	<g class="st1">
		<path d="M551.9,1223.1c-0.1-0.1-0.1-0.1-0.1-0.2v-19.8c0-0.1,0-0.2,0.1-0.2c0.1,0,0.1-0.1,0.2-0.1h1.1c0.1,0,0.2,0,0.2,0.1
			c0,0.1,0.1,0.1,0.1,0.2v19.8c0,0.1,0,0.1-0.1,0.2s-0.1,0.1-0.2,0.1h-1.1C552,1223.2,551.9,1223.2,551.9,1223.1z M555.2,1204.3
			c-0.1-0.1-0.1-0.1-0.1-0.2v-1c0-0.1,0-0.2,0.1-0.2c0.1,0,0.1-0.1,0.2-0.1h8.4c0.1,0,0.2,0,0.2,0.1c0,0.1,0.1,0.1,0.1,0.2v1
			c0,0.1,0,0.1-0.1,0.2s-0.1,0.1-0.2,0.1h-8.4C555.3,1204.4,555.2,1204.4,555.2,1204.3z M555.2,1213.6c-0.1-0.1-0.1-0.1-0.1-0.2v-1
			c0-0.1,0-0.2,0.1-0.2c0.1,0,0.1-0.1,0.2-0.1h7c0.1,0,0.2,0,0.2,0.1c0,0.1,0.1,0.1,0.1,0.2v1c0,0.1,0,0.1-0.1,0.2
			c-0.1,0.1-0.1,0.1-0.2,0.1h-7C555.3,1213.7,555.2,1213.6,555.2,1213.6z M555.2,1223.1c-0.1-0.1-0.1-0.1-0.1-0.2v-1
			c0-0.1,0-0.2,0.1-0.2c0.1,0,0.1-0.1,0.2-0.1h8.4c0.1,0,0.2,0,0.2,0.1c0,0.1,0.1,0.1,0.1,0.2v1c0,0.1,0,0.1-0.1,0.2
			s-0.1,0.1-0.2,0.1h-8.4C555.3,1223.2,555.2,1223.2,555.2,1223.1z"/>
	</g>
	<g class="st1">
		<path d="M599.1,1223.1c-0.1-0.1-0.1-0.1-0.1-0.2v-19.8c0-0.1,0-0.2,0.1-0.2c0.1,0,0.1-0.1,0.2-0.1h1.1c0.1,0,0.2,0,0.2,0.1
			c0,0.1,0.1,0.1,0.1,0.2v19.8c0,0.1,0,0.1-0.1,0.2s-0.1,0.1-0.2,0.1h-1.1C599.2,1223.2,599.2,1223.2,599.1,1223.1z M602.4,1214
			c-0.1-0.1-0.1-0.1-0.1-0.2v-1c0-0.1,0-0.2,0.1-0.2c0.1,0,0.1-0.1,0.2-0.1h3.5c1.5,0,2.6-0.3,3.4-1s1.2-1.7,1.2-3s-0.4-2.3-1.2-3
			s-1.9-1.1-3.4-1.1h-3.5c-0.1,0-0.2,0-0.2-0.1s-0.1-0.1-0.1-0.2v-1c0-0.1,0-0.2,0.1-0.2c0.1,0,0.1-0.1,0.2-0.1h3.5
			c1.3,0,2.4,0.2,3.3,0.7c0.9,0.5,1.6,1.1,2.1,2s0.8,1.9,0.8,3c0,1.1-0.2,2.1-0.7,2.9c-0.5,0.9-1.2,1.5-2.1,2
			c-1,0.5-2.1,0.7-3.5,0.7h-3.4C602.5,1214,602.5,1214,602.4,1214z M610.9,1223.1c0,0-0.1-0.1-0.1-0.2l-3.4-7.1
			c-0.1-0.1-0.1-0.2,0-0.3c0,0,0.1-0.1,0.2-0.1c0.1,0,0.1,0,0.2,0c0.4,0,0.7-0.1,0.9-0.2c0,0,0.1,0,0.1,0c0.1,0,0.2,0.1,0.2,0.2
			l3.7,7.4c0,0,0,0.1,0,0.1c0,0.1-0.1,0.2-0.2,0.2h-1.3C611,1223.2,610.9,1223.2,610.9,1223.1z"/>
	</g>
	<g class="st1">
		<path d="M647.6,1221.3c-1-1.2-1.5-3-1.5-5.2v-13.1c0-0.1,0-0.2,0.1-0.2c0.1,0,0.1-0.1,0.2-0.1h1.1c0.1,0,0.2,0,0.2,0.1
			c0,0.1,0.1,0.1,0.1,0.2v13.1c0,1.7,0.4,3,1.1,3.9c0.7,1,1.7,1.5,3.1,1.8c0.2,0,0.3,0.1,0.3,0.3v1c0,0.1,0,0.2-0.1,0.2
			c-0.1,0-0.1,0.1-0.2,0C650,1223.3,648.6,1222.5,647.6,1221.3z M654,1223.4c-0.1,0-0.1,0-0.2-0.1c0-0.1-0.1-0.1-0.1-0.2v-1
			c0-0.2,0.1-0.3,0.3-0.3c1.3-0.2,2.4-0.8,3.1-1.7s1.1-2.3,1.1-4v-13.1c0-0.1,0-0.2,0.1-0.2c0.1,0,0.1-0.1,0.2-0.1h1.1
			c0.1,0,0.2,0,0.2,0.1c0,0.1,0.1,0.1,0.1,0.2v13.1c0,2.2-0.5,3.9-1.5,5.1C657.4,1222.5,656,1223.2,654,1223.4L654,1223.4z"/>
	</g>
	<g class="st1">
		<path d="M173.9,1275.6c-0.1-0.1-0.1-0.1-0.1-0.2v-19.8c0-0.1,0-0.2,0.1-0.2c0.1,0,0.1-0.1,0.2-0.1h1.1c0.1,0,0.2,0,0.2,0.1
			c0,0.1,0.1,0.1,0.1,0.2v19.8c0,0.1,0,0.1-0.1,0.2c-0.1,0.1-0.1,0.1-0.2,0.1h-1.1C174,1275.6,174,1275.6,173.9,1275.6z M177.1,1266
			c-0.1-0.1-0.1-0.1-0.1-0.2v-1c0-0.1,0-0.2,0.1-0.2c0.1,0,0.1-0.1,0.2-0.1h6.9c0.1,0,0.2,0,0.2,0.1c0,0.1,0.1,0.1,0.1,0.2v1
			c0,0.1,0,0.1-0.1,0.2s-0.1,0.1-0.2,0.1h-6.9C177.2,1266.1,177.2,1266.1,177.1,1266z M186.1,1275.6c-0.1-0.1-0.1-0.1-0.1-0.2v-19.8
			c0-0.1,0-0.2,0.1-0.2c0.1,0,0.1-0.1,0.2-0.1h1.1c0.1,0,0.2,0,0.2,0.1c0,0.1,0.1,0.1,0.1,0.2v19.8c0,0.1,0,0.1-0.1,0.2
			c-0.1,0.1-0.1,0.1-0.2,0.1h-1.1C186.2,1275.6,186.1,1275.6,186.1,1275.6z"/>
	</g>
	<g class="st1">
		<path d="M219.2,1275.6c0-0.1,0-0.1,0-0.2l6.2-17.1c0.1-0.1,0.1-0.2,0.2-0.2c0,0,0.1,0,0.1,0c0,0,0.1,0.1,0.1,0.1l0.6,1.6
			c0,0.1,0.1,0.1,0.1,0.2s0,0.1-0.1,0.2l-3,8.4h5.9c0.2,0,0.3,0.1,0.4,0.2l0.4,1l0,0.1c0,0.1,0,0.1-0.1,0.1c-0.1,0-0.1,0.1-0.2,0.1
			h-6.9l-1.8,5.1c0,0.1-0.1,0.2-0.2,0.2c-0.1,0-0.1,0.1-0.2,0.1h-1.2C219.3,1275.6,219.2,1275.6,219.2,1275.6z M233.5,1275.4
			l-7-19.8l0-0.1c0-0.1,0-0.1,0.1-0.2s0.1-0.1,0.2-0.1h1.1c0.2,0,0.3,0.1,0.4,0.3l7.1,19.8l0,0.1c0,0.1,0,0.1-0.1,0.1
			c0,0-0.1,0.1-0.2,0.1h-1.2C233.6,1275.6,233.5,1275.6,233.5,1275.4z"/>
	</g>
	<g class="st1">
		<path d="M268.4,1275.6c-0.1-0.1-0.1-0.1-0.1-0.2v-19.8c0-0.1,0-0.2,0.1-0.2c0.1,0,0.1-0.1,0.2-0.1h1.1c0.1,0,0.2,0,0.2,0.1
			c0,0.1,0.1,0.1,0.1,0.2v19.8c0,0.1,0,0.1-0.1,0.2c-0.1,0.1-0.1,0.1-0.2,0.1h-1.1C268.5,1275.6,268.5,1275.6,268.4,1275.6z
			 M271.7,1275.6c-0.1-0.1-0.1-0.1-0.1-0.2v-1c0-0.1,0-0.2,0.1-0.2c0.1,0,0.1-0.1,0.2-0.1h8.4c0.1,0,0.2,0,0.2,0.1
			c0,0.1,0.1,0.1,0.1,0.2v1c0,0.1,0,0.1-0.1,0.2c-0.1,0.1-0.1,0.1-0.2,0.1h-8.4C271.8,1275.6,271.8,1275.6,271.7,1275.6z"/>
	</g>
	<g class="st1">
		<path d="M315.6,1275.6c-0.1-0.1-0.1-0.1-0.1-0.2v-19.8c0-0.1,0-0.2,0.1-0.2c0.1,0,0.1-0.1,0.2-0.1h1.1c0.1,0,0.2,0,0.2,0.1
			c0,0.1,0.1,0.1,0.1,0.2v19.8c0,0.1,0,0.1-0.1,0.2s-0.1,0.1-0.2,0.1h-1.1C315.8,1275.6,315.7,1275.6,315.6,1275.6z M318.9,1256.7
			c-0.1-0.1-0.1-0.1-0.1-0.2v-1c0-0.1,0-0.2,0.1-0.2c0.1,0,0.1-0.1,0.2-0.1h8.4c0.1,0,0.2,0,0.2,0.1c0,0.1,0.1,0.1,0.1,0.2v1
			c0,0.1,0,0.1-0.1,0.2s-0.1,0.1-0.2,0.1h-8.4C319.1,1256.8,319,1256.8,318.9,1256.7z M318.9,1266.2c-0.1-0.1-0.1-0.1-0.1-0.2v-1
			c0-0.1,0-0.2,0.1-0.2c0.1,0,0.1-0.1,0.2-0.1h7c0.1,0,0.2,0,0.2,0.1c0,0.1,0.1,0.1,0.1,0.2v1c0,0.1,0,0.1-0.1,0.2
			c-0.1,0.1-0.1,0.1-0.2,0.1h-7C319.1,1266.3,319,1266.3,318.9,1266.2z"/>
	</g>
	<g class="st1">
		<path d="M362.9,1275.6c-0.1-0.1-0.1-0.1-0.1-0.2v-19.8c0-0.1,0-0.2,0.1-0.2c0.1,0,0.1-0.1,0.2-0.1h1.1c0.1,0,0.2,0,0.2,0.1
			c0,0.1,0.1,0.1,0.1,0.2v19.8c0,0.1,0,0.1-0.1,0.2s-0.1,0.1-0.2,0.1h-1.1C363,1275.6,363,1275.6,362.9,1275.6z"/>
	</g>
	<g class="st1">
		<path d="M408,1256.7c-0.1-0.1-0.1-0.1-0.1-0.2v-1c0-0.1,0-0.2,0.1-0.2c0.1,0,0.1-0.1,0.2-0.1H422c0.1,0,0.2,0,0.2,0.1
			c0,0.1,0.1,0.1,0.1,0.2v1c0,0.1,0,0.1-0.1,0.2c-0.1,0.1-0.1,0.1-0.2,0.1h-13.8C408.1,1256.8,408,1256.8,408,1256.7z M414.3,1275.6
			c-0.1-0.1-0.1-0.1-0.1-0.2v-16.7c0-0.1,0-0.2,0.1-0.2c0.1,0,0.1-0.1,0.2-0.1h1.1c0.1,0,0.2,0,0.2,0.1c0,0.1,0.1,0.1,0.1,0.2v16.7
			c0,0.1,0,0.1-0.1,0.2s-0.1,0.1-0.2,0.1h-1.1C414.4,1275.6,414.4,1275.6,414.3,1275.6z"/>
	</g>
	<g class="st1">
		<path d="M460.4,1275.6c-0.1,0-0.1-0.1-0.1-0.2l-4.9-19.8l0-0.1c0-0.1,0-0.1,0.1-0.1s0.1-0.1,0.2-0.1h1.1c0.1,0,0.2,0,0.3,0.1
			c0.1,0,0.1,0.1,0.1,0.2l4.7,19.6c0,0.1,0,0.1,0,0.2c0,0.2-0.1,0.3-0.3,0.3h-1C460.5,1275.6,460.5,1275.6,460.4,1275.6z
			 M471.7,1275.6c0,0-0.1-0.1-0.1-0.2l-4.8-16.8h-0.1l-3.9,13.6c0,0.1,0,0.1-0.1,0.1s-0.1,0.1-0.1,0.1c-0.1,0-0.1-0.1-0.2-0.2
			l-0.5-2.1c0-0.1,0-0.2,0-0.4l3.9-14.1c0-0.1,0.1-0.2,0.1-0.2c0,0,0.1-0.1,0.2-0.1h0.9c0.1,0,0.2,0,0.2,0.1c0,0.1,0.1,0.1,0.1,0.2
			l5.5,19.6l0,0.1c0,0.2-0.1,0.3-0.3,0.3h-1C471.8,1275.6,471.7,1275.6,471.7,1275.6z M473,1270c0-0.2-0.1-0.3,0-0.4l3.3-14.1
			c0-0.1,0.1-0.2,0.1-0.2c0.1,0,0.1-0.1,0.3-0.1h1c0.1,0,0.2,0,0.2,0.1s0,0.1,0,0.2l-4,16.5c0,0.1,0,0.1-0.1,0.1s-0.1,0.1-0.1,0.1
			c-0.1,0-0.1-0.1-0.2-0.2L473,1270z"/>
	</g>
	<g class="st1">
		<path d="M504.6,1275.6c-0.1-0.1-0.1-0.1-0.1-0.2v-19.8c0-0.1,0-0.2,0.1-0.2c0.1,0,0.1-0.1,0.2-0.1h1.1c0.1,0,0.2,0,0.2,0.1
			c0,0.1,0.1,0.1,0.1,0.2v19.8c0,0.1,0,0.1-0.1,0.2s-0.1,0.1-0.2,0.1h-1.1C504.8,1275.6,504.7,1275.6,504.6,1275.6z M507.9,1256.7
			c-0.1-0.1-0.1-0.1-0.1-0.2v-1c0-0.1,0-0.2,0.1-0.2c0.1,0,0.1-0.1,0.2-0.1h8.4c0.1,0,0.2,0,0.2,0.1c0,0.1,0.1,0.1,0.1,0.2v1
			c0,0.1,0,0.1-0.1,0.2s-0.1,0.1-0.2,0.1h-8.4C508.1,1256.8,508,1256.8,507.9,1256.7z M507.9,1266c-0.1-0.1-0.1-0.1-0.1-0.2v-1
			c0-0.1,0-0.2,0.1-0.2c0.1,0,0.1-0.1,0.2-0.1h7c0.1,0,0.2,0,0.2,0.1c0,0.1,0.1,0.1,0.1,0.2v1c0,0.1,0,0.1-0.1,0.2
			c-0.1,0.1-0.1,0.1-0.2,0.1h-7C508.1,1266.1,508,1266.1,507.9,1266z M507.9,1275.6c-0.1-0.1-0.1-0.1-0.1-0.2v-1
			c0-0.1,0-0.2,0.1-0.2c0.1,0,0.1-0.1,0.2-0.1h8.4c0.1,0,0.2,0,0.2,0.1c0,0.1,0.1,0.1,0.1,0.2v1c0,0.1,0,0.1-0.1,0.2
			s-0.1,0.1-0.2,0.1h-8.4C508.1,1275.6,508,1275.6,507.9,1275.6z"/>
	</g>
	<g class="st1">
		<path d="M551.9,1275.6c-0.1-0.1-0.1-0.1-0.1-0.2v-19.8c0-0.1,0-0.2,0.1-0.2c0.1,0,0.1-0.1,0.2-0.1h1.1c0.1,0,0.2,0,0.2,0.1
			c0,0.1,0.1,0.1,0.1,0.2v19.8c0,0.1,0,0.1-0.1,0.2s-0.1,0.1-0.2,0.1h-1.1C552,1275.6,551.9,1275.6,551.9,1275.6z M555.2,1256.7
			c-0.1-0.1-0.1-0.1-0.1-0.2v-1c0-0.1,0-0.2,0.1-0.2c0.1,0,0.1-0.1,0.2-0.1h8.4c0.1,0,0.2,0,0.2,0.1c0,0.1,0.1,0.1,0.1,0.2v1
			c0,0.1,0,0.1-0.1,0.2s-0.1,0.1-0.2,0.1h-8.4C555.3,1256.8,555.2,1256.8,555.2,1256.7z M555.2,1266c-0.1-0.1-0.1-0.1-0.1-0.2v-1
			c0-0.1,0-0.2,0.1-0.2c0.1,0,0.1-0.1,0.2-0.1h7c0.1,0,0.2,0,0.2,0.1c0,0.1,0.1,0.1,0.1,0.2v1c0,0.1,0,0.1-0.1,0.2
			c-0.1,0.1-0.1,0.1-0.2,0.1h-7C555.3,1266.1,555.2,1266.1,555.2,1266z M555.2,1275.6c-0.1-0.1-0.1-0.1-0.1-0.2v-1
			c0-0.1,0-0.2,0.1-0.2c0.1,0,0.1-0.1,0.2-0.1h8.4c0.1,0,0.2,0,0.2,0.1c0,0.1,0.1,0.1,0.1,0.2v1c0,0.1,0,0.1-0.1,0.2
			s-0.1,0.1-0.2,0.1h-8.4C555.3,1275.6,555.2,1275.6,555.2,1275.6z"/>
	</g>
	<g class="st1">
		<path d="M611.3,1275.6c-0.1,0-0.2-0.1-0.2-0.2l-11.9-19.4c-0.1-0.1-0.1-0.2-0.1-0.4c0-0.2,0.1-0.3,0.3-0.3h1c0.1,0,0.2,0,0.3,0.1
			c0.1,0,0.1,0.1,0.2,0.2l12,19.5c0,0.1,0.1,0.1,0.1,0.2c0,0.1,0,0.1,0,0.2c0,0.1-0.1,0.2-0.3,0.2h-1
			C611.5,1275.6,611.4,1275.6,611.3,1275.6z M599.1,1275.6c-0.1-0.1-0.1-0.1-0.1-0.2v-16.2c0-0.2,0-0.2,0.1-0.2
			c0.1,0,0.2,0.1,0.2,0.1l1.2,1.9c0.1,0.1,0.1,0.2,0.1,0.4v14c0,0.1,0,0.1-0.1,0.2c-0.1,0.1-0.1,0.1-0.2,0.1h-1
			C599.2,1275.6,599.2,1275.6,599.1,1275.6z M611.4,1269.9c-0.1-0.1-0.1-0.2-0.1-0.4v-14c0-0.1,0-0.2,0.1-0.2c0.1,0,0.1-0.1,0.2-0.1
			h1c0.1,0,0.2,0,0.2,0.1c0,0.1,0.1,0.1,0.1,0.2v16.1c0,0.2,0,0.2-0.2,0.2c-0.1,0-0.1,0-0.2-0.1L611.4,1269.9z"/>
	</g>
	<g class="st1">
		<path d="M658.6,1275.6c-0.1,0-0.2-0.1-0.2-0.2l-11.9-19.4c-0.1-0.1-0.1-0.2-0.1-0.4c0-0.2,0.1-0.3,0.3-0.3h1c0.1,0,0.2,0,0.3,0.1
			c0.1,0,0.1,0.1,0.2,0.2l12,19.5c0,0.1,0.1,0.1,0.1,0.2c0,0.1,0,0.1,0,0.2c0,0.1-0.1,0.2-0.3,0.2h-1
			C658.7,1275.6,658.6,1275.6,658.6,1275.6z M646.4,1275.6c-0.1-0.1-0.1-0.1-0.1-0.2v-16.2c0-0.2,0-0.2,0.1-0.2
			c0.1,0,0.2,0.1,0.2,0.1l1.2,1.9c0.1,0.1,0.1,0.2,0.1,0.4v14c0,0.1,0,0.1-0.1,0.2c-0.1,0.1-0.1,0.1-0.2,0.1h-1
			C646.5,1275.6,646.4,1275.6,646.4,1275.6z M658.6,1269.9c-0.1-0.1-0.1-0.2-0.1-0.4v-14c0-0.1,0-0.2,0.1-0.2c0.1,0,0.1-0.1,0.2-0.1
			h1c0.1,0,0.2,0,0.2,0.1c0,0.1,0.1,0.1,0.1,0.2v16.1c0,0.2,0,0.2-0.2,0.2c-0.1,0-0.1,0-0.2-0.1L658.6,1269.9z"/>
	</g>
	<g class="st1">
		<path d="M171.9,1328c0-0.1,0-0.1,0-0.2l6.2-17.1c0.1-0.1,0.1-0.2,0.2-0.2c0,0,0.1,0,0.1,0c0,0,0.1,0.1,0.1,0.1l0.6,1.6
			c0,0.1,0.1,0.1,0.1,0.2c0,0.1,0,0.2-0.1,0.2l-3,8.4h5.9c0.2,0,0.3,0.1,0.4,0.2l0.4,1l0,0.1c0,0.1,0,0.1-0.1,0.2
			c-0.1,0-0.1,0.1-0.2,0.1h-6.9l-1.8,5.1c0,0.1-0.1,0.2-0.2,0.2c-0.1,0-0.1,0.1-0.2,0.1h-1.2C172,1328.1,172,1328.1,171.9,1328z
			 M186.2,1327.8l-7-19.8l0-0.1c0-0.1,0-0.1,0.1-0.2s0.1-0.1,0.2-0.1h1.1c0.2,0,0.3,0.1,0.4,0.3l7.1,19.8l0,0.1c0,0.1,0,0.1-0.1,0.2
			s-0.1,0.1-0.2,0.1h-1.2C186.4,1328.1,186.3,1328,186.2,1327.8z"/>
	</g>
	<g class="st1">
		<path d="M222.8,1327c-0.9-0.8-1.6-1.8-2-3.1c-0.2-0.5-0.3-1.2-0.4-2.1c-0.1-0.9-0.1-2.2-0.1-3.9c0-1.7,0-3,0.1-3.9
			c0.1-0.9,0.2-1.6,0.4-2.1c0.4-1.3,1.1-2.4,2-3.1c0.9-0.8,2-1.2,3.3-1.4h0.1c0.1,0,0.1,0,0.2,0.1c0,0.1,0.1,0.1,0.1,0.2v1
			c0,0.2-0.1,0.3-0.3,0.3c-0.9,0.1-1.7,0.5-2.3,1c-0.6,0.6-1.1,1.3-1.4,2.3c-0.1,0.4-0.3,1.1-0.3,1.9c-0.1,0.8-0.1,2-0.1,3.6
			s0,2.8,0.1,3.6c0.1,0.8,0.2,1.4,0.3,1.9c0.3,1,0.8,1.7,1.4,2.3c0.6,0.6,1.4,0.9,2.3,1.1c0.2,0,0.3,0.1,0.3,0.3v1
			c0,0.1,0,0.2-0.1,0.2c-0.1,0-0.1,0.1-0.2,0C224.7,1328.2,223.7,1327.7,222.8,1327z M232.1,1312c-0.1,0-0.2-0.1-0.3-0.2
			c-0.9-1.6-2.1-2.5-3.6-2.8c-0.2,0-0.3-0.1-0.3-0.3v-1c0-0.1,0-0.2,0.1-0.2c0.1-0.1,0.1-0.1,0.2-0.1c1.1,0.2,2.1,0.5,3,1.2
			s1.5,1.5,2,2.5c0,0,0,0.1,0,0.2s0,0.1-0.1,0.2l-1,0.5C232.2,1312,232.2,1312,232.1,1312z M228.2,1328.3c-0.1,0-0.1,0-0.2-0.1
			c-0.1-0.1-0.1-0.1-0.1-0.2v-1c0-0.2,0.1-0.3,0.3-0.3c1.6-0.3,2.8-1.2,3.6-2.8c0-0.1,0.1-0.1,0.2-0.2c0.1,0,0.1,0,0.2,0l1,0.5
			c0.1,0.1,0.2,0.2,0.1,0.4c-0.5,1.1-1.2,1.9-2,2.5S229.4,1328.2,228.2,1328.3L228.2,1328.3z"/>
	</g>
	<g class="st1">
		<path d="M268.4,1328c-0.1-0.1-0.1-0.1-0.1-0.2V1308c0-0.1,0-0.2,0.1-0.2c0.1,0,0.1-0.1,0.2-0.1h1.1c0.1,0,0.2,0,0.2,0.1
			c0,0.1,0.1,0.1,0.1,0.2v19.8c0,0.1,0,0.1-0.1,0.2c-0.1,0.1-0.1,0.1-0.2,0.1h-1.1C268.5,1328.1,268.5,1328.1,268.4,1328z
			 M271.6,1318.5c-0.1-0.1-0.1-0.1-0.1-0.2v-1c0-0.1,0-0.2,0.1-0.2s0.1-0.1,0.2-0.1h6.9c0.1,0,0.2,0,0.2,0.1s0.1,0.1,0.1,0.2v1
			c0,0.1,0,0.1-0.1,0.2c0,0.1-0.1,0.1-0.2,0.1h-6.9C271.7,1318.5,271.6,1318.5,271.6,1318.5z M280.6,1328c-0.1-0.1-0.1-0.1-0.1-0.2
			V1308c0-0.1,0-0.2,0.1-0.2c0.1,0,0.1-0.1,0.2-0.1h1.1c0.1,0,0.2,0,0.2,0.1c0,0.1,0.1,0.1,0.1,0.2v19.8c0,0.1,0,0.1-0.1,0.2
			c-0.1,0.1-0.1,0.1-0.2,0.1h-1.1C280.7,1328.1,280.6,1328.1,280.6,1328z"/>
	</g>
	<g class="st1">
		<path d="M313.5,1309.2c-0.1-0.1-0.1-0.1-0.1-0.2v-1c0-0.1,0-0.2,0.1-0.2c0.1,0,0.1-0.1,0.2-0.1h13.8c0.1,0,0.2,0,0.2,0.1
			c0,0.1,0.1,0.1,0.1,0.2v1c0,0.1,0,0.2-0.1,0.2c-0.1,0.1-0.1,0.1-0.2,0.1h-13.8C313.6,1309.3,313.5,1309.2,313.5,1309.2z
			 M319.8,1328c-0.1-0.1-0.1-0.1-0.1-0.2v-16.7c0-0.1,0-0.2,0.1-0.2c0.1,0,0.1-0.1,0.2-0.1h1.1c0.1,0,0.2,0,0.2,0.1s0.1,0.1,0.1,0.2
			v16.7c0,0.1,0,0.1-0.1,0.2c0,0.1-0.1,0.1-0.2,0.1H320C319.9,1328.1,319.9,1328.1,319.8,1328z"/>
	</g>
	<g class="st1">
		<path d="M362.9,1328c-0.1-0.1-0.1-0.1-0.1-0.2V1308c0-0.1,0-0.2,0.1-0.2c0.1,0,0.1-0.1,0.2-0.1h1.1c0.1,0,0.2,0,0.2,0.1
			c0,0.1,0.1,0.1,0.1,0.2v19.8c0,0.1,0,0.1-0.1,0.2c0,0.1-0.1,0.1-0.2,0.1h-1.1C363,1328.1,363,1328.1,362.9,1328z M366.2,1328
			c-0.1-0.1-0.1-0.1-0.1-0.2v-1c0-0.1,0-0.2,0.1-0.2c0.1,0,0.1-0.1,0.2-0.1h2.9c1.4,0,2.5-0.2,3.3-0.7c0.9-0.5,1.5-1.3,1.8-2.3
			c0.2-0.5,0.3-1.2,0.4-1.9c0.1-0.8,0.1-2,0.1-3.6c0-1.6,0-2.8-0.1-3.6c-0.1-0.8-0.2-1.4-0.4-2c-0.4-1.1-1-1.8-1.8-2.3
			c-0.8-0.5-2-0.7-3.3-0.7h-2.9c-0.1,0-0.1,0-0.2-0.1c-0.1-0.1-0.1-0.1-0.1-0.2v-1c0-0.1,0-0.2,0.1-0.2c0.1,0,0.1-0.1,0.2-0.1h3.1
			c3.4,0,5.6,1.4,6.5,4.1c0.2,0.6,0.3,1.3,0.4,2.2c0.1,0.8,0.1,2.1,0.1,3.9c0,1.8,0,3.1-0.1,3.9c-0.1,0.8-0.2,1.5-0.4,2.2
			c-0.9,2.8-3.1,4.1-6.5,4.1h-3.1C366.3,1328.1,366.2,1328.1,366.2,1328z"/>
	</g>
	<g class="st1">
		<path d="M410.1,1328c-0.1-0.1-0.1-0.1-0.1-0.2V1308c0-0.1,0-0.2,0.1-0.2c0.1,0,0.1-0.1,0.2-0.1h1.1c0.1,0,0.2,0,0.2,0.1
			c0,0.1,0.1,0.1,0.1,0.2v19.8c0,0.1,0,0.1-0.1,0.2c0,0.1-0.1,0.1-0.2,0.1h-1.1C410.3,1328.1,410.2,1328.1,410.1,1328z
			 M413.4,1318.8c-0.1-0.1-0.1-0.1-0.1-0.2v-1c0-0.1,0-0.2,0.1-0.2s0.1-0.1,0.2-0.1h3.5c1.5,0,2.6-0.3,3.4-1c0.8-0.7,1.2-1.7,1.2-3
			s-0.4-2.3-1.2-3s-1.9-1-3.4-1h-3.5c-0.1,0-0.2,0-0.2-0.1c-0.1-0.1-0.1-0.1-0.1-0.2v-1c0-0.1,0-0.2,0.1-0.2c0.1,0,0.1-0.1,0.2-0.1
			h3.5c1.3,0,2.4,0.2,3.3,0.7c0.9,0.4,1.6,1.1,2.1,1.9c0.5,0.9,0.8,1.9,0.8,3c0,1.1-0.2,2.1-0.7,2.9c-0.5,0.9-1.2,1.5-2.1,2
			c-1,0.5-2.1,0.7-3.5,0.7h-3.4C413.6,1318.9,413.5,1318.9,413.4,1318.8z M421.9,1328c0,0-0.1-0.1-0.1-0.2l-3.4-7.1
			c-0.1-0.1-0.1-0.2,0-0.3c0,0,0.1-0.1,0.2-0.1c0.1,0,0.1,0,0.2,0c0.4,0,0.7-0.1,0.9-0.2c0,0,0.1,0,0.1,0c0.1,0,0.2,0.1,0.2,0.2
			l3.7,7.4c0,0,0,0.1,0,0.2c0,0.1-0.1,0.2-0.2,0.2h-1.3C422,1328.1,422,1328.1,421.9,1328z"/>
	</g>
	<g class="st1">
		<path d="M457.4,1328c-0.1-0.1-0.1-0.1-0.1-0.2V1308c0-0.1,0-0.2,0.1-0.2c0.1,0,0.1-0.1,0.2-0.1h1.1c0.1,0,0.2,0,0.2,0.1
			c0,0.1,0.1,0.1,0.1,0.2v19.8c0,0.1,0,0.1-0.1,0.2c0,0.1-0.1,0.1-0.2,0.1h-1.1C457.5,1328.1,457.4,1328.1,457.4,1328z"/>
	</g>
	<g class="st1">
		<path d="M504.6,1328c-0.1-0.1-0.1-0.1-0.1-0.2V1308c0-0.1,0-0.2,0.1-0.2c0.1,0,0.1-0.1,0.2-0.1h1.1c0.1,0,0.2,0,0.2,0.1
			c0,0.1,0.1,0.1,0.1,0.2v19.8c0,0.1,0,0.1-0.1,0.2c0,0.1-0.1,0.1-0.2,0.1h-1.1C504.8,1328.1,504.7,1328.1,504.6,1328z
			 M507.9,1309.2c-0.1-0.1-0.1-0.1-0.1-0.2v-1c0-0.1,0-0.2,0.1-0.2c0.1,0,0.1-0.1,0.2-0.1h8.4c0.1,0,0.2,0,0.2,0.1
			c0,0.1,0.1,0.1,0.1,0.2v1c0,0.1,0,0.2-0.1,0.2c0,0.1-0.1,0.1-0.2,0.1h-8.4C508.1,1309.3,508,1309.2,507.9,1309.2z M507.9,1318.5
			c-0.1-0.1-0.1-0.1-0.1-0.2v-1c0-0.1,0-0.2,0.1-0.2s0.1-0.1,0.2-0.1h7c0.1,0,0.2,0,0.2,0.1c0,0,0.1,0.1,0.1,0.2v1
			c0,0.1,0,0.1-0.1,0.2c-0.1,0.1-0.1,0.1-0.2,0.1h-7C508.1,1318.5,508,1318.5,507.9,1318.5z M507.9,1328c-0.1-0.1-0.1-0.1-0.1-0.2
			v-1c0-0.1,0-0.2,0.1-0.2s0.1-0.1,0.2-0.1h8.4c0.1,0,0.2,0,0.2,0.1s0.1,0.1,0.1,0.2v1c0,0.1,0,0.1-0.1,0.2c0,0.1-0.1,0.1-0.2,0.1
			h-8.4C508.1,1328.1,508,1328.1,507.9,1328z"/>
	</g>
	<g class="st1">
		<path d="M550.6,1328c-0.1-0.1-0.1-0.1-0.1-0.2v-1c0-0.1,0-0.2,0-0.2c0-0.1,0.1-0.1,0.1-0.2l11.7-18.5c0.1-0.1,0.2-0.2,0.4-0.2h0.5
			c0.1,0,0.2,0,0.2,0.1c0,0.1,0.1,0.1,0.1,0.2v1c0,0.1,0,0.1,0,0.2c0,0.1-0.1,0.1-0.1,0.2l-11.7,18.5c-0.1,0.1-0.2,0.2-0.4,0.2h-0.5
			C550.8,1328.1,550.7,1328.1,550.6,1328z M551.1,1309.2c-0.1-0.1-0.1-0.1-0.1-0.2v-1c0-0.1,0-0.2,0.1-0.2c0.1,0,0.1-0.1,0.2-0.1
			h9.2c0.1,0,0.2,0,0.2,0.1s0,0.2,0,0.3l-0.7,1c-0.1,0.1-0.2,0.2-0.4,0.2h-8.3C551.2,1309.3,551.1,1309.2,551.1,1309.2z M553.4,1328
			c0-0.1,0-0.2,0-0.3l0.7-1c0.1-0.1,0.2-0.2,0.4-0.2h8.7c0.1,0,0.2,0,0.2,0.1s0.1,0.1,0.1,0.2v1c0,0.1,0,0.1-0.1,0.2
			c0,0.1-0.1,0.1-0.2,0.1h-9.6C553.5,1328.1,553.5,1328,553.4,1328z"/>
	</g>
	<g class="st1">
		<path d="M599.1,1328c-0.1-0.1-0.1-0.1-0.1-0.2V1308c0-0.1,0-0.2,0.1-0.2c0.1,0,0.1-0.1,0.2-0.1h1.1c0.1,0,0.2,0,0.2,0.1
			c0,0.1,0.1,0.1,0.1,0.2v19.8c0,0.1,0,0.1-0.1,0.2c0,0.1-0.1,0.1-0.2,0.1h-1.1C599.2,1328.1,599.2,1328.1,599.1,1328z
			 M602.4,1309.2c-0.1-0.1-0.1-0.1-0.1-0.2v-1c0-0.1,0-0.2,0.1-0.2c0.1,0,0.1-0.1,0.2-0.1h8.4c0.1,0,0.2,0,0.2,0.1
			c0,0.1,0.1,0.1,0.1,0.2v1c0,0.1,0,0.2-0.1,0.2c0,0.1-0.1,0.1-0.2,0.1h-8.4C602.5,1309.3,602.5,1309.2,602.4,1309.2z M602.4,1318.5
			c-0.1-0.1-0.1-0.1-0.1-0.2v-1c0-0.1,0-0.2,0.1-0.2s0.1-0.1,0.2-0.1h7c0.1,0,0.2,0,0.2,0.1c0,0,0.1,0.1,0.1,0.2v1
			c0,0.1,0,0.1-0.1,0.2c-0.1,0.1-0.1,0.1-0.2,0.1h-7C602.5,1318.5,602.5,1318.5,602.4,1318.5z M602.4,1328c-0.1-0.1-0.1-0.1-0.1-0.2
			v-1c0-0.1,0-0.2,0.1-0.2s0.1-0.1,0.2-0.1h8.4c0.1,0,0.2,0,0.2,0.1s0.1,0.1,0.1,0.2v1c0,0.1,0,0.1-0.1,0.2c0,0.1-0.1,0.1-0.2,0.1
			h-8.4C602.5,1328.1,602.5,1328.1,602.4,1328z"/>
	</g>
	<g class="st1">
		<path d="M647.9,1327.5c-1.1-0.4-1.9-0.9-2.5-1.5c-0.1-0.1-0.1-0.1-0.1-0.2s0-0.2,0.1-0.2l0.7-0.8c0.1-0.1,0.3-0.2,0.4,0
			c0.6,0.5,1.3,0.9,2.1,1.3c0.8,0.4,1.7,0.6,2.6,0.7c0.2,0,0.3,0.1,0.3,0.3v1c0,0.1,0,0.2-0.1,0.2c-0.1,0-0.1,0.1-0.2,0
			C650.1,1328.2,649,1328,647.9,1327.5z M653.4,1328.3c-0.1,0-0.1,0-0.2-0.1c-0.1,0-0.1-0.1-0.1-0.2v-1c0-0.2,0.1-0.3,0.3-0.3
			c1.3-0.1,2.3-0.6,3.1-1.3s1.1-1.7,1.1-2.8c0-1.1-0.4-2-1.1-2.7c-0.7-0.7-2-1.1-3.8-1.3l-1-0.1c-2-0.3-3.4-0.8-4.4-1.8
			c-1-0.9-1.5-2.1-1.5-3.6c0-1,0.2-2,0.6-2.8c0.4-0.8,1-1.5,1.8-2s1.7-0.8,2.8-0.9h0.1c0.1,0,0.1,0,0.2,0.1c0,0.1,0.1,0.1,0.1,0.2v1
			c0,0.2-0.1,0.3-0.3,0.3c-1.1,0.2-2,0.6-2.6,1.3c-0.6,0.7-0.9,1.6-0.9,2.6c0,1.1,0.4,2,1.1,2.6c0.8,0.7,2,1.1,3.7,1.3l1,0.1
			c2,0.3,3.5,0.8,4.4,1.8s1.4,2.1,1.4,3.7c0,1.1-0.2,2-0.7,2.8c-0.4,0.8-1.1,1.5-2,2C655.8,1327.9,654.7,1328.2,653.4,1328.3
			L653.4,1328.3z M653.4,1309c-0.2,0-0.3-0.2-0.3-0.3v-1c0-0.1,0-0.2,0.1-0.2s0.1-0.1,0.2,0c0.9,0.1,1.8,0.3,2.6,0.5
			s1.5,0.6,2.1,1.1c0.2,0.1,0.2,0.3,0.1,0.4l-0.6,0.9c-0.1,0.1-0.3,0.2-0.4,0.1C655.9,1309.6,654.7,1309.2,653.4,1309z"/>
	</g>
	<g class="st1">
		<path d="M172.7,1380.4c-0.1-0.1-0.1-0.1-0.1-0.2v-1c0-0.1,0-0.2,0-0.2c0-0.1,0.1-0.1,0.1-0.2l11.7-18.5c0.1-0.1,0.2-0.2,0.4-0.2
			h0.4c0.1,0,0.2,0,0.2,0.1c0,0.1,0.1,0.1,0.1,0.2v1c0,0.1,0,0.1,0,0.2c0,0.1-0.1,0.1-0.1,0.2l-11.7,18.5c-0.1,0.1-0.2,0.2-0.4,0.2
			h-0.4C172.8,1380.5,172.7,1380.5,172.7,1380.4z M173.1,1361.6c-0.1-0.1-0.1-0.1-0.1-0.2v-1c0-0.1,0-0.2,0.1-0.2
			c0.1,0,0.1-0.1,0.2-0.1h9.1c0.1,0,0.2,0,0.2,0.1c0,0.1,0,0.2,0,0.3l-0.7,1c-0.1,0.1-0.2,0.2-0.4,0.2h-8.3
			C173.2,1361.7,173.2,1361.7,173.1,1361.6z M175.5,1380.4c0-0.1,0-0.2,0-0.3l0.7-1c0.1-0.1,0.2-0.2,0.4-0.2h8.7
			c0.1,0,0.2,0,0.2,0.1s0.1,0.1,0.1,0.2v1c0,0.1,0,0.1-0.1,0.2c0,0.1-0.1,0.1-0.2,0.1h-9.6C175.6,1380.5,175.5,1380.5,175.5,1380.4z
			"/>
	</g>
	<g class="st1">
		<path d="M221.2,1380.4c-0.1-0.1-0.1-0.1-0.1-0.2v-19.8c0-0.1,0-0.2,0.1-0.2c0.1,0,0.1-0.1,0.2-0.1h1.1c0.1,0,0.2,0,0.2,0.1
			c0,0.1,0.1,0.1,0.1,0.2v19.8c0,0.1,0,0.1-0.1,0.2c-0.1,0.1-0.1,0.1-0.2,0.1h-1.1C221.3,1380.5,221.2,1380.5,221.2,1380.4z
			 M224.5,1361.6c-0.1-0.1-0.1-0.1-0.1-0.2v-1c0-0.1,0-0.2,0.1-0.2c0.1,0,0.1-0.1,0.2-0.1h8.4c0.1,0,0.2,0,0.2,0.1
			c0,0.1,0.1,0.1,0.1,0.2v1c0,0.1,0,0.2-0.1,0.2c-0.1,0.1-0.1,0.1-0.2,0.1h-8.4C224.6,1361.7,224.5,1361.7,224.5,1361.6z
			 M224.5,1370.9c-0.1-0.1-0.1-0.1-0.1-0.2v-1c0-0.1,0-0.2,0.1-0.2s0.1-0.1,0.2-0.1h7c0.1,0,0.2,0,0.2,0.1c0,0,0.1,0.1,0.1,0.2v1
			c0,0.1,0,0.1-0.1,0.2c-0.1,0.1-0.1,0.1-0.2,0.1h-7C224.6,1371,224.5,1371,224.5,1370.9z M224.5,1380.4c-0.1-0.1-0.1-0.1-0.1-0.2
			v-1c0-0.1,0-0.2,0.1-0.2s0.1-0.1,0.2-0.1h8.4c0.1,0,0.2,0,0.2,0.1c0,0,0.1,0.1,0.1,0.2v1c0,0.1,0,0.1-0.1,0.2
			c-0.1,0.1-0.1,0.1-0.2,0.1h-8.4C224.6,1380.5,224.5,1380.5,224.5,1380.4z"/>
	</g>
	<g class="st1">
		<path d="M273.1,1380.2l-6.8-19.7l-0.1-0.2c0-0.1,0-0.1,0.1-0.2c0,0,0.1-0.1,0.2-0.1h1c0.1,0,0.2,0,0.3,0.1c0.1,0,0.1,0.1,0.1,0.2
			l6.7,19.6c0,0.1,0.1,0.2,0.1,0.3c0,0.2-0.1,0.3-0.3,0.3h-1C273.2,1380.5,273.1,1380.4,273.1,1380.2z M274.8,1375.9
			c0,0,0-0.1,0-0.2c0-0.1,0-0.2,0.1-0.3l5-15c0-0.1,0.1-0.2,0.1-0.2s0.1-0.1,0.3-0.1h1.1c0.1,0,0.2,0,0.2,0.1c0,0.1,0,0.2,0,0.3
			l-5.8,17c0,0.1,0,0.1-0.1,0.2s-0.1,0.1-0.1,0.1c-0.1,0-0.1-0.1-0.2-0.2L274.8,1375.9z"/>
	</g>
	<g class="st1">
		<path d="M315.6,1380.4c-0.1-0.1-0.1-0.1-0.1-0.2v-19.8c0-0.1,0-0.2,0.1-0.2c0.1,0,0.1-0.1,0.2-0.1h1.1c0.1,0,0.2,0,0.2,0.1
			c0,0.1,0.1,0.1,0.1,0.2v19.8c0,0.1,0,0.1-0.1,0.2c0,0.1-0.1,0.1-0.2,0.1h-1.1C315.8,1380.5,315.7,1380.5,315.6,1380.4z
			 M318.9,1361.6c-0.1-0.1-0.1-0.1-0.1-0.2v-1c0-0.1,0-0.2,0.1-0.2c0.1,0,0.1-0.1,0.2-0.1h8.4c0.1,0,0.2,0,0.2,0.1
			c0,0.1,0.1,0.1,0.1,0.2v1c0,0.1,0,0.2-0.1,0.2c0,0.1-0.1,0.1-0.2,0.1h-8.4C319.1,1361.7,319,1361.7,318.9,1361.6z M318.9,1370.9
			c-0.1-0.1-0.1-0.1-0.1-0.2v-1c0-0.1,0-0.2,0.1-0.2s0.1-0.1,0.2-0.1h7c0.1,0,0.2,0,0.2,0.1c0,0,0.1,0.1,0.1,0.2v1
			c0,0.1,0,0.1-0.1,0.2c-0.1,0.1-0.1,0.1-0.2,0.1h-7C319.1,1371,319,1371,318.9,1370.9z M318.9,1380.4c-0.1-0.1-0.1-0.1-0.1-0.2v-1
			c0-0.1,0-0.2,0.1-0.2s0.1-0.1,0.2-0.1h8.4c0.1,0,0.2,0,0.2,0.1s0.1,0.1,0.1,0.2v1c0,0.1,0,0.1-0.1,0.2c0,0.1-0.1,0.1-0.2,0.1h-8.4
			C319.1,1380.5,319,1380.5,318.9,1380.4z"/>
	</g>
	<g class="st1">
		<path d="M375.1,1380.5c-0.1,0-0.2-0.1-0.2-0.2l-11.9-19.4c-0.1-0.1-0.1-0.2-0.1-0.4c0-0.2,0.1-0.3,0.3-0.3h1c0.1,0,0.2,0,0.3,0.1
			c0.1,0,0.1,0.1,0.2,0.2l12,19.5c0,0.1,0.1,0.1,0.1,0.2c0,0.1,0,0.1,0,0.2c0,0.1-0.1,0.2-0.3,0.2h-1
			C375.3,1380.5,375.2,1380.5,375.1,1380.5z M362.9,1380.4c-0.1-0.1-0.1-0.1-0.1-0.2v-16.2c0-0.2,0-0.2,0.1-0.2c0.1,0,0.2,0,0.2,0.2
			l1.2,1.9c0.1,0.1,0.1,0.2,0.1,0.4v14c0,0.1,0,0.1-0.1,0.2c-0.1,0.1-0.1,0.1-0.2,0.1h-1C363,1380.5,363,1380.5,362.9,1380.4z
			 M375.2,1374.8c-0.1-0.1-0.1-0.2-0.1-0.4v-13.9c0-0.1,0-0.2,0.1-0.2c0.1,0,0.1-0.1,0.2-0.1h1c0.1,0,0.2,0,0.2,0.1
			c0,0.1,0.1,0.1,0.1,0.2v16.1c0,0.2,0,0.2-0.2,0.2c-0.1,0-0.1,0-0.2-0.2L375.2,1374.8z"/>
	</g>
	<g class="st1">
		<path d="M410.1,1380.4c-0.1-0.1-0.1-0.1-0.1-0.2v-19.8c0-0.1,0-0.2,0.1-0.2c0.1,0,0.1-0.1,0.2-0.1h1.1c0.1,0,0.2,0,0.2,0.1
			c0,0.1,0.1,0.1,0.1,0.2v19.8c0,0.1,0,0.1-0.1,0.2c0,0.1-0.1,0.1-0.2,0.1h-1.1C410.3,1380.5,410.2,1380.5,410.1,1380.4z
			 M413.4,1361.6c-0.1-0.1-0.1-0.1-0.1-0.2v-1c0-0.1,0-0.2,0.1-0.2c0.1,0,0.1-0.1,0.2-0.1h8.4c0.1,0,0.2,0,0.2,0.1
			c0,0.1,0.1,0.1,0.1,0.2v1c0,0.1,0,0.2-0.1,0.2c0,0.1-0.1,0.1-0.2,0.1h-8.4C413.6,1361.7,413.5,1361.7,413.4,1361.6z M413.4,1370.9
			c-0.1-0.1-0.1-0.1-0.1-0.2v-1c0-0.1,0-0.2,0.1-0.2s0.1-0.1,0.2-0.1h7c0.1,0,0.2,0,0.2,0.1c0,0,0.1,0.1,0.1,0.2v1
			c0,0.1,0,0.1-0.1,0.2c-0.1,0.1-0.1,0.1-0.2,0.1h-7C413.6,1371,413.5,1371,413.4,1370.9z M413.4,1380.4c-0.1-0.1-0.1-0.1-0.1-0.2
			v-1c0-0.1,0-0.2,0.1-0.2s0.1-0.1,0.2-0.1h8.4c0.1,0,0.2,0,0.2,0.1s0.1,0.1,0.1,0.2v1c0,0.1,0,0.1-0.1,0.2c0,0.1-0.1,0.1-0.2,0.1
			h-8.4C413.6,1380.5,413.5,1380.5,413.4,1380.4z"/>
	</g>
	<g class="st1">
		<path d="M459.1,1379.4c-0.9-0.8-1.6-1.8-2.1-3.1c-0.2-0.6-0.3-1.3-0.4-2.1s-0.1-2.1-0.1-3.8c0-1.7,0-2.9,0.1-3.8s0.2-1.6,0.4-2.1
			c0.4-1.3,1.1-2.4,2.1-3.1s2.1-1.2,3.5-1.4h0.1c0.1,0,0.1,0,0.2,0.1c0,0.1,0.1,0.1,0.1,0.2v1c0,0.2-0.1,0.3-0.3,0.3
			c-1,0.1-1.8,0.5-2.4,1.1c-0.7,0.6-1.1,1.3-1.5,2.3c-0.2,0.4-0.3,1.1-0.4,1.9s-0.1,2-0.1,3.6c0,1.6,0,2.8,0.1,3.6s0.2,1.5,0.4,1.9
			c0.3,1,0.8,1.7,1.5,2.3c0.6,0.6,1.5,0.9,2.4,1.1c0.2,0,0.3,0.1,0.3,0.3v1c0,0.1,0,0.2-0.1,0.2c-0.1,0-0.1,0.1-0.2,0
			C461.2,1380.6,460,1380.1,459.1,1379.4z M464.7,1380.8c-0.1,0-0.1,0-0.2-0.1s-0.1-0.1-0.1-0.2v-1c0-0.2,0.1-0.3,0.3-0.3
			c1-0.2,1.8-0.5,2.4-1.1c0.7-0.6,1.1-1.3,1.5-2.3c0.3-0.9,0.5-2.2,0.5-3.9c0-0.1-0.1-0.2-0.2-0.2h-4.6c-0.1,0-0.2,0-0.2-0.1
			c-0.1-0.1-0.1-0.1-0.1-0.2v-0.9c0-0.1,0-0.2,0.1-0.2c0.1,0,0.1-0.1,0.2-0.1h6.2c0.1,0,0.2,0,0.2,0.1c0,0.1,0.1,0.1,0.1,0.2v1.2
			c0,1-0.1,1.8-0.2,2.6c-0.1,0.8-0.2,1.4-0.4,1.9c-0.4,1.3-1.1,2.4-2.1,3.1C467.2,1380.1,466.1,1380.6,464.7,1380.8L464.7,1380.8z
			 M468.8,1364.5c-0.1,0-0.2,0-0.2-0.2c-0.4-0.8-1-1.5-1.6-1.9s-1.4-0.8-2.3-0.9c-0.2,0-0.3-0.1-0.3-0.3v-1c0-0.1,0-0.2,0.1-0.2
			c0.1,0,0.1-0.1,0.2,0c1.3,0.2,2.3,0.6,3.2,1.2c0.9,0.7,1.6,1.5,2,2.4c0,0.1,0.1,0.2,0.1,0.2c0,0.1,0,0.1-0.1,0.2l-1,0.5
			C469,1364.5,468.9,1364.5,468.8,1364.5z"/>
	</g>
	<g class="st1">
		<path d="M504.6,1380.4c-0.1-0.1-0.1-0.1-0.1-0.2v-19.8c0-0.1,0-0.2,0.1-0.2c0.1,0,0.1-0.1,0.2-0.1h1.1c0.1,0,0.2,0,0.2,0.1
			c0,0.1,0.1,0.1,0.1,0.2v19.8c0,0.1,0,0.1-0.1,0.2c0,0.1-0.1,0.1-0.2,0.1h-1.1C504.8,1380.5,504.7,1380.5,504.6,1380.4z
			 M507.9,1361.6c-0.1-0.1-0.1-0.1-0.1-0.2v-1c0-0.1,0-0.2,0.1-0.2c0.1,0,0.1-0.1,0.2-0.1h8.4c0.1,0,0.2,0,0.2,0.1
			c0,0.1,0.1,0.1,0.1,0.2v1c0,0.1,0,0.2-0.1,0.2c0,0.1-0.1,0.1-0.2,0.1h-8.4C508.1,1361.7,508,1361.7,507.9,1361.6z M507.9,1370.9
			c-0.1-0.1-0.1-0.1-0.1-0.2v-1c0-0.1,0-0.2,0.1-0.2s0.1-0.1,0.2-0.1h7c0.1,0,0.2,0,0.2,0.1c0,0,0.1,0.1,0.1,0.2v1
			c0,0.1,0,0.1-0.1,0.2c-0.1,0.1-0.1,0.1-0.2,0.1h-7C508.1,1371,508,1371,507.9,1370.9z M507.9,1380.4c-0.1-0.1-0.1-0.1-0.1-0.2v-1
			c0-0.1,0-0.2,0.1-0.2s0.1-0.1,0.2-0.1h8.4c0.1,0,0.2,0,0.2,0.1s0.1,0.1,0.1,0.2v1c0,0.1,0,0.1-0.1,0.2c0,0.1-0.1,0.1-0.2,0.1h-8.4
			C508.1,1380.5,508,1380.5,507.9,1380.4z"/>
	</g>
	<g class="st1">
		<path d="M564.1,1380.5c-0.1,0-0.2-0.1-0.2-0.2l-11.9-19.4c-0.1-0.1-0.1-0.2-0.1-0.4c0-0.2,0.1-0.3,0.3-0.3h1c0.1,0,0.2,0,0.3,0.1
			c0.1,0,0.1,0.1,0.2,0.2l12,19.5c0,0.1,0.1,0.1,0.1,0.2c0,0.1,0,0.1,0,0.2c0,0.1-0.1,0.2-0.3,0.2h-1
			C564.2,1380.5,564.2,1380.5,564.1,1380.5z M551.9,1380.4c-0.1-0.1-0.1-0.1-0.1-0.2v-16.2c0-0.2,0-0.2,0.1-0.2c0.1,0,0.2,0,0.2,0.2
			l1.2,1.9c0.1,0.1,0.1,0.2,0.1,0.4v14c0,0.1,0,0.1-0.1,0.2c-0.1,0.1-0.1,0.1-0.2,0.1h-1C552,1380.5,551.9,1380.5,551.9,1380.4z
			 M564.1,1374.8c-0.1-0.1-0.1-0.2-0.1-0.4v-13.9c0-0.1,0-0.2,0.1-0.2c0.1,0,0.1-0.1,0.2-0.1h1c0.1,0,0.2,0,0.2,0.1
			c0,0.1,0.1,0.1,0.1,0.2v16.1c0,0.2,0,0.2-0.2,0.2c-0.1,0-0.1,0-0.2-0.2L564.1,1374.8z"/>
	</g>
	<g class="st1">
		<path d="M597,1361.6c-0.1-0.1-0.1-0.1-0.1-0.2v-1c0-0.1,0-0.2,0.1-0.2c0.1,0,0.1-0.1,0.2-0.1H611c0.1,0,0.2,0,0.2,0.1
			c0,0.1,0.1,0.1,0.1,0.2v1c0,0.1,0,0.2-0.1,0.2c-0.1,0.1-0.1,0.1-0.2,0.1h-13.8C597.1,1361.7,597,1361.7,597,1361.6z M603.3,1380.4
			c-0.1-0.1-0.1-0.1-0.1-0.2v-16.7c0-0.1,0-0.2,0.1-0.2c0.1,0,0.1-0.1,0.2-0.1h1.1c0.1,0,0.2,0,0.2,0.1s0.1,0.1,0.1,0.2v16.7
			c0,0.1,0,0.1-0.1,0.2c0,0.1-0.1,0.1-0.2,0.1h-1.1C603.4,1380.5,603.3,1380.5,603.3,1380.4z"/>
	</g>
	<g class="st1">
		<path d="M648,1379.4c-0.9-0.8-1.6-1.8-2-3.1c-0.2-0.6-0.3-1.3-0.4-2.1c-0.1-0.9-0.1-2.1-0.1-3.8c0-1.7,0-2.9,0.1-3.8
			s0.2-1.6,0.4-2.1c0.4-1.3,1.1-2.4,2-3.1s2.1-1.2,3.4-1.4h0.1c0.1,0,0.1,0,0.2,0.1c0,0.1,0.1,0.1,0.1,0.2v1c0,0.2-0.1,0.3-0.3,0.3
			c-1.9,0.3-3.2,1.5-3.9,3.4c-0.2,0.5-0.3,1.1-0.4,1.9s-0.1,2-0.1,3.5c0,1.5,0,2.7,0.1,3.5s0.2,1.5,0.4,1.9c0.6,1.9,1.9,3.1,3.9,3.4
			c0.2,0,0.3,0.1,0.3,0.3v1c0,0.1,0,0.2-0.1,0.2c-0.1,0-0.1,0.1-0.2,0C650.1,1380.6,649,1380.1,648,1379.4z M653.6,1380.8
			c-0.1,0-0.1,0-0.2-0.1s-0.1-0.1-0.1-0.2v-1c0-0.2,0.1-0.3,0.3-0.3c1.9-0.3,3.2-1.5,3.9-3.4c0.2-0.5,0.3-1.1,0.4-2
			c0.1-0.8,0.1-2,0.1-3.5s0-2.7-0.1-3.5c-0.1-0.8-0.2-1.5-0.4-2c-0.7-1.9-2-3.1-3.9-3.4c-0.2,0-0.3-0.1-0.3-0.3v-1
			c0-0.1,0-0.2,0.1-0.2c0.1,0,0.1-0.1,0.2,0c1.4,0.2,2.5,0.6,3.4,1.4c0.9,0.8,1.6,1.8,2.1,3.1c0.2,0.6,0.3,1.3,0.4,2.2
			c0.1,0.9,0.2,2.1,0.2,3.8c0,1.6-0.1,2.9-0.2,3.8c-0.1,0.9-0.2,1.6-0.4,2.2c-0.4,1.3-1.1,2.4-2.1,3.1
			C656.2,1380.1,655.1,1380.6,653.6,1380.8L653.6,1380.8z"/>
	</g>
	<g class="st1">
		<path d="M171.8,1414.1c-0.1-0.1-0.1-0.1-0.1-0.2v-1c0-0.1,0-0.2,0.1-0.2c0.1,0,0.1-0.1,0.2-0.1h13.8c0.1,0,0.2,0,0.2,0.1
			c0,0.1,0.1,0.1,0.1,0.2v1c0,0.1,0,0.2-0.1,0.2c0,0.1-0.1,0.1-0.2,0.1H172C171.9,1414.2,171.8,1414.1,171.8,1414.1z M178.1,1432.9
			c-0.1-0.1-0.1-0.1-0.1-0.2V1416c0-0.1,0-0.2,0.1-0.2s0.1-0.1,0.2-0.1h1.1c0.1,0,0.2,0,0.2,0.1c0,0,0.1,0.1,0.1,0.2v16.7
			c0,0.1,0,0.1-0.1,0.2c-0.1,0.1-0.1,0.1-0.2,0.1h-1.1C178.2,1433,178.1,1432.9,178.1,1432.9z"/>
	</g>
	<g class="st1">
		<path d="M224.2,1432.9c-0.1,0-0.1-0.1-0.1-0.2l-4.9-19.8l0-0.1c0-0.1,0-0.1,0.1-0.1s0.1-0.1,0.2-0.1h1.1c0.1,0,0.2,0,0.3,0.1
			c0.1,0,0.1,0.1,0.1,0.2l4.7,19.6c0,0.1,0,0.1,0,0.2c0,0.2-0.1,0.3-0.3,0.3h-1C224.3,1433,224.2,1432.9,224.2,1432.9z
			 M235.5,1432.9c-0.1,0-0.1-0.1-0.1-0.2l-4.8-16.8h-0.1l-3.9,13.6c0,0.1,0,0.1-0.1,0.2c0,0-0.1,0.1-0.1,0.1c-0.1,0-0.1-0.1-0.2-0.2
			l-0.5-2.1c0-0.1,0-0.2,0-0.4l3.9-14.1c0-0.1,0.1-0.2,0.1-0.2c0,0,0.1-0.1,0.2-0.1h0.9c0.1,0,0.2,0,0.2,0.1c0,0.1,0.1,0.1,0.1,0.2
			l5.5,19.6l0,0.2c0,0.2-0.1,0.3-0.3,0.3h-1C235.6,1433,235.5,1432.9,235.5,1432.9z M236.8,1427.4c0-0.2,0-0.3,0-0.4l3.3-14.1
			c0-0.1,0.1-0.2,0.1-0.2c0.1,0,0.1-0.1,0.3-0.1h1.1c0.1,0,0.2,0,0.2,0.1c0,0.1,0,0.1,0,0.2l-4,16.5c0,0.1,0,0.1-0.1,0.2
			c0,0-0.1,0.1-0.1,0.1c-0.1,0-0.1-0.1-0.2-0.2L236.8,1427.4z"/>
	</g>
	<g class="st1">
		<path d="M266.4,1432.9c0-0.1,0-0.1,0-0.2l6.2-17.1c0.1-0.1,0.1-0.2,0.2-0.2c0,0,0.1,0,0.1,0c0,0,0.1,0.1,0.1,0.1l0.6,1.6
			c0,0.1,0.1,0.1,0.1,0.2c0,0.1,0,0.2-0.1,0.2l-3,8.4h5.9c0.2,0,0.3,0.1,0.4,0.2l0.4,1l0,0.1c0,0.1,0,0.1-0.1,0.2
			c-0.1,0-0.1,0.1-0.2,0.1H270l-1.8,5.1c0,0.1-0.1,0.2-0.2,0.2c-0.1,0-0.1,0.1-0.2,0.1h-1.2C266.5,1433,266.5,1432.9,266.4,1432.9z
			 M280.7,1432.7l-7-19.8l0-0.1c0-0.1,0-0.1,0.1-0.2s0.1-0.1,0.2-0.1h1.1c0.2,0,0.3,0.1,0.4,0.3l7.1,19.8l0,0.1c0,0.1,0,0.1-0.1,0.2
			s-0.1,0.1-0.2,0.1h-1.2C280.9,1433,280.8,1432.9,280.7,1432.7z"/>
	</g>
	<g class="st1">
		<path d="M313.7,1432.9c0-0.1,0-0.1,0-0.2l6.2-17.1c0.1-0.1,0.1-0.2,0.2-0.2c0,0,0.1,0,0.1,0s0.1,0.1,0.1,0.1l0.6,1.6
			c0,0.1,0.1,0.1,0.1,0.2c0,0.1,0,0.2-0.1,0.2l-3,8.4h5.9c0.2,0,0.3,0.1,0.4,0.2l0.4,1l0,0.1c0,0.1,0,0.1-0.1,0.2s-0.1,0.1-0.2,0.1
			h-6.9l-1.8,5.1c0,0.1-0.1,0.2-0.2,0.2c-0.1,0-0.1,0.1-0.2,0.1h-1.2C313.8,1433,313.7,1432.9,313.7,1432.9z M327.9,1432.7l-7-19.8
			l0-0.1c0-0.1,0-0.1,0.1-0.2c0,0,0.1-0.1,0.2-0.1h1.1c0.2,0,0.3,0.1,0.4,0.3l7.1,19.8l0,0.1c0,0.1,0,0.1-0.1,0.2s-0.1,0.1-0.2,0.1
			h-1.2C328.1,1433,328,1432.9,327.9,1432.7z"/>
	</g>
	<g class="st1">
		<path d="M362.9,1432.9c-0.1-0.1-0.1-0.1-0.1-0.2v-19.8c0-0.1,0-0.2,0.1-0.2c0.1,0,0.1-0.1,0.2-0.1h1.1c0.1,0,0.2,0,0.2,0.1
			c0,0.1,0.1,0.1,0.1,0.2v19.8c0,0.1,0,0.1-0.1,0.2c0,0.1-0.1,0.1-0.2,0.1h-1.1C363,1433,363,1432.9,362.9,1432.9z M366.2,1432.9
			c-0.1-0.1-0.1-0.1-0.1-0.2v-1c0-0.1,0-0.2,0.1-0.2s0.1-0.1,0.2-0.1h8.4c0.1,0,0.2,0,0.2,0.1s0.1,0.1,0.1,0.2v1
			c0,0.1,0,0.1-0.1,0.2c0,0.1-0.1,0.1-0.2,0.1h-8.4C366.3,1433,366.3,1432.9,366.2,1432.9z"/>
	</g>
	<g class="st1">
		<path d="M410.1,1432.9c-0.1-0.1-0.1-0.1-0.1-0.2v-19.8c0-0.1,0-0.2,0.1-0.2c0.1,0,0.1-0.1,0.2-0.1h1.1c0.1,0,0.2,0,0.2,0.1
			c0,0.1,0.1,0.1,0.1,0.2v19.8c0,0.1,0,0.1-0.1,0.2c0,0.1-0.1,0.1-0.2,0.1h-1.1C410.3,1433,410.2,1432.9,410.1,1432.9z
			 M413.4,1414.1c-0.1-0.1-0.1-0.1-0.1-0.2v-1c0-0.1,0-0.2,0.1-0.2c0.1,0,0.1-0.1,0.2-0.1h8.4c0.1,0,0.2,0,0.2,0.1
			c0,0.1,0.1,0.1,0.1,0.2v1c0,0.1,0,0.2-0.1,0.2c0,0.1-0.1,0.1-0.2,0.1h-8.4C413.6,1414.2,413.5,1414.1,413.4,1414.1z M413.4,1423.5
			c-0.1-0.1-0.1-0.1-0.1-0.2v-1c0-0.1,0-0.2,0.1-0.2s0.1-0.1,0.2-0.1h7c0.1,0,0.2,0,0.2,0.1c0,0,0.1,0.1,0.1,0.2v1
			c0,0.1,0,0.1-0.1,0.2c-0.1,0.1-0.1,0.1-0.2,0.1h-7C413.6,1423.6,413.5,1423.6,413.4,1423.5z"/>
	</g>
	<g class="st1">
		<path d="M455.4,1432.9c0-0.1,0-0.1,0-0.2l6.2-17.1c0.1-0.1,0.1-0.2,0.2-0.2c0,0,0.1,0,0.1,0s0.1,0.1,0.1,0.1l0.6,1.6
			c0,0.1,0.1,0.1,0.1,0.2c0,0.1,0,0.2-0.1,0.2l-3,8.4h5.9c0.2,0,0.3,0.1,0.4,0.2l0.4,1l0,0.1c0,0.1,0,0.1-0.1,0.2s-0.1,0.1-0.2,0.1
			H459l-1.8,5.1c0,0.1-0.1,0.2-0.2,0.2c-0.1,0-0.1,0.1-0.2,0.1h-1.2C455.5,1433,455.4,1432.9,455.4,1432.9z M469.7,1432.7l-7-19.8
			l0-0.1c0-0.1,0-0.1,0.1-0.2c0,0,0.1-0.1,0.2-0.1h1.1c0.2,0,0.3,0.1,0.4,0.3l7.1,19.8l0,0.1c0,0.1,0,0.1-0.1,0.2s-0.1,0.1-0.2,0.1
			H470C469.9,1433,469.7,1432.9,469.7,1432.7z"/>
	</g>
	<g class="st1">
		<path d="M502.5,1414.1c-0.1-0.1-0.1-0.1-0.1-0.2v-1c0-0.1,0-0.2,0.1-0.2c0.1,0,0.1-0.1,0.2-0.1h13.8c0.1,0,0.2,0,0.2,0.1
			c0,0.1,0.1,0.1,0.1,0.2v1c0,0.1,0,0.2-0.1,0.2c-0.1,0.1-0.1,0.1-0.2,0.1h-13.8C502.6,1414.2,502.5,1414.1,502.5,1414.1z
			 M508.8,1432.9c-0.1-0.1-0.1-0.1-0.1-0.2V1416c0-0.1,0-0.2,0.1-0.2c0.1,0,0.1-0.1,0.2-0.1h1.1c0.1,0,0.2,0,0.2,0.1
			s0.1,0.1,0.1,0.2v16.7c0,0.1,0,0.1-0.1,0.2c0,0.1-0.1,0.1-0.2,0.1H509C508.9,1433,508.9,1432.9,508.8,1432.9z"/>
	</g>
	<g class="st1">
		<path d="M551.9,1432.9c-0.1-0.1-0.1-0.1-0.1-0.2v-19.8c0-0.1,0-0.2,0.1-0.2c0.1,0,0.1-0.1,0.2-0.1h1.1c0.1,0,0.2,0,0.2,0.1
			c0,0.1,0.1,0.1,0.1,0.2v19.8c0,0.1,0,0.1-0.1,0.2c0,0.1-0.1,0.1-0.2,0.1h-1.1C552,1433,551.9,1432.9,551.9,1432.9z"/>
	</g>
	<g class="st1">
		<path d="M599.1,1432.9c-0.1-0.1-0.1-0.1-0.1-0.2v-19.8c0-0.1,0-0.2,0.1-0.2c0.1,0,0.1-0.1,0.2-0.1h1.1c0.1,0,0.2,0,0.2,0.1
			c0,0.1,0.1,0.1,0.1,0.2v19.8c0,0.1,0,0.1-0.1,0.2c0,0.1-0.1,0.1-0.2,0.1h-1.1C599.2,1433,599.2,1432.9,599.1,1432.9z
			 M602.4,1414.1c-0.1-0.1-0.1-0.1-0.1-0.2v-1c0-0.1,0-0.2,0.1-0.2c0.1,0,0.1-0.1,0.2-0.1h8.4c0.1,0,0.2,0,0.2,0.1
			c0,0.1,0.1,0.1,0.1,0.2v1c0,0.1,0,0.2-0.1,0.2c0,0.1-0.1,0.1-0.2,0.1h-8.4C602.5,1414.2,602.5,1414.1,602.4,1414.1z M602.4,1423.3
			c-0.1-0.1-0.1-0.1-0.1-0.2v-1c0-0.1,0-0.2,0.1-0.2s0.1-0.1,0.2-0.1h7c0.1,0,0.2,0,0.2,0.1c0,0,0.1,0.1,0.1,0.2v1
			c0,0.1,0,0.1-0.1,0.2c-0.1,0.1-0.1,0.1-0.2,0.1h-7C602.5,1423.4,602.5,1423.4,602.4,1423.3z M602.4,1432.9
			c-0.1-0.1-0.1-0.1-0.1-0.2v-1c0-0.1,0-0.2,0.1-0.2s0.1-0.1,0.2-0.1h8.4c0.1,0,0.2,0,0.2,0.1s0.1,0.1,0.1,0.2v1
			c0,0.1,0,0.1-0.1,0.2c0,0.1-0.1,0.1-0.2,0.1h-8.4C602.5,1433,602.5,1432.9,602.4,1432.9z"/>
	</g>
	<g class="st1">
		<path d="M658.6,1432.9c-0.1,0-0.2-0.1-0.2-0.2l-11.9-19.4c-0.1-0.1-0.1-0.2-0.1-0.4c0-0.2,0.1-0.3,0.3-0.3h1c0.1,0,0.2,0,0.3,0.1
			c0.1,0,0.1,0.1,0.2,0.2l12,19.5c0,0.1,0.1,0.1,0.1,0.2c0,0.1,0,0.1,0,0.2c0,0.1-0.1,0.2-0.3,0.2h-1
			C658.7,1433,658.6,1432.9,658.6,1432.9z M646.4,1432.9c-0.1-0.1-0.1-0.1-0.1-0.2v-16.2c0-0.2,0-0.2,0.1-0.2c0.1,0,0.2,0,0.2,0.2
			l1.2,1.9c0.1,0.1,0.1,0.2,0.1,0.4v14c0,0.1,0,0.1-0.1,0.2c-0.1,0.1-0.1,0.1-0.2,0.1h-1C646.5,1433,646.4,1432.9,646.4,1432.9z
			 M658.6,1427.2c-0.1-0.1-0.1-0.2-0.1-0.4v-13.9c0-0.1,0-0.2,0.1-0.2c0.1,0,0.1-0.1,0.2-0.1h1c0.1,0,0.2,0,0.2,0.1
			c0,0.1,0.1,0.1,0.1,0.2v16.1c0,0.2,0,0.2-0.2,0.2c-0.1,0-0.1,0-0.2-0.2L658.6,1427.2z"/>
	</g>
	<g class="st1">
		<path d="M178.6,1485.1l-6.8-19.7l-0.1-0.2c0-0.1,0-0.1,0.1-0.2c0,0,0.1-0.1,0.2-0.1h1c0.1,0,0.2,0,0.3,0.1c0.1,0,0.1,0.1,0.1,0.2
			l6.7,19.6c0,0.1,0.1,0.2,0.1,0.3c0,0.2-0.1,0.3-0.3,0.3h-1C178.7,1485.4,178.6,1485.3,178.6,1485.1z M180.3,1480.8
			c0,0,0-0.1,0-0.2c0-0.1,0-0.2,0.1-0.3l5-15c0-0.1,0.1-0.2,0.1-0.2s0.1-0.1,0.3-0.1h1.1c0.1,0,0.2,0,0.2,0.1c0,0.1,0,0.2,0,0.3
			l-5.8,17c0,0.1,0,0.1-0.1,0.2s-0.1,0.1-0.1,0.1c-0.1,0-0.1-0.1-0.2-0.2L180.3,1480.8z"/>
	</g>
	<g class="st1">
		<path d="M221.2,1485.3c-0.1-0.1-0.1-0.1-0.1-0.2v-19.8c0-0.1,0-0.2,0.1-0.2c0.1,0,0.1-0.1,0.2-0.1h1.1c0.1,0,0.2,0,0.2,0.1
			c0,0.1,0.1,0.1,0.1,0.2v19.8c0,0.1,0,0.1-0.1,0.2c-0.1,0.1-0.1,0.1-0.2,0.1h-1.1C221.3,1485.4,221.2,1485.4,221.2,1485.3z"/>
	</g>
	<g class="st1">
		<path d="M268.4,1485.3c-0.1-0.1-0.1-0.1-0.1-0.2v-19.8c0-0.1,0-0.2,0.1-0.2c0.1,0,0.1-0.1,0.2-0.1h1.1c0.1,0,0.2,0,0.2,0.1
			c0,0.1,0.1,0.1,0.1,0.2v19.8c0,0.1,0,0.1-0.1,0.2c-0.1,0.1-0.1,0.1-0.2,0.1h-1.1C268.5,1485.4,268.5,1485.4,268.4,1485.3z
			 M271.7,1466.5c-0.1-0.1-0.1-0.1-0.1-0.2v-1c0-0.1,0-0.2,0.1-0.2c0.1,0,0.1-0.1,0.2-0.1h8.4c0.1,0,0.2,0,0.2,0.1
			c0,0.1,0.1,0.1,0.1,0.2v1c0,0.1,0,0.2-0.1,0.2c-0.1,0.1-0.1,0.1-0.2,0.1h-8.4C271.8,1466.6,271.8,1466.6,271.7,1466.5z
			 M271.7,1475.8c-0.1-0.1-0.1-0.1-0.1-0.2v-1c0-0.1,0-0.2,0.1-0.2s0.1-0.1,0.2-0.1h7c0.1,0,0.2,0,0.2,0.1c0,0,0.1,0.1,0.1,0.2v1
			c0,0.1,0,0.1-0.1,0.2c-0.1,0.1-0.1,0.1-0.2,0.1h-7C271.8,1475.9,271.8,1475.8,271.7,1475.8z M271.7,1485.3
			c-0.1-0.1-0.1-0.1-0.1-0.2v-1c0-0.1,0-0.2,0.1-0.2s0.1-0.1,0.2-0.1h8.4c0.1,0,0.2,0,0.2,0.1c0,0,0.1,0.1,0.1,0.2v1
			c0,0.1,0,0.1-0.1,0.2c-0.1,0.1-0.1,0.1-0.2,0.1h-8.4C271.8,1485.4,271.8,1485.4,271.7,1485.3z"/>
	</g>
	<g class="st1">
		<path d="M315.6,1485.3c-0.1-0.1-0.1-0.1-0.1-0.2v-19.8c0-0.1,0-0.2,0.1-0.2c0.1,0,0.1-0.1,0.2-0.1h1.1c0.1,0,0.2,0,0.2,0.1
			c0,0.1,0.1,0.1,0.1,0.2v19.8c0,0.1,0,0.1-0.1,0.2c0,0.1-0.1,0.1-0.2,0.1h-1.1C315.8,1485.4,315.7,1485.4,315.6,1485.3z
			 M318.9,1476.2c-0.1-0.1-0.1-0.1-0.1-0.2v-1c0-0.1,0-0.2,0.1-0.2s0.1-0.1,0.2-0.1h3.5c1.5,0,2.6-0.3,3.4-1c0.8-0.7,1.2-1.7,1.2-3
			s-0.4-2.3-1.2-3s-1.9-1-3.4-1h-3.5c-0.1,0-0.2,0-0.2-0.1c-0.1-0.1-0.1-0.1-0.1-0.2v-1c0-0.1,0-0.2,0.1-0.2c0.1,0,0.1-0.1,0.2-0.1
			h3.5c1.3,0,2.4,0.2,3.3,0.7c0.9,0.4,1.6,1.1,2.1,1.9c0.5,0.9,0.8,1.9,0.8,3c0,1.1-0.2,2.1-0.7,2.9c-0.5,0.9-1.2,1.5-2.1,2
			c-1,0.5-2.1,0.7-3.5,0.7h-3.4C319.1,1476.3,319,1476.2,318.9,1476.2z M327.4,1485.3c0,0-0.1-0.1-0.1-0.2l-3.4-7.1
			c-0.1-0.1-0.1-0.2,0-0.3c0,0,0.1-0.1,0.2-0.1c0.1,0,0.1,0,0.2,0c0.4,0,0.7-0.1,0.9-0.2c0,0,0.1,0,0.1,0c0.1,0,0.2,0.1,0.2,0.2
			l3.7,7.4c0,0,0,0.1,0,0.2c0,0.1-0.1,0.2-0.2,0.2h-1.3C327.5,1485.4,327.5,1485.4,327.4,1485.3z"/>
	</g>
	<g class="st1">
		<path d="M367.5,1485.1l-6.8-19.7l-0.1-0.2c0-0.1,0-0.1,0.1-0.2c0,0,0.1-0.1,0.2-0.1h1.1c0.1,0,0.2,0,0.3,0.1
			c0.1,0,0.1,0.1,0.1,0.2l6.7,19.6c0,0.1,0.1,0.2,0.1,0.3c0,0.2-0.1,0.3-0.3,0.3h-1C367.7,1485.4,367.6,1485.3,367.5,1485.1z
			 M369.3,1480.8c0,0,0-0.1,0-0.2c0-0.1,0-0.2,0.1-0.3l5-15c0-0.1,0.1-0.2,0.2-0.2c0.1,0,0.1-0.1,0.3-0.1h1.1c0.1,0,0.2,0,0.2,0.1
			c0,0.1,0,0.2,0,0.3l-5.8,17c0,0.1,0,0.1-0.1,0.2s-0.1,0.1-0.1,0.1c-0.1,0-0.1-0.1-0.2-0.2L369.3,1480.8z"/>
	</g>
	<g class="st1">
		<path d="M410.1,1485.3c-0.1-0.1-0.1-0.1-0.1-0.2v-19.8c0-0.1,0-0.2,0.1-0.2c0.1,0,0.1-0.1,0.2-0.1h1.1c0.1,0,0.2,0,0.2,0.1
			c0,0.1,0.1,0.1,0.1,0.2v19.8c0,0.1,0,0.1-0.1,0.2c0,0.1-0.1,0.1-0.2,0.1h-1.1C410.3,1485.4,410.2,1485.4,410.1,1485.3z"/>
	</g>
	<g class="st1">
		<path d="M457.3,1485.1c-0.6-0.3-1.2-0.6-1.6-1.1c-0.1-0.1-0.1-0.1-0.1-0.2c0-0.1,0-0.1,0.1-0.2c0.1,0,0.1-0.1,0.1-0.1l0.7-0.6
			c0.1-0.1,0.1-0.1,0.2-0.1c0.1,0,0.2,0,0.2,0.1c0.3,0.3,0.7,0.5,1.1,0.7s0.9,0.3,1.4,0.4c0.2,0,0.3,0.1,0.3,0.3v1
			c0,0.1,0,0.2-0.1,0.2c-0.1,0.1-0.1,0.1-0.2,0.1C458.6,1485.6,457.9,1485.4,457.3,1485.1z M461.5,1485.6c-0.1,0-0.1,0-0.2-0.1
			c-0.1-0.1-0.1-0.1-0.1-0.2v-1c0-0.2,0.1-0.3,0.3-0.3c0.9-0.2,1.6-0.7,2.1-1.5c0.5-0.8,0.7-1.8,0.7-3.2v-14c0-0.1,0-0.2,0.1-0.2
			c0.1,0,0.1-0.1,0.2-0.1h1.1c0.1,0,0.2,0,0.2,0.1c0,0.1,0.1,0.1,0.1,0.2v14c0,1.8-0.4,3.3-1.2,4.3S463,1485.3,461.5,1485.6
			L461.5,1485.6z"/>
	</g>
	<g class="st1">
		<path d="M504.6,1485.3c-0.1-0.1-0.1-0.1-0.1-0.2v-19.8c0-0.1,0-0.2,0.1-0.2c0.1,0,0.1-0.1,0.2-0.1h1.1c0.1,0,0.2,0,0.2,0.1
			c0,0.1,0.1,0.1,0.1,0.2v19.8c0,0.1,0,0.1-0.1,0.2c0,0.1-0.1,0.1-0.2,0.1h-1.1C504.8,1485.4,504.7,1485.4,504.6,1485.3z
			 M507.9,1466.5c-0.1-0.1-0.1-0.1-0.1-0.2v-1c0-0.1,0-0.2,0.1-0.2c0.1,0,0.1-0.1,0.2-0.1h8.4c0.1,0,0.2,0,0.2,0.1
			c0,0.1,0.1,0.1,0.1,0.2v1c0,0.1,0,0.2-0.1,0.2c0,0.1-0.1,0.1-0.2,0.1h-8.4C508.1,1466.6,508,1466.6,507.9,1466.5z M507.9,1476
			c-0.1-0.1-0.1-0.1-0.1-0.2v-1c0-0.1,0-0.2,0.1-0.2s0.1-0.1,0.2-0.1h7c0.1,0,0.2,0,0.2,0.1c0,0,0.1,0.1,0.1,0.2v1
			c0,0.1,0,0.1-0.1,0.2c-0.1,0.1-0.1,0.1-0.2,0.1h-7C508.1,1476.1,508,1476,507.9,1476z"/>
	</g>
	<g class="st1">
		<path d="M551.9,1485.3c-0.1-0.1-0.1-0.1-0.1-0.2v-19.8c0-0.1,0-0.2,0.1-0.2c0.1,0,0.1-0.1,0.2-0.1h1.1c0.1,0,0.2,0,0.2,0.1
			c0,0.1,0.1,0.1,0.1,0.2v19.8c0,0.1,0,0.1-0.1,0.2c0,0.1-0.1,0.1-0.2,0.1h-1.1C552,1485.4,551.9,1485.4,551.9,1485.3z
			 M555.2,1466.5c-0.1-0.1-0.1-0.1-0.1-0.2v-1c0-0.1,0-0.2,0.1-0.2c0.1,0,0.1-0.1,0.2-0.1h8.4c0.1,0,0.2,0,0.2,0.1
			c0,0.1,0.1,0.1,0.1,0.2v1c0,0.1,0,0.2-0.1,0.2c0,0.1-0.1,0.1-0.2,0.1h-8.4C555.3,1466.6,555.2,1466.6,555.2,1466.5z M555.2,1475.8
			c-0.1-0.1-0.1-0.1-0.1-0.2v-1c0-0.1,0-0.2,0.1-0.2s0.1-0.1,0.2-0.1h7c0.1,0,0.2,0,0.2,0.1c0,0,0.1,0.1,0.1,0.2v1
			c0,0.1,0,0.1-0.1,0.2c-0.1,0.1-0.1,0.1-0.2,0.1h-7C555.3,1475.9,555.2,1475.8,555.2,1475.8z M555.2,1485.3
			c-0.1-0.1-0.1-0.1-0.1-0.2v-1c0-0.1,0-0.2,0.1-0.2s0.1-0.1,0.2-0.1h8.4c0.1,0,0.2,0,0.2,0.1s0.1,0.1,0.1,0.2v1
			c0,0.1,0,0.1-0.1,0.2c0,0.1-0.1,0.1-0.2,0.1h-8.4C555.3,1485.4,555.2,1485.4,555.2,1485.3z"/>
	</g>
	<g class="st1">
		<path d="M599.1,1485.3c-0.1-0.1-0.1-0.1-0.1-0.2v-19.8c0-0.1,0-0.2,0.1-0.2c0.1,0,0.1-0.1,0.2-0.1h1.1c0.1,0,0.2,0,0.2,0.1
			c0,0.1,0.1,0.1,0.1,0.2v19.8c0,0.1,0,0.1-0.1,0.2c0,0.1-0.1,0.1-0.2,0.1h-1.1C599.2,1485.4,599.2,1485.4,599.1,1485.3z
			 M602.4,1485.3c-0.1-0.1-0.1-0.1-0.1-0.2v-1c0-0.1,0-0.2,0.1-0.2s0.1-0.1,0.2-0.1h8.4c0.1,0,0.2,0,0.2,0.1s0.1,0.1,0.1,0.2v1
			c0,0.1,0,0.1-0.1,0.2c0,0.1-0.1,0.1-0.2,0.1h-8.4C602.5,1485.4,602.5,1485.4,602.4,1485.3z"/>
	</g>
	<g class="st1">
		<path d="M646.4,1485.3c-0.1-0.1-0.1-0.1-0.1-0.2v-19.8c0-0.1,0-0.2,0.1-0.2c0.1,0,0.1-0.1,0.2-0.1h1.1c0.1,0,0.2,0,0.2,0.1
			c0,0.1,0.1,0.1,0.1,0.2v19.8c0,0.1,0,0.1-0.1,0.2c0,0.1-0.1,0.1-0.2,0.1h-1.1C646.5,1485.4,646.4,1485.4,646.4,1485.3z
			 M649.7,1466.5c-0.1-0.1-0.1-0.1-0.1-0.2v-1c0-0.1,0-0.2,0.1-0.2c0.1,0,0.1-0.1,0.2-0.1h8.4c0.1,0,0.2,0,0.2,0.1
			c0,0.1,0.1,0.1,0.1,0.2v1c0,0.1,0,0.2-0.1,0.2c0,0.1-0.1,0.1-0.2,0.1h-8.4C649.8,1466.6,649.7,1466.6,649.7,1466.5z M649.7,1476
			c-0.1-0.1-0.1-0.1-0.1-0.2v-1c0-0.1,0-0.2,0.1-0.2s0.1-0.1,0.2-0.1h7c0.1,0,0.2,0,0.2,0.1c0,0,0.1,0.1,0.1,0.2v1
			c0,0.1,0,0.1-0.1,0.2c-0.1,0.1-0.1,0.1-0.2,0.1h-7C649.8,1476.1,649.7,1476,649.7,1476z"/>
	</g>
	<g class="st1">
		<path d="M175.1,1536c-1-1.2-1.5-3-1.5-5.2v-13c0-0.1,0-0.2,0.1-0.2c0.1,0,0.1-0.1,0.2-0.1h1.1c0.1,0,0.2,0,0.2,0.1
			c0,0.1,0.1,0.1,0.1,0.2v13c0,1.7,0.4,3,1.1,3.9c0.7,1,1.7,1.5,3.1,1.8c0.2,0,0.3,0.1,0.3,0.3v1c0,0.1,0,0.2-0.1,0.2
			c-0.1,0-0.1,0.1-0.2,0C177.6,1537.9,176.1,1537.2,175.1,1536z M181.6,1538.1c-0.1,0-0.1,0-0.2-0.1c-0.1,0-0.1-0.1-0.1-0.2v-1
			c0-0.2,0.1-0.3,0.3-0.3c1.3-0.2,2.4-0.8,3.1-1.7c0.7-1,1.1-2.3,1.1-4v-13c0-0.1,0-0.2,0.1-0.2c0.1,0,0.1-0.1,0.2-0.1h1.1
			c0.1,0,0.2,0,0.2,0.1c0,0.1,0.1,0.1,0.1,0.2v13c0,2.2-0.5,3.9-1.5,5.1C184.9,1537.2,183.5,1537.9,181.6,1538.1L181.6,1538.1z"/>
	</g>
	<g class="st1">
		<path d="M222.4,1536c-1-1.2-1.5-3-1.5-5.2v-13c0-0.1,0-0.2,0.1-0.2c0.1,0,0.1-0.1,0.2-0.1h1.1c0.1,0,0.2,0,0.2,0.1
			c0,0.1,0.1,0.1,0.1,0.2v13c0,1.7,0.4,3,1.1,3.9c0.7,1,1.7,1.5,3.1,1.8c0.2,0,0.3,0.1,0.3,0.3v1c0,0.1,0,0.2-0.1,0.2
			c-0.1,0-0.1,0.1-0.2,0C224.8,1537.9,223.4,1537.2,222.4,1536z M228.8,1538.1c-0.1,0-0.1,0-0.2-0.1c-0.1,0-0.1-0.1-0.1-0.2v-1
			c0-0.2,0.1-0.3,0.3-0.3c1.3-0.2,2.4-0.8,3.1-1.7c0.7-1,1.1-2.3,1.1-4v-13c0-0.1,0-0.2,0.1-0.2c0.1,0,0.1-0.1,0.2-0.1h1.1
			c0.1,0,0.2,0,0.2,0.1c0,0.1,0.1,0.1,0.1,0.2v13c0,2.2-0.5,3.9-1.5,5.1C232.2,1537.2,230.8,1537.9,228.8,1538.1L228.8,1538.1z"/>
	</g>
	<g class="st1">
		<path d="M268.4,1537.8c-0.1-0.1-0.1-0.1-0.1-0.2v-19.8c0-0.1,0-0.2,0.1-0.2c0.1,0,0.1-0.1,0.2-0.1h1.1c0.1,0,0.2,0,0.2,0.1
			c0,0.1,0.1,0.1,0.1,0.2v19.8c0,0.1,0,0.1-0.1,0.2c-0.1,0.1-0.1,0.1-0.2,0.1h-1.1C268.5,1537.8,268.5,1537.8,268.4,1537.8z
			 M271.7,1528.6c-0.1-0.1-0.1-0.1-0.1-0.2v-1c0-0.1,0-0.2,0.1-0.2s0.1-0.1,0.2-0.1h3.5c1.5,0,2.6-0.3,3.4-1c0.8-0.7,1.2-1.7,1.2-3
			s-0.4-2.3-1.2-3c-0.8-0.7-1.9-1-3.4-1h-3.5c-0.1,0-0.1,0-0.2-0.1c-0.1-0.1-0.1-0.1-0.1-0.2v-1c0-0.1,0-0.2,0.1-0.2
			c0.1,0,0.1-0.1,0.2-0.1h3.5c1.3,0,2.4,0.2,3.3,0.7c0.9,0.4,1.6,1.1,2.1,1.9c0.5,0.9,0.8,1.9,0.8,3c0,1.1-0.2,2.1-0.7,2.9
			c-0.5,0.9-1.2,1.5-2.1,2c-1,0.5-2.1,0.7-3.5,0.7h-3.4C271.8,1528.7,271.8,1528.7,271.7,1528.6z M280.2,1537.8
			c-0.1,0-0.1-0.1-0.1-0.2l-3.4-7.1c-0.1-0.1-0.1-0.2,0-0.3c0,0,0.1-0.1,0.2-0.1c0.1,0,0.1,0,0.1,0c0.4,0,0.7-0.1,0.9-0.2
			c0,0,0.1,0,0.1,0c0.1,0,0.2,0.1,0.2,0.2l3.7,7.4c0,0,0,0.1,0,0.2c0,0.1-0.1,0.2-0.2,0.2h-1.3
			C280.3,1537.8,280.2,1537.8,280.2,1537.8z"/>
	</g>
	<g class="st1">
		<path d="M313.7,1537.8c0-0.1,0-0.1,0-0.2l6.2-17.1c0.1-0.1,0.1-0.2,0.2-0.2c0,0,0.1,0,0.1,0s0.1,0.1,0.1,0.1l0.6,1.6
			c0,0.1,0.1,0.1,0.1,0.2c0,0.1,0,0.2-0.1,0.2l-3,8.4h5.9c0.2,0,0.3,0.1,0.4,0.2l0.4,1l0,0.1c0,0.1,0,0.1-0.1,0.2s-0.1,0.1-0.2,0.1
			h-6.9l-1.8,5.1c0,0.1-0.1,0.2-0.2,0.2c-0.1,0-0.1,0.1-0.2,0.1h-1.2C313.8,1537.8,313.7,1537.8,313.7,1537.8z M327.9,1537.6
			l-7-19.8l0-0.1c0-0.1,0-0.1,0.1-0.2c0,0,0.1-0.1,0.2-0.1h1.1c0.2,0,0.3,0.1,0.4,0.3l7.1,19.8l0,0.1c0,0.1,0,0.1-0.1,0.2
			s-0.1,0.1-0.2,0.1h-1.2C328.1,1537.8,328,1537.8,327.9,1537.6z"/>
	</g>
	<g class="st1">
		<path d="M364.6,1536.7c-0.9-0.8-1.6-1.8-2.1-3.1c-0.2-0.6-0.3-1.3-0.4-2.1s-0.1-2.1-0.1-3.8c0-1.7,0-2.9,0.1-3.8s0.2-1.6,0.4-2.1
			c0.4-1.3,1.1-2.4,2.1-3.1s2.1-1.2,3.5-1.4h0.1c0.1,0,0.1,0,0.2,0.1c0,0.1,0.1,0.1,0.1,0.2v1c0,0.2-0.1,0.3-0.3,0.3
			c-1,0.1-1.8,0.5-2.4,1.1c-0.7,0.6-1.1,1.3-1.5,2.3c-0.2,0.4-0.3,1.1-0.4,1.9s-0.1,2-0.1,3.6c0,1.6,0,2.8,0.1,3.6s0.2,1.5,0.4,1.9
			c0.3,1,0.8,1.7,1.5,2.3c0.6,0.6,1.5,0.9,2.4,1.1c0.2,0,0.3,0.1,0.3,0.3v1c0,0.1,0,0.2-0.1,0.2c-0.1,0-0.1,0.1-0.2,0
			C366.7,1537.9,365.5,1537.5,364.6,1536.7z M370.2,1538.1c-0.1,0-0.1,0-0.2-0.1s-0.1-0.1-0.1-0.2v-1c0-0.2,0.1-0.3,0.3-0.3
			c1-0.2,1.8-0.5,2.4-1.1c0.7-0.6,1.1-1.3,1.5-2.3c0.3-0.9,0.5-2.2,0.5-3.9c0-0.1-0.1-0.2-0.2-0.2h-4.6c-0.1,0-0.2,0-0.2-0.1
			c-0.1-0.1-0.1-0.1-0.1-0.2v-0.9c0-0.1,0-0.2,0.1-0.2c0.1,0,0.1-0.1,0.2-0.1h6.2c0.1,0,0.2,0,0.2,0.1c0,0.1,0.1,0.1,0.1,0.2v1.2
			c0,1-0.1,1.8-0.2,2.6c-0.1,0.8-0.2,1.4-0.4,1.9c-0.4,1.3-1.1,2.4-2.1,3.1C372.8,1537.5,371.6,1537.9,370.2,1538.1L370.2,1538.1z
			 M374.4,1521.8c-0.1,0-0.2,0-0.2-0.2c-0.4-0.8-1-1.5-1.6-1.9s-1.4-0.8-2.3-0.9c-0.2,0-0.3-0.1-0.3-0.3v-1c0-0.1,0-0.2,0.1-0.2
			c0.1,0,0.1-0.1,0.2,0c1.3,0.2,2.3,0.6,3.2,1.2c0.9,0.7,1.6,1.5,2,2.4c0,0.1,0.1,0.2,0.1,0.2c0,0.1,0,0.1-0.1,0.2l-1,0.5
			C374.5,1521.8,374.4,1521.8,374.4,1521.8z"/>
	</g>
	<g class="st1">
		<path d="M410.1,1537.8c-0.1-0.1-0.1-0.1-0.1-0.2v-19.8c0-0.1,0-0.2,0.1-0.2c0.1,0,0.1-0.1,0.2-0.1h1.1c0.1,0,0.2,0,0.2,0.1
			c0,0.1,0.1,0.1,0.1,0.2v19.8c0,0.1,0,0.1-0.1,0.2c0,0.1-0.1,0.1-0.2,0.1h-1.1C410.3,1537.8,410.2,1537.8,410.1,1537.8z
			 M413.4,1518.9c-0.1-0.1-0.1-0.1-0.1-0.2v-1c0-0.1,0-0.2,0.1-0.2c0.1,0,0.1-0.1,0.2-0.1h8.4c0.1,0,0.2,0,0.2,0.1
			c0,0.1,0.1,0.1,0.1,0.2v1c0,0.1,0,0.2-0.1,0.2c0,0.1-0.1,0.1-0.2,0.1h-8.4C413.6,1519,413.5,1519,413.4,1518.9z M413.4,1528.2
			c-0.1-0.1-0.1-0.1-0.1-0.2v-1c0-0.1,0-0.2,0.1-0.2s0.1-0.1,0.2-0.1h7c0.1,0,0.2,0,0.2,0.1c0,0,0.1,0.1,0.1,0.2v1
			c0,0.1,0,0.1-0.1,0.2c-0.1,0.1-0.1,0.1-0.2,0.1h-7C413.6,1528.3,413.5,1528.3,413.4,1528.2z M413.4,1537.8
			c-0.1-0.1-0.1-0.1-0.1-0.2v-1c0-0.1,0-0.2,0.1-0.2s0.1-0.1,0.2-0.1h8.4c0.1,0,0.2,0,0.2,0.1s0.1,0.1,0.1,0.2v1
			c0,0.1,0,0.1-0.1,0.2c0,0.1-0.1,0.1-0.2,0.1h-8.4C413.6,1537.8,413.5,1537.8,413.4,1537.8z"/>
	</g>
	<g class="st1">
		<path d="M460.4,1537.8c-0.1,0-0.1-0.1-0.1-0.2l-4.9-19.8l0-0.1c0-0.1,0-0.1,0.1-0.1s0.1-0.1,0.2-0.1h1.1c0.1,0,0.2,0,0.3,0.1
			c0.1,0,0.1,0.1,0.1,0.2l4.7,19.6c0,0.1,0,0.1,0,0.2c0,0.2-0.1,0.3-0.3,0.3h-1C460.5,1537.8,460.5,1537.8,460.4,1537.8z
			 M471.7,1537.8c0,0-0.1-0.1-0.1-0.2l-4.8-16.8h-0.1l-3.9,13.6c0,0.1,0,0.1-0.1,0.2s-0.1,0.1-0.1,0.1c-0.1,0-0.1-0.1-0.2-0.2
			l-0.5-2.1c0-0.1,0-0.2,0-0.4l3.9-14.1c0-0.1,0.1-0.2,0.1-0.2c0,0,0.1-0.1,0.2-0.1h0.9c0.1,0,0.2,0,0.2,0.1c0,0.1,0.1,0.1,0.1,0.2
			l5.5,19.6l0,0.2c0,0.2-0.1,0.3-0.3,0.3h-1C471.8,1537.8,471.7,1537.8,471.7,1537.8z M473,1532.2c0-0.2-0.1-0.3,0-0.4l3.3-14.1
			c0-0.1,0.1-0.2,0.1-0.2c0.1,0,0.1-0.1,0.3-0.1h1c0.1,0,0.2,0,0.2,0.1c0,0.1,0,0.1,0,0.2l-4,16.5c0,0.1,0,0.1-0.1,0.2
			s-0.1,0.1-0.1,0.1c-0.1,0-0.1-0.1-0.2-0.2L473,1532.2z"/>
	</g>
	<g class="st1">
		<path d="M504.6,1537.8c-0.1-0.1-0.1-0.1-0.1-0.2v-19.8c0-0.1,0-0.2,0.1-0.2c0.1,0,0.1-0.1,0.2-0.1h1.1c0.1,0,0.2,0,0.2,0.1
			c0,0.1,0.1,0.1,0.1,0.2v19.8c0,0.1,0,0.1-0.1,0.2c0,0.1-0.1,0.1-0.2,0.1h-1.1C504.8,1537.8,504.7,1537.8,504.6,1537.8z
			 M507.9,1518.9c-0.1-0.1-0.1-0.1-0.1-0.2v-1c0-0.1,0-0.2,0.1-0.2c0.1,0,0.1-0.1,0.2-0.1h8.4c0.1,0,0.2,0,0.2,0.1
			c0,0.1,0.1,0.1,0.1,0.2v1c0,0.1,0,0.2-0.1,0.2c0,0.1-0.1,0.1-0.2,0.1h-8.4C508.1,1519,508,1519,507.9,1518.9z M507.9,1528.2
			c-0.1-0.1-0.1-0.1-0.1-0.2v-1c0-0.1,0-0.2,0.1-0.2s0.1-0.1,0.2-0.1h7c0.1,0,0.2,0,0.2,0.1c0,0,0.1,0.1,0.1,0.2v1
			c0,0.1,0,0.1-0.1,0.2c-0.1,0.1-0.1,0.1-0.2,0.1h-7C508.1,1528.3,508,1528.3,507.9,1528.2z M507.9,1537.8c-0.1-0.1-0.1-0.1-0.1-0.2
			v-1c0-0.1,0-0.2,0.1-0.2s0.1-0.1,0.2-0.1h8.4c0.1,0,0.2,0,0.2,0.1s0.1,0.1,0.1,0.2v1c0,0.1,0,0.1-0.1,0.2c0,0.1-0.1,0.1-0.2,0.1
			h-8.4C508.1,1537.8,508,1537.8,507.9,1537.8z"/>
	</g>
	<g class="st1">
		<path d="M551.9,1537.8c-0.1-0.1-0.1-0.1-0.1-0.2v-19.8c0-0.1,0-0.2,0.1-0.2c0.1,0,0.1-0.1,0.2-0.1h1.1c0.1,0,0.2,0,0.2,0.1
			c0,0.1,0.1,0.1,0.1,0.2v19.8c0,0.1,0,0.1-0.1,0.2c0,0.1-0.1,0.1-0.2,0.1h-1.1C552,1537.8,551.9,1537.8,551.9,1537.8z
			 M555.2,1518.9c-0.1-0.1-0.1-0.1-0.1-0.2v-1c0-0.1,0-0.2,0.1-0.2c0.1,0,0.1-0.1,0.2-0.1h8.4c0.1,0,0.2,0,0.2,0.1
			c0,0.1,0.1,0.1,0.1,0.2v1c0,0.1,0,0.2-0.1,0.2c0,0.1-0.1,0.1-0.2,0.1h-8.4C555.3,1519,555.2,1519,555.2,1518.9z M555.2,1528.2
			c-0.1-0.1-0.1-0.1-0.1-0.2v-1c0-0.1,0-0.2,0.1-0.2s0.1-0.1,0.2-0.1h7c0.1,0,0.2,0,0.2,0.1c0,0,0.1,0.1,0.1,0.2v1
			c0,0.1,0,0.1-0.1,0.2c-0.1,0.1-0.1,0.1-0.2,0.1h-7C555.3,1528.3,555.2,1528.3,555.2,1528.2z M555.2,1537.8
			c-0.1-0.1-0.1-0.1-0.1-0.2v-1c0-0.1,0-0.2,0.1-0.2s0.1-0.1,0.2-0.1h8.4c0.1,0,0.2,0,0.2,0.1s0.1,0.1,0.1,0.2v1
			c0,0.1,0,0.1-0.1,0.2c0,0.1-0.1,0.1-0.2,0.1h-8.4C555.3,1537.8,555.2,1537.8,555.2,1537.8z"/>
	</g>
	<g class="st1">
		<path d="M600.7,1537.3c-1.1-0.4-1.9-0.9-2.5-1.5c-0.1-0.1-0.1-0.1-0.1-0.2s0-0.2,0.1-0.2l0.7-0.8c0.1-0.1,0.3-0.2,0.4,0
			c0.6,0.5,1.3,0.9,2.1,1.3c0.8,0.4,1.7,0.6,2.6,0.7c0.2,0,0.3,0.1,0.3,0.3v1c0,0.1,0,0.2-0.1,0.2c-0.1,0-0.1,0.1-0.2,0
			C602.8,1538,601.7,1537.7,600.7,1537.3z M606.1,1538.1c-0.1,0-0.1,0-0.2-0.1c-0.1,0-0.1-0.1-0.1-0.2v-1c0-0.2,0.1-0.3,0.3-0.3
			c1.3-0.1,2.3-0.6,3.1-1.3s1.1-1.7,1.1-2.8c0-1.1-0.4-2-1.1-2.7c-0.7-0.7-2-1.1-3.8-1.3l-1-0.1c-2-0.3-3.4-0.8-4.4-1.8
			c-1-0.9-1.5-2.1-1.5-3.6c0-1,0.2-2,0.6-2.8c0.4-0.8,1-1.5,1.8-2s1.7-0.8,2.8-0.9h0.1c0.1,0,0.1,0,0.2,0.1c0,0.1,0.1,0.1,0.1,0.2v1
			c0,0.2-0.1,0.3-0.3,0.3c-1.1,0.2-2,0.6-2.6,1.3c-0.6,0.7-0.9,1.6-0.9,2.6c0,1.1,0.4,2,1.1,2.6c0.8,0.7,2,1.1,3.7,1.3l1,0.1
			c2,0.3,3.5,0.8,4.4,1.8s1.4,2.1,1.4,3.7c0,1.1-0.2,2-0.7,2.8c-0.4,0.8-1.1,1.5-2,2C608.6,1537.6,607.5,1538,606.1,1538.1
			L606.1,1538.1z M606.1,1518.8c-0.2,0-0.3-0.2-0.3-0.3v-1c0-0.1,0-0.2,0.1-0.2s0.1-0.1,0.2,0c0.9,0.1,1.8,0.3,2.6,0.5
			s1.5,0.6,2.1,1.1c0.2,0.1,0.2,0.3,0.1,0.4l-0.6,0.9c-0.1,0.1-0.3,0.2-0.4,0.1C608.7,1519.4,607.4,1518.9,606.1,1518.8z"/>
	</g>
	<g class="st1">
		<path d="M644.2,1518.9c-0.1-0.1-0.1-0.1-0.1-0.2v-1c0-0.1,0-0.2,0.1-0.2c0.1,0,0.1-0.1,0.2-0.1h13.8c0.1,0,0.2,0,0.2,0.1
			c0,0.1,0.1,0.1,0.1,0.2v1c0,0.1,0,0.2-0.1,0.2c-0.1,0.1-0.1,0.1-0.2,0.1h-13.8C644.3,1519,644.3,1519,644.2,1518.9z M650.5,1537.8
			c-0.1-0.1-0.1-0.1-0.1-0.2v-16.7c0-0.1,0-0.2,0.1-0.2c0.1,0,0.1-0.1,0.2-0.1h1.1c0.1,0,0.2,0,0.2,0.1s0.1,0.1,0.1,0.2v16.7
			c0,0.1,0,0.1-0.1,0.2c0,0.1-0.1,0.1-0.2,0.1h-1.1C650.7,1537.8,650.6,1537.8,650.5,1537.8z"/>
	</g>
</g>
</svg>
