<?xml version="1.0" encoding="utf-8"?>
<!-- Generator: Adobe Illustrator 24.3.0, SVG Export Plug-In . SVG Version: 6.00 Build 0)  -->
<svg version="1.1"
	 id="svg918" inkscape:version="0.92.4 (5da689c313, 2019-01-14)" xmlns:cc="http://creativecommons.org/ns#" xmlns:dc="http://purl.org/dc/elements/1.1/" xmlns:inkscape="http://www.inkscape.org/namespaces/inkscape" xmlns:rdf="http://www.w3.org/1999/02/22-rdf-syntax-ns#" xmlns:sodipodi="http://sodipodi.sourceforge.net/DTD/sodipodi-0.dtd" xmlns:svg="http://www.w3.org/2000/svg"
	 xmlns="http://www.w3.org/2000/svg" xmlns:xlink="http://www.w3.org/1999/xlink" x="0px" y="0px" viewBox="0 0 850.4 850.4"
	 style="enable-background:new 0 0 850.4 850.4;" xml:space="preserve">
<style type="text/css">
	.st0{fill:#000055;fill-opacity:0.1647;}
	.st1{font-family:'Helvetica';}
	.st2{font-size:30px;}
	.st3{display:none;}
	.st4{display:inline;fill:none;stroke:#FF0000;stroke-width:0.2835;}
	.st5{display:none;fill:none;stroke:#FF0000;stroke-width:0.2835;}
</style>
<sodipodi:namedview  bordercolor="#666666" borderopacity="1" gridtolerance="10" guidetolerance="10" id="namedview920" inkscape:current-layer="g916" inkscape:cx="-90.764306" inkscape:cy="1012.9005" inkscape:document-units="mm" inkscape:pageopacity="0" inkscape:pageshadow="2" inkscape:window-height="1109" inkscape:window-maximized="1" inkscape:window-width="1920" inkscape:window-x="1920" inkscape:window-y="0" inkscape:zoom="0.31115" objecttolerance="10" pagecolor="#ffffff" showgrid="false">
	</sodipodi:namedview>
<g id="g916" transform="translate(0,-861.73197)">
	<path id="path2" inkscape:connector-curvature="0" class="st0" d="M0,861.7h850.4v850.4H0V861.7z"/>
	<text transform="matrix(1 0 0 1 178.0498 1031.1832)" class="st1 st2">E</text>
	<text transform="matrix(1 0 0 1 225.2998 1031.1832)" class="st1 st2">S</text>
	<text transform="matrix(1 0 0 1 272.5498 1031.1832)" class="st1 st2">K</text>
	<text transform="matrix(1 0 0 1 325.7998 1031.1832)" class="st1 st2">I</text>
	<text transform="matrix(1 0 0 1 367.0498 1031.1832)" class="st1 st2">S</text>
	<text transform="matrix(1 0 0 1 414.2998 1031.1832)" class="st1 st2">T</text>
	<text transform="matrix(1 0 0 1 461.5498 1031.1832)" class="st1 st2">R</text>
	<text transform="matrix(1 0 0 1 508.7998 1031.1832)" class="st1 st2">F</text>
	<text transform="matrix(1 0 0 1 556.0498 1031.1832)" class="st1 st2">Ü</text>
	<text transform="matrix(1 0 0 1 603.2998 1031.1832)" class="st1 st2">N</text>
	<text transform="matrix(1 0 0 1 650.5498 1031.1832)" class="st1 st2">F</text>
	<text transform="matrix(1 0 0 1 697.7998 1031.1832)" class="st1 st2"> </text>
	<text transform="matrix(1 0 0 1 178.0498 1083.6237)" class="st1 st2">Z</text>
	<text transform="matrix(1 0 0 1 225.2998 1083.6237)" class="st1 st2">E</text>
	<text transform="matrix(1 0 0 1 272.5498 1083.6237)" class="st1 st2">H</text>
	<text transform="matrix(1 0 0 1 319.7998 1083.6237)" class="st1 st2">N</text>
	<text transform="matrix(1 0 0 1 367.0498 1083.6237)" class="st1 st2">Z</text>
	<text transform="matrix(1 0 0 1 411.2998 1083.6237)" class="st1 st2">W</text>
	<text transform="matrix(1 0 0 1 461.5498 1083.6237)" class="st1 st2">A</text>
	<text transform="matrix(1 0 0 1 508.7998 1083.6237)" class="st1 st2">N</text>
	<text transform="matrix(1 0 0 1 556.0498 1083.6237)" class="st1 st2">Z</text>
	<text transform="matrix(1 0 0 1 609.2998 1083.6237)" class="st1 st2">I</text>
	<text transform="matrix(1 0 0 1 650.5498 1083.6237)" class="st1 st2">G</text>
	<text transform="matrix(1 0 0 1 697.7998 1083.6237)" class="st1 st2"> </text>
	<text transform="matrix(1 0 0 1 178.0498 1136.0651)" class="st1 st2">D</text>
	<text transform="matrix(1 0 0 1 225.2998 1136.0651)" class="st1 st2">R</text>
	<text transform="matrix(1 0 0 1 272.5498 1136.0651)" class="st1 st2">E</text>
	<text transform="matrix(1 0 0 1 325.7998 1136.0651)" class="st1 st2">I</text>
	<text transform="matrix(1 0 0 1 367.0498 1136.0651)" class="st1 st2">V</text>
	<text transform="matrix(1 0 0 1 420.2998 1136.0651)" class="st1 st2">I</text>
	<text transform="matrix(1 0 0 1 461.5498 1136.0651)" class="st1 st2">E</text>
	<text transform="matrix(1 0 0 1 508.7998 1136.0651)" class="st1 st2">R</text>
	<text transform="matrix(1 0 0 1 556.0498 1136.0651)" class="st1 st2">T</text>
	<text transform="matrix(1 0 0 1 603.2998 1136.0651)" class="st1 st2">E</text>
	<text transform="matrix(1 0 0 1 650.5498 1136.0651)" class="st1 st2">L</text>
	<text transform="matrix(1 0 0 1 697.7998 1136.0651)" class="st1 st2"> </text>
	<text transform="matrix(1 0 0 1 178.0498 1188.506)" class="st1 st2">T</text>
	<text transform="matrix(1 0 0 1 225.2998 1188.506)" class="st1 st2">G</text>
	<text transform="matrix(1 0 0 1 272.5498 1188.506)" class="st1 st2">N</text>
	<text transform="matrix(1 0 0 1 319.7998 1188.506)" class="st1 st2">A</text>
	<text transform="matrix(1 0 0 1 367.0498 1188.506)" class="st1 st2">C</text>
	<text transform="matrix(1 0 0 1 414.2998 1188.506)" class="st1 st2">H</text>
	<text transform="matrix(1 0 0 1 461.5498 1188.506)" class="st1 st2">V</text>
	<text transform="matrix(1 0 0 1 508.7998 1188.506)" class="st1 st2">O</text>
	<text transform="matrix(1 0 0 1 556.0498 1188.506)" class="st1 st2">R</text>
	<text transform="matrix(1 0 0 1 603.2998 1188.506)" class="st1 st2">U</text>
	<text transform="matrix(1 0 0 1 650.5498 1188.506)" class="st1 st2">M</text>
	<text transform="matrix(1 0 0 1 697.7998 1188.506)" class="st1 st2"> </text>
	<text transform="matrix(1 0 0 1 178.0498 1240.9469)" class="st1 st2">H</text>
	<text transform="matrix(1 0 0 1 225.2998 1240.9469)" class="st1 st2">A</text>
	<text transform="matrix(1 0 0 1 272.5498 1240.9469)" class="st1 st2">L</text>
	<text transform="matrix(1 0 0 1 319.7998 1240.9469)" class="st1 st2">B</text>
	<text transform="matrix(1 0 0 1 367.0498 1240.9469)" class="st1 st2">G</text>
	<text transform="matrix(1 0 0 1 414.2998 1240.9469)" class="st1 st2">Z</text>
	<text transform="matrix(1 0 0 1 458.5498 1240.9469)" class="st1 st2">W</text>
	<text transform="matrix(1 0 0 1 508.7998 1240.9469)" class="st1 st2">Ö</text>
	<text transform="matrix(1 0 0 1 556.0498 1240.9469)" class="st1 st2">L</text>
	<text transform="matrix(1 0 0 1 603.2998 1240.9469)" class="st1 st2">F</text>
	<text transform="matrix(1 0 0 1 650.5498 1240.9469)" class="st1 st2">J</text>
	<text transform="matrix(1 0 0 1 697.7998 1240.9469)" class="st1 st2"> </text>
	<text transform="matrix(1 0 0 1 178.0498 1293.3873)" class="st1 st2">Z</text>
	<text transform="matrix(1 0 0 1 225.2998 1293.3873)" class="st1 st2">W</text>
	<text transform="matrix(1 0 0 1 272.5498 1293.3873)" class="st1 st2">E</text>
	<text transform="matrix(1 0 0 1 325.7998 1293.3873)" class="st1 st2">I</text>
	<text transform="matrix(1 0 0 1 367.0498 1293.3873)" class="st1 st2">N</text>
	<text transform="matrix(1 0 0 1 414.2998 1293.3873)" class="st1 st2">S</text>
	<text transform="matrix(1 0 0 1 467.5498 1293.3873)" class="st1 st2">I</text>
	<text transform="matrix(1 0 0 1 508.7998 1293.3873)" class="st1 st2">E</text>
	<text transform="matrix(1 0 0 1 556.0498 1293.3873)" class="st1 st2">B</text>
	<text transform="matrix(1 0 0 1 603.2998 1293.3873)" class="st1 st2">E</text>
	<text transform="matrix(1 0 0 1 650.5498 1293.3873)" class="st1 st2">N</text>
	<text transform="matrix(1 0 0 1 697.7998 1293.3873)" class="st1 st2"> </text>
	<text transform="matrix(1 0 0 1 178.0498 1345.8287)" class="st1 st2">K</text>
	<text transform="matrix(1 0 0 1 225.2998 1345.8287)" class="st1 st2">D</text>
	<text transform="matrix(1 0 0 1 272.5498 1345.8287)" class="st1 st2">R</text>
	<text transform="matrix(1 0 0 1 319.7998 1345.8287)" class="st1 st2">E</text>
	<text transform="matrix(1 0 0 1 373.0498 1345.8287)" class="st1 st2">I</text>
	<text transform="matrix(1 0 0 1 414.2998 1345.8287)" class="st1 st2">R</text>
	<text transform="matrix(1 0 0 1 461.5498 1345.8287)" class="st1 st2">H</text>
	<text transform="matrix(1 0 0 1 508.7998 1345.8287)" class="st1 st2">F</text>
	<text transform="matrix(1 0 0 1 556.0498 1345.8287)" class="st1 st2">Ü</text>
	<text transform="matrix(1 0 0 1 603.2998 1345.8287)" class="st1 st2">N</text>
	<text transform="matrix(1 0 0 1 650.5498 1345.8287)" class="st1 st2">F</text>
	<text transform="matrix(1 0 0 1 697.7998 1345.8287)" class="st1 st2"> </text>
	<text transform="matrix(1 0 0 1 178.0498 1398.2701)" class="st1 st2">E</text>
	<text transform="matrix(1 0 0 1 225.2998 1398.2701)" class="st1 st2">L</text>
	<text transform="matrix(1 0 0 1 272.5498 1398.2701)" class="st1 st2">F</text>
	<text transform="matrix(1 0 0 1 319.7998 1398.2701)" class="st1 st2">N</text>
	<text transform="matrix(1 0 0 1 367.0498 1398.2701)" class="st1 st2">E</text>
	<text transform="matrix(1 0 0 1 414.2998 1398.2701)" class="st1 st2">U</text>
	<text transform="matrix(1 0 0 1 461.5498 1398.2701)" class="st1 st2">N</text>
	<text transform="matrix(1 0 0 1 508.7998 1398.2701)" class="st1 st2">V</text>
	<text transform="matrix(1 0 0 1 562.0498 1398.2701)" class="st1 st2">I</text>
	<text transform="matrix(1 0 0 1 603.2998 1398.2701)" class="st1 st2">E</text>
	<text transform="matrix(1 0 0 1 650.5498 1398.2701)" class="st1 st2">R</text>
	<text transform="matrix(1 0 0 1 697.7998 1398.2701)" class="st1 st2"> </text>
	<text transform="matrix(1 0 0 1 178.0498 1450.7106)" class="st1 st2">N</text>
	<text transform="matrix(1 0 0 1 225.2998 1450.7106)" class="st1 st2">A</text>
	<text transform="matrix(1 0 0 1 272.5498 1450.7106)" class="st1 st2">C</text>
	<text transform="matrix(1 0 0 1 319.7998 1450.7106)" class="st1 st2">H</text>
	<text transform="matrix(1 0 0 1 367.0498 1450.7106)" class="st1 st2">T</text>
	<text transform="matrix(1 0 0 1 414.2998 1450.7106)" class="st1 st2">Z</text>
	<text transform="matrix(1 0 0 1 461.5498 1450.7106)" class="st1 st2">E</text>
	<text transform="matrix(1 0 0 1 508.7998 1450.7106)" class="st1 st2">H</text>
	<text transform="matrix(1 0 0 1 556.0498 1450.7106)" class="st1 st2">N</text>
	<text transform="matrix(1 0 0 1 603.2998 1450.7106)" class="st1 st2">B</text>
	<text transform="matrix(1 0 0 1 650.5498 1450.7106)" class="st1 st2">X</text>
	<text transform="matrix(1 0 0 1 697.7998 1450.7106)" class="st1 st2"> </text>
	<text transform="matrix(1 0 0 1 178.0498 1503.152)" class="st1 st2">U</text>
	<text transform="matrix(1 0 0 1 225.2998 1503.152)" class="st1 st2">S</text>
	<text transform="matrix(1 0 0 1 272.5498 1503.152)" class="st1 st2">E</text>
	<text transform="matrix(1 0 0 1 319.7998 1503.152)" class="st1 st2">C</text>
	<text transform="matrix(1 0 0 1 367.0498 1503.152)" class="st1 st2">H</text>
	<text transform="matrix(1 0 0 1 414.2998 1503.152)" class="st1 st2">S</text>
	<text transform="matrix(1 0 0 1 461.5498 1503.152)" class="st1 st2">F</text>
	<text transform="matrix(1 0 0 1 508.7998 1503.152)" class="st1 st2">U</text>
	<text transform="matrix(1 0 0 1 556.0498 1503.152)" class="st1 st2">E</text>
	<text transform="matrix(1 0 0 1 603.2998 1503.152)" class="st1 st2">R</text>
	<text transform="matrix(1 0 0 1 650.5498 1503.152)" class="st1 st2">Y</text>
	<text transform="matrix(1 0 0 1 697.7998 1503.152)" class="st1 st2"> </text>
	<text transform="matrix(1 0 0 1 175.0498 1555.5924)" class="st1 st2">W</text>
	<text transform="matrix(1 0 0 1 225.2998 1555.5924)" class="st1 st2">A</text>
	<text transform="matrix(1 0 0 1 272.5498 1555.5924)" class="st1 st2">S</text>
	<text transform="matrix(1 0 0 1 319.7998 1555.5924)" class="st1 st2">D</text>
	<text transform="matrix(1 0 0 1 367.0498 1555.5924)" class="st1 st2">F</text>
	<text transform="matrix(1 0 0 1 414.2998 1555.5924)" class="st1 st2">U</text>
	<text transform="matrix(1 0 0 1 461.5498 1555.5924)" class="st1 st2">N</text>
	<text transform="matrix(1 0 0 1 508.7998 1555.5924)" class="st1 st2">K</text>
	<text transform="matrix(1 0 0 1 556.0498 1555.5924)" class="st1 st2">U</text>
	<text transform="matrix(1 0 0 1 603.2998 1555.5924)" class="st1 st2">H</text>
	<text transform="matrix(1 0 0 1 650.5498 1555.5924)" class="st1 st2">R</text>
	<path id="path4_1_" inkscape:connector-curvature="0" d="M455.3,1612.2c0,3.5-2.9,6.4-6.4,6.4s-6.4-2.9-6.4-6.4s2.9-6.4,6.4-6.4
		C452.4,1605.8,455.3,1608.7,455.3,1612.2"/>
	<path id="path4-3" inkscape:connector-curvature="0" d="M503.5,1612.2c0,3.5-2.9,6.4-6.4,6.4s-6.4-2.9-6.4-6.4s2.9-6.4,6.4-6.4
		C500.6,1605.8,503.5,1608.7,503.5,1612.2"/>
	<path id="path4-7" inkscape:connector-curvature="0" d="M358.9,1612.2c0,3.5-2.9,6.4-6.4,6.4s-6.4-2.9-6.4-6.4s2.9-6.4,6.4-6.4
		C356.1,1605.8,358.9,1608.7,358.9,1612.2"/>
	<path id="path4-3-3" inkscape:connector-curvature="0" d="M407.1,1612.2c0,3.5-2.9,6.4-6.4,6.4s-6.4-2.9-6.4-6.4s2.9-6.4,6.4-6.4
		C404.2,1605.8,407.1,1608.7,407.1,1612.2"/>
</g>
<g class="st3">
	<path class="st4" d="M207.4,171.2c0,3.9-3.2,7.1-7.1,7.1h-22.7c-3.9,0-7.1-3.2-7.1-7.1v-28.3c0-3.9,3.2-7.1,7.1-7.1h22.7
		c3.9,0,7.1,3.2,7.1,7.1V171.2z"/>
	<path class="st4" d="M254.6,171.2c0,3.9-3.2,7.1-7.1,7.1h-22.7c-3.9,0-7.1-3.2-7.1-7.1v-28.3c0-3.9,3.2-7.1,7.1-7.1h22.7
		c3.9,0,7.1,3.2,7.1,7.1V171.2z"/>
	<path class="st4" d="M301.9,171.2c0,3.9-3.2,7.1-7.1,7.1h-22.7c-3.9,0-7.1-3.2-7.1-7.1v-28.3c0-3.9,3.2-7.1,7.1-7.1h22.7
		c3.9,0,7.1,3.2,7.1,7.1V171.2z"/>
	<path class="st4" d="M349.1,171.2c0,3.9-3.2,7.1-7.1,7.1h-22.7c-3.9,0-7.1-3.2-7.1-7.1v-28.3c0-3.9,3.2-7.1,7.1-7.1H342
		c3.9,0,7.1,3.2,7.1,7.1V171.2z"/>
	<path class="st4" d="M396.4,171.2c0,3.9-3.2,7.1-7.1,7.1h-22.7c-3.9,0-7.1-3.2-7.1-7.1v-28.3c0-3.9,3.2-7.1,7.1-7.1h22.7
		c3.9,0,7.1,3.2,7.1,7.1V171.2z"/>
	<path class="st4" d="M443.6,171.2c0,3.9-3.2,7.1-7.1,7.1h-22.7c-3.9,0-7.1-3.2-7.1-7.1v-28.3c0-3.9,3.2-7.1,7.1-7.1h22.7
		c3.9,0,7.1,3.2,7.1,7.1V171.2z"/>
	<path class="st4" d="M490.9,171.2c0,3.9-3.2,7.1-7.1,7.1h-22.7c-3.9,0-7.1-3.2-7.1-7.1v-28.3c0-3.9,3.2-7.1,7.1-7.1h22.7
		c3.9,0,7.1,3.2,7.1,7.1V171.2z"/>
	<path class="st4" d="M538.1,171.2c0,3.9-3.2,7.1-7.1,7.1h-22.7c-3.9,0-7.1-3.2-7.1-7.1v-28.3c0-3.9,3.2-7.1,7.1-7.1H531
		c3.9,0,7.1,3.2,7.1,7.1V171.2z"/>
	<path class="st4" d="M585.4,171.2c0,3.9-3.2,7.1-7.1,7.1h-22.7c-3.9,0-7.1-3.2-7.1-7.1v-28.3c0-3.9,3.2-7.1,7.1-7.1h22.7
		c3.9,0,7.1,3.2,7.1,7.1V171.2z"/>
	<path class="st4" d="M632.6,171.2c0,3.9-3.2,7.1-7.1,7.1h-22.7c-3.9,0-7.1-3.2-7.1-7.1v-28.3c0-3.9,3.2-7.1,7.1-7.1h22.7
		c3.9,0,7.1,3.2,7.1,7.1V171.2z"/>
	<path class="st4" d="M679.8,171.2c0,3.9-3.2,7.1-7.1,7.1h-22.7c-3.9,0-7.1-3.2-7.1-7.1v-28.3c0-3.9,3.2-7.1,7.1-7.1h22.7
		c3.9,0,7.1,3.2,7.1,7.1V171.2z"/>
	<path class="st4" d="M207.4,223.7c0,3.9-3.2,7.1-7.1,7.1h-22.7c-3.9,0-7.1-3.2-7.1-7.1v-28.3c0-3.9,3.2-7.1,7.1-7.1h22.7
		c3.9,0,7.1,3.2,7.1,7.1V223.7z"/>
	<path class="st4" d="M254.6,223.7c0,3.9-3.2,7.1-7.1,7.1h-22.7c-3.9,0-7.1-3.2-7.1-7.1v-28.3c0-3.9,3.2-7.1,7.1-7.1h22.7
		c3.9,0,7.1,3.2,7.1,7.1V223.7z"/>
	<path class="st4" d="M301.9,223.7c0,3.9-3.2,7.1-7.1,7.1h-22.7c-3.9,0-7.1-3.2-7.1-7.1v-28.3c0-3.9,3.2-7.1,7.1-7.1h22.7
		c3.9,0,7.1,3.2,7.1,7.1V223.7z"/>
	<path class="st4" d="M349.1,223.7c0,3.9-3.2,7.1-7.1,7.1h-22.7c-3.9,0-7.1-3.2-7.1-7.1v-28.3c0-3.9,3.2-7.1,7.1-7.1H342
		c3.9,0,7.1,3.2,7.1,7.1V223.7z"/>
	<path class="st4" d="M396.4,223.7c0,3.9-3.2,7.1-7.1,7.1h-22.7c-3.9,0-7.1-3.2-7.1-7.1v-28.3c0-3.9,3.2-7.1,7.1-7.1h22.7
		c3.9,0,7.1,3.2,7.1,7.1V223.7z"/>
	<path class="st4" d="M446.5,223.7c0,3.9-3.7,7.1-8.2,7.1h-26.2c-4.5,0-8.2-3.2-8.2-7.1v-28.3c0-3.9,3.7-7.1,8.2-7.1h26.2
		c4.5,0,8.2,3.2,8.2,7.1V223.7z"/>
	<path class="st4" d="M490.9,223.7c0,3.9-3.2,7.1-7.1,7.1h-22.7c-3.9,0-7.1-3.2-7.1-7.1v-28.3c0-3.9,3.2-7.1,7.1-7.1h22.7
		c3.9,0,7.1,3.2,7.1,7.1V223.7z"/>
	<path class="st4" d="M538.1,223.7c0,3.9-3.2,7.1-7.1,7.1h-22.7c-3.9,0-7.1-3.2-7.1-7.1v-28.3c0-3.9,3.2-7.1,7.1-7.1H531
		c3.9,0,7.1,3.2,7.1,7.1V223.7z"/>
	<path class="st4" d="M585.4,223.7c0,3.9-3.2,7.1-7.1,7.1h-22.7c-3.9,0-7.1-3.2-7.1-7.1v-28.3c0-3.9,3.2-7.1,7.1-7.1h22.7
		c3.9,0,7.1,3.2,7.1,7.1V223.7z"/>
	<path class="st4" d="M632.6,223.7c0,3.9-3.2,7.1-7.1,7.1h-22.7c-3.9,0-7.1-3.2-7.1-7.1v-28.3c0-3.9,3.2-7.1,7.1-7.1h22.7
		c3.9,0,7.1,3.2,7.1,7.1V223.7z"/>
	<path class="st4" d="M679.8,223.7c0,3.9-3.2,7.1-7.1,7.1h-22.7c-3.9,0-7.1-3.2-7.1-7.1v-28.3c0-3.9,3.2-7.1,7.1-7.1h22.7
		c3.9,0,7.1,3.2,7.1,7.1V223.7z"/>
	<path class="st4" d="M207.4,276.2c0,3.9-3.2,7.1-7.1,7.1h-22.7c-3.9,0-7.1-3.2-7.1-7.1v-28.3c0-3.9,3.2-7.1,7.1-7.1h22.7
		c3.9,0,7.1,3.2,7.1,7.1V276.2z"/>
	<path class="st4" d="M257.5,276.2c0,3.9-3.7,7.1-8.2,7.1h-26.2c-4.5,0-8.2-3.2-8.2-7.1v-28.3c0-3.9,3.7-7.1,8.2-7.1h26.2
		c4.5,0,8.2,3.2,8.2,7.1L257.5,276.2L257.5,276.2z"/>
	<path class="st4" d="M301.9,276.2c0,3.9-3.2,7.1-7.1,7.1h-22.7c-3.9,0-7.1-3.2-7.1-7.1v-28.3c0-3.9,3.2-7.1,7.1-7.1h22.7
		c3.9,0,7.1,3.2,7.1,7.1V276.2z"/>
	<path class="st4" d="M349.1,276.2c0,3.9-3.2,7.1-7.1,7.1h-22.7c-3.9,0-7.1-3.2-7.1-7.1v-28.3c0-3.9,3.2-7.1,7.1-7.1H342
		c3.9,0,7.1,3.2,7.1,7.1V276.2z"/>
	<path class="st4" d="M396.4,276.2c0,3.9-3.2,7.1-7.1,7.1h-22.7c-3.9,0-7.1-3.2-7.1-7.1v-28.3c0-3.9,3.2-7.1,7.1-7.1h22.7
		c3.9,0,7.1,3.2,7.1,7.1V276.2z"/>
	<path class="st4" d="M443.6,276.2c0,3.9-3.2,7.1-7.1,7.1h-22.7c-3.9,0-7.1-3.2-7.1-7.1v-28.3c0-3.9,3.2-7.1,7.1-7.1h22.7
		c3.9,0,7.1,3.2,7.1,7.1V276.2z"/>
	<path class="st4" d="M490.9,276.2c0,3.9-3.2,7.1-7.1,7.1h-22.7c-3.9,0-7.1-3.2-7.1-7.1v-28.3c0-3.9,3.2-7.1,7.1-7.1h22.7
		c3.9,0,7.1,3.2,7.1,7.1V276.2z"/>
	<path class="st4" d="M538.1,276.2c0,3.9-3.2,7.1-7.1,7.1h-22.7c-3.9,0-7.1-3.2-7.1-7.1v-28.3c0-3.9,3.2-7.1,7.1-7.1H531
		c3.9,0,7.1,3.2,7.1,7.1V276.2z"/>
	<path class="st4" d="M585.4,276.2c0,3.9-3.2,7.1-7.1,7.1h-22.7c-3.9,0-7.1-3.2-7.1-7.1v-28.3c0-3.9,3.2-7.1,7.1-7.1h22.7
		c3.9,0,7.1,3.2,7.1,7.1V276.2z"/>
	<path class="st4" d="M635.4,276.2c0,3.9-3.7,7.1-8.2,7.1h-26.2c-4.5,0-8.2-3.2-8.2-7.1v-28.3c0-3.9,3.7-7.1,8.2-7.1h26.2
		c4.5,0,8.2,3.2,8.2,7.1V276.2z"/>
	<path class="st4" d="M679.8,276.2c0,3.9-3.2,7.1-7.1,7.1h-22.7c-3.9,0-7.1-3.2-7.1-7.1v-28.3c0-3.9,3.2-7.1,7.1-7.1h22.7
		c3.9,0,7.1,3.2,7.1,7.1V276.2z"/>
	<path class="st4" d="M207.4,328.7c0,3.9-3.2,7.1-7.1,7.1h-22.7c-3.9,0-7.1-3.2-7.1-7.1v-28.3c0-3.9,3.2-7.1,7.1-7.1h22.7
		c3.9,0,7.1,3.2,7.1,7.1V328.7z"/>
	<path class="st4" d="M254.6,328.7c0,3.9-3.2,7.1-7.1,7.1h-22.7c-3.9,0-7.1-3.2-7.1-7.1v-28.3c0-3.9,3.2-7.1,7.1-7.1h22.7
		c3.9,0,7.1,3.2,7.1,7.1V328.7z"/>
	<path class="st4" d="M301.9,328.7c0,3.9-3.2,7.1-7.1,7.1h-22.7c-3.9,0-7.1-3.2-7.1-7.1v-28.3c0-3.9,3.2-7.1,7.1-7.1h22.7
		c3.9,0,7.1,3.2,7.1,7.1V328.7z"/>
	<path class="st4" d="M349.1,328.7c0,3.9-3.2,7.1-7.1,7.1h-22.7c-3.9,0-7.1-3.2-7.1-7.1v-28.3c0-3.9,3.2-7.1,7.1-7.1H342
		c3.9,0,7.1,3.2,7.1,7.1V328.7z"/>
	<path class="st4" d="M396.4,328.7c0,3.9-3.2,7.1-7.1,7.1h-22.7c-3.9,0-7.1-3.2-7.1-7.1v-28.3c0-3.9,3.2-7.1,7.1-7.1h22.7
		c3.9,0,7.1,3.2,7.1,7.1V328.7z"/>
	<path class="st4" d="M443.6,328.7c0,3.9-3.2,7.1-7.1,7.1h-22.7c-3.9,0-7.1-3.2-7.1-7.1v-28.3c0-3.9,3.2-7.1,7.1-7.1h22.7
		c3.9,0,7.1,3.2,7.1,7.1V328.7z"/>
	<path class="st4" d="M490.9,328.7c0,3.9-3.2,7.1-7.1,7.1h-22.7c-3.9,0-7.1-3.2-7.1-7.1v-28.3c0-3.9,3.2-7.1,7.1-7.1h22.7
		c3.9,0,7.1,3.2,7.1,7.1V328.7z"/>
	<path class="st4" d="M538.1,328.7c0,3.9-3.2,7.1-7.1,7.1h-22.7c-3.9,0-7.1-3.2-7.1-7.1v-28.3c0-3.9,3.2-7.1,7.1-7.1H531
		c3.9,0,7.1,3.2,7.1,7.1V328.7z"/>
	<path class="st4" d="M585.4,328.7c0,3.9-3.2,7.1-7.1,7.1h-22.7c-3.9,0-7.1-3.2-7.1-7.1v-28.3c0-3.9,3.2-7.1,7.1-7.1h22.7
		c3.9,0,7.1,3.2,7.1,7.1V328.7z"/>
	<path class="st4" d="M632.6,328.7c0,3.9-3.2,7.1-7.1,7.1h-22.7c-3.9,0-7.1-3.2-7.1-7.1v-28.3c0-3.9,3.2-7.1,7.1-7.1h22.7
		c3.9,0,7.1,3.2,7.1,7.1V328.7z"/>
	<path class="st4" d="M679.8,328.7c0,3.9-3.2,7.1-7.1,7.1h-22.7c-3.9,0-7.1-3.2-7.1-7.1v-28.3c0-3.9,3.2-7.1,7.1-7.1h22.7
		c3.9,0,7.1,3.2,7.1,7.1V328.7z"/>
	<path class="st4" d="M207.4,381.2c0,3.9-3.2,7.1-7.1,7.1h-22.7c-3.9,0-7.1-3.2-7.1-7.1v-28.3c0-3.9,3.2-7.1,7.1-7.1h22.7
		c3.9,0,7.1,3.2,7.1,7.1V381.2z"/>
	<path class="st4" d="M254.6,381.2c0,3.9-3.2,7.1-7.1,7.1h-22.7c-3.9,0-7.1-3.2-7.1-7.1v-28.3c0-3.9,3.2-7.1,7.1-7.1h22.7
		c3.9,0,7.1,3.2,7.1,7.1V381.2z"/>
	<path class="st4" d="M301.9,381.2c0,3.9-3.2,7.1-7.1,7.1h-22.7c-3.9,0-7.1-3.2-7.1-7.1v-28.3c0-3.9,3.2-7.1,7.1-7.1h22.7
		c3.9,0,7.1,3.2,7.1,7.1V381.2z"/>
	<path class="st4" d="M352,381.2c0,3.9-3.7,7.1-8.2,7.1h-26.2c-4.5,0-8.2-3.2-8.2-7.1v-28.3c0-3.9,3.7-7.1,8.2-7.1h26.2
		c4.5,0,8.2,3.2,8.2,7.1V381.2z"/>
	<path class="st4" d="M396.4,381.2c0,3.9-3.2,7.1-7.1,7.1h-22.7c-3.9,0-7.1-3.2-7.1-7.1v-28.3c0-3.9,3.2-7.1,7.1-7.1h22.7
		c3.9,0,7.1,3.2,7.1,7.1V381.2z"/>
	<path class="st4" d="M443.6,381.2c0,3.9-3.2,7.1-7.1,7.1h-22.7c-3.9,0-7.1-3.2-7.1-7.1v-28.3c0-3.9,3.2-7.1,7.1-7.1h22.7
		c3.9,0,7.1,3.2,7.1,7.1V381.2z"/>
	<path class="st4" d="M490.9,381.2c0,3.9-3.2,7.1-7.1,7.1h-22.7c-3.9,0-7.1-3.2-7.1-7.1v-28.3c0-3.9,3.2-7.1,7.1-7.1h22.7
		c3.9,0,7.1,3.2,7.1,7.1V381.2z"/>
	<path class="st4" d="M540.9,381.2c0,3.9-3.7,7.1-8.2,7.1h-26.2c-4.5,0-8.2-3.2-8.2-7.1v-28.3c0-3.9,3.7-7.1,8.2-7.1h26.2
		c4.5,0,8.2,3.2,8.2,7.1L540.9,381.2L540.9,381.2z"/>
	<path class="st4" d="M585.4,381.2c0,3.9-3.2,7.1-7.1,7.1h-22.7c-3.9,0-7.1-3.2-7.1-7.1v-28.3c0-3.9,3.2-7.1,7.1-7.1h22.7
		c3.9,0,7.1,3.2,7.1,7.1V381.2z"/>
	<path class="st4" d="M632.6,381.2c0,3.9-3.2,7.1-7.1,7.1h-22.7c-3.9,0-7.1-3.2-7.1-7.1v-28.3c0-3.9,3.2-7.1,7.1-7.1h22.7
		c3.9,0,7.1,3.2,7.1,7.1V381.2z"/>
	<path class="st4" d="M679.8,381.2c0,3.9-3.2,7.1-7.1,7.1h-22.7c-3.9,0-7.1-3.2-7.1-7.1v-28.3c0-3.9,3.2-7.1,7.1-7.1h22.7
		c3.9,0,7.1,3.2,7.1,7.1V381.2z"/>
	<path class="st4" d="M207.4,433.7c0,3.9-3.2,7.1-7.1,7.1h-22.7c-3.9,0-7.1-3.2-7.1-7.1v-28.3c0-3.9,3.2-7.1,7.1-7.1h22.7
		c3.9,0,7.1,3.2,7.1,7.1V433.7z"/>
	<path class="st4" d="M254.6,433.7c0,3.9-3.2,7.1-7.1,7.1h-22.7c-3.9,0-7.1-3.2-7.1-7.1v-28.3c0-3.9,3.2-7.1,7.1-7.1h22.7
		c3.9,0,7.1,3.2,7.1,7.1V433.7z"/>
	<path class="st4" d="M301.9,433.7c0,3.9-3.2,7.1-7.1,7.1h-22.7c-3.9,0-7.1-3.2-7.1-7.1v-28.3c0-3.9,3.2-7.1,7.1-7.1h22.7
		c3.9,0,7.1,3.2,7.1,7.1V433.7z"/>
	<path class="st4" d="M352,433.7c0,3.9-3.7,7.1-8.2,7.1h-26.2c-4.5,0-8.2-3.2-8.2-7.1v-28.3c0-3.9,3.7-7.1,8.2-7.1h26.2
		c4.5,0,8.2,3.2,8.2,7.1V433.7z"/>
	<path class="st4" d="M396.4,433.7c0,3.9-3.2,7.1-7.1,7.1h-22.7c-3.9,0-7.1-3.2-7.1-7.1v-28.3c0-3.9,3.2-7.1,7.1-7.1h22.7
		c3.9,0,7.1,3.2,7.1,7.1V433.7z"/>
	<path class="st4" d="M443.6,433.7c0,3.9-3.2,7.1-7.1,7.1h-22.7c-3.9,0-7.1-3.2-7.1-7.1v-28.3c0-3.9,3.2-7.1,7.1-7.1h22.7
		c3.9,0,7.1,3.2,7.1,7.1V433.7z"/>
	<path class="st4" d="M490.9,433.7c0,3.9-3.2,7.1-7.1,7.1h-22.7c-3.9,0-7.1-3.2-7.1-7.1v-28.3c0-3.9,3.2-7.1,7.1-7.1h22.7
		c3.9,0,7.1,3.2,7.1,7.1V433.7z"/>
	<path class="st4" d="M540.9,433.7c0,3.9-3.7,7.1-8.2,7.1h-26.2c-4.5,0-8.2-3.2-8.2-7.1v-28.3c0-3.9,3.7-7.1,8.2-7.1h26.2
		c4.5,0,8.2,3.2,8.2,7.1L540.9,433.7L540.9,433.7z"/>
	<path class="st4" d="M585.4,433.7c0,3.9-3.2,7.1-7.1,7.1h-22.7c-3.9,0-7.1-3.2-7.1-7.1v-28.3c0-3.9,3.2-7.1,7.1-7.1h22.7
		c3.9,0,7.1,3.2,7.1,7.1V433.7z"/>
	<path class="st4" d="M632.6,433.7c0,3.9-3.2,7.1-7.1,7.1h-22.7c-3.9,0-7.1-3.2-7.1-7.1v-28.3c0-3.9,3.2-7.1,7.1-7.1h22.7
		c3.9,0,7.1,3.2,7.1,7.1V433.7z"/>
	<path class="st4" d="M679.8,433.7c0,3.9-3.2,7.1-7.1,7.1h-22.7c-3.9,0-7.1-3.2-7.1-7.1v-28.3c0-3.9,3.2-7.1,7.1-7.1h22.7
		c3.9,0,7.1,3.2,7.1,7.1V433.7z"/>
	<path class="st4" d="M207.4,486.2c0,3.9-3.2,7.1-7.1,7.1h-22.7c-3.9,0-7.1-3.2-7.1-7.1v-28.3c0-3.9,3.2-7.1,7.1-7.1h22.7
		c3.9,0,7.1,3.2,7.1,7.1V486.2z"/>
	<path class="st4" d="M254.6,486.2c0,3.9-3.2,7.1-7.1,7.1h-22.7c-3.9,0-7.1-3.2-7.1-7.1v-28.3c0-3.9,3.2-7.1,7.1-7.1h22.7
		c3.9,0,7.1,3.2,7.1,7.1V486.2z"/>
	<path class="st4" d="M301.9,486.2c0,3.9-3.2,7.1-7.1,7.1h-22.7c-3.9,0-7.1-3.2-7.1-7.1v-28.3c0-3.9,3.2-7.1,7.1-7.1h22.7
		c3.9,0,7.1,3.2,7.1,7.1V486.2z"/>
	<path class="st4" d="M349.1,486.2c0,3.9-3.2,7.1-7.1,7.1h-22.7c-3.9,0-7.1-3.2-7.1-7.1v-28.3c0-3.9,3.2-7.1,7.1-7.1H342
		c3.9,0,7.1,3.2,7.1,7.1V486.2z"/>
	<path class="st4" d="M396.4,486.2c0,3.9-3.2,7.1-7.1,7.1h-22.7c-3.9,0-7.1-3.2-7.1-7.1v-28.3c0-3.9,3.2-7.1,7.1-7.1h22.7
		c3.9,0,7.1,3.2,7.1,7.1V486.2z"/>
	<path class="st4" d="M443.6,486.2c0,3.9-3.2,7.1-7.1,7.1h-22.7c-3.9,0-7.1-3.2-7.1-7.1v-28.3c0-3.9,3.2-7.1,7.1-7.1h22.7
		c3.9,0,7.1,3.2,7.1,7.1V486.2z"/>
	<path class="st4" d="M490.9,486.2c0,3.9-3.2,7.1-7.1,7.1h-22.7c-3.9,0-7.1-3.2-7.1-7.1v-28.3c0-3.9,3.2-7.1,7.1-7.1h22.7
		c3.9,0,7.1,3.2,7.1,7.1V486.2z"/>
	<path class="st4" d="M538.1,486.2c0,3.9-3.2,7.1-7.1,7.1h-22.7c-3.9,0-7.1-3.2-7.1-7.1v-28.3c0-3.9,3.2-7.1,7.1-7.1H531
		c3.9,0,7.1,3.2,7.1,7.1V486.2z"/>
	<path class="st4" d="M585.4,486.2c0,3.9-3.2,7.1-7.1,7.1h-22.7c-3.9,0-7.1-3.2-7.1-7.1v-28.3c0-3.9,3.2-7.1,7.1-7.1h22.7
		c3.9,0,7.1,3.2,7.1,7.1V486.2z"/>
	<path class="st4" d="M632.6,486.2c0,3.9-3.2,7.1-7.1,7.1h-22.7c-3.9,0-7.1-3.2-7.1-7.1v-28.3c0-3.9,3.2-7.1,7.1-7.1h22.7
		c3.9,0,7.1,3.2,7.1,7.1V486.2z"/>
	<path class="st4" d="M679.8,486.2c0,3.9-3.2,7.1-7.1,7.1h-22.7c-3.9,0-7.1-3.2-7.1-7.1v-28.3c0-3.9,3.2-7.1,7.1-7.1h22.7
		c3.9,0,7.1,3.2,7.1,7.1V486.2z"/>
	<path class="st4" d="M207.4,538.7c0,3.9-3.2,7.1-7.1,7.1h-22.7c-3.9,0-7.1-3.2-7.1-7.1v-28.3c0-3.9,3.2-7.1,7.1-7.1h22.7
		c3.9,0,7.1,3.2,7.1,7.1V538.7z"/>
	<path class="st4" d="M257.5,538.7c0,3.9-3.7,7.1-8.2,7.1h-26.2c-4.5,0-8.2-3.2-8.2-7.1v-28.3c0-3.9,3.7-7.1,8.2-7.1h26.2
		c4.5,0,8.2,3.2,8.2,7.1L257.5,538.7L257.5,538.7z"/>
	<path class="st4" d="M301.9,538.7c0,3.9-3.2,7.1-7.1,7.1h-22.7c-3.9,0-7.1-3.2-7.1-7.1v-28.3c0-3.9,3.2-7.1,7.1-7.1h22.7
		c3.9,0,7.1,3.2,7.1,7.1V538.7z"/>
	<path class="st4" d="M349.1,538.7c0,3.9-3.2,7.1-7.1,7.1h-22.7c-3.9,0-7.1-3.2-7.1-7.1v-28.3c0-3.9,3.2-7.1,7.1-7.1H342
		c3.9,0,7.1,3.2,7.1,7.1V538.7z"/>
	<path class="st4" d="M396.4,538.7c0,3.9-3.2,7.1-7.1,7.1h-22.7c-3.9,0-7.1-3.2-7.1-7.1v-28.3c0-3.9,3.2-7.1,7.1-7.1h22.7
		c3.9,0,7.1,3.2,7.1,7.1V538.7z"/>
	<path class="st4" d="M443.6,538.7c0,3.9-3.2,7.1-7.1,7.1h-22.7c-3.9,0-7.1-3.2-7.1-7.1v-28.3c0-3.9,3.2-7.1,7.1-7.1h22.7
		c3.9,0,7.1,3.2,7.1,7.1V538.7z"/>
	<path class="st4" d="M490.9,538.7c0,3.9-3.2,7.1-7.1,7.1h-22.7c-3.9,0-7.1-3.2-7.1-7.1v-28.3c0-3.9,3.2-7.1,7.1-7.1h22.7
		c3.9,0,7.1,3.2,7.1,7.1V538.7z"/>
	<path class="st4" d="M538.1,538.7c0,3.9-3.2,7.1-7.1,7.1h-22.7c-3.9,0-7.1-3.2-7.1-7.1v-28.3c0-3.9,3.2-7.1,7.1-7.1H531
		c3.9,0,7.1,3.2,7.1,7.1V538.7z"/>
	<path class="st4" d="M585.4,538.7c0,3.9-3.2,7.1-7.1,7.1h-22.7c-3.9,0-7.1-3.2-7.1-7.1v-28.3c0-3.9,3.2-7.1,7.1-7.1h22.7
		c3.9,0,7.1,3.2,7.1,7.1V538.7z"/>
	<path class="st4" d="M635.4,538.7c0,3.9-3.7,7.1-8.2,7.1h-26.2c-4.5,0-8.2-3.2-8.2-7.1v-28.3c0-3.9,3.7-7.1,8.2-7.1h26.2
		c4.5,0,8.2,3.2,8.2,7.1V538.7z"/>
	<path class="st4" d="M679.8,538.7c0,3.9-3.2,7.1-7.1,7.1h-22.7c-3.9,0-7.1-3.2-7.1-7.1v-28.3c0-3.9,3.2-7.1,7.1-7.1h22.7
		c3.9,0,7.1,3.2,7.1,7.1V538.7z"/>
	<path class="st4" d="M207.4,591.2c0,3.9-3.2,7.1-7.1,7.1h-22.7c-3.9,0-7.1-3.2-7.1-7.1v-28.3c0-3.9,3.2-7.1,7.1-7.1h22.7
		c3.9,0,7.1,3.2,7.1,7.1V591.2z"/>
	<path class="st4" d="M254.6,591.2c0,3.9-3.2,7.1-7.1,7.1h-22.7c-3.9,0-7.1-3.2-7.1-7.1v-28.3c0-3.9,3.2-7.1,7.1-7.1h22.7
		c3.9,0,7.1,3.2,7.1,7.1V591.2z"/>
	<path class="st4" d="M301.9,591.2c0,3.9-3.2,7.1-7.1,7.1h-22.7c-3.9,0-7.1-3.2-7.1-7.1v-28.3c0-3.9,3.2-7.1,7.1-7.1h22.7
		c3.9,0,7.1,3.2,7.1,7.1V591.2z"/>
	<path class="st4" d="M349.1,591.2c0,3.9-3.2,7.1-7.1,7.1h-22.7c-3.9,0-7.1-3.2-7.1-7.1v-28.3c0-3.9,3.2-7.1,7.1-7.1H342
		c3.9,0,7.1,3.2,7.1,7.1V591.2z"/>
	<path class="st4" d="M396.4,591.2c0,3.9-3.2,7.1-7.1,7.1h-22.7c-3.9,0-7.1-3.2-7.1-7.1v-28.3c0-3.9,3.2-7.1,7.1-7.1h22.7
		c3.9,0,7.1,3.2,7.1,7.1V591.2z"/>
	<path class="st4" d="M446.5,591.2c0,3.9-3.7,7.1-8.2,7.1h-26.2c-4.5,0-8.2-3.2-8.2-7.1v-28.3c0-3.9,3.7-7.1,8.2-7.1h26.2
		c4.5,0,8.2,3.2,8.2,7.1V591.2z"/>
	<path class="st4" d="M490.9,591.2c0,3.9-3.2,7.1-7.1,7.1h-22.7c-3.9,0-7.1-3.2-7.1-7.1v-28.3c0-3.9,3.2-7.1,7.1-7.1h22.7
		c3.9,0,7.1,3.2,7.1,7.1V591.2z"/>
	<path class="st4" d="M538.1,591.2c0,3.9-3.2,7.1-7.1,7.1h-22.7c-3.9,0-7.1-3.2-7.1-7.1v-28.3c0-3.9,3.2-7.1,7.1-7.1H531
		c3.9,0,7.1,3.2,7.1,7.1V591.2z"/>
	<path class="st4" d="M585.4,591.2c0,3.9-3.2,7.1-7.1,7.1h-22.7c-3.9,0-7.1-3.2-7.1-7.1v-28.3c0-3.9,3.2-7.1,7.1-7.1h22.7
		c3.9,0,7.1,3.2,7.1,7.1V591.2z"/>
	<path class="st4" d="M632.6,591.2c0,3.9-3.2,7.1-7.1,7.1h-22.7c-3.9,0-7.1-3.2-7.1-7.1v-28.3c0-3.9,3.2-7.1,7.1-7.1h22.7
		c3.9,0,7.1,3.2,7.1,7.1V591.2z"/>
	<path class="st4" d="M679.8,591.2c0,3.9-3.2,7.1-7.1,7.1h-22.7c-3.9,0-7.1-3.2-7.1-7.1v-28.3c0-3.9,3.2-7.1,7.1-7.1h22.7
		c3.9,0,7.1,3.2,7.1,7.1V591.2z"/>
	<path class="st4" d="M207.4,643.7c0,3.9-3.2,7.1-7.1,7.1h-22.7c-3.9,0-7.1-3.2-7.1-7.1v-28.3c0-3.9,3.2-7.1,7.1-7.1h22.7
		c3.9,0,7.1,3.2,7.1,7.1V643.7z"/>
	<path class="st4" d="M254.6,643.7c0,3.9-3.2,7.1-7.1,7.1h-22.7c-3.9,0-7.1-3.2-7.1-7.1v-28.3c0-3.9,3.2-7.1,7.1-7.1h22.7
		c3.9,0,7.1,3.2,7.1,7.1V643.7z"/>
	<path class="st4" d="M301.9,643.7c0,3.9-3.2,7.1-7.1,7.1h-22.7c-3.9,0-7.1-3.2-7.1-7.1v-28.3c0-3.9,3.2-7.1,7.1-7.1h22.7
		c3.9,0,7.1,3.2,7.1,7.1V643.7z"/>
	<path class="st4" d="M349.1,643.7c0,3.9-3.2,7.1-7.1,7.1h-22.7c-3.9,0-7.1-3.2-7.1-7.1v-28.3c0-3.9,3.2-7.1,7.1-7.1H342
		c3.9,0,7.1,3.2,7.1,7.1V643.7z"/>
	<path class="st4" d="M396.4,643.7c0,3.9-3.2,7.1-7.1,7.1h-22.7c-3.9,0-7.1-3.2-7.1-7.1v-28.3c0-3.9,3.2-7.1,7.1-7.1h22.7
		c3.9,0,7.1,3.2,7.1,7.1V643.7z"/>
	<path class="st4" d="M443.6,643.7c0,3.9-3.2,7.1-7.1,7.1h-22.7c-3.9,0-7.1-3.2-7.1-7.1v-28.3c0-3.9,3.2-7.1,7.1-7.1h22.7
		c3.9,0,7.1,3.2,7.1,7.1V643.7z"/>
	<path class="st4" d="M490.9,643.7c0,3.9-3.2,7.1-7.1,7.1h-22.7c-3.9,0-7.1-3.2-7.1-7.1v-28.3c0-3.9,3.2-7.1,7.1-7.1h22.7
		c3.9,0,7.1,3.2,7.1,7.1V643.7z"/>
	<path class="st4" d="M538.1,643.7c0,3.9-3.2,7.1-7.1,7.1h-22.7c-3.9,0-7.1-3.2-7.1-7.1v-28.3c0-3.9,3.2-7.1,7.1-7.1H531
		c3.9,0,7.1,3.2,7.1,7.1V643.7z"/>
	<path class="st4" d="M585.4,643.7c0,3.9-3.2,7.1-7.1,7.1h-22.7c-3.9,0-7.1-3.2-7.1-7.1v-28.3c0-3.9,3.2-7.1,7.1-7.1h22.7
		c3.9,0,7.1,3.2,7.1,7.1V643.7z"/>
	<path class="st4" d="M632.6,643.7c0,3.9-3.2,7.1-7.1,7.1h-22.7c-3.9,0-7.1-3.2-7.1-7.1v-28.3c0-3.9,3.2-7.1,7.1-7.1h22.7
		c3.9,0,7.1,3.2,7.1,7.1V643.7z"/>
	<path class="st4" d="M679.8,643.7c0,3.9-3.2,7.1-7.1,7.1h-22.7c-3.9,0-7.1-3.2-7.1-7.1v-28.3c0-3.9,3.2-7.1,7.1-7.1h22.7
		c3.9,0,7.1,3.2,7.1,7.1V643.7z"/>
	<path class="st4" d="M207.4,696.2c0,3.9-3.2,7.1-7.1,7.1h-22.7c-3.9,0-7.1-3.2-7.1-7.1v-28.3c0-3.9,3.2-7.1,7.1-7.1h22.7
		c3.9,0,7.1,3.2,7.1,7.1V696.2z"/>
	<path class="st4" d="M254.6,696.2c0,3.9-3.2,7.1-7.1,7.1h-22.7c-3.9,0-7.1-3.2-7.1-7.1v-28.3c0-3.9,3.2-7.1,7.1-7.1h22.7
		c3.9,0,7.1,3.2,7.1,7.1V696.2z"/>
	<path class="st4" d="M301.9,696.2c0,3.9-3.2,7.1-7.1,7.1h-22.7c-3.9,0-7.1-3.2-7.1-7.1v-28.3c0-3.9,3.2-7.1,7.1-7.1h22.7
		c3.9,0,7.1,3.2,7.1,7.1V696.2z"/>
	<path class="st4" d="M349.1,696.2c0,3.9-3.2,7.1-7.1,7.1h-22.7c-3.9,0-7.1-3.2-7.1-7.1v-28.3c0-3.9,3.2-7.1,7.1-7.1H342
		c3.9,0,7.1,3.2,7.1,7.1V696.2z"/>
	<path class="st4" d="M396.4,696.2c0,3.9-3.2,7.1-7.1,7.1h-22.7c-3.9,0-7.1-3.2-7.1-7.1v-28.3c0-3.9,3.2-7.1,7.1-7.1h22.7
		c3.9,0,7.1,3.2,7.1,7.1V696.2z"/>
	<path class="st4" d="M443.6,696.2c0,3.9-3.2,7.1-7.1,7.1h-22.7c-3.9,0-7.1-3.2-7.1-7.1v-28.3c0-3.9,3.2-7.1,7.1-7.1h22.7
		c3.9,0,7.1,3.2,7.1,7.1V696.2z"/>
	<path class="st4" d="M490.9,696.2c0,3.9-3.2,7.1-7.1,7.1h-22.7c-3.9,0-7.1-3.2-7.1-7.1v-28.3c0-3.9,3.2-7.1,7.1-7.1h22.7
		c3.9,0,7.1,3.2,7.1,7.1V696.2z"/>
	<path class="st4" d="M538.1,696.2c0,3.9-3.2,7.1-7.1,7.1h-22.7c-3.9,0-7.1-3.2-7.1-7.1v-28.3c0-3.9,3.2-7.1,7.1-7.1H531
		c3.9,0,7.1,3.2,7.1,7.1V696.2z"/>
	<path class="st4" d="M372.4,764.2c0,3.9-3.2,7.1-7.1,7.1h-22.7c-3.9,0-7.1-3.2-7.1-7.1v-28.3c0-3.9,3.2-7.1,7.1-7.1h22.7
		c3.9,0,7.1,3.2,7.1,7.1V764.2z"/>
	<path class="st4" d="M419.6,764.2c0,3.9-3.2,7.1-7.1,7.1h-22.7c-3.9,0-7.1-3.2-7.1-7.1v-28.3c0-3.9,3.2-7.1,7.1-7.1h22.7
		c3.9,0,7.1,3.2,7.1,7.1V764.2z"/>
	<path class="st4" d="M466.9,764.2c0,3.9-3.2,7.1-7.1,7.1h-22.7c-3.9,0-7.1-3.2-7.1-7.1v-28.3c0-3.9,3.2-7.1,7.1-7.1h22.7
		c3.9,0,7.1,3.2,7.1,7.1V764.2z"/>
	<path class="st4" d="M514.1,764.2c0,3.9-3.2,7.1-7.1,7.1h-22.7c-3.9,0-7.1-3.2-7.1-7.1v-28.3c0-3.9,3.2-7.1,7.1-7.1H507
		c3.9,0,7.1,3.2,7.1,7.1V764.2z"/>
	<path class="st4" d="M585.4,696.2c0,3.9-3.2,7.1-7.1,7.1h-22.7c-3.9,0-7.1-3.2-7.1-7.1v-28.3c0-3.9,3.2-7.1,7.1-7.1h22.7
		c3.9,0,7.1,3.2,7.1,7.1V696.2z"/>
	<path class="st4" d="M632.6,696.2c0,3.9-3.2,7.1-7.1,7.1h-22.7c-3.9,0-7.1-3.2-7.1-7.1v-28.3c0-3.9,3.2-7.1,7.1-7.1h22.7
		c3.9,0,7.1,3.2,7.1,7.1V696.2z"/>
	<path class="st4" d="M679.8,696.2c0,3.9-3.2,7.1-7.1,7.1h-22.7c-3.9,0-7.1-3.2-7.1-7.1v-28.3c0-3.9,3.2-7.1,7.1-7.1h22.7
		c3.9,0,7.1,3.2,7.1,7.1V696.2z"/>
</g>
<rect x="70.9" y="85" class="st5" width="708.7" height="708.7"/>
</svg>
