<?xml version="1.0" encoding="utf-8"?>
<!-- Generator: Adobe Illustrator 15.1.0, SVG Export Plug-In . SVG Version: 6.00 Build 0)  -->
<!DOCTYPE svg PUBLIC "-//W3C//DTD SVG 1.1//EN" "http://www.w3.org/Graphics/SVG/1.1/DTD/svg11.dtd">
<svg version="1.1" id="Ebene_1" xmlns="http://www.w3.org/2000/svg" xmlns:xlink="http://www.w3.org/1999/xlink" x="0px" y="0px"
	 width="2834.649px" height="1700.789px" viewBox="0 0 2834.649 1700.789" enable-background="new 0 0 2834.649 1700.789"
	 xml:space="preserve">
<g>
	
		<rect x="69.449" y="779.527" fill="none" stroke="#FF0000" stroke-width="0.1" stroke-miterlimit="10" width="87.874" height="170.079"/>
	<circle fill="none" stroke="#FF0000" stroke-width="0.1" stroke-miterlimit="10" cx="113.385" cy="1091.337" r="42.52"/>
	<path fill="none" stroke="#FF0000" stroke-width="0.1" stroke-miterlimit="10" d="M127.559,595.275H99.212
		c-15.591,0-28.347-12.756-28.347-28.347v-85.039c0-15.591,12.756-28.346,28.347-28.346h28.346
		c15.593,0,28.349,12.755,28.349,28.346v85.039C155.906,582.519,143.149,595.275,127.559,595.275z"/>
	
		<rect x="1033.228" y="779.527" fill="none" stroke="#FF0000" stroke-width="0.1" stroke-miterlimit="10" width="87.875" height="170.079"/>
	<circle fill="none" stroke="#FF0000" stroke-width="0.1" stroke-miterlimit="10" cx="1077.165" cy="1091.337" r="42.52"/>
	<path fill="none" stroke="#FF0000" stroke-width="0.1" stroke-miterlimit="10" d="M1062.991,595.275h28.347
		c15.591,0,28.347-12.756,28.347-28.347v-85.039c0-15.591-12.756-28.346-28.347-28.346h-28.347
		c-15.59,0-28.346,12.755-28.346,28.346v85.039C1034.646,582.519,1047.401,595.275,1062.991,595.275z"/>
	<g>
		<path fill="none" stroke="#FF0000" stroke-width="0.1" d="M242.019,294.42c-1.559,0-2.834-1.275-2.834-2.835v-17.009
			c0-1.559,1.275-2.835,2.834-2.835h2.795v-8.963c0-7.828-6.345-14.173-14.173-14.173h-36.85c-7.828,0-14.173,6.345-14.173,14.173
			v8.963h2.796c1.559,0,2.834,1.276,2.834,2.835v17.009c0,1.56-1.275,2.835-2.834,2.835h-2.796v8.963
			c0,7.828,6.345,14.174,14.173,14.174h36.85c7.828,0,14.173-6.346,14.173-14.174v-8.963H242.019z"/>
		<path fill="none" stroke="#FF0000" stroke-width="0.1" d="M318.631,294.42c-1.559,0-2.834-1.275-2.834-2.835v-17.009
			c0-1.559,1.275-2.835,2.834-2.835h2.795v-8.963c0-7.828-6.345-14.173-14.173-14.173h-36.85c-7.828,0-14.174,6.345-14.174,14.173
			v8.963h2.797c1.559,0,2.834,1.276,2.834,2.835v17.009c0,1.56-1.275,2.835-2.834,2.835h-2.797v8.963
			c0,7.828,6.346,14.174,14.174,14.174h36.85c7.828,0,14.173-6.346,14.173-14.174v-8.963H318.631z"/>
		<path fill="none" stroke="#FF0000" stroke-width="0.1" d="M395.243,294.42c-1.559,0-2.835-1.275-2.835-2.835v-17.009
			c0-1.559,1.276-2.835,2.835-2.835h2.795v-8.963c0-7.828-6.345-14.173-14.173-14.173h-36.853c-7.826,0-14.173,6.345-14.173,14.173
			v8.963h2.797c1.561,0,2.834,1.276,2.834,2.835v17.009c0,1.56-1.273,2.835-2.834,2.835h-2.797v8.963
			c0,7.828,6.347,14.174,14.173,14.174h36.853c7.828,0,14.173-6.346,14.173-14.174v-8.963H395.243z"/>
		<path fill="none" stroke="#FF0000" stroke-width="0.1" d="M471.854,294.42c-1.56,0-2.834-1.275-2.834-2.835v-17.009
			c0-1.559,1.274-2.835,2.834-2.835h2.796v-8.963c0-7.828-6.347-14.173-14.173-14.173h-36.852c-7.828,0-14.173,6.345-14.173,14.173
			v8.963h2.796c1.559,0,2.834,1.276,2.834,2.835v17.009c0,1.56-1.274,2.835-2.834,2.835h-2.796v8.963
			c0,7.828,6.345,14.174,14.173,14.174h36.852c7.826,0,14.173-6.346,14.173-14.174v-8.963H471.854z"/>
		<path fill="none" stroke="#FF0000" stroke-width="0.1" d="M548.467,294.42c-1.56,0-2.834-1.275-2.834-2.835v-17.009
			c0-1.559,1.274-2.835,2.834-2.835h2.795v-8.963c0-7.828-6.346-14.173-14.173-14.173h-36.85c-7.828,0-14.174,6.345-14.174,14.173
			v8.963h2.797c1.559,0,2.834,1.276,2.834,2.835v17.009c0,1.56-1.275,2.835-2.834,2.835h-2.797v8.963
			c0,7.828,6.346,14.174,14.174,14.174h36.85c7.827,0,14.173-6.346,14.173-14.174v-8.963H548.467z"/>
		<path fill="none" stroke="#FF0000" stroke-width="0.1" d="M625.078,294.42c-1.56,0-2.834-1.275-2.834-2.835v-17.009
			c0-1.559,1.274-2.835,2.834-2.835h2.796v-8.963c0-7.828-6.346-14.173-14.173-14.173h-36.851c-7.828,0-14.175,6.345-14.175,14.173
			v8.963h2.797c1.56,0,2.834,1.276,2.834,2.835v17.009c0,1.56-1.274,2.835-2.834,2.835h-2.797v8.963
			c0,7.828,6.347,14.174,14.175,14.174h36.851c7.827,0,14.173-6.346,14.173-14.174v-8.963H625.078z"/>
		<path fill="none" stroke="#FF0000" stroke-width="0.1" d="M701.69,294.42c-1.561,0-2.836-1.275-2.836-2.835v-17.009
			c0-1.559,1.275-2.835,2.836-2.835h2.795v-8.963c0-7.828-6.347-14.173-14.174-14.173h-36.851c-7.828,0-14.173,6.345-14.173,14.173
			v8.963h2.796c1.56,0,2.834,1.276,2.834,2.835v17.009c0,1.56-1.274,2.835-2.834,2.835h-2.796v8.963
			c0,7.828,6.345,14.174,14.173,14.174h36.851c7.827,0,14.174-6.346,14.174-14.174v-8.963H701.69z"/>
		<path fill="none" stroke="#FF0000" stroke-width="0.1" d="M778.303,294.42c-1.56,0-2.834-1.275-2.834-2.835v-17.009
			c0-1.559,1.274-2.835,2.834-2.835h2.795v-8.963c0-7.828-6.346-14.173-14.173-14.173h-36.851c-7.828,0-14.173,6.345-14.173,14.173
			v8.963h2.796c1.56,0,2.834,1.276,2.834,2.835v17.009c0,1.56-1.274,2.835-2.834,2.835h-2.796v8.963
			c0,7.828,6.345,14.174,14.173,14.174h36.851c7.827,0,14.173-6.346,14.173-14.174v-8.963H778.303z"/>
		<path fill="none" stroke="#FF0000" stroke-width="0.1" d="M854.914,294.42c-1.56,0-2.834-1.275-2.834-2.835v-17.009
			c0-1.559,1.274-2.835,2.834-2.835h2.796v-8.963c0-7.828-6.346-14.173-14.173-14.173h-36.851c-7.828,0-14.175,6.345-14.175,14.173
			v8.963h2.798c1.559,0,2.834,1.276,2.834,2.835v17.009c0,1.56-1.275,2.835-2.834,2.835h-2.798v8.963
			c0,7.828,6.347,14.174,14.175,14.174h36.851c7.827,0,14.173-6.346,14.173-14.174v-8.963H854.914z"/>
		<path fill="none" stroke="#FF0000" stroke-width="0.1" d="M931.526,294.42c-1.561,0-2.836-1.275-2.836-2.835v-17.009
			c0-1.559,1.275-2.835,2.836-2.835h2.795v-8.963c0-7.828-6.346-14.173-14.174-14.173h-36.852c-7.827,0-14.172,6.345-14.172,14.173
			v8.963h2.796c1.56,0,2.834,1.276,2.834,2.835v17.009c0,1.56-1.274,2.835-2.834,2.835h-2.796v8.963
			c0,7.828,6.345,14.174,14.172,14.174h36.852c7.828,0,14.174-6.346,14.174-14.174v-8.963H931.526z"/>
		<path fill="none" stroke="#FF0000" stroke-width="0.1" d="M1008.139,294.42c-1.56,0-2.834-1.275-2.834-2.835v-17.009
			c0-1.559,1.274-2.835,2.834-2.835h2.796v-8.963c0-7.828-6.347-14.173-14.174-14.173H959.91c-7.828,0-14.173,6.345-14.173,14.173
			v8.963h2.796c1.56,0,2.834,1.276,2.834,2.835v17.009c0,1.56-1.274,2.835-2.834,2.835h-2.796v8.963
			c0,7.828,6.345,14.174,14.173,14.174h36.851c7.827,0,14.174-6.346,14.174-14.174v-8.963H1008.139z"/>
		<path fill="none" stroke="#FF0000" stroke-width="0.1" d="M242.019,379.545c-1.559,0-2.834-1.275-2.834-2.835v-17.009
			c0-1.559,1.275-2.835,2.834-2.835h2.795v-8.963c0-7.828-6.345-14.173-14.173-14.173h-36.85c-7.828,0-14.173,6.345-14.173,14.173
			v8.963h2.796c1.559,0,2.834,1.276,2.834,2.835v17.009c0,1.56-1.275,2.835-2.834,2.835h-2.796v8.963
			c0,7.828,6.345,14.173,14.173,14.173h36.85c7.828,0,14.173-6.345,14.173-14.173v-8.963H242.019z"/>
		<path fill="none" stroke="#FF0000" stroke-width="0.1" d="M318.631,379.545c-1.559,0-2.834-1.275-2.834-2.835v-17.009
			c0-1.559,1.275-2.835,2.834-2.835h2.795v-8.963c0-7.828-6.345-14.173-14.173-14.173h-36.85c-7.828,0-14.174,6.345-14.174,14.173
			v8.963h2.797c1.559,0,2.834,1.276,2.834,2.835v17.009c0,1.56-1.275,2.835-2.834,2.835h-2.797v8.963
			c0,7.828,6.346,14.173,14.174,14.173h36.85c7.828,0,14.173-6.345,14.173-14.173v-8.963H318.631z"/>
		<path fill="none" stroke="#FF0000" stroke-width="0.1" d="M395.243,379.545c-1.559,0-2.835-1.275-2.835-2.835v-17.009
			c0-1.559,1.276-2.835,2.835-2.835h2.795v-8.963c0-7.828-6.345-14.173-14.173-14.173h-36.853c-7.826,0-14.173,6.345-14.173,14.173
			v8.963h2.797c1.561,0,2.834,1.276,2.834,2.835v17.009c0,1.56-1.273,2.835-2.834,2.835h-2.797v8.963
			c0,7.828,6.347,14.173,14.173,14.173h36.853c7.828,0,14.173-6.345,14.173-14.173v-8.963H395.243z"/>
		<path fill="none" stroke="#FF0000" stroke-width="0.1" d="M471.854,379.545c-1.56,0-2.834-1.275-2.834-2.835v-17.009
			c0-1.559,1.274-2.835,2.834-2.835h2.796v-8.963c0-7.828-6.347-14.173-14.173-14.173h-36.852c-7.828,0-14.173,6.345-14.173,14.173
			v8.963h2.796c1.559,0,2.834,1.276,2.834,2.835v17.009c0,1.56-1.274,2.835-2.834,2.835h-2.796v8.963
			c0,7.828,6.345,14.173,14.173,14.173h36.852c7.826,0,14.173-6.345,14.173-14.173v-8.963H471.854z"/>
		<path fill="none" stroke="#FF0000" stroke-width="0.1" d="M548.467,379.545c-1.56,0-2.834-1.275-2.834-2.835v-17.009
			c0-1.559,1.274-2.835,2.834-2.835h2.795v-8.963c0-7.828-6.346-14.173-14.173-14.173h-36.85c-7.828,0-14.174,6.345-14.174,14.173
			v8.963h2.797c1.559,0,2.834,1.276,2.834,2.835v17.009c0,1.56-1.275,2.835-2.834,2.835h-2.797v8.963
			c0,7.828,6.346,14.173,14.174,14.173h36.85c7.827,0,14.173-6.345,14.173-14.173v-8.963H548.467z"/>
		<path fill="none" stroke="#FF0000" stroke-width="0.1" d="M625.078,379.545c-1.56,0-2.834-1.275-2.834-2.835v-17.009
			c0-1.559,1.274-2.835,2.834-2.835h2.796v-8.963c0-7.828-6.346-14.173-14.173-14.173h-36.851c-7.828,0-14.175,6.345-14.175,14.173
			v8.963h2.797c1.56,0,2.834,1.276,2.834,2.835v17.009c0,1.56-1.274,2.835-2.834,2.835h-2.797v8.963
			c0,7.828,6.347,14.173,14.175,14.173h36.851c7.827,0,14.173-6.345,14.173-14.173v-8.963H625.078z"/>
		<path fill="none" stroke="#FF0000" stroke-width="0.1" d="M701.69,379.545c-1.561,0-2.836-1.275-2.836-2.835v-17.009
			c0-1.559,1.275-2.835,2.836-2.835h2.795v-8.963c0-7.828-6.347-14.173-14.174-14.173h-36.851c-7.828,0-14.173,6.345-14.173,14.173
			v8.963h2.796c1.56,0,2.834,1.276,2.834,2.835v17.009c0,1.56-1.274,2.835-2.834,2.835h-2.796v8.963
			c0,7.828,6.345,14.173,14.173,14.173h36.851c7.827,0,14.174-6.345,14.174-14.173v-8.963H701.69z"/>
		<path fill="none" stroke="#FF0000" stroke-width="0.1" d="M778.303,379.545c-1.56,0-2.834-1.275-2.834-2.835v-17.009
			c0-1.559,1.274-2.835,2.834-2.835h2.795v-8.963c0-7.828-6.346-14.173-14.173-14.173h-36.851c-7.828,0-14.173,6.345-14.173,14.173
			v8.963h2.796c1.56,0,2.834,1.276,2.834,2.835v17.009c0,1.56-1.274,2.835-2.834,2.835h-2.796v8.963
			c0,7.828,6.345,14.173,14.173,14.173h36.851c7.827,0,14.173-6.345,14.173-14.173v-8.963H778.303z"/>
		<path fill="none" stroke="#FF0000" stroke-width="0.1" d="M854.914,379.545c-1.56,0-2.834-1.275-2.834-2.835v-17.009
			c0-1.559,1.274-2.835,2.834-2.835h2.796v-8.963c0-7.828-6.346-14.173-14.173-14.173h-36.851c-7.828,0-14.175,6.345-14.175,14.173
			v8.963h2.798c1.559,0,2.834,1.276,2.834,2.835v17.009c0,1.56-1.275,2.835-2.834,2.835h-2.798v8.963
			c0,7.828,6.347,14.173,14.175,14.173h36.851c7.827,0,14.173-6.345,14.173-14.173v-8.963H854.914z"/>
		<path fill="none" stroke="#FF0000" stroke-width="0.1" d="M931.526,379.545c-1.561,0-2.836-1.275-2.836-2.835v-17.009
			c0-1.559,1.275-2.835,2.836-2.835h2.795v-8.963c0-7.828-6.346-14.173-14.174-14.173h-36.852c-7.827,0-14.172,6.345-14.172,14.173
			v8.963h2.796c1.56,0,2.834,1.276,2.834,2.835v17.009c0,1.56-1.274,2.835-2.834,2.835h-2.796v8.963
			c0,7.828,6.345,14.173,14.172,14.173h36.852c7.828,0,14.174-6.345,14.174-14.173v-8.963H931.526z"/>
		<path fill="none" stroke="#FF0000" stroke-width="0.1" d="M1008.139,379.545c-1.56,0-2.834-1.275-2.834-2.835v-17.009
			c0-1.559,1.274-2.835,2.834-2.835h2.796v-8.963c0-7.828-6.347-14.173-14.174-14.173H959.91c-7.828,0-14.173,6.345-14.173,14.173
			v8.963h2.796c1.56,0,2.834,1.276,2.834,2.835v17.009c0,1.56-1.274,2.835-2.834,2.835h-2.796v8.963
			c0,7.828,6.345,14.173,14.173,14.173h36.851c7.827,0,14.174-6.345,14.174-14.173v-8.963H1008.139z"/>
		<path fill="none" stroke="#FF0000" stroke-width="0.1" d="M242.019,464.669c-1.559,0-2.834-1.276-2.834-2.834v-17.011
			c0-1.559,1.275-2.834,2.834-2.834h2.795v-8.963c0-7.828-6.345-14.173-14.173-14.173h-36.85c-7.828,0-14.173,6.345-14.173,14.173
			v8.963h2.796c1.559,0,2.834,1.275,2.834,2.834v17.011c0,1.558-1.275,2.834-2.834,2.834h-2.796v8.963
			c0,7.828,6.345,14.173,14.173,14.173h36.85c7.828,0,14.173-6.345,14.173-14.173v-8.963H242.019z"/>
		<path fill="none" stroke="#FF0000" stroke-width="0.1" d="M318.631,464.669c-1.559,0-2.834-1.276-2.834-2.834v-17.011
			c0-1.559,1.275-2.834,2.834-2.834h2.795v-8.963c0-7.828-6.345-14.173-14.173-14.173h-36.85c-7.828,0-14.174,6.345-14.174,14.173
			v8.963h2.797c1.559,0,2.834,1.275,2.834,2.834v17.011c0,1.558-1.275,2.834-2.834,2.834h-2.797v8.963
			c0,7.828,6.346,14.173,14.174,14.173h36.85c7.828,0,14.173-6.345,14.173-14.173v-8.963H318.631z"/>
		<path fill="none" stroke="#FF0000" stroke-width="0.1" d="M395.243,464.669c-1.559,0-2.835-1.276-2.835-2.834v-17.011
			c0-1.559,1.276-2.834,2.835-2.834h2.795v-8.963c0-7.828-6.345-14.173-14.173-14.173h-36.853c-7.826,0-14.173,6.345-14.173,14.173
			v8.963h2.797c1.561,0,2.834,1.275,2.834,2.834v17.011c0,1.558-1.273,2.834-2.834,2.834h-2.797v8.963
			c0,7.828,6.347,14.173,14.173,14.173h36.853c7.828,0,14.173-6.345,14.173-14.173v-8.963H395.243z"/>
		<path fill="none" stroke="#FF0000" stroke-width="0.1" d="M471.854,464.669c-1.56,0-2.834-1.276-2.834-2.834v-17.011
			c0-1.559,1.274-2.834,2.834-2.834h2.796v-8.963c0-7.828-6.347-14.173-14.173-14.173h-36.852c-7.828,0-14.173,6.345-14.173,14.173
			v8.963h2.796c1.559,0,2.834,1.275,2.834,2.834v17.011c0,1.558-1.274,2.834-2.834,2.834h-2.796v8.963
			c0,7.828,6.345,14.173,14.173,14.173h36.852c7.826,0,14.173-6.345,14.173-14.173v-8.963H471.854z"/>
		<path fill="none" stroke="#FF0000" stroke-width="0.1" d="M548.467,464.669c-1.56,0-2.834-1.276-2.834-2.834v-17.011
			c0-1.559,1.274-2.834,2.834-2.834h2.795v-8.963c0-7.828-6.346-14.173-14.173-14.173h-36.85c-7.828,0-14.174,6.345-14.174,14.173
			v8.963h2.797c1.559,0,2.834,1.275,2.834,2.834v17.011c0,1.558-1.275,2.834-2.834,2.834h-2.797v8.963
			c0,7.828,6.346,14.173,14.174,14.173h36.85c7.827,0,14.173-6.345,14.173-14.173v-8.963H548.467z"/>
		<path fill="none" stroke="#FF0000" stroke-width="0.1" d="M625.078,464.669c-1.56,0-2.834-1.276-2.834-2.834v-17.011
			c0-1.559,1.274-2.834,2.834-2.834h2.796v-8.963c0-7.828-6.346-14.173-14.173-14.173h-36.851c-7.828,0-14.175,6.345-14.175,14.173
			v8.963h2.797c1.56,0,2.834,1.275,2.834,2.834v17.011c0,1.558-1.274,2.834-2.834,2.834h-2.797v8.963
			c0,7.828,6.347,14.173,14.175,14.173h36.851c7.827,0,14.173-6.345,14.173-14.173v-8.963H625.078z"/>
		<path fill="none" stroke="#FF0000" stroke-width="0.1" d="M701.69,464.669c-1.561,0-2.836-1.276-2.836-2.834v-17.011
			c0-1.559,1.275-2.834,2.836-2.834h2.795v-8.963c0-7.828-6.347-14.173-14.174-14.173h-36.851c-7.828,0-14.173,6.345-14.173,14.173
			v8.963h2.796c1.56,0,2.834,1.275,2.834,2.834v17.011c0,1.558-1.274,2.834-2.834,2.834h-2.796v8.963
			c0,7.828,6.345,14.173,14.173,14.173h36.851c7.827,0,14.174-6.345,14.174-14.173v-8.963H701.69z"/>
		<path fill="none" stroke="#FF0000" stroke-width="0.1" d="M778.303,464.669c-1.56,0-2.834-1.276-2.834-2.834v-17.011
			c0-1.559,1.274-2.834,2.834-2.834h2.795v-8.963c0-7.828-6.346-14.173-14.173-14.173h-36.851c-7.828,0-14.173,6.345-14.173,14.173
			v8.963h2.796c1.56,0,2.834,1.275,2.834,2.834v17.011c0,1.558-1.274,2.834-2.834,2.834h-2.796v8.963
			c0,7.828,6.345,14.173,14.173,14.173h36.851c7.827,0,14.173-6.345,14.173-14.173v-8.963H778.303z"/>
		<path fill="none" stroke="#FF0000" stroke-width="0.1" d="M854.914,464.669c-1.56,0-2.834-1.276-2.834-2.834v-17.011
			c0-1.559,1.274-2.834,2.834-2.834h2.796v-8.963c0-7.828-6.346-14.173-14.173-14.173h-36.851c-7.828,0-14.175,6.345-14.175,14.173
			v8.963h2.798c1.559,0,2.834,1.275,2.834,2.834v17.011c0,1.558-1.275,2.834-2.834,2.834h-2.798v8.963
			c0,7.828,6.347,14.173,14.175,14.173h36.851c7.827,0,14.173-6.345,14.173-14.173v-8.963H854.914z"/>
		<path fill="none" stroke="#FF0000" stroke-width="0.1" d="M931.526,464.669c-1.561,0-2.836-1.276-2.836-2.834v-17.011
			c0-1.559,1.275-2.834,2.836-2.834h2.795v-8.963c0-7.828-6.346-14.173-14.174-14.173h-36.852c-7.827,0-14.172,6.345-14.172,14.173
			v8.963h2.796c1.56,0,2.834,1.275,2.834,2.834v17.011c0,1.558-1.274,2.834-2.834,2.834h-2.796v8.963
			c0,7.828,6.345,14.173,14.172,14.173h36.852c7.828,0,14.174-6.345,14.174-14.173v-8.963H931.526z"/>
		<path fill="none" stroke="#FF0000" stroke-width="0.1" d="M1008.139,464.669c-1.56,0-2.834-1.276-2.834-2.834v-17.011
			c0-1.559,1.274-2.834,2.834-2.834h2.796v-8.963c0-7.828-6.347-14.173-14.174-14.173H959.91c-7.828,0-14.173,6.345-14.173,14.173
			v8.963h2.796c1.56,0,2.834,1.275,2.834,2.834v17.011c0,1.558-1.274,2.834-2.834,2.834h-2.796v8.963
			c0,7.828,6.345,14.173,14.173,14.173h36.851c7.827,0,14.174-6.345,14.174-14.173v-8.963H1008.139z"/>
		<path fill="none" stroke="#FF0000" stroke-width="0.1" d="M242.019,549.794c-1.559,0-2.834-1.276-2.834-2.836v-17.009
			c0-1.559,1.275-2.834,2.834-2.834h2.795v-8.964c0-7.827-6.345-14.172-14.173-14.172h-36.85c-7.828,0-14.173,6.345-14.173,14.172
			v8.964h2.796c1.559,0,2.834,1.275,2.834,2.834v17.009c0,1.56-1.275,2.836-2.834,2.836h-2.796v8.963
			c0,7.828,6.345,14.173,14.173,14.173h36.85c7.828,0,14.173-6.345,14.173-14.173v-8.963H242.019z"/>
		<path fill="none" stroke="#FF0000" stroke-width="0.1" d="M318.631,549.794c-1.559,0-2.834-1.276-2.834-2.836v-17.009
			c0-1.559,1.275-2.834,2.834-2.834h2.795v-8.964c0-7.827-6.345-14.172-14.173-14.172h-36.85c-7.828,0-14.174,6.345-14.174,14.172
			v8.964h2.797c1.559,0,2.834,1.275,2.834,2.834v17.009c0,1.56-1.275,2.836-2.834,2.836h-2.797v8.963
			c0,7.828,6.346,14.173,14.174,14.173h36.85c7.828,0,14.173-6.345,14.173-14.173v-8.963H318.631z"/>
		<path fill="none" stroke="#FF0000" stroke-width="0.1" d="M395.243,549.794c-1.559,0-2.835-1.276-2.835-2.836v-17.009
			c0-1.559,1.276-2.834,2.835-2.834h2.795v-8.964c0-7.827-6.345-14.172-14.173-14.172h-36.853c-7.826,0-14.173,6.345-14.173,14.172
			v8.964h2.797c1.561,0,2.834,1.275,2.834,2.834v17.009c0,1.56-1.273,2.836-2.834,2.836h-2.797v8.963
			c0,7.828,6.347,14.173,14.173,14.173h36.853c7.828,0,14.173-6.345,14.173-14.173v-8.963H395.243z"/>
		<path fill="none" stroke="#FF0000" stroke-width="0.1" d="M471.854,549.794c-1.56,0-2.834-1.276-2.834-2.836v-17.009
			c0-1.559,1.274-2.834,2.834-2.834h2.796v-8.964c0-7.827-6.347-14.172-14.173-14.172h-36.852c-7.828,0-14.173,6.345-14.173,14.172
			v8.964h2.796c1.559,0,2.834,1.275,2.834,2.834v17.009c0,1.56-1.274,2.836-2.834,2.836h-2.796v8.963
			c0,7.828,6.345,14.173,14.173,14.173h36.852c7.826,0,14.173-6.345,14.173-14.173v-8.963H471.854z"/>
		<path fill="none" stroke="#FF0000" stroke-width="0.1" d="M548.467,549.794c-1.56,0-2.834-1.276-2.834-2.836v-17.009
			c0-1.559,1.274-2.834,2.834-2.834h2.795v-8.964c0-7.827-6.346-14.172-14.173-14.172h-36.85c-7.828,0-14.174,6.345-14.174,14.172
			v8.964h2.797c1.559,0,2.834,1.275,2.834,2.834v17.009c0,1.56-1.275,2.836-2.834,2.836h-2.797v8.963
			c0,7.828,6.346,14.173,14.174,14.173h36.85c7.827,0,14.173-6.345,14.173-14.173v-8.963H548.467z"/>
		<path fill="none" stroke="#FF0000" stroke-width="0.1" d="M625.078,549.794c-1.56,0-2.834-1.276-2.834-2.836v-17.009
			c0-1.559,1.274-2.834,2.834-2.834h2.796v-8.964c0-7.827-6.346-14.172-14.173-14.172h-36.851c-7.828,0-14.175,6.345-14.175,14.172
			v8.964h2.797c1.56,0,2.834,1.275,2.834,2.834v17.009c0,1.56-1.274,2.836-2.834,2.836h-2.797v8.963
			c0,7.828,6.347,14.173,14.175,14.173h36.851c7.827,0,14.173-6.345,14.173-14.173v-8.963H625.078z"/>
		<path fill="none" stroke="#FF0000" stroke-width="0.1" d="M701.69,549.794c-1.561,0-2.836-1.276-2.836-2.836v-17.009
			c0-1.559,1.275-2.834,2.836-2.834h2.795v-8.964c0-7.827-6.347-14.172-14.174-14.172h-36.851c-7.828,0-14.173,6.345-14.173,14.172
			v8.964h2.796c1.56,0,2.834,1.275,2.834,2.834v17.009c0,1.56-1.274,2.836-2.834,2.836h-2.796v8.963
			c0,7.828,6.345,14.173,14.173,14.173h36.851c7.827,0,14.174-6.345,14.174-14.173v-8.963H701.69z"/>
		<path fill="none" stroke="#FF0000" stroke-width="0.1" d="M778.303,549.794c-1.56,0-2.834-1.276-2.834-2.836v-17.009
			c0-1.559,1.274-2.834,2.834-2.834h2.795v-8.964c0-7.827-6.346-14.172-14.173-14.172h-36.851c-7.828,0-14.173,6.345-14.173,14.172
			v8.964h2.796c1.56,0,2.834,1.275,2.834,2.834v17.009c0,1.56-1.274,2.836-2.834,2.836h-2.796v8.963
			c0,7.828,6.345,14.173,14.173,14.173h36.851c7.827,0,14.173-6.345,14.173-14.173v-8.963H778.303z"/>
		<path fill="none" stroke="#FF0000" stroke-width="0.1" d="M854.914,549.794c-1.56,0-2.834-1.276-2.834-2.836v-17.009
			c0-1.559,1.274-2.834,2.834-2.834h2.796v-8.964c0-7.827-6.346-14.172-14.173-14.172h-36.851c-7.828,0-14.175,6.345-14.175,14.172
			v8.964h2.798c1.559,0,2.834,1.275,2.834,2.834v17.009c0,1.56-1.275,2.836-2.834,2.836h-2.798v8.963
			c0,7.828,6.347,14.173,14.175,14.173h36.851c7.827,0,14.173-6.345,14.173-14.173v-8.963H854.914z"/>
		<path fill="none" stroke="#FF0000" stroke-width="0.1" d="M931.526,549.794c-1.561,0-2.836-1.276-2.836-2.836v-17.009
			c0-1.559,1.275-2.834,2.836-2.834h2.795v-8.964c0-7.827-6.346-14.172-14.174-14.172h-36.852c-7.827,0-14.172,6.345-14.172,14.172
			v8.964h2.796c1.56,0,2.834,1.275,2.834,2.834v17.009c0,1.56-1.274,2.836-2.834,2.836h-2.796v8.963
			c0,7.828,6.345,14.173,14.172,14.173h36.852c7.828,0,14.174-6.345,14.174-14.173v-8.963H931.526z"/>
		<path fill="none" stroke="#FF0000" stroke-width="0.1" d="M1008.139,549.794c-1.56,0-2.834-1.276-2.834-2.836v-17.009
			c0-1.559,1.274-2.834,2.834-2.834h2.796v-8.964c0-7.827-6.347-14.172-14.174-14.172H959.91c-7.828,0-14.173,6.345-14.173,14.172
			v8.964h2.796c1.56,0,2.834,1.275,2.834,2.834v17.009c0,1.56-1.274,2.836-2.834,2.836h-2.796v8.963
			c0,7.828,6.345,14.173,14.173,14.173h36.851c7.827,0,14.174-6.345,14.174-14.173v-8.963H1008.139z"/>
		<path fill="none" stroke="#FF0000" stroke-width="0.1" d="M242.019,634.917c-1.559,0-2.834-1.273-2.834-2.834v-17.009
			c0-1.559,1.275-2.835,2.834-2.835h2.795v-8.963c0-7.828-6.345-14.173-14.173-14.173h-36.85c-7.828,0-14.173,6.345-14.173,14.173
			v8.963h2.796c1.559,0,2.834,1.276,2.834,2.835v17.009c0,1.561-1.275,2.834-2.834,2.834h-2.796v8.964
			c0,7.827,6.345,14.175,14.173,14.175h36.85c7.828,0,14.173-6.349,14.173-14.175v-8.964H242.019z"/>
		<path fill="none" stroke="#FF0000" stroke-width="0.1" d="M318.631,634.917c-1.559,0-2.834-1.273-2.834-2.834v-17.009
			c0-1.559,1.275-2.835,2.834-2.835h2.795v-8.963c0-7.828-6.345-14.173-14.173-14.173h-36.85c-7.828,0-14.174,6.345-14.174,14.173
			v8.963h2.797c1.559,0,2.834,1.276,2.834,2.835v17.009c0,1.561-1.275,2.834-2.834,2.834h-2.797v8.964
			c0,7.827,6.346,14.175,14.174,14.175h36.85c7.828,0,14.173-6.349,14.173-14.175v-8.964H318.631z"/>
		<path fill="none" stroke="#FF0000" stroke-width="0.1" d="M395.243,634.917c-1.559,0-2.835-1.273-2.835-2.834v-17.009
			c0-1.559,1.276-2.835,2.835-2.835h2.795v-8.963c0-7.828-6.345-14.173-14.173-14.173h-36.853c-7.826,0-14.173,6.345-14.173,14.173
			v8.963h2.797c1.561,0,2.834,1.276,2.834,2.835v17.009c0,1.561-1.273,2.834-2.834,2.834h-2.797v8.964
			c0,7.827,6.347,14.175,14.173,14.175h36.853c7.828,0,14.173-6.349,14.173-14.175v-8.964H395.243z"/>
		<path fill="none" stroke="#FF0000" stroke-width="0.1" d="M471.854,634.917c-1.56,0-2.834-1.273-2.834-2.834v-17.009
			c0-1.559,1.274-2.835,2.834-2.835h2.796v-8.963c0-7.828-6.347-14.173-14.173-14.173h-36.852c-7.828,0-14.173,6.345-14.173,14.173
			v8.963h2.796c1.559,0,2.834,1.276,2.834,2.835v17.009c0,1.561-1.274,2.834-2.834,2.834h-2.796v8.964
			c0,7.827,6.345,14.175,14.173,14.175h36.852c7.826,0,14.173-6.349,14.173-14.175v-8.964H471.854z"/>
		<path fill="none" stroke="#FF0000" stroke-width="0.1" d="M548.467,634.917c-1.56,0-2.834-1.273-2.834-2.834v-17.009
			c0-1.559,1.274-2.835,2.834-2.835h2.795v-8.963c0-7.828-6.346-14.173-14.173-14.173h-36.85c-7.828,0-14.174,6.345-14.174,14.173
			v8.963h2.797c1.559,0,2.834,1.276,2.834,2.835v17.009c0,1.561-1.275,2.834-2.834,2.834h-2.797v8.964
			c0,7.827,6.346,14.175,14.174,14.175h36.85c7.827,0,14.173-6.349,14.173-14.175v-8.964H548.467z"/>
		<path fill="none" stroke="#FF0000" stroke-width="0.1" d="M625.078,634.917c-1.56,0-2.834-1.273-2.834-2.834v-17.009
			c0-1.559,1.274-2.835,2.834-2.835h2.796v-8.963c0-7.828-6.346-14.173-14.173-14.173h-36.851c-7.828,0-14.175,6.345-14.175,14.173
			v8.963h2.797c1.56,0,2.834,1.276,2.834,2.835v17.009c0,1.561-1.274,2.834-2.834,2.834h-2.797v8.964
			c0,7.827,6.347,14.175,14.175,14.175h36.851c7.827,0,14.173-6.349,14.173-14.175v-8.964H625.078z"/>
		<path fill="none" stroke="#FF0000" stroke-width="0.1" d="M701.69,634.917c-1.561,0-2.836-1.273-2.836-2.834v-17.009
			c0-1.559,1.275-2.835,2.836-2.835h2.795v-8.963c0-7.828-6.347-14.173-14.174-14.173h-36.851c-7.828,0-14.173,6.345-14.173,14.173
			v8.963h2.796c1.56,0,2.834,1.276,2.834,2.835v17.009c0,1.561-1.274,2.834-2.834,2.834h-2.796v8.964
			c0,7.827,6.345,14.175,14.173,14.175h36.851c7.827,0,14.174-6.349,14.174-14.175v-8.964H701.69z"/>
		<path fill="none" stroke="#FF0000" stroke-width="0.1" d="M778.303,634.917c-1.56,0-2.834-1.273-2.834-2.834v-17.009
			c0-1.559,1.274-2.835,2.834-2.835h2.795v-8.963c0-7.828-6.346-14.173-14.173-14.173h-36.851c-7.828,0-14.173,6.345-14.173,14.173
			v8.963h2.796c1.56,0,2.834,1.276,2.834,2.835v17.009c0,1.561-1.274,2.834-2.834,2.834h-2.796v8.964
			c0,7.827,6.345,14.175,14.173,14.175h36.851c7.827,0,14.173-6.349,14.173-14.175v-8.964H778.303z"/>
		<path fill="none" stroke="#FF0000" stroke-width="0.1" d="M854.914,634.917c-1.56,0-2.834-1.273-2.834-2.834v-17.009
			c0-1.559,1.274-2.835,2.834-2.835h2.796v-8.963c0-7.828-6.346-14.173-14.173-14.173h-36.851c-7.828,0-14.175,6.345-14.175,14.173
			v8.963h2.798c1.559,0,2.834,1.276,2.834,2.835v17.009c0,1.561-1.275,2.834-2.834,2.834h-2.798v8.964
			c0,7.827,6.347,14.175,14.175,14.175h36.851c7.827,0,14.173-6.349,14.173-14.175v-8.964H854.914z"/>
		<path fill="none" stroke="#FF0000" stroke-width="0.1" d="M931.526,634.917c-1.561,0-2.836-1.273-2.836-2.834v-17.009
			c0-1.559,1.275-2.835,2.836-2.835h2.795v-8.963c0-7.828-6.346-14.173-14.174-14.173h-36.852c-7.827,0-14.172,6.345-14.172,14.173
			v8.963h2.796c1.56,0,2.834,1.276,2.834,2.835v17.009c0,1.561-1.274,2.834-2.834,2.834h-2.796v8.964
			c0,7.827,6.345,14.175,14.172,14.175h36.852c7.828,0,14.174-6.349,14.174-14.175v-8.964H931.526z"/>
		<path fill="none" stroke="#FF0000" stroke-width="0.1" d="M1008.139,634.917c-1.56,0-2.834-1.273-2.834-2.834v-17.009
			c0-1.559,1.274-2.835,2.834-2.835h2.796v-8.963c0-7.828-6.347-14.173-14.174-14.173H959.91c-7.828,0-14.173,6.345-14.173,14.173
			v8.963h2.796c1.56,0,2.834,1.276,2.834,2.835v17.009c0,1.561-1.274,2.834-2.834,2.834h-2.796v8.964
			c0,7.827,6.345,14.175,14.173,14.175h36.851c7.827,0,14.174-6.349,14.174-14.175v-8.964H1008.139z"/>
		<path fill="none" stroke="#FF0000" stroke-width="0.1" d="M242.019,720.042c-1.559,0-2.834-1.274-2.834-2.834v-17.009
			c0-1.56,1.275-2.835,2.834-2.835h2.795V688.4c0-7.827-6.345-14.173-14.173-14.173h-36.85c-7.828,0-14.173,6.346-14.173,14.173
			v8.964h2.796c1.559,0,2.834,1.275,2.834,2.835v17.009c0,1.56-1.275,2.834-2.834,2.834h-2.796v8.964
			c0,7.827,6.345,14.174,14.173,14.174h36.85c7.828,0,14.173-6.347,14.173-14.174v-8.964H242.019z"/>
		<path fill="none" stroke="#FF0000" stroke-width="0.1" d="M318.631,720.042c-1.559,0-2.834-1.274-2.834-2.834v-17.009
			c0-1.56,1.275-2.835,2.834-2.835h2.795V688.4c0-7.827-6.345-14.173-14.173-14.173h-36.85c-7.828,0-14.174,6.346-14.174,14.173
			v8.964h2.797c1.559,0,2.834,1.275,2.834,2.835v17.009c0,1.56-1.275,2.834-2.834,2.834h-2.797v8.964
			c0,7.827,6.346,14.174,14.174,14.174h36.85c7.828,0,14.173-6.347,14.173-14.174v-8.964H318.631z"/>
		<path fill="none" stroke="#FF0000" stroke-width="0.1" d="M395.243,720.042c-1.559,0-2.835-1.274-2.835-2.834v-17.009
			c0-1.56,1.276-2.835,2.835-2.835h2.795V688.4c0-7.827-6.345-14.173-14.173-14.173h-36.853c-7.826,0-14.173,6.346-14.173,14.173
			v8.964h2.797c1.561,0,2.834,1.275,2.834,2.835v17.009c0,1.56-1.273,2.834-2.834,2.834h-2.797v8.964
			c0,7.827,6.347,14.174,14.173,14.174h36.853c7.828,0,14.173-6.347,14.173-14.174v-8.964H395.243z"/>
		<path fill="none" stroke="#FF0000" stroke-width="0.1" d="M471.854,720.042c-1.56,0-2.834-1.274-2.834-2.834v-17.009
			c0-1.56,1.274-2.835,2.834-2.835h2.796V688.4c0-7.827-6.347-14.173-14.173-14.173h-36.852c-7.828,0-14.173,6.346-14.173,14.173
			v8.964h2.796c1.559,0,2.834,1.275,2.834,2.835v17.009c0,1.56-1.274,2.834-2.834,2.834h-2.796v8.964
			c0,7.827,6.345,14.174,14.173,14.174h36.852c7.826,0,14.173-6.347,14.173-14.174v-8.964H471.854z"/>
		<path fill="none" stroke="#FF0000" stroke-width="0.1" d="M548.467,720.042c-1.56,0-2.834-1.274-2.834-2.834v-17.009
			c0-1.56,1.274-2.835,2.834-2.835h2.795V688.4c0-7.827-6.346-14.173-14.173-14.173h-36.85c-7.828,0-14.174,6.346-14.174,14.173
			v8.964h2.797c1.559,0,2.834,1.275,2.834,2.835v17.009c0,1.56-1.275,2.834-2.834,2.834h-2.797v8.964
			c0,7.827,6.346,14.174,14.174,14.174h36.85c7.827,0,14.173-6.347,14.173-14.174v-8.964H548.467z"/>
		<path fill="none" stroke="#FF0000" stroke-width="0.1" d="M625.078,720.042c-1.56,0-2.834-1.274-2.834-2.834v-17.009
			c0-1.56,1.274-2.835,2.834-2.835h2.796V688.4c0-7.827-6.346-14.173-14.173-14.173h-36.851c-7.828,0-14.175,6.346-14.175,14.173
			v8.964h2.797c1.56,0,2.834,1.275,2.834,2.835v17.009c0,1.56-1.274,2.834-2.834,2.834h-2.797v8.964
			c0,7.827,6.347,14.174,14.175,14.174h36.851c7.827,0,14.173-6.347,14.173-14.174v-8.964H625.078z"/>
		<path fill="none" stroke="#FF0000" stroke-width="0.1" d="M701.69,720.042c-1.561,0-2.836-1.274-2.836-2.834v-17.009
			c0-1.56,1.275-2.835,2.836-2.835h2.795V688.4c0-7.827-6.347-14.173-14.174-14.173h-36.851c-7.828,0-14.173,6.346-14.173,14.173
			v8.964h2.796c1.56,0,2.834,1.275,2.834,2.835v17.009c0,1.56-1.274,2.834-2.834,2.834h-2.796v8.964
			c0,7.827,6.345,14.174,14.173,14.174h36.851c7.827,0,14.174-6.347,14.174-14.174v-8.964H701.69z"/>
		<path fill="none" stroke="#FF0000" stroke-width="0.1" d="M778.303,720.042c-1.56,0-2.834-1.274-2.834-2.834v-17.009
			c0-1.56,1.274-2.835,2.834-2.835h2.795V688.4c0-7.827-6.346-14.173-14.173-14.173h-36.851c-7.828,0-14.173,6.346-14.173,14.173
			v8.964h2.796c1.56,0,2.834,1.275,2.834,2.835v17.009c0,1.56-1.274,2.834-2.834,2.834h-2.796v8.964
			c0,7.827,6.345,14.174,14.173,14.174h36.851c7.827,0,14.173-6.347,14.173-14.174v-8.964H778.303z"/>
		<path fill="none" stroke="#FF0000" stroke-width="0.1" d="M854.914,720.042c-1.56,0-2.834-1.274-2.834-2.834v-17.009
			c0-1.56,1.274-2.835,2.834-2.835h2.796V688.4c0-7.827-6.346-14.173-14.173-14.173h-36.851c-7.828,0-14.175,6.346-14.175,14.173
			v8.964h2.798c1.559,0,2.834,1.275,2.834,2.835v17.009c0,1.56-1.275,2.834-2.834,2.834h-2.798v8.964
			c0,7.827,6.347,14.174,14.175,14.174h36.851c7.827,0,14.173-6.347,14.173-14.174v-8.964H854.914z"/>
		<path fill="none" stroke="#FF0000" stroke-width="0.1" d="M931.526,720.042c-1.561,0-2.836-1.274-2.836-2.834v-17.009
			c0-1.56,1.275-2.835,2.836-2.835h2.795V688.4c0-7.827-6.346-14.173-14.174-14.173h-36.852c-7.827,0-14.172,6.346-14.172,14.173
			v8.964h2.796c1.56,0,2.834,1.275,2.834,2.835v17.009c0,1.56-1.274,2.834-2.834,2.834h-2.796v8.964
			c0,7.827,6.345,14.174,14.172,14.174h36.852c7.828,0,14.174-6.347,14.174-14.174v-8.964H931.526z"/>
		<path fill="none" stroke="#FF0000" stroke-width="0.1" d="M1008.139,720.042c-1.56,0-2.834-1.274-2.834-2.834v-17.009
			c0-1.56,1.274-2.835,2.834-2.835h2.796V688.4c0-7.827-6.347-14.173-14.174-14.173H959.91c-7.828,0-14.173,6.346-14.173,14.173
			v8.964h2.796c1.56,0,2.834,1.275,2.834,2.835v17.009c0,1.56-1.274,2.834-2.834,2.834h-2.796v8.964
			c0,7.827,6.345,14.174,14.173,14.174h36.851c7.827,0,14.174-6.347,14.174-14.174v-8.964H1008.139z"/>
		<path fill="none" stroke="#FF0000" stroke-width="0.1" d="M242.019,805.167c-1.559,0-2.834-1.274-2.834-2.834v-17.01
			c0-1.559,1.275-2.835,2.834-2.835h2.795v-8.963c0-7.828-6.345-14.173-14.173-14.173h-36.85c-7.828,0-14.173,6.345-14.173,14.173
			v8.963h2.796c1.559,0,2.834,1.276,2.834,2.835v17.01c0,1.56-1.275,2.834-2.834,2.834h-2.796v8.963
			c0,7.828,6.345,14.174,14.173,14.174h36.85c7.828,0,14.173-6.346,14.173-14.174v-8.963H242.019z"/>
		<path fill="none" stroke="#FF0000" stroke-width="0.1" d="M318.631,805.167c-1.559,0-2.834-1.274-2.834-2.834v-17.01
			c0-1.559,1.275-2.835,2.834-2.835h2.795v-8.963c0-7.828-6.345-14.173-14.173-14.173h-36.85c-7.828,0-14.174,6.345-14.174,14.173
			v8.963h2.797c1.559,0,2.834,1.276,2.834,2.835v17.01c0,1.56-1.275,2.834-2.834,2.834h-2.797v8.963
			c0,7.828,6.346,14.174,14.174,14.174h36.85c7.828,0,14.173-6.346,14.173-14.174v-8.963H318.631z"/>
		<path fill="none" stroke="#FF0000" stroke-width="0.1" d="M395.243,805.167c-1.559,0-2.835-1.274-2.835-2.834v-17.01
			c0-1.559,1.276-2.835,2.835-2.835h2.795v-8.963c0-7.828-6.345-14.173-14.173-14.173h-36.853c-7.826,0-14.173,6.345-14.173,14.173
			v8.963h2.797c1.561,0,2.834,1.276,2.834,2.835v17.01c0,1.56-1.273,2.834-2.834,2.834h-2.797v8.963
			c0,7.828,6.347,14.174,14.173,14.174h36.853c7.828,0,14.173-6.346,14.173-14.174v-8.963H395.243z"/>
		<path fill="none" stroke="#FF0000" stroke-width="0.1" d="M471.854,805.167c-1.56,0-2.834-1.274-2.834-2.834v-17.01
			c0-1.559,1.274-2.835,2.834-2.835h2.796v-8.963c0-7.828-6.347-14.173-14.173-14.173h-36.852c-7.828,0-14.173,6.345-14.173,14.173
			v8.963h2.796c1.559,0,2.834,1.276,2.834,2.835v17.01c0,1.56-1.274,2.834-2.834,2.834h-2.796v8.963
			c0,7.828,6.345,14.174,14.173,14.174h36.852c7.826,0,14.173-6.346,14.173-14.174v-8.963H471.854z"/>
		<path fill="none" stroke="#FF0000" stroke-width="0.1" d="M548.467,805.167c-1.56,0-2.834-1.274-2.834-2.834v-17.01
			c0-1.559,1.274-2.835,2.834-2.835h2.795v-8.963c0-7.828-6.346-14.173-14.173-14.173h-36.85c-7.828,0-14.174,6.345-14.174,14.173
			v8.963h2.797c1.559,0,2.834,1.276,2.834,2.835v17.01c0,1.56-1.275,2.834-2.834,2.834h-2.797v8.963
			c0,7.828,6.346,14.174,14.174,14.174h36.85c7.827,0,14.173-6.346,14.173-14.174v-8.963H548.467z"/>
		<path fill="none" stroke="#FF0000" stroke-width="0.1" d="M625.078,805.167c-1.56,0-2.834-1.274-2.834-2.834v-17.01
			c0-1.559,1.274-2.835,2.834-2.835h2.796v-8.963c0-7.828-6.346-14.173-14.173-14.173h-36.851c-7.828,0-14.175,6.345-14.175,14.173
			v8.963h2.797c1.56,0,2.834,1.276,2.834,2.835v17.01c0,1.56-1.274,2.834-2.834,2.834h-2.797v8.963
			c0,7.828,6.347,14.174,14.175,14.174h36.851c7.827,0,14.173-6.346,14.173-14.174v-8.963H625.078z"/>
		<path fill="none" stroke="#FF0000" stroke-width="0.1" d="M701.69,805.167c-1.561,0-2.836-1.274-2.836-2.834v-17.01
			c0-1.559,1.275-2.835,2.836-2.835h2.795v-8.963c0-7.828-6.347-14.173-14.174-14.173h-36.851c-7.828,0-14.173,6.345-14.173,14.173
			v8.963h2.796c1.56,0,2.834,1.276,2.834,2.835v17.01c0,1.56-1.274,2.834-2.834,2.834h-2.796v8.963
			c0,7.828,6.345,14.174,14.173,14.174h36.851c7.827,0,14.174-6.346,14.174-14.174v-8.963H701.69z"/>
		<path fill="none" stroke="#FF0000" stroke-width="0.1" d="M778.303,805.167c-1.56,0-2.834-1.274-2.834-2.834v-17.01
			c0-1.559,1.274-2.835,2.834-2.835h2.795v-8.963c0-7.828-6.346-14.173-14.173-14.173h-36.851c-7.828,0-14.173,6.345-14.173,14.173
			v8.963h2.796c1.56,0,2.834,1.276,2.834,2.835v17.01c0,1.56-1.274,2.834-2.834,2.834h-2.796v8.963
			c0,7.828,6.345,14.174,14.173,14.174h36.851c7.827,0,14.173-6.346,14.173-14.174v-8.963H778.303z"/>
		<path fill="none" stroke="#FF0000" stroke-width="0.1" d="M854.914,805.167c-1.56,0-2.834-1.274-2.834-2.834v-17.01
			c0-1.559,1.274-2.835,2.834-2.835h2.796v-8.963c0-7.828-6.346-14.173-14.173-14.173h-36.851c-7.828,0-14.175,6.345-14.175,14.173
			v8.963h2.798c1.559,0,2.834,1.276,2.834,2.835v17.01c0,1.56-1.275,2.834-2.834,2.834h-2.798v8.963
			c0,7.828,6.347,14.174,14.175,14.174h36.851c7.827,0,14.173-6.346,14.173-14.174v-8.963H854.914z"/>
		<path fill="none" stroke="#FF0000" stroke-width="0.1" d="M931.526,805.167c-1.561,0-2.836-1.274-2.836-2.834v-17.01
			c0-1.559,1.275-2.835,2.836-2.835h2.795v-8.963c0-7.828-6.346-14.173-14.174-14.173h-36.852c-7.827,0-14.172,6.345-14.172,14.173
			v8.963h2.796c1.56,0,2.834,1.276,2.834,2.835v17.01c0,1.56-1.274,2.834-2.834,2.834h-2.796v8.963
			c0,7.828,6.345,14.174,14.172,14.174h36.852c7.828,0,14.174-6.346,14.174-14.174v-8.963H931.526z"/>
		<path fill="none" stroke="#FF0000" stroke-width="0.1" d="M1008.139,805.167c-1.56,0-2.834-1.274-2.834-2.834v-17.01
			c0-1.559,1.274-2.835,2.834-2.835h2.796v-8.963c0-7.828-6.347-14.173-14.174-14.173H959.91c-7.828,0-14.173,6.345-14.173,14.173
			v8.963h2.796c1.56,0,2.834,1.276,2.834,2.835v17.01c0,1.56-1.274,2.834-2.834,2.834h-2.796v8.963
			c0,7.828,6.345,14.174,14.173,14.174h36.851c7.827,0,14.174-6.346,14.174-14.174v-8.963H1008.139z"/>
		<path fill="none" stroke="#FF0000" stroke-width="0.1" d="M242.019,890.289c-1.559,0-2.834-1.274-2.834-2.835v-17.008
			c0-1.56,1.275-2.834,2.834-2.834h2.795v-8.964c0-7.826-6.345-14.172-14.173-14.172h-36.85c-7.828,0-14.173,6.346-14.173,14.172
			v8.964h2.796c1.559,0,2.834,1.274,2.834,2.834v17.008c0,1.561-1.275,2.835-2.834,2.835h-2.796v8.965
			c0,7.826,6.345,14.173,14.173,14.173h36.85c7.828,0,14.173-6.347,14.173-14.173v-8.965H242.019z"/>
		<path fill="none" stroke="#FF0000" stroke-width="0.1" d="M318.631,890.289c-1.559,0-2.834-1.274-2.834-2.835v-17.008
			c0-1.56,1.275-2.834,2.834-2.834h2.795v-8.964c0-7.826-6.345-14.172-14.173-14.172h-36.85c-7.828,0-14.174,6.346-14.174,14.172
			v8.964h2.797c1.559,0,2.834,1.274,2.834,2.834v17.008c0,1.561-1.275,2.835-2.834,2.835h-2.797v8.965
			c0,7.826,6.346,14.173,14.174,14.173h36.85c7.828,0,14.173-6.347,14.173-14.173v-8.965H318.631z"/>
		<path fill="none" stroke="#FF0000" stroke-width="0.1" d="M395.243,890.289c-1.559,0-2.835-1.274-2.835-2.835v-17.008
			c0-1.56,1.276-2.834,2.835-2.834h2.795v-8.964c0-7.826-6.345-14.172-14.173-14.172h-36.853c-7.826,0-14.173,6.346-14.173,14.172
			v8.964h2.797c1.561,0,2.834,1.274,2.834,2.834v17.008c0,1.561-1.273,2.835-2.834,2.835h-2.797v8.965
			c0,7.826,6.347,14.173,14.173,14.173h36.853c7.828,0,14.173-6.347,14.173-14.173v-8.965H395.243z"/>
		<path fill="none" stroke="#FF0000" stroke-width="0.1" d="M471.854,890.289c-1.56,0-2.834-1.274-2.834-2.835v-17.008
			c0-1.56,1.274-2.834,2.834-2.834h2.796v-8.964c0-7.826-6.347-14.172-14.173-14.172h-36.852c-7.828,0-14.173,6.346-14.173,14.172
			v8.964h2.796c1.559,0,2.834,1.274,2.834,2.834v17.008c0,1.561-1.274,2.835-2.834,2.835h-2.796v8.965
			c0,7.826,6.345,14.173,14.173,14.173h36.852c7.826,0,14.173-6.347,14.173-14.173v-8.965H471.854z"/>
		<path fill="none" stroke="#FF0000" stroke-width="0.1" d="M548.467,890.289c-1.56,0-2.834-1.274-2.834-2.835v-17.008
			c0-1.56,1.274-2.834,2.834-2.834h2.795v-8.964c0-7.826-6.346-14.172-14.173-14.172h-36.85c-7.828,0-14.174,6.346-14.174,14.172
			v8.964h2.797c1.559,0,2.834,1.274,2.834,2.834v17.008c0,1.561-1.275,2.835-2.834,2.835h-2.797v8.965
			c0,7.826,6.346,14.173,14.174,14.173h36.85c7.827,0,14.173-6.347,14.173-14.173v-8.965H548.467z"/>
		<path fill="none" stroke="#FF0000" stroke-width="0.1" d="M625.078,890.289c-1.56,0-2.834-1.274-2.834-2.835v-17.008
			c0-1.56,1.274-2.834,2.834-2.834h2.796v-8.964c0-7.826-6.346-14.172-14.173-14.172h-36.851c-7.828,0-14.175,6.346-14.175,14.172
			v8.964h2.797c1.56,0,2.834,1.274,2.834,2.834v17.008c0,1.561-1.274,2.835-2.834,2.835h-2.797v8.965
			c0,7.826,6.347,14.173,14.175,14.173h36.851c7.827,0,14.173-6.347,14.173-14.173v-8.965H625.078z"/>
		<path fill="none" stroke="#FF0000" stroke-width="0.1" d="M701.69,890.289c-1.561,0-2.836-1.274-2.836-2.835v-17.008
			c0-1.56,1.275-2.834,2.836-2.834h2.795v-8.964c0-7.826-6.347-14.172-14.174-14.172h-36.851c-7.828,0-14.173,6.346-14.173,14.172
			v8.964h2.796c1.56,0,2.834,1.274,2.834,2.834v17.008c0,1.561-1.274,2.835-2.834,2.835h-2.796v8.965
			c0,7.826,6.345,14.173,14.173,14.173h36.851c7.827,0,14.174-6.347,14.174-14.173v-8.965H701.69z"/>
		<path fill="none" stroke="#FF0000" stroke-width="0.1" d="M778.303,890.289c-1.56,0-2.834-1.274-2.834-2.835v-17.008
			c0-1.56,1.274-2.834,2.834-2.834h2.795v-8.964c0-7.826-6.346-14.172-14.173-14.172h-36.851c-7.828,0-14.173,6.346-14.173,14.172
			v8.964h2.796c1.56,0,2.834,1.274,2.834,2.834v17.008c0,1.561-1.274,2.835-2.834,2.835h-2.796v8.965
			c0,7.826,6.345,14.173,14.173,14.173h36.851c7.827,0,14.173-6.347,14.173-14.173v-8.965H778.303z"/>
		<path fill="none" stroke="#FF0000" stroke-width="0.1" d="M854.914,890.289c-1.56,0-2.834-1.274-2.834-2.835v-17.008
			c0-1.56,1.274-2.834,2.834-2.834h2.796v-8.964c0-7.826-6.346-14.172-14.173-14.172h-36.851c-7.828,0-14.175,6.346-14.175,14.172
			v8.964h2.798c1.559,0,2.834,1.274,2.834,2.834v17.008c0,1.561-1.275,2.835-2.834,2.835h-2.798v8.965
			c0,7.826,6.347,14.173,14.175,14.173h36.851c7.827,0,14.173-6.347,14.173-14.173v-8.965H854.914z"/>
		<path fill="none" stroke="#FF0000" stroke-width="0.1" d="M931.526,890.289c-1.561,0-2.836-1.274-2.836-2.835v-17.008
			c0-1.56,1.275-2.834,2.836-2.834h2.795v-8.964c0-7.826-6.346-14.172-14.174-14.172h-36.852c-7.827,0-14.172,6.346-14.172,14.172
			v8.964h2.796c1.56,0,2.834,1.274,2.834,2.834v17.008c0,1.561-1.274,2.835-2.834,2.835h-2.796v8.965
			c0,7.826,6.345,14.173,14.172,14.173h36.852c7.828,0,14.174-6.347,14.174-14.173v-8.965H931.526z"/>
		<path fill="none" stroke="#FF0000" stroke-width="0.1" d="M1008.139,890.289c-1.56,0-2.834-1.274-2.834-2.835v-17.008
			c0-1.56,1.274-2.834,2.834-2.834h2.796v-8.964c0-7.826-6.347-14.172-14.174-14.172H959.91c-7.828,0-14.173,6.346-14.173,14.172
			v8.964h2.796c1.56,0,2.834,1.274,2.834,2.834v17.008c0,1.561-1.274,2.835-2.834,2.835h-2.796v8.965
			c0,7.826,6.345,14.173,14.173,14.173h36.851c7.827,0,14.174-6.347,14.174-14.173v-8.965H1008.139z"/>
		<path fill="none" stroke="#FF0000" stroke-width="0.1" d="M242.019,975.413c-1.559,0-2.834-1.273-2.834-2.835V955.57
			c0-1.558,1.275-2.835,2.834-2.835h2.795v-8.963c0-7.827-6.345-14.172-14.173-14.172h-36.85c-7.828,0-14.173,6.345-14.173,14.172
			v8.963h2.796c1.559,0,2.834,1.277,2.834,2.835v17.008c0,1.562-1.275,2.835-2.834,2.835h-2.796v8.965
			c0,7.826,6.345,14.173,14.173,14.173h36.85c7.828,0,14.173-6.347,14.173-14.173v-8.965H242.019z"/>
		<path fill="none" stroke="#FF0000" stroke-width="0.1" d="M318.631,975.413c-1.559,0-2.834-1.273-2.834-2.835V955.57
			c0-1.558,1.275-2.835,2.834-2.835h2.795v-8.963c0-7.827-6.345-14.172-14.173-14.172h-36.85c-7.828,0-14.174,6.345-14.174,14.172
			v8.963h2.797c1.559,0,2.834,1.277,2.834,2.835v17.008c0,1.562-1.275,2.835-2.834,2.835h-2.797v8.965
			c0,7.826,6.346,14.173,14.174,14.173h36.85c7.828,0,14.173-6.347,14.173-14.173v-8.965H318.631z"/>
		<path fill="none" stroke="#FF0000" stroke-width="0.1" d="M395.243,975.413c-1.559,0-2.835-1.273-2.835-2.835V955.57
			c0-1.558,1.276-2.835,2.835-2.835h2.795v-8.963c0-7.827-6.345-14.172-14.173-14.172h-36.853c-7.826,0-14.173,6.345-14.173,14.172
			v8.963h2.797c1.561,0,2.834,1.277,2.834,2.835v17.008c0,1.562-1.273,2.835-2.834,2.835h-2.797v8.965
			c0,7.826,6.347,14.173,14.173,14.173h36.853c7.828,0,14.173-6.347,14.173-14.173v-8.965H395.243z"/>
		<path fill="none" stroke="#FF0000" stroke-width="0.1" d="M471.854,975.413c-1.56,0-2.834-1.273-2.834-2.835V955.57
			c0-1.558,1.274-2.835,2.834-2.835h2.796v-8.963c0-7.827-6.347-14.172-14.173-14.172h-36.852c-7.828,0-14.173,6.345-14.173,14.172
			v8.963h2.796c1.559,0,2.834,1.277,2.834,2.835v17.008c0,1.562-1.274,2.835-2.834,2.835h-2.796v8.965
			c0,7.826,6.345,14.173,14.173,14.173h36.852c7.826,0,14.173-6.347,14.173-14.173v-8.965H471.854z"/>
		<path fill="none" stroke="#FF0000" stroke-width="0.1" d="M548.467,975.413c-1.56,0-2.834-1.273-2.834-2.835V955.57
			c0-1.558,1.274-2.835,2.834-2.835h2.795v-8.963c0-7.827-6.346-14.172-14.173-14.172h-36.85c-7.828,0-14.174,6.345-14.174,14.172
			v8.963h2.797c1.559,0,2.834,1.277,2.834,2.835v17.008c0,1.562-1.275,2.835-2.834,2.835h-2.797v8.965
			c0,7.826,6.346,14.173,14.174,14.173h36.85c7.827,0,14.173-6.347,14.173-14.173v-8.965H548.467z"/>
		<path fill="none" stroke="#FF0000" stroke-width="0.1" d="M625.078,975.413c-1.56,0-2.834-1.273-2.834-2.835V955.57
			c0-1.558,1.274-2.835,2.834-2.835h2.796v-8.963c0-7.827-6.346-14.172-14.173-14.172h-36.851c-7.828,0-14.175,6.345-14.175,14.172
			v8.963h2.797c1.56,0,2.834,1.277,2.834,2.835v17.008c0,1.562-1.274,2.835-2.834,2.835h-2.797v8.965
			c0,7.826,6.347,14.173,14.175,14.173h36.851c7.827,0,14.173-6.347,14.173-14.173v-8.965H625.078z"/>
		<path fill="none" stroke="#FF0000" stroke-width="0.1" d="M701.69,975.413c-1.561,0-2.836-1.273-2.836-2.835V955.57
			c0-1.558,1.275-2.835,2.836-2.835h2.795v-8.963c0-7.827-6.347-14.172-14.174-14.172h-36.851c-7.828,0-14.173,6.345-14.173,14.172
			v8.963h2.796c1.56,0,2.834,1.277,2.834,2.835v17.008c0,1.562-1.274,2.835-2.834,2.835h-2.796v8.965
			c0,7.826,6.345,14.173,14.173,14.173h36.851c7.827,0,14.174-6.347,14.174-14.173v-8.965H701.69z"/>
		<path fill="none" stroke="#FF0000" stroke-width="0.1" d="M778.303,975.413c-1.56,0-2.834-1.273-2.834-2.835V955.57
			c0-1.558,1.274-2.835,2.834-2.835h2.795v-8.963c0-7.827-6.346-14.172-14.173-14.172h-36.851c-7.828,0-14.173,6.345-14.173,14.172
			v8.963h2.796c1.56,0,2.834,1.277,2.834,2.835v17.008c0,1.562-1.274,2.835-2.834,2.835h-2.796v8.965
			c0,7.826,6.345,14.173,14.173,14.173h36.851c7.827,0,14.173-6.347,14.173-14.173v-8.965H778.303z"/>
		<path fill="none" stroke="#FF0000" stroke-width="0.1" d="M854.914,975.413c-1.56,0-2.834-1.273-2.834-2.835V955.57
			c0-1.558,1.274-2.835,2.834-2.835h2.796v-8.963c0-7.827-6.346-14.172-14.173-14.172h-36.851c-7.828,0-14.175,6.345-14.175,14.172
			v8.963h2.798c1.559,0,2.834,1.277,2.834,2.835v17.008c0,1.562-1.275,2.835-2.834,2.835h-2.798v8.965
			c0,7.826,6.347,14.173,14.175,14.173h36.851c7.827,0,14.173-6.347,14.173-14.173v-8.965H854.914z"/>
		<path fill="none" stroke="#FF0000" stroke-width="0.1" d="M931.526,975.413c-1.561,0-2.836-1.273-2.836-2.835V955.57
			c0-1.558,1.275-2.835,2.836-2.835h2.795v-8.963c0-7.827-6.346-14.172-14.174-14.172h-36.852c-7.827,0-14.172,6.345-14.172,14.172
			v8.963h2.796c1.56,0,2.834,1.277,2.834,2.835v17.008c0,1.562-1.274,2.835-2.834,2.835h-2.796v8.965
			c0,7.826,6.345,14.173,14.172,14.173h36.852c7.828,0,14.174-6.347,14.174-14.173v-8.965H931.526z"/>
		<path fill="none" stroke="#FF0000" stroke-width="0.1" d="M1008.139,975.413c-1.56,0-2.834-1.273-2.834-2.835V955.57
			c0-1.558,1.274-2.835,2.834-2.835h2.796v-8.963c0-7.827-6.347-14.172-14.174-14.172H959.91c-7.828,0-14.173,6.345-14.173,14.172
			v8.963h2.796c1.56,0,2.834,1.277,2.834,2.835v17.008c0,1.562-1.274,2.835-2.834,2.835h-2.796v8.965
			c0,7.826,6.345,14.173,14.173,14.173h36.851c7.827,0,14.174-6.347,14.174-14.173v-8.965H1008.139z"/>
		<path fill="none" stroke="#FF0000" stroke-width="0.1" d="M242.019,1060.537c-1.559,0-2.834-1.272-2.834-2.834v-17.009
			c0-1.558,1.275-2.834,2.834-2.834h2.795v-8.963c0-7.828-6.345-14.173-14.173-14.173h-36.85c-7.828,0-14.173,6.345-14.173,14.173
			v8.963h2.796c1.559,0,2.834,1.276,2.834,2.834v17.009c0,1.562-1.275,2.834-2.834,2.834h-2.796v8.964
			c0,7.827,6.345,14.175,14.173,14.175h36.85c7.828,0,14.173-6.348,14.173-14.175v-8.964H242.019z"/>
		<path fill="none" stroke="#FF0000" stroke-width="0.1" d="M318.631,1060.537c-1.559,0-2.834-1.272-2.834-2.834v-17.009
			c0-1.558,1.275-2.834,2.834-2.834h2.795v-8.963c0-7.828-6.345-14.173-14.173-14.173h-36.85c-7.828,0-14.174,6.345-14.174,14.173
			v8.963h2.797c1.559,0,2.834,1.276,2.834,2.834v17.009c0,1.562-1.275,2.834-2.834,2.834h-2.797v8.964
			c0,7.827,6.346,14.175,14.174,14.175h36.85c7.828,0,14.173-6.348,14.173-14.175v-8.964H318.631z"/>
		<path fill="none" stroke="#FF0000" stroke-width="0.1" d="M395.243,1060.537c-1.559,0-2.835-1.272-2.835-2.834v-17.009
			c0-1.558,1.276-2.834,2.835-2.834h2.795v-8.963c0-7.828-6.345-14.173-14.173-14.173h-36.853c-7.826,0-14.173,6.345-14.173,14.173
			v8.963h2.797c1.561,0,2.834,1.276,2.834,2.834v17.009c0,1.562-1.273,2.834-2.834,2.834h-2.797v8.964
			c0,7.827,6.347,14.175,14.173,14.175h36.853c7.828,0,14.173-6.348,14.173-14.175v-8.964H395.243z"/>
		<path fill="none" stroke="#FF0000" stroke-width="0.1" d="M471.854,1060.537c-1.56,0-2.834-1.272-2.834-2.834v-17.009
			c0-1.558,1.274-2.834,2.834-2.834h2.796v-8.963c0-7.828-6.347-14.173-14.173-14.173h-36.852c-7.828,0-14.173,6.345-14.173,14.173
			v8.963h2.796c1.559,0,2.834,1.276,2.834,2.834v17.009c0,1.562-1.274,2.834-2.834,2.834h-2.796v8.964
			c0,7.827,6.345,14.175,14.173,14.175h36.852c7.826,0,14.173-6.348,14.173-14.175v-8.964H471.854z"/>
		<path fill="none" stroke="#FF0000" stroke-width="0.1" d="M548.467,1060.537c-1.56,0-2.834-1.272-2.834-2.834v-17.009
			c0-1.558,1.274-2.834,2.834-2.834h2.795v-8.963c0-7.828-6.346-14.173-14.173-14.173h-36.85c-7.828,0-14.174,6.345-14.174,14.173
			v8.963h2.797c1.559,0,2.834,1.276,2.834,2.834v17.009c0,1.562-1.275,2.834-2.834,2.834h-2.797v8.964
			c0,7.827,6.346,14.175,14.174,14.175h36.85c7.827,0,14.173-6.348,14.173-14.175v-8.964H548.467z"/>
		<path fill="none" stroke="#FF0000" stroke-width="0.1" d="M625.078,1060.537c-1.56,0-2.834-1.272-2.834-2.834v-17.009
			c0-1.558,1.274-2.834,2.834-2.834h2.796v-8.963c0-7.828-6.346-14.173-14.173-14.173h-36.851c-7.828,0-14.175,6.345-14.175,14.173
			v8.963h2.797c1.56,0,2.834,1.276,2.834,2.834v17.009c0,1.562-1.274,2.834-2.834,2.834h-2.797v8.964
			c0,7.827,6.347,14.175,14.175,14.175h36.851c7.827,0,14.173-6.348,14.173-14.175v-8.964H625.078z"/>
		<path fill="none" stroke="#FF0000" stroke-width="0.1" d="M701.69,1060.537c-1.561,0-2.836-1.272-2.836-2.834v-17.009
			c0-1.558,1.275-2.834,2.836-2.834h2.795v-8.963c0-7.828-6.347-14.173-14.174-14.173h-36.851c-7.828,0-14.173,6.345-14.173,14.173
			v8.963h2.796c1.56,0,2.834,1.276,2.834,2.834v17.009c0,1.562-1.274,2.834-2.834,2.834h-2.796v8.964
			c0,7.827,6.345,14.175,14.173,14.175h36.851c7.827,0,14.174-6.348,14.174-14.175v-8.964H701.69z"/>
		<path fill="none" stroke="#FF0000" stroke-width="0.1" d="M778.303,1060.537c-1.56,0-2.834-1.272-2.834-2.834v-17.009
			c0-1.558,1.274-2.834,2.834-2.834h2.795v-8.963c0-7.828-6.346-14.173-14.173-14.173h-36.851c-7.828,0-14.173,6.345-14.173,14.173
			v8.963h2.796c1.56,0,2.834,1.276,2.834,2.834v17.009c0,1.562-1.274,2.834-2.834,2.834h-2.796v8.964
			c0,7.827,6.345,14.175,14.173,14.175h36.851c7.827,0,14.173-6.348,14.173-14.175v-8.964H778.303z"/>
		<path fill="none" stroke="#FF0000" stroke-width="0.1" d="M854.914,1060.537c-1.56,0-2.834-1.272-2.834-2.834v-17.009
			c0-1.558,1.274-2.834,2.834-2.834h2.796v-8.963c0-7.828-6.346-14.173-14.173-14.173h-36.851c-7.828,0-14.175,6.345-14.175,14.173
			v8.963h2.798c1.559,0,2.834,1.276,2.834,2.834v17.009c0,1.562-1.275,2.834-2.834,2.834h-2.798v8.964
			c0,7.827,6.347,14.175,14.175,14.175h36.851c7.827,0,14.173-6.348,14.173-14.175v-8.964H854.914z"/>
		<path fill="none" stroke="#FF0000" stroke-width="0.1" d="M931.526,1060.537c-1.561,0-2.836-1.272-2.836-2.834v-17.009
			c0-1.558,1.275-2.834,2.836-2.834h2.795v-8.963c0-7.828-6.346-14.173-14.174-14.173h-36.852c-7.827,0-14.172,6.345-14.172,14.173
			v8.963h2.796c1.56,0,2.834,1.276,2.834,2.834v17.009c0,1.562-1.274,2.834-2.834,2.834h-2.796v8.964
			c0,7.827,6.345,14.175,14.172,14.175h36.852c7.828,0,14.174-6.348,14.174-14.175v-8.964H931.526z"/>
		<path fill="none" stroke="#FF0000" stroke-width="0.1" d="M1008.139,1060.537c-1.56,0-2.834-1.272-2.834-2.834v-17.009
			c0-1.558,1.274-2.834,2.834-2.834h2.796v-8.963c0-7.828-6.347-14.173-14.174-14.173H959.91c-7.828,0-14.173,6.345-14.173,14.173
			v8.963h2.796c1.56,0,2.834,1.276,2.834,2.834v17.009c0,1.562-1.274,2.834-2.834,2.834h-2.796v8.964
			c0,7.827,6.345,14.175,14.173,14.175h36.851c7.827,0,14.174-6.348,14.174-14.175v-8.964H1008.139z"/>
		<path fill="none" stroke="#FF0000" stroke-width="0.1" d="M510.161,1151.978c-1.559,0-2.834-1.276-2.834-2.835v-17.008
			c0-1.562,1.275-2.835,2.834-2.835h2.795v-8.963c0-7.828-6.346-14.173-14.172-14.173h-36.853c-7.827,0-14.173,6.345-14.173,14.173
			v8.963h2.796c1.561,0,2.835,1.273,2.835,2.835v17.008c0,1.559-1.274,2.835-2.835,2.835h-2.796v8.963
			c0,7.827,6.346,14.173,14.173,14.173h36.853c7.827,0,14.172-6.346,14.172-14.173v-8.963H510.161z"/>
		<path fill="none" stroke="#FF0000" stroke-width="0.1" d="M586.772,1151.978c-1.561,0-2.836-1.276-2.836-2.835v-17.008
			c0-1.562,1.275-2.835,2.836-2.835h2.795v-8.963c0-7.828-6.347-14.173-14.175-14.173h-36.85c-7.828,0-14.173,6.345-14.173,14.173
			v8.963h2.796c1.56,0,2.834,1.273,2.834,2.835v17.008c0,1.559-1.275,2.835-2.834,2.835h-2.796v8.963
			c0,7.827,6.345,14.173,14.173,14.173h36.85c7.828,0,14.175-6.346,14.175-14.173v-8.963H586.772z"/>
		<path fill="none" stroke="#FF0000" stroke-width="0.1" d="M663.385,1151.978c-1.56,0-2.834-1.276-2.834-2.835v-17.008
			c0-1.562,1.274-2.835,2.834-2.835h2.795v-8.963c0-7.828-6.345-14.173-14.173-14.173h-36.851c-7.828,0-14.173,6.345-14.173,14.173
			v8.963h2.796c1.56,0,2.834,1.273,2.834,2.835v17.008c0,1.559-1.274,2.835-2.834,2.835h-2.796v8.963
			c0,7.827,6.345,14.173,14.173,14.173h36.851c7.828,0,14.173-6.346,14.173-14.173v-8.963H663.385z"/>
		<path fill="none" stroke="#FF0000" stroke-width="0.1" d="M739.996,1151.978c-1.56,0-2.834-1.276-2.834-2.835v-17.008
			c0-1.562,1.274-2.835,2.834-2.835h2.796v-8.963c0-7.828-6.346-14.173-14.173-14.173h-36.851c-7.828,0-14.175,6.345-14.175,14.173
			v8.963h2.797c1.56,0,2.834,1.273,2.834,2.835v17.008c0,1.559-1.274,2.835-2.834,2.835h-2.797v8.963
			c0,7.827,6.347,14.173,14.175,14.173h36.851c7.827,0,14.173-6.346,14.173-14.173v-8.963H739.996z"/>
		<path fill="none" stroke="#FF0000" stroke-width="0.1" d="M1148.031,99.212H42.52c-7.827,0-14.173,6.346-14.173,14.173v1105.511
			c0,7.828,6.346,14.174,14.173,14.174h104.881v-34.016h12.756v-14.174H180v14.174h12.756v34.016h805.039v-34.016h12.757v-14.174
			h19.844v14.174h12.756v34.016h104.883c7.826,0,14.173-6.346,14.173-14.174V113.385
			C1162.204,105.558,1155.858,99.212,1148.031,99.212z"/>
		<path fill="none" stroke="#FF0000" stroke-width="0.1" d="M625.078,198.008c-1.56,0-2.834-1.275-2.834-2.834v-17.01
			c0-1.559,1.274-2.835,2.834-2.835h2.796v-8.963c0-7.828-6.346-14.173-14.173-14.173h-36.851c-7.828,0-14.175,6.345-14.175,14.173
			v8.963h2.797c1.56,0,2.834,1.276,2.834,2.835v17.01c0,1.559-1.274,2.834-2.834,2.834h-2.797v8.963
			c0,7.828,6.347,14.173,14.175,14.173h36.851c7.827,0,14.173-6.345,14.173-14.173v-8.963H625.078z"/>
		<line fill="none" stroke="#FF0000" stroke-width="0.1" x1="748.5" y1="186.669" x2="978.336" y2="186.669"/>
		<line fill="none" stroke="#FF0000" stroke-width="0.1" x1="212.216" y1="186.669" x2="442.052" y2="186.669"/>
	</g>
</g>
</svg>
