<?xml version="1.0" encoding="utf-8"?>
<!-- Generator: Adobe Illustrator 15.1.0, SVG Export Plug-In . SVG Version: 6.00 Build 0)  -->
<!DOCTYPE svg PUBLIC "-//W3C//DTD SVG 1.1//EN" "http://www.w3.org/Graphics/SVG/1.1/DTD/svg11.dtd">
<svg version="1.1" id="Ebene_1" xmlns="http://www.w3.org/2000/svg" xmlns:xlink="http://www.w3.org/1999/xlink" x="0px" y="0px"
	 width="2834.65px" height="1700.79px" viewBox="0 0 2834.65 1700.79" enable-background="new 0 0 2834.65 1700.79"
	 xml:space="preserve">
<path fill="none" stroke="#E81E1B" d="M242.019,294.419c-1.559,0-2.834-1.275-2.834-2.834v-17.008c0-1.559,1.275-2.835,2.834-2.835
	h2.795v-8.963c0-7.828-6.345-14.173-14.173-14.173h-36.85c-7.828,0-14.173,6.345-14.173,14.173v8.963h2.796
	c1.559,0,2.834,1.276,2.834,2.835v17.008c0,1.559-1.275,2.834-2.834,2.834h-2.796v8.963c0,7.828,6.345,14.174,14.173,14.174h36.85
	c7.828,0,14.173-6.346,14.173-14.174v-8.963H242.019z"/>
<path fill="none" stroke="#E81E1B" d="M318.631,294.419c-1.559,0-2.834-1.275-2.834-2.834v-17.008c0-1.559,1.275-2.835,2.834-2.835
	h2.795v-8.963c0-7.828-6.345-14.173-14.173-14.173h-36.85c-7.828,0-14.173,6.345-14.173,14.173v8.963h2.796
	c1.559,0,2.834,1.276,2.834,2.835v17.008c0,1.559-1.275,2.834-2.834,2.834h-2.796v8.963c0,7.828,6.345,14.174,14.173,14.174h36.85
	c7.828,0,14.173-6.346,14.173-14.174v-8.963H318.631z"/>
<path fill="none" stroke="#E81E1B" d="M395.243,294.419c-1.559,0-2.835-1.275-2.835-2.834v-17.008c0-1.559,1.276-2.835,2.835-2.835
	h2.795v-8.963c0-7.828-6.345-14.173-14.173-14.173h-36.851c-7.827,0-14.173,6.345-14.173,14.173v8.963h2.797
	c1.559,0,2.834,1.276,2.834,2.835v17.008c0,1.559-1.275,2.834-2.834,2.834h-2.797v8.963c0,7.828,6.346,14.174,14.173,14.174h36.851
	c7.828,0,14.173-6.346,14.173-14.174v-8.963H395.243z"/>
<path fill="none" stroke="#E81E1B" d="M471.855,294.419c-1.559,0-2.835-1.275-2.835-2.834v-17.008c0-1.559,1.276-2.835,2.835-2.835
	h2.795v-8.963c0-7.828-6.345-14.173-14.173-14.173h-36.85c-7.828,0-14.173,6.345-14.173,14.173v8.963h2.796
	c1.559,0,2.834,1.276,2.834,2.835v17.008c0,1.559-1.275,2.834-2.834,2.834h-2.796v8.963c0,7.828,6.345,14.174,14.173,14.174h36.85
	c7.828,0,14.173-6.346,14.173-14.174v-8.963H471.855z"/>
<path fill="none" stroke="#E81E1B" d="M548.467,294.419c-1.56,0-2.834-1.275-2.834-2.834v-17.008c0-1.559,1.274-2.835,2.834-2.835
	h2.795v-8.963c0-7.828-6.346-14.173-14.173-14.173h-36.85c-7.828,0-14.173,6.345-14.173,14.173v8.963h2.796
	c1.559,0,2.834,1.276,2.834,2.835v17.008c0,1.559-1.275,2.834-2.834,2.834h-2.796v8.963c0,7.828,6.345,14.174,14.173,14.174h36.85
	c7.827,0,14.173-6.346,14.173-14.174v-8.963H548.467z"/>
<path fill="none" stroke="#E81E1B" d="M625.078,294.419c-1.559,0-2.834-1.275-2.834-2.834v-17.008c0-1.559,1.275-2.835,2.834-2.835
	h2.796v-8.963c0-7.828-6.346-14.173-14.173-14.173h-36.851c-7.828,0-14.173,6.345-14.173,14.173v8.963h2.796
	c1.559,0,2.835,1.276,2.835,2.835v17.008c0,1.559-1.276,2.834-2.835,2.834h-2.796v8.963c0,7.828,6.345,14.174,14.173,14.174h36.851
	c7.827,0,14.173-6.346,14.173-14.174v-8.963H625.078z"/>
<path fill="none" stroke="#E81E1B" d="M701.69,294.419c-1.559,0-2.835-1.275-2.835-2.834v-17.008c0-1.559,1.276-2.835,2.835-2.835
	h2.795v-8.963c0-7.828-6.345-14.173-14.173-14.173h-36.85c-7.828,0-14.173,6.345-14.173,14.173v8.963h2.796
	c1.559,0,2.834,1.276,2.834,2.835v17.008c0,1.559-1.275,2.834-2.834,2.834h-2.796v8.963c0,7.828,6.345,14.174,14.173,14.174h36.85
	c7.828,0,14.173-6.346,14.173-14.174v-8.963H701.69z"/>
<path fill="none" stroke="#E81E1B" d="M778.303,294.419c-1.56,0-2.834-1.275-2.834-2.834v-17.008c0-1.559,1.274-2.835,2.834-2.835
	h2.795v-8.963c0-7.828-6.346-14.173-14.173-14.173h-36.851c-7.828,0-14.173,6.345-14.173,14.173v8.963h2.796
	c1.56,0,2.834,1.276,2.834,2.835v17.008c0,1.559-1.274,2.834-2.834,2.834h-2.796v8.963c0,7.828,6.345,14.174,14.173,14.174h36.851
	c7.827,0,14.173-6.346,14.173-14.174v-8.963H778.303z"/>
<path fill="none" stroke="#E81E1B" d="M854.914,294.419c-1.559,0-2.834-1.275-2.834-2.834v-17.008c0-1.559,1.275-2.835,2.834-2.835
	h2.796v-8.963c0-7.828-6.346-14.173-14.173-14.173h-36.851c-7.828,0-14.173,6.345-14.173,14.173v8.963h2.796
	c1.559,0,2.835,1.276,2.835,2.835v17.008c0,1.559-1.276,2.834-2.835,2.834h-2.796v8.963c0,7.828,6.345,14.174,14.173,14.174h36.851
	c7.827,0,14.173-6.346,14.173-14.174v-8.963H854.914z"/>
<path fill="none" stroke="#E81E1B" d="M931.526,294.419c-1.559,0-2.835-1.275-2.835-2.834v-17.008c0-1.559,1.276-2.835,2.835-2.835
	h2.795v-8.963c0-7.828-6.345-14.173-14.173-14.173h-36.851c-7.827,0-14.172,6.345-14.172,14.173v8.963h2.796
	c1.559,0,2.834,1.276,2.834,2.835v17.008c0,1.559-1.275,2.834-2.834,2.834h-2.796v8.963c0,7.828,6.345,14.174,14.172,14.174h36.851
	c7.828,0,14.173-6.346,14.173-14.174v-8.963H931.526z"/>
<path fill="none" stroke="#E81E1B" d="M1008.139,294.419c-1.56,0-2.834-1.275-2.834-2.834v-17.008c0-1.559,1.274-2.835,2.834-2.835
	h2.795v-8.963c0-7.828-6.346-14.173-14.173-14.173H959.91c-7.828,0-14.173,6.345-14.173,14.173v8.963h2.796
	c1.56,0,2.834,1.276,2.834,2.835v17.008c0,1.559-1.274,2.834-2.834,2.834h-2.796v8.963c0,7.828,6.345,14.174,14.173,14.174h36.851
	c7.827,0,14.173-6.346,14.173-14.174v-8.963H1008.139z"/>
<path fill="none" stroke="#E81E1B" d="M242.019,379.544c-1.559,0-2.834-1.275-2.834-2.834v-17.008c0-1.559,1.275-2.835,2.834-2.835
	h2.795v-8.963c0-7.828-6.345-14.173-14.173-14.173h-36.85c-7.828,0-14.173,6.345-14.173,14.173v8.963h2.796
	c1.559,0,2.834,1.276,2.834,2.835v17.008c0,1.559-1.275,2.834-2.834,2.834h-2.796v8.963c0,7.828,6.345,14.173,14.173,14.173h36.85
	c7.828,0,14.173-6.345,14.173-14.173v-8.963H242.019z"/>
<path fill="none" stroke="#E81E1B" d="M318.631,379.544c-1.559,0-2.834-1.275-2.834-2.834v-17.008c0-1.559,1.275-2.835,2.834-2.835
	h2.795v-8.963c0-7.828-6.345-14.173-14.173-14.173h-36.85c-7.828,0-14.173,6.345-14.173,14.173v8.963h2.796
	c1.559,0,2.834,1.276,2.834,2.835v17.008c0,1.559-1.275,2.834-2.834,2.834h-2.796v8.963c0,7.828,6.345,14.173,14.173,14.173h36.85
	c7.828,0,14.173-6.345,14.173-14.173v-8.963H318.631z"/>
<path fill="none" stroke="#E81E1B" d="M395.243,379.544c-1.559,0-2.835-1.275-2.835-2.834v-17.008c0-1.559,1.276-2.835,2.835-2.835
	h2.795v-8.963c0-7.828-6.345-14.173-14.173-14.173h-36.851c-7.827,0-14.173,6.345-14.173,14.173v8.963h2.797
	c1.559,0,2.834,1.276,2.834,2.835v17.008c0,1.559-1.275,2.834-2.834,2.834h-2.797v8.963c0,7.828,6.346,14.173,14.173,14.173h36.851
	c7.828,0,14.173-6.345,14.173-14.173v-8.963H395.243z"/>
<path fill="none" stroke="#E81E1B" d="M471.855,379.544c-1.559,0-2.835-1.275-2.835-2.834v-17.008c0-1.559,1.276-2.835,2.835-2.835
	h2.795v-8.963c0-7.828-6.345-14.173-14.173-14.173h-36.85c-7.828,0-14.173,6.345-14.173,14.173v8.963h2.796
	c1.559,0,2.834,1.276,2.834,2.835v17.008c0,1.559-1.275,2.834-2.834,2.834h-2.796v8.963c0,7.828,6.345,14.173,14.173,14.173h36.85
	c7.828,0,14.173-6.345,14.173-14.173v-8.963H471.855z"/>
<path fill="none" stroke="#E81E1B" d="M548.467,379.544c-1.56,0-2.834-1.275-2.834-2.834v-17.008c0-1.559,1.274-2.835,2.834-2.835
	h2.795v-8.963c0-7.828-6.346-14.173-14.173-14.173h-36.85c-7.828,0-14.173,6.345-14.173,14.173v8.963h2.796
	c1.559,0,2.834,1.276,2.834,2.835v17.008c0,1.559-1.275,2.834-2.834,2.834h-2.796v8.963c0,7.828,6.345,14.173,14.173,14.173h36.85
	c7.827,0,14.173-6.345,14.173-14.173v-8.963H548.467z"/>
<path fill="none" stroke="#E81E1B" d="M625.078,379.544c-1.559,0-2.834-1.275-2.834-2.834v-17.008c0-1.559,1.275-2.835,2.834-2.835
	h2.796v-8.963c0-7.828-6.346-14.173-14.173-14.173h-36.851c-7.828,0-14.173,6.345-14.173,14.173v8.963h2.796
	c1.559,0,2.835,1.276,2.835,2.835v17.008c0,1.559-1.276,2.834-2.835,2.834h-2.796v8.963c0,7.828,6.345,14.173,14.173,14.173h36.851
	c7.827,0,14.173-6.345,14.173-14.173v-8.963H625.078z"/>
<path fill="none" stroke="#E81E1B" d="M701.69,379.544c-1.559,0-2.835-1.275-2.835-2.834v-17.008c0-1.559,1.276-2.835,2.835-2.835
	h2.795v-8.963c0-7.828-6.345-14.173-14.173-14.173h-36.85c-7.828,0-14.173,6.345-14.173,14.173v8.963h2.796
	c1.559,0,2.834,1.276,2.834,2.835v17.008c0,1.559-1.275,2.834-2.834,2.834h-2.796v8.963c0,7.828,6.345,14.173,14.173,14.173h36.85
	c7.828,0,14.173-6.345,14.173-14.173v-8.963H701.69z"/>
<path fill="none" stroke="#E81E1B" d="M778.303,379.544c-1.56,0-2.834-1.275-2.834-2.834v-17.008c0-1.559,1.274-2.835,2.834-2.835
	h2.795v-8.963c0-7.828-6.346-14.173-14.173-14.173h-36.851c-7.828,0-14.173,6.345-14.173,14.173v8.963h2.796
	c1.56,0,2.834,1.276,2.834,2.835v17.008c0,1.559-1.274,2.834-2.834,2.834h-2.796v8.963c0,7.828,6.345,14.173,14.173,14.173h36.851
	c7.827,0,14.173-6.345,14.173-14.173v-8.963H778.303z"/>
<path fill="none" stroke="#E81E1B" d="M854.914,379.544c-1.559,0-2.834-1.275-2.834-2.834v-17.008c0-1.559,1.275-2.835,2.834-2.835
	h2.796v-8.963c0-7.828-6.346-14.173-14.173-14.173h-36.851c-7.828,0-14.173,6.345-14.173,14.173v8.963h2.796
	c1.559,0,2.835,1.276,2.835,2.835v17.008c0,1.559-1.276,2.834-2.835,2.834h-2.796v8.963c0,7.828,6.345,14.173,14.173,14.173h36.851
	c7.827,0,14.173-6.345,14.173-14.173v-8.963H854.914z"/>
<path fill="none" stroke="#E81E1B" d="M931.526,379.544c-1.559,0-2.835-1.275-2.835-2.834v-17.008c0-1.559,1.276-2.835,2.835-2.835
	h2.795v-8.963c0-7.828-6.345-14.173-14.173-14.173h-36.851c-7.827,0-14.172,6.345-14.172,14.173v8.963h2.796
	c1.559,0,2.834,1.276,2.834,2.835v17.008c0,1.559-1.275,2.834-2.834,2.834h-2.796v8.963c0,7.828,6.345,14.173,14.172,14.173h36.851
	c7.828,0,14.173-6.345,14.173-14.173v-8.963H931.526z"/>
<path fill="none" stroke="#E81E1B" d="M1008.139,379.544c-1.56,0-2.834-1.275-2.834-2.834v-17.008c0-1.559,1.274-2.835,2.834-2.835
	h2.795v-8.963c0-7.828-6.346-14.173-14.173-14.173H959.91c-7.828,0-14.173,6.345-14.173,14.173v8.963h2.796
	c1.56,0,2.834,1.276,2.834,2.835v17.008c0,1.559-1.274,2.834-2.834,2.834h-2.796v8.963c0,7.828,6.345,14.173,14.173,14.173h36.851
	c7.827,0,14.173-6.345,14.173-14.173v-8.963H1008.139z"/>
<path fill="none" stroke="#E81E1B" d="M242.019,464.668c-1.559,0-2.834-1.276-2.834-2.834v-17.009c0-1.559,1.275-2.834,2.834-2.834
	h2.795v-8.963c0-7.828-6.345-14.173-14.173-14.173h-36.85c-7.828,0-14.173,6.345-14.173,14.173v8.963h2.796
	c1.559,0,2.834,1.275,2.834,2.834v17.009c0,1.558-1.275,2.834-2.834,2.834h-2.796v8.963c0,7.828,6.345,14.173,14.173,14.173h36.85
	c7.828,0,14.173-6.345,14.173-14.173v-8.963H242.019z"/>
<path fill="none" stroke="#E81E1B" d="M318.631,464.668c-1.559,0-2.834-1.276-2.834-2.834v-17.009c0-1.559,1.275-2.834,2.834-2.834
	h2.795v-8.963c0-7.828-6.345-14.173-14.173-14.173h-36.85c-7.828,0-14.173,6.345-14.173,14.173v8.963h2.796
	c1.559,0,2.834,1.275,2.834,2.834v17.009c0,1.558-1.275,2.834-2.834,2.834h-2.796v8.963c0,7.828,6.345,14.173,14.173,14.173h36.85
	c7.828,0,14.173-6.345,14.173-14.173v-8.963H318.631z"/>
<path fill="none" stroke="#E81E1B" d="M395.243,464.668c-1.559,0-2.835-1.276-2.835-2.834v-17.009c0-1.559,1.276-2.834,2.835-2.834
	h2.795v-8.963c0-7.828-6.345-14.173-14.173-14.173h-36.851c-7.827,0-14.173,6.345-14.173,14.173v8.963h2.797
	c1.559,0,2.834,1.275,2.834,2.834v17.009c0,1.558-1.275,2.834-2.834,2.834h-2.797v8.963c0,7.828,6.346,14.173,14.173,14.173h36.851
	c7.828,0,14.173-6.345,14.173-14.173v-8.963H395.243z"/>
<path fill="none" stroke="#E81E1B" d="M471.855,464.668c-1.559,0-2.835-1.276-2.835-2.834v-17.009c0-1.559,1.276-2.834,2.835-2.834
	h2.795v-8.963c0-7.828-6.345-14.173-14.173-14.173h-36.85c-7.828,0-14.173,6.345-14.173,14.173v8.963h2.796
	c1.559,0,2.834,1.275,2.834,2.834v17.009c0,1.558-1.275,2.834-2.834,2.834h-2.796v8.963c0,7.828,6.345,14.173,14.173,14.173h36.85
	c7.828,0,14.173-6.345,14.173-14.173v-8.963H471.855z"/>
<path fill="none" stroke="#E81E1B" d="M548.467,464.668c-1.56,0-2.834-1.276-2.834-2.834v-17.009c0-1.559,1.274-2.834,2.834-2.834
	h2.795v-8.963c0-7.828-6.346-14.173-14.173-14.173h-36.85c-7.828,0-14.173,6.345-14.173,14.173v8.963h2.796
	c1.559,0,2.834,1.275,2.834,2.834v17.009c0,1.558-1.275,2.834-2.834,2.834h-2.796v8.963c0,7.828,6.345,14.173,14.173,14.173h36.85
	c7.827,0,14.173-6.345,14.173-14.173v-8.963H548.467z"/>
<path fill="none" stroke="#E81E1B" d="M625.078,464.668c-1.559,0-2.834-1.276-2.834-2.834v-17.009c0-1.559,1.275-2.834,2.834-2.834
	h2.796v-8.963c0-7.828-6.346-14.173-14.173-14.173h-36.851c-7.828,0-14.173,6.345-14.173,14.173v8.963h2.796
	c1.559,0,2.835,1.275,2.835,2.834v17.009c0,1.558-1.276,2.834-2.835,2.834h-2.796v8.963c0,7.828,6.345,14.173,14.173,14.173h36.851
	c7.827,0,14.173-6.345,14.173-14.173v-8.963H625.078z"/>
<path fill="none" stroke="#E81E1B" d="M701.69,464.668c-1.559,0-2.835-1.276-2.835-2.834v-17.009c0-1.559,1.276-2.834,2.835-2.834
	h2.795v-8.963c0-7.828-6.345-14.173-14.173-14.173h-36.85c-7.828,0-14.173,6.345-14.173,14.173v8.963h2.796
	c1.559,0,2.834,1.275,2.834,2.834v17.009c0,1.558-1.275,2.834-2.834,2.834h-2.796v8.963c0,7.828,6.345,14.173,14.173,14.173h36.85
	c7.828,0,14.173-6.345,14.173-14.173v-8.963H701.69z"/>
<path fill="none" stroke="#E81E1B" d="M778.303,464.668c-1.56,0-2.834-1.276-2.834-2.834v-17.009c0-1.559,1.274-2.834,2.834-2.834
	h2.795v-8.963c0-7.828-6.346-14.173-14.173-14.173h-36.851c-7.828,0-14.173,6.345-14.173,14.173v8.963h2.796
	c1.56,0,2.834,1.275,2.834,2.834v17.009c0,1.558-1.274,2.834-2.834,2.834h-2.796v8.963c0,7.828,6.345,14.173,14.173,14.173h36.851
	c7.827,0,14.173-6.345,14.173-14.173v-8.963H778.303z"/>
<path fill="none" stroke="#E81E1B" d="M854.914,464.668c-1.559,0-2.834-1.276-2.834-2.834v-17.009c0-1.559,1.275-2.834,2.834-2.834
	h2.796v-8.963c0-7.828-6.346-14.173-14.173-14.173h-36.851c-7.828,0-14.173,6.345-14.173,14.173v8.963h2.796
	c1.559,0,2.835,1.275,2.835,2.834v17.009c0,1.558-1.276,2.834-2.835,2.834h-2.796v8.963c0,7.828,6.345,14.173,14.173,14.173h36.851
	c7.827,0,14.173-6.345,14.173-14.173v-8.963H854.914z"/>
<path fill="none" stroke="#E81E1B" d="M931.526,464.668c-1.559,0-2.835-1.276-2.835-2.834v-17.009c0-1.559,1.276-2.834,2.835-2.834
	h2.795v-8.963c0-7.828-6.345-14.173-14.173-14.173h-36.851c-7.827,0-14.172,6.345-14.172,14.173v8.963h2.796
	c1.559,0,2.834,1.275,2.834,2.834v17.009c0,1.558-1.275,2.834-2.834,2.834h-2.796v8.963c0,7.828,6.345,14.173,14.172,14.173h36.851
	c7.828,0,14.173-6.345,14.173-14.173v-8.963H931.526z"/>
<path fill="none" stroke="#E81E1B" d="M1008.139,464.668c-1.56,0-2.834-1.276-2.834-2.834v-17.009c0-1.559,1.274-2.834,2.834-2.834
	h2.795v-8.963c0-7.828-6.346-14.173-14.173-14.173H959.91c-7.828,0-14.173,6.345-14.173,14.173v8.963h2.796
	c1.56,0,2.834,1.275,2.834,2.834v17.009c0,1.558-1.274,2.834-2.834,2.834h-2.796v8.963c0,7.828,6.345,14.173,14.173,14.173h36.851
	c7.827,0,14.173-6.345,14.173-14.173v-8.963H1008.139z"/>
<path fill="none" stroke="#E81E1B" d="M242.019,549.793c-1.559,0-2.834-1.276-2.834-2.835V529.95c0-1.559,1.275-2.834,2.834-2.834
	h2.795v-8.964c0-7.827-6.345-14.172-14.173-14.172h-36.85c-7.828,0-14.173,6.345-14.173,14.172v8.964h2.796
	c1.559,0,2.834,1.275,2.834,2.834v17.008c0,1.559-1.275,2.835-2.834,2.835h-2.796v8.963c0,7.828,6.345,14.173,14.173,14.173h36.85
	c7.828,0,14.173-6.345,14.173-14.173v-8.963H242.019z"/>
<path fill="none" stroke="#E81E1B" d="M318.631,549.793c-1.559,0-2.834-1.276-2.834-2.835V529.95c0-1.559,1.275-2.834,2.834-2.834
	h2.795v-8.964c0-7.827-6.345-14.172-14.173-14.172h-36.85c-7.828,0-14.173,6.345-14.173,14.172v8.964h2.796
	c1.559,0,2.834,1.275,2.834,2.834v17.008c0,1.559-1.275,2.835-2.834,2.835h-2.796v8.963c0,7.828,6.345,14.173,14.173,14.173h36.85
	c7.828,0,14.173-6.345,14.173-14.173v-8.963H318.631z"/>
<path fill="none" stroke="#E81E1B" d="M395.243,549.793c-1.559,0-2.835-1.276-2.835-2.835V529.95c0-1.559,1.276-2.834,2.835-2.834
	h2.795v-8.964c0-7.827-6.345-14.172-14.173-14.172h-36.851c-7.827,0-14.173,6.345-14.173,14.172v8.964h2.797
	c1.559,0,2.834,1.275,2.834,2.834v17.008c0,1.559-1.275,2.835-2.834,2.835h-2.797v8.963c0,7.828,6.346,14.173,14.173,14.173h36.851
	c7.828,0,14.173-6.345,14.173-14.173v-8.963H395.243z"/>
<path fill="none" stroke="#E81E1B" d="M471.855,549.793c-1.559,0-2.835-1.276-2.835-2.835V529.95c0-1.559,1.276-2.834,2.835-2.834
	h2.795v-8.964c0-7.827-6.345-14.172-14.173-14.172h-36.85c-7.828,0-14.173,6.345-14.173,14.172v8.964h2.796
	c1.559,0,2.834,1.275,2.834,2.834v17.008c0,1.559-1.275,2.835-2.834,2.835h-2.796v8.963c0,7.828,6.345,14.173,14.173,14.173h36.85
	c7.828,0,14.173-6.345,14.173-14.173v-8.963H471.855z"/>
<path fill="none" stroke="#E81E1B" d="M548.467,549.793c-1.56,0-2.834-1.276-2.834-2.835V529.95c0-1.559,1.274-2.834,2.834-2.834
	h2.795v-8.964c0-7.827-6.346-14.172-14.173-14.172h-36.85c-7.828,0-14.173,6.345-14.173,14.172v8.964h2.796
	c1.559,0,2.834,1.275,2.834,2.834v17.008c0,1.559-1.275,2.835-2.834,2.835h-2.796v8.963c0,7.828,6.345,14.173,14.173,14.173h36.85
	c7.827,0,14.173-6.345,14.173-14.173v-8.963H548.467z"/>
<path fill="none" stroke="#E81E1B" d="M625.078,549.793c-1.559,0-2.834-1.276-2.834-2.835V529.95c0-1.559,1.275-2.834,2.834-2.834
	h2.796v-8.964c0-7.827-6.346-14.172-14.173-14.172h-36.851c-7.828,0-14.173,6.345-14.173,14.172v8.964h2.796
	c1.559,0,2.835,1.275,2.835,2.834v17.008c0,1.559-1.276,2.835-2.835,2.835h-2.796v8.963c0,7.828,6.345,14.173,14.173,14.173h36.851
	c7.827,0,14.173-6.345,14.173-14.173v-8.963H625.078z"/>
<path fill="none" stroke="#E81E1B" d="M701.69,549.793c-1.559,0-2.835-1.276-2.835-2.835V529.95c0-1.559,1.276-2.834,2.835-2.834
	h2.795v-8.964c0-7.827-6.345-14.172-14.173-14.172h-36.85c-7.828,0-14.173,6.345-14.173,14.172v8.964h2.796
	c1.559,0,2.834,1.275,2.834,2.834v17.008c0,1.559-1.275,2.835-2.834,2.835h-2.796v8.963c0,7.828,6.345,14.173,14.173,14.173h36.85
	c7.828,0,14.173-6.345,14.173-14.173v-8.963H701.69z"/>
<path fill="none" stroke="#E81E1B" d="M778.303,549.793c-1.56,0-2.834-1.276-2.834-2.835V529.95c0-1.559,1.274-2.834,2.834-2.834
	h2.795v-8.964c0-7.827-6.346-14.172-14.173-14.172h-36.851c-7.828,0-14.173,6.345-14.173,14.172v8.964h2.796
	c1.56,0,2.834,1.275,2.834,2.834v17.008c0,1.559-1.274,2.835-2.834,2.835h-2.796v8.963c0,7.828,6.345,14.173,14.173,14.173h36.851
	c7.827,0,14.173-6.345,14.173-14.173v-8.963H778.303z"/>
<path fill="none" stroke="#E81E1B" d="M854.914,549.793c-1.559,0-2.834-1.276-2.834-2.835V529.95c0-1.559,1.275-2.834,2.834-2.834
	h2.796v-8.964c0-7.827-6.346-14.172-14.173-14.172h-36.851c-7.828,0-14.173,6.345-14.173,14.172v8.964h2.796
	c1.559,0,2.835,1.275,2.835,2.834v17.008c0,1.559-1.276,2.835-2.835,2.835h-2.796v8.963c0,7.828,6.345,14.173,14.173,14.173h36.851
	c7.827,0,14.173-6.345,14.173-14.173v-8.963H854.914z"/>
<path fill="none" stroke="#E81E1B" d="M931.526,549.793c-1.559,0-2.835-1.276-2.835-2.835V529.95c0-1.559,1.276-2.834,2.835-2.834
	h2.795v-8.964c0-7.827-6.345-14.172-14.173-14.172h-36.851c-7.827,0-14.172,6.345-14.172,14.172v8.964h2.796
	c1.559,0,2.834,1.275,2.834,2.834v17.008c0,1.559-1.275,2.835-2.834,2.835h-2.796v8.963c0,7.828,6.345,14.173,14.172,14.173h36.851
	c7.828,0,14.173-6.345,14.173-14.173v-8.963H931.526z"/>
<path fill="none" stroke="#E81E1B" d="M1008.139,549.793c-1.56,0-2.834-1.276-2.834-2.835V529.95c0-1.559,1.274-2.834,2.834-2.834
	h2.795v-8.964c0-7.827-6.346-14.172-14.173-14.172H959.91c-7.828,0-14.173,6.345-14.173,14.172v8.964h2.796
	c1.56,0,2.834,1.275,2.834,2.834v17.008c0,1.559-1.274,2.835-2.834,2.835h-2.796v8.963c0,7.828,6.345,14.173,14.173,14.173h36.851
	c7.827,0,14.173-6.345,14.173-14.173v-8.963H1008.139z"/>
<path fill="none" stroke="#E81E1B" d="M242.019,634.917c-1.559,0-2.834-1.274-2.834-2.834v-17.008c0-1.559,1.275-2.835,2.834-2.835
	h2.795v-8.963c0-7.828-6.345-14.173-14.173-14.173h-36.85c-7.828,0-14.173,6.345-14.173,14.173v8.963h2.796
	c1.559,0,2.834,1.276,2.834,2.835v17.008c0,1.56-1.275,2.834-2.834,2.834h-2.796v8.963c0,7.828,6.345,14.175,14.173,14.175h36.85
	c7.828,0,14.173-6.347,14.173-14.175v-8.963H242.019z"/>
<path fill="none" stroke="#E81E1B" d="M318.631,634.917c-1.559,0-2.834-1.274-2.834-2.834v-17.008c0-1.559,1.275-2.835,2.834-2.835
	h2.795v-8.963c0-7.828-6.345-14.173-14.173-14.173h-36.85c-7.828,0-14.173,6.345-14.173,14.173v8.963h2.796
	c1.559,0,2.834,1.276,2.834,2.835v17.008c0,1.56-1.275,2.834-2.834,2.834h-2.796v8.963c0,7.828,6.345,14.175,14.173,14.175h36.85
	c7.828,0,14.173-6.347,14.173-14.175v-8.963H318.631z"/>
<path fill="none" stroke="#E81E1B" d="M395.243,634.917c-1.559,0-2.835-1.274-2.835-2.834v-17.008c0-1.559,1.276-2.835,2.835-2.835
	h2.795v-8.963c0-7.828-6.345-14.173-14.173-14.173h-36.851c-7.827,0-14.173,6.345-14.173,14.173v8.963h2.797
	c1.559,0,2.834,1.276,2.834,2.835v17.008c0,1.56-1.275,2.834-2.834,2.834h-2.797v8.963c0,7.828,6.346,14.175,14.173,14.175h36.851
	c7.828,0,14.173-6.347,14.173-14.175v-8.963H395.243z"/>
<path fill="none" stroke="#E81E1B" d="M471.855,634.917c-1.559,0-2.835-1.274-2.835-2.834v-17.008c0-1.559,1.276-2.835,2.835-2.835
	h2.795v-8.963c0-7.828-6.345-14.173-14.173-14.173h-36.85c-7.828,0-14.173,6.345-14.173,14.173v8.963h2.796
	c1.559,0,2.834,1.276,2.834,2.835v17.008c0,1.56-1.275,2.834-2.834,2.834h-2.796v8.963c0,7.828,6.345,14.175,14.173,14.175h36.85
	c7.828,0,14.173-6.347,14.173-14.175v-8.963H471.855z"/>
<path fill="none" stroke="#E81E1B" d="M548.467,634.917c-1.56,0-2.834-1.274-2.834-2.834v-17.008c0-1.559,1.274-2.835,2.834-2.835
	h2.795v-8.963c0-7.828-6.346-14.173-14.173-14.173h-36.85c-7.828,0-14.173,6.345-14.173,14.173v8.963h2.796
	c1.559,0,2.834,1.276,2.834,2.835v17.008c0,1.56-1.275,2.834-2.834,2.834h-2.796v8.963c0,7.828,6.345,14.175,14.173,14.175h36.85
	c7.827,0,14.173-6.347,14.173-14.175v-8.963H548.467z"/>
<path fill="none" stroke="#E81E1B" d="M625.078,634.917c-1.559,0-2.834-1.274-2.834-2.834v-17.008c0-1.559,1.275-2.835,2.834-2.835
	h2.796v-8.963c0-7.828-6.346-14.173-14.173-14.173h-36.851c-7.828,0-14.173,6.345-14.173,14.173v8.963h2.796
	c1.559,0,2.835,1.276,2.835,2.835v17.008c0,1.56-1.276,2.834-2.835,2.834h-2.796v8.963c0,7.828,6.345,14.175,14.173,14.175h36.851
	c7.827,0,14.173-6.347,14.173-14.175v-8.963H625.078z"/>
<path fill="none" stroke="#E81E1B" d="M701.69,634.917c-1.559,0-2.835-1.274-2.835-2.834v-17.008c0-1.559,1.276-2.835,2.835-2.835
	h2.795v-8.963c0-7.828-6.345-14.173-14.173-14.173h-36.85c-7.828,0-14.173,6.345-14.173,14.173v8.963h2.796
	c1.559,0,2.834,1.276,2.834,2.835v17.008c0,1.56-1.275,2.834-2.834,2.834h-2.796v8.963c0,7.828,6.345,14.175,14.173,14.175h36.85
	c7.828,0,14.173-6.347,14.173-14.175v-8.963H701.69z"/>
<path fill="none" stroke="#E81E1B" d="M778.303,634.917c-1.56,0-2.834-1.274-2.834-2.834v-17.008c0-1.559,1.274-2.835,2.834-2.835
	h2.795v-8.963c0-7.828-6.346-14.173-14.173-14.173h-36.851c-7.828,0-14.173,6.345-14.173,14.173v8.963h2.796
	c1.56,0,2.834,1.276,2.834,2.835v17.008c0,1.56-1.274,2.834-2.834,2.834h-2.796v8.963c0,7.828,6.345,14.175,14.173,14.175h36.851
	c7.827,0,14.173-6.347,14.173-14.175v-8.963H778.303z"/>
<path fill="none" stroke="#E81E1B" d="M854.914,634.917c-1.559,0-2.834-1.274-2.834-2.834v-17.008c0-1.559,1.275-2.835,2.834-2.835
	h2.796v-8.963c0-7.828-6.346-14.173-14.173-14.173h-36.851c-7.828,0-14.173,6.345-14.173,14.173v8.963h2.796
	c1.559,0,2.835,1.276,2.835,2.835v17.008c0,1.56-1.276,2.834-2.835,2.834h-2.796v8.963c0,7.828,6.345,14.175,14.173,14.175h36.851
	c7.827,0,14.173-6.347,14.173-14.175v-8.963H854.914z"/>
<path fill="none" stroke="#E81E1B" d="M931.526,634.917c-1.559,0-2.835-1.274-2.835-2.834v-17.008c0-1.559,1.276-2.835,2.835-2.835
	h2.795v-8.963c0-7.828-6.345-14.173-14.173-14.173h-36.851c-7.827,0-14.172,6.345-14.172,14.173v8.963h2.796
	c1.559,0,2.834,1.276,2.834,2.835v17.008c0,1.56-1.275,2.834-2.834,2.834h-2.796v8.963c0,7.828,6.345,14.175,14.172,14.175h36.851
	c7.828,0,14.173-6.347,14.173-14.175v-8.963H931.526z"/>
<path fill="none" stroke="#E81E1B" d="M1008.139,634.917c-1.56,0-2.834-1.274-2.834-2.834v-17.008c0-1.559,1.274-2.835,2.834-2.835
	h2.795v-8.963c0-7.828-6.346-14.173-14.173-14.173H959.91c-7.828,0-14.173,6.345-14.173,14.173v8.963h2.796
	c1.56,0,2.834,1.276,2.834,2.835v17.008c0,1.56-1.274,2.834-2.834,2.834h-2.796v8.963c0,7.828,6.345,14.175,14.173,14.175h36.851
	c7.827,0,14.173-6.347,14.173-14.175v-8.963H1008.139z"/>
<path fill="none" stroke="#E81E1B" d="M242.019,720.042c-1.559,0-2.834-1.275-2.834-2.834V700.2c0-1.56,1.275-2.835,2.834-2.835
	h2.795v-8.964c0-7.827-6.345-14.173-14.173-14.173h-36.85c-7.828,0-14.173,6.346-14.173,14.173v8.964h2.796
	c1.559,0,2.834,1.275,2.834,2.835v17.008c0,1.559-1.275,2.834-2.834,2.834h-2.796v8.963c0,7.828,6.345,14.174,14.173,14.174h36.85
	c7.828,0,14.173-6.346,14.173-14.174v-8.963H242.019z"/>
<path fill="none" stroke="#E81E1B" d="M318.631,720.042c-1.559,0-2.834-1.275-2.834-2.834V700.2c0-1.56,1.275-2.835,2.834-2.835
	h2.795v-8.964c0-7.827-6.345-14.173-14.173-14.173h-36.85c-7.828,0-14.173,6.346-14.173,14.173v8.964h2.796
	c1.559,0,2.834,1.275,2.834,2.835v17.008c0,1.559-1.275,2.834-2.834,2.834h-2.796v8.963c0,7.828,6.345,14.174,14.173,14.174h36.85
	c7.828,0,14.173-6.346,14.173-14.174v-8.963H318.631z"/>
<path fill="none" stroke="#E81E1B" d="M395.243,720.042c-1.559,0-2.835-1.275-2.835-2.834V700.2c0-1.56,1.276-2.835,2.835-2.835
	h2.795v-8.964c0-7.827-6.345-14.173-14.173-14.173h-36.851c-7.827,0-14.173,6.346-14.173,14.173v8.964h2.797
	c1.559,0,2.834,1.275,2.834,2.835v17.008c0,1.559-1.275,2.834-2.834,2.834h-2.797v8.963c0,7.828,6.346,14.174,14.173,14.174h36.851
	c7.828,0,14.173-6.346,14.173-14.174v-8.963H395.243z"/>
<path fill="none" stroke="#E81E1B" d="M471.855,720.042c-1.559,0-2.835-1.275-2.835-2.834V700.2c0-1.56,1.276-2.835,2.835-2.835
	h2.795v-8.964c0-7.827-6.345-14.173-14.173-14.173h-36.85c-7.828,0-14.173,6.346-14.173,14.173v8.964h2.796
	c1.559,0,2.834,1.275,2.834,2.835v17.008c0,1.559-1.275,2.834-2.834,2.834h-2.796v8.963c0,7.828,6.345,14.174,14.173,14.174h36.85
	c7.828,0,14.173-6.346,14.173-14.174v-8.963H471.855z"/>
<path fill="none" stroke="#E81E1B" d="M548.467,720.042c-1.56,0-2.834-1.275-2.834-2.834V700.2c0-1.56,1.274-2.835,2.834-2.835
	h2.795v-8.964c0-7.827-6.346-14.173-14.173-14.173h-36.85c-7.828,0-14.173,6.346-14.173,14.173v8.964h2.796
	c1.559,0,2.834,1.275,2.834,2.835v17.008c0,1.559-1.275,2.834-2.834,2.834h-2.796v8.963c0,7.828,6.345,14.174,14.173,14.174h36.85
	c7.827,0,14.173-6.346,14.173-14.174v-8.963H548.467z"/>
<path fill="none" stroke="#E81E1B" d="M625.078,720.042c-1.559,0-2.834-1.275-2.834-2.834V700.2c0-1.56,1.275-2.835,2.834-2.835
	h2.796v-8.964c0-7.827-6.346-14.173-14.173-14.173h-36.851c-7.828,0-14.173,6.346-14.173,14.173v8.964h2.796
	c1.559,0,2.835,1.275,2.835,2.835v17.008c0,1.559-1.276,2.834-2.835,2.834h-2.796v8.963c0,7.828,6.345,14.174,14.173,14.174h36.851
	c7.827,0,14.173-6.346,14.173-14.174v-8.963H625.078z"/>
<path fill="none" stroke="#E81E1B" d="M701.69,720.042c-1.559,0-2.835-1.275-2.835-2.834V700.2c0-1.56,1.276-2.835,2.835-2.835
	h2.795v-8.964c0-7.827-6.345-14.173-14.173-14.173h-36.85c-7.828,0-14.173,6.346-14.173,14.173v8.964h2.796
	c1.559,0,2.834,1.275,2.834,2.835v17.008c0,1.559-1.275,2.834-2.834,2.834h-2.796v8.963c0,7.828,6.345,14.174,14.173,14.174h36.85
	c7.828,0,14.173-6.346,14.173-14.174v-8.963H701.69z"/>
<path fill="none" stroke="#E81E1B" d="M778.303,720.042c-1.56,0-2.834-1.275-2.834-2.834V700.2c0-1.56,1.274-2.835,2.834-2.835
	h2.795v-8.964c0-7.827-6.346-14.173-14.173-14.173h-36.851c-7.828,0-14.173,6.346-14.173,14.173v8.964h2.796
	c1.56,0,2.834,1.275,2.834,2.835v17.008c0,1.559-1.274,2.834-2.834,2.834h-2.796v8.963c0,7.828,6.345,14.174,14.173,14.174h36.851
	c7.827,0,14.173-6.346,14.173-14.174v-8.963H778.303z"/>
<path fill="none" stroke="#E81E1B" d="M854.914,720.042c-1.559,0-2.834-1.275-2.834-2.834V700.2c0-1.56,1.275-2.835,2.834-2.835
	h2.796v-8.964c0-7.827-6.346-14.173-14.173-14.173h-36.851c-7.828,0-14.173,6.346-14.173,14.173v8.964h2.796
	c1.559,0,2.835,1.275,2.835,2.835v17.008c0,1.559-1.276,2.834-2.835,2.834h-2.796v8.963c0,7.828,6.345,14.174,14.173,14.174h36.851
	c7.827,0,14.173-6.346,14.173-14.174v-8.963H854.914z"/>
<path fill="none" stroke="#E81E1B" d="M931.526,720.042c-1.559,0-2.835-1.275-2.835-2.834V700.2c0-1.56,1.276-2.835,2.835-2.835
	h2.795v-8.964c0-7.827-6.345-14.173-14.173-14.173h-36.851c-7.827,0-14.172,6.346-14.172,14.173v8.964h2.796
	c1.559,0,2.834,1.275,2.834,2.835v17.008c0,1.559-1.275,2.834-2.834,2.834h-2.796v8.963c0,7.828,6.345,14.174,14.172,14.174h36.851
	c7.828,0,14.173-6.346,14.173-14.174v-8.963H931.526z"/>
<path fill="none" stroke="#E81E1B" d="M1008.139,720.042c-1.56,0-2.834-1.275-2.834-2.834V700.2c0-1.56,1.274-2.835,2.834-2.835
	h2.795v-8.964c0-7.827-6.346-14.173-14.173-14.173H959.91c-7.828,0-14.173,6.346-14.173,14.173v8.964h2.796
	c1.56,0,2.834,1.275,2.834,2.835v17.008c0,1.559-1.274,2.834-2.834,2.834h-2.796v8.963c0,7.828,6.345,14.174,14.173,14.174h36.851
	c7.827,0,14.173-6.346,14.173-14.174v-8.963H1008.139z"/>
<path fill="none" stroke="#E81E1B" d="M242.019,805.166c-1.559,0-2.834-1.274-2.834-2.834v-17.008c0-1.559,1.275-2.835,2.834-2.835
	h2.795v-8.963c0-7.828-6.345-14.173-14.173-14.173h-36.85c-7.828,0-14.173,6.345-14.173,14.173v8.963h2.796
	c1.559,0,2.834,1.276,2.834,2.835v17.008c0,1.56-1.275,2.834-2.834,2.834h-2.796v8.963c0,7.828,6.345,14.174,14.173,14.174h36.85
	c7.828,0,14.173-6.346,14.173-14.174v-8.963H242.019z"/>
<path fill="none" stroke="#E81E1B" d="M318.631,805.166c-1.559,0-2.834-1.274-2.834-2.834v-17.008c0-1.559,1.275-2.835,2.834-2.835
	h2.795v-8.963c0-7.828-6.345-14.173-14.173-14.173h-36.85c-7.828,0-14.173,6.345-14.173,14.173v8.963h2.796
	c1.559,0,2.834,1.276,2.834,2.835v17.008c0,1.56-1.275,2.834-2.834,2.834h-2.796v8.963c0,7.828,6.345,14.174,14.173,14.174h36.85
	c7.828,0,14.173-6.346,14.173-14.174v-8.963H318.631z"/>
<path fill="none" stroke="#E81E1B" d="M395.243,805.166c-1.559,0-2.835-1.274-2.835-2.834v-17.008c0-1.559,1.276-2.835,2.835-2.835
	h2.795v-8.963c0-7.828-6.345-14.173-14.173-14.173h-36.851c-7.827,0-14.173,6.345-14.173,14.173v8.963h2.797
	c1.559,0,2.834,1.276,2.834,2.835v17.008c0,1.56-1.275,2.834-2.834,2.834h-2.797v8.963c0,7.828,6.346,14.174,14.173,14.174h36.851
	c7.828,0,14.173-6.346,14.173-14.174v-8.963H395.243z"/>
<path fill="none" stroke="#E81E1B" d="M471.855,805.166c-1.559,0-2.835-1.274-2.835-2.834v-17.008c0-1.559,1.276-2.835,2.835-2.835
	h2.795v-8.963c0-7.828-6.345-14.173-14.173-14.173h-36.85c-7.828,0-14.173,6.345-14.173,14.173v8.963h2.796
	c1.559,0,2.834,1.276,2.834,2.835v17.008c0,1.56-1.275,2.834-2.834,2.834h-2.796v8.963c0,7.828,6.345,14.174,14.173,14.174h36.85
	c7.828,0,14.173-6.346,14.173-14.174v-8.963H471.855z"/>
<path fill="none" stroke="#E81E1B" d="M548.467,805.166c-1.56,0-2.834-1.274-2.834-2.834v-17.008c0-1.559,1.274-2.835,2.834-2.835
	h2.795v-8.963c0-7.828-6.346-14.173-14.173-14.173h-36.85c-7.828,0-14.173,6.345-14.173,14.173v8.963h2.796
	c1.559,0,2.834,1.276,2.834,2.835v17.008c0,1.56-1.275,2.834-2.834,2.834h-2.796v8.963c0,7.828,6.345,14.174,14.173,14.174h36.85
	c7.827,0,14.173-6.346,14.173-14.174v-8.963H548.467z"/>
<path fill="none" stroke="#E81E1B" d="M625.078,805.166c-1.559,0-2.834-1.274-2.834-2.834v-17.008c0-1.559,1.275-2.835,2.834-2.835
	h2.796v-8.963c0-7.828-6.346-14.173-14.173-14.173h-36.851c-7.828,0-14.173,6.345-14.173,14.173v8.963h2.796
	c1.559,0,2.835,1.276,2.835,2.835v17.008c0,1.56-1.276,2.834-2.835,2.834h-2.796v8.963c0,7.828,6.345,14.174,14.173,14.174h36.851
	c7.827,0,14.173-6.346,14.173-14.174v-8.963H625.078z"/>
<path fill="none" stroke="#E81E1B" d="M701.69,805.166c-1.559,0-2.835-1.274-2.835-2.834v-17.008c0-1.559,1.276-2.835,2.835-2.835
	h2.795v-8.963c0-7.828-6.345-14.173-14.173-14.173h-36.85c-7.828,0-14.173,6.345-14.173,14.173v8.963h2.796
	c1.559,0,2.834,1.276,2.834,2.835v17.008c0,1.56-1.275,2.834-2.834,2.834h-2.796v8.963c0,7.828,6.345,14.174,14.173,14.174h36.85
	c7.828,0,14.173-6.346,14.173-14.174v-8.963H701.69z"/>
<path fill="none" stroke="#E81E1B" d="M778.303,805.166c-1.56,0-2.834-1.274-2.834-2.834v-17.008c0-1.559,1.274-2.835,2.834-2.835
	h2.795v-8.963c0-7.828-6.346-14.173-14.173-14.173h-36.851c-7.828,0-14.173,6.345-14.173,14.173v8.963h2.796
	c1.56,0,2.834,1.276,2.834,2.835v17.008c0,1.56-1.274,2.834-2.834,2.834h-2.796v8.963c0,7.828,6.345,14.174,14.173,14.174h36.851
	c7.827,0,14.173-6.346,14.173-14.174v-8.963H778.303z"/>
<path fill="none" stroke="#E81E1B" d="M854.914,805.166c-1.559,0-2.834-1.274-2.834-2.834v-17.008c0-1.559,1.275-2.835,2.834-2.835
	h2.796v-8.963c0-7.828-6.346-14.173-14.173-14.173h-36.851c-7.828,0-14.173,6.345-14.173,14.173v8.963h2.796
	c1.559,0,2.835,1.276,2.835,2.835v17.008c0,1.56-1.276,2.834-2.835,2.834h-2.796v8.963c0,7.828,6.345,14.174,14.173,14.174h36.851
	c7.827,0,14.173-6.346,14.173-14.174v-8.963H854.914z"/>
<path fill="none" stroke="#E81E1B" d="M931.526,805.166c-1.559,0-2.835-1.274-2.835-2.834v-17.008c0-1.559,1.276-2.835,2.835-2.835
	h2.795v-8.963c0-7.828-6.345-14.173-14.173-14.173h-36.851c-7.827,0-14.172,6.345-14.172,14.173v8.963h2.796
	c1.559,0,2.834,1.276,2.834,2.835v17.008c0,1.56-1.275,2.834-2.834,2.834h-2.796v8.963c0,7.828,6.345,14.174,14.172,14.174h36.851
	c7.828,0,14.173-6.346,14.173-14.174v-8.963H931.526z"/>
<path fill="none" stroke="#E81E1B" d="M1008.139,805.166c-1.56,0-2.834-1.274-2.834-2.834v-17.008c0-1.559,1.274-2.835,2.834-2.835
	h2.795v-8.963c0-7.828-6.346-14.173-14.173-14.173H959.91c-7.828,0-14.173,6.345-14.173,14.173v8.963h2.796
	c1.56,0,2.834,1.276,2.834,2.835v17.008c0,1.56-1.274,2.834-2.834,2.834h-2.796v8.963c0,7.828,6.345,14.174,14.173,14.174h36.851
	c7.827,0,14.173-6.346,14.173-14.174v-8.963H1008.139z"/>
<path fill="none" stroke="#E81E1B" d="M242.019,890.29c-1.559,0-2.834-1.276-2.834-2.835v-17.008c0-1.56,1.275-2.834,2.834-2.834
	h2.795v-8.964c0-7.826-6.345-14.172-14.173-14.172h-36.85c-7.828,0-14.173,6.346-14.173,14.172v8.964h2.796
	c1.559,0,2.834,1.274,2.834,2.834v17.008c0,1.559-1.275,2.835-2.834,2.835h-2.796v8.963c0,7.828,6.345,14.173,14.173,14.173h36.85
	c7.828,0,14.173-6.345,14.173-14.173v-8.963H242.019z"/>
<path fill="none" stroke="#E81E1B" d="M318.631,890.29c-1.559,0-2.834-1.276-2.834-2.835v-17.008c0-1.56,1.275-2.834,2.834-2.834
	h2.795v-8.964c0-7.826-6.345-14.172-14.173-14.172h-36.85c-7.828,0-14.173,6.346-14.173,14.172v8.964h2.796
	c1.559,0,2.834,1.274,2.834,2.834v17.008c0,1.559-1.275,2.835-2.834,2.835h-2.796v8.963c0,7.828,6.345,14.173,14.173,14.173h36.85
	c7.828,0,14.173-6.345,14.173-14.173v-8.963H318.631z"/>
<path fill="none" stroke="#E81E1B" d="M395.243,890.29c-1.559,0-2.835-1.276-2.835-2.835v-17.008c0-1.56,1.276-2.834,2.835-2.834
	h2.795v-8.964c0-7.826-6.345-14.172-14.173-14.172h-36.851c-7.827,0-14.173,6.346-14.173,14.172v8.964h2.797
	c1.559,0,2.834,1.274,2.834,2.834v17.008c0,1.559-1.275,2.835-2.834,2.835h-2.797v8.963c0,7.828,6.346,14.173,14.173,14.173h36.851
	c7.828,0,14.173-6.345,14.173-14.173v-8.963H395.243z"/>
<path fill="none" stroke="#E81E1B" d="M471.855,890.29c-1.559,0-2.835-1.276-2.835-2.835v-17.008c0-1.56,1.276-2.834,2.835-2.834
	h2.795v-8.964c0-7.826-6.345-14.172-14.173-14.172h-36.85c-7.828,0-14.173,6.346-14.173,14.172v8.964h2.796
	c1.559,0,2.834,1.274,2.834,2.834v17.008c0,1.559-1.275,2.835-2.834,2.835h-2.796v8.963c0,7.828,6.345,14.173,14.173,14.173h36.85
	c7.828,0,14.173-6.345,14.173-14.173v-8.963H471.855z"/>
<path fill="none" stroke="#E81E1B" d="M548.467,890.29c-1.56,0-2.834-1.276-2.834-2.835v-17.008c0-1.56,1.274-2.834,2.834-2.834
	h2.795v-8.964c0-7.826-6.346-14.172-14.173-14.172h-36.85c-7.828,0-14.173,6.346-14.173,14.172v8.964h2.796
	c1.559,0,2.834,1.274,2.834,2.834v17.008c0,1.559-1.275,2.835-2.834,2.835h-2.796v8.963c0,7.828,6.345,14.173,14.173,14.173h36.85
	c7.827,0,14.173-6.345,14.173-14.173v-8.963H548.467z"/>
<path fill="none" stroke="#E81E1B" d="M625.078,890.29c-1.559,0-2.834-1.276-2.834-2.835v-17.008c0-1.56,1.275-2.834,2.834-2.834
	h2.796v-8.964c0-7.826-6.346-14.172-14.173-14.172h-36.851c-7.828,0-14.173,6.346-14.173,14.172v8.964h2.796
	c1.559,0,2.835,1.274,2.835,2.834v17.008c0,1.559-1.276,2.835-2.835,2.835h-2.796v8.963c0,7.828,6.345,14.173,14.173,14.173h36.851
	c7.827,0,14.173-6.345,14.173-14.173v-8.963H625.078z"/>
<path fill="none" stroke="#E81E1B" d="M701.69,890.29c-1.559,0-2.835-1.276-2.835-2.835v-17.008c0-1.56,1.276-2.834,2.835-2.834
	h2.795v-8.964c0-7.826-6.345-14.172-14.173-14.172h-36.85c-7.828,0-14.173,6.346-14.173,14.172v8.964h2.796
	c1.559,0,2.834,1.274,2.834,2.834v17.008c0,1.559-1.275,2.835-2.834,2.835h-2.796v8.963c0,7.828,6.345,14.173,14.173,14.173h36.85
	c7.828,0,14.173-6.345,14.173-14.173v-8.963H701.69z"/>
<path fill="none" stroke="#E81E1B" d="M778.303,890.29c-1.56,0-2.834-1.276-2.834-2.835v-17.008c0-1.56,1.274-2.834,2.834-2.834
	h2.795v-8.964c0-7.826-6.346-14.172-14.173-14.172h-36.851c-7.828,0-14.173,6.346-14.173,14.172v8.964h2.796
	c1.56,0,2.834,1.274,2.834,2.834v17.008c0,1.559-1.274,2.835-2.834,2.835h-2.796v8.963c0,7.828,6.345,14.173,14.173,14.173h36.851
	c7.827,0,14.173-6.345,14.173-14.173v-8.963H778.303z"/>
<path fill="none" stroke="#E81E1B" d="M854.914,890.29c-1.559,0-2.834-1.276-2.834-2.835v-17.008c0-1.56,1.275-2.834,2.834-2.834
	h2.796v-8.964c0-7.826-6.346-14.172-14.173-14.172h-36.851c-7.828,0-14.173,6.346-14.173,14.172v8.964h2.796
	c1.559,0,2.835,1.274,2.835,2.834v17.008c0,1.559-1.276,2.835-2.835,2.835h-2.796v8.963c0,7.828,6.345,14.173,14.173,14.173h36.851
	c7.827,0,14.173-6.345,14.173-14.173v-8.963H854.914z"/>
<path fill="none" stroke="#E81E1B" d="M931.526,890.29c-1.559,0-2.835-1.276-2.835-2.835v-17.008c0-1.56,1.276-2.834,2.835-2.834
	h2.795v-8.964c0-7.826-6.345-14.172-14.173-14.172h-36.851c-7.827,0-14.172,6.346-14.172,14.172v8.964h2.796
	c1.559,0,2.834,1.274,2.834,2.834v17.008c0,1.559-1.275,2.835-2.834,2.835h-2.796v8.963c0,7.828,6.345,14.173,14.172,14.173h36.851
	c7.828,0,14.173-6.345,14.173-14.173v-8.963H931.526z"/>
<path fill="none" stroke="#E81E1B" d="M1008.139,890.29c-1.56,0-2.834-1.276-2.834-2.835v-17.008c0-1.56,1.274-2.834,2.834-2.834
	h2.795v-8.964c0-7.826-6.346-14.172-14.173-14.172H959.91c-7.828,0-14.173,6.346-14.173,14.172v8.964h2.796
	c1.56,0,2.834,1.274,2.834,2.834v17.008c0,1.559-1.274,2.835-2.834,2.835h-2.796v8.963c0,7.828,6.345,14.173,14.173,14.173h36.851
	c7.827,0,14.173-6.345,14.173-14.173v-8.963H1008.139z"/>
<path fill="none" stroke="#E81E1B" d="M242.019,975.414c-1.559,0-2.834-1.275-2.834-2.835v-17.008c0-1.558,1.275-2.835,2.834-2.835
	h2.795v-8.963c0-7.827-6.345-14.172-14.173-14.172h-36.85c-7.828,0-14.173,6.345-14.173,14.172v8.963h2.796
	c1.559,0,2.834,1.277,2.834,2.835v17.008c0,1.56-1.275,2.835-2.834,2.835h-2.796v8.963c0,7.828,6.345,14.173,14.173,14.173h36.85
	c7.828,0,14.173-6.345,14.173-14.173v-8.963H242.019z"/>
<path fill="none" stroke="#E81E1B" d="M318.631,975.414c-1.559,0-2.834-1.275-2.834-2.835v-17.008c0-1.558,1.275-2.835,2.834-2.835
	h2.795v-8.963c0-7.827-6.345-14.172-14.173-14.172h-36.85c-7.828,0-14.173,6.345-14.173,14.172v8.963h2.796
	c1.559,0,2.834,1.277,2.834,2.835v17.008c0,1.56-1.275,2.835-2.834,2.835h-2.796v8.963c0,7.828,6.345,14.173,14.173,14.173h36.85
	c7.828,0,14.173-6.345,14.173-14.173v-8.963H318.631z"/>
<path fill="none" stroke="#E81E1B" d="M395.243,975.414c-1.559,0-2.835-1.275-2.835-2.835v-17.008c0-1.558,1.276-2.835,2.835-2.835
	h2.795v-8.963c0-7.827-6.345-14.172-14.173-14.172h-36.851c-7.827,0-14.173,6.345-14.173,14.172v8.963h2.797
	c1.559,0,2.834,1.277,2.834,2.835v17.008c0,1.56-1.275,2.835-2.834,2.835h-2.797v8.963c0,7.828,6.346,14.173,14.173,14.173h36.851
	c7.828,0,14.173-6.345,14.173-14.173v-8.963H395.243z"/>
<path fill="none" stroke="#E81E1B" d="M471.855,975.414c-1.559,0-2.835-1.275-2.835-2.835v-17.008c0-1.558,1.276-2.835,2.835-2.835
	h2.795v-8.963c0-7.827-6.345-14.172-14.173-14.172h-36.85c-7.828,0-14.173,6.345-14.173,14.172v8.963h2.796
	c1.559,0,2.834,1.277,2.834,2.835v17.008c0,1.56-1.275,2.835-2.834,2.835h-2.796v8.963c0,7.828,6.345,14.173,14.173,14.173h36.85
	c7.828,0,14.173-6.345,14.173-14.173v-8.963H471.855z"/>
<path fill="none" stroke="#E81E1B" d="M548.467,975.414c-1.56,0-2.834-1.275-2.834-2.835v-17.008c0-1.558,1.274-2.835,2.834-2.835
	h2.795v-8.963c0-7.827-6.346-14.172-14.173-14.172h-36.85c-7.828,0-14.173,6.345-14.173,14.172v8.963h2.796
	c1.559,0,2.834,1.277,2.834,2.835v17.008c0,1.56-1.275,2.835-2.834,2.835h-2.796v8.963c0,7.828,6.345,14.173,14.173,14.173h36.85
	c7.827,0,14.173-6.345,14.173-14.173v-8.963H548.467z"/>
<path fill="none" stroke="#E81E1B" d="M625.078,975.414c-1.559,0-2.834-1.275-2.834-2.835v-17.008c0-1.558,1.275-2.835,2.834-2.835
	h2.796v-8.963c0-7.827-6.346-14.172-14.173-14.172h-36.851c-7.828,0-14.173,6.345-14.173,14.172v8.963h2.796
	c1.559,0,2.835,1.277,2.835,2.835v17.008c0,1.56-1.276,2.835-2.835,2.835h-2.796v8.963c0,7.828,6.345,14.173,14.173,14.173h36.851
	c7.827,0,14.173-6.345,14.173-14.173v-8.963H625.078z"/>
<path fill="none" stroke="#E81E1B" d="M701.69,975.414c-1.559,0-2.835-1.275-2.835-2.835v-17.008c0-1.558,1.276-2.835,2.835-2.835
	h2.795v-8.963c0-7.827-6.345-14.172-14.173-14.172h-36.85c-7.828,0-14.173,6.345-14.173,14.172v8.963h2.796
	c1.559,0,2.834,1.277,2.834,2.835v17.008c0,1.56-1.275,2.835-2.834,2.835h-2.796v8.963c0,7.828,6.345,14.173,14.173,14.173h36.85
	c7.828,0,14.173-6.345,14.173-14.173v-8.963H701.69z"/>
<path fill="none" stroke="#E81E1B" d="M778.303,975.414c-1.56,0-2.834-1.275-2.834-2.835v-17.008c0-1.558,1.274-2.835,2.834-2.835
	h2.795v-8.963c0-7.827-6.346-14.172-14.173-14.172h-36.851c-7.828,0-14.173,6.345-14.173,14.172v8.963h2.796
	c1.56,0,2.834,1.277,2.834,2.835v17.008c0,1.56-1.274,2.835-2.834,2.835h-2.796v8.963c0,7.828,6.345,14.173,14.173,14.173h36.851
	c7.827,0,14.173-6.345,14.173-14.173v-8.963H778.303z"/>
<path fill="none" stroke="#E81E1B" d="M854.914,975.414c-1.559,0-2.834-1.275-2.834-2.835v-17.008c0-1.558,1.275-2.835,2.834-2.835
	h2.796v-8.963c0-7.827-6.346-14.172-14.173-14.172h-36.851c-7.828,0-14.173,6.345-14.173,14.172v8.963h2.796
	c1.559,0,2.835,1.277,2.835,2.835v17.008c0,1.56-1.276,2.835-2.835,2.835h-2.796v8.963c0,7.828,6.345,14.173,14.173,14.173h36.851
	c7.827,0,14.173-6.345,14.173-14.173v-8.963H854.914z"/>
<path fill="none" stroke="#E81E1B" d="M931.526,975.414c-1.559,0-2.835-1.275-2.835-2.835v-17.008c0-1.558,1.276-2.835,2.835-2.835
	h2.795v-8.963c0-7.827-6.345-14.172-14.173-14.172h-36.851c-7.827,0-14.172,6.345-14.172,14.172v8.963h2.796
	c1.559,0,2.834,1.277,2.834,2.835v17.008c0,1.56-1.275,2.835-2.834,2.835h-2.796v8.963c0,7.828,6.345,14.173,14.172,14.173h36.851
	c7.828,0,14.173-6.345,14.173-14.173v-8.963H931.526z"/>
<path fill="none" stroke="#E81E1B" d="M1008.139,975.414c-1.56,0-2.834-1.275-2.834-2.835v-17.008c0-1.558,1.274-2.835,2.834-2.835
	h2.795v-8.963c0-7.827-6.346-14.172-14.173-14.172H959.91c-7.828,0-14.173,6.345-14.173,14.172v8.963h2.796
	c1.56,0,2.834,1.277,2.834,2.835v17.008c0,1.56-1.274,2.835-2.834,2.835h-2.796v8.963c0,7.828,6.345,14.173,14.173,14.173h36.851
	c7.827,0,14.173-6.345,14.173-14.173v-8.963H1008.139z"/>
<path fill="none" stroke="#E81E1B" d="M242.019,1060.538c-1.559,0-2.834-1.274-2.834-2.834v-17.009c0-1.558,1.275-2.834,2.834-2.834
	h2.795v-8.963c0-7.828-6.345-14.173-14.173-14.173h-36.85c-7.828,0-14.173,6.345-14.173,14.173v8.963h2.796
	c1.559,0,2.834,1.276,2.834,2.834v17.009c0,1.56-1.275,2.834-2.834,2.834h-2.796v8.963c0,7.828,6.345,14.174,14.173,14.174h36.85
	c7.828,0,14.173-6.346,14.173-14.174v-8.963H242.019z"/>
<path fill="none" stroke="#E81E1B" d="M318.631,1060.538c-1.559,0-2.834-1.274-2.834-2.834v-17.009c0-1.558,1.275-2.834,2.834-2.834
	h2.795v-8.963c0-7.828-6.345-14.173-14.173-14.173h-36.85c-7.828,0-14.173,6.345-14.173,14.173v8.963h2.796
	c1.559,0,2.834,1.276,2.834,2.834v17.009c0,1.56-1.275,2.834-2.834,2.834h-2.796v8.963c0,7.828,6.345,14.174,14.173,14.174h36.85
	c7.828,0,14.173-6.346,14.173-14.174v-8.963H318.631z"/>
<path fill="none" stroke="#E81E1B" d="M395.243,1060.538c-1.559,0-2.835-1.274-2.835-2.834v-17.009c0-1.558,1.276-2.834,2.835-2.834
	h2.795v-8.963c0-7.828-6.345-14.173-14.173-14.173h-36.851c-7.827,0-14.173,6.345-14.173,14.173v8.963h2.797
	c1.559,0,2.834,1.276,2.834,2.834v17.009c0,1.56-1.275,2.834-2.834,2.834h-2.797v8.963c0,7.828,6.346,14.174,14.173,14.174h36.851
	c7.828,0,14.173-6.346,14.173-14.174v-8.963H395.243z"/>
<path fill="none" stroke="#E81E1B" d="M471.855,1060.538c-1.559,0-2.835-1.274-2.835-2.834v-17.009c0-1.558,1.276-2.834,2.835-2.834
	h2.795v-8.963c0-7.828-6.345-14.173-14.173-14.173h-36.85c-7.828,0-14.173,6.345-14.173,14.173v8.963h2.796
	c1.559,0,2.834,1.276,2.834,2.834v17.009c0,1.56-1.275,2.834-2.834,2.834h-2.796v8.963c0,7.828,6.345,14.174,14.173,14.174h36.85
	c7.828,0,14.173-6.346,14.173-14.174v-8.963H471.855z"/>
<path fill="none" stroke="#E81E1B" d="M548.467,1060.538c-1.56,0-2.834-1.274-2.834-2.834v-17.009c0-1.558,1.274-2.834,2.834-2.834
	h2.795v-8.963c0-7.828-6.346-14.173-14.173-14.173h-36.85c-7.828,0-14.173,6.345-14.173,14.173v8.963h2.796
	c1.559,0,2.834,1.276,2.834,2.834v17.009c0,1.56-1.275,2.834-2.834,2.834h-2.796v8.963c0,7.828,6.345,14.174,14.173,14.174h36.85
	c7.827,0,14.173-6.346,14.173-14.174v-8.963H548.467z"/>
<path fill="none" stroke="#E81E1B" d="M625.078,1060.538c-1.559,0-2.834-1.274-2.834-2.834v-17.009c0-1.558,1.275-2.834,2.834-2.834
	h2.796v-8.963c0-7.828-6.346-14.173-14.173-14.173h-36.851c-7.828,0-14.173,6.345-14.173,14.173v8.963h2.796
	c1.559,0,2.835,1.276,2.835,2.834v17.009c0,1.56-1.276,2.834-2.835,2.834h-2.796v8.963c0,7.828,6.345,14.174,14.173,14.174h36.851
	c7.827,0,14.173-6.346,14.173-14.174v-8.963H625.078z"/>
<path fill="none" stroke="#E81E1B" d="M701.69,1060.538c-1.559,0-2.835-1.274-2.835-2.834v-17.009c0-1.558,1.276-2.834,2.835-2.834
	h2.795v-8.963c0-7.828-6.345-14.173-14.173-14.173h-36.85c-7.828,0-14.173,6.345-14.173,14.173v8.963h2.796
	c1.559,0,2.834,1.276,2.834,2.834v17.009c0,1.56-1.275,2.834-2.834,2.834h-2.796v8.963c0,7.828,6.345,14.174,14.173,14.174h36.85
	c7.828,0,14.173-6.346,14.173-14.174v-8.963H701.69z"/>
<path fill="none" stroke="#E81E1B" d="M778.303,1060.538c-1.56,0-2.834-1.274-2.834-2.834v-17.009c0-1.558,1.274-2.834,2.834-2.834
	h2.795v-8.963c0-7.828-6.346-14.173-14.173-14.173h-36.851c-7.828,0-14.173,6.345-14.173,14.173v8.963h2.796
	c1.56,0,2.834,1.276,2.834,2.834v17.009c0,1.56-1.274,2.834-2.834,2.834h-2.796v8.963c0,7.828,6.345,14.174,14.173,14.174h36.851
	c7.827,0,14.173-6.346,14.173-14.174v-8.963H778.303z"/>
<path fill="none" stroke="#E81E1B" d="M854.914,1060.538c-1.559,0-2.834-1.274-2.834-2.834v-17.009c0-1.558,1.275-2.834,2.834-2.834
	h2.796v-8.963c0-7.828-6.346-14.173-14.173-14.173h-36.851c-7.828,0-14.173,6.345-14.173,14.173v8.963h2.796
	c1.559,0,2.835,1.276,2.835,2.834v17.009c0,1.56-1.276,2.834-2.835,2.834h-2.796v8.963c0,7.828,6.345,14.174,14.173,14.174h36.851
	c7.827,0,14.173-6.346,14.173-14.174v-8.963H854.914z"/>
<path fill="none" stroke="#E81E1B" d="M931.526,1060.538c-1.559,0-2.835-1.274-2.835-2.834v-17.009c0-1.558,1.276-2.834,2.835-2.834
	h2.795v-8.963c0-7.828-6.345-14.173-14.173-14.173h-36.851c-7.827,0-14.172,6.345-14.172,14.173v8.963h2.796
	c1.559,0,2.834,1.276,2.834,2.834v17.009c0,1.56-1.275,2.834-2.834,2.834h-2.796v8.963c0,7.828,6.345,14.174,14.172,14.174h36.851
	c7.828,0,14.173-6.346,14.173-14.174v-8.963H931.526z"/>
<path fill="none" stroke="#E81E1B" d="M1008.139,1060.538c-1.56,0-2.834-1.274-2.834-2.834v-17.009c0-1.558,1.274-2.834,2.834-2.834
	h2.795v-8.963c0-7.828-6.346-14.173-14.173-14.173H959.91c-7.828,0-14.173,6.345-14.173,14.173v8.963h2.796
	c1.56,0,2.834,1.276,2.834,2.834v17.009c0,1.56-1.274,2.834-2.834,2.834h-2.796v8.963c0,7.828,6.345,14.174,14.173,14.174h36.851
	c7.827,0,14.173-6.346,14.173-14.174v-8.963H1008.139z"/>
<path fill="none" stroke="#E81E1B" d="M510.161,1151.978c-1.559,0-2.834-1.276-2.834-2.835v-17.008c0-1.56,1.275-2.835,2.834-2.835
	h2.795v-8.963c0-7.828-6.346-14.172-14.172-14.172h-36.851c-7.828,0-14.173,6.344-14.173,14.172v8.963h2.796
	c1.559,0,2.835,1.275,2.835,2.835v17.008c0,1.559-1.276,2.835-2.835,2.835h-2.796v8.963c0,7.827,6.345,14.173,14.173,14.173h36.851
	c7.827,0,14.172-6.346,14.172-14.173v-8.963H510.161z"/>
<path fill="none" stroke="#E81E1B" d="M586.772,1151.978c-1.559,0-2.835-1.276-2.835-2.835v-17.008c0-1.56,1.276-2.835,2.835-2.835
	h2.795v-8.963c0-7.828-6.345-14.172-14.173-14.172h-36.85c-7.828,0-14.173,6.344-14.173,14.172v8.963h2.796
	c1.559,0,2.834,1.275,2.834,2.835v17.008c0,1.559-1.275,2.835-2.834,2.835h-2.796v8.963c0,7.827,6.345,14.173,14.173,14.173h36.85
	c7.828,0,14.173-6.346,14.173-14.173v-8.963H586.772z"/>
<path fill="none" stroke="#E81E1B" d="M663.385,1151.978c-1.56,0-2.834-1.276-2.834-2.835v-17.008c0-1.56,1.274-2.835,2.834-2.835
	h2.795v-8.963c0-7.828-6.345-14.172-14.173-14.172h-36.851c-7.828,0-14.173,6.344-14.173,14.172v8.963h2.796
	c1.56,0,2.834,1.275,2.834,2.835v17.008c0,1.559-1.274,2.835-2.834,2.835h-2.796v8.963c0,7.827,6.345,14.173,14.173,14.173h36.851
	c7.828,0,14.173-6.346,14.173-14.173v-8.963H663.385z"/>
<path fill="none" stroke="#E81E1B" d="M739.996,1151.978c-1.559,0-2.834-1.276-2.834-2.835v-17.008c0-1.56,1.275-2.835,2.834-2.835
	h2.796v-8.963c0-7.828-6.346-14.172-14.173-14.172h-36.851c-7.828,0-14.173,6.344-14.173,14.172v8.963h2.796
	c1.559,0,2.835,1.275,2.835,2.835v17.008c0,1.559-1.276,2.835-2.835,2.835h-2.796v8.963c0,7.827,6.345,14.173,14.173,14.173h36.851
	c7.827,0,14.173-6.346,14.173-14.173v-8.963H739.996z"/>
<rect x="69.449" y="779.527" fill="none" stroke="#E81E1B" stroke-miterlimit="10" width="87.874" height="170.079"/>
<circle fill="none" stroke="#E81E1B" stroke-miterlimit="10" cx="113.385" cy="1091.337" r="42.52"/>
<path fill="none" stroke="#E81E1B" stroke-miterlimit="10" d="M127.559,595.275H99.212c-15.591,0-28.347-12.756-28.347-28.347
	v-85.039c0-15.591,12.756-28.346,28.347-28.346h28.346c15.591,0,28.347,12.755,28.347,28.346v85.039
	C155.906,582.519,143.149,595.275,127.559,595.275z"/>
<rect x="1033.228" y="779.527" fill="none" stroke="#E81E1B" stroke-miterlimit="10" width="87.874" height="170.079"/>
<path fill="none" stroke="#E81E1B" d="M1148.031,99.212H42.52c-7.827,0-14.173,6.345-14.173,14.172v1105.511
	c0,7.828,6.346,14.174,14.173,14.174h104.881v-34.016h12.756v-14.174H180v14.174h12.756v34.016h805.039v-34.016h12.757v-14.174
	h19.843v14.174h12.756v34.016h104.882c7.828,0,14.173-6.346,14.173-14.174V113.384
	C1162.204,105.558,1155.859,99.212,1148.031,99.212z"/>
<circle fill="none" stroke="#E81E1B" stroke-miterlimit="10" cx="1077.165" cy="1091.337" r="42.52"/>
<path fill="none" stroke="#E81E1B" stroke-miterlimit="10" d="M1062.991,595.275h28.347c15.591,0,28.347-12.756,28.347-28.347
	v-85.039c0-15.591-12.756-28.346-28.347-28.346h-28.347c-15.59,0-28.346,12.755-28.346,28.346v85.039
	C1034.646,582.519,1047.401,595.275,1062.991,595.275z"/>
<path fill="none" stroke="#E81E1B" d="M625.078,198.007c-1.559,0-2.834-1.275-2.834-2.834v-17.008c0-1.559,1.275-2.835,2.834-2.835
	h2.796v-8.963c0-7.828-6.346-14.173-14.173-14.173h-36.851c-7.828,0-14.173,6.345-14.173,14.173v8.963h2.796
	c1.559,0,2.835,1.276,2.835,2.835v17.008c0,1.559-1.276,2.834-2.835,2.834h-2.796v8.963c0,7.828,6.345,14.173,14.173,14.173h36.851
	c7.827,0,14.173-6.345,14.173-14.173v-8.963H625.078z"/>
<line fill="none" stroke="#E81E1B" x1="748.5" y1="186.668" x2="978.336" y2="186.668"/>
<line fill="none" stroke="#E81E1B" x1="212.216" y1="186.668" x2="442.052" y2="186.668"/>
<rect x="932.942" y="1042.113" fill="#020000" width="14.173" height="14.173"/>
<rect x="856.332" y="1042.113" fill="#020000" width="14.173" height="14.173"/>
<rect x="779.72" y="1042.113" fill="#020000" width="14.173" height="14.173"/>
<rect x="703.106" y="1042.113" fill="#020000" width="14.173" height="14.173"/>
<rect x="626.495" y="1042.113" fill="#020000" width="14.174" height="14.173"/>
<rect x="549.884" y="1042.113" fill="#020000" width="14.173" height="14.173"/>
<rect x="473.272" y="1042.113" fill="#020000" width="14.173" height="14.173"/>
<rect x="396.66" y="1042.113" fill="#020000" width="14.173" height="14.173"/>
<rect x="320.048" y="1042.113" fill="#020000" width="14.173" height="14.173"/>
<rect x="243.436" y="1042.113" fill="#020000" width="14.173" height="14.173"/>
<rect x="932.942" y="956.988" fill="#020000" width="14.173" height="14.174"/>
<rect x="856.332" y="956.988" fill="#020000" width="14.173" height="14.174"/>
<rect x="779.72" y="956.988" fill="#020000" width="14.173" height="14.174"/>
<rect x="703.106" y="956.988" fill="#020000" width="14.173" height="14.174"/>
<rect x="626.495" y="956.988" fill="#020000" width="14.174" height="14.174"/>
<rect x="549.884" y="956.988" fill="#020000" width="14.173" height="14.174"/>
<rect x="473.272" y="956.988" fill="#020000" width="14.173" height="14.174"/>
<rect x="396.66" y="956.988" fill="#020000" width="14.173" height="14.174"/>
<rect x="320.048" y="956.988" fill="#020000" width="14.173" height="14.174"/>
<rect x="243.436" y="956.988" fill="#020000" width="14.173" height="14.174"/>
<rect x="932.942" y="871.864" fill="#020000" width="14.173" height="14.173"/>
<rect x="856.332" y="871.864" fill="#020000" width="14.173" height="14.173"/>
<rect x="779.72" y="871.864" fill="#020000" width="14.173" height="14.173"/>
<rect x="703.106" y="871.864" fill="#020000" width="14.173" height="14.173"/>
<rect x="626.495" y="871.864" fill="#020000" width="14.174" height="14.173"/>
<rect x="549.884" y="871.864" fill="#020000" width="14.173" height="14.173"/>
<rect x="473.272" y="871.864" fill="#020000" width="14.173" height="14.173"/>
<rect x="396.66" y="871.864" fill="#020000" width="14.173" height="14.173"/>
<rect x="320.048" y="871.864" fill="#020000" width="14.173" height="14.173"/>
<rect x="243.436" y="871.864" fill="#020000" width="14.173" height="14.173"/>
<rect x="932.942" y="786.741" fill="#020000" width="14.173" height="14.173"/>
<rect x="856.332" y="786.741" fill="#020000" width="14.173" height="14.173"/>
<rect x="779.72" y="786.741" fill="#020000" width="14.173" height="14.173"/>
<rect x="703.106" y="786.741" fill="#020000" width="14.173" height="14.173"/>
<rect x="626.495" y="786.741" fill="#020000" width="14.174" height="14.173"/>
<rect x="549.884" y="786.741" fill="#020000" width="14.173" height="14.173"/>
<rect x="473.272" y="786.741" fill="#020000" width="14.173" height="14.173"/>
<rect x="396.66" y="786.741" fill="#020000" width="14.173" height="14.173"/>
<rect x="320.048" y="786.741" fill="#020000" width="14.173" height="14.173"/>
<rect x="243.436" y="786.741" fill="#020000" width="14.173" height="14.173"/>
<rect x="932.942" y="701.616" fill="#020000" width="14.173" height="14.173"/>
<rect x="856.332" y="701.616" fill="#020000" width="14.173" height="14.173"/>
<rect x="779.72" y="701.616" fill="#020000" width="14.173" height="14.173"/>
<rect x="703.106" y="701.616" fill="#020000" width="14.173" height="14.173"/>
<rect x="626.495" y="701.616" fill="#020000" width="14.174" height="14.173"/>
<rect x="549.884" y="701.616" fill="#020000" width="14.173" height="14.173"/>
<rect x="473.272" y="701.616" fill="#020000" width="14.173" height="14.173"/>
<rect x="396.66" y="701.616" fill="#020000" width="14.173" height="14.173"/>
<rect x="320.048" y="701.616" fill="#020000" width="14.173" height="14.173"/>
<rect x="243.436" y="701.616" fill="#020000" width="14.173" height="14.173"/>
<rect x="932.942" y="616.492" fill="#020000" width="14.173" height="14.173"/>
<rect x="856.332" y="616.492" fill="#020000" width="14.173" height="14.173"/>
<rect x="779.72" y="616.492" fill="#020000" width="14.173" height="14.173"/>
<rect x="703.106" y="616.492" fill="#020000" width="14.173" height="14.173"/>
<rect x="626.495" y="616.492" fill="#020000" width="14.174" height="14.173"/>
<rect x="549.884" y="616.492" fill="#020000" width="14.173" height="14.173"/>
<rect x="473.272" y="616.492" fill="#020000" width="14.173" height="14.173"/>
<rect x="396.66" y="616.492" fill="#020000" width="14.173" height="14.173"/>
<rect x="320.048" y="616.492" fill="#020000" width="14.173" height="14.173"/>
<rect x="243.436" y="616.492" fill="#020000" width="14.173" height="14.173"/>
<rect x="932.942" y="531.368" fill="#020000" width="14.173" height="14.173"/>
<rect x="856.332" y="531.368" fill="#020000" width="14.173" height="14.173"/>
<rect x="779.72" y="531.368" fill="#020000" width="14.173" height="14.173"/>
<rect x="703.106" y="531.368" fill="#020000" width="14.173" height="14.173"/>
<rect x="626.495" y="531.368" fill="#020000" width="14.174" height="14.173"/>
<rect x="549.884" y="531.368" fill="#020000" width="14.173" height="14.173"/>
<rect x="473.272" y="531.368" fill="#020000" width="14.173" height="14.173"/>
<rect x="396.66" y="531.368" fill="#020000" width="14.173" height="14.173"/>
<rect x="320.048" y="531.368" fill="#020000" width="14.173" height="14.173"/>
<rect x="243.436" y="531.368" fill="#020000" width="14.173" height="14.173"/>
<rect x="932.942" y="446.243" fill="#020000" width="14.173" height="14.173"/>
<rect x="856.332" y="446.243" fill="#020000" width="14.173" height="14.173"/>
<rect x="779.72" y="446.243" fill="#020000" width="14.173" height="14.173"/>
<rect x="703.106" y="446.243" fill="#020000" width="14.173" height="14.173"/>
<rect x="626.495" y="446.243" fill="#020000" width="14.174" height="14.173"/>
<rect x="549.884" y="446.243" fill="#020000" width="14.173" height="14.173"/>
<rect x="473.272" y="446.243" fill="#020000" width="14.173" height="14.173"/>
<rect x="396.66" y="446.243" fill="#020000" width="14.173" height="14.173"/>
<rect x="320.048" y="446.243" fill="#020000" width="14.173" height="14.173"/>
<rect x="243.436" y="446.243" fill="#020000" width="14.173" height="14.173"/>
<rect x="932.942" y="361.119" fill="#020000" width="14.173" height="14.173"/>
<rect x="856.332" y="361.119" fill="#020000" width="14.173" height="14.173"/>
<rect x="779.72" y="361.119" fill="#020000" width="14.173" height="14.173"/>
<rect x="703.106" y="361.119" fill="#020000" width="14.173" height="14.173"/>
<rect x="626.495" y="361.119" fill="#020000" width="14.174" height="14.173"/>
<rect x="549.884" y="361.119" fill="#020000" width="14.173" height="14.173"/>
<rect x="473.272" y="361.119" fill="#020000" width="14.173" height="14.173"/>
<rect x="396.66" y="361.119" fill="#020000" width="14.173" height="14.173"/>
<rect x="320.048" y="361.119" fill="#020000" width="14.173" height="14.173"/>
<rect x="243.436" y="361.119" fill="#020000" width="14.173" height="14.173"/>
<rect x="932.942" y="275.994" fill="#020000" width="14.173" height="14.173"/>
<rect x="856.332" y="275.994" fill="#020000" width="14.173" height="14.173"/>
<rect x="779.72" y="275.994" fill="#020000" width="14.173" height="14.173"/>
<rect x="703.106" y="275.994" fill="#020000" width="14.173" height="14.173"/>
<rect x="626.495" y="275.994" fill="#020000" width="14.174" height="14.173"/>
<rect x="549.884" y="275.994" fill="#020000" width="14.173" height="14.173"/>
<rect x="473.272" y="275.994" fill="#020000" width="14.173" height="14.173"/>
<rect x="396.66" y="275.994" fill="#020000" width="14.173" height="14.173"/>
<rect x="320.048" y="275.994" fill="#020000" width="14.173" height="14.173"/>
<rect x="243.436" y="275.994" fill="#020000" width="14.173" height="14.173"/>
<rect x="664.802" y="1133.551" fill="#020000" width="14.173" height="14.175"/>
<rect x="588.188" y="1133.551" fill="#020000" width="14.173" height="14.175"/>
<rect x="511.578" y="1133.551" fill="#020000" width="14.173" height="14.175"/>
<path fill="#020000" d="M603.779,186.668c0,4.696-3.807,8.504-8.504,8.504s-8.504-3.808-8.504-8.504
	c0-4.697,3.807-8.504,8.504-8.504S603.779,181.972,603.779,186.668"/>
</svg>
