<?xml version="1.0" encoding="utf-8"?>
<!-- Generator: Adobe Illustrator 15.1.0, SVG Export Plug-In . SVG Version: 6.00 Build 0)  -->
<!DOCTYPE svg PUBLIC "-//W3C//DTD SVG 1.1//EN" "http://www.w3.org/Graphics/SVG/1.1/DTD/svg11.dtd">
<svg version="1.1" id="Ebene_1" xmlns="http://www.w3.org/2000/svg" xmlns:xlink="http://www.w3.org/1999/xlink" x="0px" y="0px"
	 width="2834.649px" height="1700.789px" viewBox="0 0 2834.649 1700.789" enable-background="new 0 0 2834.649 1700.789"
	 xml:space="preserve">
<rect x="932.942" y="1042.113" width="14.173" height="14.173"/>
<rect x="856.332" y="1042.113" width="14.173" height="14.173"/>
<rect x="779.72" y="1042.113" width="14.174" height="14.173"/>
<rect x="703.106" y="1042.113" width="14.173" height="14.173"/>
<rect x="626.495" y="1042.113" width="14.174" height="14.173"/>
<rect x="549.884" y="1042.113" width="14.173" height="14.173"/>
<rect x="473.272" y="1042.113" width="14.173" height="14.173"/>
<rect x="396.66" y="1042.113" width="14.173" height="14.173"/>
<rect x="320.048" y="1042.113" width="14.173" height="14.173"/>
<rect x="243.437" y="1042.113" width="14.174" height="14.173"/>
<rect x="932.942" y="956.988" width="14.173" height="14.174"/>
<rect x="856.332" y="956.988" width="14.173" height="14.174"/>
<rect x="779.72" y="956.988" width="14.174" height="14.174"/>
<rect x="703.106" y="956.988" width="14.173" height="14.174"/>
<rect x="626.495" y="956.988" width="14.174" height="14.174"/>
<rect x="549.884" y="956.988" width="14.173" height="14.174"/>
<rect x="473.272" y="956.988" width="14.173" height="14.174"/>
<rect x="396.66" y="956.988" width="14.173" height="14.174"/>
<rect x="320.048" y="956.988" width="14.173" height="14.174"/>
<rect x="243.437" y="956.988" width="14.174" height="14.174"/>
<rect x="932.942" y="871.864" width="14.173" height="14.173"/>
<rect x="856.332" y="871.864" width="14.173" height="14.173"/>
<rect x="779.72" y="871.864" width="14.174" height="14.173"/>
<rect x="703.106" y="871.864" width="14.173" height="14.173"/>
<rect x="626.495" y="871.864" width="14.174" height="14.173"/>
<rect x="549.884" y="871.864" width="14.173" height="14.173"/>
<rect x="473.272" y="871.864" width="14.173" height="14.173"/>
<rect x="396.66" y="871.864" width="14.173" height="14.173"/>
<rect x="320.048" y="871.864" width="14.173" height="14.173"/>
<rect x="243.437" y="871.864" width="14.174" height="14.173"/>
<rect x="932.942" y="786.74" width="14.173" height="14.173"/>
<rect x="856.332" y="786.74" width="14.173" height="14.173"/>
<rect x="779.72" y="786.74" width="14.174" height="14.173"/>
<rect x="703.106" y="786.74" width="14.173" height="14.173"/>
<rect x="626.495" y="786.74" width="14.174" height="14.173"/>
<rect x="549.884" y="786.74" width="14.173" height="14.173"/>
<rect x="473.272" y="786.74" width="14.173" height="14.173"/>
<rect x="396.66" y="786.74" width="14.173" height="14.173"/>
<rect x="320.048" y="786.74" width="14.173" height="14.173"/>
<rect x="243.437" y="786.74" width="14.174" height="14.173"/>
<rect x="932.942" y="701.615" width="14.173" height="14.173"/>
<rect x="856.332" y="701.615" width="14.173" height="14.173"/>
<rect x="779.72" y="701.615" width="14.174" height="14.173"/>
<rect x="703.106" y="701.615" width="14.173" height="14.173"/>
<rect x="626.495" y="701.615" width="14.174" height="14.173"/>
<rect x="549.884" y="701.615" width="14.173" height="14.173"/>
<rect x="473.272" y="701.615" width="14.173" height="14.173"/>
<rect x="396.66" y="701.615" width="14.173" height="14.173"/>
<rect x="320.048" y="701.615" width="14.173" height="14.173"/>
<rect x="243.437" y="701.615" width="14.174" height="14.173"/>
<rect x="932.942" y="616.491" width="14.173" height="14.173"/>
<rect x="856.332" y="616.491" width="14.173" height="14.173"/>
<rect x="779.72" y="616.491" width="14.174" height="14.173"/>
<rect x="703.106" y="616.491" width="14.173" height="14.173"/>
<rect x="626.495" y="616.491" width="14.174" height="14.173"/>
<rect x="549.884" y="616.491" width="14.173" height="14.173"/>
<rect x="473.272" y="616.491" width="14.173" height="14.173"/>
<rect x="396.66" y="616.491" width="14.173" height="14.173"/>
<rect x="320.048" y="616.491" width="14.173" height="14.173"/>
<rect x="243.437" y="616.491" width="14.174" height="14.173"/>
<rect x="932.942" y="531.367" width="14.173" height="14.173"/>
<rect x="856.332" y="531.367" width="14.173" height="14.173"/>
<rect x="779.72" y="531.367" width="14.174" height="14.173"/>
<rect x="703.106" y="531.367" width="14.173" height="14.173"/>
<rect x="626.495" y="531.367" width="14.174" height="14.173"/>
<rect x="549.884" y="531.367" width="14.173" height="14.173"/>
<rect x="473.272" y="531.367" width="14.173" height="14.173"/>
<rect x="396.66" y="531.367" width="14.173" height="14.173"/>
<rect x="320.048" y="531.367" width="14.173" height="14.173"/>
<rect x="243.437" y="531.367" width="14.174" height="14.173"/>
<rect x="932.942" y="446.242" width="14.173" height="14.175"/>
<rect x="856.332" y="446.242" width="14.173" height="14.175"/>
<rect x="779.72" y="446.242" width="14.174" height="14.175"/>
<rect x="703.106" y="446.242" width="14.173" height="14.175"/>
<rect x="626.495" y="446.242" width="14.174" height="14.175"/>
<rect x="549.884" y="446.242" width="14.173" height="14.175"/>
<rect x="473.272" y="446.242" width="14.173" height="14.175"/>
<rect x="396.66" y="446.242" width="14.173" height="14.175"/>
<rect x="320.048" y="446.242" width="14.173" height="14.175"/>
<rect x="243.437" y="446.242" width="14.174" height="14.175"/>
<rect x="932.942" y="361.118" width="14.173" height="14.174"/>
<rect x="856.332" y="361.118" width="14.173" height="14.174"/>
<rect x="779.72" y="361.118" width="14.174" height="14.174"/>
<rect x="703.106" y="361.118" width="14.173" height="14.174"/>
<rect x="626.495" y="361.118" width="14.174" height="14.174"/>
<rect x="549.884" y="361.118" width="14.173" height="14.174"/>
<rect x="473.272" y="361.118" width="14.173" height="14.174"/>
<rect x="396.66" y="361.118" width="14.173" height="14.174"/>
<rect x="320.048" y="361.118" width="14.173" height="14.174"/>
<rect x="243.437" y="361.118" width="14.174" height="14.174"/>
<rect x="932.942" y="275.993" width="14.173" height="14.174"/>
<rect x="856.332" y="275.993" width="14.173" height="14.174"/>
<rect x="779.72" y="275.993" width="14.174" height="14.174"/>
<rect x="703.106" y="275.993" width="14.173" height="14.174"/>
<rect x="626.495" y="275.993" width="14.174" height="14.174"/>
<rect x="549.884" y="275.993" width="14.173" height="14.174"/>
<rect x="473.272" y="275.993" width="14.173" height="14.174"/>
<rect x="396.66" y="275.993" width="14.173" height="14.174"/>
<rect x="320.048" y="275.993" width="14.173" height="14.174"/>
<rect x="243.437" y="275.993" width="14.174" height="14.174"/>
<rect x="664.802" y="1133.552" width="14.173" height="14.175"/>
<rect x="588.188" y="1133.552" width="14.173" height="14.175"/>
<rect x="511.578" y="1133.552" width="14.173" height="14.175"/>
<path d="M603.779,186.669c0,4.694-3.809,8.504-8.505,8.504s-8.504-3.81-8.504-8.504c0-4.697,3.808-8.506,8.504-8.506
	C599.972,178.163,603.779,181.972,603.779,186.669"/>
</svg>
