<?xml version="1.0" encoding="utf-8"?>
<!-- Generator: Adobe Illustrator 24.3.0, SVG Export Plug-In . SVG Version: 6.00 Build 0)  -->
<svg version="1.1" id="Ebene_1" xmlns="http://www.w3.org/2000/svg" xmlns:xlink="http://www.w3.org/1999/xlink" x="0px" y="0px"
	 viewBox="0 0 2834.6 1700.8" style="enable-background:new 0 0 2834.6 1700.8;" xml:space="preserve">
<style type="text/css">
	.st0{fill:none;stroke:#E81E1B;}
	.st1{fill:none;stroke:#E81E1B;stroke-miterlimit:10;}
</style>
<path class="st0" d="M242,223.6c-1.6,0-2.8-1.3-2.8-2.8v-17c0-1.6,1.3-2.8,2.8-2.8h2.8v-9c0-7.8-6.3-14.2-14.2-14.2h-36.9
	c-7.8,0-14.2,6.3-14.2,14.2v9h2.8c1.6,0,2.8,1.3,2.8,2.8v17c0,1.6-1.3,2.8-2.8,2.8h-2.8v9c0,7.8,6.3,14.2,14.2,14.2h36.9
	c7.8,0,14.2-6.3,14.2-14.2v-9H242z"/>
<path class="st0" d="M318.6,223.6c-1.6,0-2.8-1.3-2.8-2.8v-17c0-1.6,1.3-2.8,2.8-2.8h2.8v-9c0-7.8-6.3-14.2-14.2-14.2h-36.9
	c-7.8,0-14.2,6.3-14.2,14.2v9h2.8c1.6,0,2.8,1.3,2.8,2.8v17c0,1.6-1.3,2.8-2.8,2.8h-2.8v9c0,7.8,6.3,14.2,14.2,14.2h36.9
	c7.8,0,14.2-6.3,14.2-14.2v-9H318.6z"/>
<path class="st0" d="M395.2,223.6c-1.6,0-2.8-1.3-2.8-2.8v-17c0-1.6,1.3-2.8,2.8-2.8h2.8v-9c0-7.8-6.3-14.2-14.2-14.2H347
	c-7.8,0-14.2,6.3-14.2,14.2v9h2.8c1.6,0,2.8,1.3,2.8,2.8v17c0,1.6-1.3,2.8-2.8,2.8h-2.8v9c0,7.8,6.3,14.2,14.2,14.2h36.9
	c7.8,0,14.2-6.3,14.2-14.2v-9H395.2z"/>
<path class="st0" d="M471.9,223.6c-1.6,0-2.8-1.3-2.8-2.8v-17c0-1.6,1.3-2.8,2.8-2.8h2.8v-9c0-7.8-6.3-14.2-14.2-14.2h-36.9
	c-7.8,0-14.2,6.3-14.2,14.2v9h2.8c1.6,0,2.8,1.3,2.8,2.8v17c0,1.6-1.3,2.8-2.8,2.8h-2.8v9c0,7.8,6.3,14.2,14.2,14.2h36.9
	c7.8,0,14.2-6.3,14.2-14.2v-9H471.9z"/>
<path class="st0" d="M548.5,223.6c-1.6,0-2.8-1.3-2.8-2.8v-17c0-1.6,1.3-2.8,2.8-2.8h2.8v-9c0-7.8-6.3-14.2-14.2-14.2h-36.9
	c-7.8,0-14.2,6.3-14.2,14.2v9h2.8c1.6,0,2.8,1.3,2.8,2.8v17c0,1.6-1.3,2.8-2.8,2.8h-2.8v9c0,7.8,6.3,14.2,14.2,14.2h36.9
	c7.8,0,14.2-6.3,14.2-14.2v-9H548.5z"/>
<path class="st0" d="M625.1,223.6c-1.6,0-2.8-1.3-2.8-2.8v-17c0-1.6,1.3-2.8,2.8-2.8h2.8v-9c0-7.8-6.3-14.2-14.2-14.2h-36.9
	c-7.8,0-14.2,6.3-14.2,14.2v9h2.8c1.6,0,2.8,1.3,2.8,2.8v17c0,1.6-1.3,2.8-2.8,2.8h-2.8v9c0,7.8,6.3,14.2,14.2,14.2h36.9
	c7.8,0,14.2-6.3,14.2-14.2v-9H625.1z"/>
<path class="st0" d="M701.7,223.6c-1.6,0-2.8-1.3-2.8-2.8v-17c0-1.6,1.3-2.8,2.8-2.8h2.8v-9c0-7.8-6.3-14.2-14.2-14.2h-36.8
	c-7.8,0-14.2,6.3-14.2,14.2v9h2.8c1.6,0,2.8,1.3,2.8,2.8v17c0,1.6-1.3,2.8-2.8,2.8h-2.8v9c0,7.8,6.3,14.2,14.2,14.2h36.8
	c7.8,0,14.2-6.3,14.2-14.2v-9H701.7z"/>
<path class="st0" d="M778.3,223.6c-1.6,0-2.8-1.3-2.8-2.8v-17c0-1.6,1.3-2.8,2.8-2.8h2.8v-9c0-7.8-6.3-14.2-14.2-14.2h-36.9
	c-7.8,0-14.2,6.3-14.2,14.2v9h2.8c1.6,0,2.8,1.3,2.8,2.8v17c0,1.6-1.3,2.8-2.8,2.8h-2.8v9c0,7.8,6.3,14.2,14.2,14.2h36.9
	c7.8,0,14.2-6.3,14.2-14.2v-9H778.3z"/>
<path class="st0" d="M854.9,223.6c-1.6,0-2.8-1.3-2.8-2.8v-17c0-1.6,1.3-2.8,2.8-2.8h2.8v-9c0-7.8-6.3-14.2-14.2-14.2h-36.9
	c-7.8,0-14.2,6.3-14.2,14.2v9h2.8c1.6,0,2.8,1.3,2.8,2.8v17c0,1.6-1.3,2.8-2.8,2.8h-2.8v9c0,7.8,6.3,14.2,14.2,14.2h36.9
	c7.8,0,14.2-6.3,14.2-14.2v-9H854.9z"/>
<path class="st0" d="M931.5,223.6c-1.6,0-2.8-1.3-2.8-2.8v-17c0-1.6,1.3-2.8,2.8-2.8h2.8v-9c0-7.8-6.3-14.2-14.2-14.2h-36.9
	c-7.8,0-14.2,6.3-14.2,14.2v9h2.8c1.6,0,2.8,1.3,2.8,2.8v17c0,1.6-1.3,2.8-2.8,2.8h-2.8v9c0,7.8,6.3,14.2,14.2,14.2h36.9
	c7.8,0,14.2-6.3,14.2-14.2v-9H931.5z"/>
<path class="st0" d="M1008.1,223.6c-1.6,0-2.8-1.3-2.8-2.8v-17c0-1.6,1.3-2.8,2.8-2.8h2.8v-9c0-7.8-6.3-14.2-14.2-14.2h-36.9
	c-7.8,0-14.2,6.3-14.2,14.2v9h2.8c1.6,0,2.8,1.3,2.8,2.8v17c0,1.6-1.3,2.8-2.8,2.8h-2.8v9c0,7.8,6.3,14.2,14.2,14.2h36.9
	c7.8,0,14.2-6.3,14.2-14.2v-9H1008.1z"/>
<path class="st0" d="M242,308.7c-1.6,0-2.8-1.3-2.8-2.8v-17c0-1.6,1.3-2.8,2.8-2.8h2.8v-9c0-7.8-6.3-14.2-14.2-14.2h-36.9
	c-7.8,0-14.2,6.3-14.2,14.2v9h2.8c1.6,0,2.8,1.3,2.8,2.8v17c0,1.6-1.3,2.8-2.8,2.8h-2.8v9c0,7.8,6.3,14.2,14.2,14.2h36.9
	c7.8,0,14.2-6.3,14.2-14.2v-9H242z"/>
<path class="st0" d="M318.6,308.7c-1.6,0-2.8-1.3-2.8-2.8v-17c0-1.6,1.3-2.8,2.8-2.8h2.8v-9c0-7.8-6.3-14.2-14.2-14.2h-36.9
	c-7.8,0-14.2,6.3-14.2,14.2v9h2.8c1.6,0,2.8,1.3,2.8,2.8v17c0,1.6-1.3,2.8-2.8,2.8h-2.8v9c0,7.8,6.3,14.2,14.2,14.2h36.9
	c7.8,0,14.2-6.3,14.2-14.2v-9H318.6z"/>
<path class="st0" d="M395.2,308.7c-1.6,0-2.8-1.3-2.8-2.8v-17c0-1.6,1.3-2.8,2.8-2.8h2.8v-9c0-7.8-6.3-14.2-14.2-14.2H347
	c-7.8,0-14.2,6.3-14.2,14.2v9h2.8c1.6,0,2.8,1.3,2.8,2.8v17c0,1.6-1.3,2.8-2.8,2.8h-2.8v9c0,7.8,6.3,14.2,14.2,14.2h36.9
	c7.8,0,14.2-6.3,14.2-14.2v-9H395.2z"/>
<path class="st0" d="M471.9,308.7c-1.6,0-2.8-1.3-2.8-2.8v-17c0-1.6,1.3-2.8,2.8-2.8h2.8v-9c0-7.8-6.3-14.2-14.2-14.2h-36.9
	c-7.8,0-14.2,6.3-14.2,14.2v9h2.8c1.6,0,2.8,1.3,2.8,2.8v17c0,1.6-1.3,2.8-2.8,2.8h-2.8v9c0,7.8,6.3,14.2,14.2,14.2h36.9
	c7.8,0,14.2-6.3,14.2-14.2v-9H471.9z"/>
<path class="st0" d="M548.5,308.7c-1.6,0-2.8-1.3-2.8-2.8v-17c0-1.6,1.3-2.8,2.8-2.8h2.8v-9c0-7.8-6.3-14.2-14.2-14.2h-36.9
	c-7.8,0-14.2,6.3-14.2,14.2v9h2.8c1.6,0,2.8,1.3,2.8,2.8v17c0,1.6-1.3,2.8-2.8,2.8h-2.8v9c0,7.8,6.3,14.2,14.2,14.2h36.9
	c7.8,0,14.2-6.3,14.2-14.2v-9H548.5z"/>
<path class="st0" d="M625.1,308.7c-1.6,0-2.8-1.3-2.8-2.8v-17c0-1.6,1.3-2.8,2.8-2.8h2.8v-9c0-7.8-6.3-14.2-14.2-14.2h-36.9
	c-7.8,0-14.2,6.3-14.2,14.2v9h2.8c1.6,0,2.8,1.3,2.8,2.8v17c0,1.6-1.3,2.8-2.8,2.8h-2.8v9c0,7.8,6.3,14.2,14.2,14.2h36.9
	c7.8,0,14.2-6.3,14.2-14.2v-9H625.1z"/>
<path class="st0" d="M701.7,308.7c-1.6,0-2.8-1.3-2.8-2.8v-17c0-1.6,1.3-2.8,2.8-2.8h2.8v-9c0-7.8-6.3-14.2-14.2-14.2h-36.8
	c-7.8,0-14.2,6.3-14.2,14.2v9h2.8c1.6,0,2.8,1.3,2.8,2.8v17c0,1.6-1.3,2.8-2.8,2.8h-2.8v9c0,7.8,6.3,14.2,14.2,14.2h36.8
	c7.8,0,14.2-6.3,14.2-14.2v-9H701.7z"/>
<path class="st0" d="M778.3,308.7c-1.6,0-2.8-1.3-2.8-2.8v-17c0-1.6,1.3-2.8,2.8-2.8h2.8v-9c0-7.8-6.3-14.2-14.2-14.2h-36.9
	c-7.8,0-14.2,6.3-14.2,14.2v9h2.8c1.6,0,2.8,1.3,2.8,2.8v17c0,1.6-1.3,2.8-2.8,2.8h-2.8v9c0,7.8,6.3,14.2,14.2,14.2h36.9
	c7.8,0,14.2-6.3,14.2-14.2v-9H778.3z"/>
<path class="st0" d="M854.9,308.7c-1.6,0-2.8-1.3-2.8-2.8v-17c0-1.6,1.3-2.8,2.8-2.8h2.8v-9c0-7.8-6.3-14.2-14.2-14.2h-36.9
	c-7.8,0-14.2,6.3-14.2,14.2v9h2.8c1.6,0,2.8,1.3,2.8,2.8v17c0,1.6-1.3,2.8-2.8,2.8h-2.8v9c0,7.8,6.3,14.2,14.2,14.2h36.9
	c7.8,0,14.2-6.3,14.2-14.2v-9H854.9z"/>
<path class="st0" d="M931.5,308.7c-1.6,0-2.8-1.3-2.8-2.8v-17c0-1.6,1.3-2.8,2.8-2.8h2.8v-9c0-7.8-6.3-14.2-14.2-14.2h-36.9
	c-7.8,0-14.2,6.3-14.2,14.2v9h2.8c1.6,0,2.8,1.3,2.8,2.8v17c0,1.6-1.3,2.8-2.8,2.8h-2.8v9c0,7.8,6.3,14.2,14.2,14.2h36.9
	c7.8,0,14.2-6.3,14.2-14.2v-9H931.5z"/>
<path class="st0" d="M1008.1,308.7c-1.6,0-2.8-1.3-2.8-2.8v-17c0-1.6,1.3-2.8,2.8-2.8h2.8v-9c0-7.8-6.3-14.2-14.2-14.2h-36.9
	c-7.8,0-14.2,6.3-14.2,14.2v9h2.8c1.6,0,2.8,1.3,2.8,2.8v17c0,1.6-1.3,2.8-2.8,2.8h-2.8v9c0,7.8,6.3,14.2,14.2,14.2h36.9
	c7.8,0,14.2-6.3,14.2-14.2v-9H1008.1z"/>
<path class="st0" d="M242,393.8c-1.6,0-2.8-1.3-2.8-2.8v-17c0-1.6,1.3-2.8,2.8-2.8h2.8v-9c0-7.8-6.3-14.2-14.2-14.2h-36.9
	c-7.8,0-14.2,6.3-14.2,14.2v9h2.8c1.6,0,2.8,1.3,2.8,2.8v17c0,1.6-1.3,2.8-2.8,2.8h-2.8v9c0,7.8,6.3,14.2,14.2,14.2h36.9
	c7.8,0,14.2-6.3,14.2-14.2v-9H242z"/>
<path class="st0" d="M318.6,393.8c-1.6,0-2.8-1.3-2.8-2.8v-17c0-1.6,1.3-2.8,2.8-2.8h2.8v-9c0-7.8-6.3-14.2-14.2-14.2h-36.9
	c-7.8,0-14.2,6.3-14.2,14.2v9h2.8c1.6,0,2.8,1.3,2.8,2.8v17c0,1.6-1.3,2.8-2.8,2.8h-2.8v9c0,7.8,6.3,14.2,14.2,14.2h36.9
	c7.8,0,14.2-6.3,14.2-14.2v-9H318.6z"/>
<path class="st0" d="M395.2,393.8c-1.6,0-2.8-1.3-2.8-2.8v-17c0-1.6,1.3-2.8,2.8-2.8h2.8v-9c0-7.8-6.3-14.2-14.2-14.2H347
	c-7.8,0-14.2,6.3-14.2,14.2v9h2.8c1.6,0,2.8,1.3,2.8,2.8v17c0,1.6-1.3,2.8-2.8,2.8h-2.8v9c0,7.8,6.3,14.2,14.2,14.2h36.9
	c7.8,0,14.2-6.3,14.2-14.2v-9H395.2z"/>
<path class="st0" d="M471.9,393.8c-1.6,0-2.8-1.3-2.8-2.8v-17c0-1.6,1.3-2.8,2.8-2.8h2.8v-9c0-7.8-6.3-14.2-14.2-14.2h-36.9
	c-7.8,0-14.2,6.3-14.2,14.2v9h2.8c1.6,0,2.8,1.3,2.8,2.8v17c0,1.6-1.3,2.8-2.8,2.8h-2.8v9c0,7.8,6.3,14.2,14.2,14.2h36.9
	c7.8,0,14.2-6.3,14.2-14.2v-9H471.9z"/>
<path class="st0" d="M548.5,393.8c-1.6,0-2.8-1.3-2.8-2.8v-17c0-1.6,1.3-2.8,2.8-2.8h2.8v-9c0-7.8-6.3-14.2-14.2-14.2h-36.9
	c-7.8,0-14.2,6.3-14.2,14.2v9h2.8c1.6,0,2.8,1.3,2.8,2.8v17c0,1.6-1.3,2.8-2.8,2.8h-2.8v9c0,7.8,6.3,14.2,14.2,14.2h36.9
	c7.8,0,14.2-6.3,14.2-14.2v-9H548.5z"/>
<path class="st0" d="M625.1,393.8c-1.6,0-2.8-1.3-2.8-2.8v-17c0-1.6,1.3-2.8,2.8-2.8h2.8v-9c0-7.8-6.3-14.2-14.2-14.2h-36.9
	c-7.8,0-14.2,6.3-14.2,14.2v9h2.8c1.6,0,2.8,1.3,2.8,2.8v17c0,1.6-1.3,2.8-2.8,2.8h-2.8v9c0,7.8,6.3,14.2,14.2,14.2h36.9
	c7.8,0,14.2-6.3,14.2-14.2v-9H625.1z"/>
<path class="st0" d="M701.7,393.8c-1.6,0-2.8-1.3-2.8-2.8v-17c0-1.6,1.3-2.8,2.8-2.8h2.8v-9c0-7.8-6.3-14.2-14.2-14.2h-36.8
	c-7.8,0-14.2,6.3-14.2,14.2v9h2.8c1.6,0,2.8,1.3,2.8,2.8v17c0,1.6-1.3,2.8-2.8,2.8h-2.8v9c0,7.8,6.3,14.2,14.2,14.2h36.8
	c7.8,0,14.2-6.3,14.2-14.2v-9H701.7z"/>
<path class="st0" d="M778.3,393.8c-1.6,0-2.8-1.3-2.8-2.8v-17c0-1.6,1.3-2.8,2.8-2.8h2.8v-9c0-7.8-6.3-14.2-14.2-14.2h-36.9
	c-7.8,0-14.2,6.3-14.2,14.2v9h2.8c1.6,0,2.8,1.3,2.8,2.8v17c0,1.6-1.3,2.8-2.8,2.8h-2.8v9c0,7.8,6.3,14.2,14.2,14.2h36.9
	c7.8,0,14.2-6.3,14.2-14.2v-9H778.3z"/>
<path class="st0" d="M854.9,393.8c-1.6,0-2.8-1.3-2.8-2.8v-17c0-1.6,1.3-2.8,2.8-2.8h2.8v-9c0-7.8-6.3-14.2-14.2-14.2h-36.9
	c-7.8,0-14.2,6.3-14.2,14.2v9h2.8c1.6,0,2.8,1.3,2.8,2.8v17c0,1.6-1.3,2.8-2.8,2.8h-2.8v9c0,7.8,6.3,14.2,14.2,14.2h36.9
	c7.8,0,14.2-6.3,14.2-14.2v-9H854.9z"/>
<path class="st0" d="M931.5,393.8c-1.6,0-2.8-1.3-2.8-2.8v-17c0-1.6,1.3-2.8,2.8-2.8h2.8v-9c0-7.8-6.3-14.2-14.2-14.2h-36.9
	c-7.8,0-14.2,6.3-14.2,14.2v9h2.8c1.6,0,2.8,1.3,2.8,2.8v17c0,1.6-1.3,2.8-2.8,2.8h-2.8v9c0,7.8,6.3,14.2,14.2,14.2h36.9
	c7.8,0,14.2-6.3,14.2-14.2v-9H931.5z"/>
<path class="st0" d="M1008.1,393.8c-1.6,0-2.8-1.3-2.8-2.8v-17c0-1.6,1.3-2.8,2.8-2.8h2.8v-9c0-7.8-6.3-14.2-14.2-14.2h-36.9
	c-7.8,0-14.2,6.3-14.2,14.2v9h2.8c1.6,0,2.8,1.3,2.8,2.8v17c0,1.6-1.3,2.8-2.8,2.8h-2.8v9c0,7.8,6.3,14.2,14.2,14.2h36.9
	c7.8,0,14.2-6.3,14.2-14.2v-9H1008.1z"/>
<path class="st0" d="M242,478.9c-1.6,0-2.8-1.3-2.8-2.8v-17c0-1.6,1.3-2.8,2.8-2.8h2.8v-9c0-7.8-6.3-14.2-14.2-14.2h-36.9
	c-7.8,0-14.2,6.3-14.2,14.2v9h2.8c1.6,0,2.8,1.3,2.8,2.8v17c0,1.6-1.3,2.8-2.8,2.8h-2.8v9c0,7.8,6.3,14.2,14.2,14.2h36.9
	c7.8,0,14.2-6.3,14.2-14.2v-9H242z"/>
<path class="st0" d="M318.6,478.9c-1.6,0-2.8-1.3-2.8-2.8v-17c0-1.6,1.3-2.8,2.8-2.8h2.8v-9c0-7.8-6.3-14.2-14.2-14.2h-36.9
	c-7.8,0-14.2,6.3-14.2,14.2v9h2.8c1.6,0,2.8,1.3,2.8,2.8v17c0,1.6-1.3,2.8-2.8,2.8h-2.8v9c0,7.8,6.3,14.2,14.2,14.2h36.9
	c7.8,0,14.2-6.3,14.2-14.2v-9H318.6z"/>
<path class="st0" d="M395.2,478.9c-1.6,0-2.8-1.3-2.8-2.8v-17c0-1.6,1.3-2.8,2.8-2.8h2.8v-9c0-7.8-6.3-14.2-14.2-14.2H347
	c-7.8,0-14.2,6.3-14.2,14.2v9h2.8c1.6,0,2.8,1.3,2.8,2.8v17c0,1.6-1.3,2.8-2.8,2.8h-2.8v9c0,7.8,6.3,14.2,14.2,14.2h36.9
	c7.8,0,14.2-6.3,14.2-14.2v-9H395.2z"/>
<path class="st0" d="M471.9,478.9c-1.6,0-2.8-1.3-2.8-2.8v-17c0-1.6,1.3-2.8,2.8-2.8h2.8v-9c0-7.8-6.3-14.2-14.2-14.2h-36.9
	c-7.8,0-14.2,6.3-14.2,14.2v9h2.8c1.6,0,2.8,1.3,2.8,2.8v17c0,1.6-1.3,2.8-2.8,2.8h-2.8v9c0,7.8,6.3,14.2,14.2,14.2h36.9
	c7.8,0,14.2-6.3,14.2-14.2v-9H471.9z"/>
<path class="st0" d="M548.5,478.9c-1.6,0-2.8-1.3-2.8-2.8v-17c0-1.6,1.3-2.8,2.8-2.8h2.8v-9c0-7.8-6.3-14.2-14.2-14.2h-36.9
	c-7.8,0-14.2,6.3-14.2,14.2v9h2.8c1.6,0,2.8,1.3,2.8,2.8v17c0,1.6-1.3,2.8-2.8,2.8h-2.8v9c0,7.8,6.3,14.2,14.2,14.2h36.9
	c7.8,0,14.2-6.3,14.2-14.2v-9H548.5z"/>
<path class="st0" d="M625.1,478.9c-1.6,0-2.8-1.3-2.8-2.8v-17c0-1.6,1.3-2.8,2.8-2.8h2.8v-9c0-7.8-6.3-14.2-14.2-14.2h-36.9
	c-7.8,0-14.2,6.3-14.2,14.2v9h2.8c1.6,0,2.8,1.3,2.8,2.8v17c0,1.6-1.3,2.8-2.8,2.8h-2.8v9c0,7.8,6.3,14.2,14.2,14.2h36.9
	c7.8,0,14.2-6.3,14.2-14.2v-9H625.1z"/>
<path class="st0" d="M701.7,478.9c-1.6,0-2.8-1.3-2.8-2.8v-17c0-1.6,1.3-2.8,2.8-2.8h2.8v-9c0-7.8-6.3-14.2-14.2-14.2h-36.8
	c-7.8,0-14.2,6.3-14.2,14.2v9h2.8c1.6,0,2.8,1.3,2.8,2.8v17c0,1.6-1.3,2.8-2.8,2.8h-2.8v9c0,7.8,6.3,14.2,14.2,14.2h36.8
	c7.8,0,14.2-6.3,14.2-14.2v-9H701.7z"/>
<path class="st0" d="M778.3,478.9c-1.6,0-2.8-1.3-2.8-2.8v-17c0-1.6,1.3-2.8,2.8-2.8h2.8v-9c0-7.8-6.3-14.2-14.2-14.2h-36.9
	c-7.8,0-14.2,6.3-14.2,14.2v9h2.8c1.6,0,2.8,1.3,2.8,2.8v17c0,1.6-1.3,2.8-2.8,2.8h-2.8v9c0,7.8,6.3,14.2,14.2,14.2h36.9
	c7.8,0,14.2-6.3,14.2-14.2v-9H778.3z"/>
<path class="st0" d="M854.9,478.9c-1.6,0-2.8-1.3-2.8-2.8v-17c0-1.6,1.3-2.8,2.8-2.8h2.8v-9c0-7.8-6.3-14.2-14.2-14.2h-36.9
	c-7.8,0-14.2,6.3-14.2,14.2v9h2.8c1.6,0,2.8,1.3,2.8,2.8v17c0,1.6-1.3,2.8-2.8,2.8h-2.8v9c0,7.8,6.3,14.2,14.2,14.2h36.9
	c7.8,0,14.2-6.3,14.2-14.2v-9H854.9z"/>
<path class="st0" d="M931.5,478.9c-1.6,0-2.8-1.3-2.8-2.8v-17c0-1.6,1.3-2.8,2.8-2.8h2.8v-9c0-7.8-6.3-14.2-14.2-14.2h-36.9
	c-7.8,0-14.2,6.3-14.2,14.2v9h2.8c1.6,0,2.8,1.3,2.8,2.8v17c0,1.6-1.3,2.8-2.8,2.8h-2.8v9c0,7.8,6.3,14.2,14.2,14.2h36.9
	c7.8,0,14.2-6.3,14.2-14.2v-9H931.5z"/>
<path class="st0" d="M1008.1,478.9c-1.6,0-2.8-1.3-2.8-2.8v-17c0-1.6,1.3-2.8,2.8-2.8h2.8v-9c0-7.8-6.3-14.2-14.2-14.2h-36.9
	c-7.8,0-14.2,6.3-14.2,14.2v9h2.8c1.6,0,2.8,1.3,2.8,2.8v17c0,1.6-1.3,2.8-2.8,2.8h-2.8v9c0,7.8,6.3,14.2,14.2,14.2h36.9
	c7.8,0,14.2-6.3,14.2-14.2v-9H1008.1z"/>
<path class="st0" d="M242,564.1c-1.6,0-2.8-1.3-2.8-2.8v-17c0-1.6,1.3-2.8,2.8-2.8h2.8v-9c0-7.8-6.3-14.2-14.2-14.2h-36.9
	c-7.8,0-14.2,6.3-14.2,14.2v9h2.8c1.6,0,2.8,1.3,2.8,2.8v17c0,1.6-1.3,2.8-2.8,2.8h-2.8v9c0,7.8,6.3,14.2,14.2,14.2h36.9
	c7.8,0,14.2-6.3,14.2-14.2v-9H242z"/>
<path class="st0" d="M318.6,564.1c-1.6,0-2.8-1.3-2.8-2.8v-17c0-1.6,1.3-2.8,2.8-2.8h2.8v-9c0-7.8-6.3-14.2-14.2-14.2h-36.9
	c-7.8,0-14.2,6.3-14.2,14.2v9h2.8c1.6,0,2.8,1.3,2.8,2.8v17c0,1.6-1.3,2.8-2.8,2.8h-2.8v9c0,7.8,6.3,14.2,14.2,14.2h36.9
	c7.8,0,14.2-6.3,14.2-14.2v-9H318.6z"/>
<path class="st0" d="M395.2,564.1c-1.6,0-2.8-1.3-2.8-2.8v-17c0-1.6,1.3-2.8,2.8-2.8h2.8v-9c0-7.8-6.3-14.2-14.2-14.2H347
	c-7.8,0-14.2,6.3-14.2,14.2v9h2.8c1.6,0,2.8,1.3,2.8,2.8v17c0,1.6-1.3,2.8-2.8,2.8h-2.8v9c0,7.8,6.3,14.2,14.2,14.2h36.9
	c7.8,0,14.2-6.3,14.2-14.2v-9H395.2z"/>
<path class="st0" d="M471.9,564.1c-1.6,0-2.8-1.3-2.8-2.8v-17c0-1.6,1.3-2.8,2.8-2.8h2.8v-9c0-7.8-6.3-14.2-14.2-14.2h-36.9
	c-7.8,0-14.2,6.3-14.2,14.2v9h2.8c1.6,0,2.8,1.3,2.8,2.8v17c0,1.6-1.3,2.8-2.8,2.8h-2.8v9c0,7.8,6.3,14.2,14.2,14.2h36.9
	c7.8,0,14.2-6.3,14.2-14.2v-9H471.9z"/>
<path class="st0" d="M548.5,564.1c-1.6,0-2.8-1.3-2.8-2.8v-17c0-1.6,1.3-2.8,2.8-2.8h2.8v-9c0-7.8-6.3-14.2-14.2-14.2h-36.9
	c-7.8,0-14.2,6.3-14.2,14.2v9h2.8c1.6,0,2.8,1.3,2.8,2.8v17c0,1.6-1.3,2.8-2.8,2.8h-2.8v9c0,7.8,6.3,14.2,14.2,14.2h36.9
	c7.8,0,14.2-6.3,14.2-14.2v-9H548.5z"/>
<path class="st0" d="M625.1,564.1c-1.6,0-2.8-1.3-2.8-2.8v-17c0-1.6,1.3-2.8,2.8-2.8h2.8v-9c0-7.8-6.3-14.2-14.2-14.2h-36.9
	c-7.8,0-14.2,6.3-14.2,14.2v9h2.8c1.6,0,2.8,1.3,2.8,2.8v17c0,1.6-1.3,2.8-2.8,2.8h-2.8v9c0,7.8,6.3,14.2,14.2,14.2h36.9
	c7.8,0,14.2-6.3,14.2-14.2v-9H625.1z"/>
<path class="st0" d="M701.7,564.1c-1.6,0-2.8-1.3-2.8-2.8v-17c0-1.6,1.3-2.8,2.8-2.8h2.8v-9c0-7.8-6.3-14.2-14.2-14.2h-36.8
	c-7.8,0-14.2,6.3-14.2,14.2v9h2.8c1.6,0,2.8,1.3,2.8,2.8v17c0,1.6-1.3,2.8-2.8,2.8h-2.8v9c0,7.8,6.3,14.2,14.2,14.2h36.8
	c7.8,0,14.2-6.3,14.2-14.2v-9H701.7z"/>
<path class="st0" d="M778.3,564.1c-1.6,0-2.8-1.3-2.8-2.8v-17c0-1.6,1.3-2.8,2.8-2.8h2.8v-9c0-7.8-6.3-14.2-14.2-14.2h-36.9
	c-7.8,0-14.2,6.3-14.2,14.2v9h2.8c1.6,0,2.8,1.3,2.8,2.8v17c0,1.6-1.3,2.8-2.8,2.8h-2.8v9c0,7.8,6.3,14.2,14.2,14.2h36.9
	c7.8,0,14.2-6.3,14.2-14.2v-9H778.3z"/>
<path class="st0" d="M854.9,564.1c-1.6,0-2.8-1.3-2.8-2.8v-17c0-1.6,1.3-2.8,2.8-2.8h2.8v-9c0-7.8-6.3-14.2-14.2-14.2h-36.9
	c-7.8,0-14.2,6.3-14.2,14.2v9h2.8c1.6,0,2.8,1.3,2.8,2.8v17c0,1.6-1.3,2.8-2.8,2.8h-2.8v9c0,7.8,6.3,14.2,14.2,14.2h36.9
	c7.8,0,14.2-6.3,14.2-14.2v-9H854.9z"/>
<path class="st0" d="M931.5,564.1c-1.6,0-2.8-1.3-2.8-2.8v-17c0-1.6,1.3-2.8,2.8-2.8h2.8v-9c0-7.8-6.3-14.2-14.2-14.2h-36.9
	c-7.8,0-14.2,6.3-14.2,14.2v9h2.8c1.6,0,2.8,1.3,2.8,2.8v17c0,1.6-1.3,2.8-2.8,2.8h-2.8v9c0,7.8,6.3,14.2,14.2,14.2h36.9
	c7.8,0,14.2-6.3,14.2-14.2v-9H931.5z"/>
<path class="st0" d="M1008.1,564.1c-1.6,0-2.8-1.3-2.8-2.8v-17c0-1.6,1.3-2.8,2.8-2.8h2.8v-9c0-7.8-6.3-14.2-14.2-14.2h-36.9
	c-7.8,0-14.2,6.3-14.2,14.2v9h2.8c1.6,0,2.8,1.3,2.8,2.8v17c0,1.6-1.3,2.8-2.8,2.8h-2.8v9c0,7.8,6.3,14.2,14.2,14.2h36.9
	c7.8,0,14.2-6.3,14.2-14.2v-9H1008.1z"/>
<path class="st0" d="M242,649.2c-1.6,0-2.8-1.3-2.8-2.8v-17c0-1.6,1.3-2.8,2.8-2.8h2.8v-9c0-7.8-6.3-14.2-14.2-14.2h-36.9
	c-7.8,0-14.2,6.3-14.2,14.2v9h2.8c1.6,0,2.8,1.3,2.8,2.8v17c0,1.6-1.3,2.8-2.8,2.8h-2.8v9c0,7.8,6.3,14.2,14.2,14.2h36.9
	c7.8,0,14.2-6.3,14.2-14.2v-9H242z"/>
<path class="st0" d="M318.6,649.2c-1.6,0-2.8-1.3-2.8-2.8v-17c0-1.6,1.3-2.8,2.8-2.8h2.8v-9c0-7.8-6.3-14.2-14.2-14.2h-36.9
	c-7.8,0-14.2,6.3-14.2,14.2v9h2.8c1.6,0,2.8,1.3,2.8,2.8v17c0,1.6-1.3,2.8-2.8,2.8h-2.8v9c0,7.8,6.3,14.2,14.2,14.2h36.9
	c7.8,0,14.2-6.3,14.2-14.2v-9H318.6z"/>
<path class="st0" d="M395.2,649.2c-1.6,0-2.8-1.3-2.8-2.8v-17c0-1.6,1.3-2.8,2.8-2.8h2.8v-9c0-7.8-6.3-14.2-14.2-14.2H347
	c-7.8,0-14.2,6.3-14.2,14.2v9h2.8c1.6,0,2.8,1.3,2.8,2.8v17c0,1.6-1.3,2.8-2.8,2.8h-2.8v9c0,7.8,6.3,14.2,14.2,14.2h36.9
	c7.8,0,14.2-6.3,14.2-14.2v-9H395.2z"/>
<path class="st0" d="M471.9,649.2c-1.6,0-2.8-1.3-2.8-2.8v-17c0-1.6,1.3-2.8,2.8-2.8h2.8v-9c0-7.8-6.3-14.2-14.2-14.2h-36.9
	c-7.8,0-14.2,6.3-14.2,14.2v9h2.8c1.6,0,2.8,1.3,2.8,2.8v17c0,1.6-1.3,2.8-2.8,2.8h-2.8v9c0,7.8,6.3,14.2,14.2,14.2h36.9
	c7.8,0,14.2-6.3,14.2-14.2v-9H471.9z"/>
<path class="st0" d="M548.5,649.2c-1.6,0-2.8-1.3-2.8-2.8v-17c0-1.6,1.3-2.8,2.8-2.8h2.8v-9c0-7.8-6.3-14.2-14.2-14.2h-36.9
	c-7.8,0-14.2,6.3-14.2,14.2v9h2.8c1.6,0,2.8,1.3,2.8,2.8v17c0,1.6-1.3,2.8-2.8,2.8h-2.8v9c0,7.8,6.3,14.2,14.2,14.2h36.9
	c7.8,0,14.2-6.3,14.2-14.2v-9H548.5z"/>
<path class="st0" d="M625.1,649.2c-1.6,0-2.8-1.3-2.8-2.8v-17c0-1.6,1.3-2.8,2.8-2.8h2.8v-9c0-7.8-6.3-14.2-14.2-14.2h-36.9
	c-7.8,0-14.2,6.3-14.2,14.2v9h2.8c1.6,0,2.8,1.3,2.8,2.8v17c0,1.6-1.3,2.8-2.8,2.8h-2.8v9c0,7.8,6.3,14.2,14.2,14.2h36.9
	c7.8,0,14.2-6.3,14.2-14.2v-9H625.1z"/>
<path class="st0" d="M701.7,649.2c-1.6,0-2.8-1.3-2.8-2.8v-17c0-1.6,1.3-2.8,2.8-2.8h2.8v-9c0-7.8-6.3-14.2-14.2-14.2h-36.8
	c-7.8,0-14.2,6.3-14.2,14.2v9h2.8c1.6,0,2.8,1.3,2.8,2.8v17c0,1.6-1.3,2.8-2.8,2.8h-2.8v9c0,7.8,6.3,14.2,14.2,14.2h36.8
	c7.8,0,14.2-6.3,14.2-14.2v-9H701.7z"/>
<path class="st0" d="M778.3,649.2c-1.6,0-2.8-1.3-2.8-2.8v-17c0-1.6,1.3-2.8,2.8-2.8h2.8v-9c0-7.8-6.3-14.2-14.2-14.2h-36.9
	c-7.8,0-14.2,6.3-14.2,14.2v9h2.8c1.6,0,2.8,1.3,2.8,2.8v17c0,1.6-1.3,2.8-2.8,2.8h-2.8v9c0,7.8,6.3,14.2,14.2,14.2h36.9
	c7.8,0,14.2-6.3,14.2-14.2v-9H778.3z"/>
<path class="st0" d="M854.9,649.2c-1.6,0-2.8-1.3-2.8-2.8v-17c0-1.6,1.3-2.8,2.8-2.8h2.8v-9c0-7.8-6.3-14.2-14.2-14.2h-36.9
	c-7.8,0-14.2,6.3-14.2,14.2v9h2.8c1.6,0,2.8,1.3,2.8,2.8v17c0,1.6-1.3,2.8-2.8,2.8h-2.8v9c0,7.8,6.3,14.2,14.2,14.2h36.9
	c7.8,0,14.2-6.3,14.2-14.2v-9H854.9z"/>
<path class="st0" d="M931.5,649.2c-1.6,0-2.8-1.3-2.8-2.8v-17c0-1.6,1.3-2.8,2.8-2.8h2.8v-9c0-7.8-6.3-14.2-14.2-14.2h-36.9
	c-7.8,0-14.2,6.3-14.2,14.2v9h2.8c1.6,0,2.8,1.3,2.8,2.8v17c0,1.6-1.3,2.8-2.8,2.8h-2.8v9c0,7.8,6.3,14.2,14.2,14.2h36.9
	c7.8,0,14.2-6.3,14.2-14.2v-9H931.5z"/>
<path class="st0" d="M1008.1,649.2c-1.6,0-2.8-1.3-2.8-2.8v-17c0-1.6,1.3-2.8,2.8-2.8h2.8v-9c0-7.8-6.3-14.2-14.2-14.2h-36.9
	c-7.8,0-14.2,6.3-14.2,14.2v9h2.8c1.6,0,2.8,1.3,2.8,2.8v17c0,1.6-1.3,2.8-2.8,2.8h-2.8v9c0,7.8,6.3,14.2,14.2,14.2h36.9
	c7.8,0,14.2-6.3,14.2-14.2v-9H1008.1z"/>
<path class="st0" d="M242,734.3c-1.6,0-2.8-1.3-2.8-2.8v-17c0-1.6,1.3-2.8,2.8-2.8h2.8v-9c0-7.8-6.3-14.2-14.2-14.2h-36.9
	c-7.8,0-14.2,6.3-14.2,14.2v9h2.8c1.6,0,2.8,1.3,2.8,2.8v17c0,1.6-1.3,2.8-2.8,2.8h-2.8v9c0,7.8,6.3,14.2,14.2,14.2h36.9
	c7.8,0,14.2-6.3,14.2-14.2v-9H242z"/>
<path class="st0" d="M318.6,734.3c-1.6,0-2.8-1.3-2.8-2.8v-17c0-1.6,1.3-2.8,2.8-2.8h2.8v-9c0-7.8-6.3-14.2-14.2-14.2h-36.9
	c-7.8,0-14.2,6.3-14.2,14.2v9h2.8c1.6,0,2.8,1.3,2.8,2.8v17c0,1.6-1.3,2.8-2.8,2.8h-2.8v9c0,7.8,6.3,14.2,14.2,14.2h36.9
	c7.8,0,14.2-6.3,14.2-14.2v-9H318.6z"/>
<path class="st0" d="M395.2,734.3c-1.6,0-2.8-1.3-2.8-2.8v-17c0-1.6,1.3-2.8,2.8-2.8h2.8v-9c0-7.8-6.3-14.2-14.2-14.2H347
	c-7.8,0-14.2,6.3-14.2,14.2v9h2.8c1.6,0,2.8,1.3,2.8,2.8v17c0,1.6-1.3,2.8-2.8,2.8h-2.8v9c0,7.8,6.3,14.2,14.2,14.2h36.9
	c7.8,0,14.2-6.3,14.2-14.2v-9H395.2z"/>
<path class="st0" d="M471.9,734.3c-1.6,0-2.8-1.3-2.8-2.8v-17c0-1.6,1.3-2.8,2.8-2.8h2.8v-9c0-7.8-6.3-14.2-14.2-14.2h-36.9
	c-7.8,0-14.2,6.3-14.2,14.2v9h2.8c1.6,0,2.8,1.3,2.8,2.8v17c0,1.6-1.3,2.8-2.8,2.8h-2.8v9c0,7.8,6.3,14.2,14.2,14.2h36.9
	c7.8,0,14.2-6.3,14.2-14.2v-9H471.9z"/>
<path class="st0" d="M548.5,734.3c-1.6,0-2.8-1.3-2.8-2.8v-17c0-1.6,1.3-2.8,2.8-2.8h2.8v-9c0-7.8-6.3-14.2-14.2-14.2h-36.9
	c-7.8,0-14.2,6.3-14.2,14.2v9h2.8c1.6,0,2.8,1.3,2.8,2.8v17c0,1.6-1.3,2.8-2.8,2.8h-2.8v9c0,7.8,6.3,14.2,14.2,14.2h36.9
	c7.8,0,14.2-6.3,14.2-14.2v-9H548.5z"/>
<path class="st0" d="M625.1,734.3c-1.6,0-2.8-1.3-2.8-2.8v-17c0-1.6,1.3-2.8,2.8-2.8h2.8v-9c0-7.8-6.3-14.2-14.2-14.2h-36.9
	c-7.8,0-14.2,6.3-14.2,14.2v9h2.8c1.6,0,2.8,1.3,2.8,2.8v17c0,1.6-1.3,2.8-2.8,2.8h-2.8v9c0,7.8,6.3,14.2,14.2,14.2h36.9
	c7.8,0,14.2-6.3,14.2-14.2v-9H625.1z"/>
<path class="st0" d="M701.7,734.3c-1.6,0-2.8-1.3-2.8-2.8v-17c0-1.6,1.3-2.8,2.8-2.8h2.8v-9c0-7.8-6.3-14.2-14.2-14.2h-36.8
	c-7.8,0-14.2,6.3-14.2,14.2v9h2.8c1.6,0,2.8,1.3,2.8,2.8v17c0,1.6-1.3,2.8-2.8,2.8h-2.8v9c0,7.8,6.3,14.2,14.2,14.2h36.8
	c7.8,0,14.2-6.3,14.2-14.2v-9H701.7z"/>
<path class="st0" d="M778.3,734.3c-1.6,0-2.8-1.3-2.8-2.8v-17c0-1.6,1.3-2.8,2.8-2.8h2.8v-9c0-7.8-6.3-14.2-14.2-14.2h-36.9
	c-7.8,0-14.2,6.3-14.2,14.2v9h2.8c1.6,0,2.8,1.3,2.8,2.8v17c0,1.6-1.3,2.8-2.8,2.8h-2.8v9c0,7.8,6.3,14.2,14.2,14.2h36.9
	c7.8,0,14.2-6.3,14.2-14.2v-9H778.3z"/>
<path class="st0" d="M854.9,734.3c-1.6,0-2.8-1.3-2.8-2.8v-17c0-1.6,1.3-2.8,2.8-2.8h2.8v-9c0-7.8-6.3-14.2-14.2-14.2h-36.9
	c-7.8,0-14.2,6.3-14.2,14.2v9h2.8c1.6,0,2.8,1.3,2.8,2.8v17c0,1.6-1.3,2.8-2.8,2.8h-2.8v9c0,7.8,6.3,14.2,14.2,14.2h36.9
	c7.8,0,14.2-6.3,14.2-14.2v-9H854.9z"/>
<path class="st0" d="M931.5,734.3c-1.6,0-2.8-1.3-2.8-2.8v-17c0-1.6,1.3-2.8,2.8-2.8h2.8v-9c0-7.8-6.3-14.2-14.2-14.2h-36.9
	c-7.8,0-14.2,6.3-14.2,14.2v9h2.8c1.6,0,2.8,1.3,2.8,2.8v17c0,1.6-1.3,2.8-2.8,2.8h-2.8v9c0,7.8,6.3,14.2,14.2,14.2h36.9
	c7.8,0,14.2-6.3,14.2-14.2v-9H931.5z"/>
<path class="st0" d="M1008.1,734.3c-1.6,0-2.8-1.3-2.8-2.8v-17c0-1.6,1.3-2.8,2.8-2.8h2.8v-9c0-7.8-6.3-14.2-14.2-14.2h-36.9
	c-7.8,0-14.2,6.3-14.2,14.2v9h2.8c1.6,0,2.8,1.3,2.8,2.8v17c0,1.6-1.3,2.8-2.8,2.8h-2.8v9c0,7.8,6.3,14.2,14.2,14.2h36.9
	c7.8,0,14.2-6.3,14.2-14.2v-9H1008.1z"/>
<path class="st0" d="M242,819.4c-1.6,0-2.8-1.3-2.8-2.8v-17c0-1.6,1.3-2.8,2.8-2.8h2.8v-9c0-7.8-6.3-14.2-14.2-14.2h-36.9
	c-7.8,0-14.2,6.3-14.2,14.2v9h2.8c1.6,0,2.8,1.3,2.8,2.8v17c0,1.6-1.3,2.8-2.8,2.8h-2.8v9c0,7.8,6.3,14.2,14.2,14.2h36.9
	c7.8,0,14.2-6.3,14.2-14.2v-9H242z"/>
<path class="st0" d="M318.6,819.4c-1.6,0-2.8-1.3-2.8-2.8v-17c0-1.6,1.3-2.8,2.8-2.8h2.8v-9c0-7.8-6.3-14.2-14.2-14.2h-36.9
	c-7.8,0-14.2,6.3-14.2,14.2v9h2.8c1.6,0,2.8,1.3,2.8,2.8v17c0,1.6-1.3,2.8-2.8,2.8h-2.8v9c0,7.8,6.3,14.2,14.2,14.2h36.9
	c7.8,0,14.2-6.3,14.2-14.2v-9H318.6z"/>
<path class="st0" d="M395.2,819.4c-1.6,0-2.8-1.3-2.8-2.8v-17c0-1.6,1.3-2.8,2.8-2.8h2.8v-9c0-7.8-6.3-14.2-14.2-14.2H347
	c-7.8,0-14.2,6.3-14.2,14.2v9h2.8c1.6,0,2.8,1.3,2.8,2.8v17c0,1.6-1.3,2.8-2.8,2.8h-2.8v9c0,7.8,6.3,14.2,14.2,14.2h36.9
	c7.8,0,14.2-6.3,14.2-14.2v-9H395.2z"/>
<path class="st0" d="M471.9,819.4c-1.6,0-2.8-1.3-2.8-2.8v-17c0-1.6,1.3-2.8,2.8-2.8h2.8v-9c0-7.8-6.3-14.2-14.2-14.2h-36.9
	c-7.8,0-14.2,6.3-14.2,14.2v9h2.8c1.6,0,2.8,1.3,2.8,2.8v17c0,1.6-1.3,2.8-2.8,2.8h-2.8v9c0,7.8,6.3,14.2,14.2,14.2h36.9
	c7.8,0,14.2-6.3,14.2-14.2v-9H471.9z"/>
<path class="st0" d="M548.5,819.4c-1.6,0-2.8-1.3-2.8-2.8v-17c0-1.6,1.3-2.8,2.8-2.8h2.8v-9c0-7.8-6.3-14.2-14.2-14.2h-36.9
	c-7.8,0-14.2,6.3-14.2,14.2v9h2.8c1.6,0,2.8,1.3,2.8,2.8v17c0,1.6-1.3,2.8-2.8,2.8h-2.8v9c0,7.8,6.3,14.2,14.2,14.2h36.9
	c7.8,0,14.2-6.3,14.2-14.2v-9H548.5z"/>
<path class="st0" d="M625.1,819.4c-1.6,0-2.8-1.3-2.8-2.8v-17c0-1.6,1.3-2.8,2.8-2.8h2.8v-9c0-7.8-6.3-14.2-14.2-14.2h-36.9
	c-7.8,0-14.2,6.3-14.2,14.2v9h2.8c1.6,0,2.8,1.3,2.8,2.8v17c0,1.6-1.3,2.8-2.8,2.8h-2.8v9c0,7.8,6.3,14.2,14.2,14.2h36.9
	c7.8,0,14.2-6.3,14.2-14.2v-9H625.1z"/>
<path class="st0" d="M701.7,819.4c-1.6,0-2.8-1.3-2.8-2.8v-17c0-1.6,1.3-2.8,2.8-2.8h2.8v-9c0-7.8-6.3-14.2-14.2-14.2h-36.8
	c-7.8,0-14.2,6.3-14.2,14.2v9h2.8c1.6,0,2.8,1.3,2.8,2.8v17c0,1.6-1.3,2.8-2.8,2.8h-2.8v9c0,7.8,6.3,14.2,14.2,14.2h36.8
	c7.8,0,14.2-6.3,14.2-14.2v-9H701.7z"/>
<path class="st0" d="M778.3,819.4c-1.6,0-2.8-1.3-2.8-2.8v-17c0-1.6,1.3-2.8,2.8-2.8h2.8v-9c0-7.8-6.3-14.2-14.2-14.2h-36.9
	c-7.8,0-14.2,6.3-14.2,14.2v9h2.8c1.6,0,2.8,1.3,2.8,2.8v17c0,1.6-1.3,2.8-2.8,2.8h-2.8v9c0,7.8,6.3,14.2,14.2,14.2h36.9
	c7.8,0,14.2-6.3,14.2-14.2v-9H778.3z"/>
<path class="st0" d="M854.9,819.4c-1.6,0-2.8-1.3-2.8-2.8v-17c0-1.6,1.3-2.8,2.8-2.8h2.8v-9c0-7.8-6.3-14.2-14.2-14.2h-36.9
	c-7.8,0-14.2,6.3-14.2,14.2v9h2.8c1.6,0,2.8,1.3,2.8,2.8v17c0,1.6-1.3,2.8-2.8,2.8h-2.8v9c0,7.8,6.3,14.2,14.2,14.2h36.9
	c7.8,0,14.2-6.3,14.2-14.2v-9H854.9z"/>
<path class="st0" d="M931.5,819.4c-1.6,0-2.8-1.3-2.8-2.8v-17c0-1.6,1.3-2.8,2.8-2.8h2.8v-9c0-7.8-6.3-14.2-14.2-14.2h-36.9
	c-7.8,0-14.2,6.3-14.2,14.2v9h2.8c1.6,0,2.8,1.3,2.8,2.8v17c0,1.6-1.3,2.8-2.8,2.8h-2.8v9c0,7.8,6.3,14.2,14.2,14.2h36.9
	c7.8,0,14.2-6.3,14.2-14.2v-9H931.5z"/>
<path class="st0" d="M1008.1,819.4c-1.6,0-2.8-1.3-2.8-2.8v-17c0-1.6,1.3-2.8,2.8-2.8h2.8v-9c0-7.8-6.3-14.2-14.2-14.2h-36.9
	c-7.8,0-14.2,6.3-14.2,14.2v9h2.8c1.6,0,2.8,1.3,2.8,2.8v17c0,1.6-1.3,2.8-2.8,2.8h-2.8v9c0,7.8,6.3,14.2,14.2,14.2h36.9
	c7.8,0,14.2-6.3,14.2-14.2v-9H1008.1z"/>
<path class="st0" d="M242,904.5c-1.6,0-2.8-1.3-2.8-2.8v-17c0-1.6,1.3-2.8,2.8-2.8h2.8v-9c0-7.8-6.3-14.2-14.2-14.2h-36.9
	c-7.8,0-14.2,6.3-14.2,14.2v9h2.8c1.6,0,2.8,1.3,2.8,2.8v17c0,1.6-1.3,2.8-2.8,2.8h-2.8v9c0,7.8,6.3,14.2,14.2,14.2h36.9
	c7.8,0,14.2-6.3,14.2-14.2v-9H242z"/>
<path class="st0" d="M318.6,904.5c-1.6,0-2.8-1.3-2.8-2.8v-17c0-1.6,1.3-2.8,2.8-2.8h2.8v-9c0-7.8-6.3-14.2-14.2-14.2h-36.9
	c-7.8,0-14.2,6.3-14.2,14.2v9h2.8c1.6,0,2.8,1.3,2.8,2.8v17c0,1.6-1.3,2.8-2.8,2.8h-2.8v9c0,7.8,6.3,14.2,14.2,14.2h36.9
	c7.8,0,14.2-6.3,14.2-14.2v-9H318.6z"/>
<path class="st0" d="M395.2,904.5c-1.6,0-2.8-1.3-2.8-2.8v-17c0-1.6,1.3-2.8,2.8-2.8h2.8v-9c0-7.8-6.3-14.2-14.2-14.2H347
	c-7.8,0-14.2,6.3-14.2,14.2v9h2.8c1.6,0,2.8,1.3,2.8,2.8v17c0,1.6-1.3,2.8-2.8,2.8h-2.8v9c0,7.8,6.3,14.2,14.2,14.2h36.9
	c7.8,0,14.2-6.3,14.2-14.2v-9H395.2z"/>
<path class="st0" d="M471.9,904.5c-1.6,0-2.8-1.3-2.8-2.8v-17c0-1.6,1.3-2.8,2.8-2.8h2.8v-9c0-7.8-6.3-14.2-14.2-14.2h-36.9
	c-7.8,0-14.2,6.3-14.2,14.2v9h2.8c1.6,0,2.8,1.3,2.8,2.8v17c0,1.6-1.3,2.8-2.8,2.8h-2.8v9c0,7.8,6.3,14.2,14.2,14.2h36.9
	c7.8,0,14.2-6.3,14.2-14.2v-9H471.9z"/>
<path class="st0" d="M548.5,904.5c-1.6,0-2.8-1.3-2.8-2.8v-17c0-1.6,1.3-2.8,2.8-2.8h2.8v-9c0-7.8-6.3-14.2-14.2-14.2h-36.9
	c-7.8,0-14.2,6.3-14.2,14.2v9h2.8c1.6,0,2.8,1.3,2.8,2.8v17c0,1.6-1.3,2.8-2.8,2.8h-2.8v9c0,7.8,6.3,14.2,14.2,14.2h36.9
	c7.8,0,14.2-6.3,14.2-14.2v-9H548.5z"/>
<path class="st0" d="M625.1,904.5c-1.6,0-2.8-1.3-2.8-2.8v-17c0-1.6,1.3-2.8,2.8-2.8h2.8v-9c0-7.8-6.3-14.2-14.2-14.2h-36.9
	c-7.8,0-14.2,6.3-14.2,14.2v9h2.8c1.6,0,2.8,1.3,2.8,2.8v17c0,1.6-1.3,2.8-2.8,2.8h-2.8v9c0,7.8,6.3,14.2,14.2,14.2h36.9
	c7.8,0,14.2-6.3,14.2-14.2v-9H625.1z"/>
<path class="st0" d="M701.7,904.5c-1.6,0-2.8-1.3-2.8-2.8v-17c0-1.6,1.3-2.8,2.8-2.8h2.8v-9c0-7.8-6.3-14.2-14.2-14.2h-36.8
	c-7.8,0-14.2,6.3-14.2,14.2v9h2.8c1.6,0,2.8,1.3,2.8,2.8v17c0,1.6-1.3,2.8-2.8,2.8h-2.8v9c0,7.8,6.3,14.2,14.2,14.2h36.8
	c7.8,0,14.2-6.3,14.2-14.2v-9H701.7z"/>
<path class="st0" d="M778.3,904.5c-1.6,0-2.8-1.3-2.8-2.8v-17c0-1.6,1.3-2.8,2.8-2.8h2.8v-9c0-7.8-6.3-14.2-14.2-14.2h-36.9
	c-7.8,0-14.2,6.3-14.2,14.2v9h2.8c1.6,0,2.8,1.3,2.8,2.8v17c0,1.6-1.3,2.8-2.8,2.8h-2.8v9c0,7.8,6.3,14.2,14.2,14.2h36.9
	c7.8,0,14.2-6.3,14.2-14.2v-9H778.3z"/>
<path class="st0" d="M854.9,904.5c-1.6,0-2.8-1.3-2.8-2.8v-17c0-1.6,1.3-2.8,2.8-2.8h2.8v-9c0-7.8-6.3-14.2-14.2-14.2h-36.9
	c-7.8,0-14.2,6.3-14.2,14.2v9h2.8c1.6,0,2.8,1.3,2.8,2.8v17c0,1.6-1.3,2.8-2.8,2.8h-2.8v9c0,7.8,6.3,14.2,14.2,14.2h36.9
	c7.8,0,14.2-6.3,14.2-14.2v-9H854.9z"/>
<path class="st0" d="M931.5,904.5c-1.6,0-2.8-1.3-2.8-2.8v-17c0-1.6,1.3-2.8,2.8-2.8h2.8v-9c0-7.8-6.3-14.2-14.2-14.2h-36.9
	c-7.8,0-14.2,6.3-14.2,14.2v9h2.8c1.6,0,2.8,1.3,2.8,2.8v17c0,1.6-1.3,2.8-2.8,2.8h-2.8v9c0,7.8,6.3,14.2,14.2,14.2h36.9
	c7.8,0,14.2-6.3,14.2-14.2v-9H931.5z"/>
<path class="st0" d="M1008.1,904.5c-1.6,0-2.8-1.3-2.8-2.8v-17c0-1.6,1.3-2.8,2.8-2.8h2.8v-9c0-7.8-6.3-14.2-14.2-14.2h-36.9
	c-7.8,0-14.2,6.3-14.2,14.2v9h2.8c1.6,0,2.8,1.3,2.8,2.8v17c0,1.6-1.3,2.8-2.8,2.8h-2.8v9c0,7.8,6.3,14.2,14.2,14.2h36.9
	c7.8,0,14.2-6.3,14.2-14.2v-9H1008.1z"/>
<path class="st0" d="M242,989.7c-1.6,0-2.8-1.3-2.8-2.8v-17c0-1.6,1.3-2.8,2.8-2.8h2.8v-9c0-7.8-6.3-14.2-14.2-14.2h-36.9
	c-7.8,0-14.2,6.3-14.2,14.2v9h2.8c1.6,0,2.8,1.3,2.8,2.8v17c0,1.6-1.3,2.8-2.8,2.8h-2.8v9c0,7.8,6.3,14.2,14.2,14.2h36.9
	c7.8,0,14.2-6.3,14.2-14.2v-9H242z"/>
<path class="st0" d="M318.6,989.7c-1.6,0-2.8-1.3-2.8-2.8v-17c0-1.6,1.3-2.8,2.8-2.8h2.8v-9c0-7.8-6.3-14.2-14.2-14.2h-36.9
	c-7.8,0-14.2,6.3-14.2,14.2v9h2.8c1.6,0,2.8,1.3,2.8,2.8v17c0,1.6-1.3,2.8-2.8,2.8h-2.8v9c0,7.8,6.3,14.2,14.2,14.2h36.9
	c7.8,0,14.2-6.3,14.2-14.2v-9H318.6z"/>
<path class="st0" d="M395.2,989.7c-1.6,0-2.8-1.3-2.8-2.8v-17c0-1.6,1.3-2.8,2.8-2.8h2.8v-9c0-7.8-6.3-14.2-14.2-14.2H347
	c-7.8,0-14.2,6.3-14.2,14.2v9h2.8c1.6,0,2.8,1.3,2.8,2.8v17c0,1.6-1.3,2.8-2.8,2.8h-2.8v9c0,7.8,6.3,14.2,14.2,14.2h36.9
	c7.8,0,14.2-6.3,14.2-14.2v-9H395.2z"/>
<path class="st0" d="M471.9,989.7c-1.6,0-2.8-1.3-2.8-2.8v-17c0-1.6,1.3-2.8,2.8-2.8h2.8v-9c0-7.8-6.3-14.2-14.2-14.2h-36.9
	c-7.8,0-14.2,6.3-14.2,14.2v9h2.8c1.6,0,2.8,1.3,2.8,2.8v17c0,1.6-1.3,2.8-2.8,2.8h-2.8v9c0,7.8,6.3,14.2,14.2,14.2h36.9
	c7.8,0,14.2-6.3,14.2-14.2v-9H471.9z"/>
<path class="st0" d="M548.5,989.7c-1.6,0-2.8-1.3-2.8-2.8v-17c0-1.6,1.3-2.8,2.8-2.8h2.8v-9c0-7.8-6.3-14.2-14.2-14.2h-36.9
	c-7.8,0-14.2,6.3-14.2,14.2v9h2.8c1.6,0,2.8,1.3,2.8,2.8v17c0,1.6-1.3,2.8-2.8,2.8h-2.8v9c0,7.8,6.3,14.2,14.2,14.2h36.9
	c7.8,0,14.2-6.3,14.2-14.2v-9H548.5z"/>
<path class="st0" d="M625.1,989.7c-1.6,0-2.8-1.3-2.8-2.8v-17c0-1.6,1.3-2.8,2.8-2.8h2.8v-9c0-7.8-6.3-14.2-14.2-14.2h-36.9
	c-7.8,0-14.2,6.3-14.2,14.2v9h2.8c1.6,0,2.8,1.3,2.8,2.8v17c0,1.6-1.3,2.8-2.8,2.8h-2.8v9c0,7.8,6.3,14.2,14.2,14.2h36.9
	c7.8,0,14.2-6.3,14.2-14.2v-9H625.1z"/>
<path class="st0" d="M701.7,989.7c-1.6,0-2.8-1.3-2.8-2.8v-17c0-1.6,1.3-2.8,2.8-2.8h2.8v-9c0-7.8-6.3-14.2-14.2-14.2h-36.8
	c-7.8,0-14.2,6.3-14.2,14.2v9h2.8c1.6,0,2.8,1.3,2.8,2.8v17c0,1.6-1.3,2.8-2.8,2.8h-2.8v9c0,7.8,6.3,14.2,14.2,14.2h36.8
	c7.8,0,14.2-6.3,14.2-14.2v-9H701.7z"/>
<path class="st0" d="M778.3,989.7c-1.6,0-2.8-1.3-2.8-2.8v-17c0-1.6,1.3-2.8,2.8-2.8h2.8v-9c0-7.8-6.3-14.2-14.2-14.2h-36.9
	c-7.8,0-14.2,6.3-14.2,14.2v9h2.8c1.6,0,2.8,1.3,2.8,2.8v17c0,1.6-1.3,2.8-2.8,2.8h-2.8v9c0,7.8,6.3,14.2,14.2,14.2h36.9
	c7.8,0,14.2-6.3,14.2-14.2v-9H778.3z"/>
<path class="st0" d="M854.9,989.7c-1.6,0-2.8-1.3-2.8-2.8v-17c0-1.6,1.3-2.8,2.8-2.8h2.8v-9c0-7.8-6.3-14.2-14.2-14.2h-36.9
	c-7.8,0-14.2,6.3-14.2,14.2v9h2.8c1.6,0,2.8,1.3,2.8,2.8v17c0,1.6-1.3,2.8-2.8,2.8h-2.8v9c0,7.8,6.3,14.2,14.2,14.2h36.9
	c7.8,0,14.2-6.3,14.2-14.2v-9H854.9z"/>
<path class="st0" d="M931.5,989.7c-1.6,0-2.8-1.3-2.8-2.8v-17c0-1.6,1.3-2.8,2.8-2.8h2.8v-9c0-7.8-6.3-14.2-14.2-14.2h-36.9
	c-7.8,0-14.2,6.3-14.2,14.2v9h2.8c1.6,0,2.8,1.3,2.8,2.8v17c0,1.6-1.3,2.8-2.8,2.8h-2.8v9c0,7.8,6.3,14.2,14.2,14.2h36.9
	c7.8,0,14.2-6.3,14.2-14.2v-9H931.5z"/>
<path class="st0" d="M1008.1,989.7c-1.6,0-2.8-1.3-2.8-2.8v-17c0-1.6,1.3-2.8,2.8-2.8h2.8v-9c0-7.8-6.3-14.2-14.2-14.2h-36.9
	c-7.8,0-14.2,6.3-14.2,14.2v9h2.8c1.6,0,2.8,1.3,2.8,2.8v17c0,1.6-1.3,2.8-2.8,2.8h-2.8v9c0,7.8,6.3,14.2,14.2,14.2h36.9
	c7.8,0,14.2-6.3,14.2-14.2v-9H1008.1z"/>
<path class="st0" d="M510.2,1081.1c-1.6,0-2.8-1.3-2.8-2.8v-17c0-1.6,1.3-2.8,2.8-2.8h2.8v-9c0-7.8-6.3-14.2-14.2-14.2h-36.9
	c-7.8,0-14.2,6.3-14.2,14.2v9h2.8c1.6,0,2.8,1.3,2.8,2.8v17c0,1.6-1.3,2.8-2.8,2.8h-2.8v9c0,7.8,6.3,14.2,14.2,14.2h36.9
	c7.8,0,14.2-6.3,14.2-14.2v-9H510.2z"/>
<path class="st0" d="M586.8,1081.1c-1.6,0-2.8-1.3-2.8-2.8v-17c0-1.6,1.3-2.8,2.8-2.8h2.8v-9c0-7.8-6.3-14.2-14.2-14.2h-36.8
	c-7.8,0-14.2,6.3-14.2,14.2v9h2.8c1.6,0,2.8,1.3,2.8,2.8v17c0,1.6-1.3,2.8-2.8,2.8h-2.8v9c0,7.8,6.3,14.2,14.2,14.2h36.8
	c7.8,0,14.2-6.3,14.2-14.2v-9H586.8z"/>
<path class="st0" d="M663.4,1081.1c-1.6,0-2.8-1.3-2.8-2.8v-17c0-1.6,1.3-2.8,2.8-2.8h2.8v-9c0-7.8-6.3-14.2-14.2-14.2h-36.9
	c-7.8,0-14.2,6.3-14.2,14.2v9h2.8c1.6,0,2.8,1.3,2.8,2.8v17c0,1.6-1.3,2.8-2.8,2.8H601v9c0,7.8,6.3,14.2,14.2,14.2H652
	c7.8,0,14.2-6.3,14.2-14.2v-9H663.4z"/>
<path class="st0" d="M740,1081.1c-1.6,0-2.8-1.3-2.8-2.8v-17c0-1.6,1.3-2.8,2.8-2.8h2.8v-9c0-7.8-6.3-14.2-14.2-14.2h-36.9
	c-7.8,0-14.2,6.3-14.2,14.2v9h2.8c1.6,0,2.8,1.3,2.8,2.8v17c0,1.6-1.3,2.8-2.8,2.8h-2.8v9c0,7.8,6.3,14.2,14.2,14.2h36.9
	c7.8,0,14.2-6.3,14.2-14.2v-9H740z"/>
<rect x="69.4" y="708.7" class="st1" width="87.9" height="170.1"/>
<circle class="st1" cx="113.4" cy="1020.5" r="42.5"/>
<path class="st1" d="M127.6,524.4H99.2c-15.6,0-28.3-12.8-28.3-28.3v-85c0-15.6,12.8-28.3,28.3-28.3h28.3
	c15.6,0,28.3,12.8,28.3,28.3v85C155.9,511.7,143.1,524.4,127.6,524.4z"/>
<rect x="1033.2" y="708.7" class="st1" width="87.9" height="170.1"/>
<path class="st0" d="M1148,28.3H42.5c-7.8,0-14.2,6.3-14.2,14.2V1148c0,7.8,6.3,14.2,14.2,14.2h104.9v-34h12.8V1114H180v14.2h12.8
	v34h805v-34h12.8V1114h19.8v14.2h12.8v34H1148c7.8,0,14.2-6.3,14.2-14.2V42.5C1162.2,34.7,1155.9,28.3,1148,28.3z"/>
<circle class="st1" cx="1077.2" cy="1020.5" r="42.5"/>
<path class="st1" d="M1063,524.4h28.3c15.6,0,28.3-12.8,28.3-28.3v-85c0-15.6-12.8-28.3-28.3-28.3H1063c-15.6,0-28.3,12.8-28.3,28.3
	v85C1034.6,511.7,1047.4,524.4,1063,524.4z"/>
<path class="st0" d="M625.1,127.1c-1.6,0-2.8-1.3-2.8-2.8v-17c0-1.6,1.3-2.8,2.8-2.8h2.8v-9c0-7.8-6.3-14.2-14.2-14.2h-36.9
	c-7.8,0-14.2,6.3-14.2,14.2v9h2.8c1.6,0,2.8,1.3,2.8,2.8v17c0,1.6-1.3,2.8-2.8,2.8h-2.8v9c0,7.8,6.3,14.2,14.2,14.2h36.9
	c7.8,0,14.2-6.3,14.2-14.2v-9H625.1z"/>
<line class="st0" x1="748.5" y1="115.8" x2="978.3" y2="115.8"/>
<line class="st0" x1="212.2" y1="115.8" x2="442.1" y2="115.8"/>
</svg>
