<?xml version="1.0" encoding="utf-8"?>
<!-- Generator: Adobe Illustrator 24.3.0, SVG Export Plug-In . SVG Version: 6.00 Build 0)  -->
<svg version="1.1" id="Ebene_3" xmlns="http://www.w3.org/2000/svg" xmlns:xlink="http://www.w3.org/1999/xlink" x="0px" y="0px"
	 viewBox="0 0 1133.9 1133.9" style="enable-background:new 0 0 1133.9 1133.9;" xml:space="preserve">
<style type="text/css">
	.st0{fill:none;stroke:#000000;stroke-width:0.25;stroke-miterlimit:10;}
</style>
<g>
	<line class="st0" x1="950" y1="933" x2="950" y2="967"/>
	<line class="st0" x1="950" y1="847.9" x2="950" y2="881.9"/>
	<line class="st0" x1="950" y1="762.7" x2="950" y2="796.7"/>
	<line class="st0" x1="950" y1="677.6" x2="950" y2="711.6"/>
	<line class="st0" x1="950" y1="592.5" x2="950" y2="626.5"/>
	<line class="st0" x1="950" y1="507.4" x2="950" y2="541.4"/>
	<line class="st0" x1="950" y1="422.2" x2="950" y2="456.3"/>
	<line class="st0" x1="950" y1="337.1" x2="950" y2="371.1"/>
	<line class="st0" x1="950" y1="252" x2="950" y2="286"/>
	<line class="st0" x1="950" y1="166.9" x2="950" y2="200.9"/>
	<line class="st0" x1="873.4" y1="933" x2="873.4" y2="967"/>
	<line class="st0" x1="873.4" y1="847.9" x2="873.4" y2="881.9"/>
	<line class="st0" x1="873.4" y1="762.7" x2="873.4" y2="796.7"/>
	<line class="st0" x1="873.4" y1="677.6" x2="873.4" y2="711.6"/>
	<line class="st0" x1="873.4" y1="592.5" x2="873.4" y2="626.5"/>
	<line class="st0" x1="873.4" y1="507.4" x2="873.4" y2="541.4"/>
	<line class="st0" x1="873.4" y1="422.2" x2="873.4" y2="456.3"/>
	<line class="st0" x1="873.4" y1="337.1" x2="873.4" y2="371.1"/>
	<line class="st0" x1="873.4" y1="252" x2="873.4" y2="286"/>
	<line class="st0" x1="873.4" y1="166.9" x2="873.4" y2="200.9"/>
	<line class="st0" x1="796.8" y1="933" x2="796.8" y2="967"/>
	<line class="st0" x1="796.8" y1="847.9" x2="796.8" y2="881.9"/>
	<line class="st0" x1="796.8" y1="762.7" x2="796.8" y2="796.7"/>
	<line class="st0" x1="796.8" y1="677.6" x2="796.8" y2="711.6"/>
	<line class="st0" x1="796.8" y1="592.5" x2="796.8" y2="626.5"/>
	<line class="st0" x1="796.8" y1="507.4" x2="796.8" y2="541.4"/>
	<line class="st0" x1="796.8" y1="422.2" x2="796.8" y2="456.3"/>
	<line class="st0" x1="796.8" y1="337.1" x2="796.8" y2="371.1"/>
	<line class="st0" x1="796.8" y1="252" x2="796.8" y2="286"/>
	<line class="st0" x1="796.8" y1="166.9" x2="796.8" y2="200.9"/>
	<line class="st0" x1="720.2" y1="933" x2="720.2" y2="967"/>
	<line class="st0" x1="720.2" y1="847.9" x2="720.2" y2="881.9"/>
	<line class="st0" x1="720.2" y1="762.7" x2="720.2" y2="796.7"/>
	<line class="st0" x1="720.2" y1="677.6" x2="720.2" y2="711.6"/>
	<line class="st0" x1="720.2" y1="592.5" x2="720.2" y2="626.5"/>
	<line class="st0" x1="720.2" y1="507.4" x2="720.2" y2="541.4"/>
	<line class="st0" x1="720.2" y1="422.2" x2="720.2" y2="456.3"/>
	<line class="st0" x1="720.2" y1="337.1" x2="720.2" y2="371.1"/>
	<line class="st0" x1="720.2" y1="252" x2="720.2" y2="286"/>
	<line class="st0" x1="720.2" y1="166.9" x2="720.2" y2="200.9"/>
	<line class="st0" x1="643.5" y1="933" x2="643.5" y2="967"/>
	<line class="st0" x1="643.5" y1="847.9" x2="643.5" y2="881.9"/>
	<line class="st0" x1="643.5" y1="762.7" x2="643.5" y2="796.7"/>
	<line class="st0" x1="643.5" y1="677.6" x2="643.5" y2="711.6"/>
	<line class="st0" x1="643.5" y1="592.5" x2="643.5" y2="626.5"/>
	<line class="st0" x1="643.5" y1="507.4" x2="643.5" y2="541.4"/>
	<line class="st0" x1="643.5" y1="422.2" x2="643.5" y2="456.3"/>
	<line class="st0" x1="643.5" y1="337.1" x2="643.5" y2="371.1"/>
	<line class="st0" x1="643.5" y1="252" x2="643.5" y2="286"/>
	<line class="st0" x1="643.5" y1="166.9" x2="643.5" y2="200.9"/>
	<line class="st0" x1="566.9" y1="933" x2="566.9" y2="967"/>
	<line class="st0" x1="566.9" y1="847.9" x2="566.9" y2="881.9"/>
	<line class="st0" x1="566.9" y1="762.7" x2="566.9" y2="796.7"/>
	<line class="st0" x1="566.9" y1="677.6" x2="566.9" y2="711.6"/>
	<line class="st0" x1="566.9" y1="592.5" x2="566.9" y2="626.5"/>
	<line class="st0" x1="566.9" y1="507.4" x2="566.9" y2="541.4"/>
	<line class="st0" x1="566.9" y1="422.2" x2="566.9" y2="456.3"/>
	<line class="st0" x1="566.9" y1="337.1" x2="566.9" y2="371.1"/>
	<line class="st0" x1="566.9" y1="252" x2="566.9" y2="286"/>
	<line class="st0" x1="566.9" y1="166.9" x2="566.9" y2="200.9"/>
	<line class="st0" x1="490.3" y1="933" x2="490.3" y2="967"/>
	<line class="st0" x1="490.3" y1="847.9" x2="490.3" y2="881.9"/>
	<line class="st0" x1="490.3" y1="762.7" x2="490.3" y2="796.7"/>
	<line class="st0" x1="490.3" y1="677.6" x2="490.3" y2="711.6"/>
	<line class="st0" x1="490.3" y1="592.5" x2="490.3" y2="626.5"/>
	<line class="st0" x1="490.3" y1="507.4" x2="490.3" y2="541.4"/>
	<line class="st0" x1="490.3" y1="422.2" x2="490.3" y2="456.3"/>
	<line class="st0" x1="490.3" y1="337.1" x2="490.3" y2="371.1"/>
	<line class="st0" x1="490.3" y1="252" x2="490.3" y2="286"/>
	<line class="st0" x1="490.3" y1="166.9" x2="490.3" y2="200.9"/>
	<line class="st0" x1="413.7" y1="933" x2="413.7" y2="967"/>
	<line class="st0" x1="413.7" y1="847.9" x2="413.7" y2="881.9"/>
	<line class="st0" x1="413.7" y1="762.7" x2="413.7" y2="796.7"/>
	<line class="st0" x1="413.7" y1="677.6" x2="413.7" y2="711.6"/>
	<line class="st0" x1="413.7" y1="592.5" x2="413.7" y2="626.5"/>
	<line class="st0" x1="413.7" y1="507.4" x2="413.7" y2="541.4"/>
	<line class="st0" x1="413.7" y1="422.2" x2="413.7" y2="456.3"/>
	<line class="st0" x1="413.7" y1="337.1" x2="413.7" y2="371.1"/>
	<line class="st0" x1="413.7" y1="252" x2="413.7" y2="286"/>
	<line class="st0" x1="413.7" y1="166.9" x2="413.7" y2="200.9"/>
	<line class="st0" x1="337.1" y1="933" x2="337.1" y2="967"/>
	<line class="st0" x1="337.1" y1="847.9" x2="337.1" y2="881.9"/>
	<line class="st0" x1="337.1" y1="762.7" x2="337.1" y2="796.7"/>
	<line class="st0" x1="337.1" y1="677.6" x2="337.1" y2="711.6"/>
	<line class="st0" x1="337.1" y1="592.5" x2="337.1" y2="626.5"/>
	<line class="st0" x1="337.1" y1="507.4" x2="337.1" y2="541.4"/>
	<line class="st0" x1="337.1" y1="422.2" x2="337.1" y2="456.3"/>
	<line class="st0" x1="337.1" y1="337.1" x2="337.1" y2="371.1"/>
	<line class="st0" x1="337.1" y1="252" x2="337.1" y2="286"/>
	<line class="st0" x1="337.1" y1="166.9" x2="337.1" y2="200.9"/>
	<line class="st0" x1="260.5" y1="933" x2="260.5" y2="967"/>
	<line class="st0" x1="260.5" y1="847.9" x2="260.5" y2="881.9"/>
	<line class="st0" x1="260.5" y1="762.7" x2="260.5" y2="796.7"/>
	<line class="st0" x1="260.5" y1="677.6" x2="260.5" y2="711.6"/>
	<line class="st0" x1="260.5" y1="592.5" x2="260.5" y2="626.5"/>
	<line class="st0" x1="260.5" y1="507.4" x2="260.5" y2="541.4"/>
	<line class="st0" x1="260.5" y1="422.2" x2="260.5" y2="456.3"/>
	<line class="st0" x1="260.5" y1="337.1" x2="260.5" y2="371.1"/>
	<line class="st0" x1="260.5" y1="252" x2="260.5" y2="286"/>
	<line class="st0" x1="260.5" y1="166.9" x2="260.5" y2="200.9"/>
	<line class="st0" x1="183.9" y1="933" x2="183.9" y2="967"/>
	<line class="st0" x1="183.9" y1="847.9" x2="183.9" y2="881.9"/>
	<line class="st0" x1="183.9" y1="762.7" x2="183.9" y2="796.7"/>
	<line class="st0" x1="183.9" y1="677.6" x2="183.9" y2="711.6"/>
	<line class="st0" x1="183.9" y1="592.5" x2="183.9" y2="626.5"/>
	<line class="st0" x1="183.9" y1="507.4" x2="183.9" y2="541.4"/>
	<line class="st0" x1="183.9" y1="422.2" x2="183.9" y2="456.3"/>
	<line class="st0" x1="183.9" y1="337.1" x2="183.9" y2="371.1"/>
	<line class="st0" x1="183.9" y1="252" x2="183.9" y2="286"/>
	<line class="st0" x1="183.9" y1="166.9" x2="183.9" y2="200.9"/>
</g>
<g>
	<rect x="41.1" y="647" class="st0" width="87.9" height="113.4"/>
</g>
<g>
	<g>
		<rect x="164.7" y="935.8" class="st0" width="804.4" height="28.3"/>
	</g>
	<g>
		<rect x="164.7" y="850.7" class="st0" width="804.4" height="28.3"/>
	</g>
	<g>
		<rect x="164.7" y="765.6" class="st0" width="804.4" height="28.3"/>
	</g>
	<g>
		<rect x="164.7" y="680.4" class="st0" width="804.4" height="28.3"/>
	</g>
	<g>
		<rect x="164.7" y="595.3" class="st0" width="804.4" height="28.3"/>
	</g>
	<g>
		<rect x="164.7" y="510.2" class="st0" width="804.4" height="28.3"/>
	</g>
	<g>
		<rect x="164.7" y="425.1" class="st0" width="804.4" height="28.3"/>
	</g>
	<g>
		<rect x="164.7" y="339.9" class="st0" width="804.4" height="28.3"/>
	</g>
	<g>
		<rect x="164.7" y="254.8" class="st0" width="804.4" height="28.3"/>
	</g>
	<g>
		<rect x="164.7" y="169.7" class="st0" width="804.4" height="28.3"/>
	</g>
</g>
<path class="st0" d="M42.5,382.7c0-15.6,12.8-28.3,28.3-28.3h28.3c15.6,0,28.3,12.8,28.3,28.3v85c0,15.6-12.8,28.3-28.3,28.3H70.9
	c-15.6,0-28.3-12.8-28.3-28.3v-85H42.5z"/>
<rect x="432.9" y="1027.3" class="st0" width="268.1" height="28.3"/>
<path class="st0" d="M164.7,1041.4c-15.7,0-28.3-20.5-28.3-45.7c0-25.3,12.7-45.7,28.3-45.7"/>
<g>
	<g>
		<path class="st0" d="M969.1,864.9c15.7,0,28.3,19.1,28.3,42.6c0,19-8.3,35.1-19.7,40.6"/>
		<g>
			<polygon class="st0" points="978.9,944.4 969.1,950 980.4,950.1 			"/>
		</g>
	</g>
	<g>
		<path class="st0" d="M969.1,694.6c15.7,0,28.3,19.1,28.3,42.6c0,19-8.3,35.1-19.7,40.6"/>
		<g>
			<polygon class="st0" points="978.9,774.2 969.1,779.7 980.4,779.8 			"/>
		</g>
	</g>
	<g>
		<path class="st0" d="M156.1,862.9c-11.4-5.5-19.7-21.6-19.7-40.6c0-23.5,12.7-42.6,28.3-42.6"/>
		<g>
			<polygon class="st0" points="155,859.3 164.7,864.9 153.5,864.9 			"/>
		</g>
	</g>
	<g>
		<path class="st0" d="M969.1,524.4c15.7,0,28.3,19.1,28.3,42.6c0,19-8.3,35.1-19.7,40.6"/>
		<g>
			<polygon class="st0" points="978.9,603.9 969.1,609.5 980.4,609.6 			"/>
		</g>
	</g>
	<g>
		<path class="st0" d="M156.1,692.6c-11.4-5.5-19.7-21.6-19.7-40.6c0-23.5,12.7-42.6,28.3-42.6"/>
		<g>
			<polygon class="st0" points="155,689.1 164.7,694.6 153.5,694.7 			"/>
		</g>
	</g>
	<g>
		<path class="st0" d="M969.1,354.1c15.7,0,28.3,19.1,28.3,42.6c0,19-8.3,35.1-19.7,40.6"/>
		<g>
			<polygon class="st0" points="978.9,433.7 969.1,439.2 980.4,439.3 			"/>
		</g>
	</g>
	<g>
		<path class="st0" d="M156.1,522.4c-11.4-5.5-19.7-21.6-19.7-40.6c0-23.5,12.7-42.6,28.3-42.6"/>
		<g>
			<polygon class="st0" points="155,518.8 164.7,524.4 153.5,524.4 			"/>
		</g>
	</g>
	<g>
		<path class="st0" d="M969.1,183.9c15.7,0,28.3,19.1,28.3,42.6c0,19-8.3,35.1-19.7,40.6"/>
		<g>
			<polygon class="st0" points="978.9,263.4 969.1,269 980.4,269.1 			"/>
		</g>
	</g>
	<g>
		<path class="st0" d="M156.1,352.1c-11.4-5.5-19.7-21.6-19.7-40.6c0-23.5,12.7-42.6,28.3-42.6"/>
		<g>
			<polygon class="st0" points="155,348.6 164.7,354.1 153.5,354.2 			"/>
		</g>
	</g>
</g>
<g>
	<line class="st0" x1="424" y1="1041.4" x2="164.7" y2="1041.4"/>
	<g>
		<polygon class="st0" points="422,1038.5 432.9,1041.4 422,1044.3 		"/>
	</g>
</g>
<g>
	<path class="st0" d="M85,263.5c0-41,31-74.8,70.8-79.2"/>
	<g>
		<polygon class="st0" points="154.1,187.4 164.7,183.9 153.7,181.6 		"/>
	</g>
</g>
<line class="st0" x1="85" y1="263.5" x2="85" y2="354.3"/>
<line class="st0" x1="85" y1="496.1" x2="85" y2="647"/>
<rect y="0" class="st0" width="1133.9" height="1133.9"/>
<g>
	<line class="st0" x1="681.8" y1="1024.4" x2="681.8" y2="1058.4"/>
	<line class="st0" x1="605.2" y1="1024.4" x2="605.2" y2="1058.4"/>
	<line class="st0" x1="528.6" y1="1024.4" x2="528.6" y2="1058.4"/>
	<line class="st0" x1="452" y1="1024.4" x2="452" y2="1058.4"/>
</g>
<g>
	<path class="st0" d="M65.5,424.4h-3.1v2.9h3.5v0.9h-4.5v-8.1h4.4v0.9h-3.3v2.6h3.1V424.4z"/>
	<path class="st0" d="M67,426.9c0.5,0.3,1.2,0.5,1.9,0.5c1.1,0,1.7-0.6,1.7-1.4c0-0.8-0.4-1.2-1.5-1.6c-1.3-0.5-2.1-1.2-2.1-2.3
		c0-1.3,1-2.2,2.6-2.2c0.8,0,1.4,0.2,1.8,0.4l-0.3,0.9c-0.3-0.1-0.8-0.4-1.5-0.4c-1.1,0-1.5,0.7-1.5,1.2c0,0.8,0.5,1.1,1.6,1.6
		c1.4,0.5,2.1,1.2,2.1,2.4c0,1.2-0.9,2.3-2.8,2.3c-0.8,0-1.6-0.2-2.1-0.5L67,426.9z"/>
	<path class="st0" d="M73.1,420.2c0.5-0.1,1.2-0.2,2-0.2c1,0,1.8,0.2,2.3,0.7c0.4,0.4,0.7,1,0.7,1.7c0,0.7-0.2,1.3-0.6,1.7
		c-0.6,0.6-1.5,0.9-2.5,0.9c-0.3,0-0.6,0-0.8-0.1v3.2h-1V420.2z M74.1,424.1c0.2,0.1,0.5,0.1,0.9,0.1c1.3,0,2-0.6,2-1.7
		c0-1.1-0.8-1.6-1.9-1.6c-0.5,0-0.8,0-1,0.1V424.1z"/>
	<path class="st0" d="M79,426.2c0-1,0.6-1.7,1.5-2.1l0,0c-0.9-0.4-1.2-1.1-1.2-1.8c0-1.2,1-2.1,2.4-2.1c1.5,0,2.3,0.9,2.3,1.9
		c0,0.7-0.3,1.4-1.3,1.8v0c1,0.4,1.6,1.1,1.6,2c0,1.4-1.2,2.3-2.7,2.3C80,428.3,79,427.4,79,426.2z M83.2,426.2
		c0-0.9-0.7-1.4-1.7-1.7c-0.9,0.3-1.4,0.9-1.4,1.6c0,0.8,0.6,1.5,1.6,1.5C82.6,427.6,83.2,427,83.2,426.2z M80.3,422.3
		c0,0.8,0.6,1.2,1.5,1.4c0.7-0.2,1.2-0.7,1.2-1.4c0-0.6-0.4-1.3-1.3-1.3C80.8,421,80.3,421.6,80.3,422.3z"/>
	<path class="st0" d="M85.3,428.2v-0.6l0.8-0.8c2-1.9,2.9-2.9,2.9-4.1c0-0.8-0.4-1.5-1.5-1.5c-0.7,0-1.3,0.4-1.7,0.7l-0.3-0.7
		c0.5-0.5,1.3-0.8,2.2-0.8c1.7,0,2.4,1.2,2.4,2.3c0,1.4-1,2.6-2.7,4.2l-0.6,0.6v0h3.5v0.9H85.3z"/>
	<path class="st0" d="M95.9,421.1c-0.2,0-0.5,0-0.8,0c-1.7,0.3-2.5,1.5-2.7,2.8h0c0.4-0.5,1-0.9,1.9-0.9c1.4,0,2.4,1,2.4,2.5
		c0,1.4-1,2.7-2.6,2.7c-1.7,0-2.8-1.3-2.8-3.3c0-1.5,0.6-2.7,1.3-3.5c0.6-0.6,1.5-1,2.5-1.2c0.3,0,0.6-0.1,0.8-0.1V421.1z
		 M95.6,425.6c0-1.1-0.6-1.8-1.6-1.8c-0.6,0-1.2,0.4-1.5,1c-0.1,0.1-0.1,0.3-0.1,0.5c0,1.3,0.6,2.2,1.7,2.2
		C95,427.5,95.6,426.8,95.6,425.6z"/>
	<path class="st0" d="M102,421.1c-0.2,0-0.5,0-0.8,0c-1.7,0.3-2.5,1.5-2.7,2.8h0c0.4-0.5,1-0.9,1.9-0.9c1.4,0,2.4,1,2.4,2.5
		c0,1.4-1,2.7-2.6,2.7c-1.7,0-2.8-1.3-2.8-3.3c0-1.5,0.6-2.7,1.3-3.5c0.6-0.6,1.5-1,2.5-1.2c0.3,0,0.6-0.1,0.8-0.1V421.1z
		 M101.7,425.6c0-1.1-0.6-1.8-1.6-1.8c-0.6,0-1.2,0.4-1.5,1c-0.1,0.1-0.1,0.3-0.1,0.5c0,1.3,0.6,2.2,1.7,2.2
		C101.1,427.5,101.7,426.8,101.7,425.6z"/>
</g>
<g>
	<path class="st0" d="M53.8,265.4c0.6-0.1,1.4-0.2,2.2-0.2c1.5,0,2.6,0.3,3.3,1c0.7,0.7,1.1,1.6,1.1,2.9c0,1.3-0.4,2.4-1.2,3.1
		c-0.8,0.8-2,1.2-3.6,1.2c-0.7,0-1.4,0-1.9-0.1V265.4z M54.8,272.6c0.3,0,0.6,0.1,1.1,0.1c2.2,0,3.4-1.2,3.4-3.4
		c0-1.9-1.1-3.1-3.3-3.1c-0.5,0-0.9,0-1.2,0.1V272.6z"/>
	<path class="st0" d="M64.9,273.4l-0.1-0.7h0c-0.3,0.5-0.9,0.9-1.8,0.9c-1.2,0-1.8-0.8-1.8-1.7c0-1.4,1.2-2.2,3.5-2.2v-0.1
		c0-0.5-0.1-1.3-1.3-1.3c-0.5,0-1.1,0.2-1.5,0.4l-0.2-0.7c0.5-0.3,1.2-0.5,1.9-0.5c1.8,0,2.2,1.2,2.2,2.4v2.2c0,0.5,0,1,0.1,1.4
		H64.9z M64.8,270.4c-1.2,0-2.5,0.2-2.5,1.3c0,0.7,0.5,1,1,1c0.8,0,1.2-0.5,1.4-1c0-0.1,0.1-0.2,0.1-0.3V270.4z"/>
	<path class="st0" d="M68.7,265.9v1.7h1.5v0.8h-1.5v3.1c0,0.7,0.2,1.1,0.8,1.1c0.3,0,0.5,0,0.6-0.1l0,0.8c-0.2,0.1-0.5,0.1-0.9,0.1
		c-0.5,0-0.9-0.2-1.1-0.4c-0.3-0.3-0.4-0.8-0.4-1.5v-3.2h-0.9v-0.8h0.9v-1.4L68.7,265.9z"/>
	<path class="st0" d="M74.6,273.4l-0.1-0.7h0c-0.3,0.5-0.9,0.9-1.8,0.9c-1.2,0-1.8-0.8-1.8-1.7c0-1.4,1.2-2.2,3.5-2.2v-0.1
		c0-0.5-0.1-1.3-1.3-1.3c-0.5,0-1.1,0.2-1.5,0.4l-0.2-0.7c0.5-0.3,1.2-0.5,1.9-0.5c1.8,0,2.2,1.2,2.2,2.4v2.2c0,0.5,0,1,0.1,1.4
		H74.6z M74.5,270.4c-1.2,0-2.5,0.2-2.5,1.3c0,0.7,0.5,1,1,1c0.8,0,1.2-0.5,1.4-1c0-0.1,0.1-0.2,0.1-0.3V270.4z"/>
</g>
<g>
	<path class="st0" d="M1004.6,222c0.6-0.1,1.4-0.2,2.2-0.2c1.5,0,2.6,0.3,3.3,1c0.7,0.7,1.1,1.6,1.1,2.9c0,1.3-0.4,2.4-1.2,3.1
		c-0.8,0.8-2,1.2-3.6,1.2c-0.7,0-1.4,0-1.9-0.1V222z M1005.6,229.2c0.3,0,0.6,0.1,1.1,0.1c2.2,0,3.4-1.2,3.4-3.4
		c0-1.9-1.1-3.1-3.3-3.1c-0.5,0-0.9,0-1.2,0.1V229.2z"/>
	<path class="st0" d="M1015.8,230l-0.1-0.7h0c-0.3,0.5-0.9,0.9-1.8,0.9c-1.2,0-1.8-0.8-1.8-1.7c0-1.4,1.2-2.2,3.5-2.2v-0.1
		c0-0.5-0.1-1.3-1.3-1.3c-0.5,0-1.1,0.2-1.5,0.4l-0.2-0.7c0.5-0.3,1.2-0.5,1.9-0.5c1.8,0,2.2,1.2,2.2,2.4v2.2c0,0.5,0,1,0.1,1.4
		H1015.8z M1015.6,227c-1.2,0-2.5,0.2-2.5,1.3c0,0.7,0.5,1,1,1c0.8,0,1.2-0.5,1.4-1c0-0.1,0.1-0.2,0.1-0.3V227z"/>
	<path class="st0" d="M1019.6,222.5v1.7h1.5v0.8h-1.5v3.1c0,0.7,0.2,1.1,0.8,1.1c0.3,0,0.5,0,0.6-0.1l0,0.8
		c-0.2,0.1-0.5,0.1-0.9,0.1c-0.5,0-0.9-0.2-1.1-0.4c-0.3-0.3-0.4-0.8-0.4-1.5V225h-0.9v-0.8h0.9v-1.4L1019.6,222.5z"/>
	<path class="st0" d="M1025.5,230l-0.1-0.7h0c-0.3,0.5-0.9,0.9-1.8,0.9c-1.2,0-1.8-0.8-1.8-1.7c0-1.4,1.2-2.2,3.5-2.2v-0.1
		c0-0.5-0.1-1.3-1.3-1.3c-0.5,0-1.1,0.2-1.5,0.4l-0.2-0.7c0.5-0.3,1.2-0.5,1.9-0.5c1.8,0,2.2,1.2,2.2,2.4v2.2c0,0.5,0,1,0.1,1.4
		H1025.5z M1025.3,227c-1.2,0-2.5,0.2-2.5,1.3c0,0.7,0.5,1,1,1c0.8,0,1.2-0.5,1.4-1c0-0.1,0.1-0.2,0.1-0.3V227z"/>
</g>
<g>
	<path class="st0" d="M1004.6,392.1c0.6-0.1,1.4-0.2,2.2-0.2c1.5,0,2.6,0.3,3.3,1c0.7,0.7,1.1,1.6,1.1,2.9c0,1.3-0.4,2.4-1.2,3.1
		c-0.8,0.8-2,1.2-3.6,1.2c-0.7,0-1.4,0-1.9-0.1V392.1z M1005.6,399.3c0.3,0,0.6,0.1,1.1,0.1c2.2,0,3.4-1.2,3.4-3.4
		c0-1.9-1.1-3.1-3.3-3.1c-0.5,0-0.9,0-1.2,0.1V399.3z"/>
	<path class="st0" d="M1015.8,400.1l-0.1-0.7h0c-0.3,0.5-0.9,0.9-1.8,0.9c-1.2,0-1.8-0.8-1.8-1.7c0-1.4,1.2-2.2,3.5-2.2v-0.1
		c0-0.5-0.1-1.3-1.3-1.3c-0.5,0-1.1,0.2-1.5,0.4l-0.2-0.7c0.5-0.3,1.2-0.5,1.9-0.5c1.8,0,2.2,1.2,2.2,2.4v2.2c0,0.5,0,1,0.1,1.4
		H1015.8z M1015.6,397.1c-1.2,0-2.5,0.2-2.5,1.3c0,0.7,0.5,1,1,1c0.8,0,1.2-0.5,1.4-1c0-0.1,0.1-0.2,0.1-0.3V397.1z"/>
	<path class="st0" d="M1019.6,392.6v1.7h1.5v0.8h-1.5v3.1c0,0.7,0.2,1.1,0.8,1.1c0.3,0,0.5,0,0.6-0.1l0,0.8
		c-0.2,0.1-0.5,0.1-0.9,0.1c-0.5,0-0.9-0.2-1.1-0.4c-0.3-0.3-0.4-0.8-0.4-1.5v-3.2h-0.9v-0.8h0.9v-1.4L1019.6,392.6z"/>
	<path class="st0" d="M1025.5,400.1l-0.1-0.7h0c-0.3,0.5-0.9,0.9-1.8,0.9c-1.2,0-1.8-0.8-1.8-1.7c0-1.4,1.2-2.2,3.5-2.2v-0.1
		c0-0.5-0.1-1.3-1.3-1.3c-0.5,0-1.1,0.2-1.5,0.4l-0.2-0.7c0.5-0.3,1.2-0.5,1.9-0.5c1.8,0,2.2,1.2,2.2,2.4v2.2c0,0.5,0,1,0.1,1.4
		H1025.5z M1025.3,397.1c-1.2,0-2.5,0.2-2.5,1.3c0,0.7,0.5,1,1,1c0.8,0,1.2-0.5,1.4-1c0-0.1,0.1-0.2,0.1-0.3V397.1z"/>
</g>
<g>
	<path class="st0" d="M1004.6,562.2c0.6-0.1,1.4-0.2,2.2-0.2c1.5,0,2.6,0.3,3.3,1c0.7,0.7,1.1,1.6,1.1,2.9c0,1.3-0.4,2.4-1.2,3.1
		c-0.8,0.8-2,1.2-3.6,1.2c-0.7,0-1.4,0-1.9-0.1V562.2z M1005.6,569.3c0.3,0,0.6,0.1,1.1,0.1c2.2,0,3.4-1.2,3.4-3.4
		c0-1.9-1.1-3.1-3.3-3.1c-0.5,0-0.9,0-1.2,0.1V569.3z"/>
	<path class="st0" d="M1015.8,570.2l-0.1-0.7h0c-0.3,0.5-0.9,0.9-1.8,0.9c-1.2,0-1.8-0.8-1.8-1.7c0-1.4,1.2-2.2,3.5-2.2v-0.1
		c0-0.5-0.1-1.3-1.3-1.3c-0.5,0-1.1,0.2-1.5,0.4l-0.2-0.7c0.5-0.3,1.2-0.5,1.9-0.5c1.8,0,2.2,1.2,2.2,2.4v2.2c0,0.5,0,1,0.1,1.4
		H1015.8z M1015.6,567.2c-1.2,0-2.5,0.2-2.5,1.3c0,0.7,0.5,1,1,1c0.8,0,1.2-0.5,1.4-1c0-0.1,0.1-0.2,0.1-0.3V567.2z"/>
	<path class="st0" d="M1019.6,562.7v1.7h1.5v0.8h-1.5v3.1c0,0.7,0.2,1.1,0.8,1.1c0.3,0,0.5,0,0.6-0.1l0,0.8
		c-0.2,0.1-0.5,0.1-0.9,0.1c-0.5,0-0.9-0.2-1.1-0.4c-0.3-0.3-0.4-0.8-0.4-1.5v-3.2h-0.9v-0.8h0.9V563L1019.6,562.7z"/>
	<path class="st0" d="M1025.5,570.2l-0.1-0.7h0c-0.3,0.5-0.9,0.9-1.8,0.9c-1.2,0-1.8-0.8-1.8-1.7c0-1.4,1.2-2.2,3.5-2.2v-0.1
		c0-0.5-0.1-1.3-1.3-1.3c-0.5,0-1.1,0.2-1.5,0.4l-0.2-0.7c0.5-0.3,1.2-0.5,1.9-0.5c1.8,0,2.2,1.2,2.2,2.4v2.2c0,0.5,0,1,0.1,1.4
		H1025.5z M1025.3,567.2c-1.2,0-2.5,0.2-2.5,1.3c0,0.7,0.5,1,1,1c0.8,0,1.2-0.5,1.4-1c0-0.1,0.1-0.2,0.1-0.3V567.2z"/>
</g>
<g>
	<path class="st0" d="M1004.6,732.3c0.6-0.1,1.4-0.2,2.2-0.2c1.5,0,2.6,0.3,3.3,1c0.7,0.7,1.1,1.6,1.1,2.9c0,1.3-0.4,2.4-1.2,3.1
		c-0.8,0.8-2,1.2-3.6,1.2c-0.7,0-1.4,0-1.9-0.1V732.3z M1005.6,739.4c0.3,0,0.6,0.1,1.1,0.1c2.2,0,3.4-1.2,3.4-3.4
		c0-1.9-1.1-3.1-3.3-3.1c-0.5,0-0.9,0-1.2,0.1V739.4z"/>
	<path class="st0" d="M1015.8,740.2l-0.1-0.7h0c-0.3,0.5-0.9,0.9-1.8,0.9c-1.2,0-1.8-0.8-1.8-1.7c0-1.4,1.2-2.2,3.5-2.2v-0.1
		c0-0.5-0.1-1.3-1.3-1.3c-0.5,0-1.1,0.2-1.5,0.4l-0.2-0.7c0.5-0.3,1.2-0.5,1.9-0.5c1.8,0,2.2,1.2,2.2,2.4v2.2c0,0.5,0,1,0.1,1.4
		H1015.8z M1015.6,737.3c-1.2,0-2.5,0.2-2.5,1.3c0,0.7,0.5,1,1,1c0.8,0,1.2-0.5,1.4-1c0-0.1,0.1-0.2,0.1-0.3V737.3z"/>
	<path class="st0" d="M1019.6,732.8v1.7h1.5v0.8h-1.5v3.1c0,0.7,0.2,1.1,0.8,1.1c0.3,0,0.5,0,0.6-0.1l0,0.8
		c-0.2,0.1-0.5,0.1-0.9,0.1c-0.5,0-0.9-0.2-1.1-0.4c-0.3-0.3-0.4-0.8-0.4-1.5v-3.2h-0.9v-0.8h0.9v-1.4L1019.6,732.8z"/>
	<path class="st0" d="M1025.5,740.2l-0.1-0.7h0c-0.3,0.5-0.9,0.9-1.8,0.9c-1.2,0-1.8-0.8-1.8-1.7c0-1.4,1.2-2.2,3.5-2.2v-0.1
		c0-0.5-0.1-1.3-1.3-1.3c-0.5,0-1.1,0.2-1.5,0.4l-0.2-0.7c0.5-0.3,1.2-0.5,1.9-0.5c1.8,0,2.2,1.2,2.2,2.4v2.2c0,0.5,0,1,0.1,1.4
		H1025.5z M1025.3,737.3c-1.2,0-2.5,0.2-2.5,1.3c0,0.7,0.5,1,1,1c0.8,0,1.2-0.5,1.4-1c0-0.1,0.1-0.2,0.1-0.3V737.3z"/>
</g>
<g>
	<path class="st0" d="M1004.6,902.3c0.6-0.1,1.4-0.2,2.2-0.2c1.5,0,2.6,0.3,3.3,1c0.7,0.7,1.1,1.6,1.1,2.9c0,1.3-0.4,2.4-1.2,3.1
		c-0.8,0.8-2,1.2-3.6,1.2c-0.7,0-1.4,0-1.9-0.1V902.3z M1005.6,909.5c0.3,0,0.6,0.1,1.1,0.1c2.2,0,3.4-1.2,3.4-3.4
		c0-1.9-1.1-3.1-3.3-3.1c-0.5,0-0.9,0-1.2,0.1V909.5z"/>
	<path class="st0" d="M1015.8,910.3l-0.1-0.7h0c-0.3,0.5-0.9,0.9-1.8,0.9c-1.2,0-1.8-0.8-1.8-1.7c0-1.4,1.2-2.2,3.5-2.2v-0.1
		c0-0.5-0.1-1.3-1.3-1.3c-0.5,0-1.1,0.2-1.5,0.4l-0.2-0.7c0.5-0.3,1.2-0.5,1.9-0.5c1.8,0,2.2,1.2,2.2,2.4v2.2c0,0.5,0,1,0.1,1.4
		H1015.8z M1015.6,907.4c-1.2,0-2.5,0.2-2.5,1.3c0,0.7,0.5,1,1,1c0.8,0,1.2-0.5,1.4-1c0-0.1,0.1-0.2,0.1-0.3V907.4z"/>
	<path class="st0" d="M1019.6,902.9v1.7h1.5v0.8h-1.5v3.1c0,0.7,0.2,1.1,0.8,1.1c0.3,0,0.5,0,0.6-0.1l0,0.8
		c-0.2,0.1-0.5,0.1-0.9,0.1c-0.5,0-0.9-0.2-1.1-0.4c-0.3-0.3-0.4-0.8-0.4-1.5v-3.2h-0.9v-0.8h0.9v-1.4L1019.6,902.9z"/>
	<path class="st0" d="M1025.5,910.3l-0.1-0.7h0c-0.3,0.5-0.9,0.9-1.8,0.9c-1.2,0-1.8-0.8-1.8-1.7c0-1.4,1.2-2.2,3.5-2.2v-0.1
		c0-0.5-0.1-1.3-1.3-1.3c-0.5,0-1.1,0.2-1.5,0.4l-0.2-0.7c0.5-0.3,1.2-0.5,1.9-0.5c1.8,0,2.2,1.2,2.2,2.4v2.2c0,0.5,0,1,0.1,1.4
		H1025.5z M1025.3,907.4c-1.2,0-2.5,0.2-2.5,1.3c0,0.7,0.5,1,1,1c0.8,0,1.2-0.5,1.4-1c0-0.1,0.1-0.2,0.1-0.3V907.4z"/>
</g>
<g>
	
		<rect x="457.6" y="225.1" transform="matrix(9.032834e-03 -1 1 9.032834e-03 271.6045 726.1855)" class="st0" width="89.2" height="2"/>
	<g>
		<path class="st0" d="M502.6,175.4c-1.1,2.8-2.9,6.3-4.8,8.5l4.8-1.7l4.7,1.8C505.4,181.8,503.7,178.3,502.6,175.4z"/>
	</g>
	<g>
		<path class="st0" d="M501.7,276.7c-1-2.8-2.8-6.4-4.7-8.6l4.7,1.8l4.8-1.7C504.6,270.4,502.8,273.9,501.7,276.7z"/>
	</g>
</g>
<g>
	<rect x="551.8" y="282.9" class="st0" width="2" height="56.9"/>
	<g>
		<path class="st0" d="M552.8,276.9c-1.1,2.8-2.9,6.4-4.8,8.5l4.8-1.7l4.8,1.7C555.6,283.3,553.8,279.7,552.8,276.9z"/>
	</g>
	<g>
		<path class="st0" d="M552.8,345.8c-1.1-2.8-2.9-6.4-4.8-8.5l4.8,1.7l4.8-1.7C555.6,339.5,553.8,343,552.8,345.8z"/>
	</g>
</g>
<g>
	<rect x="551.8" y="453" class="st0" width="2" height="56.9"/>
	<g>
		<path class="st0" d="M552.8,447c-1.1,2.8-2.9,6.4-4.8,8.5l4.8-1.7l4.8,1.7C555.6,453.3,553.8,449.8,552.8,447z"/>
	</g>
	<g>
		<path class="st0" d="M552.8,515.9c-1.1-2.8-2.9-6.4-4.8-8.5l4.8,1.7l4.8-1.7C555.6,509.5,553.8,513.1,552.8,515.9z"/>
	</g>
</g>
<g>
	
		<rect x="457.2" y="395.9" transform="matrix(8.788723e-03 -1 1 8.788723e-03 100.9412 895.5332)" class="st0" width="90" height="2"/>
	<g>
		<path class="st0" d="M502.6,345.8c-1.1,2.8-2.9,6.3-4.8,8.5l4.8-1.7l4.7,1.8C505.4,352.2,503.7,348.7,502.6,345.8z"/>
	</g>
	<g>
		<path class="st0" d="M501.7,447.9c-1-2.8-2.8-6.4-4.7-8.6l4.7,1.8l4.8-1.7C504.6,441.5,502.8,445,501.7,447.9z"/>
	</g>
</g>
<g>
	
		<rect x="457.2" y="565.9" transform="matrix(8.788723e-03 -1 1 8.788723e-03 -69.1311 1064.1173)" class="st0" width="90" height="2"/>
	<g>
		<path class="st0" d="M502.6,515.9c-1.1,2.8-2.9,6.3-4.8,8.5l4.8-1.7l4.7,1.8C505.4,522.3,503.7,518.8,502.6,515.9z"/>
	</g>
	<g>
		<path class="st0" d="M501.7,618c-1-2.8-2.8-6.4-4.7-8.6l4.7,1.8l4.8-1.7C504.6,611.6,502.8,615.1,501.7,618z"/>
	</g>
</g>
<g>
	<rect x="551.8" y="623.1" class="st0" width="2" height="56.9"/>
	<g>
		<path class="st0" d="M552.8,617.1c-1.1,2.8-2.9,6.4-4.8,8.5l4.8-1.7l4.8,1.7C555.6,623.4,553.8,619.9,552.8,617.1z"/>
	</g>
	<g>
		<path class="st0" d="M552.8,686c-1.1-2.8-2.9-6.4-4.8-8.5l4.8,1.7l4.8-1.7C555.6,679.6,553.8,683.1,552.8,686z"/>
	</g>
</g>
<g>
	<rect x="551.8" y="793.2" class="st0" width="2" height="56.9"/>
	<g>
		<path class="st0" d="M552.8,787.1c-1.1,2.8-2.9,6.4-4.8,8.5l4.8-1.7l4.8,1.7C555.6,793.5,553.8,790,552.8,787.1z"/>
	</g>
	<g>
		<path class="st0" d="M552.8,856.1c-1.1-2.8-2.9-6.4-4.8-8.5l4.8,1.7l4.8-1.7C555.6,849.7,553.8,853.2,552.8,856.1z"/>
	</g>
</g>
<g>
	
		<rect x="457.2" y="736" transform="matrix(8.788723e-03 -1 1 8.788723e-03 -239.2031 1232.7012)" class="st0" width="90" height="2"/>
	<g>
		<path class="st0" d="M502.6,686c-1.1,2.8-2.9,6.3-4.8,8.5l4.8-1.7l4.7,1.8C505.4,692.4,503.7,688.8,502.6,686z"/>
	</g>
	<g>
		<path class="st0" d="M501.7,788c-1-2.8-2.8-6.4-4.7-8.6l4.7,1.8l4.8-1.7C504.6,781.7,502.8,785.2,501.7,788z"/>
	</g>
</g>
<g>
	
		<rect x="457.2" y="906.1" transform="matrix(8.788723e-03 -1 1 8.788723e-03 -409.2752 1401.2849)" class="st0" width="90" height="2"/>
	<g>
		<path class="st0" d="M502.6,856.1c-1.1,2.8-2.9,6.3-4.8,8.5l4.8-1.7l4.7,1.8C505.4,862.5,503.7,858.9,502.6,856.1z"/>
	</g>
	<g>
		<path class="st0" d="M501.7,958.1c-1-2.8-2.8-6.4-4.7-8.6l4.7,1.8l4.8-1.7C504.6,951.8,502.8,955.3,501.7,958.1z"/>
	</g>
</g>
<g>
	
		<rect x="545.4" y="216.6" transform="matrix(1.074157e-02 -0.9999 0.9999 1.074157e-02 357.7714 796.744)" class="st0" width="72.2" height="2"/>
	<g>
		<path class="st0" d="M582,175.4c-1.1,2.8-2.9,6.3-4.8,8.5l4.8-1.7l4.7,1.8C584.8,181.8,583,178.3,582,175.4z"/>
	</g>
	<g>
		<path class="st0" d="M581.1,259.7c-1-2.9-2.8-6.4-4.7-8.6l4.7,1.8l4.8-1.7C584,253.4,582.2,256.9,581.1,259.7z"/>
	</g>
</g>
<g>
	<rect x="631.1" y="265.9" class="st0" width="2" height="90.9"/>
	<g>
		<path class="st0" d="M632.1,259.9c-1.1,2.8-2.9,6.4-4.8,8.5l4.8-1.7l4.8,1.7C635,266.3,633.2,262.7,632.1,259.9z"/>
	</g>
	<g>
		<path class="st0" d="M632.1,362.8c-1.1-2.8-2.9-6.4-4.8-8.5l4.8,1.7l4.8-1.7C635,356.5,633.2,360,632.1,362.8z"/>
	</g>
</g>
<g>
	<rect x="631.1" y="436" class="st0" width="2" height="90.9"/>
	<g>
		<path class="st0" d="M632.1,430c-1.1,2.8-2.9,6.4-4.8,8.5l4.8-1.7l4.8,1.7C635,436.3,633.2,432.8,632.1,430z"/>
	</g>
	<g>
		<path class="st0" d="M632.1,532.9c-1.1-2.8-2.9-6.4-4.8-8.5l4.8,1.7l4.8-1.7C635,526.6,633.2,530.1,632.1,532.9z"/>
	</g>
</g>
<g>
	
		<rect x="553.6" y="395.9" transform="matrix(1.367060e-02 -0.9999 0.9999 1.367060e-02 176.7964 972.931)" class="st0" width="56" height="2"/>
	<g>
		<path class="st0" d="M582,362.8c-1.1,2.8-2.9,6.3-4.9,8.5l4.8-1.7l4.7,1.8C584.8,369.2,583,365.7,582,362.8z"/>
	</g>
	<g>
		<path class="st0" d="M581.1,430.9c-1-2.9-2.8-6.4-4.6-8.6l4.7,1.8l4.8-1.7C584,424.5,582.2,428,581.1,430.9z"/>
	</g>
</g>
<g>
	
		<rect x="553.6" y="565.9" transform="matrix(1.367060e-02 -0.9999 0.9999 1.367060e-02 6.7337 1140.6846)" class="st0" width="56" height="2"/>
	<g>
		<path class="st0" d="M582,532.9c-1.1,2.8-2.9,6.3-4.9,8.5l4.8-1.7l4.7,1.8C584.8,539.3,583,535.8,582,532.9z"/>
	</g>
	<g>
		<path class="st0" d="M581.1,600.9c-1-2.9-2.8-6.4-4.6-8.6l4.7,1.8l4.8-1.7C584,594.6,582.2,598.1,581.1,600.9z"/>
	</g>
</g>
<g>
	<rect x="631.1" y="606.1" class="st0" width="2" height="90.9"/>
	<g>
		<path class="st0" d="M632.1,600c-1.1,2.8-2.9,6.4-4.8,8.5l4.8-1.7l4.8,1.7C635,606.4,633.2,602.9,632.1,600z"/>
	</g>
	<g>
		<path class="st0" d="M632.1,703c-1.1-2.8-2.9-6.4-4.8-8.5l4.8,1.7l4.8-1.7C635,696.6,633.2,700.2,632.1,703z"/>
	</g>
</g>
<g>
	<rect x="631.1" y="776.2" class="st0" width="2" height="90.9"/>
	<g>
		<path class="st0" d="M632.1,770.1c-1.1,2.8-2.9,6.4-4.8,8.5l4.8-1.7l4.8,1.7C635,776.5,633.2,773,632.1,770.1z"/>
	</g>
	<g>
		<path class="st0" d="M632.1,873.1c-1.1-2.8-2.9-6.4-4.8-8.5l4.8,1.7l4.8-1.7C635,866.7,633.2,870.2,632.1,873.1z"/>
	</g>
</g>
<g>
	
		<rect x="553.6" y="736" transform="matrix(1.367060e-02 -0.9999 0.9999 1.367060e-02 -163.3293 1308.4384)" class="st0" width="56" height="2"/>
	<g>
		<path class="st0" d="M582,703c-1.1,2.8-2.9,6.3-4.9,8.5l4.8-1.7l4.7,1.8C584.8,709.4,583,705.8,582,703z"/>
	</g>
	<g>
		<path class="st0" d="M581.1,771c-1-2.9-2.8-6.4-4.6-8.6l4.7,1.8l4.8-1.7C584,764.7,582.2,768.2,581.1,771z"/>
	</g>
</g>
<g>
	
		<rect x="553.6" y="906.1" transform="matrix(1.367060e-02 -0.9999 0.9999 1.367060e-02 -333.392 1476.1919)" class="st0" width="56" height="2"/>
	<g>
		<path class="st0" d="M582,873.1c-1.1,2.8-2.9,6.3-4.9,8.5l4.8-1.7l4.7,1.8C584.8,879.5,583,875.9,582,873.1z"/>
	</g>
	<g>
		<path class="st0" d="M581.1,941.1c-1-2.9-2.8-6.4-4.6-8.6l4.7,1.8l4.8-1.7C584,934.8,582.2,938.3,581.1,941.1z"/>
	</g>
</g>
<g>
	<path class="st0" d="M516.5,231.6c-0.5,0.2-1.4,0.4-2.5,0.4c-1.2,0-2.2-0.3-3-1.1c-0.7-0.7-1.1-1.8-1.1-3c0-2.4,1.7-4.2,4.4-4.2
		c0.9,0,1.7,0.2,2,0.4l-0.3,0.9c-0.4-0.2-1-0.3-1.8-0.3c-2,0-3.2,1.2-3.2,3.2c0,2.1,1.2,3.3,3.1,3.3c0.7,0,1.2-0.1,1.4-0.2v-2.4
		h-1.6v-0.8h2.7V231.6z"/>
	<path class="st0" d="M518.1,232v-8.1h1.1l2.6,4.1c0.6,0.9,1.1,1.8,1.5,2.6l0,0c-0.1-1.1-0.1-2.1-0.1-3.3v-3.4h1v8.1h-1.1l-2.6-4.1
		c-0.6-0.9-1.1-1.8-1.5-2.7l0,0c0.1,1,0.1,2,0.1,3.3v3.5H518.1z"/>
	<path class="st0" d="M526,224c0.6-0.1,1.4-0.2,2.2-0.2c1.5,0,2.6,0.3,3.3,1c0.7,0.7,1.1,1.6,1.1,2.9c0,1.3-0.4,2.4-1.2,3.1
		c-0.8,0.8-2,1.2-3.6,1.2c-0.7,0-1.4,0-1.9-0.1V224z M527,231.2c0.3,0,0.6,0.1,1.1,0.1c2.2,0,3.4-1.2,3.4-3.4c0-1.9-1.1-3.1-3.3-3.1
		c-0.5,0-0.9,0-1.2,0.1V231.2z"/>
</g>
<g>
	<path class="st0" d="M595.6,225.6v2.8h2.7v0.7h-2.7v2.8h-0.8v-2.8h-2.7v-0.7h2.7v-2.8H595.6z"/>
	<path class="st0" d="M604,225.1h-3l-0.3,2c0.2,0,0.3,0,0.6,0c0.6,0,1.2,0.1,1.7,0.4c0.6,0.3,1.1,1,1.1,2c0,1.5-1.2,2.7-2.9,2.7
		c-0.9,0-1.6-0.2-1.9-0.5l0.3-0.8c0.3,0.2,1,0.4,1.7,0.4c1,0,1.8-0.6,1.8-1.7c0-1-0.7-1.7-2.2-1.7c-0.4,0-0.8,0-1.1,0.1l0.5-3.7h3.7
		V225.1z"/>
	<path class="st0" d="M607.6,232l-2.6-8.1h1.1l1.3,4c0.3,1.1,0.6,2.1,0.9,3h0c0.2-0.9,0.6-2,0.9-3l1.4-4h1.1l-2.9,8.1H607.6z"/>
</g>
<g>
	<path class="st0" d="M567.5,316.7c-0.5,0.2-1.4,0.4-2.5,0.4c-1.2,0-2.2-0.3-3-1.1c-0.7-0.7-1.1-1.8-1.1-3c0-2.4,1.7-4.2,4.4-4.2
		c0.9,0,1.7,0.2,2,0.4l-0.3,0.9c-0.4-0.2-1-0.3-1.8-0.3c-2,0-3.2,1.2-3.2,3.2c0,2.1,1.2,3.3,3.1,3.3c0.7,0,1.2-0.1,1.4-0.2v-2.4
		h-1.6v-0.8h2.7V316.7z"/>
	<path class="st0" d="M569.1,317V309h1.1l2.6,4.1c0.6,0.9,1.1,1.8,1.5,2.6l0,0c-0.1-1.1-0.1-2.1-0.1-3.3V309h1v8.1h-1.1l-2.6-4.1
		c-0.6-0.9-1.1-1.8-1.5-2.7l0,0c0.1,1,0.1,2,0.1,3.3v3.5H569.1z"/>
	<path class="st0" d="M577,309.1c0.6-0.1,1.4-0.2,2.2-0.2c1.5,0,2.6,0.3,3.3,1c0.7,0.7,1.1,1.6,1.1,2.9c0,1.3-0.4,2.4-1.2,3.1
		c-0.8,0.8-2,1.2-3.6,1.2c-0.7,0-1.4,0-1.9-0.1V309.1z M578,316.2c0.3,0,0.6,0.1,1.1,0.1c2.2,0,3.4-1.2,3.4-3.4
		c0-1.9-1.1-3.1-3.3-3.1c-0.5,0-0.9,0-1.2,0.1V316.2z"/>
</g>
<g>
	<path class="st0" d="M646.6,310.7v2.8h2.7v0.7h-2.7v2.8h-0.8v-2.8h-2.7v-0.7h2.7v-2.8H646.6z"/>
	<path class="st0" d="M655,310.1h-3l-0.3,2c0.2,0,0.3,0,0.6,0c0.6,0,1.2,0.1,1.7,0.4c0.6,0.3,1.1,1,1.1,2c0,1.5-1.2,2.7-2.9,2.7
		c-0.9,0-1.6-0.2-1.9-0.5l0.3-0.8c0.3,0.2,1,0.4,1.7,0.4c1,0,1.8-0.6,1.8-1.7c0-1-0.7-1.7-2.2-1.7c-0.4,0-0.8,0-1.1,0.1l0.5-3.7h3.7
		V310.1z"/>
	<path class="st0" d="M658.6,317L656,309h1.1l1.3,4c0.3,1.1,0.6,2.1,0.9,3h0c0.2-0.9,0.6-2,0.9-3l1.4-4h1.1l-2.9,8.1H658.6z"/>
</g>
<g>
	<path class="st0" d="M516.5,401.7c-0.5,0.2-1.4,0.4-2.5,0.4c-1.2,0-2.2-0.3-3-1.1c-0.7-0.7-1.1-1.8-1.1-3c0-2.4,1.7-4.2,4.4-4.2
		c0.9,0,1.7,0.2,2,0.4l-0.3,0.9c-0.4-0.2-1-0.3-1.8-0.3c-2,0-3.2,1.2-3.2,3.2c0,2.1,1.2,3.3,3.1,3.3c0.7,0,1.2-0.1,1.4-0.2v-2.4
		h-1.6v-0.8h2.7V401.7z"/>
	<path class="st0" d="M518.1,402.1V394h1.1l2.6,4.1c0.6,0.9,1.1,1.8,1.5,2.6l0,0c-0.1-1.1-0.1-2.1-0.1-3.3V394h1v8.1h-1.1l-2.6-4.1
		c-0.6-0.9-1.1-1.8-1.5-2.7l0,0c0.1,1,0.1,2,0.1,3.3v3.5H518.1z"/>
	<path class="st0" d="M526,394.1c0.6-0.1,1.4-0.2,2.2-0.2c1.5,0,2.6,0.3,3.3,1c0.7,0.7,1.1,1.6,1.1,2.9c0,1.3-0.4,2.4-1.2,3.1
		c-0.8,0.8-2,1.2-3.6,1.2c-0.7,0-1.4,0-1.9-0.1V394.1z M527,401.3c0.3,0,0.6,0.1,1.1,0.1c2.2,0,3.4-1.2,3.4-3.4
		c0-1.9-1.1-3.1-3.3-3.1c-0.5,0-0.9,0-1.2,0.1V401.3z"/>
</g>
<g>
	<path class="st0" d="M595.6,395.7v2.8h2.7v0.7h-2.7v2.8h-0.8v-2.8h-2.7v-0.7h2.7v-2.8H595.6z"/>
	<path class="st0" d="M604,395.2h-3l-0.3,2c0.2,0,0.3,0,0.6,0c0.6,0,1.2,0.1,1.7,0.4c0.6,0.3,1.1,1,1.1,2c0,1.5-1.2,2.7-2.9,2.7
		c-0.9,0-1.6-0.2-1.9-0.5l0.3-0.8c0.3,0.2,1,0.4,1.7,0.4c1,0,1.8-0.6,1.8-1.7c0-1-0.7-1.7-2.2-1.7c-0.4,0-0.8,0-1.1,0.1l0.5-3.7h3.7
		V395.2z"/>
	<path class="st0" d="M607.6,402.1L605,394h1.1l1.3,4c0.3,1.1,0.6,2.1,0.9,3h0c0.2-0.9,0.6-2,0.9-3l1.4-4h1.1l-2.9,8.1H607.6z"/>
</g>
<g>
	<path class="st0" d="M567.5,486.8c-0.5,0.2-1.4,0.4-2.5,0.4c-1.2,0-2.2-0.3-3-1.1c-0.7-0.7-1.1-1.8-1.1-3c0-2.4,1.7-4.2,4.4-4.2
		c0.9,0,1.7,0.2,2,0.4l-0.3,0.9c-0.4-0.2-1-0.3-1.8-0.3c-2,0-3.2,1.2-3.2,3.2c0,2.1,1.2,3.3,3.1,3.3c0.7,0,1.2-0.1,1.4-0.2v-2.4
		h-1.6v-0.8h2.7V486.8z"/>
	<path class="st0" d="M569.1,487.1V479h1.1l2.6,4.1c0.6,0.9,1.1,1.8,1.5,2.6l0,0c-0.1-1.1-0.1-2.1-0.1-3.3V479h1v8.1h-1.1l-2.6-4.1
		c-0.6-0.9-1.1-1.8-1.5-2.7l0,0c0.1,1,0.1,2,0.1,3.3v3.5H569.1z"/>
	<path class="st0" d="M577,479.1c0.6-0.1,1.4-0.2,2.2-0.2c1.5,0,2.6,0.3,3.3,1c0.7,0.7,1.1,1.6,1.1,2.9c0,1.3-0.4,2.4-1.2,3.1
		c-0.8,0.8-2,1.2-3.6,1.2c-0.7,0-1.4,0-1.9-0.1V479.1z M578,486.3c0.3,0,0.6,0.1,1.1,0.1c2.2,0,3.4-1.2,3.4-3.4
		c0-1.9-1.1-3.1-3.3-3.1c-0.5,0-0.9,0-1.2,0.1V486.3z"/>
</g>
<g>
	<path class="st0" d="M646.6,480.7v2.8h2.7v0.7h-2.7v2.8h-0.8v-2.8h-2.7v-0.7h2.7v-2.8H646.6z"/>
	<path class="st0" d="M655,480.2h-3l-0.3,2c0.2,0,0.3,0,0.6,0c0.6,0,1.2,0.1,1.7,0.4c0.6,0.3,1.1,1,1.1,2c0,1.5-1.2,2.7-2.9,2.7
		c-0.9,0-1.6-0.2-1.9-0.5l0.3-0.8c0.3,0.2,1,0.4,1.7,0.4c1,0,1.8-0.6,1.8-1.7c0-1-0.7-1.7-2.2-1.7c-0.4,0-0.8,0-1.1,0.1l0.5-3.7h3.7
		V480.2z"/>
	<path class="st0" d="M658.6,487.1L656,479h1.1l1.3,4c0.3,1.1,0.6,2.1,0.9,3h0c0.2-0.9,0.6-2,0.9-3l1.4-4h1.1l-2.9,8.1H658.6z"/>
</g>
<g>
	<path class="st0" d="M516.5,571.8c-0.5,0.2-1.4,0.4-2.5,0.4c-1.2,0-2.2-0.3-3-1.1c-0.7-0.7-1.1-1.8-1.1-3c0-2.4,1.7-4.2,4.4-4.2
		c0.9,0,1.7,0.2,2,0.4l-0.3,0.9c-0.4-0.2-1-0.3-1.8-0.3c-2,0-3.2,1.2-3.2,3.2c0,2.1,1.2,3.3,3.1,3.3c0.7,0,1.2-0.1,1.4-0.2v-2.4
		h-1.6v-0.8h2.7V571.8z"/>
	<path class="st0" d="M518.1,572.2v-8.1h1.1l2.6,4.1c0.6,0.9,1.1,1.8,1.5,2.6l0,0c-0.1-1.1-0.1-2.1-0.1-3.3v-3.4h1v8.1h-1.1
		l-2.6-4.1c-0.6-0.9-1.1-1.8-1.5-2.7l0,0c0.1,1,0.1,2,0.1,3.3v3.5H518.1z"/>
	<path class="st0" d="M526,564.2c0.6-0.1,1.4-0.2,2.2-0.2c1.5,0,2.6,0.3,3.3,1c0.7,0.7,1.1,1.6,1.1,2.9c0,1.3-0.4,2.4-1.2,3.1
		c-0.8,0.8-2,1.2-3.6,1.2c-0.7,0-1.4,0-1.9-0.1V564.2z M527,571.3c0.3,0,0.6,0.1,1.1,0.1c2.2,0,3.4-1.2,3.4-3.4
		c0-1.9-1.1-3.1-3.3-3.1c-0.5,0-0.9,0-1.2,0.1V571.3z"/>
</g>
<g>
	<path class="st0" d="M595.6,565.8v2.8h2.7v0.7h-2.7v2.8h-0.8v-2.8h-2.7v-0.7h2.7v-2.8H595.6z"/>
	<path class="st0" d="M604,565.3h-3l-0.3,2c0.2,0,0.3,0,0.6,0c0.6,0,1.2,0.1,1.7,0.4c0.6,0.3,1.1,1,1.1,2c0,1.5-1.2,2.7-2.9,2.7
		c-0.9,0-1.6-0.2-1.9-0.5l0.3-0.8c0.3,0.2,1,0.4,1.7,0.4c1,0,1.8-0.6,1.8-1.7c0-1-0.7-1.7-2.2-1.7c-0.4,0-0.8,0-1.1,0.1l0.5-3.7h3.7
		V565.3z"/>
	<path class="st0" d="M607.6,572.2l-2.6-8.1h1.1l1.3,4c0.3,1.1,0.6,2.1,0.9,3h0c0.2-0.9,0.6-2,0.9-3l1.4-4h1.1l-2.9,8.1H607.6z"/>
</g>
<g>
	<path class="st0" d="M567.5,656.8c-0.5,0.2-1.4,0.4-2.5,0.4c-1.2,0-2.2-0.3-3-1.1c-0.7-0.7-1.1-1.8-1.1-3c0-2.4,1.7-4.2,4.4-4.2
		c0.9,0,1.7,0.2,2,0.4l-0.3,0.9c-0.4-0.2-1-0.3-1.8-0.3c-2,0-3.2,1.2-3.2,3.2c0,2.1,1.2,3.3,3.1,3.3c0.7,0,1.2-0.1,1.4-0.2v-2.4
		h-1.6V653h2.7V656.8z"/>
	<path class="st0" d="M569.1,657.2v-8.1h1.1l2.6,4.1c0.6,0.9,1.1,1.8,1.5,2.6l0,0c-0.1-1.1-0.1-2.1-0.1-3.3v-3.4h1v8.1h-1.1
		l-2.6-4.1c-0.6-0.9-1.1-1.8-1.5-2.7l0,0c0.1,1,0.1,2,0.1,3.3v3.5H569.1z"/>
	<path class="st0" d="M577,649.2c0.6-0.1,1.4-0.2,2.2-0.2c1.5,0,2.6,0.3,3.3,1c0.7,0.7,1.1,1.6,1.1,2.9c0,1.3-0.4,2.4-1.2,3.1
		c-0.8,0.8-2,1.2-3.6,1.2c-0.7,0-1.4,0-1.9-0.1V649.2z M578,656.4c0.3,0,0.6,0.1,1.1,0.1c2.2,0,3.4-1.2,3.4-3.4
		c0-1.9-1.1-3.1-3.3-3.1c-0.5,0-0.9,0-1.2,0.1V656.4z"/>
</g>
<g>
	<path class="st0" d="M646.6,650.8v2.8h2.7v0.7h-2.7v2.8h-0.8v-2.8h-2.7v-0.7h2.7v-2.8H646.6z"/>
	<path class="st0" d="M655,650.3h-3l-0.3,2c0.2,0,0.3,0,0.6,0c0.6,0,1.2,0.1,1.7,0.4c0.6,0.3,1.1,1,1.1,2c0,1.5-1.2,2.7-2.9,2.7
		c-0.9,0-1.6-0.2-1.9-0.5l0.3-0.8c0.3,0.2,1,0.4,1.7,0.4c1,0,1.8-0.6,1.8-1.7c0-1-0.7-1.7-2.2-1.7c-0.4,0-0.8,0-1.1,0.1l0.5-3.7h3.7
		V650.3z"/>
	<path class="st0" d="M658.6,657.2l-2.6-8.1h1.1l1.3,4c0.3,1.1,0.6,2.1,0.9,3h0c0.2-0.9,0.6-2,0.9-3l1.4-4h1.1l-2.9,8.1H658.6z"/>
</g>
<g>
	<path class="st0" d="M516.5,741.9c-0.5,0.2-1.4,0.4-2.5,0.4c-1.2,0-2.2-0.3-3-1.1c-0.7-0.7-1.1-1.8-1.1-3c0-2.4,1.7-4.2,4.4-4.2
		c0.9,0,1.7,0.2,2,0.4l-0.3,0.9c-0.4-0.2-1-0.3-1.8-0.3c-2,0-3.2,1.2-3.2,3.2c0,2.1,1.2,3.3,3.1,3.3c0.7,0,1.2-0.1,1.4-0.2v-2.4
		h-1.6V738h2.7V741.9z"/>
	<path class="st0" d="M518.1,742.2v-8.1h1.1l2.6,4.1c0.6,0.9,1.1,1.8,1.5,2.6l0,0c-0.1-1.1-0.1-2.1-0.1-3.3v-3.4h1v8.1h-1.1
		l-2.6-4.1c-0.6-0.9-1.1-1.8-1.5-2.7l0,0c0.1,1,0.1,2,0.1,3.3v3.5H518.1z"/>
	<path class="st0" d="M526,734.3c0.6-0.1,1.4-0.2,2.2-0.2c1.5,0,2.6,0.3,3.3,1c0.7,0.7,1.1,1.6,1.1,2.9c0,1.3-0.4,2.4-1.2,3.1
		c-0.8,0.8-2,1.2-3.6,1.2c-0.7,0-1.4,0-1.9-0.1V734.3z M527,741.4c0.3,0,0.6,0.1,1.1,0.1c2.2,0,3.4-1.2,3.4-3.4
		c0-1.9-1.1-3.1-3.3-3.1c-0.5,0-0.9,0-1.2,0.1V741.4z"/>
</g>
<g>
	<path class="st0" d="M595.6,735.9v2.8h2.7v0.7h-2.7v2.8h-0.8v-2.8h-2.7v-0.7h2.7v-2.8H595.6z"/>
	<path class="st0" d="M604,735.3h-3l-0.3,2c0.2,0,0.3,0,0.6,0c0.6,0,1.2,0.1,1.7,0.4c0.6,0.3,1.1,1,1.1,2c0,1.5-1.2,2.7-2.9,2.7
		c-0.9,0-1.6-0.2-1.9-0.5l0.3-0.8c0.3,0.2,1,0.4,1.7,0.4c1,0,1.8-0.6,1.8-1.7c0-1-0.7-1.7-2.2-1.7c-0.4,0-0.8,0-1.1,0.1l0.5-3.7h3.7
		V735.3z"/>
	<path class="st0" d="M607.6,742.2l-2.6-8.1h1.1l1.3,4c0.3,1.1,0.6,2.1,0.9,3h0c0.2-0.9,0.6-2,0.9-3l1.4-4h1.1l-2.9,8.1H607.6z"/>
</g>
<g>
	<path class="st0" d="M516.5,912c-0.5,0.2-1.4,0.4-2.5,0.4c-1.2,0-2.2-0.3-3-1.1c-0.7-0.7-1.1-1.8-1.1-3c0-2.4,1.7-4.2,4.4-4.2
		c0.9,0,1.7,0.2,2,0.4l-0.3,0.9c-0.4-0.2-1-0.3-1.8-0.3c-2,0-3.2,1.2-3.2,3.2c0,2.1,1.2,3.3,3.1,3.3c0.7,0,1.2-0.1,1.4-0.2v-2.4
		h-1.6v-0.8h2.7V912z"/>
	<path class="st0" d="M518.1,912.3v-8.1h1.1l2.6,4.1c0.6,0.9,1.1,1.8,1.5,2.6l0,0c-0.1-1.1-0.1-2.1-0.1-3.3v-3.4h1v8.1h-1.1
		l-2.6-4.1c-0.6-0.9-1.1-1.8-1.5-2.7l0,0c0.1,1,0.1,2,0.1,3.3v3.5H518.1z"/>
	<path class="st0" d="M526,904.3c0.6-0.1,1.4-0.2,2.2-0.2c1.5,0,2.6,0.3,3.3,1c0.7,0.7,1.1,1.6,1.1,2.9c0,1.3-0.4,2.4-1.2,3.1
		c-0.8,0.8-2,1.2-3.6,1.2c-0.7,0-1.4,0-1.9-0.1V904.3z M527,911.5c0.3,0,0.6,0.1,1.1,0.1c2.2,0,3.4-1.2,3.4-3.4
		c0-1.9-1.1-3.1-3.3-3.1c-0.5,0-0.9,0-1.2,0.1V911.5z"/>
</g>
<g>
	<path class="st0" d="M595.6,905.9v2.8h2.7v0.7h-2.7v2.8h-0.8v-2.8h-2.7v-0.7h2.7v-2.8H595.6z"/>
	<path class="st0" d="M604,905.4h-3l-0.3,2c0.2,0,0.3,0,0.6,0c0.6,0,1.2,0.1,1.7,0.4c0.6,0.3,1.1,1,1.1,2c0,1.5-1.2,2.7-2.9,2.7
		c-0.9,0-1.6-0.2-1.9-0.5l0.3-0.8c0.3,0.2,1,0.4,1.7,0.4c1,0,1.8-0.6,1.8-1.7c0-1-0.7-1.7-2.2-1.7c-0.4,0-0.8,0-1.1,0.1l0.5-3.7h3.7
		V905.4z"/>
	<path class="st0" d="M607.6,912.3l-2.6-8.1h1.1l1.3,4c0.3,1.1,0.6,2.1,0.9,3h0c0.2-0.9,0.6-2,0.9-3l1.4-4h1.1l-2.9,8.1H607.6z"/>
</g>
<g>
	<path class="st0" d="M567.5,826.9c-0.5,0.2-1.4,0.4-2.5,0.4c-1.2,0-2.2-0.3-3-1.1c-0.7-0.7-1.1-1.8-1.1-3c0-2.4,1.7-4.2,4.4-4.2
		c0.9,0,1.7,0.2,2,0.4l-0.3,0.9c-0.4-0.2-1-0.3-1.8-0.3c-2,0-3.2,1.2-3.2,3.2c0,2.1,1.2,3.3,3.1,3.3c0.7,0,1.2-0.1,1.4-0.2v-2.4
		h-1.6V823h2.7V826.9z"/>
	<path class="st0" d="M569.1,827.3v-8.1h1.1l2.6,4.1c0.6,0.9,1.1,1.8,1.5,2.6l0,0c-0.1-1.1-0.1-2.1-0.1-3.3v-3.4h1v8.1h-1.1
		l-2.6-4.1c-0.6-0.9-1.1-1.8-1.5-2.7l0,0c0.1,1,0.1,2,0.1,3.3v3.5H569.1z"/>
	<path class="st0" d="M577,819.3c0.6-0.1,1.4-0.2,2.2-0.2c1.5,0,2.6,0.3,3.3,1c0.7,0.7,1.1,1.6,1.1,2.9c0,1.3-0.4,2.4-1.2,3.1
		c-0.8,0.8-2,1.2-3.6,1.2c-0.7,0-1.4,0-1.9-0.1V819.3z M578,826.4c0.3,0,0.6,0.1,1.1,0.1c2.2,0,3.4-1.2,3.4-3.4
		c0-1.9-1.1-3.1-3.3-3.1c-0.5,0-0.9,0-1.2,0.1V826.4z"/>
</g>
<g>
	<path class="st0" d="M646.6,820.9v2.8h2.7v0.7h-2.7v2.8h-0.8v-2.8h-2.7v-0.7h2.7v-2.8H646.6z"/>
	<path class="st0" d="M655,820.4h-3l-0.3,2c0.2,0,0.3,0,0.6,0c0.6,0,1.2,0.1,1.7,0.4c0.6,0.3,1.1,1,1.1,2c0,1.5-1.2,2.7-2.9,2.7
		c-0.9,0-1.6-0.2-1.9-0.5l0.3-0.8c0.3,0.2,1,0.4,1.7,0.4c1,0,1.8-0.6,1.8-1.7c0-1-0.7-1.7-2.2-1.7c-0.4,0-0.8,0-1.1,0.1l0.5-3.7h3.7
		V820.4z"/>
	<path class="st0" d="M658.6,827.3l-2.6-8.1h1.1l1.3,4c0.3,1.1,0.6,2.1,0.9,3h0c0.2-0.9,0.6-2,0.9-3l1.4-4h1.1l-2.9,8.1H658.6z"/>
</g>
<g>
	
		<rect x="518.5" y="994.7" transform="matrix(0.1231 -0.9924 0.9924 0.1231 -507.2703 1417.33)" class="st0" width="59.8" height="2"/>
	<g>
		<path class="st0" d="M552.8,960c-1.4,2.7-3.6,6-5.8,7.9l4.9-1.1l4.5,2.3C554.8,966.7,553.5,963,552.8,960z"/>
	</g>
	<g>
		<path class="st0" d="M543.9,1031.3c-0.7-2.9-2-6.7-3.7-9.1l4.5,2.3l4.9-1.1C547.5,1025.4,545.3,1028.7,543.9,1031.3z"/>
	</g>
</g>
<g>
	
		<rect x="579.4" y="994.1" transform="matrix(0.1191 -0.9929 0.9929 0.1191 -436.726 1498.0042)" class="st0" width="92.9" height="2"/>
	<g>
		<path class="st0" d="M632.1,943c-1.4,2.7-3.6,6-5.7,7.9l4.9-1.1l4.5,2.3C634.2,949.7,632.8,946,632.1,943z"/>
	</g>
	<g>
		<path class="st0" d="M619.6,1047.2c-0.7-2.9-2.1-6.7-3.7-9.1l4.5,2.3l4.9-1.1C623.2,1041.2,621,1044.5,619.6,1047.2z"/>
	</g>
</g>
<g>
	<path class="st0" d="M564.7,999.8c-0.5,0.2-1.4,0.4-2.5,0.4c-1.2,0-2.2-0.3-3-1.1c-0.7-0.7-1.1-1.8-1.1-3c0-2.4,1.7-4.2,4.4-4.2
		c0.9,0,1.7,0.2,2,0.4l-0.3,0.9c-0.4-0.2-1-0.3-1.8-0.3c-2,0-3.2,1.2-3.2,3.2c0,2.1,1.2,3.3,3.1,3.3c0.7,0,1.2-0.1,1.4-0.2v-2.4H562
		v-0.8h2.7V999.8z"/>
	<path class="st0" d="M566.3,1000.2v-8.1h1.1l2.6,4.1c0.6,0.9,1.1,1.8,1.5,2.6l0,0c-0.1-1.1-0.1-2.1-0.1-3.3v-3.4h1v8.1h-1.1
		l-2.6-4.1c-0.6-0.9-1.1-1.8-1.5-2.7l0,0c0.1,1,0.1,2,0.1,3.3v3.5H566.3z"/>
	<path class="st0" d="M574.2,992.2c0.6-0.1,1.4-0.2,2.2-0.2c1.5,0,2.6,0.3,3.3,1c0.7,0.7,1.1,1.6,1.1,2.9c0,1.3-0.4,2.4-1.2,3.1
		c-0.8,0.8-2,1.2-3.6,1.2c-0.7,0-1.4,0-1.9-0.1V992.2z M575.2,999.4c0.3,0,0.6,0.1,1.1,0.1c2.2,0,3.4-1.2,3.4-3.4
		c0-1.9-1.1-3.1-3.3-3.1c-0.5,0-0.9,0-1.2,0.1V999.4z"/>
</g>
<g>
	<path class="st0" d="M638.1,993.8v2.8h2.7v0.7h-2.7v2.8h-0.8v-2.8h-2.7v-0.7h2.7v-2.8H638.1z"/>
	<path class="st0" d="M646.5,993.3h-3l-0.3,2c0.2,0,0.3,0,0.6,0c0.6,0,1.2,0.1,1.7,0.4c0.6,0.3,1.1,1,1.1,2c0,1.5-1.2,2.7-2.9,2.7
		c-0.9,0-1.6-0.2-1.9-0.5l0.3-0.8c0.3,0.2,1,0.4,1.7,0.4c1,0,1.8-0.6,1.8-1.7c0-1-0.7-1.7-2.2-1.7c-0.4,0-0.8,0-1.1,0.1l0.5-3.7h3.7
		V993.3z"/>
	<path class="st0" d="M650.1,1000.2l-2.6-8.1h1.1l1.3,4c0.3,1.1,0.6,2.1,0.9,3h0c0.2-0.9,0.6-2,0.9-3l1.4-4h1.1l-2.9,8.1H650.1z"/>
</g>
<g>
	<path class="st0" d="M151.7,307.6c0.6-0.1,1.4-0.2,2.2-0.2c1.5,0,2.6,0.3,3.3,1c0.7,0.7,1.1,1.6,1.1,2.9c0,1.3-0.4,2.4-1.2,3.1
		c-0.8,0.8-2,1.2-3.6,1.2c-0.7,0-1.4,0-1.9-0.1V307.6z M152.7,314.8c0.3,0,0.6,0.1,1.1,0.1c2.2,0,3.4-1.2,3.4-3.4
		c0-1.9-1.1-3.1-3.3-3.1c-0.5,0-0.9,0-1.2,0.1V314.8z"/>
	<path class="st0" d="M162.9,315.6l-0.1-0.7h0c-0.3,0.5-0.9,0.9-1.8,0.9c-1.2,0-1.8-0.8-1.8-1.7c0-1.4,1.2-2.2,3.5-2.2v-0.1
		c0-0.5-0.1-1.3-1.3-1.3c-0.5,0-1.1,0.2-1.5,0.4l-0.2-0.7c0.5-0.3,1.2-0.5,1.9-0.5c1.8,0,2.2,1.2,2.2,2.4v2.2c0,0.5,0,1,0.1,1.4
		H162.9z M162.7,312.7c-1.2,0-2.5,0.2-2.5,1.3c0,0.7,0.5,1,1,1c0.8,0,1.2-0.5,1.4-1c0-0.1,0.1-0.2,0.1-0.3V312.7z"/>
	<path class="st0" d="M166.7,308.2v1.7h1.5v0.8h-1.5v3.1c0,0.7,0.2,1.1,0.8,1.1c0.3,0,0.5,0,0.6-0.1l0,0.8c-0.2,0.1-0.5,0.1-0.9,0.1
		c-0.5,0-0.9-0.2-1.1-0.4c-0.3-0.3-0.4-0.8-0.4-1.5v-3.2h-0.9v-0.8h0.9v-1.4L166.7,308.2z"/>
	<path class="st0" d="M172.6,315.6l-0.1-0.7h0c-0.3,0.5-0.9,0.9-1.8,0.9c-1.2,0-1.8-0.8-1.8-1.7c0-1.4,1.2-2.2,3.5-2.2v-0.1
		c0-0.5-0.1-1.3-1.3-1.3c-0.5,0-1.1,0.2-1.5,0.4l-0.2-0.7c0.5-0.3,1.2-0.5,1.9-0.5c1.8,0,2.2,1.2,2.2,2.4v2.2c0,0.5,0,1,0.1,1.4
		H172.6z M172.4,312.7c-1.2,0-2.5,0.2-2.5,1.3c0,0.7,0.5,1,1,1c0.8,0,1.2-0.5,1.4-1c0-0.1,0.1-0.2,0.1-0.3V312.7z"/>
</g>
<g>
	<path class="st0" d="M151.7,477.7c0.6-0.1,1.4-0.2,2.2-0.2c1.5,0,2.6,0.3,3.3,1c0.7,0.7,1.1,1.6,1.1,2.9c0,1.3-0.4,2.4-1.2,3.1
		c-0.8,0.8-2,1.2-3.6,1.2c-0.7,0-1.4,0-1.9-0.1V477.7z M152.7,484.9c0.3,0,0.6,0.1,1.1,0.1c2.2,0,3.4-1.2,3.4-3.4
		c0-1.9-1.1-3.1-3.3-3.1c-0.5,0-0.9,0-1.2,0.1V484.9z"/>
	<path class="st0" d="M162.9,485.7l-0.1-0.7h0c-0.3,0.5-0.9,0.9-1.8,0.9c-1.2,0-1.8-0.8-1.8-1.7c0-1.4,1.2-2.2,3.5-2.2v-0.1
		c0-0.5-0.1-1.3-1.3-1.3c-0.5,0-1.1,0.2-1.5,0.4l-0.2-0.7c0.5-0.3,1.2-0.5,1.9-0.5c1.8,0,2.2,1.2,2.2,2.4v2.2c0,0.5,0,1,0.1,1.4
		H162.9z M162.7,482.7c-1.2,0-2.5,0.2-2.5,1.3c0,0.7,0.5,1,1,1c0.8,0,1.2-0.5,1.4-1c0-0.1,0.1-0.2,0.1-0.3V482.7z"/>
	<path class="st0" d="M166.7,478.2v1.7h1.5v0.8h-1.5v3.1c0,0.7,0.2,1.1,0.8,1.1c0.3,0,0.5,0,0.6-0.1l0,0.8c-0.2,0.1-0.5,0.1-0.9,0.1
		c-0.5,0-0.9-0.2-1.1-0.4c-0.3-0.3-0.4-0.8-0.4-1.5v-3.2h-0.9v-0.8h0.9v-1.4L166.7,478.2z"/>
	<path class="st0" d="M172.6,485.7l-0.1-0.7h0c-0.3,0.5-0.9,0.9-1.8,0.9c-1.2,0-1.8-0.8-1.8-1.7c0-1.4,1.2-2.2,3.5-2.2v-0.1
		c0-0.5-0.1-1.3-1.3-1.3c-0.5,0-1.1,0.2-1.5,0.4l-0.2-0.7c0.5-0.3,1.2-0.5,1.9-0.5c1.8,0,2.2,1.2,2.2,2.4v2.2c0,0.5,0,1,0.1,1.4
		H172.6z M172.4,482.7c-1.2,0-2.5,0.2-2.5,1.3c0,0.7,0.5,1,1,1c0.8,0,1.2-0.5,1.4-1c0-0.1,0.1-0.2,0.1-0.3V482.7z"/>
</g>
<g>
	<path class="st0" d="M151.7,647.8c0.6-0.1,1.4-0.2,2.2-0.2c1.5,0,2.6,0.3,3.3,1c0.7,0.7,1.1,1.6,1.1,2.9c0,1.3-0.4,2.4-1.2,3.1
		c-0.8,0.8-2,1.2-3.6,1.2c-0.7,0-1.4,0-1.9-0.1V647.8z M152.7,655c0.3,0,0.6,0.1,1.1,0.1c2.2,0,3.4-1.2,3.4-3.4
		c0-1.9-1.1-3.1-3.3-3.1c-0.5,0-0.9,0-1.2,0.1V655z"/>
	<path class="st0" d="M162.9,655.8l-0.1-0.7h0c-0.3,0.5-0.9,0.9-1.8,0.9c-1.2,0-1.8-0.8-1.8-1.7c0-1.4,1.2-2.2,3.5-2.2V652
		c0-0.5-0.1-1.3-1.3-1.3c-0.5,0-1.1,0.2-1.5,0.4l-0.2-0.7c0.5-0.3,1.2-0.5,1.9-0.5c1.8,0,2.2,1.2,2.2,2.4v2.2c0,0.5,0,1,0.1,1.4
		H162.9z M162.7,652.8c-1.2,0-2.5,0.2-2.5,1.3c0,0.7,0.5,1,1,1c0.8,0,1.2-0.5,1.4-1c0-0.1,0.1-0.2,0.1-0.3V652.8z"/>
	<path class="st0" d="M166.7,648.3v1.7h1.5v0.8h-1.5v3.1c0,0.7,0.2,1.1,0.8,1.1c0.3,0,0.5,0,0.6-0.1l0,0.8c-0.2,0.1-0.5,0.1-0.9,0.1
		c-0.5,0-0.9-0.2-1.1-0.4c-0.3-0.3-0.4-0.8-0.4-1.5v-3.2h-0.9V650h0.9v-1.4L166.7,648.3z"/>
	<path class="st0" d="M172.6,655.8l-0.1-0.7h0c-0.3,0.5-0.9,0.9-1.8,0.9c-1.2,0-1.8-0.8-1.8-1.7c0-1.4,1.2-2.2,3.5-2.2V652
		c0-0.5-0.1-1.3-1.3-1.3c-0.5,0-1.1,0.2-1.5,0.4l-0.2-0.7c0.5-0.3,1.2-0.5,1.9-0.5c1.8,0,2.2,1.2,2.2,2.4v2.2c0,0.5,0,1,0.1,1.4
		H172.6z M172.4,652.8c-1.2,0-2.5,0.2-2.5,1.3c0,0.7,0.5,1,1,1c0.8,0,1.2-0.5,1.4-1c0-0.1,0.1-0.2,0.1-0.3V652.8z"/>
</g>
<g>
	<path class="st0" d="M151.7,817.9c0.6-0.1,1.4-0.2,2.2-0.2c1.5,0,2.6,0.3,3.3,1c0.7,0.7,1.1,1.6,1.1,2.9c0,1.3-0.4,2.4-1.2,3.1
		c-0.8,0.8-2,1.2-3.6,1.2c-0.7,0-1.4,0-1.9-0.1V817.9z M152.7,825c0.3,0,0.6,0.1,1.1,0.1c2.2,0,3.4-1.2,3.4-3.4
		c0-1.9-1.1-3.1-3.3-3.1c-0.5,0-0.9,0-1.2,0.1V825z"/>
	<path class="st0" d="M162.9,825.9l-0.1-0.7h0c-0.3,0.5-0.9,0.9-1.8,0.9c-1.2,0-1.8-0.8-1.8-1.7c0-1.4,1.2-2.2,3.5-2.2V822
		c0-0.5-0.1-1.3-1.3-1.3c-0.5,0-1.1,0.2-1.5,0.4l-0.2-0.7c0.5-0.3,1.2-0.5,1.9-0.5c1.8,0,2.2,1.2,2.2,2.4v2.2c0,0.5,0,1,0.1,1.4
		H162.9z M162.7,822.9c-1.2,0-2.5,0.2-2.5,1.3c0,0.7,0.5,1,1,1c0.8,0,1.2-0.5,1.4-1c0-0.1,0.1-0.2,0.1-0.3V822.9z"/>
	<path class="st0" d="M166.7,818.4v1.7h1.5v0.8h-1.5v3.1c0,0.7,0.2,1.1,0.8,1.1c0.3,0,0.5,0,0.6-0.1l0,0.8c-0.2,0.1-0.5,0.1-0.9,0.1
		c-0.5,0-0.9-0.2-1.1-0.4c-0.3-0.3-0.4-0.8-0.4-1.5v-3.2h-0.9v-0.8h0.9v-1.4L166.7,818.4z"/>
	<path class="st0" d="M172.6,825.9l-0.1-0.7h0c-0.3,0.5-0.9,0.9-1.8,0.9c-1.2,0-1.8-0.8-1.8-1.7c0-1.4,1.2-2.2,3.5-2.2V822
		c0-0.5-0.1-1.3-1.3-1.3c-0.5,0-1.1,0.2-1.5,0.4l-0.2-0.7c0.5-0.3,1.2-0.5,1.9-0.5c1.8,0,2.2,1.2,2.2,2.4v2.2c0,0.5,0,1,0.1,1.4
		H172.6z M172.4,822.9c-1.2,0-2.5,0.2-2.5,1.3c0,0.7,0.5,1,1,1c0.8,0,1.2-0.5,1.4-1c0-0.1,0.1-0.2,0.1-0.3V822.9z"/>
</g>
<g>
	<path class="st0" d="M151.7,988c0.6-0.1,1.4-0.2,2.2-0.2c1.5,0,2.6,0.3,3.3,1c0.7,0.7,1.1,1.6,1.1,2.9c0,1.3-0.4,2.4-1.2,3.1
		c-0.8,0.8-2,1.2-3.6,1.2c-0.7,0-1.4,0-1.9-0.1V988z M152.7,995.1c0.3,0,0.6,0.1,1.1,0.1c2.2,0,3.4-1.2,3.4-3.4
		c0-1.9-1.1-3.1-3.3-3.1c-0.5,0-0.9,0-1.2,0.1V995.1z"/>
	<path class="st0" d="M162.9,995.9l-0.1-0.7h0c-0.3,0.5-0.9,0.9-1.8,0.9c-1.2,0-1.8-0.8-1.8-1.7c0-1.4,1.2-2.2,3.5-2.2v-0.1
		c0-0.5-0.1-1.3-1.3-1.3c-0.5,0-1.1,0.2-1.5,0.4l-0.2-0.7c0.5-0.3,1.2-0.5,1.9-0.5c1.8,0,2.2,1.2,2.2,2.4v2.2c0,0.5,0,1,0.1,1.4
		H162.9z M162.7,993c-1.2,0-2.5,0.2-2.5,1.3c0,0.7,0.5,1,1,1c0.8,0,1.2-0.5,1.4-1c0-0.1,0.1-0.2,0.1-0.3V993z"/>
	<path class="st0" d="M166.7,988.5v1.7h1.5v0.8h-1.5v3.1c0,0.7,0.2,1.1,0.8,1.1c0.3,0,0.5,0,0.6-0.1l0,0.8c-0.2,0.1-0.5,0.1-0.9,0.1
		c-0.5,0-0.9-0.2-1.1-0.4c-0.3-0.3-0.4-0.8-0.4-1.5v-3.2h-0.9v-0.8h0.9v-1.4L166.7,988.5z"/>
	<path class="st0" d="M172.6,995.9l-0.1-0.7h0c-0.3,0.5-0.9,0.9-1.8,0.9c-1.2,0-1.8-0.8-1.8-1.7c0-1.4,1.2-2.2,3.5-2.2v-0.1
		c0-0.5-0.1-1.3-1.3-1.3c-0.5,0-1.1,0.2-1.5,0.4l-0.2-0.7c0.5-0.3,1.2-0.5,1.9-0.5c1.8,0,2.2,1.2,2.2,2.4v2.2c0,0.5,0,1,0.1,1.4
		H172.6z M172.4,993c-1.2,0-2.5,0.2-2.5,1.3c0,0.7,0.5,1,1,1c0.8,0,1.2-0.5,1.4-1c0-0.1,0.1-0.2,0.1-0.3V993z"/>
</g>
<g>
	<path class="st0" d="M58.4,328.4c0.5-0.1,1.2-0.2,2-0.2c1,0,1.8,0.2,2.3,0.7c0.4,0.4,0.7,1,0.7,1.7c0,0.7-0.2,1.3-0.6,1.7
		c-0.6,0.6-1.5,0.9-2.5,0.9c-0.3,0-0.6,0-0.8-0.1v3.2h-1V328.4z M59.5,332.3c0.2,0.1,0.5,0.1,0.9,0.1c1.3,0,2-0.6,2-1.7
		c0-1.1-0.8-1.6-1.9-1.6c-0.5,0-0.8,0-1,0.1V332.3z"/>
	<path class="st0" d="M69.7,333.4c0,2.1-1.5,3.1-2.9,3.1c-1.6,0-2.8-1.2-2.8-3c0-1.9,1.3-3.1,2.9-3.1
		C68.6,330.4,69.7,331.6,69.7,333.4z M65.1,333.5c0,1.3,0.7,2.2,1.8,2.2c1,0,1.8-0.9,1.8-2.3c0-1-0.5-2.2-1.7-2.2
		C65.7,331.2,65.1,332.4,65.1,333.5z"/>
	<path class="st0" d="M71.1,332.4c0-0.7,0-1.3,0-1.8h0.9l0,1.1h0c0.3-0.8,0.9-1.3,1.6-1.3c0.1,0,0.2,0,0.3,0v1c-0.1,0-0.2,0-0.4,0
		c-0.7,0-1.3,0.6-1.4,1.4c0,0.1,0,0.3,0,0.5v3.1h-1V332.4z"/>
	<path class="st0" d="M76.6,328.9v1.7h1.5v0.8h-1.5v3.1c0,0.7,0.2,1.1,0.8,1.1c0.3,0,0.5,0,0.6-0.1l0,0.8c-0.2,0.1-0.5,0.1-0.9,0.1
		c-0.5,0-0.9-0.2-1.1-0.4c-0.3-0.3-0.4-0.8-0.4-1.5v-3.2h-0.9v-0.8h0.9v-1.4L76.6,328.9z"/>
	<path class="st0" d="M63.4,342.8c0.5-0.1,1.3-0.2,2-0.2c1.1,0,1.8,0.2,2.3,0.7c0.4,0.4,0.6,0.9,0.6,1.5c0,1.1-0.7,1.8-1.5,2.1v0
		c0.6,0.2,1,0.8,1.2,1.6c0.3,1.1,0.5,1.9,0.6,2.2h-1.1c-0.1-0.2-0.3-0.9-0.5-1.9c-0.2-1.1-0.7-1.5-1.6-1.6h-1v3.5h-1V342.8z
		 M64.5,346.5h1.1c1.1,0,1.8-0.6,1.8-1.5c0-1-0.8-1.5-1.9-1.5c-0.5,0-0.9,0-1,0.1V346.5z"/>
	<path class="st0" d="M74.4,350.8l-1-1.8c-0.4-0.7-0.7-1.1-0.9-1.6h0c-0.2,0.5-0.5,0.9-0.9,1.6l-1,1.8h-1.2l2.5-4.1l-2.4-4h1.2
		l1.1,1.9c0.3,0.5,0.5,0.9,0.7,1.4h0c0.2-0.5,0.4-0.9,0.7-1.4l1.1-1.9h1.2l-2.5,3.9l2.5,4.1H74.4z"/>
</g>
<g>
	<rect x="119.3" y="374" transform="matrix(0.9238 -0.3828 0.3828 0.9238 -132.3735 83.7563)" class="st0" width="50" height="1"/>
	<g>
		<path class="st0" d="M173,362.6c-3,0.1-7-0.2-9.7-1.1l3.4,3.7l0.2,5.1C168.2,367.7,170.7,364.7,173,362.6z"/>
	</g>
	<g>
		<path class="st0" d="M115.6,386.4c2.2-2.1,4.8-5.1,6.1-7.7l0.2,5.1l3.4,3.7C122.6,386.6,118.6,386.3,115.6,386.4z"/>
	</g>
</g>
<g>
	
		<rect x="144.4" y="412.1" transform="matrix(0.3818 -0.9243 0.9243 0.3818 -313.8058 403.7287)" class="st0" width="1" height="48.7"/>
	<g>
		<path class="st0" d="M173,448c-2.2-2.1-4.8-5.1-6.1-7.7l-0.2,5.1l-3.4,3.7C166,448.2,169.9,447.9,173,448z"/>
	</g>
	<g>
		<path class="st0" d="M116.8,424.8c3,0.1,7-0.2,9.7-1.1l-3.4,3.7l-0.2,5.1C121.6,429.9,119,426.9,116.8,424.8z"/>
	</g>
</g>
<g>
	<path class="st0" d="M139.7,426.7c-0.5,0.2-1.4,0.4-2.5,0.4c-1.2,0-2.2-0.3-3-1.1c-0.7-0.7-1.1-1.8-1.1-3c0-2.4,1.7-4.2,4.4-4.2
		c0.9,0,1.7,0.2,2,0.4l-0.3,0.9c-0.4-0.2-1-0.3-1.8-0.3c-2,0-3.2,1.2-3.2,3.2c0,2.1,1.2,3.3,3.1,3.3c0.7,0,1.2-0.1,1.4-0.2v-2.4H137
		v-0.8h2.7V426.7z"/>
	<path class="st0" d="M141.3,427.1V419h1.1l2.6,4.1c0.6,0.9,1.1,1.8,1.5,2.6l0,0c-0.1-1.1-0.1-2.1-0.1-3.3V419h1v8.1h-1.1l-2.6-4.1
		c-0.6-0.9-1.1-1.8-1.5-2.7l0,0c0.1,1,0.1,2,0.1,3.3v3.5H141.3z"/>
	<path class="st0" d="M149.2,419.1c0.6-0.1,1.4-0.2,2.2-0.2c1.5,0,2.6,0.3,3.3,1c0.7,0.7,1.1,1.6,1.1,2.9c0,1.3-0.4,2.4-1.2,3.1
		c-0.8,0.8-2,1.2-3.6,1.2c-0.7,0-1.4,0-1.9-0.1V419.1z M150.2,426.2c0.3,0,0.6,0.1,1.1,0.1c2.2,0,3.4-1.2,3.4-3.4
		c0-1.9-1.1-3.1-3.3-3.1c-0.5,0-0.9,0-1.2,0.1V426.2z"/>
</g>
<g>
	<path class="st0" d="M138,360.5v2.8h2.7v0.7H138v2.8h-0.8V364h-2.7v-0.7h2.7v-2.8H138z"/>
	<path class="st0" d="M146.4,359.9h-3l-0.3,2c0.2,0,0.3,0,0.6,0c0.6,0,1.2,0.1,1.7,0.4c0.6,0.3,1.1,1,1.1,2c0,1.5-1.2,2.7-2.9,2.7
		c-0.9,0-1.6-0.2-1.9-0.5l0.3-0.8c0.3,0.2,1,0.4,1.7,0.4c1,0,1.8-0.6,1.8-1.7c0-1-0.7-1.7-2.2-1.7c-0.4,0-0.8,0-1.1,0.1l0.5-3.7h3.7
		V359.9z"/>
	<path class="st0" d="M150.1,366.8l-2.6-8.1h1.1l1.3,4c0.3,1.1,0.6,2.1,0.9,3h0c0.2-0.9,0.6-2,0.9-3l1.4-4h1.1l-2.9,8.1H150.1z"/>
</g>
</svg>
