<?xml version="1.0" encoding="utf-8"?>
<!-- Generator: Adobe Illustrator 24.3.0, SVG Export Plug-In . SVG Version: 6.00 Build 0)  -->
<svg version="1.1"
	 id="svg918" inkscape:version="0.92.4 (5da689c313, 2019-01-14)" xmlns:cc="http://creativecommons.org/ns#" xmlns:dc="http://purl.org/dc/elements/1.1/" xmlns:inkscape="http://www.inkscape.org/namespaces/inkscape" xmlns:rdf="http://www.w3.org/1999/02/22-rdf-syntax-ns#" xmlns:sodipodi="http://sodipodi.sourceforge.net/DTD/sodipodi-0.dtd" xmlns:svg="http://www.w3.org/2000/svg"
	 xmlns="http://www.w3.org/2000/svg" xmlns:xlink="http://www.w3.org/1999/xlink" x="0px" y="0px" viewBox="0 0 1417.3 1417.3"
	 style="enable-background:new 0 0 1417.3 1417.3;" xml:space="preserve">
<style type="text/css">
	.st0{fill:#89C9D5;fill-opacity:0.1647;}
	.st1{enable-background:new    ;}
	.st2{display:none;}
	.st3{display:inline;fill:none;stroke:#FF0000;stroke-width:0.1;stroke-miterlimit:10;}
	.st4{display:inline;opacity:0.99;fill:none;stroke:#FF0000;stroke-width:0.1;stroke-miterlimit:10;}
</style>
<g id="g916" transform="translate(0,-861.73197)">
	<path id="path2" inkscape:connector-curvature="0" class="st0" d="M0,861.7h1417.3V2279H0V861.7z"/>
	<circle id="circle6" cx="566.6" cy="2205.2" r="10.7"/>
	
		<ellipse id="circle6_1_" transform="matrix(0.7071 -0.7071 0.7071 0.7071 -1365.6511 1113.4741)" cx="661.2" cy="2205.2" rx="10.6" ry="10.7"/>
	
		<ellipse id="circle6_2_" transform="matrix(0.7071 -0.7071 0.7071 0.7071 -1337.8706 1180.5415)" cx="756.1" cy="2205.2" rx="10.6" ry="10.7"/>
	
		<ellipse id="circle6_3_" transform="matrix(0.7071 -0.7071 0.7071 0.7071 -1310.0895 1247.6099)" cx="850.9" cy="2205.2" rx="10.6" ry="10.7"/>
	<g class="st1">
		<path d="M233.5,1067.2c-0.1-0.1-0.2-0.3-0.2-0.5v-47.5c0-0.2,0.1-0.4,0.2-0.5c0.1-0.1,0.3-0.2,0.5-0.2h2.4c0.2,0,0.4,0.1,0.5,0.2
			c0.1,0.1,0.2,0.3,0.2,0.5v47.5c0,0.2-0.1,0.4-0.2,0.5c-0.1,0.1-0.3,0.2-0.5,0.2H234C233.8,1067.4,233.7,1067.4,233.5,1067.2z"/>
	</g>
	<g class="st1">
		<path d="M311.3,1022.1c-0.1-0.1-0.2-0.3-0.2-0.5v-2.4c0-0.2,0.1-0.4,0.2-0.5c0.1-0.1,0.3-0.2,0.5-0.2h29.9c0.2,0,0.4,0.1,0.5,0.2
			c0.1,0.1,0.2,0.3,0.2,0.5v2.4c0,0.2-0.1,0.4-0.2,0.5c-0.1,0.1-0.3,0.2-0.5,0.2h-29.9C311.6,1022.3,311.5,1022.2,311.3,1022.1z
			 M325.1,1067.2c-0.1-0.1-0.2-0.3-0.2-0.5v-40c0-0.2,0.1-0.4,0.2-0.5c0.1-0.1,0.3-0.2,0.5-0.2h2.4c0.2,0,0.4,0.1,0.5,0.2
			c0.1,0.1,0.2,0.3,0.2,0.5v40c0,0.2-0.1,0.4-0.2,0.5c-0.1,0.1-0.3,0.2-0.5,0.2h-2.4C325.3,1067.4,325.2,1067.4,325.1,1067.2z"/>
	</g>
	<g class="st1">
		<path d="M410.5,1067.2c-0.1-0.1-0.2-0.3-0.2-0.5v-47.5c0-0.2,0.1-0.4,0.2-0.5c0.1-0.1,0.3-0.2,0.5-0.2h2.4c0.2,0,0.4,0.1,0.5,0.2
			c0.1,0.1,0.2,0.3,0.2,0.5v47.5c0,0.2-0.1,0.4-0.2,0.5c-0.1,0.1-0.3,0.2-0.5,0.2H411C410.8,1067.4,410.7,1067.4,410.5,1067.2z
			 M417.7,1067.2c-0.1-0.1-0.2-0.3-0.2-0.5v-2.4c0-0.2,0.1-0.4,0.2-0.5c0.1-0.1,0.3-0.2,0.5-0.2h18.2c0.2,0,0.4,0.1,0.5,0.2
			c0.1,0.1,0.2,0.3,0.2,0.5v2.4c0,0.2-0.1,0.4-0.2,0.5c-0.1,0.1-0.3,0.2-0.5,0.2h-18.2C418,1067.4,417.8,1067.4,417.7,1067.2z"/>
	</g>
	<g class="st1">
		<path d="M517,1067.2c-0.1-0.1-0.2-0.3-0.2-0.5v-47.5c0-0.2,0.1-0.4,0.2-0.5c0.1-0.1,0.3-0.2,0.5-0.2h2.4c0.2,0,0.4,0.1,0.5,0.2
			c0.1,0.1,0.2,0.3,0.2,0.5v47.5c0,0.2-0.1,0.4-0.2,0.5c-0.1,0.1-0.3,0.2-0.5,0.2h-2.4C517.3,1067.4,517.2,1067.4,517,1067.2z"/>
	</g>
	<g class="st1">
		<path d="M602.9,1066.1c-2.3-1-4.1-2.2-5.5-3.6c-0.1-0.1-0.2-0.3-0.2-0.5c0-0.2,0-0.4,0.2-0.6l1.6-2c0.3-0.3,0.6-0.4,0.9-0.1
			c1.3,1.2,2.9,2.2,4.6,3.1c1.8,0.9,3.6,1.5,5.6,1.8c0.4,0.1,0.6,0.3,0.6,0.7v2.4c0,0.2-0.1,0.4-0.2,0.5c-0.1,0.1-0.3,0.2-0.5,0.1
			C607.6,1067.8,605.2,1067.1,602.9,1066.1z M614.7,1068c-0.2,0-0.3-0.1-0.4-0.2c-0.1-0.1-0.2-0.3-0.2-0.5v-2.4
			c0-0.5,0.2-0.7,0.6-0.8c2.9-0.3,5.1-1.4,6.7-3.2c1.6-1.8,2.4-4,2.4-6.7c0-2.6-0.8-4.8-2.3-6.4c-1.6-1.6-4.3-2.7-8.1-3.2l-2.1-0.4
			c-4.2-0.6-7.4-2-9.5-4.2c-2.1-2.2-3.2-5.1-3.2-8.7c0-2.5,0.5-4.7,1.4-6.7c0.9-1.9,2.2-3.5,3.9-4.7c1.7-1.2,3.7-1.9,6-2.2h0.1
			c0.2,0,0.3,0.1,0.4,0.2c0.1,0.1,0.2,0.3,0.2,0.5v2.4c0,0.4-0.2,0.6-0.6,0.7c-2.4,0.4-4.3,1.5-5.7,3.2c-1.3,1.7-2,3.8-2,6.3
			c0,2.6,0.8,4.7,2.5,6.3c1.6,1.6,4.3,2.6,8.1,3.2l2.1,0.3c4.3,0.6,7.5,2,9.5,4.2c2.1,2.2,3.1,5.1,3.1,8.8c0,2.5-0.5,4.8-1.5,6.8
			c-1,2-2.4,3.6-4.3,4.9c-1.9,1.3-4.2,2.1-7,2.3H614.7z M614.7,1021.7c-0.4-0.1-0.6-0.4-0.6-0.8v-2.4c0-0.2,0.1-0.4,0.2-0.5
			c0.1-0.1,0.3-0.2,0.5-0.1c1.9,0.2,3.8,0.6,5.6,1.3c1.8,0.7,3.3,1.5,4.6,2.6c0.3,0.3,0.4,0.6,0.1,1l-1.2,2.2
			c-0.3,0.3-0.6,0.4-0.9,0.1C620.3,1023.2,617.5,1022.1,614.7,1021.7z"/>
	</g>
	<g class="st1">
		<path d="M689.8,1067.2c-0.1-0.1-0.1-0.3,0-0.5l13.4-41c0.1-0.3,0.3-0.4,0.5-0.4c0.1,0,0.2,0,0.2,0.1c0.1,0.1,0.1,0.2,0.2,0.3
			l1.2,3.9c0.1,0.1,0.1,0.3,0.1,0.5c0,0.2,0,0.4-0.1,0.5l-6.6,20.2h12.7c0.4,0,0.6,0.2,0.8,0.6l0.8,2.4l0.1,0.3
			c0,0.1-0.1,0.3-0.2,0.4c-0.1,0.1-0.2,0.1-0.4,0.1h-14.9l-3.9,12.2c-0.1,0.3-0.2,0.5-0.3,0.6c-0.1,0.1-0.3,0.1-0.5,0.1h-2.5
			C690,1067.4,689.8,1067.4,689.8,1067.2z M720.7,1066.9l-15.2-47.5l-0.1-0.3c0-0.2,0.1-0.3,0.2-0.4c0.1-0.1,0.2-0.1,0.4-0.1h2.3
			c0.4,0,0.7,0.2,0.8,0.7l15.3,47.5l0.1,0.2c0,0.1,0,0.3-0.1,0.4c-0.1,0.1-0.2,0.1-0.4,0.1h-2.5
			C721,1067.4,720.8,1067.3,720.7,1066.9z"/>
	</g>
	<g class="st1">
		<path d="M791.9,1066.1c-2.3-1-4.1-2.2-5.5-3.6c-0.1-0.1-0.2-0.3-0.2-0.5c0-0.2,0-0.4,0.2-0.6l1.6-2c0.3-0.3,0.6-0.4,0.9-0.1
			c1.3,1.2,2.9,2.2,4.6,3.1c1.8,0.9,3.6,1.5,5.6,1.8c0.4,0.1,0.6,0.3,0.6,0.7v2.4c0,0.2-0.1,0.4-0.2,0.5c-0.1,0.1-0.3,0.2-0.5,0.1
			C796.6,1067.8,794.2,1067.1,791.9,1066.1z M803.7,1068c-0.2,0-0.3-0.1-0.4-0.2c-0.1-0.1-0.2-0.3-0.2-0.5v-2.4
			c0-0.5,0.2-0.7,0.6-0.8c2.9-0.3,5.1-1.4,6.7-3.2c1.6-1.8,2.4-4,2.4-6.7c0-2.6-0.8-4.8-2.3-6.4c-1.6-1.6-4.3-2.7-8.1-3.2l-2.1-0.4
			c-4.2-0.6-7.4-2-9.5-4.2c-2.1-2.2-3.2-5.1-3.2-8.7c0-2.5,0.5-4.7,1.4-6.7c0.9-1.9,2.2-3.5,3.9-4.7c1.7-1.2,3.7-1.9,6-2.2h0.1
			c0.2,0,0.3,0.1,0.4,0.2c0.1,0.1,0.2,0.3,0.2,0.5v2.4c0,0.4-0.2,0.6-0.6,0.7c-2.4,0.4-4.3,1.5-5.7,3.2c-1.3,1.7-2,3.8-2,6.3
			c0,2.6,0.8,4.7,2.5,6.3c1.6,1.6,4.3,2.6,8.1,3.2l2.1,0.3c4.3,0.6,7.5,2,9.5,4.2c2.1,2.2,3.1,5.1,3.1,8.8c0,2.5-0.5,4.8-1.5,6.8
			c-1,2-2.4,3.6-4.3,4.9c-1.9,1.3-4.2,2.1-7,2.3H803.7z M803.7,1021.7c-0.4-0.1-0.6-0.4-0.6-0.8v-2.4c0-0.2,0.1-0.4,0.2-0.5
			c0.1-0.1,0.3-0.2,0.5-0.1c1.9,0.2,3.8,0.6,5.6,1.3c1.8,0.7,3.3,1.5,4.6,2.6c0.3,0.3,0.4,0.6,0.1,1l-1.2,2.2
			c-0.3,0.3-0.6,0.4-0.9,0.1C809.3,1023.2,806.5,1022.1,803.7,1021.7z"/>
	</g>
	<g class="st1">
		<path d="M878.8,1067.2c-0.1-0.1-0.1-0.3,0-0.5l13.4-41c0.1-0.3,0.3-0.4,0.5-0.4c0.1,0,0.2,0,0.2,0.1c0.1,0.1,0.1,0.2,0.2,0.3
			l1.2,3.9c0.1,0.1,0.1,0.3,0.1,0.5c0,0.2,0,0.4-0.1,0.5l-6.6,20.2h12.7c0.4,0,0.6,0.2,0.8,0.6l0.8,2.4l0.1,0.3
			c0,0.1-0.1,0.3-0.2,0.4c-0.1,0.1-0.2,0.1-0.4,0.1h-14.9l-3.9,12.2c-0.1,0.3-0.2,0.5-0.3,0.6c-0.1,0.1-0.3,0.1-0.5,0.1h-2.5
			C879,1067.4,878.8,1067.4,878.8,1067.2z M909.7,1066.9l-15.2-47.5l-0.1-0.3c0-0.2,0.1-0.3,0.2-0.4c0.1-0.1,0.2-0.1,0.4-0.1h2.3
			c0.4,0,0.7,0.2,0.8,0.7l15.3,47.5l0.1,0.2c0,0.1,0,0.3-0.1,0.4c-0.1,0.1-0.2,0.1-0.4,0.1h-2.5
			C910,1067.4,909.8,1067.3,909.7,1066.9z"/>
	</g>
	<g class="st1">
		<path d="M977.5,1067.2c-0.1-0.1-0.2-0.3-0.2-0.5v-37.1c0-0.2,0-0.3,0.1-0.5c0.1-0.1,0.1-0.2,0.2-0.2c0.2,0,0.3,0.2,0.5,0.5
			l2.5,6.3c0.1,0.3,0.2,0.6,0.2,0.9v30.1c0,0.2-0.1,0.4-0.2,0.5c-0.1,0.1-0.3,0.2-0.5,0.2H978
			C977.8,1067.4,977.6,1067.4,977.5,1067.2z M994.4,1060c-0.2-0.1-0.3-0.3-0.4-0.6l-16.4-40c0-0.1-0.1-0.2-0.1-0.4
			c0-0.3,0.2-0.4,0.5-0.4h2.4c0.4,0,0.7,0.2,0.9,0.7l16,39.5c0,0.1,0.1,0.2,0.1,0.4c0,0.1,0,0.2,0,0.3c0,0.1-0.1,0.2-0.1,0.2
			l-0.1,0.1c-0.1,0.3-0.4,0.4-0.7,0.4h-1.4C994.8,1060.2,994.5,1060.1,994.4,1060z M1010.8,1067.2c-0.1-0.1-0.2-0.3-0.2-0.5V1028
			h-0.2l-10.6,25.8c0,0.3-0.2,0.4-0.5,0.4c-0.2,0-0.3-0.1-0.5-0.4l-1.1-2.8c-0.1-0.1-0.1-0.3-0.1-0.5c0-0.2,0-0.4,0.1-0.5l12.3-30.8
			c0.2-0.5,0.5-0.7,1-0.7h2.3c0.2,0,0.4,0.1,0.5,0.2c0.1,0.1,0.2,0.3,0.2,0.5v47.5c0,0.2-0.1,0.4-0.2,0.5c-0.1,0.1-0.3,0.2-0.5,0.2
			h-2.2C1011.1,1067.4,1010.9,1067.4,1010.8,1067.2z"/>
	</g>
	<g class="st1">
		<path d="M1072,1067.2c-0.1-0.1-0.2-0.3-0.2-0.5v-47.5c0-0.2,0.1-0.4,0.2-0.5c0.1-0.1,0.3-0.2,0.5-0.2h2.4c0.2,0,0.4,0.1,0.5,0.2
			c0.1,0.1,0.2,0.3,0.2,0.5v47.5c0,0.2-0.1,0.4-0.2,0.5c-0.1,0.1-0.3,0.2-0.5,0.2h-2.4C1072.3,1067.4,1072.1,1067.4,1072,1067.2z
			 M1079.2,1046c-0.1-0.1-0.2-0.3-0.2-0.5v-2.4c0-0.2,0.1-0.4,0.2-0.5c0.1-0.1,0.3-0.2,0.5-0.2h7.5c3.2,0,5.7-0.9,7.4-2.6
			c1.7-1.8,2.6-4.2,2.6-7.5c0-3.2-0.9-5.6-2.6-7.4c-1.7-1.8-4.2-2.6-7.4-2.6h-7.5c-0.2,0-0.3-0.1-0.5-0.2c-0.1-0.1-0.2-0.3-0.2-0.5
			v-2.4c0-0.2,0.1-0.4,0.2-0.5c0.1-0.1,0.3-0.2,0.5-0.2h7.6c2.8,0,5.2,0.6,7.2,1.7c2.1,1.1,3.6,2.7,4.7,4.8c1.1,2.1,1.6,4.5,1.6,7.3
			s-0.5,5.3-1.6,7.4c-1.1,2.1-2.7,3.7-4.7,4.8c-2.1,1.1-4.5,1.7-7.2,1.7h-7.6C1079.4,1046.2,1079.3,1046.1,1079.2,1046z"/>
	</g>
	<g class="st1">
		<path d="M1165.5,1067.2c-0.1-0.1-0.2-0.3-0.2-0.5v-37.1c0-0.2,0-0.3,0.1-0.5c0.1-0.1,0.1-0.2,0.2-0.2c0.2,0,0.3,0.2,0.5,0.5
			l2.5,6.3c0.1,0.3,0.2,0.6,0.2,0.9v30.1c0,0.2-0.1,0.4-0.2,0.5c-0.1,0.1-0.3,0.2-0.5,0.2h-2.2
			C1165.8,1067.4,1165.6,1067.4,1165.5,1067.2z M1182.4,1060c-0.2-0.1-0.3-0.3-0.4-0.6l-16.4-40c0-0.1-0.1-0.2-0.1-0.4
			c0-0.3,0.2-0.4,0.5-0.4h2.4c0.4,0,0.7,0.2,0.9,0.7l16,39.5c0,0.1,0.1,0.2,0.1,0.4c0,0.1,0,0.2,0,0.3c0,0.1-0.1,0.2-0.1,0.2
			l-0.1,0.1c-0.1,0.3-0.4,0.4-0.7,0.4h-1.4C1182.8,1060.2,1182.5,1060.1,1182.4,1060z M1198.8,1067.2c-0.1-0.1-0.2-0.3-0.2-0.5V1028
			h-0.2l-10.6,25.8c0,0.3-0.2,0.4-0.5,0.4c-0.2,0-0.3-0.1-0.5-0.4l-1.1-2.8c-0.1-0.1-0.1-0.3-0.1-0.5c0-0.2,0-0.4,0.1-0.5l12.3-30.8
			c0.2-0.5,0.5-0.7,1-0.7h2.3c0.2,0,0.4,0.1,0.5,0.2c0.1,0.1,0.2,0.3,0.2,0.5v47.5c0,0.2-0.1,0.4-0.2,0.5c-0.1,0.1-0.3,0.2-0.5,0.2
			h-2.2C1199.1,1067.4,1198.9,1067.4,1198.8,1067.2z"/>
	</g>
	<g class="st1">
		<path d="M217.3,1183.5c-0.1-0.1-0.1-0.3,0-0.5l13.4-41c0.1-0.3,0.3-0.4,0.5-0.4c0.1,0,0.2,0,0.2,0.1s0.1,0.2,0.2,0.3l1.2,3.9
			c0.1,0.1,0.1,0.3,0.1,0.5c0,0.2,0,0.4-0.1,0.5l-6.6,20.2h12.7c0.4,0,0.6,0.2,0.8,0.6l0.8,2.4l0.1,0.3c0,0.1-0.1,0.3-0.2,0.4
			c-0.1,0.1-0.2,0.1-0.4,0.1H225l-3.9,12.2c-0.1,0.3-0.2,0.5-0.3,0.6c-0.1,0.1-0.3,0.1-0.5,0.1h-2.5
			C217.5,1183.7,217.3,1183.6,217.3,1183.5z M248.2,1183.1l-15.2-47.5l-0.1-0.3c0-0.2,0.1-0.3,0.2-0.4c0.1-0.1,0.2-0.1,0.4-0.1h2.3
			c0.4,0,0.6,0.2,0.8,0.7l15.3,47.5l0.1,0.2c0,0.1,0,0.3-0.1,0.4c-0.1,0.1-0.2,0.1-0.4,0.1h-2.5
			C248.5,1183.7,248.3,1183.5,248.2,1183.1z"/>
	</g>
	<g class="st1">
		<path d="M319.5,1181c-1.9-1.8-3.4-4.3-4.3-7.5c-0.4-1.3-0.7-3-0.9-5.1c-0.2-2.1-0.3-5.2-0.3-9.3c0-4.1,0.1-7.2,0.3-9.3
			c0.2-2.1,0.5-3.8,0.9-5.1c1-3.2,2.4-5.7,4.3-7.5c1.9-1.8,4.3-2.9,7.1-3.3h0.1c0.2,0,0.3,0.1,0.4,0.2c0.1,0.1,0.2,0.3,0.2,0.5v2.4
			c0,0.4-0.2,0.7-0.6,0.8c-2,0.3-3.6,1.2-5,2.5c-1.3,1.3-2.3,3.1-3.1,5.4c-0.3,1.1-0.5,2.6-0.7,4.5c-0.2,1.9-0.3,4.9-0.3,8.7
			c0,3.9,0.1,6.8,0.3,8.7c0.2,1.9,0.4,3.4,0.7,4.5c0.7,2.3,1.8,4.1,3.1,5.5c1.3,1.3,3,2.2,5,2.5c0.4,0.1,0.6,0.3,0.6,0.7v2.4
			c0,0.2-0.1,0.4-0.2,0.5c-0.1,0.1-0.3,0.2-0.5,0.1C323.8,1183.9,321.4,1182.8,319.5,1181z M339.8,1145.2c-0.3,0-0.5-0.1-0.6-0.4
			c-1.9-3.8-4.5-6.1-7.9-6.8c-0.4-0.1-0.6-0.3-0.6-0.7v-2.4c0-0.2,0.1-0.4,0.2-0.6c0.1-0.1,0.3-0.2,0.5-0.1c2.5,0.4,4.6,1.3,6.5,2.8
			c1.9,1.5,3.3,3.5,4.4,6c0,0.1,0.1,0.2,0.1,0.4c0,0.2-0.1,0.4-0.3,0.5l-2.1,1.2C340,1145.1,339.9,1145.2,339.8,1145.2z
			 M331.4,1184.3c-0.2,0-0.3-0.1-0.4-0.2c-0.1-0.1-0.2-0.3-0.2-0.5v-2.4c0-0.4,0.2-0.7,0.6-0.7c3.4-0.7,6-2.9,7.9-6.8
			c0.1-0.2,0.2-0.3,0.4-0.4c0.2-0.1,0.3-0.1,0.5,0l2.1,1.2c0.3,0.2,0.4,0.5,0.2,0.9c-1.1,2.5-2.6,4.6-4.4,6c-1.9,1.5-4,2.4-6.5,2.8
			H331.4z"/>
	</g>
	<g class="st1">
		<path d="M430.7,1182.2c0.1,0.1,0.2,0.3,0.2,0.5c0,0.2-0.1,0.4-0.4,0.5c-1.9,0.8-4.1,1.2-6.4,1.2c-3.6,0-6.7-0.9-9.1-2.8
			c-2.4-1.8-4.1-4.6-5.2-8.2c-0.4-1.3-0.7-3-0.9-5.1c-0.2-2.1-0.3-5.1-0.3-9.1c0-4,0.1-7.1,0.3-9.1c0.2-2.1,0.5-3.8,0.9-5.1
			c1-3.2,2.4-5.7,4.4-7.5c2-1.8,4.5-2.9,7.4-3.3h0.1c0.2,0,0.3,0.1,0.4,0.2c0.1,0.1,0.2,0.3,0.2,0.5v2.4c0,0.4-0.2,0.6-0.6,0.7
			c-4.2,0.8-7,3.5-8.4,8.1c-0.3,1.1-0.6,2.7-0.8,4.6c-0.2,2-0.3,4.8-0.3,8.5c0,3.6,0.1,6.5,0.3,8.5s0.5,3.5,0.8,4.6
			c1.6,5.5,5.2,8.3,10.7,8.3c1.4,0,2.6-0.2,3.6-0.5c0.3-0.1,0.6-0.1,0.7-0.1c0.3,0,0.6,0.1,0.6,0.3L430.7,1182.2z M440.7,1184.3
			l-1.6,1.7c-0.1,0.1-0.3,0.2-0.5,0.3c-0.2,0-0.3-0.1-0.5-0.3l-12.1-14.3c-0.3-0.3-0.3-0.6,0-1l1.5-1.7c0.3-0.3,0.6-0.3,0.9,0
			l5.1,5.9c0.3-0.5,0.5-1,0.6-1.5s0.4-1.1,0.6-1.8c0.6-2.6,1-6.8,1-12.5c0-3.6-0.1-6.4-0.3-8.4c-0.2-2-0.5-3.6-0.8-4.7
			c-1.4-4.7-4.2-7.4-8.4-8.1c-0.4-0.1-0.6-0.3-0.6-0.7v-2.4c0-0.2,0.1-0.4,0.2-0.5c0.1-0.1,0.3-0.2,0.5-0.1c2.9,0.4,5.4,1.5,7.4,3.3
			s3.5,4.3,4.5,7.5c0.4,1.4,0.7,3.1,0.9,5.2c0.2,2.1,0.3,5.1,0.3,9.1c0,3.9-0.1,6.9-0.3,9c-0.2,2.1-0.5,3.8-0.9,5.2
			c-0.3,1-0.6,1.8-0.9,2.4c-0.3,0.7-0.7,1.4-1.2,2.2l4.5,5.3C441,1183.7,441,1184,440.7,1184.3z"/>
	</g>
	<g class="st1">
		<path d="M507.7,1179.1c-2.2-3-3.3-7.1-3.3-12.4v-31.3c0-0.2,0.1-0.4,0.2-0.5c0.1-0.1,0.3-0.2,0.5-0.2h2.4c0.2,0,0.4,0.1,0.5,0.2
			c0.1,0.1,0.2,0.3,0.2,0.5v31.3c0,4,0.8,7.2,2.3,9.5c1.5,2.3,3.8,3.7,6.7,4.2c0.4,0,0.6,0.3,0.6,0.7v2.4c0,0.2-0.1,0.4-0.2,0.5
			c-0.1,0.1-0.3,0.2-0.5,0.1C512.9,1183.8,509.8,1182.1,507.7,1179.1z M521.7,1184.3c-0.2,0-0.3-0.1-0.4-0.2
			c-0.1-0.1-0.2-0.3-0.2-0.5v-2.4c0-0.4,0.2-0.7,0.6-0.7c2.9-0.5,5.1-1.9,6.7-4.2c1.5-2.3,2.3-5.5,2.3-9.5v-31.3
			c0-0.2,0.1-0.4,0.2-0.5c0.1-0.1,0.3-0.2,0.5-0.2h2.4c0.2,0,0.4,0.1,0.5,0.2c0.1,0.1,0.2,0.3,0.2,0.5v31.3c0,5.3-1.1,9.4-3.2,12.3
			c-2.2,3-5.3,4.7-9.3,5.1H521.7z"/>
	</g>
	<g class="st1">
		<path d="M595.3,1183.5c-0.1-0.1-0.1-0.3,0-0.5l13.4-41c0.1-0.3,0.3-0.4,0.5-0.4c0.1,0,0.2,0,0.2,0.1c0.1,0.1,0.1,0.2,0.2,0.3
			l1.2,3.9c0.1,0.1,0.1,0.3,0.1,0.5c0,0.2,0,0.4-0.1,0.5l-6.6,20.2h12.7c0.4,0,0.6,0.2,0.8,0.6l0.8,2.4l0.1,0.3
			c0,0.1-0.1,0.3-0.2,0.4c-0.1,0.1-0.2,0.1-0.4,0.1H603l-3.9,12.2c-0.1,0.3-0.2,0.5-0.3,0.6c-0.1,0.1-0.3,0.1-0.5,0.1h-2.5
			C595.5,1183.7,595.3,1183.6,595.3,1183.5z M626.2,1183.1l-15.2-47.5l-0.1-0.3c0-0.2,0.1-0.3,0.2-0.4c0.1-0.1,0.2-0.1,0.4-0.1h2.3
			c0.4,0,0.7,0.2,0.8,0.7l15.3,47.5l0.1,0.2c0,0.1,0,0.3-0.1,0.4c-0.1,0.1-0.2,0.1-0.4,0.1h-2.5
			C626.5,1183.7,626.3,1183.5,626.2,1183.1z"/>
	</g>
	<g class="st1">
		<path d="M694,1183.5c-0.1-0.1-0.2-0.3-0.2-0.5v-47.5c0-0.2,0.1-0.4,0.2-0.5c0.1-0.1,0.3-0.2,0.5-0.2h2.4c0.2,0,0.4,0.1,0.5,0.2
			c0.1,0.1,0.2,0.3,0.2,0.5v47.5c0,0.2-0.1,0.4-0.2,0.5c-0.1,0.1-0.3,0.2-0.5,0.2h-2.4C694.3,1183.7,694.2,1183.6,694,1183.5z
			 M701.2,1161.5c-0.1-0.1-0.2-0.3-0.2-0.5v-2.4c0-0.2,0.1-0.4,0.2-0.5c0.1-0.1,0.3-0.2,0.5-0.2h7.6c3.2,0,5.6-0.8,7.3-2.5
			s2.5-4,2.5-7.2s-0.8-5.5-2.5-7.2c-1.7-1.7-4.1-2.5-7.3-2.5h-7.6c-0.2,0-0.3-0.1-0.5-0.2c-0.1-0.1-0.2-0.3-0.2-0.5v-2.4
			c0-0.2,0.1-0.4,0.2-0.5c0.1-0.1,0.3-0.2,0.5-0.2h7.7c2.8,0,5.2,0.5,7.2,1.6s3.6,2.6,4.6,4.7c1.1,2,1.6,4.5,1.6,7.2
			c0,2.6-0.5,5-1.6,7.1c-1,2.1-2.6,3.7-4.6,4.8c-2.1,1.1-4.6,1.7-7.6,1.6h-7.3C701.4,1161.7,701.3,1161.7,701.2,1161.5z
			 M719.5,1183.5c-0.1-0.1-0.2-0.3-0.3-0.5l-7.4-17.1c-0.1-0.3-0.1-0.6,0-0.7c0.1-0.1,0.2-0.2,0.4-0.2c0.2,0,0.3-0.1,0.3-0.1
			c0.8-0.1,1.5-0.2,1.9-0.4c0.1,0,0.2-0.1,0.3-0.1c0.3,0,0.5,0.2,0.5,0.5l8,17.9c0,0.1,0.1,0.2,0.1,0.4c0,0.3-0.2,0.4-0.5,0.4H720
			C719.8,1183.7,719.6,1183.6,719.5,1183.5z"/>
	</g>
	<g class="st1">
		<path d="M783.8,1138.3c-0.1-0.1-0.2-0.3-0.2-0.5v-2.4c0-0.2,0.1-0.4,0.2-0.5c0.1-0.1,0.3-0.2,0.5-0.2h29.9c0.2,0,0.4,0.1,0.5,0.2
			c0.1,0.1,0.2,0.3,0.2,0.5v2.4c0,0.2-0.1,0.4-0.2,0.5c-0.1,0.1-0.3,0.2-0.5,0.2h-29.9C784.1,1138.5,784,1138.5,783.8,1138.3z
			 M797.5,1183.5c-0.1-0.1-0.2-0.3-0.2-0.5v-40c0-0.2,0.1-0.4,0.2-0.5c0.1-0.1,0.3-0.2,0.5-0.2h2.4c0.2,0,0.4,0.1,0.5,0.2
			c0.1,0.1,0.2,0.3,0.2,0.5v40c0,0.2-0.1,0.4-0.2,0.5c-0.1,0.1-0.3,0.2-0.5,0.2H798C797.8,1183.7,797.7,1183.6,797.5,1183.5z"/>
	</g>
	<g class="st1">
		<path d="M883,1183.5c-0.1-0.1-0.2-0.3-0.2-0.5v-47.5c0-0.2,0.1-0.4,0.2-0.5c0.1-0.1,0.3-0.2,0.5-0.2h2.4c0.2,0,0.4,0.1,0.5,0.2
			c0.1,0.1,0.2,0.3,0.2,0.5v47.5c0,0.2-0.1,0.4-0.2,0.5c-0.1,0.1-0.3,0.2-0.5,0.2h-2.4C883.3,1183.7,883.1,1183.6,883,1183.5z
			 M890.2,1138.3c-0.1-0.1-0.2-0.3-0.2-0.5v-2.4c0-0.2,0.1-0.4,0.2-0.5c0.1-0.1,0.3-0.2,0.5-0.2h18.2c0.2,0,0.4,0.1,0.5,0.2
			c0.1,0.1,0.2,0.3,0.2,0.5v2.4c0,0.2-0.1,0.4-0.2,0.5c-0.1,0.1-0.3,0.2-0.5,0.2h-18.2C890.4,1138.5,890.3,1138.5,890.2,1138.3z
			 M890.2,1160.6c-0.1-0.1-0.2-0.3-0.2-0.5v-2.4c0-0.2,0.1-0.4,0.2-0.5c0.1-0.1,0.3-0.2,0.5-0.2h15.1c0.2,0,0.4,0.1,0.5,0.2
			c0.1,0.1,0.2,0.3,0.2,0.5v2.4c0,0.2-0.1,0.4-0.2,0.5c-0.1,0.1-0.3,0.2-0.5,0.2h-15.1C890.4,1160.8,890.3,1160.7,890.2,1160.6z
			 M890.2,1183.5c-0.1-0.1-0.2-0.3-0.2-0.5v-2.4c0-0.2,0.1-0.4,0.2-0.5c0.1-0.1,0.3-0.2,0.5-0.2h18.2c0.2,0,0.4,0.1,0.5,0.2
			c0.1,0.1,0.2,0.3,0.2,0.5v2.4c0,0.2-0.1,0.4-0.2,0.5c-0.1,0.1-0.3,0.2-0.5,0.2h-18.2C890.4,1183.7,890.3,1183.6,890.2,1183.5z"/>
	</g>
	<g class="st1">
		<path d="M977.5,1183.5c-0.1-0.1-0.2-0.3-0.2-0.5v-47.5c0-0.2,0.1-0.4,0.2-0.5c0.1-0.1,0.3-0.2,0.5-0.2h2.4c0.2,0,0.4,0.1,0.5,0.2
			c0.1,0.1,0.2,0.3,0.2,0.5v47.5c0,0.2-0.1,0.4-0.2,0.5c-0.1,0.1-0.3,0.2-0.5,0.2H978C977.8,1183.7,977.6,1183.6,977.5,1183.5z
			 M984.7,1161.5c-0.1-0.1-0.2-0.3-0.2-0.5v-2.4c0-0.2,0.1-0.4,0.2-0.5c0.1-0.1,0.3-0.2,0.5-0.2h7.6c3.2,0,5.6-0.8,7.3-2.5
			s2.5-4,2.5-7.2s-0.8-5.5-2.5-7.2c-1.7-1.7-4.1-2.5-7.3-2.5h-7.6c-0.2,0-0.3-0.1-0.5-0.2c-0.1-0.1-0.2-0.3-0.2-0.5v-2.4
			c0-0.2,0.1-0.4,0.2-0.5c0.1-0.1,0.3-0.2,0.5-0.2h7.7c2.8,0,5.2,0.5,7.2,1.6s3.6,2.6,4.6,4.7c1.1,2,1.6,4.5,1.6,7.2
			c0,2.6-0.5,5-1.6,7.1c-1,2.1-2.6,3.7-4.6,4.8c-2.1,1.1-4.6,1.7-7.6,1.6h-7.3C984.9,1161.7,984.8,1161.7,984.7,1161.5z
			 M1003,1183.5c-0.1-0.1-0.2-0.3-0.3-0.5l-7.4-17.1c-0.1-0.3-0.1-0.6,0-0.7c0.1-0.1,0.2-0.2,0.4-0.2c0.2,0,0.3-0.1,0.3-0.1
			c0.8-0.1,1.5-0.2,1.9-0.4c0.1,0,0.2-0.1,0.3-0.1c0.3,0,0.5,0.2,0.5,0.5l8,17.9c0,0.1,0.1,0.2,0.1,0.4c0,0.3-0.2,0.4-0.5,0.4h-2.9
			C1003.3,1183.7,1003.1,1183.6,1003,1183.5z"/>
	</g>
	<g class="st1">
		<path d="M1072,1183.5c-0.1-0.1-0.2-0.3-0.2-0.5v-47.5c0-0.2,0.1-0.4,0.2-0.5c0.1-0.1,0.3-0.2,0.5-0.2h2.4c0.2,0,0.4,0.1,0.5,0.2
			c0.1,0.1,0.2,0.3,0.2,0.5v47.5c0,0.2-0.1,0.4-0.2,0.5c-0.1,0.1-0.3,0.2-0.5,0.2h-2.4C1072.3,1183.7,1072.1,1183.6,1072,1183.5z
			 M1079.1,1183.5c-0.1-0.1-0.2-0.3-0.2-0.5v-2.4c0-0.2,0.1-0.4,0.2-0.5c0.1-0.1,0.3-0.2,0.5-0.2h6.2c2.9,0,5.3-0.6,7.2-1.8
			c1.8-1.2,3.2-3,3.9-5.6c0.4-1.3,0.7-2.9,0.8-4.7c0.2-1.8,0.2-4.7,0.2-8.6c0-3.9-0.1-6.8-0.2-8.6c-0.2-1.8-0.4-3.4-0.8-4.7
			c-0.8-2.5-2.1-4.4-3.9-5.6c-1.8-1.2-4.2-1.8-7.2-1.8h-6.2c-0.2,0-0.3-0.1-0.5-0.2c-0.1-0.1-0.2-0.3-0.2-0.5v-2.4
			c0-0.2,0.1-0.4,0.2-0.5c0.1-0.1,0.3-0.2,0.5-0.2h6.8c7.4,0,12.1,3.3,14.1,9.9c0.4,1.5,0.7,3.2,0.9,5.2c0.2,2,0.3,5.1,0.3,9.4
			c0,4.3-0.1,7.4-0.3,9.4c-0.2,2-0.5,3.7-0.9,5.2c-1.9,6.6-6.6,9.9-14.1,9.9h-6.8C1079.4,1183.7,1079.2,1183.6,1079.1,1183.5z"/>
	</g>
	<g class="st1">
		<path d="M1170,1181c-1.9-1.8-3.4-4.3-4.3-7.5c-0.4-1.3-0.7-3-0.9-5.1c-0.2-2.1-0.3-5.2-0.3-9.3c0-4.1,0.1-7.2,0.3-9.3
			c0.2-2.1,0.5-3.8,0.9-5.1c1-3.2,2.4-5.7,4.3-7.5s4.3-2.9,7.1-3.3h0.1c0.2,0,0.3,0.1,0.4,0.2c0.1,0.1,0.2,0.3,0.2,0.5v2.4
			c0,0.4-0.2,0.7-0.6,0.8c-2,0.3-3.6,1.2-5,2.5c-1.3,1.3-2.3,3.1-3.1,5.4c-0.3,1.1-0.5,2.6-0.7,4.5c-0.2,1.9-0.3,4.9-0.3,8.7
			c0,3.9,0.1,6.8,0.3,8.7c0.2,1.9,0.4,3.4,0.7,4.5c0.7,2.3,1.8,4.1,3.1,5.5c1.3,1.3,3,2.2,5,2.5c0.4,0.1,0.6,0.3,0.6,0.7v2.4
			c0,0.2-0.1,0.4-0.2,0.5c-0.1,0.1-0.3,0.2-0.5,0.1C1174.3,1183.9,1171.9,1182.8,1170,1181z M1190.3,1145.2c-0.3,0-0.5-0.1-0.6-0.4
			c-1.9-3.8-4.5-6.1-7.9-6.8c-0.4-0.1-0.6-0.3-0.6-0.7v-2.4c0-0.2,0.1-0.4,0.2-0.6c0.1-0.1,0.3-0.2,0.5-0.1c2.5,0.4,4.6,1.3,6.5,2.8
			c1.9,1.5,3.3,3.5,4.4,6c0,0.1,0.1,0.2,0.1,0.4c0,0.2-0.1,0.4-0.3,0.5l-2.1,1.2C1190.5,1145.1,1190.4,1145.2,1190.3,1145.2z
			 M1181.8,1184.3c-0.2,0-0.3-0.1-0.4-0.2c-0.1-0.1-0.2-0.3-0.2-0.5v-2.4c0-0.4,0.2-0.7,0.6-0.7c3.4-0.7,6-2.9,7.9-6.8
			c0.1-0.2,0.2-0.3,0.4-0.4c0.2-0.1,0.3-0.1,0.5,0l2.1,1.2c0.3,0.2,0.4,0.5,0.2,0.9c-1.1,2.5-2.6,4.6-4.4,6c-1.9,1.5-4,2.4-6.5,2.8
			H1181.8z"/>
	</g>
	<g class="st1">
		<path d="M216.8,1254.6c-0.1-0.1-0.2-0.3-0.2-0.5v-2.4c0-0.2,0.1-0.4,0.2-0.5c0.1-0.1,0.3-0.2,0.5-0.2h29.9c0.2,0,0.4,0.1,0.5,0.2
			c0.1,0.1,0.2,0.3,0.2,0.5v2.4c0,0.2-0.1,0.4-0.2,0.5c-0.1,0.1-0.3,0.2-0.5,0.2h-29.9C217.1,1254.8,217,1254.7,216.8,1254.6z
			 M230.6,1299.7c-0.1-0.1-0.2-0.3-0.2-0.5v-40c0-0.2,0.1-0.4,0.2-0.5c0.1-0.1,0.3-0.2,0.5-0.2h2.4c0.2,0,0.4,0.1,0.5,0.2
			c0.1,0.1,0.2,0.3,0.2,0.5v40c0,0.2-0.1,0.4-0.2,0.5c-0.1,0.1-0.3,0.2-0.5,0.2H231C230.8,1299.9,230.7,1299.9,230.6,1299.7z"/>
	</g>
	<g class="st1">
		<path d="M316.6,1299.7c-0.1-0.1-0.2-0.3-0.3-0.5l-10.5-47.4l-0.1-0.3c0-0.1,0.1-0.3,0.2-0.4c0.1-0.1,0.2-0.1,0.4-0.1h2.3
			c0.3,0,0.5,0,0.6,0.1c0.1,0.1,0.2,0.3,0.3,0.6l10.1,47.1c0,0.1,0.1,0.3,0.1,0.5c0,0.4-0.2,0.6-0.6,0.6H317
			C316.9,1299.9,316.7,1299.9,316.6,1299.7z M341,1299.7c-0.1-0.1-0.2-0.3-0.3-0.5l-10.3-40.4h-0.1l-8.4,32.5c0,0.1-0.1,0.3-0.2,0.4
			c-0.1,0.1-0.1,0.1-0.2,0.1c-0.2,0-0.3-0.2-0.4-0.5l-1-5c0-0.3,0-0.6,0-0.9l8.5-33.8c0.1-0.2,0.2-0.4,0.3-0.5
			c0.1-0.1,0.3-0.2,0.5-0.2h1.9c0.2,0,0.4,0.1,0.5,0.2c0.1,0.1,0.2,0.3,0.3,0.5l12,47.1l0.1,0.4c0,0.5-0.2,0.8-0.6,0.8h-2.1
			C341.2,1299.9,341.1,1299.9,341,1299.7z M343.9,1286.5c-0.1-0.4-0.1-0.7-0.1-0.9l7.2-33.9c0-0.3,0.1-0.5,0.3-0.6
			c0.1-0.1,0.3-0.1,0.6-0.1h2.3c0.2,0,0.4,0.1,0.5,0.2c0.1,0.1,0.1,0.3,0.1,0.6l-8.8,39.6c0,0.1-0.1,0.3-0.2,0.4
			c-0.1,0.1-0.1,0.1-0.2,0.1c-0.2,0-0.3-0.1-0.4-0.4L343.9,1286.5z"/>
	</g>
	<g class="st1">
		<path d="M410.5,1299.7c-0.1-0.1-0.2-0.3-0.2-0.5v-47.5c0-0.2,0.1-0.4,0.2-0.5c0.1-0.1,0.3-0.2,0.5-0.2h2.4c0.2,0,0.4,0.1,0.5,0.2
			c0.1,0.1,0.2,0.3,0.2,0.5v47.5c0,0.2-0.1,0.4-0.2,0.5c-0.1,0.1-0.3,0.2-0.5,0.2H411C410.8,1299.9,410.7,1299.9,410.5,1299.7z
			 M417.7,1254.6c-0.1-0.1-0.2-0.3-0.2-0.5v-2.4c0-0.2,0.1-0.4,0.2-0.5c0.1-0.1,0.3-0.2,0.5-0.2h18.2c0.2,0,0.4,0.1,0.5,0.2
			c0.1,0.1,0.2,0.3,0.2,0.5v2.4c0,0.2-0.1,0.4-0.2,0.5c-0.1,0.1-0.3,0.2-0.5,0.2h-18.2C418,1254.8,417.8,1254.7,417.7,1254.6z
			 M417.7,1276.8c-0.1-0.1-0.2-0.3-0.2-0.5v-2.4c0-0.2,0.1-0.4,0.2-0.5c0.1-0.1,0.3-0.2,0.5-0.2h15.1c0.2,0,0.4,0.1,0.5,0.2
			c0.1,0.1,0.2,0.3,0.2,0.5v2.4c0,0.2-0.1,0.4-0.2,0.5c-0.1,0.1-0.3,0.2-0.5,0.2h-15.1C418,1277,417.8,1277,417.7,1276.8z
			 M417.7,1299.7c-0.1-0.1-0.2-0.3-0.2-0.5v-2.4c0-0.2,0.1-0.4,0.2-0.5c0.1-0.1,0.3-0.2,0.5-0.2h18.2c0.2,0,0.4,0.1,0.5,0.2
			c0.1,0.1,0.2,0.3,0.2,0.5v2.4c0,0.2-0.1,0.4-0.2,0.5c-0.1,0.1-0.3,0.2-0.5,0.2h-18.2C418,1299.9,417.8,1299.9,417.7,1299.7z"/>
	</g>
	<g class="st1">
		<path d="M531.4,1299.8c-0.2-0.1-0.4-0.3-0.5-0.6l-25.9-46.6c-0.2-0.2-0.3-0.5-0.3-0.9c0-0.5,0.2-0.8,0.7-0.8h2.1
			c0.3,0,0.5,0,0.7,0.1c0.2,0.1,0.3,0.3,0.5,0.6l25.9,46.8c0.1,0.1,0.2,0.3,0.2,0.5c0,0.2,0,0.3,0,0.5c-0.1,0.3-0.3,0.5-0.6,0.5H532
			C531.8,1299.9,531.6,1299.9,531.4,1299.8z M505,1299.7c-0.1-0.1-0.2-0.3-0.2-0.5v-38.8c0-0.4,0.1-0.6,0.3-0.6
			c0.2,0,0.4,0.1,0.5,0.4l2.5,4.5c0.1,0.3,0.2,0.6,0.2,0.9v33.6c0,0.2-0.1,0.4-0.2,0.5c-0.1,0.1-0.3,0.2-0.5,0.2h-2.2
			C505.3,1299.9,505.2,1299.9,505,1299.7z M531.6,1286.1c-0.1-0.3-0.2-0.6-0.2-0.9v-33.5c0-0.2,0.1-0.4,0.2-0.5
			c0.1-0.1,0.3-0.2,0.5-0.2h2.2c0.2,0,0.4,0.1,0.5,0.2c0.1,0.1,0.2,0.3,0.2,0.5v38.7c0,0.4-0.1,0.6-0.3,0.6c-0.2,0-0.3-0.1-0.5-0.4
			L531.6,1286.1z"/>
	</g>
	<g class="st1">
		<path d="M594.8,1254.6c-0.1-0.1-0.2-0.3-0.2-0.5v-2.4c0-0.2,0.1-0.4,0.2-0.5c0.1-0.1,0.3-0.2,0.5-0.2h29.9c0.2,0,0.4,0.1,0.5,0.2
			c0.1,0.1,0.2,0.3,0.2,0.5v2.4c0,0.2-0.1,0.4-0.2,0.5c-0.1,0.1-0.3,0.2-0.5,0.2h-29.9C595.1,1254.8,595,1254.7,594.8,1254.6z
			 M608.5,1299.7c-0.1-0.1-0.2-0.3-0.2-0.5v-40c0-0.2,0.1-0.4,0.2-0.5c0.1-0.1,0.3-0.2,0.5-0.2h2.4c0.2,0,0.4,0.1,0.5,0.2
			c0.1,0.1,0.2,0.3,0.2,0.5v40c0,0.2-0.1,0.4-0.2,0.5c-0.1,0.1-0.3,0.2-0.5,0.2H609C608.8,1299.9,608.7,1299.9,608.5,1299.7z"/>
	</g>
	<g class="st1">
		<path d="M702.9,1299.7c-0.1-0.1-0.2-0.3-0.2-0.5v-19.4l-13.1-27.6c-0.1-0.2-0.2-0.5-0.2-0.6c0-0.1,0-0.3,0.1-0.4
			c0.1-0.1,0.2-0.2,0.4-0.2h2.5c0.2,0,0.4,0,0.6,0.1c0.2,0.1,0.3,0.3,0.4,0.6l12.8,26.7c0.1,0.3,0.2,0.6,0.2,0.9v19.9
			c0,0.2-0.1,0.4-0.2,0.5c-0.1,0.1-0.3,0.2-0.5,0.2h-2.3C703.1,1299.9,703,1299.9,702.9,1299.7z M706.6,1271.9c-0.1-0.3-0.1-0.6,0-1
			l9.1-19.2c0.1-0.3,0.3-0.5,0.4-0.6c0.1-0.1,0.3-0.1,0.6-0.1h2.4c0.3,0,0.5,0.1,0.6,0.4c0,0.2,0,0.4-0.1,0.5
			c-0.1,0.1-0.1,0.2-0.2,0.3l-10.6,22.5c-0.1,0.3-0.3,0.4-0.5,0.4s-0.3-0.1-0.5-0.4L706.6,1271.9z"/>
	</g>
	<g class="st1">
		<path d="M788.5,1299.7c-0.1-0.1-0.2-0.3-0.2-0.5v-47.5c0-0.2,0.1-0.4,0.2-0.5c0.1-0.1,0.3-0.2,0.5-0.2h2.4c0.2,0,0.4,0.1,0.5,0.2
			c0.1,0.1,0.2,0.3,0.2,0.5v47.5c0,0.2-0.1,0.4-0.2,0.5c-0.1,0.1-0.3,0.2-0.5,0.2H789C788.8,1299.9,788.7,1299.9,788.5,1299.7z
			 M795.7,1254.6c-0.1-0.1-0.2-0.3-0.2-0.5v-2.4c0-0.2,0.1-0.4,0.2-0.5c0.1-0.1,0.3-0.2,0.5-0.2h18.2c0.2,0,0.4,0.1,0.5,0.2
			c0.1,0.1,0.2,0.3,0.2,0.5v2.4c0,0.2-0.1,0.4-0.2,0.5c-0.1,0.1-0.3,0.2-0.5,0.2h-18.2C795.9,1254.8,795.8,1254.7,795.7,1254.6z
			 M795.7,1277.3c-0.1-0.1-0.2-0.3-0.2-0.5v-2.4c0-0.2,0.1-0.4,0.2-0.5c0.1-0.1,0.3-0.2,0.5-0.2h15.1c0.2,0,0.4,0.1,0.5,0.2
			c0.1,0.1,0.2,0.3,0.2,0.5v2.4c0,0.2-0.1,0.4-0.2,0.5c-0.1,0.1-0.3,0.2-0.5,0.2h-15.1C795.9,1277.5,795.8,1277.5,795.7,1277.3z"/>
	</g>
	<g class="st1">
		<path d="M895,1299.7c-0.1-0.1-0.2-0.3-0.2-0.5v-47.5c0-0.2,0.1-0.4,0.2-0.5c0.1-0.1,0.3-0.2,0.5-0.2h2.4c0.2,0,0.4,0.1,0.5,0.2
			c0.1,0.1,0.2,0.3,0.2,0.5v47.5c0,0.2-0.1,0.4-0.2,0.5c-0.1,0.1-0.3,0.2-0.5,0.2h-2.4C895.3,1299.9,895.1,1299.9,895,1299.7z"/>
	</g>
	<g class="st1">
		<path d="M987.6,1299.2L973,1252l-0.1-0.4c0-0.2,0.1-0.3,0.2-0.4c0.1-0.1,0.2-0.1,0.4-0.1h2.3c0.3,0,0.5,0,0.6,0.1
			c0.2,0.1,0.2,0.3,0.3,0.6l14.4,46.9c0.1,0.3,0.1,0.5,0.1,0.6c0,0.4-0.2,0.6-0.6,0.6h-2.1C988,1299.9,987.7,1299.7,987.6,1299.2z
			 M991.3,1288.9c0-0.1-0.1-0.3-0.1-0.5c0-0.1,0-0.4,0.1-0.8l10.7-35.9c0.1-0.3,0.2-0.5,0.3-0.6c0.1-0.1,0.3-0.1,0.6-0.1h2.4
			c0.2,0,0.4,0.1,0.5,0.3c0.1,0.2,0.1,0.4,0,0.7l-12.5,40.8c0,0.1-0.1,0.3-0.2,0.4c-0.1,0.1-0.1,0.1-0.2,0.1c-0.1,0-0.3-0.2-0.5-0.5
			L991.3,1288.9z"/>
	</g>
	<g class="st1">
		<path d="M1072,1299.7c-0.1-0.1-0.2-0.3-0.2-0.5v-47.5c0-0.2,0.1-0.4,0.2-0.5c0.1-0.1,0.3-0.2,0.5-0.2h2.4c0.2,0,0.4,0.1,0.5,0.2
			c0.1,0.1,0.2,0.3,0.2,0.5v47.5c0,0.2-0.1,0.4-0.2,0.5c-0.1,0.1-0.3,0.2-0.5,0.2h-2.4C1072.3,1299.9,1072.1,1299.9,1072,1299.7z
			 M1079.2,1254.6c-0.1-0.1-0.2-0.3-0.2-0.5v-2.4c0-0.2,0.1-0.4,0.2-0.5c0.1-0.1,0.3-0.2,0.5-0.2h18.2c0.2,0,0.4,0.1,0.5,0.2
			c0.1,0.1,0.2,0.3,0.2,0.5v2.4c0,0.2-0.1,0.4-0.2,0.5c-0.1,0.1-0.3,0.2-0.5,0.2h-18.2C1079.4,1254.8,1079.3,1254.7,1079.2,1254.6z
			 M1079.2,1276.8c-0.1-0.1-0.2-0.3-0.2-0.5v-2.4c0-0.2,0.1-0.4,0.2-0.5c0.1-0.1,0.3-0.2,0.5-0.2h15.1c0.2,0,0.4,0.1,0.5,0.2
			c0.1,0.1,0.2,0.3,0.2,0.5v2.4c0,0.2-0.1,0.4-0.2,0.5c-0.1,0.1-0.3,0.2-0.5,0.2h-15.1C1079.4,1277,1079.3,1277,1079.2,1276.8z
			 M1079.2,1299.7c-0.1-0.1-0.2-0.3-0.2-0.5v-2.4c0-0.2,0.1-0.4,0.2-0.5c0.1-0.1,0.3-0.2,0.5-0.2h18.2c0.2,0,0.4,0.1,0.5,0.2
			c0.1,0.1,0.2,0.3,0.2,0.5v2.4c0,0.2-0.1,0.4-0.2,0.5c-0.1,0.1-0.3,0.2-0.5,0.2h-18.2C1079.4,1299.9,1079.3,1299.9,1079.2,1299.7z"
			/>
	</g>
	<g class="st1">
		<path d="M1162.3,1299.7c-0.1-0.2,0-0.3,0.1-0.5l11.1-20.4c0.1-0.2,0.3-0.4,0.5-0.4c0.2,0,0.3,0.1,0.5,0.4l1.3,2.5
			c0.1,0.1,0.1,0.3,0.1,0.5c0,0.2,0,0.4-0.1,0.5l-9.3,17.1c-0.2,0.4-0.5,0.6-0.8,0.6h-2.9
			C1162.5,1299.9,1162.3,1299.8,1162.3,1299.7z M1189.6,1299.8c-0.1-0.1-0.2-0.2-0.3-0.4l-25.6-47.6l-0.1-0.4c0-0.3,0.2-0.4,0.5-0.4
			h2.9c0.2,0,0.4,0,0.5,0.1c0.1,0.1,0.3,0.2,0.4,0.4l10,18.7l15.6,28.9c0,0.1,0.1,0.2,0.1,0.4c0,0.3-0.1,0.4-0.4,0.4h-2.9
			C1189.9,1299.9,1189.8,1299.9,1189.6,1299.8z M1180,1267.4c-0.1-0.1-0.1-0.3-0.1-0.5c0-0.2,0-0.4,0.1-0.5l8-14.8
			c0.1-0.2,0.2-0.3,0.3-0.4c0.1-0.1,0.3-0.1,0.5-0.1h2.9c0.2,0,0.3,0.1,0.4,0.2c0.1,0.1,0.1,0.3,0,0.6l-9.8,18.1
			c-0.1,0.2-0.3,0.3-0.5,0.3c-0.2,0-0.3-0.1-0.5-0.3L1180,1267.4z"/>
	</g>
	<g class="st1">
		<path d="M221.5,1416c-0.1-0.1-0.2-0.3-0.2-0.5v-47.5c0-0.2,0.1-0.4,0.2-0.5c0.1-0.1,0.3-0.2,0.5-0.2h2.4c0.2,0,0.4,0.1,0.5,0.2
			c0.1,0.1,0.2,0.3,0.2,0.5v47.5c0,0.2-0.1,0.4-0.2,0.5c-0.1,0.1-0.3,0.2-0.5,0.2H222C221.8,1416.2,221.7,1416.1,221.5,1416z
			 M228.4,1393.1c-0.1-0.1-0.2-0.3-0.2-0.5v-2.4c0-0.2,0.1-0.4,0.2-0.5c0.1-0.1,0.3-0.2,0.5-0.2h14.9c0.2,0,0.4,0.1,0.5,0.2
			c0.1,0.1,0.2,0.3,0.2,0.5v2.4c0,0.2-0.1,0.4-0.2,0.5c-0.1,0.1-0.3,0.2-0.5,0.2h-14.9C228.7,1393.3,228.5,1393.2,228.4,1393.1z
			 M247.8,1416c-0.1-0.1-0.2-0.3-0.2-0.5v-47.5c0-0.2,0.1-0.4,0.2-0.5c0.1-0.1,0.3-0.2,0.5-0.2h2.4c0.2,0,0.4,0.1,0.5,0.2
			c0.1,0.1,0.2,0.3,0.2,0.5v47.5c0,0.2-0.1,0.4-0.2,0.5c-0.1,0.1-0.3,0.2-0.5,0.2h-2.4C248.1,1416.2,248,1416.1,247.8,1416z"/>
	</g>
	<g class="st1">
		<path d="M311.8,1416c-0.1-0.1-0.1-0.3,0-0.5l13.4-41c0.1-0.3,0.3-0.4,0.5-0.4c0.1,0,0.2,0,0.2,0.1s0.1,0.2,0.2,0.3l1.2,3.9
			c0.1,0.1,0.1,0.3,0.1,0.5c0,0.2,0,0.4-0.1,0.5l-6.6,20.2h12.7c0.4,0,0.6,0.2,0.8,0.6l0.8,2.4l0.1,0.3c0,0.1-0.1,0.3-0.2,0.4
			c-0.1,0.1-0.2,0.1-0.4,0.1h-14.9l-3.9,12.2c-0.1,0.3-0.2,0.5-0.3,0.6c-0.1,0.1-0.3,0.1-0.5,0.1h-2.5
			C312,1416.2,311.8,1416.1,311.8,1416z M342.7,1415.6l-15.2-47.5l-0.1-0.3c0-0.2,0.1-0.3,0.2-0.4c0.1-0.1,0.2-0.1,0.4-0.1h2.3
			c0.4,0,0.6,0.2,0.8,0.7l15.3,47.5l0.1,0.2c0,0.1,0,0.3-0.1,0.4c-0.1,0.1-0.2,0.1-0.4,0.1h-2.5C343,1416.2,342.8,1416,342.7,1415.6
			z"/>
	</g>
	<g class="st1">
		<path d="M410.5,1416c-0.1-0.1-0.2-0.3-0.2-0.5v-47.5c0-0.2,0.1-0.4,0.2-0.5c0.1-0.1,0.3-0.2,0.5-0.2h2.4c0.2,0,0.4,0.1,0.5,0.2
			c0.1,0.1,0.2,0.3,0.2,0.5v47.5c0,0.2-0.1,0.4-0.2,0.5c-0.1,0.1-0.3,0.2-0.5,0.2H411C410.8,1416.2,410.7,1416.1,410.5,1416z
			 M417.7,1416c-0.1-0.1-0.2-0.3-0.2-0.5v-2.4c0-0.2,0.1-0.4,0.2-0.5c0.1-0.1,0.3-0.2,0.5-0.2h18.2c0.2,0,0.4,0.1,0.5,0.2
			c0.1,0.1,0.2,0.3,0.2,0.5v2.4c0,0.2-0.1,0.4-0.2,0.5c-0.1,0.1-0.3,0.2-0.5,0.2h-18.2C418,1416.2,417.8,1416.1,417.7,1416z"/>
	</g>
	<g class="st1">
		<path d="M505,1416c-0.1-0.1-0.2-0.3-0.2-0.5v-47.5c0-0.2,0.1-0.4,0.2-0.5c0.1-0.1,0.3-0.2,0.5-0.2h2.4c0.2,0,0.4,0.1,0.5,0.2
			c0.1,0.1,0.2,0.3,0.2,0.5v47.5c0,0.2-0.1,0.4-0.2,0.5c-0.1,0.1-0.3,0.2-0.5,0.2h-2.4C505.3,1416.2,505.2,1416.1,505,1416z
			 M512.2,1370.8c-0.1-0.1-0.2-0.3-0.2-0.5v-2.4c0-0.2,0.1-0.4,0.2-0.5c0.1-0.1,0.3-0.2,0.5-0.2h18.2c0.2,0,0.4,0.1,0.5,0.2
			c0.1,0.1,0.2,0.3,0.2,0.5v2.4c0,0.2-0.1,0.4-0.2,0.5c-0.1,0.1-0.3,0.2-0.5,0.2h-18.2C512.4,1371,512.3,1371,512.2,1370.8z
			 M512.2,1393.6c-0.1-0.1-0.2-0.3-0.2-0.5v-2.4c0-0.2,0.1-0.4,0.2-0.5c0.1-0.1,0.3-0.2,0.5-0.2h15.1c0.2,0,0.4,0.1,0.5,0.2
			c0.1,0.1,0.2,0.3,0.2,0.5v2.4c0,0.2-0.1,0.4-0.2,0.5c-0.1,0.1-0.3,0.2-0.5,0.2h-15.1C512.4,1393.8,512.3,1393.7,512.2,1393.6z"/>
	</g>
	<g class="st1">
		<path d="M602.9,1414.8c-2.3-1-4.1-2.2-5.5-3.6c-0.1-0.1-0.2-0.3-0.2-0.5c0-0.2,0-0.4,0.2-0.6l1.6-2c0.3-0.3,0.6-0.4,0.9-0.1
			c1.3,1.2,2.9,2.2,4.6,3.1c1.8,0.9,3.6,1.5,5.6,1.8c0.4,0.1,0.6,0.3,0.6,0.7v2.4c0,0.2-0.1,0.4-0.2,0.5c-0.1,0.1-0.3,0.2-0.5,0.1
			C607.6,1416.5,605.2,1415.9,602.9,1414.8z M614.7,1416.7c-0.2,0-0.3-0.1-0.4-0.2c-0.1-0.1-0.2-0.3-0.2-0.5v-2.4
			c0-0.5,0.2-0.7,0.6-0.8c2.9-0.3,5.1-1.4,6.7-3.2c1.6-1.8,2.4-4,2.4-6.7c0-2.6-0.8-4.8-2.3-6.4c-1.6-1.6-4.3-2.7-8.1-3.2l-2.1-0.4
			c-4.2-0.6-7.4-2-9.5-4.2c-2.1-2.2-3.2-5.1-3.2-8.7c0-2.5,0.5-4.7,1.4-6.7c0.9-1.9,2.2-3.5,3.9-4.7c1.7-1.2,3.7-1.9,6-2.2h0.1
			c0.2,0,0.3,0.1,0.4,0.2c0.1,0.1,0.2,0.3,0.2,0.5v2.4c0,0.4-0.2,0.6-0.6,0.7c-2.4,0.4-4.3,1.5-5.7,3.2c-1.3,1.7-2,3.8-2,6.3
			c0,2.6,0.8,4.7,2.5,6.3c1.6,1.6,4.3,2.6,8.1,3.2l2.1,0.3c4.3,0.6,7.5,2,9.5,4.2c2.1,2.2,3.1,5.1,3.1,8.8c0,2.5-0.5,4.8-1.5,6.8
			c-1,2-2.4,3.6-4.3,4.9c-1.9,1.3-4.2,2.1-7,2.3H614.7z M614.7,1370.5c-0.4-0.1-0.6-0.4-0.6-0.8v-2.4c0-0.2,0.1-0.4,0.2-0.5
			c0.1-0.1,0.3-0.2,0.5-0.1c1.9,0.2,3.8,0.6,5.6,1.3c1.8,0.7,3.3,1.5,4.6,2.6c0.3,0.3,0.4,0.6,0.1,1l-1.2,2.2
			c-0.3,0.3-0.6,0.4-0.9,0.1C620.3,1371.9,617.5,1370.8,614.7,1370.5z"/>
	</g>
	<g class="st1">
		<path d="M689.3,1370.8c-0.1-0.1-0.2-0.3-0.2-0.5v-2.4c0-0.2,0.1-0.4,0.2-0.5c0.1-0.1,0.3-0.2,0.5-0.2h29.9c0.2,0,0.4,0.1,0.5,0.2
			c0.1,0.1,0.2,0.3,0.2,0.5v2.4c0,0.2-0.1,0.4-0.2,0.5c-0.1,0.1-0.3,0.2-0.5,0.2h-29.9C689.6,1371,689.5,1371,689.3,1370.8z
			 M703,1416c-0.1-0.1-0.2-0.3-0.2-0.5v-40c0-0.2,0.1-0.4,0.2-0.5c0.1-0.1,0.3-0.2,0.5-0.2h2.4c0.2,0,0.4,0.1,0.5,0.2
			c0.1,0.1,0.2,0.3,0.2,0.5v40c0,0.2-0.1,0.4-0.2,0.5c-0.1,0.1-0.3,0.2-0.5,0.2h-2.4C703.3,1416.2,703.2,1416.1,703,1416z"/>
	</g>
	<g class="st1">
		<path d="M788.5,1416c-0.1-0.1-0.2-0.3-0.2-0.5v-47.5c0-0.2,0.1-0.4,0.2-0.5c0.1-0.1,0.3-0.2,0.5-0.2h2.4c0.2,0,0.4,0.1,0.5,0.2
			c0.1,0.1,0.2,0.3,0.2,0.5v47.5c0,0.2-0.1,0.4-0.2,0.5c-0.1,0.1-0.3,0.2-0.5,0.2H789C788.8,1416.2,788.7,1416.1,788.5,1416z
			 M795.7,1370.8c-0.1-0.1-0.2-0.3-0.2-0.5v-2.4c0-0.2,0.1-0.4,0.2-0.5c0.1-0.1,0.3-0.2,0.5-0.2h18.2c0.2,0,0.4,0.1,0.5,0.2
			c0.1,0.1,0.2,0.3,0.2,0.5v2.4c0,0.2-0.1,0.4-0.2,0.5c-0.1,0.1-0.3,0.2-0.5,0.2h-18.2C795.9,1371,795.8,1371,795.7,1370.8z
			 M795.7,1393.1c-0.1-0.1-0.2-0.3-0.2-0.5v-2.4c0-0.2,0.1-0.4,0.2-0.5c0.1-0.1,0.3-0.2,0.5-0.2h15.1c0.2,0,0.4,0.1,0.5,0.2
			c0.1,0.1,0.2,0.3,0.2,0.5v2.4c0,0.2-0.1,0.4-0.2,0.5c-0.1,0.1-0.3,0.2-0.5,0.2h-15.1C795.9,1393.3,795.8,1393.2,795.7,1393.1z
			 M795.7,1416c-0.1-0.1-0.2-0.3-0.2-0.5v-2.4c0-0.2,0.1-0.4,0.2-0.5c0.1-0.1,0.3-0.2,0.5-0.2h18.2c0.2,0,0.4,0.1,0.5,0.2
			c0.1,0.1,0.2,0.3,0.2,0.5v2.4c0,0.2-0.1,0.4-0.2,0.5c-0.1,0.1-0.3,0.2-0.5,0.2h-18.2C795.9,1416.2,795.8,1416.1,795.7,1416z"/>
	</g>
	<g class="st1">
		<path d="M909.4,1416c-0.2-0.1-0.4-0.3-0.5-0.6l-25.9-46.6c-0.2-0.2-0.3-0.5-0.3-0.9c0-0.5,0.2-0.8,0.7-0.8h2.1
			c0.3,0,0.5,0,0.7,0.1c0.2,0.1,0.3,0.3,0.5,0.6l25.9,46.8c0.1,0.1,0.2,0.3,0.2,0.5c0,0.2,0,0.3,0,0.5c-0.1,0.3-0.3,0.5-0.6,0.5H910
			C909.8,1416.2,909.6,1416.1,909.4,1416z M883,1416c-0.1-0.1-0.2-0.3-0.2-0.5v-38.8c0-0.4,0.1-0.6,0.3-0.6c0.2,0,0.4,0.1,0.5,0.4
			l2.5,4.5c0.1,0.3,0.2,0.6,0.2,0.9v33.6c0,0.2-0.1,0.4-0.2,0.5c-0.1,0.1-0.3,0.2-0.5,0.2h-2.2C883.3,1416.2,883.1,1416.1,883,1416z
			 M909.6,1402.3c-0.1-0.3-0.2-0.6-0.2-0.9v-33.5c0-0.2,0.1-0.4,0.2-0.5c0.1-0.1,0.3-0.2,0.5-0.2h2.2c0.2,0,0.4,0.1,0.5,0.2
			c0.1,0.1,0.2,0.3,0.2,0.5v38.7c0,0.4-0.1,0.6-0.3,0.6c-0.2,0-0.3-0.1-0.5-0.4L909.6,1402.3z"/>
	</g>
	<g class="st1">
		<path d="M977.5,1416c-0.1-0.1-0.2-0.3-0.2-0.5v-47.5c0-0.2,0.1-0.4,0.2-0.5c0.1-0.1,0.3-0.2,0.5-0.2h2.4c0.2,0,0.4,0.1,0.5,0.2
			c0.1,0.1,0.2,0.3,0.2,0.5v47.5c0,0.2-0.1,0.4-0.2,0.5c-0.1,0.1-0.3,0.2-0.5,0.2H978C977.8,1416.2,977.6,1416.1,977.5,1416z
			 M984.7,1370.8c-0.1-0.1-0.2-0.3-0.2-0.5v-2.4c0-0.2,0.1-0.4,0.2-0.5c0.1-0.1,0.3-0.2,0.5-0.2h18.2c0.2,0,0.4,0.1,0.5,0.2
			c0.1,0.1,0.2,0.3,0.2,0.5v2.4c0,0.2-0.1,0.4-0.2,0.5c-0.1,0.1-0.3,0.2-0.5,0.2h-18.2C984.9,1371,984.8,1371,984.7,1370.8z
			 M984.7,1393.6c-0.1-0.1-0.2-0.3-0.2-0.5v-2.4c0-0.2,0.1-0.4,0.2-0.5c0.1-0.1,0.3-0.2,0.5-0.2h15.1c0.2,0,0.4,0.1,0.5,0.2
			c0.1,0.1,0.2,0.3,0.2,0.5v2.4c0,0.2-0.1,0.4-0.2,0.5c-0.1,0.1-0.3,0.2-0.5,0.2h-15.1C984.9,1393.8,984.8,1393.7,984.7,1393.6z"/>
	</g>
	<g class="st1">
		<path d="M1067.3,1370.8c-0.1-0.1-0.2-0.3-0.2-0.5v-2.4c0-0.2,0.1-0.4,0.2-0.5c0.1-0.1,0.3-0.2,0.5-0.2h29.9c0.2,0,0.4,0.1,0.5,0.2
			c0.1,0.1,0.2,0.3,0.2,0.5v2.4c0,0.2-0.1,0.4-0.2,0.5c-0.1,0.1-0.3,0.2-0.5,0.2h-29.9C1067.6,1371,1067.5,1371,1067.3,1370.8z
			 M1081,1416c-0.1-0.1-0.2-0.3-0.2-0.5v-40c0-0.2,0.1-0.4,0.2-0.5c0.1-0.1,0.3-0.2,0.5-0.2h2.4c0.2,0,0.4,0.1,0.5,0.2
			c0.1,0.1,0.2,0.3,0.2,0.5v40c0,0.2-0.1,0.4-0.2,0.5c-0.1,0.1-0.3,0.2-0.5,0.2h-2.4C1081.3,1416.2,1081.2,1416.1,1081,1416z"/>
	</g>
	<g class="st1">
		<path d="M1170.2,1413.4c-2-1.8-3.5-4.3-4.4-7.5c-0.4-1.3-0.7-3-0.9-5.1c-0.2-2.1-0.3-5.1-0.3-9.1c0-4,0.1-7.1,0.3-9.1
			c0.2-2.1,0.5-3.8,0.9-5.1c1-3.2,2.4-5.7,4.4-7.5c2-1.8,4.5-2.9,7.4-3.3h0.1c0.2,0,0.3,0.1,0.4,0.2c0.1,0.1,0.2,0.3,0.2,0.5v2.4
			c0,0.4-0.2,0.6-0.6,0.7c-4.2,0.8-7,3.5-8.4,8.1c-0.3,1.1-0.6,2.7-0.8,4.6c-0.2,2-0.3,4.8-0.3,8.5c0,3.6,0.1,6.5,0.3,8.5
			c0.2,2,0.5,3.5,0.8,4.6c1.4,4.7,4.2,7.4,8.4,8.1c0.4,0,0.6,0.3,0.6,0.7v2.4c0,0.2-0.1,0.4-0.2,0.5c-0.1,0.1-0.3,0.2-0.5,0.1
			C1174.6,1416.4,1172.1,1415.3,1170.2,1413.4z M1182.3,1416.7c-0.2,0-0.3-0.1-0.4-0.2c-0.1-0.1-0.2-0.3-0.2-0.5v-2.4
			c0-0.4,0.2-0.7,0.6-0.7c4.2-0.8,7-3.5,8.4-8.1c0.3-1.2,0.6-2.7,0.8-4.7c0.2-2,0.3-4.8,0.3-8.4c0-3.6-0.1-6.4-0.3-8.4
			c-0.2-2-0.5-3.6-0.8-4.7c-1.4-4.7-4.2-7.4-8.4-8.1c-0.4-0.1-0.6-0.3-0.6-0.7v-2.4c0-0.2,0.1-0.4,0.2-0.5c0.1-0.1,0.3-0.2,0.5-0.1
			c2.9,0.4,5.4,1.5,7.4,3.3s3.5,4.3,4.5,7.5c0.4,1.4,0.7,3.1,0.9,5.2c0.2,2.1,0.3,5.1,0.3,9.1c0,3.9-0.1,6.9-0.3,9
			c-0.2,2.1-0.5,3.8-0.9,5.2c-1,3.2-2.4,5.7-4.5,7.5s-4.5,2.9-7.4,3.3H1182.3z"/>
	</g>
	<g class="st1">
		<path d="M221.5,1532.2c-0.1-0.1-0.2-0.3-0.2-0.5v-47.5c0-0.2,0.1-0.4,0.2-0.5c0.1-0.1,0.3-0.2,0.5-0.2h2.4c0.2,0,0.4,0.1,0.5,0.2
			c0.1,0.1,0.2,0.3,0.2,0.5v47.5c0,0.2-0.1,0.4-0.2,0.5c-0.1,0.1-0.3,0.2-0.5,0.2H222C221.8,1532.4,221.7,1532.3,221.5,1532.2z
			 M228.7,1511c-0.1-0.1-0.2-0.3-0.2-0.5v-2.4c0-0.2,0.1-0.4,0.2-0.5c0.1-0.1,0.3-0.2,0.5-0.2h7.5c3.2,0,5.7-0.9,7.4-2.6
			c1.7-1.8,2.6-4.2,2.6-7.5c0-3.2-0.9-5.6-2.6-7.4c-1.7-1.8-4.2-2.6-7.4-2.6h-7.5c-0.2,0-0.3-0.1-0.5-0.2c-0.1-0.1-0.2-0.3-0.2-0.5
			v-2.4c0-0.2,0.1-0.4,0.2-0.5c0.1-0.1,0.3-0.2,0.5-0.2h7.6c2.8,0,5.2,0.6,7.2,1.7c2.1,1.1,3.6,2.7,4.7,4.8c1.1,2.1,1.6,4.5,1.6,7.3
			s-0.5,5.3-1.6,7.4c-1.1,2.1-2.7,3.7-4.7,4.8c-2.1,1.1-4.5,1.7-7.2,1.7h-7.6C229,1511.2,228.8,1511.1,228.7,1511z"/>
	</g>
	<g class="st1">
		<path d="M311.8,1532.2c-0.1-0.1-0.1-0.3,0-0.5l13.4-41c0.1-0.3,0.3-0.4,0.5-0.4c0.1,0,0.2,0,0.2,0.1s0.1,0.2,0.2,0.3l1.2,3.9
			c0.1,0.1,0.1,0.3,0.1,0.5c0,0.2,0,0.4-0.1,0.5l-6.6,20.2h12.7c0.4,0,0.6,0.2,0.8,0.6l0.8,2.4l0.1,0.3c0,0.1-0.1,0.3-0.2,0.4
			c-0.1,0.1-0.2,0.1-0.4,0.1h-14.9l-3.9,12.2c-0.1,0.3-0.2,0.5-0.3,0.6c-0.1,0.1-0.3,0.1-0.5,0.1h-2.5
			C312,1532.4,311.8,1532.3,311.8,1532.2z M342.7,1531.8l-15.2-47.5l-0.1-0.3c0-0.2,0.1-0.3,0.2-0.4c0.1-0.1,0.2-0.1,0.4-0.1h2.3
			c0.4,0,0.6,0.2,0.8,0.7l15.3,47.5l0.1,0.2c0,0.1,0,0.3-0.1,0.4c-0.1,0.1-0.2,0.1-0.4,0.1h-2.5
			C343,1532.4,342.8,1532.2,342.7,1531.8z"/>
	</g>
	<g class="st1">
		<path d="M413.9,1531.1c-2.3-1-4.1-2.2-5.5-3.6c-0.1-0.1-0.2-0.3-0.2-0.5c0-0.2,0-0.4,0.2-0.6l1.6-2c0.3-0.3,0.6-0.4,0.9-0.1
			c1.3,1.2,2.9,2.2,4.6,3.1c1.8,0.9,3.6,1.5,5.6,1.8c0.4,0.1,0.6,0.3,0.6,0.7v2.4c0,0.2-0.1,0.4-0.2,0.5c-0.1,0.1-0.3,0.2-0.5,0.1
			C418.6,1532.8,416.2,1532.1,413.9,1531.1z M425.7,1533c-0.2,0-0.3-0.1-0.4-0.2c-0.1-0.1-0.2-0.3-0.2-0.5v-2.4
			c0-0.5,0.2-0.7,0.6-0.8c2.9-0.3,5.1-1.4,6.7-3.2c1.6-1.8,2.4-4,2.4-6.7c0-2.6-0.8-4.8-2.3-6.4c-1.6-1.6-4.3-2.7-8.1-3.2l-2.1-0.4
			c-4.2-0.6-7.4-2-9.5-4.2c-2.1-2.2-3.2-5.1-3.2-8.7c0-2.5,0.5-4.7,1.4-6.7c0.9-1.9,2.2-3.5,3.9-4.7c1.7-1.2,3.7-1.9,6-2.2h0.1
			c0.2,0,0.3,0.1,0.4,0.2c0.1,0.1,0.2,0.3,0.2,0.5v2.4c0,0.4-0.2,0.6-0.6,0.7c-2.4,0.4-4.3,1.5-5.7,3.2c-1.3,1.7-2,3.8-2,6.3
			c0,2.6,0.8,4.7,2.5,6.3c1.6,1.6,4.3,2.6,8.1,3.2l2.1,0.3c4.3,0.6,7.5,2,9.5,4.2c2.1,2.2,3.1,5.1,3.1,8.8c0,2.5-0.5,4.8-1.5,6.8
			c-1,2-2.4,3.6-4.3,4.9c-1.9,1.3-4.2,2.1-7,2.3H425.7z M425.7,1486.7c-0.4-0.1-0.6-0.4-0.6-0.8v-2.4c0-0.2,0.1-0.4,0.2-0.5
			c0.1-0.1,0.3-0.2,0.5-0.1c1.9,0.2,3.8,0.6,5.6,1.3c1.8,0.7,3.3,1.5,4.6,2.6c0.3,0.3,0.4,0.6,0.1,1l-1.2,2.2
			c-0.3,0.3-0.6,0.4-0.9,0.1C431.3,1488.2,428.5,1487,425.7,1486.7z"/>
	</g>
	<g class="st1">
		<path d="M500.3,1487.1c-0.1-0.1-0.2-0.3-0.2-0.5v-2.4c0-0.2,0.1-0.4,0.2-0.5c0.1-0.1,0.3-0.2,0.5-0.2h29.9c0.2,0,0.4,0.1,0.5,0.2
			c0.1,0.1,0.2,0.3,0.2,0.5v2.4c0,0.2-0.1,0.4-0.2,0.5c-0.1,0.1-0.3,0.2-0.5,0.2h-29.9C500.6,1487.3,500.5,1487.2,500.3,1487.1z
			 M514.1,1532.2c-0.1-0.1-0.2-0.3-0.2-0.5v-40c0-0.2,0.1-0.4,0.2-0.5c0.1-0.1,0.3-0.2,0.5-0.2h2.4c0.2,0,0.4,0.1,0.5,0.2
			c0.1,0.1,0.2,0.3,0.2,0.5v40c0,0.2-0.1,0.4-0.2,0.5c-0.1,0.1-0.3,0.2-0.5,0.2h-2.4C514.3,1532.4,514.2,1532.3,514.1,1532.2z"/>
	</g>
	<g class="st1">
		<path d="M599.5,1532.2c-0.1-0.1-0.2-0.3-0.2-0.5v-47.5c0-0.2,0.1-0.4,0.2-0.5c0.1-0.1,0.3-0.2,0.5-0.2h2.4c0.2,0,0.4,0.1,0.5,0.2
			c0.1,0.1,0.2,0.3,0.2,0.5v47.5c0,0.2-0.1,0.4-0.2,0.5c-0.1,0.1-0.3,0.2-0.5,0.2H600C599.8,1532.4,599.7,1532.3,599.5,1532.2z
			 M606.7,1487.1c-0.1-0.1-0.2-0.3-0.2-0.5v-2.4c0-0.2,0.1-0.4,0.2-0.5c0.1-0.1,0.3-0.2,0.5-0.2h18.2c0.2,0,0.4,0.1,0.5,0.2
			c0.1,0.1,0.2,0.3,0.2,0.5v2.4c0,0.2-0.1,0.4-0.2,0.5c-0.1,0.1-0.3,0.2-0.5,0.2h-18.2C606.9,1487.3,606.8,1487.2,606.7,1487.1z
			 M606.7,1509.3c-0.1-0.1-0.2-0.3-0.2-0.5v-2.4c0-0.2,0.1-0.4,0.2-0.5c0.1-0.1,0.3-0.2,0.5-0.2h15.1c0.2,0,0.4,0.1,0.5,0.2
			c0.1,0.1,0.2,0.3,0.2,0.5v2.4c0,0.2-0.1,0.4-0.2,0.5c-0.1,0.1-0.3,0.2-0.5,0.2h-15.1C606.9,1509.5,606.8,1509.4,606.7,1509.3z
			 M606.7,1532.2c-0.1-0.1-0.2-0.3-0.2-0.5v-2.4c0-0.2,0.1-0.4,0.2-0.5c0.1-0.1,0.3-0.2,0.5-0.2h18.2c0.2,0,0.4,0.1,0.5,0.2
			c0.1,0.1,0.2,0.3,0.2,0.5v2.4c0,0.2-0.1,0.4-0.2,0.5c-0.1,0.1-0.3,0.2-0.5,0.2h-18.2C606.9,1532.4,606.8,1532.3,606.7,1532.2z"/>
	</g>
	<g class="st1">
		<path d="M694,1532.2c-0.1-0.1-0.2-0.3-0.2-0.5v-47.5c0-0.2,0.1-0.4,0.2-0.5c0.1-0.1,0.3-0.2,0.5-0.2h2.4c0.2,0,0.4,0.1,0.5,0.2
			c0.1,0.1,0.2,0.3,0.2,0.5v47.5c0,0.2-0.1,0.4-0.2,0.5c-0.1,0.1-0.3,0.2-0.5,0.2h-2.4C694.3,1532.4,694.2,1532.3,694,1532.2z
			 M701.2,1510.2c-0.1-0.1-0.2-0.3-0.2-0.5v-2.4c0-0.2,0.1-0.4,0.2-0.5c0.1-0.1,0.3-0.2,0.5-0.2h7.6c3.2,0,5.6-0.8,7.3-2.5
			s2.5-4,2.5-7.2s-0.8-5.5-2.5-7.2c-1.7-1.7-4.1-2.5-7.3-2.5h-7.6c-0.2,0-0.3-0.1-0.5-0.2c-0.1-0.1-0.2-0.3-0.2-0.5v-2.4
			c0-0.2,0.1-0.4,0.2-0.5c0.1-0.1,0.3-0.2,0.5-0.2h7.7c2.8,0,5.2,0.5,7.2,1.6s3.6,2.6,4.6,4.7c1.1,2,1.6,4.5,1.6,7.2
			c0,2.6-0.5,5-1.6,7.1c-1,2.1-2.6,3.7-4.6,4.8c-2.1,1.1-4.6,1.7-7.6,1.6h-7.3C701.4,1510.5,701.3,1510.4,701.2,1510.2z
			 M719.5,1532.3c-0.1-0.1-0.2-0.3-0.3-0.5l-7.4-17.1c-0.1-0.3-0.1-0.6,0-0.7c0.1-0.1,0.2-0.2,0.4-0.2c0.2,0,0.3-0.1,0.3-0.1
			c0.8-0.1,1.5-0.2,1.9-0.4c0.1,0,0.2-0.1,0.3-0.1c0.3,0,0.5,0.2,0.5,0.5l8,17.9c0,0.1,0.1,0.2,0.1,0.4c0,0.3-0.2,0.4-0.5,0.4H720
			C719.8,1532.4,719.6,1532.4,719.5,1532.3z"/>
	</g>
	<g class="st1">
		<path d="M791.2,1527.9c-2.2-3-3.3-7.1-3.3-12.4v-31.3c0-0.2,0.1-0.4,0.2-0.5c0.1-0.1,0.3-0.2,0.5-0.2h2.4c0.2,0,0.4,0.1,0.5,0.2
			c0.1,0.1,0.2,0.3,0.2,0.5v31.3c0,4,0.8,7.2,2.3,9.5c1.5,2.3,3.8,3.7,6.7,4.2c0.4,0,0.6,0.3,0.6,0.7v2.4c0,0.2-0.1,0.4-0.2,0.5
			c-0.1,0.1-0.3,0.2-0.5,0.1C796.4,1532.6,793.3,1530.9,791.2,1527.9z M805.2,1533c-0.2,0-0.3-0.1-0.4-0.2c-0.1-0.1-0.2-0.3-0.2-0.5
			v-2.4c0-0.4,0.2-0.7,0.6-0.7c2.9-0.5,5.1-1.9,6.7-4.2c1.5-2.3,2.3-5.5,2.3-9.5v-31.3c0-0.2,0.1-0.4,0.2-0.5
			c0.1-0.1,0.3-0.2,0.5-0.2h2.4c0.2,0,0.4,0.1,0.5,0.2c0.1,0.1,0.2,0.3,0.2,0.5v31.3c0,5.3-1.1,9.4-3.2,12.3c-2.2,3-5.3,4.7-9.3,5.1
			H805.2z"/>
	</g>
	<g class="st1">
		<path d="M909.4,1532.3c-0.2-0.1-0.4-0.3-0.5-0.6l-25.9-46.6c-0.2-0.2-0.3-0.5-0.3-0.9c0-0.5,0.2-0.8,0.7-0.8h2.1
			c0.3,0,0.5,0,0.7,0.1c0.2,0.1,0.3,0.3,0.5,0.6l25.9,46.8c0.1,0.1,0.2,0.3,0.2,0.5c0,0.2,0,0.3,0,0.5c-0.1,0.3-0.3,0.5-0.6,0.5H910
			C909.8,1532.4,909.6,1532.4,909.4,1532.3z M883,1532.2c-0.1-0.1-0.2-0.3-0.2-0.5v-38.8c0-0.4,0.1-0.6,0.3-0.6
			c0.2,0,0.4,0.1,0.5,0.4l2.5,4.5c0.1,0.3,0.2,0.6,0.2,0.9v33.6c0,0.2-0.1,0.4-0.2,0.5c-0.1,0.1-0.3,0.2-0.5,0.2h-2.2
			C883.3,1532.4,883.1,1532.3,883,1532.2z M909.6,1518.6c-0.1-0.3-0.2-0.6-0.2-0.9v-33.5c0-0.2,0.1-0.4,0.2-0.5
			c0.1-0.1,0.3-0.2,0.5-0.2h2.2c0.2,0,0.4,0.1,0.5,0.2c0.1,0.1,0.2,0.3,0.2,0.5v38.7c0,0.4-0.1,0.6-0.3,0.6c-0.2,0-0.3-0.1-0.5-0.4
			L909.6,1518.6z"/>
	</g>
	<g class="st1">
		<path d="M989.5,1532.2c-0.1-0.1-0.2-0.3-0.2-0.5v-47.5c0-0.2,0.1-0.4,0.2-0.5c0.1-0.1,0.3-0.2,0.5-0.2h2.4c0.2,0,0.4,0.1,0.5,0.2
			c0.1,0.1,0.2,0.3,0.2,0.5v47.5c0,0.2-0.1,0.4-0.2,0.5c-0.1,0.1-0.3,0.2-0.5,0.2H990C989.8,1532.4,989.6,1532.3,989.5,1532.2z"/>
	</g>
	<g class="st1">
		<path d="M1098.4,1532.3c-0.2-0.1-0.4-0.3-0.5-0.6l-25.9-46.6c-0.2-0.2-0.3-0.5-0.3-0.9c0-0.5,0.2-0.8,0.7-0.8h2.1
			c0.3,0,0.5,0,0.7,0.1c0.2,0.1,0.3,0.3,0.5,0.6l25.9,46.8c0.1,0.1,0.2,0.3,0.2,0.5c0,0.2,0,0.3,0,0.5c-0.1,0.3-0.3,0.5-0.6,0.5
			h-2.2C1098.8,1532.4,1098.6,1532.4,1098.4,1532.3z M1072,1532.2c-0.1-0.1-0.2-0.3-0.2-0.5v-38.8c0-0.4,0.1-0.6,0.3-0.6
			c0.2,0,0.4,0.1,0.5,0.4l2.5,4.5c0.1,0.3,0.2,0.6,0.2,0.9v33.6c0,0.2-0.1,0.4-0.2,0.5c-0.1,0.1-0.3,0.2-0.5,0.2h-2.2
			C1072.3,1532.4,1072.1,1532.3,1072,1532.2z M1098.6,1518.6c-0.1-0.3-0.2-0.6-0.2-0.9v-33.5c0-0.2,0.1-0.4,0.2-0.5
			c0.1-0.1,0.3-0.2,0.5-0.2h2.2c0.2,0,0.4,0.1,0.5,0.2c0.1,0.1,0.2,0.3,0.2,0.5v38.7c0,0.4-0.1,0.6-0.3,0.6c-0.2,0-0.3-0.1-0.5-0.4
			L1098.6,1518.6z"/>
	</g>
	<g class="st1">
		<path d="M1166.5,1532.2c-0.1-0.1-0.2-0.3-0.2-0.5v-47.5c0-0.2,0.1-0.4,0.2-0.5c0.1-0.1,0.3-0.2,0.5-0.2h2.4c0.2,0,0.4,0.1,0.5,0.2
			c0.1,0.1,0.2,0.3,0.2,0.5v47.5c0,0.2-0.1,0.4-0.2,0.5c-0.1,0.1-0.3,0.2-0.5,0.2h-2.4C1166.8,1532.4,1166.6,1532.3,1166.5,1532.2z
			 M1173.7,1487.1c-0.1-0.1-0.2-0.3-0.2-0.5v-2.4c0-0.2,0.1-0.4,0.2-0.5c0.1-0.1,0.3-0.2,0.5-0.2h18.2c0.2,0,0.4,0.1,0.5,0.2
			c0.1,0.1,0.2,0.3,0.2,0.5v2.4c0,0.2-0.1,0.4-0.2,0.5c-0.1,0.1-0.3,0.2-0.5,0.2h-18.2C1173.9,1487.3,1173.8,1487.2,1173.7,1487.1z
			 M1173.7,1509.3c-0.1-0.1-0.2-0.3-0.2-0.5v-2.4c0-0.2,0.1-0.4,0.2-0.5c0.1-0.1,0.3-0.2,0.5-0.2h15.1c0.2,0,0.4,0.1,0.5,0.2
			c0.1,0.1,0.2,0.3,0.2,0.5v2.4c0,0.2-0.1,0.4-0.2,0.5c-0.1,0.1-0.3,0.2-0.5,0.2h-15.1C1173.9,1509.5,1173.8,1509.4,1173.7,1509.3z
			 M1173.7,1532.2c-0.1-0.1-0.2-0.3-0.2-0.5v-2.4c0-0.2,0.1-0.4,0.2-0.5c0.1-0.1,0.3-0.2,0.5-0.2h18.2c0.2,0,0.4,0.1,0.5,0.2
			c0.1,0.1,0.2,0.3,0.2,0.5v2.4c0,0.2-0.1,0.4-0.2,0.5c-0.1,0.1-0.3,0.2-0.5,0.2h-18.2C1173.9,1532.4,1173.8,1532.3,1173.7,1532.2z"
			/>
	</g>
	<g class="st1">
		<path d="M225.2,1645.9c-2-1.8-3.5-4.3-4.4-7.5c-0.4-1.3-0.7-3-0.9-5.1c-0.2-2.1-0.3-5.1-0.3-9.1c0-4,0.1-7.1,0.3-9.1
			c0.2-2.1,0.5-3.8,0.9-5.1c1-3.2,2.4-5.7,4.4-7.5c2-1.8,4.5-2.9,7.4-3.3h0.1c0.2,0,0.3,0.1,0.4,0.2c0.1,0.1,0.2,0.3,0.2,0.5v2.4
			c0,0.4-0.2,0.6-0.6,0.7c-4.2,0.8-7,3.5-8.4,8.1c-0.3,1.1-0.6,2.7-0.8,4.6c-0.2,2-0.3,4.8-0.3,8.5c0,3.6,0.1,6.5,0.3,8.5
			s0.5,3.5,0.8,4.6c1.4,4.7,4.2,7.4,8.4,8.1c0.4,0,0.6,0.3,0.6,0.7v2.4c0,0.2-0.1,0.4-0.2,0.5c-0.1,0.1-0.3,0.2-0.5,0.1
			C229.6,1648.8,227.2,1647.7,225.2,1645.9z M237.3,1649.2c-0.2,0-0.3-0.1-0.4-0.2c-0.1-0.1-0.2-0.3-0.2-0.5v-2.4
			c0-0.4,0.2-0.7,0.6-0.7c4.2-0.8,7-3.5,8.4-8.1c0.3-1.2,0.6-2.7,0.8-4.7c0.2-2,0.3-4.8,0.3-8.4c0-3.6-0.1-6.4-0.3-8.4
			c-0.2-2-0.5-3.6-0.8-4.7c-1.4-4.7-4.2-7.4-8.4-8.1c-0.4-0.1-0.6-0.3-0.6-0.7v-2.4c0-0.2,0.1-0.4,0.2-0.5c0.1-0.1,0.3-0.2,0.5-0.1
			c2.9,0.4,5.4,1.5,7.4,3.3s3.5,4.3,4.5,7.5c0.4,1.4,0.7,3.1,0.9,5.2c0.2,2.1,0.3,5.1,0.3,9.1c0,3.9-0.1,6.9-0.3,9
			c-0.2,2.1-0.5,3.8-0.9,5.2c-1,3.2-2.4,5.7-4.5,7.5s-4.5,2.9-7.4,3.3H237.3z"/>
	</g>
	<g class="st1">
		<path d="M342.4,1648.5c-0.2-0.1-0.4-0.3-0.5-0.6l-25.9-46.6c-0.2-0.2-0.3-0.5-0.3-0.9c0-0.5,0.2-0.8,0.7-0.8h2.1
			c0.3,0,0.5,0,0.6,0.1c0.2,0.1,0.3,0.3,0.5,0.6l25.9,46.8c0.1,0.1,0.2,0.3,0.2,0.5c0,0.2,0,0.3,0,0.5c-0.1,0.3-0.3,0.5-0.6,0.5H343
			C342.8,1648.7,342.6,1648.6,342.4,1648.5z M316,1648.4c-0.1-0.1-0.2-0.3-0.2-0.5v-38.8c0-0.4,0.1-0.6,0.3-0.6
			c0.2,0,0.4,0.1,0.5,0.4l2.5,4.5c0.1,0.3,0.2,0.6,0.2,0.9v33.6c0,0.2-0.1,0.4-0.2,0.5c-0.1,0.1-0.3,0.2-0.5,0.2h-2.2
			C316.3,1648.7,316.2,1648.6,316,1648.4z M342.6,1634.8c-0.1-0.3-0.2-0.6-0.2-0.9v-33.5c0-0.2,0.1-0.4,0.2-0.5
			c0.1-0.1,0.3-0.2,0.5-0.2h2.2c0.2,0,0.4,0.1,0.5,0.2c0.1,0.1,0.2,0.3,0.2,0.5v38.7c0,0.4-0.1,0.6-0.3,0.6c-0.2,0-0.3-0.1-0.5-0.4
			L342.6,1634.8z"/>
	</g>
	<g class="st1">
		<path d="M410.5,1648.4c-0.1-0.1-0.2-0.3-0.2-0.5v-47.5c0-0.2,0.1-0.4,0.2-0.5c0.1-0.1,0.3-0.2,0.5-0.2h2.4c0.2,0,0.4,0.1,0.5,0.2
			c0.1,0.1,0.2,0.3,0.2,0.5v47.5c0,0.2-0.1,0.4-0.2,0.5c-0.1,0.1-0.3,0.2-0.5,0.2H411C410.8,1648.7,410.7,1648.6,410.5,1648.4z
			 M417.7,1603.3c-0.1-0.1-0.2-0.3-0.2-0.5v-2.4c0-0.2,0.1-0.4,0.2-0.5c0.1-0.1,0.3-0.2,0.5-0.2h18.2c0.2,0,0.4,0.1,0.5,0.2
			c0.1,0.1,0.2,0.3,0.2,0.5v2.4c0,0.2-0.1,0.4-0.2,0.5c-0.1,0.1-0.3,0.2-0.5,0.2h-18.2C418,1603.5,417.8,1603.4,417.7,1603.3z
			 M417.7,1625.5c-0.1-0.1-0.2-0.3-0.2-0.5v-2.4c0-0.2,0.1-0.4,0.2-0.5c0.1-0.1,0.3-0.2,0.5-0.2h15.1c0.2,0,0.4,0.1,0.5,0.2
			c0.1,0.1,0.2,0.3,0.2,0.5v2.4c0,0.2-0.1,0.4-0.2,0.5c-0.1,0.1-0.3,0.2-0.5,0.2h-15.1C418,1625.8,417.8,1625.7,417.7,1625.5z
			 M417.7,1648.4c-0.1-0.1-0.2-0.3-0.2-0.5v-2.4c0-0.2,0.1-0.4,0.2-0.5c0.1-0.1,0.3-0.2,0.5-0.2h18.2c0.2,0,0.4,0.1,0.5,0.2
			c0.1,0.1,0.2,0.3,0.2,0.5v2.4c0,0.2-0.1,0.4-0.2,0.5c-0.1,0.1-0.3,0.2-0.5,0.2h-18.2C418,1648.7,417.8,1648.6,417.7,1648.4z"/>
	</g>
	<g class="st1">
		<path d="M508.4,1647.3c-2.3-1-4.1-2.2-5.5-3.6c-0.1-0.1-0.2-0.3-0.2-0.5c0-0.2,0-0.4,0.2-0.6l1.6-2c0.3-0.3,0.6-0.4,0.9-0.1
			c1.3,1.2,2.9,2.2,4.6,3.1c1.8,0.9,3.6,1.5,5.6,1.8c0.4,0.1,0.6,0.3,0.6,0.7v2.4c0,0.2-0.1,0.4-0.2,0.5c-0.1,0.1-0.3,0.2-0.5,0.1
			C513.1,1649,510.7,1648.4,508.4,1647.3z M520.2,1649.2c-0.2,0-0.3-0.1-0.4-0.2c-0.1-0.1-0.2-0.3-0.2-0.5v-2.4
			c0-0.5,0.2-0.7,0.6-0.8c2.9-0.3,5.1-1.4,6.7-3.2c1.6-1.8,2.4-4,2.4-6.7c0-2.6-0.8-4.8-2.3-6.4c-1.6-1.6-4.3-2.7-8.1-3.2l-2.1-0.4
			c-4.2-0.6-7.4-2-9.5-4.2c-2.1-2.2-3.2-5.1-3.2-8.7c0-2.5,0.5-4.7,1.4-6.7c0.9-1.9,2.2-3.5,3.9-4.7c1.7-1.2,3.7-1.9,6-2.2h0.1
			c0.2,0,0.3,0.1,0.4,0.2c0.1,0.1,0.2,0.3,0.2,0.5v2.4c0,0.4-0.2,0.6-0.6,0.7c-2.4,0.4-4.3,1.5-5.7,3.2c-1.3,1.7-2,3.8-2,6.3
			c0,2.6,0.8,4.7,2.5,6.3c1.6,1.6,4.3,2.6,8.1,3.2l2.1,0.3c4.3,0.6,7.5,2,9.5,4.2c2.1,2.2,3.1,5.1,3.1,8.8c0,2.5-0.5,4.8-1.5,6.8
			c-1,2-2.4,3.6-4.3,4.9c-1.9,1.3-4.2,2.1-7,2.3H520.2z M520.2,1602.9c-0.4-0.1-0.6-0.4-0.6-0.8v-2.4c0-0.2,0.1-0.4,0.2-0.5
			c0.1-0.1,0.3-0.2,0.5-0.1c1.9,0.2,3.8,0.6,5.6,1.3c1.8,0.7,3.3,1.5,4.6,2.6c0.3,0.3,0.4,0.6,0.1,1l-1.2,2.2
			c-0.3,0.3-0.6,0.4-0.9,0.1C525.8,1604.4,523,1603.3,520.2,1602.9z"/>
	</g>
	<g class="st1">
		<path d="M611.5,1648.4c-0.1-0.1-0.2-0.3-0.2-0.5v-47.5c0-0.2,0.1-0.4,0.2-0.5c0.1-0.1,0.3-0.2,0.5-0.2h2.4c0.2,0,0.4,0.1,0.5,0.2
			c0.1,0.1,0.2,0.3,0.2,0.5v47.5c0,0.2-0.1,0.4-0.2,0.5c-0.1,0.1-0.3,0.2-0.5,0.2H612C611.8,1648.7,611.7,1648.6,611.5,1648.4z"/>
	</g>
	<g class="st1">
		<path d="M689.8,1648.4c-0.1-0.2,0-0.3,0.1-0.5l11.1-20.4c0.1-0.2,0.3-0.4,0.5-0.4c0.2,0,0.3,0.1,0.5,0.4l1.3,2.5
			c0.1,0.1,0.1,0.3,0.1,0.5c0,0.2,0,0.4-0.1,0.5l-9.3,17.1c-0.2,0.4-0.5,0.6-0.8,0.6h-2.9C690,1648.7,689.8,1648.6,689.8,1648.4z
			 M717.1,1648.5c-0.1-0.1-0.2-0.2-0.3-0.4l-25.6-47.6l-0.1-0.4c0-0.3,0.2-0.4,0.5-0.4h2.9c0.2,0,0.4,0,0.5,0.1
			c0.1,0.1,0.3,0.2,0.4,0.4l10,18.7l15.6,28.9c0,0.1,0.1,0.2,0.1,0.4c0,0.3-0.1,0.4-0.4,0.4h-2.9
			C717.4,1648.7,717.3,1648.6,717.1,1648.5z M707.5,1616.1c-0.1-0.1-0.1-0.3-0.1-0.5c0-0.2,0-0.4,0.1-0.5l8-14.8
			c0.1-0.2,0.2-0.3,0.3-0.4c0.1-0.1,0.3-0.1,0.5-0.1h2.9c0.2,0,0.3,0.1,0.4,0.2c0.1,0.1,0.1,0.3,0,0.6l-9.8,18.1
			c-0.1,0.2-0.3,0.3-0.5,0.3c-0.2,0-0.3-0.1-0.5-0.3L707.5,1616.1z"/>
	</g>
	<g class="st1">
		<path d="M783.8,1603.3c-0.1-0.1-0.2-0.3-0.2-0.5v-2.4c0-0.2,0.1-0.4,0.2-0.5c0.1-0.1,0.3-0.2,0.5-0.2h29.9c0.2,0,0.4,0.1,0.5,0.2
			c0.1,0.1,0.2,0.3,0.2,0.5v2.4c0,0.2-0.1,0.4-0.2,0.5c-0.1,0.1-0.3,0.2-0.5,0.2h-29.9C784.1,1603.5,784,1603.4,783.8,1603.3z
			 M797.5,1648.4c-0.1-0.1-0.2-0.3-0.2-0.5v-40c0-0.2,0.1-0.4,0.2-0.5c0.1-0.1,0.3-0.2,0.5-0.2h2.4c0.2,0,0.4,0.1,0.5,0.2
			c0.1,0.1,0.2,0.3,0.2,0.5v40c0,0.2-0.1,0.4-0.2,0.5c-0.1,0.1-0.3,0.2-0.5,0.2H798C797.8,1648.7,797.7,1648.6,797.5,1648.4z"/>
	</g>
	<g class="st1">
		<path d="M883,1648.4c-0.1-0.1-0.2-0.3-0.2-0.5v-47.5c0-0.2,0.1-0.4,0.2-0.5c0.1-0.1,0.3-0.2,0.5-0.2h2.4c0.2,0,0.4,0.1,0.5,0.2
			c0.1,0.1,0.2,0.3,0.2,0.5v47.5c0,0.2-0.1,0.4-0.2,0.5c-0.1,0.1-0.3,0.2-0.5,0.2h-2.4C883.3,1648.7,883.1,1648.6,883,1648.4z
			 M889.9,1625.5c-0.1-0.1-0.2-0.3-0.2-0.5v-2.4c0-0.2,0.1-0.4,0.2-0.5c0.1-0.1,0.3-0.2,0.5-0.2h14.9c0.2,0,0.4,0.1,0.5,0.2
			c0.1,0.1,0.2,0.3,0.2,0.5v2.4c0,0.2-0.1,0.4-0.2,0.5c-0.1,0.1-0.3,0.2-0.5,0.2h-14.9C890.2,1625.8,890,1625.7,889.9,1625.5z
			 M909.3,1648.4c-0.1-0.1-0.2-0.3-0.2-0.5v-47.5c0-0.2,0.1-0.4,0.2-0.5c0.1-0.1,0.3-0.2,0.5-0.2h2.4c0.2,0,0.4,0.1,0.5,0.2
			c0.1,0.1,0.2,0.3,0.2,0.5v47.5c0,0.2-0.1,0.4-0.2,0.5c-0.1,0.1-0.3,0.2-0.5,0.2h-2.4C909.6,1648.7,909.5,1648.6,909.3,1648.4z"/>
	</g>
	<g class="st1">
		<path d="M977.5,1648.4c-0.1-0.1-0.2-0.3-0.2-0.5v-47.5c0-0.2,0.1-0.4,0.2-0.5c0.1-0.1,0.3-0.2,0.5-0.2h2.4c0.2,0,0.4,0.1,0.5,0.2
			c0.1,0.1,0.2,0.3,0.2,0.5v47.5c0,0.2-0.1,0.4-0.2,0.5c-0.1,0.1-0.3,0.2-0.5,0.2H978C977.8,1648.7,977.6,1648.6,977.5,1648.4z
			 M984.7,1626.5c-0.1-0.1-0.2-0.3-0.2-0.5v-2.4c0-0.2,0.1-0.4,0.2-0.5c0.1-0.1,0.3-0.2,0.5-0.2h7.6c3.2,0,5.6-0.8,7.3-2.5
			s2.5-4,2.5-7.2s-0.8-5.5-2.5-7.2c-1.7-1.7-4.1-2.5-7.3-2.5h-7.6c-0.2,0-0.3-0.1-0.5-0.2c-0.1-0.1-0.2-0.3-0.2-0.5v-2.4
			c0-0.2,0.1-0.4,0.2-0.5c0.1-0.1,0.3-0.2,0.5-0.2h7.7c2.8,0,5.2,0.5,7.2,1.6s3.6,2.6,4.6,4.7c1.1,2,1.6,4.5,1.6,7.2
			c0,2.6-0.5,5-1.6,7.1c-1,2.1-2.6,3.7-4.6,4.8c-2.1,1.1-4.6,1.7-7.6,1.6h-7.3C984.9,1626.7,984.8,1626.6,984.7,1626.5z
			 M1003,1648.5c-0.1-0.1-0.2-0.3-0.3-0.5l-7.4-17.1c-0.1-0.3-0.1-0.6,0-0.7c0.1-0.1,0.2-0.2,0.4-0.2c0.2,0,0.3-0.1,0.3-0.1
			c0.8-0.1,1.5-0.2,1.9-0.4c0.1,0,0.2-0.1,0.3-0.1c0.3,0,0.5,0.2,0.5,0.5l8,17.9c0,0.1,0.1,0.2,0.1,0.4c0,0.3-0.2,0.4-0.5,0.4h-2.9
			C1003.3,1648.7,1003.1,1648.6,1003,1648.5z"/>
	</g>
	<g class="st1">
		<path d="M1072,1648.4c-0.1-0.1-0.2-0.3-0.2-0.5v-47.5c0-0.2,0.1-0.4,0.2-0.5c0.1-0.1,0.3-0.2,0.5-0.2h2.4c0.2,0,0.4,0.1,0.5,0.2
			c0.1,0.1,0.2,0.3,0.2,0.5v47.5c0,0.2-0.1,0.4-0.2,0.5c-0.1,0.1-0.3,0.2-0.5,0.2h-2.4C1072.3,1648.7,1072.1,1648.6,1072,1648.4z
			 M1079.2,1603.3c-0.1-0.1-0.2-0.3-0.2-0.5v-2.4c0-0.2,0.1-0.4,0.2-0.5c0.1-0.1,0.3-0.2,0.5-0.2h18.2c0.2,0,0.4,0.1,0.5,0.2
			c0.1,0.1,0.2,0.3,0.2,0.5v2.4c0,0.2-0.1,0.4-0.2,0.5c-0.1,0.1-0.3,0.2-0.5,0.2h-18.2C1079.4,1603.5,1079.3,1603.4,1079.2,1603.3z
			 M1079.2,1625.5c-0.1-0.1-0.2-0.3-0.2-0.5v-2.4c0-0.2,0.1-0.4,0.2-0.5c0.1-0.1,0.3-0.2,0.5-0.2h15.1c0.2,0,0.4,0.1,0.5,0.2
			c0.1,0.1,0.2,0.3,0.2,0.5v2.4c0,0.2-0.1,0.4-0.2,0.5c-0.1,0.1-0.3,0.2-0.5,0.2h-15.1C1079.4,1625.8,1079.3,1625.7,1079.2,1625.5z
			 M1079.2,1648.4c-0.1-0.1-0.2-0.3-0.2-0.5v-2.4c0-0.2,0.1-0.4,0.2-0.5c0.1-0.1,0.3-0.2,0.5-0.2h18.2c0.2,0,0.4,0.1,0.5,0.2
			c0.1,0.1,0.2,0.3,0.2,0.5v2.4c0,0.2-0.1,0.4-0.2,0.5c-0.1,0.1-0.3,0.2-0.5,0.2h-18.2C1079.4,1648.7,1079.3,1648.6,1079.2,1648.4z"
			/>
	</g>
	<g class="st1">
		<path d="M1166.5,1648.4c-0.1-0.1-0.2-0.3-0.2-0.5v-47.5c0-0.2,0.1-0.4,0.2-0.5c0.1-0.1,0.3-0.2,0.5-0.2h2.4c0.2,0,0.4,0.1,0.5,0.2
			c0.1,0.1,0.2,0.3,0.2,0.5v47.5c0,0.2-0.1,0.4-0.2,0.5c-0.1,0.1-0.3,0.2-0.5,0.2h-2.4C1166.8,1648.7,1166.6,1648.6,1166.5,1648.4z
			 M1173.7,1603.3c-0.1-0.1-0.2-0.3-0.2-0.5v-2.4c0-0.2,0.1-0.4,0.2-0.5c0.1-0.1,0.3-0.2,0.5-0.2h18.2c0.2,0,0.4,0.1,0.5,0.2
			c0.1,0.1,0.2,0.3,0.2,0.5v2.4c0,0.2-0.1,0.4-0.2,0.5c-0.1,0.1-0.3,0.2-0.5,0.2h-18.2C1173.9,1603.5,1173.8,1603.4,1173.7,1603.3z
			 M1173.7,1625.5c-0.1-0.1-0.2-0.3-0.2-0.5v-2.4c0-0.2,0.1-0.4,0.2-0.5c0.1-0.1,0.3-0.2,0.5-0.2h15.1c0.2,0,0.4,0.1,0.5,0.2
			c0.1,0.1,0.2,0.3,0.2,0.5v2.4c0,0.2-0.1,0.4-0.2,0.5c-0.1,0.1-0.3,0.2-0.5,0.2h-15.1C1173.9,1625.8,1173.8,1625.7,1173.7,1625.5z
			 M1173.7,1648.4c-0.1-0.1-0.2-0.3-0.2-0.5v-2.4c0-0.2,0.1-0.4,0.2-0.5c0.1-0.1,0.3-0.2,0.5-0.2h18.2c0.2,0,0.4,0.1,0.5,0.2
			c0.1,0.1,0.2,0.3,0.2,0.5v2.4c0,0.2-0.1,0.4-0.2,0.5c-0.1,0.1-0.3,0.2-0.5,0.2h-18.2C1173.9,1648.7,1173.8,1648.6,1173.7,1648.4z"
			/>
	</g>
	<g class="st1">
		<path d="M221.5,1764.7c-0.1-0.1-0.2-0.3-0.2-0.5v-47.5c0-0.2,0.1-0.4,0.2-0.5c0.1-0.1,0.3-0.2,0.5-0.2h2.4c0.2,0,0.4,0.1,0.5,0.2
			c0.1,0.1,0.2,0.3,0.2,0.5v47.5c0,0.2-0.1,0.4-0.2,0.5c-0.1,0.1-0.3,0.2-0.5,0.2H222C221.8,1764.9,221.7,1764.8,221.5,1764.7z
			 M228.7,1719.5c-0.1-0.1-0.2-0.3-0.2-0.5v-2.4c0-0.2,0.1-0.4,0.2-0.5c0.1-0.1,0.3-0.2,0.5-0.2h18.2c0.2,0,0.4,0.1,0.5,0.2
			c0.1,0.1,0.2,0.3,0.2,0.5v2.4c0,0.2-0.1,0.4-0.2,0.5c-0.1,0.1-0.3,0.2-0.5,0.2h-18.2C229,1719.8,228.8,1719.7,228.7,1719.5z
			 M228.7,1742.3c-0.1-0.1-0.2-0.3-0.2-0.5v-2.4c0-0.2,0.1-0.4,0.2-0.5c0.1-0.1,0.3-0.2,0.5-0.2h15.1c0.2,0,0.4,0.1,0.5,0.2
			c0.1,0.1,0.2,0.3,0.2,0.5v2.4c0,0.2-0.1,0.4-0.2,0.5c-0.1,0.1-0.3,0.2-0.5,0.2h-15.1C229,1742.5,228.8,1742.4,228.7,1742.3z"/>
	</g>
	<g class="st1">
		<path d="M319.7,1762.2c-2-1.8-3.5-4.3-4.4-7.5c-0.4-1.3-0.7-3-0.9-5.1c-0.2-2.1-0.3-5.1-0.3-9.1c0-4,0.1-7.1,0.3-9.1
			c0.2-2.1,0.5-3.8,0.9-5.1c1-3.2,2.4-5.7,4.4-7.5c2-1.8,4.5-2.9,7.4-3.3h0.1c0.2,0,0.3,0.1,0.4,0.2c0.1,0.1,0.2,0.3,0.2,0.5v2.4
			c0,0.4-0.2,0.6-0.6,0.7c-4.2,0.8-7,3.5-8.4,8.1c-0.3,1.1-0.6,2.7-0.8,4.6c-0.2,2-0.3,4.8-0.3,8.5c0,3.6,0.1,6.5,0.3,8.5
			s0.5,3.5,0.8,4.6c1.4,4.7,4.2,7.4,8.4,8.1c0.4,0,0.6,0.3,0.6,0.7v2.4c0,0.2-0.1,0.4-0.2,0.5c-0.1,0.1-0.3,0.2-0.5,0.1
			C324.1,1765.1,321.7,1764,319.7,1762.2z M331.8,1765.5c-0.2,0-0.3-0.1-0.4-0.2c-0.1-0.1-0.2-0.3-0.2-0.5v-2.4
			c0-0.4,0.2-0.7,0.6-0.7c4.2-0.8,7-3.5,8.4-8.1c0.3-1.2,0.6-2.7,0.8-4.7c0.2-2,0.3-4.8,0.3-8.4c0-3.6-0.1-6.4-0.3-8.4
			c-0.2-2-0.5-3.6-0.8-4.7c-1.4-4.7-4.2-7.4-8.4-8.1c-0.4-0.1-0.6-0.3-0.6-0.7v-2.4c0-0.2,0.1-0.4,0.2-0.5c0.1-0.1,0.3-0.2,0.5-0.1
			c2.9,0.4,5.4,1.5,7.4,3.3s3.5,4.3,4.5,7.5c0.4,1.4,0.7,3.1,0.9,5.2c0.2,2.1,0.3,5.1,0.3,9.1c0,3.9-0.1,6.9-0.3,9
			c-0.2,2.1-0.5,3.8-0.9,5.2c-1,3.2-2.4,5.7-4.5,7.5s-4.5,2.9-7.4,3.3H331.8z"/>
	</g>
	<g class="st1">
		<path d="M413.2,1760.4c-2.2-3-3.3-7.1-3.3-12.4v-31.3c0-0.2,0.1-0.4,0.2-0.5c0.1-0.1,0.3-0.2,0.5-0.2h2.4c0.2,0,0.4,0.1,0.5,0.2
			c0.1,0.1,0.2,0.3,0.2,0.5v31.3c0,4,0.8,7.2,2.3,9.5c1.5,2.3,3.8,3.7,6.7,4.2c0.4,0,0.6,0.3,0.6,0.7v2.4c0,0.2-0.1,0.4-0.2,0.5
			c-0.1,0.1-0.3,0.2-0.5,0.1C418.4,1765,415.3,1763.3,413.2,1760.4z M427.2,1765.5c-0.2,0-0.3-0.1-0.4-0.2c-0.1-0.1-0.2-0.3-0.2-0.5
			v-2.4c0-0.4,0.2-0.7,0.6-0.7c2.9-0.5,5.1-1.9,6.7-4.2c1.5-2.3,2.3-5.5,2.3-9.5v-31.3c0-0.2,0.1-0.4,0.2-0.5
			c0.1-0.1,0.3-0.2,0.5-0.2h2.4c0.2,0,0.4,0.1,0.5,0.2c0.1,0.1,0.2,0.3,0.2,0.5v31.3c0,5.3-1.1,9.4-3.2,12.3c-2.2,3-5.3,4.7-9.3,5.1
			H427.2z"/>
	</g>
	<g class="st1">
		<path d="M505,1764.7c-0.1-0.1-0.2-0.3-0.2-0.5v-47.5c0-0.2,0.1-0.4,0.2-0.5c0.1-0.1,0.3-0.2,0.5-0.2h2.4c0.2,0,0.4,0.1,0.5,0.2
			c0.1,0.1,0.2,0.3,0.2,0.5v47.5c0,0.2-0.1,0.4-0.2,0.5c-0.1,0.1-0.3,0.2-0.5,0.2h-2.4C505.3,1764.9,505.2,1764.8,505,1764.7z
			 M512.2,1742.7c-0.1-0.1-0.2-0.3-0.2-0.5v-2.4c0-0.2,0.1-0.4,0.2-0.5c0.1-0.1,0.3-0.2,0.5-0.2h7.6c3.2,0,5.6-0.8,7.3-2.5
			s2.5-4,2.5-7.2s-0.8-5.5-2.5-7.2c-1.7-1.7-4.1-2.5-7.3-2.5h-7.6c-0.2,0-0.3-0.1-0.5-0.2c-0.1-0.1-0.2-0.3-0.2-0.5v-2.4
			c0-0.2,0.1-0.4,0.2-0.5c0.1-0.1,0.3-0.2,0.5-0.2h7.7c2.8,0,5.2,0.5,7.2,1.6s3.6,2.6,4.6,4.7c1.1,2,1.6,4.5,1.6,7.2
			c0,2.6-0.5,5-1.6,7.1c-1,2.1-2.6,3.7-4.6,4.8c-2.1,1.1-4.6,1.7-7.6,1.6h-7.3C512.4,1742.9,512.3,1742.9,512.2,1742.7z
			 M530.5,1764.8c-0.1-0.1-0.2-0.3-0.3-0.5l-7.4-17.1c-0.1-0.3-0.1-0.6,0-0.7c0.1-0.1,0.2-0.2,0.4-0.2c0.2,0,0.3-0.1,0.3-0.1
			c0.8-0.1,1.5-0.2,1.9-0.4c0.1,0,0.2-0.1,0.3-0.1c0.3,0,0.5,0.2,0.5,0.5l8,17.9c0,0.1,0.1,0.2,0.1,0.4c0,0.3-0.2,0.4-0.5,0.4H531
			C530.8,1764.9,530.6,1764.9,530.5,1764.8z"/>
	</g>
	<g class="st1">
		<path d="M599.5,1764.7c-0.1-0.1-0.2-0.3-0.2-0.5v-47.5c0-0.2,0.1-0.4,0.2-0.5c0.1-0.1,0.3-0.2,0.5-0.2h2.4c0.2,0,0.4,0.1,0.5,0.2
			c0.1,0.1,0.2,0.3,0.2,0.5v47.5c0,0.2-0.1,0.4-0.2,0.5c-0.1,0.1-0.3,0.2-0.5,0.2H600C599.8,1764.9,599.7,1764.8,599.5,1764.7z
			 M606.7,1719.5c-0.1-0.1-0.2-0.3-0.2-0.5v-2.4c0-0.2,0.1-0.4,0.2-0.5c0.1-0.1,0.3-0.2,0.5-0.2h18.2c0.2,0,0.4,0.1,0.5,0.2
			c0.1,0.1,0.2,0.3,0.2,0.5v2.4c0,0.2-0.1,0.4-0.2,0.5c-0.1,0.1-0.3,0.2-0.5,0.2h-18.2C606.9,1719.8,606.8,1719.7,606.7,1719.5z
			 M606.7,1742.3c-0.1-0.1-0.2-0.3-0.2-0.5v-2.4c0-0.2,0.1-0.4,0.2-0.5c0.1-0.1,0.3-0.2,0.5-0.2h15.1c0.2,0,0.4,0.1,0.5,0.2
			c0.1,0.1,0.2,0.3,0.2,0.5v2.4c0,0.2-0.1,0.4-0.2,0.5c-0.1,0.1-0.3,0.2-0.5,0.2h-15.1C606.9,1742.5,606.8,1742.4,606.7,1742.3z"/>
	</g>
	<g class="st1">
		<path d="M706,1764.7c-0.1-0.1-0.2-0.3-0.2-0.5v-47.5c0-0.2,0.1-0.4,0.2-0.5c0.1-0.1,0.3-0.2,0.5-0.2h2.4c0.2,0,0.4,0.1,0.5,0.2
			c0.1,0.1,0.2,0.3,0.2,0.5v47.5c0,0.2-0.1,0.4-0.2,0.5c-0.1,0.1-0.3,0.2-0.5,0.2h-2.4C706.3,1764.9,706.2,1764.8,706,1764.7z"/>
	</g>
	<g class="st1">
		<path d="M798.6,1764.2l-14.6-47.2l-0.1-0.4c0-0.2,0.1-0.3,0.2-0.4c0.1-0.1,0.2-0.1,0.4-0.1h2.3c0.3,0,0.5,0,0.6,0.1
			c0.2,0.1,0.2,0.3,0.3,0.6l14.4,46.9c0.1,0.3,0.1,0.5,0.1,0.6c0,0.4-0.2,0.6-0.6,0.6h-2.1C799,1764.9,798.7,1764.7,798.6,1764.2z
			 M802.3,1753.9c0-0.1-0.1-0.3-0.1-0.5c0-0.1,0-0.4,0.1-0.8l10.7-35.9c0.1-0.3,0.2-0.5,0.3-0.6c0.1-0.1,0.3-0.1,0.6-0.1h2.4
			c0.2,0,0.4,0.1,0.5,0.3c0.1,0.2,0.1,0.4,0,0.7l-12.5,40.8c0,0.1-0.1,0.3-0.2,0.4c-0.1,0.1-0.1,0.1-0.2,0.1c-0.1,0-0.3-0.2-0.5-0.5
			L802.3,1753.9z"/>
	</g>
	<g class="st1">
		<path d="M883,1764.7c-0.1-0.1-0.2-0.3-0.2-0.5v-47.5c0-0.2,0.1-0.4,0.2-0.5c0.1-0.1,0.3-0.2,0.5-0.2h2.4c0.2,0,0.4,0.1,0.5,0.2
			c0.1,0.1,0.2,0.3,0.2,0.5v47.5c0,0.2-0.1,0.4-0.2,0.5c-0.1,0.1-0.3,0.2-0.5,0.2h-2.4C883.3,1764.9,883.1,1764.8,883,1764.7z
			 M890.2,1719.5c-0.1-0.1-0.2-0.3-0.2-0.5v-2.4c0-0.2,0.1-0.4,0.2-0.5c0.1-0.1,0.3-0.2,0.5-0.2h18.2c0.2,0,0.4,0.1,0.5,0.2
			c0.1,0.1,0.2,0.3,0.2,0.5v2.4c0,0.2-0.1,0.4-0.2,0.5c-0.1,0.1-0.3,0.2-0.5,0.2h-18.2C890.4,1719.8,890.3,1719.7,890.2,1719.5z
			 M890.2,1741.8c-0.1-0.1-0.2-0.3-0.2-0.5v-2.4c0-0.2,0.1-0.4,0.2-0.5c0.1-0.1,0.3-0.2,0.5-0.2h15.1c0.2,0,0.4,0.1,0.5,0.2
			c0.1,0.1,0.2,0.3,0.2,0.5v2.4c0,0.2-0.1,0.4-0.2,0.5c-0.1,0.1-0.3,0.2-0.5,0.2h-15.1C890.4,1742,890.3,1741.9,890.2,1741.8z
			 M890.2,1764.7c-0.1-0.1-0.2-0.3-0.2-0.5v-2.4c0-0.2,0.1-0.4,0.2-0.5c0.1-0.1,0.3-0.2,0.5-0.2h18.2c0.2,0,0.4,0.1,0.5,0.2
			c0.1,0.1,0.2,0.3,0.2,0.5v2.4c0,0.2-0.1,0.4-0.2,0.5c-0.1,0.1-0.3,0.2-0.5,0.2h-18.2C890.4,1764.9,890.3,1764.8,890.2,1764.7z"/>
	</g>
	<g class="st1">
		<path d="M972.8,1719.5c-0.1-0.1-0.2-0.3-0.2-0.5v-2.4c0-0.2,0.1-0.4,0.2-0.5c0.1-0.1,0.3-0.2,0.5-0.2h29.9c0.2,0,0.4,0.1,0.5,0.2
			c0.1,0.1,0.2,0.3,0.2,0.5v2.4c0,0.2-0.1,0.4-0.2,0.5c-0.1,0.1-0.3,0.2-0.5,0.2h-29.9C973.1,1719.8,973,1719.7,972.8,1719.5z
			 M986.5,1764.7c-0.1-0.1-0.2-0.3-0.2-0.5v-40c0-0.2,0.1-0.4,0.2-0.5c0.1-0.1,0.3-0.2,0.5-0.2h2.4c0.2,0,0.4,0.1,0.5,0.2
			c0.1,0.1,0.2,0.3,0.2,0.5v40c0,0.2-0.1,0.4-0.2,0.5c-0.1,0.1-0.3,0.2-0.5,0.2H987C986.8,1764.9,986.7,1764.8,986.5,1764.7z"/>
	</g>
	<g class="st1">
		<path d="M1072.6,1764.7c-0.1-0.1-0.2-0.3-0.3-0.5l-10.5-47.4l-0.1-0.3c0-0.1,0.1-0.3,0.2-0.4c0.1-0.1,0.2-0.1,0.4-0.1h2.3
			c0.3,0,0.5,0,0.6,0.1c0.1,0.1,0.2,0.3,0.3,0.6l10.1,47.1c0,0.1,0.1,0.3,0.1,0.5c0,0.4-0.2,0.6-0.6,0.6h-2.1
			C1072.9,1764.9,1072.7,1764.8,1072.6,1764.7z M1097,1764.7c-0.1-0.1-0.2-0.3-0.3-0.5l-10.3-40.4h-0.1l-8.4,32.5
			c0,0.1-0.1,0.3-0.2,0.4c-0.1,0.1-0.1,0.1-0.2,0.1c-0.2,0-0.3-0.2-0.4-0.5l-1-5c0-0.3,0-0.6,0-0.9l8.5-33.8
			c0.1-0.2,0.2-0.4,0.3-0.5c0.1-0.1,0.3-0.2,0.5-0.2h1.9c0.2,0,0.4,0.1,0.5,0.2c0.1,0.1,0.2,0.3,0.3,0.5l12,47.1l0.1,0.4
			c0,0.5-0.2,0.8-0.6,0.8h-2.1C1097.2,1764.9,1097.1,1764.8,1097,1764.7z M1099.9,1751.4c-0.1-0.4-0.1-0.7-0.1-0.9l7.2-33.9
			c0-0.3,0.1-0.5,0.3-0.6c0.1-0.1,0.3-0.1,0.6-0.1h2.3c0.2,0,0.4,0.1,0.5,0.2c0.1,0.1,0.1,0.3,0.1,0.6l-8.8,39.6
			c0,0.1-0.1,0.3-0.2,0.4c-0.1,0.1-0.1,0.1-0.2,0.1c-0.2,0-0.3-0.1-0.4-0.4L1099.9,1751.4z"/>
	</g>
	<g class="st1">
		<path d="M1170.2,1762.2c-2-1.8-3.5-4.3-4.4-7.5c-0.4-1.3-0.7-3-0.9-5.1c-0.2-2.1-0.3-5.1-0.3-9.1c0-4,0.1-7.1,0.3-9.1
			c0.2-2.1,0.5-3.8,0.9-5.1c1-3.2,2.4-5.7,4.4-7.5c2-1.8,4.5-2.9,7.4-3.3h0.1c0.2,0,0.3,0.1,0.4,0.2c0.1,0.1,0.2,0.3,0.2,0.5v2.4
			c0,0.4-0.2,0.6-0.6,0.7c-4.2,0.8-7,3.5-8.4,8.1c-0.3,1.1-0.6,2.7-0.8,4.6c-0.2,2-0.3,4.8-0.3,8.5c0,3.6,0.1,6.5,0.3,8.5
			c0.2,2,0.5,3.5,0.8,4.6c1.4,4.7,4.2,7.4,8.4,8.1c0.4,0,0.6,0.3,0.6,0.7v2.4c0,0.2-0.1,0.4-0.2,0.5c-0.1,0.1-0.3,0.2-0.5,0.1
			C1174.6,1765.1,1172.1,1764,1170.2,1762.2z M1182.3,1765.5c-0.2,0-0.3-0.1-0.4-0.2c-0.1-0.1-0.2-0.3-0.2-0.5v-2.4
			c0-0.4,0.2-0.7,0.6-0.7c4.2-0.8,7-3.5,8.4-8.1c0.3-1.2,0.6-2.7,0.8-4.7c0.2-2,0.3-4.8,0.3-8.4c0-3.6-0.1-6.4-0.3-8.4
			c-0.2-2-0.5-3.6-0.8-4.7c-1.4-4.7-4.2-7.4-8.4-8.1c-0.4-0.1-0.6-0.3-0.6-0.7v-2.4c0-0.2,0.1-0.4,0.2-0.5c0.1-0.1,0.3-0.2,0.5-0.1
			c2.9,0.4,5.4,1.5,7.4,3.3s3.5,4.3,4.5,7.5c0.4,1.4,0.7,3.1,0.9,5.2c0.2,2.1,0.3,5.1,0.3,9.1c0,3.9-0.1,6.9-0.3,9
			c-0.2,2.1-0.5,3.8-0.9,5.2c-1,3.2-2.4,5.7-4.5,7.5s-4.5,2.9-7.4,3.3H1182.3z"/>
	</g>
	<g class="st1">
		<path d="M221.5,1880.9c-0.1-0.1-0.2-0.3-0.2-0.5v-47.5c0-0.2,0.1-0.4,0.2-0.5c0.1-0.1,0.3-0.2,0.5-0.2h2.4c0.2,0,0.4,0.1,0.5,0.2
			c0.1,0.1,0.2,0.3,0.2,0.5v47.5c0,0.2-0.1,0.4-0.2,0.5c-0.1,0.1-0.3,0.2-0.5,0.2H222C221.8,1881.1,221.7,1881.1,221.5,1880.9z
			 M228.7,1835.8c-0.1-0.1-0.2-0.3-0.2-0.5v-2.4c0-0.2,0.1-0.4,0.2-0.5c0.1-0.1,0.3-0.2,0.5-0.2h18.2c0.2,0,0.4,0.1,0.5,0.2
			c0.1,0.1,0.2,0.3,0.2,0.5v2.4c0,0.2-0.1,0.4-0.2,0.5c-0.1,0.1-0.3,0.2-0.5,0.2h-18.2C229,1836,228.8,1835.9,228.7,1835.8z
			 M228.7,1858c-0.1-0.1-0.2-0.3-0.2-0.5v-2.4c0-0.2,0.1-0.4,0.2-0.5c0.1-0.1,0.3-0.2,0.5-0.2h15.1c0.2,0,0.4,0.1,0.5,0.2
			c0.1,0.1,0.2,0.3,0.2,0.5v2.4c0,0.2-0.1,0.4-0.2,0.5c-0.1,0.1-0.3,0.2-0.5,0.2h-15.1C229,1858.2,228.8,1858.2,228.7,1858z
			 M228.7,1880.9c-0.1-0.1-0.2-0.3-0.2-0.5v-2.4c0-0.2,0.1-0.4,0.2-0.5c0.1-0.1,0.3-0.2,0.5-0.2h18.2c0.2,0,0.4,0.1,0.5,0.2
			c0.1,0.1,0.2,0.3,0.2,0.5v2.4c0,0.2-0.1,0.4-0.2,0.5c-0.1,0.1-0.3,0.2-0.5,0.2h-18.2C229,1881.1,228.8,1881.1,228.7,1880.9z"/>
	</g>
	<g class="st1">
		<path d="M328,1880.9c-0.1-0.1-0.2-0.3-0.2-0.5v-47.5c0-0.2,0.1-0.4,0.2-0.5c0.1-0.1,0.3-0.2,0.5-0.2h2.4c0.2,0,0.4,0.1,0.5,0.2
			c0.1,0.1,0.2,0.3,0.2,0.5v47.5c0,0.2-0.1,0.4-0.2,0.5c-0.1,0.1-0.3,0.2-0.5,0.2h-2.4C328.3,1881.1,328.2,1881.1,328,1880.9z"/>
	</g>
	<g class="st1">
		<path d="M414.2,1878.4c-2-1.8-3.5-4.3-4.5-7.5c-0.4-1.3-0.7-3.1-0.9-5.1c-0.2-2.1-0.3-5.1-0.3-9.1c0-4,0.1-7,0.3-9.1
			c0.2-2.1,0.5-3.8,0.9-5.1c1-3.2,2.4-5.7,4.5-7.5c2-1.8,4.5-2.9,7.5-3.3h0.1c0.2,0,0.3,0.1,0.4,0.2c0.1,0.1,0.1,0.3,0.1,0.5v2.4
			c0,0.4-0.2,0.6-0.6,0.7c-2.1,0.3-3.9,1.2-5.3,2.6c-1.4,1.4-2.5,3.2-3.2,5.5c-0.3,1.1-0.6,2.6-0.8,4.5c-0.2,2-0.3,4.8-0.3,8.6
			c0,3.7,0.1,6.6,0.3,8.6c0.2,2,0.4,3.5,0.8,4.5c0.7,2.3,1.7,4.2,3.2,5.5c1.4,1.4,3.2,2.3,5.3,2.6c0.4,0,0.6,0.3,0.6,0.7v2.4
			c0,0.2-0.1,0.4-0.2,0.5c-0.1,0.1-0.3,0.2-0.5,0.1C418.7,1881.3,416.2,1880.2,414.2,1878.4z M426.3,1881.7c-0.2,0-0.3-0.1-0.4-0.2
			c-0.1-0.1-0.1-0.3-0.1-0.5v-2.4c0-0.4,0.2-0.7,0.6-0.7c2.1-0.4,3.8-1.3,5.3-2.6c1.4-1.4,2.5-3.2,3.2-5.4c0.7-2.1,1-5.3,1-9.4
			c0-0.3-0.1-0.4-0.4-0.4h-10.1c-0.2,0-0.3-0.1-0.5-0.2c-0.1-0.1-0.2-0.3-0.2-0.5v-2.2c0-0.2,0.1-0.4,0.2-0.5
			c0.1-0.1,0.3-0.2,0.5-0.2h13.5c0.2,0,0.4,0.1,0.5,0.2c0.1,0.1,0.2,0.3,0.2,0.5v3c0,2.3-0.1,4.4-0.3,6.2c-0.2,1.8-0.5,3.4-0.8,4.6
			c-1,3.2-2.4,5.7-4.5,7.5c-2,1.8-4.5,3-7.5,3.3H426.3z M435.3,1842.6c-0.2,0-0.4-0.1-0.5-0.4c-1-2-2.1-3.5-3.5-4.6
			c-1.4-1.1-3-1.9-4.9-2.2c-0.4-0.1-0.6-0.3-0.6-0.7v-2.4c0-0.2,0.1-0.4,0.2-0.5c0.1-0.1,0.3-0.2,0.5-0.1c2.7,0.4,5.1,1.4,7,2.9
			c1.9,1.6,3.4,3.5,4.4,5.8c0.1,0.3,0.1,0.5,0.1,0.6c0,0.2-0.1,0.4-0.3,0.5l-2.1,1.2C435.6,1842.6,435.5,1842.6,435.3,1842.6z"/>
	</g>
	<g class="st1">
		<path d="M505,1880.9c-0.1-0.1-0.2-0.3-0.2-0.5v-47.5c0-0.2,0.1-0.4,0.2-0.5c0.1-0.1,0.3-0.2,0.5-0.2h2.4c0.2,0,0.4,0.1,0.5,0.2
			c0.1,0.1,0.2,0.3,0.2,0.5v47.5c0,0.2-0.1,0.4-0.2,0.5c-0.1,0.1-0.3,0.2-0.5,0.2h-2.4C505.3,1881.1,505.2,1881.1,505,1880.9z
			 M511.9,1858c-0.1-0.1-0.2-0.3-0.2-0.5v-2.4c0-0.2,0.1-0.4,0.2-0.5c0.1-0.1,0.3-0.2,0.5-0.2h14.9c0.2,0,0.4,0.1,0.5,0.2
			c0.1,0.1,0.2,0.3,0.2,0.5v2.4c0,0.2-0.1,0.4-0.2,0.5c-0.1,0.1-0.3,0.2-0.5,0.2h-14.9C512.2,1858.2,512,1858.2,511.9,1858z
			 M531.3,1880.9c-0.1-0.1-0.2-0.3-0.2-0.5v-47.5c0-0.2,0.1-0.4,0.2-0.5c0.1-0.1,0.3-0.2,0.5-0.2h2.4c0.2,0,0.4,0.1,0.5,0.2
			c0.1,0.1,0.2,0.3,0.2,0.5v47.5c0,0.2-0.1,0.4-0.2,0.5c-0.1,0.1-0.3,0.2-0.5,0.2h-2.4C531.6,1881.1,531.5,1881.1,531.3,1880.9z"/>
	</g>
	<g class="st1">
		<path d="M594.8,1835.8c-0.1-0.1-0.2-0.3-0.2-0.5v-2.4c0-0.2,0.1-0.4,0.2-0.5c0.1-0.1,0.3-0.2,0.5-0.2h29.9c0.2,0,0.4,0.1,0.5,0.2
			c0.1,0.1,0.2,0.3,0.2,0.5v2.4c0,0.2-0.1,0.4-0.2,0.5c-0.1,0.1-0.3,0.2-0.5,0.2h-29.9C595.1,1836,595,1835.9,594.8,1835.8z
			 M608.5,1880.9c-0.1-0.1-0.2-0.3-0.2-0.5v-40c0-0.2,0.1-0.4,0.2-0.5c0.1-0.1,0.3-0.2,0.5-0.2h2.4c0.2,0,0.4,0.1,0.5,0.2
			c0.1,0.1,0.2,0.3,0.2,0.5v40c0,0.2-0.1,0.4-0.2,0.5c-0.1,0.1-0.3,0.2-0.5,0.2H609C608.8,1881.1,608.7,1881.1,608.5,1880.9z"/>
	</g>
	<g class="st1">
		<path d="M694,1880.9c-0.1-0.1-0.2-0.3-0.2-0.5v-47.5c0-0.2,0.1-0.4,0.2-0.5c0.1-0.1,0.3-0.2,0.5-0.2h2.4c0.2,0,0.4,0.1,0.5,0.2
			c0.1,0.1,0.2,0.3,0.2,0.5v47.5c0,0.2-0.1,0.4-0.2,0.5c-0.1,0.1-0.3,0.2-0.5,0.2h-2.4C694.3,1881.1,694.2,1881.1,694,1880.9z
			 M701.2,1835.8c-0.1-0.1-0.2-0.3-0.2-0.5v-2.4c0-0.2,0.1-0.4,0.2-0.5c0.1-0.1,0.3-0.2,0.5-0.2h18.2c0.2,0,0.4,0.1,0.5,0.2
			c0.1,0.1,0.2,0.3,0.2,0.5v2.4c0,0.2-0.1,0.4-0.2,0.5c-0.1,0.1-0.3,0.2-0.5,0.2h-18.2C701.4,1836,701.3,1835.9,701.2,1835.8z
			 M701.2,1858c-0.1-0.1-0.2-0.3-0.2-0.5v-2.4c0-0.2,0.1-0.4,0.2-0.5c0.1-0.1,0.3-0.2,0.5-0.2h15.1c0.2,0,0.4,0.1,0.5,0.2
			c0.1,0.1,0.2,0.3,0.2,0.5v2.4c0,0.2-0.1,0.4-0.2,0.5c-0.1,0.1-0.3,0.2-0.5,0.2h-15.1C701.4,1858.2,701.3,1858.2,701.2,1858z
			 M701.2,1880.9c-0.1-0.1-0.2-0.3-0.2-0.5v-2.4c0-0.2,0.1-0.4,0.2-0.5c0.1-0.1,0.3-0.2,0.5-0.2h18.2c0.2,0,0.4,0.1,0.5,0.2
			c0.1,0.1,0.2,0.3,0.2,0.5v2.4c0,0.2-0.1,0.4-0.2,0.5c-0.1,0.1-0.3,0.2-0.5,0.2h-18.2C701.4,1881.1,701.3,1881.1,701.2,1880.9z"/>
	</g>
	<g class="st1">
		<path d="M788.5,1880.9c-0.1-0.1-0.2-0.3-0.2-0.5v-47.5c0-0.2,0.1-0.4,0.2-0.5c0.1-0.1,0.3-0.2,0.5-0.2h2.4c0.2,0,0.4,0.1,0.5,0.2
			c0.1,0.1,0.2,0.3,0.2,0.5v47.5c0,0.2-0.1,0.4-0.2,0.5c-0.1,0.1-0.3,0.2-0.5,0.2H789C788.8,1881.1,788.7,1881.1,788.5,1880.9z
			 M795.7,1880.9c-0.1-0.1-0.2-0.3-0.2-0.5v-2.4c0-0.2,0.1-0.4,0.2-0.5c0.1-0.1,0.3-0.2,0.5-0.2h18.2c0.2,0,0.4,0.1,0.5,0.2
			c0.1,0.1,0.2,0.3,0.2,0.5v2.4c0,0.2-0.1,0.4-0.2,0.5c-0.1,0.1-0.3,0.2-0.5,0.2h-18.2C795.9,1881.1,795.8,1881.1,795.7,1880.9z"/>
	</g>
	<g class="st1">
		<path d="M883,1880.9c-0.1-0.1-0.2-0.3-0.2-0.5v-47.5c0-0.2,0.1-0.4,0.2-0.5c0.1-0.1,0.3-0.2,0.5-0.2h2.4c0.2,0,0.4,0.1,0.5,0.2
			c0.1,0.1,0.2,0.3,0.2,0.5v47.5c0,0.2-0.1,0.4-0.2,0.5c-0.1,0.1-0.3,0.2-0.5,0.2h-2.4C883.3,1881.1,883.1,1881.1,883,1880.9z
			 M890.2,1835.8c-0.1-0.1-0.2-0.3-0.2-0.5v-2.4c0-0.2,0.1-0.4,0.2-0.5c0.1-0.1,0.3-0.2,0.5-0.2h18.2c0.2,0,0.4,0.1,0.5,0.2
			c0.1,0.1,0.2,0.3,0.2,0.5v2.4c0,0.2-0.1,0.4-0.2,0.5c-0.1,0.1-0.3,0.2-0.5,0.2h-18.2C890.4,1836,890.3,1835.9,890.2,1835.8z
			 M890.2,1858c-0.1-0.1-0.2-0.3-0.2-0.5v-2.4c0-0.2,0.1-0.4,0.2-0.5c0.1-0.1,0.3-0.2,0.5-0.2h15.1c0.2,0,0.4,0.1,0.5,0.2
			c0.1,0.1,0.2,0.3,0.2,0.5v2.4c0,0.2-0.1,0.4-0.2,0.5c-0.1,0.1-0.3,0.2-0.5,0.2h-15.1C890.4,1858.2,890.3,1858.2,890.2,1858z
			 M890.2,1880.9c-0.1-0.1-0.2-0.3-0.2-0.5v-2.4c0-0.2,0.1-0.4,0.2-0.5c0.1-0.1,0.3-0.2,0.5-0.2h18.2c0.2,0,0.4,0.1,0.5,0.2
			c0.1,0.1,0.2,0.3,0.2,0.5v2.4c0,0.2-0.1,0.4-0.2,0.5c-0.1,0.1-0.3,0.2-0.5,0.2h-18.2C890.4,1881.1,890.3,1881.1,890.2,1880.9z"/>
	</g>
	<g class="st1">
		<path d="M987.6,1880.4l-14.6-47.2l-0.1-0.4c0-0.2,0.1-0.3,0.2-0.4c0.1-0.1,0.2-0.1,0.4-0.1h2.3c0.3,0,0.5,0,0.6,0.1
			c0.2,0.1,0.2,0.3,0.3,0.6l14.4,46.9c0.1,0.3,0.1,0.5,0.1,0.6c0,0.4-0.2,0.6-0.6,0.6h-2.1C988,1881.1,987.7,1880.9,987.6,1880.4z
			 M991.3,1870.1c0-0.1-0.1-0.3-0.1-0.5c0-0.1,0-0.4,0.1-0.8l10.7-35.9c0.1-0.3,0.2-0.5,0.3-0.6c0.1-0.1,0.3-0.1,0.6-0.1h2.4
			c0.2,0,0.4,0.1,0.5,0.3c0.1,0.2,0.1,0.4,0,0.7l-12.5,40.8c0,0.1-0.1,0.3-0.2,0.4c-0.1,0.1-0.1,0.1-0.2,0.1c-0.1,0-0.3-0.2-0.5-0.5
			L991.3,1870.1z"/>
	</g>
	<g class="st1">
		<path d="M1072,1880.9c-0.1-0.1-0.2-0.3-0.2-0.5v-47.5c0-0.2,0.1-0.4,0.2-0.5c0.1-0.1,0.3-0.2,0.5-0.2h2.4c0.2,0,0.4,0.1,0.5,0.2
			c0.1,0.1,0.2,0.3,0.2,0.5v47.5c0,0.2-0.1,0.4-0.2,0.5c-0.1,0.1-0.3,0.2-0.5,0.2h-2.4C1072.3,1881.1,1072.1,1881.1,1072,1880.9z
			 M1079.2,1835.8c-0.1-0.1-0.2-0.3-0.2-0.5v-2.4c0-0.2,0.1-0.4,0.2-0.5c0.1-0.1,0.3-0.2,0.5-0.2h18.2c0.2,0,0.4,0.1,0.5,0.2
			c0.1,0.1,0.2,0.3,0.2,0.5v2.4c0,0.2-0.1,0.4-0.2,0.5c-0.1,0.1-0.3,0.2-0.5,0.2h-18.2C1079.4,1836,1079.3,1835.9,1079.2,1835.8z
			 M1079.2,1858c-0.1-0.1-0.2-0.3-0.2-0.5v-2.4c0-0.2,0.1-0.4,0.2-0.5c0.1-0.1,0.3-0.2,0.5-0.2h15.1c0.2,0,0.4,0.1,0.5,0.2
			c0.1,0.1,0.2,0.3,0.2,0.5v2.4c0,0.2-0.1,0.4-0.2,0.5c-0.1,0.1-0.3,0.2-0.5,0.2h-15.1C1079.4,1858.2,1079.3,1858.2,1079.2,1858z
			 M1079.2,1880.9c-0.1-0.1-0.2-0.3-0.2-0.5v-2.4c0-0.2,0.1-0.4,0.2-0.5c0.1-0.1,0.3-0.2,0.5-0.2h18.2c0.2,0,0.4,0.1,0.5,0.2
			c0.1,0.1,0.2,0.3,0.2,0.5v2.4c0,0.2-0.1,0.4-0.2,0.5c-0.1,0.1-0.3,0.2-0.5,0.2h-18.2C1079.4,1881.1,1079.3,1881.1,1079.2,1880.9z"
			/>
	</g>
	<g class="st1">
		<path d="M1192.9,1881c-0.2-0.1-0.4-0.3-0.5-0.6l-25.9-46.6c-0.2-0.2-0.3-0.5-0.3-0.9c0-0.5,0.2-0.8,0.7-0.8h2.1
			c0.3,0,0.5,0,0.7,0.1c0.2,0.1,0.3,0.3,0.5,0.6l25.9,46.8c0.1,0.1,0.2,0.3,0.2,0.5c0,0.2,0,0.3,0,0.5c-0.1,0.3-0.3,0.5-0.6,0.5
			h-2.2C1193.3,1881.1,1193.1,1881.1,1192.9,1881z M1166.5,1880.9c-0.1-0.1-0.2-0.3-0.2-0.5v-38.8c0-0.4,0.1-0.6,0.3-0.6
			c0.2,0,0.4,0.1,0.5,0.4l2.5,4.5c0.1,0.3,0.2,0.6,0.2,0.9v33.6c0,0.2-0.1,0.4-0.2,0.5c-0.1,0.1-0.3,0.2-0.5,0.2h-2.2
			C1166.8,1881.1,1166.6,1881.1,1166.5,1880.9z M1193.1,1867.3c-0.1-0.3-0.2-0.6-0.2-0.9v-33.5c0-0.2,0.1-0.4,0.2-0.5
			c0.1-0.1,0.3-0.2,0.5-0.2h2.2c0.2,0,0.4,0.1,0.5,0.2c0.1,0.1,0.2,0.3,0.2,0.5v38.7c0,0.4-0.1,0.6-0.3,0.6c-0.2,0-0.3-0.1-0.5-0.4
			L1193.1,1867.3z"/>
	</g>
	<g class="st1">
		<path d="M224.9,1996.1c-2.3-1-4.1-2.2-5.5-3.6c-0.1-0.1-0.2-0.3-0.2-0.5c0-0.2,0-0.4,0.2-0.6l1.6-2c0.3-0.3,0.6-0.4,0.9-0.1
			c1.3,1.2,2.9,2.2,4.6,3.1c1.8,0.9,3.6,1.5,5.6,1.8c0.4,0.1,0.6,0.3,0.6,0.7v2.4c0,0.2-0.1,0.4-0.2,0.5c-0.1,0.1-0.3,0.2-0.5,0.1
			C229.6,1997.7,227.2,1997.1,224.9,1996.1z M236.7,1998c-0.2,0-0.3-0.1-0.4-0.2c-0.1-0.1-0.2-0.3-0.2-0.5v-2.4
			c0-0.5,0.2-0.7,0.6-0.8c2.9-0.3,5.1-1.4,6.7-3.2c1.6-1.8,2.4-4,2.4-6.7c0-2.6-0.8-4.8-2.3-6.4s-4.3-2.7-8.1-3.2l-2.1-0.4
			c-4.2-0.6-7.4-2-9.5-4.2c-2.1-2.2-3.2-5.1-3.2-8.7c0-2.5,0.5-4.7,1.4-6.7c0.9-1.9,2.2-3.5,3.9-4.7c1.7-1.2,3.7-1.9,6-2.2h0.1
			c0.2,0,0.3,0.1,0.4,0.2c0.1,0.1,0.2,0.3,0.2,0.5v2.4c0,0.4-0.2,0.6-0.6,0.7c-2.4,0.4-4.3,1.5-5.7,3.2c-1.3,1.7-2,3.8-2,6.3
			c0,2.6,0.8,4.7,2.5,6.3c1.6,1.6,4.3,2.6,8.1,3.2l2.1,0.3c4.3,0.6,7.5,2,9.5,4.2c2.1,2.2,3.1,5.1,3.1,8.8c0,2.5-0.5,4.8-1.5,6.8
			c-1,2-2.4,3.6-4.3,4.9c-1.9,1.3-4.2,2.1-7,2.3H236.7z M236.7,1951.7c-0.4-0.1-0.6-0.4-0.6-0.8v-2.4c0-0.2,0.1-0.4,0.2-0.5
			c0.1-0.1,0.3-0.2,0.5-0.1c1.9,0.2,3.8,0.6,5.6,1.3c1.8,0.7,3.3,1.5,4.6,2.6c0.3,0.3,0.4,0.6,0.1,1l-1.2,2.2
			c-0.3,0.3-0.6,0.4-0.9,0.1C242.3,1953.1,239.5,1952,236.7,1951.7z"/>
	</g>
	<g class="st1">
		<path d="M316,1997.2c-0.1-0.1-0.2-0.3-0.2-0.5v-47.5c0-0.2,0.1-0.4,0.2-0.5c0.1-0.1,0.3-0.2,0.5-0.2h2.4c0.2,0,0.4,0.1,0.5,0.2
			c0.1,0.1,0.2,0.3,0.2,0.5v47.5c0,0.2-0.1,0.4-0.2,0.5c-0.1,0.1-0.3,0.2-0.5,0.2h-2.4C316.3,1997.4,316.2,1997.3,316,1997.2z
			 M323.2,1952c-0.1-0.1-0.2-0.3-0.2-0.5v-2.4c0-0.2,0.1-0.4,0.2-0.5c0.1-0.1,0.3-0.2,0.5-0.2h18.2c0.2,0,0.4,0.1,0.5,0.2
			c0.1,0.1,0.2,0.3,0.2,0.5v2.4c0,0.2-0.1,0.4-0.2,0.5c-0.1,0.1-0.3,0.2-0.5,0.2h-18.2C323.5,1952.2,323.3,1952.2,323.2,1952z
			 M323.2,1974.3c-0.1-0.1-0.2-0.3-0.2-0.5v-2.4c0-0.2,0.1-0.4,0.2-0.5c0.1-0.1,0.3-0.2,0.5-0.2h15.1c0.2,0,0.4,0.1,0.5,0.2
			c0.1,0.1,0.2,0.3,0.2,0.5v2.4c0,0.2-0.1,0.4-0.2,0.5c-0.1,0.1-0.3,0.2-0.5,0.2h-15.1C323.5,1974.5,323.3,1974.4,323.2,1974.3z
			 M323.2,1997.2c-0.1-0.1-0.2-0.3-0.2-0.5v-2.4c0-0.2,0.1-0.4,0.2-0.5c0.1-0.1,0.3-0.2,0.5-0.2h18.2c0.2,0,0.4,0.1,0.5,0.2
			c0.1,0.1,0.2,0.3,0.2,0.5v2.4c0,0.2-0.1,0.4-0.2,0.5c-0.1,0.1-0.3,0.2-0.5,0.2h-18.2C323.5,1997.4,323.3,1997.3,323.2,1997.2z"/>
	</g>
	<g class="st1">
		<path d="M420.6,1996.7l-14.6-47.2l-0.1-0.4c0-0.2,0.1-0.3,0.2-0.4c0.1-0.1,0.2-0.1,0.4-0.1h2.3c0.3,0,0.5,0,0.6,0.1
			c0.2,0.1,0.2,0.3,0.3,0.6l14.4,46.9c0.1,0.3,0.1,0.5,0.1,0.6c0,0.4-0.2,0.6-0.6,0.6h-2.1C421,1997.4,420.7,1997.1,420.6,1996.7z
			 M424.3,1986.4c0-0.1-0.1-0.3-0.1-0.5c0-0.1,0-0.4,0.1-0.8l10.7-35.9c0.1-0.3,0.2-0.5,0.3-0.6c0.1-0.1,0.3-0.1,0.6-0.1h2.4
			c0.2,0,0.4,0.1,0.5,0.3c0.1,0.2,0.1,0.4,0,0.7l-12.5,40.8c0,0.1-0.1,0.3-0.2,0.4c-0.1,0.1-0.1,0.1-0.2,0.1c-0.1,0-0.3-0.2-0.5-0.5
			L424.3,1986.4z"/>
	</g>
	<g class="st1">
		<path d="M505,1997.2c-0.1-0.1-0.2-0.3-0.2-0.5v-47.5c0-0.2,0.1-0.4,0.2-0.5c0.1-0.1,0.3-0.2,0.5-0.2h2.4c0.2,0,0.4,0.1,0.5,0.2
			c0.1,0.1,0.2,0.3,0.2,0.5v47.5c0,0.2-0.1,0.4-0.2,0.5c-0.1,0.1-0.3,0.2-0.5,0.2h-2.4C505.3,1997.4,505.2,1997.3,505,1997.2z
			 M512.2,1952c-0.1-0.1-0.2-0.3-0.2-0.5v-2.4c0-0.2,0.1-0.4,0.2-0.5c0.1-0.1,0.3-0.2,0.5-0.2h18.2c0.2,0,0.4,0.1,0.5,0.2
			c0.1,0.1,0.2,0.3,0.2,0.5v2.4c0,0.2-0.1,0.4-0.2,0.5c-0.1,0.1-0.3,0.2-0.5,0.2h-18.2C512.4,1952.2,512.3,1952.2,512.2,1952z
			 M512.2,1974.3c-0.1-0.1-0.2-0.3-0.2-0.5v-2.4c0-0.2,0.1-0.4,0.2-0.5c0.1-0.1,0.3-0.2,0.5-0.2h15.1c0.2,0,0.4,0.1,0.5,0.2
			c0.1,0.1,0.2,0.3,0.2,0.5v2.4c0,0.2-0.1,0.4-0.2,0.5c-0.1,0.1-0.3,0.2-0.5,0.2h-15.1C512.4,1974.5,512.3,1974.4,512.2,1974.3z
			 M512.2,1997.2c-0.1-0.1-0.2-0.3-0.2-0.5v-2.4c0-0.2,0.1-0.4,0.2-0.5c0.1-0.1,0.3-0.2,0.5-0.2h18.2c0.2,0,0.4,0.1,0.5,0.2
			c0.1,0.1,0.2,0.3,0.2,0.5v2.4c0,0.2-0.1,0.4-0.2,0.5c-0.1,0.1-0.3,0.2-0.5,0.2h-18.2C512.4,1997.4,512.3,1997.3,512.2,1997.2z"/>
	</g>
	<g class="st1">
		<path d="M625.9,1997.2c-0.2-0.1-0.4-0.3-0.5-0.6l-25.9-46.6c-0.2-0.2-0.3-0.5-0.3-0.9c0-0.5,0.2-0.8,0.7-0.8h2.1
			c0.3,0,0.5,0,0.7,0.1c0.2,0.1,0.3,0.3,0.5,0.6l25.9,46.8c0.1,0.1,0.2,0.3,0.2,0.5c0,0.2,0,0.3,0,0.5c-0.1,0.3-0.3,0.5-0.6,0.5
			h-2.2C626.3,1997.4,626.1,1997.3,625.9,1997.2z M599.5,1997.2c-0.1-0.1-0.2-0.3-0.2-0.5v-38.8c0-0.4,0.1-0.6,0.3-0.6
			c0.2,0,0.4,0.1,0.5,0.4l2.5,4.5c0.1,0.3,0.2,0.6,0.2,0.9v33.6c0,0.2-0.1,0.4-0.2,0.5c-0.1,0.1-0.3,0.2-0.5,0.2H600
			C599.8,1997.4,599.7,1997.3,599.5,1997.2z M626.1,1983.6c-0.1-0.3-0.2-0.6-0.2-0.9v-33.5c0-0.2,0.1-0.4,0.2-0.5
			c0.1-0.1,0.3-0.2,0.5-0.2h2.2c0.2,0,0.4,0.1,0.5,0.2c0.1,0.1,0.2,0.3,0.2,0.5v38.7c0,0.4-0.1,0.6-0.3,0.6c-0.2,0-0.3-0.1-0.5-0.4
			L626.1,1983.6z"/>
	</g>
	<g class="st1">
		<path d="M689.3,1952c-0.1-0.1-0.2-0.3-0.2-0.5v-2.4c0-0.2,0.1-0.4,0.2-0.5c0.1-0.1,0.3-0.2,0.5-0.2h29.9c0.2,0,0.4,0.1,0.5,0.2
			c0.1,0.1,0.2,0.3,0.2,0.5v2.4c0,0.2-0.1,0.4-0.2,0.5c-0.1,0.1-0.3,0.2-0.5,0.2h-29.9C689.6,1952.2,689.5,1952.2,689.3,1952z
			 M703,1997.2c-0.1-0.1-0.2-0.3-0.2-0.5v-40c0-0.2,0.1-0.4,0.2-0.5c0.1-0.1,0.3-0.2,0.5-0.2h2.4c0.2,0,0.4,0.1,0.5,0.2
			c0.1,0.1,0.2,0.3,0.2,0.5v40c0,0.2-0.1,0.4-0.2,0.5c-0.1,0.1-0.3,0.2-0.5,0.2h-2.4C703.3,1997.4,703.2,1997.3,703,1997.2z"/>
	</g>
	<g class="st1">
		<path d="M789.1,1997.2c-0.1-0.1-0.2-0.3-0.3-0.5l-10.5-47.4l-0.1-0.3c0-0.1,0.1-0.3,0.2-0.4c0.1-0.1,0.2-0.1,0.4-0.1h2.3
			c0.3,0,0.5,0,0.6,0.1c0.1,0.1,0.2,0.3,0.3,0.6l10.1,47.1c0,0.1,0.1,0.3,0.1,0.5c0,0.4-0.2,0.6-0.6,0.6h-2.1
			C789.4,1997.4,789.2,1997.3,789.1,1997.2z M813.5,1997.2c-0.1-0.1-0.2-0.3-0.3-0.5l-10.3-40.4h-0.1l-8.4,32.5
			c0,0.1-0.1,0.3-0.2,0.4c-0.1,0.1-0.1,0.1-0.2,0.1c-0.2,0-0.3-0.2-0.4-0.5l-1-5c0-0.3,0-0.6,0-0.9l8.5-33.8
			c0.1-0.2,0.2-0.4,0.3-0.5c0.1-0.1,0.3-0.2,0.5-0.2h1.9c0.2,0,0.4,0.1,0.5,0.2c0.1,0.1,0.2,0.3,0.3,0.5l12,47.1l0.1,0.4
			c0,0.5-0.2,0.8-0.6,0.8h-2.1C813.7,1997.4,813.6,1997.3,813.5,1997.2z M816.4,1983.9c-0.1-0.4-0.1-0.7-0.1-0.9l7.2-33.9
			c0-0.3,0.1-0.5,0.3-0.6c0.1-0.1,0.3-0.1,0.6-0.1h2.3c0.2,0,0.4,0.1,0.5,0.2c0.1,0.1,0.1,0.3,0.1,0.6l-8.8,39.6
			c0,0.1-0.1,0.3-0.2,0.4c-0.1,0.1-0.1,0.1-0.2,0.1c-0.2,0-0.3-0.1-0.4-0.4L816.4,1983.9z"/>
	</g>
	<g class="st1">
		<path d="M883,1997.2c-0.1-0.1-0.2-0.3-0.2-0.5v-47.5c0-0.2,0.1-0.4,0.2-0.5c0.1-0.1,0.3-0.2,0.5-0.2h2.4c0.2,0,0.4,0.1,0.5,0.2
			c0.1,0.1,0.2,0.3,0.2,0.5v47.5c0,0.2-0.1,0.4-0.2,0.5c-0.1,0.1-0.3,0.2-0.5,0.2h-2.4C883.3,1997.4,883.1,1997.3,883,1997.2z
			 M890.2,1952c-0.1-0.1-0.2-0.3-0.2-0.5v-2.4c0-0.2,0.1-0.4,0.2-0.5c0.1-0.1,0.3-0.2,0.5-0.2h18.2c0.2,0,0.4,0.1,0.5,0.2
			c0.1,0.1,0.2,0.3,0.2,0.5v2.4c0,0.2-0.1,0.4-0.2,0.5c-0.1,0.1-0.3,0.2-0.5,0.2h-18.2C890.4,1952.2,890.3,1952.2,890.2,1952z
			 M890.2,1974.3c-0.1-0.1-0.2-0.3-0.2-0.5v-2.4c0-0.2,0.1-0.4,0.2-0.5c0.1-0.1,0.3-0.2,0.5-0.2h15.1c0.2,0,0.4,0.1,0.5,0.2
			c0.1,0.1,0.2,0.3,0.2,0.5v2.4c0,0.2-0.1,0.4-0.2,0.5c-0.1,0.1-0.3,0.2-0.5,0.2h-15.1C890.4,1974.5,890.3,1974.4,890.2,1974.3z
			 M890.2,1997.2c-0.1-0.1-0.2-0.3-0.2-0.5v-2.4c0-0.2,0.1-0.4,0.2-0.5c0.1-0.1,0.3-0.2,0.5-0.2h18.2c0.2,0,0.4,0.1,0.5,0.2
			c0.1,0.1,0.2,0.3,0.2,0.5v2.4c0,0.2-0.1,0.4-0.2,0.5c-0.1,0.1-0.3,0.2-0.5,0.2h-18.2C890.4,1997.4,890.3,1997.3,890.2,1997.2z"/>
	</g>
	<g class="st1">
		<path d="M977.5,1997.2c-0.1-0.1-0.2-0.3-0.2-0.5v-47.5c0-0.2,0.1-0.4,0.2-0.5c0.1-0.1,0.3-0.2,0.5-0.2h2.4c0.2,0,0.4,0.1,0.5,0.2
			c0.1,0.1,0.2,0.3,0.2,0.5v47.5c0,0.2-0.1,0.4-0.2,0.5c-0.1,0.1-0.3,0.2-0.5,0.2H978C977.8,1997.4,977.6,1997.3,977.5,1997.2z
			 M984.7,1997.2c-0.1-0.1-0.2-0.3-0.2-0.5v-2.4c0-0.2,0.1-0.4,0.2-0.5c0.1-0.1,0.3-0.2,0.5-0.2h18.2c0.2,0,0.4,0.1,0.5,0.2
			c0.1,0.1,0.2,0.3,0.2,0.5v2.4c0,0.2-0.1,0.4-0.2,0.5c-0.1,0.1-0.3,0.2-0.5,0.2h-18.2C984.9,1997.4,984.8,1997.3,984.7,1997.2z"/>
	</g>
	<g class="st1">
		<path d="M1082.1,1996.7l-14.6-47.2l-0.1-0.4c0-0.2,0.1-0.3,0.2-0.4c0.1-0.1,0.2-0.1,0.4-0.1h2.3c0.3,0,0.5,0,0.6,0.1
			c0.2,0.1,0.2,0.3,0.3,0.6l14.4,46.9c0.1,0.3,0.1,0.5,0.1,0.6c0,0.4-0.2,0.6-0.6,0.6h-2.1
			C1082.5,1997.4,1082.2,1997.1,1082.1,1996.7z M1085.8,1986.4c0-0.1-0.1-0.3-0.1-0.5c0-0.1,0-0.4,0.1-0.8l10.7-35.9
			c0.1-0.3,0.2-0.5,0.3-0.6c0.1-0.1,0.3-0.1,0.6-0.1h2.4c0.2,0,0.4,0.1,0.5,0.3c0.1,0.2,0.1,0.4,0,0.7l-12.5,40.8
			c0,0.1-0.1,0.3-0.2,0.4c-0.1,0.1-0.1,0.1-0.2,0.1c-0.1,0-0.3-0.2-0.5-0.5L1085.8,1986.4z"/>
	</g>
	<g class="st1">
		<path d="M1166.5,1997.2c-0.1-0.1-0.2-0.3-0.2-0.5v-47.5c0-0.2,0.1-0.4,0.2-0.5c0.1-0.1,0.3-0.2,0.5-0.2h2.4c0.2,0,0.4,0.1,0.5,0.2
			c0.1,0.1,0.2,0.3,0.2,0.5v47.5c0,0.2-0.1,0.4-0.2,0.5c-0.1,0.1-0.3,0.2-0.5,0.2h-2.4C1166.8,1997.4,1166.6,1997.3,1166.5,1997.2z
			 M1173.7,1952c-0.1-0.1-0.2-0.3-0.2-0.5v-2.4c0-0.2,0.1-0.4,0.2-0.5c0.1-0.1,0.3-0.2,0.5-0.2h18.2c0.2,0,0.4,0.1,0.5,0.2
			c0.1,0.1,0.2,0.3,0.2,0.5v2.4c0,0.2-0.1,0.4-0.2,0.5c-0.1,0.1-0.3,0.2-0.5,0.2h-18.2C1173.9,1952.2,1173.8,1952.2,1173.7,1952z
			 M1173.7,1974.3c-0.1-0.1-0.2-0.3-0.2-0.5v-2.4c0-0.2,0.1-0.4,0.2-0.5c0.1-0.1,0.3-0.2,0.5-0.2h15.1c0.2,0,0.4,0.1,0.5,0.2
			c0.1,0.1,0.2,0.3,0.2,0.5v2.4c0,0.2-0.1,0.4-0.2,0.5c-0.1,0.1-0.3,0.2-0.5,0.2h-15.1C1173.9,1974.5,1173.8,1974.4,1173.7,1974.3z
			 M1173.7,1997.2c-0.1-0.1-0.2-0.3-0.2-0.5v-2.4c0-0.2,0.1-0.4,0.2-0.5c0.1-0.1,0.3-0.2,0.5-0.2h18.2c0.2,0,0.4,0.1,0.5,0.2
			c0.1,0.1,0.2,0.3,0.2,0.5v2.4c0,0.2-0.1,0.4-0.2,0.5c-0.1,0.1-0.3,0.2-0.5,0.2h-18.2C1173.9,1997.4,1173.8,1997.3,1173.7,1997.2z"
			/>
	</g>
	<g class="st1">
		<path d="M216.8,2068.3c-0.1-0.1-0.2-0.3-0.2-0.5v-2.4c0-0.2,0.1-0.4,0.2-0.5c0.1-0.1,0.3-0.2,0.5-0.2h29.9c0.2,0,0.4,0.1,0.5,0.2
			c0.1,0.1,0.2,0.3,0.2,0.5v2.4c0,0.2-0.1,0.4-0.2,0.5c-0.1,0.1-0.3,0.2-0.5,0.2h-29.9C217.1,2068.5,217,2068.4,216.8,2068.3z
			 M230.6,2113.4c-0.1-0.1-0.2-0.3-0.2-0.5v-40c0-0.2,0.1-0.4,0.2-0.5c0.1-0.1,0.3-0.2,0.5-0.2h2.4c0.2,0,0.4,0.1,0.5,0.2
			c0.1,0.1,0.2,0.3,0.2,0.5v40c0,0.2-0.1,0.4-0.2,0.5c-0.1,0.1-0.3,0.2-0.5,0.2H231C230.8,2113.6,230.7,2113.6,230.6,2113.4z"/>
	</g>
	<g class="st1">
		<path d="M316,2113.4c-0.1-0.1-0.2-0.3-0.2-0.5v-47.5c0-0.2,0.1-0.4,0.2-0.5c0.1-0.1,0.3-0.2,0.5-0.2h2.4c0.2,0,0.4,0.1,0.5,0.2
			c0.1,0.1,0.2,0.3,0.2,0.5v47.5c0,0.2-0.1,0.4-0.2,0.5c-0.1,0.1-0.3,0.2-0.5,0.2h-2.4C316.3,2113.6,316.2,2113.6,316,2113.4z
			 M323.2,2068.3c-0.1-0.1-0.2-0.3-0.2-0.5v-2.4c0-0.2,0.1-0.4,0.2-0.5c0.1-0.1,0.3-0.2,0.5-0.2h18.2c0.2,0,0.4,0.1,0.5,0.2
			c0.1,0.1,0.2,0.3,0.2,0.5v2.4c0,0.2-0.1,0.4-0.2,0.5c-0.1,0.1-0.3,0.2-0.5,0.2h-18.2C323.5,2068.5,323.3,2068.4,323.2,2068.3z
			 M323.2,2090.5c-0.1-0.1-0.2-0.3-0.2-0.5v-2.4c0-0.2,0.1-0.4,0.2-0.5c0.1-0.1,0.3-0.2,0.5-0.2h15.1c0.2,0,0.4,0.1,0.5,0.2
			c0.1,0.1,0.2,0.3,0.2,0.5v2.4c0,0.2-0.1,0.4-0.2,0.5c-0.1,0.1-0.3,0.2-0.5,0.2h-15.1C323.5,2090.7,323.3,2090.7,323.2,2090.5z
			 M323.2,2113.4c-0.1-0.1-0.2-0.3-0.2-0.5v-2.4c0-0.2,0.1-0.4,0.2-0.5c0.1-0.1,0.3-0.2,0.5-0.2h18.2c0.2,0,0.4,0.1,0.5,0.2
			c0.1,0.1,0.2,0.3,0.2,0.5v2.4c0,0.2-0.1,0.4-0.2,0.5c-0.1,0.1-0.3,0.2-0.5,0.2h-18.2C323.5,2113.6,323.3,2113.6,323.2,2113.4z"/>
	</g>
	<g class="st1">
		<path d="M436.9,2113.5c-0.2-0.1-0.4-0.3-0.5-0.6l-25.9-46.6c-0.2-0.2-0.3-0.5-0.3-0.9c0-0.5,0.2-0.8,0.7-0.8h2.1
			c0.3,0,0.5,0,0.6,0.1c0.2,0.1,0.3,0.3,0.5,0.6l25.9,46.8c0.1,0.1,0.2,0.3,0.2,0.5c0,0.2,0,0.3,0,0.5c-0.1,0.3-0.3,0.5-0.6,0.5
			h-2.2C437.3,2113.6,437.1,2113.6,436.9,2113.5z M410.5,2113.4c-0.1-0.1-0.2-0.3-0.2-0.5v-38.8c0-0.4,0.1-0.6,0.3-0.6
			c0.2,0,0.4,0.1,0.5,0.4l2.5,4.5c0.1,0.3,0.2,0.6,0.2,0.9v33.6c0,0.2-0.1,0.4-0.2,0.5c-0.1,0.1-0.3,0.2-0.5,0.2H411
			C410.8,2113.6,410.7,2113.6,410.5,2113.4z M437.1,2099.8c-0.1-0.3-0.2-0.6-0.2-0.9v-33.5c0-0.2,0.1-0.4,0.2-0.5
			c0.1-0.1,0.3-0.2,0.5-0.2h2.2c0.2,0,0.4,0.1,0.5,0.2c0.1,0.1,0.2,0.3,0.2,0.5v38.7c0,0.4-0.1,0.6-0.3,0.6c-0.2,0-0.3-0.1-0.5-0.4
			L437.1,2099.8z"/>
	</g>
	<g class="st1">
		<path d="M508.4,2112.3c-2.3-1-4.1-2.2-5.5-3.6c-0.1-0.1-0.2-0.3-0.2-0.5c0-0.2,0-0.4,0.2-0.6l1.6-2c0.3-0.3,0.6-0.4,0.9-0.1
			c1.3,1.2,2.9,2.2,4.6,3.1c1.8,0.9,3.6,1.5,5.6,1.8c0.4,0.1,0.6,0.3,0.6,0.7v2.4c0,0.2-0.1,0.4-0.2,0.5c-0.1,0.1-0.3,0.2-0.5,0.1
			C513.1,2114,510.7,2113.3,508.4,2112.3z M520.2,2114.2c-0.2,0-0.3-0.1-0.4-0.2c-0.1-0.1-0.2-0.3-0.2-0.5v-2.4
			c0-0.5,0.2-0.7,0.6-0.8c2.9-0.3,5.1-1.4,6.7-3.2c1.6-1.8,2.4-4,2.4-6.7c0-2.6-0.8-4.8-2.3-6.4c-1.6-1.6-4.3-2.7-8.1-3.2l-2.1-0.4
			c-4.2-0.6-7.4-2-9.5-4.2c-2.1-2.2-3.2-5.1-3.2-8.7c0-2.5,0.5-4.7,1.4-6.7c0.9-1.9,2.2-3.5,3.9-4.7c1.7-1.2,3.7-1.9,6-2.2h0.1
			c0.2,0,0.3,0.1,0.4,0.2c0.1,0.1,0.2,0.3,0.2,0.5v2.4c0,0.4-0.2,0.6-0.6,0.7c-2.4,0.4-4.3,1.5-5.7,3.2c-1.3,1.7-2,3.8-2,6.3
			c0,2.6,0.8,4.7,2.5,6.3c1.6,1.6,4.3,2.6,8.1,3.2l2.1,0.3c4.3,0.6,7.5,2,9.5,4.2c2.1,2.2,3.1,5.1,3.1,8.8c0,2.5-0.5,4.8-1.5,6.8
			c-1,2-2.4,3.6-4.3,4.9c-1.9,1.3-4.2,2.1-7,2.3H520.2z M520.2,2067.9c-0.4-0.1-0.6-0.4-0.6-0.8v-2.4c0-0.2,0.1-0.4,0.2-0.5
			c0.1-0.1,0.3-0.2,0.5-0.1c1.9,0.2,3.8,0.6,5.6,1.3c1.8,0.7,3.3,1.5,4.6,2.6c0.3,0.3,0.4,0.6,0.1,1l-1.2,2.2
			c-0.3,0.3-0.6,0.4-0.9,0.1C525.8,2069.4,523,2068.2,520.2,2067.9z"/>
	</g>
	<g class="st1">
		<path d="M599.5,2113.4c-0.1-0.1-0.2-0.3-0.2-0.5v-47.5c0-0.2,0.1-0.4,0.2-0.5c0.1-0.1,0.3-0.2,0.5-0.2h2.4c0.2,0,0.4,0.1,0.5,0.2
			c0.1,0.1,0.2,0.3,0.2,0.5v47.5c0,0.2-0.1,0.4-0.2,0.5c-0.1,0.1-0.3,0.2-0.5,0.2H600C599.8,2113.6,599.7,2113.6,599.5,2113.4z
			 M606.7,2068.3c-0.1-0.1-0.2-0.3-0.2-0.5v-2.4c0-0.2,0.1-0.4,0.2-0.5c0.1-0.1,0.3-0.2,0.5-0.2h18.2c0.2,0,0.4,0.1,0.5,0.2
			c0.1,0.1,0.2,0.3,0.2,0.5v2.4c0,0.2-0.1,0.4-0.2,0.5c-0.1,0.1-0.3,0.2-0.5,0.2h-18.2C606.9,2068.5,606.8,2068.4,606.7,2068.3z
			 M606.7,2090.5c-0.1-0.1-0.2-0.3-0.2-0.5v-2.4c0-0.2,0.1-0.4,0.2-0.5c0.1-0.1,0.3-0.2,0.5-0.2h15.1c0.2,0,0.4,0.1,0.5,0.2
			c0.1,0.1,0.2,0.3,0.2,0.5v2.4c0,0.2-0.1,0.4-0.2,0.5c-0.1,0.1-0.3,0.2-0.5,0.2h-15.1C606.9,2090.7,606.8,2090.7,606.7,2090.5z
			 M606.7,2113.4c-0.1-0.1-0.2-0.3-0.2-0.5v-2.4c0-0.2,0.1-0.4,0.2-0.5c0.1-0.1,0.3-0.2,0.5-0.2h18.2c0.2,0,0.4,0.1,0.5,0.2
			c0.1,0.1,0.2,0.3,0.2,0.5v2.4c0,0.2-0.1,0.4-0.2,0.5c-0.1,0.1-0.3,0.2-0.5,0.2h-18.2C606.9,2113.6,606.8,2113.6,606.7,2113.4z"/>
	</g>
	<g class="st1">
		<path d="M693.7,2110.9c-2-1.8-3.5-4.3-4.4-7.5c-0.4-1.3-0.7-3-0.9-5.1c-0.2-2.1-0.3-5.1-0.3-9.1c0-4,0.1-7.1,0.3-9.1
			c0.2-2.1,0.5-3.8,0.9-5.1c1-3.2,2.4-5.7,4.4-7.5c2-1.8,4.5-2.9,7.4-3.3h0.1c0.2,0,0.3,0.1,0.4,0.2c0.1,0.1,0.2,0.3,0.2,0.5v2.4
			c0,0.4-0.2,0.6-0.6,0.7c-4.2,0.8-7,3.5-8.4,8.1c-0.3,1.1-0.6,2.7-0.8,4.6c-0.2,2-0.3,4.8-0.3,8.5c0,3.6,0.1,6.5,0.3,8.5
			c0.2,2,0.5,3.5,0.8,4.6c1.4,4.7,4.2,7.4,8.4,8.1c0.4,0,0.6,0.3,0.6,0.7v2.4c0,0.2-0.1,0.4-0.2,0.5c-0.1,0.1-0.3,0.2-0.5,0.1
			C698.1,2113.8,695.6,2112.7,693.7,2110.9z M705.8,2114.2c-0.2,0-0.3-0.1-0.4-0.2c-0.1-0.1-0.2-0.3-0.2-0.5v-2.4
			c0-0.4,0.2-0.7,0.6-0.7c4.2-0.8,7-3.5,8.4-8.1c0.3-1.2,0.6-2.7,0.8-4.7c0.2-2,0.3-4.8,0.3-8.4c0-3.6-0.1-6.4-0.3-8.4
			c-0.2-2-0.5-3.6-0.8-4.7c-1.4-4.7-4.2-7.4-8.4-8.1c-0.4-0.1-0.6-0.3-0.6-0.7v-2.4c0-0.2,0.1-0.4,0.2-0.5c0.1-0.1,0.3-0.2,0.5-0.1
			c2.9,0.4,5.4,1.5,7.4,3.3s3.5,4.3,4.5,7.5c0.4,1.4,0.7,3.1,0.9,5.2c0.2,2.1,0.3,5.1,0.3,9.1c0,3.9-0.1,6.9-0.3,9
			c-0.2,2.1-0.5,3.8-0.9,5.2c-1,3.2-2.4,5.7-4.5,7.5s-4.5,2.9-7.4,3.3H705.8z"/>
	</g>
	<g class="st1">
		<path d="M733.2,2075.9c-0.1-0.1-0.2-0.3-0.2-0.5v-10c0-0.2,0.1-0.4,0.2-0.5c0.1-0.1,0.3-0.2,0.5-0.2h1.6c0.2,0,0.4,0.1,0.5,0.2
			c0.1,0.1,0.2,0.3,0.2,0.5v10c0,0.2-0.1,0.4-0.2,0.5c-0.1,0.1-0.3,0.2-0.5,0.2h-1.6C733.5,2076.1,733.4,2076,733.2,2075.9z"/>
	</g>
	<g class="st1">
		<path d="M791.6,2110.9c-1.9-1.8-3.4-4.3-4.3-7.5c-0.4-1.3-0.7-3-0.9-5.1c-0.2-2.1-0.3-5.2-0.3-9.3c0-4.1,0.1-7.2,0.3-9.3
			c0.2-2.1,0.5-3.8,0.9-5.1c1-3.2,2.4-5.7,4.3-7.5s4.3-2.9,7.1-3.3h0.1c0.2,0,0.3,0.1,0.4,0.2c0.1,0.1,0.2,0.3,0.2,0.5v2.4
			c0,0.4-0.2,0.7-0.6,0.8c-2,0.3-3.6,1.2-5,2.5c-1.3,1.3-2.3,3.1-3.1,5.4c-0.3,1.1-0.5,2.6-0.7,4.5c-0.2,1.9-0.3,4.9-0.3,8.7
			c0,3.9,0.1,6.8,0.3,8.7c0.2,1.9,0.4,3.4,0.7,4.5c0.7,2.3,1.8,4.1,3.1,5.5c1.3,1.3,3,2.2,5,2.5c0.4,0.1,0.6,0.3,0.6,0.7v2.4
			c0,0.2-0.1,0.4-0.2,0.5c-0.1,0.1-0.3,0.2-0.5,0.1C795.9,2113.8,793.5,2112.7,791.6,2110.9z M811.9,2075.1c-0.3,0-0.5-0.1-0.6-0.4
			c-1.9-3.8-4.5-6.1-7.9-6.8c-0.4-0.1-0.6-0.3-0.6-0.7v-2.4c0-0.2,0.1-0.4,0.2-0.6c0.1-0.1,0.3-0.2,0.5-0.1c2.5,0.4,4.6,1.3,6.5,2.8
			c1.9,1.5,3.3,3.5,4.4,6c0,0.1,0.1,0.2,0.1,0.4c0,0.2-0.1,0.4-0.3,0.5l-2.1,1.2C812.1,2075.1,812,2075.1,811.9,2075.1z
			 M803.5,2114.2c-0.2,0-0.3-0.1-0.4-0.2c-0.1-0.1-0.2-0.3-0.2-0.5v-2.4c0-0.4,0.2-0.7,0.6-0.7c3.4-0.7,6-2.9,7.9-6.8
			c0.1-0.2,0.2-0.3,0.4-0.4c0.2-0.1,0.3-0.1,0.5,0l2.1,1.2c0.3,0.2,0.4,0.5,0.2,0.9c-1.1,2.5-2.6,4.6-4.4,6c-1.9,1.5-4,2.4-6.5,2.8
			H803.5z"/>
	</g>
	<g class="st1">
		<path d="M882.6,2113.4c-0.1-0.1-0.2-0.3-0.2-0.5v-47.5c0-0.2,0.1-0.4,0.2-0.5c0.1-0.1,0.3-0.2,0.5-0.2h2.4c0.2,0,0.4,0.1,0.5,0.2
			c0.1,0.1,0.2,0.3,0.2,0.5v47.5c0,0.2-0.1,0.4-0.2,0.5c-0.1,0.1-0.3,0.2-0.5,0.2h-2.4C882.9,2113.6,882.7,2113.6,882.6,2113.4z
			 M889.8,2113.4c-0.1-0.1-0.2-0.3-0.2-0.5v-2.4c0-0.2,0.1-0.4,0.2-0.5c0.1-0.1,0.3-0.2,0.5-0.2h18.2c0.2,0,0.4,0.1,0.5,0.2
			c0.1,0.1,0.2,0.3,0.2,0.5v2.4c0,0.2-0.1,0.4-0.2,0.5c-0.1,0.1-0.3,0.2-0.5,0.2h-18.2C890,2113.6,889.9,2113.6,889.8,2113.4z"/>
	</g>
	<g class="st1">
		<path d="M980.8,2110.9c-2-1.8-3.5-4.3-4.4-7.5c-0.4-1.3-0.7-3-0.9-5.1c-0.2-2.1-0.3-5.1-0.3-9.1c0-4,0.1-7.1,0.3-9.1
			c0.2-2.1,0.5-3.8,0.9-5.1c1-3.2,2.4-5.7,4.4-7.5c2-1.8,4.5-2.9,7.4-3.3h0.1c0.2,0,0.3,0.1,0.4,0.2c0.1,0.1,0.2,0.3,0.2,0.5v2.4
			c0,0.4-0.2,0.6-0.6,0.7c-4.2,0.8-7,3.5-8.4,8.1c-0.3,1.1-0.6,2.7-0.8,4.6c-0.2,2-0.3,4.8-0.3,8.5c0,3.6,0.1,6.5,0.3,8.5
			c0.2,2,0.5,3.5,0.8,4.6c1.4,4.7,4.2,7.4,8.4,8.1c0.4,0,0.6,0.3,0.6,0.7v2.4c0,0.2-0.1,0.4-0.2,0.5c-0.1,0.1-0.3,0.2-0.5,0.1
			C985.2,2113.8,982.7,2112.7,980.8,2110.9z M992.9,2114.2c-0.2,0-0.3-0.1-0.4-0.2c-0.1-0.1-0.2-0.3-0.2-0.5v-2.4
			c0-0.4,0.2-0.7,0.6-0.7c4.2-0.8,7-3.5,8.4-8.1c0.3-1.2,0.6-2.7,0.8-4.7c0.2-2,0.3-4.8,0.3-8.4c0-3.6-0.1-6.4-0.3-8.4
			c-0.2-2-0.5-3.6-0.8-4.7c-1.4-4.7-4.2-7.4-8.4-8.1c-0.4-0.1-0.6-0.3-0.6-0.7v-2.4c0-0.2,0.1-0.4,0.2-0.5c0.1-0.1,0.3-0.2,0.5-0.1
			c2.9,0.4,5.4,1.5,7.4,3.3s3.5,4.3,4.5,7.5c0.4,1.4,0.7,3.1,0.9,5.2c0.2,2.1,0.3,5.1,0.3,9.1c0,3.9-0.1,6.9-0.3,9
			c-0.2,2.1-0.5,3.8-0.9,5.2c-1,3.2-2.4,5.7-4.5,7.5s-4.5,2.9-7.4,3.3H992.9z"/>
	</g>
	<g class="st1">
		<path d="M1075.1,2110.9c-1.9-1.8-3.4-4.3-4.3-7.5c-0.4-1.3-0.7-3-0.9-5.1c-0.2-2.1-0.3-5.2-0.3-9.3c0-4.1,0.1-7.2,0.3-9.3
			c0.2-2.1,0.5-3.8,0.9-5.1c1-3.2,2.4-5.7,4.3-7.5s4.3-2.9,7.1-3.3h0.1c0.2,0,0.3,0.1,0.4,0.2c0.1,0.1,0.2,0.3,0.2,0.5v2.4
			c0,0.4-0.2,0.7-0.6,0.8c-2,0.3-3.6,1.2-5,2.5c-1.3,1.3-2.3,3.1-3.1,5.4c-0.3,1.1-0.5,2.6-0.7,4.5c-0.2,1.9-0.3,4.9-0.3,8.7
			c0,3.9,0.1,6.8,0.3,8.7c0.2,1.9,0.4,3.4,0.7,4.5c0.7,2.3,1.8,4.1,3.1,5.5c1.3,1.3,3,2.2,5,2.5c0.4,0.1,0.6,0.3,0.6,0.7v2.4
			c0,0.2-0.1,0.4-0.2,0.5c-0.1,0.1-0.3,0.2-0.5,0.1C1079.4,2113.8,1077,2112.7,1075.1,2110.9z M1095.4,2075.1
			c-0.3,0-0.5-0.1-0.6-0.4c-1.9-3.8-4.5-6.1-7.9-6.8c-0.4-0.1-0.6-0.3-0.6-0.7v-2.4c0-0.2,0.1-0.4,0.2-0.6c0.1-0.1,0.3-0.2,0.5-0.1
			c2.5,0.4,4.6,1.3,6.5,2.8c1.9,1.5,3.3,3.5,4.4,6c0,0.1,0.1,0.2,0.1,0.4c0,0.2-0.1,0.4-0.3,0.5l-2.1,1.2
			C1095.6,2075.1,1095.5,2075.1,1095.4,2075.1z M1086.9,2114.2c-0.2,0-0.3-0.1-0.4-0.2c-0.1-0.1-0.2-0.3-0.2-0.5v-2.4
			c0-0.4,0.2-0.7,0.6-0.7c3.4-0.7,6-2.9,7.9-6.8c0.1-0.2,0.2-0.3,0.4-0.4c0.2-0.1,0.3-0.1,0.5,0l2.1,1.2c0.3,0.2,0.4,0.5,0.2,0.9
			c-1.1,2.5-2.6,4.6-4.4,6c-1.9,1.5-4,2.4-6.5,2.8H1086.9z"/>
	</g>
	<g class="st1">
		<path d="M1166.1,2113.4c-0.1-0.1-0.2-0.3-0.2-0.5v-47.5c0-0.2,0.1-0.4,0.2-0.5c0.1-0.1,0.3-0.2,0.5-0.2h2.4c0.2,0,0.4,0.1,0.5,0.2
			c0.1,0.1,0.2,0.3,0.2,0.5v47.5c0,0.2-0.1,0.4-0.2,0.5c-0.1,0.1-0.3,0.2-0.5,0.2h-2.4C1166.4,2113.6,1166.2,2113.6,1166.1,2113.4z
			 M1173.4,2093.8c-0.2,0-0.3-0.2-0.3-0.6v-3.7c0-0.2,0.1-0.5,0.3-0.9l17.3-23.2c0.2-0.3,0.4-0.5,0.6-0.6c0.2-0.1,0.3-0.1,0.6-0.1h3
			c0.2,0,0.4,0.1,0.4,0.3c0.1,0.2,0,0.3-0.1,0.5l-21.2,28C1173.7,2093.7,1173.6,2093.8,1173.4,2093.8z M1192.4,2113.5
			c-0.1-0.1-0.3-0.3-0.4-0.6l-11.3-21.8c-0.1-0.2-0.1-0.3-0.1-0.4c0-0.2,0.1-0.4,0.2-0.6l1.6-2.1c0.2-0.2,0.3-0.3,0.5-0.3
			c0.2,0,0.3,0.1,0.5,0.4l12.9,24.8l0.1,0.3c0,0.3-0.1,0.4-0.4,0.4h-2.9C1192.7,2113.6,1192.6,2113.6,1192.4,2113.5z"/>
	</g>
</g>
<g class="st2">
	<rect x="194.2" y="141.4" class="st3" width="85" height="85"/>
	<rect x="288.6" y="141.4" class="st4" width="85" height="85"/>
	<rect x="383" y="141.4" class="st3" width="85" height="85"/>
	<rect x="477.4" y="141.4" class="st3" width="85" height="85"/>
	<rect x="571.7" y="141.4" class="st3" width="85" height="85"/>
	<rect x="666.1" y="141.4" class="st3" width="85" height="85"/>
	<rect x="760.5" y="141.4" class="st3" width="85" height="85"/>
	<rect x="854.9" y="141.4" class="st3" width="85" height="85"/>
	<rect x="949.3" y="141.4" class="st3" width="85" height="85"/>
	<rect x="1043.7" y="141.4" class="st3" width="85" height="85"/>
	<rect x="1138.1" y="141.4" class="st3" width="85" height="85"/>
	<rect x="194.2" y="257.3" class="st3" width="85" height="85"/>
	<rect x="288.6" y="257.3" class="st3" width="85" height="85"/>
	<rect x="383" y="257.3" class="st3" width="85" height="85"/>
	<rect x="477.4" y="257.3" class="st3" width="85" height="85"/>
	<rect x="571.7" y="257.3" class="st3" width="85" height="85"/>
	<rect x="666.1" y="257.3" class="st3" width="85" height="85"/>
	<rect x="760.5" y="257.3" class="st3" width="85" height="85"/>
	<rect x="854.9" y="257.3" class="st3" width="85" height="85"/>
	<rect x="949.3" y="257.3" class="st3" width="85" height="85"/>
	<rect x="1043.7" y="257.3" class="st3" width="85" height="85"/>
	<rect x="1138.1" y="257.3" class="st3" width="85" height="85"/>
	<rect x="194.2" y="373.3" class="st3" width="85" height="85"/>
	<rect x="288.6" y="373.3" class="st3" width="85" height="85"/>
	<rect x="383" y="373.3" class="st3" width="85" height="85"/>
	<rect x="477.4" y="373.3" class="st3" width="85" height="85"/>
	<rect x="571.7" y="373.3" class="st3" width="85" height="85"/>
	<rect x="666.1" y="373.3" class="st3" width="85" height="85"/>
	<rect x="760.5" y="373.3" class="st3" width="85" height="85"/>
	<rect x="854.9" y="373.3" class="st3" width="85" height="85"/>
	<rect x="949.3" y="373.3" class="st3" width="85" height="85"/>
	<rect x="1043.7" y="373.3" class="st3" width="85" height="85"/>
	<rect x="1138.1" y="373.3" class="st3" width="85" height="85"/>
	<rect x="194.2" y="489.2" class="st3" width="85" height="85"/>
	<rect x="288.6" y="489.2" class="st3" width="85" height="85"/>
	<rect x="383" y="489.2" class="st3" width="85" height="85"/>
	<rect x="477.4" y="489.2" class="st3" width="85" height="85"/>
	<rect x="571.7" y="489.2" class="st3" width="85" height="85"/>
	<rect x="666.1" y="489.2" class="st3" width="85" height="85"/>
	<rect x="760.5" y="489.2" class="st3" width="85" height="85"/>
	<rect x="854.9" y="489.2" class="st3" width="85" height="85"/>
	<rect x="949.3" y="489.2" class="st3" width="85" height="85"/>
	<rect x="1043.7" y="489.2" class="st3" width="85" height="85"/>
	<rect x="1138.1" y="489.2" class="st3" width="85" height="85"/>
	<rect x="194.2" y="605.2" class="st3" width="85" height="85"/>
	<rect x="288.6" y="605.2" class="st3" width="85" height="85"/>
	<rect x="383" y="605.2" class="st3" width="85" height="85"/>
	<rect x="477.4" y="605.2" class="st3" width="85" height="85"/>
	<rect x="571.7" y="605.2" class="st3" width="85" height="85"/>
	<rect x="666.1" y="605.2" class="st3" width="85" height="85"/>
	<rect x="760.5" y="605.2" class="st3" width="85" height="85"/>
	<rect x="854.9" y="605.2" class="st3" width="85" height="85"/>
	<rect x="949.3" y="605.2" class="st3" width="85" height="85"/>
	<rect x="1043.7" y="605.2" class="st3" width="85" height="85"/>
	<rect x="1138.1" y="605.2" class="st3" width="85" height="85"/>
	<path class="st3" d="M1417.3,708.7"/>
	<path class="st3" d="M1417.3,708.7"/>
	<rect x="548.7" y="1325.8" class="st3" width="35.4" height="35.4"/>
	<rect x="643.5" y="1325.8" class="st3" width="35.4" height="35.4"/>
	<rect x="738.4" y="1325.8" class="st3" width="35.4" height="35.4"/>
	<rect x="833.2" y="1325.8" class="st3" width="35.4" height="35.4"/>
	<rect x="194.2" y="721.1" class="st3" width="85" height="85"/>
	<rect x="288.6" y="721.1" class="st3" width="85" height="85"/>
	<rect x="383" y="721.1" class="st3" width="85" height="85"/>
	<rect x="477.4" y="721.1" class="st3" width="85" height="85"/>
	<rect x="571.7" y="721.1" class="st3" width="85" height="85"/>
	<rect x="666.1" y="721.1" class="st3" width="85" height="85"/>
	<rect x="760.5" y="721.1" class="st3" width="85" height="85"/>
	<rect x="854.9" y="721.1" class="st3" width="85" height="85"/>
	<rect x="949.3" y="721.1" class="st3" width="85" height="85"/>
	<rect x="1043.7" y="721.1" class="st3" width="85" height="85"/>
	<rect x="1138.1" y="721.1" class="st3" width="85" height="85"/>
	<rect x="194.2" y="837" class="st3" width="85" height="85"/>
	<rect x="288.6" y="837" class="st3" width="85" height="85"/>
	<rect x="383" y="837" class="st3" width="85" height="85"/>
	<rect x="477.4" y="837" class="st3" width="85" height="85"/>
	<rect x="571.7" y="837" class="st3" width="85" height="85"/>
	<rect x="666.1" y="837" class="st3" width="85" height="85"/>
	<rect x="760.5" y="837" class="st3" width="85" height="85"/>
	<rect x="854.9" y="837" class="st3" width="85" height="85"/>
	<rect x="949.3" y="837" class="st3" width="85" height="85"/>
	<rect x="1043.7" y="837" class="st3" width="85" height="85"/>
	<rect x="1138.1" y="837" class="st3" width="85" height="85"/>
	<rect x="194.2" y="953" class="st3" width="85" height="85"/>
	<rect x="288.6" y="953" class="st3" width="85" height="85"/>
	<rect x="383" y="953" class="st3" width="85" height="85"/>
	<rect x="477.4" y="953" class="st3" width="85" height="85"/>
	<rect x="571.7" y="953" class="st3" width="85" height="85"/>
	<rect x="666.1" y="953" class="st3" width="85" height="85"/>
	<rect x="760.5" y="953" class="st3" width="85" height="85"/>
	<rect x="854.9" y="953" class="st3" width="85" height="85"/>
	<rect x="949.3" y="953" class="st3" width="85" height="85"/>
	<rect x="1043.7" y="953" class="st3" width="85" height="85"/>
	<rect x="1138.1" y="953" class="st3" width="85" height="85"/>
	<rect x="194.2" y="1068.9" class="st3" width="85" height="85"/>
	<rect x="288.6" y="1068.9" class="st3" width="85" height="85"/>
	<rect x="383" y="1068.9" class="st3" width="85" height="85"/>
	<rect x="477.4" y="1068.9" class="st3" width="85" height="85"/>
	<rect x="571.7" y="1068.9" class="st3" width="85" height="85"/>
	<rect x="666.1" y="1068.9" class="st3" width="85" height="85"/>
	<rect x="760.5" y="1068.9" class="st3" width="85" height="85"/>
	<rect x="854.9" y="1068.9" class="st3" width="85" height="85"/>
	<rect x="949.3" y="1068.9" class="st3" width="85" height="85"/>
	<rect x="1043.7" y="1068.9" class="st3" width="85" height="85"/>
	<rect x="1138.1" y="1068.9" class="st3" width="85" height="85"/>
	<rect x="194.2" y="1184.8" class="st3" width="85" height="85"/>
	<rect x="288.6" y="1184.8" class="st3" width="85" height="85"/>
	<rect x="383" y="1184.8" class="st3" width="85" height="85"/>
	<rect x="477.4" y="1184.8" class="st3" width="85" height="85"/>
	<rect x="571.7" y="1184.8" class="st3" width="85" height="85"/>
	<rect x="666.1" y="1184.8" class="st3" width="85" height="85"/>
	<rect x="760.5" y="1184.8" class="st3" width="85" height="85"/>
	<rect x="854.9" y="1184.8" class="st3" width="85" height="85"/>
	<rect x="949.3" y="1184.8" class="st3" width="85" height="85"/>
	<rect x="1043.7" y="1184.8" class="st3" width="85" height="85"/>
	<rect x="1138.1" y="1184.8" class="st3" width="85" height="85"/>
	<path class="st3" d="M1417.3,708.7"/>
	<rect class="st3" width="1417.3" height="1417.3"/>
	<path class="st3" d="M1417.3,0"/>
</g>
</svg>
