<?xml version="1.0" encoding="utf-8"?>
<!-- Generator: Adobe Illustrator 24.3.0, SVG Export Plug-In . SVG Version: 6.00 Build 0)  -->
<svg version="1.1"
	 id="svg918" inkscape:version="0.92.4 (5da689c313, 2019-01-14)" xmlns:cc="http://creativecommons.org/ns#" xmlns:dc="http://purl.org/dc/elements/1.1/" xmlns:inkscape="http://www.inkscape.org/namespaces/inkscape" xmlns:rdf="http://www.w3.org/1999/02/22-rdf-syntax-ns#" xmlns:sodipodi="http://sodipodi.sourceforge.net/DTD/sodipodi-0.dtd" xmlns:svg="http://www.w3.org/2000/svg"
	 xmlns="http://www.w3.org/2000/svg" xmlns:xlink="http://www.w3.org/1999/xlink" x="0px" y="0px" viewBox="0 0 1417.3 1417.3"
	 style="enable-background:new 0 0 1417.3 1417.3;" xml:space="preserve">
<style type="text/css">
	.st0{fill:#F70055;fill-opacity:0.1647;}
	.st1{enable-background:new    ;}
	.st2{display:none;}
	.st3{display:inline;fill:none;stroke:#FF0000;stroke-width:0.1;stroke-miterlimit:10;}
	.st4{display:inline;opacity:0.99;fill:none;stroke:#FF0000;stroke-width:0.1;stroke-miterlimit:10;}
</style>
<g id="g916" transform="translate(0,-861.73197)">
	<path id="path2" inkscape:connector-curvature="0" class="st0" d="M0,861.7h1417.3V2279H0V861.7z"/>
	<circle id="circle6" cx="566.6" cy="2205.2" r="10.7"/>
	
		<ellipse id="circle6_1_" transform="matrix(0.7071 -0.7071 0.7071 0.7071 -1365.6511 1113.4741)" cx="661.2" cy="2205.2" rx="10.6" ry="10.7"/>
	
		<ellipse id="circle6_2_" transform="matrix(0.7071 -0.7071 0.7071 0.7071 -1337.8706 1180.5415)" cx="756.1" cy="2205.2" rx="10.6" ry="10.7"/>
	
		<ellipse id="circle6_3_" transform="matrix(0.7071 -0.7071 0.7071 0.7071 -1310.0895 1247.6099)" cx="850.9" cy="2205.2" rx="10.6" ry="10.7"/>
	<g class="st1">
		<path d="M224.9,1068.2c-0.1-0.1-0.2-0.3-0.2-0.5v-47.5c0-0.2,0.1-0.4,0.2-0.5c0.1-0.1,0.3-0.2,0.5-0.2h2.4c0.2,0,0.4,0.1,0.5,0.2
			c0.1,0.1,0.2,0.3,0.2,0.5v47.5c0,0.2-0.1,0.4-0.2,0.5c-0.1,0.1-0.3,0.2-0.5,0.2h-2.4C225.2,1068.4,225,1068.3,224.9,1068.2z
			 M232.1,1023c-0.1-0.1-0.2-0.3-0.2-0.5v-2.4c0-0.2,0.1-0.4,0.2-0.5c0.1-0.1,0.3-0.2,0.5-0.2h18.2c0.2,0,0.4,0.1,0.5,0.2
			c0.1,0.1,0.2,0.3,0.2,0.5v2.4c0,0.2-0.1,0.4-0.2,0.5c-0.1,0.1-0.3,0.2-0.5,0.2h-18.2C232.3,1023.3,232.2,1023.2,232.1,1023z
			 M232.1,1045.3c-0.1-0.1-0.2-0.3-0.2-0.5v-2.4c0-0.2,0.1-0.4,0.2-0.5c0.1-0.1,0.3-0.2,0.5-0.2h15.1c0.2,0,0.4,0.1,0.5,0.2
			c0.1,0.1,0.2,0.3,0.2,0.5v2.4c0,0.2-0.1,0.4-0.2,0.5c-0.1,0.1-0.3,0.2-0.5,0.2h-15.1C232.3,1045.5,232.2,1045.4,232.1,1045.3z
			 M232.1,1068.2c-0.1-0.1-0.2-0.3-0.2-0.5v-2.4c0-0.2,0.1-0.4,0.2-0.5c0.1-0.1,0.3-0.2,0.5-0.2h18.2c0.2,0,0.4,0.1,0.5,0.2
			c0.1,0.1,0.2,0.3,0.2,0.5v2.4c0,0.2-0.1,0.4-0.2,0.5c-0.1,0.1-0.3,0.2-0.5,0.2h-18.2C232.3,1068.4,232.2,1068.3,232.1,1068.2z"/>
	</g>
	<g class="st1">
		<path d="M322.8,1067.1c-2.3-1-4.1-2.2-5.5-3.6c-0.1-0.1-0.2-0.3-0.2-0.5c0-0.2,0-0.4,0.2-0.6l1.6-2c0.3-0.3,0.6-0.4,0.9-0.1
			c1.3,1.2,2.9,2.2,4.6,3.1c1.8,0.9,3.6,1.5,5.6,1.8c0.4,0.1,0.6,0.3,0.6,0.7v2.4c0,0.2-0.1,0.4-0.2,0.5c-0.1,0.1-0.3,0.2-0.5,0.1
			C327.5,1068.7,325.1,1068.1,322.8,1067.1z M334.6,1069c-0.2,0-0.3-0.1-0.4-0.2c-0.1-0.1-0.2-0.3-0.2-0.5v-2.4
			c0-0.5,0.2-0.7,0.6-0.8c2.9-0.3,5.1-1.4,6.7-3.2c1.6-1.8,2.4-4,2.4-6.7c0-2.6-0.8-4.8-2.3-6.4s-4.3-2.7-8.1-3.2l-2.1-0.4
			c-4.2-0.6-7.4-2-9.5-4.2c-2.1-2.2-3.2-5.1-3.2-8.7c0-2.5,0.5-4.7,1.4-6.7c0.9-1.9,2.2-3.5,3.9-4.7c1.7-1.2,3.7-1.9,6-2.2h0.1
			c0.2,0,0.3,0.1,0.4,0.2c0.1,0.1,0.2,0.3,0.2,0.5v2.4c0,0.4-0.2,0.6-0.6,0.7c-2.4,0.4-4.3,1.5-5.7,3.2c-1.3,1.7-2,3.8-2,6.3
			c0,2.6,0.8,4.7,2.5,6.3c1.6,1.6,4.3,2.6,8.1,3.2l2.1,0.3c4.3,0.6,7.5,2,9.5,4.2c2.1,2.2,3.1,5.1,3.1,8.8c0,2.5-0.5,4.8-1.5,6.8
			c-1,2-2.4,3.6-4.3,4.9c-1.9,1.3-4.2,2.1-7,2.3H334.6z M334.6,1022.7c-0.4-0.1-0.6-0.4-0.6-0.8v-2.4c0-0.2,0.1-0.4,0.2-0.5
			c0.1-0.1,0.3-0.2,0.5-0.1c1.9,0.2,3.8,0.6,5.6,1.3c1.8,0.7,3.3,1.5,4.6,2.6c0.3,0.3,0.4,0.6,0.1,1l-1.2,2.2
			c-0.3,0.3-0.6,0.4-0.9,0.1C340.2,1024.1,337.4,1023,334.6,1022.7z"/>
	</g>
	<g class="st1">
		<path d="M414,1068.2c-0.1-0.1-0.2-0.3-0.2-0.5v-47.5c0-0.2,0.1-0.4,0.2-0.5c0.1-0.1,0.3-0.2,0.5-0.2h2.4c0.2,0,0.4,0.1,0.5,0.2
			c0.1,0.1,0.2,0.3,0.2,0.5v47.5c0,0.2-0.1,0.4-0.2,0.5c-0.1,0.1-0.3,0.2-0.5,0.2h-2.4C414.3,1068.4,414.1,1068.3,414,1068.2z
			 M421.3,1048.5c-0.2,0-0.3-0.2-0.3-0.6v-3.7c0-0.2,0.1-0.5,0.3-0.9l17.3-23.2c0.2-0.3,0.4-0.5,0.6-0.6c0.2-0.1,0.3-0.1,0.6-0.1h3
			c0.2,0,0.4,0.1,0.4,0.3c0.1,0.2,0,0.3-0.1,0.5l-21.2,28C421.6,1048.4,421.4,1048.5,421.3,1048.5z M440.3,1068.3
			c-0.1-0.1-0.3-0.3-0.4-0.6l-11.3-21.8c-0.1-0.2-0.1-0.3-0.1-0.4c0-0.2,0.1-0.4,0.2-0.6l1.6-2.1c0.2-0.2,0.3-0.3,0.5-0.3
			c0.2,0,0.3,0.1,0.5,0.4l12.9,24.8l0.1,0.3c0,0.3-0.1,0.4-0.4,0.4h-2.9C440.6,1068.4,440.4,1068.4,440.3,1068.3z"/>
	</g>
	<g class="st1">
		<path d="M522.4,1068.2c-0.1-0.1-0.2-0.3-0.2-0.5v-47.5c0-0.2,0.1-0.4,0.2-0.5c0.1-0.1,0.3-0.2,0.5-0.2h2.4c0.2,0,0.4,0.1,0.5,0.2
			c0.1,0.1,0.2,0.3,0.2,0.5v47.5c0,0.2-0.1,0.4-0.2,0.5c-0.1,0.1-0.3,0.2-0.5,0.2h-2.4C522.7,1068.4,522.6,1068.3,522.4,1068.2z"/>
	</g>
	<g class="st1">
		<path d="M606.4,1067.1c-2.3-1-4.1-2.2-5.5-3.6c-0.1-0.1-0.2-0.3-0.2-0.5c0-0.2,0-0.4,0.2-0.6l1.6-2c0.3-0.3,0.6-0.4,0.9-0.1
			c1.3,1.2,2.9,2.2,4.6,3.1c1.8,0.9,3.6,1.5,5.6,1.8c0.4,0.1,0.6,0.3,0.6,0.7v2.4c0,0.2-0.1,0.4-0.2,0.5c-0.1,0.1-0.3,0.2-0.5,0.1
			C611,1068.7,608.7,1068.1,606.4,1067.1z M618.2,1069c-0.2,0-0.3-0.1-0.4-0.2c-0.1-0.1-0.2-0.3-0.2-0.5v-2.4c0-0.5,0.2-0.7,0.6-0.8
			c2.9-0.3,5.1-1.4,6.7-3.2c1.6-1.8,2.4-4,2.4-6.7c0-2.6-0.8-4.8-2.3-6.4c-1.6-1.6-4.3-2.7-8.1-3.2l-2.1-0.4c-4.2-0.6-7.4-2-9.5-4.2
			c-2.1-2.2-3.2-5.1-3.2-8.7c0-2.5,0.5-4.7,1.4-6.7c0.9-1.9,2.2-3.5,3.9-4.7c1.7-1.2,3.7-1.9,6-2.2h0.1c0.2,0,0.3,0.1,0.4,0.2
			c0.1,0.1,0.2,0.3,0.2,0.5v2.4c0,0.4-0.2,0.6-0.6,0.7c-2.4,0.4-4.3,1.5-5.7,3.2c-1.3,1.7-2,3.8-2,6.3c0,2.6,0.8,4.7,2.5,6.3
			c1.6,1.6,4.3,2.6,8.1,3.2l2.1,0.3c4.3,0.6,7.5,2,9.6,4.2c2.1,2.2,3.1,5.1,3.1,8.8c0,2.5-0.5,4.8-1.5,6.8c-1,2-2.4,3.6-4.3,4.9
			c-1.9,1.3-4.2,2.1-7,2.3H618.2z M618.2,1022.7c-0.4-0.1-0.6-0.4-0.6-0.8v-2.4c0-0.2,0.1-0.4,0.2-0.5c0.1-0.1,0.3-0.2,0.5-0.1
			c1.9,0.2,3.8,0.6,5.6,1.3c1.8,0.7,3.3,1.5,4.6,2.6c0.3,0.3,0.4,0.6,0.1,1l-1.2,2.2c-0.3,0.3-0.6,0.4-0.9,0.1
			C623.7,1024.1,621,1023,618.2,1022.7z"/>
	</g>
	<g class="st1">
		<path d="M692.7,1023c-0.1-0.1-0.2-0.3-0.2-0.5v-2.4c0-0.2,0.1-0.4,0.2-0.5c0.1-0.1,0.3-0.2,0.5-0.2h29.9c0.2,0,0.4,0.1,0.5,0.2
			c0.1,0.1,0.2,0.3,0.2,0.5v2.4c0,0.2-0.1,0.4-0.2,0.5c-0.1,0.1-0.3,0.2-0.5,0.2h-29.9C693,1023.3,692.9,1023.2,692.7,1023z
			 M706.4,1068.2c-0.1-0.1-0.2-0.3-0.2-0.5v-40c0-0.2,0.1-0.4,0.2-0.5c0.1-0.1,0.3-0.2,0.5-0.2h2.4c0.2,0,0.4,0.1,0.5,0.2
			c0.1,0.1,0.2,0.3,0.2,0.5v40c0,0.2-0.1,0.4-0.2,0.5c-0.1,0.1-0.3,0.2-0.5,0.2h-2.4C706.7,1068.4,706.6,1068.3,706.4,1068.2z"/>
	</g>
	<g class="st1">
		<path d="M791.9,1068.2c-0.1-0.1-0.2-0.3-0.2-0.5v-47.5c0-0.2,0.1-0.4,0.2-0.5c0.1-0.1,0.3-0.2,0.5-0.2h2.4c0.2,0,0.4,0.1,0.5,0.2
			c0.1,0.1,0.2,0.3,0.2,0.5v47.5c0,0.2-0.1,0.4-0.2,0.5c-0.1,0.1-0.3,0.2-0.5,0.2h-2.4C792.2,1068.4,792,1068.3,791.9,1068.2z
			 M799.1,1046.2c-0.1-0.1-0.2-0.3-0.2-0.5v-2.4c0-0.2,0.1-0.4,0.2-0.5c0.1-0.1,0.3-0.2,0.5-0.2h7.6c3.2,0,5.6-0.8,7.3-2.5
			s2.5-4,2.5-7.2s-0.8-5.5-2.5-7.2c-1.7-1.7-4.1-2.5-7.3-2.5h-7.6c-0.2,0-0.3-0.1-0.5-0.2c-0.1-0.1-0.2-0.3-0.2-0.5v-2.4
			c0-0.2,0.1-0.4,0.2-0.5c0.1-0.1,0.3-0.2,0.5-0.2h7.7c2.8,0,5.2,0.5,7.2,1.6c2,1.1,3.6,2.6,4.6,4.7c1.1,2,1.6,4.5,1.6,7.2
			c0,2.6-0.5,5-1.6,7.1c-1,2.1-2.6,3.7-4.6,4.8c-2.1,1.1-4.6,1.7-7.6,1.6h-7.3C799.3,1046.4,799.2,1046.4,799.1,1046.2z
			 M817.4,1068.3c-0.1-0.1-0.2-0.3-0.3-0.5l-7.4-17.1c-0.1-0.3-0.1-0.6,0-0.7c0.1-0.1,0.2-0.2,0.4-0.2c0.2,0,0.3-0.1,0.3-0.1
			c0.8-0.1,1.5-0.2,1.9-0.4c0.1,0,0.2-0.1,0.3-0.1c0.3,0,0.5,0.2,0.5,0.5l8,17.9c0,0.1,0.1,0.2,0.1,0.4c0,0.3-0.2,0.4-0.5,0.4h-2.9
			C817.7,1068.4,817.5,1068.4,817.4,1068.3z"/>
	</g>
	<g class="st1">
		<path d="M886.5,1068.2c-0.1-0.1-0.2-0.3-0.2-0.5v-47.5c0-0.2,0.1-0.4,0.2-0.5c0.1-0.1,0.3-0.2,0.5-0.2h2.4c0.2,0,0.4,0.1,0.5,0.2
			c0.1,0.1,0.2,0.3,0.2,0.5v47.5c0,0.2-0.1,0.4-0.2,0.5c-0.1,0.1-0.3,0.2-0.5,0.2h-2.4C886.8,1068.4,886.6,1068.3,886.5,1068.2z
			 M893.6,1023c-0.1-0.1-0.2-0.3-0.2-0.5v-2.4c0-0.2,0.1-0.4,0.2-0.5c0.1-0.1,0.3-0.2,0.5-0.2h18.2c0.2,0,0.4,0.1,0.5,0.2
			c0.1,0.1,0.2,0.3,0.2,0.5v2.4c0,0.2-0.1,0.4-0.2,0.5c-0.1,0.1-0.3,0.2-0.5,0.2h-18.2C893.9,1023.3,893.8,1023.2,893.6,1023z
			 M893.6,1045.8c-0.1-0.1-0.2-0.3-0.2-0.5v-2.4c0-0.2,0.1-0.4,0.2-0.5c0.1-0.1,0.3-0.2,0.5-0.2h15.1c0.2,0,0.4,0.1,0.5,0.2
			c0.1,0.1,0.2,0.3,0.2,0.5v2.4c0,0.2-0.1,0.4-0.2,0.5c-0.1,0.1-0.3,0.2-0.5,0.2h-15.1C893.9,1046,893.8,1045.9,893.6,1045.8z"/>
	</g>
	<g class="st1">
		<path d="M983.6,1063.9c-2.2-3-3.3-7.1-3.3-12.4v-31.3c0-0.2,0.1-0.4,0.2-0.5c0.1-0.1,0.3-0.2,0.5-0.2h2.4c0.2,0,0.4,0.1,0.5,0.2
			c0.1,0.1,0.2,0.3,0.2,0.5v31.3c0,4,0.8,7.2,2.3,9.5c1.5,2.3,3.8,3.7,6.7,4.2c0.4,0,0.6,0.3,0.6,0.7v2.4c0,0.2-0.1,0.4-0.2,0.5
			c-0.1,0.1-0.3,0.2-0.5,0.1C988.9,1068.5,985.8,1066.8,983.6,1063.9z M987.1,1011.5c-0.1-0.1-0.2-0.3-0.2-0.5v-3.9
			c0-0.2,0.1-0.4,0.2-0.5c0.1-0.1,0.3-0.2,0.5-0.2h2.5c0.2,0,0.4,0.1,0.5,0.2c0.1,0.1,0.2,0.3,0.2,0.5v3.9c0,0.2-0.1,0.4-0.2,0.5
			c-0.1,0.1-0.3,0.2-0.5,0.2h-2.5C987.4,1011.7,987.2,1011.7,987.1,1011.5z M997.6,1069c-0.2,0-0.3-0.1-0.4-0.2
			c-0.1-0.1-0.2-0.3-0.2-0.5v-2.4c0-0.4,0.2-0.7,0.6-0.7c2.9-0.5,5.1-1.9,6.7-4.2s2.3-5.5,2.3-9.5v-31.3c0-0.2,0.1-0.4,0.2-0.5
			c0.1-0.1,0.3-0.2,0.5-0.2h2.4c0.2,0,0.4,0.1,0.5,0.2c0.1,0.1,0.2,0.3,0.2,0.5v31.3c0,5.3-1.1,9.4-3.2,12.3c-2.2,3-5.3,4.7-9.3,5.1
			H997.6z M1000.1,1011.5c-0.1-0.1-0.2-0.3-0.2-0.5v-3.9c0-0.2,0.1-0.4,0.2-0.5s0.3-0.2,0.5-0.2h2.5c0.2,0,0.4,0.1,0.5,0.2
			c0.1,0.1,0.2,0.3,0.2,0.5v3.9c0,0.2-0.1,0.4-0.2,0.5c-0.1,0.1-0.3,0.2-0.5,0.2h-2.5C1000.4,1011.7,1000.2,1011.7,1000.1,1011.5z"
			/>
	</g>
	<g class="st1">
		<path d="M1101.8,1068.3c-0.2-0.1-0.4-0.3-0.5-0.6l-25.9-46.6c-0.2-0.2-0.3-0.5-0.3-0.9c0-0.5,0.2-0.8,0.7-0.8h2.1
			c0.3,0,0.5,0,0.7,0.1c0.2,0.1,0.3,0.3,0.5,0.6l25.9,46.8c0.1,0.1,0.2,0.3,0.2,0.5c0,0.2,0,0.3,0,0.5c-0.1,0.3-0.3,0.5-0.6,0.5
			h-2.2C1102.2,1068.4,1102,1068.4,1101.8,1068.3z M1075.4,1068.2c-0.1-0.1-0.2-0.3-0.2-0.5v-38.8c0-0.4,0.1-0.6,0.3-0.6
			s0.4,0.1,0.5,0.4l2.5,4.5c0.1,0.3,0.2,0.6,0.2,0.9v33.6c0,0.2-0.1,0.4-0.2,0.5c-0.1,0.1-0.3,0.2-0.5,0.2h-2.2
			C1075.7,1068.4,1075.5,1068.3,1075.4,1068.2z M1102,1054.6c-0.1-0.3-0.2-0.6-0.2-0.9v-33.5c0-0.2,0.1-0.4,0.2-0.5
			c0.1-0.1,0.3-0.2,0.5-0.2h2.2c0.2,0,0.4,0.1,0.5,0.2c0.1,0.1,0.2,0.3,0.2,0.5v38.7c0,0.4-0.1,0.6-0.3,0.6c-0.2,0-0.3-0.1-0.5-0.4
			L1102,1054.6z"/>
	</g>
	<g class="st1">
		<path d="M1169.9,1068.2c-0.1-0.1-0.2-0.3-0.2-0.5v-47.5c0-0.2,0.1-0.4,0.2-0.5c0.1-0.1,0.3-0.2,0.5-0.2h2.4c0.2,0,0.4,0.1,0.5,0.2
			c0.1,0.1,0.2,0.3,0.2,0.5v47.5c0,0.2-0.1,0.4-0.2,0.5c-0.1,0.1-0.3,0.2-0.5,0.2h-2.4C1170.2,1068.4,1170,1068.3,1169.9,1068.2z
			 M1177.1,1023c-0.1-0.1-0.2-0.3-0.2-0.5v-2.4c0-0.2,0.1-0.4,0.2-0.5c0.1-0.1,0.3-0.2,0.5-0.2h18.2c0.2,0,0.4,0.1,0.5,0.2
			c0.1,0.1,0.2,0.3,0.2,0.5v2.4c0,0.2-0.1,0.4-0.2,0.5c-0.1,0.1-0.3,0.2-0.5,0.2h-18.2C1177.3,1023.3,1177.2,1023.2,1177.1,1023z
			 M1177.1,1045.8c-0.1-0.1-0.2-0.3-0.2-0.5v-2.4c0-0.2,0.1-0.4,0.2-0.5c0.1-0.1,0.3-0.2,0.5-0.2h15.1c0.2,0,0.4,0.1,0.5,0.2
			c0.1,0.1,0.2,0.3,0.2,0.5v2.4c0,0.2-0.1,0.4-0.2,0.5c-0.1,0.1-0.3,0.2-0.5,0.2h-15.1C1177.3,1046,1177.2,1045.9,1177.1,1045.8z"/>
	</g>
	<g class="st1">
		<path d="M222.3,1184.5c-0.1-0.1-0.2-0.3-0.2-0.5v-2.4c0-0.2,0-0.4,0.1-0.5c0.1-0.1,0.2-0.3,0.3-0.4l25.3-44.4
			c0.2-0.3,0.5-0.5,0.8-0.5h1c0.2,0,0.4,0.1,0.5,0.2c0.1,0.1,0.2,0.3,0.2,0.5v2.4c0,0.1,0,0.3-0.1,0.5c0,0.2-0.1,0.3-0.3,0.5
			l-25.4,44.4c-0.2,0.3-0.5,0.5-0.8,0.5h-1C222.5,1184.7,222.4,1184.6,222.3,1184.5z M223.2,1139.3c-0.1-0.1-0.2-0.3-0.2-0.5v-2.4
			c0-0.2,0.1-0.4,0.2-0.5c0.1-0.1,0.3-0.2,0.5-0.2h19.8c0.3,0,0.4,0.1,0.5,0.3c0.1,0.2,0.1,0.4-0.1,0.6l-1.5,2.4
			c-0.2,0.3-0.5,0.5-0.8,0.5h-18C223.4,1139.6,223.3,1139.5,223.2,1139.3z M228.3,1184.4c-0.1-0.2,0-0.4,0.1-0.6l1.4-2.4
			c0.2-0.3,0.5-0.5,0.8-0.5h18.9c0.2,0,0.4,0.1,0.5,0.2c0.1,0.1,0.2,0.3,0.2,0.5v2.4c0,0.2-0.1,0.4-0.2,0.5
			c-0.1,0.1-0.3,0.2-0.5,0.2h-20.7C228.6,1184.7,228.4,1184.6,228.3,1184.4z"/>
	</g>
	<g class="st1">
		<path d="M319.4,1184.5c-0.1-0.1-0.2-0.3-0.2-0.5v-47.5c0-0.2,0.1-0.4,0.2-0.5c0.1-0.1,0.3-0.2,0.5-0.2h2.4c0.2,0,0.4,0.1,0.5,0.2
			c0.1,0.1,0.2,0.3,0.2,0.5v47.5c0,0.2-0.1,0.4-0.2,0.5c-0.1,0.1-0.3,0.2-0.5,0.2h-2.4C319.7,1184.7,319.5,1184.6,319.4,1184.5z
			 M326.6,1139.3c-0.1-0.1-0.2-0.3-0.2-0.5v-2.4c0-0.2,0.1-0.4,0.2-0.5c0.1-0.1,0.3-0.2,0.5-0.2h18.2c0.2,0,0.4,0.1,0.5,0.2
			c0.1,0.1,0.2,0.3,0.2,0.5v2.4c0,0.2-0.1,0.4-0.2,0.5c-0.1,0.1-0.3,0.2-0.5,0.2H327C326.8,1139.6,326.7,1139.5,326.6,1139.3z
			 M326.6,1161.6c-0.1-0.1-0.2-0.3-0.2-0.5v-2.4c0-0.2,0.1-0.4,0.2-0.5c0.1-0.1,0.3-0.2,0.5-0.2h15.1c0.2,0,0.4,0.1,0.5,0.2
			c0.1,0.1,0.2,0.3,0.2,0.5v2.4c0,0.2-0.1,0.4-0.2,0.5c-0.1,0.1-0.3,0.2-0.5,0.2H327C326.8,1161.8,326.7,1161.7,326.6,1161.6z
			 M326.6,1184.5c-0.1-0.1-0.2-0.3-0.2-0.5v-2.4c0-0.2,0.1-0.4,0.2-0.5c0.1-0.1,0.3-0.2,0.5-0.2h18.2c0.2,0,0.4,0.1,0.5,0.2
			c0.1,0.1,0.2,0.3,0.2,0.5v2.4c0,0.2-0.1,0.4-0.2,0.5c-0.1,0.1-0.3,0.2-0.5,0.2H327C326.8,1184.7,326.7,1184.6,326.6,1184.5z"/>
	</g>
	<g class="st1">
		<path d="M414,1184.5c-0.1-0.1-0.2-0.3-0.2-0.5v-47.5c0-0.2,0.1-0.4,0.2-0.5c0.1-0.1,0.3-0.2,0.5-0.2h2.4c0.2,0,0.4,0.1,0.5,0.2
			c0.1,0.1,0.2,0.3,0.2,0.5v47.5c0,0.2-0.1,0.4-0.2,0.5c-0.1,0.1-0.3,0.2-0.5,0.2h-2.4C414.3,1184.7,414.1,1184.6,414,1184.5z
			 M420.9,1161.6c-0.1-0.1-0.2-0.3-0.2-0.5v-2.4c0-0.2,0.1-0.4,0.2-0.5c0.1-0.1,0.3-0.2,0.5-0.2h14.9c0.2,0,0.4,0.1,0.5,0.2
			c0.1,0.1,0.2,0.3,0.2,0.5v2.4c0,0.2-0.1,0.4-0.2,0.5c-0.1,0.1-0.3,0.2-0.5,0.2h-14.9C421.2,1161.8,421,1161.7,420.9,1161.6z
			 M440.3,1184.5c-0.1-0.1-0.2-0.3-0.2-0.5v-47.5c0-0.2,0.1-0.4,0.2-0.5c0.1-0.1,0.3-0.2,0.5-0.2h2.4c0.2,0,0.4,0.1,0.5,0.2
			c0.1,0.1,0.2,0.3,0.2,0.5v47.5c0,0.2-0.1,0.4-0.2,0.5c-0.1,0.1-0.3,0.2-0.5,0.2h-2.4C440.6,1184.7,440.4,1184.6,440.3,1184.5z"/>
	</g>
	<g class="st1">
		<path d="M534.9,1184.6c-0.2-0.1-0.4-0.3-0.5-0.6l-25.9-46.6c-0.2-0.2-0.3-0.5-0.3-0.9c0-0.5,0.2-0.8,0.7-0.8h2.1
			c0.3,0,0.5,0,0.6,0.1c0.2,0.1,0.3,0.3,0.5,0.6l25.9,46.8c0.1,0.1,0.2,0.3,0.2,0.5s0,0.3,0,0.5c-0.1,0.3-0.3,0.5-0.6,0.5h-2.2
			C535.3,1184.7,535.1,1184.6,534.9,1184.6z M508.5,1184.5c-0.1-0.1-0.2-0.3-0.2-0.5v-38.8c0-0.4,0.1-0.6,0.3-0.6
			c0.2,0,0.4,0.1,0.5,0.4l2.5,4.5c0.1,0.3,0.2,0.6,0.2,0.9v33.6c0,0.2-0.1,0.4-0.2,0.5c-0.1,0.1-0.3,0.2-0.5,0.2h-2.2
			C508.8,1184.7,508.6,1184.6,508.5,1184.5z M535.1,1170.9c-0.1-0.3-0.2-0.6-0.2-0.9v-33.5c0-0.2,0.1-0.4,0.2-0.5
			c0.1-0.1,0.3-0.2,0.5-0.2h2.2c0.2,0,0.4,0.1,0.5,0.2c0.1,0.1,0.2,0.3,0.2,0.5v38.7c0,0.4-0.1,0.6-0.3,0.6c-0.2,0-0.3-0.1-0.5-0.4
			L535.1,1170.9z"/>
	</g>
	<g class="st1">
		<path d="M600.3,1184.5c-0.1-0.1-0.2-0.3-0.2-0.5v-2.4c0-0.2,0-0.4,0.1-0.5c0.1-0.1,0.2-0.3,0.3-0.4l25.3-44.4
			c0.2-0.3,0.5-0.5,0.8-0.5h1c0.2,0,0.4,0.1,0.5,0.2c0.1,0.1,0.2,0.3,0.2,0.5v2.4c0,0.1,0,0.3-0.1,0.5c0,0.2-0.1,0.3-0.3,0.5
			l-25.4,44.4c-0.2,0.3-0.5,0.5-0.8,0.5h-1C600.6,1184.7,600.5,1184.6,600.3,1184.5z M601.2,1139.3c-0.1-0.1-0.2-0.3-0.2-0.5v-2.4
			c0-0.2,0.1-0.4,0.2-0.5c0.1-0.1,0.3-0.2,0.5-0.2h19.8c0.3,0,0.4,0.1,0.5,0.3c0.1,0.2,0.1,0.4-0.1,0.6l-1.5,2.4
			c-0.2,0.3-0.5,0.5-0.8,0.5h-18C601.5,1139.6,601.4,1139.5,601.2,1139.3z M606.4,1184.4c-0.1-0.2,0-0.4,0.1-0.6l1.4-2.4
			c0.2-0.3,0.5-0.5,0.8-0.5h18.9c0.2,0,0.4,0.1,0.5,0.2c0.1,0.1,0.2,0.3,0.2,0.5v2.4c0,0.2-0.1,0.4-0.2,0.5
			c-0.1,0.1-0.3,0.2-0.5,0.2h-20.7C606.6,1184.7,606.5,1184.6,606.4,1184.4z"/>
	</g>
	<g class="st1">
		<path d="M698.1,1184.5c-0.1-0.1-0.2-0.3-0.3-0.5l-10.5-47.4l-0.1-0.3c0-0.1,0.1-0.3,0.2-0.4c0.1-0.1,0.2-0.1,0.4-0.1h2.3
			c0.3,0,0.5,0,0.6,0.1c0.1,0.1,0.2,0.3,0.3,0.6l10.1,47.1c0,0.1,0.1,0.3,0.1,0.5c0,0.4-0.2,0.6-0.6,0.6h-2.1
			C698.3,1184.7,698.2,1184.6,698.1,1184.5z M722.4,1184.5c-0.1-0.1-0.2-0.3-0.3-0.5l-10.3-40.4h-0.1l-8.4,32.5
			c0,0.1-0.1,0.3-0.2,0.4c-0.1,0.1-0.1,0.1-0.2,0.1c-0.2,0-0.3-0.2-0.4-0.5l-1-5c0-0.3,0-0.6,0-0.9l8.5-33.8
			c0.1-0.2,0.2-0.4,0.3-0.5c0.1-0.1,0.3-0.2,0.5-0.2h1.9c0.2,0,0.4,0.1,0.5,0.2c0.1,0.1,0.2,0.3,0.3,0.5l12,47.1l0.1,0.4
			c0,0.5-0.2,0.8-0.6,0.8h-2.1C722.7,1184.7,722.6,1184.6,722.4,1184.5z M725.4,1171.2c-0.1-0.4-0.1-0.7-0.1-0.9l7.2-33.9
			c0-0.3,0.1-0.5,0.3-0.6c0.1-0.1,0.3-0.1,0.6-0.1h2.3c0.2,0,0.4,0.1,0.5,0.2c0.1,0.1,0.1,0.3,0.1,0.6l-8.8,39.6
			c0,0.1-0.1,0.3-0.2,0.4c-0.1,0.1-0.1,0.1-0.2,0.1c-0.2,0-0.3-0.1-0.4-0.4L725.4,1171.2z"/>
	</g>
	<g class="st1">
		<path d="M787.7,1184.5c-0.1-0.1-0.1-0.3,0-0.5l13.4-41c0.1-0.3,0.3-0.4,0.5-0.4c0.1,0,0.2,0,0.2,0.1s0.1,0.2,0.2,0.3l1.2,3.9
			c0.1,0.1,0.1,0.3,0.1,0.5c0,0.2,0,0.4-0.1,0.5l-6.6,20.2h12.7c0.4,0,0.6,0.2,0.8,0.6l0.8,2.4l0.1,0.3c0,0.1-0.1,0.3-0.2,0.4
			c-0.1,0.1-0.2,0.1-0.4,0.1h-14.9l-3.9,12.2c-0.1,0.3-0.2,0.5-0.3,0.6c-0.1,0.1-0.3,0.1-0.5,0.1h-2.5
			C787.9,1184.7,787.7,1184.6,787.7,1184.5z M818.6,1184.1l-15.2-47.5l-0.1-0.3c0-0.2,0.1-0.3,0.2-0.4c0.1-0.1,0.2-0.1,0.4-0.1h2.3
			c0.4,0,0.7,0.2,0.8,0.7l15.3,47.5l0.1,0.2c0,0.1,0,0.3-0.1,0.4c-0.1,0.1-0.2,0.1-0.4,0.1h-2.5
			C818.9,1184.7,818.7,1184.5,818.6,1184.1z"/>
	</g>
	<g class="st1">
		<path d="M912.9,1184.6c-0.2-0.1-0.4-0.3-0.5-0.6l-25.9-46.6c-0.2-0.2-0.3-0.5-0.3-0.9c0-0.5,0.2-0.8,0.7-0.8h2.1
			c0.3,0,0.5,0,0.6,0.1c0.2,0.1,0.3,0.3,0.5,0.6l25.9,46.8c0.1,0.1,0.2,0.3,0.2,0.5s0,0.3,0,0.5c-0.1,0.3-0.3,0.5-0.6,0.5h-2.2
			C913.3,1184.7,913.1,1184.6,912.9,1184.6z M886.5,1184.5c-0.1-0.1-0.2-0.3-0.2-0.5v-38.8c0-0.4,0.1-0.6,0.3-0.6
			c0.2,0,0.4,0.1,0.5,0.4l2.5,4.5c0.1,0.3,0.2,0.6,0.2,0.9v33.6c0,0.2-0.1,0.4-0.2,0.5c-0.1,0.1-0.3,0.2-0.5,0.2h-2.2
			C886.8,1184.7,886.6,1184.6,886.5,1184.5z M913.1,1170.9c-0.1-0.3-0.2-0.6-0.2-0.9v-33.5c0-0.2,0.1-0.4,0.2-0.5
			c0.1-0.1,0.3-0.2,0.5-0.2h2.2c0.2,0,0.4,0.1,0.5,0.2c0.1,0.1,0.2,0.3,0.2,0.5v38.7c0,0.4-0.1,0.6-0.3,0.6c-0.2,0-0.3-0.1-0.5-0.4
			L913.1,1170.9z"/>
	</g>
	<g class="st1">
		<path d="M978.3,1184.5c-0.1-0.1-0.2-0.3-0.2-0.5v-2.4c0-0.2,0-0.4,0.1-0.5c0.1-0.1,0.2-0.3,0.3-0.4l25.3-44.4
			c0.2-0.3,0.5-0.5,0.8-0.5h1c0.2,0,0.4,0.1,0.5,0.2c0.1,0.1,0.2,0.3,0.2,0.5v2.4c0,0.1,0,0.3-0.1,0.5c0,0.2-0.1,0.3-0.3,0.5
			l-25.4,44.4c-0.2,0.3-0.5,0.5-0.8,0.5h-1C978.6,1184.7,978.5,1184.6,978.3,1184.5z M979.2,1139.3c-0.1-0.1-0.2-0.3-0.2-0.5v-2.4
			c0-0.2,0.1-0.4,0.2-0.5c0.1-0.1,0.3-0.2,0.5-0.2h19.8c0.3,0,0.4,0.1,0.5,0.3c0.1,0.2,0.1,0.4-0.1,0.6l-1.5,2.4
			c-0.2,0.3-0.5,0.5-0.8,0.5h-18C979.5,1139.6,979.4,1139.5,979.2,1139.3z M984.4,1184.4c-0.1-0.2,0-0.4,0.1-0.6l1.4-2.4
			c0.2-0.3,0.5-0.5,0.8-0.5h18.9c0.2,0,0.4,0.1,0.5,0.2c0.1,0.1,0.2,0.3,0.2,0.5v2.4c0,0.2-0.1,0.4-0.2,0.5
			c-0.1,0.1-0.3,0.2-0.5,0.2h-20.7C984.6,1184.7,984.5,1184.6,984.4,1184.4z"/>
	</g>
	<g class="st1">
		<path d="M1089.4,1184.5c-0.1-0.1-0.2-0.3-0.2-0.5v-47.5c0-0.2,0.1-0.4,0.2-0.5c0.1-0.1,0.3-0.2,0.5-0.2h2.4c0.2,0,0.4,0.1,0.5,0.2
			c0.1,0.1,0.2,0.3,0.2,0.5v47.5c0,0.2-0.1,0.4-0.2,0.5c-0.1,0.1-0.3,0.2-0.5,0.2h-2.4C1089.7,1184.7,1089.6,1184.6,1089.4,1184.5z"
			/>
	</g>
	<g class="st1">
		<path d="M1173.6,1182c-2-1.8-3.5-4.3-4.5-7.5c-0.4-1.3-0.7-3.1-0.9-5.1c-0.2-2.1-0.3-5.1-0.3-9.1c0-4,0.1-7,0.3-9.1
			c0.2-2.1,0.5-3.8,0.9-5.1c1-3.2,2.4-5.7,4.5-7.5c2-1.8,4.5-2.9,7.5-3.3h0.1c0.2,0,0.3,0.1,0.4,0.2c0.1,0.1,0.1,0.3,0.1,0.5v2.4
			c0,0.4-0.2,0.6-0.6,0.7c-2.1,0.3-3.9,1.2-5.3,2.6c-1.4,1.4-2.5,3.2-3.2,5.5c-0.3,1.1-0.6,2.6-0.8,4.5c-0.2,2-0.3,4.8-0.3,8.6
			c0,3.7,0.1,6.6,0.3,8.6c0.2,2,0.4,3.5,0.8,4.5c0.7,2.3,1.7,4.2,3.2,5.5c1.4,1.4,3.2,2.3,5.3,2.6c0.4,0,0.6,0.3,0.6,0.7v2.4
			c0,0.2-0.1,0.4-0.2,0.5c-0.1,0.1-0.3,0.2-0.5,0.1C1178.1,1184.9,1175.6,1183.8,1173.6,1182z M1185.7,1185.3
			c-0.2,0-0.3-0.1-0.4-0.2c-0.1-0.1-0.1-0.3-0.1-0.5v-2.4c0-0.4,0.2-0.7,0.6-0.7c2.1-0.4,3.8-1.3,5.3-2.6s2.5-3.2,3.2-5.4
			c0.7-2.1,1-5.3,1-9.4c0-0.3-0.1-0.4-0.4-0.4h-10.1c-0.2,0-0.3-0.1-0.5-0.2c-0.1-0.1-0.2-0.3-0.2-0.5v-2.2c0-0.2,0.1-0.4,0.2-0.5
			c0.1-0.1,0.3-0.2,0.5-0.2h13.5c0.2,0,0.4,0.1,0.5,0.2c0.1,0.1,0.2,0.3,0.2,0.5v3c0,2.3-0.1,4.4-0.3,6.2c-0.2,1.8-0.5,3.4-0.8,4.6
			c-1,3.2-2.4,5.7-4.5,7.5c-2,1.8-4.5,3-7.5,3.3H1185.7z M1194.7,1146.2c-0.2,0-0.4-0.1-0.5-0.4c-1-2-2.1-3.5-3.5-4.6
			c-1.4-1.1-3-1.9-4.9-2.2c-0.4-0.1-0.6-0.3-0.6-0.7v-2.4c0-0.2,0.1-0.4,0.2-0.5c0.1-0.1,0.3-0.2,0.5-0.1c2.7,0.4,5.1,1.4,7,2.9
			c1.9,1.6,3.4,3.5,4.4,5.8c0.1,0.3,0.1,0.5,0.1,0.6c0,0.2-0.1,0.4-0.3,0.5l-2.1,1.2C1195,1146.2,1194.9,1146.2,1194.7,1146.2z"/>
	</g>
	<g class="st1">
		<path d="M224.9,1300.7c-0.1-0.1-0.2-0.3-0.2-0.5v-47.5c0-0.2,0.1-0.4,0.2-0.5c0.1-0.1,0.3-0.2,0.5-0.2h2.4c0.2,0,0.4,0.1,0.5,0.2
			c0.1,0.1,0.2,0.3,0.2,0.5v47.5c0,0.2-0.1,0.4-0.2,0.5c-0.1,0.1-0.3,0.2-0.5,0.2h-2.4C225.2,1300.9,225,1300.8,224.9,1300.7z
			 M232,1300.7c-0.1-0.1-0.2-0.3-0.2-0.5v-2.4c0-0.2,0.1-0.4,0.2-0.5c0.1-0.1,0.3-0.2,0.5-0.2h6.2c2.9,0,5.3-0.6,7.2-1.8
			c1.8-1.2,3.2-3,3.9-5.6c0.4-1.3,0.7-2.9,0.8-4.7c0.2-1.8,0.2-4.7,0.2-8.6c0-3.9-0.1-6.8-0.2-8.6c-0.2-1.8-0.4-3.4-0.8-4.7
			c-0.8-2.5-2.1-4.4-3.9-5.6c-1.8-1.2-4.2-1.8-7.2-1.8h-6.2c-0.2,0-0.3-0.1-0.5-0.2c-0.1-0.1-0.2-0.3-0.2-0.5v-2.4
			c0-0.2,0.1-0.4,0.2-0.5c0.1-0.1,0.3-0.2,0.5-0.2h6.8c7.4,0,12.1,3.3,14.1,9.9c0.4,1.5,0.7,3.2,0.9,5.2c0.2,2,0.3,5.1,0.3,9.4
			c0,4.3-0.1,7.4-0.3,9.4c-0.2,2-0.5,3.7-0.9,5.2c-1.9,6.6-6.6,9.9-14.1,9.9h-6.8C232.3,1300.9,232.1,1300.8,232,1300.7z"/>
	</g>
	<g class="st1">
		<path d="M319.4,1300.7c-0.1-0.1-0.2-0.3-0.2-0.5v-47.5c0-0.2,0.1-0.4,0.2-0.5c0.1-0.1,0.3-0.2,0.5-0.2h2.4c0.2,0,0.4,0.1,0.5,0.2
			c0.1,0.1,0.2,0.3,0.2,0.5v47.5c0,0.2-0.1,0.4-0.2,0.5c-0.1,0.1-0.3,0.2-0.5,0.2h-2.4C319.7,1300.9,319.5,1300.8,319.4,1300.7z
			 M326.6,1278.7c-0.1-0.1-0.2-0.3-0.2-0.5v-2.4c0-0.2,0.1-0.4,0.2-0.5c0.1-0.1,0.3-0.2,0.5-0.2h7.6c3.2,0,5.6-0.8,7.3-2.5
			s2.5-4,2.5-7.2s-0.8-5.5-2.5-7.2c-1.7-1.7-4.1-2.5-7.3-2.5H327c-0.2,0-0.3-0.1-0.5-0.2c-0.1-0.1-0.2-0.3-0.2-0.5v-2.4
			c0-0.2,0.1-0.4,0.2-0.5c0.1-0.1,0.3-0.2,0.5-0.2h7.7c2.8,0,5.2,0.5,7.2,1.6c2,1.1,3.6,2.6,4.6,4.7c1.1,2,1.6,4.5,1.6,7.2
			c0,2.6-0.5,5-1.6,7.1c-1,2.1-2.6,3.7-4.6,4.8c-2.1,1.1-4.6,1.7-7.6,1.6H327C326.8,1278.9,326.7,1278.9,326.6,1278.7z
			 M344.9,1300.8c-0.1-0.1-0.2-0.3-0.3-0.5l-7.4-17.1c-0.1-0.3-0.1-0.6,0-0.7c0.1-0.1,0.2-0.2,0.4-0.2c0.2,0,0.3-0.1,0.3-0.1
			c0.8-0.1,1.5-0.2,1.9-0.4c0.1,0,0.2-0.1,0.3-0.1c0.3,0,0.5,0.2,0.5,0.5l8,17.9c0,0.1,0.1,0.2,0.1,0.4c0,0.3-0.2,0.4-0.5,0.4h-2.9
			C345.2,1300.9,345,1300.9,344.9,1300.8z"/>
	</g>
	<g class="st1">
		<path d="M414,1300.7c-0.1-0.1-0.2-0.3-0.2-0.5v-47.5c0-0.2,0.1-0.4,0.2-0.5c0.1-0.1,0.3-0.2,0.5-0.2h2.4c0.2,0,0.4,0.1,0.5,0.2
			c0.1,0.1,0.2,0.3,0.2,0.5v47.5c0,0.2-0.1,0.4-0.2,0.5c-0.1,0.1-0.3,0.2-0.5,0.2h-2.4C414.3,1300.9,414.1,1300.8,414,1300.7z
			 M421.1,1255.5c-0.1-0.1-0.2-0.3-0.2-0.5v-2.4c0-0.2,0.1-0.4,0.2-0.5c0.1-0.1,0.3-0.2,0.5-0.2h18.2c0.2,0,0.4,0.1,0.5,0.2
			c0.1,0.1,0.2,0.3,0.2,0.5v2.4c0,0.2-0.1,0.4-0.2,0.5c-0.1,0.1-0.3,0.2-0.5,0.2h-18.2C421.4,1255.8,421.3,1255.7,421.1,1255.5z
			 M421.1,1277.8c-0.1-0.1-0.2-0.3-0.2-0.5v-2.4c0-0.2,0.1-0.4,0.2-0.5c0.1-0.1,0.3-0.2,0.5-0.2h15.1c0.2,0,0.4,0.1,0.5,0.2
			c0.1,0.1,0.2,0.3,0.2,0.5v2.4c0,0.2-0.1,0.4-0.2,0.5c-0.1,0.1-0.3,0.2-0.5,0.2h-15.1C421.4,1278,421.3,1277.9,421.1,1277.8z
			 M421.1,1300.7c-0.1-0.1-0.2-0.3-0.2-0.5v-2.4c0-0.2,0.1-0.4,0.2-0.5c0.1-0.1,0.3-0.2,0.5-0.2h18.2c0.2,0,0.4,0.1,0.5,0.2
			c0.1,0.1,0.2,0.3,0.2,0.5v2.4c0,0.2-0.1,0.4-0.2,0.5c-0.1,0.1-0.3,0.2-0.5,0.2h-18.2C421.4,1300.9,421.3,1300.8,421.1,1300.7z"/>
	</g>
	<g class="st1">
		<path d="M522.4,1300.7c-0.1-0.1-0.2-0.3-0.2-0.5v-47.5c0-0.2,0.1-0.4,0.2-0.5c0.1-0.1,0.3-0.2,0.5-0.2h2.4c0.2,0,0.4,0.1,0.5,0.2
			c0.1,0.1,0.2,0.3,0.2,0.5v47.5c0,0.2-0.1,0.4-0.2,0.5c-0.1,0.1-0.3,0.2-0.5,0.2h-2.4C522.7,1300.9,522.6,1300.8,522.4,1300.7z"/>
	</g>
	<g class="st1">
		<path d="M613.1,1300.2l-14.6-47.2l-0.1-0.4c0-0.2,0.1-0.3,0.2-0.4c0.1-0.1,0.2-0.1,0.4-0.1h2.3c0.3,0,0.5,0,0.6,0.1
			c0.2,0.1,0.2,0.3,0.3,0.6l14.4,46.9c0.1,0.3,0.1,0.5,0.1,0.6c0,0.4-0.2,0.6-0.6,0.6h-2.1C613.5,1300.9,613.2,1300.7,613.1,1300.2z
			 M616.8,1289.9c0-0.1-0.1-0.3-0.1-0.5c0-0.1,0-0.4,0.1-0.8l10.7-35.9c0.1-0.3,0.2-0.5,0.3-0.6c0.1-0.1,0.3-0.1,0.6-0.1h2.4
			c0.2,0,0.4,0.1,0.5,0.3c0.1,0.2,0.1,0.4,0,0.7l-12.5,40.8c0,0.1-0.1,0.3-0.2,0.4c-0.1,0.1-0.1,0.1-0.2,0.1c-0.1,0-0.3-0.2-0.5-0.5
			L616.8,1289.9z"/>
	</g>
	<g class="st1">
		<path d="M711.4,1300.7c-0.1-0.1-0.2-0.3-0.2-0.5v-47.5c0-0.2,0.1-0.4,0.2-0.5c0.1-0.1,0.3-0.2,0.5-0.2h2.4c0.2,0,0.4,0.1,0.5,0.2
			c0.1,0.1,0.2,0.3,0.2,0.5v47.5c0,0.2-0.1,0.4-0.2,0.5c-0.1,0.1-0.3,0.2-0.5,0.2h-2.4C711.7,1300.9,711.6,1300.8,711.4,1300.7z"/>
	</g>
	<g class="st1">
		<path d="M791.9,1300.7c-0.1-0.1-0.2-0.3-0.2-0.5v-47.5c0-0.2,0.1-0.4,0.2-0.5c0.1-0.1,0.3-0.2,0.5-0.2h2.4c0.2,0,0.4,0.1,0.5,0.2
			c0.1,0.1,0.2,0.3,0.2,0.5v47.5c0,0.2-0.1,0.4-0.2,0.5c-0.1,0.1-0.3,0.2-0.5,0.2h-2.4C792.2,1300.9,792,1300.8,791.9,1300.7z
			 M799.1,1255.5c-0.1-0.1-0.2-0.3-0.2-0.5v-2.4c0-0.2,0.1-0.4,0.2-0.5c0.1-0.1,0.3-0.2,0.5-0.2h18.2c0.2,0,0.4,0.1,0.5,0.2
			c0.1,0.1,0.2,0.3,0.2,0.5v2.4c0,0.2-0.1,0.4-0.2,0.5c-0.1,0.1-0.3,0.2-0.5,0.2h-18.2C799.3,1255.8,799.2,1255.7,799.1,1255.5z
			 M799.1,1277.8c-0.1-0.1-0.2-0.3-0.2-0.5v-2.4c0-0.2,0.1-0.4,0.2-0.5c0.1-0.1,0.3-0.2,0.5-0.2h15.1c0.2,0,0.4,0.1,0.5,0.2
			c0.1,0.1,0.2,0.3,0.2,0.5v2.4c0,0.2-0.1,0.4-0.2,0.5c-0.1,0.1-0.3,0.2-0.5,0.2h-15.1C799.3,1278,799.2,1277.9,799.1,1277.8z
			 M799.1,1300.7c-0.1-0.1-0.2-0.3-0.2-0.5v-2.4c0-0.2,0.1-0.4,0.2-0.5c0.1-0.1,0.3-0.2,0.5-0.2h18.2c0.2,0,0.4,0.1,0.5,0.2
			c0.1,0.1,0.2,0.3,0.2,0.5v2.4c0,0.2-0.1,0.4-0.2,0.5c-0.1,0.1-0.3,0.2-0.5,0.2h-18.2C799.3,1300.9,799.2,1300.8,799.1,1300.7z"/>
	</g>
	<g class="st1">
		<path d="M886.5,1300.7c-0.1-0.1-0.2-0.3-0.2-0.5v-47.5c0-0.2,0.1-0.4,0.2-0.5c0.1-0.1,0.3-0.2,0.5-0.2h2.4c0.2,0,0.4,0.1,0.5,0.2
			c0.1,0.1,0.2,0.3,0.2,0.5v47.5c0,0.2-0.1,0.4-0.2,0.5c-0.1,0.1-0.3,0.2-0.5,0.2h-2.4C886.8,1300.9,886.6,1300.8,886.5,1300.7z
			 M893.6,1278.7c-0.1-0.1-0.2-0.3-0.2-0.5v-2.4c0-0.2,0.1-0.4,0.2-0.5c0.1-0.1,0.3-0.2,0.5-0.2h7.6c3.2,0,5.6-0.8,7.3-2.5
			s2.5-4,2.5-7.2s-0.8-5.5-2.5-7.2c-1.7-1.7-4.1-2.5-7.3-2.5h-7.6c-0.2,0-0.3-0.1-0.5-0.2c-0.1-0.1-0.2-0.3-0.2-0.5v-2.4
			c0-0.2,0.1-0.4,0.2-0.5c0.1-0.1,0.3-0.2,0.5-0.2h7.7c2.8,0,5.2,0.5,7.2,1.6s3.6,2.6,4.6,4.7c1.1,2,1.6,4.5,1.6,7.2
			c0,2.6-0.5,5-1.6,7.1c-1,2.1-2.6,3.7-4.6,4.8c-2.1,1.1-4.6,1.7-7.6,1.6h-7.3C893.9,1278.9,893.8,1278.9,893.6,1278.7z M912,1300.8
			c-0.1-0.1-0.2-0.3-0.3-0.5l-7.4-17.1c-0.1-0.3-0.1-0.6,0-0.7c0.1-0.1,0.2-0.2,0.4-0.2c0.2,0,0.3-0.1,0.3-0.1
			c0.8-0.1,1.5-0.2,1.9-0.4c0.1,0,0.2-0.1,0.3-0.1c0.3,0,0.5,0.2,0.5,0.5l8,17.9c0,0.1,0.1,0.2,0.1,0.4c0,0.3-0.2,0.4-0.5,0.4h-2.9
			C912.3,1300.9,912.1,1300.9,912,1300.8z"/>
	</g>
	<g class="st1">
		<path d="M976.3,1255.5c-0.1-0.1-0.2-0.3-0.2-0.5v-2.4c0-0.2,0.1-0.4,0.2-0.5c0.1-0.1,0.3-0.2,0.5-0.2h29.9c0.2,0,0.4,0.1,0.5,0.2
			c0.1,0.1,0.2,0.3,0.2,0.5v2.4c0,0.2-0.1,0.4-0.2,0.5c-0.1,0.1-0.3,0.2-0.5,0.2h-29.9C976.6,1255.8,976.4,1255.7,976.3,1255.5z
			 M990,1300.7c-0.1-0.1-0.2-0.3-0.2-0.5v-40c0-0.2,0.1-0.4,0.2-0.5c0.1-0.1,0.3-0.2,0.5-0.2h2.4c0.2,0,0.4,0.1,0.5,0.2
			c0.1,0.1,0.2,0.3,0.2,0.5v40c0,0.2-0.1,0.4-0.2,0.5c-0.1,0.1-0.3,0.2-0.5,0.2h-2.4C990.3,1300.9,990.2,1300.8,990,1300.7z"/>
	</g>
	<g class="st1">
		<path d="M1075.4,1300.7c-0.1-0.1-0.2-0.3-0.2-0.5v-47.5c0-0.2,0.1-0.4,0.2-0.5c0.1-0.1,0.3-0.2,0.5-0.2h2.4c0.2,0,0.4,0.1,0.5,0.2
			c0.1,0.1,0.2,0.3,0.2,0.5v47.5c0,0.2-0.1,0.4-0.2,0.5c-0.1,0.1-0.3,0.2-0.5,0.2h-2.4C1075.7,1300.9,1075.5,1300.8,1075.4,1300.7z
			 M1082.6,1255.5c-0.1-0.1-0.2-0.3-0.2-0.5v-2.4c0-0.2,0.1-0.4,0.2-0.5c0.1-0.1,0.3-0.2,0.5-0.2h18.2c0.2,0,0.4,0.1,0.5,0.2
			c0.1,0.1,0.2,0.3,0.2,0.5v2.4c0,0.2-0.1,0.4-0.2,0.5c-0.1,0.1-0.3,0.2-0.5,0.2H1083C1082.8,1255.8,1082.7,1255.7,1082.6,1255.5z
			 M1082.6,1277.8c-0.1-0.1-0.2-0.3-0.2-0.5v-2.4c0-0.2,0.1-0.4,0.2-0.5c0.1-0.1,0.3-0.2,0.5-0.2h15.1c0.2,0,0.4,0.1,0.5,0.2
			c0.1,0.1,0.2,0.3,0.2,0.5v2.4c0,0.2-0.1,0.4-0.2,0.5c-0.1,0.1-0.3,0.2-0.5,0.2H1083C1082.8,1278,1082.7,1277.9,1082.6,1277.8z
			 M1082.6,1300.7c-0.1-0.1-0.2-0.3-0.2-0.5v-2.4c0-0.2,0.1-0.4,0.2-0.5c0.1-0.1,0.3-0.2,0.5-0.2h18.2c0.2,0,0.4,0.1,0.5,0.2
			c0.1,0.1,0.2,0.3,0.2,0.5v2.4c0,0.2-0.1,0.4-0.2,0.5c-0.1,0.1-0.3,0.2-0.5,0.2H1083C1082.8,1300.9,1082.7,1300.8,1082.6,1300.7z"
			/>
	</g>
	<g class="st1">
		<path d="M1169.9,1300.7c-0.1-0.1-0.2-0.3-0.2-0.5v-47.5c0-0.2,0.1-0.4,0.2-0.5c0.1-0.1,0.3-0.2,0.5-0.2h2.4c0.2,0,0.4,0.1,0.5,0.2
			c0.1,0.1,0.2,0.3,0.2,0.5v47.5c0,0.2-0.1,0.4-0.2,0.5c-0.1,0.1-0.3,0.2-0.5,0.2h-2.4C1170.2,1300.9,1170,1300.8,1169.9,1300.7z
			 M1177.1,1300.7c-0.1-0.1-0.2-0.3-0.2-0.5v-2.4c0-0.2,0.1-0.4,0.2-0.5c0.1-0.1,0.3-0.2,0.5-0.2h18.2c0.2,0,0.4,0.1,0.5,0.2
			c0.1,0.1,0.2,0.3,0.2,0.5v2.4c0,0.2-0.1,0.4-0.2,0.5c-0.1,0.1-0.3,0.2-0.5,0.2h-18.2C1177.3,1300.9,1177.2,1300.8,1177.1,1300.7z"
			/>
	</g>
	<g class="st1">
		<path d="M220.2,1371.8c-0.1-0.1-0.2-0.3-0.2-0.5v-2.4c0-0.2,0.1-0.4,0.2-0.5c0.1-0.1,0.3-0.2,0.5-0.2h29.9c0.2,0,0.4,0.1,0.5,0.2
			c0.1,0.1,0.2,0.3,0.2,0.5v2.4c0,0.2-0.1,0.4-0.2,0.5c-0.1,0.1-0.3,0.2-0.5,0.2h-29.9C220.5,1372.1,220.4,1372,220.2,1371.8z
			 M233.9,1417c-0.1-0.1-0.2-0.3-0.2-0.5v-40c0-0.2,0.1-0.4,0.2-0.5c0.1-0.1,0.3-0.2,0.5-0.2h2.4c0.2,0,0.4,0.1,0.5,0.2
			c0.1,0.1,0.2,0.3,0.2,0.5v40c0,0.2-0.1,0.4-0.2,0.5c-0.1,0.1-0.3,0.2-0.5,0.2h-2.4C234.2,1417.2,234.1,1417.1,233.9,1417z"/>
	</g>
	<g class="st1">
		<path d="M323.1,1414.5c-2-1.8-3.5-4.3-4.5-7.5c-0.4-1.3-0.7-3.1-0.9-5.1c-0.2-2.1-0.3-5.1-0.3-9.1c0-4,0.1-7,0.3-9.1
			c0.2-2.1,0.5-3.8,0.9-5.1c1-3.2,2.4-5.7,4.5-7.5c2-1.8,4.5-2.9,7.5-3.3h0.1c0.2,0,0.3,0.1,0.4,0.2c0.1,0.1,0.1,0.3,0.1,0.5v2.4
			c0,0.4-0.2,0.6-0.6,0.7c-2.1,0.3-3.9,1.2-5.3,2.6c-1.4,1.4-2.5,3.2-3.2,5.5c-0.3,1.1-0.6,2.6-0.8,4.5c-0.2,2-0.3,4.8-0.3,8.6
			c0,3.7,0.1,6.6,0.3,8.6c0.2,2,0.4,3.5,0.8,4.5c0.7,2.3,1.7,4.2,3.2,5.5c1.4,1.4,3.2,2.3,5.3,2.6c0.4,0,0.6,0.3,0.6,0.7v2.4
			c0,0.2-0.1,0.4-0.2,0.5c-0.1,0.1-0.3,0.2-0.5,0.1C327.6,1417.4,325.1,1416.3,323.1,1414.5z M335.2,1417.8c-0.2,0-0.3-0.1-0.4-0.2
			c-0.1-0.1-0.1-0.3-0.1-0.5v-2.4c0-0.4,0.2-0.7,0.6-0.7c2.1-0.4,3.8-1.3,5.3-2.6s2.5-3.2,3.2-5.4c0.7-2.1,1-5.3,1-9.4
			c0-0.3-0.1-0.4-0.4-0.4h-10.1c-0.2,0-0.3-0.1-0.5-0.2c-0.1-0.1-0.2-0.3-0.2-0.5v-2.2c0-0.2,0.1-0.4,0.2-0.5
			c0.1-0.1,0.3-0.2,0.5-0.2h13.5c0.2,0,0.4,0.1,0.5,0.2c0.1,0.1,0.2,0.3,0.2,0.5v3c0,2.3-0.1,4.4-0.3,6.2c-0.2,1.8-0.5,3.4-0.8,4.6
			c-1,3.2-2.4,5.7-4.5,7.5c-2,1.8-4.5,3-7.5,3.3H335.2z M344.2,1378.7c-0.2,0-0.4-0.1-0.5-0.4c-1-2-2.1-3.5-3.5-4.6
			c-1.4-1.1-3-1.9-4.9-2.2c-0.4-0.1-0.6-0.3-0.6-0.7v-2.4c0-0.2,0.1-0.4,0.2-0.5c0.1-0.1,0.3-0.2,0.5-0.1c2.7,0.4,5.1,1.4,7,2.9
			c1.9,1.6,3.4,3.5,4.4,5.8c0.1,0.3,0.1,0.5,0.1,0.6c0,0.2-0.1,0.4-0.3,0.5l-2.1,1.2C344.5,1378.7,344.4,1378.7,344.2,1378.7z"/>
	</g>
	<g class="st1">
		<path d="M440.4,1417.1c-0.2-0.1-0.4-0.3-0.5-0.6l-25.9-46.6c-0.2-0.2-0.3-0.5-0.3-0.9c0-0.5,0.2-0.8,0.7-0.8h2.1
			c0.3,0,0.5,0,0.6,0.1c0.2,0.1,0.3,0.3,0.5,0.6l25.9,46.8c0.1,0.1,0.2,0.3,0.2,0.5s0,0.3,0,0.5c-0.1,0.3-0.3,0.5-0.6,0.5H441
			C440.8,1417.2,440.6,1417.1,440.4,1417.1z M414,1417c-0.1-0.1-0.2-0.3-0.2-0.5v-38.8c0-0.4,0.1-0.6,0.3-0.6c0.2,0,0.4,0.1,0.5,0.4
			l2.5,4.5c0.1,0.3,0.2,0.6,0.2,0.9v33.6c0,0.2-0.1,0.4-0.2,0.5c-0.1,0.1-0.3,0.2-0.5,0.2h-2.2C414.3,1417.2,414.1,1417.1,414,1417z
			 M440.6,1403.4c-0.1-0.3-0.2-0.6-0.2-0.9V1369c0-0.2,0.1-0.4,0.2-0.5c0.1-0.1,0.3-0.2,0.5-0.2h2.2c0.2,0,0.4,0.1,0.5,0.2
			c0.1,0.1,0.2,0.3,0.2,0.5v38.7c0,0.4-0.1,0.6-0.3,0.6c-0.2,0-0.3-0.1-0.5-0.4L440.6,1403.4z"/>
	</g>
	<g class="st1">
		<path d="M504.2,1417c-0.1-0.1-0.1-0.3,0-0.5l13.4-41c0.1-0.3,0.3-0.4,0.5-0.4c0.1,0,0.2,0,0.2,0.1s0.1,0.2,0.2,0.3l1.2,3.9
			c0.1,0.1,0.1,0.3,0.1,0.5c0,0.2,0,0.4-0.1,0.5l-6.6,20.2h12.7c0.4,0,0.6,0.2,0.8,0.6l0.8,2.4l0.1,0.3c0,0.1-0.1,0.3-0.2,0.4
			c-0.1,0.1-0.2,0.1-0.4,0.1h-14.9l-3.9,12.2c-0.1,0.3-0.2,0.5-0.3,0.6c-0.1,0.1-0.3,0.1-0.5,0.1h-2.5
			C504.4,1417.2,504.3,1417.1,504.2,1417z M535.1,1416.6l-15.2-47.5l-0.1-0.3c0-0.2,0.1-0.3,0.2-0.4c0.1-0.1,0.2-0.1,0.4-0.1h2.3
			c0.4,0,0.6,0.2,0.8,0.7l15.3,47.5l0.1,0.2c0,0.1,0,0.3-0.1,0.4c-0.1,0.1-0.2,0.1-0.4,0.1h-2.5
			C535.5,1417.2,535.3,1417,535.1,1416.6z"/>
	</g>
	<g class="st1">
		<path d="M606.5,1414.5c-1.9-1.8-3.4-4.3-4.3-7.5c-0.4-1.3-0.7-3-0.9-5.1c-0.2-2.1-0.3-5.2-0.3-9.3c0-4.1,0.1-7.2,0.3-9.3
			c0.2-2.1,0.5-3.8,0.9-5.1c1-3.2,2.4-5.7,4.3-7.5c1.9-1.8,4.3-2.9,7.1-3.3h0.1c0.2,0,0.3,0.1,0.4,0.2c0.1,0.1,0.2,0.3,0.2,0.5v2.4
			c0,0.4-0.2,0.7-0.6,0.8c-2,0.3-3.6,1.2-5,2.5c-1.3,1.3-2.3,3.1-3.1,5.4c-0.3,1.1-0.5,2.6-0.7,4.5c-0.2,1.9-0.3,4.9-0.3,8.7
			c0,3.9,0.1,6.8,0.3,8.7c0.2,1.9,0.4,3.4,0.7,4.5c0.7,2.3,1.8,4.1,3.1,5.5c1.3,1.3,3,2.2,5,2.5c0.4,0.1,0.6,0.3,0.6,0.7v2.4
			c0,0.2-0.1,0.4-0.2,0.5c-0.1,0.1-0.3,0.2-0.5,0.1C610.8,1417.4,608.4,1416.3,606.5,1414.5z M626.8,1378.7c-0.3,0-0.5-0.1-0.6-0.4
			c-1.9-3.8-4.5-6.1-7.9-6.8c-0.4-0.1-0.6-0.3-0.6-0.7v-2.4c0-0.2,0.1-0.4,0.2-0.6c0.1-0.1,0.3-0.2,0.5-0.1c2.5,0.4,4.6,1.3,6.5,2.8
			c1.9,1.5,3.3,3.5,4.4,6c0,0.1,0.1,0.2,0.1,0.4c0,0.2-0.1,0.4-0.3,0.5l-2.1,1.2C627,1378.7,626.9,1378.7,626.8,1378.7z
			 M618.3,1417.8c-0.2,0-0.3-0.1-0.4-0.2c-0.1-0.1-0.2-0.3-0.2-0.5v-2.4c0-0.4,0.2-0.7,0.6-0.7c3.4-0.7,6-2.9,7.9-6.8
			c0.1-0.2,0.2-0.3,0.4-0.4c0.2-0.1,0.3-0.1,0.5,0l2.1,1.2c0.3,0.2,0.4,0.5,0.2,0.9c-1.1,2.5-2.6,4.6-4.4,6c-1.9,1.5-4,2.4-6.5,2.8
			H618.3z"/>
	</g>
	<g class="st1">
		<path d="M697.4,1417c-0.1-0.1-0.2-0.3-0.2-0.5V1369c0-0.2,0.1-0.4,0.2-0.5c0.1-0.1,0.3-0.2,0.5-0.2h2.4c0.2,0,0.4,0.1,0.5,0.2
			c0.1,0.1,0.2,0.3,0.2,0.5v47.5c0,0.2-0.1,0.4-0.2,0.5c-0.1,0.1-0.3,0.2-0.5,0.2h-2.4C697.7,1417.2,697.5,1417.1,697.4,1417z
			 M704.3,1394.1c-0.1-0.1-0.2-0.3-0.2-0.5v-2.4c0-0.2,0.1-0.4,0.2-0.5c0.1-0.1,0.3-0.2,0.5-0.2h14.9c0.2,0,0.4,0.1,0.5,0.2
			c0.1,0.1,0.2,0.3,0.2,0.5v2.4c0,0.2-0.1,0.4-0.2,0.5c-0.1,0.1-0.3,0.2-0.5,0.2h-14.9C704.6,1394.3,704.4,1394.2,704.3,1394.1z
			 M723.7,1417c-0.1-0.1-0.2-0.3-0.2-0.5V1369c0-0.2,0.1-0.4,0.2-0.5c0.1-0.1,0.3-0.2,0.5-0.2h2.4c0.2,0,0.4,0.1,0.5,0.2
			c0.1,0.1,0.2,0.3,0.2,0.5v47.5c0,0.2-0.1,0.4-0.2,0.5c-0.1,0.1-0.3,0.2-0.5,0.2h-2.4C724,1417.2,723.9,1417.1,723.7,1417z"/>
	</g>
	<g class="st1">
		<path d="M802,1416.5l-14.6-47.2l-0.1-0.4c0-0.2,0.1-0.3,0.2-0.4c0.1-0.1,0.2-0.1,0.4-0.1h2.3c0.3,0,0.5,0,0.6,0.1
			c0.2,0.1,0.2,0.3,0.3,0.6l14.4,46.9c0.1,0.3,0.1,0.5,0.1,0.6c0,0.4-0.2,0.6-0.6,0.6h-2.1C802.4,1417.2,802.1,1417,802,1416.5z
			 M805.7,1406.2c0-0.1-0.1-0.3-0.1-0.5c0-0.1,0-0.4,0.1-0.8l10.7-35.9c0.1-0.3,0.2-0.5,0.3-0.6c0.1-0.1,0.3-0.1,0.6-0.1h2.4
			c0.2,0,0.4,0.1,0.5,0.3c0.1,0.2,0.1,0.4,0,0.7l-12.5,40.8c0,0.1-0.1,0.3-0.2,0.4c-0.1,0.1-0.1,0.1-0.2,0.1c-0.1,0-0.3-0.2-0.5-0.5
			L805.7,1406.2z"/>
	</g>
	<g class="st1">
		<path d="M890.1,1414.5c-2-1.8-3.5-4.3-4.4-7.5c-0.4-1.3-0.7-3-0.9-5.1c-0.2-2.1-0.3-5.1-0.3-9.1c0-4,0.1-7.1,0.3-9.1
			c0.2-2.1,0.5-3.8,0.9-5.1c1-3.2,2.4-5.7,4.4-7.5c2-1.8,4.5-2.9,7.4-3.3h0.1c0.2,0,0.3,0.1,0.4,0.2c0.1,0.1,0.2,0.3,0.2,0.5v2.4
			c0,0.4-0.2,0.6-0.6,0.7c-4.2,0.8-7,3.5-8.4,8.1c-0.3,1.1-0.6,2.7-0.8,4.6c-0.2,2-0.3,4.8-0.3,8.5c0,3.6,0.1,6.5,0.3,8.5
			c0.2,2,0.5,3.5,0.8,4.6c1.4,4.7,4.2,7.4,8.4,8.1c0.4,0,0.6,0.3,0.6,0.7v2.4c0,0.2-0.1,0.4-0.2,0.5c-0.1,0.1-0.3,0.2-0.5,0.1
			C894.6,1417.4,892.1,1416.3,890.1,1414.5z M902.3,1417.8c-0.2,0-0.3-0.1-0.4-0.2c-0.1-0.1-0.2-0.3-0.2-0.5v-2.4
			c0-0.4,0.2-0.7,0.6-0.7c4.2-0.8,7-3.5,8.4-8.1c0.3-1.2,0.6-2.7,0.8-4.7c0.2-2,0.3-4.8,0.3-8.4c0-3.6-0.1-6.4-0.3-8.4
			c-0.2-2-0.5-3.6-0.8-4.7c-1.4-4.7-4.2-7.4-8.4-8.1c-0.4-0.1-0.6-0.3-0.6-0.7v-2.4c0-0.2,0.1-0.4,0.2-0.5c0.1-0.1,0.3-0.2,0.5-0.1
			c2.9,0.4,5.4,1.5,7.4,3.3s3.5,4.3,4.5,7.5c0.4,1.4,0.7,3.1,0.9,5.2c0.2,2.1,0.3,5.1,0.3,9.1c0,3.9-0.1,6.9-0.3,9
			c-0.2,2.1-0.5,3.8-0.9,5.2c-1,3.2-2.4,5.7-4.5,7.5s-4.5,2.9-7.4,3.3H902.3z"/>
	</g>
	<g class="st1">
		<path d="M981,1417c-0.1-0.1-0.2-0.3-0.2-0.5V1369c0-0.2,0.1-0.4,0.2-0.5c0.1-0.1,0.3-0.2,0.5-0.2h2.4c0.2,0,0.4,0.1,0.5,0.2
			c0.1,0.1,0.2,0.3,0.2,0.5v47.5c0,0.2-0.1,0.4-0.2,0.5c-0.1,0.1-0.3,0.2-0.5,0.2h-2.4C981.3,1417.2,981.1,1417.1,981,1417z
			 M988.1,1395c-0.1-0.1-0.2-0.3-0.2-0.5v-2.4c0-0.2,0.1-0.4,0.2-0.5c0.1-0.1,0.3-0.2,0.5-0.2h7.6c3.2,0,5.6-0.8,7.3-2.5
			s2.5-4,2.5-7.2s-0.8-5.5-2.5-7.2c-1.7-1.7-4.1-2.5-7.3-2.5h-7.6c-0.2,0-0.3-0.1-0.5-0.2c-0.1-0.1-0.2-0.3-0.2-0.5v-2.4
			c0-0.2,0.1-0.4,0.2-0.5c0.1-0.1,0.3-0.2,0.5-0.2h7.7c2.8,0,5.2,0.5,7.2,1.6s3.6,2.6,4.6,4.7c1.1,2,1.6,4.5,1.6,7.2
			c0,2.6-0.5,5-1.6,7.1c-1,2.1-2.6,3.7-4.6,4.8c-2.1,1.1-4.6,1.7-7.6,1.6h-7.3C988.4,1395.2,988.3,1395.2,988.1,1395z
			 M1006.5,1417.1c-0.1-0.1-0.2-0.3-0.3-0.5l-7.4-17.1c-0.1-0.3-0.1-0.6,0-0.7c0.1-0.1,0.2-0.2,0.4-0.2c0.2,0,0.3-0.1,0.3-0.1
			c0.8-0.1,1.5-0.2,1.9-0.4c0.1,0,0.2-0.1,0.3-0.1c0.3,0,0.5,0.2,0.5,0.5l8,17.9c0,0.1,0.1,0.2,0.1,0.4c0,0.3-0.2,0.4-0.5,0.4h-2.9
			C1006.8,1417.2,1006.6,1417.1,1006.5,1417.1z"/>
	</g>
	<g class="st1">
		<path d="M1078.1,1412.7c-2.2-3-3.3-7.1-3.3-12.4V1369c0-0.2,0.1-0.4,0.2-0.5c0.1-0.1,0.3-0.2,0.5-0.2h2.4c0.2,0,0.4,0.1,0.5,0.2
			c0.1,0.1,0.2,0.3,0.2,0.5v31.3c0,4,0.8,7.2,2.3,9.5c1.5,2.3,3.8,3.7,6.7,4.2c0.4,0,0.6,0.3,0.6,0.7v2.4c0,0.2-0.1,0.4-0.2,0.5
			c-0.1,0.1-0.3,0.2-0.5,0.1C1083.3,1417.3,1080.2,1415.6,1078.1,1412.7z M1092,1417.8c-0.2,0-0.3-0.1-0.4-0.2
			c-0.1-0.1-0.2-0.3-0.2-0.5v-2.4c0-0.4,0.2-0.7,0.6-0.7c2.9-0.5,5.1-1.9,6.7-4.2c1.5-2.3,2.3-5.5,2.3-9.5V1369
			c0-0.2,0.1-0.4,0.2-0.5c0.1-0.1,0.3-0.2,0.5-0.2h2.4c0.2,0,0.4,0.1,0.5,0.2c0.1,0.1,0.2,0.3,0.2,0.5v31.3c0,5.3-1.1,9.4-3.2,12.3
			s-5.3,4.7-9.3,5.1H1092z"/>
	</g>
	<g class="st1">
		<path d="M1169.9,1417c-0.1-0.1-0.2-0.3-0.2-0.5v-37.1c0-0.2,0-0.3,0.1-0.5s0.1-0.2,0.2-0.2c0.2,0,0.3,0.2,0.5,0.5l2.5,6.3
			c0.1,0.3,0.2,0.6,0.2,0.9v30.1c0,0.2-0.1,0.4-0.2,0.5c-0.1,0.1-0.3,0.2-0.5,0.2h-2.2C1170.2,1417.2,1170,1417.1,1169.9,1417z
			 M1186.8,1409.8c-0.2-0.1-0.3-0.3-0.4-0.6l-16.4-40c0-0.1-0.1-0.2-0.1-0.4c0-0.3,0.2-0.4,0.5-0.4h2.4c0.4,0,0.7,0.2,0.9,0.7
			l16,39.5c0,0.1,0.1,0.2,0.1,0.4c0,0.1,0,0.2,0,0.3c0,0.1-0.1,0.2-0.1,0.2l-0.1,0.1c-0.1,0.3-0.4,0.4-0.7,0.4h-1.4
			C1187.2,1409.9,1186.9,1409.9,1186.8,1409.8z M1203.2,1417c-0.1-0.1-0.2-0.3-0.2-0.5v-38.7h-0.2l-10.6,25.8c0,0.3-0.2,0.4-0.5,0.4
			c-0.2,0-0.3-0.1-0.5-0.4l-1.1-2.8c-0.1-0.1-0.1-0.3-0.1-0.5c0-0.2,0-0.4,0.1-0.5l12.3-30.8c0.2-0.5,0.5-0.7,1-0.7h2.3
			c0.2,0,0.4,0.1,0.5,0.2c0.1,0.1,0.2,0.3,0.2,0.5v47.5c0,0.2-0.1,0.4-0.2,0.5c-0.1,0.1-0.3,0.2-0.5,0.2h-2.2
			C1203.5,1417.2,1203.3,1417.1,1203.2,1417z"/>
	</g>
	<g class="st1">
		<path d="M224.9,1533c-0.1-0.1-0.2-0.3-0.2-0.5V1485c0-0.2,0.1-0.4,0.2-0.5c0.1-0.1,0.3-0.2,0.5-0.2h2.4c0.2,0,0.4,0.1,0.5,0.2
			c0.1,0.1,0.2,0.3,0.2,0.5v47.5c0,0.2-0.1,0.4-0.2,0.5c-0.1,0.1-0.3,0.2-0.5,0.2h-2.4C225.2,1533.2,225,1533.2,224.9,1533z
			 M231.8,1510.1c-0.1-0.1-0.2-0.3-0.2-0.5v-2.4c0-0.2,0.1-0.4,0.2-0.5c0.1-0.1,0.3-0.2,0.5-0.2h14.9c0.2,0,0.4,0.1,0.5,0.2
			c0.1,0.1,0.2,0.3,0.2,0.5v2.4c0,0.2-0.1,0.4-0.2,0.5c-0.1,0.1-0.3,0.2-0.5,0.2h-14.9C232.1,1510.3,231.9,1510.3,231.8,1510.1z
			 M251.2,1533c-0.1-0.1-0.2-0.3-0.2-0.5V1485c0-0.2,0.1-0.4,0.2-0.5c0.1-0.1,0.3-0.2,0.5-0.2h2.4c0.2,0,0.4,0.1,0.5,0.2
			c0.1,0.1,0.2,0.3,0.2,0.5v47.5c0,0.2-0.1,0.4-0.2,0.5c-0.1,0.1-0.3,0.2-0.5,0.2h-2.4C251.5,1533.2,251.4,1533.2,251.2,1533z"/>
	</g>
	<g class="st1">
		<path d="M315.2,1533c-0.1-0.1-0.1-0.3,0-0.5l13.4-41c0.1-0.3,0.3-0.4,0.5-0.4c0.1,0,0.2,0,0.2,0.1s0.1,0.2,0.2,0.3l1.2,3.9
			c0.1,0.1,0.1,0.3,0.1,0.5c0,0.2,0,0.4-0.1,0.5l-6.6,20.2h12.7c0.4,0,0.6,0.2,0.8,0.6l0.8,2.4l0.1,0.3c0,0.1-0.1,0.3-0.2,0.4
			c-0.1,0.1-0.2,0.1-0.4,0.1h-14.9l-3.9,12.2c-0.1,0.3-0.2,0.5-0.3,0.6c-0.1,0.1-0.3,0.1-0.5,0.1h-2.5
			C315.4,1533.2,315.2,1533.2,315.2,1533z M346.1,1532.7l-15.2-47.5l-0.1-0.3c0-0.2,0.1-0.3,0.2-0.4c0.1-0.1,0.2-0.1,0.4-0.1h2.3
			c0.4,0,0.6,0.2,0.8,0.7l15.3,47.5l0.1,0.2c0,0.1,0,0.3-0.1,0.4c-0.1,0.1-0.2,0.1-0.4,0.1h-2.5
			C346.4,1533.2,346.2,1533,346.1,1532.7z"/>
	</g>
	<g class="st1">
		<path d="M414,1533c-0.1-0.1-0.2-0.3-0.2-0.5V1485c0-0.2,0.1-0.4,0.2-0.5c0.1-0.1,0.3-0.2,0.5-0.2h2.4c0.2,0,0.4,0.1,0.5,0.2
			c0.1,0.1,0.2,0.3,0.2,0.5v47.5c0,0.2-0.1,0.4-0.2,0.5c-0.1,0.1-0.3,0.2-0.5,0.2h-2.4C414.3,1533.2,414.1,1533.2,414,1533z
			 M421.1,1533c-0.1-0.1-0.2-0.3-0.2-0.5v-2.4c0-0.2,0.1-0.4,0.2-0.5c0.1-0.1,0.3-0.2,0.5-0.2h18.2c0.2,0,0.4,0.1,0.5,0.2
			c0.1,0.1,0.2,0.3,0.2,0.5v2.4c0,0.2-0.1,0.4-0.2,0.5c-0.1,0.1-0.3,0.2-0.5,0.2h-18.2C421.4,1533.2,421.3,1533.2,421.1,1533z"/>
	</g>
	<g class="st1">
		<path d="M508.5,1533c-0.1-0.1-0.2-0.3-0.2-0.5V1485c0-0.2,0.1-0.4,0.2-0.5c0.1-0.1,0.3-0.2,0.5-0.2h2.4c0.2,0,0.4,0.1,0.5,0.2
			c0.1,0.1,0.2,0.3,0.2,0.5v47.5c0,0.2-0.1,0.4-0.2,0.5c-0.1,0.1-0.3,0.2-0.5,0.2h-2.4C508.8,1533.2,508.6,1533.2,508.5,1533z
			 M532.3,1504.7c-0.3-0.2-0.7-0.3-1.1-0.5c-0.5-0.2-0.6-0.6-0.4-1.1c1.4-2.1,2.1-4.2,2.1-6.6c0-1.6-0.4-3-1.1-4.3
			c-0.7-1.3-1.8-2.3-3.2-3.1c-1.4-0.8-3-1.2-4.9-1.2h-7.6c-0.2,0-0.3-0.1-0.5-0.2c-0.1-0.1-0.2-0.3-0.2-0.5v-2.3
			c0-0.2,0.1-0.4,0.2-0.5c0.1-0.1,0.3-0.2,0.5-0.2h7.7c2.8,0,5.1,0.5,7,1.6c1.9,1.1,3.3,2.5,4.3,4.4c1,1.9,1.5,4,1.5,6.4
			c0,1.5-0.2,3-0.7,4.5c-0.5,1.4-1.1,2.7-1.9,3.8c-0.2,0.3-0.5,0.3-0.8,0.1C532.9,1505,532.6,1504.9,532.3,1504.7z M515.6,1533
			c-0.1-0.1-0.2-0.3-0.2-0.5v-2.3c0-0.2,0.1-0.4,0.2-0.5c0.1-0.1,0.3-0.2,0.5-0.2h7.9c3.1,0,5.5-0.9,7.1-2.6
			c1.6-1.7,2.5-4.1,2.5-7.1c0-3-0.8-5.3-2.5-7.1c-1.7-1.7-4-2.6-7.1-2.6h-7.9c-0.2,0-0.3-0.1-0.5-0.2c-0.1-0.1-0.2-0.3-0.2-0.5v-2.3
			c0-0.2,0.1-0.4,0.2-0.5s0.3-0.2,0.5-0.2h7.7c2.9,0,5.3,0.5,7.3,1.6c2,1.1,3.6,2.6,4.6,4.6c1.1,2,1.6,4.4,1.6,7.2
			c0,2.8-0.5,5.2-1.6,7.2c-1.1,2-2.6,3.6-4.6,4.6c-2,1.1-4.5,1.6-7.3,1.6h-7.7C515.9,1533.2,515.8,1533.2,515.6,1533z"/>
	</g>
	<g class="st1">
		<path d="M606.6,1530.5c-2-1.8-3.5-4.3-4.5-7.5c-0.4-1.3-0.7-3.1-0.9-5.1s-0.3-5.1-0.3-9.1c0-4,0.1-7,0.3-9.1s0.5-3.8,0.9-5.1
			c1-3.2,2.4-5.7,4.5-7.5c2-1.8,4.5-2.9,7.5-3.3h0.1c0.2,0,0.3,0.1,0.4,0.2c0.1,0.1,0.1,0.3,0.1,0.5v2.4c0,0.4-0.2,0.6-0.6,0.7
			c-2.1,0.3-3.9,1.2-5.3,2.6c-1.4,1.4-2.5,3.2-3.2,5.5c-0.3,1.1-0.6,2.6-0.8,4.5c-0.2,2-0.3,4.8-0.3,8.6c0,3.7,0.1,6.6,0.3,8.6
			c0.2,2,0.4,3.5,0.8,4.5c0.7,2.3,1.7,4.2,3.2,5.5c1.4,1.4,3.2,2.3,5.3,2.6c0.4,0,0.6,0.3,0.6,0.7v2.4c0,0.2-0.1,0.4-0.2,0.5
			c-0.1,0.1-0.3,0.2-0.5,0.1C611.2,1533.4,608.7,1532.3,606.6,1530.5z M618.8,1533.8c-0.2,0-0.3-0.1-0.4-0.2
			c-0.1-0.1-0.1-0.3-0.1-0.5v-2.4c0-0.4,0.2-0.7,0.6-0.7c2.1-0.4,3.8-1.3,5.3-2.6s2.5-3.2,3.2-5.4c0.7-2.1,1-5.3,1-9.4
			c0-0.3-0.1-0.4-0.4-0.4h-10.1c-0.2,0-0.3-0.1-0.5-0.2c-0.1-0.1-0.2-0.3-0.2-0.5v-2.2c0-0.2,0.1-0.4,0.2-0.5
			c0.1-0.1,0.3-0.2,0.5-0.2h13.5c0.2,0,0.4,0.1,0.5,0.2c0.1,0.1,0.2,0.3,0.2,0.5v3c0,2.3-0.1,4.4-0.3,6.2c-0.2,1.8-0.5,3.4-0.8,4.6
			c-1,3.2-2.4,5.7-4.5,7.5c-2,1.8-4.5,3-7.5,3.3H618.8z M627.8,1494.7c-0.2,0-0.4-0.1-0.5-0.4c-1-2-2.1-3.5-3.5-4.6
			c-1.4-1.1-3-1.9-4.9-2.2c-0.4-0.1-0.6-0.3-0.6-0.7v-2.4c0-0.2,0.1-0.4,0.2-0.5c0.1-0.1,0.3-0.2,0.5-0.1c2.7,0.4,5.1,1.4,7,2.9
			c1.9,1.6,3.4,3.5,4.4,5.8c0.1,0.3,0.1,0.5,0.1,0.6c0,0.2-0.1,0.4-0.3,0.5l-2.1,1.2C628,1494.7,627.9,1494.7,627.8,1494.7z"/>
	</g>
	<g class="st1">
		<path d="M694.8,1533c-0.1-0.1-0.2-0.3-0.2-0.5v-2.4c0-0.2,0-0.4,0.1-0.5c0.1-0.1,0.2-0.3,0.3-0.4l25.3-44.4
			c0.2-0.3,0.5-0.5,0.8-0.5h1c0.2,0,0.4,0.1,0.5,0.2c0.1,0.1,0.2,0.3,0.2,0.5v2.4c0,0.1,0,0.3-0.1,0.5c0,0.2-0.1,0.3-0.3,0.5
			l-25.4,44.4c-0.2,0.3-0.5,0.5-0.8,0.5h-1C695,1533.2,694.9,1533.2,694.8,1533z M695.7,1487.9c-0.1-0.1-0.2-0.3-0.2-0.5v-2.4
			c0-0.2,0.1-0.4,0.2-0.5c0.1-0.1,0.3-0.2,0.5-0.2h19.8c0.3,0,0.4,0.1,0.5,0.3c0.1,0.2,0.1,0.4-0.1,0.6l-1.5,2.4
			c-0.2,0.3-0.5,0.5-0.8,0.5h-18C695.9,1488.1,695.8,1488,695.7,1487.9z M700.8,1533c-0.1-0.2,0-0.4,0.1-0.6l1.4-2.4
			c0.2-0.3,0.5-0.5,0.8-0.5H722c0.2,0,0.4,0.1,0.5,0.2c0.1,0.1,0.2,0.3,0.2,0.5v2.4c0,0.2-0.1,0.4-0.2,0.5c-0.1,0.1-0.3,0.2-0.5,0.2
			h-20.7C701.1,1533.2,700.9,1533.2,700.8,1533z"/>
	</g>
	<g class="st1">
		<path d="M792.6,1533.1c-0.1-0.1-0.2-0.3-0.3-0.5l-10.5-47.4l-0.1-0.3c0-0.1,0.1-0.3,0.2-0.4c0.1-0.1,0.2-0.1,0.4-0.1h2.3
			c0.3,0,0.5,0,0.6,0.1c0.1,0.1,0.2,0.3,0.3,0.6l10.1,47.1c0,0.1,0.1,0.3,0.1,0.5c0,0.4-0.2,0.6-0.6,0.6H793
			C792.8,1533.2,792.7,1533.2,792.6,1533.1z M816.9,1533.1c-0.1-0.1-0.2-0.3-0.3-0.5l-10.3-40.4h-0.1l-8.4,32.5
			c0,0.1-0.1,0.3-0.2,0.4c-0.1,0.1-0.1,0.1-0.2,0.1c-0.2,0-0.3-0.2-0.4-0.5l-1-5c0-0.3,0-0.6,0-0.9l8.5-33.8
			c0.1-0.2,0.2-0.4,0.3-0.5c0.1-0.1,0.3-0.2,0.5-0.2h1.9c0.2,0,0.4,0.1,0.5,0.2c0.1,0.1,0.2,0.3,0.3,0.5l12,47.1l0.1,0.4
			c0,0.5-0.2,0.8-0.6,0.8h-2.1C817.2,1533.2,817.1,1533.2,816.9,1533.1z M819.9,1519.8c-0.1-0.4-0.1-0.7-0.1-0.9l7.2-33.9
			c0-0.3,0.1-0.5,0.3-0.6c0.1-0.1,0.3-0.1,0.6-0.1h2.3c0.2,0,0.4,0.1,0.5,0.2c0.1,0.1,0.1,0.3,0.1,0.6l-8.8,39.6
			c0,0.1-0.1,0.3-0.2,0.4c-0.1,0.1-0.1,0.1-0.2,0.1c-0.2,0-0.3-0.1-0.4-0.4L819.9,1519.8z"/>
	</g>
	<g class="st1">
		<path d="M890.1,1530.5c-2-1.8-3.5-4.3-4.4-7.5c-0.4-1.3-0.7-3-0.9-5.1c-0.2-2.1-0.3-5.1-0.3-9.1c0-4,0.1-7.1,0.3-9.1
			c0.2-2.1,0.5-3.8,0.9-5.1c1-3.2,2.4-5.7,4.4-7.5c2-1.8,4.5-2.9,7.4-3.3h0.1c0.2,0,0.3,0.1,0.4,0.2c0.1,0.1,0.2,0.3,0.2,0.5v2.4
			c0,0.4-0.2,0.6-0.6,0.7c-4.2,0.8-7,3.5-8.4,8.1c-0.3,1.1-0.6,2.7-0.8,4.6c-0.2,2-0.3,4.8-0.3,8.5c0,3.6,0.1,6.5,0.3,8.5
			c0.2,2,0.5,3.5,0.8,4.6c1.4,4.7,4.2,7.4,8.4,8.1c0.4,0,0.6,0.3,0.6,0.7v2.4c0,0.2-0.1,0.4-0.2,0.5c-0.1,0.1-0.3,0.2-0.5,0.1
			C894.6,1533.4,892.1,1532.3,890.1,1530.5z M891.8,1476.4c-0.1-0.1-0.2-0.3-0.2-0.5v-3.9c0-0.2,0.1-0.4,0.2-0.5s0.3-0.2,0.5-0.2
			h2.5c0.2,0,0.4,0.1,0.5,0.2c0.1,0.1,0.2,0.3,0.2,0.5v3.9c0,0.2-0.1,0.4-0.2,0.5c-0.1,0.1-0.3,0.2-0.5,0.2h-2.5
			C892,1476.6,891.9,1476.5,891.8,1476.4z M902.3,1533.8c-0.2,0-0.3-0.1-0.4-0.2c-0.1-0.1-0.2-0.3-0.2-0.5v-2.4
			c0-0.4,0.2-0.7,0.6-0.7c4.2-0.8,7-3.5,8.4-8.1c0.3-1.2,0.6-2.7,0.8-4.7c0.2-2,0.3-4.8,0.3-8.4c0-3.6-0.1-6.4-0.3-8.4
			c-0.2-2-0.5-3.6-0.8-4.7c-1.4-4.7-4.2-7.4-8.4-8.1c-0.4-0.1-0.6-0.3-0.6-0.7v-2.4c0-0.2,0.1-0.4,0.2-0.5c0.1-0.1,0.3-0.2,0.5-0.1
			c2.9,0.4,5.4,1.5,7.4,3.3s3.5,4.3,4.5,7.5c0.4,1.4,0.7,3.1,0.9,5.2c0.2,2.1,0.3,5.1,0.3,9.1c0,3.9-0.1,6.9-0.3,9
			c-0.2,2.1-0.5,3.8-0.9,5.2c-1,3.2-2.4,5.7-4.5,7.5s-4.5,2.9-7.4,3.3H902.3z M904.7,1476.4c-0.1-0.1-0.2-0.3-0.2-0.5v-3.9
			c0-0.2,0.1-0.4,0.2-0.5s0.3-0.2,0.5-0.2h2.5c0.2,0,0.4,0.1,0.5,0.2c0.1,0.1,0.2,0.3,0.2,0.5v3.9c0,0.2-0.1,0.4-0.2,0.5
			c-0.1,0.1-0.3,0.2-0.5,0.2h-2.5C905,1476.6,904.9,1476.5,904.7,1476.4z"/>
	</g>
	<g class="st1">
		<path d="M981,1533c-0.1-0.1-0.2-0.3-0.2-0.5V1485c0-0.2,0.1-0.4,0.2-0.5c0.1-0.1,0.3-0.2,0.5-0.2h2.4c0.2,0,0.4,0.1,0.5,0.2
			c0.1,0.1,0.2,0.3,0.2,0.5v47.5c0,0.2-0.1,0.4-0.2,0.5c-0.1,0.1-0.3,0.2-0.5,0.2h-2.4C981.3,1533.2,981.1,1533.2,981,1533z
			 M988.1,1533c-0.1-0.1-0.2-0.3-0.2-0.5v-2.4c0-0.2,0.1-0.4,0.2-0.5c0.1-0.1,0.3-0.2,0.5-0.2h18.2c0.2,0,0.4,0.1,0.5,0.2
			c0.1,0.1,0.2,0.3,0.2,0.5v2.4c0,0.2-0.1,0.4-0.2,0.5c-0.1,0.1-0.3,0.2-0.5,0.2h-18.2C988.4,1533.2,988.3,1533.2,988.1,1533z"/>
	</g>
	<g class="st1">
		<path d="M1075.4,1533c-0.1-0.1-0.2-0.3-0.2-0.5V1485c0-0.2,0.1-0.4,0.2-0.5c0.1-0.1,0.3-0.2,0.5-0.2h2.4c0.2,0,0.4,0.1,0.5,0.2
			c0.1,0.1,0.2,0.3,0.2,0.5v47.5c0,0.2-0.1,0.4-0.2,0.5c-0.1,0.1-0.3,0.2-0.5,0.2h-2.4C1075.7,1533.2,1075.5,1533.2,1075.4,1533z
			 M1082.6,1487.9c-0.1-0.1-0.2-0.3-0.2-0.5v-2.4c0-0.2,0.1-0.4,0.2-0.5c0.1-0.1,0.3-0.2,0.5-0.2h18.2c0.2,0,0.4,0.1,0.5,0.2
			c0.1,0.1,0.2,0.3,0.2,0.5v2.4c0,0.2-0.1,0.4-0.2,0.5c-0.1,0.1-0.3,0.2-0.5,0.2H1083C1082.8,1488.1,1082.7,1488,1082.6,1487.9z
			 M1082.6,1510.6c-0.1-0.1-0.2-0.3-0.2-0.5v-2.4c0-0.2,0.1-0.4,0.2-0.5c0.1-0.1,0.3-0.2,0.5-0.2h15.1c0.2,0,0.4,0.1,0.5,0.2
			c0.1,0.1,0.2,0.3,0.2,0.5v2.4c0,0.2-0.1,0.4-0.2,0.5c-0.1,0.1-0.3,0.2-0.5,0.2H1083C1082.8,1510.8,1082.7,1510.8,1082.6,1510.6z"
			/>
	</g>
	<g class="st1">
		<path d="M1169.8,1532.6c-1.4-0.7-2.5-1.5-3.5-2.6c-0.2-0.1-0.3-0.3-0.3-0.6c0-0.2,0.1-0.3,0.2-0.5c0.1-0.1,0.2-0.2,0.3-0.3
			l1.4-1.4c0.1-0.1,0.3-0.2,0.5-0.2c0.2,0,0.4,0.1,0.5,0.2c0.7,0.7,1.5,1.3,2.4,1.8c0.9,0.5,1.9,0.8,3,1c0.4,0,0.6,0.3,0.6,0.7v2.4
			c0,0.2-0.1,0.4-0.2,0.6c-0.1,0.1-0.3,0.2-0.5,0.1C1172.6,1533.7,1171.1,1533.2,1169.8,1532.6z M1178.9,1533.7
			c-0.2,0-0.3-0.1-0.4-0.2c-0.1-0.1-0.2-0.3-0.2-0.5v-2.4c0-0.4,0.2-0.6,0.6-0.8c2-0.6,3.5-1.8,4.5-3.6s1.6-4.4,1.6-7.6V1485
			c0-0.2,0.1-0.4,0.2-0.5c0.1-0.1,0.3-0.2,0.5-0.2h2.4c0.2,0,0.4,0.1,0.5,0.2c0.1,0.1,0.2,0.3,0.2,0.5v33.6c0,4.4-0.8,7.8-2.5,10.3
			c-1.7,2.5-4.1,4.1-7.1,4.7H1178.9z"/>
	</g>
	<g class="st1">
		<path d="M222.3,1649.3c-0.1-0.1-0.2-0.3-0.2-0.5v-2.4c0-0.2,0-0.4,0.1-0.5c0.1-0.1,0.2-0.3,0.3-0.4l25.3-44.4
			c0.2-0.3,0.5-0.5,0.8-0.5h1c0.2,0,0.4,0.1,0.5,0.2c0.1,0.1,0.2,0.3,0.2,0.5v2.4c0,0.1,0,0.3-0.1,0.5c0,0.2-0.1,0.3-0.3,0.5
			l-25.4,44.4c-0.2,0.3-0.5,0.5-0.8,0.5h-1C222.5,1649.5,222.4,1649.5,222.3,1649.3z M223.2,1604.2c-0.1-0.1-0.2-0.3-0.2-0.5v-2.4
			c0-0.2,0.1-0.4,0.2-0.5c0.1-0.1,0.3-0.2,0.5-0.2h19.8c0.3,0,0.4,0.1,0.5,0.3c0.1,0.2,0.1,0.4-0.1,0.6l-1.5,2.4
			c-0.2,0.3-0.5,0.5-0.8,0.5h-18C223.4,1604.4,223.3,1604.3,223.2,1604.2z M228.3,1649.3c-0.1-0.2,0-0.4,0.1-0.6l1.4-2.4
			c0.2-0.3,0.5-0.5,0.8-0.5h18.9c0.2,0,0.4,0.1,0.5,0.2c0.1,0.1,0.2,0.3,0.2,0.5v2.4c0,0.2-0.1,0.4-0.2,0.5
			c-0.1,0.1-0.3,0.2-0.5,0.2h-20.7C228.6,1649.5,228.4,1649.4,228.3,1649.3z"/>
	</g>
	<g class="st1">
		<path d="M320.1,1649.3c-0.1-0.1-0.2-0.3-0.3-0.5l-10.5-47.4l-0.1-0.3c0-0.1,0.1-0.3,0.2-0.4c0.1-0.1,0.2-0.1,0.4-0.1h2.3
			c0.3,0,0.5,0,0.6,0.1c0.1,0.1,0.2,0.3,0.3,0.6l10.1,47.1c0,0.1,0.1,0.3,0.1,0.5c0,0.4-0.2,0.6-0.6,0.6h-2.1
			C320.3,1649.5,320.2,1649.5,320.1,1649.3z M344.4,1649.3c-0.1-0.1-0.2-0.3-0.3-0.5l-10.3-40.4h-0.1l-8.4,32.5
			c0,0.1-0.1,0.3-0.2,0.4c-0.1,0.1-0.1,0.1-0.2,0.1c-0.2,0-0.3-0.2-0.4-0.5l-1-5c0-0.3,0-0.6,0-0.9l8.5-33.8
			c0.1-0.2,0.2-0.4,0.3-0.5c0.1-0.1,0.3-0.2,0.5-0.2h1.9c0.2,0,0.4,0.1,0.5,0.2c0.1,0.1,0.2,0.3,0.3,0.5l12,47.1l0.1,0.4
			c0,0.5-0.2,0.8-0.6,0.8h-2.1C344.7,1649.5,344.6,1649.5,344.4,1649.3z M347.4,1636.1c-0.1-0.4-0.1-0.7-0.1-0.9l7.2-33.9
			c0-0.3,0.1-0.5,0.3-0.6c0.1-0.1,0.3-0.1,0.6-0.1h2.3c0.2,0,0.4,0.1,0.5,0.2c0.1,0.1,0.1,0.3,0.1,0.6l-8.8,39.6
			c0,0.1-0.1,0.3-0.2,0.4c-0.1,0.1-0.1,0.1-0.2,0.1c-0.2,0-0.3-0.1-0.4-0.4L347.4,1636.1z"/>
	</g>
	<g class="st1">
		<path d="M414,1649.3c-0.1-0.1-0.2-0.3-0.2-0.5v-47.5c0-0.2,0.1-0.4,0.2-0.5c0.1-0.1,0.3-0.2,0.5-0.2h2.4c0.2,0,0.4,0.1,0.5,0.2
			c0.1,0.1,0.2,0.3,0.2,0.5v47.5c0,0.2-0.1,0.4-0.2,0.5c-0.1,0.1-0.3,0.2-0.5,0.2h-2.4C414.3,1649.5,414.1,1649.5,414,1649.3z
			 M421.1,1604.2c-0.1-0.1-0.2-0.3-0.2-0.5v-2.4c0-0.2,0.1-0.4,0.2-0.5c0.1-0.1,0.3-0.2,0.5-0.2h18.2c0.2,0,0.4,0.1,0.5,0.2
			c0.1,0.1,0.2,0.3,0.2,0.5v2.4c0,0.2-0.1,0.4-0.2,0.5c-0.1,0.1-0.3,0.2-0.5,0.2h-18.2C421.4,1604.4,421.3,1604.3,421.1,1604.2z
			 M421.1,1626.4c-0.1-0.1-0.2-0.3-0.2-0.5v-2.4c0-0.2,0.1-0.4,0.2-0.5c0.1-0.1,0.3-0.2,0.5-0.2h15.1c0.2,0,0.4,0.1,0.5,0.2
			c0.1,0.1,0.2,0.3,0.2,0.5v2.4c0,0.2-0.1,0.4-0.2,0.5c-0.1,0.1-0.3,0.2-0.5,0.2h-15.1C421.4,1626.6,421.3,1626.6,421.1,1626.4z
			 M421.1,1649.3c-0.1-0.1-0.2-0.3-0.2-0.5v-2.4c0-0.2,0.1-0.4,0.2-0.5c0.1-0.1,0.3-0.2,0.5-0.2h18.2c0.2,0,0.4,0.1,0.5,0.2
			c0.1,0.1,0.2,0.3,0.2,0.5v2.4c0,0.2-0.1,0.4-0.2,0.5c-0.1,0.1-0.3,0.2-0.5,0.2h-18.2C421.4,1649.5,421.3,1649.5,421.1,1649.3z"/>
	</g>
	<g class="st1">
		<path d="M522.4,1649.3c-0.1-0.1-0.2-0.3-0.2-0.5v-47.5c0-0.2,0.1-0.4,0.2-0.5c0.1-0.1,0.3-0.2,0.5-0.2h2.4c0.2,0,0.4,0.1,0.5,0.2
			c0.1,0.1,0.2,0.3,0.2,0.5v47.5c0,0.2-0.1,0.4-0.2,0.5c-0.1,0.1-0.3,0.2-0.5,0.2h-2.4C522.7,1649.5,522.6,1649.5,522.4,1649.3z"/>
	</g>
	<g class="st1">
		<path d="M629.4,1649.4c-0.2-0.1-0.4-0.3-0.5-0.6l-25.9-46.6c-0.2-0.2-0.3-0.5-0.3-0.9c0-0.5,0.2-0.8,0.7-0.8h2.1
			c0.3,0,0.5,0,0.6,0.1c0.2,0.1,0.3,0.3,0.5,0.6l25.9,46.8c0.1,0.1,0.2,0.3,0.2,0.5s0,0.3,0,0.5c-0.1,0.3-0.3,0.5-0.6,0.5H630
			C629.8,1649.5,629.6,1649.5,629.4,1649.4z M603,1649.3c-0.1-0.1-0.2-0.3-0.2-0.5V1610c0-0.4,0.1-0.6,0.3-0.6
			c0.2,0,0.4,0.1,0.5,0.4l2.5,4.5c0.1,0.3,0.2,0.6,0.2,0.9v33.6c0,0.2-0.1,0.4-0.2,0.5c-0.1,0.1-0.3,0.2-0.5,0.2h-2.2
			C603.3,1649.5,603.1,1649.5,603,1649.3z M629.6,1635.7c-0.1-0.3-0.2-0.6-0.2-0.9v-33.5c0-0.2,0.1-0.4,0.2-0.5
			c0.1-0.1,0.3-0.2,0.5-0.2h2.2c0.2,0,0.4,0.1,0.5,0.2c0.1,0.1,0.2,0.3,0.2,0.5v38.7c0,0.4-0.1,0.6-0.3,0.6c-0.2,0-0.3-0.1-0.5-0.4
			L629.6,1635.7z"/>
	</g>
	<g class="st1">
		<path d="M700.8,1648.2c-2.3-1-4.1-2.2-5.5-3.6c-0.1-0.1-0.2-0.3-0.2-0.5c0-0.2,0-0.4,0.2-0.6l1.6-2c0.3-0.3,0.6-0.4,0.9-0.1
			c1.3,1.2,2.9,2.2,4.6,3.1c1.8,0.9,3.6,1.5,5.6,1.8c0.4,0.1,0.6,0.3,0.6,0.7v2.4c0,0.2-0.1,0.4-0.2,0.5c-0.1,0.1-0.3,0.2-0.5,0.1
			C705.5,1649.9,703.1,1649.2,700.8,1648.2z M712.6,1650.1c-0.2,0-0.3-0.1-0.4-0.2c-0.1-0.1-0.2-0.3-0.2-0.5v-2.4
			c0-0.5,0.2-0.7,0.6-0.8c2.9-0.3,5.1-1.4,6.7-3.2c1.6-1.8,2.4-4,2.4-6.7c0-2.6-0.8-4.8-2.3-6.4c-1.6-1.6-4.3-2.7-8.1-3.2l-2.1-0.4
			c-4.2-0.6-7.4-2-9.5-4.2c-2.1-2.2-3.2-5.1-3.2-8.7c0-2.5,0.5-4.7,1.4-6.7c0.9-1.9,2.2-3.5,3.9-4.7c1.7-1.2,3.7-1.9,6-2.2h0.1
			c0.2,0,0.3,0.1,0.4,0.2c0.1,0.1,0.2,0.3,0.2,0.5v2.4c0,0.4-0.2,0.6-0.6,0.7c-2.4,0.4-4.3,1.5-5.7,3.2c-1.3,1.7-2,3.8-2,6.3
			c0,2.6,0.8,4.7,2.5,6.3c1.6,1.6,4.3,2.6,8.1,3.2l2.1,0.3c4.3,0.6,7.5,2,9.5,4.2c2.1,2.2,3.1,5.1,3.1,8.8c0,2.5-0.5,4.8-1.5,6.8
			c-1,2-2.4,3.6-4.3,4.9c-1.9,1.3-4.2,2.1-7,2.3H712.6z M712.6,1603.8c-0.4-0.1-0.6-0.4-0.6-0.8v-2.4c0-0.2,0.1-0.4,0.2-0.5
			c0.1-0.1,0.3-0.2,0.5-0.1c1.9,0.2,3.8,0.6,5.6,1.3c1.8,0.7,3.3,1.5,4.6,2.6c0.3,0.3,0.4,0.6,0.1,1l-1.2,2.2
			c-0.3,0.3-0.6,0.4-0.9,0.1C718.2,1605.3,715.4,1604.1,712.6,1603.8z"/>
	</g>
	<g class="st1">
		<path d="M805.9,1649.3c-0.1-0.1-0.2-0.3-0.2-0.5v-47.5c0-0.2,0.1-0.4,0.2-0.5c0.1-0.1,0.3-0.2,0.5-0.2h2.4c0.2,0,0.4,0.1,0.5,0.2
			c0.1,0.1,0.2,0.3,0.2,0.5v47.5c0,0.2-0.1,0.4-0.2,0.5c-0.1,0.1-0.3,0.2-0.5,0.2h-2.4C806.2,1649.5,806.1,1649.5,805.9,1649.3z"/>
	</g>
	<g class="st1">
		<path d="M886.5,1649.3c-0.1-0.1-0.2-0.3-0.2-0.5v-47.5c0-0.2,0.1-0.4,0.2-0.5c0.1-0.1,0.3-0.2,0.5-0.2h2.4c0.2,0,0.4,0.1,0.5,0.2
			c0.1,0.1,0.2,0.3,0.2,0.5v47.5c0,0.2-0.1,0.4-0.2,0.5c-0.1,0.1-0.3,0.2-0.5,0.2h-2.4C886.8,1649.5,886.6,1649.5,886.5,1649.3z
			 M893.6,1604.2c-0.1-0.1-0.2-0.3-0.2-0.5v-2.4c0-0.2,0.1-0.4,0.2-0.5c0.1-0.1,0.3-0.2,0.5-0.2h18.2c0.2,0,0.4,0.1,0.5,0.2
			c0.1,0.1,0.2,0.3,0.2,0.5v2.4c0,0.2-0.1,0.4-0.2,0.5c-0.1,0.1-0.3,0.2-0.5,0.2h-18.2C893.9,1604.4,893.8,1604.3,893.6,1604.2z
			 M893.6,1626.4c-0.1-0.1-0.2-0.3-0.2-0.5v-2.4c0-0.2,0.1-0.4,0.2-0.5c0.1-0.1,0.3-0.2,0.5-0.2h15.1c0.2,0,0.4,0.1,0.5,0.2
			c0.1,0.1,0.2,0.3,0.2,0.5v2.4c0,0.2-0.1,0.4-0.2,0.5c-0.1,0.1-0.3,0.2-0.5,0.2h-15.1C893.9,1626.6,893.8,1626.6,893.6,1626.4z
			 M893.6,1649.3c-0.1-0.1-0.2-0.3-0.2-0.5v-2.4c0-0.2,0.1-0.4,0.2-0.5c0.1-0.1,0.3-0.2,0.5-0.2h18.2c0.2,0,0.4,0.1,0.5,0.2
			c0.1,0.1,0.2,0.3,0.2,0.5v2.4c0,0.2-0.1,0.4-0.2,0.5c-0.1,0.1-0.3,0.2-0.5,0.2h-18.2C893.9,1649.5,893.8,1649.5,893.6,1649.3z"/>
	</g>
	<g class="st1">
		<path d="M981,1649.3c-0.1-0.1-0.2-0.3-0.2-0.5v-47.5c0-0.2,0.1-0.4,0.2-0.5c0.1-0.1,0.3-0.2,0.5-0.2h2.4c0.2,0,0.4,0.1,0.5,0.2
			c0.1,0.1,0.2,0.3,0.2,0.5v47.5c0,0.2-0.1,0.4-0.2,0.5c-0.1,0.1-0.3,0.2-0.5,0.2h-2.4C981.3,1649.5,981.1,1649.5,981,1649.3z
			 M1004.8,1621c-0.3-0.2-0.7-0.3-1.1-0.5c-0.5-0.2-0.6-0.6-0.4-1.1c1.4-2.1,2.1-4.2,2.1-6.6c0-1.6-0.4-3-1.1-4.3
			c-0.7-1.3-1.8-2.3-3.2-3.1c-1.4-0.8-3-1.2-4.9-1.2h-7.6c-0.2,0-0.3-0.1-0.5-0.2c-0.1-0.1-0.2-0.3-0.2-0.5v-2.3
			c0-0.2,0.1-0.4,0.2-0.5c0.1-0.1,0.3-0.2,0.5-0.2h7.7c2.8,0,5.1,0.5,7,1.6c1.9,1.1,3.3,2.5,4.3,4.4c1,1.9,1.5,4,1.5,6.4
			c0,1.5-0.2,3-0.7,4.5c-0.5,1.4-1.1,2.7-1.9,3.8c-0.2,0.3-0.5,0.3-0.8,0.1C1005.4,1621.3,1005.1,1621.2,1004.8,1621z M988.1,1649.3
			c-0.1-0.1-0.2-0.3-0.2-0.5v-2.3c0-0.2,0.1-0.4,0.2-0.5c0.1-0.1,0.3-0.2,0.5-0.2h7.9c3.1,0,5.5-0.9,7.1-2.6
			c1.6-1.7,2.5-4.1,2.5-7.1c0-3-0.8-5.3-2.5-7.1c-1.7-1.7-4-2.6-7.1-2.6h-7.9c-0.2,0-0.3-0.1-0.5-0.2c-0.1-0.1-0.2-0.3-0.2-0.5v-2.3
			c0-0.2,0.1-0.4,0.2-0.5s0.3-0.2,0.5-0.2h7.7c2.9,0,5.3,0.5,7.3,1.6c2,1.1,3.6,2.6,4.6,4.6c1.1,2,1.6,4.4,1.6,7.2
			c0,2.8-0.5,5.2-1.6,7.2c-1.1,2-2.6,3.6-4.6,4.6c-2,1.1-4.5,1.6-7.3,1.6h-7.7C988.4,1649.5,988.3,1649.5,988.1,1649.3z"/>
	</g>
	<g class="st1">
		<path d="M1075.4,1649.3c-0.1-0.1-0.2-0.3-0.2-0.5v-47.5c0-0.2,0.1-0.4,0.2-0.5c0.1-0.1,0.3-0.2,0.5-0.2h2.4c0.2,0,0.4,0.1,0.5,0.2
			c0.1,0.1,0.2,0.3,0.2,0.5v47.5c0,0.2-0.1,0.4-0.2,0.5c-0.1,0.1-0.3,0.2-0.5,0.2h-2.4C1075.7,1649.5,1075.5,1649.5,1075.4,1649.3z
			 M1082.6,1604.2c-0.1-0.1-0.2-0.3-0.2-0.5v-2.4c0-0.2,0.1-0.4,0.2-0.5c0.1-0.1,0.3-0.2,0.5-0.2h18.2c0.2,0,0.4,0.1,0.5,0.2
			c0.1,0.1,0.2,0.3,0.2,0.5v2.4c0,0.2-0.1,0.4-0.2,0.5c-0.1,0.1-0.3,0.2-0.5,0.2H1083C1082.8,1604.4,1082.7,1604.3,1082.6,1604.2z
			 M1082.6,1626.4c-0.1-0.1-0.2-0.3-0.2-0.5v-2.4c0-0.2,0.1-0.4,0.2-0.5c0.1-0.1,0.3-0.2,0.5-0.2h15.1c0.2,0,0.4,0.1,0.5,0.2
			c0.1,0.1,0.2,0.3,0.2,0.5v2.4c0,0.2-0.1,0.4-0.2,0.5c-0.1,0.1-0.3,0.2-0.5,0.2H1083C1082.8,1626.6,1082.7,1626.6,1082.6,1626.4z
			 M1082.6,1649.3c-0.1-0.1-0.2-0.3-0.2-0.5v-2.4c0-0.2,0.1-0.4,0.2-0.5c0.1-0.1,0.3-0.2,0.5-0.2h18.2c0.2,0,0.4,0.1,0.5,0.2
			c0.1,0.1,0.2,0.3,0.2,0.5v2.4c0,0.2-0.1,0.4-0.2,0.5c-0.1,0.1-0.3,0.2-0.5,0.2H1083C1082.8,1649.5,1082.7,1649.5,1082.6,1649.3z"
			/>
	</g>
	<g class="st1">
		<path d="M1196.3,1649.4c-0.2-0.1-0.4-0.3-0.5-0.6l-25.9-46.6c-0.2-0.2-0.3-0.5-0.3-0.9c0-0.5,0.2-0.8,0.7-0.8h2.1
			c0.3,0,0.5,0,0.7,0.1c0.2,0.1,0.3,0.3,0.5,0.6l25.9,46.8c0.1,0.1,0.2,0.3,0.2,0.5c0,0.2,0,0.3,0,0.5c-0.1,0.3-0.3,0.5-0.6,0.5
			h-2.2C1196.7,1649.5,1196.5,1649.5,1196.3,1649.4z M1169.9,1649.3c-0.1-0.1-0.2-0.3-0.2-0.5V1610c0-0.4,0.1-0.6,0.3-0.6
			s0.4,0.1,0.5,0.4l2.5,4.5c0.1,0.3,0.2,0.6,0.2,0.9v33.6c0,0.2-0.1,0.4-0.2,0.5c-0.1,0.1-0.3,0.2-0.5,0.2h-2.2
			C1170.2,1649.5,1170,1649.5,1169.9,1649.3z M1196.5,1635.7c-0.1-0.3-0.2-0.6-0.2-0.9v-33.5c0-0.2,0.1-0.4,0.2-0.5
			c0.1-0.1,0.3-0.2,0.5-0.2h2.2c0.2,0,0.4,0.1,0.5,0.2c0.1,0.1,0.2,0.3,0.2,0.5v38.7c0,0.4-0.1,0.6-0.3,0.6c-0.2,0-0.3-0.1-0.5-0.4
			L1196.5,1635.7z"/>
	</g>
	<g class="st1">
		<path d="M224.9,1765.5c-0.1-0.1-0.2-0.3-0.2-0.5v-47.5c0-0.2,0.1-0.4,0.2-0.5c0.1-0.1,0.3-0.2,0.5-0.2h2.4c0.2,0,0.4,0.1,0.5,0.2
			c0.1,0.1,0.2,0.3,0.2,0.5v47.5c0,0.2-0.1,0.4-0.2,0.5c-0.1,0.1-0.3,0.2-0.5,0.2h-2.4C225.2,1765.7,225,1765.7,224.9,1765.5z
			 M232.2,1745.9c-0.2,0-0.3-0.2-0.3-0.6v-3.7c0-0.2,0.1-0.5,0.3-0.9l17.3-23.2c0.2-0.3,0.4-0.5,0.6-0.6c0.2-0.1,0.3-0.1,0.6-0.1h3
			c0.2,0,0.4,0.1,0.4,0.3c0.1,0.2,0,0.3-0.1,0.5l-21.2,28C232.5,1745.8,232.4,1745.9,232.2,1745.9z M251.2,1765.6
			c-0.1-0.1-0.3-0.3-0.4-0.6l-11.3-21.8c-0.1-0.2-0.1-0.3-0.1-0.4c0-0.2,0.1-0.4,0.2-0.6l1.6-2.1c0.2-0.2,0.3-0.3,0.5-0.3
			c0.2,0,0.3,0.1,0.5,0.4L255,1765l0.1,0.3c0,0.3-0.1,0.4-0.4,0.4h-2.9C251.5,1765.7,251.4,1765.7,251.2,1765.6z"/>
	</g>
	<g class="st1">
		<path d="M319.4,1765.5c-0.1-0.1-0.2-0.3-0.2-0.5v-47.5c0-0.2,0.1-0.4,0.2-0.5c0.1-0.1,0.3-0.2,0.5-0.2h2.4c0.2,0,0.4,0.1,0.5,0.2
			c0.1,0.1,0.2,0.3,0.2,0.5v47.5c0,0.2-0.1,0.4-0.2,0.5c-0.1,0.1-0.3,0.2-0.5,0.2h-2.4C319.7,1765.7,319.5,1765.7,319.4,1765.5z
			 M326.5,1765.5c-0.1-0.1-0.2-0.3-0.2-0.5v-2.4c0-0.2,0.1-0.4,0.2-0.5c0.1-0.1,0.3-0.2,0.5-0.2h6.2c2.9,0,5.3-0.6,7.2-1.8
			c1.8-1.2,3.2-3,3.9-5.6c0.4-1.3,0.7-2.9,0.8-4.7c0.2-1.8,0.2-4.7,0.2-8.6c0-3.9-0.1-6.8-0.2-8.6c-0.2-1.8-0.4-3.4-0.8-4.7
			c-0.8-2.5-2.1-4.4-3.9-5.6c-1.8-1.2-4.2-1.8-7.2-1.8H327c-0.2,0-0.3-0.1-0.5-0.2c-0.1-0.1-0.2-0.3-0.2-0.5v-2.4
			c0-0.2,0.1-0.4,0.2-0.5c0.1-0.1,0.3-0.2,0.5-0.2h6.8c7.4,0,12.1,3.3,14.1,9.9c0.4,1.5,0.7,3.2,0.9,5.2c0.2,2,0.3,5.1,0.3,9.4
			c0,4.3-0.1,7.4-0.3,9.4c-0.2,2-0.5,3.7-0.9,5.2c-1.9,6.6-6.6,9.9-14.1,9.9H327C326.8,1765.7,326.6,1765.7,326.5,1765.5z"/>
	</g>
	<g class="st1">
		<path d="M414,1765.5c-0.1-0.1-0.2-0.3-0.2-0.5v-47.5c0-0.2,0.1-0.4,0.2-0.5c0.1-0.1,0.3-0.2,0.5-0.2h2.4c0.2,0,0.4,0.1,0.5,0.2
			c0.1,0.1,0.2,0.3,0.2,0.5v47.5c0,0.2-0.1,0.4-0.2,0.5c-0.1,0.1-0.3,0.2-0.5,0.2h-2.4C414.3,1765.7,414.1,1765.7,414,1765.5z
			 M421.1,1743.6c-0.1-0.1-0.2-0.3-0.2-0.5v-2.4c0-0.2,0.1-0.4,0.2-0.5c0.1-0.1,0.3-0.2,0.5-0.2h7.6c3.2,0,5.6-0.8,7.3-2.5
			s2.5-4,2.5-7.2s-0.8-5.5-2.5-7.2c-1.7-1.7-4.1-2.5-7.3-2.5h-7.6c-0.2,0-0.3-0.1-0.5-0.2c-0.1-0.1-0.2-0.3-0.2-0.5v-2.4
			c0-0.2,0.1-0.4,0.2-0.5c0.1-0.1,0.3-0.2,0.5-0.2h7.7c2.8,0,5.2,0.5,7.2,1.6s3.6,2.6,4.6,4.7c1.1,2,1.6,4.5,1.6,7.2
			c0,2.6-0.5,5-1.6,7.1c-1,2.1-2.6,3.7-4.6,4.8c-2.1,1.1-4.6,1.7-7.6,1.6h-7.3C421.4,1743.8,421.3,1743.7,421.1,1743.6z
			 M439.5,1765.6c-0.1-0.1-0.2-0.3-0.3-0.5l-7.4-17.1c-0.1-0.3-0.1-0.6,0-0.7c0.1-0.1,0.2-0.2,0.4-0.2c0.2,0,0.3-0.1,0.3-0.1
			c0.8-0.1,1.5-0.2,1.9-0.4c0.1,0,0.2-0.1,0.3-0.1c0.3,0,0.5,0.2,0.5,0.5l8,17.9c0,0.1,0.1,0.2,0.1,0.4c0,0.3-0.2,0.4-0.5,0.4H440
			C439.8,1765.7,439.6,1765.7,439.5,1765.6z"/>
	</g>
	<g class="st1">
		<path d="M508.5,1765.5c-0.1-0.1-0.2-0.3-0.2-0.5v-47.5c0-0.2,0.1-0.4,0.2-0.5c0.1-0.1,0.3-0.2,0.5-0.2h2.4c0.2,0,0.4,0.1,0.5,0.2
			c0.1,0.1,0.2,0.3,0.2,0.5v47.5c0,0.2-0.1,0.4-0.2,0.5c-0.1,0.1-0.3,0.2-0.5,0.2h-2.4C508.8,1765.7,508.6,1765.7,508.5,1765.5z
			 M515.6,1720.4c-0.1-0.1-0.2-0.3-0.2-0.5v-2.4c0-0.2,0.1-0.4,0.2-0.5c0.1-0.1,0.3-0.2,0.5-0.2h18.2c0.2,0,0.4,0.1,0.5,0.2
			c0.1,0.1,0.2,0.3,0.2,0.5v2.4c0,0.2-0.1,0.4-0.2,0.5c-0.1,0.1-0.3,0.2-0.5,0.2h-18.2C515.9,1720.6,515.8,1720.5,515.6,1720.4z
			 M515.6,1742.6c-0.1-0.1-0.2-0.3-0.2-0.5v-2.4c0-0.2,0.1-0.4,0.2-0.5c0.1-0.1,0.3-0.2,0.5-0.2h15.1c0.2,0,0.4,0.1,0.5,0.2
			c0.1,0.1,0.2,0.3,0.2,0.5v2.4c0,0.2-0.1,0.4-0.2,0.5c-0.1,0.1-0.3,0.2-0.5,0.2h-15.1C515.9,1742.8,515.8,1742.8,515.6,1742.6z
			 M515.6,1765.5c-0.1-0.1-0.2-0.3-0.2-0.5v-2.4c0-0.2,0.1-0.4,0.2-0.5c0.1-0.1,0.3-0.2,0.5-0.2h18.2c0.2,0,0.4,0.1,0.5,0.2
			c0.1,0.1,0.2,0.3,0.2,0.5v2.4c0,0.2-0.1,0.4-0.2,0.5c-0.1,0.1-0.3,0.2-0.5,0.2h-18.2C515.9,1765.7,515.8,1765.7,515.6,1765.5z"/>
	</g>
	<g class="st1">
		<path d="M616.9,1765.5c-0.1-0.1-0.2-0.3-0.2-0.5v-47.5c0-0.2,0.1-0.4,0.2-0.5c0.1-0.1,0.3-0.2,0.5-0.2h2.4c0.2,0,0.4,0.1,0.5,0.2
			c0.1,0.1,0.2,0.3,0.2,0.5v47.5c0,0.2-0.1,0.4-0.2,0.5c-0.1,0.1-0.3,0.2-0.5,0.2h-2.4C617.2,1765.7,617.1,1765.7,616.9,1765.5z"/>
	</g>
	<g class="st1">
		<path d="M697.4,1765.5c-0.1-0.1-0.2-0.3-0.2-0.5v-47.5c0-0.2,0.1-0.4,0.2-0.5c0.1-0.1,0.3-0.2,0.5-0.2h2.4c0.2,0,0.4,0.1,0.5,0.2
			c0.1,0.1,0.2,0.3,0.2,0.5v47.5c0,0.2-0.1,0.4-0.2,0.5c-0.1,0.1-0.3,0.2-0.5,0.2h-2.4C697.7,1765.7,697.5,1765.7,697.4,1765.5z
			 M704.6,1743.6c-0.1-0.1-0.2-0.3-0.2-0.5v-2.4c0-0.2,0.1-0.4,0.2-0.5c0.1-0.1,0.3-0.2,0.5-0.2h7.6c3.2,0,5.6-0.8,7.3-2.5
			s2.5-4,2.5-7.2s-0.8-5.5-2.5-7.2c-1.7-1.7-4.1-2.5-7.3-2.5H705c-0.2,0-0.3-0.1-0.5-0.2c-0.1-0.1-0.2-0.3-0.2-0.5v-2.4
			c0-0.2,0.1-0.4,0.2-0.5c0.1-0.1,0.3-0.2,0.5-0.2h7.7c2.8,0,5.2,0.5,7.2,1.6c2,1.1,3.6,2.6,4.6,4.7c1.1,2,1.6,4.5,1.6,7.2
			c0,2.6-0.5,5-1.6,7.1c-1,2.1-2.6,3.7-4.6,4.8c-2.1,1.1-4.6,1.7-7.6,1.6H705C704.8,1743.8,704.7,1743.7,704.6,1743.6z
			 M722.9,1765.6c-0.1-0.1-0.2-0.3-0.3-0.5l-7.4-17.1c-0.1-0.3-0.1-0.6,0-0.7c0.1-0.1,0.2-0.2,0.4-0.2c0.2,0,0.3-0.1,0.3-0.1
			c0.8-0.1,1.5-0.2,1.9-0.4c0.1,0,0.2-0.1,0.3-0.1c0.3,0,0.5,0.2,0.5,0.5l8,17.9c0,0.1,0.1,0.2,0.1,0.4c0,0.3-0.2,0.4-0.5,0.4h-2.9
			C723.2,1765.7,723,1765.7,722.9,1765.6z"/>
	</g>
	<g class="st1">
		<path d="M791.9,1765.5c-0.1-0.1-0.2-0.3-0.2-0.5v-47.5c0-0.2,0.1-0.4,0.2-0.5c0.1-0.1,0.3-0.2,0.5-0.2h2.4c0.2,0,0.4,0.1,0.5,0.2
			c0.1,0.1,0.2,0.3,0.2,0.5v47.5c0,0.2-0.1,0.4-0.2,0.5c-0.1,0.1-0.3,0.2-0.5,0.2h-2.4C792.2,1765.7,792,1765.7,791.9,1765.5z
			 M798.8,1742.6c-0.1-0.1-0.2-0.3-0.2-0.5v-2.4c0-0.2,0.1-0.4,0.2-0.5c0.1-0.1,0.3-0.2,0.5-0.2h14.9c0.2,0,0.4,0.1,0.5,0.2
			c0.1,0.1,0.2,0.3,0.2,0.5v2.4c0,0.2-0.1,0.4-0.2,0.5c-0.1,0.1-0.3,0.2-0.5,0.2h-14.9C799.1,1742.8,798.9,1742.8,798.8,1742.6z
			 M818.2,1765.5c-0.1-0.1-0.2-0.3-0.2-0.5v-47.5c0-0.2,0.1-0.4,0.2-0.5c0.1-0.1,0.3-0.2,0.5-0.2h2.4c0.2,0,0.4,0.1,0.5,0.2
			c0.1,0.1,0.2,0.3,0.2,0.5v47.5c0,0.2-0.1,0.4-0.2,0.5c-0.1,0.1-0.3,0.2-0.5,0.2h-2.4C818.5,1765.7,818.4,1765.7,818.2,1765.5z"/>
	</g>
	<g class="st1">
		<path d="M886.5,1765.5c-0.1-0.1-0.2-0.3-0.2-0.5v-47.5c0-0.2,0.1-0.4,0.2-0.5c0.1-0.1,0.3-0.2,0.5-0.2h2.4c0.2,0,0.4,0.1,0.5,0.2
			c0.1,0.1,0.2,0.3,0.2,0.5v47.5c0,0.2-0.1,0.4-0.2,0.5c-0.1,0.1-0.3,0.2-0.5,0.2h-2.4C886.8,1765.7,886.6,1765.7,886.5,1765.5z
			 M893.6,1720.4c-0.1-0.1-0.2-0.3-0.2-0.5v-2.4c0-0.2,0.1-0.4,0.2-0.5c0.1-0.1,0.3-0.2,0.5-0.2h18.2c0.2,0,0.4,0.1,0.5,0.2
			c0.1,0.1,0.2,0.3,0.2,0.5v2.4c0,0.2-0.1,0.4-0.2,0.5c-0.1,0.1-0.3,0.2-0.5,0.2h-18.2C893.9,1720.6,893.8,1720.5,893.6,1720.4z
			 M893.6,1743.1c-0.1-0.1-0.2-0.3-0.2-0.5v-2.4c0-0.2,0.1-0.4,0.2-0.5c0.1-0.1,0.3-0.2,0.5-0.2h15.1c0.2,0,0.4,0.1,0.5,0.2
			c0.1,0.1,0.2,0.3,0.2,0.5v2.4c0,0.2-0.1,0.4-0.2,0.5c-0.1,0.1-0.3,0.2-0.5,0.2h-15.1C893.9,1743.3,893.8,1743.3,893.6,1743.1z"/>
	</g>
	<g class="st1">
		<path d="M983.6,1761.2c-2.2-3-3.3-7.1-3.3-12.4v-31.3c0-0.2,0.1-0.4,0.2-0.5c0.1-0.1,0.3-0.2,0.5-0.2h2.4c0.2,0,0.4,0.1,0.5,0.2
			c0.1,0.1,0.2,0.3,0.2,0.5v31.3c0,4,0.8,7.2,2.3,9.5c1.5,2.3,3.8,3.7,6.7,4.2c0.4,0,0.6,0.3,0.6,0.7v2.4c0,0.2-0.1,0.4-0.2,0.5
			c-0.1,0.1-0.3,0.2-0.5,0.1C988.9,1765.9,985.8,1764.2,983.6,1761.2z M987.1,1708.9c-0.1-0.1-0.2-0.3-0.2-0.5v-3.9
			c0-0.2,0.1-0.4,0.2-0.5c0.1-0.1,0.3-0.2,0.5-0.2h2.5c0.2,0,0.4,0.1,0.5,0.2c0.1,0.1,0.2,0.3,0.2,0.5v3.9c0,0.2-0.1,0.4-0.2,0.5
			c-0.1,0.1-0.3,0.2-0.5,0.2h-2.5C987.4,1709.1,987.2,1709,987.1,1708.9z M997.6,1766.3c-0.2,0-0.3-0.1-0.4-0.2
			c-0.1-0.1-0.2-0.3-0.2-0.5v-2.4c0-0.4,0.2-0.7,0.6-0.7c2.9-0.5,5.1-1.9,6.7-4.2s2.3-5.5,2.3-9.5v-31.3c0-0.2,0.1-0.4,0.2-0.5
			c0.1-0.1,0.3-0.2,0.5-0.2h2.4c0.2,0,0.4,0.1,0.5,0.2c0.1,0.1,0.2,0.3,0.2,0.5v31.3c0,5.3-1.1,9.4-3.2,12.3c-2.2,3-5.3,4.7-9.3,5.1
			H997.6z M1000.1,1708.9c-0.1-0.1-0.2-0.3-0.2-0.5v-3.9c0-0.2,0.1-0.4,0.2-0.5s0.3-0.2,0.5-0.2h2.5c0.2,0,0.4,0.1,0.5,0.2
			c0.1,0.1,0.2,0.3,0.2,0.5v3.9c0,0.2-0.1,0.4-0.2,0.5c-0.1,0.1-0.3,0.2-0.5,0.2h-2.5C1000.4,1709.1,1000.2,1709,1000.1,1708.9z"/>
	</g>
	<g class="st1">
		<path d="M1101.8,1765.6c-0.2-0.1-0.4-0.3-0.5-0.6l-25.9-46.6c-0.2-0.2-0.3-0.5-0.3-0.9c0-0.5,0.2-0.8,0.7-0.8h2.1
			c0.3,0,0.5,0,0.7,0.1c0.2,0.1,0.3,0.3,0.5,0.6l25.9,46.8c0.1,0.1,0.2,0.3,0.2,0.5c0,0.2,0,0.3,0,0.5c-0.1,0.3-0.3,0.5-0.6,0.5
			h-2.2C1102.2,1765.7,1102,1765.7,1101.8,1765.6z M1075.4,1765.5c-0.1-0.1-0.2-0.3-0.2-0.5v-38.8c0-0.4,0.1-0.6,0.3-0.6
			s0.4,0.1,0.5,0.4l2.5,4.5c0.1,0.3,0.2,0.6,0.2,0.9v33.6c0,0.2-0.1,0.4-0.2,0.5c-0.1,0.1-0.3,0.2-0.5,0.2h-2.2
			C1075.7,1765.7,1075.5,1765.7,1075.4,1765.5z M1102,1751.9c-0.1-0.3-0.2-0.6-0.2-0.9v-33.5c0-0.2,0.1-0.4,0.2-0.5
			c0.1-0.1,0.3-0.2,0.5-0.2h2.2c0.2,0,0.4,0.1,0.5,0.2c0.1,0.1,0.2,0.3,0.2,0.5v38.7c0,0.4-0.1,0.6-0.3,0.6c-0.2,0-0.3-0.1-0.5-0.4
			L1102,1751.9z"/>
	</g>
	<g class="st1">
		<path d="M1169.9,1765.5c-0.1-0.1-0.2-0.3-0.2-0.5v-47.5c0-0.2,0.1-0.4,0.2-0.5c0.1-0.1,0.3-0.2,0.5-0.2h2.4c0.2,0,0.4,0.1,0.5,0.2
			c0.1,0.1,0.2,0.3,0.2,0.5v47.5c0,0.2-0.1,0.4-0.2,0.5c-0.1,0.1-0.3,0.2-0.5,0.2h-2.4C1170.2,1765.7,1170,1765.7,1169.9,1765.5z
			 M1177.1,1720.4c-0.1-0.1-0.2-0.3-0.2-0.5v-2.4c0-0.2,0.1-0.4,0.2-0.5c0.1-0.1,0.3-0.2,0.5-0.2h18.2c0.2,0,0.4,0.1,0.5,0.2
			c0.1,0.1,0.2,0.3,0.2,0.5v2.4c0,0.2-0.1,0.4-0.2,0.5c-0.1,0.1-0.3,0.2-0.5,0.2h-18.2C1177.3,1720.6,1177.2,1720.5,1177.1,1720.4z
			 M1177.1,1743.1c-0.1-0.1-0.2-0.3-0.2-0.5v-2.4c0-0.2,0.1-0.4,0.2-0.5c0.1-0.1,0.3-0.2,0.5-0.2h15.1c0.2,0,0.4,0.1,0.5,0.2
			c0.1,0.1,0.2,0.3,0.2,0.5v2.4c0,0.2-0.1,0.4-0.2,0.5c-0.1,0.1-0.3,0.2-0.5,0.2h-15.1C1177.3,1743.3,1177.2,1743.3,1177.1,1743.1z"
			/>
	</g>
	<g class="st1">
		<path d="M224.9,1881.8c-0.1-0.1-0.2-0.3-0.2-0.5v-47.5c0-0.2,0.1-0.4,0.2-0.5c0.1-0.1,0.3-0.2,0.5-0.2h2.4c0.2,0,0.4,0.1,0.5,0.2
			c0.1,0.1,0.2,0.3,0.2,0.5v47.5c0,0.2-0.1,0.4-0.2,0.5c-0.1,0.1-0.3,0.2-0.5,0.2h-2.4C225.2,1882,225,1882,224.9,1881.8z
			 M232.1,1836.7c-0.1-0.1-0.2-0.3-0.2-0.5v-2.4c0-0.2,0.1-0.4,0.2-0.5c0.1-0.1,0.3-0.2,0.5-0.2h18.2c0.2,0,0.4,0.1,0.5,0.2
			c0.1,0.1,0.2,0.3,0.2,0.5v2.4c0,0.2-0.1,0.4-0.2,0.5c-0.1,0.1-0.3,0.2-0.5,0.2h-18.2C232.3,1836.9,232.2,1836.8,232.1,1836.7z
			 M232.1,1858.9c-0.1-0.1-0.2-0.3-0.2-0.5v-2.4c0-0.2,0.1-0.4,0.2-0.5c0.1-0.1,0.3-0.2,0.5-0.2h15.1c0.2,0,0.4,0.1,0.5,0.2
			c0.1,0.1,0.2,0.3,0.2,0.5v2.4c0,0.2-0.1,0.4-0.2,0.5c-0.1,0.1-0.3,0.2-0.5,0.2h-15.1C232.3,1859.1,232.2,1859.1,232.1,1858.9z
			 M232.1,1881.8c-0.1-0.1-0.2-0.3-0.2-0.5v-2.4c0-0.2,0.1-0.4,0.2-0.5c0.1-0.1,0.3-0.2,0.5-0.2h18.2c0.2,0,0.4,0.1,0.5,0.2
			c0.1,0.1,0.2,0.3,0.2,0.5v2.4c0,0.2-0.1,0.4-0.2,0.5c-0.1,0.1-0.3,0.2-0.5,0.2h-18.2C232.3,1882,232.2,1882,232.1,1881.8z"/>
	</g>
	<g class="st1">
		<path d="M319.4,1881.8c-0.1-0.1-0.2-0.3-0.2-0.5v-47.5c0-0.2,0.1-0.4,0.2-0.5c0.1-0.1,0.3-0.2,0.5-0.2h2.4c0.2,0,0.4,0.1,0.5,0.2
			c0.1,0.1,0.2,0.3,0.2,0.5v47.5c0,0.2-0.1,0.4-0.2,0.5c-0.1,0.1-0.3,0.2-0.5,0.2h-2.4C319.7,1882,319.5,1882,319.4,1881.8z
			 M326.6,1881.8c-0.1-0.1-0.2-0.3-0.2-0.5v-2.4c0-0.2,0.1-0.4,0.2-0.5c0.1-0.1,0.3-0.2,0.5-0.2h18.2c0.2,0,0.4,0.1,0.5,0.2
			c0.1,0.1,0.2,0.3,0.2,0.5v2.4c0,0.2-0.1,0.4-0.2,0.5c-0.1,0.1-0.3,0.2-0.5,0.2H327C326.8,1882,326.7,1882,326.6,1881.8z"/>
	</g>
	<g class="st1">
		<path d="M414,1881.8c-0.1-0.1-0.2-0.3-0.2-0.5v-47.5c0-0.2,0.1-0.4,0.2-0.5c0.1-0.1,0.3-0.2,0.5-0.2h2.4c0.2,0,0.4,0.1,0.5,0.2
			c0.1,0.1,0.2,0.3,0.2,0.5v47.5c0,0.2-0.1,0.4-0.2,0.5c-0.1,0.1-0.3,0.2-0.5,0.2h-2.4C414.3,1882,414.1,1882,414,1881.8z
			 M421.1,1836.7c-0.1-0.1-0.2-0.3-0.2-0.5v-2.4c0-0.2,0.1-0.4,0.2-0.5c0.1-0.1,0.3-0.2,0.5-0.2h18.2c0.2,0,0.4,0.1,0.5,0.2
			c0.1,0.1,0.2,0.3,0.2,0.5v2.4c0,0.2-0.1,0.4-0.2,0.5c-0.1,0.1-0.3,0.2-0.5,0.2h-18.2C421.4,1836.9,421.3,1836.8,421.1,1836.7z
			 M421.1,1859.4c-0.1-0.1-0.2-0.3-0.2-0.5v-2.4c0-0.2,0.1-0.4,0.2-0.5c0.1-0.1,0.3-0.2,0.5-0.2h15.1c0.2,0,0.4,0.1,0.5,0.2
			c0.1,0.1,0.2,0.3,0.2,0.5v2.4c0,0.2-0.1,0.4-0.2,0.5c-0.1,0.1-0.3,0.2-0.5,0.2h-15.1C421.4,1859.6,421.3,1859.6,421.1,1859.4z"/>
	</g>
	<g class="st1">
		<path d="M534.9,1881.9c-0.2-0.1-0.4-0.3-0.5-0.6l-25.9-46.6c-0.2-0.2-0.3-0.5-0.3-0.9c0-0.5,0.2-0.8,0.7-0.8h2.1
			c0.3,0,0.5,0,0.6,0.1c0.2,0.1,0.3,0.3,0.5,0.6l25.9,46.8c0.1,0.1,0.2,0.3,0.2,0.5s0,0.3,0,0.5c-0.1,0.3-0.3,0.5-0.6,0.5h-2.2
			C535.3,1882,535.1,1882,534.9,1881.9z M508.5,1881.8c-0.1-0.1-0.2-0.3-0.2-0.5v-38.8c0-0.4,0.1-0.6,0.3-0.6c0.2,0,0.4,0.1,0.5,0.4
			l2.5,4.5c0.1,0.3,0.2,0.6,0.2,0.9v33.6c0,0.2-0.1,0.4-0.2,0.5c-0.1,0.1-0.3,0.2-0.5,0.2h-2.2C508.8,1882,508.6,1882,508.5,1881.8z
			 M535.1,1868.2c-0.1-0.3-0.2-0.6-0.2-0.9v-33.5c0-0.2,0.1-0.4,0.2-0.5c0.1-0.1,0.3-0.2,0.5-0.2h2.2c0.2,0,0.4,0.1,0.5,0.2
			c0.1,0.1,0.2,0.3,0.2,0.5v38.7c0,0.4-0.1,0.6-0.3,0.6c-0.2,0-0.3-0.1-0.5-0.4L535.1,1868.2z"/>
	</g>
	<g class="st1">
		<path d="M603,1881.8c-0.1-0.1-0.2-0.3-0.2-0.5v-47.5c0-0.2,0.1-0.4,0.2-0.5c0.1-0.1,0.3-0.2,0.5-0.2h2.4c0.2,0,0.4,0.1,0.5,0.2
			c0.1,0.1,0.2,0.3,0.2,0.5v47.5c0,0.2-0.1,0.4-0.2,0.5c-0.1,0.1-0.3,0.2-0.5,0.2h-2.4C603.3,1882,603.1,1882,603,1881.8z
			 M610.1,1836.7c-0.1-0.1-0.2-0.3-0.2-0.5v-2.4c0-0.2,0.1-0.4,0.2-0.5c0.1-0.1,0.3-0.2,0.5-0.2h18.2c0.2,0,0.4,0.1,0.5,0.2
			c0.1,0.1,0.2,0.3,0.2,0.5v2.4c0,0.2-0.1,0.4-0.2,0.5c-0.1,0.1-0.3,0.2-0.5,0.2h-18.2C610.4,1836.9,610.3,1836.8,610.1,1836.7z
			 M610.1,1858.9c-0.1-0.1-0.2-0.3-0.2-0.5v-2.4c0-0.2,0.1-0.4,0.2-0.5c0.1-0.1,0.3-0.2,0.5-0.2h15.1c0.2,0,0.4,0.1,0.5,0.2
			c0.1,0.1,0.2,0.3,0.2,0.5v2.4c0,0.2-0.1,0.4-0.2,0.5c-0.1,0.1-0.3,0.2-0.5,0.2h-15.1C610.4,1859.1,610.3,1859.1,610.1,1858.9z
			 M610.1,1881.8c-0.1-0.1-0.2-0.3-0.2-0.5v-2.4c0-0.2,0.1-0.4,0.2-0.5c0.1-0.1,0.3-0.2,0.5-0.2h18.2c0.2,0,0.4,0.1,0.5,0.2
			c0.1,0.1,0.2,0.3,0.2,0.5v2.4c0,0.2-0.1,0.4-0.2,0.5c-0.1,0.1-0.3,0.2-0.5,0.2h-18.2C610.4,1882,610.3,1882,610.1,1881.8z"/>
	</g>
	<g class="st1">
		<path d="M700.1,1877.5c-2.2-3-3.3-7.1-3.3-12.4v-31.3c0-0.2,0.1-0.4,0.2-0.5c0.1-0.1,0.3-0.2,0.5-0.2h2.4c0.2,0,0.4,0.1,0.5,0.2
			c0.1,0.1,0.2,0.3,0.2,0.5v31.3c0,4,0.8,7.2,2.3,9.5c1.5,2.3,3.8,3.7,6.7,4.2c0.4,0,0.6,0.3,0.6,0.7v2.4c0,0.2-0.1,0.4-0.2,0.5
			c-0.1,0.1-0.3,0.2-0.5,0.1C705.3,1882.2,702.2,1880.5,700.1,1877.5z M714,1882.6c-0.2,0-0.3-0.1-0.4-0.2c-0.1-0.1-0.2-0.3-0.2-0.5
			v-2.4c0-0.4,0.2-0.7,0.6-0.7c2.9-0.5,5.1-1.9,6.7-4.2c1.5-2.3,2.3-5.5,2.3-9.5v-31.3c0-0.2,0.1-0.4,0.2-0.5
			c0.1-0.1,0.3-0.2,0.5-0.2h2.4c0.2,0,0.4,0.1,0.5,0.2c0.1,0.1,0.2,0.3,0.2,0.5v31.3c0,5.3-1.1,9.4-3.2,12.3s-5.3,4.7-9.3,5.1H714z"
			/>
	</g>
	<g class="st1">
		<path d="M818.3,1881.9c-0.2-0.1-0.4-0.3-0.5-0.6l-25.9-46.6c-0.2-0.2-0.3-0.5-0.3-0.9c0-0.5,0.2-0.8,0.7-0.8h2.1
			c0.3,0,0.5,0,0.7,0.1c0.2,0.1,0.3,0.3,0.5,0.6l25.9,46.8c0.1,0.1,0.2,0.3,0.2,0.5c0,0.2,0,0.3,0,0.5c-0.1,0.3-0.3,0.5-0.6,0.5
			h-2.2C818.7,1882,818.5,1882,818.3,1881.9z M791.9,1881.8c-0.1-0.1-0.2-0.3-0.2-0.5v-38.8c0-0.4,0.1-0.6,0.3-0.6s0.4,0.1,0.5,0.4
			l2.5,4.5c0.1,0.3,0.2,0.6,0.2,0.9v33.6c0,0.2-0.1,0.4-0.2,0.5c-0.1,0.1-0.3,0.2-0.5,0.2h-2.2C792.2,1882,792,1882,791.9,1881.8z
			 M818.5,1868.2c-0.1-0.3-0.2-0.6-0.2-0.9v-33.5c0-0.2,0.1-0.4,0.2-0.5c0.1-0.1,0.3-0.2,0.5-0.2h2.2c0.2,0,0.4,0.1,0.5,0.2
			c0.1,0.1,0.2,0.3,0.2,0.5v38.7c0,0.4-0.1,0.6-0.3,0.6c-0.2,0-0.3-0.1-0.5-0.4L818.5,1868.2z"/>
	</g>
	<g class="st1">
		<path d="M896.6,1881.3l-14.6-47.2l-0.1-0.4c0-0.2,0.1-0.3,0.2-0.4c0.1-0.1,0.2-0.1,0.4-0.1h2.3c0.3,0,0.5,0,0.6,0.1
			c0.2,0.1,0.2,0.3,0.3,0.6l14.4,46.9c0.1,0.3,0.1,0.5,0.1,0.6c0,0.4-0.2,0.6-0.6,0.6h-2.1C897,1882,896.7,1881.8,896.6,1881.3z
			 M900.3,1871c0-0.1-0.1-0.3-0.1-0.5c0-0.1,0-0.4,0.1-0.8l10.7-35.9c0.1-0.3,0.2-0.5,0.3-0.6c0.1-0.1,0.3-0.1,0.6-0.1h2.4
			c0.2,0,0.4,0.1,0.5,0.3c0.1,0.2,0.1,0.4,0,0.7l-12.5,40.8c0,0.1-0.1,0.3-0.2,0.4c-0.1,0.1-0.1,0.1-0.2,0.1c-0.1,0-0.3-0.2-0.5-0.5
			L900.3,1871z"/>
	</g>
	<g class="st1">
		<path d="M994.9,1881.8c-0.1-0.1-0.2-0.3-0.2-0.5v-47.5c0-0.2,0.1-0.4,0.2-0.5c0.1-0.1,0.3-0.2,0.5-0.2h2.4c0.2,0,0.4,0.1,0.5,0.2
			c0.1,0.1,0.2,0.3,0.2,0.5v47.5c0,0.2-0.1,0.4-0.2,0.5c-0.1,0.1-0.3,0.2-0.5,0.2h-2.4C995.2,1882,995.1,1882,994.9,1881.8z"/>
	</g>
	<g class="st1">
		<path d="M1075.4,1881.8c-0.1-0.1-0.2-0.3-0.2-0.5v-47.5c0-0.2,0.1-0.4,0.2-0.5c0.1-0.1,0.3-0.2,0.5-0.2h2.4c0.2,0,0.4,0.1,0.5,0.2
			c0.1,0.1,0.2,0.3,0.2,0.5v47.5c0,0.2-0.1,0.4-0.2,0.5c-0.1,0.1-0.3,0.2-0.5,0.2h-2.4C1075.7,1882,1075.5,1882,1075.4,1881.8z
			 M1082.6,1836.7c-0.1-0.1-0.2-0.3-0.2-0.5v-2.4c0-0.2,0.1-0.4,0.2-0.5c0.1-0.1,0.3-0.2,0.5-0.2h18.2c0.2,0,0.4,0.1,0.5,0.2
			c0.1,0.1,0.2,0.3,0.2,0.5v2.4c0,0.2-0.1,0.4-0.2,0.5c-0.1,0.1-0.3,0.2-0.5,0.2H1083C1082.8,1836.9,1082.7,1836.8,1082.6,1836.7z
			 M1082.6,1858.9c-0.1-0.1-0.2-0.3-0.2-0.5v-2.4c0-0.2,0.1-0.4,0.2-0.5c0.1-0.1,0.3-0.2,0.5-0.2h15.1c0.2,0,0.4,0.1,0.5,0.2
			c0.1,0.1,0.2,0.3,0.2,0.5v2.4c0,0.2-0.1,0.4-0.2,0.5c-0.1,0.1-0.3,0.2-0.5,0.2H1083C1082.8,1859.1,1082.7,1859.1,1082.6,1858.9z
			 M1082.6,1881.8c-0.1-0.1-0.2-0.3-0.2-0.5v-2.4c0-0.2,0.1-0.4,0.2-0.5c0.1-0.1,0.3-0.2,0.5-0.2h18.2c0.2,0,0.4,0.1,0.5,0.2
			c0.1,0.1,0.2,0.3,0.2,0.5v2.4c0,0.2-0.1,0.4-0.2,0.5c-0.1,0.1-0.3,0.2-0.5,0.2H1083C1082.8,1882,1082.7,1882,1082.6,1881.8z"/>
	</g>
	<g class="st1">
		<path d="M1169.9,1881.8c-0.1-0.1-0.2-0.3-0.2-0.5v-47.5c0-0.2,0.1-0.4,0.2-0.5c0.1-0.1,0.3-0.2,0.5-0.2h2.4c0.2,0,0.4,0.1,0.5,0.2
			c0.1,0.1,0.2,0.3,0.2,0.5v47.5c0,0.2-0.1,0.4-0.2,0.5c-0.1,0.1-0.3,0.2-0.5,0.2h-2.4C1170.2,1882,1170,1882,1169.9,1881.8z
			 M1177.1,1859.9c-0.1-0.1-0.2-0.3-0.2-0.5v-2.4c0-0.2,0.1-0.4,0.2-0.5c0.1-0.1,0.3-0.2,0.5-0.2h7.6c3.2,0,5.6-0.8,7.3-2.5
			s2.5-4,2.5-7.2s-0.8-5.5-2.5-7.2c-1.7-1.7-4.1-2.5-7.3-2.5h-7.6c-0.2,0-0.3-0.1-0.5-0.2c-0.1-0.1-0.2-0.3-0.2-0.5v-2.4
			c0-0.2,0.1-0.4,0.2-0.5c0.1-0.1,0.3-0.2,0.5-0.2h7.7c2.8,0,5.2,0.5,7.2,1.6c2,1.1,3.6,2.6,4.6,4.7c1.1,2,1.6,4.5,1.6,7.2
			c0,2.6-0.5,5-1.6,7.1c-1,2.1-2.6,3.7-4.6,4.8c-2.1,1.1-4.6,1.7-7.6,1.6h-7.3C1177.3,1860.1,1177.2,1860,1177.1,1859.9z
			 M1195.4,1881.9c-0.1-0.1-0.2-0.3-0.3-0.5l-7.4-17.1c-0.1-0.3-0.1-0.6,0-0.7c0.1-0.1,0.2-0.2,0.4-0.2c0.2,0,0.3-0.1,0.3-0.1
			c0.8-0.1,1.5-0.2,1.9-0.4c0.1,0,0.2-0.1,0.3-0.1c0.3,0,0.5,0.2,0.5,0.5l8,17.9c0,0.1,0.1,0.2,0.1,0.4c0,0.3-0.2,0.4-0.5,0.4h-2.9
			C1195.7,1882,1195.5,1882,1195.4,1881.9z"/>
	</g>
	<g class="st1">
		<path d="M251.3,1998.1c-0.2-0.1-0.4-0.3-0.5-0.6l-25.9-46.6c-0.2-0.2-0.3-0.5-0.3-0.9c0-0.5,0.2-0.8,0.7-0.8h2.1
			c0.3,0,0.5,0,0.6,0.1c0.2,0.1,0.3,0.3,0.5,0.6l25.9,46.8c0.1,0.1,0.2,0.3,0.2,0.5c0,0.2,0,0.3,0,0.5c-0.1,0.3-0.3,0.5-0.6,0.5
			h-2.2C251.7,1998.2,251.5,1998.2,251.3,1998.1z M224.9,1998c-0.1-0.1-0.2-0.3-0.2-0.5v-38.8c0-0.4,0.1-0.6,0.3-0.6
			c0.2,0,0.4,0.1,0.5,0.4l2.5,4.5c0.1,0.3,0.2,0.6,0.2,0.9v33.6c0,0.2-0.1,0.4-0.2,0.5c-0.1,0.1-0.3,0.2-0.5,0.2h-2.2
			C225.2,1998.2,225,1998.2,224.9,1998z M251.5,1984.4c-0.1-0.3-0.2-0.6-0.2-0.9V1950c0-0.2,0.1-0.4,0.2-0.5
			c0.1-0.1,0.3-0.2,0.5-0.2h2.2c0.2,0,0.4,0.1,0.5,0.2c0.1,0.1,0.2,0.3,0.2,0.5v38.7c0,0.4-0.1,0.6-0.3,0.6c-0.2,0-0.3-0.1-0.5-0.4
			L251.5,1984.4z"/>
	</g>
	<g class="st1">
		<path d="M315.2,1998c-0.1-0.1-0.1-0.3,0-0.5l13.4-41c0.1-0.3,0.3-0.4,0.5-0.4c0.1,0,0.2,0,0.2,0.1s0.1,0.2,0.2,0.3l1.2,3.9
			c0.1,0.1,0.1,0.3,0.1,0.5c0,0.2,0,0.4-0.1,0.5l-6.6,20.2h12.7c0.4,0,0.6,0.2,0.8,0.6l0.8,2.4l0.1,0.3c0,0.1-0.1,0.3-0.2,0.4
			c-0.1,0.1-0.2,0.1-0.4,0.1h-14.9l-3.9,12.2c-0.1,0.3-0.2,0.5-0.3,0.6c-0.1,0.1-0.3,0.1-0.5,0.1h-2.5
			C315.4,1998.2,315.2,1998.2,315.2,1998z M346.1,1997.7l-15.2-47.5l-0.1-0.3c0-0.2,0.1-0.3,0.2-0.4c0.1-0.1,0.2-0.1,0.4-0.1h2.3
			c0.4,0,0.6,0.2,0.8,0.7l15.3,47.5l0.1,0.2c0,0.1,0,0.3-0.1,0.4c-0.1,0.1-0.2,0.1-0.4,0.1h-2.5
			C346.4,1998.2,346.2,1998,346.1,1997.7z"/>
	</g>
	<g class="st1">
		<path d="M417.5,1995.5c-1.9-1.8-3.4-4.3-4.3-7.5c-0.4-1.3-0.7-3-0.9-5.1c-0.2-2.1-0.3-5.2-0.3-9.3c0-4.1,0.1-7.2,0.3-9.3
			c0.2-2.1,0.5-3.8,0.9-5.1c1-3.2,2.4-5.7,4.3-7.5c1.9-1.8,4.3-2.9,7.1-3.3h0.1c0.2,0,0.3,0.1,0.4,0.2c0.1,0.1,0.2,0.3,0.2,0.5v2.4
			c0,0.4-0.2,0.7-0.6,0.8c-2,0.3-3.6,1.2-5,2.5c-1.3,1.3-2.3,3.1-3.1,5.4c-0.3,1.1-0.5,2.6-0.7,4.5c-0.2,1.9-0.3,4.9-0.3,8.7
			c0,3.9,0.1,6.8,0.3,8.7c0.2,1.9,0.4,3.4,0.7,4.5c0.7,2.3,1.8,4.1,3.1,5.5c1.3,1.3,3,2.2,5,2.5c0.4,0.1,0.6,0.3,0.6,0.7v2.4
			c0,0.2-0.1,0.4-0.2,0.5c-0.1,0.1-0.3,0.2-0.5,0.1C421.8,1998.4,419.4,1997.3,417.5,1995.5z M437.8,1959.7c-0.3,0-0.5-0.1-0.6-0.4
			c-1.9-3.8-4.5-6.1-7.9-6.8c-0.4-0.1-0.6-0.3-0.6-0.7v-2.4c0-0.2,0.1-0.4,0.2-0.6c0.1-0.1,0.3-0.2,0.5-0.1c2.5,0.4,4.6,1.3,6.5,2.8
			c1.9,1.5,3.3,3.5,4.4,6c0,0.1,0.1,0.2,0.1,0.4c0,0.2-0.1,0.4-0.3,0.5l-2.1,1.2C438,1959.7,437.9,1959.7,437.8,1959.7z
			 M429.3,1998.8c-0.2,0-0.3-0.1-0.4-0.2c-0.1-0.1-0.2-0.3-0.2-0.5v-2.4c0-0.4,0.2-0.7,0.6-0.7c3.4-0.7,6-2.9,7.9-6.8
			c0.1-0.2,0.2-0.3,0.4-0.4c0.2-0.1,0.3-0.1,0.5,0l2.1,1.2c0.3,0.2,0.4,0.5,0.2,0.9c-1.1,2.5-2.6,4.6-4.4,6c-1.9,1.5-4,2.4-6.5,2.8
			H429.3z"/>
	</g>
	<g class="st1">
		<path d="M508.5,1998c-0.1-0.1-0.2-0.3-0.2-0.5V1950c0-0.2,0.1-0.4,0.2-0.5c0.1-0.1,0.3-0.2,0.5-0.2h2.4c0.2,0,0.4,0.1,0.5,0.2
			c0.1,0.1,0.2,0.3,0.2,0.5v47.5c0,0.2-0.1,0.4-0.2,0.5c-0.1,0.1-0.3,0.2-0.5,0.2h-2.4C508.8,1998.2,508.6,1998.2,508.5,1998z
			 M515.4,1975.1c-0.1-0.1-0.2-0.3-0.2-0.5v-2.4c0-0.2,0.1-0.4,0.2-0.5c0.1-0.1,0.3-0.2,0.5-0.2h14.9c0.2,0,0.4,0.1,0.5,0.2
			c0.1,0.1,0.2,0.3,0.2,0.5v2.4c0,0.2-0.1,0.4-0.2,0.5c-0.1,0.1-0.3,0.2-0.5,0.2h-14.9C515.7,1975.3,515.5,1975.3,515.4,1975.1z
			 M534.8,1998c-0.1-0.1-0.2-0.3-0.2-0.5V1950c0-0.2,0.1-0.4,0.2-0.5c0.1-0.1,0.3-0.2,0.5-0.2h2.4c0.2,0,0.4,0.1,0.5,0.2
			c0.1,0.1,0.2,0.3,0.2,0.5v47.5c0,0.2-0.1,0.4-0.2,0.5c-0.1,0.1-0.3,0.2-0.5,0.2h-2.4C535.1,1998.2,534.9,1998.2,534.8,1998z"/>
	</g>
	<g class="st1">
		<path d="M598.3,1952.9c-0.1-0.1-0.2-0.3-0.2-0.5v-2.4c0-0.2,0.1-0.4,0.2-0.5c0.1-0.1,0.3-0.2,0.5-0.2h29.9c0.2,0,0.4,0.1,0.5,0.2
			c0.1,0.1,0.2,0.3,0.2,0.5v2.4c0,0.2-0.1,0.4-0.2,0.5c-0.1,0.1-0.3,0.2-0.5,0.2h-29.9C598.6,1953.1,598.4,1953,598.3,1952.9z
			 M612,1998c-0.1-0.1-0.2-0.3-0.2-0.5v-40c0-0.2,0.1-0.4,0.2-0.5c0.1-0.1,0.3-0.2,0.5-0.2h2.4c0.2,0,0.4,0.1,0.5,0.2
			c0.1,0.1,0.2,0.3,0.2,0.5v40c0,0.2-0.1,0.4-0.2,0.5c-0.1,0.1-0.3,0.2-0.5,0.2h-2.4C612.3,1998.2,612.2,1998.2,612,1998z"/>
	</g>
	<g class="st1">
		<path d="M694.8,1998c-0.1-0.1-0.2-0.3-0.2-0.5v-2.4c0-0.2,0-0.4,0.1-0.5c0.1-0.1,0.2-0.3,0.3-0.4l25.3-44.4
			c0.2-0.3,0.5-0.5,0.8-0.5h1c0.2,0,0.4,0.1,0.5,0.2c0.1,0.1,0.2,0.3,0.2,0.5v2.4c0,0.1,0,0.3-0.1,0.5c0,0.2-0.1,0.3-0.3,0.5
			l-25.4,44.4c-0.2,0.3-0.5,0.5-0.8,0.5h-1C695,1998.2,694.9,1998.2,694.8,1998z M695.7,1952.9c-0.1-0.1-0.2-0.3-0.2-0.5v-2.4
			c0-0.2,0.1-0.4,0.2-0.5c0.1-0.1,0.3-0.2,0.5-0.2h19.8c0.3,0,0.4,0.1,0.5,0.3c0.1,0.2,0.1,0.4-0.1,0.6l-1.5,2.4
			c-0.2,0.3-0.5,0.5-0.8,0.5h-18C695.9,1953.1,695.8,1953,695.7,1952.9z M700.8,1998c-0.1-0.2,0-0.4,0.1-0.6l1.4-2.4
			c0.2-0.3,0.5-0.5,0.8-0.5H722c0.2,0,0.4,0.1,0.5,0.2c0.1,0.1,0.2,0.3,0.2,0.5v2.4c0,0.2-0.1,0.4-0.2,0.5c-0.1,0.1-0.3,0.2-0.5,0.2
			h-20.7C701.1,1998.2,700.9,1998.2,700.8,1998z"/>
	</g>
	<g class="st1">
		<path d="M791.9,1998c-0.1-0.1-0.2-0.3-0.2-0.5V1950c0-0.2,0.1-0.4,0.2-0.5c0.1-0.1,0.3-0.2,0.5-0.2h2.4c0.2,0,0.4,0.1,0.5,0.2
			c0.1,0.1,0.2,0.3,0.2,0.5v47.5c0,0.2-0.1,0.4-0.2,0.5c-0.1,0.1-0.3,0.2-0.5,0.2h-2.4C792.2,1998.2,792,1998.2,791.9,1998z
			 M799.1,1952.9c-0.1-0.1-0.2-0.3-0.2-0.5v-2.4c0-0.2,0.1-0.4,0.2-0.5c0.1-0.1,0.3-0.2,0.5-0.2h18.2c0.2,0,0.4,0.1,0.5,0.2
			c0.1,0.1,0.2,0.3,0.2,0.5v2.4c0,0.2-0.1,0.4-0.2,0.5c-0.1,0.1-0.3,0.2-0.5,0.2h-18.2C799.3,1953.1,799.2,1953,799.1,1952.9z
			 M799.1,1975.1c-0.1-0.1-0.2-0.3-0.2-0.5v-2.4c0-0.2,0.1-0.4,0.2-0.5c0.1-0.1,0.3-0.2,0.5-0.2h15.1c0.2,0,0.4,0.1,0.5,0.2
			c0.1,0.1,0.2,0.3,0.2,0.5v2.4c0,0.2-0.1,0.4-0.2,0.5c-0.1,0.1-0.3,0.2-0.5,0.2h-15.1C799.3,1975.3,799.2,1975.3,799.1,1975.1z
			 M799.1,1998c-0.1-0.1-0.2-0.3-0.2-0.5v-2.4c0-0.2,0.1-0.4,0.2-0.5c0.1-0.1,0.3-0.2,0.5-0.2h18.2c0.2,0,0.4,0.1,0.5,0.2
			c0.1,0.1,0.2,0.3,0.2,0.5v2.4c0,0.2-0.1,0.4-0.2,0.5c-0.1,0.1-0.3,0.2-0.5,0.2h-18.2C799.3,1998.2,799.2,1998.2,799.1,1998z"/>
	</g>
	<g class="st1">
		<path d="M886.5,1998c-0.1-0.1-0.2-0.3-0.2-0.5V1950c0-0.2,0.1-0.4,0.2-0.5c0.1-0.1,0.3-0.2,0.5-0.2h2.4c0.2,0,0.4,0.1,0.5,0.2
			c0.1,0.1,0.2,0.3,0.2,0.5v47.5c0,0.2-0.1,0.4-0.2,0.5c-0.1,0.1-0.3,0.2-0.5,0.2h-2.4C886.8,1998.2,886.6,1998.2,886.5,1998z
			 M893.4,1975.1c-0.1-0.1-0.2-0.3-0.2-0.5v-2.4c0-0.2,0.1-0.4,0.2-0.5c0.1-0.1,0.3-0.2,0.5-0.2h14.9c0.2,0,0.4,0.1,0.5,0.2
			c0.1,0.1,0.2,0.3,0.2,0.5v2.4c0,0.2-0.1,0.4-0.2,0.5c-0.1,0.1-0.3,0.2-0.5,0.2h-14.9C893.7,1975.3,893.5,1975.3,893.4,1975.1z
			 M912.8,1998c-0.1-0.1-0.2-0.3-0.2-0.5V1950c0-0.2,0.1-0.4,0.2-0.5c0.1-0.1,0.3-0.2,0.5-0.2h2.4c0.2,0,0.4,0.1,0.5,0.2
			c0.1,0.1,0.2,0.3,0.2,0.5v47.5c0,0.2-0.1,0.4-0.2,0.5c-0.1,0.1-0.3,0.2-0.5,0.2h-2.4C913.1,1998.2,912.9,1998.2,912.8,1998z"/>
	</g>
	<g class="st1">
		<path d="M1007.4,1998.1c-0.2-0.1-0.4-0.3-0.5-0.6l-25.9-46.6c-0.2-0.2-0.3-0.5-0.3-0.9c0-0.5,0.2-0.8,0.7-0.8h2.1
			c0.3,0,0.5,0,0.6,0.1c0.2,0.1,0.3,0.3,0.5,0.6l25.9,46.8c0.1,0.1,0.2,0.3,0.2,0.5s0,0.3,0,0.5c-0.1,0.3-0.3,0.5-0.6,0.5h-2.2
			C1007.8,1998.2,1007.6,1998.2,1007.4,1998.1z M981,1998c-0.1-0.1-0.2-0.3-0.2-0.5v-38.8c0-0.4,0.1-0.6,0.3-0.6
			c0.2,0,0.4,0.1,0.5,0.4l2.5,4.5c0.1,0.3,0.2,0.6,0.2,0.9v33.6c0,0.2-0.1,0.4-0.2,0.5c-0.1,0.1-0.3,0.2-0.5,0.2h-2.2
			C981.3,1998.2,981.1,1998.2,981,1998z M1007.6,1984.4c-0.1-0.3-0.2-0.6-0.2-0.9V1950c0-0.2,0.1-0.4,0.2-0.5
			c0.1-0.1,0.3-0.2,0.5-0.2h2.2c0.2,0,0.4,0.1,0.5,0.2c0.1,0.1,0.2,0.3,0.2,0.5v38.7c0,0.4-0.1,0.6-0.3,0.6c-0.2,0-0.3-0.1-0.5-0.4
			L1007.6,1984.4z"/>
	</g>
	<g class="st1">
		<path d="M1075.4,1998c-0.1-0.1-0.2-0.3-0.2-0.5V1950c0-0.2,0.1-0.4,0.2-0.5c0.1-0.1,0.3-0.2,0.5-0.2h2.4c0.2,0,0.4,0.1,0.5,0.2
			c0.1,0.1,0.2,0.3,0.2,0.5v47.5c0,0.2-0.1,0.4-0.2,0.5c-0.1,0.1-0.3,0.2-0.5,0.2h-2.4C1075.7,1998.2,1075.5,1998.2,1075.4,1998z
			 M1099.2,1969.7c-0.3-0.2-0.7-0.3-1.1-0.5c-0.5-0.2-0.7-0.6-0.4-1.1c1.4-2.1,2.1-4.2,2.1-6.6c0-1.6-0.4-3-1.1-4.3
			c-0.7-1.3-1.8-2.3-3.2-3.1c-1.4-0.8-3-1.2-4.9-1.2h-7.6c-0.2,0-0.3-0.1-0.5-0.2c-0.1-0.1-0.2-0.3-0.2-0.5v-2.3
			c0-0.2,0.1-0.4,0.2-0.5c0.1-0.1,0.3-0.2,0.5-0.2h7.7c2.8,0,5.1,0.5,7,1.6c1.9,1.1,3.3,2.5,4.3,4.4s1.5,4,1.5,6.4
			c0,1.5-0.2,3-0.7,4.5c-0.5,1.4-1.1,2.7-1.9,3.8c-0.2,0.3-0.5,0.3-0.8,0.1C1099.8,1970,1099.6,1969.9,1099.2,1969.7z M1082.6,1998
			c-0.1-0.1-0.2-0.3-0.2-0.5v-2.3c0-0.2,0.1-0.4,0.2-0.5c0.1-0.1,0.3-0.2,0.5-0.2h7.9c3.1,0,5.5-0.9,7.1-2.6
			c1.6-1.7,2.5-4.1,2.5-7.1c0-3-0.8-5.3-2.5-7.1c-1.7-1.7-4-2.6-7.1-2.6h-7.9c-0.2,0-0.3-0.1-0.5-0.2c-0.1-0.1-0.2-0.3-0.2-0.5v-2.3
			c0-0.2,0.1-0.4,0.2-0.5s0.3-0.2,0.5-0.2h7.7c2.9,0,5.3,0.5,7.3,1.6c2,1.1,3.6,2.6,4.6,4.6c1.1,2,1.6,4.4,1.6,7.2
			c0,2.8-0.5,5.2-1.6,7.2c-1.1,2-2.6,3.6-4.6,4.6c-2,1.1-4.5,1.6-7.3,1.6h-7.7C1082.8,1998.2,1082.7,1998.2,1082.6,1998z"/>
	</g>
	<g class="st1">
		<path d="M1165.7,1998c-0.1-0.2,0-0.3,0.1-0.5l11.1-20.4c0.1-0.2,0.3-0.4,0.5-0.4s0.3,0.1,0.5,0.4l1.3,2.5c0.1,0.1,0.1,0.3,0.1,0.5
			c0,0.2,0,0.4-0.1,0.5l-9.3,17.1c-0.2,0.4-0.5,0.6-0.8,0.6h-2.9C1165.9,1998.2,1165.7,1998.2,1165.7,1998z M1193,1998.1
			c-0.1-0.1-0.2-0.2-0.3-0.4l-25.6-47.6l-0.1-0.4c0-0.3,0.2-0.4,0.5-0.4h2.9c0.2,0,0.4,0,0.5,0.1c0.1,0.1,0.3,0.2,0.4,0.4l10,18.7
			l15.6,28.9c0,0.1,0.1,0.2,0.1,0.4c0,0.3-0.1,0.4-0.4,0.4h-2.9C1193.3,1998.2,1193.2,1998.2,1193,1998.1z M1183.4,1965.7
			c-0.1-0.1-0.1-0.3-0.1-0.5c0-0.2,0-0.4,0.1-0.5l8-14.8c0.1-0.2,0.2-0.3,0.3-0.4c0.1-0.1,0.3-0.1,0.5-0.1h2.9
			c0.2,0,0.3,0.1,0.4,0.2c0.1,0.1,0.1,0.3,0,0.6l-9.8,18.1c-0.1,0.2-0.3,0.3-0.5,0.3c-0.2,0-0.3-0.1-0.5-0.3L1183.4,1965.7z"/>
	</g>
	<g class="st1">
		<path d="M227.6,2110c-2.2-3-3.3-7.1-3.3-12.4v-31.3c0-0.2,0.1-0.4,0.2-0.5c0.1-0.1,0.3-0.2,0.5-0.2h2.4c0.2,0,0.4,0.1,0.5,0.2
			c0.1,0.1,0.2,0.3,0.2,0.5v31.3c0,4,0.8,7.2,2.3,9.5c1.5,2.3,3.8,3.7,6.7,4.2c0.4,0,0.6,0.3,0.6,0.7v2.4c0,0.2-0.1,0.4-0.2,0.5
			c-0.1,0.1-0.3,0.2-0.5,0.1C232.8,2114.7,229.7,2113,227.6,2110z M241.5,2115.1c-0.2,0-0.3-0.1-0.4-0.2c-0.1-0.1-0.2-0.3-0.2-0.5
			v-2.4c0-0.4,0.2-0.7,0.6-0.7c2.9-0.5,5.1-1.9,6.7-4.2c1.5-2.3,2.3-5.5,2.3-9.5v-31.3c0-0.2,0.1-0.4,0.2-0.5
			c0.1-0.1,0.3-0.2,0.5-0.2h2.4c0.2,0,0.4,0.1,0.5,0.2c0.1,0.1,0.2,0.3,0.2,0.5v31.3c0,5.3-1.1,9.4-3.2,12.3c-2.2,3-5.3,4.7-9.3,5.1
			H241.5z"/>
	</g>
	<g class="st1">
		<path d="M322.8,2113.2c-2.3-1-4.1-2.2-5.5-3.6c-0.1-0.1-0.2-0.3-0.2-0.5c0-0.2,0-0.4,0.2-0.6l1.6-2c0.3-0.3,0.6-0.4,0.9-0.1
			c1.3,1.2,2.9,2.2,4.6,3.1c1.8,0.9,3.6,1.5,5.6,1.8c0.4,0.1,0.6,0.3,0.6,0.7v2.4c0,0.2-0.1,0.4-0.2,0.5c-0.1,0.1-0.3,0.2-0.5,0.1
			C327.5,2114.9,325.1,2114.2,322.8,2113.2z M334.6,2115.1c-0.2,0-0.3-0.1-0.4-0.2c-0.1-0.1-0.2-0.3-0.2-0.5v-2.4
			c0-0.5,0.2-0.7,0.6-0.8c2.9-0.3,5.1-1.4,6.7-3.2c1.6-1.8,2.4-4,2.4-6.7c0-2.6-0.8-4.8-2.3-6.4s-4.3-2.7-8.1-3.2l-2.1-0.4
			c-4.2-0.6-7.4-2-9.5-4.2c-2.1-2.2-3.2-5.1-3.2-8.7c0-2.5,0.5-4.7,1.4-6.7c0.9-1.9,2.2-3.5,3.9-4.7c1.7-1.2,3.7-1.9,6-2.2h0.1
			c0.2,0,0.3,0.1,0.4,0.2c0.1,0.1,0.2,0.3,0.2,0.5v2.4c0,0.4-0.2,0.6-0.6,0.7c-2.4,0.4-4.3,1.5-5.7,3.2c-1.3,1.7-2,3.8-2,6.3
			c0,2.6,0.8,4.7,2.5,6.3c1.6,1.6,4.3,2.6,8.1,3.2l2.1,0.3c4.3,0.6,7.5,2,9.5,4.2c2.1,2.2,3.1,5.1,3.1,8.8c0,2.5-0.5,4.8-1.5,6.8
			c-1,2-2.4,3.6-4.3,4.9c-1.9,1.3-4.2,2.1-7,2.3H334.6z M334.6,2068.8c-0.4-0.1-0.6-0.4-0.6-0.8v-2.4c0-0.2,0.1-0.4,0.2-0.5
			c0.1-0.1,0.3-0.2,0.5-0.1c1.9,0.2,3.8,0.6,5.6,1.3c1.8,0.7,3.3,1.5,4.6,2.6c0.3,0.3,0.4,0.6,0.1,1l-1.2,2.2
			c-0.3,0.3-0.6,0.4-0.9,0.1C340.2,2070.3,337.4,2069.1,334.6,2068.8z"/>
	</g>
	<g class="st1">
		<path d="M414,2114.3c-0.1-0.1-0.2-0.3-0.2-0.5v-47.5c0-0.2,0.1-0.4,0.2-0.5c0.1-0.1,0.3-0.2,0.5-0.2h2.4c0.2,0,0.4,0.1,0.5,0.2
			c0.1,0.1,0.2,0.3,0.2,0.5v47.5c0,0.2-0.1,0.4-0.2,0.5c-0.1,0.1-0.3,0.2-0.5,0.2h-2.4C414.3,2114.5,414.1,2114.5,414,2114.3z
			 M421.1,2069.2c-0.1-0.1-0.2-0.3-0.2-0.5v-2.4c0-0.2,0.1-0.4,0.2-0.5c0.1-0.1,0.3-0.2,0.5-0.2h18.2c0.2,0,0.4,0.1,0.5,0.2
			c0.1,0.1,0.2,0.3,0.2,0.5v2.4c0,0.2-0.1,0.4-0.2,0.5c-0.1,0.1-0.3,0.2-0.5,0.2h-18.2C421.4,2069.4,421.3,2069.3,421.1,2069.2z
			 M421.1,2091.4c-0.1-0.1-0.2-0.3-0.2-0.5v-2.4c0-0.2,0.1-0.4,0.2-0.5c0.1-0.1,0.3-0.2,0.5-0.2h15.1c0.2,0,0.4,0.1,0.5,0.2
			c0.1,0.1,0.2,0.3,0.2,0.5v2.4c0,0.2-0.1,0.4-0.2,0.5c-0.1,0.1-0.3,0.2-0.5,0.2h-15.1C421.4,2091.6,421.3,2091.6,421.1,2091.4z
			 M421.1,2114.3c-0.1-0.1-0.2-0.3-0.2-0.5v-2.4c0-0.2,0.1-0.4,0.2-0.5c0.1-0.1,0.3-0.2,0.5-0.2h18.2c0.2,0,0.4,0.1,0.5,0.2
			c0.1,0.1,0.2,0.3,0.2,0.5v2.4c0,0.2-0.1,0.4-0.2,0.5c-0.1,0.1-0.3,0.2-0.5,0.2h-18.2C421.4,2114.5,421.3,2114.5,421.1,2114.3z"/>
	</g>
	<g class="st1">
		<path d="M512,2111.8c-1.9-1.8-3.4-4.3-4.3-7.5c-0.4-1.3-0.7-3-0.9-5.1c-0.2-2.1-0.3-5.2-0.3-9.3c0-4.1,0.1-7.2,0.3-9.3
			c0.2-2.1,0.5-3.8,0.9-5.1c1-3.2,2.4-5.7,4.3-7.5c1.9-1.8,4.3-2.9,7.1-3.3h0.1c0.2,0,0.3,0.1,0.4,0.2c0.1,0.1,0.2,0.3,0.2,0.5v2.4
			c0,0.4-0.2,0.7-0.6,0.8c-2,0.3-3.6,1.2-5,2.5c-1.3,1.3-2.3,3.1-3.1,5.4c-0.3,1.1-0.5,2.6-0.7,4.5c-0.2,1.9-0.3,4.9-0.3,8.7
			c0,3.9,0.1,6.8,0.3,8.7c0.2,1.9,0.4,3.4,0.7,4.5c0.7,2.3,1.8,4.1,3.1,5.5c1.3,1.3,3,2.2,5,2.5c0.4,0.1,0.6,0.3,0.6,0.7v2.4
			c0,0.2-0.1,0.4-0.2,0.5c-0.1,0.1-0.3,0.2-0.5,0.1C516.3,2114.7,513.9,2113.6,512,2111.8z M532.3,2076c-0.3,0-0.5-0.1-0.6-0.4
			c-1.9-3.8-4.5-6.1-7.9-6.8c-0.4-0.1-0.6-0.3-0.6-0.7v-2.4c0-0.2,0.1-0.4,0.2-0.6c0.1-0.1,0.3-0.2,0.5-0.1c2.5,0.4,4.6,1.3,6.5,2.8
			c1.9,1.5,3.3,3.5,4.4,6c0,0.1,0.1,0.2,0.1,0.4c0,0.2-0.1,0.4-0.3,0.5l-2.1,1.2C532.5,2076,532.4,2076,532.3,2076z M523.8,2115.1
			c-0.2,0-0.3-0.1-0.4-0.2c-0.1-0.1-0.2-0.3-0.2-0.5v-2.4c0-0.4,0.2-0.7,0.6-0.7c3.4-0.7,6-2.9,7.9-6.8c0.1-0.2,0.2-0.3,0.4-0.4
			c0.2-0.1,0.3-0.1,0.5,0l2.1,1.2c0.3,0.2,0.4,0.5,0.2,0.9c-1.1,2.5-2.6,4.6-4.4,6c-1.9,1.5-4,2.4-6.5,2.8H523.8z"/>
	</g>
	<g class="st1">
		<path d="M603,2114.3c-0.1-0.1-0.2-0.3-0.2-0.5v-47.5c0-0.2,0.1-0.4,0.2-0.5c0.1-0.1,0.3-0.2,0.5-0.2h2.4c0.2,0,0.4,0.1,0.5,0.2
			c0.1,0.1,0.2,0.3,0.2,0.5v47.5c0,0.2-0.1,0.4-0.2,0.5c-0.1,0.1-0.3,0.2-0.5,0.2h-2.4C603.3,2114.5,603.1,2114.5,603,2114.3z
			 M609.9,2091.4c-0.1-0.1-0.2-0.3-0.2-0.5v-2.4c0-0.2,0.1-0.4,0.2-0.5c0.1-0.1,0.3-0.2,0.5-0.2h14.9c0.2,0,0.4,0.1,0.5,0.2
			c0.1,0.1,0.2,0.3,0.2,0.5v2.4c0,0.2-0.1,0.4-0.2,0.5c-0.1,0.1-0.3,0.2-0.5,0.2h-14.9C610.2,2091.6,610,2091.6,609.9,2091.4z
			 M629.3,2114.3c-0.1-0.1-0.2-0.3-0.2-0.5v-47.5c0-0.2,0.1-0.4,0.2-0.5c0.1-0.1,0.3-0.2,0.5-0.2h2.4c0.2,0,0.4,0.1,0.5,0.2
			c0.1,0.1,0.2,0.3,0.2,0.5v47.5c0,0.2-0.1,0.4-0.2,0.5c-0.1,0.1-0.3,0.2-0.5,0.2h-2.4C629.6,2114.5,629.4,2114.5,629.3,2114.3z"/>
	</g>
	<g class="st1">
		<path d="M700.8,2113.2c-2.3-1-4.1-2.2-5.5-3.6c-0.1-0.1-0.2-0.3-0.2-0.5c0-0.2,0-0.4,0.2-0.6l1.6-2c0.3-0.3,0.6-0.4,0.9-0.1
			c1.3,1.2,2.9,2.2,4.6,3.1c1.8,0.9,3.6,1.5,5.6,1.8c0.4,0.1,0.6,0.3,0.6,0.7v2.4c0,0.2-0.1,0.4-0.2,0.5c-0.1,0.1-0.3,0.2-0.5,0.1
			C705.5,2114.9,703.1,2114.2,700.8,2113.2z M712.6,2115.1c-0.2,0-0.3-0.1-0.4-0.2c-0.1-0.1-0.2-0.3-0.2-0.5v-2.4
			c0-0.5,0.2-0.7,0.6-0.8c2.9-0.3,5.1-1.4,6.7-3.2c1.6-1.8,2.4-4,2.4-6.7c0-2.6-0.8-4.8-2.3-6.4c-1.6-1.6-4.3-2.7-8.1-3.2l-2.1-0.4
			c-4.2-0.6-7.4-2-9.5-4.2c-2.1-2.2-3.2-5.1-3.2-8.7c0-2.5,0.5-4.7,1.4-6.7c0.9-1.9,2.2-3.5,3.9-4.7c1.7-1.2,3.7-1.9,6-2.2h0.1
			c0.2,0,0.3,0.1,0.4,0.2c0.1,0.1,0.2,0.3,0.2,0.5v2.4c0,0.4-0.2,0.6-0.6,0.7c-2.4,0.4-4.3,1.5-5.7,3.2c-1.3,1.7-2,3.8-2,6.3
			c0,2.6,0.8,4.7,2.5,6.3c1.6,1.6,4.3,2.6,8.1,3.2l2.1,0.3c4.3,0.6,7.5,2,9.5,4.2c2.1,2.2,3.1,5.1,3.1,8.8c0,2.5-0.5,4.8-1.5,6.8
			c-1,2-2.4,3.6-4.3,4.9c-1.9,1.3-4.2,2.1-7,2.3H712.6z M712.6,2068.8c-0.4-0.1-0.6-0.4-0.6-0.8v-2.4c0-0.2,0.1-0.4,0.2-0.5
			c0.1-0.1,0.3-0.2,0.5-0.1c1.9,0.2,3.8,0.6,5.6,1.3c1.8,0.7,3.3,1.5,4.6,2.6c0.3,0.3,0.4,0.6,0.1,1l-1.2,2.2
			c-0.3,0.3-0.6,0.4-0.9,0.1C718.2,2070.3,715.4,2069.1,712.6,2068.8z"/>
	</g>
	<g class="st1">
		<path d="M791.9,2114.3c-0.1-0.1-0.2-0.3-0.2-0.5v-47.5c0-0.2,0.1-0.4,0.2-0.5c0.1-0.1,0.3-0.2,0.5-0.2h2.4c0.2,0,0.4,0.1,0.5,0.2
			c0.1,0.1,0.2,0.3,0.2,0.5v47.5c0,0.2-0.1,0.4-0.2,0.5c-0.1,0.1-0.3,0.2-0.5,0.2h-2.4C792.2,2114.5,792,2114.5,791.9,2114.3z
			 M799.1,2069.2c-0.1-0.1-0.2-0.3-0.2-0.5v-2.4c0-0.2,0.1-0.4,0.2-0.5c0.1-0.1,0.3-0.2,0.5-0.2h18.2c0.2,0,0.4,0.1,0.5,0.2
			c0.1,0.1,0.2,0.3,0.2,0.5v2.4c0,0.2-0.1,0.4-0.2,0.5c-0.1,0.1-0.3,0.2-0.5,0.2h-18.2C799.3,2069.4,799.2,2069.3,799.1,2069.2z
			 M799.1,2091.9c-0.1-0.1-0.2-0.3-0.2-0.5v-2.4c0-0.2,0.1-0.4,0.2-0.5c0.1-0.1,0.3-0.2,0.5-0.2h15.1c0.2,0,0.4,0.1,0.5,0.2
			c0.1,0.1,0.2,0.3,0.2,0.5v2.4c0,0.2-0.1,0.4-0.2,0.5c-0.1,0.1-0.3,0.2-0.5,0.2h-15.1C799.3,2092.1,799.2,2092.1,799.1,2091.9z"/>
	</g>
	<g class="st1">
		<path d="M889.1,2110c-2.2-3-3.3-7.1-3.3-12.4v-31.3c0-0.2,0.1-0.4,0.2-0.5c0.1-0.1,0.3-0.2,0.5-0.2h2.4c0.2,0,0.4,0.1,0.5,0.2
			c0.1,0.1,0.2,0.3,0.2,0.5v31.3c0,4,0.8,7.2,2.3,9.5c1.5,2.3,3.8,3.7,6.7,4.2c0.4,0,0.6,0.3,0.6,0.7v2.4c0,0.2-0.1,0.4-0.2,0.5
			c-0.1,0.1-0.3,0.2-0.5,0.1C894.4,2114.7,891.3,2113,889.1,2110z M903.1,2115.1c-0.2,0-0.3-0.1-0.4-0.2c-0.1-0.1-0.2-0.3-0.2-0.5
			v-2.4c0-0.4,0.2-0.7,0.6-0.7c2.9-0.5,5.1-1.9,6.7-4.2s2.3-5.5,2.3-9.5v-31.3c0-0.2,0.1-0.4,0.2-0.5c0.1-0.1,0.3-0.2,0.5-0.2h2.4
			c0.2,0,0.4,0.1,0.5,0.2c0.1,0.1,0.2,0.3,0.2,0.5v31.3c0,5.3-1.1,9.4-3.2,12.3c-2.2,3-5.3,4.7-9.3,5.1H903.1z"/>
	</g>
	<g class="st1">
		<path d="M981,2114.3c-0.1-0.1-0.2-0.3-0.2-0.5v-47.5c0-0.2,0.1-0.4,0.2-0.5c0.1-0.1,0.3-0.2,0.5-0.2h2.4c0.2,0,0.4,0.1,0.5,0.2
			c0.1,0.1,0.2,0.3,0.2,0.5v47.5c0,0.2-0.1,0.4-0.2,0.5c-0.1,0.1-0.3,0.2-0.5,0.2h-2.4C981.3,2114.5,981.1,2114.5,981,2114.3z
			 M987.9,2091.4c-0.1-0.1-0.2-0.3-0.2-0.5v-2.4c0-0.2,0.1-0.4,0.2-0.5c0.1-0.1,0.3-0.2,0.5-0.2h14.9c0.2,0,0.4,0.1,0.5,0.2
			c0.1,0.1,0.2,0.3,0.2,0.5v2.4c0,0.2-0.1,0.4-0.2,0.5c-0.1,0.1-0.3,0.2-0.5,0.2h-14.9C988.2,2091.6,988,2091.6,987.9,2091.4z
			 M1007.3,2114.3c-0.1-0.1-0.2-0.3-0.2-0.5v-47.5c0-0.2,0.1-0.4,0.2-0.5c0.1-0.1,0.3-0.2,0.5-0.2h2.4c0.2,0,0.4,0.1,0.5,0.2
			c0.1,0.1,0.2,0.3,0.2,0.5v47.5c0,0.2-0.1,0.4-0.2,0.5c-0.1,0.1-0.3,0.2-0.5,0.2h-2.4C1007.6,2114.5,1007.4,2114.5,1007.3,2114.3z"
			/>
	</g>
	<g class="st1">
		<path d="M1075.4,2114.3c-0.1-0.1-0.2-0.3-0.2-0.5v-47.5c0-0.2,0.1-0.4,0.2-0.5c0.1-0.1,0.3-0.2,0.5-0.2h2.4c0.2,0,0.4,0.1,0.5,0.2
			c0.1,0.1,0.2,0.3,0.2,0.5v47.5c0,0.2-0.1,0.4-0.2,0.5c-0.1,0.1-0.3,0.2-0.5,0.2h-2.4C1075.7,2114.5,1075.5,2114.5,1075.4,2114.3z
			 M1082.6,2092.4c-0.1-0.1-0.2-0.3-0.2-0.5v-2.4c0-0.2,0.1-0.4,0.2-0.5c0.1-0.1,0.3-0.2,0.5-0.2h7.6c3.2,0,5.6-0.8,7.3-2.5
			s2.5-4,2.5-7.2s-0.8-5.5-2.5-7.2c-1.7-1.7-4.1-2.5-7.3-2.5h-7.6c-0.2,0-0.3-0.1-0.5-0.2c-0.1-0.1-0.2-0.3-0.2-0.5v-2.4
			c0-0.2,0.1-0.4,0.2-0.5c0.1-0.1,0.3-0.2,0.5-0.2h7.7c2.8,0,5.2,0.5,7.2,1.6c2,1.1,3.6,2.6,4.6,4.7c1.1,2,1.6,4.5,1.6,7.2
			c0,2.6-0.5,5-1.6,7.1c-1,2.1-2.6,3.7-4.6,4.8c-2.1,1.1-4.6,1.7-7.6,1.6h-7.3C1082.8,2092.6,1082.7,2092.5,1082.6,2092.4z
			 M1100.9,2114.4c-0.1-0.1-0.2-0.3-0.3-0.5l-7.4-17.1c-0.1-0.3-0.1-0.6,0-0.7c0.1-0.1,0.2-0.2,0.4-0.2c0.2,0,0.3-0.1,0.3-0.1
			c0.8-0.1,1.5-0.2,1.9-0.4c0.1,0,0.2-0.1,0.3-0.1c0.3,0,0.5,0.2,0.5,0.5l8,17.9c0,0.1,0.1,0.2,0.1,0.4c0,0.3-0.2,0.4-0.5,0.4h-2.9
			C1101.2,2114.5,1101,2114.5,1100.9,2114.4z"/>
	</g>
	<g class="st1">
		<path d="M1178.8,2114.3c-0.1-0.1-0.2-0.3-0.2-0.5v-19.4l-13.1-27.6c-0.1-0.2-0.2-0.5-0.2-0.6c0-0.1,0-0.3,0.1-0.4
			c0.1-0.1,0.2-0.2,0.4-0.2h2.5c0.2,0,0.4,0,0.6,0.1c0.2,0.1,0.3,0.3,0.4,0.6l12.8,26.7c0.1,0.3,0.2,0.6,0.2,0.9v19.9
			c0,0.2-0.1,0.4-0.2,0.5c-0.1,0.1-0.3,0.2-0.5,0.2h-2.3C1179,2114.5,1178.9,2114.5,1178.8,2114.3z M1182.5,2086.5
			c-0.1-0.3-0.1-0.6,0-1l9.1-19.2c0.1-0.3,0.3-0.5,0.4-0.6c0.1-0.1,0.3-0.1,0.6-0.1h2.4c0.3,0,0.5,0.1,0.6,0.4c0,0.2,0,0.4-0.1,0.5
			c-0.1,0.1-0.1,0.2-0.2,0.3l-10.6,22.5c-0.1,0.3-0.3,0.4-0.5,0.4c-0.2,0-0.3-0.1-0.5-0.4L1182.5,2086.5z"/>
	</g>
</g>
<g class="st2">
	<rect x="194.2" y="141.4" class="st3" width="85" height="85"/>
	<rect x="288.6" y="141.4" class="st4" width="85" height="85"/>
	<rect x="383" y="141.4" class="st3" width="85" height="85"/>
	<rect x="477.4" y="141.4" class="st3" width="85" height="85"/>
	<rect x="571.7" y="141.4" class="st3" width="85" height="85"/>
	<rect x="666.1" y="141.4" class="st3" width="85" height="85"/>
	<rect x="760.5" y="141.4" class="st3" width="85" height="85"/>
	<rect x="854.9" y="141.4" class="st3" width="85" height="85"/>
	<rect x="949.3" y="141.4" class="st3" width="85" height="85"/>
	<rect x="1043.7" y="141.4" class="st3" width="85" height="85"/>
	<rect x="1138.1" y="141.4" class="st3" width="85" height="85"/>
	<rect x="194.2" y="257.3" class="st3" width="85" height="85"/>
	<rect x="288.6" y="257.3" class="st3" width="85" height="85"/>
	<rect x="383" y="257.3" class="st3" width="85" height="85"/>
	<rect x="477.4" y="257.3" class="st3" width="85" height="85"/>
	<rect x="571.7" y="257.3" class="st3" width="85" height="85"/>
	<rect x="666.1" y="257.3" class="st3" width="85" height="85"/>
	<rect x="760.5" y="257.3" class="st3" width="85" height="85"/>
	<rect x="854.9" y="257.3" class="st3" width="85" height="85"/>
	<rect x="949.3" y="257.3" class="st3" width="85" height="85"/>
	<rect x="1043.7" y="257.3" class="st3" width="85" height="85"/>
	<rect x="1138.1" y="257.3" class="st3" width="85" height="85"/>
	<rect x="194.2" y="373.3" class="st3" width="85" height="85"/>
	<rect x="288.6" y="373.3" class="st3" width="85" height="85"/>
	<rect x="383" y="373.3" class="st3" width="85" height="85"/>
	<rect x="477.4" y="373.3" class="st3" width="85" height="85"/>
	<rect x="571.7" y="373.3" class="st3" width="85" height="85"/>
	<rect x="666.1" y="373.3" class="st3" width="85" height="85"/>
	<rect x="760.5" y="373.3" class="st3" width="85" height="85"/>
	<rect x="854.9" y="373.3" class="st3" width="85" height="85"/>
	<rect x="949.3" y="373.3" class="st3" width="85" height="85"/>
	<rect x="1043.7" y="373.3" class="st3" width="85" height="85"/>
	<rect x="1138.1" y="373.3" class="st3" width="85" height="85"/>
	<rect x="194.2" y="489.2" class="st3" width="85" height="85"/>
	<rect x="288.6" y="489.2" class="st3" width="85" height="85"/>
	<rect x="383" y="489.2" class="st3" width="85" height="85"/>
	<rect x="477.4" y="489.2" class="st3" width="85" height="85"/>
	<rect x="571.7" y="489.2" class="st3" width="85" height="85"/>
	<rect x="666.1" y="489.2" class="st3" width="85" height="85"/>
	<rect x="760.5" y="489.2" class="st3" width="85" height="85"/>
	<rect x="854.9" y="489.2" class="st3" width="85" height="85"/>
	<rect x="949.3" y="489.2" class="st3" width="85" height="85"/>
	<rect x="1043.7" y="489.2" class="st3" width="85" height="85"/>
	<rect x="1138.1" y="489.2" class="st3" width="85" height="85"/>
	<rect x="194.2" y="605.2" class="st3" width="85" height="85"/>
	<rect x="288.6" y="605.2" class="st3" width="85" height="85"/>
	<rect x="383" y="605.2" class="st3" width="85" height="85"/>
	<rect x="477.4" y="605.2" class="st3" width="85" height="85"/>
	<rect x="571.7" y="605.2" class="st3" width="85" height="85"/>
	<rect x="666.1" y="605.2" class="st3" width="85" height="85"/>
	<rect x="760.5" y="605.2" class="st3" width="85" height="85"/>
	<rect x="854.9" y="605.2" class="st3" width="85" height="85"/>
	<rect x="949.3" y="605.2" class="st3" width="85" height="85"/>
	<rect x="1043.7" y="605.2" class="st3" width="85" height="85"/>
	<rect x="1138.1" y="605.2" class="st3" width="85" height="85"/>
	<path class="st3" d="M1417.3,708.7"/>
	<path class="st3" d="M1417.3,708.7"/>
	<rect x="548.7" y="1325.8" class="st3" width="35.4" height="35.4"/>
	<rect x="643.5" y="1325.8" class="st3" width="35.4" height="35.4"/>
	<rect x="738.4" y="1325.8" class="st3" width="35.4" height="35.4"/>
	<rect x="833.2" y="1325.8" class="st3" width="35.4" height="35.4"/>
	<rect x="194.2" y="721.1" class="st3" width="85" height="85"/>
	<rect x="288.6" y="721.1" class="st3" width="85" height="85"/>
	<rect x="383" y="721.1" class="st3" width="85" height="85"/>
	<rect x="477.4" y="721.1" class="st3" width="85" height="85"/>
	<rect x="571.7" y="721.1" class="st3" width="85" height="85"/>
	<rect x="666.1" y="721.1" class="st3" width="85" height="85"/>
	<rect x="760.5" y="721.1" class="st3" width="85" height="85"/>
	<rect x="854.9" y="721.1" class="st3" width="85" height="85"/>
	<rect x="949.3" y="721.1" class="st3" width="85" height="85"/>
	<rect x="1043.7" y="721.1" class="st3" width="85" height="85"/>
	<rect x="1138.1" y="721.1" class="st3" width="85" height="85"/>
	<rect x="194.2" y="837" class="st3" width="85" height="85"/>
	<rect x="288.6" y="837" class="st3" width="85" height="85"/>
	<rect x="383" y="837" class="st3" width="85" height="85"/>
	<rect x="477.4" y="837" class="st3" width="85" height="85"/>
	<rect x="571.7" y="837" class="st3" width="85" height="85"/>
	<rect x="666.1" y="837" class="st3" width="85" height="85"/>
	<rect x="760.5" y="837" class="st3" width="85" height="85"/>
	<rect x="854.9" y="837" class="st3" width="85" height="85"/>
	<rect x="949.3" y="837" class="st3" width="85" height="85"/>
	<rect x="1043.7" y="837" class="st3" width="85" height="85"/>
	<rect x="1138.1" y="837" class="st3" width="85" height="85"/>
	<rect x="194.2" y="953" class="st3" width="85" height="85"/>
	<rect x="288.6" y="953" class="st3" width="85" height="85"/>
	<rect x="383" y="953" class="st3" width="85" height="85"/>
	<rect x="477.4" y="953" class="st3" width="85" height="85"/>
	<rect x="571.7" y="953" class="st3" width="85" height="85"/>
	<rect x="666.1" y="953" class="st3" width="85" height="85"/>
	<rect x="760.5" y="953" class="st3" width="85" height="85"/>
	<rect x="854.9" y="953" class="st3" width="85" height="85"/>
	<rect x="949.3" y="953" class="st3" width="85" height="85"/>
	<rect x="1043.7" y="953" class="st3" width="85" height="85"/>
	<rect x="1138.1" y="953" class="st3" width="85" height="85"/>
	<rect x="194.2" y="1068.9" class="st3" width="85" height="85"/>
	<rect x="288.6" y="1068.9" class="st3" width="85" height="85"/>
	<rect x="383" y="1068.9" class="st3" width="85" height="85"/>
	<rect x="477.4" y="1068.9" class="st3" width="85" height="85"/>
	<rect x="571.7" y="1068.9" class="st3" width="85" height="85"/>
	<rect x="666.1" y="1068.9" class="st3" width="85" height="85"/>
	<rect x="760.5" y="1068.9" class="st3" width="85" height="85"/>
	<rect x="854.9" y="1068.9" class="st3" width="85" height="85"/>
	<rect x="949.3" y="1068.9" class="st3" width="85" height="85"/>
	<rect x="1043.7" y="1068.9" class="st3" width="85" height="85"/>
	<rect x="1138.1" y="1068.9" class="st3" width="85" height="85"/>
	<rect x="194.2" y="1184.8" class="st3" width="85" height="85"/>
	<rect x="288.6" y="1184.8" class="st3" width="85" height="85"/>
	<rect x="383" y="1184.8" class="st3" width="85" height="85"/>
	<rect x="477.4" y="1184.8" class="st3" width="85" height="85"/>
	<rect x="571.7" y="1184.8" class="st3" width="85" height="85"/>
	<rect x="666.1" y="1184.8" class="st3" width="85" height="85"/>
	<rect x="760.5" y="1184.8" class="st3" width="85" height="85"/>
	<rect x="854.9" y="1184.8" class="st3" width="85" height="85"/>
	<rect x="949.3" y="1184.8" class="st3" width="85" height="85"/>
	<rect x="1043.7" y="1184.8" class="st3" width="85" height="85"/>
	<rect x="1138.1" y="1184.8" class="st3" width="85" height="85"/>
	<path class="st3" d="M1417.3,708.7"/>
	<rect class="st3" width="1417.3" height="1417.3"/>
	<path class="st3" d="M1417.3,0"/>
</g>
</svg>
