<?xml version="1.0" encoding="utf-8"?>
<!-- Generator: Adobe Illustrator 24.3.0, SVG Export Plug-In . SVG Version: 6.00 Build 0)  -->
<svg version="1.1"
	 id="svg918" inkscape:version="0.92.4 (5da689c313, 2019-01-14)" xmlns:cc="http://creativecommons.org/ns#" xmlns:dc="http://purl.org/dc/elements/1.1/" xmlns:inkscape="http://www.inkscape.org/namespaces/inkscape" xmlns:rdf="http://www.w3.org/1999/02/22-rdf-syntax-ns#" xmlns:sodipodi="http://sodipodi.sourceforge.net/DTD/sodipodi-0.dtd" xmlns:svg="http://www.w3.org/2000/svg"
	 xmlns="http://www.w3.org/2000/svg" xmlns:xlink="http://www.w3.org/1999/xlink" x="0px" y="0px" viewBox="0 0 1417.3 1417.3"
	 style="enable-background:new 0 0 1417.3 1417.3;" xml:space="preserve">
<style type="text/css">
	.st0{fill:#00D300;fill-opacity:0.1647;}
	.st1{enable-background:new    ;}
	.st2{display:none;}
	.st3{display:inline;fill:none;stroke:#FF0000;stroke-width:0.1;stroke-miterlimit:10;}
	.st4{display:inline;opacity:0.99;fill:none;stroke:#FF0000;stroke-width:0.1;stroke-miterlimit:10;enable-background:new    ;}
</style>
<g id="g916" transform="translate(0,-861.73197)">
	<path id="path2" inkscape:connector-curvature="0" class="st0" d="M0,861.7h1417.3V2279H0V861.7z"/>
	<circle id="circle6" cx="566.6" cy="2205.2" r="10.7"/>
	
		<ellipse id="circle6_1_" transform="matrix(0.7071 -0.7071 0.7071 0.7071 -1365.6824 1113.4238)" cx="661.2" cy="2205.2" rx="10.6" ry="10.7"/>
	
		<ellipse id="circle6_2_" transform="matrix(0.7071 -0.7071 0.7071 0.7071 -1337.8657 1180.5065)" cx="756.1" cy="2205.2" rx="10.6" ry="10.7"/>
	
		<ellipse id="circle6_3_" transform="matrix(0.7071 -0.7071 0.7071 0.7071 -1310.1202 1247.5605)" cx="850.9" cy="2205.2" rx="10.6" ry="10.7"/>
	<g class="st1">
		<path d="M224.9,1068.2c-0.1-0.1-0.2-0.3-0.2-0.5v-47.5c0-0.2,0.1-0.4,0.2-0.5c0.1-0.1,0.3-0.2,0.5-0.2h2.4c0.2,0,0.4,0.1,0.5,0.2
			c0.1,0.1,0.2,0.3,0.2,0.5v47.5c0,0.2-0.1,0.4-0.2,0.5c-0.1,0.1-0.3,0.2-0.5,0.2h-2.4C225.2,1068.4,225.1,1068.3,224.9,1068.2z
			 M232.1,1023.1c-0.1-0.1-0.2-0.3-0.2-0.5v-2.4c0-0.2,0.1-0.4,0.2-0.5c0.1-0.1,0.3-0.2,0.5-0.2h18.2c0.2,0,0.4,0.1,0.5,0.2
			c0.1,0.1,0.2,0.3,0.2,0.5v2.4c0,0.2-0.1,0.4-0.2,0.5c-0.1,0.1-0.3,0.2-0.5,0.2h-18.2C232.4,1023.3,232.2,1023.2,232.1,1023.1z
			 M232.1,1045.3c-0.1-0.1-0.2-0.3-0.2-0.5v-2.4c0-0.2,0.1-0.4,0.2-0.5c0.1-0.1,0.3-0.2,0.5-0.2h15.1c0.2,0,0.4,0.1,0.5,0.2
			c0.1,0.1,0.2,0.3,0.2,0.5v2.4c0,0.2-0.1,0.4-0.2,0.5c-0.1,0.1-0.3,0.2-0.5,0.2h-15.1C232.4,1045.5,232.2,1045.4,232.1,1045.3z
			 M232.1,1068.2c-0.1-0.1-0.2-0.3-0.2-0.5v-2.4c0-0.2,0.1-0.4,0.2-0.5c0.1-0.1,0.3-0.2,0.5-0.2h18.2c0.2,0,0.4,0.1,0.5,0.2
			c0.1,0.1,0.2,0.3,0.2,0.5v2.4c0,0.2-0.1,0.4-0.2,0.5c-0.1,0.1-0.3,0.2-0.5,0.2h-18.2C232.4,1068.4,232.2,1068.3,232.1,1068.2z"/>
	</g>
	<g class="st1">
		<path d="M322.8,1067.1c-2.3-1-4.1-2.2-5.5-3.6c-0.1-0.1-0.2-0.3-0.2-0.5c0-0.2,0-0.4,0.2-0.6l1.6-2c0.3-0.3,0.6-0.4,0.9-0.1
			c1.3,1.2,2.9,2.2,4.6,3.1c1.8,0.9,3.6,1.5,5.6,1.8c0.4,0.1,0.6,0.3,0.6,0.7v2.4c0,0.2-0.1,0.4-0.2,0.5c-0.1,0.1-0.3,0.2-0.5,0.1
			C327.5,1068.8,325.1,1068.1,322.8,1067.1z M334.6,1069c-0.2,0-0.3-0.1-0.4-0.2c-0.1-0.1-0.2-0.3-0.2-0.5v-2.4
			c0-0.5,0.2-0.7,0.6-0.8c2.9-0.3,5.1-1.4,6.7-3.2c1.6-1.8,2.4-4,2.4-6.7c0-2.6-0.8-4.8-2.3-6.4c-1.6-1.6-4.3-2.7-8.1-3.2l-2.1-0.4
			c-4.2-0.6-7.4-2-9.5-4.2c-2.1-2.2-3.2-5.1-3.2-8.7c0-2.5,0.5-4.7,1.4-6.7c0.9-1.9,2.2-3.5,3.9-4.7c1.7-1.2,3.7-1.9,6-2.2h0.1
			c0.2,0,0.3,0.1,0.4,0.2c0.1,0.1,0.2,0.3,0.2,0.5v2.4c0,0.4-0.2,0.6-0.6,0.7c-2.4,0.4-4.3,1.5-5.7,3.2c-1.3,1.7-2,3.8-2,6.3
			c0,2.6,0.8,4.7,2.5,6.3c1.6,1.6,4.3,2.6,8.1,3.2l2.1,0.3c4.3,0.6,7.5,2,9.5,4.2c2.1,2.2,3.1,5.1,3.1,8.8c0,2.5-0.5,4.8-1.5,6.8
			c-1,2-2.4,3.6-4.3,4.9c-1.9,1.3-4.2,2.1-7,2.3H334.6z M334.6,1022.7c-0.4-0.1-0.6-0.4-0.6-0.8v-2.4c0-0.2,0.1-0.4,0.2-0.5
			c0.1-0.1,0.3-0.2,0.5-0.1c1.9,0.2,3.8,0.6,5.6,1.3c1.8,0.7,3.3,1.5,4.6,2.6c0.3,0.3,0.4,0.6,0.1,1l-1.2,2.2
			c-0.3,0.3-0.6,0.4-0.9,0.1C340.2,1024.2,337.4,1023,334.6,1022.7z"/>
	</g>
	<g class="st1">
		<path d="M413.9,1068.2c-0.1-0.1-0.2-0.3-0.2-0.5v-47.5c0-0.2,0.1-0.4,0.2-0.5c0.1-0.1,0.3-0.2,0.5-0.2h2.4c0.2,0,0.4,0.1,0.5,0.2
			c0.1,0.1,0.2,0.3,0.2,0.5v47.5c0,0.2-0.1,0.4-0.2,0.5c-0.1,0.1-0.3,0.2-0.5,0.2h-2.4C414.2,1068.4,414.1,1068.3,413.9,1068.2z
			 M421.2,1048.5c-0.2,0-0.3-0.2-0.3-0.6v-3.7c0-0.2,0.1-0.5,0.3-0.9l17.3-23.2c0.2-0.3,0.4-0.5,0.6-0.6c0.2-0.1,0.3-0.1,0.6-0.1h3
			c0.2,0,0.4,0.1,0.4,0.3c0.1,0.2,0,0.3-0.1,0.5l-21.2,28C421.5,1048.4,421.4,1048.5,421.2,1048.5z M440.2,1068.3
			c-0.1-0.1-0.3-0.3-0.4-0.6l-11.3-21.8c-0.1-0.2-0.1-0.3-0.1-0.4c0-0.2,0.1-0.4,0.2-0.6l1.6-2.1c0.2-0.2,0.3-0.3,0.5-0.3
			c0.2,0,0.3,0.1,0.5,0.4l12.9,24.8l0.1,0.3c0,0.3-0.1,0.4-0.4,0.4h-2.9C440.5,1068.4,440.4,1068.4,440.2,1068.3z"/>
	</g>
	<g class="st1">
		<path d="M520.4,1068.2c-0.1-0.1-0.2-0.3-0.2-0.5v-47.5c0-0.2,0.1-0.4,0.2-0.5c0.1-0.1,0.3-0.2,0.5-0.2h2.4c0.2,0,0.4,0.1,0.5,0.2
			c0.1,0.1,0.2,0.3,0.2,0.5v47.5c0,0.2-0.1,0.4-0.2,0.5c-0.1,0.1-0.3,0.2-0.5,0.2h-2.4C520.7,1068.4,520.6,1068.3,520.4,1068.2z"/>
	</g>
	<g class="st1">
		<path d="M606.3,1067.1c-2.3-1-4.1-2.2-5.5-3.6c-0.1-0.1-0.2-0.3-0.2-0.5c0-0.2,0-0.4,0.2-0.6l1.6-2c0.3-0.3,0.6-0.4,0.9-0.1
			c1.3,1.2,2.9,2.2,4.6,3.1c1.8,0.9,3.6,1.5,5.6,1.8c0.4,0.1,0.6,0.3,0.6,0.7v2.4c0,0.2-0.1,0.4-0.2,0.5c-0.1,0.1-0.3,0.2-0.5,0.1
			C611,1068.8,608.6,1068.1,606.3,1067.1z M618.1,1069c-0.2,0-0.3-0.1-0.4-0.2c-0.1-0.1-0.2-0.3-0.2-0.5v-2.4c0-0.5,0.2-0.7,0.6-0.8
			c2.9-0.3,5.1-1.4,6.7-3.2c1.6-1.8,2.4-4,2.4-6.7c0-2.6-0.8-4.8-2.3-6.4c-1.6-1.6-4.3-2.7-8.1-3.2l-2.1-0.4c-4.2-0.6-7.4-2-9.5-4.2
			c-2.1-2.2-3.2-5.1-3.2-8.7c0-2.5,0.5-4.7,1.4-6.7c0.9-1.9,2.2-3.5,3.9-4.7c1.7-1.2,3.7-1.9,6-2.2h0.1c0.2,0,0.3,0.1,0.4,0.2
			c0.1,0.1,0.2,0.3,0.2,0.5v2.4c0,0.4-0.2,0.6-0.6,0.7c-2.4,0.4-4.3,1.5-5.7,3.2c-1.3,1.7-2,3.8-2,6.3c0,2.6,0.8,4.7,2.5,6.3
			c1.6,1.6,4.3,2.6,8.1,3.2l2.1,0.3c4.3,0.6,7.5,2,9.5,4.2c2.1,2.2,3.1,5.1,3.1,8.8c0,2.5-0.5,4.8-1.5,6.8c-1,2-2.4,3.6-4.3,4.9
			c-1.9,1.3-4.2,2.1-7,2.3H618.1z M618.1,1022.7c-0.4-0.1-0.6-0.4-0.6-0.8v-2.4c0-0.2,0.1-0.4,0.2-0.5c0.1-0.1,0.3-0.2,0.5-0.1
			c1.9,0.2,3.8,0.6,5.6,1.3c1.8,0.7,3.3,1.5,4.6,2.6c0.3,0.3,0.4,0.6,0.1,1l-1.2,2.2c-0.3,0.3-0.6,0.4-0.9,0.1
			C623.7,1024.2,620.9,1023,618.1,1022.7z"/>
	</g>
	<g class="st1">
		<path d="M692.7,1023.1c-0.1-0.1-0.2-0.3-0.2-0.5v-2.4c0-0.2,0.1-0.4,0.2-0.5c0.1-0.1,0.3-0.2,0.5-0.2h29.9c0.2,0,0.4,0.1,0.5,0.2
			c0.1,0.1,0.2,0.3,0.2,0.5v2.4c0,0.2-0.1,0.4-0.2,0.5c-0.1,0.1-0.3,0.2-0.5,0.2h-29.9C693,1023.3,692.9,1023.2,692.7,1023.1z
			 M706.5,1068.2c-0.1-0.1-0.2-0.3-0.2-0.5v-40c0-0.2,0.1-0.4,0.2-0.5c0.1-0.1,0.3-0.2,0.5-0.2h2.4c0.2,0,0.4,0.1,0.5,0.2
			c0.1,0.1,0.2,0.3,0.2,0.5v40c0,0.2-0.1,0.4-0.2,0.5c-0.1,0.1-0.3,0.2-0.5,0.2h-2.4C706.7,1068.4,706.6,1068.3,706.5,1068.2z"/>
	</g>
	<g class="st1">
		<path d="M787.7,1068.2c-0.1-0.1-0.1-0.3,0-0.5l13.4-41c0.1-0.3,0.3-0.4,0.5-0.4c0.1,0,0.2,0,0.2,0.1c0.1,0.1,0.1,0.2,0.2,0.3
			l1.2,3.9c0.1,0.1,0.1,0.3,0.1,0.5c0,0.2,0,0.4-0.1,0.5l-6.6,20.2h12.7c0.4,0,0.6,0.2,0.8,0.6l0.8,2.4l0.1,0.3
			c0,0.1-0.1,0.3-0.2,0.4c-0.1,0.1-0.2,0.1-0.4,0.1h-14.9l-3.9,12.2c-0.1,0.3-0.2,0.5-0.3,0.6c-0.1,0.1-0.3,0.1-0.5,0.1h-2.5
			C787.9,1068.4,787.7,1068.3,787.7,1068.2z M818.6,1067.8l-15.2-47.5l-0.1-0.3c0-0.2,0.1-0.3,0.2-0.4c0.1-0.1,0.2-0.1,0.4-0.1h2.3
			c0.4,0,0.7,0.2,0.8,0.7l15.3,47.5l0.1,0.2c0,0.1,0,0.3-0.1,0.4c-0.1,0.1-0.2,0.1-0.4,0.1h-2.5
			C818.9,1068.4,818.7,1068.2,818.6,1067.8z"/>
	</g>
	<g class="st1">
		<path d="M886.4,1068.2c-0.1-0.1-0.2-0.3-0.2-0.5v-47.5c0-0.2,0.1-0.4,0.2-0.5c0.1-0.1,0.3-0.2,0.5-0.2h2.4c0.2,0,0.4,0.1,0.5,0.2
			c0.1,0.1,0.2,0.3,0.2,0.5v47.5c0,0.2-0.1,0.4-0.2,0.5c-0.1,0.1-0.3,0.2-0.5,0.2h-2.4C886.7,1068.4,886.5,1068.3,886.4,1068.2z
			 M893.6,1023.1c-0.1-0.1-0.2-0.3-0.2-0.5v-2.4c0-0.2,0.1-0.4,0.2-0.5c0.1-0.1,0.3-0.2,0.5-0.2h18.2c0.2,0,0.4,0.1,0.5,0.2
			c0.1,0.1,0.2,0.3,0.2,0.5v2.4c0,0.2-0.1,0.4-0.2,0.5c-0.1,0.1-0.3,0.2-0.5,0.2H894C893.8,1023.3,893.7,1023.2,893.6,1023.1z
			 M893.6,1045.8c-0.1-0.1-0.2-0.3-0.2-0.5v-2.4c0-0.2,0.1-0.4,0.2-0.5c0.1-0.1,0.3-0.2,0.5-0.2h15.1c0.2,0,0.4,0.1,0.5,0.2
			c0.1,0.1,0.2,0.3,0.2,0.5v2.4c0,0.2-0.1,0.4-0.2,0.5c-0.1,0.1-0.3,0.2-0.5,0.2H894C893.8,1046,893.7,1046,893.6,1045.8z"/>
	</g>
	<g class="st1">
		<path d="M983.5,1063.9c-2.2-3-3.3-7.1-3.3-12.4v-31.3c0-0.2,0.1-0.4,0.2-0.5c0.1-0.1,0.3-0.2,0.5-0.2h2.4c0.2,0,0.4,0.1,0.5,0.2
			c0.1,0.1,0.2,0.3,0.2,0.5v31.3c0,4,0.8,7.2,2.3,9.5c1.5,2.3,3.8,3.7,6.7,4.2c0.4,0,0.6,0.3,0.6,0.7v2.4c0,0.2-0.1,0.4-0.2,0.5
			c-0.1,0.1-0.3,0.2-0.5,0.1C988.8,1068.6,985.7,1066.9,983.5,1063.9z M987,1011.5c-0.1-0.1-0.2-0.3-0.2-0.5v-3.9
			c0-0.2,0.1-0.4,0.2-0.5c0.1-0.1,0.3-0.2,0.5-0.2h2.5c0.2,0,0.4,0.1,0.5,0.2c0.1,0.1,0.2,0.3,0.2,0.5v3.9c0,0.2-0.1,0.4-0.2,0.5
			c-0.1,0.1-0.3,0.2-0.5,0.2h-2.5C987.3,1011.8,987.2,1011.7,987,1011.5z M997.5,1069c-0.2,0-0.3-0.1-0.4-0.2
			c-0.1-0.1-0.2-0.3-0.2-0.5v-2.4c0-0.4,0.2-0.7,0.6-0.7c2.9-0.5,5.1-1.9,6.7-4.2c1.5-2.3,2.3-5.5,2.3-9.5v-31.3
			c0-0.2,0.1-0.4,0.2-0.5c0.1-0.1,0.3-0.2,0.5-0.2h2.4c0.2,0,0.4,0.1,0.5,0.2c0.1,0.1,0.2,0.3,0.2,0.5v31.3c0,5.3-1.1,9.4-3.2,12.3
			c-2.2,3-5.3,4.7-9.3,5.1H997.5z M1000,1011.5c-0.1-0.1-0.2-0.3-0.2-0.5v-3.9c0-0.2,0.1-0.4,0.2-0.5c0.1-0.1,0.3-0.2,0.5-0.2h2.5
			c0.2,0,0.4,0.1,0.5,0.2c0.1,0.1,0.2,0.3,0.2,0.5v3.9c0,0.2-0.1,0.4-0.2,0.5c-0.1,0.1-0.3,0.2-0.5,0.2h-2.5
			C1000.3,1011.8,1000.1,1011.7,1000,1011.5z"/>
	</g>
	<g class="st1">
		<path d="M1101.8,1068.3c-0.2-0.1-0.4-0.3-0.5-0.6l-25.9-46.6c-0.2-0.2-0.3-0.5-0.3-0.9c0-0.5,0.2-0.8,0.7-0.8h2.1
			c0.3,0,0.5,0,0.6,0.1c0.2,0.1,0.3,0.3,0.5,0.6l25.9,46.8c0.1,0.1,0.2,0.3,0.2,0.5c0,0.2,0,0.3,0,0.5c-0.1,0.3-0.3,0.5-0.6,0.5
			h-2.2C1102.2,1068.4,1102,1068.4,1101.8,1068.3z M1075.4,1068.2c-0.1-0.1-0.2-0.3-0.2-0.5v-38.8c0-0.4,0.1-0.6,0.3-0.6
			c0.2,0,0.4,0.1,0.5,0.4l2.5,4.5c0.1,0.3,0.2,0.6,0.2,0.9v33.6c0,0.2-0.1,0.4-0.2,0.5s-0.3,0.2-0.5,0.2h-2.2
			C1075.7,1068.4,1075.5,1068.3,1075.4,1068.2z M1102,1054.6c-0.1-0.3-0.2-0.6-0.2-0.9v-33.5c0-0.2,0.1-0.4,0.2-0.5
			c0.1-0.1,0.3-0.2,0.5-0.2h2.2c0.2,0,0.4,0.1,0.5,0.2c0.1,0.1,0.2,0.3,0.2,0.5v38.7c0,0.4-0.1,0.6-0.3,0.6c-0.2,0-0.3-0.1-0.5-0.4
			L1102,1054.6z"/>
	</g>
	<g class="st1">
		<path d="M1169.9,1068.2c-0.1-0.1-0.2-0.3-0.2-0.5v-47.5c0-0.2,0.1-0.4,0.2-0.5c0.1-0.1,0.3-0.2,0.5-0.2h2.4c0.2,0,0.4,0.1,0.5,0.2
			c0.1,0.1,0.2,0.3,0.2,0.5v47.5c0,0.2-0.1,0.4-0.2,0.5c-0.1,0.1-0.3,0.2-0.5,0.2h-2.4C1170.2,1068.4,1170,1068.3,1169.9,1068.2z
			 M1177.1,1023.1c-0.1-0.1-0.2-0.3-0.2-0.5v-2.4c0-0.2,0.1-0.4,0.2-0.5c0.1-0.1,0.3-0.2,0.5-0.2h18.2c0.2,0,0.4,0.1,0.5,0.2
			c0.1,0.1,0.2,0.3,0.2,0.5v2.4c0,0.2-0.1,0.4-0.2,0.5c-0.1,0.1-0.3,0.2-0.5,0.2h-18.2C1177.3,1023.3,1177.2,1023.2,1177.1,1023.1z
			 M1177.1,1045.8c-0.1-0.1-0.2-0.3-0.2-0.5v-2.4c0-0.2,0.1-0.4,0.2-0.5c0.1-0.1,0.3-0.2,0.5-0.2h15.1c0.2,0,0.4,0.1,0.5,0.2
			c0.1,0.1,0.2,0.3,0.2,0.5v2.4c0,0.2-0.1,0.4-0.2,0.5c-0.1,0.1-0.3,0.2-0.5,0.2h-15.1C1177.3,1046,1177.2,1046,1177.1,1045.8z"/>
	</g>
	<g class="st1">
		<path d="M222.3,1184.4c-0.1-0.1-0.2-0.3-0.2-0.5v-2.4c0-0.2,0-0.4,0.1-0.5s0.2-0.3,0.3-0.4l25.3-44.4c0.2-0.3,0.5-0.5,0.8-0.5h1
			c0.2,0,0.4,0.1,0.5,0.2c0.1,0.1,0.2,0.3,0.2,0.5v2.4c0,0.1,0,0.3-0.1,0.5c0,0.2-0.1,0.3-0.3,0.5l-25.4,44.4
			c-0.2,0.3-0.5,0.5-0.8,0.5h-1C222.5,1184.7,222.4,1184.6,222.3,1184.4z M223.2,1139.3c-0.1-0.1-0.2-0.3-0.2-0.5v-2.4
			c0-0.2,0.1-0.4,0.2-0.5c0.1-0.1,0.3-0.2,0.5-0.2h19.8c0.3,0,0.4,0.1,0.5,0.3c0.1,0.2,0.1,0.4-0.1,0.6l-1.5,2.4
			c-0.2,0.3-0.5,0.5-0.8,0.5h-18C223.5,1139.5,223.3,1139.4,223.2,1139.3z M228.3,1184.4c-0.1-0.2,0-0.4,0.1-0.6l1.4-2.4
			c0.2-0.3,0.5-0.5,0.8-0.5h18.9c0.2,0,0.4,0.1,0.5,0.2c0.1,0.1,0.2,0.3,0.2,0.5v2.4c0,0.2-0.1,0.4-0.2,0.5
			c-0.1,0.1-0.3,0.2-0.5,0.2h-20.7C228.6,1184.7,228.4,1184.6,228.3,1184.4z"/>
	</g>
	<g class="st1">
		<path d="M319.4,1184.4c-0.1-0.1-0.2-0.3-0.2-0.5v-47.5c0-0.2,0.1-0.4,0.2-0.5c0.1-0.1,0.3-0.2,0.5-0.2h2.4c0.2,0,0.4,0.1,0.5,0.2
			c0.1,0.1,0.2,0.3,0.2,0.5v47.5c0,0.2-0.1,0.4-0.2,0.5c-0.1,0.1-0.3,0.2-0.5,0.2h-2.4C319.7,1184.7,319.6,1184.6,319.4,1184.4z
			 M326.6,1139.3c-0.1-0.1-0.2-0.3-0.2-0.5v-2.4c0-0.2,0.1-0.4,0.2-0.5c0.1-0.1,0.3-0.2,0.5-0.2h18.2c0.2,0,0.4,0.1,0.5,0.2
			c0.1,0.1,0.2,0.3,0.2,0.5v2.4c0,0.2-0.1,0.4-0.2,0.5c-0.1,0.1-0.3,0.2-0.5,0.2H327C326.9,1139.5,326.7,1139.4,326.6,1139.3z
			 M326.6,1161.5c-0.1-0.1-0.2-0.3-0.2-0.5v-2.4c0-0.2,0.1-0.4,0.2-0.5c0.1-0.1,0.3-0.2,0.5-0.2h15.1c0.2,0,0.4,0.1,0.5,0.2
			c0.1,0.1,0.2,0.3,0.2,0.5v2.4c0,0.2-0.1,0.4-0.2,0.5c-0.1,0.1-0.3,0.2-0.5,0.2H327C326.9,1161.8,326.7,1161.7,326.6,1161.5z
			 M326.6,1184.4c-0.1-0.1-0.2-0.3-0.2-0.5v-2.4c0-0.2,0.1-0.4,0.2-0.5c0.1-0.1,0.3-0.2,0.5-0.2h18.2c0.2,0,0.4,0.1,0.5,0.2
			c0.1,0.1,0.2,0.3,0.2,0.5v2.4c0,0.2-0.1,0.4-0.2,0.5c-0.1,0.1-0.3,0.2-0.5,0.2H327C326.9,1184.7,326.7,1184.6,326.6,1184.4z"/>
	</g>
	<g class="st1">
		<path d="M413.9,1184.4c-0.1-0.1-0.2-0.3-0.2-0.5v-47.5c0-0.2,0.1-0.4,0.2-0.5c0.1-0.1,0.3-0.2,0.5-0.2h2.4c0.2,0,0.4,0.1,0.5,0.2
			c0.1,0.1,0.2,0.3,0.2,0.5v47.5c0,0.2-0.1,0.4-0.2,0.5c-0.1,0.1-0.3,0.2-0.5,0.2h-2.4C414.2,1184.7,414.1,1184.6,413.9,1184.4z
			 M420.8,1161.5c-0.1-0.1-0.2-0.3-0.2-0.5v-2.4c0-0.2,0.1-0.4,0.2-0.5c0.1-0.1,0.3-0.2,0.5-0.2h14.9c0.2,0,0.4,0.1,0.5,0.2
			c0.1,0.1,0.2,0.3,0.2,0.5v2.4c0,0.2-0.1,0.4-0.2,0.5c-0.1,0.1-0.3,0.2-0.5,0.2h-14.9C421.1,1161.8,420.9,1161.7,420.8,1161.5z
			 M440.2,1184.4c-0.1-0.1-0.2-0.3-0.2-0.5v-47.5c0-0.2,0.1-0.4,0.2-0.5c0.1-0.1,0.3-0.2,0.5-0.2h2.4c0.2,0,0.4,0.1,0.5,0.2
			c0.1,0.1,0.2,0.3,0.2,0.5v47.5c0,0.2-0.1,0.4-0.2,0.5s-0.3,0.2-0.5,0.2h-2.4C440.5,1184.7,440.4,1184.6,440.2,1184.4z"/>
	</g>
	<g class="st1">
		<path d="M534.8,1184.5c-0.2-0.1-0.4-0.3-0.5-0.6l-25.9-46.6c-0.2-0.2-0.3-0.5-0.3-0.9c0-0.5,0.2-0.8,0.7-0.8h2.1
			c0.3,0,0.5,0,0.6,0.1c0.2,0.1,0.3,0.3,0.5,0.6l25.9,46.8c0.1,0.1,0.2,0.3,0.2,0.5c0,0.2,0,0.3,0,0.5c-0.1,0.3-0.3,0.5-0.6,0.5
			h-2.2C535.2,1184.7,535,1184.6,534.8,1184.5z M508.4,1184.4c-0.1-0.1-0.2-0.3-0.2-0.5v-38.8c0-0.4,0.1-0.6,0.3-0.6
			c0.2,0,0.4,0.1,0.5,0.4l2.5,4.5c0.1,0.3,0.2,0.6,0.2,0.9v33.6c0,0.2-0.1,0.4-0.2,0.5s-0.3,0.2-0.5,0.2h-2.2
			C508.7,1184.7,508.6,1184.6,508.4,1184.4z M535,1170.8c-0.1-0.3-0.2-0.6-0.2-0.9v-33.5c0-0.2,0.1-0.4,0.2-0.5
			c0.1-0.1,0.3-0.2,0.5-0.2h2.2c0.2,0,0.4,0.1,0.5,0.2c0.1,0.1,0.2,0.3,0.2,0.5v38.7c0,0.4-0.1,0.6-0.3,0.6c-0.2,0-0.3-0.1-0.5-0.4
			L535,1170.8z"/>
	</g>
	<g class="st1">
		<path d="M600.3,1184.4c-0.1-0.1-0.2-0.3-0.2-0.5v-2.4c0-0.2,0-0.4,0.1-0.5c0.1-0.1,0.2-0.3,0.3-0.4l25.3-44.4
			c0.2-0.3,0.5-0.5,0.8-0.5h1c0.2,0,0.4,0.1,0.5,0.2c0.1,0.1,0.2,0.3,0.2,0.5v2.4c0,0.1,0,0.3-0.1,0.5c0,0.2-0.1,0.3-0.3,0.5
			l-25.4,44.4c-0.2,0.3-0.5,0.5-0.8,0.5h-1C600.5,1184.7,600.4,1184.6,600.3,1184.4z M601.2,1139.3c-0.1-0.1-0.2-0.3-0.2-0.5v-2.4
			c0-0.2,0.1-0.4,0.2-0.5c0.1-0.1,0.3-0.2,0.5-0.2h19.8c0.3,0,0.4,0.1,0.5,0.3c0.1,0.2,0.1,0.4-0.1,0.6l-1.5,2.4
			c-0.2,0.3-0.5,0.5-0.8,0.5h-18C601.4,1139.5,601.3,1139.4,601.2,1139.3z M606.3,1184.4c-0.1-0.2,0-0.4,0.1-0.6l1.4-2.4
			c0.2-0.3,0.5-0.5,0.8-0.5h18.9c0.2,0,0.4,0.1,0.5,0.2c0.1,0.1,0.2,0.3,0.2,0.5v2.4c0,0.2-0.1,0.4-0.2,0.5
			c-0.1,0.1-0.3,0.2-0.5,0.2h-20.7C606.6,1184.7,606.4,1184.6,606.3,1184.4z"/>
	</g>
	<g class="st1">
		<path d="M698,1184.5c-0.1-0.1-0.2-0.3-0.3-0.5l-10.5-47.4l-0.1-0.3c0-0.1,0.1-0.3,0.2-0.4c0.1-0.1,0.2-0.1,0.4-0.1h2.3
			c0.3,0,0.5,0,0.6,0.1c0.1,0.1,0.2,0.3,0.3,0.6l10.1,47.1c0,0.1,0.1,0.3,0.1,0.5c0,0.4-0.2,0.6-0.6,0.6h-2.1
			C698.3,1184.7,698.1,1184.6,698,1184.5z M722.4,1184.5c-0.1-0.1-0.2-0.3-0.3-0.5l-10.3-40.4h-0.1l-8.4,32.5c0,0.1-0.1,0.3-0.2,0.4
			c-0.1,0.1-0.1,0.1-0.2,0.1c-0.2,0-0.3-0.2-0.4-0.5l-1-5c0-0.3,0-0.6,0-0.9l8.5-33.8c0.1-0.2,0.2-0.4,0.3-0.5
			c0.1-0.1,0.3-0.2,0.5-0.2h1.9c0.2,0,0.4,0.1,0.5,0.2c0.1,0.1,0.2,0.3,0.3,0.5l12,47.1l0.1,0.4c0,0.5-0.2,0.8-0.6,0.8h-2.1
			C722.6,1184.7,722.5,1184.6,722.4,1184.5z M725.3,1171.2c-0.1-0.4-0.1-0.7-0.1-0.9l7.2-33.9c0-0.3,0.1-0.5,0.3-0.6
			c0.1-0.1,0.3-0.1,0.6-0.1h2.3c0.2,0,0.4,0.1,0.5,0.2s0.1,0.3,0.1,0.6l-8.8,39.6c0,0.1-0.1,0.3-0.2,0.4c-0.1,0.1-0.1,0.1-0.2,0.1
			c-0.2,0-0.3-0.1-0.4-0.4L725.3,1171.2z"/>
	</g>
	<g class="st1">
		<path d="M787.7,1184.4c-0.1-0.1-0.1-0.3,0-0.5l13.4-41c0.1-0.3,0.3-0.4,0.5-0.4c0.1,0,0.2,0,0.2,0.1c0.1,0.1,0.1,0.2,0.2,0.3
			l1.2,3.9c0.1,0.1,0.1,0.3,0.1,0.5c0,0.2,0,0.4-0.1,0.5l-6.6,20.2h12.7c0.4,0,0.6,0.2,0.8,0.6l0.8,2.4l0.1,0.3
			c0,0.1-0.1,0.3-0.2,0.4c-0.1,0.1-0.2,0.1-0.4,0.1h-14.9l-3.9,12.2c-0.1,0.3-0.2,0.5-0.3,0.6c-0.1,0.1-0.3,0.1-0.5,0.1h-2.5
			C787.9,1184.7,787.7,1184.6,787.7,1184.4z M818.6,1184.1l-15.2-47.5l-0.1-0.3c0-0.2,0.1-0.3,0.2-0.4c0.1-0.1,0.2-0.1,0.4-0.1h2.3
			c0.4,0,0.7,0.2,0.8,0.7l15.3,47.5l0.1,0.2c0,0.1,0,0.3-0.1,0.4c-0.1,0.1-0.2,0.1-0.4,0.1h-2.5
			C818.9,1184.7,818.7,1184.5,818.6,1184.1z"/>
	</g>
	<g class="st1">
		<path d="M912.8,1184.5c-0.2-0.1-0.4-0.3-0.5-0.6l-25.9-46.6c-0.2-0.2-0.3-0.5-0.3-0.9c0-0.5,0.2-0.8,0.7-0.8h2.1
			c0.3,0,0.5,0,0.6,0.1c0.2,0.1,0.3,0.3,0.5,0.6l25.9,46.8c0.1,0.1,0.2,0.3,0.2,0.5c0,0.2,0,0.3,0,0.5c-0.1,0.3-0.3,0.5-0.6,0.5
			h-2.2C913.2,1184.7,913,1184.6,912.8,1184.5z M886.4,1184.4c-0.1-0.1-0.2-0.3-0.2-0.5v-38.8c0-0.4,0.1-0.6,0.3-0.6
			c0.2,0,0.4,0.1,0.5,0.4l2.5,4.5c0.1,0.3,0.2,0.6,0.2,0.9v33.6c0,0.2-0.1,0.4-0.2,0.5s-0.3,0.2-0.5,0.2h-2.2
			C886.7,1184.7,886.5,1184.6,886.4,1184.4z M913,1170.8c-0.1-0.3-0.2-0.6-0.2-0.9v-33.5c0-0.2,0.1-0.4,0.2-0.5
			c0.1-0.1,0.3-0.2,0.5-0.2h2.2c0.2,0,0.4,0.1,0.5,0.2c0.1,0.1,0.2,0.3,0.2,0.5v38.7c0,0.4-0.1,0.6-0.3,0.6c-0.2,0-0.3-0.1-0.5-0.4
			L913,1170.8z"/>
	</g>
	<g class="st1">
		<path d="M978.3,1184.4c-0.1-0.1-0.2-0.3-0.2-0.5v-2.4c0-0.2,0-0.4,0.1-0.5c0.1-0.1,0.2-0.3,0.3-0.4l25.3-44.4
			c0.2-0.3,0.5-0.5,0.8-0.5h1c0.2,0,0.4,0.1,0.5,0.2c0.1,0.1,0.2,0.3,0.2,0.5v2.4c0,0.1,0,0.3-0.1,0.5c0,0.2-0.1,0.3-0.3,0.5
			l-25.4,44.4c-0.2,0.3-0.5,0.5-0.8,0.5h-1C978.5,1184.7,978.4,1184.6,978.3,1184.4z M979.2,1139.3c-0.1-0.1-0.2-0.3-0.2-0.5v-2.4
			c0-0.2,0.1-0.4,0.2-0.5c0.1-0.1,0.3-0.2,0.5-0.2h19.8c0.3,0,0.4,0.1,0.5,0.3c0.1,0.2,0.1,0.4-0.1,0.6l-1.5,2.4
			c-0.2,0.3-0.5,0.5-0.8,0.5h-18C979.4,1139.5,979.3,1139.4,979.2,1139.3z M984.3,1184.4c-0.1-0.2,0-0.4,0.1-0.6l1.4-2.4
			c0.2-0.3,0.5-0.5,0.8-0.5h18.9c0.2,0,0.4,0.1,0.5,0.2c0.1,0.1,0.2,0.3,0.2,0.5v2.4c0,0.2-0.1,0.4-0.2,0.5
			c-0.1,0.1-0.3,0.2-0.5,0.2h-20.7C984.6,1184.7,984.4,1184.6,984.3,1184.4z"/>
	</g>
	<g class="st1">
		<path d="M1087.4,1184.4c-0.1-0.1-0.2-0.3-0.2-0.5v-47.5c0-0.2,0.1-0.4,0.2-0.5c0.1-0.1,0.3-0.2,0.5-0.2h2.4c0.2,0,0.4,0.1,0.5,0.2
			c0.1,0.1,0.2,0.3,0.2,0.5v47.5c0,0.2-0.1,0.4-0.2,0.5c-0.1,0.1-0.3,0.2-0.5,0.2h-2.4C1087.7,1184.7,1087.5,1184.6,1087.4,1184.4z"
			/>
	</g>
	<g class="st1">
		<path d="M1173.6,1181.9c-2-1.8-3.5-4.3-4.5-7.5c-0.4-1.3-0.7-3.1-0.9-5.1s-0.3-5.1-0.3-9.1c0-4,0.1-7,0.3-9.1s0.5-3.8,0.9-5.1
			c1-3.2,2.4-5.7,4.5-7.5c2-1.8,4.5-2.9,7.5-3.3h0.1c0.2,0,0.3,0.1,0.4,0.2c0.1,0.1,0.1,0.3,0.1,0.5v2.4c0,0.4-0.2,0.6-0.6,0.7
			c-2.1,0.3-3.9,1.2-5.3,2.6c-1.4,1.4-2.5,3.2-3.2,5.5c-0.3,1.1-0.6,2.6-0.8,4.5c-0.2,2-0.3,4.8-0.3,8.6s0.1,6.6,0.3,8.6
			c0.2,2,0.4,3.5,0.8,4.5c0.7,2.3,1.7,4.2,3.2,5.5c1.4,1.4,3.2,2.3,5.3,2.6c0.4,0,0.6,0.3,0.6,0.7v2.4c0,0.2-0.1,0.4-0.2,0.5
			c-0.1,0.1-0.3,0.2-0.5,0.1C1178.1,1184.8,1175.6,1183.7,1173.6,1181.9z M1185.7,1185.2c-0.2,0-0.3-0.1-0.4-0.2
			c-0.1-0.1-0.1-0.3-0.1-0.5v-2.4c0-0.4,0.2-0.7,0.6-0.7c2.1-0.4,3.8-1.3,5.3-2.6c1.4-1.4,2.5-3.2,3.2-5.4c0.7-2.1,1-5.3,1-9.4
			c0-0.3-0.1-0.4-0.4-0.4h-10.1c-0.2,0-0.3-0.1-0.5-0.2c-0.1-0.1-0.2-0.3-0.2-0.5v-2.2c0-0.2,0.1-0.4,0.2-0.5
			c0.1-0.1,0.3-0.2,0.5-0.2h13.5c0.2,0,0.4,0.1,0.5,0.2c0.1,0.1,0.2,0.3,0.2,0.5v3c0,2.3-0.1,4.4-0.3,6.2c-0.2,1.8-0.5,3.4-0.8,4.6
			c-1,3.2-2.4,5.7-4.5,7.5c-2,1.8-4.5,3-7.5,3.3H1185.7z M1194.7,1146.1c-0.2,0-0.4-0.1-0.5-0.4c-1-2-2.1-3.5-3.5-4.6
			c-1.4-1.1-3-1.9-4.9-2.2c-0.4-0.1-0.6-0.3-0.6-0.7v-2.4c0-0.2,0.1-0.4,0.2-0.5c0.1-0.1,0.3-0.2,0.5-0.1c2.7,0.4,5.1,1.4,7,2.9
			c1.9,1.6,3.4,3.5,4.4,5.8c0.1,0.3,0.1,0.5,0.1,0.6c0,0.2-0.1,0.4-0.3,0.5l-2.1,1.2C1195,1146.1,1194.9,1146.1,1194.7,1146.1z"/>
	</g>
	<g class="st1">
		<path d="M224.9,1300.7c-0.1-0.1-0.2-0.3-0.2-0.5v-47.5c0-0.2,0.1-0.4,0.2-0.5c0.1-0.1,0.3-0.2,0.5-0.2h2.4c0.2,0,0.4,0.1,0.5,0.2
			c0.1,0.1,0.2,0.3,0.2,0.5v47.5c0,0.2-0.1,0.4-0.2,0.5c-0.1,0.1-0.3,0.2-0.5,0.2h-2.4C225.2,1300.9,225.1,1300.8,224.9,1300.7z
			 M232,1300.7c-0.1-0.1-0.2-0.3-0.2-0.5v-2.4c0-0.2,0.1-0.4,0.2-0.5c0.1-0.1,0.3-0.2,0.5-0.2h6.2c2.9,0,5.3-0.6,7.2-1.8
			c1.8-1.2,3.2-3,3.9-5.6c0.4-1.3,0.7-2.9,0.8-4.7c0.2-1.8,0.2-4.7,0.2-8.6c0-3.9-0.1-6.8-0.2-8.6c-0.2-1.8-0.4-3.4-0.8-4.7
			c-0.8-2.5-2.1-4.4-3.9-5.6c-1.8-1.2-4.2-1.8-7.2-1.8h-6.2c-0.2,0-0.3-0.1-0.5-0.2s-0.2-0.3-0.2-0.5v-2.4c0-0.2,0.1-0.4,0.2-0.5
			c0.1-0.1,0.3-0.2,0.5-0.2h6.8c7.4,0,12.1,3.3,14.1,9.9c0.4,1.5,0.7,3.2,0.9,5.2c0.2,2,0.3,5.1,0.3,9.4c0,4.3-0.1,7.4-0.3,9.4
			c-0.2,2-0.5,3.7-0.9,5.2c-1.9,6.6-6.6,9.9-14.1,9.9h-6.8C232.3,1300.9,232.1,1300.8,232,1300.7z"/>
	</g>
	<g class="st1">
		<path d="M319.4,1300.7c-0.1-0.1-0.2-0.3-0.2-0.5v-47.5c0-0.2,0.1-0.4,0.2-0.5c0.1-0.1,0.3-0.2,0.5-0.2h2.4c0.2,0,0.4,0.1,0.5,0.2
			c0.1,0.1,0.2,0.3,0.2,0.5v47.5c0,0.2-0.1,0.4-0.2,0.5c-0.1,0.1-0.3,0.2-0.5,0.2h-2.4C319.7,1300.9,319.6,1300.8,319.4,1300.7z
			 M326.6,1278.7c-0.1-0.1-0.2-0.3-0.2-0.5v-2.4c0-0.2,0.1-0.4,0.2-0.5c0.1-0.1,0.3-0.2,0.5-0.2h7.6c3.2,0,5.6-0.8,7.3-2.5
			c1.7-1.7,2.5-4,2.5-7.2c0-3.1-0.8-5.5-2.5-7.2c-1.7-1.7-4.1-2.5-7.3-2.5H327c-0.2,0-0.3-0.1-0.5-0.2s-0.2-0.3-0.2-0.5v-2.4
			c0-0.2,0.1-0.4,0.2-0.5c0.1-0.1,0.3-0.2,0.5-0.2h7.7c2.8,0,5.2,0.5,7.2,1.6s3.6,2.6,4.6,4.7c1.1,2,1.6,4.5,1.6,7.2
			c0,2.6-0.5,5-1.6,7.1c-1,2.1-2.6,3.7-4.6,4.8c-2.1,1.1-4.6,1.7-7.6,1.6H327C326.9,1278.9,326.7,1278.9,326.6,1278.7z
			 M344.9,1300.8c-0.1-0.1-0.2-0.3-0.3-0.5l-7.4-17.1c-0.1-0.3-0.1-0.6,0-0.7c0.1-0.1,0.2-0.2,0.4-0.2c0.2,0,0.3-0.1,0.3-0.1
			c0.8-0.1,1.5-0.2,1.9-0.4c0.1,0,0.2-0.1,0.3-0.1c0.3,0,0.5,0.2,0.5,0.5l8,17.9c0,0.1,0.1,0.2,0.1,0.4c0,0.3-0.2,0.4-0.5,0.4h-2.9
			C345.2,1300.9,345,1300.9,344.9,1300.8z"/>
	</g>
	<g class="st1">
		<path d="M413.9,1300.7c-0.1-0.1-0.2-0.3-0.2-0.5v-47.5c0-0.2,0.1-0.4,0.2-0.5c0.1-0.1,0.3-0.2,0.5-0.2h2.4c0.2,0,0.4,0.1,0.5,0.2
			c0.1,0.1,0.2,0.3,0.2,0.5v47.5c0,0.2-0.1,0.4-0.2,0.5c-0.1,0.1-0.3,0.2-0.5,0.2h-2.4C414.2,1300.9,414.1,1300.8,413.9,1300.7z
			 M421.1,1255.5c-0.1-0.1-0.2-0.3-0.2-0.5v-2.4c0-0.2,0.1-0.4,0.2-0.5c0.1-0.1,0.3-0.2,0.5-0.2h18.2c0.2,0,0.4,0.1,0.5,0.2
			c0.1,0.1,0.2,0.3,0.2,0.5v2.4c0,0.2-0.1,0.4-0.2,0.5c-0.1,0.1-0.3,0.2-0.5,0.2h-18.2C421.4,1255.8,421.2,1255.7,421.1,1255.5z
			 M421.1,1277.8c-0.1-0.1-0.2-0.3-0.2-0.5v-2.4c0-0.2,0.1-0.4,0.2-0.5c0.1-0.1,0.3-0.2,0.5-0.2h15.1c0.2,0,0.4,0.1,0.5,0.2
			c0.1,0.1,0.2,0.3,0.2,0.5v2.4c0,0.2-0.1,0.4-0.2,0.5c-0.1,0.1-0.3,0.2-0.5,0.2h-15.1C421.4,1278,421.2,1277.9,421.1,1277.8z
			 M421.1,1300.7c-0.1-0.1-0.2-0.3-0.2-0.5v-2.4c0-0.2,0.1-0.4,0.2-0.5c0.1-0.1,0.3-0.2,0.5-0.2h18.2c0.2,0,0.4,0.1,0.5,0.2
			c0.1,0.1,0.2,0.3,0.2,0.5v2.4c0,0.2-0.1,0.4-0.2,0.5c-0.1,0.1-0.3,0.2-0.5,0.2h-18.2C421.4,1300.9,421.2,1300.8,421.1,1300.7z"/>
	</g>
	<g class="st1">
		<path d="M520.4,1300.7c-0.1-0.1-0.2-0.3-0.2-0.5v-47.5c0-0.2,0.1-0.4,0.2-0.5c0.1-0.1,0.3-0.2,0.5-0.2h2.4c0.2,0,0.4,0.1,0.5,0.2
			c0.1,0.1,0.2,0.3,0.2,0.5v47.5c0,0.2-0.1,0.4-0.2,0.5c-0.1,0.1-0.3,0.2-0.5,0.2h-2.4C520.7,1300.9,520.6,1300.8,520.4,1300.7z"/>
	</g>
	<g class="st1">
		<path d="M613,1300.2l-14.6-47.2l-0.1-0.4c0-0.2,0.1-0.3,0.2-0.4c0.1-0.1,0.2-0.1,0.4-0.1h2.3c0.3,0,0.5,0,0.6,0.1
			c0.2,0.1,0.2,0.3,0.3,0.6l14.4,46.9c0.1,0.3,0.1,0.5,0.1,0.6c0,0.4-0.2,0.6-0.6,0.6h-2.1C613.4,1300.9,613.1,1300.7,613,1300.2z
			 M616.7,1289.9c0-0.1-0.1-0.3-0.1-0.5c0-0.1,0-0.4,0.1-0.8l10.7-35.9c0.1-0.3,0.2-0.5,0.3-0.6c0.1-0.1,0.3-0.1,0.6-0.1h2.4
			c0.2,0,0.4,0.1,0.5,0.3c0.1,0.2,0.1,0.4,0,0.7l-12.5,40.8c0,0.1-0.1,0.3-0.2,0.4c-0.1,0.1-0.1,0.1-0.2,0.1c-0.1,0-0.3-0.2-0.5-0.5
			L616.7,1289.9z"/>
	</g>
	<g class="st1">
		<path d="M709.4,1300.7c-0.1-0.1-0.2-0.3-0.2-0.5v-47.5c0-0.2,0.1-0.4,0.2-0.5c0.1-0.1,0.3-0.2,0.5-0.2h2.4c0.2,0,0.4,0.1,0.5,0.2
			c0.1,0.1,0.2,0.3,0.2,0.5v47.5c0,0.2-0.1,0.4-0.2,0.5c-0.1,0.1-0.3,0.2-0.5,0.2h-2.4C709.7,1300.9,709.6,1300.8,709.4,1300.7z"/>
	</g>
	<g class="st1">
		<path d="M791.9,1300.7c-0.1-0.1-0.2-0.3-0.2-0.5v-47.5c0-0.2,0.1-0.4,0.2-0.5c0.1-0.1,0.3-0.2,0.5-0.2h2.4c0.2,0,0.4,0.1,0.5,0.2
			c0.1,0.1,0.2,0.3,0.2,0.5v47.5c0,0.2-0.1,0.4-0.2,0.5c-0.1,0.1-0.3,0.2-0.5,0.2h-2.4C792.2,1300.9,792.1,1300.8,791.9,1300.7z
			 M799.1,1255.5c-0.1-0.1-0.2-0.3-0.2-0.5v-2.4c0-0.2,0.1-0.4,0.2-0.5c0.1-0.1,0.3-0.2,0.5-0.2h18.2c0.2,0,0.4,0.1,0.5,0.2
			c0.1,0.1,0.2,0.3,0.2,0.5v2.4c0,0.2-0.1,0.4-0.2,0.5c-0.1,0.1-0.3,0.2-0.5,0.2h-18.2C799.3,1255.8,799.2,1255.7,799.1,1255.5z
			 M799.1,1277.8c-0.1-0.1-0.2-0.3-0.2-0.5v-2.4c0-0.2,0.1-0.4,0.2-0.5c0.1-0.1,0.3-0.2,0.5-0.2h15.1c0.2,0,0.4,0.1,0.5,0.2
			c0.1,0.1,0.2,0.3,0.2,0.5v2.4c0,0.2-0.1,0.4-0.2,0.5c-0.1,0.1-0.3,0.2-0.5,0.2h-15.1C799.3,1278,799.2,1277.9,799.1,1277.8z
			 M799.1,1300.7c-0.1-0.1-0.2-0.3-0.2-0.5v-2.4c0-0.2,0.1-0.4,0.2-0.5c0.1-0.1,0.3-0.2,0.5-0.2h18.2c0.2,0,0.4,0.1,0.5,0.2
			c0.1,0.1,0.2,0.3,0.2,0.5v2.4c0,0.2-0.1,0.4-0.2,0.5c-0.1,0.1-0.3,0.2-0.5,0.2h-18.2C799.3,1300.9,799.2,1300.8,799.1,1300.7z"/>
	</g>
	<g class="st1">
		<path d="M886.4,1300.7c-0.1-0.1-0.2-0.3-0.2-0.5v-47.5c0-0.2,0.1-0.4,0.2-0.5c0.1-0.1,0.3-0.2,0.5-0.2h2.4c0.2,0,0.4,0.1,0.5,0.2
			c0.1,0.1,0.2,0.3,0.2,0.5v47.5c0,0.2-0.1,0.4-0.2,0.5c-0.1,0.1-0.3,0.2-0.5,0.2h-2.4C886.7,1300.9,886.5,1300.8,886.4,1300.7z
			 M893.6,1278.7c-0.1-0.1-0.2-0.3-0.2-0.5v-2.4c0-0.2,0.1-0.4,0.2-0.5c0.1-0.1,0.3-0.2,0.5-0.2h7.6c3.2,0,5.6-0.8,7.3-2.5
			c1.7-1.7,2.5-4,2.5-7.2c0-3.1-0.8-5.5-2.5-7.2c-1.7-1.7-4.1-2.5-7.3-2.5H894c-0.2,0-0.3-0.1-0.5-0.2s-0.2-0.3-0.2-0.5v-2.4
			c0-0.2,0.1-0.4,0.2-0.5c0.1-0.1,0.3-0.2,0.5-0.2h7.7c2.8,0,5.2,0.5,7.2,1.6s3.6,2.6,4.6,4.7c1.1,2,1.6,4.5,1.6,7.2
			c0,2.6-0.5,5-1.6,7.1c-1,2.1-2.6,3.7-4.6,4.8c-2.1,1.1-4.6,1.7-7.6,1.6H894C893.8,1278.9,893.7,1278.9,893.6,1278.7z
			 M911.9,1300.8c-0.1-0.1-0.2-0.3-0.3-0.5l-7.4-17.1c-0.1-0.3-0.1-0.6,0-0.7c0.1-0.1,0.2-0.2,0.4-0.2c0.2,0,0.3-0.1,0.3-0.1
			c0.8-0.1,1.5-0.2,1.9-0.4c0.1,0,0.2-0.1,0.3-0.1c0.3,0,0.5,0.2,0.5,0.5l8,17.9c0,0.1,0.1,0.2,0.1,0.4c0,0.3-0.2,0.4-0.5,0.4h-2.9
			C912.2,1300.9,912,1300.9,911.9,1300.8z"/>
	</g>
	<g class="st1">
		<path d="M976.2,1255.5c-0.1-0.1-0.2-0.3-0.2-0.5v-2.4c0-0.2,0.1-0.4,0.2-0.5c0.1-0.1,0.3-0.2,0.5-0.2h29.9c0.2,0,0.4,0.1,0.5,0.2
			c0.1,0.1,0.2,0.3,0.2,0.5v2.4c0,0.2-0.1,0.4-0.2,0.5c-0.1,0.1-0.3,0.2-0.5,0.2h-29.9C976.5,1255.8,976.4,1255.7,976.2,1255.5z
			 M989.9,1300.7c-0.1-0.1-0.2-0.3-0.2-0.5v-40c0-0.2,0.1-0.4,0.2-0.5c0.1-0.1,0.3-0.2,0.5-0.2h2.4c0.2,0,0.4,0.1,0.5,0.2
			c0.1,0.1,0.2,0.3,0.2,0.5v40c0,0.2-0.1,0.4-0.2,0.5c-0.1,0.1-0.3,0.2-0.5,0.2h-2.4C990.2,1300.9,990.1,1300.8,989.9,1300.7z"/>
	</g>
	<g class="st1">
		<path d="M1075.4,1300.7c-0.1-0.1-0.2-0.3-0.2-0.5v-47.5c0-0.2,0.1-0.4,0.2-0.5c0.1-0.1,0.3-0.2,0.5-0.2h2.4c0.2,0,0.4,0.1,0.5,0.2
			c0.1,0.1,0.2,0.3,0.2,0.5v47.5c0,0.2-0.1,0.4-0.2,0.5c-0.1,0.1-0.3,0.2-0.5,0.2h-2.4C1075.7,1300.9,1075.5,1300.8,1075.4,1300.7z
			 M1082.6,1255.5c-0.1-0.1-0.2-0.3-0.2-0.5v-2.4c0-0.2,0.1-0.4,0.2-0.5c0.1-0.1,0.3-0.2,0.5-0.2h18.2c0.2,0,0.4,0.1,0.5,0.2
			c0.1,0.1,0.2,0.3,0.2,0.5v2.4c0,0.2-0.1,0.4-0.2,0.5c-0.1,0.1-0.3,0.2-0.5,0.2H1083C1082.8,1255.8,1082.7,1255.7,1082.6,1255.5z
			 M1082.6,1277.8c-0.1-0.1-0.2-0.3-0.2-0.5v-2.4c0-0.2,0.1-0.4,0.2-0.5c0.1-0.1,0.3-0.2,0.5-0.2h15.1c0.2,0,0.4,0.1,0.5,0.2
			c0.1,0.1,0.2,0.3,0.2,0.5v2.4c0,0.2-0.1,0.4-0.2,0.5c-0.1,0.1-0.3,0.2-0.5,0.2H1083C1082.8,1278,1082.7,1277.9,1082.6,1277.8z
			 M1082.6,1300.7c-0.1-0.1-0.2-0.3-0.2-0.5v-2.4c0-0.2,0.1-0.4,0.2-0.5c0.1-0.1,0.3-0.2,0.5-0.2h18.2c0.2,0,0.4,0.1,0.5,0.2
			c0.1,0.1,0.2,0.3,0.2,0.5v2.4c0,0.2-0.1,0.4-0.2,0.5c-0.1,0.1-0.3,0.2-0.5,0.2H1083C1082.8,1300.9,1082.7,1300.8,1082.6,1300.7z"
			/>
	</g>
	<g class="st1">
		<path d="M1169.9,1300.7c-0.1-0.1-0.2-0.3-0.2-0.5v-47.5c0-0.2,0.1-0.4,0.2-0.5c0.1-0.1,0.3-0.2,0.5-0.2h2.4c0.2,0,0.4,0.1,0.5,0.2
			c0.1,0.1,0.2,0.3,0.2,0.5v47.5c0,0.2-0.1,0.4-0.2,0.5c-0.1,0.1-0.3,0.2-0.5,0.2h-2.4C1170.2,1300.9,1170,1300.8,1169.9,1300.7z
			 M1177.1,1300.7c-0.1-0.1-0.2-0.3-0.2-0.5v-2.4c0-0.2,0.1-0.4,0.2-0.5c0.1-0.1,0.3-0.2,0.5-0.2h18.2c0.2,0,0.4,0.1,0.5,0.2
			c0.1,0.1,0.2,0.3,0.2,0.5v2.4c0,0.2-0.1,0.4-0.2,0.5c-0.1,0.1-0.3,0.2-0.5,0.2h-18.2C1177.3,1300.9,1177.2,1300.8,1177.1,1300.7z"
			/>
	</g>
	<g class="st1">
		<path d="M235,1416.4l-14.6-47.2l-0.1-0.4c0-0.2,0.1-0.3,0.2-0.4c0.1-0.1,0.2-0.1,0.4-0.1h2.3c0.3,0,0.5,0,0.6,0.1
			c0.2,0.1,0.2,0.3,0.3,0.6l14.4,46.9c0.1,0.3,0.1,0.5,0.1,0.6c0,0.4-0.2,0.6-0.6,0.6h-2.1C235.4,1417.1,235.1,1416.9,235,1416.4z
			 M238.7,1406.1c0-0.1-0.1-0.3-0.1-0.5c0-0.1,0-0.4,0.1-0.8l10.7-35.9c0.1-0.3,0.2-0.5,0.3-0.6c0.1-0.1,0.3-0.1,0.6-0.1h2.4
			c0.2,0,0.4,0.1,0.5,0.3c0.1,0.2,0.1,0.4,0,0.7l-12.5,40.8c0,0.1-0.1,0.3-0.2,0.4c-0.1,0.1-0.1,0.1-0.2,0.1c-0.1,0-0.3-0.2-0.5-0.5
			L238.7,1406.1z"/>
	</g>
	<g class="st1">
		<path d="M323.1,1414.4c-2-1.8-3.5-4.3-4.4-7.5c-0.4-1.3-0.7-3-0.9-5.1c-0.2-2.1-0.3-5.1-0.3-9.1c0-4,0.1-7.1,0.3-9.1
			c0.2-2.1,0.5-3.8,0.9-5.1c1-3.2,2.4-5.7,4.4-7.5s4.5-2.9,7.4-3.3h0.1c0.2,0,0.3,0.1,0.4,0.2c0.1,0.1,0.2,0.3,0.2,0.5v2.4
			c0,0.4-0.2,0.6-0.6,0.7c-4.2,0.8-7,3.5-8.4,8.1c-0.3,1.1-0.6,2.7-0.8,4.6c-0.2,2-0.3,4.8-0.3,8.5c0,3.6,0.1,6.5,0.3,8.5
			c0.2,2,0.5,3.5,0.8,4.6c1.4,4.7,4.2,7.4,8.4,8.1c0.4,0,0.6,0.3,0.6,0.7v2.4c0,0.2-0.1,0.4-0.2,0.5c-0.1,0.1-0.3,0.2-0.5,0.1
			C327.5,1417.3,325.1,1416.2,323.1,1414.4z M335.2,1417.7c-0.2,0-0.3-0.1-0.4-0.2c-0.1-0.1-0.2-0.3-0.2-0.5v-2.4
			c0-0.4,0.2-0.7,0.6-0.7c4.2-0.8,7-3.5,8.4-8.1c0.3-1.2,0.6-2.7,0.8-4.7c0.2-2,0.3-4.8,0.3-8.4c0-3.6-0.1-6.4-0.3-8.4
			c-0.2-2-0.5-3.6-0.8-4.7c-1.4-4.7-4.2-7.4-8.4-8.1c-0.4-0.1-0.6-0.3-0.6-0.7v-2.4c0-0.2,0.1-0.4,0.2-0.5c0.1-0.1,0.3-0.2,0.5-0.1
			c2.9,0.4,5.4,1.5,7.4,3.3c2,1.8,3.5,4.3,4.5,7.5c0.4,1.4,0.7,3.1,0.9,5.2c0.2,2.1,0.3,5.1,0.3,9.1c0,3.9-0.1,6.9-0.3,9
			c-0.2,2.1-0.5,3.8-0.9,5.2c-1,3.2-2.4,5.7-4.5,7.5c-2,1.8-4.5,2.9-7.4,3.3H335.2z"/>
	</g>
	<g class="st1">
		<path d="M413.9,1416.9c-0.1-0.1-0.2-0.3-0.2-0.5v-47.5c0-0.2,0.1-0.4,0.2-0.5c0.1-0.1,0.3-0.2,0.5-0.2h2.4c0.2,0,0.4,0.1,0.5,0.2
			c0.1,0.1,0.2,0.3,0.2,0.5v47.5c0,0.2-0.1,0.4-0.2,0.5c-0.1,0.1-0.3,0.2-0.5,0.2h-2.4C414.2,1417.1,414.1,1417.1,413.9,1416.9z
			 M421.1,1395c-0.1-0.1-0.2-0.3-0.2-0.5v-2.4c0-0.2,0.1-0.4,0.2-0.5c0.1-0.1,0.3-0.2,0.5-0.2h7.6c3.2,0,5.6-0.8,7.3-2.5
			c1.7-1.7,2.5-4,2.5-7.2s-0.8-5.5-2.5-7.2c-1.7-1.7-4.1-2.5-7.3-2.5h-7.6c-0.2,0-0.3-0.1-0.5-0.2c-0.1-0.1-0.2-0.3-0.2-0.5v-2.4
			c0-0.2,0.1-0.4,0.2-0.5c0.1-0.1,0.3-0.2,0.5-0.2h7.7c2.8,0,5.2,0.5,7.2,1.6s3.6,2.6,4.6,4.7c1.1,2,1.6,4.5,1.6,7.2
			c0,2.6-0.5,5-1.6,7.1c-1,2.1-2.6,3.7-4.6,4.8c-2.1,1.1-4.6,1.7-7.6,1.6h-7.3C421.4,1395.2,421.2,1395.1,421.1,1395z M439.4,1417
			c-0.1-0.1-0.2-0.3-0.3-0.5l-7.4-17.1c-0.1-0.3-0.1-0.6,0-0.7c0.1-0.1,0.2-0.2,0.4-0.2c0.2,0,0.3-0.1,0.3-0.1
			c0.8-0.1,1.5-0.2,1.9-0.4c0.1,0,0.2-0.1,0.3-0.1c0.3,0,0.5,0.2,0.5,0.5l8,17.9c0,0.1,0.1,0.2,0.1,0.4c0,0.3-0.2,0.4-0.5,0.4h-2.9
			C439.7,1417.1,439.5,1417.1,439.4,1417z"/>
	</g>
	<g class="st1">
		<path d="M508.4,1416.9c-0.1-0.1-0.2-0.3-0.2-0.5v-47.5c0-0.2,0.1-0.4,0.2-0.5c0.1-0.1,0.3-0.2,0.5-0.2h2.4c0.2,0,0.4,0.1,0.5,0.2
			c0.1,0.1,0.2,0.3,0.2,0.5v47.5c0,0.2-0.1,0.4-0.2,0.5c-0.1,0.1-0.3,0.2-0.5,0.2h-2.4C508.7,1417.1,508.6,1417.1,508.4,1416.9z
			 M515.6,1371.8c-0.1-0.1-0.2-0.3-0.2-0.5v-2.4c0-0.2,0.1-0.4,0.2-0.5c0.1-0.1,0.3-0.2,0.5-0.2h18.2c0.2,0,0.4,0.1,0.5,0.2
			c0.1,0.1,0.2,0.3,0.2,0.5v2.4c0,0.2-0.1,0.4-0.2,0.5c-0.1,0.1-0.3,0.2-0.5,0.2H516C515.8,1372,515.7,1371.9,515.6,1371.8z
			 M515.6,1394.5c-0.1-0.1-0.2-0.3-0.2-0.5v-2.4c0-0.2,0.1-0.4,0.2-0.5c0.1-0.1,0.3-0.2,0.5-0.2h15.1c0.2,0,0.4,0.1,0.5,0.2
			c0.1,0.1,0.2,0.3,0.2,0.5v2.4c0,0.2-0.1,0.4-0.2,0.5c-0.1,0.1-0.3,0.2-0.5,0.2H516C515.8,1394.8,515.7,1394.7,515.6,1394.5z"/>
	</g>
	<g class="st1">
		<path d="M605.6,1412.6c-2.2-3-3.3-7.1-3.3-12.4v-31.3c0-0.2,0.1-0.4,0.2-0.5c0.1-0.1,0.3-0.2,0.5-0.2h2.4c0.2,0,0.4,0.1,0.5,0.2
			c0.1,0.1,0.2,0.3,0.2,0.5v31.3c0,4,0.8,7.2,2.3,9.5c1.5,2.3,3.8,3.7,6.7,4.2c0.4,0,0.6,0.3,0.6,0.7v2.4c0,0.2-0.1,0.4-0.2,0.5
			c-0.1,0.1-0.3,0.2-0.5,0.1C610.8,1417.3,607.7,1415.6,605.6,1412.6z M619.6,1417.7c-0.2,0-0.3-0.1-0.4-0.2
			c-0.1-0.1-0.2-0.3-0.2-0.5v-2.4c0-0.4,0.2-0.7,0.6-0.7c2.9-0.5,5.1-1.9,6.7-4.2c1.5-2.3,2.3-5.5,2.3-9.5v-31.3
			c0-0.2,0.1-0.4,0.2-0.5c0.1-0.1,0.3-0.2,0.5-0.2h2.4c0.2,0,0.4,0.1,0.5,0.2c0.1,0.1,0.2,0.3,0.2,0.5v31.3c0,5.3-1.1,9.4-3.2,12.3
			c-2.2,3-5.3,4.7-9.3,5.1H619.6z"/>
	</g>
	<g class="st1">
		<path d="M723.8,1417c-0.2-0.1-0.4-0.3-0.5-0.6l-25.9-46.6c-0.2-0.2-0.3-0.5-0.3-0.9c0-0.5,0.2-0.8,0.7-0.8h2.1
			c0.3,0,0.5,0,0.6,0.1c0.2,0.1,0.3,0.3,0.5,0.6l25.9,46.8c0.1,0.1,0.2,0.3,0.2,0.5c0,0.2,0,0.3,0,0.5c-0.1,0.3-0.3,0.5-0.6,0.5
			h-2.2C724.2,1417.1,724,1417.1,723.8,1417z M697.4,1416.9c-0.1-0.1-0.2-0.3-0.2-0.5v-38.8c0-0.4,0.1-0.6,0.3-0.6
			c0.2,0,0.4,0.1,0.5,0.4l2.5,4.5c0.1,0.3,0.2,0.6,0.2,0.9v33.6c0,0.2-0.1,0.4-0.2,0.5c-0.1,0.1-0.3,0.2-0.5,0.2h-2.2
			C697.7,1417.1,697.6,1417.1,697.4,1416.9z M724,1403.3c-0.1-0.3-0.2-0.6-0.2-0.9v-33.5c0-0.2,0.1-0.4,0.2-0.5
			c0.1-0.1,0.3-0.2,0.5-0.2h2.2c0.2,0,0.4,0.1,0.5,0.2c0.1,0.1,0.2,0.3,0.2,0.5v38.7c0,0.4-0.1,0.6-0.3,0.6c-0.2,0-0.3-0.1-0.5-0.4
			L724,1403.3z"/>
	</g>
	<g class="st1">
		<path d="M791.9,1416.9c-0.1-0.1-0.2-0.3-0.2-0.5v-47.5c0-0.2,0.1-0.4,0.2-0.5c0.1-0.1,0.3-0.2,0.5-0.2h2.4c0.2,0,0.4,0.1,0.5,0.2
			c0.1,0.1,0.2,0.3,0.2,0.5v47.5c0,0.2-0.1,0.4-0.2,0.5c-0.1,0.1-0.3,0.2-0.5,0.2h-2.4C792.2,1417.1,792.1,1417.1,791.9,1416.9z
			 M799.2,1397.3c-0.2,0-0.3-0.2-0.3-0.6v-3.7c0-0.2,0.1-0.5,0.3-0.9l17.3-23.2c0.2-0.3,0.4-0.5,0.6-0.6c0.2-0.1,0.3-0.1,0.6-0.1h3
			c0.2,0,0.4,0.1,0.4,0.3c0.1,0.2,0,0.3-0.1,0.5l-21.2,28C799.5,1397.2,799.4,1397.3,799.2,1397.3z M818.2,1417
			c-0.1-0.1-0.3-0.3-0.4-0.6l-11.3-21.8c-0.1-0.2-0.1-0.3-0.1-0.4c0-0.2,0.1-0.4,0.2-0.6l1.6-2.1c0.2-0.2,0.3-0.3,0.5-0.3
			c0.2,0,0.3,0.1,0.5,0.4l12.9,24.8l0.1,0.3c0,0.3-0.1,0.4-0.4,0.4h-2.9C818.5,1417.1,818.4,1417.1,818.2,1417z"/>
	</g>
	<g class="st1">
		<path d="M912.8,1417c-0.2-0.1-0.4-0.3-0.5-0.6l-25.9-46.6c-0.2-0.2-0.3-0.5-0.3-0.9c0-0.5,0.2-0.8,0.7-0.8h2.1
			c0.3,0,0.5,0,0.6,0.1c0.2,0.1,0.3,0.3,0.5,0.6l25.9,46.8c0.1,0.1,0.2,0.3,0.2,0.5c0,0.2,0,0.3,0,0.5c-0.1,0.3-0.3,0.5-0.6,0.5
			h-2.2C913.2,1417.1,913,1417.1,912.8,1417z M886.4,1416.9c-0.1-0.1-0.2-0.3-0.2-0.5v-38.8c0-0.4,0.1-0.6,0.3-0.6
			c0.2,0,0.4,0.1,0.5,0.4l2.5,4.5c0.1,0.3,0.2,0.6,0.2,0.9v33.6c0,0.2-0.1,0.4-0.2,0.5c-0.1,0.1-0.3,0.2-0.5,0.2h-2.2
			C886.7,1417.1,886.5,1417.1,886.4,1416.9z M913,1403.3c-0.1-0.3-0.2-0.6-0.2-0.9v-33.5c0-0.2,0.1-0.4,0.2-0.5
			c0.1-0.1,0.3-0.2,0.5-0.2h2.2c0.2,0,0.4,0.1,0.5,0.2c0.1,0.1,0.2,0.3,0.2,0.5v38.7c0,0.4-0.1,0.6-0.3,0.6c-0.2,0-0.3-0.1-0.5-0.4
			L913,1403.3z"/>
	</g>
	<g class="st1">
		<path d="M976.7,1416.9c-0.1-0.1-0.1-0.3,0-0.5l13.4-41c0.1-0.3,0.3-0.4,0.5-0.4c0.1,0,0.2,0,0.2,0.1c0.1,0.1,0.1,0.2,0.2,0.3
			l1.2,3.9c0.1,0.1,0.1,0.3,0.1,0.5c0,0.2,0,0.4-0.1,0.5l-6.6,20.2h12.7c0.4,0,0.6,0.2,0.8,0.6l0.8,2.4l0.1,0.3
			c0,0.1-0.1,0.3-0.2,0.4c-0.1,0.1-0.2,0.1-0.4,0.1h-14.9l-3.9,12.2c-0.1,0.3-0.2,0.5-0.3,0.6c-0.1,0.1-0.3,0.1-0.5,0.1h-2.5
			C976.9,1417.1,976.7,1417.1,976.7,1416.9z M1007.6,1416.6l-15.2-47.5l-0.1-0.3c0-0.2,0.1-0.3,0.2-0.4c0.1-0.1,0.2-0.1,0.4-0.1h2.3
			c0.4,0,0.7,0.2,0.8,0.7l15.3,47.5l0.1,0.2c0,0.1,0,0.3-0.1,0.4c-0.1,0.1-0.2,0.1-0.4,0.1h-2.5
			C1007.9,1417.1,1007.7,1417,1007.6,1416.6z"/>
	</g>
	<g class="st1">
		<path d="M1078.9,1414.4c-1.9-1.8-3.4-4.3-4.3-7.5c-0.4-1.3-0.7-3-0.9-5.1c-0.2-2.1-0.3-5.2-0.3-9.3c0-4.1,0.1-7.2,0.3-9.3
			c0.2-2.1,0.5-3.8,0.9-5.1c1-3.2,2.4-5.7,4.3-7.5c1.9-1.8,4.3-2.9,7.1-3.3h0.1c0.2,0,0.3,0.1,0.4,0.2c0.1,0.1,0.2,0.3,0.2,0.5v2.4
			c0,0.4-0.2,0.7-0.6,0.8c-2,0.3-3.6,1.2-5,2.5c-1.3,1.3-2.3,3.1-3.1,5.4c-0.3,1.1-0.5,2.6-0.7,4.5c-0.2,1.9-0.3,4.9-0.3,8.7
			c0,3.9,0.1,6.8,0.3,8.7c0.2,1.9,0.4,3.4,0.7,4.5c0.7,2.3,1.8,4.1,3.1,5.5s3,2.2,5,2.5c0.4,0.1,0.6,0.3,0.6,0.7v2.4
			c0,0.2-0.1,0.4-0.2,0.5c-0.1,0.1-0.3,0.2-0.5,0.1C1083.2,1417.3,1080.8,1416.2,1078.9,1414.4z M1099.2,1378.6
			c-0.3,0-0.5-0.1-0.6-0.4c-1.9-3.8-4.5-6.1-7.9-6.8c-0.4-0.1-0.6-0.3-0.6-0.7v-2.4c0-0.2,0.1-0.4,0.2-0.6c0.1-0.1,0.3-0.2,0.5-0.1
			c2.5,0.4,4.6,1.3,6.5,2.8c1.9,1.5,3.3,3.5,4.4,6c0,0.1,0.1,0.2,0.1,0.4c0,0.2-0.1,0.4-0.3,0.5l-2.1,1.2
			C1099.4,1378.6,1099.3,1378.6,1099.2,1378.6z M1090.8,1417.7c-0.2,0-0.3-0.1-0.4-0.2c-0.1-0.1-0.2-0.3-0.2-0.5v-2.4
			c0-0.4,0.2-0.7,0.6-0.7c3.4-0.7,6-2.9,7.9-6.8c0.1-0.2,0.2-0.3,0.4-0.4c0.2-0.1,0.3-0.1,0.5,0l2.1,1.2c0.3,0.2,0.4,0.5,0.2,0.9
			c-1.1,2.5-2.6,4.6-4.4,6c-1.9,1.5-4,2.4-6.5,2.8H1090.8z"/>
	</g>
	<g class="st1">
		<path d="M1169.9,1416.9c-0.1-0.1-0.2-0.3-0.2-0.5v-47.5c0-0.2,0.1-0.4,0.2-0.5c0.1-0.1,0.3-0.2,0.5-0.2h2.4c0.2,0,0.4,0.1,0.5,0.2
			c0.1,0.1,0.2,0.3,0.2,0.5v47.5c0,0.2-0.1,0.4-0.2,0.5c-0.1,0.1-0.3,0.2-0.5,0.2h-2.4C1170.2,1417.1,1170,1417.1,1169.9,1416.9z
			 M1176.8,1394c-0.1-0.1-0.2-0.3-0.2-0.5v-2.4c0-0.2,0.1-0.4,0.2-0.5c0.1-0.1,0.3-0.2,0.5-0.2h14.9c0.2,0,0.4,0.1,0.5,0.2
			c0.1,0.1,0.2,0.3,0.2,0.5v2.4c0,0.2-0.1,0.4-0.2,0.5c-0.1,0.1-0.3,0.2-0.5,0.2h-14.9C1177.1,1394.2,1176.9,1394.2,1176.8,1394z
			 M1196.2,1416.9c-0.1-0.1-0.2-0.3-0.2-0.5v-47.5c0-0.2,0.1-0.4,0.2-0.5c0.1-0.1,0.3-0.2,0.5-0.2h2.4c0.2,0,0.4,0.1,0.5,0.2
			c0.1,0.1,0.2,0.3,0.2,0.5v47.5c0,0.2-0.1,0.4-0.2,0.5c-0.1,0.1-0.3,0.2-0.5,0.2h-2.4C1196.5,1417.1,1196.4,1417.1,1196.2,1416.9z"
			/>
	</g>
	<g class="st1">
		<path d="M224.9,1533.2c-0.1-0.1-0.2-0.3-0.2-0.5v-47.5c0-0.2,0.1-0.4,0.2-0.5c0.1-0.1,0.3-0.2,0.5-0.2h2.4c0.2,0,0.4,0.1,0.5,0.2
			c0.1,0.1,0.2,0.3,0.2,0.5v47.5c0,0.2-0.1,0.4-0.2,0.5c-0.1,0.1-0.3,0.2-0.5,0.2h-2.4C225.2,1533.4,225.1,1533.3,224.9,1533.2z
			 M231.8,1510.3c-0.1-0.1-0.2-0.3-0.2-0.5v-2.4c0-0.2,0.1-0.4,0.2-0.5c0.1-0.1,0.3-0.2,0.5-0.2h14.9c0.2,0,0.4,0.1,0.5,0.2
			c0.1,0.1,0.2,0.3,0.2,0.5v2.4c0,0.2-0.1,0.4-0.2,0.5c-0.1,0.1-0.3,0.2-0.5,0.2h-14.9C232.1,1510.5,231.9,1510.4,231.8,1510.3z
			 M251.2,1533.2c-0.1-0.1-0.2-0.3-0.2-0.5v-47.5c0-0.2,0.1-0.4,0.2-0.5c0.1-0.1,0.3-0.2,0.5-0.2h2.4c0.2,0,0.4,0.1,0.5,0.2
			c0.1,0.1,0.2,0.3,0.2,0.5v47.5c0,0.2-0.1,0.4-0.2,0.5c-0.1,0.1-0.3,0.2-0.5,0.2h-2.4C251.5,1533.4,251.4,1533.3,251.2,1533.2z"/>
	</g>
	<g class="st1">
		<path d="M315.2,1533.2c-0.1-0.1-0.1-0.3,0-0.5l13.4-41c0.1-0.3,0.3-0.4,0.5-0.4c0.1,0,0.2,0,0.2,0.1c0.1,0.1,0.1,0.2,0.2,0.3
			l1.2,3.9c0.1,0.1,0.1,0.3,0.1,0.5c0,0.2,0,0.4-0.1,0.5l-6.6,20.2h12.7c0.4,0,0.6,0.2,0.8,0.6l0.8,2.4l0.1,0.3
			c0,0.1-0.1,0.3-0.2,0.4c-0.1,0.1-0.2,0.1-0.4,0.1h-14.9l-3.9,12.2c-0.1,0.3-0.2,0.5-0.3,0.6c-0.1,0.1-0.3,0.1-0.5,0.1h-2.5
			C315.4,1533.4,315.2,1533.3,315.2,1533.2z M346.1,1532.8l-15.2-47.5l-0.1-0.3c0-0.2,0.1-0.3,0.2-0.4c0.1-0.1,0.2-0.1,0.4-0.1h2.3
			c0.4,0,0.7,0.2,0.8,0.7l15.3,47.5l0.1,0.2c0,0.1,0,0.3-0.1,0.4c-0.1,0.1-0.2,0.1-0.4,0.1h-2.5
			C346.4,1533.4,346.2,1533.2,346.1,1532.8z"/>
	</g>
	<g class="st1">
		<path d="M413.9,1533.2c-0.1-0.1-0.2-0.3-0.2-0.5v-47.5c0-0.2,0.1-0.4,0.2-0.5c0.1-0.1,0.3-0.2,0.5-0.2h2.4c0.2,0,0.4,0.1,0.5,0.2
			c0.1,0.1,0.2,0.3,0.2,0.5v47.5c0,0.2-0.1,0.4-0.2,0.5c-0.1,0.1-0.3,0.2-0.5,0.2h-2.4C414.2,1533.4,414.1,1533.3,413.9,1533.2z
			 M421.1,1533.2c-0.1-0.1-0.2-0.3-0.2-0.5v-2.4c0-0.2,0.1-0.4,0.2-0.5c0.1-0.1,0.3-0.2,0.5-0.2h18.2c0.2,0,0.4,0.1,0.5,0.2
			c0.1,0.1,0.2,0.3,0.2,0.5v2.4c0,0.2-0.1,0.4-0.2,0.5c-0.1,0.1-0.3,0.2-0.5,0.2h-18.2C421.4,1533.4,421.2,1533.3,421.1,1533.2z"/>
	</g>
	<g class="st1">
		<path d="M508.4,1533.2c-0.1-0.1-0.2-0.3-0.2-0.5v-47.5c0-0.2,0.1-0.4,0.2-0.5c0.1-0.1,0.3-0.2,0.5-0.2h2.4c0.2,0,0.4,0.1,0.5,0.2
			c0.1,0.1,0.2,0.3,0.2,0.5v47.5c0,0.2-0.1,0.4-0.2,0.5c-0.1,0.1-0.3,0.2-0.5,0.2h-2.4C508.7,1533.4,508.6,1533.3,508.4,1533.2z
			 M532.2,1504.8c-0.3-0.2-0.7-0.3-1.1-0.5c-0.5-0.2-0.6-0.6-0.4-1.1c1.4-2.1,2.1-4.2,2.1-6.6c0-1.6-0.4-3-1.1-4.3s-1.8-2.3-3.2-3.1
			c-1.4-0.8-3-1.2-4.9-1.2H516c-0.2,0-0.3-0.1-0.5-0.2c-0.1-0.1-0.2-0.3-0.2-0.5v-2.3c0-0.2,0.1-0.4,0.2-0.5
			c0.1-0.1,0.3-0.2,0.5-0.2h7.7c2.8,0,5.1,0.5,7,1.6c1.9,1.1,3.3,2.5,4.3,4.4s1.5,4,1.5,6.4c0,1.5-0.2,3-0.7,4.5
			c-0.5,1.4-1.1,2.7-1.9,3.8c-0.2,0.3-0.5,0.3-0.8,0.1C532.8,1505.1,532.6,1505,532.2,1504.8z M515.6,1533.2
			c-0.1-0.1-0.2-0.3-0.2-0.5v-2.3c0-0.2,0.1-0.4,0.2-0.5c0.1-0.1,0.3-0.2,0.5-0.2h7.9c3.1,0,5.5-0.9,7.1-2.6
			c1.6-1.7,2.5-4.1,2.5-7.1c0-3-0.8-5.3-2.5-7.1c-1.7-1.7-4-2.6-7.1-2.6H516c-0.2,0-0.3-0.1-0.5-0.2c-0.1-0.1-0.2-0.3-0.2-0.5v-2.3
			c0-0.2,0.1-0.4,0.2-0.5s0.3-0.2,0.5-0.2h7.7c2.9,0,5.3,0.5,7.3,1.6c2,1.1,3.6,2.6,4.6,4.6c1.1,2,1.6,4.4,1.6,7.2
			c0,2.8-0.5,5.2-1.6,7.2c-1.1,2-2.6,3.6-4.6,4.6c-2,1.1-4.5,1.6-7.3,1.6H516C515.8,1533.4,515.7,1533.3,515.6,1533.2z"/>
	</g>
	<g class="st1">
		<path d="M598.7,1533.2c-0.1-0.1-0.1-0.3,0-0.5l13.4-41c0.1-0.3,0.3-0.4,0.5-0.4c0.1,0,0.2,0,0.2,0.1c0.1,0.1,0.1,0.2,0.2,0.3
			l1.2,3.9c0.1,0.1,0.1,0.3,0.1,0.5c0,0.2,0,0.4-0.1,0.5l-6.6,20.2h12.7c0.4,0,0.6,0.2,0.8,0.6l0.8,2.4l0.1,0.3
			c0,0.1-0.1,0.3-0.2,0.4c-0.1,0.1-0.2,0.1-0.4,0.1h-14.9l-3.9,12.2c-0.1,0.3-0.2,0.5-0.3,0.6c-0.1,0.1-0.3,0.1-0.5,0.1h-2.5
			C598.9,1533.4,598.7,1533.3,598.7,1533.2z M629.6,1532.8l-15.2-47.5l-0.1-0.3c0-0.2,0.1-0.3,0.2-0.4c0.1-0.1,0.2-0.1,0.4-0.1h2.3
			c0.4,0,0.7,0.2,0.8,0.7l15.3,47.5l0.1,0.2c0,0.1,0,0.3-0.1,0.4c-0.1,0.1-0.2,0.1-0.4,0.1h-2.5
			C629.9,1533.4,629.7,1533.2,629.6,1532.8z"/>
	</g>
	<g class="st1">
		<path d="M697.4,1533.2c-0.1-0.1-0.2-0.3-0.2-0.5v-47.5c0-0.2,0.1-0.4,0.2-0.5c0.1-0.1,0.3-0.2,0.5-0.2h2.4c0.2,0,0.4,0.1,0.5,0.2
			c0.1,0.1,0.2,0.3,0.2,0.5v47.5c0,0.2-0.1,0.4-0.2,0.5c-0.1,0.1-0.3,0.2-0.5,0.2h-2.4C697.7,1533.4,697.6,1533.3,697.4,1533.2z
			 M704.6,1488c-0.1-0.1-0.2-0.3-0.2-0.5v-2.4c0-0.2,0.1-0.4,0.2-0.5c0.1-0.1,0.3-0.2,0.5-0.2h18.2c0.2,0,0.4,0.1,0.5,0.2
			c0.1,0.1,0.2,0.3,0.2,0.5v2.4c0,0.2-0.1,0.4-0.2,0.5c-0.1,0.1-0.3,0.2-0.5,0.2H705C704.8,1488.2,704.7,1488.2,704.6,1488z
			 M704.6,1510.3c-0.1-0.1-0.2-0.3-0.2-0.5v-2.4c0-0.2,0.1-0.4,0.2-0.5c0.1-0.1,0.3-0.2,0.5-0.2h15.1c0.2,0,0.4,0.1,0.5,0.2
			c0.1,0.1,0.2,0.3,0.2,0.5v2.4c0,0.2-0.1,0.4-0.2,0.5c-0.1,0.1-0.3,0.2-0.5,0.2H705C704.8,1510.5,704.7,1510.4,704.6,1510.3z
			 M704.6,1533.2c-0.1-0.1-0.2-0.3-0.2-0.5v-2.4c0-0.2,0.1-0.4,0.2-0.5c0.1-0.1,0.3-0.2,0.5-0.2h18.2c0.2,0,0.4,0.1,0.5,0.2
			c0.1,0.1,0.2,0.3,0.2,0.5v2.4c0,0.2-0.1,0.4-0.2,0.5c-0.1,0.1-0.3,0.2-0.5,0.2H705C704.8,1533.4,704.7,1533.3,704.6,1533.2z"/>
	</g>
	<g class="st1">
		<path d="M791.9,1533.2c-0.1-0.1-0.2-0.3-0.2-0.5v-47.5c0-0.2,0.1-0.4,0.2-0.5c0.1-0.1,0.3-0.2,0.5-0.2h2.4c0.2,0,0.4,0.1,0.5,0.2
			c0.1,0.1,0.2,0.3,0.2,0.5v47.5c0,0.2-0.1,0.4-0.2,0.5c-0.1,0.1-0.3,0.2-0.5,0.2h-2.4C792.2,1533.4,792.1,1533.3,791.9,1533.2z
			 M799.1,1533.2c-0.1-0.1-0.2-0.3-0.2-0.5v-2.4c0-0.2,0.1-0.4,0.2-0.5c0.1-0.1,0.3-0.2,0.5-0.2h18.2c0.2,0,0.4,0.1,0.5,0.2
			c0.1,0.1,0.2,0.3,0.2,0.5v2.4c0,0.2-0.1,0.4-0.2,0.5c-0.1,0.1-0.3,0.2-0.5,0.2h-18.2C799.3,1533.4,799.2,1533.3,799.1,1533.2z"/>
	</g>
	<g class="st1">
		<path d="M886.4,1533.2c-0.1-0.1-0.2-0.3-0.2-0.5v-47.5c0-0.2,0.1-0.4,0.2-0.5c0.1-0.1,0.3-0.2,0.5-0.2h2.4c0.2,0,0.4,0.1,0.5,0.2
			c0.1,0.1,0.2,0.3,0.2,0.5v47.5c0,0.2-0.1,0.4-0.2,0.5c-0.1,0.1-0.3,0.2-0.5,0.2h-2.4C886.7,1533.4,886.5,1533.3,886.4,1533.2z
			 M893.6,1488c-0.1-0.1-0.2-0.3-0.2-0.5v-2.4c0-0.2,0.1-0.4,0.2-0.5c0.1-0.1,0.3-0.2,0.5-0.2h18.2c0.2,0,0.4,0.1,0.5,0.2
			c0.1,0.1,0.2,0.3,0.2,0.5v2.4c0,0.2-0.1,0.4-0.2,0.5c-0.1,0.1-0.3,0.2-0.5,0.2H894C893.8,1488.2,893.7,1488.2,893.6,1488z
			 M893.6,1510.8c-0.1-0.1-0.2-0.3-0.2-0.5v-2.4c0-0.2,0.1-0.4,0.2-0.5c0.1-0.1,0.3-0.2,0.5-0.2h15.1c0.2,0,0.4,0.1,0.5,0.2
			c0.1,0.1,0.2,0.3,0.2,0.5v2.4c0,0.2-0.1,0.4-0.2,0.5c-0.1,0.1-0.3,0.2-0.5,0.2H894C893.8,1511,893.7,1510.9,893.6,1510.8z"/>
	</g>
	<g class="st1">
		<path d="M983.5,1528.9c-2.2-3-3.3-7.1-3.3-12.4v-31.3c0-0.2,0.1-0.4,0.2-0.5c0.1-0.1,0.3-0.2,0.5-0.2h2.4c0.2,0,0.4,0.1,0.5,0.2
			c0.1,0.1,0.2,0.3,0.2,0.5v31.3c0,4,0.8,7.2,2.3,9.5c1.5,2.3,3.8,3.7,6.7,4.2c0.4,0,0.6,0.3,0.6,0.7v2.4c0,0.2-0.1,0.4-0.2,0.5
			c-0.1,0.1-0.3,0.2-0.5,0.1C988.8,1533.5,985.7,1531.8,983.5,1528.9z M987,1476.5c-0.1-0.1-0.2-0.3-0.2-0.5v-3.9
			c0-0.2,0.1-0.4,0.2-0.5s0.3-0.2,0.5-0.2h2.5c0.2,0,0.4,0.1,0.5,0.2c0.1,0.1,0.2,0.3,0.2,0.5v3.9c0,0.2-0.1,0.4-0.2,0.5
			c-0.1,0.1-0.3,0.2-0.5,0.2h-2.5C987.3,1476.7,987.2,1476.7,987,1476.5z M997.5,1534c-0.2,0-0.3-0.1-0.4-0.2
			c-0.1-0.1-0.2-0.3-0.2-0.5v-2.4c0-0.4,0.2-0.7,0.6-0.7c2.9-0.5,5.1-1.9,6.7-4.2c1.5-2.3,2.3-5.5,2.3-9.5v-31.3
			c0-0.2,0.1-0.4,0.2-0.5c0.1-0.1,0.3-0.2,0.5-0.2h2.4c0.2,0,0.4,0.1,0.5,0.2c0.1,0.1,0.2,0.3,0.2,0.5v31.3c0,5.3-1.1,9.4-3.2,12.3
			c-2.2,3-5.3,4.7-9.3,5.1H997.5z M1000,1476.5c-0.1-0.1-0.2-0.3-0.2-0.5v-3.9c0-0.2,0.1-0.4,0.2-0.5s0.3-0.2,0.5-0.2h2.5
			c0.2,0,0.4,0.1,0.5,0.2c0.1,0.1,0.2,0.3,0.2,0.5v3.9c0,0.2-0.1,0.4-0.2,0.5c-0.1,0.1-0.3,0.2-0.5,0.2h-2.5
			C1000.3,1476.7,1000.1,1476.7,1000,1476.5z"/>
	</g>
	<g class="st1">
		<path d="M1101.8,1533.2c-0.2-0.1-0.4-0.3-0.5-0.6l-25.9-46.6c-0.2-0.2-0.3-0.5-0.3-0.9c0-0.5,0.2-0.8,0.7-0.8h2.1
			c0.3,0,0.5,0,0.6,0.1c0.2,0.1,0.3,0.3,0.5,0.6l25.9,46.8c0.1,0.1,0.2,0.3,0.2,0.5c0,0.2,0,0.3,0,0.5c-0.1,0.3-0.3,0.5-0.6,0.5
			h-2.2C1102.2,1533.4,1102,1533.3,1101.8,1533.2z M1075.4,1533.2c-0.1-0.1-0.2-0.3-0.2-0.5v-38.8c0-0.4,0.1-0.6,0.3-0.6
			c0.2,0,0.4,0.1,0.5,0.4l2.5,4.5c0.1,0.3,0.2,0.6,0.2,0.9v33.6c0,0.2-0.1,0.4-0.2,0.5c-0.1,0.1-0.3,0.2-0.5,0.2h-2.2
			C1075.7,1533.4,1075.5,1533.3,1075.4,1533.2z M1102,1519.6c-0.1-0.3-0.2-0.6-0.2-0.9v-33.5c0-0.2,0.1-0.4,0.2-0.5
			c0.1-0.1,0.3-0.2,0.5-0.2h2.2c0.2,0,0.4,0.1,0.5,0.2c0.1,0.1,0.2,0.3,0.2,0.5v38.7c0,0.4-0.1,0.6-0.3,0.6c-0.2,0-0.3-0.1-0.5-0.4
			L1102,1519.6z"/>
	</g>
	<g class="st1">
		<path d="M1169.9,1533.2c-0.1-0.1-0.2-0.3-0.2-0.5v-47.5c0-0.2,0.1-0.4,0.2-0.5c0.1-0.1,0.3-0.2,0.5-0.2h2.4c0.2,0,0.4,0.1,0.5,0.2
			c0.1,0.1,0.2,0.3,0.2,0.5v47.5c0,0.2-0.1,0.4-0.2,0.5c-0.1,0.1-0.3,0.2-0.5,0.2h-2.4C1170.2,1533.4,1170,1533.3,1169.9,1533.2z
			 M1177.1,1488c-0.1-0.1-0.2-0.3-0.2-0.5v-2.4c0-0.2,0.1-0.4,0.2-0.5c0.1-0.1,0.3-0.2,0.5-0.2h18.2c0.2,0,0.4,0.1,0.5,0.2
			c0.1,0.1,0.2,0.3,0.2,0.5v2.4c0,0.2-0.1,0.4-0.2,0.5c-0.1,0.1-0.3,0.2-0.5,0.2h-18.2C1177.3,1488.2,1177.2,1488.2,1177.1,1488z
			 M1177.1,1510.8c-0.1-0.1-0.2-0.3-0.2-0.5v-2.4c0-0.2,0.1-0.4,0.2-0.5c0.1-0.1,0.3-0.2,0.5-0.2h15.1c0.2,0,0.4,0.1,0.5,0.2
			c0.1,0.1,0.2,0.3,0.2,0.5v2.4c0,0.2-0.1,0.4-0.2,0.5c-0.1,0.1-0.3,0.2-0.5,0.2h-15.1C1177.3,1511,1177.2,1510.9,1177.1,1510.8z"/>
	</g>
	<g class="st1">
		<path d="M224.9,1649.4c-0.1-0.1-0.2-0.3-0.2-0.5v-47.5c0-0.2,0.1-0.4,0.2-0.5c0.1-0.1,0.3-0.2,0.5-0.2h2.4c0.2,0,0.4,0.1,0.5,0.2
			c0.1,0.1,0.2,0.3,0.2,0.5v47.5c0,0.2-0.1,0.4-0.2,0.5c-0.1,0.1-0.3,0.2-0.5,0.2h-2.4C225.2,1649.6,225.1,1649.6,224.9,1649.4z
			 M232.1,1604.3c-0.1-0.1-0.2-0.3-0.2-0.5v-2.4c0-0.2,0.1-0.4,0.2-0.5c0.1-0.1,0.3-0.2,0.5-0.2h18.2c0.2,0,0.4,0.1,0.5,0.2
			c0.1,0.1,0.2,0.3,0.2,0.5v2.4c0,0.2-0.1,0.4-0.2,0.5c-0.1,0.1-0.3,0.2-0.5,0.2h-18.2C232.4,1604.5,232.2,1604.4,232.1,1604.3z
			 M232.1,1626.5c-0.1-0.1-0.2-0.3-0.2-0.5v-2.4c0-0.2,0.1-0.4,0.2-0.5c0.1-0.1,0.3-0.2,0.5-0.2h15.1c0.2,0,0.4,0.1,0.5,0.2
			c0.1,0.1,0.2,0.3,0.2,0.5v2.4c0,0.2-0.1,0.4-0.2,0.5c-0.1,0.1-0.3,0.2-0.5,0.2h-15.1C232.4,1626.7,232.2,1626.7,232.1,1626.5z
			 M232.1,1649.4c-0.1-0.1-0.2-0.3-0.2-0.5v-2.4c0-0.2,0.1-0.4,0.2-0.5c0.1-0.1,0.3-0.2,0.5-0.2h18.2c0.2,0,0.4,0.1,0.5,0.2
			c0.1,0.1,0.2,0.3,0.2,0.5v2.4c0,0.2-0.1,0.4-0.2,0.5c-0.1,0.1-0.3,0.2-0.5,0.2h-18.2C232.4,1649.6,232.2,1649.6,232.1,1649.4z"/>
	</g>
	<g class="st1">
		<path d="M331.4,1649.4c-0.1-0.1-0.2-0.3-0.2-0.5v-47.5c0-0.2,0.1-0.4,0.2-0.5c0.1-0.1,0.3-0.2,0.5-0.2h2.4c0.2,0,0.4,0.1,0.5,0.2
			c0.1,0.1,0.2,0.3,0.2,0.5v47.5c0,0.2-0.1,0.4-0.2,0.5c-0.1,0.1-0.3,0.2-0.5,0.2h-2.4C331.7,1649.6,331.6,1649.6,331.4,1649.4z"/>
	</g>
	<g class="st1">
		<path d="M440.3,1649.5c-0.2-0.1-0.4-0.3-0.5-0.6l-25.9-46.6c-0.2-0.2-0.3-0.5-0.3-0.9c0-0.5,0.2-0.8,0.7-0.8h2.1
			c0.3,0,0.5,0,0.6,0.1c0.2,0.1,0.3,0.3,0.5,0.6l25.9,46.8c0.1,0.1,0.2,0.3,0.2,0.5c0,0.2,0,0.3,0,0.5c-0.1,0.3-0.3,0.5-0.6,0.5
			h-2.2C440.7,1649.6,440.5,1649.6,440.3,1649.5z M413.9,1649.4c-0.1-0.1-0.2-0.3-0.2-0.5v-38.8c0-0.4,0.1-0.6,0.3-0.6
			c0.2,0,0.4,0.1,0.5,0.4l2.5,4.5c0.1,0.3,0.2,0.6,0.2,0.9v33.6c0,0.2-0.1,0.4-0.2,0.5c-0.1,0.1-0.3,0.2-0.5,0.2h-2.2
			C414.2,1649.6,414.1,1649.6,413.9,1649.4z M440.5,1635.8c-0.1-0.3-0.2-0.6-0.2-0.9v-33.5c0-0.2,0.1-0.4,0.2-0.5
			c0.1-0.1,0.3-0.2,0.5-0.2h2.2c0.2,0,0.4,0.1,0.5,0.2c0.1,0.1,0.2,0.3,0.2,0.5v38.7c0,0.4-0.1,0.6-0.3,0.6c-0.2,0-0.3-0.1-0.5-0.4
			L440.5,1635.8z"/>
	</g>
	<g class="st1">
		<path d="M511.8,1648.3c-2.3-1-4.1-2.2-5.5-3.6c-0.1-0.1-0.2-0.3-0.2-0.5c0-0.2,0-0.4,0.2-0.6l1.6-2c0.3-0.3,0.6-0.4,0.9-0.1
			c1.3,1.2,2.9,2.2,4.6,3.1c1.8,0.9,3.6,1.5,5.6,1.8c0.4,0.1,0.6,0.3,0.6,0.7v2.4c0,0.2-0.1,0.4-0.2,0.5c-0.1,0.1-0.3,0.2-0.5,0.1
			C516.5,1650,514.1,1649.3,511.8,1648.3z M523.6,1650.2c-0.2,0-0.3-0.1-0.4-0.2c-0.1-0.1-0.2-0.3-0.2-0.5v-2.4
			c0-0.5,0.2-0.7,0.6-0.8c2.9-0.3,5.1-1.4,6.7-3.2c1.6-1.8,2.4-4,2.4-6.7c0-2.6-0.8-4.8-2.3-6.4c-1.6-1.6-4.3-2.7-8.1-3.2l-2.1-0.4
			c-4.2-0.6-7.4-2-9.5-4.2c-2.1-2.2-3.2-5.1-3.2-8.7c0-2.5,0.5-4.7,1.4-6.7s2.2-3.5,3.9-4.7c1.7-1.2,3.7-1.9,6-2.2h0.1
			c0.2,0,0.3,0.1,0.4,0.2c0.1,0.1,0.2,0.3,0.2,0.5v2.4c0,0.4-0.2,0.6-0.6,0.7c-2.4,0.4-4.3,1.5-5.7,3.2c-1.3,1.7-2,3.8-2,6.3
			c0,2.6,0.8,4.7,2.5,6.3c1.6,1.6,4.3,2.6,8.1,3.2l2.1,0.3c4.3,0.6,7.5,2,9.5,4.2c2.1,2.2,3.1,5.1,3.1,8.8c0,2.5-0.5,4.8-1.5,6.8
			c-1,2-2.4,3.6-4.3,4.9c-1.9,1.3-4.2,2.1-7,2.3H523.6z M523.6,1603.9c-0.4-0.1-0.6-0.4-0.6-0.8v-2.4c0-0.2,0.1-0.4,0.2-0.5
			c0.1-0.1,0.3-0.2,0.5-0.1c1.9,0.2,3.8,0.6,5.6,1.3c1.8,0.7,3.3,1.5,4.6,2.6c0.3,0.3,0.4,0.6,0.1,1l-1.2,2.2
			c-0.3,0.3-0.6,0.4-0.9,0.1C529.2,1605.4,526.4,1604.2,523.6,1603.9z"/>
	</g>
	<g class="st1">
		<path d="M598.7,1649.4c-0.1-0.2,0-0.3,0.1-0.5l11.1-20.4c0.1-0.2,0.3-0.4,0.5-0.4c0.2,0,0.3,0.1,0.5,0.4l1.3,2.5
			c0.1,0.1,0.1,0.3,0.1,0.5c0,0.2,0,0.4-0.1,0.5l-9.3,17.1c-0.2,0.4-0.5,0.6-0.8,0.6h-2.9C598.9,1649.6,598.7,1649.5,598.7,1649.4z
			 M626,1649.5c-0.1-0.1-0.2-0.2-0.3-0.4l-25.6-47.6l-0.1-0.4c0-0.3,0.2-0.4,0.5-0.4h2.9c0.2,0,0.4,0,0.5,0.1
			c0.1,0.1,0.3,0.2,0.4,0.4l10,18.7l15.6,28.9c0,0.1,0.1,0.2,0.1,0.4c0,0.3-0.1,0.4-0.4,0.4h-2.9
			C626.4,1649.6,626.2,1649.6,626,1649.5z M616.4,1617.1c-0.1-0.1-0.1-0.3-0.1-0.5c0-0.2,0-0.4,0.1-0.5l8-14.8
			c0.1-0.2,0.2-0.3,0.3-0.4c0.1-0.1,0.3-0.1,0.5-0.1h2.9c0.2,0,0.3,0.1,0.4,0.2c0.1,0.1,0.1,0.3,0,0.6l-9.8,18.1
			c-0.1,0.2-0.3,0.3-0.5,0.3c-0.2,0-0.3-0.1-0.5-0.3L616.4,1617.1z"/>
	</g>
	<g class="st1">
		<path d="M693.2,1649.4c-0.1-0.1-0.1-0.3,0-0.5l13.4-41c0.1-0.3,0.3-0.4,0.5-0.4c0.1,0,0.2,0,0.2,0.1c0.1,0.1,0.1,0.2,0.2,0.3
			l1.2,3.9c0.1,0.1,0.1,0.3,0.1,0.5c0,0.2,0,0.4-0.1,0.5L702,1633h12.7c0.4,0,0.6,0.2,0.8,0.6l0.8,2.4l0.1,0.3
			c0,0.1-0.1,0.3-0.2,0.4c-0.1,0.1-0.2,0.1-0.4,0.1h-14.9l-3.9,12.2c-0.1,0.3-0.2,0.5-0.3,0.6c-0.1,0.1-0.3,0.1-0.5,0.1h-2.5
			C693.4,1649.6,693.2,1649.6,693.2,1649.4z M724.1,1649.1l-15.2-47.5l-0.1-0.3c0-0.2,0.1-0.3,0.2-0.4c0.1-0.1,0.2-0.1,0.4-0.1h2.3
			c0.4,0,0.7,0.2,0.8,0.7l15.3,47.5l0.1,0.2c0,0.1,0,0.3-0.1,0.4c-0.1,0.1-0.2,0.1-0.4,0.1h-2.5
			C724.4,1649.6,724.2,1649.4,724.1,1649.1z"/>
	</g>
	<g class="st1">
		<path d="M791.9,1649.4c-0.1-0.1-0.2-0.3-0.2-0.5v-37.1c0-0.2,0-0.3,0.1-0.5c0.1-0.1,0.1-0.2,0.2-0.2c0.2,0,0.3,0.2,0.5,0.5
			l2.5,6.3c0.1,0.3,0.2,0.6,0.2,0.9v30.1c0,0.2-0.1,0.4-0.2,0.5c-0.1,0.1-0.3,0.2-0.5,0.2h-2.2
			C792.2,1649.6,792.1,1649.6,791.9,1649.4z M808.8,1642.2c-0.2-0.1-0.3-0.3-0.4-0.6l-16.4-40c0-0.1-0.1-0.2-0.1-0.4
			c0-0.3,0.2-0.4,0.5-0.4h2.4c0.4,0,0.7,0.2,0.9,0.7l16,39.5c0,0.1,0.1,0.2,0.1,0.4c0,0.1,0,0.2,0,0.3c0,0.1-0.1,0.2-0.1,0.2
			l-0.1,0.1c-0.1,0.3-0.4,0.4-0.7,0.4h-1.4C809.2,1642.4,808.9,1642.3,808.8,1642.2z M825.2,1649.4c-0.1-0.1-0.2-0.3-0.2-0.5v-38.7
			h-0.2l-10.6,25.8c0,0.3-0.2,0.4-0.5,0.4c-0.2,0-0.3-0.1-0.5-0.4l-1.1-2.8c-0.1-0.1-0.1-0.3-0.1-0.5c0-0.2,0-0.4,0.1-0.5l12.3-30.8
			c0.2-0.5,0.5-0.7,1-0.7h2.3c0.2,0,0.4,0.1,0.5,0.2c0.1,0.1,0.2,0.3,0.2,0.5v47.5c0,0.2-0.1,0.4-0.2,0.5c-0.1,0.1-0.3,0.2-0.5,0.2
			h-2.2C825.5,1649.6,825.3,1649.6,825.2,1649.4z"/>
	</g>
	<g class="st1">
		<path d="M883.8,1649.4c-0.1-0.1-0.2-0.3-0.2-0.5v-2.4c0-0.2,0-0.4,0.1-0.5c0.1-0.1,0.2-0.3,0.3-0.4l25.3-44.4
			c0.2-0.3,0.5-0.5,0.8-0.5h1c0.2,0,0.4,0.1,0.5,0.2c0.1,0.1,0.2,0.3,0.2,0.5v2.4c0,0.1,0,0.3-0.1,0.5c0,0.2-0.1,0.3-0.3,0.5
			l-25.4,44.4c-0.2,0.3-0.5,0.5-0.8,0.5h-1C884,1649.6,883.9,1649.6,883.8,1649.4z M884.7,1604.3c-0.1-0.1-0.2-0.3-0.2-0.5v-2.4
			c0-0.2,0.1-0.4,0.2-0.5c0.1-0.1,0.3-0.2,0.5-0.2h19.8c0.3,0,0.4,0.1,0.5,0.3c0.1,0.2,0.1,0.4-0.1,0.6l-1.5,2.4
			c-0.2,0.3-0.5,0.5-0.8,0.5h-18C884.9,1604.5,884.8,1604.4,884.7,1604.3z M889.8,1649.4c-0.1-0.2,0-0.4,0.1-0.6l1.4-2.4
			c0.2-0.3,0.5-0.5,0.8-0.5H911c0.2,0,0.4,0.1,0.5,0.2c0.1,0.1,0.2,0.3,0.2,0.5v2.4c0,0.2-0.1,0.4-0.2,0.5c-0.1,0.1-0.3,0.2-0.5,0.2
			h-20.7C890.1,1649.6,889.9,1649.5,889.8,1649.4z"/>
	</g>
	<g class="st1">
		<path d="M981.5,1649.5c-0.1-0.1-0.2-0.3-0.3-0.5l-10.5-47.4l-0.1-0.3c0-0.1,0.1-0.3,0.2-0.4c0.1-0.1,0.2-0.1,0.4-0.1h2.3
			c0.3,0,0.5,0,0.6,0.1c0.1,0.1,0.2,0.3,0.3,0.6l10.1,47.1c0,0.1,0.1,0.3,0.1,0.5c0,0.4-0.2,0.6-0.6,0.6h-2.1
			C981.8,1649.6,981.6,1649.6,981.5,1649.5z M1005.9,1649.5c-0.1-0.1-0.2-0.3-0.3-0.5l-10.3-40.4h-0.1l-8.4,32.5
			c0,0.1-0.1,0.3-0.2,0.4c-0.1,0.1-0.1,0.1-0.2,0.1c-0.2,0-0.3-0.2-0.4-0.5l-1-5c0-0.3,0-0.6,0-0.9l8.5-33.8
			c0.1-0.2,0.2-0.4,0.3-0.5c0.1-0.1,0.3-0.2,0.5-0.2h1.9c0.2,0,0.4,0.1,0.5,0.2c0.1,0.1,0.2,0.3,0.3,0.5l12,47.1l0.1,0.4
			c0,0.5-0.2,0.8-0.6,0.8h-2.1C1006.1,1649.6,1006,1649.6,1005.9,1649.5z M1008.8,1636.2c-0.1-0.4-0.1-0.7-0.1-0.9l7.2-33.9
			c0-0.3,0.1-0.5,0.3-0.6c0.1-0.1,0.3-0.1,0.6-0.1h2.3c0.2,0,0.4,0.1,0.5,0.2c0.1,0.1,0.1,0.3,0.1,0.6l-8.8,39.6
			c0,0.1-0.1,0.3-0.2,0.4c-0.1,0.1-0.1,0.1-0.2,0.1c-0.2,0-0.3-0.1-0.4-0.4L1008.8,1636.2z"/>
	</g>
	<g class="st1">
		<path d="M1075.4,1649.4c-0.1-0.1-0.2-0.3-0.2-0.5v-47.5c0-0.2,0.1-0.4,0.2-0.5c0.1-0.1,0.3-0.2,0.5-0.2h2.4c0.2,0,0.4,0.1,0.5,0.2
			c0.1,0.1,0.2,0.3,0.2,0.5v47.5c0,0.2-0.1,0.4-0.2,0.5c-0.1,0.1-0.3,0.2-0.5,0.2h-2.4C1075.7,1649.6,1075.5,1649.6,1075.4,1649.4z
			 M1082.6,1604.3c-0.1-0.1-0.2-0.3-0.2-0.5v-2.4c0-0.2,0.1-0.4,0.2-0.5c0.1-0.1,0.3-0.2,0.5-0.2h18.2c0.2,0,0.4,0.1,0.5,0.2
			c0.1,0.1,0.2,0.3,0.2,0.5v2.4c0,0.2-0.1,0.4-0.2,0.5c-0.1,0.1-0.3,0.2-0.5,0.2H1083C1082.8,1604.5,1082.7,1604.4,1082.6,1604.3z
			 M1082.6,1626.5c-0.1-0.1-0.2-0.3-0.2-0.5v-2.4c0-0.2,0.1-0.4,0.2-0.5c0.1-0.1,0.3-0.2,0.5-0.2h15.1c0.2,0,0.4,0.1,0.5,0.2
			c0.1,0.1,0.2,0.3,0.2,0.5v2.4c0,0.2-0.1,0.4-0.2,0.5c-0.1,0.1-0.3,0.2-0.5,0.2H1083C1082.8,1626.7,1082.7,1626.7,1082.6,1626.5z
			 M1082.6,1649.4c-0.1-0.1-0.2-0.3-0.2-0.5v-2.4c0-0.2,0.1-0.4,0.2-0.5c0.1-0.1,0.3-0.2,0.5-0.2h18.2c0.2,0,0.4,0.1,0.5,0.2
			c0.1,0.1,0.2,0.3,0.2,0.5v2.4c0,0.2-0.1,0.4-0.2,0.5c-0.1,0.1-0.3,0.2-0.5,0.2H1083C1082.8,1649.6,1082.7,1649.6,1082.6,1649.4z"
			/>
	</g>
	<g class="st1">
		<path d="M1181.9,1649.4c-0.1-0.1-0.2-0.3-0.2-0.5v-47.5c0-0.2,0.1-0.4,0.2-0.5c0.1-0.1,0.3-0.2,0.5-0.2h2.4c0.2,0,0.4,0.1,0.5,0.2
			c0.1,0.1,0.2,0.3,0.2,0.5v47.5c0,0.2-0.1,0.4-0.2,0.5c-0.1,0.1-0.3,0.2-0.5,0.2h-2.4C1182.2,1649.6,1182,1649.6,1181.9,1649.4z"/>
	</g>
	<g class="st1">
		<path d="M224.9,1765.7c-0.1-0.1-0.2-0.3-0.2-0.5v-47.5c0-0.2,0.1-0.4,0.2-0.5c0.1-0.1,0.3-0.2,0.5-0.2h2.4c0.2,0,0.4,0.1,0.5,0.2
			c0.1,0.1,0.2,0.3,0.2,0.5v47.5c0,0.2-0.1,0.4-0.2,0.5c-0.1,0.1-0.3,0.2-0.5,0.2h-2.4C225.2,1765.9,225.1,1765.8,224.9,1765.7z
			 M232,1765.7c-0.1-0.1-0.2-0.3-0.2-0.5v-2.4c0-0.2,0.1-0.4,0.2-0.5c0.1-0.1,0.3-0.2,0.5-0.2h6.2c2.9,0,5.3-0.6,7.2-1.8
			c1.8-1.2,3.2-3,3.9-5.6c0.4-1.3,0.7-2.9,0.8-4.7c0.2-1.8,0.2-4.7,0.2-8.6c0-3.9-0.1-6.8-0.2-8.6c-0.2-1.8-0.4-3.4-0.8-4.7
			c-0.8-2.5-2.1-4.4-3.9-5.6c-1.8-1.2-4.2-1.8-7.2-1.8h-6.2c-0.2,0-0.3-0.1-0.5-0.2c-0.1-0.1-0.2-0.3-0.2-0.5v-2.4
			c0-0.2,0.1-0.4,0.2-0.5c0.1-0.1,0.3-0.2,0.5-0.2h6.8c7.4,0,12.1,3.3,14.1,9.9c0.4,1.5,0.7,3.2,0.9,5.2c0.2,2,0.3,5.1,0.3,9.4
			c0,4.3-0.1,7.4-0.3,9.4c-0.2,2-0.5,3.7-0.9,5.2c-1.9,6.6-6.6,9.9-14.1,9.9h-6.8C232.3,1765.9,232.1,1765.8,232,1765.7z"/>
	</g>
	<g class="st1">
		<path d="M319.4,1765.7c-0.1-0.1-0.2-0.3-0.2-0.5v-47.5c0-0.2,0.1-0.4,0.2-0.5c0.1-0.1,0.3-0.2,0.5-0.2h2.4c0.2,0,0.4,0.1,0.5,0.2
			c0.1,0.1,0.2,0.3,0.2,0.5v47.5c0,0.2-0.1,0.4-0.2,0.5c-0.1,0.1-0.3,0.2-0.5,0.2h-2.4C319.7,1765.9,319.6,1765.8,319.4,1765.7z
			 M326.6,1743.7c-0.1-0.1-0.2-0.3-0.2-0.5v-2.4c0-0.2,0.1-0.4,0.2-0.5c0.1-0.1,0.3-0.2,0.5-0.2h7.6c3.2,0,5.6-0.8,7.3-2.5
			c1.7-1.7,2.5-4,2.5-7.2s-0.8-5.5-2.5-7.2c-1.7-1.7-4.1-2.5-7.3-2.5H327c-0.2,0-0.3-0.1-0.5-0.2c-0.1-0.1-0.2-0.3-0.2-0.5v-2.4
			c0-0.2,0.1-0.4,0.2-0.5c0.1-0.1,0.3-0.2,0.5-0.2h7.7c2.8,0,5.2,0.5,7.2,1.6s3.6,2.6,4.6,4.7c1.1,2,1.6,4.5,1.6,7.2
			c0,2.6-0.5,5-1.6,7.1c-1,2.1-2.6,3.7-4.6,4.8c-2.1,1.1-4.6,1.7-7.6,1.6H327C326.9,1743.9,326.7,1743.8,326.6,1743.7z
			 M344.9,1765.7c-0.1-0.1-0.2-0.3-0.3-0.5l-7.4-17.1c-0.1-0.3-0.1-0.6,0-0.7c0.1-0.1,0.2-0.2,0.4-0.2c0.2,0,0.3-0.1,0.3-0.1
			c0.8-0.1,1.5-0.2,1.9-0.4c0.1,0,0.2-0.1,0.3-0.1c0.3,0,0.5,0.2,0.5,0.5l8,17.9c0,0.1,0.1,0.2,0.1,0.4c0,0.3-0.2,0.4-0.5,0.4h-2.9
			C345.2,1765.9,345,1765.8,344.9,1765.7z"/>
	</g>
	<g class="st1">
		<path d="M413.9,1765.7c-0.1-0.1-0.2-0.3-0.2-0.5v-47.5c0-0.2,0.1-0.4,0.2-0.5c0.1-0.1,0.3-0.2,0.5-0.2h2.4c0.2,0,0.4,0.1,0.5,0.2
			c0.1,0.1,0.2,0.3,0.2,0.5v47.5c0,0.2-0.1,0.4-0.2,0.5c-0.1,0.1-0.3,0.2-0.5,0.2h-2.4C414.2,1765.9,414.1,1765.8,413.9,1765.7z
			 M421.1,1720.5c-0.1-0.1-0.2-0.3-0.2-0.5v-2.4c0-0.2,0.1-0.4,0.2-0.5c0.1-0.1,0.3-0.2,0.5-0.2h18.2c0.2,0,0.4,0.1,0.5,0.2
			c0.1,0.1,0.2,0.3,0.2,0.5v2.4c0,0.2-0.1,0.4-0.2,0.5c-0.1,0.1-0.3,0.2-0.5,0.2h-18.2C421.4,1720.7,421.2,1720.7,421.1,1720.5z
			 M421.1,1742.8c-0.1-0.1-0.2-0.3-0.2-0.5v-2.4c0-0.2,0.1-0.4,0.2-0.5c0.1-0.1,0.3-0.2,0.5-0.2h15.1c0.2,0,0.4,0.1,0.5,0.2
			c0.1,0.1,0.2,0.3,0.2,0.5v2.4c0,0.2-0.1,0.4-0.2,0.5c-0.1,0.1-0.3,0.2-0.5,0.2h-15.1C421.4,1743,421.2,1742.9,421.1,1742.8z
			 M421.1,1765.7c-0.1-0.1-0.2-0.3-0.2-0.5v-2.4c0-0.2,0.1-0.4,0.2-0.5c0.1-0.1,0.3-0.2,0.5-0.2h18.2c0.2,0,0.4,0.1,0.5,0.2
			c0.1,0.1,0.2,0.3,0.2,0.5v2.4c0,0.2-0.1,0.4-0.2,0.5c-0.1,0.1-0.3,0.2-0.5,0.2h-18.2C421.4,1765.9,421.2,1765.8,421.1,1765.7z"/>
	</g>
	<g class="st1">
		<path d="M520.4,1765.7c-0.1-0.1-0.2-0.3-0.2-0.5v-47.5c0-0.2,0.1-0.4,0.2-0.5c0.1-0.1,0.3-0.2,0.5-0.2h2.4c0.2,0,0.4,0.1,0.5,0.2
			c0.1,0.1,0.2,0.3,0.2,0.5v47.5c0,0.2-0.1,0.4-0.2,0.5c-0.1,0.1-0.3,0.2-0.5,0.2h-2.4C520.7,1765.9,520.6,1765.8,520.4,1765.7z"/>
	</g>
	<g class="st1">
		<path d="M598.7,1765.7c-0.1-0.1-0.1-0.3,0-0.5l13.4-41c0.1-0.3,0.3-0.4,0.5-0.4c0.1,0,0.2,0,0.2,0.1c0.1,0.1,0.1,0.2,0.2,0.3
			l1.2,3.9c0.1,0.1,0.1,0.3,0.1,0.5c0,0.2,0,0.4-0.1,0.5l-6.6,20.2h12.7c0.4,0,0.6,0.2,0.8,0.6l0.8,2.4l0.1,0.3
			c0,0.1-0.1,0.3-0.2,0.4c-0.1,0.1-0.2,0.1-0.4,0.1h-14.9l-3.9,12.2c-0.1,0.3-0.2,0.5-0.3,0.6c-0.1,0.1-0.3,0.1-0.5,0.1h-2.5
			C598.9,1765.9,598.7,1765.8,598.7,1765.7z M629.6,1765.3l-15.2-47.5l-0.1-0.3c0-0.2,0.1-0.3,0.2-0.4c0.1-0.1,0.2-0.1,0.4-0.1h2.3
			c0.4,0,0.7,0.2,0.8,0.7l15.3,47.5l0.1,0.2c0,0.1,0,0.3-0.1,0.4c-0.1,0.1-0.2,0.1-0.4,0.1h-2.5
			C629.9,1765.9,629.7,1765.7,629.6,1765.3z"/>
	</g>
	<g class="st1">
		<path d="M700.1,1761.3c-2.2-3-3.3-7.1-3.3-12.4v-31.3c0-0.2,0.1-0.4,0.2-0.5c0.1-0.1,0.3-0.2,0.5-0.2h2.4c0.2,0,0.4,0.1,0.5,0.2
			c0.1,0.1,0.2,0.3,0.2,0.5v31.3c0,4,0.8,7.2,2.3,9.5c1.5,2.3,3.8,3.7,6.7,4.2c0.4,0,0.6,0.3,0.6,0.7v2.4c0,0.2-0.1,0.4-0.2,0.5
			c-0.1,0.1-0.3,0.2-0.5,0.1C705.3,1766,702.2,1764.3,700.1,1761.3z M714.1,1766.5c-0.2,0-0.3-0.1-0.4-0.2c-0.1-0.1-0.2-0.3-0.2-0.5
			v-2.4c0-0.4,0.2-0.7,0.6-0.7c2.9-0.5,5.1-1.9,6.7-4.2c1.5-2.3,2.3-5.5,2.3-9.5v-31.3c0-0.2,0.1-0.4,0.2-0.5
			c0.1-0.1,0.3-0.2,0.5-0.2h2.4c0.2,0,0.4,0.1,0.5,0.2c0.1,0.1,0.2,0.3,0.2,0.5v31.3c0,5.3-1.1,9.4-3.2,12.3c-2.2,3-5.3,4.7-9.3,5.1
			H714.1z"/>
	</g>
	<g class="st1">
		<path d="M791.8,1765.2c-1.4-0.7-2.5-1.5-3.5-2.6c-0.2-0.1-0.3-0.3-0.3-0.6c0-0.2,0.1-0.3,0.2-0.5c0.1-0.1,0.2-0.2,0.3-0.3l1.4-1.4
			c0.1-0.1,0.3-0.2,0.5-0.2c0.2,0,0.4,0.1,0.5,0.2c0.7,0.7,1.5,1.3,2.4,1.8c0.9,0.5,1.9,0.8,3,1c0.4,0,0.6,0.3,0.6,0.7v2.4
			c0,0.2-0.1,0.4-0.2,0.6c-0.1,0.1-0.3,0.2-0.5,0.1C794.6,1766.3,793.1,1765.9,791.8,1765.2z M800.9,1766.3c-0.2,0-0.3-0.1-0.4-0.2
			c-0.1-0.1-0.2-0.3-0.2-0.5v-2.4c0-0.4,0.2-0.6,0.6-0.8c2-0.6,3.5-1.8,4.5-3.6s1.6-4.4,1.6-7.6v-33.6c0-0.2,0.1-0.4,0.2-0.5
			c0.1-0.1,0.3-0.2,0.5-0.2h2.4c0.2,0,0.4,0.1,0.5,0.2c0.1,0.1,0.2,0.3,0.2,0.5v33.6c0,4.4-0.8,7.8-2.5,10.3
			c-1.7,2.5-4.1,4.1-7.1,4.7H800.9z"/>
	</g>
	<g class="st1">
		<path d="M896.5,1765.2l-14.6-47.2l-0.1-0.4c0-0.2,0.1-0.3,0.2-0.4c0.1-0.1,0.2-0.1,0.4-0.1h2.3c0.3,0,0.5,0,0.6,0.1
			c0.2,0.1,0.2,0.3,0.3,0.6l14.4,46.9c0.1,0.3,0.1,0.5,0.1,0.6c0,0.4-0.2,0.6-0.6,0.6h-2.1C896.9,1765.9,896.6,1765.6,896.5,1765.2z
			 M900.2,1754.9c0-0.1-0.1-0.3-0.1-0.5c0-0.1,0-0.4,0.1-0.8l10.7-35.9c0.1-0.3,0.2-0.5,0.3-0.6c0.1-0.1,0.3-0.1,0.6-0.1h2.4
			c0.2,0,0.4,0.1,0.5,0.3c0.1,0.2,0.1,0.4,0,0.7l-12.5,40.8c0,0.1-0.1,0.3-0.2,0.4c-0.1,0.1-0.1,0.1-0.2,0.1c-0.1,0-0.3-0.2-0.5-0.5
			L900.2,1754.9z"/>
	</g>
	<g class="st1">
		<path d="M992.9,1765.7c-0.1-0.1-0.2-0.3-0.2-0.5v-47.5c0-0.2,0.1-0.4,0.2-0.5c0.1-0.1,0.3-0.2,0.5-0.2h2.4c0.2,0,0.4,0.1,0.5,0.2
			c0.1,0.1,0.2,0.3,0.2,0.5v47.5c0,0.2-0.1,0.4-0.2,0.5c-0.1,0.1-0.3,0.2-0.5,0.2h-2.4C993.2,1765.9,993,1765.8,992.9,1765.7z"/>
	</g>
	<g class="st1">
		<path d="M1075.4,1765.7c-0.1-0.1-0.2-0.3-0.2-0.5v-47.5c0-0.2,0.1-0.4,0.2-0.5c0.1-0.1,0.3-0.2,0.5-0.2h2.4c0.2,0,0.4,0.1,0.5,0.2
			c0.1,0.1,0.2,0.3,0.2,0.5v47.5c0,0.2-0.1,0.4-0.2,0.5c-0.1,0.1-0.3,0.2-0.5,0.2h-2.4C1075.7,1765.9,1075.5,1765.8,1075.4,1765.7z
			 M1082.6,1720.5c-0.1-0.1-0.2-0.3-0.2-0.5v-2.4c0-0.2,0.1-0.4,0.2-0.5c0.1-0.1,0.3-0.2,0.5-0.2h18.2c0.2,0,0.4,0.1,0.5,0.2
			c0.1,0.1,0.2,0.3,0.2,0.5v2.4c0,0.2-0.1,0.4-0.2,0.5c-0.1,0.1-0.3,0.2-0.5,0.2H1083C1082.8,1720.7,1082.7,1720.7,1082.6,1720.5z
			 M1082.6,1742.8c-0.1-0.1-0.2-0.3-0.2-0.5v-2.4c0-0.2,0.1-0.4,0.2-0.5c0.1-0.1,0.3-0.2,0.5-0.2h15.1c0.2,0,0.4,0.1,0.5,0.2
			c0.1,0.1,0.2,0.3,0.2,0.5v2.4c0,0.2-0.1,0.4-0.2,0.5c-0.1,0.1-0.3,0.2-0.5,0.2H1083C1082.8,1743,1082.7,1742.9,1082.6,1742.8z
			 M1082.6,1765.7c-0.1-0.1-0.2-0.3-0.2-0.5v-2.4c0-0.2,0.1-0.4,0.2-0.5c0.1-0.1,0.3-0.2,0.5-0.2h18.2c0.2,0,0.4,0.1,0.5,0.2
			c0.1,0.1,0.2,0.3,0.2,0.5v2.4c0,0.2-0.1,0.4-0.2,0.5c-0.1,0.1-0.3,0.2-0.5,0.2H1083C1082.8,1765.9,1082.7,1765.8,1082.6,1765.7z"
			/>
	</g>
	<g class="st1">
		<path d="M1169.9,1765.7c-0.1-0.1-0.2-0.3-0.2-0.5v-47.5c0-0.2,0.1-0.4,0.2-0.5c0.1-0.1,0.3-0.2,0.5-0.2h2.4c0.2,0,0.4,0.1,0.5,0.2
			c0.1,0.1,0.2,0.3,0.2,0.5v47.5c0,0.2-0.1,0.4-0.2,0.5c-0.1,0.1-0.3,0.2-0.5,0.2h-2.4C1170.2,1765.9,1170,1765.8,1169.9,1765.7z
			 M1177.1,1743.7c-0.1-0.1-0.2-0.3-0.2-0.5v-2.4c0-0.2,0.1-0.4,0.2-0.5c0.1-0.1,0.3-0.2,0.5-0.2h7.6c3.2,0,5.6-0.8,7.3-2.5
			c1.7-1.7,2.5-4,2.5-7.2s-0.8-5.5-2.5-7.2c-1.7-1.7-4.1-2.5-7.3-2.5h-7.6c-0.2,0-0.3-0.1-0.5-0.2c-0.1-0.1-0.2-0.3-0.2-0.5v-2.4
			c0-0.2,0.1-0.4,0.2-0.5c0.1-0.1,0.3-0.2,0.5-0.2h7.7c2.8,0,5.2,0.5,7.2,1.6s3.6,2.6,4.6,4.7c1.1,2,1.6,4.5,1.6,7.2
			c0,2.6-0.5,5-1.6,7.1c-1,2.1-2.6,3.7-4.6,4.8c-2.1,1.1-4.6,1.7-7.6,1.6h-7.3C1177.3,1743.9,1177.2,1743.8,1177.1,1743.7z
			 M1195.4,1765.7c-0.1-0.1-0.2-0.3-0.3-0.5l-7.4-17.1c-0.1-0.3-0.1-0.6,0-0.7c0.1-0.1,0.2-0.2,0.4-0.2c0.2,0,0.3-0.1,0.3-0.1
			c0.8-0.1,1.5-0.2,1.9-0.4c0.1,0,0.2-0.1,0.3-0.1c0.3,0,0.5,0.2,0.5,0.5l8,17.9c0,0.1,0.1,0.2,0.1,0.4c0,0.3-0.2,0.4-0.5,0.4h-2.9
			C1195.7,1765.9,1195.5,1765.8,1195.4,1765.7z"/>
	</g>
	<g class="st1">
		<path d="M228.3,1880.8c-2.3-1-4.1-2.2-5.5-3.6c-0.1-0.1-0.2-0.3-0.2-0.5c0-0.2,0-0.4,0.2-0.6l1.6-2c0.3-0.3,0.6-0.4,0.9-0.1
			c1.3,1.2,2.9,2.2,4.6,3.1c1.8,0.9,3.6,1.5,5.6,1.8c0.4,0.1,0.6,0.3,0.6,0.7v2.4c0,0.2-0.1,0.4-0.2,0.5c-0.1,0.1-0.3,0.2-0.5,0.1
			C233,1882.5,230.6,1881.8,228.3,1880.8z M240.1,1882.7c-0.2,0-0.3-0.1-0.4-0.2c-0.1-0.1-0.2-0.3-0.2-0.5v-2.4
			c0-0.5,0.2-0.7,0.6-0.8c2.9-0.3,5.1-1.4,6.7-3.2c1.6-1.8,2.4-4,2.4-6.7c0-2.6-0.8-4.8-2.3-6.4c-1.6-1.6-4.3-2.7-8.1-3.2l-2.1-0.4
			c-4.2-0.6-7.4-2-9.5-4.2c-2.1-2.2-3.2-5.1-3.2-8.7c0-2.5,0.5-4.7,1.4-6.7c0.9-1.9,2.2-3.5,3.9-4.7c1.7-1.2,3.7-1.9,6-2.2h0.1
			c0.2,0,0.3,0.1,0.4,0.2c0.1,0.1,0.2,0.3,0.2,0.5v2.4c0,0.4-0.2,0.6-0.6,0.7c-2.4,0.4-4.3,1.5-5.7,3.2c-1.3,1.7-2,3.8-2,6.3
			c0,2.6,0.8,4.7,2.5,6.3c1.6,1.6,4.3,2.6,8.1,3.2l2.1,0.3c4.3,0.6,7.5,2,9.5,4.2c2.1,2.2,3.1,5.1,3.1,8.8c0,2.5-0.5,4.8-1.5,6.8
			c-1,2-2.4,3.6-4.3,4.9c-1.9,1.3-4.2,2.1-7,2.3H240.1z M240.1,1836.4c-0.4-0.1-0.6-0.4-0.6-0.8v-2.4c0-0.2,0.1-0.4,0.2-0.5
			c0.1-0.1,0.3-0.2,0.5-0.1c1.9,0.2,3.8,0.6,5.6,1.3c1.8,0.7,3.3,1.5,4.6,2.6c0.3,0.3,0.4,0.6,0.1,1l-1.2,2.2
			c-0.3,0.3-0.6,0.4-0.9,0.1C245.7,1837.9,242.9,1836.7,240.1,1836.4z"/>
	</g>
	<g class="st1">
		<path d="M319.4,1881.9c-0.1-0.1-0.2-0.3-0.2-0.5v-47.5c0-0.2,0.1-0.4,0.2-0.5c0.1-0.1,0.3-0.2,0.5-0.2h2.4c0.2,0,0.4,0.1,0.5,0.2
			c0.1,0.1,0.2,0.3,0.2,0.5v47.5c0,0.2-0.1,0.4-0.2,0.5c-0.1,0.1-0.3,0.2-0.5,0.2h-2.4C319.7,1882.1,319.6,1882,319.4,1881.9z
			 M326.6,1836.8c-0.1-0.1-0.2-0.3-0.2-0.5v-2.4c0-0.2,0.1-0.4,0.2-0.5c0.1-0.1,0.3-0.2,0.5-0.2h18.2c0.2,0,0.4,0.1,0.5,0.2
			c0.1,0.1,0.2,0.3,0.2,0.5v2.4c0,0.2-0.1,0.4-0.2,0.5c-0.1,0.1-0.3,0.2-0.5,0.2H327C326.9,1837,326.7,1836.9,326.6,1836.8z
			 M326.6,1859c-0.1-0.1-0.2-0.3-0.2-0.5v-2.4c0-0.2,0.1-0.4,0.2-0.5c0.1-0.1,0.3-0.2,0.5-0.2h15.1c0.2,0,0.4,0.1,0.5,0.2
			c0.1,0.1,0.2,0.3,0.2,0.5v2.4c0,0.2-0.1,0.4-0.2,0.5c-0.1,0.1-0.3,0.2-0.5,0.2H327C326.9,1859.2,326.7,1859.2,326.6,1859z
			 M326.6,1881.9c-0.1-0.1-0.2-0.3-0.2-0.5v-2.4c0-0.2,0.1-0.4,0.2-0.5c0.1-0.1,0.3-0.2,0.5-0.2h18.2c0.2,0,0.4,0.1,0.5,0.2
			c0.1,0.1,0.2,0.3,0.2,0.5v2.4c0,0.2-0.1,0.4-0.2,0.5c-0.1,0.1-0.3,0.2-0.5,0.2H327C326.9,1882.1,326.7,1882,326.6,1881.9z"/>
	</g>
	<g class="st1">
		<path d="M417.4,1879.4c-1.9-1.8-3.4-4.3-4.3-7.5c-0.4-1.3-0.7-3-0.9-5.1c-0.2-2.1-0.3-5.2-0.3-9.3c0-4.1,0.1-7.2,0.3-9.3
			c0.2-2.1,0.5-3.8,0.9-5.1c1-3.2,2.4-5.7,4.3-7.5c1.9-1.8,4.3-2.9,7.1-3.3h0.1c0.2,0,0.3,0.1,0.4,0.2c0.1,0.1,0.2,0.3,0.2,0.5v2.4
			c0,0.4-0.2,0.7-0.6,0.8c-2,0.3-3.6,1.2-5,2.5c-1.3,1.3-2.3,3.1-3.1,5.4c-0.3,1.1-0.5,2.6-0.7,4.5c-0.2,1.9-0.3,4.9-0.3,8.7
			c0,3.9,0.1,6.8,0.3,8.7c0.2,1.9,0.4,3.4,0.7,4.5c0.7,2.3,1.8,4.1,3.1,5.5s3,2.2,5,2.5c0.4,0.1,0.6,0.3,0.6,0.7v2.4
			c0,0.2-0.1,0.4-0.2,0.5c-0.1,0.1-0.3,0.2-0.5,0.1C421.7,1882.3,419.3,1881.2,417.4,1879.4z M437.7,1843.6c-0.3,0-0.5-0.1-0.6-0.4
			c-1.9-3.8-4.5-6.1-7.9-6.8c-0.4-0.1-0.6-0.3-0.6-0.7v-2.4c0-0.2,0.1-0.4,0.2-0.6c0.1-0.1,0.3-0.2,0.5-0.1c2.5,0.4,4.6,1.3,6.5,2.8
			c1.9,1.5,3.3,3.5,4.4,6c0,0.1,0.1,0.2,0.1,0.4c0,0.2-0.1,0.4-0.3,0.5l-2.1,1.2C437.9,1843.6,437.8,1843.6,437.7,1843.6z
			 M429.3,1882.7c-0.2,0-0.3-0.1-0.4-0.2c-0.1-0.1-0.2-0.3-0.2-0.5v-2.4c0-0.4,0.2-0.7,0.6-0.7c3.4-0.7,6-2.9,7.9-6.8
			c0.1-0.2,0.2-0.3,0.4-0.4c0.2-0.1,0.3-0.1,0.5,0l2.1,1.2c0.3,0.2,0.4,0.5,0.2,0.9c-1.1,2.5-2.6,4.6-4.4,6c-1.9,1.5-4,2.4-6.5,2.8
			H429.3z"/>
	</g>
	<g class="st1">
		<path d="M508.4,1881.9c-0.1-0.1-0.2-0.3-0.2-0.5v-47.5c0-0.2,0.1-0.4,0.2-0.5c0.1-0.1,0.3-0.2,0.5-0.2h2.4c0.2,0,0.4,0.1,0.5,0.2
			c0.1,0.1,0.2,0.3,0.2,0.5v47.5c0,0.2-0.1,0.4-0.2,0.5c-0.1,0.1-0.3,0.2-0.5,0.2h-2.4C508.7,1882.1,508.6,1882,508.4,1881.9z
			 M515.3,1859c-0.1-0.1-0.2-0.3-0.2-0.5v-2.4c0-0.2,0.1-0.4,0.2-0.5c0.1-0.1,0.3-0.2,0.5-0.2h14.9c0.2,0,0.4,0.1,0.5,0.2
			c0.1,0.1,0.2,0.3,0.2,0.5v2.4c0,0.2-0.1,0.4-0.2,0.5c-0.1,0.1-0.3,0.2-0.5,0.2h-14.9C515.6,1859.2,515.4,1859.2,515.3,1859z
			 M534.7,1881.9c-0.1-0.1-0.2-0.3-0.2-0.5v-47.5c0-0.2,0.1-0.4,0.2-0.5c0.1-0.1,0.3-0.2,0.5-0.2h2.4c0.2,0,0.4,0.1,0.5,0.2
			c0.1,0.1,0.2,0.3,0.2,0.5v47.5c0,0.2-0.1,0.4-0.2,0.5c-0.1,0.1-0.3,0.2-0.5,0.2h-2.4C535,1882.1,534.9,1882,534.7,1881.9z"/>
	</g>
	<g class="st1">
		<path d="M606.3,1880.8c-2.3-1-4.1-2.2-5.5-3.6c-0.1-0.1-0.2-0.3-0.2-0.5c0-0.2,0-0.4,0.2-0.6l1.6-2c0.3-0.3,0.6-0.4,0.9-0.1
			c1.3,1.2,2.9,2.2,4.6,3.1c1.8,0.9,3.6,1.5,5.6,1.8c0.4,0.1,0.6,0.3,0.6,0.7v2.4c0,0.2-0.1,0.4-0.2,0.5c-0.1,0.1-0.3,0.2-0.5,0.1
			C611,1882.5,608.6,1881.8,606.3,1880.8z M618.1,1882.7c-0.2,0-0.3-0.1-0.4-0.2c-0.1-0.1-0.2-0.3-0.2-0.5v-2.4
			c0-0.5,0.2-0.7,0.6-0.8c2.9-0.3,5.1-1.4,6.7-3.2c1.6-1.8,2.4-4,2.4-6.7c0-2.6-0.8-4.8-2.3-6.4c-1.6-1.6-4.3-2.7-8.1-3.2l-2.1-0.4
			c-4.2-0.6-7.4-2-9.5-4.2c-2.1-2.2-3.2-5.1-3.2-8.7c0-2.5,0.5-4.7,1.4-6.7s2.2-3.5,3.9-4.7c1.7-1.2,3.7-1.9,6-2.2h0.1
			c0.2,0,0.3,0.1,0.4,0.2c0.1,0.1,0.2,0.3,0.2,0.5v2.4c0,0.4-0.2,0.6-0.6,0.7c-2.4,0.4-4.3,1.5-5.7,3.2c-1.3,1.7-2,3.8-2,6.3
			c0,2.6,0.8,4.7,2.5,6.3c1.6,1.6,4.3,2.6,8.1,3.2l2.1,0.3c4.3,0.6,7.5,2,9.5,4.2c2.1,2.2,3.1,5.1,3.1,8.8c0,2.5-0.5,4.8-1.5,6.8
			c-1,2-2.4,3.6-4.3,4.9c-1.9,1.3-4.2,2.1-7,2.3H618.1z M618.1,1836.4c-0.4-0.1-0.6-0.4-0.6-0.8v-2.4c0-0.2,0.1-0.4,0.2-0.5
			c0.1-0.1,0.3-0.2,0.5-0.1c1.9,0.2,3.8,0.6,5.6,1.3c1.8,0.7,3.3,1.5,4.6,2.6c0.3,0.3,0.4,0.6,0.1,1l-1.2,2.2
			c-0.3,0.3-0.6,0.4-0.9,0.1C623.7,1837.9,620.9,1836.7,618.1,1836.4z"/>
	</g>
	<g class="st1">
		<path d="M723.8,1882c-0.2-0.1-0.4-0.3-0.5-0.6l-25.9-46.6c-0.2-0.2-0.3-0.5-0.3-0.9c0-0.5,0.2-0.8,0.7-0.8h2.1
			c0.3,0,0.5,0,0.6,0.1c0.2,0.1,0.3,0.3,0.5,0.6l25.9,46.8c0.1,0.1,0.2,0.3,0.2,0.5c0,0.2,0,0.3,0,0.5c-0.1,0.3-0.3,0.5-0.6,0.5
			h-2.2C724.2,1882.1,724,1882.1,723.8,1882z M697.4,1881.9c-0.1-0.1-0.2-0.3-0.2-0.5v-38.8c0-0.4,0.1-0.6,0.3-0.6
			c0.2,0,0.4,0.1,0.5,0.4l2.5,4.5c0.1,0.3,0.2,0.6,0.2,0.9v33.6c0,0.2-0.1,0.4-0.2,0.5c-0.1,0.1-0.3,0.2-0.5,0.2h-2.2
			C697.7,1882.1,697.6,1882,697.4,1881.9z M724,1868.3c-0.1-0.3-0.2-0.6-0.2-0.9v-33.5c0-0.2,0.1-0.4,0.2-0.5
			c0.1-0.1,0.3-0.2,0.5-0.2h2.2c0.2,0,0.4,0.1,0.5,0.2c0.1,0.1,0.2,0.3,0.2,0.5v38.7c0,0.4-0.1,0.6-0.3,0.6c-0.2,0-0.3-0.1-0.5-0.4
			L724,1868.3z"/>
	</g>
	<g class="st1">
		<path d="M791.9,1881.9c-0.1-0.1-0.2-0.3-0.2-0.5v-47.5c0-0.2,0.1-0.4,0.2-0.5c0.1-0.1,0.3-0.2,0.5-0.2h2.4c0.2,0,0.4,0.1,0.5,0.2
			c0.1,0.1,0.2,0.3,0.2,0.5v47.5c0,0.2-0.1,0.4-0.2,0.5c-0.1,0.1-0.3,0.2-0.5,0.2h-2.4C792.2,1882.1,792.1,1882,791.9,1881.9z
			 M799.1,1881.9c-0.1-0.1-0.2-0.3-0.2-0.5v-2.4c0-0.2,0.1-0.4,0.2-0.5c0.1-0.1,0.3-0.2,0.5-0.2h18.2c0.2,0,0.4,0.1,0.5,0.2
			c0.1,0.1,0.2,0.3,0.2,0.5v2.4c0,0.2-0.1,0.4-0.2,0.5c-0.1,0.1-0.3,0.2-0.5,0.2h-18.2C799.3,1882.1,799.2,1882,799.1,1881.9z"/>
	</g>
	<g class="st1">
		<path d="M882.2,1881.9c-0.1-0.1-0.1-0.3,0-0.5l13.4-41c0.1-0.3,0.3-0.4,0.5-0.4c0.1,0,0.2,0,0.2,0.1c0.1,0.1,0.1,0.2,0.2,0.3
			l1.2,3.9c0.1,0.1,0.1,0.3,0.1,0.5c0,0.2,0,0.4-0.1,0.5l-6.6,20.2h12.7c0.4,0,0.6,0.2,0.8,0.6l0.8,2.4l0.1,0.3
			c0,0.1-0.1,0.3-0.2,0.4c-0.1,0.1-0.2,0.1-0.4,0.1h-14.9l-3.9,12.2c-0.1,0.3-0.2,0.5-0.3,0.6c-0.1,0.1-0.3,0.1-0.5,0.1h-2.5
			C882.4,1882.1,882.2,1882,882.2,1881.9z M913.1,1881.5l-15.2-47.5l-0.1-0.3c0-0.2,0.1-0.3,0.2-0.4c0.1-0.1,0.2-0.1,0.4-0.1h2.3
			c0.4,0,0.7,0.2,0.8,0.7l15.3,47.5l0.1,0.2c0,0.1,0,0.3-0.1,0.4c-0.1,0.1-0.2,0.1-0.4,0.1h-2.5
			C913.4,1882.1,913.2,1881.9,913.1,1881.5z"/>
	</g>
	<g class="st1">
		<path d="M984.4,1879.4c-1.9-1.8-3.4-4.3-4.3-7.5c-0.4-1.3-0.7-3-0.9-5.1c-0.2-2.1-0.3-5.2-0.3-9.3c0-4.1,0.1-7.2,0.3-9.3
			c0.2-2.1,0.5-3.8,0.9-5.1c1-3.2,2.4-5.7,4.3-7.5c1.9-1.8,4.3-2.9,7.1-3.3h0.1c0.2,0,0.3,0.1,0.4,0.2c0.1,0.1,0.2,0.3,0.2,0.5v2.4
			c0,0.4-0.2,0.7-0.6,0.8c-2,0.3-3.6,1.2-5,2.5c-1.3,1.3-2.3,3.1-3.1,5.4c-0.3,1.1-0.5,2.6-0.7,4.5c-0.2,1.9-0.3,4.9-0.3,8.7
			c0,3.9,0.1,6.8,0.3,8.7c0.2,1.9,0.4,3.4,0.7,4.5c0.7,2.3,1.8,4.1,3.1,5.5s3,2.2,5,2.5c0.4,0.1,0.6,0.3,0.6,0.7v2.4
			c0,0.2-0.1,0.4-0.2,0.5c-0.1,0.1-0.3,0.2-0.5,0.1C988.7,1882.3,986.3,1881.2,984.4,1879.4z M1004.7,1843.6c-0.3,0-0.5-0.1-0.6-0.4
			c-1.9-3.8-4.5-6.1-7.9-6.8c-0.4-0.1-0.6-0.3-0.6-0.7v-2.4c0-0.2,0.1-0.4,0.2-0.6c0.1-0.1,0.3-0.2,0.5-0.1c2.5,0.4,4.6,1.3,6.5,2.8
			c1.9,1.5,3.3,3.5,4.4,6c0,0.1,0.1,0.2,0.1,0.4c0,0.2-0.1,0.4-0.3,0.5l-2.1,1.2C1004.9,1843.6,1004.8,1843.6,1004.7,1843.6z
			 M996.3,1882.7c-0.2,0-0.3-0.1-0.4-0.2c-0.1-0.1-0.2-0.3-0.2-0.5v-2.4c0-0.4,0.2-0.7,0.6-0.7c3.4-0.7,6-2.9,7.9-6.8
			c0.1-0.2,0.2-0.3,0.4-0.4c0.2-0.1,0.3-0.1,0.5,0l2.1,1.2c0.3,0.2,0.4,0.5,0.2,0.9c-1.1,2.5-2.6,4.6-4.4,6c-1.9,1.5-4,2.4-6.5,2.8
			H996.3z"/>
	</g>
	<g class="st1">
		<path d="M1075.4,1881.9c-0.1-0.1-0.2-0.3-0.2-0.5v-47.5c0-0.2,0.1-0.4,0.2-0.5c0.1-0.1,0.3-0.2,0.5-0.2h2.4c0.2,0,0.4,0.1,0.5,0.2
			c0.1,0.1,0.2,0.3,0.2,0.5v47.5c0,0.2-0.1,0.4-0.2,0.5c-0.1,0.1-0.3,0.2-0.5,0.2h-2.4C1075.7,1882.1,1075.5,1882,1075.4,1881.9z
			 M1082.3,1859c-0.1-0.1-0.2-0.3-0.2-0.5v-2.4c0-0.2,0.1-0.4,0.2-0.5c0.1-0.1,0.3-0.2,0.5-0.2h14.9c0.2,0,0.4,0.1,0.5,0.2
			c0.1,0.1,0.2,0.3,0.2,0.5v2.4c0,0.2-0.1,0.4-0.2,0.5c-0.1,0.1-0.3,0.2-0.5,0.2h-14.9C1082.6,1859.2,1082.4,1859.2,1082.3,1859z
			 M1101.7,1881.9c-0.1-0.1-0.2-0.3-0.2-0.5v-47.5c0-0.2,0.1-0.4,0.2-0.5c0.1-0.1,0.3-0.2,0.5-0.2h2.4c0.2,0,0.4,0.1,0.5,0.2
			c0.1,0.1,0.2,0.3,0.2,0.5v47.5c0,0.2-0.1,0.4-0.2,0.5c-0.1,0.1-0.3,0.2-0.5,0.2h-2.4C1102,1882.1,1101.9,1882,1101.7,1881.9z"/>
	</g>
	<g class="st1">
		<path d="M1165.2,1836.8c-0.1-0.1-0.2-0.3-0.2-0.5v-2.4c0-0.2,0.1-0.4,0.2-0.5c0.1-0.1,0.3-0.2,0.5-0.2h29.9c0.2,0,0.4,0.1,0.5,0.2
			c0.1,0.1,0.2,0.3,0.2,0.5v2.4c0,0.2-0.1,0.4-0.2,0.5c-0.1,0.1-0.3,0.2-0.5,0.2h-29.9C1165.5,1837,1165.4,1836.9,1165.2,1836.8z
			 M1178.9,1881.9c-0.1-0.1-0.2-0.3-0.2-0.5v-40c0-0.2,0.1-0.4,0.2-0.5c0.1-0.1,0.3-0.2,0.5-0.2h2.4c0.2,0,0.4,0.1,0.5,0.2
			c0.1,0.1,0.2,0.3,0.2,0.5v40c0,0.2-0.1,0.4-0.2,0.5c-0.1,0.1-0.3,0.2-0.5,0.2h-2.4C1179.2,1882.1,1179.1,1882,1178.9,1881.9z"/>
	</g>
	<g class="st1">
		<path d="M228.3,1997c-2.3-1-4.1-2.2-5.5-3.6c-0.1-0.1-0.2-0.3-0.2-0.5c0-0.2,0-0.4,0.2-0.6l1.6-2c0.3-0.3,0.6-0.4,0.9-0.1
			c1.3,1.2,2.9,2.2,4.6,3.1c1.8,0.9,3.6,1.5,5.6,1.8c0.4,0.1,0.6,0.3,0.6,0.7v2.4c0,0.2-0.1,0.4-0.2,0.5c-0.1,0.1-0.3,0.2-0.5,0.1
			C233,1998.7,230.6,1998.1,228.3,1997z M240.1,1998.9c-0.2,0-0.3-0.1-0.4-0.2c-0.1-0.1-0.2-0.3-0.2-0.5v-2.4c0-0.5,0.2-0.7,0.6-0.8
			c2.9-0.3,5.1-1.4,6.7-3.2c1.6-1.8,2.4-4,2.4-6.7c0-2.6-0.8-4.8-2.3-6.4c-1.6-1.6-4.3-2.7-8.1-3.2l-2.1-0.4c-4.2-0.6-7.4-2-9.5-4.2
			c-2.1-2.2-3.2-5.1-3.2-8.7c0-2.5,0.5-4.7,1.4-6.7c0.9-1.9,2.2-3.5,3.9-4.7c1.7-1.2,3.7-1.9,6-2.2h0.1c0.2,0,0.3,0.1,0.4,0.2
			c0.1,0.1,0.2,0.3,0.2,0.5v2.4c0,0.4-0.2,0.6-0.6,0.7c-2.4,0.4-4.3,1.5-5.7,3.2c-1.3,1.7-2,3.8-2,6.3c0,2.6,0.8,4.7,2.5,6.3
			c1.6,1.6,4.3,2.6,8.1,3.2l2.1,0.3c4.3,0.6,7.5,2,9.5,4.2c2.1,2.2,3.1,5.1,3.1,8.8c0,2.5-0.5,4.8-1.5,6.8c-1,2-2.4,3.6-4.3,4.9
			c-1.9,1.3-4.2,2.1-7,2.3H240.1z M240.1,1952.6c-0.4-0.1-0.6-0.4-0.6-0.8v-2.4c0-0.2,0.1-0.4,0.2-0.5c0.1-0.1,0.3-0.2,0.5-0.1
			c1.9,0.2,3.8,0.6,5.6,1.3c1.8,0.7,3.3,1.5,4.6,2.6c0.3,0.3,0.4,0.6,0.1,1l-1.2,2.2c-0.3,0.3-0.6,0.4-0.9,0.1
			C245.7,1954.1,242.9,1953,240.1,1952.6z"/>
	</g>
	<g class="st1">
		<path d="M331.4,1998.1c-0.1-0.1-0.2-0.3-0.2-0.5v-47.5c0-0.2,0.1-0.4,0.2-0.5c0.1-0.1,0.3-0.2,0.5-0.2h2.4c0.2,0,0.4,0.1,0.5,0.2
			c0.1,0.1,0.2,0.3,0.2,0.5v47.5c0,0.2-0.1,0.4-0.2,0.5c-0.1,0.1-0.3,0.2-0.5,0.2h-2.4C331.7,1998.4,331.6,1998.3,331.4,1998.1z"/>
	</g>
	<g class="st1">
		<path d="M413.9,1998.1c-0.1-0.1-0.2-0.3-0.2-0.5v-47.5c0-0.2,0.1-0.4,0.2-0.5c0.1-0.1,0.3-0.2,0.5-0.2h2.4c0.2,0,0.4,0.1,0.5,0.2
			c0.1,0.1,0.2,0.3,0.2,0.5v47.5c0,0.2-0.1,0.4-0.2,0.5c-0.1,0.1-0.3,0.2-0.5,0.2h-2.4C414.2,1998.4,414.1,1998.3,413.9,1998.1z
			 M421.1,1953c-0.1-0.1-0.2-0.3-0.2-0.5v-2.4c0-0.2,0.1-0.4,0.2-0.5c0.1-0.1,0.3-0.2,0.5-0.2h18.2c0.2,0,0.4,0.1,0.5,0.2
			c0.1,0.1,0.2,0.3,0.2,0.5v2.4c0,0.2-0.1,0.4-0.2,0.5c-0.1,0.1-0.3,0.2-0.5,0.2h-18.2C421.4,1953.2,421.2,1953.1,421.1,1953z
			 M421.1,1975.2c-0.1-0.1-0.2-0.3-0.2-0.5v-2.4c0-0.2,0.1-0.4,0.2-0.5c0.1-0.1,0.3-0.2,0.5-0.2h15.1c0.2,0,0.4,0.1,0.5,0.2
			c0.1,0.1,0.2,0.3,0.2,0.5v2.4c0,0.2-0.1,0.4-0.2,0.5c-0.1,0.1-0.3,0.2-0.5,0.2h-15.1C421.4,1975.5,421.2,1975.4,421.1,1975.2z
			 M421.1,1998.1c-0.1-0.1-0.2-0.3-0.2-0.5v-2.4c0-0.2,0.1-0.4,0.2-0.5c0.1-0.1,0.3-0.2,0.5-0.2h18.2c0.2,0,0.4,0.1,0.5,0.2
			c0.1,0.1,0.2,0.3,0.2,0.5v2.4c0,0.2-0.1,0.4-0.2,0.5c-0.1,0.1-0.3,0.2-0.5,0.2h-18.2C421.4,1998.4,421.2,1998.3,421.1,1998.1z"/>
	</g>
	<g class="st1">
		<path d="M508.4,1998.1c-0.1-0.1-0.2-0.3-0.2-0.5v-47.5c0-0.2,0.1-0.4,0.2-0.5c0.1-0.1,0.3-0.2,0.5-0.2h2.4c0.2,0,0.4,0.1,0.5,0.2
			c0.1,0.1,0.2,0.3,0.2,0.5v47.5c0,0.2-0.1,0.4-0.2,0.5c-0.1,0.1-0.3,0.2-0.5,0.2h-2.4C508.7,1998.4,508.6,1998.3,508.4,1998.1z
			 M532.2,1969.8c-0.3-0.2-0.7-0.3-1.1-0.5c-0.5-0.2-0.6-0.6-0.4-1.1c1.4-2.1,2.1-4.2,2.1-6.6c0-1.6-0.4-3-1.1-4.3s-1.8-2.3-3.2-3.1
			c-1.4-0.8-3-1.2-4.9-1.2H516c-0.2,0-0.3-0.1-0.5-0.2c-0.1-0.1-0.2-0.3-0.2-0.5v-2.3c0-0.2,0.1-0.4,0.2-0.5
			c0.1-0.1,0.3-0.2,0.5-0.2h7.7c2.8,0,5.1,0.5,7,1.6c1.9,1.1,3.3,2.5,4.3,4.4s1.5,4,1.5,6.4c0,1.5-0.2,3-0.7,4.5
			c-0.5,1.4-1.1,2.7-1.9,3.8c-0.2,0.3-0.5,0.3-0.8,0.1C532.8,1970.1,532.6,1970,532.2,1969.8z M515.6,1998.1
			c-0.1-0.1-0.2-0.3-0.2-0.5v-2.3c0-0.2,0.1-0.4,0.2-0.5c0.1-0.1,0.3-0.2,0.5-0.2h7.9c3.1,0,5.5-0.9,7.1-2.6
			c1.6-1.7,2.5-4.1,2.5-7.1c0-3-0.8-5.3-2.5-7.1c-1.7-1.7-4-2.6-7.1-2.6H516c-0.2,0-0.3-0.1-0.5-0.2c-0.1-0.1-0.2-0.3-0.2-0.5v-2.3
			c0-0.2,0.1-0.4,0.2-0.5s0.3-0.2,0.5-0.2h7.7c2.9,0,5.3,0.5,7.3,1.6c2,1.1,3.6,2.6,4.6,4.6c1.1,2,1.6,4.4,1.6,7.2
			c0,2.8-0.5,5.2-1.6,7.2c-1.1,2-2.6,3.6-4.6,4.6c-2,1.1-4.5,1.6-7.3,1.6H516C515.8,1998.4,515.7,1998.3,515.6,1998.1z"/>
	</g>
	<g class="st1">
		<path d="M602.9,1998.1c-0.1-0.1-0.2-0.3-0.2-0.5v-47.5c0-0.2,0.1-0.4,0.2-0.5c0.1-0.1,0.3-0.2,0.5-0.2h2.4c0.2,0,0.4,0.1,0.5,0.2
			c0.1,0.1,0.2,0.3,0.2,0.5v47.5c0,0.2-0.1,0.4-0.2,0.5c-0.1,0.1-0.3,0.2-0.5,0.2h-2.4C603.2,1998.4,603.1,1998.3,602.9,1998.1z
			 M610.1,1953c-0.1-0.1-0.2-0.3-0.2-0.5v-2.4c0-0.2,0.1-0.4,0.2-0.5c0.1-0.1,0.3-0.2,0.5-0.2h18.2c0.2,0,0.4,0.1,0.5,0.2
			c0.1,0.1,0.2,0.3,0.2,0.5v2.4c0,0.2-0.1,0.4-0.2,0.5c-0.1,0.1-0.3,0.2-0.5,0.2h-18.2C610.3,1953.2,610.2,1953.1,610.1,1953z
			 M610.1,1975.2c-0.1-0.1-0.2-0.3-0.2-0.5v-2.4c0-0.2,0.1-0.4,0.2-0.5c0.1-0.1,0.3-0.2,0.5-0.2h15.1c0.2,0,0.4,0.1,0.5,0.2
			c0.1,0.1,0.2,0.3,0.2,0.5v2.4c0,0.2-0.1,0.4-0.2,0.5c-0.1,0.1-0.3,0.2-0.5,0.2h-15.1C610.3,1975.5,610.2,1975.4,610.1,1975.2z
			 M610.1,1998.1c-0.1-0.1-0.2-0.3-0.2-0.5v-2.4c0-0.2,0.1-0.4,0.2-0.5c0.1-0.1,0.3-0.2,0.5-0.2h18.2c0.2,0,0.4,0.1,0.5,0.2
			c0.1,0.1,0.2,0.3,0.2,0.5v2.4c0,0.2-0.1,0.4-0.2,0.5c-0.1,0.1-0.3,0.2-0.5,0.2h-18.2C610.3,1998.4,610.2,1998.3,610.1,1998.1z"/>
	</g>
	<g class="st1">
		<path d="M723.8,1998.2c-0.2-0.1-0.4-0.3-0.5-0.6l-25.9-46.6c-0.2-0.2-0.3-0.5-0.3-0.9c0-0.5,0.2-0.8,0.7-0.8h2.1
			c0.3,0,0.5,0,0.6,0.1c0.2,0.1,0.3,0.3,0.5,0.6l25.9,46.8c0.1,0.1,0.2,0.3,0.2,0.5c0,0.2,0,0.3,0,0.5c-0.1,0.3-0.3,0.5-0.6,0.5
			h-2.2C724.2,1998.4,724,1998.3,723.8,1998.2z M697.4,1998.1c-0.1-0.1-0.2-0.3-0.2-0.5v-38.8c0-0.4,0.1-0.6,0.3-0.6
			c0.2,0,0.4,0.1,0.5,0.4l2.5,4.5c0.1,0.3,0.2,0.6,0.2,0.9v33.6c0,0.2-0.1,0.4-0.2,0.5c-0.1,0.1-0.3,0.2-0.5,0.2h-2.2
			C697.7,1998.4,697.6,1998.3,697.4,1998.1z M724,1984.5c-0.1-0.3-0.2-0.6-0.2-0.9v-33.5c0-0.2,0.1-0.4,0.2-0.5
			c0.1-0.1,0.3-0.2,0.5-0.2h2.2c0.2,0,0.4,0.1,0.5,0.2c0.1,0.1,0.2,0.3,0.2,0.5v38.7c0,0.4-0.1,0.6-0.3,0.6c-0.2,0-0.3-0.1-0.5-0.4
			L724,1984.5z"/>
	</g>
	<g class="st1">
		<path d="M789.3,1998.1c-0.1-0.1-0.2-0.3-0.2-0.5v-2.4c0-0.2,0-0.4,0.1-0.5c0.1-0.1,0.2-0.3,0.3-0.4l25.3-44.4
			c0.2-0.3,0.5-0.5,0.8-0.5h1c0.2,0,0.4,0.1,0.5,0.2c0.1,0.1,0.2,0.3,0.2,0.5v2.4c0,0.1,0,0.3-0.1,0.5c0,0.2-0.1,0.3-0.3,0.5
			l-25.4,44.4c-0.2,0.3-0.5,0.5-0.8,0.5h-1C789.5,1998.4,789.4,1998.3,789.3,1998.1z M790.2,1953c-0.1-0.1-0.2-0.3-0.2-0.5v-2.4
			c0-0.2,0.1-0.4,0.2-0.5c0.1-0.1,0.3-0.2,0.5-0.2h19.8c0.3,0,0.4,0.1,0.5,0.3c0.1,0.2,0.1,0.4-0.1,0.6l-1.5,2.4
			c-0.2,0.3-0.5,0.5-0.8,0.5h-18C790.4,1953.2,790.3,1953.1,790.2,1953z M795.3,1998.1c-0.1-0.2,0-0.4,0.1-0.6l1.4-2.4
			c0.2-0.3,0.5-0.5,0.8-0.5h18.9c0.2,0,0.4,0.1,0.5,0.2c0.1,0.1,0.2,0.3,0.2,0.5v2.4c0,0.2-0.1,0.4-0.2,0.5
			c-0.1,0.1-0.3,0.2-0.5,0.2h-20.7C795.6,1998.4,795.4,1998.3,795.3,1998.1z"/>
	</g>
	<g class="st1">
		<path d="M887,1998.2c-0.1-0.1-0.2-0.3-0.3-0.5l-10.5-47.4l-0.1-0.3c0-0.1,0.1-0.3,0.2-0.4c0.1-0.1,0.2-0.1,0.4-0.1h2.3
			c0.3,0,0.5,0,0.6,0.1c0.1,0.1,0.2,0.3,0.3,0.6l10.1,47.1c0,0.1,0.1,0.3,0.1,0.5c0,0.4-0.2,0.6-0.6,0.6h-2.1
			C887.3,1998.4,887.1,1998.3,887,1998.2z M911.4,1998.2c-0.1-0.1-0.2-0.3-0.3-0.5l-10.3-40.4h-0.1l-8.4,32.5c0,0.1-0.1,0.3-0.2,0.4
			c-0.1,0.1-0.1,0.1-0.2,0.1c-0.2,0-0.3-0.2-0.4-0.5l-1-5c0-0.3,0-0.6,0-0.9l8.5-33.8c0.1-0.2,0.2-0.4,0.3-0.5
			c0.1-0.1,0.3-0.2,0.5-0.2h1.9c0.2,0,0.4,0.1,0.5,0.2c0.1,0.1,0.2,0.3,0.3,0.5l12,47.1l0.1,0.4c0,0.5-0.2,0.8-0.6,0.8h-2.1
			C911.6,1998.4,911.5,1998.3,911.4,1998.2z M914.3,1984.9c-0.1-0.4-0.1-0.7-0.1-0.9l7.2-33.9c0-0.3,0.1-0.5,0.3-0.6
			c0.1-0.1,0.3-0.1,0.6-0.1h2.3c0.2,0,0.4,0.1,0.5,0.2c0.1,0.1,0.1,0.3,0.1,0.6l-8.8,39.6c0,0.1-0.1,0.3-0.2,0.4
			c-0.1,0.1-0.1,0.1-0.2,0.1c-0.2,0-0.3-0.1-0.4-0.4L914.3,1984.9z"/>
	</g>
	<g class="st1">
		<path d="M984.6,1995.6c-2-1.8-3.5-4.3-4.4-7.5c-0.4-1.3-0.7-3-0.9-5.1c-0.2-2.1-0.3-5.1-0.3-9.1c0-4,0.1-7.1,0.3-9.1
			c0.2-2.1,0.5-3.8,0.9-5.1c1-3.2,2.4-5.7,4.4-7.5s4.5-2.9,7.4-3.3h0.1c0.2,0,0.3,0.1,0.4,0.2c0.1,0.1,0.2,0.3,0.2,0.5v2.4
			c0,0.4-0.2,0.6-0.6,0.7c-4.2,0.8-7,3.5-8.4,8.1c-0.3,1.1-0.6,2.7-0.8,4.6c-0.2,2-0.3,4.8-0.3,8.5c0,3.6,0.1,6.5,0.3,8.5
			c0.2,2,0.5,3.5,0.8,4.6c1.4,4.7,4.2,7.4,8.4,8.1c0.4,0,0.6,0.3,0.6,0.7v2.4c0,0.2-0.1,0.4-0.2,0.5c-0.1,0.1-0.3,0.2-0.5,0.1
			C989,1998.6,986.5,1997.5,984.6,1995.6z M986.2,1941.5c-0.1-0.1-0.2-0.3-0.2-0.5v-3.9c0-0.2,0.1-0.4,0.2-0.5s0.3-0.2,0.5-0.2h2.5
			c0.2,0,0.4,0.1,0.5,0.2s0.2,0.3,0.2,0.5v3.9c0,0.2-0.1,0.4-0.2,0.5c-0.1,0.1-0.3,0.2-0.5,0.2h-2.5
			C986.5,1941.7,986.3,1941.6,986.2,1941.5z M996.7,1998.9c-0.2,0-0.3-0.1-0.4-0.2c-0.1-0.1-0.2-0.3-0.2-0.5v-2.4
			c0-0.4,0.2-0.7,0.6-0.7c4.2-0.8,7-3.5,8.4-8.1c0.3-1.2,0.6-2.7,0.8-4.7c0.2-2,0.3-4.8,0.3-8.4c0-3.6-0.1-6.4-0.3-8.4
			c-0.2-2-0.5-3.6-0.8-4.7c-1.4-4.7-4.2-7.4-8.4-8.1c-0.4-0.1-0.6-0.3-0.6-0.7v-2.4c0-0.2,0.1-0.4,0.2-0.5c0.1-0.1,0.3-0.2,0.5-0.1
			c2.9,0.4,5.4,1.5,7.4,3.3c2,1.8,3.5,4.3,4.5,7.5c0.4,1.4,0.7,3.1,0.9,5.2c0.2,2.1,0.3,5.1,0.3,9.1c0,3.9-0.1,6.9-0.3,9
			c-0.2,2.1-0.5,3.8-0.9,5.2c-1,3.2-2.4,5.7-4.5,7.5c-2,1.8-4.5,2.9-7.4,3.3H996.7z M999.2,1941.5c-0.1-0.1-0.2-0.3-0.2-0.5v-3.9
			c0-0.2,0.1-0.4,0.2-0.5s0.3-0.2,0.5-0.2h2.5c0.2,0,0.4,0.1,0.5,0.2s0.2,0.3,0.2,0.5v3.9c0,0.2-0.1,0.4-0.2,0.5
			c-0.1,0.1-0.3,0.2-0.5,0.2h-2.5C999.5,1941.7,999.3,1941.6,999.2,1941.5z"/>
	</g>
	<g class="st1">
		<path d="M1075.4,1998.1c-0.1-0.1-0.2-0.3-0.2-0.5v-47.5c0-0.2,0.1-0.4,0.2-0.5c0.1-0.1,0.3-0.2,0.5-0.2h2.4c0.2,0,0.4,0.1,0.5,0.2
			c0.1,0.1,0.2,0.3,0.2,0.5v47.5c0,0.2-0.1,0.4-0.2,0.5c-0.1,0.1-0.3,0.2-0.5,0.2h-2.4C1075.7,1998.4,1075.5,1998.3,1075.4,1998.1z
			 M1082.6,1998.1c-0.1-0.1-0.2-0.3-0.2-0.5v-2.4c0-0.2,0.1-0.4,0.2-0.5c0.1-0.1,0.3-0.2,0.5-0.2h18.2c0.2,0,0.4,0.1,0.5,0.2
			c0.1,0.1,0.2,0.3,0.2,0.5v2.4c0,0.2-0.1,0.4-0.2,0.5c-0.1,0.1-0.3,0.2-0.5,0.2H1083C1082.8,1998.4,1082.7,1998.3,1082.6,1998.1z"
			/>
	</g>
	<g class="st1">
		<path d="M1169.9,1998.1c-0.1-0.1-0.2-0.3-0.2-0.5v-47.5c0-0.2,0.1-0.4,0.2-0.5c0.1-0.1,0.3-0.2,0.5-0.2h2.4c0.2,0,0.4,0.1,0.5,0.2
			c0.1,0.1,0.2,0.3,0.2,0.5v47.5c0,0.2-0.1,0.4-0.2,0.5c-0.1,0.1-0.3,0.2-0.5,0.2h-2.4C1170.2,1998.4,1170,1998.3,1169.9,1998.1z
			 M1177.1,1953c-0.1-0.1-0.2-0.3-0.2-0.5v-2.4c0-0.2,0.1-0.4,0.2-0.5c0.1-0.1,0.3-0.2,0.5-0.2h18.2c0.2,0,0.4,0.1,0.5,0.2
			c0.1,0.1,0.2,0.3,0.2,0.5v2.4c0,0.2-0.1,0.4-0.2,0.5c-0.1,0.1-0.3,0.2-0.5,0.2h-18.2C1177.3,1953.2,1177.2,1953.1,1177.1,1953z
			 M1177.1,1975.8c-0.1-0.1-0.2-0.3-0.2-0.5v-2.4c0-0.2,0.1-0.4,0.2-0.5c0.1-0.1,0.3-0.2,0.5-0.2h15.1c0.2,0,0.4,0.1,0.5,0.2
			c0.1,0.1,0.2,0.3,0.2,0.5v2.4c0,0.2-0.1,0.4-0.2,0.5c-0.1,0.1-0.3,0.2-0.5,0.2h-15.1C1177.3,1976,1177.2,1975.9,1177.1,1975.8z"/>
	</g>
	<g class="st1">
		<path d="M222.3,2114.4c-0.1-0.1-0.2-0.3-0.2-0.5v-2.4c0-0.2,0-0.4,0.1-0.5c0.1-0.1,0.2-0.3,0.3-0.4l25.3-44.4
			c0.2-0.3,0.5-0.5,0.8-0.5h1c0.2,0,0.4,0.1,0.5,0.2c0.1,0.1,0.2,0.3,0.2,0.5v2.4c0,0.1,0,0.3-0.1,0.5c0,0.2-0.1,0.3-0.3,0.5
			l-25.4,44.4c-0.2,0.3-0.5,0.5-0.8,0.5h-1C222.5,2114.6,222.4,2114.5,222.3,2114.4z M223.2,2069.2c-0.1-0.1-0.2-0.3-0.2-0.5v-2.4
			c0-0.2,0.1-0.4,0.2-0.5c0.1-0.1,0.3-0.2,0.5-0.2h19.8c0.3,0,0.4,0.1,0.5,0.3c0.1,0.2,0.1,0.4-0.1,0.6l-1.5,2.4
			c-0.2,0.3-0.5,0.5-0.8,0.5h-18C223.5,2069.5,223.3,2069.4,223.2,2069.2z M228.3,2114.4c-0.1-0.2,0-0.4,0.1-0.6l1.4-2.4
			c0.2-0.3,0.5-0.5,0.8-0.5h18.9c0.2,0,0.4,0.1,0.5,0.2c0.1,0.1,0.2,0.3,0.2,0.5v2.4c0,0.2-0.1,0.4-0.2,0.5
			c-0.1,0.1-0.3,0.2-0.5,0.2h-20.7C228.6,2114.6,228.4,2114.5,228.3,2114.4z"/>
	</g>
	<g class="st1">
		<path d="M319.4,2114.4c-0.1-0.1-0.2-0.3-0.2-0.5v-47.5c0-0.2,0.1-0.4,0.2-0.5c0.1-0.1,0.3-0.2,0.5-0.2h2.4c0.2,0,0.4,0.1,0.5,0.2
			c0.1,0.1,0.2,0.3,0.2,0.5v47.5c0,0.2-0.1,0.4-0.2,0.5c-0.1,0.1-0.3,0.2-0.5,0.2h-2.4C319.7,2114.6,319.6,2114.5,319.4,2114.4z
			 M326.6,2069.2c-0.1-0.1-0.2-0.3-0.2-0.5v-2.4c0-0.2,0.1-0.4,0.2-0.5c0.1-0.1,0.3-0.2,0.5-0.2h18.2c0.2,0,0.4,0.1,0.5,0.2
			c0.1,0.1,0.2,0.3,0.2,0.5v2.4c0,0.2-0.1,0.4-0.2,0.5c-0.1,0.1-0.3,0.2-0.5,0.2H327C326.9,2069.5,326.7,2069.4,326.6,2069.2z
			 M326.6,2091.5c-0.1-0.1-0.2-0.3-0.2-0.5v-2.4c0-0.2,0.1-0.4,0.2-0.5c0.1-0.1,0.3-0.2,0.5-0.2h15.1c0.2,0,0.4,0.1,0.5,0.2
			c0.1,0.1,0.2,0.3,0.2,0.5v2.4c0,0.2-0.1,0.4-0.2,0.5c-0.1,0.1-0.3,0.2-0.5,0.2H327C326.9,2091.7,326.7,2091.6,326.6,2091.5z
			 M326.6,2114.4c-0.1-0.1-0.2-0.3-0.2-0.5v-2.4c0-0.2,0.1-0.4,0.2-0.5c0.1-0.1,0.3-0.2,0.5-0.2h18.2c0.2,0,0.4,0.1,0.5,0.2
			c0.1,0.1,0.2,0.3,0.2,0.5v2.4c0,0.2-0.1,0.4-0.2,0.5c-0.1,0.1-0.3,0.2-0.5,0.2H327C326.9,2114.6,326.7,2114.5,326.6,2114.4z"/>
	</g>
	<g class="st1">
		<path d="M413.9,2114.4c-0.1-0.1-0.2-0.3-0.2-0.5v-47.5c0-0.2,0.1-0.4,0.2-0.5c0.1-0.1,0.3-0.2,0.5-0.2h2.4c0.2,0,0.4,0.1,0.5,0.2
			c0.1,0.1,0.2,0.3,0.2,0.5v47.5c0,0.2-0.1,0.4-0.2,0.5c-0.1,0.1-0.3,0.2-0.5,0.2h-2.4C414.2,2114.6,414.1,2114.5,413.9,2114.4z
			 M420.8,2091.5c-0.1-0.1-0.2-0.3-0.2-0.5v-2.4c0-0.2,0.1-0.4,0.2-0.5c0.1-0.1,0.3-0.2,0.5-0.2h14.9c0.2,0,0.4,0.1,0.5,0.2
			c0.1,0.1,0.2,0.3,0.2,0.5v2.4c0,0.2-0.1,0.4-0.2,0.5c-0.1,0.1-0.3,0.2-0.5,0.2h-14.9C421.1,2091.7,420.9,2091.6,420.8,2091.5z
			 M440.2,2114.4c-0.1-0.1-0.2-0.3-0.2-0.5v-47.5c0-0.2,0.1-0.4,0.2-0.5c0.1-0.1,0.3-0.2,0.5-0.2h2.4c0.2,0,0.4,0.1,0.5,0.2
			c0.1,0.1,0.2,0.3,0.2,0.5v47.5c0,0.2-0.1,0.4-0.2,0.5c-0.1,0.1-0.3,0.2-0.5,0.2h-2.4C440.5,2114.6,440.4,2114.5,440.2,2114.4z"/>
	</g>
	<g class="st1">
		<path d="M534.8,2114.5c-0.2-0.1-0.4-0.3-0.5-0.6l-25.9-46.6c-0.2-0.2-0.3-0.5-0.3-0.9c0-0.5,0.2-0.8,0.7-0.8h2.1
			c0.3,0,0.5,0,0.6,0.1c0.2,0.1,0.3,0.3,0.5,0.6l25.9,46.8c0.1,0.1,0.2,0.3,0.2,0.5c0,0.2,0,0.3,0,0.5c-0.1,0.3-0.3,0.5-0.6,0.5
			h-2.2C535.2,2114.6,535,2114.6,534.8,2114.5z M508.4,2114.4c-0.1-0.1-0.2-0.3-0.2-0.5v-38.8c0-0.4,0.1-0.6,0.3-0.6
			c0.2,0,0.4,0.1,0.5,0.4l2.5,4.5c0.1,0.3,0.2,0.6,0.2,0.9v33.6c0,0.2-0.1,0.4-0.2,0.5c-0.1,0.1-0.3,0.2-0.5,0.2h-2.2
			C508.7,2114.6,508.6,2114.5,508.4,2114.4z M535,2100.8c-0.1-0.3-0.2-0.6-0.2-0.9v-33.5c0-0.2,0.1-0.4,0.2-0.5
			c0.1-0.1,0.3-0.2,0.5-0.2h2.2c0.2,0,0.4,0.1,0.5,0.2c0.1,0.1,0.2,0.3,0.2,0.5v38.7c0,0.4-0.1,0.6-0.3,0.6c-0.2,0-0.3-0.1-0.5-0.4
			L535,2100.8z"/>
	</g>
	<g class="st1">
		<path d="M602.9,2114.4c-0.1-0.1-0.2-0.3-0.2-0.5v-47.5c0-0.2,0.1-0.4,0.2-0.5c0.1-0.1,0.3-0.2,0.5-0.2h2.4c0.2,0,0.4,0.1,0.5,0.2
			c0.1,0.1,0.2,0.3,0.2,0.5v47.5c0,0.2-0.1,0.4-0.2,0.5c-0.1,0.1-0.3,0.2-0.5,0.2h-2.4C603.2,2114.6,603.1,2114.5,602.9,2114.4z
			 M610.1,2069.2c-0.1-0.1-0.2-0.3-0.2-0.5v-2.4c0-0.2,0.1-0.4,0.2-0.5c0.1-0.1,0.3-0.2,0.5-0.2h18.2c0.2,0,0.4,0.1,0.5,0.2
			c0.1,0.1,0.2,0.3,0.2,0.5v2.4c0,0.2-0.1,0.4-0.2,0.5c-0.1,0.1-0.3,0.2-0.5,0.2h-18.2C610.3,2069.5,610.2,2069.4,610.1,2069.2z
			 M610.1,2091.5c-0.1-0.1-0.2-0.3-0.2-0.5v-2.4c0-0.2,0.1-0.4,0.2-0.5c0.1-0.1,0.3-0.2,0.5-0.2h15.1c0.2,0,0.4,0.1,0.5,0.2
			c0.1,0.1,0.2,0.3,0.2,0.5v2.4c0,0.2-0.1,0.4-0.2,0.5c-0.1,0.1-0.3,0.2-0.5,0.2h-15.1C610.3,2091.7,610.2,2091.6,610.1,2091.5z
			 M610.1,2114.4c-0.1-0.1-0.2-0.3-0.2-0.5v-2.4c0-0.2,0.1-0.4,0.2-0.5c0.1-0.1,0.3-0.2,0.5-0.2h18.2c0.2,0,0.4,0.1,0.5,0.2
			c0.1,0.1,0.2,0.3,0.2,0.5v2.4c0,0.2-0.1,0.4-0.2,0.5c-0.1,0.1-0.3,0.2-0.5,0.2h-18.2C610.3,2114.6,610.2,2114.5,610.1,2114.4z"/>
	</g>
	<g class="st1">
		<path d="M700.1,2110.1c-2.2-3-3.3-7.1-3.3-12.4v-31.3c0-0.2,0.1-0.4,0.2-0.5c0.1-0.1,0.3-0.2,0.5-0.2h2.4c0.2,0,0.4,0.1,0.5,0.2
			c0.1,0.1,0.2,0.3,0.2,0.5v31.3c0,4,0.8,7.2,2.3,9.5c1.5,2.3,3.8,3.7,6.7,4.2c0.4,0,0.6,0.3,0.6,0.7v2.4c0,0.2-0.1,0.4-0.2,0.5
			c-0.1,0.1-0.3,0.2-0.5,0.1C705.3,2114.7,702.2,2113,700.1,2110.1z M714.1,2115.2c-0.2,0-0.3-0.1-0.4-0.2c-0.1-0.1-0.2-0.3-0.2-0.5
			v-2.4c0-0.4,0.2-0.7,0.6-0.7c2.9-0.5,5.1-1.9,6.7-4.2c1.5-2.3,2.3-5.5,2.3-9.5v-31.3c0-0.2,0.1-0.4,0.2-0.5
			c0.1-0.1,0.3-0.2,0.5-0.2h2.4c0.2,0,0.4,0.1,0.5,0.2c0.1,0.1,0.2,0.3,0.2,0.5v31.3c0,5.3-1.1,9.4-3.2,12.3c-2.2,3-5.3,4.7-9.3,5.1
			H714.1z"/>
	</g>
	<g class="st1">
		<path d="M818.3,2114.5c-0.2-0.1-0.4-0.3-0.5-0.6l-25.9-46.6c-0.2-0.2-0.3-0.5-0.3-0.9c0-0.5,0.2-0.8,0.7-0.8h2.1
			c0.3,0,0.5,0,0.6,0.1c0.2,0.1,0.3,0.3,0.5,0.6l25.9,46.8c0.1,0.1,0.2,0.3,0.2,0.5c0,0.2,0,0.3,0,0.5c-0.1,0.3-0.3,0.5-0.6,0.5
			h-2.2C818.7,2114.6,818.5,2114.6,818.3,2114.5z M791.9,2114.4c-0.1-0.1-0.2-0.3-0.2-0.5v-38.8c0-0.4,0.1-0.6,0.3-0.6
			c0.2,0,0.4,0.1,0.5,0.4l2.5,4.5c0.1,0.3,0.2,0.6,0.2,0.9v33.6c0,0.2-0.1,0.4-0.2,0.5c-0.1,0.1-0.3,0.2-0.5,0.2h-2.2
			C792.2,2114.6,792.1,2114.5,791.9,2114.4z M818.5,2100.8c-0.1-0.3-0.2-0.6-0.2-0.9v-33.5c0-0.2,0.1-0.4,0.2-0.5
			c0.1-0.1,0.3-0.2,0.5-0.2h2.2c0.2,0,0.4,0.1,0.5,0.2c0.1,0.1,0.2,0.3,0.2,0.5v38.7c0,0.4-0.1,0.6-0.3,0.6c-0.2,0-0.3-0.1-0.5-0.4
			L818.5,2100.8z"/>
	</g>
	<g class="st1">
		<path d="M886.4,2114.4c-0.1-0.1-0.2-0.3-0.2-0.5v-47.5c0-0.2,0.1-0.4,0.2-0.5c0.1-0.1,0.3-0.2,0.5-0.2h2.4c0.2,0,0.4,0.1,0.5,0.2
			c0.1,0.1,0.2,0.3,0.2,0.5v47.5c0,0.2-0.1,0.4-0.2,0.5c-0.1,0.1-0.3,0.2-0.5,0.2h-2.4C886.7,2114.6,886.5,2114.5,886.4,2114.4z
			 M893.7,2094.7c-0.2,0-0.3-0.2-0.3-0.6v-3.7c0-0.2,0.1-0.5,0.3-0.9l17.3-23.2c0.2-0.3,0.4-0.5,0.6-0.6c0.2-0.1,0.3-0.1,0.6-0.1h3
			c0.2,0,0.4,0.1,0.4,0.3c0.1,0.2,0,0.3-0.1,0.5l-21.2,28C894,2094.6,893.9,2094.7,893.7,2094.7z M912.7,2114.5
			c-0.1-0.1-0.3-0.3-0.4-0.6l-11.3-21.8c-0.1-0.2-0.1-0.3-0.1-0.4c0-0.2,0.1-0.4,0.2-0.6l1.6-2.1c0.2-0.2,0.3-0.3,0.5-0.3
			c0.2,0,0.3,0.1,0.5,0.4l12.9,24.8l0.1,0.3c0,0.3-0.1,0.4-0.4,0.4h-2.9C913,2114.6,912.9,2114.6,912.7,2114.5z"/>
	</g>
	<g class="st1">
		<path d="M983.5,2110.1c-2.2-3-3.3-7.1-3.3-12.4v-31.3c0-0.2,0.1-0.4,0.2-0.5c0.1-0.1,0.3-0.2,0.5-0.2h2.4c0.2,0,0.4,0.1,0.5,0.2
			c0.1,0.1,0.2,0.3,0.2,0.5v31.3c0,4,0.8,7.2,2.3,9.5c1.5,2.3,3.8,3.7,6.7,4.2c0.4,0,0.6,0.3,0.6,0.7v2.4c0,0.2-0.1,0.4-0.2,0.5
			c-0.1,0.1-0.3,0.2-0.5,0.1C988.8,2114.7,985.7,2113,983.5,2110.1z M997.5,2115.2c-0.2,0-0.3-0.1-0.4-0.2c-0.1-0.1-0.2-0.3-0.2-0.5
			v-2.4c0-0.4,0.2-0.7,0.6-0.7c2.9-0.5,5.1-1.9,6.7-4.2c1.5-2.3,2.3-5.5,2.3-9.5v-31.3c0-0.2,0.1-0.4,0.2-0.5
			c0.1-0.1,0.3-0.2,0.5-0.2h2.4c0.2,0,0.4,0.1,0.5,0.2c0.1,0.1,0.2,0.3,0.2,0.5v31.3c0,5.3-1.1,9.4-3.2,12.3c-2.2,3-5.3,4.7-9.3,5.1
			H997.5z"/>
	</g>
	<g class="st1">
		<path d="M1075.4,2114.4c-0.1-0.1-0.2-0.3-0.2-0.5v-47.5c0-0.2,0.1-0.4,0.2-0.5c0.1-0.1,0.3-0.2,0.5-0.2h2.4c0.2,0,0.4,0.1,0.5,0.2
			c0.1,0.1,0.2,0.3,0.2,0.5v47.5c0,0.2-0.1,0.4-0.2,0.5c-0.1,0.1-0.3,0.2-0.5,0.2h-2.4C1075.7,2114.6,1075.5,2114.5,1075.4,2114.4z
			 M1082.3,2091.5c-0.1-0.1-0.2-0.3-0.2-0.5v-2.4c0-0.2,0.1-0.4,0.2-0.5c0.1-0.1,0.3-0.2,0.5-0.2h14.9c0.2,0,0.4,0.1,0.5,0.2
			c0.1,0.1,0.2,0.3,0.2,0.5v2.4c0,0.2-0.1,0.4-0.2,0.5c-0.1,0.1-0.3,0.2-0.5,0.2h-14.9C1082.6,2091.7,1082.4,2091.6,1082.3,2091.5z
			 M1101.7,2114.4c-0.1-0.1-0.2-0.3-0.2-0.5v-47.5c0-0.2,0.1-0.4,0.2-0.5c0.1-0.1,0.3-0.2,0.5-0.2h2.4c0.2,0,0.4,0.1,0.5,0.2
			c0.1,0.1,0.2,0.3,0.2,0.5v47.5c0,0.2-0.1,0.4-0.2,0.5c-0.1,0.1-0.3,0.2-0.5,0.2h-2.4C1102,2114.6,1101.9,2114.5,1101.7,2114.4z"/>
	</g>
	<g class="st1">
		<path d="M1169.9,2114.4c-0.1-0.1-0.2-0.3-0.2-0.5v-47.5c0-0.2,0.1-0.4,0.2-0.5c0.1-0.1,0.3-0.2,0.5-0.2h2.4c0.2,0,0.4,0.1,0.5,0.2
			c0.1,0.1,0.2,0.3,0.2,0.5v47.5c0,0.2-0.1,0.4-0.2,0.5c-0.1,0.1-0.3,0.2-0.5,0.2h-2.4C1170.2,2114.6,1170,2114.5,1169.9,2114.4z
			 M1177.1,2092.4c-0.1-0.1-0.2-0.3-0.2-0.5v-2.4c0-0.2,0.1-0.4,0.2-0.5c0.1-0.1,0.3-0.2,0.5-0.2h7.6c3.2,0,5.6-0.8,7.3-2.5
			c1.7-1.7,2.5-4,2.5-7.2s-0.8-5.5-2.5-7.2c-1.7-1.7-4.1-2.5-7.3-2.5h-7.6c-0.2,0-0.3-0.1-0.5-0.2c-0.1-0.1-0.2-0.3-0.2-0.5v-2.4
			c0-0.2,0.1-0.4,0.2-0.5c0.1-0.1,0.3-0.2,0.5-0.2h7.7c2.8,0,5.2,0.5,7.2,1.6s3.6,2.6,4.6,4.7c1.1,2,1.6,4.5,1.6,7.2
			c0,2.6-0.5,5-1.6,7.1c-1,2.1-2.6,3.7-4.6,4.8c-2.1,1.1-4.6,1.7-7.6,1.6h-7.3C1177.3,2092.6,1177.2,2092.6,1177.1,2092.4z
			 M1195.4,2114.5c-0.1-0.1-0.2-0.3-0.3-0.5l-7.4-17.1c-0.1-0.3-0.1-0.6,0-0.7c0.1-0.1,0.2-0.2,0.4-0.2c0.2,0,0.3-0.1,0.3-0.1
			c0.8-0.1,1.5-0.2,1.9-0.4c0.1,0,0.2-0.1,0.3-0.1c0.3,0,0.5,0.2,0.5,0.5l8,17.9c0,0.1,0.1,0.2,0.1,0.4c0,0.3-0.2,0.4-0.5,0.4h-2.9
			C1195.7,2114.6,1195.5,2114.6,1195.4,2114.5z"/>
	</g>
</g>
<g class="st2">
	<rect x="194.2" y="141.4" class="st3" width="85" height="85"/>
	<rect x="288.6" y="141.4" class="st4" width="85" height="85"/>
	<rect x="383" y="141.4" class="st3" width="85" height="85"/>
	<rect x="477.4" y="141.4" class="st3" width="85" height="85"/>
	<rect x="571.7" y="141.4" class="st3" width="85" height="85"/>
	<rect x="666.1" y="141.4" class="st3" width="85" height="85"/>
	<rect x="760.5" y="141.4" class="st3" width="85" height="85"/>
	<rect x="854.9" y="141.4" class="st3" width="85" height="85"/>
	<rect x="949.3" y="141.4" class="st3" width="85" height="85"/>
	<rect x="1043.7" y="141.4" class="st3" width="85" height="85"/>
	<rect x="1138.1" y="141.4" class="st3" width="85" height="85"/>
	<rect x="194.2" y="257.3" class="st3" width="85" height="85"/>
	<rect x="288.6" y="257.3" class="st3" width="85" height="85"/>
	<rect x="383" y="257.3" class="st3" width="85" height="85"/>
	<rect x="477.4" y="257.3" class="st3" width="85" height="85"/>
	<rect x="571.7" y="257.3" class="st3" width="85" height="85"/>
	<rect x="666.1" y="257.3" class="st3" width="85" height="85"/>
	<rect x="760.5" y="257.3" class="st3" width="85" height="85"/>
	<rect x="854.9" y="257.3" class="st3" width="85" height="85"/>
	<rect x="949.3" y="257.3" class="st3" width="85" height="85"/>
	<rect x="1043.7" y="257.3" class="st3" width="85" height="85"/>
	<rect x="1138.1" y="257.3" class="st3" width="85" height="85"/>
	<rect x="194.2" y="373.3" class="st3" width="85" height="85"/>
	<rect x="288.6" y="373.3" class="st3" width="85" height="85"/>
	<rect x="383" y="373.3" class="st3" width="85" height="85"/>
	<rect x="477.4" y="373.3" class="st3" width="85" height="85"/>
	<rect x="571.7" y="373.3" class="st3" width="85" height="85"/>
	<rect x="666.1" y="373.3" class="st3" width="85" height="85"/>
	<rect x="760.5" y="373.3" class="st3" width="85" height="85"/>
	<rect x="854.9" y="373.3" class="st3" width="85" height="85"/>
	<rect x="949.3" y="373.3" class="st3" width="85" height="85"/>
	<rect x="1043.7" y="373.3" class="st3" width="85" height="85"/>
	<rect x="1138.1" y="373.3" class="st3" width="85" height="85"/>
	<rect x="194.2" y="489.2" class="st3" width="85" height="85"/>
	<rect x="288.6" y="489.2" class="st3" width="85" height="85"/>
	<rect x="383" y="489.2" class="st3" width="85" height="85"/>
	<rect x="477.4" y="489.2" class="st3" width="85" height="85"/>
	<rect x="571.7" y="489.2" class="st3" width="85" height="85"/>
	<rect x="666.1" y="489.2" class="st3" width="85" height="85"/>
	<rect x="760.5" y="489.2" class="st3" width="85" height="85"/>
	<rect x="854.9" y="489.2" class="st3" width="85" height="85"/>
	<rect x="949.3" y="489.2" class="st3" width="85" height="85"/>
	<rect x="1043.7" y="489.2" class="st3" width="85" height="85"/>
	<rect x="1138.1" y="489.2" class="st3" width="85" height="85"/>
	<rect x="194.2" y="605.2" class="st3" width="85" height="85"/>
	<rect x="288.6" y="605.2" class="st3" width="85" height="85"/>
	<rect x="383" y="605.2" class="st3" width="85" height="85"/>
	<rect x="477.4" y="605.2" class="st3" width="85" height="85"/>
	<rect x="571.7" y="605.2" class="st3" width="85" height="85"/>
	<rect x="666.1" y="605.2" class="st3" width="85" height="85"/>
	<rect x="760.5" y="605.2" class="st3" width="85" height="85"/>
	<rect x="854.9" y="605.2" class="st3" width="85" height="85"/>
	<rect x="949.3" y="605.2" class="st3" width="85" height="85"/>
	<rect x="1043.7" y="605.2" class="st3" width="85" height="85"/>
	<rect x="1138.1" y="605.2" class="st3" width="85" height="85"/>
	<rect x="548.7" y="1325.8" class="st3" width="35.4" height="35.4"/>
	<rect x="643.5" y="1325.8" class="st3" width="35.4" height="35.4"/>
	<rect x="738.4" y="1325.8" class="st3" width="35.4" height="35.4"/>
	<rect x="833.2" y="1325.8" class="st3" width="35.4" height="35.4"/>
	<rect x="194.2" y="721.1" class="st3" width="85" height="85"/>
	<rect x="288.6" y="721.1" class="st3" width="85" height="85"/>
	<rect x="383" y="721.1" class="st3" width="85" height="85"/>
	<rect x="477.4" y="721.1" class="st3" width="85" height="85"/>
	<rect x="571.7" y="721.1" class="st3" width="85" height="85"/>
	<rect x="666.1" y="721.1" class="st3" width="85" height="85"/>
	<rect x="760.5" y="721.1" class="st3" width="85" height="85"/>
	<rect x="854.9" y="721.1" class="st3" width="85" height="85"/>
	<rect x="949.3" y="721.1" class="st3" width="85" height="85"/>
	<rect x="1043.7" y="721.1" class="st3" width="85" height="85"/>
	<rect x="1138.1" y="721.1" class="st3" width="85" height="85"/>
	<rect x="194.2" y="837" class="st3" width="85" height="85"/>
	<rect x="288.6" y="837" class="st3" width="85" height="85"/>
	<rect x="383" y="837" class="st3" width="85" height="85"/>
	<rect x="477.4" y="837" class="st3" width="85" height="85"/>
	<rect x="571.7" y="837" class="st3" width="85" height="85"/>
	<rect x="666.1" y="837" class="st3" width="85" height="85"/>
	<rect x="760.5" y="837" class="st3" width="85" height="85"/>
	<rect x="854.9" y="837" class="st3" width="85" height="85"/>
	<rect x="949.3" y="837" class="st3" width="85" height="85"/>
	<rect x="1043.7" y="837" class="st3" width="85" height="85"/>
	<rect x="1138.1" y="837" class="st3" width="85" height="85"/>
	<rect x="194.2" y="953" class="st3" width="85" height="85"/>
	<rect x="288.6" y="953" class="st3" width="85" height="85"/>
	<rect x="383" y="953" class="st3" width="85" height="85"/>
	<rect x="477.4" y="953" class="st3" width="85" height="85"/>
	<rect x="571.7" y="953" class="st3" width="85" height="85"/>
	<rect x="666.1" y="953" class="st3" width="85" height="85"/>
	<rect x="760.5" y="953" class="st3" width="85" height="85"/>
	<rect x="854.9" y="953" class="st3" width="85" height="85"/>
	<rect x="949.3" y="953" class="st3" width="85" height="85"/>
	<rect x="1043.7" y="953" class="st3" width="85" height="85"/>
	<rect x="1138.1" y="953" class="st3" width="85" height="85"/>
	<rect x="194.2" y="1068.9" class="st3" width="85" height="85"/>
	<rect x="288.6" y="1068.9" class="st3" width="85" height="85"/>
	<rect x="383" y="1068.9" class="st3" width="85" height="85"/>
	<rect x="477.4" y="1068.9" class="st3" width="85" height="85"/>
	<rect x="571.7" y="1068.9" class="st3" width="85" height="85"/>
	<rect x="666.1" y="1068.9" class="st3" width="85" height="85"/>
	<rect x="760.5" y="1068.9" class="st3" width="85" height="85"/>
	<rect x="854.9" y="1068.9" class="st3" width="85" height="85"/>
	<rect x="949.3" y="1068.9" class="st3" width="85" height="85"/>
	<rect x="1043.7" y="1068.9" class="st3" width="85" height="85"/>
	<rect x="1138.1" y="1068.9" class="st3" width="85" height="85"/>
	<rect x="194.2" y="1184.8" class="st3" width="85" height="85"/>
	<rect x="288.6" y="1184.8" class="st3" width="85" height="85"/>
	<rect x="383" y="1184.8" class="st3" width="85" height="85"/>
	<rect x="477.4" y="1184.8" class="st3" width="85" height="85"/>
	<rect x="571.7" y="1184.8" class="st3" width="85" height="85"/>
	<rect x="666.1" y="1184.8" class="st3" width="85" height="85"/>
	<rect x="760.5" y="1184.8" class="st3" width="85" height="85"/>
	<rect x="854.9" y="1184.8" class="st3" width="85" height="85"/>
	<rect x="949.3" y="1184.8" class="st3" width="85" height="85"/>
	<rect x="1043.7" y="1184.8" class="st3" width="85" height="85"/>
	<rect x="1138.1" y="1184.8" class="st3" width="85" height="85"/>
</g>
</svg>
