<?xml version="1.0" encoding="utf-8"?>
<!-- Generator: Adobe Illustrator 24.3.0, SVG Export Plug-In . SVG Version: 6.00 Build 0)  -->
<svg version="1.1"
	 id="svg918" inkscape:version="0.92.4 (5da689c313, 2019-01-14)" xmlns:cc="http://creativecommons.org/ns#" xmlns:dc="http://purl.org/dc/elements/1.1/" xmlns:inkscape="http://www.inkscape.org/namespaces/inkscape" xmlns:rdf="http://www.w3.org/1999/02/22-rdf-syntax-ns#" xmlns:sodipodi="http://sodipodi.sourceforge.net/DTD/sodipodi-0.dtd" xmlns:svg="http://www.w3.org/2000/svg"
	 xmlns="http://www.w3.org/2000/svg" xmlns:xlink="http://www.w3.org/1999/xlink" x="0px" y="0px" viewBox="0 0 1417.3 1417.3"
	 style="enable-background:new 0 0 1417.3 1417.3;" xml:space="preserve">
<style type="text/css">
	.st0{fill:#000055;fill-opacity:0.1647;}
	.st1{enable-background:new    ;}
	.st2{display:none;}
	.st3{display:inline;fill:none;stroke:#FF0000;stroke-width:0.1;stroke-miterlimit:10;}
	.st4{display:inline;opacity:0.99;fill:none;stroke:#FF0000;stroke-width:0.1;stroke-miterlimit:10;enable-background:new    ;}
</style>
<g id="g916" transform="translate(0,-861.73197)">
	<path id="path2" inkscape:connector-curvature="0" class="st0" d="M0,861.7h1417.3V2279H0V861.7z"/>
	<circle id="circle6" cx="566.6" cy="2205.2" r="10.7"/>
	
		<ellipse id="circle6_1_" transform="matrix(0.7071 -0.7071 0.7071 0.7071 -1365.6824 1113.4238)" cx="661.2" cy="2205.2" rx="10.6" ry="10.7"/>
	
		<ellipse id="circle6_2_" transform="matrix(0.7071 -0.7071 0.7071 0.7071 -1337.8657 1180.5065)" cx="756.1" cy="2205.2" rx="10.6" ry="10.7"/>
	
		<ellipse id="circle6_3_" transform="matrix(0.7071 -0.7071 0.7071 0.7071 -1310.1202 1247.5605)" cx="850.9" cy="2205.2" rx="10.6" ry="10.7"/>
	<g class="st1">
		<path d="M224,1068.3c-0.1-0.1-0.2-0.3-0.2-0.5v-47.5c0-0.2,0.1-0.4,0.2-0.5c0.1-0.1,0.3-0.2,0.5-0.2h2.4c0.2,0,0.4,0.1,0.5,0.2
			c0.1,0.1,0.2,0.3,0.2,0.5v47.5c0,0.2-0.1,0.4-0.2,0.5c-0.1,0.1-0.3,0.2-0.5,0.2h-2.4C224.3,1068.6,224.1,1068.5,224,1068.3z
			 M231.1,1023.2c-0.1-0.1-0.2-0.3-0.2-0.5v-2.4c0-0.2,0.1-0.4,0.2-0.5c0.1-0.1,0.3-0.2,0.5-0.2h18.2c0.2,0,0.4,0.1,0.5,0.2
			c0.1,0.1,0.2,0.3,0.2,0.5v2.4c0,0.2-0.1,0.4-0.2,0.5c-0.1,0.1-0.3,0.2-0.5,0.2h-18.2C231.4,1023.4,231.2,1023.3,231.1,1023.2z
			 M231.1,1045.4c-0.1-0.1-0.2-0.3-0.2-0.5v-2.4c0-0.2,0.1-0.4,0.2-0.5c0.1-0.1,0.3-0.2,0.5-0.2h15.1c0.2,0,0.4,0.1,0.5,0.2
			c0.1,0.1,0.2,0.3,0.2,0.5v2.4c0,0.2-0.1,0.4-0.2,0.5c-0.1,0.1-0.3,0.2-0.5,0.2h-15.1C231.4,1045.7,231.2,1045.6,231.1,1045.4z
			 M231.1,1068.3c-0.1-0.1-0.2-0.3-0.2-0.5v-2.4c0-0.2,0.1-0.4,0.2-0.5c0.1-0.1,0.3-0.2,0.5-0.2h18.2c0.2,0,0.4,0.1,0.5,0.2
			c0.1,0.1,0.2,0.3,0.2,0.5v2.4c0,0.2-0.1,0.4-0.2,0.5c-0.1,0.1-0.3,0.2-0.5,0.2h-18.2C231.4,1068.6,231.2,1068.5,231.1,1068.3z"/>
	</g>
	<g class="st1">
		<path d="M321.9,1067.2c-2.3-1-4.1-2.2-5.5-3.6c-0.1-0.1-0.2-0.3-0.2-0.5c0-0.2,0-0.4,0.2-0.6l1.6-2c0.3-0.3,0.6-0.4,0.9-0.1
			c1.3,1.2,2.9,2.2,4.6,3.1c1.8,0.9,3.6,1.5,5.6,1.8c0.4,0.1,0.6,0.3,0.6,0.7v2.4c0,0.2-0.1,0.4-0.2,0.5c-0.1,0.1-0.3,0.2-0.5,0.1
			C326.5,1068.9,324.2,1068.3,321.9,1067.2z M333.7,1069.1c-0.2,0-0.3-0.1-0.4-0.2c-0.1-0.1-0.2-0.3-0.2-0.5v-2.4
			c0-0.5,0.2-0.7,0.6-0.8c2.9-0.3,5.1-1.4,6.7-3.2c1.6-1.8,2.4-4,2.4-6.7c0-2.6-0.8-4.8-2.3-6.4c-1.6-1.6-4.3-2.7-8.1-3.2l-2.1-0.4
			c-4.2-0.6-7.4-2-9.5-4.2c-2.1-2.2-3.2-5.1-3.2-8.7c0-2.5,0.5-4.7,1.4-6.7c0.9-1.9,2.2-3.5,3.9-4.7c1.7-1.2,3.7-1.9,6-2.2h0.1
			c0.2,0,0.3,0.1,0.4,0.2c0.1,0.1,0.2,0.3,0.2,0.5v2.4c0,0.4-0.2,0.6-0.6,0.7c-2.4,0.4-4.3,1.5-5.7,3.2c-1.3,1.7-2,3.8-2,6.3
			c0,2.6,0.8,4.7,2.5,6.3c1.6,1.6,4.3,2.6,8.1,3.2l2.1,0.3c4.3,0.6,7.5,2,9.5,4.2c2.1,2.2,3.1,5.1,3.1,8.8c0,2.5-0.5,4.8-1.5,6.8
			c-1,2-2.4,3.6-4.3,4.9c-1.9,1.3-4.2,2.1-7,2.3H333.7z M333.7,1022.8c-0.4-0.1-0.6-0.4-0.6-0.8v-2.4c0-0.2,0.1-0.4,0.2-0.5
			c0.1-0.1,0.3-0.2,0.5-0.1c1.9,0.2,3.8,0.6,5.6,1.3c1.8,0.7,3.3,1.5,4.6,2.6c0.3,0.3,0.4,0.6,0.1,1l-1.2,2.2
			c-0.3,0.3-0.6,0.4-0.9,0.1C339.2,1024.3,336.4,1023.2,333.7,1022.8z"/>
	</g>
	<g class="st1">
		<path d="M413,1068.3c-0.1-0.1-0.2-0.3-0.2-0.5v-47.5c0-0.2,0.1-0.4,0.2-0.5c0.1-0.1,0.3-0.2,0.5-0.2h2.4c0.2,0,0.4,0.1,0.5,0.2
			c0.1,0.1,0.2,0.3,0.2,0.5v47.5c0,0.2-0.1,0.4-0.2,0.5c-0.1,0.1-0.3,0.2-0.5,0.2h-2.4C413.3,1068.6,413.1,1068.5,413,1068.3z
			 M420.2,1048.7c-0.2,0-0.3-0.2-0.3-0.6v-3.7c0-0.2,0.1-0.5,0.3-0.9l17.3-23.2c0.2-0.3,0.4-0.5,0.6-0.6c0.2-0.1,0.3-0.1,0.6-0.1h3
			c0.2,0,0.4,0.1,0.4,0.3c0.1,0.2,0,0.3-0.1,0.5l-21.2,28C420.6,1048.6,420.4,1048.7,420.2,1048.7z M439.3,1068.4
			c-0.1-0.1-0.3-0.3-0.4-0.6l-11.3-21.8c-0.1-0.2-0.1-0.3-0.1-0.4c0-0.2,0.1-0.4,0.2-0.6l1.6-2.1c0.2-0.2,0.3-0.3,0.5-0.3
			c0.2,0,0.3,0.1,0.5,0.4l12.9,24.8l0.1,0.3c0,0.3-0.1,0.4-0.4,0.4h-2.9C439.6,1068.6,439.4,1068.5,439.3,1068.4z"/>
	</g>
	<g class="st1">
		<path d="M519.5,1068.3c-0.1-0.1-0.2-0.3-0.2-0.5v-47.5c0-0.2,0.1-0.4,0.2-0.5c0.1-0.1,0.3-0.2,0.5-0.2h2.4c0.2,0,0.4,0.1,0.5,0.2
			c0.1,0.1,0.2,0.3,0.2,0.5v47.5c0,0.2-0.1,0.4-0.2,0.5c-0.1,0.1-0.3,0.2-0.5,0.2h-2.4C519.8,1068.6,519.6,1068.5,519.5,1068.3z"/>
	</g>
	<g class="st1">
		<path d="M605.4,1067.2c-2.3-1-4.1-2.2-5.5-3.6c-0.1-0.1-0.2-0.3-0.2-0.5c0-0.2,0-0.4,0.2-0.6l1.6-2c0.3-0.3,0.6-0.4,0.9-0.1
			c1.3,1.2,2.9,2.2,4.6,3.1c1.8,0.9,3.6,1.5,5.6,1.8c0.4,0.1,0.6,0.3,0.6,0.7v2.4c0,0.2-0.1,0.4-0.2,0.5c-0.1,0.1-0.3,0.2-0.5,0.1
			C610,1068.9,607.7,1068.3,605.4,1067.2z M617.2,1069.1c-0.2,0-0.3-0.1-0.4-0.2c-0.1-0.1-0.2-0.3-0.2-0.5v-2.4
			c0-0.5,0.2-0.7,0.6-0.8c2.9-0.3,5.1-1.4,6.7-3.2c1.6-1.8,2.4-4,2.4-6.7c0-2.6-0.8-4.8-2.3-6.4c-1.6-1.6-4.3-2.7-8.1-3.2l-2.1-0.4
			c-4.2-0.6-7.4-2-9.5-4.2c-2.1-2.2-3.2-5.1-3.2-8.7c0-2.5,0.5-4.7,1.4-6.7c0.9-1.9,2.2-3.5,3.9-4.7c1.7-1.2,3.7-1.9,6-2.2h0.1
			c0.2,0,0.3,0.1,0.4,0.2c0.1,0.1,0.2,0.3,0.2,0.5v2.4c0,0.4-0.2,0.6-0.6,0.7c-2.4,0.4-4.3,1.5-5.7,3.2c-1.3,1.7-2,3.8-2,6.3
			c0,2.6,0.8,4.7,2.5,6.3c1.6,1.6,4.3,2.6,8.1,3.2l2.1,0.3c4.3,0.6,7.5,2,9.5,4.2c2.1,2.2,3.1,5.1,3.1,8.8c0,2.5-0.5,4.8-1.5,6.8
			c-1,2-2.4,3.6-4.3,4.9c-1.9,1.3-4.2,2.1-7,2.3H617.2z M617.2,1022.8c-0.4-0.1-0.6-0.4-0.6-0.8v-2.4c0-0.2,0.1-0.4,0.2-0.5
			c0.1-0.1,0.3-0.2,0.5-0.1c1.9,0.2,3.8,0.6,5.6,1.3c1.8,0.7,3.3,1.5,4.6,2.6c0.3,0.3,0.4,0.6,0.1,1l-1.2,2.2
			c-0.3,0.3-0.6,0.4-0.9,0.1C622.7,1024.3,619.9,1023.2,617.2,1022.8z"/>
	</g>
	<g class="st1">
		<path d="M691.8,1023.2c-0.1-0.1-0.2-0.3-0.2-0.5v-2.4c0-0.2,0.1-0.4,0.2-0.5c0.1-0.1,0.3-0.2,0.5-0.2h29.9c0.2,0,0.4,0.1,0.5,0.2
			c0.1,0.1,0.2,0.3,0.2,0.5v2.4c0,0.2-0.1,0.4-0.2,0.5c-0.1,0.1-0.3,0.2-0.5,0.2h-29.9C692.1,1023.4,691.9,1023.3,691.8,1023.2z
			 M705.5,1068.3c-0.1-0.1-0.2-0.3-0.2-0.5v-40c0-0.2,0.1-0.4,0.2-0.5c0.1-0.1,0.3-0.2,0.5-0.2h2.4c0.2,0,0.4,0.1,0.5,0.2
			c0.1,0.1,0.2,0.3,0.2,0.5v40c0,0.2-0.1,0.4-0.2,0.5c-0.1,0.1-0.3,0.2-0.5,0.2H706C705.8,1068.6,705.6,1068.5,705.5,1068.3z"/>
	</g>
	<g class="st1">
		<path d="M791,1068.3c-0.1-0.1-0.2-0.3-0.2-0.5v-47.5c0-0.2,0.1-0.4,0.2-0.5c0.1-0.1,0.3-0.2,0.5-0.2h2.4c0.2,0,0.4,0.1,0.5,0.2
			c0.1,0.1,0.2,0.3,0.2,0.5v47.5c0,0.2-0.1,0.4-0.2,0.5c-0.1,0.1-0.3,0.2-0.5,0.2h-2.4C791.3,1068.6,791.1,1068.5,791,1068.3z
			 M798.1,1068.3c-0.1-0.1-0.2-0.3-0.2-0.5v-2.4c0-0.2,0.1-0.4,0.2-0.5c0.1-0.1,0.3-0.2,0.5-0.2h18.2c0.2,0,0.4,0.1,0.5,0.2
			c0.1,0.1,0.2,0.3,0.2,0.5v2.4c0,0.2-0.1,0.4-0.2,0.5c-0.1,0.1-0.3,0.2-0.5,0.2h-18.2C798.4,1068.6,798.2,1068.5,798.1,1068.3z"/>
	</g>
	<g class="st1">
		<path d="M885.5,1068.3c-0.1-0.1-0.2-0.3-0.2-0.5v-47.5c0-0.2,0.1-0.4,0.2-0.5c0.1-0.1,0.3-0.2,0.5-0.2h2.4c0.2,0,0.4,0.1,0.5,0.2
			c0.1,0.1,0.2,0.3,0.2,0.5v47.5c0,0.2-0.1,0.4-0.2,0.5c-0.1,0.1-0.3,0.2-0.5,0.2h-2.4C885.7,1068.6,885.6,1068.5,885.5,1068.3z
			 M892.6,1023.2c-0.1-0.1-0.2-0.3-0.2-0.5v-2.4c0-0.2,0.1-0.4,0.2-0.5c0.1-0.1,0.3-0.2,0.5-0.2h18.2c0.2,0,0.4,0.1,0.5,0.2
			c0.1,0.1,0.2,0.3,0.2,0.5v2.4c0,0.2-0.1,0.4-0.2,0.5c-0.1,0.1-0.3,0.2-0.5,0.2h-18.2C892.9,1023.4,892.7,1023.3,892.6,1023.2z
			 M892.6,1045.9c-0.1-0.1-0.2-0.3-0.2-0.5v-2.4c0-0.2,0.1-0.4,0.2-0.5c0.1-0.1,0.3-0.2,0.5-0.2h15.1c0.2,0,0.4,0.1,0.5,0.2
			c0.1,0.1,0.2,0.3,0.2,0.5v2.4c0,0.2-0.1,0.4-0.2,0.5c-0.1,0.1-0.3,0.2-0.5,0.2h-15.1C892.9,1046.2,892.7,1046.1,892.6,1045.9z"/>
	</g>
	<g class="st1">
		<path d="M982.6,1064c-2.2-3-3.3-7.1-3.3-12.4v-31.3c0-0.2,0.1-0.4,0.2-0.5c0.1-0.1,0.3-0.2,0.5-0.2h2.4c0.2,0,0.4,0.1,0.5,0.2
			c0.1,0.1,0.2,0.3,0.2,0.5v31.3c0,4,0.8,7.2,2.3,9.5c1.5,2.3,3.8,3.7,6.7,4.2c0.4,0,0.6,0.3,0.6,0.7v2.4c0,0.2-0.1,0.4-0.2,0.5
			c-0.1,0.1-0.3,0.2-0.5,0.1C987.9,1068.7,984.8,1067,982.6,1064z M986.1,1011.7c-0.1-0.1-0.2-0.3-0.2-0.5v-3.9
			c0-0.2,0.1-0.4,0.2-0.5c0.1-0.1,0.3-0.2,0.5-0.2h2.5c0.2,0,0.4,0.1,0.5,0.2c0.1,0.1,0.2,0.3,0.2,0.5v3.9c0,0.2-0.1,0.4-0.2,0.5
			c-0.1,0.1-0.3,0.2-0.5,0.2h-2.5C986.4,1011.9,986.2,1011.8,986.1,1011.7z M996.6,1069.1c-0.2,0-0.3-0.1-0.4-0.2
			c-0.1-0.1-0.2-0.3-0.2-0.5v-2.4c0-0.4,0.2-0.7,0.6-0.7c2.9-0.5,5.1-1.9,6.7-4.2c1.5-2.3,2.3-5.5,2.3-9.5v-31.3
			c0-0.2,0.1-0.4,0.2-0.5c0.1-0.1,0.3-0.2,0.5-0.2h2.4c0.2,0,0.4,0.1,0.5,0.2c0.1,0.1,0.2,0.3,0.2,0.5v31.3c0,5.3-1.1,9.4-3.2,12.3
			c-2.2,3-5.3,4.7-9.3,5.1H996.6z M999.1,1011.7c-0.1-0.1-0.2-0.3-0.2-0.5v-3.9c0-0.2,0.1-0.4,0.2-0.5c0.1-0.1,0.3-0.2,0.5-0.2h2.5
			c0.2,0,0.4,0.1,0.5,0.2c0.1,0.1,0.2,0.3,0.2,0.5v3.9c0,0.2-0.1,0.4-0.2,0.5c-0.1,0.1-0.3,0.2-0.5,0.2h-2.5
			C999.3,1011.9,999.2,1011.8,999.1,1011.7z"/>
	</g>
	<g class="st1">
		<path d="M1100.9,1068.4c-0.2-0.1-0.4-0.3-0.5-0.6l-25.9-46.6c-0.2-0.2-0.3-0.5-0.3-0.9c0-0.5,0.2-0.8,0.7-0.8h2.1
			c0.3,0,0.5,0,0.6,0.1c0.2,0.1,0.3,0.3,0.5,0.6l25.9,46.8c0.1,0.1,0.2,0.3,0.2,0.5c0,0.2,0,0.3,0,0.5c-0.1,0.3-0.3,0.5-0.6,0.5
			h-2.2C1101.3,1068.6,1101.1,1068.5,1100.9,1068.4z M1074.5,1068.3c-0.1-0.1-0.2-0.3-0.2-0.5V1029c0-0.4,0.1-0.6,0.3-0.6
			c0.2,0,0.4,0.1,0.5,0.4l2.5,4.5c0.1,0.3,0.2,0.6,0.2,0.9v33.6c0,0.2-0.1,0.4-0.2,0.5s-0.3,0.2-0.5,0.2h-2.2
			C1074.7,1068.6,1074.6,1068.5,1074.5,1068.3z M1101,1054.7c-0.1-0.3-0.2-0.6-0.2-0.9v-33.5c0-0.2,0.1-0.4,0.2-0.5
			c0.1-0.1,0.3-0.2,0.5-0.2h2.2c0.2,0,0.4,0.1,0.5,0.2c0.1,0.1,0.2,0.3,0.2,0.5v38.7c0,0.4-0.1,0.6-0.3,0.6c-0.2,0-0.3-0.1-0.5-0.4
			L1101,1054.7z"/>
	</g>
	<g class="st1">
		<path d="M1169,1068.3c-0.1-0.1-0.2-0.3-0.2-0.5v-47.5c0-0.2,0.1-0.4,0.2-0.5c0.1-0.1,0.3-0.2,0.5-0.2h2.4c0.2,0,0.4,0.1,0.5,0.2
			c0.1,0.1,0.2,0.3,0.2,0.5v47.5c0,0.2-0.1,0.4-0.2,0.5c-0.1,0.1-0.3,0.2-0.5,0.2h-2.4C1169.2,1068.6,1169.1,1068.5,1169,1068.3z
			 M1176.1,1023.2c-0.1-0.1-0.2-0.3-0.2-0.5v-2.4c0-0.2,0.1-0.4,0.2-0.5c0.1-0.1,0.3-0.2,0.5-0.2h18.2c0.2,0,0.4,0.1,0.5,0.2
			c0.1,0.1,0.2,0.3,0.2,0.5v2.4c0,0.2-0.1,0.4-0.2,0.5c-0.1,0.1-0.3,0.2-0.5,0.2h-18.2C1176.4,1023.4,1176.2,1023.3,1176.1,1023.2z
			 M1176.1,1045.9c-0.1-0.1-0.2-0.3-0.2-0.5v-2.4c0-0.2,0.1-0.4,0.2-0.5c0.1-0.1,0.3-0.2,0.5-0.2h15.1c0.2,0,0.4,0.1,0.5,0.2
			c0.1,0.1,0.2,0.3,0.2,0.5v2.4c0,0.2-0.1,0.4-0.2,0.5c-0.1,0.1-0.3,0.2-0.5,0.2h-15.1C1176.4,1046.2,1176.2,1046.1,1176.1,1045.9z"
			/>
	</g>
	<g class="st1">
		<path d="M221.3,1184.6c-0.1-0.1-0.2-0.3-0.2-0.5v-2.4c0-0.2,0-0.4,0.1-0.5s0.2-0.3,0.3-0.4l25.3-44.4c0.2-0.3,0.5-0.5,0.8-0.5h1
			c0.2,0,0.4,0.1,0.5,0.2c0.1,0.1,0.2,0.3,0.2,0.5v2.4c0,0.1,0,0.3-0.1,0.5c0,0.2-0.1,0.3-0.3,0.5l-25.4,44.4
			c-0.2,0.3-0.5,0.5-0.8,0.5h-1C221.6,1184.8,221.4,1184.7,221.3,1184.6z M222.2,1139.4c-0.1-0.1-0.2-0.3-0.2-0.5v-2.4
			c0-0.2,0.1-0.4,0.2-0.5c0.1-0.1,0.3-0.2,0.5-0.2h19.8c0.3,0,0.4,0.1,0.5,0.3c0.1,0.2,0.1,0.4-0.1,0.6l-1.5,2.4
			c-0.2,0.3-0.5,0.5-0.8,0.5h-18C222.5,1139.7,222.4,1139.6,222.2,1139.4z M227.4,1184.5c-0.1-0.2,0-0.4,0.1-0.6l1.4-2.4
			c0.2-0.3,0.5-0.5,0.8-0.5h18.9c0.2,0,0.4,0.1,0.5,0.2c0.1,0.1,0.2,0.3,0.2,0.5v2.4c0,0.2-0.1,0.4-0.2,0.5
			c-0.1,0.1-0.3,0.2-0.5,0.2h-20.7C227.6,1184.8,227.4,1184.7,227.4,1184.5z"/>
	</g>
	<g class="st1">
		<path d="M318.5,1184.6c-0.1-0.1-0.2-0.3-0.2-0.5v-47.5c0-0.2,0.1-0.4,0.2-0.5c0.1-0.1,0.3-0.2,0.5-0.2h2.4c0.2,0,0.4,0.1,0.5,0.2
			c0.1,0.1,0.2,0.3,0.2,0.5v47.5c0,0.2-0.1,0.4-0.2,0.5c-0.1,0.1-0.3,0.2-0.5,0.2h-2.4C318.8,1184.8,318.6,1184.7,318.5,1184.6z
			 M325.6,1139.4c-0.1-0.1-0.2-0.3-0.2-0.5v-2.4c0-0.2,0.1-0.4,0.2-0.5c0.1-0.1,0.3-0.2,0.5-0.2h18.2c0.2,0,0.4,0.1,0.5,0.2
			c0.1,0.1,0.2,0.3,0.2,0.5v2.4c0,0.2-0.1,0.4-0.2,0.5c-0.1,0.1-0.3,0.2-0.5,0.2h-18.2C325.9,1139.7,325.8,1139.6,325.6,1139.4z
			 M325.6,1161.7c-0.1-0.1-0.2-0.3-0.2-0.5v-2.4c0-0.2,0.1-0.4,0.2-0.5c0.1-0.1,0.3-0.2,0.5-0.2h15.1c0.2,0,0.4,0.1,0.5,0.2
			c0.1,0.1,0.2,0.3,0.2,0.5v2.4c0,0.2-0.1,0.4-0.2,0.5c-0.1,0.1-0.3,0.2-0.5,0.2h-15.1C325.9,1161.9,325.8,1161.8,325.6,1161.7z
			 M325.6,1184.6c-0.1-0.1-0.2-0.3-0.2-0.5v-2.4c0-0.2,0.1-0.4,0.2-0.5c0.1-0.1,0.3-0.2,0.5-0.2h18.2c0.2,0,0.4,0.1,0.5,0.2
			c0.1,0.1,0.2,0.3,0.2,0.5v2.4c0,0.2-0.1,0.4-0.2,0.5c-0.1,0.1-0.3,0.2-0.5,0.2h-18.2C325.9,1184.8,325.8,1184.7,325.6,1184.6z"/>
	</g>
	<g class="st1">
		<path d="M413,1184.6c-0.1-0.1-0.2-0.3-0.2-0.5v-47.5c0-0.2,0.1-0.4,0.2-0.5c0.1-0.1,0.3-0.2,0.5-0.2h2.4c0.2,0,0.4,0.1,0.5,0.2
			c0.1,0.1,0.2,0.3,0.2,0.5v47.5c0,0.2-0.1,0.4-0.2,0.5c-0.1,0.1-0.3,0.2-0.5,0.2h-2.4C413.3,1184.8,413.1,1184.7,413,1184.6z
			 M419.9,1161.7c-0.1-0.1-0.2-0.3-0.2-0.5v-2.4c0-0.2,0.1-0.4,0.2-0.5c0.1-0.1,0.3-0.2,0.5-0.2h14.9c0.2,0,0.4,0.1,0.5,0.2
			c0.1,0.1,0.2,0.3,0.2,0.5v2.4c0,0.2-0.1,0.4-0.2,0.5c-0.1,0.1-0.3,0.2-0.5,0.2h-14.9C420.1,1161.9,420,1161.8,419.9,1161.7z
			 M439.3,1184.6c-0.1-0.1-0.2-0.3-0.2-0.5v-47.5c0-0.2,0.1-0.4,0.2-0.5c0.1-0.1,0.3-0.2,0.5-0.2h2.4c0.2,0,0.4,0.1,0.5,0.2
			c0.1,0.1,0.2,0.3,0.2,0.5v47.5c0,0.2-0.1,0.4-0.2,0.5s-0.3,0.2-0.5,0.2h-2.4C439.6,1184.8,439.4,1184.7,439.3,1184.6z"/>
	</g>
	<g class="st1">
		<path d="M533.9,1184.7c-0.2-0.1-0.4-0.3-0.5-0.6l-25.9-46.6c-0.2-0.2-0.3-0.5-0.3-0.9c0-0.5,0.2-0.8,0.7-0.8h2.1
			c0.3,0,0.5,0,0.6,0.1c0.2,0.1,0.3,0.3,0.5,0.6l25.9,46.8c0.1,0.1,0.2,0.3,0.2,0.5c0,0.2,0,0.3,0,0.5c-0.1,0.3-0.3,0.5-0.6,0.5
			h-2.2C534.3,1184.8,534.1,1184.7,533.9,1184.7z M507.5,1184.6c-0.1-0.1-0.2-0.3-0.2-0.5v-38.8c0-0.4,0.1-0.6,0.3-0.6
			c0.2,0,0.4,0.1,0.5,0.4l2.5,4.5c0.1,0.3,0.2,0.6,0.2,0.9v33.6c0,0.2-0.1,0.4-0.2,0.5s-0.3,0.2-0.5,0.2h-2.2
			C507.8,1184.8,507.6,1184.7,507.5,1184.6z M534,1171c-0.1-0.3-0.2-0.6-0.2-0.9v-33.5c0-0.2,0.1-0.4,0.2-0.5
			c0.1-0.1,0.3-0.2,0.5-0.2h2.2c0.2,0,0.4,0.1,0.5,0.2c0.1,0.1,0.2,0.3,0.2,0.5v38.7c0,0.4-0.1,0.6-0.3,0.6c-0.2,0-0.3-0.1-0.5-0.4
			L534,1171z"/>
	</g>
	<g class="st1">
		<path d="M599.3,1184.6c-0.1-0.1-0.2-0.3-0.2-0.5v-2.4c0-0.2,0-0.4,0.1-0.5c0.1-0.1,0.2-0.3,0.3-0.4l25.3-44.4
			c0.2-0.3,0.5-0.5,0.8-0.5h1c0.2,0,0.4,0.1,0.5,0.2c0.1,0.1,0.2,0.3,0.2,0.5v2.4c0,0.1,0,0.3-0.1,0.5c0,0.2-0.1,0.3-0.3,0.5
			l-25.4,44.4c-0.2,0.3-0.5,0.5-0.8,0.5h-1C599.6,1184.8,599.4,1184.7,599.3,1184.6z M600.2,1139.4c-0.1-0.1-0.2-0.3-0.2-0.5v-2.4
			c0-0.2,0.1-0.4,0.2-0.5c0.1-0.1,0.3-0.2,0.5-0.2h19.8c0.3,0,0.4,0.1,0.5,0.3c0.1,0.2,0.1,0.4-0.1,0.6l-1.5,2.4
			c-0.2,0.3-0.5,0.5-0.8,0.5h-18C600.5,1139.7,600.3,1139.6,600.2,1139.4z M605.4,1184.5c-0.1-0.2,0-0.4,0.1-0.6l1.4-2.4
			c0.2-0.3,0.5-0.5,0.8-0.5h18.9c0.2,0,0.4,0.1,0.5,0.2c0.1,0.1,0.2,0.3,0.2,0.5v2.4c0,0.2-0.1,0.4-0.2,0.5
			c-0.1,0.1-0.3,0.2-0.5,0.2h-20.7C605.6,1184.8,605.4,1184.7,605.4,1184.5z"/>
	</g>
	<g class="st1">
		<path d="M697,1184.6c-0.1-0.1-0.2-0.3-0.3-0.5l-10.5-47.4l-0.1-0.3c0-0.1,0.1-0.3,0.2-0.4c0.1-0.1,0.2-0.1,0.4-0.1h2.3
			c0.3,0,0.5,0,0.6,0.1c0.1,0.1,0.2,0.3,0.3,0.6l10.1,47.1c0,0.1,0.1,0.3,0.1,0.5c0,0.4-0.2,0.6-0.6,0.6h-2.1
			C697.3,1184.8,697.2,1184.7,697,1184.6z M721.4,1184.6c-0.1-0.1-0.2-0.3-0.3-0.5l-10.3-40.4h-0.1l-8.4,32.5c0,0.1-0.1,0.3-0.2,0.4
			c-0.1,0.1-0.1,0.1-0.2,0.1c-0.2,0-0.3-0.2-0.4-0.5l-1-5c0-0.3,0-0.6,0-0.9l8.5-33.8c0.1-0.2,0.2-0.4,0.3-0.5
			c0.1-0.1,0.3-0.2,0.5-0.2h1.9c0.2,0,0.4,0.1,0.5,0.2c0.1,0.1,0.2,0.3,0.3,0.5l12,47.1l0.1,0.4c0,0.5-0.2,0.8-0.6,0.8h-2.1
			C721.7,1184.8,721.5,1184.7,721.4,1184.6z M724.4,1171.3c-0.1-0.4-0.1-0.7-0.1-0.9l7.2-33.9c0-0.3,0.1-0.5,0.3-0.6
			c0.1-0.1,0.3-0.1,0.6-0.1h2.3c0.2,0,0.4,0.1,0.5,0.2s0.1,0.3,0.1,0.6l-8.8,39.6c0,0.1-0.1,0.3-0.2,0.4c-0.1,0.1-0.1,0.1-0.2,0.1
			c-0.2,0-0.3-0.1-0.4-0.4L724.4,1171.3z"/>
	</g>
	<g class="st1">
		<path d="M786.7,1184.6c-0.1-0.1-0.1-0.3,0-0.5l13.4-41c0.1-0.3,0.3-0.4,0.5-0.4c0.1,0,0.2,0,0.2,0.1c0.1,0.1,0.1,0.2,0.2,0.3
			l1.2,3.9c0.1,0.1,0.1,0.3,0.1,0.5c0,0.2,0,0.4-0.1,0.5l-6.6,20.2h12.7c0.4,0,0.6,0.2,0.8,0.6l0.8,2.4l0.1,0.3
			c0,0.1-0.1,0.3-0.2,0.4c-0.1,0.1-0.2,0.1-0.4,0.1h-14.9l-3.9,12.2c-0.1,0.3-0.2,0.5-0.3,0.6c-0.1,0.1-0.3,0.1-0.5,0.1h-2.5
			C786.9,1184.8,786.8,1184.7,786.7,1184.6z M817.6,1184.2l-15.2-47.5l-0.1-0.3c0-0.2,0.1-0.3,0.2-0.4c0.1-0.1,0.2-0.1,0.4-0.1h2.3
			c0.4,0,0.7,0.2,0.8,0.7l15.3,47.5l0.1,0.2c0,0.1,0,0.3-0.1,0.4c-0.1,0.1-0.2,0.1-0.4,0.1h-2.5
			C818,1184.8,817.7,1184.6,817.6,1184.2z"/>
	</g>
	<g class="st1">
		<path d="M911.9,1184.7c-0.2-0.1-0.4-0.3-0.5-0.6l-25.9-46.6c-0.2-0.2-0.3-0.5-0.3-0.9c0-0.5,0.2-0.8,0.7-0.8h2.1
			c0.3,0,0.5,0,0.6,0.1c0.2,0.1,0.3,0.3,0.5,0.6l25.9,46.8c0.1,0.1,0.2,0.3,0.2,0.5c0,0.2,0,0.3,0,0.5c-0.1,0.3-0.3,0.5-0.6,0.5
			h-2.2C912.3,1184.8,912.1,1184.7,911.9,1184.7z M885.5,1184.6c-0.1-0.1-0.2-0.3-0.2-0.5v-38.8c0-0.4,0.1-0.6,0.3-0.6
			c0.2,0,0.4,0.1,0.5,0.4l2.5,4.5c0.1,0.3,0.2,0.6,0.2,0.9v33.6c0,0.2-0.1,0.4-0.2,0.5s-0.3,0.2-0.5,0.2h-2.2
			C885.7,1184.8,885.6,1184.7,885.5,1184.6z M912,1171c-0.1-0.3-0.2-0.6-0.2-0.9v-33.5c0-0.2,0.1-0.4,0.2-0.5
			c0.1-0.1,0.3-0.2,0.5-0.2h2.2c0.2,0,0.4,0.1,0.5,0.2c0.1,0.1,0.2,0.3,0.2,0.5v38.7c0,0.4-0.1,0.6-0.3,0.6c-0.2,0-0.3-0.1-0.5-0.4
			L912,1171z"/>
	</g>
	<g class="st1">
		<path d="M977.3,1184.6c-0.1-0.1-0.2-0.3-0.2-0.5v-2.4c0-0.2,0-0.4,0.1-0.5c0.1-0.1,0.2-0.3,0.3-0.4l25.3-44.4
			c0.2-0.3,0.5-0.5,0.8-0.5h1c0.2,0,0.4,0.1,0.5,0.2c0.1,0.1,0.2,0.3,0.2,0.5v2.4c0,0.1,0,0.3-0.1,0.5c0,0.2-0.1,0.3-0.3,0.5
			l-25.4,44.4c-0.2,0.3-0.5,0.5-0.8,0.5h-1C977.6,1184.8,977.4,1184.7,977.3,1184.6z M978.2,1139.4c-0.1-0.1-0.2-0.3-0.2-0.5v-2.4
			c0-0.2,0.1-0.4,0.2-0.5c0.1-0.1,0.3-0.2,0.5-0.2h19.8c0.3,0,0.4,0.1,0.5,0.3c0.1,0.2,0.1,0.4-0.1,0.6l-1.5,2.4
			c-0.2,0.3-0.5,0.5-0.8,0.5h-18C978.5,1139.7,978.3,1139.6,978.2,1139.4z M983.4,1184.5c-0.1-0.2,0-0.4,0.1-0.6l1.4-2.4
			c0.2-0.3,0.5-0.5,0.8-0.5h18.9c0.2,0,0.4,0.1,0.5,0.2c0.1,0.1,0.2,0.3,0.2,0.5v2.4c0,0.2-0.1,0.4-0.2,0.5
			c-0.1,0.1-0.3,0.2-0.5,0.2h-20.7C983.6,1184.8,983.4,1184.7,983.4,1184.5z"/>
	</g>
	<g class="st1">
		<path d="M1086.5,1184.6c-0.1-0.1-0.2-0.3-0.2-0.5v-47.5c0-0.2,0.1-0.4,0.2-0.5c0.1-0.1,0.3-0.2,0.5-0.2h2.4c0.2,0,0.4,0.1,0.5,0.2
			c0.1,0.1,0.2,0.3,0.2,0.5v47.5c0,0.2-0.1,0.4-0.2,0.5c-0.1,0.1-0.3,0.2-0.5,0.2h-2.4C1086.7,1184.8,1086.6,1184.7,1086.5,1184.6z"
			/>
	</g>
	<g class="st1">
		<path d="M1172.6,1182.1c-2-1.8-3.5-4.3-4.5-7.5c-0.4-1.3-0.7-3.1-0.9-5.1s-0.3-5.1-0.3-9.1c0-4,0.1-7,0.3-9.1s0.5-3.8,0.9-5.1
			c1-3.2,2.4-5.7,4.5-7.5c2-1.8,4.5-2.9,7.5-3.3h0.1c0.2,0,0.3,0.1,0.4,0.2c0.1,0.1,0.1,0.3,0.1,0.5v2.4c0,0.4-0.2,0.6-0.6,0.7
			c-2.1,0.3-3.9,1.2-5.3,2.6c-1.4,1.4-2.5,3.2-3.2,5.5c-0.3,1.1-0.6,2.6-0.8,4.5c-0.2,2-0.3,4.8-0.3,8.6s0.1,6.6,0.3,8.6
			c0.2,2,0.4,3.5,0.8,4.5c0.7,2.3,1.7,4.2,3.2,5.5c1.4,1.4,3.2,2.3,5.3,2.6c0.4,0,0.6,0.3,0.6,0.7v2.4c0,0.2-0.1,0.4-0.2,0.5
			c-0.1,0.1-0.3,0.2-0.5,0.1C1177.1,1185,1174.6,1183.9,1172.6,1182.1z M1184.8,1185.4c-0.2,0-0.3-0.1-0.4-0.2
			c-0.1-0.1-0.1-0.3-0.1-0.5v-2.4c0-0.4,0.2-0.7,0.6-0.7c2.1-0.4,3.8-1.3,5.3-2.6c1.4-1.4,2.5-3.2,3.2-5.4c0.7-2.1,1-5.3,1-9.4
			c0-0.3-0.1-0.4-0.4-0.4h-10.1c-0.2,0-0.3-0.1-0.5-0.2c-0.1-0.1-0.2-0.3-0.2-0.5v-2.2c0-0.2,0.1-0.4,0.2-0.5
			c0.1-0.1,0.3-0.2,0.5-0.2h13.5c0.2,0,0.4,0.1,0.5,0.2c0.1,0.1,0.2,0.3,0.2,0.5v3c0,2.3-0.1,4.4-0.3,6.2c-0.2,1.8-0.5,3.4-0.8,4.6
			c-1,3.2-2.4,5.7-4.5,7.5c-2,1.8-4.5,3-7.5,3.3H1184.8z M1193.8,1146.3c-0.2,0-0.4-0.1-0.5-0.4c-1-2-2.1-3.5-3.5-4.6
			c-1.4-1.1-3-1.9-4.9-2.2c-0.4-0.1-0.6-0.3-0.6-0.7v-2.4c0-0.2,0.1-0.4,0.2-0.5c0.1-0.1,0.3-0.2,0.5-0.1c2.7,0.4,5.1,1.4,7,2.9
			c1.9,1.6,3.4,3.5,4.4,5.8c0.1,0.3,0.1,0.5,0.1,0.6c0,0.2-0.1,0.4-0.3,0.5l-2.1,1.2C1194,1146.3,1193.9,1146.3,1193.8,1146.3z"/>
	</g>
	<g class="st1">
		<path d="M224,1300.8c-0.1-0.1-0.2-0.3-0.2-0.5v-47.5c0-0.2,0.1-0.4,0.2-0.5c0.1-0.1,0.3-0.2,0.5-0.2h2.4c0.2,0,0.4,0.1,0.5,0.2
			c0.1,0.1,0.2,0.3,0.2,0.5v47.5c0,0.2-0.1,0.4-0.2,0.5c-0.1,0.1-0.3,0.2-0.5,0.2h-2.4C224.3,1301,224.1,1301,224,1300.8z
			 M231.1,1300.8c-0.1-0.1-0.2-0.3-0.2-0.5v-2.4c0-0.2,0.1-0.4,0.2-0.5c0.1-0.1,0.3-0.2,0.5-0.2h6.2c2.9,0,5.3-0.6,7.2-1.8
			c1.8-1.2,3.2-3,3.9-5.6c0.4-1.3,0.7-2.9,0.8-4.7c0.2-1.8,0.2-4.7,0.2-8.6c0-3.9-0.1-6.8-0.2-8.6c-0.2-1.8-0.4-3.4-0.8-4.7
			c-0.8-2.5-2.1-4.4-3.9-5.6c-1.8-1.2-4.2-1.8-7.2-1.8h-6.2c-0.2,0-0.3-0.1-0.5-0.2s-0.2-0.3-0.2-0.5v-2.4c0-0.2,0.1-0.4,0.2-0.5
			c0.1-0.1,0.3-0.2,0.5-0.2h6.8c7.4,0,12.1,3.3,14.1,9.9c0.4,1.5,0.7,3.2,0.9,5.2c0.2,2,0.3,5.1,0.3,9.4c0,4.3-0.1,7.4-0.3,9.4
			c-0.2,2-0.5,3.7-0.9,5.2c-1.9,6.6-6.6,9.9-14.1,9.9h-6.8C231.3,1301,231.2,1301,231.1,1300.8z"/>
	</g>
	<g class="st1">
		<path d="M318.5,1300.8c-0.1-0.1-0.2-0.3-0.2-0.5v-47.5c0-0.2,0.1-0.4,0.2-0.5c0.1-0.1,0.3-0.2,0.5-0.2h2.4c0.2,0,0.4,0.1,0.5,0.2
			c0.1,0.1,0.2,0.3,0.2,0.5v47.5c0,0.2-0.1,0.4-0.2,0.5c-0.1,0.1-0.3,0.2-0.5,0.2h-2.4C318.8,1301,318.6,1301,318.5,1300.8z
			 M325.6,1278.9c-0.1-0.1-0.2-0.3-0.2-0.5v-2.4c0-0.2,0.1-0.4,0.2-0.5c0.1-0.1,0.3-0.2,0.5-0.2h7.6c3.2,0,5.6-0.8,7.3-2.5
			c1.7-1.7,2.5-4,2.5-7.2c0-3.1-0.8-5.5-2.5-7.2c-1.7-1.7-4.1-2.5-7.3-2.5h-7.6c-0.2,0-0.3-0.1-0.5-0.2s-0.2-0.3-0.2-0.5v-2.4
			c0-0.2,0.1-0.4,0.2-0.5c0.1-0.1,0.3-0.2,0.5-0.2h7.7c2.8,0,5.2,0.5,7.2,1.6s3.6,2.6,4.6,4.7c1.1,2,1.6,4.5,1.6,7.2
			c0,2.6-0.5,5-1.6,7.1c-1,2.1-2.6,3.7-4.6,4.8c-2.1,1.1-4.6,1.7-7.6,1.6h-7.3C325.9,1279.1,325.8,1279,325.6,1278.9z M344,1300.9
			c-0.1-0.1-0.2-0.3-0.3-0.5l-7.4-17.1c-0.1-0.3-0.1-0.6,0-0.7c0.1-0.1,0.2-0.2,0.4-0.2c0.2,0,0.3-0.1,0.3-0.1
			c0.8-0.1,1.5-0.2,1.9-0.4c0.1,0,0.2-0.1,0.3-0.1c0.3,0,0.5,0.2,0.5,0.5l8,17.9c0,0.1,0.1,0.2,0.1,0.4c0,0.3-0.2,0.4-0.5,0.4h-2.9
			C344.2,1301,344.1,1301,344,1300.9z"/>
	</g>
	<g class="st1">
		<path d="M413,1300.8c-0.1-0.1-0.2-0.3-0.2-0.5v-47.5c0-0.2,0.1-0.4,0.2-0.5c0.1-0.1,0.3-0.2,0.5-0.2h2.4c0.2,0,0.4,0.1,0.5,0.2
			c0.1,0.1,0.2,0.3,0.2,0.5v47.5c0,0.2-0.1,0.4-0.2,0.5c-0.1,0.1-0.3,0.2-0.5,0.2h-2.4C413.3,1301,413.1,1301,413,1300.8z
			 M420.1,1255.7c-0.1-0.1-0.2-0.3-0.2-0.5v-2.4c0-0.2,0.1-0.4,0.2-0.5c0.1-0.1,0.3-0.2,0.5-0.2h18.2c0.2,0,0.4,0.1,0.5,0.2
			c0.1,0.1,0.2,0.3,0.2,0.5v2.4c0,0.2-0.1,0.4-0.2,0.5c-0.1,0.1-0.3,0.2-0.5,0.2h-18.2C420.4,1255.9,420.2,1255.8,420.1,1255.7z
			 M420.1,1277.9c-0.1-0.1-0.2-0.3-0.2-0.5v-2.4c0-0.2,0.1-0.4,0.2-0.5c0.1-0.1,0.3-0.2,0.5-0.2h15.1c0.2,0,0.4,0.1,0.5,0.2
			c0.1,0.1,0.2,0.3,0.2,0.5v2.4c0,0.2-0.1,0.4-0.2,0.5c-0.1,0.1-0.3,0.2-0.5,0.2h-15.1C420.4,1278.1,420.2,1278.1,420.1,1277.9z
			 M420.1,1300.8c-0.1-0.1-0.2-0.3-0.2-0.5v-2.4c0-0.2,0.1-0.4,0.2-0.5c0.1-0.1,0.3-0.2,0.5-0.2h18.2c0.2,0,0.4,0.1,0.5,0.2
			c0.1,0.1,0.2,0.3,0.2,0.5v2.4c0,0.2-0.1,0.4-0.2,0.5c-0.1,0.1-0.3,0.2-0.5,0.2h-18.2C420.4,1301,420.2,1301,420.1,1300.8z"/>
	</g>
	<g class="st1">
		<path d="M519.5,1300.8c-0.1-0.1-0.2-0.3-0.2-0.5v-47.5c0-0.2,0.1-0.4,0.2-0.5c0.1-0.1,0.3-0.2,0.5-0.2h2.4c0.2,0,0.4,0.1,0.5,0.2
			c0.1,0.1,0.2,0.3,0.2,0.5v47.5c0,0.2-0.1,0.4-0.2,0.5c-0.1,0.1-0.3,0.2-0.5,0.2h-2.4C519.8,1301,519.6,1301,519.5,1300.8z"/>
	</g>
	<g class="st1">
		<path d="M612,1300.3l-14.6-47.2l-0.1-0.4c0-0.2,0.1-0.3,0.2-0.4c0.1-0.1,0.2-0.1,0.4-0.1h2.3c0.3,0,0.5,0,0.6,0.1
			c0.2,0.1,0.2,0.3,0.3,0.6l14.4,46.9c0.1,0.3,0.1,0.5,0.1,0.6c0,0.4-0.2,0.6-0.6,0.6h-2.1C612.4,1301,612.2,1300.8,612,1300.3z
			 M615.7,1290c0-0.1-0.1-0.3-0.1-0.5c0-0.1,0-0.4,0.1-0.8l10.7-35.9c0.1-0.3,0.2-0.5,0.3-0.6c0.1-0.1,0.3-0.1,0.6-0.1h2.4
			c0.2,0,0.4,0.1,0.5,0.3c0.1,0.2,0.1,0.4,0,0.7l-12.5,40.8c0,0.1-0.1,0.3-0.2,0.4c-0.1,0.1-0.1,0.1-0.2,0.1c-0.1,0-0.3-0.2-0.5-0.5
			L615.7,1290z"/>
	</g>
	<g class="st1">
		<path d="M708.5,1300.8c-0.1-0.1-0.2-0.3-0.2-0.5v-47.5c0-0.2,0.1-0.4,0.2-0.5c0.1-0.1,0.3-0.2,0.5-0.2h2.4c0.2,0,0.4,0.1,0.5,0.2
			c0.1,0.1,0.2,0.3,0.2,0.5v47.5c0,0.2-0.1,0.4-0.2,0.5c-0.1,0.1-0.3,0.2-0.5,0.2h-2.4C708.8,1301,708.6,1301,708.5,1300.8z"/>
	</g>
	<g class="st1">
		<path d="M791,1300.8c-0.1-0.1-0.2-0.3-0.2-0.5v-47.5c0-0.2,0.1-0.4,0.2-0.5c0.1-0.1,0.3-0.2,0.5-0.2h2.4c0.2,0,0.4,0.1,0.5,0.2
			c0.1,0.1,0.2,0.3,0.2,0.5v47.5c0,0.2-0.1,0.4-0.2,0.5c-0.1,0.1-0.3,0.2-0.5,0.2h-2.4C791.3,1301,791.1,1301,791,1300.8z
			 M798.1,1255.7c-0.1-0.1-0.2-0.3-0.2-0.5v-2.4c0-0.2,0.1-0.4,0.2-0.5c0.1-0.1,0.3-0.2,0.5-0.2h18.2c0.2,0,0.4,0.1,0.5,0.2
			c0.1,0.1,0.2,0.3,0.2,0.5v2.4c0,0.2-0.1,0.4-0.2,0.5c-0.1,0.1-0.3,0.2-0.5,0.2h-18.2C798.4,1255.9,798.2,1255.8,798.1,1255.7z
			 M798.1,1277.9c-0.1-0.1-0.2-0.3-0.2-0.5v-2.4c0-0.2,0.1-0.4,0.2-0.5c0.1-0.1,0.3-0.2,0.5-0.2h15.1c0.2,0,0.4,0.1,0.5,0.2
			c0.1,0.1,0.2,0.3,0.2,0.5v2.4c0,0.2-0.1,0.4-0.2,0.5c-0.1,0.1-0.3,0.2-0.5,0.2h-15.1C798.4,1278.1,798.2,1278.1,798.1,1277.9z
			 M798.1,1300.8c-0.1-0.1-0.2-0.3-0.2-0.5v-2.4c0-0.2,0.1-0.4,0.2-0.5c0.1-0.1,0.3-0.2,0.5-0.2h18.2c0.2,0,0.4,0.1,0.5,0.2
			c0.1,0.1,0.2,0.3,0.2,0.5v2.4c0,0.2-0.1,0.4-0.2,0.5c-0.1,0.1-0.3,0.2-0.5,0.2h-18.2C798.4,1301,798.2,1301,798.1,1300.8z"/>
	</g>
	<g class="st1">
		<path d="M885.5,1300.8c-0.1-0.1-0.2-0.3-0.2-0.5v-47.5c0-0.2,0.1-0.4,0.2-0.5c0.1-0.1,0.3-0.2,0.5-0.2h2.4c0.2,0,0.4,0.1,0.5,0.2
			c0.1,0.1,0.2,0.3,0.2,0.5v47.5c0,0.2-0.1,0.4-0.2,0.5c-0.1,0.1-0.3,0.2-0.5,0.2h-2.4C885.7,1301,885.6,1301,885.5,1300.8z
			 M892.6,1278.9c-0.1-0.1-0.2-0.3-0.2-0.5v-2.4c0-0.2,0.1-0.4,0.2-0.5c0.1-0.1,0.3-0.2,0.5-0.2h7.6c3.2,0,5.6-0.8,7.3-2.5
			c1.7-1.7,2.5-4,2.5-7.2c0-3.1-0.8-5.5-2.5-7.2c-1.7-1.7-4.1-2.5-7.3-2.5h-7.6c-0.2,0-0.3-0.1-0.5-0.2s-0.2-0.3-0.2-0.5v-2.4
			c0-0.2,0.1-0.4,0.2-0.5c0.1-0.1,0.3-0.2,0.5-0.2h7.7c2.8,0,5.2,0.5,7.2,1.6s3.6,2.6,4.6,4.7c1.1,2,1.6,4.5,1.6,7.2
			c0,2.6-0.5,5-1.6,7.1c-1,2.1-2.6,3.7-4.6,4.8c-2.1,1.1-4.6,1.7-7.6,1.6h-7.3C892.9,1279.1,892.7,1279,892.6,1278.9z M911,1300.9
			c-0.1-0.1-0.2-0.3-0.3-0.5l-7.4-17.1c-0.1-0.3-0.1-0.6,0-0.7c0.1-0.1,0.2-0.2,0.4-0.2c0.2,0,0.3-0.1,0.3-0.1
			c0.8-0.1,1.5-0.2,1.9-0.4c0.1,0,0.2-0.1,0.3-0.1c0.3,0,0.5,0.2,0.5,0.5l8,17.9c0,0.1,0.1,0.2,0.1,0.4c0,0.3-0.2,0.4-0.5,0.4h-2.9
			C911.2,1301,911.1,1301,911,1300.9z"/>
	</g>
	<g class="st1">
		<path d="M975.3,1255.7c-0.1-0.1-0.2-0.3-0.2-0.5v-2.4c0-0.2,0.1-0.4,0.2-0.5c0.1-0.1,0.3-0.2,0.5-0.2h29.9c0.2,0,0.4,0.1,0.5,0.2
			c0.1,0.1,0.2,0.3,0.2,0.5v2.4c0,0.2-0.1,0.4-0.2,0.5c-0.1,0.1-0.3,0.2-0.5,0.2h-29.9C975.6,1255.9,975.4,1255.8,975.3,1255.7z
			 M989,1300.8c-0.1-0.1-0.2-0.3-0.2-0.5v-40c0-0.2,0.1-0.4,0.2-0.5c0.1-0.1,0.3-0.2,0.5-0.2h2.4c0.2,0,0.4,0.1,0.5,0.2
			c0.1,0.1,0.2,0.3,0.2,0.5v40c0,0.2-0.1,0.4-0.2,0.5c-0.1,0.1-0.3,0.2-0.5,0.2h-2.4C989.3,1301,989.1,1301,989,1300.8z"/>
	</g>
	<g class="st1">
		<path d="M1074.5,1300.8c-0.1-0.1-0.2-0.3-0.2-0.5v-47.5c0-0.2,0.1-0.4,0.2-0.5c0.1-0.1,0.3-0.2,0.5-0.2h2.4c0.2,0,0.4,0.1,0.5,0.2
			c0.1,0.1,0.2,0.3,0.2,0.5v47.5c0,0.2-0.1,0.4-0.2,0.5c-0.1,0.1-0.3,0.2-0.5,0.2h-2.4C1074.7,1301,1074.6,1301,1074.5,1300.8z
			 M1081.6,1255.7c-0.1-0.1-0.2-0.3-0.2-0.5v-2.4c0-0.2,0.1-0.4,0.2-0.5c0.1-0.1,0.3-0.2,0.5-0.2h18.2c0.2,0,0.4,0.1,0.5,0.2
			c0.1,0.1,0.2,0.3,0.2,0.5v2.4c0,0.2-0.1,0.4-0.2,0.5c-0.1,0.1-0.3,0.2-0.5,0.2h-18.2C1081.9,1255.9,1081.7,1255.8,1081.6,1255.7z
			 M1081.6,1277.9c-0.1-0.1-0.2-0.3-0.2-0.5v-2.4c0-0.2,0.1-0.4,0.2-0.5c0.1-0.1,0.3-0.2,0.5-0.2h15.1c0.2,0,0.4,0.1,0.5,0.2
			c0.1,0.1,0.2,0.3,0.2,0.5v2.4c0,0.2-0.1,0.4-0.2,0.5c-0.1,0.1-0.3,0.2-0.5,0.2h-15.1C1081.9,1278.1,1081.7,1278.1,1081.6,1277.9z
			 M1081.6,1300.8c-0.1-0.1-0.2-0.3-0.2-0.5v-2.4c0-0.2,0.1-0.4,0.2-0.5c0.1-0.1,0.3-0.2,0.5-0.2h18.2c0.2,0,0.4,0.1,0.5,0.2
			c0.1,0.1,0.2,0.3,0.2,0.5v2.4c0,0.2-0.1,0.4-0.2,0.5c-0.1,0.1-0.3,0.2-0.5,0.2h-18.2C1081.9,1301,1081.7,1301,1081.6,1300.8z"/>
	</g>
	<g class="st1">
		<path d="M1169,1300.8c-0.1-0.1-0.2-0.3-0.2-0.5v-47.5c0-0.2,0.1-0.4,0.2-0.5c0.1-0.1,0.3-0.2,0.5-0.2h2.4c0.2,0,0.4,0.1,0.5,0.2
			c0.1,0.1,0.2,0.3,0.2,0.5v47.5c0,0.2-0.1,0.4-0.2,0.5c-0.1,0.1-0.3,0.2-0.5,0.2h-2.4C1169.2,1301,1169.1,1301,1169,1300.8z
			 M1176.1,1300.8c-0.1-0.1-0.2-0.3-0.2-0.5v-2.4c0-0.2,0.1-0.4,0.2-0.5c0.1-0.1,0.3-0.2,0.5-0.2h18.2c0.2,0,0.4,0.1,0.5,0.2
			c0.1,0.1,0.2,0.3,0.2,0.5v2.4c0,0.2-0.1,0.4-0.2,0.5c-0.1,0.1-0.3,0.2-0.5,0.2h-18.2C1176.4,1301,1176.2,1301,1176.1,1300.8z"/>
	</g>
	<g class="st1">
		<path d="M250.4,1417.1c-0.2-0.1-0.4-0.3-0.5-0.6L224,1370c-0.2-0.2-0.3-0.5-0.3-0.9c0-0.5,0.2-0.8,0.7-0.8h2.1
			c0.3,0,0.5,0,0.6,0.1c0.2,0.1,0.3,0.3,0.5,0.6l25.9,46.8c0.1,0.1,0.2,0.3,0.2,0.5c0,0.2,0,0.3,0,0.5c-0.1,0.3-0.3,0.5-0.6,0.5H251
			C250.8,1417.3,250.6,1417.2,250.4,1417.1z M224,1417.1c-0.1-0.1-0.2-0.3-0.2-0.5v-38.8c0-0.4,0.1-0.6,0.3-0.6
			c0.2,0,0.4,0.1,0.5,0.4l2.5,4.5c0.1,0.3,0.2,0.6,0.2,0.9v33.6c0,0.2-0.1,0.4-0.2,0.5c-0.1,0.1-0.3,0.2-0.5,0.2h-2.2
			C224.3,1417.3,224.1,1417.2,224,1417.1z M250.5,1403.5c-0.1-0.3-0.2-0.6-0.2-0.9V1369c0-0.2,0.1-0.4,0.2-0.5
			c0.1-0.1,0.3-0.2,0.5-0.2h2.2c0.2,0,0.4,0.1,0.5,0.2c0.1,0.1,0.2,0.3,0.2,0.5v38.7c0,0.4-0.1,0.6-0.3,0.6c-0.2,0-0.3-0.1-0.5-0.4
			L250.5,1403.5z"/>
	</g>
	<g class="st1">
		<path d="M314.2,1417.1c-0.1-0.1-0.1-0.3,0-0.5l13.4-41c0.1-0.3,0.3-0.4,0.5-0.4c0.1,0,0.2,0,0.2,0.1c0.1,0.1,0.1,0.2,0.2,0.3
			l1.2,3.9c0.1,0.1,0.1,0.3,0.1,0.5c0,0.2,0,0.4-0.1,0.5l-6.6,20.2h12.7c0.4,0,0.6,0.2,0.8,0.6l0.8,2.4l0.1,0.3
			c0,0.1-0.1,0.3-0.2,0.4c-0.1,0.1-0.2,0.1-0.4,0.1h-14.9l-3.9,12.2c-0.1,0.3-0.2,0.5-0.3,0.6c-0.1,0.1-0.3,0.1-0.5,0.1h-2.5
			C314.4,1417.3,314.3,1417.2,314.2,1417.1z M345.1,1416.7l-15.2-47.5l-0.1-0.3c0-0.2,0.1-0.3,0.2-0.4c0.1-0.1,0.2-0.1,0.4-0.1h2.3
			c0.4,0,0.7,0.2,0.8,0.7l15.3,47.5l0.1,0.2c0,0.1,0,0.3-0.1,0.4c-0.1,0.1-0.2,0.1-0.4,0.1h-2.5
			C345.5,1417.3,345.2,1417.1,345.1,1416.7z"/>
	</g>
	<g class="st1">
		<path d="M416.4,1414.6c-1.9-1.8-3.4-4.3-4.3-7.5c-0.4-1.3-0.7-3-0.9-5.1c-0.2-2.1-0.3-5.2-0.3-9.3c0-4.1,0.1-7.2,0.3-9.3
			c0.2-2.1,0.5-3.8,0.9-5.1c1-3.2,2.4-5.7,4.3-7.5c1.9-1.8,4.3-2.9,7.1-3.3h0.1c0.2,0,0.3,0.1,0.4,0.2c0.1,0.1,0.2,0.3,0.2,0.5v2.4
			c0,0.4-0.2,0.7-0.6,0.8c-2,0.3-3.6,1.2-5,2.5c-1.3,1.3-2.3,3.1-3.1,5.4c-0.3,1.1-0.5,2.6-0.7,4.5c-0.2,1.9-0.3,4.9-0.3,8.7
			c0,3.9,0.1,6.8,0.3,8.7c0.2,1.9,0.4,3.4,0.7,4.5c0.7,2.3,1.8,4.1,3.1,5.5s3,2.2,5,2.5c0.4,0.1,0.6,0.3,0.6,0.7v2.4
			c0,0.2-0.1,0.4-0.2,0.5c-0.1,0.1-0.3,0.2-0.5,0.1C420.7,1417.5,418.4,1416.4,416.4,1414.6z M436.8,1378.8c-0.3,0-0.5-0.1-0.6-0.4
			c-1.9-3.8-4.5-6.1-7.9-6.8c-0.4-0.1-0.6-0.3-0.6-0.7v-2.4c0-0.2,0.1-0.4,0.2-0.6c0.1-0.1,0.3-0.2,0.5-0.1c2.5,0.4,4.6,1.3,6.5,2.8
			c1.9,1.5,3.3,3.5,4.4,6c0,0.1,0.1,0.2,0.1,0.4c0,0.2-0.1,0.4-0.3,0.5l-2.1,1.2C437,1378.7,436.9,1378.8,436.8,1378.8z
			 M428.3,1417.9c-0.2,0-0.3-0.1-0.4-0.2c-0.1-0.1-0.2-0.3-0.2-0.5v-2.4c0-0.4,0.2-0.7,0.6-0.7c3.4-0.7,6-2.9,7.9-6.8
			c0.1-0.2,0.2-0.3,0.4-0.4c0.2-0.1,0.3-0.1,0.5,0l2.1,1.2c0.3,0.2,0.4,0.5,0.2,0.9c-1.1,2.5-2.6,4.6-4.4,6c-1.9,1.5-4,2.4-6.5,2.8
			H428.3z"/>
	</g>
	<g class="st1">
		<path d="M507.5,1417.1c-0.1-0.1-0.2-0.3-0.2-0.5V1369c0-0.2,0.1-0.4,0.2-0.5c0.1-0.1,0.3-0.2,0.5-0.2h2.4c0.2,0,0.4,0.1,0.5,0.2
			c0.1,0.1,0.2,0.3,0.2,0.5v47.5c0,0.2-0.1,0.4-0.2,0.5c-0.1,0.1-0.3,0.2-0.5,0.2h-2.4C507.8,1417.3,507.6,1417.2,507.5,1417.1z
			 M514.4,1394.2c-0.1-0.1-0.2-0.3-0.2-0.5v-2.4c0-0.2,0.1-0.4,0.2-0.5c0.1-0.1,0.3-0.2,0.5-0.2h14.9c0.2,0,0.4,0.1,0.5,0.2
			c0.1,0.1,0.2,0.3,0.2,0.5v2.4c0,0.2-0.1,0.4-0.2,0.5c-0.1,0.1-0.3,0.2-0.5,0.2h-14.9C514.6,1394.4,514.5,1394.3,514.4,1394.2z
			 M533.8,1417.1c-0.1-0.1-0.2-0.3-0.2-0.5V1369c0-0.2,0.1-0.4,0.2-0.5c0.1-0.1,0.3-0.2,0.5-0.2h2.4c0.2,0,0.4,0.1,0.5,0.2
			c0.1,0.1,0.2,0.3,0.2,0.5v47.5c0,0.2-0.1,0.4-0.2,0.5c-0.1,0.1-0.3,0.2-0.5,0.2h-2.4C534.1,1417.3,533.9,1417.2,533.8,1417.1z"/>
	</g>
	<g class="st1">
		<path d="M597.7,1417.1c-0.1-0.1-0.1-0.3,0-0.5l13.4-41c0.1-0.3,0.3-0.4,0.5-0.4c0.1,0,0.2,0,0.2,0.1c0.1,0.1,0.1,0.2,0.2,0.3
			l1.2,3.9c0.1,0.1,0.1,0.3,0.1,0.5c0,0.2,0,0.4-0.1,0.5l-6.6,20.2h12.7c0.4,0,0.6,0.2,0.8,0.6l0.8,2.4l0.1,0.3
			c0,0.1-0.1,0.3-0.2,0.4c-0.1,0.1-0.2,0.1-0.4,0.1h-14.9l-3.9,12.2c-0.1,0.3-0.2,0.5-0.3,0.6c-0.1,0.1-0.3,0.1-0.5,0.1h-2.5
			C597.9,1417.3,597.8,1417.2,597.7,1417.1z M628.6,1416.7l-15.2-47.5l-0.1-0.3c0-0.2,0.1-0.3,0.2-0.4c0.1-0.1,0.2-0.1,0.4-0.1h2.3
			c0.4,0,0.7,0.2,0.8,0.7l15.3,47.5l0.1,0.2c0,0.1,0,0.3-0.1,0.4c-0.1,0.1-0.2,0.1-0.4,0.1h-2.5
			C629,1417.3,628.7,1417.1,628.6,1416.7z"/>
	</g>
	<g class="st1">
		<path d="M696.5,1417.1c-0.1-0.1-0.2-0.3-0.2-0.5V1369c0-0.2,0.1-0.4,0.2-0.5c0.1-0.1,0.3-0.2,0.5-0.2h2.4c0.2,0,0.4,0.1,0.5,0.2
			c0.1,0.1,0.2,0.3,0.2,0.5v47.5c0,0.2-0.1,0.4-0.2,0.5c-0.1,0.1-0.3,0.2-0.5,0.2h-2.4C696.8,1417.3,696.6,1417.2,696.5,1417.1z
			 M703.6,1395.8c-0.1-0.1-0.2-0.3-0.2-0.5v-2.4c0-0.2,0.1-0.4,0.2-0.5c0.1-0.1,0.3-0.2,0.5-0.2h7.5c3.2,0,5.7-0.9,7.4-2.6
			s2.6-4.2,2.6-7.5c0-3.2-0.9-5.6-2.6-7.4s-4.2-2.6-7.4-2.6h-7.5c-0.2,0-0.3-0.1-0.5-0.2c-0.1-0.1-0.2-0.3-0.2-0.5v-2.4
			c0-0.2,0.1-0.4,0.2-0.5c0.1-0.1,0.3-0.2,0.5-0.2h7.6c2.8,0,5.2,0.6,7.2,1.7c2.1,1.1,3.6,2.7,4.7,4.8c1.1,2.1,1.6,4.5,1.6,7.3
			s-0.5,5.3-1.6,7.4c-1.1,2.1-2.7,3.7-4.7,4.8c-2.1,1.1-4.5,1.7-7.2,1.7h-7.6C703.9,1396,703.7,1396,703.6,1395.8z"/>
	</g>
	<g class="st1">
		<path d="M791,1417.1c-0.1-0.1-0.2-0.3-0.2-0.5V1369c0-0.2,0.1-0.4,0.2-0.5c0.1-0.1,0.3-0.2,0.5-0.2h2.4c0.2,0,0.4,0.1,0.5,0.2
			c0.1,0.1,0.2,0.3,0.2,0.5v47.5c0,0.2-0.1,0.4-0.2,0.5c-0.1,0.1-0.3,0.2-0.5,0.2h-2.4C791.3,1417.3,791.1,1417.2,791,1417.1z
			 M798.1,1395.8c-0.1-0.1-0.2-0.3-0.2-0.5v-2.4c0-0.2,0.1-0.4,0.2-0.5c0.1-0.1,0.3-0.2,0.5-0.2h7.5c3.2,0,5.7-0.9,7.4-2.6
			s2.6-4.2,2.6-7.5c0-3.2-0.9-5.6-2.6-7.4s-4.2-2.6-7.4-2.6h-7.5c-0.2,0-0.3-0.1-0.5-0.2c-0.1-0.1-0.2-0.3-0.2-0.5v-2.4
			c0-0.2,0.1-0.4,0.2-0.5c0.1-0.1,0.3-0.2,0.5-0.2h7.6c2.8,0,5.2,0.6,7.2,1.7c2.1,1.1,3.6,2.7,4.7,4.8c1.1,2.1,1.6,4.5,1.6,7.3
			s-0.5,5.3-1.6,7.4c-1.1,2.1-2.7,3.7-4.7,4.8c-2.1,1.1-4.5,1.7-7.2,1.7h-7.6C798.4,1396,798.2,1396,798.1,1395.8z"/>
	</g>
	<g class="st1">
		<path d="M894.3,1417.1c-0.1-0.1-0.2-0.3-0.2-0.5v-19.4l-13.1-27.6c-0.1-0.2-0.2-0.5-0.2-0.6c0-0.1,0-0.3,0.1-0.4
			c0.1-0.1,0.2-0.2,0.4-0.2h2.5c0.2,0,0.4,0,0.6,0.1c0.2,0.1,0.3,0.3,0.4,0.6l12.8,26.7c0.1,0.3,0.2,0.6,0.2,0.9v19.9
			c0,0.2-0.1,0.4-0.2,0.5c-0.1,0.1-0.3,0.2-0.5,0.2h-2.3C894.6,1417.3,894.4,1417.2,894.3,1417.1z M898,1389.3c-0.1-0.3-0.1-0.6,0-1
			l9.1-19.2c0.1-0.3,0.3-0.5,0.4-0.6c0.1-0.1,0.3-0.1,0.6-0.1h2.4c0.3,0,0.5,0.1,0.6,0.4c0,0.2,0,0.4-0.1,0.5
			c-0.1,0.1-0.1,0.2-0.2,0.3l-10.6,22.5c-0.1,0.3-0.3,0.4-0.5,0.4s-0.3-0.1-0.5-0.4L898,1389.3z"/>
	</g>
	<g class="st1">
		<path d="M990,1416.6l-14.6-47.2l-0.1-0.4c0-0.2,0.1-0.3,0.2-0.4c0.1-0.1,0.2-0.1,0.4-0.1h2.3c0.3,0,0.5,0,0.6,0.1
			c0.2,0.1,0.2,0.3,0.3,0.6l14.4,46.9c0.1,0.3,0.1,0.5,0.1,0.6c0,0.4-0.2,0.6-0.6,0.6h-2.1C990.4,1417.3,990.2,1417,990,1416.6z
			 M993.7,1406.3c0-0.1-0.1-0.3-0.1-0.5c0-0.1,0-0.4,0.1-0.8l10.7-35.9c0.1-0.3,0.2-0.5,0.3-0.6c0.1-0.1,0.3-0.1,0.6-0.1h2.4
			c0.2,0,0.4,0.1,0.5,0.3c0.1,0.2,0.1,0.4,0,0.7l-12.5,40.8c0,0.1-0.1,0.3-0.2,0.4c-0.1,0.1-0.1,0.1-0.2,0.1c-0.1,0-0.3-0.2-0.5-0.5
			L993.7,1406.3z"/>
	</g>
	<g class="st1">
		<path d="M1078.1,1414.5c-2-1.8-3.5-4.3-4.4-7.5c-0.4-1.3-0.7-3-0.9-5.1c-0.2-2.1-0.3-5.1-0.3-9.1c0-4,0.1-7.1,0.3-9.1
			c0.2-2.1,0.5-3.8,0.9-5.1c1-3.2,2.4-5.7,4.4-7.5s4.5-2.9,7.4-3.3h0.1c0.2,0,0.3,0.1,0.4,0.2c0.1,0.1,0.2,0.3,0.2,0.5v2.4
			c0,0.4-0.2,0.6-0.6,0.7c-4.2,0.8-7,3.5-8.4,8.1c-0.3,1.1-0.6,2.7-0.8,4.6c-0.2,2-0.3,4.8-0.3,8.5c0,3.6,0.1,6.5,0.3,8.5
			c0.2,2,0.5,3.5,0.8,4.6c1.4,4.7,4.2,7.4,8.4,8.1c0.4,0,0.6,0.3,0.6,0.7v2.4c0,0.2-0.1,0.4-0.2,0.5c-0.1,0.1-0.3,0.2-0.5,0.1
			C1082.6,1417.5,1080.1,1416.4,1078.1,1414.5z M1090.3,1417.9c-0.2,0-0.3-0.1-0.4-0.2c-0.1-0.1-0.2-0.3-0.2-0.5v-2.4
			c0-0.4,0.2-0.7,0.6-0.7c4.2-0.8,7-3.5,8.4-8.1c0.3-1.2,0.6-2.7,0.8-4.7c0.2-2,0.3-4.8,0.3-8.4c0-3.6-0.1-6.4-0.3-8.4
			c-0.2-2-0.5-3.6-0.8-4.7c-1.4-4.7-4.2-7.4-8.4-8.1c-0.4-0.1-0.6-0.3-0.6-0.7v-2.4c0-0.2,0.1-0.4,0.2-0.5c0.1-0.1,0.3-0.2,0.5-0.1
			c2.9,0.4,5.4,1.5,7.4,3.3c2,1.8,3.5,4.3,4.5,7.5c0.4,1.4,0.7,3.1,0.9,5.2c0.2,2.1,0.3,5.1,0.3,9.1c0,3.9-0.1,6.9-0.3,9
			c-0.2,2.1-0.5,3.8-0.9,5.2c-1,3.2-2.4,5.7-4.5,7.5c-2,1.8-4.5,2.9-7.4,3.3H1090.3z"/>
	</g>
	<g class="st1">
		<path d="M1169,1417.1c-0.1-0.1-0.2-0.3-0.2-0.5V1369c0-0.2,0.1-0.4,0.2-0.5c0.1-0.1,0.3-0.2,0.5-0.2h2.4c0.2,0,0.4,0.1,0.5,0.2
			c0.1,0.1,0.2,0.3,0.2,0.5v47.5c0,0.2-0.1,0.4-0.2,0.5c-0.1,0.1-0.3,0.2-0.5,0.2h-2.4C1169.2,1417.3,1169.1,1417.2,1169,1417.1z
			 M1176.1,1395.1c-0.1-0.1-0.2-0.3-0.2-0.5v-2.4c0-0.2,0.1-0.4,0.2-0.5c0.1-0.1,0.3-0.2,0.5-0.2h7.6c3.2,0,5.6-0.8,7.3-2.5
			c1.7-1.7,2.5-4,2.5-7.2s-0.8-5.5-2.5-7.2c-1.7-1.7-4.1-2.5-7.3-2.5h-7.6c-0.2,0-0.3-0.1-0.5-0.2c-0.1-0.1-0.2-0.3-0.2-0.5v-2.4
			c0-0.2,0.1-0.4,0.2-0.5c0.1-0.1,0.3-0.2,0.5-0.2h7.7c2.8,0,5.2,0.5,7.2,1.6s3.6,2.6,4.6,4.7c1.1,2,1.6,4.5,1.6,7.2
			c0,2.6-0.5,5-1.6,7.1c-1,2.1-2.6,3.7-4.6,4.8c-2.1,1.1-4.6,1.7-7.6,1.6h-7.3C1176.4,1395.3,1176.2,1395.3,1176.1,1395.1z
			 M1194.5,1417.1c-0.1-0.1-0.2-0.3-0.3-0.5l-7.4-17.1c-0.1-0.3-0.1-0.6,0-0.7c0.1-0.1,0.2-0.2,0.4-0.2c0.2,0,0.3-0.1,0.3-0.1
			c0.8-0.1,1.5-0.2,1.9-0.4c0.1,0,0.2-0.1,0.3-0.1c0.3,0,0.5,0.2,0.5,0.5l8,17.9c0,0.1,0.1,0.2,0.1,0.4c0,0.3-0.2,0.4-0.5,0.4h-2.9
			C1194.7,1417.3,1194.6,1417.2,1194.5,1417.1z"/>
	</g>
	<g class="st1">
		<path d="M224,1533.3c-0.1-0.1-0.2-0.3-0.2-0.5v-47.5c0-0.2,0.1-0.4,0.2-0.5c0.1-0.1,0.3-0.2,0.5-0.2h2.4c0.2,0,0.4,0.1,0.5,0.2
			c0.1,0.1,0.2,0.3,0.2,0.5v47.5c0,0.2-0.1,0.4-0.2,0.5c-0.1,0.1-0.3,0.2-0.5,0.2h-2.4C224.3,1533.5,224.1,1533.5,224,1533.3z
			 M230.9,1510.4c-0.1-0.1-0.2-0.3-0.2-0.5v-2.4c0-0.2,0.1-0.4,0.2-0.5c0.1-0.1,0.3-0.2,0.5-0.2h14.9c0.2,0,0.4,0.1,0.5,0.2
			c0.1,0.1,0.2,0.3,0.2,0.5v2.4c0,0.2-0.1,0.4-0.2,0.5c-0.1,0.1-0.3,0.2-0.5,0.2h-14.9C231.1,1510.6,231,1510.6,230.9,1510.4z
			 M250.3,1533.3c-0.1-0.1-0.2-0.3-0.2-0.5v-47.5c0-0.2,0.1-0.4,0.2-0.5c0.1-0.1,0.3-0.2,0.5-0.2h2.4c0.2,0,0.4,0.1,0.5,0.2
			c0.1,0.1,0.2,0.3,0.2,0.5v47.5c0,0.2-0.1,0.4-0.2,0.5c-0.1,0.1-0.3,0.2-0.5,0.2h-2.4C250.6,1533.5,250.4,1533.5,250.3,1533.3z"/>
	</g>
	<g class="st1">
		<path d="M314.2,1533.3c-0.1-0.1-0.1-0.3,0-0.5l13.4-41c0.1-0.3,0.3-0.4,0.5-0.4c0.1,0,0.2,0,0.2,0.1c0.1,0.1,0.1,0.2,0.2,0.3
			l1.2,3.9c0.1,0.1,0.1,0.3,0.1,0.5c0,0.2,0,0.4-0.1,0.5l-6.6,20.2h12.7c0.4,0,0.6,0.2,0.8,0.6l0.8,2.4l0.1,0.3
			c0,0.1-0.1,0.3-0.2,0.4c-0.1,0.1-0.2,0.1-0.4,0.1h-14.9l-3.9,12.2c-0.1,0.3-0.2,0.5-0.3,0.6c-0.1,0.1-0.3,0.1-0.5,0.1h-2.5
			C314.4,1533.5,314.3,1533.5,314.2,1533.3z M345.1,1533l-15.2-47.5l-0.1-0.3c0-0.2,0.1-0.3,0.2-0.4c0.1-0.1,0.2-0.1,0.4-0.1h2.3
			c0.4,0,0.7,0.2,0.8,0.7l15.3,47.5l0.1,0.2c0,0.1,0,0.3-0.1,0.4c-0.1,0.1-0.2,0.1-0.4,0.1h-2.5
			C345.5,1533.5,345.2,1533.3,345.1,1533z"/>
	</g>
	<g class="st1">
		<path d="M413,1533.3c-0.1-0.1-0.2-0.3-0.2-0.5v-47.5c0-0.2,0.1-0.4,0.2-0.5c0.1-0.1,0.3-0.2,0.5-0.2h2.4c0.2,0,0.4,0.1,0.5,0.2
			c0.1,0.1,0.2,0.3,0.2,0.5v47.5c0,0.2-0.1,0.4-0.2,0.5c-0.1,0.1-0.3,0.2-0.5,0.2h-2.4C413.3,1533.5,413.1,1533.5,413,1533.3z
			 M420.1,1533.3c-0.1-0.1-0.2-0.3-0.2-0.5v-2.4c0-0.2,0.1-0.4,0.2-0.5c0.1-0.1,0.3-0.2,0.5-0.2h18.2c0.2,0,0.4,0.1,0.5,0.2
			c0.1,0.1,0.2,0.3,0.2,0.5v2.4c0,0.2-0.1,0.4-0.2,0.5c-0.1,0.1-0.3,0.2-0.5,0.2h-18.2C420.4,1533.5,420.2,1533.5,420.1,1533.3z"/>
	</g>
	<g class="st1">
		<path d="M507.5,1533.3c-0.1-0.1-0.2-0.3-0.2-0.5v-47.5c0-0.2,0.1-0.4,0.2-0.5c0.1-0.1,0.3-0.2,0.5-0.2h2.4c0.2,0,0.4,0.1,0.5,0.2
			c0.1,0.1,0.2,0.3,0.2,0.5v47.5c0,0.2-0.1,0.4-0.2,0.5c-0.1,0.1-0.3,0.2-0.5,0.2h-2.4C507.8,1533.5,507.6,1533.5,507.5,1533.3z
			 M531.3,1505c-0.3-0.2-0.7-0.3-1.1-0.5c-0.5-0.2-0.6-0.6-0.4-1.1c1.4-2.1,2.1-4.2,2.1-6.6c0-1.6-0.4-3-1.1-4.3s-1.8-2.3-3.2-3.1
			c-1.4-0.8-3-1.2-4.9-1.2h-7.6c-0.2,0-0.3-0.1-0.5-0.2c-0.1-0.1-0.2-0.3-0.2-0.5v-2.3c0-0.2,0.1-0.4,0.2-0.5
			c0.1-0.1,0.3-0.2,0.5-0.2h7.7c2.8,0,5.1,0.5,7,1.6c1.9,1.1,3.3,2.5,4.3,4.4s1.5,4,1.5,6.4c0,1.5-0.2,3-0.7,4.5
			c-0.5,1.4-1.1,2.7-1.9,3.8c-0.2,0.3-0.5,0.3-0.8,0.1C531.9,1505.3,531.6,1505.1,531.3,1505z M514.6,1533.3
			c-0.1-0.1-0.2-0.3-0.2-0.5v-2.3c0-0.2,0.1-0.4,0.2-0.5c0.1-0.1,0.3-0.2,0.5-0.2h7.9c3.1,0,5.5-0.9,7.1-2.6
			c1.6-1.7,2.5-4.1,2.5-7.1c0-3-0.8-5.3-2.5-7.1c-1.7-1.7-4-2.6-7.1-2.6h-7.9c-0.2,0-0.3-0.1-0.5-0.2c-0.1-0.1-0.2-0.3-0.2-0.5v-2.3
			c0-0.2,0.1-0.4,0.2-0.5s0.3-0.2,0.5-0.2h7.7c2.9,0,5.3,0.5,7.3,1.6c2,1.1,3.6,2.6,4.6,4.6c1.1,2,1.6,4.4,1.6,7.2
			c0,2.8-0.5,5.2-1.6,7.2c-1.1,2-2.6,3.6-4.6,4.6c-2,1.1-4.5,1.6-7.3,1.6h-7.7C514.9,1533.5,514.7,1533.5,514.6,1533.3z"/>
	</g>
	<g class="st1">
		<path d="M614,1533.3c-0.1-0.1-0.2-0.3-0.2-0.5v-47.5c0-0.2,0.1-0.4,0.2-0.5c0.1-0.1,0.3-0.2,0.5-0.2h2.4c0.2,0,0.4,0.1,0.5,0.2
			c0.1,0.1,0.2,0.3,0.2,0.5v47.5c0,0.2-0.1,0.4-0.2,0.5c-0.1,0.1-0.3,0.2-0.5,0.2h-2.4C614.3,1533.5,614.1,1533.5,614,1533.3z"/>
	</g>
	<g class="st1">
		<path d="M696.5,1533.3c-0.1-0.1-0.2-0.3-0.2-0.5v-47.5c0-0.2,0.1-0.4,0.2-0.5c0.1-0.1,0.3-0.2,0.5-0.2h2.4c0.2,0,0.4,0.1,0.5,0.2
			c0.1,0.1,0.2,0.3,0.2,0.5v47.5c0,0.2-0.1,0.4-0.2,0.5c-0.1,0.1-0.3,0.2-0.5,0.2h-2.4C696.8,1533.5,696.6,1533.5,696.5,1533.3z
			 M703.6,1511.4c-0.1-0.1-0.2-0.3-0.2-0.5v-2.4c0-0.2,0.1-0.4,0.2-0.5c0.1-0.1,0.3-0.2,0.5-0.2h7.6c3.2,0,5.6-0.8,7.3-2.5
			c1.7-1.7,2.5-4,2.5-7.2s-0.8-5.5-2.5-7.2c-1.7-1.7-4.1-2.5-7.3-2.5h-7.6c-0.2,0-0.3-0.1-0.5-0.2c-0.1-0.1-0.2-0.3-0.2-0.5v-2.4
			c0-0.2,0.1-0.4,0.2-0.5c0.1-0.1,0.3-0.2,0.5-0.2h7.7c2.8,0,5.2,0.5,7.2,1.6s3.6,2.6,4.6,4.7c1.1,2,1.6,4.5,1.6,7.2
			c0,2.6-0.5,5-1.6,7.1c-1,2.1-2.6,3.7-4.6,4.8c-2.1,1.1-4.6,1.7-7.6,1.6h-7.3C703.9,1511.6,703.7,1511.5,703.6,1511.4z M722,1533.4
			c-0.1-0.1-0.2-0.3-0.3-0.5l-7.4-17.1c-0.1-0.3-0.1-0.6,0-0.7c0.1-0.1,0.2-0.2,0.4-0.2c0.2,0,0.3-0.1,0.3-0.1
			c0.8-0.1,1.5-0.2,1.9-0.4c0.1,0,0.2-0.1,0.3-0.1c0.3,0,0.5,0.2,0.5,0.5l8,17.9c0,0.1,0.1,0.2,0.1,0.4c0,0.3-0.2,0.4-0.5,0.4h-2.9
			C722.2,1533.5,722.1,1533.5,722,1533.4z"/>
	</g>
	<g class="st1">
		<path d="M786.3,1488.2c-0.1-0.1-0.2-0.3-0.2-0.5v-2.4c0-0.2,0.1-0.4,0.2-0.5c0.1-0.1,0.3-0.2,0.5-0.2h29.9c0.2,0,0.4,0.1,0.5,0.2
			c0.1,0.1,0.2,0.3,0.2,0.5v2.4c0,0.2-0.1,0.4-0.2,0.5c-0.1,0.1-0.3,0.2-0.5,0.2h-29.9C786.6,1488.4,786.4,1488.3,786.3,1488.2z
			 M800,1533.3c-0.1-0.1-0.2-0.3-0.2-0.5v-40c0-0.2,0.1-0.4,0.2-0.5c0.1-0.1,0.3-0.2,0.5-0.2h2.4c0.2,0,0.4,0.1,0.5,0.2
			c0.1,0.1,0.2,0.3,0.2,0.5v40c0,0.2-0.1,0.4-0.2,0.5c-0.1,0.1-0.3,0.2-0.5,0.2h-2.4C800.3,1533.5,800.1,1533.5,800,1533.3z"/>
	</g>
	<g class="st1">
		<path d="M885.5,1533.3c-0.1-0.1-0.2-0.3-0.2-0.5v-47.5c0-0.2,0.1-0.4,0.2-0.5c0.1-0.1,0.3-0.2,0.5-0.2h2.4c0.2,0,0.4,0.1,0.5,0.2
			c0.1,0.1,0.2,0.3,0.2,0.5v47.5c0,0.2-0.1,0.4-0.2,0.5c-0.1,0.1-0.3,0.2-0.5,0.2h-2.4C885.7,1533.5,885.6,1533.5,885.5,1533.3z
			 M892.4,1510.4c-0.1-0.1-0.2-0.3-0.2-0.5v-2.4c0-0.2,0.1-0.4,0.2-0.5c0.1-0.1,0.3-0.2,0.5-0.2h14.9c0.2,0,0.4,0.1,0.5,0.2
			c0.1,0.1,0.2,0.3,0.2,0.5v2.4c0,0.2-0.1,0.4-0.2,0.5c-0.1,0.1-0.3,0.2-0.5,0.2h-14.9C892.6,1510.6,892.5,1510.6,892.4,1510.4z
			 M911.8,1533.3c-0.1-0.1-0.2-0.3-0.2-0.5v-47.5c0-0.2,0.1-0.4,0.2-0.5c0.1-0.1,0.3-0.2,0.5-0.2h2.4c0.2,0,0.4,0.1,0.5,0.2
			c0.1,0.1,0.2,0.3,0.2,0.5v47.5c0,0.2-0.1,0.4-0.2,0.5c-0.1,0.1-0.3,0.2-0.5,0.2h-2.4C912.1,1533.5,911.9,1533.5,911.8,1533.3z"/>
	</g>
	<g class="st1">
		<path d="M980,1533.3c-0.1-0.1-0.2-0.3-0.2-0.5v-47.5c0-0.2,0.1-0.4,0.2-0.5c0.1-0.1,0.3-0.2,0.5-0.2h2.4c0.2,0,0.4,0.1,0.5,0.2
			c0.1,0.1,0.2,0.3,0.2,0.5v47.5c0,0.2-0.1,0.4-0.2,0.5c-0.1,0.1-0.3,0.2-0.5,0.2h-2.4C980.2,1533.5,980.1,1533.5,980,1533.3z
			 M987,1533.3c-0.1-0.1-0.2-0.3-0.2-0.5v-2.4c0-0.2,0.1-0.4,0.2-0.5c0.1-0.1,0.3-0.2,0.5-0.2h6.2c2.9,0,5.3-0.6,7.2-1.8
			c1.8-1.2,3.2-3,3.9-5.6c0.4-1.3,0.7-2.9,0.8-4.7c0.2-1.8,0.2-4.7,0.2-8.6c0-3.9-0.1-6.8-0.2-8.6c-0.2-1.8-0.4-3.4-0.8-4.7
			c-0.8-2.5-2.1-4.4-3.9-5.6c-1.8-1.2-4.2-1.8-7.2-1.8h-6.2c-0.2,0-0.3-0.1-0.5-0.2c-0.1-0.1-0.2-0.3-0.2-0.5v-2.4
			c0-0.2,0.1-0.4,0.2-0.5c0.1-0.1,0.3-0.2,0.5-0.2h6.8c7.4,0,12.1,3.3,14.1,9.9c0.4,1.5,0.7,3.2,0.9,5.2c0.2,2,0.3,5.1,0.3,9.4
			c0,4.3-0.1,7.4-0.3,9.4c-0.2,2-0.5,3.7-0.9,5.2c-1.9,6.6-6.6,9.9-14.1,9.9h-6.8C987.3,1533.5,987.2,1533.5,987,1533.3z"/>
	</g>
	<g class="st1">
		<path d="M1070.2,1533.3c-0.1-0.1-0.1-0.3,0-0.5l13.4-41c0.1-0.3,0.3-0.4,0.5-0.4c0.1,0,0.2,0,0.2,0.1c0.1,0.1,0.1,0.2,0.2,0.3
			l1.2,3.9c0.1,0.1,0.1,0.3,0.1,0.5c0,0.2,0,0.4-0.1,0.5l-6.6,20.2h12.7c0.4,0,0.6,0.2,0.8,0.6l0.8,2.4l0.1,0.3
			c0,0.1-0.1,0.3-0.2,0.4c-0.1,0.1-0.2,0.1-0.4,0.1h-14.9l-3.9,12.2c-0.1,0.3-0.2,0.5-0.3,0.6c-0.1,0.1-0.3,0.1-0.5,0.1h-2.5
			C1070.4,1533.5,1070.3,1533.5,1070.2,1533.3z M1101.1,1533l-15.2-47.5l-0.1-0.3c0-0.2,0.1-0.3,0.2-0.4c0.1-0.1,0.2-0.1,0.4-0.1
			h2.3c0.4,0,0.7,0.2,0.8,0.7l15.3,47.5l0.1,0.2c0,0.1,0,0.3-0.1,0.4c-0.1,0.1-0.2,0.1-0.4,0.1h-2.5
			C1101.5,1533.5,1101.2,1533.3,1101.1,1533z"/>
	</g>
	<g class="st1">
		<path d="M1177.8,1533.3c-0.1-0.1-0.2-0.3-0.2-0.5v-19.4l-13.1-27.6c-0.1-0.2-0.2-0.5-0.2-0.6c0-0.1,0-0.3,0.1-0.4
			c0.1-0.1,0.2-0.2,0.4-0.2h2.5c0.2,0,0.4,0,0.6,0.1c0.2,0.1,0.3,0.3,0.4,0.6l12.8,26.7c0.1,0.3,0.2,0.6,0.2,0.9v19.9
			c0,0.2-0.1,0.4-0.2,0.5c-0.1,0.1-0.3,0.2-0.5,0.2h-2.3C1178.1,1533.5,1177.9,1533.5,1177.8,1533.3z M1181.5,1505.5
			c-0.1-0.3-0.1-0.6,0-1l9.1-19.2c0.1-0.3,0.3-0.5,0.4-0.6c0.1-0.1,0.3-0.1,0.6-0.1h2.4c0.3,0,0.5,0.1,0.6,0.4c0,0.2,0,0.4-0.1,0.5
			c-0.1,0.1-0.1,0.2-0.2,0.3l-10.6,22.5c-0.1,0.3-0.3,0.4-0.5,0.4s-0.3-0.1-0.5-0.4L1181.5,1505.5z"/>
	</g>
	<g class="st1">
		<path d="M224,1649.6c-0.1-0.1-0.2-0.3-0.2-0.5v-47.5c0-0.2,0.1-0.4,0.2-0.5c0.1-0.1,0.3-0.2,0.5-0.2h2.4c0.2,0,0.4,0.1,0.5,0.2
			c0.1,0.1,0.2,0.3,0.2,0.5v47.5c0,0.2-0.1,0.4-0.2,0.5c-0.1,0.1-0.3,0.2-0.5,0.2h-2.4C224.3,1649.8,224.1,1649.7,224,1649.6z
			 M231.1,1649.6c-0.1-0.1-0.2-0.3-0.2-0.5v-2.4c0-0.2,0.1-0.4,0.2-0.5c0.1-0.1,0.3-0.2,0.5-0.2h6.2c2.9,0,5.3-0.6,7.2-1.8
			c1.8-1.2,3.2-3,3.9-5.6c0.4-1.3,0.7-2.9,0.8-4.7c0.2-1.8,0.2-4.7,0.2-8.6c0-3.9-0.1-6.8-0.2-8.6c-0.2-1.8-0.4-3.4-0.8-4.7
			c-0.8-2.5-2.1-4.4-3.9-5.6c-1.8-1.2-4.2-1.8-7.2-1.8h-6.2c-0.2,0-0.3-0.1-0.5-0.2c-0.1-0.1-0.2-0.3-0.2-0.5v-2.4
			c0-0.2,0.1-0.4,0.2-0.5c0.1-0.1,0.3-0.2,0.5-0.2h6.8c7.4,0,12.1,3.3,14.1,9.9c0.4,1.5,0.7,3.2,0.9,5.2c0.2,2,0.3,5.1,0.3,9.4
			c0,4.3-0.1,7.4-0.3,9.4c-0.2,2-0.5,3.7-0.9,5.2c-1.9,6.6-6.6,9.9-14.1,9.9h-6.8C231.3,1649.8,231.2,1649.7,231.1,1649.6z"/>
	</g>
	<g class="st1">
		<path d="M318.5,1649.6c-0.1-0.1-0.2-0.3-0.2-0.5v-47.5c0-0.2,0.1-0.4,0.2-0.5c0.1-0.1,0.3-0.2,0.5-0.2h2.4c0.2,0,0.4,0.1,0.5,0.2
			c0.1,0.1,0.2,0.3,0.2,0.5v47.5c0,0.2-0.1,0.4-0.2,0.5c-0.1,0.1-0.3,0.2-0.5,0.2h-2.4C318.8,1649.8,318.6,1649.7,318.5,1649.6z
			 M325.6,1627.6c-0.1-0.1-0.2-0.3-0.2-0.5v-2.4c0-0.2,0.1-0.4,0.2-0.5c0.1-0.1,0.3-0.2,0.5-0.2h7.6c3.2,0,5.6-0.8,7.3-2.5
			c1.7-1.7,2.5-4,2.5-7.2s-0.8-5.5-2.5-7.2c-1.7-1.7-4.1-2.5-7.3-2.5h-7.6c-0.2,0-0.3-0.1-0.5-0.2c-0.1-0.1-0.2-0.3-0.2-0.5v-2.4
			c0-0.2,0.1-0.4,0.2-0.5c0.1-0.1,0.3-0.2,0.5-0.2h7.7c2.8,0,5.2,0.5,7.2,1.6s3.6,2.6,4.6,4.7c1.1,2,1.6,4.5,1.6,7.2
			c0,2.6-0.5,5-1.6,7.1c-1,2.1-2.6,3.7-4.6,4.8c-2.1,1.1-4.6,1.7-7.6,1.6h-7.3C325.9,1627.8,325.8,1627.7,325.6,1627.6z M344,1649.6
			c-0.1-0.1-0.2-0.3-0.3-0.5l-7.4-17.1c-0.1-0.3-0.1-0.6,0-0.7c0.1-0.1,0.2-0.2,0.4-0.2c0.2,0,0.3-0.1,0.3-0.1
			c0.8-0.1,1.5-0.2,1.9-0.4c0.1,0,0.2-0.1,0.3-0.1c0.3,0,0.5,0.2,0.5,0.5l8,17.9c0,0.1,0.1,0.2,0.1,0.4c0,0.3-0.2,0.4-0.5,0.4h-2.9
			C344.2,1649.8,344.1,1649.7,344,1649.6z"/>
	</g>
	<g class="st1">
		<path d="M410.3,1649.6c-0.1-0.1-0.2-0.3-0.2-0.5v-2.4c0-0.2,0-0.4,0.1-0.5c0.1-0.1,0.2-0.3,0.3-0.4l25.3-44.4
			c0.2-0.3,0.5-0.5,0.8-0.5h1c0.2,0,0.4,0.1,0.5,0.2c0.1,0.1,0.2,0.3,0.2,0.5v2.4c0,0.1,0,0.3-0.1,0.5c0,0.2-0.1,0.3-0.3,0.5
			l-25.4,44.4c-0.2,0.3-0.5,0.5-0.8,0.5h-1C410.6,1649.8,410.4,1649.7,410.3,1649.6z M411.2,1604.4c-0.1-0.1-0.2-0.3-0.2-0.5v-2.4
			c0-0.2,0.1-0.4,0.2-0.5c0.1-0.1,0.3-0.2,0.5-0.2h19.8c0.3,0,0.4,0.1,0.5,0.3c0.1,0.2,0.1,0.4-0.1,0.6l-1.5,2.4
			c-0.2,0.3-0.5,0.5-0.8,0.5h-18C411.5,1604.6,411.3,1604.6,411.2,1604.4z M416.4,1649.5c-0.1-0.2,0-0.4,0.1-0.6l1.4-2.4
			c0.2-0.3,0.5-0.5,0.8-0.5h18.9c0.2,0,0.4,0.1,0.5,0.2c0.1,0.1,0.2,0.3,0.2,0.5v2.4c0,0.2-0.1,0.4-0.2,0.5
			c-0.1,0.1-0.3,0.2-0.5,0.2h-20.7C416.6,1649.8,416.4,1649.7,416.4,1649.5z"/>
	</g>
	<g class="st1">
		<path d="M508,1649.6c-0.1-0.1-0.2-0.3-0.3-0.5l-10.5-47.4l-0.1-0.3c0-0.1,0.1-0.3,0.2-0.4c0.1-0.1,0.2-0.1,0.4-0.1h2.3
			c0.3,0,0.5,0,0.6,0.1c0.1,0.1,0.2,0.3,0.3,0.6l10.1,47.1c0,0.1,0.1,0.3,0.1,0.5c0,0.4-0.2,0.6-0.6,0.6h-2.1
			C508.3,1649.8,508.2,1649.7,508,1649.6z M532.4,1649.6c-0.1-0.1-0.2-0.3-0.3-0.5l-10.3-40.4h-0.1l-8.4,32.5c0,0.1-0.1,0.3-0.2,0.4
			c-0.1,0.1-0.1,0.1-0.2,0.1c-0.2,0-0.3-0.2-0.4-0.5l-1-5c0-0.3,0-0.6,0-0.9l8.5-33.8c0.1-0.2,0.2-0.4,0.3-0.5
			c0.1-0.1,0.3-0.2,0.5-0.2h1.9c0.2,0,0.4,0.1,0.5,0.2c0.1,0.1,0.2,0.3,0.3,0.5l12,47.1l0.1,0.4c0,0.5-0.2,0.8-0.6,0.8h-2.1
			C532.7,1649.8,532.5,1649.7,532.4,1649.6z M535.4,1636.3c-0.1-0.4-0.1-0.7-0.1-0.9l7.2-33.9c0-0.3,0.1-0.5,0.3-0.6
			c0.1-0.1,0.3-0.1,0.6-0.1h2.3c0.2,0,0.4,0.1,0.5,0.2c0.1,0.1,0.1,0.3,0.1,0.6l-8.8,39.6c0,0.1-0.1,0.3-0.2,0.4
			c-0.1,0.1-0.1,0.1-0.2,0.1c-0.2,0-0.3-0.1-0.4-0.4L535.4,1636.3z"/>
	</g>
	<g class="st1">
		<path d="M605.6,1647c-2-1.8-3.5-4.3-4.4-7.5c-0.4-1.3-0.7-3-0.9-5.1c-0.2-2.1-0.3-5.1-0.3-9.1c0-4,0.1-7.1,0.3-9.1
			c0.2-2.1,0.5-3.8,0.9-5.1c1-3.2,2.4-5.7,4.4-7.5s4.5-2.9,7.4-3.3h0.1c0.2,0,0.3,0.1,0.4,0.2c0.1,0.1,0.2,0.3,0.2,0.5v2.4
			c0,0.4-0.2,0.6-0.6,0.7c-4.2,0.8-7,3.5-8.4,8.1c-0.3,1.1-0.6,2.7-0.8,4.6c-0.2,2-0.3,4.8-0.3,8.5c0,3.6,0.1,6.5,0.3,8.5
			c0.2,2,0.5,3.5,0.8,4.6c1.4,4.7,4.2,7.4,8.4,8.1c0.4,0,0.6,0.3,0.6,0.7v2.4c0,0.2-0.1,0.4-0.2,0.5c-0.1,0.1-0.3,0.2-0.5,0.1
			C610.1,1650,607.6,1648.9,605.6,1647z M607.2,1592.9c-0.1-0.1-0.2-0.3-0.2-0.5v-3.9c0-0.2,0.1-0.4,0.2-0.5s0.3-0.2,0.5-0.2h2.5
			c0.2,0,0.4,0.1,0.5,0.2s0.2,0.3,0.2,0.5v3.9c0,0.2-0.1,0.4-0.2,0.5c-0.1,0.1-0.3,0.2-0.5,0.2h-2.5
			C607.5,1593.1,607.4,1593,607.2,1592.9z M617.8,1650.3c-0.2,0-0.3-0.1-0.4-0.2c-0.1-0.1-0.2-0.3-0.2-0.5v-2.4
			c0-0.4,0.2-0.7,0.6-0.7c4.2-0.8,7-3.5,8.4-8.1c0.3-1.2,0.6-2.7,0.8-4.7c0.2-2,0.3-4.8,0.3-8.4c0-3.6-0.1-6.4-0.3-8.4
			c-0.2-2-0.5-3.6-0.8-4.7c-1.4-4.7-4.2-7.4-8.4-8.1c-0.4-0.1-0.6-0.3-0.6-0.7v-2.4c0-0.2,0.1-0.4,0.2-0.5c0.1-0.1,0.3-0.2,0.5-0.1
			c2.9,0.4,5.4,1.5,7.4,3.3c2,1.8,3.5,4.3,4.5,7.5c0.4,1.4,0.7,3.1,0.9,5.2c0.2,2.1,0.3,5.1,0.3,9.1c0,3.9-0.1,6.9-0.3,9
			c-0.2,2.1-0.5,3.8-0.9,5.2c-1,3.2-2.4,5.7-4.5,7.5c-2,1.8-4.5,2.9-7.4,3.3H617.8z M620.2,1592.9c-0.1-0.1-0.2-0.3-0.2-0.5v-3.9
			c0-0.2,0.1-0.4,0.2-0.5s0.3-0.2,0.5-0.2h2.5c0.2,0,0.4,0.1,0.5,0.2s0.2,0.3,0.2,0.5v3.9c0,0.2-0.1,0.4-0.2,0.5
			c-0.1,0.1-0.3,0.2-0.5,0.2h-2.5C620.5,1593.1,620.4,1593,620.2,1592.9z"/>
	</g>
	<g class="st1">
		<path d="M696.5,1649.6c-0.1-0.1-0.2-0.3-0.2-0.5v-47.5c0-0.2,0.1-0.4,0.2-0.5c0.1-0.1,0.3-0.2,0.5-0.2h2.4c0.2,0,0.4,0.1,0.5,0.2
			c0.1,0.1,0.2,0.3,0.2,0.5v47.5c0,0.2-0.1,0.4-0.2,0.5c-0.1,0.1-0.3,0.2-0.5,0.2h-2.4C696.8,1649.8,696.6,1649.7,696.5,1649.6z
			 M703.6,1649.6c-0.1-0.1-0.2-0.3-0.2-0.5v-2.4c0-0.2,0.1-0.4,0.2-0.5c0.1-0.1,0.3-0.2,0.5-0.2h18.2c0.2,0,0.4,0.1,0.5,0.2
			c0.1,0.1,0.2,0.3,0.2,0.5v2.4c0,0.2-0.1,0.4-0.2,0.5c-0.1,0.1-0.3,0.2-0.5,0.2h-18.2C703.9,1649.8,703.7,1649.7,703.6,1649.6z"/>
	</g>
	<g class="st1">
		<path d="M791,1649.6c-0.1-0.1-0.2-0.3-0.2-0.5v-47.5c0-0.2,0.1-0.4,0.2-0.5c0.1-0.1,0.3-0.2,0.5-0.2h2.4c0.2,0,0.4,0.1,0.5,0.2
			c0.1,0.1,0.2,0.3,0.2,0.5v47.5c0,0.2-0.1,0.4-0.2,0.5c-0.1,0.1-0.3,0.2-0.5,0.2h-2.4C791.3,1649.8,791.1,1649.7,791,1649.6z
			 M798.1,1604.4c-0.1-0.1-0.2-0.3-0.2-0.5v-2.4c0-0.2,0.1-0.4,0.2-0.5c0.1-0.1,0.3-0.2,0.5-0.2h18.2c0.2,0,0.4,0.1,0.5,0.2
			c0.1,0.1,0.2,0.3,0.2,0.5v2.4c0,0.2-0.1,0.4-0.2,0.5c-0.1,0.1-0.3,0.2-0.5,0.2h-18.2C798.4,1604.6,798.2,1604.6,798.1,1604.4z
			 M798.1,1627.2c-0.1-0.1-0.2-0.3-0.2-0.5v-2.4c0-0.2,0.1-0.4,0.2-0.5c0.1-0.1,0.3-0.2,0.5-0.2h15.1c0.2,0,0.4,0.1,0.5,0.2
			c0.1,0.1,0.2,0.3,0.2,0.5v2.4c0,0.2-0.1,0.4-0.2,0.5c-0.1,0.1-0.3,0.2-0.5,0.2h-15.1C798.4,1627.4,798.2,1627.3,798.1,1627.2z"/>
	</g>
	<g class="st1">
		<path d="M888.1,1645.2c-2.2-3-3.3-7.1-3.3-12.4v-31.3c0-0.2,0.1-0.4,0.2-0.5c0.1-0.1,0.3-0.2,0.5-0.2h2.4c0.2,0,0.4,0.1,0.5,0.2
			c0.1,0.1,0.2,0.3,0.2,0.5v31.3c0,4,0.8,7.2,2.3,9.5c1.5,2.3,3.8,3.7,6.7,4.2c0.4,0,0.6,0.3,0.6,0.7v2.4c0,0.2-0.1,0.4-0.2,0.5
			c-0.1,0.1-0.3,0.2-0.5,0.1C893.4,1649.9,890.3,1648.2,888.1,1645.2z M891.6,1592.9c-0.1-0.1-0.2-0.3-0.2-0.5v-3.9
			c0-0.2,0.1-0.4,0.2-0.5s0.3-0.2,0.5-0.2h2.5c0.2,0,0.4,0.1,0.5,0.2c0.1,0.1,0.2,0.3,0.2,0.5v3.9c0,0.2-0.1,0.4-0.2,0.5
			c-0.1,0.1-0.3,0.2-0.5,0.2H892C891.9,1593.1,891.7,1593,891.6,1592.9z M902.1,1650.3c-0.2,0-0.3-0.1-0.4-0.2
			c-0.1-0.1-0.2-0.3-0.2-0.5v-2.4c0-0.4,0.2-0.7,0.6-0.7c2.9-0.5,5.1-1.9,6.7-4.2c1.5-2.3,2.3-5.5,2.3-9.5v-31.3
			c0-0.2,0.1-0.4,0.2-0.5c0.1-0.1,0.3-0.2,0.5-0.2h2.4c0.2,0,0.4,0.1,0.5,0.2c0.1,0.1,0.2,0.3,0.2,0.5v31.3c0,5.3-1.1,9.4-3.2,12.3
			c-2.2,3-5.3,4.7-9.3,5.1H902.1z M904.6,1592.9c-0.1-0.1-0.2-0.3-0.2-0.5v-3.9c0-0.2,0.1-0.4,0.2-0.5s0.3-0.2,0.5-0.2h2.5
			c0.2,0,0.4,0.1,0.5,0.2c0.1,0.1,0.2,0.3,0.2,0.5v3.9c0,0.2-0.1,0.4-0.2,0.5c-0.1,0.1-0.3,0.2-0.5,0.2H905
			C904.8,1593.1,904.7,1593,904.6,1592.9z"/>
	</g>
	<g class="st1">
		<path d="M1006.4,1649.6c-0.2-0.1-0.4-0.3-0.5-0.6l-25.9-46.6c-0.2-0.2-0.3-0.5-0.3-0.9c0-0.5,0.2-0.8,0.7-0.8h2.1
			c0.3,0,0.5,0,0.6,0.1c0.2,0.1,0.3,0.3,0.5,0.6l25.9,46.8c0.1,0.1,0.2,0.3,0.2,0.5c0,0.2,0,0.3,0,0.5c-0.1,0.3-0.3,0.5-0.6,0.5
			h-2.2C1006.8,1649.8,1006.6,1649.7,1006.4,1649.6z M980,1649.6c-0.1-0.1-0.2-0.3-0.2-0.5v-38.8c0-0.4,0.1-0.6,0.3-0.6
			c0.2,0,0.4,0.1,0.5,0.4l2.5,4.5c0.1,0.3,0.2,0.6,0.2,0.9v33.6c0,0.2-0.1,0.4-0.2,0.5c-0.1,0.1-0.3,0.2-0.5,0.2h-2.2
			C980.2,1649.8,980.1,1649.7,980,1649.6z M1006.5,1635.9c-0.1-0.3-0.2-0.6-0.2-0.9v-33.5c0-0.2,0.1-0.4,0.2-0.5
			c0.1-0.1,0.3-0.2,0.5-0.2h2.2c0.2,0,0.4,0.1,0.5,0.2c0.1,0.1,0.2,0.3,0.2,0.5v38.7c0,0.4-0.1,0.6-0.3,0.6c-0.2,0-0.3-0.1-0.5-0.4
			L1006.5,1635.9z"/>
	</g>
	<g class="st1">
		<path d="M1074.5,1649.6c-0.1-0.1-0.2-0.3-0.2-0.5v-47.5c0-0.2,0.1-0.4,0.2-0.5c0.1-0.1,0.3-0.2,0.5-0.2h2.4c0.2,0,0.4,0.1,0.5,0.2
			c0.1,0.1,0.2,0.3,0.2,0.5v47.5c0,0.2-0.1,0.4-0.2,0.5c-0.1,0.1-0.3,0.2-0.5,0.2h-2.4C1074.7,1649.8,1074.6,1649.7,1074.5,1649.6z
			 M1081.6,1604.4c-0.1-0.1-0.2-0.3-0.2-0.5v-2.4c0-0.2,0.1-0.4,0.2-0.5c0.1-0.1,0.3-0.2,0.5-0.2h18.2c0.2,0,0.4,0.1,0.5,0.2
			c0.1,0.1,0.2,0.3,0.2,0.5v2.4c0,0.2-0.1,0.4-0.2,0.5c-0.1,0.1-0.3,0.2-0.5,0.2h-18.2C1081.9,1604.6,1081.7,1604.6,1081.6,1604.4z
			 M1081.6,1627.2c-0.1-0.1-0.2-0.3-0.2-0.5v-2.4c0-0.2,0.1-0.4,0.2-0.5c0.1-0.1,0.3-0.2,0.5-0.2h15.1c0.2,0,0.4,0.1,0.5,0.2
			c0.1,0.1,0.2,0.3,0.2,0.5v2.4c0,0.2-0.1,0.4-0.2,0.5c-0.1,0.1-0.3,0.2-0.5,0.2h-15.1C1081.9,1627.4,1081.7,1627.3,1081.6,1627.2z"
			/>
	</g>
	<g class="st1">
		<path d="M1164.7,1649.5c-0.1-0.2,0-0.3,0.1-0.5l11.1-20.4c0.1-0.2,0.3-0.4,0.5-0.4c0.2,0,0.3,0.1,0.5,0.4l1.3,2.5
			c0.1,0.1,0.1,0.3,0.1,0.5c0,0.2,0,0.4-0.1,0.5l-9.3,17.1c-0.2,0.4-0.5,0.6-0.8,0.6h-2.9
			C1164.9,1649.8,1164.8,1649.7,1164.7,1649.5z M1192.1,1649.6c-0.1-0.1-0.2-0.2-0.3-0.4l-25.6-47.6l-0.1-0.4c0-0.3,0.2-0.4,0.5-0.4
			h2.9c0.2,0,0.4,0,0.5,0.1c0.1,0.1,0.3,0.2,0.4,0.4l10,18.7l15.6,28.9c0,0.1,0.1,0.2,0.1,0.4c0,0.3-0.1,0.4-0.4,0.4h-2.9
			C1192.4,1649.8,1192.2,1649.7,1192.1,1649.6z M1182.5,1617.2c-0.1-0.1-0.1-0.3-0.1-0.5c0-0.2,0-0.4,0.1-0.5l8-14.8
			c0.1-0.2,0.2-0.3,0.3-0.4c0.1-0.1,0.3-0.1,0.5-0.1h2.9c0.2,0,0.3,0.1,0.4,0.2c0.1,0.1,0.1,0.3,0,0.6l-9.8,18.1
			c-0.1,0.2-0.3,0.3-0.5,0.3c-0.2,0-0.3-0.1-0.5-0.3L1182.5,1617.2z"/>
	</g>
	<g class="st1">
		<path d="M221.3,1765.8c-0.1-0.1-0.2-0.3-0.2-0.5v-2.4c0-0.2,0-0.4,0.1-0.5c0.1-0.1,0.2-0.3,0.3-0.4l25.3-44.4
			c0.2-0.3,0.5-0.5,0.8-0.5h1c0.2,0,0.4,0.1,0.5,0.2c0.1,0.1,0.2,0.3,0.2,0.5v2.4c0,0.1,0,0.3-0.1,0.5c0,0.2-0.1,0.3-0.3,0.5
			l-25.4,44.4c-0.2,0.3-0.5,0.5-0.8,0.5h-1C221.6,1766,221.4,1765.9,221.3,1765.8z M222.2,1720.7c-0.1-0.1-0.2-0.3-0.2-0.5v-2.4
			c0-0.2,0.1-0.4,0.2-0.5c0.1-0.1,0.3-0.2,0.5-0.2h19.8c0.3,0,0.4,0.1,0.5,0.3c0.1,0.2,0.1,0.4-0.1,0.6l-1.5,2.4
			c-0.2,0.3-0.5,0.5-0.8,0.5h-18C222.5,1720.9,222.4,1720.8,222.2,1720.7z M227.4,1765.8c-0.1-0.2,0-0.4,0.1-0.6l1.4-2.4
			c0.2-0.3,0.5-0.5,0.8-0.5h18.9c0.2,0,0.4,0.1,0.5,0.2c0.1,0.1,0.2,0.3,0.2,0.5v2.4c0,0.2-0.1,0.4-0.2,0.5
			c-0.1,0.1-0.3,0.2-0.5,0.2h-20.7C227.6,1766,227.4,1765.9,227.4,1765.8z"/>
	</g>
	<g class="st1">
		<path d="M318.5,1765.8c-0.1-0.1-0.2-0.3-0.2-0.5v-47.5c0-0.2,0.1-0.4,0.2-0.5c0.1-0.1,0.3-0.2,0.5-0.2h2.4c0.2,0,0.4,0.1,0.5,0.2
			c0.1,0.1,0.2,0.3,0.2,0.5v47.5c0,0.2-0.1,0.4-0.2,0.5c-0.1,0.1-0.3,0.2-0.5,0.2h-2.4C318.8,1766,318.6,1765.9,318.5,1765.8z
			 M325.6,1720.7c-0.1-0.1-0.2-0.3-0.2-0.5v-2.4c0-0.2,0.1-0.4,0.2-0.5c0.1-0.1,0.3-0.2,0.5-0.2h18.2c0.2,0,0.4,0.1,0.5,0.2
			c0.1,0.1,0.2,0.3,0.2,0.5v2.4c0,0.2-0.1,0.4-0.2,0.5c-0.1,0.1-0.3,0.2-0.5,0.2h-18.2C325.9,1720.9,325.8,1720.8,325.6,1720.7z
			 M325.6,1742.9c-0.1-0.1-0.2-0.3-0.2-0.5v-2.4c0-0.2,0.1-0.4,0.2-0.5c0.1-0.1,0.3-0.2,0.5-0.2h15.1c0.2,0,0.4,0.1,0.5,0.2
			c0.1,0.1,0.2,0.3,0.2,0.5v2.4c0,0.2-0.1,0.4-0.2,0.5c-0.1,0.1-0.3,0.2-0.5,0.2h-15.1C325.9,1743.1,325.8,1743,325.6,1742.9z
			 M325.6,1765.8c-0.1-0.1-0.2-0.3-0.2-0.5v-2.4c0-0.2,0.1-0.4,0.2-0.5c0.1-0.1,0.3-0.2,0.5-0.2h18.2c0.2,0,0.4,0.1,0.5,0.2
			c0.1,0.1,0.2,0.3,0.2,0.5v2.4c0,0.2-0.1,0.4-0.2,0.5c-0.1,0.1-0.3,0.2-0.5,0.2h-18.2C325.9,1766,325.8,1765.9,325.6,1765.8z"/>
	</g>
	<g class="st1">
		<path d="M413,1765.8c-0.1-0.1-0.2-0.3-0.2-0.5v-47.5c0-0.2,0.1-0.4,0.2-0.5c0.1-0.1,0.3-0.2,0.5-0.2h2.4c0.2,0,0.4,0.1,0.5,0.2
			c0.1,0.1,0.2,0.3,0.2,0.5v47.5c0,0.2-0.1,0.4-0.2,0.5c-0.1,0.1-0.3,0.2-0.5,0.2h-2.4C413.3,1766,413.1,1765.9,413,1765.8z
			 M419.9,1742.9c-0.1-0.1-0.2-0.3-0.2-0.5v-2.4c0-0.2,0.1-0.4,0.2-0.5c0.1-0.1,0.3-0.2,0.5-0.2h14.9c0.2,0,0.4,0.1,0.5,0.2
			c0.1,0.1,0.2,0.3,0.2,0.5v2.4c0,0.2-0.1,0.4-0.2,0.5c-0.1,0.1-0.3,0.2-0.5,0.2h-14.9C420.1,1743.1,420,1743,419.9,1742.9z
			 M439.3,1765.8c-0.1-0.1-0.2-0.3-0.2-0.5v-47.5c0-0.2,0.1-0.4,0.2-0.5c0.1-0.1,0.3-0.2,0.5-0.2h2.4c0.2,0,0.4,0.1,0.5,0.2
			c0.1,0.1,0.2,0.3,0.2,0.5v47.5c0,0.2-0.1,0.4-0.2,0.5c-0.1,0.1-0.3,0.2-0.5,0.2h-2.4C439.6,1766,439.4,1765.9,439.3,1765.8z"/>
	</g>
	<g class="st1">
		<path d="M533.9,1765.9c-0.2-0.1-0.4-0.3-0.5-0.6l-25.9-46.6c-0.2-0.2-0.3-0.5-0.3-0.9c0-0.5,0.2-0.8,0.7-0.8h2.1
			c0.3,0,0.5,0,0.6,0.1c0.2,0.1,0.3,0.3,0.5,0.6l25.9,46.8c0.1,0.1,0.2,0.3,0.2,0.5c0,0.2,0,0.3,0,0.5c-0.1,0.3-0.3,0.5-0.6,0.5
			h-2.2C534.3,1766,534.1,1766,533.9,1765.9z M507.5,1765.8c-0.1-0.1-0.2-0.3-0.2-0.5v-38.8c0-0.4,0.1-0.6,0.3-0.6
			c0.2,0,0.4,0.1,0.5,0.4l2.5,4.5c0.1,0.3,0.2,0.6,0.2,0.9v33.6c0,0.2-0.1,0.4-0.2,0.5c-0.1,0.1-0.3,0.2-0.5,0.2h-2.2
			C507.8,1766,507.6,1765.9,507.5,1765.8z M534,1752.2c-0.1-0.3-0.2-0.6-0.2-0.9v-33.5c0-0.2,0.1-0.4,0.2-0.5
			c0.1-0.1,0.3-0.2,0.5-0.2h2.2c0.2,0,0.4,0.1,0.5,0.2c0.1,0.1,0.2,0.3,0.2,0.5v38.7c0,0.4-0.1,0.6-0.3,0.6c-0.2,0-0.3-0.1-0.5-0.4
			L534,1752.2z"/>
	</g>
	<g class="st1">
		<path d="M602,1765.8c-0.1-0.1-0.2-0.3-0.2-0.5v-47.5c0-0.2,0.1-0.4,0.2-0.5c0.1-0.1,0.3-0.2,0.5-0.2h2.4c0.2,0,0.4,0.1,0.5,0.2
			c0.1,0.1,0.2,0.3,0.2,0.5v47.5c0,0.2-0.1,0.4-0.2,0.5c-0.1,0.1-0.3,0.2-0.5,0.2h-2.4C602.3,1766,602.1,1765.9,602,1765.8z
			 M609.1,1720.7c-0.1-0.1-0.2-0.3-0.2-0.5v-2.4c0-0.2,0.1-0.4,0.2-0.5c0.1-0.1,0.3-0.2,0.5-0.2h18.2c0.2,0,0.4,0.1,0.5,0.2
			c0.1,0.1,0.2,0.3,0.2,0.5v2.4c0,0.2-0.1,0.4-0.2,0.5c-0.1,0.1-0.3,0.2-0.5,0.2h-18.2C609.4,1720.9,609.2,1720.8,609.1,1720.7z
			 M609.1,1742.9c-0.1-0.1-0.2-0.3-0.2-0.5v-2.4c0-0.2,0.1-0.4,0.2-0.5c0.1-0.1,0.3-0.2,0.5-0.2h15.1c0.2,0,0.4,0.1,0.5,0.2
			c0.1,0.1,0.2,0.3,0.2,0.5v2.4c0,0.2-0.1,0.4-0.2,0.5c-0.1,0.1-0.3,0.2-0.5,0.2h-15.1C609.4,1743.1,609.2,1743,609.1,1742.9z
			 M609.1,1765.8c-0.1-0.1-0.2-0.3-0.2-0.5v-2.4c0-0.2,0.1-0.4,0.2-0.5c0.1-0.1,0.3-0.2,0.5-0.2h18.2c0.2,0,0.4,0.1,0.5,0.2
			c0.1,0.1,0.2,0.3,0.2,0.5v2.4c0,0.2-0.1,0.4-0.2,0.5c-0.1,0.1-0.3,0.2-0.5,0.2h-18.2C609.4,1766,609.2,1765.9,609.1,1765.8z"/>
	</g>
	<g class="st1">
		<path d="M699.1,1761.5c-2.2-3-3.3-7.1-3.3-12.4v-31.3c0-0.2,0.1-0.4,0.2-0.5c0.1-0.1,0.3-0.2,0.5-0.2h2.4c0.2,0,0.4,0.1,0.5,0.2
			c0.1,0.1,0.2,0.3,0.2,0.5v31.3c0,4,0.8,7.2,2.3,9.5c1.5,2.3,3.8,3.7,6.7,4.2c0.4,0,0.6,0.3,0.6,0.7v2.4c0,0.2-0.1,0.4-0.2,0.5
			c-0.1,0.1-0.3,0.2-0.5,0.1C704.4,1766.2,701.3,1764.5,699.1,1761.5z M713.1,1766.6c-0.2,0-0.3-0.1-0.4-0.2
			c-0.1-0.1-0.2-0.3-0.2-0.5v-2.4c0-0.4,0.2-0.7,0.6-0.7c2.9-0.5,5.1-1.9,6.7-4.2c1.5-2.3,2.3-5.5,2.3-9.5v-31.3
			c0-0.2,0.1-0.4,0.2-0.5c0.1-0.1,0.3-0.2,0.5-0.2h2.4c0.2,0,0.4,0.1,0.5,0.2c0.1,0.1,0.2,0.3,0.2,0.5v31.3c0,5.3-1.1,9.4-3.2,12.3
			c-2.2,3-5.3,4.7-9.3,5.1H713.1z"/>
	</g>
	<g class="st1">
		<path d="M817.4,1765.9c-0.2-0.1-0.4-0.3-0.5-0.6l-25.9-46.6c-0.2-0.2-0.3-0.5-0.3-0.9c0-0.5,0.2-0.8,0.7-0.8h2.1
			c0.3,0,0.5,0,0.6,0.1c0.2,0.1,0.3,0.3,0.5,0.6l25.9,46.8c0.1,0.1,0.2,0.3,0.2,0.5c0,0.2,0,0.3,0,0.5c-0.1,0.3-0.3,0.5-0.6,0.5H818
			C817.8,1766,817.6,1766,817.4,1765.9z M791,1765.8c-0.1-0.1-0.2-0.3-0.2-0.5v-38.8c0-0.4,0.1-0.6,0.3-0.6c0.2,0,0.4,0.1,0.5,0.4
			l2.5,4.5c0.1,0.3,0.2,0.6,0.2,0.9v33.6c0,0.2-0.1,0.4-0.2,0.5c-0.1,0.1-0.3,0.2-0.5,0.2h-2.2C791.3,1766,791.1,1765.9,791,1765.8z
			 M817.5,1752.2c-0.1-0.3-0.2-0.6-0.2-0.9v-33.5c0-0.2,0.1-0.4,0.2-0.5c0.1-0.1,0.3-0.2,0.5-0.2h2.2c0.2,0,0.4,0.1,0.5,0.2
			c0.1,0.1,0.2,0.3,0.2,0.5v38.7c0,0.4-0.1,0.6-0.3,0.6c-0.2,0-0.3-0.1-0.5-0.4L817.5,1752.2z"/>
	</g>
	<g class="st1">
		<path d="M885.5,1765.8c-0.1-0.1-0.2-0.3-0.2-0.5v-47.5c0-0.2,0.1-0.4,0.2-0.5c0.1-0.1,0.3-0.2,0.5-0.2h2.4c0.2,0,0.4,0.1,0.5,0.2
			c0.1,0.1,0.2,0.3,0.2,0.5v47.5c0,0.2-0.1,0.4-0.2,0.5c-0.1,0.1-0.3,0.2-0.5,0.2h-2.4C885.7,1766,885.6,1765.9,885.5,1765.8z
			 M892.5,1765.8c-0.1-0.1-0.2-0.3-0.2-0.5v-2.4c0-0.2,0.1-0.4,0.2-0.5c0.1-0.1,0.3-0.2,0.5-0.2h6.2c2.9,0,5.3-0.6,7.2-1.8
			c1.8-1.2,3.2-3,3.9-5.6c0.4-1.3,0.7-2.9,0.8-4.7c0.2-1.8,0.2-4.7,0.2-8.6c0-3.9-0.1-6.8-0.2-8.6c-0.2-1.8-0.4-3.4-0.8-4.7
			c-0.8-2.5-2.1-4.4-3.9-5.6c-1.8-1.2-4.2-1.8-7.2-1.8H893c-0.2,0-0.3-0.1-0.5-0.2c-0.1-0.1-0.2-0.3-0.2-0.5v-2.4
			c0-0.2,0.1-0.4,0.2-0.5c0.1-0.1,0.3-0.2,0.5-0.2h6.8c7.4,0,12.1,3.3,14.1,9.9c0.4,1.5,0.7,3.2,0.9,5.2c0.2,2,0.3,5.1,0.3,9.4
			c0,4.3-0.1,7.4-0.3,9.4c-0.2,2-0.5,3.7-0.9,5.2c-1.9,6.6-6.6,9.9-14.1,9.9H893C892.8,1766,892.7,1765.9,892.5,1765.8z"/>
	</g>
	<g class="st1">
		<path d="M980,1765.8c-0.1-0.1-0.2-0.3-0.2-0.5v-47.5c0-0.2,0.1-0.4,0.2-0.5c0.1-0.1,0.3-0.2,0.5-0.2h2.4c0.2,0,0.4,0.1,0.5,0.2
			c0.1,0.1,0.2,0.3,0.2,0.5v47.5c0,0.2-0.1,0.4-0.2,0.5c-0.1,0.1-0.3,0.2-0.5,0.2h-2.4C980.2,1766,980.1,1765.9,980,1765.8z
			 M987.1,1743.8c-0.1-0.1-0.2-0.3-0.2-0.5v-2.4c0-0.2,0.1-0.4,0.2-0.5c0.1-0.1,0.3-0.2,0.5-0.2h7.6c3.2,0,5.6-0.8,7.3-2.5
			c1.7-1.7,2.5-4,2.5-7.2s-0.8-5.5-2.5-7.2c-1.7-1.7-4.1-2.5-7.3-2.5h-7.6c-0.2,0-0.3-0.1-0.5-0.2c-0.1-0.1-0.2-0.3-0.2-0.5v-2.4
			c0-0.2,0.1-0.4,0.2-0.5c0.1-0.1,0.3-0.2,0.5-0.2h7.7c2.8,0,5.2,0.5,7.2,1.6s3.6,2.6,4.6,4.7c1.1,2,1.6,4.5,1.6,7.2
			c0,2.6-0.5,5-1.6,7.1c-1,2.1-2.6,3.7-4.6,4.8c-2.1,1.1-4.6,1.7-7.6,1.6h-7.3C987.4,1744.1,987.2,1744,987.1,1743.8z
			 M1005.5,1765.9c-0.1-0.1-0.2-0.3-0.3-0.5l-7.4-17.1c-0.1-0.3-0.1-0.6,0-0.7c0.1-0.1,0.2-0.2,0.4-0.2c0.2,0,0.3-0.1,0.3-0.1
			c0.8-0.1,1.5-0.2,1.9-0.4c0.1,0,0.2-0.1,0.3-0.1c0.3,0,0.5,0.2,0.5,0.5l8,17.9c0,0.1,0.1,0.2,0.1,0.4c0,0.3-0.2,0.4-0.5,0.4h-2.9
			C1005.7,1766,1005.6,1766,1005.5,1765.9z"/>
	</g>
	<g class="st1">
		<path d="M1074.5,1765.8c-0.1-0.1-0.2-0.3-0.2-0.5v-47.5c0-0.2,0.1-0.4,0.2-0.5c0.1-0.1,0.3-0.2,0.5-0.2h2.4c0.2,0,0.4,0.1,0.5,0.2
			c0.1,0.1,0.2,0.3,0.2,0.5v47.5c0,0.2-0.1,0.4-0.2,0.5c-0.1,0.1-0.3,0.2-0.5,0.2h-2.4C1074.7,1766,1074.6,1765.9,1074.5,1765.8z
			 M1081.6,1720.7c-0.1-0.1-0.2-0.3-0.2-0.5v-2.4c0-0.2,0.1-0.4,0.2-0.5c0.1-0.1,0.3-0.2,0.5-0.2h18.2c0.2,0,0.4,0.1,0.5,0.2
			c0.1,0.1,0.2,0.3,0.2,0.5v2.4c0,0.2-0.1,0.4-0.2,0.5c-0.1,0.1-0.3,0.2-0.5,0.2h-18.2C1081.9,1720.9,1081.7,1720.8,1081.6,1720.7z
			 M1081.6,1742.9c-0.1-0.1-0.2-0.3-0.2-0.5v-2.4c0-0.2,0.1-0.4,0.2-0.5c0.1-0.1,0.3-0.2,0.5-0.2h15.1c0.2,0,0.4,0.1,0.5,0.2
			c0.1,0.1,0.2,0.3,0.2,0.5v2.4c0,0.2-0.1,0.4-0.2,0.5c-0.1,0.1-0.3,0.2-0.5,0.2h-15.1C1081.9,1743.1,1081.7,1743,1081.6,1742.9z
			 M1081.6,1765.8c-0.1-0.1-0.2-0.3-0.2-0.5v-2.4c0-0.2,0.1-0.4,0.2-0.5c0.1-0.1,0.3-0.2,0.5-0.2h18.2c0.2,0,0.4,0.1,0.5,0.2
			c0.1,0.1,0.2,0.3,0.2,0.5v2.4c0,0.2-0.1,0.4-0.2,0.5c-0.1,0.1-0.3,0.2-0.5,0.2h-18.2C1081.9,1766,1081.7,1765.9,1081.6,1765.8z"/>
	</g>
	<g class="st1">
		<path d="M1181,1765.8c-0.1-0.1-0.2-0.3-0.2-0.5v-47.5c0-0.2,0.1-0.4,0.2-0.5c0.1-0.1,0.3-0.2,0.5-0.2h2.4c0.2,0,0.4,0.1,0.5,0.2
			c0.1,0.1,0.2,0.3,0.2,0.5v47.5c0,0.2-0.1,0.4-0.2,0.5c-0.1,0.1-0.3,0.2-0.5,0.2h-2.4C1181.2,1766,1181.1,1765.9,1181,1765.8z"/>
	</g>
	<g class="st1">
		<path d="M221.3,1882c-0.1-0.1-0.2-0.3-0.2-0.5v-2.4c0-0.2,0-0.4,0.1-0.5c0.1-0.1,0.2-0.3,0.3-0.4l25.3-44.4
			c0.2-0.3,0.5-0.5,0.8-0.5h1c0.2,0,0.4,0.1,0.5,0.2c0.1,0.1,0.2,0.3,0.2,0.5v2.4c0,0.1,0,0.3-0.1,0.5c0,0.2-0.1,0.3-0.3,0.5
			l-25.4,44.4c-0.2,0.3-0.5,0.5-0.8,0.5h-1C221.6,1882.3,221.4,1882.2,221.3,1882z M222.2,1836.9c-0.1-0.1-0.2-0.3-0.2-0.5v-2.4
			c0-0.2,0.1-0.4,0.2-0.5c0.1-0.1,0.3-0.2,0.5-0.2h19.8c0.3,0,0.4,0.1,0.5,0.3c0.1,0.2,0.1,0.4-0.1,0.6l-1.5,2.4
			c-0.2,0.3-0.5,0.5-0.8,0.5h-18C222.5,1837.1,222.4,1837,222.2,1836.9z M227.4,1882c-0.1-0.2,0-0.4,0.1-0.6l1.4-2.4
			c0.2-0.3,0.5-0.5,0.8-0.5h18.9c0.2,0,0.4,0.1,0.5,0.2c0.1,0.1,0.2,0.3,0.2,0.5v2.4c0,0.2-0.1,0.4-0.2,0.5
			c-0.1,0.1-0.3,0.2-0.5,0.2h-20.7C227.6,1882.3,227.4,1882.2,227.4,1882z"/>
	</g>
	<g class="st1">
		<path d="M319,1882.1c-0.1-0.1-0.2-0.3-0.3-0.5l-10.5-47.4l-0.1-0.3c0-0.1,0.1-0.3,0.2-0.4c0.1-0.1,0.2-0.1,0.4-0.1h2.3
			c0.3,0,0.5,0,0.6,0.1c0.1,0.1,0.2,0.3,0.3,0.6l10.1,47.1c0,0.1,0.1,0.3,0.1,0.5c0,0.4-0.2,0.6-0.6,0.6h-2.1
			C319.3,1882.3,319.2,1882.2,319,1882.1z M343.4,1882.1c-0.1-0.1-0.2-0.3-0.3-0.5l-10.3-40.4h-0.1l-8.4,32.5c0,0.1-0.1,0.3-0.2,0.4
			c-0.1,0.1-0.1,0.1-0.2,0.1c-0.2,0-0.3-0.2-0.4-0.5l-1-5c0-0.3,0-0.6,0-0.9l8.5-33.8c0.1-0.2,0.2-0.4,0.3-0.5
			c0.1-0.1,0.3-0.2,0.5-0.2h1.9c0.2,0,0.4,0.1,0.5,0.2c0.1,0.1,0.2,0.3,0.3,0.5l12,47.1l0.1,0.4c0,0.5-0.2,0.8-0.6,0.8h-2.1
			C343.7,1882.3,343.5,1882.2,343.4,1882.1z M346.4,1868.8c-0.1-0.4-0.1-0.7-0.1-0.9l7.2-33.9c0-0.3,0.1-0.5,0.3-0.6
			c0.1-0.1,0.3-0.1,0.6-0.1h2.3c0.2,0,0.4,0.1,0.5,0.2c0.1,0.1,0.1,0.3,0.1,0.6l-8.8,39.6c0,0.1-0.1,0.3-0.2,0.4
			c-0.1,0.1-0.1,0.1-0.2,0.1c-0.2,0-0.3-0.1-0.4-0.4L346.4,1868.8z"/>
	</g>
	<g class="st1">
		<path d="M413,1882c-0.1-0.1-0.2-0.3-0.2-0.5V1834c0-0.2,0.1-0.4,0.2-0.5c0.1-0.1,0.3-0.2,0.5-0.2h2.4c0.2,0,0.4,0.1,0.5,0.2
			c0.1,0.1,0.2,0.3,0.2,0.5v47.5c0,0.2-0.1,0.4-0.2,0.5c-0.1,0.1-0.3,0.2-0.5,0.2h-2.4C413.3,1882.3,413.1,1882.2,413,1882z
			 M420.1,1836.9c-0.1-0.1-0.2-0.3-0.2-0.5v-2.4c0-0.2,0.1-0.4,0.2-0.5c0.1-0.1,0.3-0.2,0.5-0.2h18.2c0.2,0,0.4,0.1,0.5,0.2
			c0.1,0.1,0.2,0.3,0.2,0.5v2.4c0,0.2-0.1,0.4-0.2,0.5c-0.1,0.1-0.3,0.2-0.5,0.2h-18.2C420.4,1837.1,420.2,1837,420.1,1836.9z
			 M420.1,1859.1c-0.1-0.1-0.2-0.3-0.2-0.5v-2.4c0-0.2,0.1-0.4,0.2-0.5c0.1-0.1,0.3-0.2,0.5-0.2h15.1c0.2,0,0.4,0.1,0.5,0.2
			c0.1,0.1,0.2,0.3,0.2,0.5v2.4c0,0.2-0.1,0.4-0.2,0.5c-0.1,0.1-0.3,0.2-0.5,0.2h-15.1C420.4,1859.4,420.2,1859.3,420.1,1859.1z
			 M420.1,1882c-0.1-0.1-0.2-0.3-0.2-0.5v-2.4c0-0.2,0.1-0.4,0.2-0.5c0.1-0.1,0.3-0.2,0.5-0.2h18.2c0.2,0,0.4,0.1,0.5,0.2
			c0.1,0.1,0.2,0.3,0.2,0.5v2.4c0,0.2-0.1,0.4-0.2,0.5c-0.1,0.1-0.3,0.2-0.5,0.2h-18.2C420.4,1882.3,420.2,1882.2,420.1,1882z"/>
	</g>
	<g class="st1">
		<path d="M519.5,1882c-0.1-0.1-0.2-0.3-0.2-0.5V1834c0-0.2,0.1-0.4,0.2-0.5c0.1-0.1,0.3-0.2,0.5-0.2h2.4c0.2,0,0.4,0.1,0.5,0.2
			c0.1,0.1,0.2,0.3,0.2,0.5v47.5c0,0.2-0.1,0.4-0.2,0.5c-0.1,0.1-0.3,0.2-0.5,0.2h-2.4C519.8,1882.3,519.6,1882.2,519.5,1882z"/>
	</g>
	<g class="st1">
		<path d="M628.4,1882.1c-0.2-0.1-0.4-0.3-0.5-0.6L602,1835c-0.2-0.2-0.3-0.5-0.3-0.9c0-0.5,0.2-0.8,0.7-0.8h2.1
			c0.3,0,0.5,0,0.6,0.1c0.2,0.1,0.3,0.3,0.5,0.6l25.9,46.8c0.1,0.1,0.2,0.3,0.2,0.5c0,0.2,0,0.3,0,0.5c-0.1,0.3-0.3,0.5-0.6,0.5H629
			C628.8,1882.3,628.6,1882.2,628.4,1882.1z M602,1882c-0.1-0.1-0.2-0.3-0.2-0.5v-38.8c0-0.4,0.1-0.6,0.3-0.6c0.2,0,0.4,0.1,0.5,0.4
			l2.5,4.5c0.1,0.3,0.2,0.6,0.2,0.9v33.6c0,0.2-0.1,0.4-0.2,0.5c-0.1,0.1-0.3,0.2-0.5,0.2h-2.2C602.3,1882.3,602.1,1882.2,602,1882z
			 M628.5,1868.4c-0.1-0.3-0.2-0.6-0.2-0.9V1834c0-0.2,0.1-0.4,0.2-0.5c0.1-0.1,0.3-0.2,0.5-0.2h2.2c0.2,0,0.4,0.1,0.5,0.2
			c0.1,0.1,0.2,0.3,0.2,0.5v38.7c0,0.4-0.1,0.6-0.3,0.6c-0.2,0-0.3-0.1-0.5-0.4L628.5,1868.4z"/>
	</g>
	<g class="st1">
		<path d="M699.9,1880.9c-2.3-1-4.1-2.2-5.5-3.6c-0.1-0.1-0.2-0.3-0.2-0.5c0-0.2,0-0.4,0.2-0.6l1.6-2c0.3-0.3,0.6-0.4,0.9-0.1
			c1.3,1.2,2.9,2.2,4.6,3.1c1.8,0.9,3.6,1.5,5.6,1.8c0.4,0.1,0.6,0.3,0.6,0.7v2.4c0,0.2-0.1,0.4-0.2,0.5c-0.1,0.1-0.3,0.2-0.5,0.1
			C704.5,1882.6,702.2,1882,699.9,1880.9z M711.7,1882.8c-0.2,0-0.3-0.1-0.4-0.2c-0.1-0.1-0.2-0.3-0.2-0.5v-2.4
			c0-0.5,0.2-0.7,0.6-0.8c2.9-0.3,5.1-1.4,6.7-3.2c1.6-1.8,2.4-4,2.4-6.7c0-2.6-0.8-4.8-2.3-6.4c-1.6-1.6-4.3-2.7-8.1-3.2l-2.1-0.4
			c-4.2-0.6-7.4-2-9.5-4.2c-2.1-2.2-3.2-5.1-3.2-8.7c0-2.5,0.5-4.7,1.4-6.7s2.2-3.5,3.9-4.7c1.7-1.2,3.7-1.9,6-2.2h0.1
			c0.2,0,0.3,0.1,0.4,0.2c0.1,0.1,0.2,0.3,0.2,0.5v2.4c0,0.4-0.2,0.6-0.6,0.7c-2.4,0.4-4.3,1.5-5.7,3.2c-1.3,1.7-2,3.8-2,6.3
			c0,2.6,0.8,4.7,2.5,6.3c1.6,1.6,4.3,2.6,8.1,3.2l2.1,0.3c4.3,0.6,7.5,2,9.5,4.2c2.1,2.2,3.1,5.1,3.1,8.8c0,2.5-0.5,4.8-1.5,6.8
			c-1,2-2.4,3.6-4.3,4.9c-1.9,1.3-4.2,2.1-7,2.3H711.7z M711.7,1836.5c-0.4-0.1-0.6-0.4-0.6-0.8v-2.4c0-0.2,0.1-0.4,0.2-0.5
			c0.1-0.1,0.3-0.2,0.5-0.1c1.9,0.2,3.8,0.6,5.6,1.3c1.8,0.7,3.3,1.5,4.6,2.6c0.3,0.3,0.4,0.6,0.1,1l-1.2,2.2
			c-0.3,0.3-0.6,0.4-0.9,0.1C717.2,1838,714.4,1836.9,711.7,1836.5z"/>
	</g>
	<g class="st1">
		<path d="M791,1882c-0.1-0.1-0.2-0.3-0.2-0.5V1834c0-0.2,0.1-0.4,0.2-0.5c0.1-0.1,0.3-0.2,0.5-0.2h2.4c0.2,0,0.4,0.1,0.5,0.2
			c0.1,0.1,0.2,0.3,0.2,0.5v47.5c0,0.2-0.1,0.4-0.2,0.5c-0.1,0.1-0.3,0.2-0.5,0.2h-2.4C791.3,1882.3,791.1,1882.2,791,1882z"/>
	</g>
	<g class="st1">
		<path d="M885.5,1882c-0.1-0.1-0.2-0.3-0.2-0.5V1834c0-0.2,0.1-0.4,0.2-0.5c0.1-0.1,0.3-0.2,0.5-0.2h2.4c0.2,0,0.4,0.1,0.5,0.2
			c0.1,0.1,0.2,0.3,0.2,0.5v47.5c0,0.2-0.1,0.4-0.2,0.5c-0.1,0.1-0.3,0.2-0.5,0.2h-2.4C885.7,1882.3,885.6,1882.2,885.5,1882z
			 M892.6,1836.9c-0.1-0.1-0.2-0.3-0.2-0.5v-2.4c0-0.2,0.1-0.4,0.2-0.5c0.1-0.1,0.3-0.2,0.5-0.2h18.2c0.2,0,0.4,0.1,0.5,0.2
			c0.1,0.1,0.2,0.3,0.2,0.5v2.4c0,0.2-0.1,0.4-0.2,0.5c-0.1,0.1-0.3,0.2-0.5,0.2h-18.2C892.9,1837.1,892.7,1837,892.6,1836.9z
			 M892.6,1859.1c-0.1-0.1-0.2-0.3-0.2-0.5v-2.4c0-0.2,0.1-0.4,0.2-0.5c0.1-0.1,0.3-0.2,0.5-0.2h15.1c0.2,0,0.4,0.1,0.5,0.2
			c0.1,0.1,0.2,0.3,0.2,0.5v2.4c0,0.2-0.1,0.4-0.2,0.5c-0.1,0.1-0.3,0.2-0.5,0.2h-15.1C892.9,1859.4,892.7,1859.3,892.6,1859.1z
			 M892.6,1882c-0.1-0.1-0.2-0.3-0.2-0.5v-2.4c0-0.2,0.1-0.4,0.2-0.5c0.1-0.1,0.3-0.2,0.5-0.2h18.2c0.2,0,0.4,0.1,0.5,0.2
			c0.1,0.1,0.2,0.3,0.2,0.5v2.4c0,0.2-0.1,0.4-0.2,0.5c-0.1,0.1-0.3,0.2-0.5,0.2h-18.2C892.9,1882.3,892.7,1882.2,892.6,1882z"/>
	</g>
	<g class="st1">
		<path d="M980,1882c-0.1-0.1-0.2-0.3-0.2-0.5V1834c0-0.2,0.1-0.4,0.2-0.5c0.1-0.1,0.3-0.2,0.5-0.2h2.4c0.2,0,0.4,0.1,0.5,0.2
			c0.1,0.1,0.2,0.3,0.2,0.5v47.5c0,0.2-0.1,0.4-0.2,0.5c-0.1,0.1-0.3,0.2-0.5,0.2h-2.4C980.2,1882.3,980.1,1882.2,980,1882z
			 M1003.8,1853.7c-0.3-0.2-0.7-0.3-1.1-0.5c-0.5-0.2-0.6-0.6-0.4-1.1c1.4-2.1,2.1-4.2,2.1-6.6c0-1.6-0.4-3-1.1-4.3
			s-1.8-2.3-3.2-3.1c-1.4-0.8-3-1.2-4.9-1.2h-7.6c-0.2,0-0.3-0.1-0.5-0.2c-0.1-0.1-0.2-0.3-0.2-0.5v-2.3c0-0.2,0.1-0.4,0.2-0.5
			c0.1-0.1,0.3-0.2,0.5-0.2h7.7c2.8,0,5.1,0.5,7,1.6c1.9,1.1,3.3,2.5,4.3,4.4s1.5,4,1.5,6.4c0,1.5-0.2,3-0.7,4.5
			c-0.5,1.4-1.1,2.7-1.9,3.8c-0.2,0.3-0.5,0.3-0.8,0.1C1004.4,1854,1004.1,1853.9,1003.8,1853.7z M987.1,1882
			c-0.1-0.1-0.2-0.3-0.2-0.5v-2.3c0-0.2,0.1-0.4,0.2-0.5c0.1-0.1,0.3-0.2,0.5-0.2h7.9c3.1,0,5.5-0.9,7.1-2.6
			c1.6-1.7,2.5-4.1,2.5-7.1c0-3-0.8-5.3-2.5-7.1c-1.7-1.7-4-2.6-7.1-2.6h-7.9c-0.2,0-0.3-0.1-0.5-0.2c-0.1-0.1-0.2-0.3-0.2-0.5v-2.3
			c0-0.2,0.1-0.4,0.2-0.5s0.3-0.2,0.5-0.2h7.7c2.9,0,5.3,0.5,7.3,1.6c2,1.1,3.6,2.6,4.6,4.6c1.1,2,1.6,4.4,1.6,7.2
			c0,2.8-0.5,5.2-1.6,7.2c-1.1,2-2.6,3.6-4.6,4.6c-2,1.1-4.5,1.6-7.3,1.6h-7.7C987.4,1882.3,987.2,1882.2,987.1,1882z"/>
	</g>
	<g class="st1">
		<path d="M1074.5,1882c-0.1-0.1-0.2-0.3-0.2-0.5V1834c0-0.2,0.1-0.4,0.2-0.5c0.1-0.1,0.3-0.2,0.5-0.2h2.4c0.2,0,0.4,0.1,0.5,0.2
			c0.1,0.1,0.2,0.3,0.2,0.5v47.5c0,0.2-0.1,0.4-0.2,0.5c-0.1,0.1-0.3,0.2-0.5,0.2h-2.4C1074.7,1882.3,1074.6,1882.2,1074.5,1882z
			 M1081.6,1836.9c-0.1-0.1-0.2-0.3-0.2-0.5v-2.4c0-0.2,0.1-0.4,0.2-0.5c0.1-0.1,0.3-0.2,0.5-0.2h18.2c0.2,0,0.4,0.1,0.5,0.2
			c0.1,0.1,0.2,0.3,0.2,0.5v2.4c0,0.2-0.1,0.4-0.2,0.5c-0.1,0.1-0.3,0.2-0.5,0.2h-18.2C1081.9,1837.1,1081.7,1837,1081.6,1836.9z
			 M1081.6,1859.1c-0.1-0.1-0.2-0.3-0.2-0.5v-2.4c0-0.2,0.1-0.4,0.2-0.5c0.1-0.1,0.3-0.2,0.5-0.2h15.1c0.2,0,0.4,0.1,0.5,0.2
			c0.1,0.1,0.2,0.3,0.2,0.5v2.4c0,0.2-0.1,0.4-0.2,0.5c-0.1,0.1-0.3,0.2-0.5,0.2h-15.1C1081.9,1859.4,1081.7,1859.3,1081.6,1859.1z
			 M1081.6,1882c-0.1-0.1-0.2-0.3-0.2-0.5v-2.4c0-0.2,0.1-0.4,0.2-0.5c0.1-0.1,0.3-0.2,0.5-0.2h18.2c0.2,0,0.4,0.1,0.5,0.2
			c0.1,0.1,0.2,0.3,0.2,0.5v2.4c0,0.2-0.1,0.4-0.2,0.5c-0.1,0.1-0.3,0.2-0.5,0.2h-18.2C1081.9,1882.3,1081.7,1882.2,1081.6,1882z"/>
	</g>
	<g class="st1">
		<path d="M1195.4,1882.1c-0.2-0.1-0.4-0.3-0.5-0.6L1169,1835c-0.2-0.2-0.3-0.5-0.3-0.9c0-0.5,0.2-0.8,0.7-0.8h2.1
			c0.3,0,0.5,0,0.6,0.1c0.2,0.1,0.3,0.3,0.5,0.6l25.9,46.8c0.1,0.1,0.2,0.3,0.2,0.5c0,0.2,0,0.3,0,0.5c-0.1,0.3-0.3,0.5-0.6,0.5
			h-2.2C1195.8,1882.3,1195.6,1882.2,1195.4,1882.1z M1169,1882c-0.1-0.1-0.2-0.3-0.2-0.5v-38.8c0-0.4,0.1-0.6,0.3-0.6
			c0.2,0,0.4,0.1,0.5,0.4l2.5,4.5c0.1,0.3,0.2,0.6,0.2,0.9v33.6c0,0.2-0.1,0.4-0.2,0.5c-0.1,0.1-0.3,0.2-0.5,0.2h-2.2
			C1169.2,1882.3,1169.1,1882.2,1169,1882z M1195.5,1868.4c-0.1-0.3-0.2-0.6-0.2-0.9V1834c0-0.2,0.1-0.4,0.2-0.5
			c0.1-0.1,0.3-0.2,0.5-0.2h2.2c0.2,0,0.4,0.1,0.5,0.2c0.1,0.1,0.2,0.3,0.2,0.5v38.7c0,0.4-0.1,0.6-0.3,0.6c-0.2,0-0.3-0.1-0.5-0.4
			L1195.5,1868.4z"/>
	</g>
	<g class="st1">
		<path d="M224,1998.3c-0.1-0.1-0.2-0.3-0.2-0.5v-47.5c0-0.2,0.1-0.4,0.2-0.5c0.1-0.1,0.3-0.2,0.5-0.2h2.4c0.2,0,0.4,0.1,0.5,0.2
			c0.1,0.1,0.2,0.3,0.2,0.5v47.5c0,0.2-0.1,0.4-0.2,0.5c-0.1,0.1-0.3,0.2-0.5,0.2h-2.4C224.3,1998.5,224.1,1998.4,224,1998.3z
			 M231.1,1953.1c-0.1-0.1-0.2-0.3-0.2-0.5v-2.4c0-0.2,0.1-0.4,0.2-0.5c0.1-0.1,0.3-0.2,0.5-0.2h18.2c0.2,0,0.4,0.1,0.5,0.2
			c0.1,0.1,0.2,0.3,0.2,0.5v2.4c0,0.2-0.1,0.4-0.2,0.5c-0.1,0.1-0.3,0.2-0.5,0.2h-18.2C231.4,1953.4,231.2,1953.3,231.1,1953.1z
			 M231.1,1975.4c-0.1-0.1-0.2-0.3-0.2-0.5v-2.4c0-0.2,0.1-0.4,0.2-0.5c0.1-0.1,0.3-0.2,0.5-0.2h15.1c0.2,0,0.4,0.1,0.5,0.2
			c0.1,0.1,0.2,0.3,0.2,0.5v2.4c0,0.2-0.1,0.4-0.2,0.5c-0.1,0.1-0.3,0.2-0.5,0.2h-15.1C231.4,1975.6,231.2,1975.5,231.1,1975.4z
			 M231.1,1998.3c-0.1-0.1-0.2-0.3-0.2-0.5v-2.4c0-0.2,0.1-0.4,0.2-0.5c0.1-0.1,0.3-0.2,0.5-0.2h18.2c0.2,0,0.4,0.1,0.5,0.2
			c0.1,0.1,0.2,0.3,0.2,0.5v2.4c0,0.2-0.1,0.4-0.2,0.5c-0.1,0.1-0.3,0.2-0.5,0.2h-18.2C231.4,1998.5,231.2,1998.4,231.1,1998.3z"/>
	</g>
	<g class="st1">
		<path d="M318.5,1998.3c-0.1-0.1-0.2-0.3-0.2-0.5v-47.5c0-0.2,0.1-0.4,0.2-0.5c0.1-0.1,0.3-0.2,0.5-0.2h2.4c0.2,0,0.4,0.1,0.5,0.2
			c0.1,0.1,0.2,0.3,0.2,0.5v47.5c0,0.2-0.1,0.4-0.2,0.5c-0.1,0.1-0.3,0.2-0.5,0.2h-2.4C318.8,1998.5,318.6,1998.4,318.5,1998.3z
			 M325.6,1998.3c-0.1-0.1-0.2-0.3-0.2-0.5v-2.4c0-0.2,0.1-0.4,0.2-0.5c0.1-0.1,0.3-0.2,0.5-0.2h18.2c0.2,0,0.4,0.1,0.5,0.2
			c0.1,0.1,0.2,0.3,0.2,0.5v2.4c0,0.2-0.1,0.4-0.2,0.5c-0.1,0.1-0.3,0.2-0.5,0.2h-18.2C325.9,1998.5,325.8,1998.4,325.6,1998.3z"/>
	</g>
	<g class="st1">
		<path d="M413,1998.3c-0.1-0.1-0.2-0.3-0.2-0.5v-47.5c0-0.2,0.1-0.4,0.2-0.5c0.1-0.1,0.3-0.2,0.5-0.2h2.4c0.2,0,0.4,0.1,0.5,0.2
			c0.1,0.1,0.2,0.3,0.2,0.5v47.5c0,0.2-0.1,0.4-0.2,0.5c-0.1,0.1-0.3,0.2-0.5,0.2h-2.4C413.3,1998.5,413.1,1998.4,413,1998.3z
			 M420.1,1953.1c-0.1-0.1-0.2-0.3-0.2-0.5v-2.4c0-0.2,0.1-0.4,0.2-0.5c0.1-0.1,0.3-0.2,0.5-0.2h18.2c0.2,0,0.4,0.1,0.5,0.2
			c0.1,0.1,0.2,0.3,0.2,0.5v2.4c0,0.2-0.1,0.4-0.2,0.5c-0.1,0.1-0.3,0.2-0.5,0.2h-18.2C420.4,1953.4,420.2,1953.3,420.1,1953.1z
			 M420.1,1975.9c-0.1-0.1-0.2-0.3-0.2-0.5v-2.4c0-0.2,0.1-0.4,0.2-0.5c0.1-0.1,0.3-0.2,0.5-0.2h15.1c0.2,0,0.4,0.1,0.5,0.2
			c0.1,0.1,0.2,0.3,0.2,0.5v2.4c0,0.2-0.1,0.4-0.2,0.5c-0.1,0.1-0.3,0.2-0.5,0.2h-15.1C420.4,1976.1,420.2,1976,420.1,1975.9z"/>
	</g>
	<g class="st1">
		<path d="M517.5,1997.8l-14.6-47.2l-0.1-0.4c0-0.2,0.1-0.3,0.2-0.4c0.1-0.1,0.2-0.1,0.4-0.1h2.3c0.3,0,0.5,0,0.6,0.1
			c0.2,0.1,0.2,0.3,0.3,0.6l14.4,46.9c0.1,0.3,0.1,0.5,0.1,0.6c0,0.4-0.2,0.6-0.6,0.6h-2.1C517.9,1998.5,517.7,1998.3,517.5,1997.8z
			 M521.2,1987.5c0-0.1-0.1-0.3-0.1-0.5c0-0.1,0-0.4,0.1-0.8l10.7-35.9c0.1-0.3,0.2-0.5,0.3-0.6c0.1-0.1,0.3-0.1,0.6-0.1h2.4
			c0.2,0,0.4,0.1,0.5,0.3c0.1,0.2,0.1,0.4,0,0.7l-12.5,40.8c0,0.1-0.1,0.3-0.2,0.4c-0.1,0.1-0.1,0.1-0.2,0.1c-0.1,0-0.3-0.2-0.5-0.5
			L521.2,1987.5z"/>
	</g>
	<g class="st1">
		<path d="M614,1998.3c-0.1-0.1-0.2-0.3-0.2-0.5v-47.5c0-0.2,0.1-0.4,0.2-0.5c0.1-0.1,0.3-0.2,0.5-0.2h2.4c0.2,0,0.4,0.1,0.5,0.2
			c0.1,0.1,0.2,0.3,0.2,0.5v47.5c0,0.2-0.1,0.4-0.2,0.5c-0.1,0.1-0.3,0.2-0.5,0.2h-2.4C614.3,1998.5,614.1,1998.4,614,1998.3z"/>
	</g>
	<g class="st1">
		<path d="M696.5,1998.3c-0.1-0.1-0.2-0.3-0.2-0.5v-47.5c0-0.2,0.1-0.4,0.2-0.5c0.1-0.1,0.3-0.2,0.5-0.2h2.4c0.2,0,0.4,0.1,0.5,0.2
			c0.1,0.1,0.2,0.3,0.2,0.5v47.5c0,0.2-0.1,0.4-0.2,0.5c-0.1,0.1-0.3,0.2-0.5,0.2h-2.4C696.8,1998.5,696.6,1998.4,696.5,1998.3z
			 M703.6,1953.1c-0.1-0.1-0.2-0.3-0.2-0.5v-2.4c0-0.2,0.1-0.4,0.2-0.5c0.1-0.1,0.3-0.2,0.5-0.2h18.2c0.2,0,0.4,0.1,0.5,0.2
			c0.1,0.1,0.2,0.3,0.2,0.5v2.4c0,0.2-0.1,0.4-0.2,0.5c-0.1,0.1-0.3,0.2-0.5,0.2h-18.2C703.9,1953.4,703.7,1953.3,703.6,1953.1z
			 M703.6,1975.4c-0.1-0.1-0.2-0.3-0.2-0.5v-2.4c0-0.2,0.1-0.4,0.2-0.5c0.1-0.1,0.3-0.2,0.5-0.2h15.1c0.2,0,0.4,0.1,0.5,0.2
			c0.1,0.1,0.2,0.3,0.2,0.5v2.4c0,0.2-0.1,0.4-0.2,0.5c-0.1,0.1-0.3,0.2-0.5,0.2h-15.1C703.9,1975.6,703.7,1975.5,703.6,1975.4z
			 M703.6,1998.3c-0.1-0.1-0.2-0.3-0.2-0.5v-2.4c0-0.2,0.1-0.4,0.2-0.5c0.1-0.1,0.3-0.2,0.5-0.2h18.2c0.2,0,0.4,0.1,0.5,0.2
			c0.1,0.1,0.2,0.3,0.2,0.5v2.4c0,0.2-0.1,0.4-0.2,0.5c-0.1,0.1-0.3,0.2-0.5,0.2h-18.2C703.9,1998.5,703.7,1998.4,703.6,1998.3z"/>
	</g>
	<g class="st1">
		<path d="M791,1998.3c-0.1-0.1-0.2-0.3-0.2-0.5v-47.5c0-0.2,0.1-0.4,0.2-0.5c0.1-0.1,0.3-0.2,0.5-0.2h2.4c0.2,0,0.4,0.1,0.5,0.2
			c0.1,0.1,0.2,0.3,0.2,0.5v47.5c0,0.2-0.1,0.4-0.2,0.5c-0.1,0.1-0.3,0.2-0.5,0.2h-2.4C791.3,1998.5,791.1,1998.4,791,1998.3z
			 M798.1,1976.3c-0.1-0.1-0.2-0.3-0.2-0.5v-2.4c0-0.2,0.1-0.4,0.2-0.5c0.1-0.1,0.3-0.2,0.5-0.2h7.6c3.2,0,5.6-0.8,7.3-2.5
			c1.7-1.7,2.5-4,2.5-7.2s-0.8-5.5-2.5-7.2c-1.7-1.7-4.1-2.5-7.3-2.5h-7.6c-0.2,0-0.3-0.1-0.5-0.2c-0.1-0.1-0.2-0.3-0.2-0.5v-2.4
			c0-0.2,0.1-0.4,0.2-0.5c0.1-0.1,0.3-0.2,0.5-0.2h7.7c2.8,0,5.2,0.5,7.2,1.6s3.6,2.6,4.6,4.7c1.1,2,1.6,4.5,1.6,7.2
			c0,2.6-0.5,5-1.6,7.1c-1,2.1-2.6,3.7-4.6,4.8c-2.1,1.1-4.6,1.7-7.6,1.6h-7.3C798.4,1976.5,798.2,1976.5,798.1,1976.3z
			 M816.5,1998.4c-0.1-0.1-0.2-0.3-0.3-0.5l-7.4-17.1c-0.1-0.3-0.1-0.6,0-0.7c0.1-0.1,0.2-0.2,0.4-0.2c0.2,0,0.3-0.1,0.3-0.1
			c0.8-0.1,1.5-0.2,1.9-0.4c0.1,0,0.2-0.1,0.3-0.1c0.3,0,0.5,0.2,0.5,0.5l8,17.9c0,0.1,0.1,0.2,0.1,0.4c0,0.3-0.2,0.4-0.5,0.4H817
			C816.7,1998.5,816.6,1998.5,816.5,1998.4z"/>
	</g>
	<g class="st1">
		<path d="M881.2,1998.3c-0.1-0.1-0.1-0.3,0-0.5l13.4-41c0.1-0.3,0.3-0.4,0.5-0.4c0.1,0,0.2,0,0.2,0.1c0.1,0.1,0.1,0.2,0.2,0.3
			l1.2,3.9c0.1,0.1,0.1,0.3,0.1,0.5c0,0.2,0,0.4-0.1,0.5l-6.6,20.2h12.7c0.4,0,0.6,0.2,0.8,0.6l0.8,2.4l0.1,0.3
			c0,0.1-0.1,0.3-0.2,0.4c-0.1,0.1-0.2,0.1-0.4,0.1h-14.9l-3.9,12.2c-0.1,0.3-0.2,0.5-0.3,0.6c-0.1,0.1-0.3,0.1-0.5,0.1h-2.5
			C881.4,1998.5,881.3,1998.4,881.2,1998.3z M912.1,1997.9l-15.2-47.5l-0.1-0.3c0-0.2,0.1-0.3,0.2-0.4c0.1-0.1,0.2-0.1,0.4-0.1h2.3
			c0.4,0,0.7,0.2,0.8,0.7l15.3,47.5l0.1,0.2c0,0.1,0,0.3-0.1,0.4c-0.1,0.1-0.2,0.1-0.4,0.1h-2.5
			C912.5,1998.5,912.2,1998.3,912.1,1997.9z"/>
	</g>
	<g class="st1">
		<path d="M983.4,1995.8c-1.9-1.8-3.4-4.3-4.3-7.5c-0.4-1.3-0.7-3-0.9-5.1c-0.2-2.1-0.3-5.2-0.3-9.3c0-4.1,0.1-7.2,0.3-9.3
			c0.2-2.1,0.5-3.8,0.9-5.1c1-3.2,2.4-5.7,4.3-7.5c1.9-1.8,4.3-2.9,7.1-3.3h0.1c0.2,0,0.3,0.1,0.4,0.2c0.1,0.1,0.2,0.3,0.2,0.5v2.4
			c0,0.4-0.2,0.7-0.6,0.8c-2,0.3-3.6,1.2-5,2.5c-1.3,1.3-2.3,3.1-3.1,5.4c-0.3,1.1-0.5,2.6-0.7,4.5c-0.2,1.9-0.3,4.9-0.3,8.7
			c0,3.9,0.1,6.8,0.3,8.7c0.2,1.9,0.4,3.4,0.7,4.5c0.7,2.3,1.8,4.1,3.1,5.5s3,2.2,5,2.5c0.4,0.1,0.6,0.3,0.6,0.7v2.4
			c0,0.2-0.1,0.4-0.2,0.5c-0.1,0.1-0.3,0.2-0.5,0.1C987.7,1998.7,985.4,1997.6,983.4,1995.8z M1003.7,1960c-0.3,0-0.5-0.1-0.6-0.4
			c-1.9-3.8-4.5-6.1-7.9-6.8c-0.4-0.1-0.6-0.3-0.6-0.7v-2.4c0-0.2,0.1-0.4,0.2-0.6c0.1-0.1,0.3-0.2,0.5-0.1c2.5,0.4,4.6,1.3,6.5,2.8
			c1.9,1.5,3.3,3.5,4.4,6c0,0.1,0.1,0.2,0.1,0.4c0,0.2-0.1,0.4-0.3,0.5l-2.1,1.2C1004,1960,1003.9,1960,1003.7,1960z M995.3,1999.1
			c-0.2,0-0.3-0.1-0.4-0.2c-0.1-0.1-0.2-0.3-0.2-0.5v-2.4c0-0.4,0.2-0.7,0.6-0.7c3.4-0.7,6-2.9,7.9-6.8c0.1-0.2,0.2-0.3,0.4-0.4
			c0.2-0.1,0.3-0.1,0.5,0l2.1,1.2c0.3,0.2,0.4,0.5,0.2,0.9c-1.1,2.5-2.6,4.6-4.4,6c-1.9,1.5-4,2.4-6.5,2.8H995.3z"/>
	</g>
	<g class="st1">
		<path d="M1074.5,1998.3c-0.1-0.1-0.2-0.3-0.2-0.5v-47.5c0-0.2,0.1-0.4,0.2-0.5c0.1-0.1,0.3-0.2,0.5-0.2h2.4c0.2,0,0.4,0.1,0.5,0.2
			c0.1,0.1,0.2,0.3,0.2,0.5v47.5c0,0.2-0.1,0.4-0.2,0.5c-0.1,0.1-0.3,0.2-0.5,0.2h-2.4C1074.7,1998.5,1074.6,1998.4,1074.5,1998.3z
			 M1081.4,1975.4c-0.1-0.1-0.2-0.3-0.2-0.5v-2.4c0-0.2,0.1-0.4,0.2-0.5c0.1-0.1,0.3-0.2,0.5-0.2h14.9c0.2,0,0.4,0.1,0.5,0.2
			c0.1,0.1,0.2,0.3,0.2,0.5v2.4c0,0.2-0.1,0.4-0.2,0.5c-0.1,0.1-0.3,0.2-0.5,0.2h-14.9C1081.6,1975.6,1081.5,1975.5,1081.4,1975.4z
			 M1100.8,1998.3c-0.1-0.1-0.2-0.3-0.2-0.5v-47.5c0-0.2,0.1-0.4,0.2-0.5c0.1-0.1,0.3-0.2,0.5-0.2h2.4c0.2,0,0.4,0.1,0.5,0.2
			c0.1,0.1,0.2,0.3,0.2,0.5v47.5c0,0.2-0.1,0.4-0.2,0.5c-0.1,0.1-0.3,0.2-0.5,0.2h-2.4C1101.1,1998.5,1100.9,1998.4,1100.8,1998.3z"
			/>
	</g>
	<g class="st1">
		<path d="M1164.3,1953.1c-0.1-0.1-0.2-0.3-0.2-0.5v-2.4c0-0.2,0.1-0.4,0.2-0.5c0.1-0.1,0.3-0.2,0.5-0.2h29.9c0.2,0,0.4,0.1,0.5,0.2
			c0.1,0.1,0.2,0.3,0.2,0.5v2.4c0,0.2-0.1,0.4-0.2,0.5c-0.1,0.1-0.3,0.2-0.5,0.2h-29.9C1164.6,1953.4,1164.4,1953.3,1164.3,1953.1z
			 M1178,1998.3c-0.1-0.1-0.2-0.3-0.2-0.5v-40c0-0.2,0.1-0.4,0.2-0.5c0.1-0.1,0.3-0.2,0.5-0.2h2.4c0.2,0,0.4,0.1,0.5,0.2
			c0.1,0.1,0.2,0.3,0.2,0.5v40c0,0.2-0.1,0.4-0.2,0.5c-0.1,0.1-0.3,0.2-0.5,0.2h-2.4C1178.3,1998.5,1178.1,1998.4,1178,1998.3z"/>
	</g>
	<g class="st1">
		<path d="M227.4,2113.4c-2.3-1-4.1-2.2-5.5-3.6c-0.1-0.1-0.2-0.3-0.2-0.5c0-0.2,0-0.4,0.2-0.6l1.6-2c0.3-0.3,0.6-0.4,0.9-0.1
			c1.3,1.2,2.9,2.2,4.6,3.1c1.8,0.9,3.6,1.5,5.6,1.8c0.4,0.1,0.6,0.3,0.6,0.7v2.4c0,0.2-0.1,0.4-0.2,0.5c-0.1,0.1-0.3,0.2-0.5,0.1
			C232,2115.1,229.7,2114.4,227.4,2113.4z M239.2,2115.3c-0.2,0-0.3-0.1-0.4-0.2c-0.1-0.1-0.2-0.3-0.2-0.5v-2.4
			c0-0.5,0.2-0.7,0.6-0.8c2.9-0.3,5.1-1.4,6.7-3.2c1.6-1.8,2.4-4,2.4-6.7c0-2.6-0.8-4.8-2.3-6.4c-1.6-1.6-4.3-2.7-8.1-3.2l-2.1-0.4
			c-4.2-0.6-7.4-2-9.5-4.2c-2.1-2.2-3.2-5.1-3.2-8.7c0-2.5,0.5-4.7,1.4-6.7c0.9-1.9,2.2-3.5,3.9-4.7c1.7-1.2,3.7-1.9,6-2.2h0.1
			c0.2,0,0.3,0.1,0.4,0.2c0.1,0.1,0.2,0.3,0.2,0.5v2.4c0,0.4-0.2,0.6-0.6,0.7c-2.4,0.4-4.3,1.5-5.7,3.2c-1.3,1.7-2,3.8-2,6.3
			c0,2.6,0.8,4.7,2.5,6.3c1.6,1.6,4.3,2.6,8.1,3.2l2.1,0.3c4.3,0.6,7.5,2,9.5,4.2c2.1,2.2,3.1,5.1,3.1,8.8c0,2.5-0.5,4.8-1.5,6.8
			c-1,2-2.4,3.6-4.3,4.9c-1.9,1.3-4.2,2.1-7,2.3H239.2z M239.2,2069c-0.4-0.1-0.6-0.4-0.6-0.8v-2.4c0-0.2,0.1-0.4,0.2-0.5
			c0.1-0.1,0.3-0.2,0.5-0.1c1.9,0.2,3.8,0.6,5.6,1.3c1.8,0.7,3.3,1.5,4.6,2.6c0.3,0.3,0.4,0.6,0.1,1l-1.2,2.2
			c-0.3,0.3-0.6,0.4-0.9,0.1C244.7,2070.5,241.9,2069.4,239.2,2069z"/>
	</g>
	<g class="st1">
		<path d="M318.5,2114.5c-0.1-0.1-0.2-0.3-0.2-0.5v-47.5c0-0.2,0.1-0.4,0.2-0.5c0.1-0.1,0.3-0.2,0.5-0.2h2.4c0.2,0,0.4,0.1,0.5,0.2
			c0.1,0.1,0.2,0.3,0.2,0.5v47.5c0,0.2-0.1,0.4-0.2,0.5c-0.1,0.1-0.3,0.2-0.5,0.2h-2.4C318.8,2114.7,318.6,2114.7,318.5,2114.5z
			 M325.6,2069.4c-0.1-0.1-0.2-0.3-0.2-0.5v-2.4c0-0.2,0.1-0.4,0.2-0.5c0.1-0.1,0.3-0.2,0.5-0.2h18.2c0.2,0,0.4,0.1,0.5,0.2
			c0.1,0.1,0.2,0.3,0.2,0.5v2.4c0,0.2-0.1,0.4-0.2,0.5c-0.1,0.1-0.3,0.2-0.5,0.2h-18.2C325.9,2069.6,325.8,2069.5,325.6,2069.4z
			 M325.6,2091.6c-0.1-0.1-0.2-0.3-0.2-0.5v-2.4c0-0.2,0.1-0.4,0.2-0.5c0.1-0.1,0.3-0.2,0.5-0.2h15.1c0.2,0,0.4,0.1,0.5,0.2
			c0.1,0.1,0.2,0.3,0.2,0.5v2.4c0,0.2-0.1,0.4-0.2,0.5c-0.1,0.1-0.3,0.2-0.5,0.2h-15.1C325.9,2091.8,325.8,2091.8,325.6,2091.6z
			 M325.6,2114.5c-0.1-0.1-0.2-0.3-0.2-0.5v-2.4c0-0.2,0.1-0.4,0.2-0.5c0.1-0.1,0.3-0.2,0.5-0.2h18.2c0.2,0,0.4,0.1,0.5,0.2
			c0.1,0.1,0.2,0.3,0.2,0.5v2.4c0,0.2-0.1,0.4-0.2,0.5c-0.1,0.1-0.3,0.2-0.5,0.2h-18.2C325.9,2114.7,325.8,2114.7,325.6,2114.5z"/>
	</g>
	<g class="st1">
		<path d="M416.4,2112c-1.9-1.8-3.4-4.3-4.3-7.5c-0.4-1.3-0.7-3-0.9-5.1c-0.2-2.1-0.3-5.2-0.3-9.3c0-4.1,0.1-7.2,0.3-9.3
			c0.2-2.1,0.5-3.8,0.9-5.1c1-3.2,2.4-5.7,4.3-7.5c1.9-1.8,4.3-2.9,7.1-3.3h0.1c0.2,0,0.3,0.1,0.4,0.2c0.1,0.1,0.2,0.3,0.2,0.5v2.4
			c0,0.4-0.2,0.7-0.6,0.8c-2,0.3-3.6,1.2-5,2.5c-1.3,1.3-2.3,3.1-3.1,5.4c-0.3,1.1-0.5,2.6-0.7,4.5c-0.2,1.9-0.3,4.9-0.3,8.7
			c0,3.9,0.1,6.8,0.3,8.7c0.2,1.9,0.4,3.4,0.7,4.5c0.7,2.3,1.8,4.1,3.1,5.5s3,2.2,5,2.5c0.4,0.1,0.6,0.3,0.6,0.7v2.4
			c0,0.2-0.1,0.4-0.2,0.5c-0.1,0.1-0.3,0.2-0.5,0.1C420.7,2114.9,418.4,2113.8,416.4,2112z M436.8,2076.2c-0.3,0-0.5-0.1-0.6-0.4
			c-1.9-3.8-4.5-6.1-7.9-6.8c-0.4-0.1-0.6-0.3-0.6-0.7v-2.4c0-0.2,0.1-0.4,0.2-0.6c0.1-0.1,0.3-0.2,0.5-0.1c2.5,0.4,4.6,1.3,6.5,2.8
			c1.9,1.5,3.3,3.5,4.4,6c0,0.1,0.1,0.2,0.1,0.4c0,0.2-0.1,0.4-0.3,0.5l-2.1,1.2C437,2076.2,436.9,2076.2,436.8,2076.2z
			 M428.3,2115.3c-0.2,0-0.3-0.1-0.4-0.2c-0.1-0.1-0.2-0.3-0.2-0.5v-2.4c0-0.4,0.2-0.7,0.6-0.7c3.4-0.7,6-2.9,7.9-6.8
			c0.1-0.2,0.2-0.3,0.4-0.4c0.2-0.1,0.3-0.1,0.5,0l2.1,1.2c0.3,0.2,0.4,0.5,0.2,0.9c-1.1,2.5-2.6,4.6-4.4,6c-1.9,1.5-4,2.4-6.5,2.8
			H428.3z"/>
	</g>
	<g class="st1">
		<path d="M507.5,2114.5c-0.1-0.1-0.2-0.3-0.2-0.5v-47.5c0-0.2,0.1-0.4,0.2-0.5c0.1-0.1,0.3-0.2,0.5-0.2h2.4c0.2,0,0.4,0.1,0.5,0.2
			c0.1,0.1,0.2,0.3,0.2,0.5v47.5c0,0.2-0.1,0.4-0.2,0.5c-0.1,0.1-0.3,0.2-0.5,0.2h-2.4C507.8,2114.7,507.6,2114.7,507.5,2114.5z
			 M514.4,2091.6c-0.1-0.1-0.2-0.3-0.2-0.5v-2.4c0-0.2,0.1-0.4,0.2-0.5c0.1-0.1,0.3-0.2,0.5-0.2h14.9c0.2,0,0.4,0.1,0.5,0.2
			c0.1,0.1,0.2,0.3,0.2,0.5v2.4c0,0.2-0.1,0.4-0.2,0.5c-0.1,0.1-0.3,0.2-0.5,0.2h-14.9C514.6,2091.8,514.5,2091.8,514.4,2091.6z
			 M533.8,2114.5c-0.1-0.1-0.2-0.3-0.2-0.5v-47.5c0-0.2,0.1-0.4,0.2-0.5c0.1-0.1,0.3-0.2,0.5-0.2h2.4c0.2,0,0.4,0.1,0.5,0.2
			c0.1,0.1,0.2,0.3,0.2,0.5v47.5c0,0.2-0.1,0.4-0.2,0.5c-0.1,0.1-0.3,0.2-0.5,0.2h-2.4C534.1,2114.7,533.9,2114.7,533.8,2114.5z"/>
	</g>
	<g class="st1">
		<path d="M605.4,2113.4c-2.3-1-4.1-2.2-5.5-3.6c-0.1-0.1-0.2-0.3-0.2-0.5c0-0.2,0-0.4,0.2-0.6l1.6-2c0.3-0.3,0.6-0.4,0.9-0.1
			c1.3,1.2,2.9,2.2,4.6,3.1c1.8,0.9,3.6,1.5,5.6,1.8c0.4,0.1,0.6,0.3,0.6,0.7v2.4c0,0.2-0.1,0.4-0.2,0.5c-0.1,0.1-0.3,0.2-0.5,0.1
			C610,2115.1,607.7,2114.4,605.4,2113.4z M617.2,2115.3c-0.2,0-0.3-0.1-0.4-0.2c-0.1-0.1-0.2-0.3-0.2-0.5v-2.4
			c0-0.5,0.2-0.7,0.6-0.8c2.9-0.3,5.1-1.4,6.7-3.2c1.6-1.8,2.4-4,2.4-6.7c0-2.6-0.8-4.8-2.3-6.4c-1.6-1.6-4.3-2.7-8.1-3.2l-2.1-0.4
			c-4.2-0.6-7.4-2-9.5-4.2c-2.1-2.2-3.2-5.1-3.2-8.7c0-2.5,0.5-4.7,1.4-6.7s2.2-3.5,3.9-4.7c1.7-1.2,3.7-1.9,6-2.2h0.1
			c0.2,0,0.3,0.1,0.4,0.2c0.1,0.1,0.2,0.3,0.2,0.5v2.4c0,0.4-0.2,0.6-0.6,0.7c-2.4,0.4-4.3,1.5-5.7,3.2c-1.3,1.7-2,3.8-2,6.3
			c0,2.6,0.8,4.7,2.5,6.3c1.6,1.6,4.3,2.6,8.1,3.2l2.1,0.3c4.3,0.6,7.5,2,9.5,4.2c2.1,2.2,3.1,5.1,3.1,8.8c0,2.5-0.5,4.8-1.5,6.8
			c-1,2-2.4,3.6-4.3,4.9c-1.9,1.3-4.2,2.1-7,2.3H617.2z M617.2,2069c-0.4-0.1-0.6-0.4-0.6-0.8v-2.4c0-0.2,0.1-0.4,0.2-0.5
			c0.1-0.1,0.3-0.2,0.5-0.1c1.9,0.2,3.8,0.6,5.6,1.3c1.8,0.7,3.3,1.5,4.6,2.6c0.3,0.3,0.4,0.6,0.1,1l-1.2,2.2
			c-0.3,0.3-0.6,0.4-0.9,0.1C622.7,2070.5,619.9,2069.4,617.2,2069z"/>
	</g>
	<g class="st1">
		<path d="M708.5,2114.5c-0.1-0.1-0.2-0.3-0.2-0.5v-47.5c0-0.2,0.1-0.4,0.2-0.5c0.1-0.1,0.3-0.2,0.5-0.2h2.4c0.2,0,0.4,0.1,0.5,0.2
			c0.1,0.1,0.2,0.3,0.2,0.5v47.5c0,0.2-0.1,0.4-0.2,0.5c-0.1,0.1-0.3,0.2-0.5,0.2h-2.4C708.8,2114.7,708.6,2114.7,708.5,2114.5z"/>
	</g>
	<g class="st1">
		<path d="M793.6,2110.2c-2.2-3-3.3-7.1-3.3-12.4v-31.3c0-0.2,0.1-0.4,0.2-0.5c0.1-0.1,0.3-0.2,0.5-0.2h2.4c0.2,0,0.4,0.1,0.5,0.2
			c0.1,0.1,0.2,0.3,0.2,0.5v31.3c0,4,0.8,7.2,2.3,9.5c1.5,2.3,3.8,3.7,6.7,4.2c0.4,0,0.6,0.3,0.6,0.7v2.4c0,0.2-0.1,0.4-0.2,0.5
			c-0.1,0.1-0.3,0.2-0.5,0.1C798.9,2114.9,795.8,2113.2,793.6,2110.2z M807.6,2115.3c-0.2,0-0.3-0.1-0.4-0.2
			c-0.1-0.1-0.2-0.3-0.2-0.5v-2.4c0-0.4,0.2-0.7,0.6-0.7c2.9-0.5,5.1-1.9,6.7-4.2c1.5-2.3,2.3-5.5,2.3-9.5v-31.3
			c0-0.2,0.1-0.4,0.2-0.5c0.1-0.1,0.3-0.2,0.5-0.2h2.4c0.2,0,0.4,0.1,0.5,0.2c0.1,0.1,0.2,0.3,0.2,0.5v31.3c0,5.3-1.1,9.4-3.2,12.3
			c-2.2,3-5.3,4.7-9.3,5.1H807.6z"/>
	</g>
	<g class="st1">
		<path d="M885.5,2114.5c-0.1-0.1-0.2-0.3-0.2-0.5v-47.5c0-0.2,0.1-0.4,0.2-0.5c0.1-0.1,0.3-0.2,0.5-0.2h2.4c0.2,0,0.4,0.1,0.5,0.2
			c0.1,0.1,0.2,0.3,0.2,0.5v47.5c0,0.2-0.1,0.4-0.2,0.5c-0.1,0.1-0.3,0.2-0.5,0.2h-2.4C885.7,2114.7,885.6,2114.7,885.5,2114.5z
			 M892.4,2091.6c-0.1-0.1-0.2-0.3-0.2-0.5v-2.4c0-0.2,0.1-0.4,0.2-0.5c0.1-0.1,0.3-0.2,0.5-0.2h14.9c0.2,0,0.4,0.1,0.5,0.2
			c0.1,0.1,0.2,0.3,0.2,0.5v2.4c0,0.2-0.1,0.4-0.2,0.5c-0.1,0.1-0.3,0.2-0.5,0.2h-14.9C892.6,2091.8,892.5,2091.8,892.4,2091.6z
			 M911.8,2114.5c-0.1-0.1-0.2-0.3-0.2-0.5v-47.5c0-0.2,0.1-0.4,0.2-0.5c0.1-0.1,0.3-0.2,0.5-0.2h2.4c0.2,0,0.4,0.1,0.5,0.2
			c0.1,0.1,0.2,0.3,0.2,0.5v47.5c0,0.2-0.1,0.4-0.2,0.5c-0.1,0.1-0.3,0.2-0.5,0.2h-2.4C912.1,2114.7,911.9,2114.7,911.8,2114.5z"/>
	</g>
	<g class="st1">
		<path d="M980,2114.5c-0.1-0.1-0.2-0.3-0.2-0.5v-47.5c0-0.2,0.1-0.4,0.2-0.5c0.1-0.1,0.3-0.2,0.5-0.2h2.4c0.2,0,0.4,0.1,0.5,0.2
			c0.1,0.1,0.2,0.3,0.2,0.5v47.5c0,0.2-0.1,0.4-0.2,0.5c-0.1,0.1-0.3,0.2-0.5,0.2h-2.4C980.2,2114.7,980.1,2114.7,980,2114.5z
			 M987.1,2092.6c-0.1-0.1-0.2-0.3-0.2-0.5v-2.4c0-0.2,0.1-0.4,0.2-0.5c0.1-0.1,0.3-0.2,0.5-0.2h7.6c3.2,0,5.6-0.8,7.3-2.5
			c1.7-1.7,2.5-4,2.5-7.2s-0.8-5.5-2.5-7.2c-1.7-1.7-4.1-2.5-7.3-2.5h-7.6c-0.2,0-0.3-0.1-0.5-0.2c-0.1-0.1-0.2-0.3-0.2-0.5v-2.4
			c0-0.2,0.1-0.4,0.2-0.5c0.1-0.1,0.3-0.2,0.5-0.2h7.7c2.8,0,5.2,0.5,7.2,1.6s3.6,2.6,4.6,4.7c1.1,2,1.6,4.5,1.6,7.2
			c0,2.6-0.5,5-1.6,7.1c-1,2.1-2.6,3.7-4.6,4.8c-2.1,1.1-4.6,1.7-7.6,1.6h-7.3C987.4,2092.8,987.2,2092.7,987.1,2092.6z
			 M1005.5,2114.6c-0.1-0.1-0.2-0.3-0.3-0.5l-7.4-17.1c-0.1-0.3-0.1-0.6,0-0.7c0.1-0.1,0.2-0.2,0.4-0.2c0.2,0,0.3-0.1,0.3-0.1
			c0.8-0.1,1.5-0.2,1.9-0.4c0.1,0,0.2-0.1,0.3-0.1c0.3,0,0.5,0.2,0.5,0.5l8,17.9c0,0.1,0.1,0.2,0.1,0.4c0,0.3-0.2,0.4-0.5,0.4h-2.9
			C1005.7,2114.7,1005.6,2114.7,1005.5,2114.6z"/>
	</g>
	<g class="st1">
		<path d="M1083.3,2114.5c-0.1-0.1-0.2-0.3-0.2-0.5v-19.4L1070,2067c-0.1-0.2-0.2-0.5-0.2-0.6c0-0.1,0-0.3,0.1-0.4
			c0.1-0.1,0.2-0.2,0.4-0.2h2.5c0.2,0,0.4,0,0.6,0.1c0.2,0.1,0.3,0.3,0.4,0.6l12.8,26.7c0.1,0.3,0.2,0.6,0.2,0.9v19.9
			c0,0.2-0.1,0.4-0.2,0.5c-0.1,0.1-0.3,0.2-0.5,0.2h-2.3C1083.6,2114.7,1083.4,2114.7,1083.3,2114.5z M1087,2086.7
			c-0.1-0.3-0.1-0.6,0-1l9.1-19.2c0.1-0.3,0.3-0.5,0.4-0.6c0.1-0.1,0.3-0.1,0.6-0.1h2.4c0.3,0,0.5,0.1,0.6,0.4c0,0.2,0,0.4-0.1,0.5
			c-0.1,0.1-0.1,0.2-0.2,0.3l-10.6,22.5c-0.1,0.3-0.3,0.4-0.5,0.4s-0.3-0.1-0.5-0.4L1087,2086.7z"/>
	</g>
	<g class="st1">
		<path d="M1169,2114.5c-0.1-0.1-0.2-0.3-0.2-0.5v-47.5c0-0.2,0.1-0.4,0.2-0.5c0.1-0.1,0.3-0.2,0.5-0.2h2.4c0.2,0,0.4,0.1,0.5,0.2
			c0.1,0.1,0.2,0.3,0.2,0.5v47.5c0,0.2-0.1,0.4-0.2,0.5c-0.1,0.1-0.3,0.2-0.5,0.2h-2.4C1169.2,2114.7,1169.1,2114.7,1169,2114.5z
			 M1176.1,2069.4c-0.1-0.1-0.2-0.3-0.2-0.5v-2.4c0-0.2,0.1-0.4,0.2-0.5c0.1-0.1,0.3-0.2,0.5-0.2h18.2c0.2,0,0.4,0.1,0.5,0.2
			c0.1,0.1,0.2,0.3,0.2,0.5v2.4c0,0.2-0.1,0.4-0.2,0.5c-0.1,0.1-0.3,0.2-0.5,0.2h-18.2C1176.4,2069.6,1176.2,2069.5,1176.1,2069.4z
			 M1176.1,2091.6c-0.1-0.1-0.2-0.3-0.2-0.5v-2.4c0-0.2,0.1-0.4,0.2-0.5c0.1-0.1,0.3-0.2,0.5-0.2h15.1c0.2,0,0.4,0.1,0.5,0.2
			c0.1,0.1,0.2,0.3,0.2,0.5v2.4c0,0.2-0.1,0.4-0.2,0.5c-0.1,0.1-0.3,0.2-0.5,0.2h-15.1C1176.4,2091.8,1176.2,2091.8,1176.1,2091.6z
			 M1176.1,2114.5c-0.1-0.1-0.2-0.3-0.2-0.5v-2.4c0-0.2,0.1-0.4,0.2-0.5c0.1-0.1,0.3-0.2,0.5-0.2h18.2c0.2,0,0.4,0.1,0.5,0.2
			c0.1,0.1,0.2,0.3,0.2,0.5v2.4c0,0.2-0.1,0.4-0.2,0.5c-0.1,0.1-0.3,0.2-0.5,0.2h-18.2C1176.4,2114.7,1176.2,2114.7,1176.1,2114.5z"
			/>
	</g>
</g>
<g class="st2">
	<rect x="194.2" y="141.4" class="st3" width="85" height="85"/>
	<rect x="288.6" y="141.4" class="st4" width="85" height="85"/>
	<rect x="383" y="141.4" class="st3" width="85" height="85"/>
	<rect x="477.4" y="141.4" class="st3" width="85" height="85"/>
	<rect x="571.7" y="141.4" class="st3" width="85" height="85"/>
	<rect x="666.1" y="141.4" class="st3" width="85" height="85"/>
	<rect x="760.5" y="141.4" class="st3" width="85" height="85"/>
	<rect x="854.9" y="141.4" class="st3" width="85" height="85"/>
	<rect x="949.3" y="141.4" class="st3" width="85" height="85"/>
	<rect x="1043.7" y="141.4" class="st3" width="85" height="85"/>
	<rect x="1138.1" y="141.4" class="st3" width="85" height="85"/>
	<rect x="194.2" y="257.3" class="st3" width="85" height="85"/>
	<rect x="288.6" y="257.3" class="st3" width="85" height="85"/>
	<rect x="383" y="257.3" class="st3" width="85" height="85"/>
	<rect x="477.4" y="257.3" class="st3" width="85" height="85"/>
	<rect x="571.7" y="257.3" class="st3" width="85" height="85"/>
	<rect x="666.1" y="257.3" class="st3" width="85" height="85"/>
	<rect x="760.5" y="257.3" class="st3" width="85" height="85"/>
	<rect x="854.9" y="257.3" class="st3" width="85" height="85"/>
	<rect x="949.3" y="257.3" class="st3" width="85" height="85"/>
	<rect x="1043.7" y="257.3" class="st3" width="85" height="85"/>
	<rect x="1138.1" y="257.3" class="st3" width="85" height="85"/>
	<rect x="194.2" y="373.3" class="st3" width="85" height="85"/>
	<rect x="288.6" y="373.3" class="st3" width="85" height="85"/>
	<rect x="383" y="373.3" class="st3" width="85" height="85"/>
	<rect x="477.4" y="373.3" class="st3" width="85" height="85"/>
	<rect x="571.7" y="373.3" class="st3" width="85" height="85"/>
	<rect x="666.1" y="373.3" class="st3" width="85" height="85"/>
	<rect x="760.5" y="373.3" class="st3" width="85" height="85"/>
	<rect x="854.9" y="373.3" class="st3" width="85" height="85"/>
	<rect x="949.3" y="373.3" class="st3" width="85" height="85"/>
	<rect x="1043.7" y="373.3" class="st3" width="85" height="85"/>
	<rect x="1138.1" y="373.3" class="st3" width="85" height="85"/>
	<rect x="194.2" y="489.2" class="st3" width="85" height="85"/>
	<rect x="288.6" y="489.2" class="st3" width="85" height="85"/>
	<rect x="383" y="489.2" class="st3" width="85" height="85"/>
	<rect x="477.4" y="489.2" class="st3" width="85" height="85"/>
	<rect x="571.7" y="489.2" class="st3" width="85" height="85"/>
	<rect x="666.1" y="489.2" class="st3" width="85" height="85"/>
	<rect x="760.5" y="489.2" class="st3" width="85" height="85"/>
	<rect x="854.9" y="489.2" class="st3" width="85" height="85"/>
	<rect x="949.3" y="489.2" class="st3" width="85" height="85"/>
	<rect x="1043.7" y="489.2" class="st3" width="85" height="85"/>
	<rect x="1138.1" y="489.2" class="st3" width="85" height="85"/>
	<rect x="194.2" y="605.2" class="st3" width="85" height="85"/>
	<rect x="288.6" y="605.2" class="st3" width="85" height="85"/>
	<rect x="383" y="605.2" class="st3" width="85" height="85"/>
	<rect x="477.4" y="605.2" class="st3" width="85" height="85"/>
	<rect x="571.7" y="605.2" class="st3" width="85" height="85"/>
	<rect x="666.1" y="605.2" class="st3" width="85" height="85"/>
	<rect x="760.5" y="605.2" class="st3" width="85" height="85"/>
	<rect x="854.9" y="605.2" class="st3" width="85" height="85"/>
	<rect x="949.3" y="605.2" class="st3" width="85" height="85"/>
	<rect x="1043.7" y="605.2" class="st3" width="85" height="85"/>
	<rect x="1138.1" y="605.2" class="st3" width="85" height="85"/>
	<rect x="548.7" y="1325.8" class="st3" width="35.4" height="35.4"/>
	<rect x="643.5" y="1325.8" class="st3" width="35.4" height="35.4"/>
	<rect x="738.4" y="1325.8" class="st3" width="35.4" height="35.4"/>
	<rect x="833.2" y="1325.8" class="st3" width="35.4" height="35.4"/>
	<rect x="194.2" y="721.1" class="st3" width="85" height="85"/>
	<rect x="288.6" y="721.1" class="st3" width="85" height="85"/>
	<rect x="383" y="721.1" class="st3" width="85" height="85"/>
	<rect x="477.4" y="721.1" class="st3" width="85" height="85"/>
	<rect x="571.7" y="721.1" class="st3" width="85" height="85"/>
	<rect x="666.1" y="721.1" class="st3" width="85" height="85"/>
	<rect x="760.5" y="721.1" class="st3" width="85" height="85"/>
	<rect x="854.9" y="721.1" class="st3" width="85" height="85"/>
	<rect x="949.3" y="721.1" class="st3" width="85" height="85"/>
	<rect x="1043.7" y="721.1" class="st3" width="85" height="85"/>
	<rect x="1138.1" y="721.1" class="st3" width="85" height="85"/>
	<rect x="194.2" y="837" class="st3" width="85" height="85"/>
	<rect x="288.6" y="837" class="st3" width="85" height="85"/>
	<rect x="383" y="837" class="st3" width="85" height="85"/>
	<rect x="477.4" y="837" class="st3" width="85" height="85"/>
	<rect x="571.7" y="837" class="st3" width="85" height="85"/>
	<rect x="666.1" y="837" class="st3" width="85" height="85"/>
	<rect x="760.5" y="837" class="st3" width="85" height="85"/>
	<rect x="854.9" y="837" class="st3" width="85" height="85"/>
	<rect x="949.3" y="837" class="st3" width="85" height="85"/>
	<rect x="1043.7" y="837" class="st3" width="85" height="85"/>
	<rect x="1138.1" y="837" class="st3" width="85" height="85"/>
	<rect x="194.2" y="953" class="st3" width="85" height="85"/>
	<rect x="288.6" y="953" class="st3" width="85" height="85"/>
	<rect x="383" y="953" class="st3" width="85" height="85"/>
	<rect x="477.4" y="953" class="st3" width="85" height="85"/>
	<rect x="571.7" y="953" class="st3" width="85" height="85"/>
	<rect x="666.1" y="953" class="st3" width="85" height="85"/>
	<rect x="760.5" y="953" class="st3" width="85" height="85"/>
	<rect x="854.9" y="953" class="st3" width="85" height="85"/>
	<rect x="949.3" y="953" class="st3" width="85" height="85"/>
	<rect x="1043.7" y="953" class="st3" width="85" height="85"/>
	<rect x="1138.1" y="953" class="st3" width="85" height="85"/>
	<rect x="194.2" y="1068.9" class="st3" width="85" height="85"/>
	<rect x="288.6" y="1068.9" class="st3" width="85" height="85"/>
	<rect x="383" y="1068.9" class="st3" width="85" height="85"/>
	<rect x="477.4" y="1068.9" class="st3" width="85" height="85"/>
	<rect x="571.7" y="1068.9" class="st3" width="85" height="85"/>
	<rect x="666.1" y="1068.9" class="st3" width="85" height="85"/>
	<rect x="760.5" y="1068.9" class="st3" width="85" height="85"/>
	<rect x="854.9" y="1068.9" class="st3" width="85" height="85"/>
	<rect x="949.3" y="1068.9" class="st3" width="85" height="85"/>
	<rect x="1043.7" y="1068.9" class="st3" width="85" height="85"/>
	<rect x="1138.1" y="1068.9" class="st3" width="85" height="85"/>
	<rect x="194.2" y="1184.8" class="st3" width="85" height="85"/>
	<rect x="288.6" y="1184.8" class="st3" width="85" height="85"/>
	<rect x="383" y="1184.8" class="st3" width="85" height="85"/>
	<rect x="477.4" y="1184.8" class="st3" width="85" height="85"/>
	<rect x="571.7" y="1184.8" class="st3" width="85" height="85"/>
	<rect x="666.1" y="1184.8" class="st3" width="85" height="85"/>
	<rect x="760.5" y="1184.8" class="st3" width="85" height="85"/>
	<rect x="854.9" y="1184.8" class="st3" width="85" height="85"/>
	<rect x="949.3" y="1184.8" class="st3" width="85" height="85"/>
	<rect x="1043.7" y="1184.8" class="st3" width="85" height="85"/>
	<rect x="1138.1" y="1184.8" class="st3" width="85" height="85"/>
</g>
</svg>
