<?xml version="1.0" encoding="utf-8"?>
<!-- Generator: Adobe Illustrator 24.3.0, SVG Export Plug-In . SVG Version: 6.00 Build 0)  -->
<svg version="1.1"
	 id="svg918" inkscape:version="0.92.4 (5da689c313, 2019-01-14)" xmlns:cc="http://creativecommons.org/ns#" xmlns:dc="http://purl.org/dc/elements/1.1/" xmlns:inkscape="http://www.inkscape.org/namespaces/inkscape" xmlns:rdf="http://www.w3.org/1999/02/22-rdf-syntax-ns#" xmlns:sodipodi="http://sodipodi.sourceforge.net/DTD/sodipodi-0.dtd" xmlns:svg="http://www.w3.org/2000/svg"
	 xmlns="http://www.w3.org/2000/svg" xmlns:xlink="http://www.w3.org/1999/xlink" x="0px" y="0px" viewBox="0 0 1417.3 1417.3"
	 style="enable-background:new 0 0 1417.3 1417.3;" xml:space="preserve">
<style type="text/css">
	.st0{fill:#000055;fill-opacity:0.1647;}
	.st1{enable-background:new    ;}
	.st2{display:none;}
	.st3{display:inline;fill:none;stroke:#FF0000;stroke-width:0.1;stroke-miterlimit:10;}
	.st4{display:inline;opacity:0.99;fill:none;stroke:#FF0000;stroke-width:0.1;stroke-miterlimit:10;}
</style>
<g id="g916" transform="translate(0,-861.73197)">
	<path id="path2" inkscape:connector-curvature="0" class="st0" d="M0,861.7h1417.3V2279H0V861.7z"/>
	<circle id="circle6" cx="566.6" cy="2205.2" r="10.7"/>
	
		<ellipse id="circle6_1_" transform="matrix(0.7071 -0.7071 0.7071 0.7071 -1365.6511 1113.4741)" cx="661.2" cy="2205.2" rx="10.6" ry="10.7"/>
	
		<ellipse id="circle6_2_" transform="matrix(0.7071 -0.7071 0.7071 0.7071 -1337.8706 1180.5415)" cx="756.1" cy="2205.2" rx="10.6" ry="10.7"/>
	
		<ellipse id="circle6_3_" transform="matrix(0.7071 -0.7071 0.7071 0.7071 -1310.0895 1247.6099)" cx="850.9" cy="2205.2" rx="10.6" ry="10.7"/>
	<g class="st1">
		<path d="M224.9,1069.4c-0.1-0.1-0.2-0.3-0.2-0.5v-47.5c0-0.2,0.1-0.4,0.2-0.5c0.1-0.1,0.3-0.2,0.5-0.2h2.4c0.2,0,0.4,0.1,0.5,0.2
			c0.1,0.1,0.2,0.3,0.2,0.5v47.5c0,0.2-0.1,0.4-0.2,0.5c-0.1,0.1-0.3,0.2-0.5,0.2h-2.4C225.2,1069.6,225.1,1069.5,224.9,1069.4z
			 M231.8,1046.5c-0.1-0.1-0.2-0.3-0.2-0.5v-2.4c0-0.2,0.1-0.4,0.2-0.5c0.1-0.1,0.3-0.2,0.5-0.2h14.9c0.2,0,0.4,0.1,0.5,0.2
			c0.1,0.1,0.2,0.3,0.2,0.5v2.4c0,0.2-0.1,0.4-0.2,0.5c-0.1,0.1-0.3,0.2-0.5,0.2h-14.9C232.1,1046.7,231.9,1046.6,231.8,1046.5z
			 M251.2,1069.4c-0.1-0.1-0.2-0.3-0.2-0.5v-47.5c0-0.2,0.1-0.4,0.2-0.5c0.1-0.1,0.3-0.2,0.5-0.2h2.4c0.2,0,0.4,0.1,0.5,0.2
			c0.1,0.1,0.2,0.3,0.2,0.5v47.5c0,0.2-0.1,0.4-0.2,0.5c-0.1,0.1-0.3,0.2-0.5,0.2h-2.4C251.5,1069.6,251.4,1069.5,251.2,1069.4z"/>
	</g>
	<g class="st1">
		<path d="M319.4,1069.4c-0.1-0.1-0.2-0.3-0.2-0.5v-47.5c0-0.2,0.1-0.4,0.2-0.5c0.1-0.1,0.3-0.2,0.5-0.2h2.4c0.2,0,0.4,0.1,0.5,0.2
			c0.1,0.1,0.2,0.3,0.2,0.5v47.5c0,0.2-0.1,0.4-0.2,0.5c-0.1,0.1-0.3,0.2-0.5,0.2h-2.4C319.7,1069.6,319.6,1069.5,319.4,1069.4z
			 M326.6,1024.2c-0.1-0.1-0.2-0.3-0.2-0.5v-2.4c0-0.2,0.1-0.4,0.2-0.5c0.1-0.1,0.3-0.2,0.5-0.2h18.2c0.2,0,0.4,0.1,0.5,0.2
			c0.1,0.1,0.2,0.3,0.2,0.5v2.4c0,0.2-0.1,0.4-0.2,0.5c-0.1,0.1-0.3,0.2-0.5,0.2H327C326.9,1024.5,326.7,1024.4,326.6,1024.2z
			 M326.6,1046.5c-0.1-0.1-0.2-0.3-0.2-0.5v-2.4c0-0.2,0.1-0.4,0.2-0.5c0.1-0.1,0.3-0.2,0.5-0.2h15.1c0.2,0,0.4,0.1,0.5,0.2
			c0.1,0.1,0.2,0.3,0.2,0.5v2.4c0,0.2-0.1,0.4-0.2,0.5c-0.1,0.1-0.3,0.2-0.5,0.2H327C326.9,1046.7,326.7,1046.6,326.6,1046.5z
			 M326.6,1069.4c-0.1-0.1-0.2-0.3-0.2-0.5v-2.4c0-0.2,0.1-0.4,0.2-0.5c0.1-0.1,0.3-0.2,0.5-0.2h18.2c0.2,0,0.4,0.1,0.5,0.2
			c0.1,0.1,0.2,0.3,0.2,0.5v2.4c0,0.2-0.1,0.4-0.2,0.5c-0.1,0.1-0.3,0.2-0.5,0.2H327C326.9,1069.6,326.7,1069.5,326.6,1069.4z"/>
	</g>
	<g class="st1">
		<path d="M409.2,1024.2c-0.1-0.1-0.2-0.3-0.2-0.5v-2.4c0-0.2,0.1-0.4,0.2-0.5c0.1-0.1,0.3-0.2,0.5-0.2h29.9c0.2,0,0.4,0.1,0.5,0.2
			c0.1,0.1,0.2,0.3,0.2,0.5v2.4c0,0.2-0.1,0.4-0.2,0.5c-0.1,0.1-0.3,0.2-0.5,0.2h-29.9C409.5,1024.5,409.4,1024.4,409.2,1024.2z
			 M423,1069.4c-0.1-0.1-0.2-0.3-0.2-0.5v-40c0-0.2,0.1-0.4,0.2-0.5c0.1-0.1,0.3-0.2,0.5-0.2h2.4c0.2,0,0.4,0.1,0.5,0.2
			c0.1,0.1,0.2,0.3,0.2,0.5v40c0,0.2-0.1,0.4-0.2,0.5c-0.1,0.1-0.3,0.2-0.5,0.2h-2.4C423.2,1069.6,423.1,1069.5,423,1069.4z"/>
	</g>
	<g class="st1">
		<path d="M508.4,1069.4c-0.1-0.1-0.2-0.3-0.2-0.5v-47.5c0-0.2,0.1-0.4,0.2-0.5c0.1-0.1,0.3-0.2,0.5-0.2h2.4c0.2,0,0.4,0.1,0.5,0.2
			c0.1,0.1,0.2,0.3,0.2,0.5v47.5c0,0.2-0.1,0.4-0.2,0.5c-0.1,0.1-0.3,0.2-0.5,0.2h-2.4C508.7,1069.6,508.6,1069.5,508.4,1069.4z
			 M515.6,1069.4c-0.1-0.1-0.2-0.3-0.2-0.5v-2.4c0-0.2,0.1-0.4,0.2-0.5c0.1-0.1,0.3-0.2,0.5-0.2h18.2c0.2,0,0.4,0.1,0.5,0.2
			c0.1,0.1,0.2,0.3,0.2,0.5v2.4c0,0.2-0.1,0.4-0.2,0.5c-0.1,0.1-0.3,0.2-0.5,0.2H516C515.8,1069.6,515.7,1069.5,515.6,1069.4z"/>
	</g>
	<g class="st1">
		<path d="M612.9,1069.4c-0.1-0.1-0.2-0.3-0.2-0.5v-47.5c0-0.2,0.1-0.4,0.2-0.5c0.1-0.1,0.3-0.2,0.5-0.2h2.4c0.2,0,0.4,0.1,0.5,0.2
			c0.1,0.1,0.2,0.3,0.2,0.5v47.5c0,0.2-0.1,0.4-0.2,0.5c-0.1,0.1-0.3,0.2-0.5,0.2h-2.4C613.2,1069.6,613.1,1069.5,612.9,1069.4z"/>
	</g>
	<g class="st1">
		<path d="M700.8,1068.3c-2.3-1-4.1-2.2-5.5-3.6c-0.1-0.1-0.2-0.3-0.2-0.5c0-0.2,0-0.4,0.2-0.6l1.6-2c0.3-0.3,0.6-0.4,0.9-0.1
			c1.3,1.2,2.9,2.2,4.6,3.1c1.8,0.9,3.6,1.5,5.6,1.8c0.4,0.1,0.6,0.3,0.6,0.7v2.4c0,0.2-0.1,0.4-0.2,0.5c-0.1,0.1-0.3,0.2-0.5,0.1
			C705.5,1069.9,703.1,1069.3,700.8,1068.3z M712.6,1070.2c-0.2,0-0.3-0.1-0.4-0.2c-0.1-0.1-0.2-0.3-0.2-0.5v-2.4
			c0-0.5,0.2-0.7,0.6-0.8c2.9-0.3,5.1-1.4,6.7-3.2c1.6-1.8,2.4-4,2.4-6.7c0-2.6-0.8-4.8-2.3-6.4c-1.6-1.6-4.3-2.7-8.1-3.2l-2.1-0.4
			c-4.2-0.6-7.4-2-9.5-4.2c-2.1-2.2-3.2-5.1-3.2-8.7c0-2.5,0.5-4.7,1.4-6.7s2.2-3.5,3.9-4.7c1.7-1.2,3.7-1.9,6-2.2h0.1
			c0.2,0,0.3,0.1,0.4,0.2c0.1,0.1,0.2,0.3,0.2,0.5v2.4c0,0.4-0.2,0.6-0.6,0.7c-2.4,0.4-4.3,1.5-5.7,3.2c-1.3,1.7-2,3.8-2,6.3
			c0,2.6,0.8,4.7,2.5,6.3c1.6,1.6,4.3,2.6,8.1,3.2l2.1,0.3c4.3,0.6,7.5,2,9.6,4.2c2.1,2.2,3.1,5.1,3.1,8.8c0,2.5-0.5,4.8-1.5,6.8
			c-1,2-2.4,3.6-4.3,4.9c-1.9,1.3-4.2,2.1-7,2.3H712.6z M712.6,1023.9c-0.4-0.1-0.6-0.4-0.6-0.8v-2.4c0-0.2,0.1-0.4,0.2-0.5
			c0.1-0.1,0.3-0.2,0.5-0.1c1.9,0.2,3.8,0.6,5.6,1.3c1.8,0.7,3.3,1.5,4.6,2.6c0.3,0.3,0.4,0.6,0.1,1l-1.2,2.2
			c-0.3,0.3-0.6,0.4-0.9,0.1C718.2,1025.3,715.4,1024.2,712.6,1023.9z"/>
	</g>
	<g class="st1">
		<path d="M791.9,1069.4c-0.1-0.1-0.2-0.3-0.2-0.5v-47.5c0-0.2,0.1-0.4,0.2-0.5c0.1-0.1,0.3-0.2,0.5-0.2h2.4c0.2,0,0.4,0.1,0.5,0.2
			c0.1,0.1,0.2,0.3,0.2,0.5v47.5c0,0.2-0.1,0.4-0.2,0.5c-0.1,0.1-0.3,0.2-0.5,0.2h-2.4C792.2,1069.6,792,1069.5,791.9,1069.4z
			 M798.8,1046.5c-0.1-0.1-0.2-0.3-0.2-0.5v-2.4c0-0.2,0.1-0.4,0.2-0.5c0.1-0.1,0.3-0.2,0.5-0.2h14.9c0.2,0,0.4,0.1,0.5,0.2
			c0.1,0.1,0.2,0.3,0.2,0.5v2.4c0,0.2-0.1,0.4-0.2,0.5c-0.1,0.1-0.3,0.2-0.5,0.2h-14.9C799.1,1046.7,798.9,1046.6,798.8,1046.5z
			 M818.2,1069.4c-0.1-0.1-0.2-0.3-0.2-0.5v-47.5c0-0.2,0.1-0.4,0.2-0.5c0.1-0.1,0.3-0.2,0.5-0.2h2.4c0.2,0,0.4,0.1,0.5,0.2
			c0.1,0.1,0.2,0.3,0.2,0.5v47.5c0,0.2-0.1,0.4-0.2,0.5c-0.1,0.1-0.3,0.2-0.5,0.2h-2.4C818.5,1069.6,818.4,1069.5,818.2,1069.4z"/>
	</g>
	<g class="st1">
		<path d="M912.8,1069.5c-0.2-0.1-0.4-0.3-0.5-0.6l-25.9-46.6c-0.2-0.2-0.3-0.5-0.3-0.9c0-0.5,0.2-0.8,0.7-0.8h2.1
			c0.3,0,0.5,0,0.6,0.1c0.2,0.1,0.3,0.3,0.5,0.6l25.9,46.8c0.1,0.1,0.2,0.3,0.2,0.5s0,0.3,0,0.5c-0.1,0.3-0.3,0.5-0.6,0.5h-2.2
			C913.2,1069.6,913,1069.6,912.8,1069.5z M886.4,1069.4c-0.1-0.1-0.2-0.3-0.2-0.5v-38.8c0-0.4,0.1-0.6,0.3-0.6
			c0.2,0,0.4,0.1,0.5,0.4l2.5,4.5c0.1,0.3,0.2,0.6,0.2,0.9v33.6c0,0.2-0.1,0.4-0.2,0.5c-0.1,0.1-0.3,0.2-0.5,0.2h-2.2
			C886.7,1069.6,886.5,1069.5,886.4,1069.4z M913,1055.8c-0.1-0.3-0.2-0.6-0.2-0.9v-33.5c0-0.2,0.1-0.4,0.2-0.5
			c0.1-0.1,0.3-0.2,0.5-0.2h2.2c0.2,0,0.4,0.1,0.5,0.2c0.1,0.1,0.2,0.3,0.2,0.5v38.7c0,0.4-0.1,0.6-0.3,0.6c-0.2,0-0.3-0.1-0.5-0.4
			L913,1055.8z"/>
	</g>
	<g class="st1">
		<path d="M983.5,1065.1c-2.2-3-3.3-7.1-3.3-12.4v-31.3c0-0.2,0.1-0.4,0.2-0.5c0.1-0.1,0.3-0.2,0.5-0.2h2.4c0.2,0,0.4,0.1,0.5,0.2
			c0.1,0.1,0.2,0.3,0.2,0.5v31.3c0,4,0.8,7.2,2.3,9.5c1.5,2.3,3.8,3.7,6.7,4.2c0.4,0,0.6,0.3,0.6,0.7v2.4c0,0.2-0.1,0.4-0.2,0.5
			c-0.1,0.1-0.3,0.2-0.5,0.1C988.8,1069.7,985.7,1068,983.5,1065.1z M997.5,1070.2c-0.2,0-0.3-0.1-0.4-0.2c-0.1-0.1-0.2-0.3-0.2-0.5
			v-2.4c0-0.4,0.2-0.7,0.6-0.7c2.9-0.5,5.1-1.9,6.7-4.2s2.3-5.5,2.3-9.5v-31.3c0-0.2,0.1-0.4,0.2-0.5c0.1-0.1,0.3-0.2,0.5-0.2h2.4
			c0.2,0,0.4,0.1,0.5,0.2c0.1,0.1,0.2,0.3,0.2,0.5v31.3c0,5.3-1.1,9.4-3.2,12.3c-2.2,3-5.3,4.7-9.3,5.1H997.5z"/>
	</g>
	<g class="st1">
		<path d="M1074,1069.4c-0.1-0.1-0.2-0.3-0.3-0.5l-10.5-47.4l-0.1-0.3c0-0.1,0.1-0.3,0.2-0.4c0.1-0.1,0.2-0.1,0.4-0.1h2.3
			c0.3,0,0.5,0,0.6,0.1c0.1,0.1,0.2,0.3,0.3,0.6l10.1,47.1c0,0.1,0.1,0.3,0.1,0.5c0,0.4-0.2,0.6-0.6,0.6h-2.1
			C1074.3,1069.6,1074.1,1069.5,1074,1069.4z M1098.4,1069.4c-0.1-0.1-0.2-0.3-0.3-0.5l-10.3-40.4h-0.1l-8.4,32.5
			c0,0.1-0.1,0.3-0.2,0.4c-0.1,0.1-0.1,0.1-0.2,0.1c-0.2,0-0.3-0.2-0.4-0.5l-1-5c0-0.3,0-0.6,0-0.9l8.5-33.8
			c0.1-0.2,0.2-0.4,0.3-0.5c0.1-0.1,0.3-0.2,0.5-0.2h1.9c0.2,0,0.4,0.1,0.5,0.2c0.1,0.1,0.2,0.3,0.3,0.5l12,47.1l0.1,0.4
			c0,0.5-0.2,0.8-0.7,0.8h-2.1C1098.6,1069.6,1098.5,1069.5,1098.4,1069.4z M1101.3,1056.1c-0.1-0.4-0.1-0.7-0.1-0.9l7.2-33.9
			c0-0.3,0.1-0.5,0.3-0.6c0.1-0.1,0.3-0.1,0.6-0.1h2.3c0.2,0,0.4,0.1,0.5,0.2c0.1,0.1,0.1,0.3,0.1,0.6l-8.8,39.6
			c0,0.1-0.1,0.3-0.2,0.4c-0.1,0.1-0.1,0.1-0.2,0.1c-0.2,0-0.3-0.1-0.4-0.4L1101.3,1056.1z"/>
	</g>
	<g class="st1">
		<path d="M1173.3,1068.3c-2.3-1-4.1-2.2-5.5-3.6c-0.1-0.1-0.2-0.3-0.2-0.5c0-0.2,0-0.4,0.2-0.6l1.6-2c0.3-0.3,0.6-0.4,0.9-0.1
			c1.3,1.2,2.9,2.2,4.6,3.1c1.8,0.9,3.6,1.5,5.6,1.8c0.4,0.1,0.6,0.3,0.6,0.7v2.4c0,0.2-0.1,0.4-0.2,0.5c-0.1,0.1-0.3,0.2-0.5,0.1
			C1177.9,1069.9,1175.6,1069.3,1173.3,1068.3z M1185.1,1070.2c-0.2,0-0.3-0.1-0.4-0.2c-0.1-0.1-0.2-0.3-0.2-0.5v-2.4
			c0-0.5,0.2-0.7,0.6-0.8c2.9-0.3,5.1-1.4,6.7-3.2c1.6-1.8,2.4-4,2.4-6.7c0-2.6-0.8-4.8-2.3-6.4c-1.6-1.6-4.3-2.7-8.1-3.2l-2.1-0.4
			c-4.2-0.6-7.4-2-9.5-4.2c-2.1-2.2-3.2-5.1-3.2-8.7c0-2.5,0.5-4.7,1.4-6.7s2.2-3.5,3.9-4.7c1.7-1.2,3.7-1.9,6-2.2h0.1
			c0.2,0,0.3,0.1,0.4,0.2c0.1,0.1,0.2,0.3,0.2,0.5v2.4c0,0.4-0.2,0.6-0.6,0.7c-2.4,0.4-4.3,1.5-5.7,3.2c-1.3,1.7-2,3.8-2,6.3
			c0,2.6,0.8,4.7,2.5,6.3c1.6,1.6,4.3,2.6,8.1,3.2l2.1,0.3c4.3,0.6,7.5,2,9.6,4.2c2.1,2.2,3.1,5.1,3.1,8.8c0,2.5-0.5,4.8-1.5,6.8
			c-1,2-2.4,3.6-4.3,4.9c-1.9,1.3-4.2,2.1-7,2.3H1185.1z M1185.1,1023.9c-0.4-0.1-0.6-0.4-0.6-0.8v-2.4c0-0.2,0.1-0.4,0.2-0.5
			c0.1-0.1,0.3-0.2,0.5-0.1c1.9,0.2,3.8,0.6,5.6,1.3c1.8,0.7,3.3,1.5,4.6,2.6c0.3,0.3,0.4,0.6,0.1,1l-1.2,2.2
			c-0.3,0.3-0.6,0.4-0.9,0.1C1190.7,1025.3,1187.9,1024.2,1185.1,1023.9z"/>
	</g>
	<g class="st1">
		<path d="M220.2,1140.5c-0.1-0.1-0.2-0.3-0.2-0.5v-2.4c0-0.2,0.1-0.4,0.2-0.5c0.1-0.1,0.3-0.2,0.5-0.2h29.9c0.2,0,0.4,0.1,0.5,0.2
			c0.1,0.1,0.2,0.3,0.2,0.5v2.4c0,0.2-0.1,0.4-0.2,0.5c-0.1,0.1-0.3,0.2-0.5,0.2h-29.9C220.5,1140.7,220.4,1140.6,220.2,1140.5z
			 M234,1185.6c-0.1-0.1-0.2-0.3-0.2-0.5v-40c0-0.2,0.1-0.4,0.2-0.5c0.1-0.1,0.3-0.2,0.5-0.2h2.4c0.2,0,0.4,0.1,0.5,0.2
			c0.1,0.1,0.2,0.3,0.2,0.5v40c0,0.2-0.1,0.4-0.2,0.5c-0.1,0.1-0.3,0.2-0.5,0.2h-2.4C234.2,1185.8,234.1,1185.8,234,1185.6z"/>
	</g>
	<g class="st1">
		<path d="M320,1185.7c-0.1-0.1-0.2-0.3-0.3-0.5l-10.5-47.4l-0.1-0.3c0-0.1,0.1-0.3,0.2-0.4c0.1-0.1,0.2-0.1,0.4-0.1h2.3
			c0.3,0,0.5,0,0.6,0.1c0.1,0.1,0.2,0.3,0.3,0.6l10.1,47.1c0,0.1,0.1,0.3,0.1,0.5c0,0.4-0.2,0.6-0.6,0.6h-2.1
			C320.3,1185.8,320.1,1185.8,320,1185.7z M344.4,1185.7c-0.1-0.1-0.2-0.3-0.3-0.5l-10.3-40.4h-0.1l-8.4,32.5c0,0.1-0.1,0.3-0.2,0.4
			c-0.1,0.1-0.1,0.1-0.2,0.1c-0.2,0-0.3-0.2-0.4-0.5l-1-5c0-0.3,0-0.6,0-0.9l8.5-33.8c0.1-0.2,0.2-0.4,0.3-0.5
			c0.1-0.1,0.3-0.2,0.5-0.2h1.9c0.2,0,0.4,0.1,0.5,0.2c0.1,0.1,0.2,0.3,0.3,0.5l12,47.1l0.1,0.4c0,0.5-0.2,0.8-0.6,0.8h-2.1
			C344.6,1185.8,344.5,1185.8,344.4,1185.7z M347.3,1172.4c-0.1-0.4-0.1-0.7-0.1-0.9l7.2-33.9c0-0.3,0.1-0.5,0.3-0.6
			c0.1-0.1,0.3-0.1,0.6-0.1h2.3c0.2,0,0.4,0.1,0.5,0.2c0.1,0.1,0.1,0.3,0.1,0.6l-8.8,39.6c0,0.1-0.1,0.3-0.2,0.4
			c-0.1,0.1-0.1,0.1-0.2,0.1c-0.2,0-0.3-0.1-0.4-0.4L347.3,1172.4z"/>
	</g>
	<g class="st1">
		<path d="M425.9,1185.6c-0.1-0.1-0.2-0.3-0.2-0.5v-47.5c0-0.2,0.1-0.4,0.2-0.5c0.1-0.1,0.3-0.2,0.5-0.2h2.4c0.2,0,0.4,0.1,0.5,0.2
			c0.1,0.1,0.2,0.3,0.2,0.5v47.5c0,0.2-0.1,0.4-0.2,0.5c-0.1,0.1-0.3,0.2-0.5,0.2h-2.4C426.2,1185.8,426.1,1185.8,425.9,1185.6z"/>
	</g>
	<g class="st1">
		<path d="M534.8,1185.7c-0.2-0.1-0.4-0.3-0.5-0.6l-25.9-46.6c-0.2-0.2-0.3-0.5-0.3-0.9c0-0.5,0.2-0.8,0.7-0.8h2.1
			c0.3,0,0.5,0,0.7,0.1c0.2,0.1,0.3,0.3,0.5,0.6l25.9,46.8c0.1,0.1,0.2,0.3,0.2,0.5c0,0.2,0,0.3,0,0.5c-0.1,0.3-0.3,0.5-0.6,0.5
			h-2.2C535.2,1185.8,535,1185.8,534.8,1185.7z M508.4,1185.6c-0.1-0.1-0.2-0.3-0.2-0.5v-38.8c0-0.4,0.1-0.6,0.3-0.6
			s0.4,0.1,0.5,0.4l2.5,4.5c0.1,0.3,0.2,0.6,0.2,0.9v33.6c0,0.2-0.1,0.4-0.2,0.5c-0.1,0.1-0.3,0.2-0.5,0.2h-2.2
			C508.7,1185.8,508.6,1185.8,508.4,1185.6z M535,1172c-0.1-0.3-0.2-0.6-0.2-0.9v-33.5c0-0.2,0.1-0.4,0.2-0.5
			c0.1-0.1,0.3-0.2,0.5-0.2h2.2c0.2,0,0.4,0.1,0.5,0.2c0.1,0.1,0.2,0.3,0.2,0.5v38.7c0,0.4-0.1,0.6-0.3,0.6c-0.2,0-0.3-0.1-0.5-0.4
			L535,1172z"/>
	</g>
	<g class="st1">
		<path d="M598.2,1140.5c-0.1-0.1-0.2-0.3-0.2-0.5v-2.4c0-0.2,0.1-0.4,0.2-0.5c0.1-0.1,0.3-0.2,0.5-0.2h29.9c0.2,0,0.4,0.1,0.5,0.2
			c0.1,0.1,0.2,0.3,0.2,0.5v2.4c0,0.2-0.1,0.4-0.2,0.5c-0.1,0.1-0.3,0.2-0.5,0.2h-29.9C598.5,1140.7,598.4,1140.6,598.2,1140.5z
			 M612,1185.6c-0.1-0.1-0.2-0.3-0.2-0.5v-40c0-0.2,0.1-0.4,0.2-0.5c0.1-0.1,0.3-0.2,0.5-0.2h2.4c0.2,0,0.4,0.1,0.5,0.2
			c0.1,0.1,0.2,0.3,0.2,0.5v40c0,0.2-0.1,0.4-0.2,0.5c-0.1,0.1-0.3,0.2-0.5,0.2h-2.4C612.2,1185.8,612.1,1185.8,612,1185.6z"/>
	</g>
	<g class="st1">
		<path d="M709.4,1185.6c-0.1-0.1-0.2-0.3-0.2-0.5v-47.5c0-0.2,0.1-0.4,0.2-0.5c0.1-0.1,0.3-0.2,0.5-0.2h2.4c0.2,0,0.4,0.1,0.5,0.2
			c0.1,0.1,0.2,0.3,0.2,0.5v47.5c0,0.2-0.1,0.4-0.2,0.5c-0.1,0.1-0.3,0.2-0.5,0.2h-2.4C709.7,1185.8,709.6,1185.8,709.4,1185.6z"/>
	</g>
	<g class="st1">
		<path d="M795.6,1183.1c-2-1.8-3.5-4.3-4.5-7.5c-0.4-1.3-0.7-3.1-0.9-5.1c-0.2-2.1-0.3-5.1-0.3-9.1c0-4,0.1-7,0.3-9.1
			c0.2-2.1,0.5-3.8,0.9-5.1c1-3.2,2.4-5.7,4.5-7.5c2-1.8,4.5-2.9,7.5-3.3h0.1c0.2,0,0.3,0.1,0.4,0.2c0.1,0.1,0.1,0.3,0.1,0.5v2.4
			c0,0.4-0.2,0.6-0.6,0.7c-2.1,0.3-3.9,1.2-5.3,2.6c-1.4,1.4-2.5,3.2-3.2,5.5c-0.3,1.1-0.6,2.6-0.8,4.5c-0.2,2-0.3,4.8-0.3,8.6
			c0,3.7,0.1,6.6,0.3,8.6c0.2,2,0.4,3.5,0.8,4.5c0.7,2.3,1.7,4.2,3.2,5.5c1.4,1.4,3.2,2.3,5.3,2.6c0.4,0,0.6,0.3,0.6,0.7v2.4
			c0,0.2-0.1,0.4-0.2,0.5c-0.1,0.1-0.3,0.2-0.5,0.1C800.1,1186,797.6,1184.9,795.6,1183.1z M807.7,1186.4c-0.2,0-0.3-0.1-0.4-0.2
			c-0.1-0.1-0.1-0.3-0.1-0.5v-2.4c0-0.4,0.2-0.7,0.6-0.7c2.1-0.4,3.8-1.3,5.3-2.6s2.5-3.2,3.2-5.4c0.7-2.1,1-5.3,1-9.4
			c0-0.3-0.1-0.4-0.4-0.4h-10.1c-0.2,0-0.3-0.1-0.5-0.2c-0.1-0.1-0.2-0.3-0.2-0.5v-2.2c0-0.2,0.1-0.4,0.2-0.5
			c0.1-0.1,0.3-0.2,0.5-0.2h13.5c0.2,0,0.4,0.1,0.5,0.2c0.1,0.1,0.2,0.3,0.2,0.5v3c0,2.3-0.1,4.4-0.3,6.2c-0.2,1.8-0.5,3.4-0.8,4.6
			c-1,3.2-2.4,5.7-4.5,7.5c-2,1.8-4.5,3-7.5,3.3H807.7z M816.7,1147.3c-0.2,0-0.4-0.1-0.5-0.4c-1-2-2.1-3.5-3.5-4.6
			c-1.4-1.1-3-1.9-4.9-2.2c-0.4-0.1-0.6-0.3-0.6-0.7v-2.4c0-0.2,0.1-0.4,0.2-0.5c0.1-0.1,0.3-0.2,0.5-0.1c2.7,0.4,5.1,1.4,7,2.9
			c1.9,1.6,3.4,3.5,4.4,5.8c0.1,0.3,0.1,0.5,0.1,0.6c0,0.2-0.1,0.4-0.3,0.5l-2.1,1.2C817,1147.3,816.9,1147.3,816.7,1147.3z"/>
	</g>
	<g class="st1">
		<path d="M881.7,1140.5c-0.1-0.1-0.2-0.3-0.2-0.5v-2.4c0-0.2,0.1-0.4,0.2-0.5c0.1-0.1,0.3-0.2,0.5-0.2h29.9c0.2,0,0.4,0.1,0.5,0.2
			c0.1,0.1,0.2,0.3,0.2,0.5v2.4c0,0.2-0.1,0.4-0.2,0.5c-0.1,0.1-0.3,0.2-0.5,0.2h-29.9C882,1140.7,881.9,1140.6,881.7,1140.5z
			 M895.4,1185.6c-0.1-0.1-0.2-0.3-0.2-0.5v-40c0-0.2,0.1-0.4,0.2-0.5c0.1-0.1,0.3-0.2,0.5-0.2h2.4c0.2,0,0.4,0.1,0.5,0.2
			c0.1,0.1,0.2,0.3,0.2,0.5v40c0,0.2-0.1,0.4-0.2,0.5c-0.1,0.1-0.3,0.2-0.5,0.2h-2.4C895.7,1185.8,895.6,1185.8,895.4,1185.6z"/>
	</g>
	<g class="st1">
		<path d="M992.9,1185.6c-0.1-0.1-0.2-0.3-0.2-0.5v-47.5c0-0.2,0.1-0.4,0.2-0.5c0.1-0.1,0.3-0.2,0.5-0.2h2.4c0.2,0,0.4,0.1,0.5,0.2
			c0.1,0.1,0.2,0.3,0.2,0.5v47.5c0,0.2-0.1,0.4-0.2,0.5c-0.1,0.1-0.3,0.2-0.5,0.2h-2.4C993.2,1185.8,993,1185.8,992.9,1185.6z"/>
	</g>
	<g class="st1">
		<path d="M1075.4,1185.6c-0.1-0.1-0.2-0.3-0.2-0.5v-47.5c0-0.2,0.1-0.4,0.2-0.5c0.1-0.1,0.3-0.2,0.5-0.2h2.4c0.2,0,0.4,0.1,0.5,0.2
			c0.1,0.1,0.2,0.3,0.2,0.5v47.5c0,0.2-0.1,0.4-0.2,0.5c-0.1,0.1-0.3,0.2-0.5,0.2h-2.4C1075.7,1185.8,1075.5,1185.8,1075.4,1185.6z
			 M1082.6,1140.5c-0.1-0.1-0.2-0.3-0.2-0.5v-2.4c0-0.2,0.1-0.4,0.2-0.5c0.1-0.1,0.3-0.2,0.5-0.2h18.2c0.2,0,0.4,0.1,0.5,0.2
			c0.1,0.1,0.2,0.3,0.2,0.5v2.4c0,0.2-0.1,0.4-0.2,0.5c-0.1,0.1-0.3,0.2-0.5,0.2H1083C1082.8,1140.7,1082.7,1140.6,1082.6,1140.5z
			 M1082.6,1162.7c-0.1-0.1-0.2-0.3-0.2-0.5v-2.4c0-0.2,0.1-0.4,0.2-0.5c0.1-0.1,0.3-0.2,0.5-0.2h15.1c0.2,0,0.4,0.1,0.5,0.2
			c0.1,0.1,0.2,0.3,0.2,0.5v2.4c0,0.2-0.1,0.4-0.2,0.5c-0.1,0.1-0.3,0.2-0.5,0.2H1083C1082.8,1162.9,1082.7,1162.9,1082.6,1162.7z
			 M1082.6,1185.6c-0.1-0.1-0.2-0.3-0.2-0.5v-2.4c0-0.2,0.1-0.4,0.2-0.5c0.1-0.1,0.3-0.2,0.5-0.2h18.2c0.2,0,0.4,0.1,0.5,0.2
			c0.1,0.1,0.2,0.3,0.2,0.5v2.4c0,0.2-0.1,0.4-0.2,0.5c-0.1,0.1-0.3,0.2-0.5,0.2H1083C1082.8,1185.8,1082.7,1185.8,1082.6,1185.6z"
			/>
	</g>
	<g class="st1">
		<path d="M1196.3,1185.7c-0.2-0.1-0.4-0.3-0.5-0.6l-25.9-46.6c-0.2-0.2-0.3-0.5-0.3-0.9c0-0.5,0.2-0.8,0.7-0.8h2.1
			c0.3,0,0.5,0,0.6,0.1c0.2,0.1,0.3,0.3,0.5,0.6l25.9,46.8c0.1,0.1,0.2,0.3,0.2,0.5s0,0.3,0,0.5c-0.1,0.3-0.3,0.5-0.6,0.5h-2.2
			C1196.7,1185.8,1196.5,1185.8,1196.3,1185.7z M1169.9,1185.6c-0.1-0.1-0.2-0.3-0.2-0.5v-38.8c0-0.4,0.1-0.6,0.3-0.6
			c0.2,0,0.4,0.1,0.5,0.4l2.5,4.5c0.1,0.3,0.2,0.6,0.2,0.9v33.6c0,0.2-0.1,0.4-0.2,0.5c-0.1,0.1-0.3,0.2-0.5,0.2h-2.2
			C1170.2,1185.8,1170,1185.8,1169.9,1185.6z M1196.5,1172c-0.1-0.3-0.2-0.6-0.2-0.9v-33.5c0-0.2,0.1-0.4,0.2-0.5
			c0.1-0.1,0.3-0.2,0.5-0.2h2.2c0.2,0,0.4,0.1,0.5,0.2c0.1,0.1,0.2,0.3,0.2,0.5v38.7c0,0.4-0.1,0.6-0.3,0.6c-0.2,0-0.3-0.1-0.5-0.4
			L1196.5,1172z"/>
	</g>
	<g class="st1">
		<path d="M235,1301.4l-14.6-47.2l-0.1-0.4c0-0.2,0.1-0.3,0.2-0.4c0.1-0.1,0.2-0.1,0.4-0.1h2.3c0.3,0,0.5,0,0.6,0.1
			c0.2,0.1,0.2,0.3,0.3,0.6l14.4,46.9c0.1,0.3,0.1,0.5,0.1,0.6c0,0.4-0.2,0.6-0.6,0.6h-2.1C235.4,1302.1,235.1,1301.8,235,1301.4z
			 M238.7,1291.1c0-0.1-0.1-0.3-0.1-0.5c0-0.1,0-0.4,0.1-0.8l10.7-35.9c0.1-0.3,0.2-0.5,0.3-0.6c0.1-0.1,0.3-0.1,0.6-0.1h2.4
			c0.2,0,0.4,0.1,0.5,0.3c0.1,0.2,0.1,0.4,0,0.7l-12.5,40.8c0,0.1-0.1,0.3-0.2,0.4c-0.1,0.1-0.1,0.1-0.2,0.1c-0.1,0-0.3-0.2-0.5-0.5
			L238.7,1291.1z"/>
	</g>
	<g class="st1">
		<path d="M331.4,1301.9c-0.1-0.1-0.2-0.3-0.2-0.5v-47.5c0-0.2,0.1-0.4,0.2-0.5c0.1-0.1,0.3-0.2,0.5-0.2h2.4c0.2,0,0.4,0.1,0.5,0.2
			c0.1,0.1,0.2,0.3,0.2,0.5v47.5c0,0.2-0.1,0.4-0.2,0.5c-0.1,0.1-0.3,0.2-0.5,0.2h-2.4C331.7,1302.1,331.6,1302,331.4,1301.9z"/>
	</g>
	<g class="st1">
		<path d="M413.8,1301.4c-1.4-0.7-2.5-1.5-3.5-2.6c-0.2-0.1-0.3-0.3-0.3-0.6c0-0.2,0.1-0.3,0.2-0.5c0.1-0.1,0.2-0.2,0.3-0.3l1.4-1.4
			c0.1-0.1,0.3-0.2,0.5-0.2c0.2,0,0.4,0.1,0.5,0.2c0.7,0.7,1.5,1.3,2.4,1.8c0.9,0.5,1.9,0.8,3,1c0.4,0,0.6,0.3,0.6,0.7v2.4
			c0,0.2-0.1,0.4-0.2,0.6c-0.1,0.1-0.3,0.2-0.5,0.1C416.6,1302.5,415.1,1302.1,413.8,1301.4z M422.9,1302.5c-0.2,0-0.3-0.1-0.4-0.2
			c-0.1-0.1-0.2-0.3-0.2-0.5v-2.4c0-0.4,0.2-0.6,0.6-0.8c2-0.6,3.5-1.8,4.5-3.6s1.6-4.4,1.6-7.6v-33.6c0-0.2,0.1-0.4,0.2-0.5
			c0.1-0.1,0.3-0.2,0.5-0.2h2.4c0.2,0,0.4,0.1,0.5,0.2c0.1,0.1,0.2,0.3,0.2,0.5v33.6c0,4.4-0.8,7.8-2.5,10.3
			c-1.7,2.5-4.1,4.1-7.1,4.7H422.9z"/>
	</g>
	<g class="st1">
		<path d="M508.4,1301.9c-0.1-0.1-0.2-0.3-0.2-0.5v-47.5c0-0.2,0.1-0.4,0.2-0.5c0.1-0.1,0.3-0.2,0.5-0.2h2.4c0.2,0,0.4,0.1,0.5,0.2
			c0.1,0.1,0.2,0.3,0.2,0.5v47.5c0,0.2-0.1,0.4-0.2,0.5c-0.1,0.1-0.3,0.2-0.5,0.2h-2.4C508.7,1302.1,508.6,1302,508.4,1301.9z
			 M515.6,1256.7c-0.1-0.1-0.2-0.3-0.2-0.5v-2.4c0-0.2,0.1-0.4,0.2-0.5c0.1-0.1,0.3-0.2,0.5-0.2h18.2c0.2,0,0.4,0.1,0.5,0.2
			c0.1,0.1,0.2,0.3,0.2,0.5v2.4c0,0.2-0.1,0.4-0.2,0.5c-0.1,0.1-0.3,0.2-0.5,0.2H516C515.8,1256.9,515.7,1256.9,515.6,1256.7z
			 M515.6,1279.5c-0.1-0.1-0.2-0.3-0.2-0.5v-2.4c0-0.2,0.1-0.4,0.2-0.5c0.1-0.1,0.3-0.2,0.5-0.2h15.1c0.2,0,0.4,0.1,0.5,0.2
			c0.1,0.1,0.2,0.3,0.2,0.5v2.4c0,0.2-0.1,0.4-0.2,0.5c-0.1,0.1-0.3,0.2-0.5,0.2H516C515.8,1279.7,515.7,1279.6,515.6,1279.5z"/>
	</g>
	<g class="st1">
		<path d="M602.9,1301.9c-0.1-0.1-0.2-0.3-0.2-0.5v-47.5c0-0.2,0.1-0.4,0.2-0.5c0.1-0.1,0.3-0.2,0.5-0.2h2.4c0.2,0,0.4,0.1,0.5,0.2
			c0.1,0.1,0.2,0.3,0.2,0.5v47.5c0,0.2-0.1,0.4-0.2,0.5c-0.1,0.1-0.3,0.2-0.5,0.2h-2.4C603.2,1302.1,603.1,1302,602.9,1301.9z
			 M626.7,1273.5c-0.3-0.2-0.7-0.3-1.1-0.5c-0.5-0.2-0.6-0.6-0.4-1.1c1.4-2.1,2.1-4.2,2.1-6.6c0-1.6-0.4-3-1.1-4.3
			c-0.7-1.3-1.8-2.3-3.2-3.1c-1.4-0.8-3-1.2-4.9-1.2h-7.6c-0.2,0-0.3-0.1-0.5-0.2c-0.1-0.1-0.2-0.3-0.2-0.5v-2.3
			c0-0.2,0.1-0.4,0.2-0.5c0.1-0.1,0.3-0.2,0.5-0.2h7.7c2.8,0,5.1,0.5,7,1.6c1.9,1.1,3.3,2.5,4.3,4.4c1,1.9,1.5,4,1.5,6.4
			c0,1.5-0.2,3-0.7,4.5c-0.5,1.4-1.1,2.7-1.9,3.8c-0.2,0.3-0.5,0.3-0.8,0.1C627.3,1273.8,627.1,1273.7,626.7,1273.5z M610.1,1301.9
			c-0.1-0.1-0.2-0.3-0.2-0.5v-2.3c0-0.2,0.1-0.4,0.2-0.5c0.1-0.1,0.3-0.2,0.5-0.2h7.9c3.1,0,5.5-0.9,7.1-2.6
			c1.6-1.7,2.5-4.1,2.5-7.1c0-3-0.8-5.3-2.5-7.1c-1.7-1.7-4-2.6-7.1-2.6h-7.9c-0.2,0-0.3-0.1-0.5-0.2c-0.1-0.1-0.2-0.3-0.2-0.5v-2.3
			c0-0.2,0.1-0.4,0.2-0.5s0.3-0.2,0.5-0.2h7.7c2.9,0,5.3,0.5,7.3,1.6c2,1.1,3.6,2.6,4.6,4.6c1.1,2,1.6,4.4,1.6,7.2
			c0,2.8-0.5,5.2-1.6,7.2c-1.1,2-2.6,3.6-4.6,4.6c-2,1.1-4.5,1.6-7.3,1.6h-7.7C610.3,1302.1,610.2,1302,610.1,1301.9z"/>
	</g>
	<g class="st1">
		<path d="M706.3,1301.9c-0.1-0.1-0.2-0.3-0.2-0.5V1282l-13.1-27.6c-0.1-0.2-0.2-0.5-0.2-0.6c0-0.1,0-0.3,0.1-0.4
			c0.1-0.1,0.2-0.2,0.4-0.2h2.5c0.2,0,0.4,0,0.6,0.1c0.2,0.1,0.3,0.3,0.4,0.6l12.8,26.7c0.1,0.3,0.2,0.6,0.2,0.9v19.9
			c0,0.2-0.1,0.4-0.2,0.5c-0.1,0.1-0.3,0.2-0.5,0.2h-2.3C706.5,1302.1,706.4,1302,706.3,1301.9z M710,1274.1c-0.1-0.3-0.1-0.6,0-1
			l9.1-19.2c0.1-0.3,0.3-0.5,0.4-0.6c0.1-0.1,0.3-0.1,0.6-0.1h2.4c0.3,0,0.5,0.1,0.6,0.4c0,0.2,0,0.4-0.1,0.5
			c-0.1,0.1-0.1,0.2-0.2,0.3l-10.6,22.5c-0.1,0.3-0.3,0.4-0.5,0.4c-0.2,0-0.3-0.1-0.5-0.4L710,1274.1z"/>
	</g>
	<g class="st1">
		<path d="M791.9,1301.9c-0.1-0.1-0.2-0.3-0.2-0.5v-47.5c0-0.2,0.1-0.4,0.2-0.5c0.1-0.1,0.3-0.2,0.5-0.2h2.4c0.2,0,0.4,0.1,0.5,0.2
			c0.1,0.1,0.2,0.3,0.2,0.5v47.5c0,0.2-0.1,0.4-0.2,0.5c-0.1,0.1-0.3,0.2-0.5,0.2h-2.4C792.2,1302.1,792,1302,791.9,1301.9z
			 M799.2,1282.2c-0.2,0-0.3-0.2-0.3-0.6v-3.7c0-0.2,0.1-0.5,0.3-0.9l17.3-23.2c0.2-0.3,0.4-0.5,0.6-0.6c0.2-0.1,0.3-0.1,0.6-0.1h3
			c0.2,0,0.4,0.1,0.4,0.3c0.1,0.2,0,0.3-0.1,0.5l-21.2,28C799.5,1282.1,799.4,1282.2,799.2,1282.2z M818.2,1301.9
			c-0.1-0.1-0.3-0.3-0.4-0.6l-11.3-21.8c-0.1-0.2-0.1-0.3-0.1-0.4c0-0.2,0.1-0.4,0.2-0.6l1.6-2.1c0.2-0.2,0.3-0.3,0.5-0.3
			c0.2,0,0.3,0.1,0.5,0.4l12.9,24.8l0.1,0.3c0,0.3-0.1,0.4-0.4,0.4h-2.9C818.5,1302.1,818.4,1302,818.2,1301.9z"/>
	</g>
	<g class="st1">
		<path d="M887,1301.9c-0.1-0.1-0.2-0.3-0.3-0.5l-10.5-47.4l-0.1-0.3c0-0.1,0.1-0.3,0.2-0.4c0.1-0.1,0.2-0.1,0.4-0.1h2.3
			c0.3,0,0.5,0,0.6,0.1c0.1,0.1,0.2,0.3,0.3,0.6l10.1,47.1c0,0.1,0.1,0.3,0.1,0.5c0,0.4-0.2,0.6-0.6,0.6h-2.1
			C887.3,1302.1,887.1,1302,887,1301.9z M911.4,1301.9c-0.1-0.1-0.2-0.3-0.3-0.5l-10.3-40.4h-0.1l-8.4,32.5c0,0.1-0.1,0.3-0.2,0.4
			c-0.1,0.1-0.1,0.1-0.2,0.1c-0.2,0-0.3-0.2-0.4-0.5l-1-5c0-0.3,0-0.6,0-0.9l8.5-33.8c0.1-0.2,0.2-0.4,0.3-0.5
			c0.1-0.1,0.3-0.2,0.5-0.2h1.9c0.2,0,0.4,0.1,0.5,0.2c0.1,0.1,0.2,0.3,0.3,0.5l12,47.1l0.1,0.4c0,0.5-0.2,0.8-0.6,0.8h-2.1
			C911.6,1302.1,911.5,1302,911.4,1301.9z M914.3,1288.6c-0.1-0.4-0.1-0.7-0.1-0.9l7.2-33.9c0-0.3,0.1-0.5,0.3-0.6
			c0.1-0.1,0.3-0.1,0.6-0.1h2.3c0.2,0,0.4,0.1,0.5,0.2c0.1,0.1,0.1,0.3,0.1,0.6l-8.8,39.6c0,0.1-0.1,0.3-0.2,0.4
			c-0.1,0.1-0.1,0.1-0.2,0.1c-0.2,0-0.3-0.1-0.4-0.4L914.3,1288.6z"/>
	</g>
	<g class="st1">
		<path d="M976.7,1301.9c-0.1-0.1-0.1-0.3,0-0.5l13.4-41c0.1-0.3,0.3-0.4,0.5-0.4c0.1,0,0.2,0,0.2,0.1s0.1,0.2,0.2,0.3l1.2,3.9
			c0.1,0.1,0.1,0.3,0.1,0.5c0,0.2,0,0.4-0.1,0.5l-6.6,20.2h12.7c0.4,0,0.6,0.2,0.8,0.6l0.8,2.4l0.1,0.3c0,0.1-0.1,0.3-0.2,0.4
			c-0.1,0.1-0.2,0.1-0.4,0.1h-14.9l-3.9,12.2c-0.1,0.3-0.2,0.5-0.3,0.6c-0.1,0.1-0.3,0.1-0.5,0.1h-2.5
			C976.9,1302.1,976.7,1302,976.7,1301.9z M1007.6,1301.5l-15.2-47.5l-0.1-0.3c0-0.2,0.1-0.3,0.2-0.4c0.1-0.1,0.2-0.1,0.4-0.1h2.3
			c0.4,0,0.6,0.2,0.8,0.7l15.3,47.5l0.1,0.2c0,0.1,0,0.3-0.1,0.4c-0.1,0.1-0.2,0.1-0.4,0.1h-2.5
			C1007.9,1302.1,1007.7,1301.9,1007.6,1301.5z"/>
	</g>
	<g class="st1">
		<path d="M1075.4,1301.9c-0.1-0.1-0.2-0.3-0.2-0.5v-47.5c0-0.2,0.1-0.4,0.2-0.5c0.1-0.1,0.3-0.2,0.5-0.2h2.4c0.2,0,0.4,0.1,0.5,0.2
			c0.1,0.1,0.2,0.3,0.2,0.5v47.5c0,0.2-0.1,0.4-0.2,0.5c-0.1,0.1-0.3,0.2-0.5,0.2h-2.4C1075.7,1302.1,1075.5,1302,1075.4,1301.9z
			 M1082.6,1279.9c-0.1-0.1-0.2-0.3-0.2-0.5v-2.4c0-0.2,0.1-0.4,0.2-0.5c0.1-0.1,0.3-0.2,0.5-0.2h7.6c3.2,0,5.6-0.8,7.3-2.5
			s2.5-4,2.5-7.2s-0.8-5.5-2.5-7.2c-1.7-1.7-4.1-2.5-7.3-2.5h-7.6c-0.2,0-0.3-0.1-0.5-0.2c-0.1-0.1-0.2-0.3-0.2-0.5v-2.4
			c0-0.2,0.1-0.4,0.2-0.5c0.1-0.1,0.3-0.2,0.5-0.2h7.7c2.8,0,5.2,0.5,7.2,1.6c2,1.1,3.6,2.6,4.6,4.7c1.1,2,1.6,4.5,1.6,7.2
			c0,2.6-0.5,5-1.6,7.1c-1,2.1-2.6,3.7-4.6,4.8c-2.1,1.1-4.6,1.7-7.6,1.6h-7.3C1082.8,1280.1,1082.7,1280.1,1082.6,1279.9z
			 M1100.9,1301.9c-0.1-0.1-0.2-0.3-0.3-0.5l-7.4-17.1c-0.1-0.3-0.1-0.6,0-0.7c0.1-0.1,0.2-0.2,0.4-0.2c0.2,0,0.3-0.1,0.3-0.1
			c0.8-0.1,1.5-0.2,1.9-0.4c0.1,0,0.2-0.1,0.3-0.1c0.3,0,0.5,0.2,0.5,0.5l8,17.9c0,0.1,0.1,0.2,0.1,0.4c0,0.3-0.2,0.4-0.5,0.4h-2.9
			C1101.2,1302.1,1101,1302,1100.9,1301.9z"/>
	</g>
	<g class="st1">
		<path d="M1165.2,1256.7c-0.1-0.1-0.2-0.3-0.2-0.5v-2.4c0-0.2,0.1-0.4,0.2-0.5c0.1-0.1,0.3-0.2,0.5-0.2h29.9c0.2,0,0.4,0.1,0.5,0.2
			c0.1,0.1,0.2,0.3,0.2,0.5v2.4c0,0.2-0.1,0.4-0.2,0.5c-0.1,0.1-0.3,0.2-0.5,0.2h-29.9C1165.5,1256.9,1165.4,1256.9,1165.2,1256.7z
			 M1178.9,1301.9c-0.1-0.1-0.2-0.3-0.2-0.5v-40c0-0.2,0.1-0.4,0.2-0.5c0.1-0.1,0.3-0.2,0.5-0.2h2.4c0.2,0,0.4,0.1,0.5,0.2
			c0.1,0.1,0.2,0.3,0.2,0.5v40c0,0.2-0.1,0.4-0.2,0.5c-0.1,0.1-0.3,0.2-0.5,0.2h-2.4C1179.2,1302.1,1179.1,1302,1178.9,1301.9z"/>
	</g>
	<g class="st1">
		<path d="M235,1417.6l-14.6-47.2l-0.1-0.4c0-0.2,0.1-0.3,0.2-0.4c0.1-0.1,0.2-0.1,0.4-0.1h2.3c0.3,0,0.5,0,0.6,0.1
			c0.2,0.1,0.2,0.3,0.3,0.6l14.4,46.9c0.1,0.3,0.1,0.5,0.1,0.6c0,0.4-0.2,0.6-0.6,0.6h-2.1C235.4,1418.3,235.1,1418.1,235,1417.6z
			 M238.7,1407.3c0-0.1-0.1-0.3-0.1-0.5c0-0.1,0-0.4,0.1-0.8l10.7-35.9c0.1-0.3,0.2-0.5,0.3-0.6c0.1-0.1,0.3-0.1,0.6-0.1h2.4
			c0.2,0,0.4,0.1,0.5,0.3c0.1,0.2,0.1,0.4,0,0.7l-12.5,40.8c0,0.1-0.1,0.3-0.2,0.4c-0.1,0.1-0.1,0.1-0.2,0.1c-0.1,0-0.3-0.2-0.5-0.5
			L238.7,1407.3z"/>
	</g>
	<g class="st1">
		<path d="M323.1,1415.6c-2-1.8-3.5-4.3-4.4-7.5c-0.4-1.3-0.7-3-0.9-5.1c-0.2-2.1-0.3-5.1-0.3-9.1c0-4,0.1-7.1,0.3-9.1
			c0.2-2.1,0.5-3.8,0.9-5.1c1-3.2,2.4-5.7,4.4-7.5c2-1.8,4.5-2.9,7.4-3.3h0.1c0.2,0,0.3,0.1,0.4,0.2c0.1,0.1,0.2,0.3,0.2,0.5v2.4
			c0,0.4-0.2,0.6-0.6,0.7c-4.2,0.8-7,3.5-8.4,8.1c-0.3,1.1-0.6,2.7-0.8,4.6c-0.2,2-0.3,4.8-0.3,8.5c0,3.6,0.1,6.5,0.3,8.5
			s0.5,3.5,0.8,4.6c1.4,4.7,4.2,7.4,8.4,8.1c0.4,0,0.6,0.3,0.6,0.7v2.4c0,0.2-0.1,0.4-0.2,0.5c-0.1,0.1-0.3,0.2-0.5,0.1
			C327.5,1418.5,325.1,1417.4,323.1,1415.6z M335.2,1418.9c-0.2,0-0.3-0.1-0.4-0.2c-0.1-0.1-0.2-0.3-0.2-0.5v-2.4
			c0-0.4,0.2-0.7,0.6-0.7c4.2-0.8,7-3.5,8.4-8.1c0.3-1.2,0.6-2.7,0.8-4.7c0.2-2,0.3-4.8,0.3-8.4c0-3.6-0.1-6.4-0.3-8.4
			c-0.2-2-0.5-3.6-0.8-4.7c-1.4-4.7-4.2-7.4-8.4-8.1c-0.4-0.1-0.6-0.3-0.6-0.7v-2.4c0-0.2,0.1-0.4,0.2-0.5c0.1-0.1,0.3-0.2,0.5-0.1
			c2.9,0.4,5.4,1.5,7.4,3.3s3.5,4.3,4.5,7.5c0.4,1.4,0.7,3.1,0.9,5.2c0.2,2.1,0.3,5.1,0.3,9.1c0,3.9-0.1,6.9-0.3,9
			c-0.2,2.1-0.5,3.8-0.9,5.2c-1,3.2-2.4,5.7-4.5,7.5s-4.5,2.9-7.4,3.3H335.2z"/>
	</g>
	<g class="st1">
		<path d="M417.6,1415.6c-2-1.8-3.5-4.3-4.4-7.5c-0.4-1.3-0.7-3-0.9-5.1c-0.2-2.1-0.3-5.1-0.3-9.1c0-4,0.1-7.1,0.3-9.1
			c0.2-2.1,0.5-3.8,0.9-5.1c1-3.2,2.4-5.7,4.4-7.5c2-1.8,4.5-2.9,7.4-3.3h0.1c0.2,0,0.3,0.1,0.4,0.2c0.1,0.1,0.2,0.3,0.2,0.5v2.4
			c0,0.4-0.2,0.6-0.6,0.7c-4.2,0.8-7,3.5-8.4,8.1c-0.3,1.1-0.6,2.7-0.8,4.6c-0.2,2-0.3,4.8-0.3,8.5c0,3.6,0.1,6.5,0.3,8.5
			s0.5,3.5,0.8,4.6c1.4,4.7,4.2,7.4,8.4,8.1c0.4,0,0.6,0.3,0.6,0.7v2.4c0,0.2-0.1,0.4-0.2,0.5c-0.1,0.1-0.3,0.2-0.5,0.1
			C422,1418.5,419.6,1417.4,417.6,1415.6z M429.7,1418.9c-0.2,0-0.3-0.1-0.4-0.2c-0.1-0.1-0.2-0.3-0.2-0.5v-2.4
			c0-0.4,0.2-0.7,0.6-0.7c4.2-0.8,7-3.5,8.4-8.1c0.3-1.2,0.6-2.7,0.8-4.7c0.2-2,0.3-4.8,0.3-8.4c0-3.6-0.1-6.4-0.3-8.4
			c-0.2-2-0.5-3.6-0.8-4.7c-1.4-4.7-4.2-7.4-8.4-8.1c-0.4-0.1-0.6-0.3-0.6-0.7v-2.4c0-0.2,0.1-0.4,0.2-0.5c0.1-0.1,0.3-0.2,0.5-0.1
			c2.9,0.4,5.4,1.5,7.4,3.3s3.5,4.3,4.5,7.5c0.4,1.4,0.7,3.1,0.9,5.2c0.2,2.1,0.3,5.1,0.3,9.1c0,3.9-0.1,6.9-0.3,9
			c-0.2,2.1-0.5,3.8-0.9,5.2c-1,3.2-2.4,5.7-4.5,7.5s-4.5,2.9-7.4,3.3H429.7z"/>
	</g>
	<g class="st1">
		<path d="M508.4,1418.1c-0.1-0.1-0.2-0.3-0.2-0.5v-47.5c0-0.2,0.1-0.4,0.2-0.5c0.1-0.1,0.3-0.2,0.5-0.2h2.4c0.2,0,0.4,0.1,0.5,0.2
			c0.1,0.1,0.2,0.3,0.2,0.5v47.5c0,0.2-0.1,0.4-0.2,0.5c-0.1,0.1-0.3,0.2-0.5,0.2h-2.4C508.7,1418.3,508.6,1418.3,508.4,1418.1z
			 M515.6,1396.2c-0.1-0.1-0.2-0.3-0.2-0.5v-2.4c0-0.2,0.1-0.4,0.2-0.5c0.1-0.1,0.3-0.2,0.5-0.2h7.6c3.2,0,5.6-0.8,7.3-2.5
			s2.5-4,2.5-7.2s-0.8-5.5-2.5-7.2c-1.7-1.7-4.1-2.5-7.3-2.5H516c-0.2,0-0.3-0.1-0.5-0.2c-0.1-0.1-0.2-0.3-0.2-0.5v-2.4
			c0-0.2,0.1-0.4,0.2-0.5c0.1-0.1,0.3-0.2,0.5-0.2h7.7c2.8,0,5.2,0.5,7.2,1.6c2,1.1,3.6,2.6,4.6,4.7c1.1,2,1.6,4.5,1.6,7.2
			c0,2.6-0.5,5-1.6,7.1c-1,2.1-2.6,3.7-4.6,4.8c-2.1,1.1-4.6,1.7-7.6,1.6H516C515.8,1396.4,515.7,1396.3,515.6,1396.2z
			 M533.9,1418.2c-0.1-0.1-0.2-0.3-0.3-0.5l-7.4-17.1c-0.1-0.3-0.1-0.6,0-0.7c0.1-0.1,0.2-0.2,0.4-0.2c0.2,0,0.3-0.1,0.3-0.1
			c0.8-0.1,1.5-0.2,1.9-0.4c0.1,0,0.2-0.1,0.3-0.1c0.3,0,0.5,0.2,0.5,0.5l8,17.9c0,0.1,0.1,0.2,0.1,0.4c0,0.3-0.2,0.4-0.5,0.4h-2.9
			C534.2,1418.3,534,1418.3,533.9,1418.2z"/>
	</g>
	<g class="st1">
		<path d="M602.9,1418.1c-0.1-0.1-0.2-0.3-0.2-0.5v-47.5c0-0.2,0.1-0.4,0.2-0.5c0.1-0.1,0.3-0.2,0.5-0.2h2.4c0.2,0,0.4,0.1,0.5,0.2
			c0.1,0.1,0.2,0.3,0.2,0.5v47.5c0,0.2-0.1,0.4-0.2,0.5c-0.1,0.1-0.3,0.2-0.5,0.2h-2.4C603.2,1418.3,603.1,1418.3,602.9,1418.1z
			 M610.1,1396.9c-0.1-0.1-0.2-0.3-0.2-0.5v-2.4c0-0.2,0.1-0.4,0.2-0.5c0.1-0.1,0.3-0.2,0.5-0.2h7.5c3.2,0,5.7-0.9,7.4-2.6
			c1.7-1.8,2.6-4.2,2.6-7.5c0-3.2-0.9-5.6-2.6-7.4c-1.7-1.8-4.2-2.6-7.4-2.6h-7.5c-0.2,0-0.3-0.1-0.5-0.2c-0.1-0.1-0.2-0.3-0.2-0.5
			v-2.4c0-0.2,0.1-0.4,0.2-0.5c0.1-0.1,0.3-0.2,0.5-0.2h7.6c2.8,0,5.2,0.6,7.2,1.7c2.1,1.1,3.6,2.7,4.7,4.8c1.1,2.1,1.6,4.5,1.6,7.3
			s-0.5,5.3-1.6,7.4s-2.7,3.7-4.7,4.8c-2.1,1.1-4.5,1.7-7.2,1.7h-7.6C610.3,1397.1,610.2,1397,610.1,1396.9z"/>
	</g>
	<g class="st1">
		<path d="M697.4,1418.1c-0.1-0.1-0.2-0.3-0.2-0.5v-37.1c0-0.2,0-0.3,0.1-0.5s0.1-0.2,0.2-0.2c0.2,0,0.3,0.2,0.5,0.5l2.5,6.3
			c0.1,0.3,0.2,0.6,0.2,0.9v30.1c0,0.2-0.1,0.4-0.2,0.5c-0.1,0.1-0.3,0.2-0.5,0.2h-2.2C697.7,1418.3,697.6,1418.3,697.4,1418.1z
			 M714.3,1410.9c-0.2-0.1-0.3-0.3-0.4-0.6l-16.4-40c0-0.1-0.1-0.2-0.1-0.4c0-0.3,0.2-0.4,0.5-0.4h2.4c0.4,0,0.7,0.2,0.9,0.7
			l16,39.5c0,0.1,0.1,0.2,0.1,0.4c0,0.1,0,0.2,0,0.3c0,0.1-0.1,0.2-0.1,0.2l-0.1,0.1c-0.1,0.3-0.4,0.4-0.7,0.4H715
			C714.7,1411.1,714.4,1411,714.3,1410.9z M730.7,1418.1c-0.1-0.1-0.2-0.3-0.2-0.5v-38.7h-0.2l-10.6,25.8c0,0.3-0.2,0.4-0.5,0.4
			c-0.2,0-0.3-0.1-0.5-0.4l-1.1-2.8c-0.1-0.1-0.1-0.3-0.1-0.5c0-0.2,0-0.4,0.1-0.5l12.3-30.8c0.2-0.5,0.5-0.7,1-0.7h2.3
			c0.2,0,0.4,0.1,0.5,0.2c0.1,0.1,0.2,0.3,0.2,0.5v47.5c0,0.2-0.1,0.4-0.2,0.5c-0.1,0.1-0.3,0.2-0.5,0.2h-2.2
			C731,1418.3,730.8,1418.3,730.7,1418.1z"/>
	</g>
	<g class="st1">
		<path d="M795.6,1415.6c-2-1.8-3.5-4.3-4.4-7.5c-0.4-1.3-0.7-3-0.9-5.1c-0.2-2.1-0.3-5.1-0.3-9.1c0-4,0.1-7.1,0.3-9.1
			c0.2-2.1,0.5-3.8,0.9-5.1c1-3.2,2.4-5.7,4.4-7.5c2-1.8,4.5-2.9,7.4-3.3h0.1c0.2,0,0.3,0.1,0.4,0.2c0.1,0.1,0.2,0.3,0.2,0.5v2.4
			c0,0.4-0.2,0.6-0.6,0.7c-4.2,0.8-7,3.5-8.4,8.1c-0.3,1.1-0.6,2.7-0.8,4.6c-0.2,2-0.3,4.8-0.3,8.5c0,3.6,0.1,6.5,0.3,8.5
			c0.2,2,0.5,3.5,0.8,4.6c1.4,4.7,4.2,7.4,8.4,8.1c0.4,0,0.6,0.3,0.6,0.7v2.4c0,0.2-0.1,0.4-0.2,0.5c-0.1,0.1-0.3,0.2-0.5,0.1
			C800,1418.5,797.5,1417.4,795.6,1415.6z M807.7,1418.9c-0.2,0-0.3-0.1-0.4-0.2c-0.1-0.1-0.2-0.3-0.2-0.5v-2.4
			c0-0.4,0.2-0.7,0.6-0.7c4.2-0.8,7-3.5,8.4-8.1c0.3-1.2,0.6-2.7,0.8-4.7c0.2-2,0.3-4.8,0.3-8.4c0-3.6-0.1-6.4-0.3-8.4
			c-0.2-2-0.5-3.6-0.8-4.7c-1.4-4.7-4.2-7.4-8.4-8.1c-0.4-0.1-0.6-0.3-0.6-0.7v-2.4c0-0.2,0.1-0.4,0.2-0.5c0.1-0.1,0.3-0.2,0.5-0.1
			c2.9,0.4,5.4,1.5,7.4,3.3s3.5,4.3,4.5,7.5c0.4,1.4,0.7,3.1,0.9,5.2c0.2,2.1,0.3,5.1,0.3,9.1c0,3.9-0.1,6.9-0.3,9s-0.5,3.8-0.9,5.2
			c-1,3.2-2.4,5.7-4.5,7.5s-4.5,2.9-7.4,3.3H807.7z"/>
	</g>
	<g class="st1">
		<path d="M896.5,1417.6l-14.6-47.2l-0.1-0.4c0-0.2,0.1-0.3,0.2-0.4c0.1-0.1,0.2-0.1,0.4-0.1h2.3c0.3,0,0.5,0,0.6,0.1
			c0.2,0.1,0.2,0.3,0.3,0.6l14.4,46.9c0.1,0.3,0.1,0.5,0.1,0.6c0,0.4-0.2,0.6-0.6,0.6h-2.1C896.9,1418.3,896.6,1418.1,896.5,1417.6z
			 M900.2,1407.3c0-0.1-0.1-0.3-0.1-0.5c0-0.1,0-0.4,0.1-0.8l10.7-35.9c0.1-0.3,0.2-0.5,0.3-0.6c0.1-0.1,0.3-0.1,0.6-0.1h2.4
			c0.2,0,0.4,0.1,0.5,0.3c0.1,0.2,0.1,0.4,0,0.7l-12.5,40.8c0,0.1-0.1,0.3-0.2,0.4c-0.1,0.1-0.1,0.1-0.2,0.1c-0.1,0-0.3-0.2-0.5-0.5
			L900.2,1407.3z"/>
	</g>
	<g class="st1">
		<path d="M980.9,1418.1c-0.1-0.1-0.2-0.3-0.2-0.5v-47.5c0-0.2,0.1-0.4,0.2-0.5c0.1-0.1,0.3-0.2,0.5-0.2h2.4c0.2,0,0.4,0.1,0.5,0.2
			c0.1,0.1,0.2,0.3,0.2,0.5v47.5c0,0.2-0.1,0.4-0.2,0.5c-0.1,0.1-0.3,0.2-0.5,0.2h-2.4C981.2,1418.3,981,1418.3,980.9,1418.1z
			 M988.1,1373c-0.1-0.1-0.2-0.3-0.2-0.5v-2.4c0-0.2,0.1-0.4,0.2-0.5c0.1-0.1,0.3-0.2,0.5-0.2h18.2c0.2,0,0.4,0.1,0.5,0.2
			c0.1,0.1,0.2,0.3,0.2,0.5v2.4c0,0.2-0.1,0.4-0.2,0.5c-0.1,0.1-0.3,0.2-0.5,0.2h-18.2C988.3,1373.2,988.2,1373.1,988.1,1373z
			 M988.1,1395.2c-0.1-0.1-0.2-0.3-0.2-0.5v-2.4c0-0.2,0.1-0.4,0.2-0.5c0.1-0.1,0.3-0.2,0.5-0.2h15.1c0.2,0,0.4,0.1,0.5,0.2
			c0.1,0.1,0.2,0.3,0.2,0.5v2.4c0,0.2-0.1,0.4-0.2,0.5c-0.1,0.1-0.3,0.2-0.5,0.2h-15.1C988.3,1395.4,988.2,1395.4,988.1,1395.2z
			 M988.1,1418.1c-0.1-0.1-0.2-0.3-0.2-0.5v-2.4c0-0.2,0.1-0.4,0.2-0.5c0.1-0.1,0.3-0.2,0.5-0.2h18.2c0.2,0,0.4,0.1,0.5,0.2
			c0.1,0.1,0.2,0.3,0.2,0.5v2.4c0,0.2-0.1,0.4-0.2,0.5c-0.1,0.1-0.3,0.2-0.5,0.2h-18.2C988.3,1418.3,988.2,1418.3,988.1,1418.1z"/>
	</g>
	<g class="st1">
		<path d="M1075.4,1418.1c-0.1-0.1-0.2-0.3-0.2-0.5v-47.5c0-0.2,0.1-0.4,0.2-0.5c0.1-0.1,0.3-0.2,0.5-0.2h2.4c0.2,0,0.4,0.1,0.5,0.2
			c0.1,0.1,0.2,0.3,0.2,0.5v47.5c0,0.2-0.1,0.4-0.2,0.5c-0.1,0.1-0.3,0.2-0.5,0.2h-2.4C1075.7,1418.3,1075.5,1418.3,1075.4,1418.1z
			 M1082.6,1396.2c-0.1-0.1-0.2-0.3-0.2-0.5v-2.4c0-0.2,0.1-0.4,0.2-0.5c0.1-0.1,0.3-0.2,0.5-0.2h7.6c3.2,0,5.6-0.8,7.3-2.5
			s2.5-4,2.5-7.2s-0.8-5.5-2.5-7.2c-1.7-1.7-4.1-2.5-7.3-2.5h-7.6c-0.2,0-0.3-0.1-0.5-0.2c-0.1-0.1-0.2-0.3-0.2-0.5v-2.4
			c0-0.2,0.1-0.4,0.2-0.5c0.1-0.1,0.3-0.2,0.5-0.2h7.7c2.8,0,5.2,0.5,7.2,1.6c2,1.1,3.6,2.6,4.6,4.7c1.1,2,1.6,4.5,1.6,7.2
			c0,2.6-0.5,5-1.6,7.1c-1,2.1-2.6,3.7-4.6,4.8c-2.1,1.1-4.6,1.7-7.6,1.6h-7.3C1082.8,1396.4,1082.7,1396.3,1082.6,1396.2z
			 M1100.9,1418.2c-0.1-0.1-0.2-0.3-0.3-0.5l-7.4-17.1c-0.1-0.3-0.1-0.6,0-0.7c0.1-0.1,0.2-0.2,0.4-0.2c0.2,0,0.3-0.1,0.3-0.1
			c0.8-0.1,1.5-0.2,1.9-0.4c0.1,0,0.2-0.1,0.3-0.1c0.3,0,0.5,0.2,0.5,0.5l8,17.9c0,0.1,0.1,0.2,0.1,0.4c0,0.3-0.2,0.4-0.5,0.4h-2.9
			C1101.2,1418.3,1101,1418.3,1100.9,1418.2z"/>
	</g>
	<g class="st1">
		<path d="M1172.5,1413.8c-2.2-3-3.3-7.1-3.3-12.4v-31.3c0-0.2,0.1-0.4,0.2-0.5c0.1-0.1,0.3-0.2,0.5-0.2h2.4c0.2,0,0.4,0.1,0.5,0.2
			c0.1,0.1,0.2,0.3,0.2,0.5v31.3c0,4,0.8,7.2,2.3,9.5c1.5,2.3,3.8,3.7,6.7,4.2c0.4,0,0.6,0.3,0.6,0.7v2.4c0,0.2-0.1,0.4-0.2,0.5
			c-0.1,0.1-0.3,0.2-0.5,0.1C1177.8,1418.5,1174.7,1416.8,1172.5,1413.8z M1186.5,1418.9c-0.2,0-0.3-0.1-0.4-0.2
			c-0.1-0.1-0.2-0.3-0.2-0.5v-2.4c0-0.4,0.2-0.7,0.6-0.7c2.9-0.5,5.1-1.9,6.7-4.2s2.3-5.5,2.3-9.5v-31.3c0-0.2,0.1-0.4,0.2-0.5
			c0.1-0.1,0.3-0.2,0.5-0.2h2.4c0.2,0,0.4,0.1,0.5,0.2c0.1,0.1,0.2,0.3,0.2,0.5v31.3c0,5.3-1.1,9.4-3.2,12.3c-2.2,3-5.3,4.7-9.3,5.1
			H1186.5z"/>
	</g>
	<g class="st1">
		<path d="M224.9,1534.4c-0.1-0.1-0.2-0.3-0.2-0.5v-47.5c0-0.2,0.1-0.4,0.2-0.5c0.1-0.1,0.3-0.2,0.5-0.2h2.4c0.2,0,0.4,0.1,0.5,0.2
			c0.1,0.1,0.2,0.3,0.2,0.5v47.5c0,0.2-0.1,0.4-0.2,0.5c-0.1,0.1-0.3,0.2-0.5,0.2h-2.4C225.2,1534.6,225.1,1534.5,224.9,1534.4z
			 M231.8,1511.5c-0.1-0.1-0.2-0.3-0.2-0.5v-2.4c0-0.2,0.1-0.4,0.2-0.5c0.1-0.1,0.3-0.2,0.5-0.2h14.9c0.2,0,0.4,0.1,0.5,0.2
			c0.1,0.1,0.2,0.3,0.2,0.5v2.4c0,0.2-0.1,0.4-0.2,0.5c-0.1,0.1-0.3,0.2-0.5,0.2h-14.9C232.1,1511.7,231.9,1511.6,231.8,1511.5z
			 M251.2,1534.4c-0.1-0.1-0.2-0.3-0.2-0.5v-47.5c0-0.2,0.1-0.4,0.2-0.5c0.1-0.1,0.3-0.2,0.5-0.2h2.4c0.2,0,0.4,0.1,0.5,0.2
			c0.1,0.1,0.2,0.3,0.2,0.5v47.5c0,0.2-0.1,0.4-0.2,0.5c-0.1,0.1-0.3,0.2-0.5,0.2h-2.4C251.5,1534.6,251.4,1534.5,251.2,1534.4z"/>
	</g>
	<g class="st1">
		<path d="M315.2,1534.4c-0.1-0.1-0.1-0.3,0-0.5l13.4-41c0.1-0.3,0.3-0.4,0.5-0.4c0.1,0,0.2,0,0.2,0.1s0.1,0.2,0.2,0.3l1.2,3.9
			c0.1,0.1,0.1,0.3,0.1,0.5c0,0.2,0,0.4-0.1,0.5l-6.6,20.2h12.7c0.4,0,0.6,0.2,0.8,0.6l0.8,2.4l0.1,0.3c0,0.1-0.1,0.3-0.2,0.4
			c-0.1,0.1-0.2,0.1-0.4,0.1h-14.9l-3.9,12.2c-0.1,0.3-0.2,0.5-0.3,0.6c-0.1,0.1-0.3,0.1-0.5,0.1h-2.5
			C315.4,1534.6,315.2,1534.5,315.2,1534.4z M346.1,1534l-15.2-47.5l-0.1-0.3c0-0.2,0.1-0.3,0.2-0.4c0.1-0.1,0.2-0.1,0.4-0.1h2.3
			c0.4,0,0.6,0.2,0.8,0.7l15.3,47.5l0.1,0.2c0,0.1,0,0.3-0.1,0.4c-0.1,0.1-0.2,0.1-0.4,0.1h-2.5
			C346.4,1534.6,346.2,1534.4,346.1,1534z"/>
	</g>
	<g class="st1">
		<path d="M413.9,1534.4c-0.1-0.1-0.2-0.3-0.2-0.5v-47.5c0-0.2,0.1-0.4,0.2-0.5c0.1-0.1,0.3-0.2,0.5-0.2h2.4c0.2,0,0.4,0.1,0.5,0.2
			c0.1,0.1,0.2,0.3,0.2,0.5v47.5c0,0.2-0.1,0.4-0.2,0.5c-0.1,0.1-0.3,0.2-0.5,0.2h-2.4C414.2,1534.6,414.1,1534.5,413.9,1534.4z
			 M421.1,1534.4c-0.1-0.1-0.2-0.3-0.2-0.5v-2.4c0-0.2,0.1-0.4,0.2-0.5c0.1-0.1,0.3-0.2,0.5-0.2h18.2c0.2,0,0.4,0.1,0.5,0.2
			c0.1,0.1,0.2,0.3,0.2,0.5v2.4c0,0.2-0.1,0.4-0.2,0.5c-0.1,0.1-0.3,0.2-0.5,0.2h-18.2C421.3,1534.6,421.2,1534.5,421.1,1534.4z"/>
	</g>
	<g class="st1">
		<path d="M508.4,1534.4c-0.1-0.1-0.2-0.3-0.2-0.5v-47.5c0-0.2,0.1-0.4,0.2-0.5c0.1-0.1,0.3-0.2,0.5-0.2h2.4c0.2,0,0.4,0.1,0.5,0.2
			c0.1,0.1,0.2,0.3,0.2,0.5v47.5c0,0.2-0.1,0.4-0.2,0.5c-0.1,0.1-0.3,0.2-0.5,0.2h-2.4C508.7,1534.6,508.6,1534.5,508.4,1534.4z
			 M515.6,1489.2c-0.1-0.1-0.2-0.3-0.2-0.5v-2.4c0-0.2,0.1-0.4,0.2-0.5c0.1-0.1,0.3-0.2,0.5-0.2h18.2c0.2,0,0.4,0.1,0.5,0.2
			c0.1,0.1,0.2,0.3,0.2,0.5v2.4c0,0.2-0.1,0.4-0.2,0.5c-0.1,0.1-0.3,0.2-0.5,0.2H516C515.8,1489.4,515.7,1489.4,515.6,1489.2z
			 M515.6,1512c-0.1-0.1-0.2-0.3-0.2-0.5v-2.4c0-0.2,0.1-0.4,0.2-0.5c0.1-0.1,0.3-0.2,0.5-0.2h15.1c0.2,0,0.4,0.1,0.5,0.2
			c0.1,0.1,0.2,0.3,0.2,0.5v2.4c0,0.2-0.1,0.4-0.2,0.5c-0.1,0.1-0.3,0.2-0.5,0.2H516C515.8,1512.2,515.7,1512.1,515.6,1512z"/>
	</g>
	<g class="st1">
		<path d="M614.9,1534.4c-0.1-0.1-0.2-0.3-0.2-0.5v-47.5c0-0.2,0.1-0.4,0.2-0.5c0.1-0.1,0.3-0.2,0.5-0.2h2.4c0.2,0,0.4,0.1,0.5,0.2
			c0.1,0.1,0.2,0.3,0.2,0.5v47.5c0,0.2-0.1,0.4-0.2,0.5c-0.1,0.1-0.3,0.2-0.5,0.2h-2.4C615.2,1534.6,615.1,1534.5,614.9,1534.4z"/>
	</g>
	<g class="st1">
		<path d="M692.7,1489.2c-0.1-0.1-0.2-0.3-0.2-0.5v-2.4c0-0.2,0.1-0.4,0.2-0.5c0.1-0.1,0.3-0.2,0.5-0.2h29.9c0.2,0,0.4,0.1,0.5,0.2
			c0.1,0.1,0.2,0.3,0.2,0.5v2.4c0,0.2-0.1,0.4-0.2,0.5c-0.1,0.1-0.3,0.2-0.5,0.2h-29.9C693,1489.4,692.9,1489.4,692.7,1489.2z
			 M706.5,1534.4c-0.1-0.1-0.2-0.3-0.2-0.5v-40c0-0.2,0.1-0.4,0.2-0.5c0.1-0.1,0.3-0.2,0.5-0.2h2.4c0.2,0,0.4,0.1,0.5,0.2
			c0.1,0.1,0.2,0.3,0.2,0.5v40c0,0.2-0.1,0.4-0.2,0.5c-0.1,0.1-0.3,0.2-0.5,0.2h-2.4C706.7,1534.6,706.6,1534.5,706.5,1534.4z"/>
	</g>
	<g class="st1">
		<path d="M792.5,1534.4c-0.1-0.1-0.2-0.3-0.3-0.5l-10.5-47.4l-0.1-0.3c0-0.1,0.1-0.3,0.2-0.4c0.1-0.1,0.2-0.1,0.4-0.1h2.3
			c0.3,0,0.5,0,0.6,0.1c0.1,0.1,0.2,0.3,0.3,0.6l10.1,47.1c0,0.1,0.1,0.3,0.1,0.5c0,0.4-0.2,0.6-0.6,0.6h-2.1
			C792.8,1534.6,792.6,1534.5,792.5,1534.4z M816.9,1534.4c-0.1-0.1-0.2-0.3-0.3-0.5l-10.3-40.4h-0.1l-8.4,32.5
			c0,0.1-0.1,0.3-0.2,0.4c-0.1,0.1-0.1,0.1-0.2,0.1c-0.2,0-0.3-0.2-0.4-0.5l-1-5c0-0.3,0-0.6,0-0.9l8.5-33.8
			c0.1-0.2,0.2-0.4,0.3-0.5c0.1-0.1,0.3-0.2,0.5-0.2h1.9c0.2,0,0.4,0.1,0.5,0.2c0.1,0.1,0.2,0.3,0.3,0.5l12,47.1l0.1,0.4
			c0,0.5-0.2,0.8-0.7,0.8h-2.1C817.1,1534.6,817,1534.5,816.9,1534.4z M819.8,1521.1c-0.1-0.4-0.1-0.7-0.1-0.9l7.2-33.9
			c0-0.3,0.1-0.5,0.3-0.6c0.1-0.1,0.3-0.1,0.6-0.1h2.3c0.2,0,0.4,0.1,0.5,0.2c0.1,0.1,0.1,0.3,0.1,0.6l-8.8,39.6
			c0,0.1-0.1,0.3-0.2,0.4c-0.1,0.1-0.1,0.1-0.2,0.1c-0.2,0-0.3-0.1-0.4-0.4L819.8,1521.1z"/>
	</g>
	<g class="st1">
		<path d="M886.4,1534.4c-0.1-0.1-0.2-0.3-0.2-0.5v-47.5c0-0.2,0.1-0.4,0.2-0.5c0.1-0.1,0.3-0.2,0.5-0.2h2.4c0.2,0,0.4,0.1,0.5,0.2
			c0.1,0.1,0.2,0.3,0.2,0.5v47.5c0,0.2-0.1,0.4-0.2,0.5c-0.1,0.1-0.3,0.2-0.5,0.2h-2.4C886.7,1534.6,886.5,1534.5,886.4,1534.4z
			 M893.6,1489.2c-0.1-0.1-0.2-0.3-0.2-0.5v-2.4c0-0.2,0.1-0.4,0.2-0.5c0.1-0.1,0.3-0.2,0.5-0.2h18.2c0.2,0,0.4,0.1,0.5,0.2
			c0.1,0.1,0.2,0.3,0.2,0.5v2.4c0,0.2-0.1,0.4-0.2,0.5c-0.1,0.1-0.3,0.2-0.5,0.2H894C893.8,1489.4,893.7,1489.4,893.6,1489.2z
			 M893.6,1511.5c-0.1-0.1-0.2-0.3-0.2-0.5v-2.4c0-0.2,0.1-0.4,0.2-0.5c0.1-0.1,0.3-0.2,0.5-0.2h15.1c0.2,0,0.4,0.1,0.5,0.2
			c0.1,0.1,0.2,0.3,0.2,0.5v2.4c0,0.2-0.1,0.4-0.2,0.5c-0.1,0.1-0.3,0.2-0.5,0.2H894C893.8,1511.7,893.7,1511.6,893.6,1511.5z
			 M893.6,1534.4c-0.1-0.1-0.2-0.3-0.2-0.5v-2.4c0-0.2,0.1-0.4,0.2-0.5c0.1-0.1,0.3-0.2,0.5-0.2h18.2c0.2,0,0.4,0.1,0.5,0.2
			c0.1,0.1,0.2,0.3,0.2,0.5v2.4c0,0.2-0.1,0.4-0.2,0.5c-0.1,0.1-0.3,0.2-0.5,0.2H894C893.8,1534.6,893.7,1534.5,893.6,1534.4z"/>
	</g>
	<g class="st1">
		<path d="M980.9,1534.4c-0.1-0.1-0.2-0.3-0.2-0.5v-47.5c0-0.2,0.1-0.4,0.2-0.5c0.1-0.1,0.3-0.2,0.5-0.2h2.4c0.2,0,0.4,0.1,0.5,0.2
			c0.1,0.1,0.2,0.3,0.2,0.5v47.5c0,0.2-0.1,0.4-0.2,0.5c-0.1,0.1-0.3,0.2-0.5,0.2h-2.4C981.2,1534.6,981,1534.5,980.9,1534.4z
			 M988.1,1489.2c-0.1-0.1-0.2-0.3-0.2-0.5v-2.4c0-0.2,0.1-0.4,0.2-0.5c0.1-0.1,0.3-0.2,0.5-0.2h18.2c0.2,0,0.4,0.1,0.5,0.2
			c0.1,0.1,0.2,0.3,0.2,0.5v2.4c0,0.2-0.1,0.4-0.2,0.5c-0.1,0.1-0.3,0.2-0.5,0.2h-18.2C988.3,1489.4,988.2,1489.4,988.1,1489.2z
			 M988.1,1511.5c-0.1-0.1-0.2-0.3-0.2-0.5v-2.4c0-0.2,0.1-0.4,0.2-0.5c0.1-0.1,0.3-0.2,0.5-0.2h15.1c0.2,0,0.4,0.1,0.5,0.2
			c0.1,0.1,0.2,0.3,0.2,0.5v2.4c0,0.2-0.1,0.4-0.2,0.5c-0.1,0.1-0.3,0.2-0.5,0.2h-15.1C988.3,1511.7,988.2,1511.6,988.1,1511.5z
			 M988.1,1534.4c-0.1-0.1-0.2-0.3-0.2-0.5v-2.4c0-0.2,0.1-0.4,0.2-0.5c0.1-0.1,0.3-0.2,0.5-0.2h18.2c0.2,0,0.4,0.1,0.5,0.2
			c0.1,0.1,0.2,0.3,0.2,0.5v2.4c0,0.2-0.1,0.4-0.2,0.5c-0.1,0.1-0.3,0.2-0.5,0.2h-18.2C988.3,1534.6,988.2,1534.5,988.1,1534.4z"/>
	</g>
	<g class="st1">
		<path d="M1101.8,1534.4c-0.2-0.1-0.4-0.3-0.5-0.6l-25.9-46.6c-0.2-0.2-0.3-0.5-0.3-0.9c0-0.5,0.2-0.8,0.7-0.8h2.1
			c0.3,0,0.5,0,0.7,0.1c0.2,0.1,0.3,0.3,0.5,0.6l25.9,46.8c0.1,0.1,0.2,0.3,0.2,0.5c0,0.2,0,0.3,0,0.5c-0.1,0.3-0.3,0.5-0.6,0.5
			h-2.2C1102.2,1534.6,1102,1534.5,1101.8,1534.4z M1075.4,1534.4c-0.1-0.1-0.2-0.3-0.2-0.5V1495c0-0.4,0.1-0.6,0.3-0.6
			s0.4,0.1,0.5,0.4l2.5,4.5c0.1,0.3,0.2,0.6,0.2,0.9v33.6c0,0.2-0.1,0.4-0.2,0.5c-0.1,0.1-0.3,0.2-0.5,0.2h-2.2
			C1075.7,1534.6,1075.5,1534.5,1075.4,1534.4z M1102,1520.8c-0.1-0.3-0.2-0.6-0.2-0.9v-33.5c0-0.2,0.1-0.4,0.2-0.5
			c0.1-0.1,0.3-0.2,0.5-0.2h2.2c0.2,0,0.4,0.1,0.5,0.2c0.1,0.1,0.2,0.3,0.2,0.5v38.7c0,0.4-0.1,0.6-0.3,0.6c-0.2,0-0.3-0.1-0.5-0.4
			L1102,1520.8z"/>
	</g>
	<g class="st1">
		<path d="M1196.3,1534.4c-0.2-0.1-0.4-0.3-0.5-0.6l-25.9-46.6c-0.2-0.2-0.3-0.5-0.3-0.9c0-0.5,0.2-0.8,0.7-0.8h2.1
			c0.3,0,0.5,0,0.6,0.1c0.2,0.1,0.3,0.3,0.5,0.6l25.9,46.8c0.1,0.1,0.2,0.3,0.2,0.5s0,0.3,0,0.5c-0.1,0.3-0.3,0.5-0.6,0.5h-2.2
			C1196.7,1534.6,1196.5,1534.5,1196.3,1534.4z M1169.9,1534.4c-0.1-0.1-0.2-0.3-0.2-0.5V1495c0-0.4,0.1-0.6,0.3-0.6
			c0.2,0,0.4,0.1,0.5,0.4l2.5,4.5c0.1,0.3,0.2,0.6,0.2,0.9v33.6c0,0.2-0.1,0.4-0.2,0.5c-0.1,0.1-0.3,0.2-0.5,0.2h-2.2
			C1170.2,1534.6,1170,1534.5,1169.9,1534.4z M1196.5,1520.8c-0.1-0.3-0.2-0.6-0.2-0.9v-33.5c0-0.2,0.1-0.4,0.2-0.5
			c0.1-0.1,0.3-0.2,0.5-0.2h2.2c0.2,0,0.4,0.1,0.5,0.2c0.1,0.1,0.2,0.3,0.2,0.5v38.7c0,0.4-0.1,0.6-0.3,0.6c-0.2,0-0.3-0.1-0.5-0.4
			L1196.5,1520.8z"/>
	</g>
	<g class="st1">
		<path d="M220.7,1650.6c-0.1-0.1-0.1-0.3,0-0.5l13.4-41c0.1-0.3,0.3-0.4,0.5-0.4c0.1,0,0.2,0,0.2,0.1s0.1,0.2,0.2,0.3l1.2,3.9
			c0.1,0.1,0.1,0.3,0.1,0.5c0,0.2,0,0.4-0.1,0.5l-6.6,20.2h12.7c0.4,0,0.6,0.2,0.8,0.6l0.8,2.4l0.1,0.3c0,0.1-0.1,0.3-0.2,0.4
			c-0.1,0.1-0.2,0.1-0.4,0.1h-14.9l-3.9,12.2c-0.1,0.3-0.2,0.5-0.3,0.6c-0.1,0.1-0.3,0.1-0.5,0.1h-2.5
			C220.9,1650.8,220.7,1650.7,220.7,1650.6z M251.6,1650.2l-15.2-47.5l-0.1-0.3c0-0.2,0.1-0.3,0.2-0.4c0.1-0.1,0.2-0.1,0.4-0.1h2.3
			c0.4,0,0.6,0.2,0.8,0.7l15.3,47.5l0.1,0.2c0,0.1,0,0.3-0.1,0.4c-0.1,0.1-0.2,0.1-0.4,0.1h-2.5
			C251.9,1650.8,251.7,1650.6,251.6,1650.2z"/>
	</g>
	<g class="st1">
		<path d="M322.9,1648.1c-1.9-1.8-3.4-4.3-4.3-7.5c-0.4-1.3-0.7-3-0.9-5.1c-0.2-2.1-0.3-5.2-0.3-9.3c0-4.1,0.1-7.2,0.3-9.3
			c0.2-2.1,0.5-3.8,0.9-5.1c1-3.2,2.4-5.7,4.3-7.5c1.9-1.8,4.3-2.9,7.1-3.3h0.1c0.2,0,0.3,0.1,0.4,0.2c0.1,0.1,0.2,0.3,0.2,0.5v2.4
			c0,0.4-0.2,0.7-0.6,0.8c-2,0.3-3.6,1.2-5,2.5c-1.3,1.3-2.3,3.1-3.1,5.4c-0.3,1.1-0.5,2.6-0.7,4.5c-0.2,1.9-0.3,4.9-0.3,8.7
			c0,3.9,0.1,6.8,0.3,8.7c0.2,1.9,0.4,3.4,0.7,4.5c0.7,2.3,1.8,4.1,3.1,5.5c1.3,1.3,3,2.2,5,2.5c0.4,0.1,0.6,0.3,0.6,0.7v2.4
			c0,0.2-0.1,0.4-0.2,0.5c-0.1,0.1-0.3,0.2-0.5,0.1C327.2,1651,324.8,1649.9,322.9,1648.1z M343.2,1612.3c-0.3,0-0.5-0.1-0.6-0.4
			c-1.9-3.8-4.5-6.1-7.9-6.8c-0.4-0.1-0.6-0.3-0.6-0.7v-2.4c0-0.2,0.1-0.4,0.2-0.6c0.1-0.1,0.3-0.2,0.5-0.1c2.5,0.4,4.6,1.3,6.5,2.8
			c1.9,1.5,3.3,3.5,4.4,6c0,0.1,0.1,0.2,0.1,0.4c0,0.2-0.1,0.4-0.3,0.5l-2.1,1.2C343.4,1612.3,343.3,1612.3,343.2,1612.3z
			 M334.8,1651.4c-0.2,0-0.3-0.1-0.4-0.2c-0.1-0.1-0.2-0.3-0.2-0.5v-2.4c0-0.4,0.2-0.7,0.6-0.7c3.4-0.7,6-2.9,7.9-6.8
			c0.1-0.2,0.2-0.3,0.4-0.4c0.2-0.1,0.3-0.1,0.5,0l2.1,1.2c0.3,0.2,0.4,0.5,0.2,0.9c-1.1,2.5-2.6,4.6-4.4,6c-1.9,1.5-4,2.4-6.5,2.8
			H334.8z"/>
	</g>
	<g class="st1">
		<path d="M413.9,1650.6c-0.1-0.1-0.2-0.3-0.2-0.5v-47.5c0-0.2,0.1-0.4,0.2-0.5c0.1-0.1,0.3-0.2,0.5-0.2h2.4c0.2,0,0.4,0.1,0.5,0.2
			c0.1,0.1,0.2,0.3,0.2,0.5v47.5c0,0.2-0.1,0.4-0.2,0.5c-0.1,0.1-0.3,0.2-0.5,0.2h-2.4C414.2,1650.8,414.1,1650.7,413.9,1650.6z
			 M420.8,1627.7c-0.1-0.1-0.2-0.3-0.2-0.5v-2.4c0-0.2,0.1-0.4,0.2-0.5c0.1-0.1,0.3-0.2,0.5-0.2h14.9c0.2,0,0.4,0.1,0.5,0.2
			c0.1,0.1,0.2,0.3,0.2,0.5v2.4c0,0.2-0.1,0.4-0.2,0.5c-0.1,0.1-0.3,0.2-0.5,0.2h-14.9C421.1,1627.9,420.9,1627.8,420.8,1627.7z
			 M440.2,1650.6c-0.1-0.1-0.2-0.3-0.2-0.5v-47.5c0-0.2,0.1-0.4,0.2-0.5c0.1-0.1,0.3-0.2,0.5-0.2h2.4c0.2,0,0.4,0.1,0.5,0.2
			c0.1,0.1,0.2,0.3,0.2,0.5v47.5c0,0.2-0.1,0.4-0.2,0.5c-0.1,0.1-0.3,0.2-0.5,0.2h-2.4C440.5,1650.8,440.4,1650.7,440.2,1650.6z"/>
	</g>
	<g class="st1">
		<path d="M503.7,1605.5c-0.1-0.1-0.2-0.3-0.2-0.5v-2.4c0-0.2,0.1-0.4,0.2-0.5c0.1-0.1,0.3-0.2,0.5-0.2h29.9c0.2,0,0.4,0.1,0.5,0.2
			c0.1,0.1,0.2,0.3,0.2,0.5v2.4c0,0.2-0.1,0.4-0.2,0.5c-0.1,0.1-0.3,0.2-0.5,0.2h-29.9C504,1605.7,503.9,1605.6,503.7,1605.5z
			 M517.5,1650.6c-0.1-0.1-0.2-0.3-0.2-0.5v-40c0-0.2,0.1-0.4,0.2-0.5c0.1-0.1,0.3-0.2,0.5-0.2h2.4c0.2,0,0.4,0.1,0.5,0.2
			c0.1,0.1,0.2,0.3,0.2,0.5v40c0,0.2-0.1,0.4-0.2,0.5c-0.1,0.1-0.3,0.2-0.5,0.2h-2.4C517.7,1650.8,517.6,1650.7,517.5,1650.6z"/>
	</g>
	<g class="st1">
		<path d="M602.9,1650.6c-0.1-0.1-0.2-0.3-0.2-0.5v-47.5c0-0.2,0.1-0.4,0.2-0.5c0.1-0.1,0.3-0.2,0.5-0.2h2.4c0.2,0,0.4,0.1,0.5,0.2
			c0.1,0.1,0.2,0.3,0.2,0.5v47.5c0,0.2-0.1,0.4-0.2,0.5c-0.1,0.1-0.3,0.2-0.5,0.2h-2.4C603.2,1650.8,603.1,1650.7,602.9,1650.6z
			 M610,1650.6c-0.1-0.1-0.2-0.3-0.2-0.5v-2.4c0-0.2,0.1-0.4,0.2-0.5c0.1-0.1,0.3-0.2,0.5-0.2h6.2c2.9,0,5.3-0.6,7.2-1.8
			c1.8-1.2,3.2-3,3.9-5.6c0.4-1.3,0.7-2.9,0.8-4.7c0.2-1.8,0.2-4.7,0.2-8.6c0-3.9-0.1-6.8-0.2-8.6c-0.2-1.8-0.4-3.4-0.8-4.7
			c-0.8-2.5-2.1-4.4-3.9-5.6c-1.8-1.2-4.2-1.8-7.2-1.8h-6.2c-0.2,0-0.3-0.1-0.5-0.2c-0.1-0.1-0.2-0.3-0.2-0.5v-2.4
			c0-0.2,0.1-0.4,0.2-0.5c0.1-0.1,0.3-0.2,0.5-0.2h6.8c7.4,0,12.1,3.3,14.1,9.9c0.4,1.5,0.7,3.2,0.9,5.2c0.2,2,0.3,5.1,0.3,9.4
			c0,4.3-0.1,7.4-0.3,9.4c-0.2,2-0.5,3.7-0.9,5.2c-1.9,6.6-6.6,9.9-14.1,9.9h-6.8C610.3,1650.8,610.1,1650.7,610,1650.6z"/>
	</g>
	<g class="st1">
		<path d="M697.4,1650.6c-0.1-0.1-0.2-0.3-0.2-0.5v-47.5c0-0.2,0.1-0.4,0.2-0.5c0.1-0.1,0.3-0.2,0.5-0.2h2.4c0.2,0,0.4,0.1,0.5,0.2
			c0.1,0.1,0.2,0.3,0.2,0.5v47.5c0,0.2-0.1,0.4-0.2,0.5c-0.1,0.1-0.3,0.2-0.5,0.2h-2.4C697.7,1650.8,697.6,1650.7,697.4,1650.6z
			 M704.6,1628.6c-0.1-0.1-0.2-0.3-0.2-0.5v-2.4c0-0.2,0.1-0.4,0.2-0.5c0.1-0.1,0.3-0.2,0.5-0.2h7.6c3.2,0,5.6-0.8,7.3-2.5
			s2.5-4,2.5-7.2s-0.8-5.5-2.5-7.2c-1.7-1.7-4.1-2.5-7.3-2.5H705c-0.2,0-0.3-0.1-0.5-0.2c-0.1-0.1-0.2-0.3-0.2-0.5v-2.4
			c0-0.2,0.1-0.4,0.2-0.5c0.1-0.1,0.3-0.2,0.5-0.2h7.7c2.8,0,5.2,0.5,7.2,1.6s3.6,2.6,4.6,4.7c1.1,2,1.6,4.5,1.6,7.2
			c0,2.6-0.5,5-1.6,7.1c-1,2.1-2.6,3.7-4.6,4.8c-2.1,1.1-4.6,1.7-7.6,1.6H705C704.8,1628.9,704.7,1628.8,704.6,1628.6z
			 M722.9,1650.7c-0.1-0.1-0.2-0.3-0.3-0.5l-7.4-17.1c-0.1-0.3-0.1-0.6,0-0.7c0.1-0.1,0.2-0.2,0.4-0.2c0.2,0,0.3-0.1,0.3-0.1
			c0.8-0.1,1.5-0.2,1.9-0.4c0.1,0,0.2-0.1,0.3-0.1c0.3,0,0.5,0.2,0.5,0.5l8,17.9c0,0.1,0.1,0.2,0.1,0.4c0,0.3-0.2,0.4-0.5,0.4h-2.9
			C723.2,1650.8,723,1650.8,722.9,1650.7z"/>
	</g>
	<g class="st1">
		<path d="M803.9,1650.6c-0.1-0.1-0.2-0.3-0.2-0.5v-47.5c0-0.2,0.1-0.4,0.2-0.5c0.1-0.1,0.3-0.2,0.5-0.2h2.4c0.2,0,0.4,0.1,0.5,0.2
			c0.1,0.1,0.2,0.3,0.2,0.5v47.5c0,0.2-0.1,0.4-0.2,0.5c-0.1,0.1-0.3,0.2-0.5,0.2h-2.4C804.2,1650.8,804,1650.7,803.9,1650.6z"/>
	</g>
	<g class="st1">
		<path d="M886.4,1650.6c-0.1-0.1-0.2-0.3-0.2-0.5v-47.5c0-0.2,0.1-0.4,0.2-0.5c0.1-0.1,0.3-0.2,0.5-0.2h2.4c0.2,0,0.4,0.1,0.5,0.2
			c0.1,0.1,0.2,0.3,0.2,0.5v47.5c0,0.2-0.1,0.4-0.2,0.5c-0.1,0.1-0.3,0.2-0.5,0.2h-2.4C886.7,1650.8,886.5,1650.7,886.4,1650.6z
			 M893.6,1605.5c-0.1-0.1-0.2-0.3-0.2-0.5v-2.4c0-0.2,0.1-0.4,0.2-0.5c0.1-0.1,0.3-0.2,0.5-0.2h18.2c0.2,0,0.4,0.1,0.5,0.2
			c0.1,0.1,0.2,0.3,0.2,0.5v2.4c0,0.2-0.1,0.4-0.2,0.5c-0.1,0.1-0.3,0.2-0.5,0.2H894C893.8,1605.7,893.7,1605.6,893.6,1605.5z
			 M893.6,1627.7c-0.1-0.1-0.2-0.3-0.2-0.5v-2.4c0-0.2,0.1-0.4,0.2-0.5c0.1-0.1,0.3-0.2,0.5-0.2h15.1c0.2,0,0.4,0.1,0.5,0.2
			c0.1,0.1,0.2,0.3,0.2,0.5v2.4c0,0.2-0.1,0.4-0.2,0.5c-0.1,0.1-0.3,0.2-0.5,0.2H894C893.8,1627.9,893.7,1627.8,893.6,1627.7z
			 M893.6,1650.6c-0.1-0.1-0.2-0.3-0.2-0.5v-2.4c0-0.2,0.1-0.4,0.2-0.5c0.1-0.1,0.3-0.2,0.5-0.2h18.2c0.2,0,0.4,0.1,0.5,0.2
			c0.1,0.1,0.2,0.3,0.2,0.5v2.4c0,0.2-0.1,0.4-0.2,0.5c-0.1,0.1-0.3,0.2-0.5,0.2H894C893.8,1650.8,893.7,1650.7,893.6,1650.6z"/>
	</g>
	<g class="st1">
		<path d="M978.3,1650.6c-0.1-0.1-0.2-0.3-0.2-0.5v-2.4c0-0.2,0-0.4,0.1-0.5c0.1-0.1,0.2-0.3,0.3-0.4l25.3-44.4
			c0.2-0.3,0.5-0.5,0.8-0.5h1c0.2,0,0.4,0.1,0.5,0.2c0.1,0.1,0.2,0.3,0.2,0.5v2.4c0,0.1,0,0.3-0.1,0.5c0,0.2-0.1,0.3-0.3,0.5
			l-25.4,44.4c-0.2,0.3-0.5,0.5-0.8,0.5h-1C978.5,1650.8,978.4,1650.7,978.3,1650.6z M979.2,1605.5c-0.1-0.1-0.2-0.3-0.2-0.5v-2.4
			c0-0.2,0.1-0.4,0.2-0.5c0.1-0.1,0.3-0.2,0.5-0.2h19.8c0.3,0,0.4,0.1,0.5,0.3c0.1,0.2,0.1,0.4-0.1,0.6l-1.5,2.4
			c-0.2,0.3-0.5,0.5-0.8,0.5h-18C979.4,1605.7,979.3,1605.6,979.2,1605.5z M984.3,1650.6c-0.1-0.2,0-0.4,0.1-0.6l1.4-2.4
			c0.2-0.3,0.5-0.5,0.8-0.5h18.9c0.2,0,0.4,0.1,0.5,0.2c0.1,0.1,0.2,0.3,0.2,0.5v2.4c0,0.2-0.1,0.4-0.2,0.5
			c-0.1,0.1-0.3,0.2-0.5,0.2h-20.7C984.6,1650.8,984.4,1650.7,984.3,1650.6z"/>
	</g>
	<g class="st1">
		<path d="M1075.4,1650.6c-0.1-0.1-0.2-0.3-0.2-0.5v-47.5c0-0.2,0.1-0.4,0.2-0.5c0.1-0.1,0.3-0.2,0.5-0.2h2.4c0.2,0,0.4,0.1,0.5,0.2
			c0.1,0.1,0.2,0.3,0.2,0.5v47.5c0,0.2-0.1,0.4-0.2,0.5c-0.1,0.1-0.3,0.2-0.5,0.2h-2.4C1075.7,1650.8,1075.5,1650.7,1075.4,1650.6z
			 M1082.6,1605.5c-0.1-0.1-0.2-0.3-0.2-0.5v-2.4c0-0.2,0.1-0.4,0.2-0.5c0.1-0.1,0.3-0.2,0.5-0.2h18.2c0.2,0,0.4,0.1,0.5,0.2
			c0.1,0.1,0.2,0.3,0.2,0.5v2.4c0,0.2-0.1,0.4-0.2,0.5c-0.1,0.1-0.3,0.2-0.5,0.2H1083C1082.8,1605.7,1082.7,1605.6,1082.6,1605.5z
			 M1082.6,1627.7c-0.1-0.1-0.2-0.3-0.2-0.5v-2.4c0-0.2,0.1-0.4,0.2-0.5c0.1-0.1,0.3-0.2,0.5-0.2h15.1c0.2,0,0.4,0.1,0.5,0.2
			c0.1,0.1,0.2,0.3,0.2,0.5v2.4c0,0.2-0.1,0.4-0.2,0.5c-0.1,0.1-0.3,0.2-0.5,0.2H1083C1082.8,1627.9,1082.7,1627.8,1082.6,1627.7z
			 M1082.6,1650.6c-0.1-0.1-0.2-0.3-0.2-0.5v-2.4c0-0.2,0.1-0.4,0.2-0.5c0.1-0.1,0.3-0.2,0.5-0.2h18.2c0.2,0,0.4,0.1,0.5,0.2
			c0.1,0.1,0.2,0.3,0.2,0.5v2.4c0,0.2-0.1,0.4-0.2,0.5c-0.1,0.1-0.3,0.2-0.5,0.2H1083C1082.8,1650.8,1082.7,1650.7,1082.6,1650.6z"
			/>
	</g>
	<g class="st1">
		<path d="M1173.3,1649.5c-2.3-1-4.1-2.2-5.5-3.6c-0.1-0.1-0.2-0.3-0.2-0.5c0-0.2,0-0.4,0.2-0.6l1.6-2c0.3-0.3,0.6-0.4,0.9-0.1
			c1.3,1.2,2.9,2.2,4.6,3.1c1.8,0.9,3.6,1.5,5.6,1.8c0.4,0.1,0.6,0.3,0.6,0.7v2.4c0,0.2-0.1,0.4-0.2,0.5c-0.1,0.1-0.3,0.2-0.5,0.1
			C1177.9,1651.2,1175.6,1650.5,1173.3,1649.5z M1185.1,1651.4c-0.2,0-0.3-0.1-0.4-0.2c-0.1-0.1-0.2-0.3-0.2-0.5v-2.4
			c0-0.5,0.2-0.7,0.6-0.8c2.9-0.3,5.1-1.4,6.7-3.2c1.6-1.8,2.4-4,2.4-6.7c0-2.6-0.8-4.8-2.3-6.4c-1.6-1.6-4.3-2.7-8.1-3.2l-2.1-0.4
			c-4.2-0.6-7.4-2-9.5-4.2c-2.1-2.2-3.2-5.1-3.2-8.7c0-2.5,0.5-4.7,1.4-6.7s2.2-3.5,3.9-4.7c1.7-1.2,3.7-1.9,6-2.2h0.1
			c0.2,0,0.3,0.1,0.4,0.2c0.1,0.1,0.2,0.3,0.2,0.5v2.4c0,0.4-0.2,0.6-0.6,0.7c-2.4,0.4-4.3,1.5-5.7,3.2c-1.3,1.7-2,3.8-2,6.3
			c0,2.6,0.8,4.7,2.5,6.3c1.6,1.6,4.3,2.6,8.1,3.2l2.1,0.3c4.3,0.6,7.5,2,9.6,4.2c2.1,2.2,3.1,5.1,3.1,8.8c0,2.5-0.5,4.8-1.5,6.8
			c-1,2-2.4,3.6-4.3,4.9c-1.9,1.3-4.2,2.1-7,2.3H1185.1z M1185.1,1605.1c-0.4-0.1-0.6-0.4-0.6-0.8v-2.4c0-0.2,0.1-0.4,0.2-0.5
			c0.1-0.1,0.3-0.2,0.5-0.1c1.9,0.2,3.8,0.6,5.6,1.3c1.8,0.7,3.3,1.5,4.6,2.6c0.3,0.3,0.4,0.6,0.1,1l-1.2,2.2
			c-0.3,0.3-0.6,0.4-0.9,0.1C1190.7,1606.6,1187.9,1605.4,1185.1,1605.1z"/>
	</g>
	<g class="st1">
		<path d="M222.3,1766.8c-0.1-0.1-0.2-0.3-0.2-0.5v-2.4c0-0.2,0-0.4,0.1-0.5c0.1-0.1,0.2-0.3,0.3-0.4l25.3-44.4
			c0.2-0.3,0.5-0.5,0.8-0.5h1c0.2,0,0.4,0.1,0.5,0.2c0.1,0.1,0.2,0.3,0.2,0.5v2.4c0,0.1,0,0.3-0.1,0.5c0,0.2-0.1,0.3-0.3,0.5
			l-25.4,44.4c-0.2,0.3-0.5,0.5-0.8,0.5h-1C222.5,1767.1,222.4,1767,222.3,1766.8z M223.2,1721.7c-0.1-0.1-0.2-0.3-0.2-0.5v-2.4
			c0-0.2,0.1-0.4,0.2-0.5c0.1-0.1,0.3-0.2,0.5-0.2h19.8c0.3,0,0.4,0.1,0.5,0.3c0.1,0.2,0.1,0.4-0.1,0.6l-1.5,2.4
			c-0.2,0.3-0.5,0.5-0.8,0.5h-18C223.5,1721.9,223.3,1721.8,223.2,1721.7z M228.3,1766.8c-0.1-0.2,0-0.4,0.1-0.6l1.4-2.4
			c0.2-0.3,0.5-0.5,0.8-0.5h18.9c0.2,0,0.4,0.1,0.5,0.2c0.1,0.1,0.2,0.3,0.2,0.5v2.4c0,0.2-0.1,0.4-0.2,0.5
			c-0.1,0.1-0.3,0.2-0.5,0.2h-20.7C228.6,1767.1,228.4,1767,228.3,1766.8z"/>
	</g>
	<g class="st1">
		<path d="M319.4,1766.8c-0.1-0.1-0.2-0.3-0.2-0.5v-47.5c0-0.2,0.1-0.4,0.2-0.5c0.1-0.1,0.3-0.2,0.5-0.2h2.4c0.2,0,0.4,0.1,0.5,0.2
			c0.1,0.1,0.2,0.3,0.2,0.5v47.5c0,0.2-0.1,0.4-0.2,0.5c-0.1,0.1-0.3,0.2-0.5,0.2h-2.4C319.7,1767.1,319.6,1767,319.4,1766.8z
			 M326.6,1721.7c-0.1-0.1-0.2-0.3-0.2-0.5v-2.4c0-0.2,0.1-0.4,0.2-0.5c0.1-0.1,0.3-0.2,0.5-0.2h18.2c0.2,0,0.4,0.1,0.5,0.2
			c0.1,0.1,0.2,0.3,0.2,0.5v2.4c0,0.2-0.1,0.4-0.2,0.5c-0.1,0.1-0.3,0.2-0.5,0.2H327C326.9,1721.9,326.7,1721.8,326.6,1721.7z
			 M326.6,1743.9c-0.1-0.1-0.2-0.3-0.2-0.5v-2.4c0-0.2,0.1-0.4,0.2-0.5c0.1-0.1,0.3-0.2,0.5-0.2h15.1c0.2,0,0.4,0.1,0.5,0.2
			c0.1,0.1,0.2,0.3,0.2,0.5v2.4c0,0.2-0.1,0.4-0.2,0.5c-0.1,0.1-0.3,0.2-0.5,0.2H327C326.9,1744.2,326.7,1744.1,326.6,1743.9z
			 M326.6,1766.8c-0.1-0.1-0.2-0.3-0.2-0.5v-2.4c0-0.2,0.1-0.4,0.2-0.5c0.1-0.1,0.3-0.2,0.5-0.2h18.2c0.2,0,0.4,0.1,0.5,0.2
			c0.1,0.1,0.2,0.3,0.2,0.5v2.4c0,0.2-0.1,0.4-0.2,0.5c-0.1,0.1-0.3,0.2-0.5,0.2H327C326.9,1767.1,326.7,1767,326.6,1766.8z"/>
	</g>
	<g class="st1">
		<path d="M424,1766.3l-14.6-47.2l-0.1-0.4c0-0.2,0.1-0.3,0.2-0.4c0.1-0.1,0.2-0.1,0.4-0.1h2.3c0.3,0,0.5,0,0.6,0.1
			c0.2,0.1,0.2,0.3,0.3,0.6l14.4,46.9c0.1,0.3,0.1,0.5,0.1,0.6c0,0.4-0.2,0.6-0.6,0.6h-2.1C424.4,1767.1,424.1,1766.8,424,1766.3z
			 M427.7,1756c0-0.1-0.1-0.3-0.1-0.5c0-0.1,0-0.4,0.1-0.8l10.7-35.9c0.1-0.3,0.2-0.5,0.3-0.6c0.1-0.1,0.3-0.1,0.6-0.1h2.4
			c0.2,0,0.4,0.1,0.5,0.3c0.1,0.2,0.1,0.4,0,0.7l-12.5,40.8c0,0.1-0.1,0.3-0.2,0.4c-0.1,0.1-0.1,0.1-0.2,0.1c-0.1,0-0.3-0.2-0.5-0.5
			L427.7,1756z"/>
	</g>
	<g class="st1">
		<path d="M508.4,1766.8c-0.1-0.1-0.2-0.3-0.2-0.5v-47.5c0-0.2,0.1-0.4,0.2-0.5c0.1-0.1,0.3-0.2,0.5-0.2h2.4c0.2,0,0.4,0.1,0.5,0.2
			c0.1,0.1,0.2,0.3,0.2,0.5v47.5c0,0.2-0.1,0.4-0.2,0.5c-0.1,0.1-0.3,0.2-0.5,0.2h-2.4C508.7,1767.1,508.6,1767,508.4,1766.8z
			 M515.6,1721.7c-0.1-0.1-0.2-0.3-0.2-0.5v-2.4c0-0.2,0.1-0.4,0.2-0.5c0.1-0.1,0.3-0.2,0.5-0.2h18.2c0.2,0,0.4,0.1,0.5,0.2
			c0.1,0.1,0.2,0.3,0.2,0.5v2.4c0,0.2-0.1,0.4-0.2,0.5c-0.1,0.1-0.3,0.2-0.5,0.2H516C515.8,1721.9,515.7,1721.8,515.6,1721.7z
			 M515.6,1743.9c-0.1-0.1-0.2-0.3-0.2-0.5v-2.4c0-0.2,0.1-0.4,0.2-0.5c0.1-0.1,0.3-0.2,0.5-0.2h15.1c0.2,0,0.4,0.1,0.5,0.2
			c0.1,0.1,0.2,0.3,0.2,0.5v2.4c0,0.2-0.1,0.4-0.2,0.5c-0.1,0.1-0.3,0.2-0.5,0.2H516C515.8,1744.2,515.7,1744.1,515.6,1743.9z
			 M515.6,1766.8c-0.1-0.1-0.2-0.3-0.2-0.5v-2.4c0-0.2,0.1-0.4,0.2-0.5c0.1-0.1,0.3-0.2,0.5-0.2h18.2c0.2,0,0.4,0.1,0.5,0.2
			c0.1,0.1,0.2,0.3,0.2,0.5v2.4c0,0.2-0.1,0.4-0.2,0.5c-0.1,0.1-0.3,0.2-0.5,0.2H516C515.8,1767.1,515.7,1767,515.6,1766.8z"/>
	</g>
	<g class="st1">
		<path d="M629.3,1766.9c-0.2-0.1-0.4-0.3-0.5-0.6l-25.9-46.6c-0.2-0.2-0.3-0.5-0.3-0.9c0-0.5,0.2-0.8,0.7-0.8h2.1
			c0.3,0,0.5,0,0.6,0.1c0.2,0.1,0.3,0.3,0.5,0.6l25.9,46.8c0.1,0.1,0.2,0.3,0.2,0.5s0,0.3,0,0.5c-0.1,0.3-0.3,0.5-0.6,0.5h-2.2
			C629.7,1767.1,629.5,1767,629.3,1766.9z M602.9,1766.8c-0.1-0.1-0.2-0.3-0.2-0.5v-38.8c0-0.4,0.1-0.6,0.3-0.6
			c0.2,0,0.4,0.1,0.5,0.4l2.5,4.5c0.1,0.3,0.2,0.6,0.2,0.9v33.6c0,0.2-0.1,0.4-0.2,0.5c-0.1,0.1-0.3,0.2-0.5,0.2h-2.2
			C603.2,1767.1,603.1,1767,602.9,1766.8z M629.5,1753.2c-0.1-0.3-0.2-0.6-0.2-0.9v-33.5c0-0.2,0.1-0.4,0.2-0.5
			c0.1-0.1,0.3-0.2,0.5-0.2h2.2c0.2,0,0.4,0.1,0.5,0.2c0.1,0.1,0.2,0.3,0.2,0.5v38.7c0,0.4-0.1,0.6-0.3,0.6c-0.2,0-0.3-0.1-0.5-0.4
			L629.5,1753.2z"/>
	</g>
	<g class="st1">
		<path d="M697.4,1766.8c-0.1-0.1-0.2-0.3-0.2-0.5v-47.5c0-0.2,0.1-0.4,0.2-0.5c0.1-0.1,0.3-0.2,0.5-0.2h2.4c0.2,0,0.4,0.1,0.5,0.2
			c0.1,0.1,0.2,0.3,0.2,0.5v47.5c0,0.2-0.1,0.4-0.2,0.5c-0.1,0.1-0.3,0.2-0.5,0.2h-2.4C697.7,1767.1,697.6,1767,697.4,1766.8z
			 M704.6,1721.7c-0.1-0.1-0.2-0.3-0.2-0.5v-2.4c0-0.2,0.1-0.4,0.2-0.5c0.1-0.1,0.3-0.2,0.5-0.2h18.2c0.2,0,0.4,0.1,0.5,0.2
			c0.1,0.1,0.2,0.3,0.2,0.5v2.4c0,0.2-0.1,0.4-0.2,0.5c-0.1,0.1-0.3,0.2-0.5,0.2H705C704.8,1721.9,704.7,1721.8,704.6,1721.7z
			 M704.6,1743.9c-0.1-0.1-0.2-0.3-0.2-0.5v-2.4c0-0.2,0.1-0.4,0.2-0.5c0.1-0.1,0.3-0.2,0.5-0.2h15.1c0.2,0,0.4,0.1,0.5,0.2
			c0.1,0.1,0.2,0.3,0.2,0.5v2.4c0,0.2-0.1,0.4-0.2,0.5c-0.1,0.1-0.3,0.2-0.5,0.2H705C704.8,1744.2,704.7,1744.1,704.6,1743.9z
			 M704.6,1766.8c-0.1-0.1-0.2-0.3-0.2-0.5v-2.4c0-0.2,0.1-0.4,0.2-0.5c0.1-0.1,0.3-0.2,0.5-0.2h18.2c0.2,0,0.4,0.1,0.5,0.2
			c0.1,0.1,0.2,0.3,0.2,0.5v2.4c0,0.2-0.1,0.4-0.2,0.5c-0.1,0.1-0.3,0.2-0.5,0.2H705C704.8,1767.1,704.7,1767,704.6,1766.8z"/>
	</g>
	<g class="st1">
		<path d="M795.6,1764.3c-2-1.8-3.5-4.3-4.5-7.5c-0.4-1.3-0.7-3.1-0.9-5.1c-0.2-2.1-0.3-5.1-0.3-9.1c0-4,0.1-7,0.3-9.1
			c0.2-2.1,0.5-3.8,0.9-5.1c1-3.2,2.4-5.7,4.5-7.5c2-1.8,4.5-2.9,7.5-3.3h0.1c0.2,0,0.3,0.1,0.4,0.2c0.1,0.1,0.1,0.3,0.1,0.5v2.4
			c0,0.4-0.2,0.6-0.6,0.7c-2.1,0.3-3.9,1.2-5.3,2.6c-1.4,1.4-2.5,3.2-3.2,5.5c-0.3,1.1-0.6,2.6-0.8,4.5c-0.2,2-0.3,4.8-0.3,8.6
			c0,3.7,0.1,6.6,0.3,8.6c0.2,2,0.4,3.5,0.8,4.5c0.7,2.3,1.7,4.2,3.2,5.5c1.4,1.4,3.2,2.3,5.3,2.6c0.4,0,0.6,0.3,0.6,0.7v2.4
			c0,0.2-0.1,0.4-0.2,0.5c-0.1,0.1-0.3,0.2-0.5,0.1C800.1,1767.3,797.6,1766.1,795.6,1764.3z M807.7,1767.6c-0.2,0-0.3-0.1-0.4-0.2
			c-0.1-0.1-0.1-0.3-0.1-0.5v-2.4c0-0.4,0.2-0.7,0.6-0.7c2.1-0.4,3.8-1.3,5.3-2.6s2.5-3.2,3.2-5.4c0.7-2.1,1-5.3,1-9.4
			c0-0.3-0.1-0.4-0.4-0.4h-10.1c-0.2,0-0.3-0.1-0.5-0.2c-0.1-0.1-0.2-0.3-0.2-0.5v-2.2c0-0.2,0.1-0.4,0.2-0.5
			c0.1-0.1,0.3-0.2,0.5-0.2h13.5c0.2,0,0.4,0.1,0.5,0.2c0.1,0.1,0.2,0.3,0.2,0.5v3c0,2.3-0.1,4.4-0.3,6.2c-0.2,1.8-0.5,3.4-0.8,4.6
			c-1,3.2-2.4,5.7-4.5,7.5c-2,1.8-4.5,3-7.5,3.3H807.7z M816.7,1728.5c-0.2,0-0.4-0.1-0.5-0.4c-1-2-2.1-3.5-3.5-4.6
			c-1.4-1.1-3-1.9-4.9-2.2c-0.4-0.1-0.6-0.3-0.6-0.7v-2.4c0-0.2,0.1-0.4,0.2-0.5c0.1-0.1,0.3-0.2,0.5-0.1c2.7,0.4,5.1,1.4,7,2.9
			c1.9,1.6,3.4,3.5,4.4,5.8c0.1,0.3,0.1,0.5,0.1,0.6c0,0.2-0.1,0.4-0.3,0.5l-2.1,1.2C817,1728.5,816.9,1728.5,816.7,1728.5z"/>
	</g>
	<g class="st1">
		<path d="M886.4,1766.8c-0.1-0.1-0.2-0.3-0.2-0.5v-47.5c0-0.2,0.1-0.4,0.2-0.5c0.1-0.1,0.3-0.2,0.5-0.2h2.4c0.2,0,0.4,0.1,0.5,0.2
			c0.1,0.1,0.2,0.3,0.2,0.5v47.5c0,0.2-0.1,0.4-0.2,0.5c-0.1,0.1-0.3,0.2-0.5,0.2h-2.4C886.7,1767.1,886.5,1767,886.4,1766.8z
			 M893.6,1721.7c-0.1-0.1-0.2-0.3-0.2-0.5v-2.4c0-0.2,0.1-0.4,0.2-0.5c0.1-0.1,0.3-0.2,0.5-0.2h18.2c0.2,0,0.4,0.1,0.5,0.2
			c0.1,0.1,0.2,0.3,0.2,0.5v2.4c0,0.2-0.1,0.4-0.2,0.5c-0.1,0.1-0.3,0.2-0.5,0.2H894C893.8,1721.9,893.7,1721.8,893.6,1721.7z
			 M893.6,1743.9c-0.1-0.1-0.2-0.3-0.2-0.5v-2.4c0-0.2,0.1-0.4,0.2-0.5c0.1-0.1,0.3-0.2,0.5-0.2h15.1c0.2,0,0.4,0.1,0.5,0.2
			c0.1,0.1,0.2,0.3,0.2,0.5v2.4c0,0.2-0.1,0.4-0.2,0.5c-0.1,0.1-0.3,0.2-0.5,0.2H894C893.8,1744.2,893.7,1744.1,893.6,1743.9z
			 M893.6,1766.8c-0.1-0.1-0.2-0.3-0.2-0.5v-2.4c0-0.2,0.1-0.4,0.2-0.5c0.1-0.1,0.3-0.2,0.5-0.2h18.2c0.2,0,0.4,0.1,0.5,0.2
			c0.1,0.1,0.2,0.3,0.2,0.5v2.4c0,0.2-0.1,0.4-0.2,0.5c-0.1,0.1-0.3,0.2-0.5,0.2H894C893.8,1767.1,893.7,1767,893.6,1766.8z"/>
	</g>
	<g class="st1">
		<path d="M1007.3,1766.9c-0.2-0.1-0.4-0.3-0.5-0.6l-25.9-46.6c-0.2-0.2-0.3-0.5-0.3-0.9c0-0.5,0.2-0.8,0.7-0.8h2.1
			c0.3,0,0.5,0,0.6,0.1c0.2,0.1,0.3,0.3,0.5,0.6l25.9,46.8c0.1,0.1,0.2,0.3,0.2,0.5s0,0.3,0,0.5c-0.1,0.3-0.3,0.5-0.6,0.5h-2.2
			C1007.7,1767.1,1007.5,1767,1007.3,1766.9z M980.9,1766.8c-0.1-0.1-0.2-0.3-0.2-0.5v-38.8c0-0.4,0.1-0.6,0.3-0.6
			c0.2,0,0.4,0.1,0.5,0.4l2.5,4.5c0.1,0.3,0.2,0.6,0.2,0.9v33.6c0,0.2-0.1,0.4-0.2,0.5c-0.1,0.1-0.3,0.2-0.5,0.2h-2.2
			C981.2,1767.1,981,1767,980.9,1766.8z M1007.5,1753.2c-0.1-0.3-0.2-0.6-0.2-0.9v-33.5c0-0.2,0.1-0.4,0.2-0.5
			c0.1-0.1,0.3-0.2,0.5-0.2h2.2c0.2,0,0.4,0.1,0.5,0.2c0.1,0.1,0.2,0.3,0.2,0.5v38.7c0,0.4-0.1,0.6-0.3,0.6c-0.2,0-0.3-0.1-0.5-0.4
			L1007.5,1753.2z"/>
	</g>
	<g class="st1">
		<path d="M1070.7,1721.7c-0.1-0.1-0.2-0.3-0.2-0.5v-2.4c0-0.2,0.1-0.4,0.2-0.5c0.1-0.1,0.3-0.2,0.5-0.2h29.9c0.2,0,0.4,0.1,0.5,0.2
			c0.1,0.1,0.2,0.3,0.2,0.5v2.4c0,0.2-0.1,0.4-0.2,0.5c-0.1,0.1-0.3,0.2-0.5,0.2h-29.9C1071,1721.9,1070.9,1721.8,1070.7,1721.7z
			 M1084.4,1766.8c-0.1-0.1-0.2-0.3-0.2-0.5v-40c0-0.2,0.1-0.4,0.2-0.5c0.1-0.1,0.3-0.2,0.5-0.2h2.4c0.2,0,0.4,0.1,0.5,0.2
			c0.1,0.1,0.2,0.3,0.2,0.5v40c0,0.2-0.1,0.4-0.2,0.5c-0.1,0.1-0.3,0.2-0.5,0.2h-2.4C1084.7,1767.1,1084.6,1767,1084.4,1766.8z"/>
	</g>
	<g class="st1">
		<path d="M1173.6,1764.3c-2-1.8-3.5-4.3-4.4-7.5c-0.4-1.3-0.7-3-0.9-5.1c-0.2-2.1-0.3-5.1-0.3-9.1c0-4,0.1-7.1,0.3-9.1
			c0.2-2.1,0.5-3.8,0.9-5.1c1-3.2,2.4-5.7,4.4-7.5c2-1.8,4.5-2.9,7.4-3.3h0.1c0.2,0,0.3,0.1,0.4,0.2c0.1,0.1,0.2,0.3,0.2,0.5v2.4
			c0,0.4-0.2,0.6-0.6,0.7c-4.2,0.8-7,3.5-8.4,8.1c-0.3,1.1-0.6,2.7-0.8,4.6c-0.2,2-0.3,4.8-0.3,8.5c0,3.6,0.1,6.5,0.3,8.5
			c0.2,2,0.5,3.5,0.8,4.6c1.4,4.7,4.2,7.4,8.4,8.1c0.4,0,0.6,0.3,0.6,0.7v2.4c0,0.2-0.1,0.4-0.2,0.5c-0.1,0.1-0.3,0.2-0.5,0.1
			C1178,1767.3,1175.5,1766.1,1173.6,1764.3z M1185.7,1767.6c-0.2,0-0.3-0.1-0.4-0.2c-0.1-0.1-0.2-0.3-0.2-0.5v-2.4
			c0-0.4,0.2-0.7,0.6-0.7c4.2-0.8,7-3.5,8.4-8.1c0.3-1.2,0.6-2.7,0.8-4.7c0.2-2,0.3-4.8,0.3-8.4c0-3.6-0.1-6.4-0.3-8.4
			c-0.2-2-0.5-3.6-0.8-4.7c-1.4-4.7-4.2-7.4-8.4-8.1c-0.4-0.1-0.6-0.3-0.6-0.7v-2.4c0-0.2,0.1-0.4,0.2-0.5c0.1-0.1,0.3-0.2,0.5-0.1
			c2.9,0.4,5.4,1.5,7.4,3.3s3.5,4.3,4.5,7.5c0.4,1.4,0.7,3.1,0.9,5.2c0.2,2.1,0.3,5.1,0.3,9.1c0,3.9-0.1,6.9-0.3,9
			c-0.2,2.1-0.5,3.8-0.9,5.2c-1,3.2-2.4,5.7-4.5,7.5s-4.5,2.9-7.4,3.3H1185.7z"/>
	</g>
	<g class="st1">
		<path d="M220.2,1837.9c-0.1-0.1-0.2-0.3-0.2-0.5v-2.4c0-0.2,0.1-0.4,0.2-0.5c0.1-0.1,0.3-0.2,0.5-0.2h29.9c0.2,0,0.4,0.1,0.5,0.2
			c0.1,0.1,0.2,0.3,0.2,0.5v2.4c0,0.2-0.1,0.4-0.2,0.5c-0.1,0.1-0.3,0.2-0.5,0.2h-29.9C220.5,1838.2,220.4,1838.1,220.2,1837.9z
			 M234,1883.1c-0.1-0.1-0.2-0.3-0.2-0.5v-40c0-0.2,0.1-0.4,0.2-0.5c0.1-0.1,0.3-0.2,0.5-0.2h2.4c0.2,0,0.4,0.1,0.5,0.2
			c0.1,0.1,0.2,0.3,0.2,0.5v40c0,0.2-0.1,0.4-0.2,0.5c-0.1,0.1-0.3,0.2-0.5,0.2h-2.4C234.2,1883.3,234.1,1883.2,234,1883.1z"/>
	</g>
	<g class="st1">
		<path d="M320,1883.1c-0.1-0.1-0.2-0.3-0.3-0.5l-10.5-47.4l-0.1-0.3c0-0.1,0.1-0.3,0.2-0.4c0.1-0.1,0.2-0.1,0.4-0.1h2.3
			c0.3,0,0.5,0,0.6,0.1c0.1,0.1,0.2,0.3,0.3,0.6l10.1,47.1c0,0.1,0.1,0.3,0.1,0.5c0,0.4-0.2,0.6-0.6,0.6h-2.1
			C320.3,1883.3,320.1,1883.2,320,1883.1z M344.4,1883.1c-0.1-0.1-0.2-0.3-0.3-0.5l-10.3-40.4h-0.1l-8.4,32.5c0,0.1-0.1,0.3-0.2,0.4
			c-0.1,0.1-0.1,0.1-0.2,0.1c-0.2,0-0.3-0.2-0.4-0.5l-1-5c0-0.3,0-0.6,0-0.9l8.5-33.8c0.1-0.2,0.2-0.4,0.3-0.5
			c0.1-0.1,0.3-0.2,0.5-0.2h1.9c0.2,0,0.4,0.1,0.5,0.2c0.1,0.1,0.2,0.3,0.3,0.5l12,47.1l0.1,0.4c0,0.5-0.2,0.8-0.6,0.8h-2.1
			C344.6,1883.3,344.5,1883.2,344.4,1883.1z M347.3,1869.8c-0.1-0.4-0.1-0.7-0.1-0.9l7.2-33.9c0-0.3,0.1-0.5,0.3-0.6
			c0.1-0.1,0.3-0.1,0.6-0.1h2.3c0.2,0,0.4,0.1,0.5,0.2c0.1,0.1,0.1,0.3,0.1,0.6l-8.8,39.6c0,0.1-0.1,0.3-0.2,0.4
			c-0.1,0.1-0.1,0.1-0.2,0.1c-0.2,0-0.3-0.1-0.4-0.4L347.3,1869.8z"/>
	</g>
	<g class="st1">
		<path d="M409.7,1883.1c-0.1-0.1-0.1-0.3,0-0.5l13.4-41c0.1-0.3,0.3-0.4,0.5-0.4c0.1,0,0.2,0,0.2,0.1s0.1,0.2,0.2,0.3l1.2,3.9
			c0.1,0.1,0.1,0.3,0.1,0.5c0,0.2,0,0.4-0.1,0.5l-6.6,20.2h12.7c0.4,0,0.6,0.2,0.8,0.6l0.8,2.4l0.1,0.3c0,0.1-0.1,0.3-0.2,0.4
			c-0.1,0.1-0.2,0.1-0.4,0.1h-14.9l-3.9,12.2c-0.1,0.3-0.2,0.5-0.3,0.6c-0.1,0.1-0.3,0.1-0.5,0.1h-2.5
			C409.9,1883.3,409.7,1883.2,409.7,1883.1z M440.6,1882.7l-15.2-47.5l-0.1-0.3c0-0.2,0.1-0.3,0.2-0.4c0.1-0.1,0.2-0.1,0.4-0.1h2.3
			c0.4,0,0.6,0.2,0.8,0.7l15.3,47.5l0.1,0.2c0,0.1,0,0.3-0.1,0.4c-0.1,0.1-0.2,0.1-0.4,0.1h-2.5
			C440.9,1883.3,440.7,1883.1,440.6,1882.7z"/>
	</g>
	<g class="st1">
		<path d="M504.2,1883.1c-0.1-0.1-0.1-0.3,0-0.5l13.4-41c0.1-0.3,0.3-0.4,0.5-0.4c0.1,0,0.2,0,0.2,0.1s0.1,0.2,0.2,0.3l1.2,3.9
			c0.1,0.1,0.1,0.3,0.1,0.5c0,0.2,0,0.4-0.1,0.5l-6.6,20.2h12.7c0.4,0,0.6,0.2,0.8,0.6l0.8,2.4l0.1,0.3c0,0.1-0.1,0.3-0.2,0.4
			c-0.1,0.1-0.2,0.1-0.4,0.1h-14.9l-3.9,12.2c-0.1,0.3-0.2,0.5-0.3,0.6c-0.1,0.1-0.3,0.1-0.5,0.1h-2.5
			C504.4,1883.3,504.2,1883.2,504.2,1883.1z M535.1,1882.7l-15.2-47.5l-0.1-0.3c0-0.2,0.1-0.3,0.2-0.4c0.1-0.1,0.2-0.1,0.4-0.1h2.3
			c0.4,0,0.7,0.2,0.8,0.7l15.3,47.5l0.1,0.2c0,0.1,0,0.3-0.1,0.4c-0.1,0.1-0.2,0.1-0.4,0.1h-2.5
			C535.4,1883.3,535.2,1883.1,535.1,1882.7z"/>
	</g>
	<g class="st1">
		<path d="M602.9,1883.1c-0.1-0.1-0.2-0.3-0.2-0.5v-47.5c0-0.2,0.1-0.4,0.2-0.5c0.1-0.1,0.3-0.2,0.5-0.2h2.4c0.2,0,0.4,0.1,0.5,0.2
			c0.1,0.1,0.2,0.3,0.2,0.5v47.5c0,0.2-0.1,0.4-0.2,0.5c-0.1,0.1-0.3,0.2-0.5,0.2h-2.4C603.2,1883.3,603.1,1883.2,602.9,1883.1z
			 M610.1,1883.1c-0.1-0.1-0.2-0.3-0.2-0.5v-2.4c0-0.2,0.1-0.4,0.2-0.5c0.1-0.1,0.3-0.2,0.5-0.2h18.2c0.2,0,0.4,0.1,0.5,0.2
			c0.1,0.1,0.2,0.3,0.2,0.5v2.4c0,0.2-0.1,0.4-0.2,0.5c-0.1,0.1-0.3,0.2-0.5,0.2h-18.2C610.3,1883.3,610.2,1883.2,610.1,1883.1z"/>
	</g>
	<g class="st1">
		<path d="M697.4,1883.1c-0.1-0.1-0.2-0.3-0.2-0.5v-47.5c0-0.2,0.1-0.4,0.2-0.5c0.1-0.1,0.3-0.2,0.5-0.2h2.4c0.2,0,0.4,0.1,0.5,0.2
			c0.1,0.1,0.2,0.3,0.2,0.5v47.5c0,0.2-0.1,0.4-0.2,0.5c-0.1,0.1-0.3,0.2-0.5,0.2h-2.4C697.7,1883.3,697.6,1883.2,697.4,1883.1z
			 M704.6,1837.9c-0.1-0.1-0.2-0.3-0.2-0.5v-2.4c0-0.2,0.1-0.4,0.2-0.5c0.1-0.1,0.3-0.2,0.5-0.2h18.2c0.2,0,0.4,0.1,0.5,0.2
			c0.1,0.1,0.2,0.3,0.2,0.5v2.4c0,0.2-0.1,0.4-0.2,0.5c-0.1,0.1-0.3,0.2-0.5,0.2H705C704.8,1838.2,704.7,1838.1,704.6,1837.9z
			 M704.6,1860.7c-0.1-0.1-0.2-0.3-0.2-0.5v-2.4c0-0.2,0.1-0.4,0.2-0.5c0.1-0.1,0.3-0.2,0.5-0.2h15.1c0.2,0,0.4,0.1,0.5,0.2
			c0.1,0.1,0.2,0.3,0.2,0.5v2.4c0,0.2-0.1,0.4-0.2,0.5c-0.1,0.1-0.3,0.2-0.5,0.2H705C704.8,1860.9,704.7,1860.8,704.6,1860.7z"/>
	</g>
	<g class="st1">
		<path d="M787.7,1883.1c-0.1-0.1-0.1-0.3,0-0.5l13.4-41c0.1-0.3,0.3-0.4,0.5-0.4c0.1,0,0.2,0,0.2,0.1s0.1,0.2,0.2,0.3l1.2,3.9
			c0.1,0.1,0.1,0.3,0.1,0.5c0,0.2,0,0.4-0.1,0.5l-6.6,20.2h12.7c0.4,0,0.6,0.2,0.8,0.6l0.8,2.4l0.1,0.3c0,0.1-0.1,0.3-0.2,0.4
			c-0.1,0.1-0.2,0.1-0.4,0.1h-14.9l-3.9,12.2c-0.1,0.3-0.2,0.5-0.3,0.6c-0.1,0.1-0.3,0.1-0.5,0.1h-2.5
			C787.9,1883.3,787.7,1883.2,787.7,1883.1z M818.6,1882.7l-15.2-47.5l-0.1-0.3c0-0.2,0.1-0.3,0.2-0.4c0.1-0.1,0.2-0.1,0.4-0.1h2.3
			c0.4,0,0.7,0.2,0.8,0.7l15.3,47.5l0.1,0.2c0,0.1,0,0.3-0.1,0.4c-0.1,0.1-0.2,0.1-0.4,0.1h-2.5
			C818.9,1883.3,818.7,1883.1,818.6,1882.7z"/>
	</g>
	<g class="st1">
		<path d="M881.7,1837.9c-0.1-0.1-0.2-0.3-0.2-0.5v-2.4c0-0.2,0.1-0.4,0.2-0.5c0.1-0.1,0.3-0.2,0.5-0.2h29.9c0.2,0,0.4,0.1,0.5,0.2
			c0.1,0.1,0.2,0.3,0.2,0.5v2.4c0,0.2-0.1,0.4-0.2,0.5c-0.1,0.1-0.3,0.2-0.5,0.2h-29.9C882,1838.2,881.9,1838.1,881.7,1837.9z
			 M895.4,1883.1c-0.1-0.1-0.2-0.3-0.2-0.5v-40c0-0.2,0.1-0.4,0.2-0.5c0.1-0.1,0.3-0.2,0.5-0.2h2.4c0.2,0,0.4,0.1,0.5,0.2
			c0.1,0.1,0.2,0.3,0.2,0.5v40c0,0.2-0.1,0.4-0.2,0.5c-0.1,0.1-0.3,0.2-0.5,0.2h-2.4C895.7,1883.3,895.6,1883.2,895.4,1883.1z"/>
	</g>
	<g class="st1">
		<path d="M992.9,1883.1c-0.1-0.1-0.2-0.3-0.2-0.5v-47.5c0-0.2,0.1-0.4,0.2-0.5c0.1-0.1,0.3-0.2,0.5-0.2h2.4c0.2,0,0.4,0.1,0.5,0.2
			c0.1,0.1,0.2,0.3,0.2,0.5v47.5c0,0.2-0.1,0.4-0.2,0.5c-0.1,0.1-0.3,0.2-0.5,0.2h-2.4C993.2,1883.3,993,1883.2,992.9,1883.1z"/>
	</g>
	<g class="st1">
		<path d="M1075.4,1883.1c-0.1-0.1-0.2-0.3-0.2-0.5v-47.5c0-0.2,0.1-0.4,0.2-0.5c0.1-0.1,0.3-0.2,0.5-0.2h2.4c0.2,0,0.4,0.1,0.5,0.2
			c0.1,0.1,0.2,0.3,0.2,0.5v47.5c0,0.2-0.1,0.4-0.2,0.5c-0.1,0.1-0.3,0.2-0.5,0.2h-2.4C1075.7,1883.3,1075.5,1883.2,1075.4,1883.1z
			 M1082.6,1837.9c-0.1-0.1-0.2-0.3-0.2-0.5v-2.4c0-0.2,0.1-0.4,0.2-0.5c0.1-0.1,0.3-0.2,0.5-0.2h18.2c0.2,0,0.4,0.1,0.5,0.2
			c0.1,0.1,0.2,0.3,0.2,0.5v2.4c0,0.2-0.1,0.4-0.2,0.5c-0.1,0.1-0.3,0.2-0.5,0.2H1083C1082.8,1838.2,1082.7,1838.1,1082.6,1837.9z
			 M1082.6,1860.2c-0.1-0.1-0.2-0.3-0.2-0.5v-2.4c0-0.2,0.1-0.4,0.2-0.5c0.1-0.1,0.3-0.2,0.5-0.2h15.1c0.2,0,0.4,0.1,0.5,0.2
			c0.1,0.1,0.2,0.3,0.2,0.5v2.4c0,0.2-0.1,0.4-0.2,0.5c-0.1,0.1-0.3,0.2-0.5,0.2H1083C1082.8,1860.4,1082.7,1860.3,1082.6,1860.2z
			 M1082.6,1883.1c-0.1-0.1-0.2-0.3-0.2-0.5v-2.4c0-0.2,0.1-0.4,0.2-0.5c0.1-0.1,0.3-0.2,0.5-0.2h18.2c0.2,0,0.4,0.1,0.5,0.2
			c0.1,0.1,0.2,0.3,0.2,0.5v2.4c0,0.2-0.1,0.4-0.2,0.5c-0.1,0.1-0.3,0.2-0.5,0.2H1083C1082.8,1883.3,1082.7,1883.2,1082.6,1883.1z"
			/>
	</g>
	<g class="st1">
		<path d="M1196.3,1883.2c-0.2-0.1-0.4-0.3-0.5-0.6L1170,1836c-0.2-0.2-0.3-0.5-0.3-0.9c0-0.5,0.2-0.8,0.7-0.8h2.1
			c0.3,0,0.5,0,0.6,0.1c0.2,0.1,0.3,0.3,0.5,0.6l25.9,46.8c0.1,0.1,0.2,0.3,0.2,0.5s0,0.3,0,0.5c-0.1,0.3-0.3,0.5-0.6,0.5h-2.2
			C1196.7,1883.3,1196.5,1883.3,1196.3,1883.2z M1169.9,1883.1c-0.1-0.1-0.2-0.3-0.2-0.5v-38.8c0-0.4,0.1-0.6,0.3-0.6
			c0.2,0,0.4,0.1,0.5,0.4l2.5,4.5c0.1,0.3,0.2,0.6,0.2,0.9v33.6c0,0.2-0.1,0.4-0.2,0.5c-0.1,0.1-0.3,0.2-0.5,0.2h-2.2
			C1170.2,1883.3,1170,1883.2,1169.9,1883.1z M1196.5,1869.5c-0.1-0.3-0.2-0.6-0.2-0.9v-33.5c0-0.2,0.1-0.4,0.2-0.5
			c0.1-0.1,0.3-0.2,0.5-0.2h2.2c0.2,0,0.4,0.1,0.5,0.2c0.1,0.1,0.2,0.3,0.2,0.5v38.7c0,0.4-0.1,0.6-0.3,0.6c-0.2,0-0.3-0.1-0.5-0.4
			L1196.5,1869.5z"/>
	</g>
	<g class="st1">
		<path d="M235,1998.8l-14.6-47.2l-0.1-0.4c0-0.2,0.1-0.3,0.2-0.4c0.1-0.1,0.2-0.1,0.4-0.1h2.3c0.3,0,0.5,0,0.6,0.1
			c0.2,0.1,0.2,0.3,0.3,0.6l14.4,46.9c0.1,0.3,0.1,0.5,0.1,0.6c0,0.4-0.2,0.6-0.6,0.6h-2.1C235.4,1999.5,235.1,1999.3,235,1998.8z
			 M238.7,1988.5c0-0.1-0.1-0.3-0.1-0.5c0-0.1,0-0.4,0.1-0.8l10.7-35.9c0.1-0.3,0.2-0.5,0.3-0.6c0.1-0.1,0.3-0.1,0.6-0.1h2.4
			c0.2,0,0.4,0.1,0.5,0.3c0.1,0.2,0.1,0.4,0,0.7l-12.5,40.8c0,0.1-0.1,0.3-0.2,0.4c-0.1,0.1-0.1,0.1-0.2,0.1c-0.1,0-0.3-0.2-0.5-0.5
			L238.7,1988.5z"/>
	</g>
	<g class="st1">
		<path d="M331.4,1999.3c-0.1-0.1-0.2-0.3-0.2-0.5v-47.5c0-0.2,0.1-0.4,0.2-0.5c0.1-0.1,0.3-0.2,0.5-0.2h2.4c0.2,0,0.4,0.1,0.5,0.2
			c0.1,0.1,0.2,0.3,0.2,0.5v47.5c0,0.2-0.1,0.4-0.2,0.5c-0.1,0.1-0.3,0.2-0.5,0.2h-2.4C331.7,1999.5,331.6,1999.5,331.4,1999.3z"/>
	</g>
	<g class="st1">
		<path d="M413.9,1999.3c-0.1-0.1-0.2-0.3-0.2-0.5v-47.5c0-0.2,0.1-0.4,0.2-0.5c0.1-0.1,0.3-0.2,0.5-0.2h2.4c0.2,0,0.4,0.1,0.5,0.2
			c0.1,0.1,0.2,0.3,0.2,0.5v47.5c0,0.2-0.1,0.4-0.2,0.5c-0.1,0.1-0.3,0.2-0.5,0.2h-2.4C414.2,1999.5,414.1,1999.5,413.9,1999.3z
			 M421.1,1954.2c-0.1-0.1-0.2-0.3-0.2-0.5v-2.4c0-0.2,0.1-0.4,0.2-0.5c0.1-0.1,0.3-0.2,0.5-0.2h18.2c0.2,0,0.4,0.1,0.5,0.2
			c0.1,0.1,0.2,0.3,0.2,0.5v2.4c0,0.2-0.1,0.4-0.2,0.5c-0.1,0.1-0.3,0.2-0.5,0.2h-18.2C421.3,1954.4,421.2,1954.3,421.1,1954.2z
			 M421.1,1976.4c-0.1-0.1-0.2-0.3-0.2-0.5v-2.4c0-0.2,0.1-0.4,0.2-0.5c0.1-0.1,0.3-0.2,0.5-0.2h15.1c0.2,0,0.4,0.1,0.5,0.2
			c0.1,0.1,0.2,0.3,0.2,0.5v2.4c0,0.2-0.1,0.4-0.2,0.5c-0.1,0.1-0.3,0.2-0.5,0.2h-15.1C421.3,1976.7,421.2,1976.6,421.1,1976.4z
			 M421.1,1999.3c-0.1-0.1-0.2-0.3-0.2-0.5v-2.4c0-0.2,0.1-0.4,0.2-0.5c0.1-0.1,0.3-0.2,0.5-0.2h18.2c0.2,0,0.4,0.1,0.5,0.2
			c0.1,0.1,0.2,0.3,0.2,0.5v2.4c0,0.2-0.1,0.4-0.2,0.5c-0.1,0.1-0.3,0.2-0.5,0.2h-18.2C421.3,1999.5,421.2,1999.5,421.1,1999.3z"/>
	</g>
	<g class="st1">
		<path d="M508.4,1999.3c-0.1-0.1-0.2-0.3-0.2-0.5v-47.5c0-0.2,0.1-0.4,0.2-0.5c0.1-0.1,0.3-0.2,0.5-0.2h2.4c0.2,0,0.4,0.1,0.5,0.2
			c0.1,0.1,0.2,0.3,0.2,0.5v47.5c0,0.2-0.1,0.4-0.2,0.5c-0.1,0.1-0.3,0.2-0.5,0.2h-2.4C508.7,1999.5,508.6,1999.5,508.4,1999.3z
			 M515.6,1977.4c-0.1-0.1-0.2-0.3-0.2-0.5v-2.4c0-0.2,0.1-0.4,0.2-0.5c0.1-0.1,0.3-0.2,0.5-0.2h7.6c3.2,0,5.6-0.8,7.3-2.5
			s2.5-4,2.5-7.2s-0.8-5.5-2.5-7.2c-1.7-1.7-4.1-2.5-7.3-2.5H516c-0.2,0-0.3-0.1-0.5-0.2c-0.1-0.1-0.2-0.3-0.2-0.5v-2.4
			c0-0.2,0.1-0.4,0.2-0.5c0.1-0.1,0.3-0.2,0.5-0.2h7.7c2.8,0,5.2,0.5,7.2,1.6c2,1.1,3.6,2.6,4.6,4.7c1.1,2,1.6,4.5,1.6,7.2
			c0,2.6-0.5,5-1.6,7.1c-1,2.1-2.6,3.7-4.6,4.8c-2.1,1.1-4.6,1.7-7.6,1.6H516C515.8,1977.6,515.7,1977.5,515.6,1977.4z
			 M533.9,1999.4c-0.1-0.1-0.2-0.3-0.3-0.5l-7.4-17.1c-0.1-0.3-0.1-0.6,0-0.7c0.1-0.1,0.2-0.2,0.4-0.2c0.2,0,0.3-0.1,0.3-0.1
			c0.8-0.1,1.5-0.2,1.9-0.4c0.1,0,0.2-0.1,0.3-0.1c0.3,0,0.5,0.2,0.5,0.5l8,17.9c0,0.1,0.1,0.2,0.1,0.4c0,0.3-0.2,0.4-0.5,0.4h-2.9
			C534.2,1999.5,534,1999.5,533.9,1999.4z"/>
	</g>
	<g class="st1">
		<path d="M613,1998.8l-14.6-47.2l-0.1-0.4c0-0.2,0.1-0.3,0.2-0.4c0.1-0.1,0.2-0.1,0.4-0.1h2.3c0.3,0,0.5,0,0.6,0.1
			c0.2,0.1,0.2,0.3,0.3,0.6l14.4,46.9c0.1,0.3,0.1,0.5,0.1,0.6c0,0.4-0.2,0.6-0.6,0.6h-2.1C613.4,1999.5,613.1,1999.3,613,1998.8z
			 M616.7,1988.5c0-0.1-0.1-0.3-0.1-0.5c0-0.1,0-0.4,0.1-0.8l10.7-35.9c0.1-0.3,0.2-0.5,0.3-0.6c0.1-0.1,0.3-0.1,0.6-0.1h2.4
			c0.2,0,0.4,0.1,0.5,0.3c0.1,0.2,0.1,0.4,0,0.7l-12.5,40.8c0,0.1-0.1,0.3-0.2,0.4c-0.1,0.1-0.1,0.1-0.2,0.1c-0.1,0-0.3-0.2-0.5-0.5
			L616.7,1988.5z"/>
	</g>
	<g class="st1">
		<path d="M709.4,1999.3c-0.1-0.1-0.2-0.3-0.2-0.5v-47.5c0-0.2,0.1-0.4,0.2-0.5c0.1-0.1,0.3-0.2,0.5-0.2h2.4c0.2,0,0.4,0.1,0.5,0.2
			c0.1,0.1,0.2,0.3,0.2,0.5v47.5c0,0.2-0.1,0.4-0.2,0.5c-0.1,0.1-0.3,0.2-0.5,0.2h-2.4C709.7,1999.5,709.6,1999.5,709.4,1999.3z"/>
	</g>
	<g class="st1">
		<path d="M791.8,1998.9c-1.4-0.7-2.5-1.5-3.5-2.6c-0.2-0.1-0.3-0.3-0.3-0.6c0-0.2,0.1-0.3,0.2-0.5c0.1-0.1,0.2-0.2,0.3-0.3l1.4-1.4
			c0.1-0.1,0.3-0.2,0.5-0.2c0.2,0,0.4,0.1,0.5,0.2c0.7,0.7,1.5,1.3,2.4,1.8c0.9,0.5,1.9,0.8,3,1c0.4,0,0.6,0.3,0.6,0.7v2.4
			c0,0.2-0.1,0.4-0.2,0.6c-0.1,0.1-0.3,0.2-0.5,0.1C794.6,2000,793.1,1999.6,791.8,1998.9z M800.9,2000c-0.2,0-0.3-0.1-0.4-0.2
			c-0.1-0.1-0.2-0.3-0.2-0.5v-2.4c0-0.4,0.2-0.6,0.6-0.8c2-0.6,3.5-1.8,4.5-3.6s1.6-4.4,1.6-7.6v-33.6c0-0.2,0.1-0.4,0.2-0.5
			c0.1-0.1,0.3-0.2,0.5-0.2h2.4c0.2,0,0.4,0.1,0.5,0.2c0.1,0.1,0.2,0.3,0.2,0.5v33.6c0,4.4-0.8,7.8-2.5,10.3
			c-1.7,2.5-4.1,4.1-7.1,4.7H800.9z"/>
	</g>
	<g class="st1">
		<path d="M886.4,1999.3c-0.1-0.1-0.2-0.3-0.2-0.5v-47.5c0-0.2,0.1-0.4,0.2-0.5c0.1-0.1,0.3-0.2,0.5-0.2h2.4c0.2,0,0.4,0.1,0.5,0.2
			c0.1,0.1,0.2,0.3,0.2,0.5v47.5c0,0.2-0.1,0.4-0.2,0.5c-0.1,0.1-0.3,0.2-0.5,0.2h-2.4C886.7,1999.5,886.5,1999.5,886.4,1999.3z
			 M893.6,1954.2c-0.1-0.1-0.2-0.3-0.2-0.5v-2.4c0-0.2,0.1-0.4,0.2-0.5c0.1-0.1,0.3-0.2,0.5-0.2h18.2c0.2,0,0.4,0.1,0.5,0.2
			c0.1,0.1,0.2,0.3,0.2,0.5v2.4c0,0.2-0.1,0.4-0.2,0.5c-0.1,0.1-0.3,0.2-0.5,0.2H894C893.8,1954.4,893.7,1954.3,893.6,1954.2z
			 M893.6,1976.9c-0.1-0.1-0.2-0.3-0.2-0.5v-2.4c0-0.2,0.1-0.4,0.2-0.5c0.1-0.1,0.3-0.2,0.5-0.2h15.1c0.2,0,0.4,0.1,0.5,0.2
			c0.1,0.1,0.2,0.3,0.2,0.5v2.4c0,0.2-0.1,0.4-0.2,0.5c-0.1,0.1-0.3,0.2-0.5,0.2H894C893.8,1977.2,893.7,1977.1,893.6,1976.9z"/>
	</g>
	<g class="st1">
		<path d="M980.9,1999.3c-0.1-0.1-0.2-0.3-0.2-0.5v-47.5c0-0.2,0.1-0.4,0.2-0.5c0.1-0.1,0.3-0.2,0.5-0.2h2.4c0.2,0,0.4,0.1,0.5,0.2
			c0.1,0.1,0.2,0.3,0.2,0.5v47.5c0,0.2-0.1,0.4-0.2,0.5c-0.1,0.1-0.3,0.2-0.5,0.2h-2.4C981.2,1999.5,981,1999.5,980.9,1999.3z
			 M988.1,1954.2c-0.1-0.1-0.2-0.3-0.2-0.5v-2.4c0-0.2,0.1-0.4,0.2-0.5c0.1-0.1,0.3-0.2,0.5-0.2h18.2c0.2,0,0.4,0.1,0.5,0.2
			c0.1,0.1,0.2,0.3,0.2,0.5v2.4c0,0.2-0.1,0.4-0.2,0.5c-0.1,0.1-0.3,0.2-0.5,0.2h-18.2C988.3,1954.4,988.2,1954.3,988.1,1954.2z
			 M988.1,1976.4c-0.1-0.1-0.2-0.3-0.2-0.5v-2.4c0-0.2,0.1-0.4,0.2-0.5c0.1-0.1,0.3-0.2,0.5-0.2h15.1c0.2,0,0.4,0.1,0.5,0.2
			c0.1,0.1,0.2,0.3,0.2,0.5v2.4c0,0.2-0.1,0.4-0.2,0.5c-0.1,0.1-0.3,0.2-0.5,0.2h-15.1C988.3,1976.7,988.2,1976.6,988.1,1976.4z
			 M988.1,1999.3c-0.1-0.1-0.2-0.3-0.2-0.5v-2.4c0-0.2,0.1-0.4,0.2-0.5c0.1-0.1,0.3-0.2,0.5-0.2h18.2c0.2,0,0.4,0.1,0.5,0.2
			c0.1,0.1,0.2,0.3,0.2,0.5v2.4c0,0.2-0.1,0.4-0.2,0.5c-0.1,0.1-0.3,0.2-0.5,0.2h-18.2C988.3,1999.5,988.2,1999.5,988.1,1999.3z"/>
	</g>
	<g class="st1">
		<path d="M1075.4,1999.3c-0.1-0.1-0.2-0.3-0.2-0.5v-47.5c0-0.2,0.1-0.4,0.2-0.5c0.1-0.1,0.3-0.2,0.5-0.2h2.4c0.2,0,0.4,0.1,0.5,0.2
			c0.1,0.1,0.2,0.3,0.2,0.5v47.5c0,0.2-0.1,0.4-0.2,0.5c-0.1,0.1-0.3,0.2-0.5,0.2h-2.4C1075.7,1999.5,1075.5,1999.5,1075.4,1999.3z
			 M1082.6,1999.3c-0.1-0.1-0.2-0.3-0.2-0.5v-2.4c0-0.2,0.1-0.4,0.2-0.5c0.1-0.1,0.3-0.2,0.5-0.2h18.2c0.2,0,0.4,0.1,0.5,0.2
			c0.1,0.1,0.2,0.3,0.2,0.5v2.4c0,0.2-0.1,0.4-0.2,0.5c-0.1,0.1-0.3,0.2-0.5,0.2H1083C1082.8,1999.5,1082.7,1999.5,1082.6,1999.3z"
			/>
	</g>
	<g class="st1">
		<path d="M1169.9,1999.3c-0.1-0.1-0.2-0.3-0.2-0.5v-47.5c0-0.2,0.1-0.4,0.2-0.5c0.1-0.1,0.3-0.2,0.5-0.2h2.4c0.2,0,0.4,0.1,0.5,0.2
			c0.1,0.1,0.2,0.3,0.2,0.5v47.5c0,0.2-0.1,0.4-0.2,0.5c-0.1,0.1-0.3,0.2-0.5,0.2h-2.4C1170.2,1999.5,1170,1999.5,1169.9,1999.3z
			 M1177.1,1954.2c-0.1-0.1-0.2-0.3-0.2-0.5v-2.4c0-0.2,0.1-0.4,0.2-0.5c0.1-0.1,0.3-0.2,0.5-0.2h18.2c0.2,0,0.4,0.1,0.5,0.2
			c0.1,0.1,0.2,0.3,0.2,0.5v2.4c0,0.2-0.1,0.4-0.2,0.5c-0.1,0.1-0.3,0.2-0.5,0.2h-18.2C1177.3,1954.4,1177.2,1954.3,1177.1,1954.2z
			 M1177.1,1976.9c-0.1-0.1-0.2-0.3-0.2-0.5v-2.4c0-0.2,0.1-0.4,0.2-0.5c0.1-0.1,0.3-0.2,0.5-0.2h15.1c0.2,0,0.4,0.1,0.5,0.2
			c0.1,0.1,0.2,0.3,0.2,0.5v2.4c0,0.2-0.1,0.4-0.2,0.5c-0.1,0.1-0.3,0.2-0.5,0.2h-15.1C1177.3,1977.2,1177.2,1977.1,1177.1,1976.9z"
			/>
	</g>
	<g class="st1">
		<path d="M227.6,2111.3c-2.2-3-3.3-7.1-3.3-12.4v-31.3c0-0.2,0.1-0.4,0.2-0.5c0.1-0.1,0.3-0.2,0.5-0.2h2.4c0.2,0,0.4,0.1,0.5,0.2
			c0.1,0.1,0.2,0.3,0.2,0.5v31.3c0,4,0.8,7.2,2.3,9.5c1.5,2.3,3.8,3.7,6.7,4.2c0.4,0,0.6,0.3,0.6,0.7v2.4c0,0.2-0.1,0.4-0.2,0.5
			c-0.1,0.1-0.3,0.2-0.5,0.1C232.8,2115.9,229.7,2114.2,227.6,2111.3z M241.6,2116.4c-0.2,0-0.3-0.1-0.4-0.2
			c-0.1-0.1-0.2-0.3-0.2-0.5v-2.4c0-0.4,0.2-0.7,0.6-0.7c2.9-0.5,5.1-1.9,6.7-4.2c1.5-2.3,2.3-5.5,2.3-9.5v-31.3
			c0-0.2,0.1-0.4,0.2-0.5c0.1-0.1,0.3-0.2,0.5-0.2h2.4c0.2,0,0.4,0.1,0.5,0.2c0.1,0.1,0.2,0.3,0.2,0.5v31.3c0,5.3-1.1,9.4-3.2,12.3
			c-2.2,3-5.3,4.7-9.3,5.1H241.6z"/>
	</g>
	<g class="st1">
		<path d="M322.1,2111.3c-2.2-3-3.3-7.1-3.3-12.4v-31.3c0-0.2,0.1-0.4,0.2-0.5c0.1-0.1,0.3-0.2,0.5-0.2h2.4c0.2,0,0.4,0.1,0.5,0.2
			c0.1,0.1,0.2,0.3,0.2,0.5v31.3c0,4,0.8,7.2,2.3,9.5c1.5,2.3,3.8,3.7,6.7,4.2c0.4,0,0.6,0.3,0.6,0.7v2.4c0,0.2-0.1,0.4-0.2,0.5
			c-0.1,0.1-0.3,0.2-0.5,0.1C327.3,2115.9,324.2,2114.2,322.1,2111.3z M336.1,2116.4c-0.2,0-0.3-0.1-0.4-0.2
			c-0.1-0.1-0.2-0.3-0.2-0.5v-2.4c0-0.4,0.2-0.7,0.6-0.7c2.9-0.5,5.1-1.9,6.7-4.2c1.5-2.3,2.3-5.5,2.3-9.5v-31.3
			c0-0.2,0.1-0.4,0.2-0.5c0.1-0.1,0.3-0.2,0.5-0.2h2.4c0.2,0,0.4,0.1,0.5,0.2c0.1,0.1,0.2,0.3,0.2,0.5v31.3c0,5.3-1.1,9.4-3.2,12.3
			c-2.2,3-5.3,4.7-9.3,5.1H336.1z"/>
	</g>
	<g class="st1">
		<path d="M413.9,2115.6c-0.1-0.1-0.2-0.3-0.2-0.5v-47.5c0-0.2,0.1-0.4,0.2-0.5c0.1-0.1,0.3-0.2,0.5-0.2h2.4c0.2,0,0.4,0.1,0.5,0.2
			c0.1,0.1,0.2,0.3,0.2,0.5v47.5c0,0.2-0.1,0.4-0.2,0.5c-0.1,0.1-0.3,0.2-0.5,0.2h-2.4C414.2,2115.8,414.1,2115.7,413.9,2115.6z
			 M421.1,2093.6c-0.1-0.1-0.2-0.3-0.2-0.5v-2.4c0-0.2,0.1-0.4,0.2-0.5c0.1-0.1,0.3-0.2,0.5-0.2h7.6c3.2,0,5.6-0.8,7.3-2.5
			s2.5-4,2.5-7.2s-0.8-5.5-2.5-7.2c-1.7-1.7-4.1-2.5-7.3-2.5h-7.6c-0.2,0-0.3-0.1-0.5-0.2c-0.1-0.1-0.2-0.3-0.2-0.5v-2.4
			c0-0.2,0.1-0.4,0.2-0.5c0.1-0.1,0.3-0.2,0.5-0.2h7.7c2.8,0,5.2,0.5,7.2,1.6s3.6,2.6,4.6,4.7c1.1,2,1.6,4.5,1.6,7.2
			c0,2.6-0.5,5-1.6,7.1c-1,2.1-2.6,3.7-4.6,4.8c-2.1,1.1-4.6,1.7-7.6,1.6h-7.3C421.3,2093.8,421.2,2093.8,421.1,2093.6z
			 M439.4,2115.6c-0.1-0.1-0.2-0.3-0.3-0.5l-7.4-17.1c-0.1-0.3-0.1-0.6,0-0.7c0.1-0.1,0.2-0.2,0.4-0.2c0.2,0,0.3-0.1,0.3-0.1
			c0.8-0.1,1.5-0.2,1.9-0.4c0.1,0,0.2-0.1,0.3-0.1c0.3,0,0.5,0.2,0.5,0.5l8,17.9c0,0.1,0.1,0.2,0.1,0.4c0,0.3-0.2,0.4-0.5,0.4h-2.9
			C439.7,2115.8,439.5,2115.7,439.4,2115.6z"/>
	</g>
	<g class="st1">
		<path d="M504.2,2115.6c-0.1-0.1-0.1-0.3,0-0.5l13.4-41c0.1-0.3,0.3-0.4,0.5-0.4c0.1,0,0.2,0,0.2,0.1s0.1,0.2,0.2,0.3l1.2,3.9
			c0.1,0.1,0.1,0.3,0.1,0.5c0,0.2,0,0.4-0.1,0.5l-6.6,20.2h12.7c0.4,0,0.6,0.2,0.8,0.6l0.8,2.4l0.1,0.3c0,0.1-0.1,0.3-0.2,0.4
			c-0.1,0.1-0.2,0.1-0.4,0.1h-14.9l-3.9,12.2c-0.1,0.3-0.2,0.5-0.3,0.6c-0.1,0.1-0.3,0.1-0.5,0.1h-2.5
			C504.4,2115.8,504.2,2115.7,504.2,2115.6z M535.1,2115.2l-15.2-47.5l-0.1-0.3c0-0.2,0.1-0.3,0.2-0.4c0.1-0.1,0.2-0.1,0.4-0.1h2.3
			c0.4,0,0.7,0.2,0.8,0.7l15.3,47.5l0.1,0.2c0,0.1,0,0.3-0.1,0.4c-0.1,0.1-0.2,0.1-0.4,0.1h-2.5
			C535.4,2115.8,535.2,2115.6,535.1,2115.2z"/>
	</g>
	<g class="st1">
		<path d="M606.6,2113.1c-2-1.8-3.5-4.3-4.5-7.5c-0.4-1.3-0.7-3.1-0.9-5.1s-0.3-5.1-0.3-9.1c0-4,0.1-7,0.3-9.1s0.5-3.8,0.9-5.1
			c1-3.2,2.4-5.7,4.5-7.5c2-1.8,4.5-2.9,7.5-3.3h0.1c0.2,0,0.3,0.1,0.4,0.2c0.1,0.1,0.1,0.3,0.1,0.5v2.4c0,0.4-0.2,0.6-0.6,0.7
			c-2.1,0.3-3.9,1.2-5.3,2.6c-1.4,1.4-2.5,3.2-3.2,5.5c-0.3,1.1-0.6,2.6-0.8,4.5c-0.2,2-0.3,4.8-0.3,8.6c0,3.7,0.1,6.6,0.3,8.6
			c0.2,2,0.4,3.5,0.8,4.5c0.7,2.3,1.7,4.2,3.2,5.5c1.4,1.4,3.2,2.3,5.3,2.6c0.4,0,0.6,0.3,0.6,0.7v2.4c0,0.2-0.1,0.4-0.2,0.5
			c-0.1,0.1-0.3,0.2-0.5,0.1C611.1,2116,608.6,2114.9,606.6,2113.1z M618.7,2116.4c-0.2,0-0.3-0.1-0.4-0.2c-0.1-0.1-0.1-0.3-0.1-0.5
			v-2.4c0-0.4,0.2-0.7,0.6-0.7c2.1-0.4,3.8-1.3,5.3-2.6s2.5-3.2,3.2-5.4c0.7-2.1,1-5.3,1-9.4c0-0.3-0.1-0.4-0.4-0.4h-10.1
			c-0.2,0-0.3-0.1-0.5-0.2c-0.1-0.1-0.2-0.3-0.2-0.5v-2.2c0-0.2,0.1-0.4,0.2-0.5c0.1-0.1,0.3-0.2,0.5-0.2h13.5
			c0.2,0,0.4,0.1,0.5,0.2c0.1,0.1,0.2,0.3,0.2,0.5v3c0,2.3-0.1,4.4-0.3,6.2c-0.2,1.8-0.5,3.4-0.8,4.6c-1,3.2-2.4,5.7-4.5,7.5
			c-2,1.8-4.5,3-7.5,3.3H618.7z M627.7,2077.3c-0.2,0-0.4-0.1-0.5-0.4c-1-2-2.1-3.5-3.5-4.6c-1.4-1.1-3-1.9-4.9-2.2
			c-0.4-0.1-0.6-0.3-0.6-0.7v-2.4c0-0.2,0.1-0.4,0.2-0.5c0.1-0.1,0.3-0.2,0.5-0.1c2.7,0.4,5.1,1.4,7,2.9c1.9,1.6,3.4,3.5,4.4,5.8
			c0.1,0.3,0.1,0.5,0.1,0.6c0,0.2-0.1,0.4-0.3,0.5l-2.1,1.2C628,2077.2,627.9,2077.3,627.7,2077.3z"/>
	</g>
	<g class="st1">
		<path d="M697.4,2115.6c-0.1-0.1-0.2-0.3-0.2-0.5v-47.5c0-0.2,0.1-0.4,0.2-0.5c0.1-0.1,0.3-0.2,0.5-0.2h2.4c0.2,0,0.4,0.1,0.5,0.2
			c0.1,0.1,0.2,0.3,0.2,0.5v47.5c0,0.2-0.1,0.4-0.2,0.5c-0.1,0.1-0.3,0.2-0.5,0.2h-2.4C697.7,2115.8,697.6,2115.7,697.4,2115.6z
			 M704.6,2070.4c-0.1-0.1-0.2-0.3-0.2-0.5v-2.4c0-0.2,0.1-0.4,0.2-0.5c0.1-0.1,0.3-0.2,0.5-0.2h18.2c0.2,0,0.4,0.1,0.5,0.2
			c0.1,0.1,0.2,0.3,0.2,0.5v2.4c0,0.2-0.1,0.4-0.2,0.5c-0.1,0.1-0.3,0.2-0.5,0.2H705C704.8,2070.6,704.7,2070.6,704.6,2070.4z
			 M704.6,2092.7c-0.1-0.1-0.2-0.3-0.2-0.5v-2.4c0-0.2,0.1-0.4,0.2-0.5c0.1-0.1,0.3-0.2,0.5-0.2h15.1c0.2,0,0.4,0.1,0.5,0.2
			c0.1,0.1,0.2,0.3,0.2,0.5v2.4c0,0.2-0.1,0.4-0.2,0.5c-0.1,0.1-0.3,0.2-0.5,0.2H705C704.8,2092.9,704.7,2092.8,704.6,2092.7z
			 M704.6,2115.6c-0.1-0.1-0.2-0.3-0.2-0.5v-2.4c0-0.2,0.1-0.4,0.2-0.5c0.1-0.1,0.3-0.2,0.5-0.2h18.2c0.2,0,0.4,0.1,0.5,0.2
			c0.1,0.1,0.2,0.3,0.2,0.5v2.4c0,0.2-0.1,0.4-0.2,0.5c-0.1,0.1-0.3,0.2-0.5,0.2H705C704.8,2115.8,704.7,2115.7,704.6,2115.6z"/>
	</g>
	<g class="st1">
		<path d="M792.5,2115.6c-0.1-0.1-0.2-0.3-0.3-0.5l-10.5-47.4l-0.1-0.3c0-0.1,0.1-0.3,0.2-0.4c0.1-0.1,0.2-0.1,0.4-0.1h2.3
			c0.3,0,0.5,0,0.6,0.1c0.1,0.1,0.2,0.3,0.3,0.6l10.1,47.1c0,0.1,0.1,0.3,0.1,0.5c0,0.4-0.2,0.6-0.6,0.6h-2.1
			C792.8,2115.8,792.6,2115.7,792.5,2115.6z M816.9,2115.6c-0.1-0.1-0.2-0.3-0.3-0.5l-10.3-40.4h-0.1l-8.4,32.5
			c0,0.1-0.1,0.3-0.2,0.4c-0.1,0.1-0.1,0.1-0.2,0.1c-0.2,0-0.3-0.2-0.4-0.5l-1-5c0-0.3,0-0.6,0-0.9l8.5-33.8
			c0.1-0.2,0.2-0.4,0.3-0.5c0.1-0.1,0.3-0.2,0.5-0.2h1.9c0.2,0,0.4,0.1,0.5,0.2c0.1,0.1,0.2,0.3,0.3,0.5l12,47.1l0.1,0.4
			c0,0.5-0.2,0.8-0.7,0.8h-2.1C817.1,2115.8,817,2115.7,816.9,2115.6z M819.8,2102.3c-0.1-0.4-0.1-0.7-0.1-0.9l7.2-33.9
			c0-0.3,0.1-0.5,0.3-0.6c0.1-0.1,0.3-0.1,0.6-0.1h2.3c0.2,0,0.4,0.1,0.5,0.2c0.1,0.1,0.1,0.3,0.1,0.6l-8.8,39.6
			c0,0.1-0.1,0.3-0.2,0.4c-0.1,0.1-0.1,0.1-0.2,0.1c-0.2,0-0.3-0.1-0.4-0.4L819.8,2102.3z"/>
	</g>
	<g class="st1">
		<path d="M886.4,2115.6c-0.1-0.1-0.2-0.3-0.2-0.5v-47.5c0-0.2,0.1-0.4,0.2-0.5c0.1-0.1,0.3-0.2,0.5-0.2h2.4c0.2,0,0.4,0.1,0.5,0.2
			c0.1,0.1,0.2,0.3,0.2,0.5v47.5c0,0.2-0.1,0.4-0.2,0.5c-0.1,0.1-0.3,0.2-0.5,0.2h-2.4C886.7,2115.8,886.5,2115.7,886.4,2115.6z
			 M893.6,2070.4c-0.1-0.1-0.2-0.3-0.2-0.5v-2.4c0-0.2,0.1-0.4,0.2-0.5c0.1-0.1,0.3-0.2,0.5-0.2h18.2c0.2,0,0.4,0.1,0.5,0.2
			c0.1,0.1,0.2,0.3,0.2,0.5v2.4c0,0.2-0.1,0.4-0.2,0.5c-0.1,0.1-0.3,0.2-0.5,0.2H894C893.8,2070.6,893.7,2070.6,893.6,2070.4z
			 M893.6,2092.7c-0.1-0.1-0.2-0.3-0.2-0.5v-2.4c0-0.2,0.1-0.4,0.2-0.5c0.1-0.1,0.3-0.2,0.5-0.2h15.1c0.2,0,0.4,0.1,0.5,0.2
			c0.1,0.1,0.2,0.3,0.2,0.5v2.4c0,0.2-0.1,0.4-0.2,0.5c-0.1,0.1-0.3,0.2-0.5,0.2H894C893.8,2092.9,893.7,2092.8,893.6,2092.7z
			 M893.6,2115.6c-0.1-0.1-0.2-0.3-0.2-0.5v-2.4c0-0.2,0.1-0.4,0.2-0.5c0.1-0.1,0.3-0.2,0.5-0.2h18.2c0.2,0,0.4,0.1,0.5,0.2
			c0.1,0.1,0.2,0.3,0.2,0.5v2.4c0,0.2-0.1,0.4-0.2,0.5c-0.1,0.1-0.3,0.2-0.5,0.2H894C893.8,2115.8,893.7,2115.7,893.6,2115.6z"/>
	</g>
	<g class="st1">
		<path d="M980.9,2115.6c-0.1-0.1-0.2-0.3-0.2-0.5v-47.5c0-0.2,0.1-0.4,0.2-0.5c0.1-0.1,0.3-0.2,0.5-0.2h2.4c0.2,0,0.4,0.1,0.5,0.2
			c0.1,0.1,0.2,0.3,0.2,0.5v47.5c0,0.2-0.1,0.4-0.2,0.5c-0.1,0.1-0.3,0.2-0.5,0.2h-2.4C981.2,2115.8,981,2115.7,980.9,2115.6z
			 M988.1,2070.4c-0.1-0.1-0.2-0.3-0.2-0.5v-2.4c0-0.2,0.1-0.4,0.2-0.5c0.1-0.1,0.3-0.2,0.5-0.2h18.2c0.2,0,0.4,0.1,0.5,0.2
			c0.1,0.1,0.2,0.3,0.2,0.5v2.4c0,0.2-0.1,0.4-0.2,0.5c-0.1,0.1-0.3,0.2-0.5,0.2h-18.2C988.3,2070.6,988.2,2070.6,988.1,2070.4z
			 M988.1,2092.7c-0.1-0.1-0.2-0.3-0.2-0.5v-2.4c0-0.2,0.1-0.4,0.2-0.5c0.1-0.1,0.3-0.2,0.5-0.2h15.1c0.2,0,0.4,0.1,0.5,0.2
			c0.1,0.1,0.2,0.3,0.2,0.5v2.4c0,0.2-0.1,0.4-0.2,0.5c-0.1,0.1-0.3,0.2-0.5,0.2h-15.1C988.3,2092.9,988.2,2092.8,988.1,2092.7z
			 M988.1,2115.6c-0.1-0.1-0.2-0.3-0.2-0.5v-2.4c0-0.2,0.1-0.4,0.2-0.5c0.1-0.1,0.3-0.2,0.5-0.2h18.2c0.2,0,0.4,0.1,0.5,0.2
			c0.1,0.1,0.2,0.3,0.2,0.5v2.4c0,0.2-0.1,0.4-0.2,0.5c-0.1,0.1-0.3,0.2-0.5,0.2h-18.2C988.3,2115.8,988.2,2115.7,988.1,2115.6z"/>
	</g>
	<g class="st1">
		<path d="M1078.8,2114.5c-2.3-1-4.1-2.2-5.5-3.6c-0.1-0.1-0.2-0.3-0.2-0.5c0-0.2,0-0.4,0.2-0.6l1.6-2c0.3-0.3,0.6-0.4,0.9-0.1
			c1.3,1.2,2.9,2.2,4.6,3.1c1.8,0.9,3.6,1.5,5.6,1.8c0.4,0.1,0.6,0.3,0.6,0.7v2.4c0,0.2-0.1,0.4-0.2,0.5c-0.1,0.1-0.3,0.2-0.5,0.1
			C1083.5,2116.1,1081.1,2115.5,1078.8,2114.5z M1090.6,2116.4c-0.2,0-0.3-0.1-0.4-0.2c-0.1-0.1-0.2-0.3-0.2-0.5v-2.4
			c0-0.5,0.2-0.7,0.6-0.8c2.9-0.3,5.1-1.4,6.7-3.2c1.6-1.8,2.4-4,2.4-6.7c0-2.6-0.8-4.8-2.3-6.4c-1.6-1.6-4.3-2.7-8.1-3.2l-2.1-0.4
			c-4.2-0.6-7.4-2-9.5-4.2c-2.1-2.2-3.2-5.1-3.2-8.7c0-2.5,0.5-4.7,1.4-6.7c0.9-1.9,2.2-3.5,3.9-4.7c1.7-1.2,3.7-1.9,6-2.2h0.1
			c0.2,0,0.3,0.1,0.4,0.2c0.1,0.1,0.2,0.3,0.2,0.5v2.4c0,0.4-0.2,0.6-0.6,0.7c-2.4,0.4-4.3,1.5-5.7,3.2c-1.3,1.7-2,3.8-2,6.3
			c0,2.6,0.8,4.7,2.5,6.3c1.6,1.6,4.3,2.6,8.1,3.2l2.1,0.3c4.3,0.6,7.5,2,9.5,4.2c2.1,2.2,3.1,5.1,3.1,8.8c0,2.5-0.5,4.8-1.5,6.8
			c-1,2-2.4,3.6-4.3,4.9c-1.9,1.3-4.2,2.1-7,2.3H1090.6z M1090.6,2070.1c-0.4-0.1-0.6-0.4-0.6-0.8v-2.4c0-0.2,0.1-0.4,0.2-0.5
			c0.1-0.1,0.3-0.2,0.5-0.1c1.9,0.2,3.8,0.6,5.6,1.3c1.8,0.7,3.3,1.5,4.6,2.6c0.3,0.3,0.4,0.6,0.1,1l-1.2,2.2
			c-0.3,0.3-0.6,0.4-0.9,0.1C1096.2,2071.5,1093.4,2070.4,1090.6,2070.1z"/>
	</g>
	<g class="st1">
		<path d="M1165.2,2070.4c-0.1-0.1-0.2-0.3-0.2-0.5v-2.4c0-0.2,0.1-0.4,0.2-0.5c0.1-0.1,0.3-0.2,0.5-0.2h29.9c0.2,0,0.4,0.1,0.5,0.2
			c0.1,0.1,0.2,0.3,0.2,0.5v2.4c0,0.2-0.1,0.4-0.2,0.5c-0.1,0.1-0.3,0.2-0.5,0.2h-29.9C1165.5,2070.6,1165.4,2070.6,1165.2,2070.4z
			 M1178.9,2115.6c-0.1-0.1-0.2-0.3-0.2-0.5v-40c0-0.2,0.1-0.4,0.2-0.5c0.1-0.1,0.3-0.2,0.5-0.2h2.4c0.2,0,0.4,0.1,0.5,0.2
			c0.1,0.1,0.2,0.3,0.2,0.5v40c0,0.2-0.1,0.4-0.2,0.5c-0.1,0.1-0.3,0.2-0.5,0.2h-2.4C1179.2,2115.8,1179.1,2115.7,1178.9,2115.6z"/>
	</g>
</g>
<g class="st2">
	<rect x="194.2" y="141.4" class="st3" width="85" height="85"/>
	<rect x="288.6" y="141.4" class="st4" width="85" height="85"/>
	<rect x="383" y="141.4" class="st3" width="85" height="85"/>
	<rect x="477.4" y="141.4" class="st3" width="85" height="85"/>
	<rect x="571.7" y="141.4" class="st3" width="85" height="85"/>
	<rect x="666.1" y="141.4" class="st3" width="85" height="85"/>
	<rect x="760.5" y="141.4" class="st3" width="85" height="85"/>
	<rect x="854.9" y="141.4" class="st3" width="85" height="85"/>
	<rect x="949.3" y="141.4" class="st3" width="85" height="85"/>
	<rect x="1043.7" y="141.4" class="st3" width="85" height="85"/>
	<rect x="1138.1" y="141.4" class="st3" width="85" height="85"/>
	<rect x="194.2" y="257.3" class="st3" width="85" height="85"/>
	<rect x="288.6" y="257.3" class="st3" width="85" height="85"/>
	<rect x="383" y="257.3" class="st3" width="85" height="85"/>
	<rect x="477.4" y="257.3" class="st3" width="85" height="85"/>
	<rect x="571.7" y="257.3" class="st3" width="85" height="85"/>
	<rect x="666.1" y="257.3" class="st3" width="85" height="85"/>
	<rect x="760.5" y="257.3" class="st3" width="85" height="85"/>
	<rect x="854.9" y="257.3" class="st3" width="85" height="85"/>
	<rect x="949.3" y="257.3" class="st3" width="85" height="85"/>
	<rect x="1043.7" y="257.3" class="st3" width="85" height="85"/>
	<rect x="1138.1" y="257.3" class="st3" width="85" height="85"/>
	<rect x="194.2" y="373.3" class="st3" width="85" height="85"/>
	<rect x="288.6" y="373.3" class="st3" width="85" height="85"/>
	<rect x="383" y="373.3" class="st3" width="85" height="85"/>
	<rect x="477.4" y="373.3" class="st3" width="85" height="85"/>
	<rect x="571.7" y="373.3" class="st3" width="85" height="85"/>
	<rect x="666.1" y="373.3" class="st3" width="85" height="85"/>
	<rect x="760.5" y="373.3" class="st3" width="85" height="85"/>
	<rect x="854.9" y="373.3" class="st3" width="85" height="85"/>
	<rect x="949.3" y="373.3" class="st3" width="85" height="85"/>
	<rect x="1043.7" y="373.3" class="st3" width="85" height="85"/>
	<rect x="1138.1" y="373.3" class="st3" width="85" height="85"/>
	<rect x="194.2" y="489.2" class="st3" width="85" height="85"/>
	<rect x="288.6" y="489.2" class="st3" width="85" height="85"/>
	<rect x="383" y="489.2" class="st3" width="85" height="85"/>
	<rect x="477.4" y="489.2" class="st3" width="85" height="85"/>
	<rect x="571.7" y="489.2" class="st3" width="85" height="85"/>
	<rect x="666.1" y="489.2" class="st3" width="85" height="85"/>
	<rect x="760.5" y="489.2" class="st3" width="85" height="85"/>
	<rect x="854.9" y="489.2" class="st3" width="85" height="85"/>
	<rect x="949.3" y="489.2" class="st3" width="85" height="85"/>
	<rect x="1043.7" y="489.2" class="st3" width="85" height="85"/>
	<rect x="1138.1" y="489.2" class="st3" width="85" height="85"/>
	<rect x="194.2" y="605.2" class="st3" width="85" height="85"/>
	<rect x="288.6" y="605.2" class="st3" width="85" height="85"/>
	<rect x="383" y="605.2" class="st3" width="85" height="85"/>
	<rect x="477.4" y="605.2" class="st3" width="85" height="85"/>
	<rect x="571.7" y="605.2" class="st3" width="85" height="85"/>
	<rect x="666.1" y="605.2" class="st3" width="85" height="85"/>
	<rect x="760.5" y="605.2" class="st3" width="85" height="85"/>
	<rect x="854.9" y="605.2" class="st3" width="85" height="85"/>
	<rect x="949.3" y="605.2" class="st3" width="85" height="85"/>
	<rect x="1043.7" y="605.2" class="st3" width="85" height="85"/>
	<rect x="1138.1" y="605.2" class="st3" width="85" height="85"/>
	<rect x="548.7" y="1325.8" class="st3" width="35.4" height="35.4"/>
	<rect x="643.5" y="1325.8" class="st3" width="35.4" height="35.4"/>
	<rect x="738.4" y="1325.8" class="st3" width="35.4" height="35.4"/>
	<rect x="833.2" y="1325.8" class="st3" width="35.4" height="35.4"/>
	<rect x="194.2" y="721.1" class="st3" width="85" height="85"/>
	<rect x="288.6" y="721.1" class="st3" width="85" height="85"/>
	<rect x="383" y="721.1" class="st3" width="85" height="85"/>
	<rect x="477.4" y="721.1" class="st3" width="85" height="85"/>
	<rect x="571.7" y="721.1" class="st3" width="85" height="85"/>
	<rect x="666.1" y="721.1" class="st3" width="85" height="85"/>
	<rect x="760.5" y="721.1" class="st3" width="85" height="85"/>
	<rect x="854.9" y="721.1" class="st3" width="85" height="85"/>
	<rect x="949.3" y="721.1" class="st3" width="85" height="85"/>
	<rect x="1043.7" y="721.1" class="st3" width="85" height="85"/>
	<rect x="1138.1" y="721.1" class="st3" width="85" height="85"/>
	<rect x="194.2" y="837" class="st3" width="85" height="85"/>
	<rect x="288.6" y="837" class="st3" width="85" height="85"/>
	<rect x="383" y="837" class="st3" width="85" height="85"/>
	<rect x="477.4" y="837" class="st3" width="85" height="85"/>
	<rect x="571.7" y="837" class="st3" width="85" height="85"/>
	<rect x="666.1" y="837" class="st3" width="85" height="85"/>
	<rect x="760.5" y="837" class="st3" width="85" height="85"/>
	<rect x="854.9" y="837" class="st3" width="85" height="85"/>
	<rect x="949.3" y="837" class="st3" width="85" height="85"/>
	<rect x="1043.7" y="837" class="st3" width="85" height="85"/>
	<rect x="1138.1" y="837" class="st3" width="85" height="85"/>
	<rect x="194.2" y="953" class="st3" width="85" height="85"/>
	<rect x="288.6" y="953" class="st3" width="85" height="85"/>
	<rect x="383" y="953" class="st3" width="85" height="85"/>
	<rect x="477.4" y="953" class="st3" width="85" height="85"/>
	<rect x="571.7" y="953" class="st3" width="85" height="85"/>
	<rect x="666.1" y="953" class="st3" width="85" height="85"/>
	<rect x="760.5" y="953" class="st3" width="85" height="85"/>
	<rect x="854.9" y="953" class="st3" width="85" height="85"/>
	<rect x="949.3" y="953" class="st3" width="85" height="85"/>
	<rect x="1043.7" y="953" class="st3" width="85" height="85"/>
	<rect x="1138.1" y="953" class="st3" width="85" height="85"/>
	<rect x="194.2" y="1068.9" class="st3" width="85" height="85"/>
	<rect x="288.6" y="1068.9" class="st3" width="85" height="85"/>
	<rect x="383" y="1068.9" class="st3" width="85" height="85"/>
	<rect x="477.4" y="1068.9" class="st3" width="85" height="85"/>
	<rect x="571.7" y="1068.9" class="st3" width="85" height="85"/>
	<rect x="666.1" y="1068.9" class="st3" width="85" height="85"/>
	<rect x="760.5" y="1068.9" class="st3" width="85" height="85"/>
	<rect x="854.9" y="1068.9" class="st3" width="85" height="85"/>
	<rect x="949.3" y="1068.9" class="st3" width="85" height="85"/>
	<rect x="1043.7" y="1068.9" class="st3" width="85" height="85"/>
	<rect x="1138.1" y="1068.9" class="st3" width="85" height="85"/>
	<rect x="194.2" y="1184.8" class="st3" width="85" height="85"/>
	<rect x="288.6" y="1184.8" class="st3" width="85" height="85"/>
	<rect x="383" y="1184.8" class="st3" width="85" height="85"/>
	<rect x="477.4" y="1184.8" class="st3" width="85" height="85"/>
	<rect x="571.7" y="1184.8" class="st3" width="85" height="85"/>
	<rect x="666.1" y="1184.8" class="st3" width="85" height="85"/>
	<rect x="760.5" y="1184.8" class="st3" width="85" height="85"/>
	<rect x="854.9" y="1184.8" class="st3" width="85" height="85"/>
	<rect x="949.3" y="1184.8" class="st3" width="85" height="85"/>
	<rect x="1043.7" y="1184.8" class="st3" width="85" height="85"/>
	<rect x="1138.1" y="1184.8" class="st3" width="85" height="85"/>
</g>
</svg>
