<?xml version="1.0" encoding="utf-8"?>
<!-- Generator: Adobe Illustrator 24.3.0, SVG Export Plug-In . SVG Version: 6.00 Build 0)  -->
<svg version="1.1" id="Ebene_1" xmlns="http://www.w3.org/2000/svg" xmlns:xlink="http://www.w3.org/1999/xlink" x="0px" y="0px"
	 viewBox="0 0 2834.6 1700.8" style="enable-background:new 0 0 2834.6 1700.8;" xml:space="preserve">
<style type="text/css">
	.st0{fill:none;stroke:#00FF00;stroke-width:0.1;stroke-miterlimit:10;}
	.st1{fill:none;stroke:#FF0000;stroke-width:0.1;stroke-miterlimit:10;}
</style>
<g>
	<polyline class="st0" points="1214.6,164.3 1230.7,164.3 1230.7,192.6 1214.6,192.6 	"/>
	<polyline class="st0" points="1214.6,280.2 1230.7,280.2 1230.7,308.6 1214.6,308.6 	"/>
	<polyline class="st0" points="1214.6,396.1 1230.7,396.1 1230.7,424.5 1214.6,424.5 	"/>
	<polyline class="st0" points="1214.6,512.1 1230.7,512.1 1230.7,540.4 1214.6,540.4 	"/>
	<polyline class="st0" points="1214.6,628 1230.7,628 1230.7,656.4 1214.6,656.4 	"/>
	<polyline class="st0" points="1214.6,744 1230.7,744 1230.7,772.3 1214.6,772.3 	"/>
	<polyline class="st0" points="1214.6,859.9 1230.7,859.9 1230.7,888.2 1214.6,888.2 	"/>
	<polyline class="st0" points="1214.6,1091.8 1230.7,1091.8 1230.7,1120.1 1214.6,1120.1 	"/>
	<polyline class="st0" points="1214.6,975.8 1230.7,975.8 1230.7,1004.2 1214.6,1004.2 	"/>
	<polyline class="st0" points="1214.6,1207.7 1230.7,1207.7 1230.7,1236 1214.6,1236 	"/>
</g>
<g>
	<polyline class="st0" points="185.7,164.3 169.6,164.3 169.6,192.6 185.7,192.6 	"/>
	<polyline class="st0" points="185.7,280.2 169.6,280.2 169.6,308.6 185.7,308.6 	"/>
	<polyline class="st0" points="185.7,396.1 169.6,396.1 169.6,424.5 185.7,424.5 	"/>
	<polyline class="st0" points="185.7,512.1 169.6,512.1 169.6,540.4 185.7,540.4 	"/>
	<polyline class="st0" points="185.7,628 169.6,628 169.6,656.4 185.7,656.4 	"/>
	<polyline class="st0" points="185.7,744 169.6,744 169.6,772.3 185.7,772.3 	"/>
	<polyline class="st0" points="185.7,859.9 169.6,859.9 169.6,888.2 185.7,888.2 	"/>
	<polyline class="st0" points="185.7,1091.8 169.6,1091.8 169.6,1120.1 185.7,1120.1 	"/>
	<polyline class="st0" points="185.7,975.8 169.6,975.8 169.6,1004.2 185.7,1004.2 	"/>
	<polyline class="st0" points="185.7,1207.7 169.6,1207.7 169.6,1236 185.7,1236 	"/>
</g>
<rect x="2.8" y="2.8" class="st1" width="1417.3" height="1417.3"/>
<path class="st1" d="M137.2,211.3h-43c-7.8,0-14.2-6.4-14.2-14.2v-36.9c0-7.8,6.4-14.2,14.2-14.2h43c7.8,0,14.2,6.4,14.2,14.2v36.9
	C151.4,205,145,211.3,137.2,211.3z"/>
</svg>
