<?xml version="1.0" encoding="utf-8"?>
<!-- Generator: Adobe Illustrator 24.3.0, SVG Export Plug-In . SVG Version: 6.00 Build 0)  -->
<svg version="1.1" id="Ebene_1" xmlns="http://www.w3.org/2000/svg" xmlns:xlink="http://www.w3.org/1999/xlink" x="0px" y="0px"
	 viewBox="0 0 2834.7 1700.8" style="enable-background:new 0 0 2834.7 1700.8;" xml:space="preserve">
<style type="text/css">
	.st0{fill:none;stroke:#FF0000;stroke-width:0.1;stroke-miterlimit:10;}
	.st1{opacity:0.99;fill:none;stroke:#FF0000;stroke-width:0.1;stroke-miterlimit:10;}
</style>
<rect x="197" y="209.7" class="st0" width="85" height="80.8"/>
<rect x="291.4" y="209.7" class="st1" width="85" height="80.8"/>
<rect x="385.8" y="209.7" class="st0" width="85" height="80.8"/>
<rect x="480.2" y="209.7" class="st0" width="85" height="80.8"/>
<rect x="574.6" y="209.7" class="st0" width="85" height="80.8"/>
<rect x="669" y="209.7" class="st0" width="85" height="80.8"/>
<rect x="763.4" y="209.7" class="st0" width="85" height="80.8"/>
<rect x="857.8" y="209.7" class="st0" width="85" height="80.8"/>
<rect x="952.2" y="209.7" class="st0" width="85" height="80.8"/>
<rect x="1046.6" y="209.7" class="st0" width="85" height="80.8"/>
<rect x="1140.9" y="209.7" class="st0" width="85" height="80.8"/>
<rect x="197" y="319.8" class="st0" width="85" height="80.8"/>
<rect x="291.4" y="319.8" class="st0" width="85" height="80.8"/>
<rect x="385.8" y="319.8" class="st0" width="85" height="80.8"/>
<rect x="480.2" y="319.8" class="st0" width="85" height="80.8"/>
<rect x="574.6" y="319.8" class="st0" width="85" height="80.8"/>
<rect x="669" y="319.8" class="st0" width="85" height="80.8"/>
<rect x="763.4" y="319.8" class="st0" width="85" height="80.8"/>
<rect x="857.8" y="319.8" class="st0" width="85" height="80.8"/>
<rect x="952.2" y="319.8" class="st0" width="85" height="80.8"/>
<rect x="1046.6" y="319.8" class="st0" width="85" height="80.8"/>
<rect x="1140.9" y="319.8" class="st0" width="85" height="80.8"/>
<rect x="197" y="429.9" class="st0" width="85" height="80.8"/>
<rect x="291.4" y="429.9" class="st0" width="85" height="80.8"/>
<rect x="385.8" y="429.9" class="st0" width="85" height="80.8"/>
<rect x="480.2" y="429.9" class="st0" width="85" height="80.8"/>
<rect x="574.6" y="429.9" class="st0" width="85" height="80.8"/>
<rect x="669" y="429.9" class="st0" width="85" height="80.8"/>
<rect x="763.4" y="429.9" class="st0" width="85" height="80.8"/>
<rect x="857.8" y="429.9" class="st0" width="85" height="80.8"/>
<rect x="952.2" y="429.9" class="st0" width="85" height="80.8"/>
<rect x="1046.6" y="429.9" class="st0" width="85" height="80.8"/>
<rect x="1140.9" y="429.9" class="st0" width="85" height="80.8"/>
<rect x="197" y="540.1" class="st0" width="85" height="80.8"/>
<rect x="291.4" y="540.1" class="st0" width="85" height="80.8"/>
<rect x="385.8" y="540.1" class="st0" width="85" height="80.8"/>
<rect x="480.2" y="540.1" class="st0" width="85" height="80.8"/>
<rect x="574.6" y="540.1" class="st0" width="85" height="80.8"/>
<rect x="669" y="540.1" class="st0" width="85" height="80.8"/>
<rect x="763.4" y="540.1" class="st0" width="85" height="80.8"/>
<rect x="857.8" y="540.1" class="st0" width="85" height="80.8"/>
<rect x="952.2" y="540.1" class="st0" width="85" height="80.8"/>
<rect x="1046.6" y="540.1" class="st0" width="85" height="80.8"/>
<rect x="1140.9" y="540.1" class="st0" width="85" height="80.8"/>
<rect x="197" y="650.2" class="st0" width="85" height="80.8"/>
<rect x="291.4" y="650.2" class="st0" width="85" height="80.8"/>
<rect x="385.8" y="650.2" class="st0" width="85" height="80.8"/>
<rect x="480.2" y="650.2" class="st0" width="85" height="80.8"/>
<rect x="574.6" y="650.2" class="st0" width="85" height="80.8"/>
<rect x="669" y="650.2" class="st0" width="85" height="80.8"/>
<rect x="763.4" y="650.2" class="st0" width="85" height="80.8"/>
<rect x="857.8" y="650.2" class="st0" width="85" height="80.8"/>
<rect x="952.2" y="650.2" class="st0" width="85" height="80.8"/>
<rect x="1046.6" y="650.2" class="st0" width="85" height="80.8"/>
<rect x="1140.9" y="650.2" class="st0" width="85" height="80.8"/>
<path class="st0" d="M1420.2,711.5"/>
<path class="st0" d="M1420.2,711.5"/>
<rect x="551.5" y="1328.6" class="st0" width="35.4" height="35.4"/>
<rect x="646.4" y="1328.6" class="st0" width="35.4" height="35.4"/>
<rect x="741.2" y="1328.6" class="st0" width="35.4" height="35.4"/>
<rect x="836" y="1328.6" class="st0" width="35.4" height="35.4"/>
<rect x="197" y="760.4" class="st0" width="85" height="80.8"/>
<rect x="291.4" y="760.4" class="st0" width="85" height="80.8"/>
<rect x="385.8" y="760.4" class="st0" width="85" height="80.8"/>
<rect x="480.2" y="760.4" class="st0" width="85" height="80.8"/>
<rect x="574.6" y="760.4" class="st0" width="85" height="80.8"/>
<rect x="669" y="760.4" class="st0" width="85" height="80.8"/>
<rect x="763.4" y="760.4" class="st0" width="85" height="80.8"/>
<rect x="857.8" y="760.4" class="st0" width="85" height="80.8"/>
<rect x="952.2" y="760.4" class="st0" width="85" height="80.8"/>
<rect x="1046.6" y="760.4" class="st0" width="85" height="80.8"/>
<rect x="1140.9" y="760.4" class="st0" width="85" height="80.8"/>
<rect x="197" y="870.5" class="st0" width="85" height="80.8"/>
<rect x="291.4" y="870.5" class="st0" width="85" height="80.8"/>
<rect x="385.8" y="870.5" class="st0" width="85" height="80.8"/>
<rect x="480.2" y="870.5" class="st0" width="85" height="80.8"/>
<rect x="574.6" y="870.5" class="st0" width="85" height="80.8"/>
<rect x="669" y="870.5" class="st0" width="85" height="80.8"/>
<rect x="763.4" y="870.5" class="st0" width="85" height="80.8"/>
<rect x="857.8" y="870.5" class="st0" width="85" height="80.8"/>
<rect x="952.2" y="870.5" class="st0" width="85" height="80.8"/>
<rect x="1046.6" y="870.5" class="st0" width="85" height="80.8"/>
<rect x="1140.9" y="870.5" class="st0" width="85" height="80.8"/>
<rect x="197" y="980.6" class="st0" width="85" height="80.8"/>
<rect x="291.4" y="980.6" class="st0" width="85" height="80.8"/>
<rect x="385.8" y="980.6" class="st0" width="85" height="80.8"/>
<rect x="480.2" y="980.6" class="st0" width="85" height="80.8"/>
<rect x="574.6" y="980.6" class="st0" width="85" height="80.8"/>
<rect x="669" y="980.6" class="st0" width="85" height="80.8"/>
<rect x="763.4" y="980.6" class="st0" width="85" height="80.8"/>
<rect x="857.8" y="980.6" class="st0" width="85" height="80.8"/>
<rect x="952.2" y="980.6" class="st0" width="85" height="80.8"/>
<rect x="1046.6" y="980.6" class="st0" width="85" height="80.8"/>
<rect x="1140.9" y="980.6" class="st0" width="85" height="80.8"/>
<rect x="197" y="1090.8" class="st0" width="85" height="80.8"/>
<rect x="291.4" y="1090.8" class="st0" width="85" height="80.8"/>
<rect x="385.8" y="1090.8" class="st0" width="85" height="80.8"/>
<rect x="480.2" y="1090.8" class="st0" width="85" height="80.8"/>
<rect x="574.6" y="1090.8" class="st0" width="85" height="80.8"/>
<rect x="669" y="1090.8" class="st0" width="85" height="80.8"/>
<rect x="763.4" y="1090.8" class="st0" width="85" height="80.8"/>
<rect x="857.8" y="1090.8" class="st0" width="85" height="80.8"/>
<rect x="952.2" y="1090.8" class="st0" width="85" height="80.8"/>
<rect x="1046.6" y="1090.8" class="st0" width="85" height="80.8"/>
<rect x="1140.9" y="1090.8" class="st0" width="85" height="80.8"/>
<rect x="197" y="1200.9" class="st0" width="85" height="80.8"/>
<rect x="291.4" y="1200.9" class="st0" width="85" height="80.8"/>
<rect x="385.8" y="1200.9" class="st0" width="85" height="80.8"/>
<rect x="480.2" y="1200.9" class="st0" width="85" height="80.8"/>
<rect x="574.6" y="1200.9" class="st0" width="85" height="80.8"/>
<rect x="669" y="1200.9" class="st0" width="85" height="80.8"/>
<rect x="763.4" y="1200.9" class="st0" width="85" height="80.8"/>
<rect x="857.8" y="1200.9" class="st0" width="85" height="80.8"/>
<rect x="952.2" y="1200.9" class="st0" width="85" height="80.8"/>
<rect x="1046.6" y="1200.9" class="st0" width="85" height="80.8"/>
<rect x="1140.9" y="1200.9" class="st0" width="85" height="80.8"/>
<rect x="197" y="103.7" class="st0" width="85" height="80.8"/>
<rect x="291.4" y="103.7" class="st0" width="85" height="80.8"/>
<rect x="385.8" y="103.7" class="st0" width="85" height="80.8"/>
<rect x="480.2" y="103.7" class="st0" width="85" height="80.8"/>
<rect x="574.6" y="103.7" class="st0" width="85" height="80.8"/>
<rect x="669" y="103.7" class="st0" width="85" height="80.8"/>
<rect x="763.4" y="103.7" class="st0" width="85" height="80.8"/>
<rect x="857.8" y="103.7" class="st0" width="85" height="80.8"/>
<rect x="952.2" y="103.7" class="st0" width="85" height="80.8"/>
<rect x="1046.6" y="103.7" class="st0" width="85" height="80.8"/>
<rect x="1140.9" y="103.7" class="st0" width="85" height="80.8"/>
<rect x="2.8" y="2.8" class="st0" width="1417.3" height="1417.3"/>
</svg>
