<?xml version="1.0" encoding="utf-8"?>
<!-- Generator: Adobe Illustrator 24.3.0, SVG Export Plug-In . SVG Version: 6.00 Build 0)  -->
<svg version="1.1" id="Ebene_1" xmlns="http://www.w3.org/2000/svg" xmlns:xlink="http://www.w3.org/1999/xlink" x="0px" y="0px"
	 viewBox="0 0 2834.7 1700.8" style="enable-background:new 0 0 2834.7 1700.8;" xml:space="preserve">
<style type="text/css">
	.st0{fill:none;stroke:#FF0000;stroke-width:0.1;stroke-miterlimit:10;}
	.st1{opacity:0.99;fill:none;stroke:#FF0000;stroke-width:0.1;stroke-miterlimit:10;}
</style>
<rect x="197" y="144.2" class="st0" width="85" height="85"/>
<rect x="291.4" y="144.2" class="st1" width="85" height="85"/>
<rect x="385.8" y="144.2" class="st0" width="85" height="85"/>
<rect x="480.2" y="144.2" class="st0" width="85" height="85"/>
<rect x="574.6" y="144.2" class="st0" width="85" height="85"/>
<rect x="669" y="144.2" class="st0" width="85" height="85"/>
<rect x="763.4" y="144.2" class="st0" width="85" height="85"/>
<rect x="857.8" y="144.2" class="st0" width="85" height="85"/>
<rect x="952.2" y="144.2" class="st0" width="85" height="85"/>
<rect x="1046.6" y="144.2" class="st0" width="85" height="85"/>
<rect x="1140.9" y="144.2" class="st0" width="85" height="85"/>
<rect x="197" y="260.2" class="st0" width="85" height="85"/>
<rect x="291.4" y="260.2" class="st0" width="85" height="85"/>
<rect x="385.8" y="260.2" class="st0" width="85" height="85"/>
<rect x="480.2" y="260.2" class="st0" width="85" height="85"/>
<rect x="574.6" y="260.2" class="st0" width="85" height="85"/>
<rect x="669" y="260.2" class="st0" width="85" height="85"/>
<rect x="763.4" y="260.2" class="st0" width="85" height="85"/>
<rect x="857.8" y="260.2" class="st0" width="85" height="85"/>
<rect x="952.2" y="260.2" class="st0" width="85" height="85"/>
<rect x="1046.6" y="260.2" class="st0" width="85" height="85"/>
<rect x="1140.9" y="260.2" class="st0" width="85" height="85"/>
<rect x="197" y="376.1" class="st0" width="85" height="85"/>
<rect x="291.4" y="376.1" class="st0" width="85" height="85"/>
<rect x="385.8" y="376.1" class="st0" width="85" height="85"/>
<rect x="480.2" y="376.1" class="st0" width="85" height="85"/>
<rect x="574.6" y="376.1" class="st0" width="85" height="85"/>
<rect x="669" y="376.1" class="st0" width="85" height="85"/>
<rect x="763.4" y="376.1" class="st0" width="85" height="85"/>
<rect x="857.8" y="376.1" class="st0" width="85" height="85"/>
<rect x="952.2" y="376.1" class="st0" width="85" height="85"/>
<rect x="1046.6" y="376.1" class="st0" width="85" height="85"/>
<rect x="1140.9" y="376.1" class="st0" width="85" height="85"/>
<rect x="197" y="492" class="st0" width="85" height="85"/>
<rect x="291.4" y="492" class="st0" width="85" height="85"/>
<rect x="385.8" y="492" class="st0" width="85" height="85"/>
<rect x="480.2" y="492" class="st0" width="85" height="85"/>
<rect x="574.6" y="492" class="st0" width="85" height="85"/>
<rect x="669" y="492" class="st0" width="85" height="85"/>
<rect x="763.4" y="492" class="st0" width="85" height="85"/>
<rect x="857.8" y="492" class="st0" width="85" height="85"/>
<rect x="952.2" y="492" class="st0" width="85" height="85"/>
<rect x="1046.6" y="492" class="st0" width="85" height="85"/>
<rect x="1140.9" y="492" class="st0" width="85" height="85"/>
<rect x="197" y="608" class="st0" width="85" height="85"/>
<rect x="291.4" y="608" class="st0" width="85" height="85"/>
<rect x="385.8" y="608" class="st0" width="85" height="85"/>
<rect x="480.2" y="608" class="st0" width="85" height="85"/>
<rect x="574.6" y="608" class="st0" width="85" height="85"/>
<rect x="669" y="608" class="st0" width="85" height="85"/>
<rect x="763.4" y="608" class="st0" width="85" height="85"/>
<rect x="857.8" y="608" class="st0" width="85" height="85"/>
<rect x="952.2" y="608" class="st0" width="85" height="85"/>
<rect x="1046.6" y="608" class="st0" width="85" height="85"/>
<rect x="1140.9" y="608" class="st0" width="85" height="85"/>
<path class="st0" d="M1420.2,711.5"/>
<path class="st0" d="M1420.2,711.5"/>
<rect x="551.5" y="1328.6" class="st0" width="35.4" height="35.4"/>
<rect x="646.4" y="1328.6" class="st0" width="35.4" height="35.4"/>
<rect x="741.2" y="1328.6" class="st0" width="35.4" height="35.4"/>
<rect x="836" y="1328.6" class="st0" width="35.4" height="35.4"/>
<rect x="197" y="723.9" class="st0" width="85" height="85"/>
<rect x="291.4" y="723.9" class="st0" width="85" height="85"/>
<rect x="385.8" y="723.9" class="st0" width="85" height="85"/>
<rect x="480.2" y="723.9" class="st0" width="85" height="85"/>
<rect x="574.6" y="723.9" class="st0" width="85" height="85"/>
<rect x="669" y="723.9" class="st0" width="85" height="85"/>
<rect x="763.4" y="723.9" class="st0" width="85" height="85"/>
<rect x="857.8" y="723.9" class="st0" width="85" height="85"/>
<rect x="952.2" y="723.9" class="st0" width="85" height="85"/>
<rect x="1046.6" y="723.9" class="st0" width="85" height="85"/>
<rect x="1140.9" y="723.9" class="st0" width="85" height="85"/>
<rect x="197" y="839.9" class="st0" width="85" height="85"/>
<rect x="291.4" y="839.9" class="st0" width="85" height="85"/>
<rect x="385.8" y="839.9" class="st0" width="85" height="85"/>
<rect x="480.2" y="839.9" class="st0" width="85" height="85"/>
<rect x="574.6" y="839.9" class="st0" width="85" height="85"/>
<rect x="669" y="839.9" class="st0" width="85" height="85"/>
<rect x="763.4" y="839.9" class="st0" width="85" height="85"/>
<rect x="857.8" y="839.9" class="st0" width="85" height="85"/>
<rect x="952.2" y="839.9" class="st0" width="85" height="85"/>
<rect x="1046.6" y="839.9" class="st0" width="85" height="85"/>
<rect x="1140.9" y="839.9" class="st0" width="85" height="85"/>
<rect x="197" y="955.8" class="st0" width="85" height="85"/>
<rect x="291.4" y="955.8" class="st0" width="85" height="85"/>
<rect x="385.8" y="955.8" class="st0" width="85" height="85"/>
<rect x="480.2" y="955.8" class="st0" width="85" height="85"/>
<rect x="574.6" y="955.8" class="st0" width="85" height="85"/>
<rect x="669" y="955.8" class="st0" width="85" height="85"/>
<rect x="763.4" y="955.8" class="st0" width="85" height="85"/>
<rect x="857.8" y="955.8" class="st0" width="85" height="85"/>
<rect x="952.2" y="955.8" class="st0" width="85" height="85"/>
<rect x="1046.6" y="955.8" class="st0" width="85" height="85"/>
<rect x="1140.9" y="955.8" class="st0" width="85" height="85"/>
<rect x="197" y="1071.7" class="st0" width="85" height="85"/>
<rect x="291.4" y="1071.7" class="st0" width="85" height="85"/>
<rect x="385.8" y="1071.7" class="st0" width="85" height="85"/>
<rect x="480.2" y="1071.7" class="st0" width="85" height="85"/>
<rect x="574.6" y="1071.7" class="st0" width="85" height="85"/>
<rect x="669" y="1071.7" class="st0" width="85" height="85"/>
<rect x="763.4" y="1071.7" class="st0" width="85" height="85"/>
<rect x="857.8" y="1071.7" class="st0" width="85" height="85"/>
<rect x="952.2" y="1071.7" class="st0" width="85" height="85"/>
<rect x="1046.6" y="1071.7" class="st0" width="85" height="85"/>
<rect x="1140.9" y="1071.7" class="st0" width="85" height="85"/>
<rect x="197" y="1187.7" class="st0" width="85" height="85"/>
<rect x="291.4" y="1187.7" class="st0" width="85" height="85"/>
<rect x="385.8" y="1187.7" class="st0" width="85" height="85"/>
<rect x="480.2" y="1187.7" class="st0" width="85" height="85"/>
<rect x="574.6" y="1187.7" class="st0" width="85" height="85"/>
<rect x="669" y="1187.7" class="st0" width="85" height="85"/>
<rect x="763.4" y="1187.7" class="st0" width="85" height="85"/>
<rect x="857.8" y="1187.7" class="st0" width="85" height="85"/>
<rect x="952.2" y="1187.7" class="st0" width="85" height="85"/>
<rect x="1046.6" y="1187.7" class="st0" width="85" height="85"/>
<rect x="1140.9" y="1187.7" class="st0" width="85" height="85"/>
<path class="st0" d="M1420.2,711.5"/>
<rect x="2.8" y="2.8" class="st0" width="1417.3" height="1417.3"/>
<path class="st0" d="M1420.2,2.8"/>
</svg>
